G04 #@! TF.GenerationSoftware,KiCad,Pcbnew,9.0.1-rc2*
G04 #@! TF.CreationDate,2026-01-20T19:44:11-08:00*
G04 #@! TF.ProjectId,bsl_array_v1,62736c5f-6172-4726-9179-5f76312e6b69,2*
G04 #@! TF.SameCoordinates,Original*
G04 #@! TF.FileFunction,Legend,Top*
G04 #@! TF.FilePolarity,Positive*
%FSLAX46Y46*%
G04 Gerber Fmt 4.6, Leading zero omitted, Abs format (unit mm)*
G04 Created by KiCad (PCBNEW 9.0.1-rc2) date 2026-01-20 19:44:11*
%MOMM*%
%LPD*%
G01*
G04 APERTURE LIST*
G04 Aperture macros list*
%AMRoundRect*
0 Rectangle with rounded corners*
0 $1 Rounding radius*
0 $2 $3 $4 $5 $6 $7 $8 $9 X,Y pos of 4 corners*
0 Add a 4 corners polygon primitive as box body*
4,1,4,$2,$3,$4,$5,$6,$7,$8,$9,$2,$3,0*
0 Add four circle primitives for the rounded corners*
1,1,$1+$1,$2,$3*
1,1,$1+$1,$4,$5*
1,1,$1+$1,$6,$7*
1,1,$1+$1,$8,$9*
0 Add four rect primitives between the rounded corners*
20,1,$1+$1,$2,$3,$4,$5,0*
20,1,$1+$1,$4,$5,$6,$7,0*
20,1,$1+$1,$6,$7,$8,$9,0*
20,1,$1+$1,$8,$9,$2,$3,0*%
%AMFreePoly0*
4,1,15,-1.250000,0.770000,-1.238756,0.855410,-1.190320,0.959280,-1.109280,1.040320,-1.005410,1.088756,-0.920000,1.100000,1.250000,1.100000,1.250000,-1.100000,-0.920000,-1.100000,-1.005410,-1.088756,-1.109280,-1.040320,-1.190320,-0.959280,-1.238756,-0.855410,-1.250000,-0.770000,-1.250000,0.770000,-1.250000,0.770000,$1*%
%AMFreePoly1*
4,1,13,-0.775000,1.100000,0.542500,1.100000,0.631474,1.082303,0.706902,1.031902,0.757302,0.956474,0.775000,0.867500,0.775000,-0.867500,0.757302,-0.956474,0.706902,-1.031902,0.631474,-1.082303,0.542500,-1.100000,-0.775000,-1.100000,-0.775000,1.100000,-0.775000,1.100000,$1*%
%AMFreePoly2*
4,1,17,-1.250000,0.660000,-1.242329,0.741801,-1.199011,0.865598,-1.121127,0.971127,-1.015598,1.049011,-0.891801,1.092329,-0.810000,1.100000,1.250000,1.100000,1.250000,-1.100000,-0.810000,-1.100000,-0.891801,-1.092329,-1.015598,-1.049011,-1.121127,-0.971127,-1.199011,-0.865598,-1.242329,-0.741801,-1.250000,-0.660000,-1.250000,0.660000,-1.250000,0.660000,$1*%
G04 Aperture macros list end*
%ADD10C,0.100000*%
%ADD11C,0.350000*%
%ADD12C,0.400000*%
%ADD13C,0.120000*%
%ADD14C,3.225000*%
%ADD15FreePoly0,135.000000*%
%ADD16FreePoly1,135.000000*%
%ADD17FreePoly0,90.000000*%
%ADD18FreePoly1,90.000000*%
%ADD19FreePoly2,270.000000*%
%ADD20FreePoly1,270.000000*%
%ADD21FreePoly0,270.000000*%
%ADD22RoundRect,0.250000X0.220971X-0.662913X0.662913X-0.220971X-0.220971X0.662913X-0.662913X0.220971X0*%
%ADD23FreePoly2,180.000000*%
%ADD24FreePoly1,180.000000*%
%ADD25FreePoly2,90.000000*%
%ADD26FreePoly0,0.000000*%
%ADD27FreePoly1,0.000000*%
%ADD28RoundRect,0.250000X-0.662913X-0.220971X-0.220971X-0.662913X0.662913X0.220971X0.220971X0.662913X0*%
%ADD29FreePoly0,315.000000*%
%ADD30FreePoly1,315.000000*%
%ADD31FreePoly2,315.000000*%
%ADD32C,3.200000*%
%ADD33FreePoly0,225.000000*%
%ADD34FreePoly1,225.000000*%
%ADD35FreePoly2,135.000000*%
%ADD36FreePoly2,225.000000*%
%ADD37FreePoly2,45.000000*%
%ADD38FreePoly1,45.000000*%
%ADD39FreePoly0,45.000000*%
%ADD40C,1.200000*%
%ADD41RoundRect,0.200000X0.200000X-1.050000X0.200000X1.050000X-0.200000X1.050000X-0.200000X-1.050000X0*%
%ADD42RoundRect,0.200000X-0.200000X-0.275000X0.200000X-0.275000X0.200000X0.275000X-0.200000X0.275000X0*%
%ADD43RoundRect,0.250000X0.662913X0.220971X0.220971X0.662913X-0.662913X-0.220971X-0.220971X-0.662913X0*%
G04 APERTURE END LIST*
D10*
X80100000Y-21424841D02*
X79000000Y-22024841D01*
X79000000Y-20824841D01*
X80100000Y-21424841D01*
G36*
X80100000Y-21424841D02*
G01*
X79000000Y-22024841D01*
X79000000Y-20824841D01*
X80100000Y-21424841D01*
G37*
D11*
G36*
X35240683Y-31548694D02*
G01*
X35240683Y-31895000D01*
X36223456Y-31895000D01*
X36223456Y-31659885D01*
X35511518Y-31659885D01*
X35511518Y-31640926D01*
X35713330Y-31496362D01*
X35866256Y-31376446D01*
X36047971Y-31210061D01*
X36053371Y-31204678D01*
X36108197Y-31145425D01*
X36148900Y-31090047D01*
X36171173Y-31048865D01*
X36187156Y-31006286D01*
X36202909Y-30913587D01*
X36204496Y-30862768D01*
X36201437Y-30778364D01*
X36191750Y-30705244D01*
X36178831Y-30654800D01*
X36160867Y-30610730D01*
X36140577Y-30576958D01*
X36115821Y-30547648D01*
X36054709Y-30503016D01*
X35970234Y-30471434D01*
X35848726Y-30452148D01*
X35715217Y-30447128D01*
X35609564Y-30450191D01*
X35518734Y-30459909D01*
X35457235Y-30472702D01*
X35403786Y-30490459D01*
X35363664Y-30510129D01*
X35328916Y-30534051D01*
X35300989Y-30560518D01*
X35277254Y-30591132D01*
X35240936Y-30666870D01*
X35217392Y-30771920D01*
X35209176Y-30866981D01*
X35477904Y-30866981D01*
X35484976Y-30811154D01*
X35498267Y-30766358D01*
X35512769Y-30739799D01*
X35531789Y-30718341D01*
X35580544Y-30690770D01*
X35657147Y-30676202D01*
X35717323Y-30673999D01*
X35788731Y-30677139D01*
X35844399Y-30687392D01*
X35874764Y-30699433D01*
X35898755Y-30715977D01*
X35927108Y-30757313D01*
X35940665Y-30820668D01*
X35942088Y-30858555D01*
X35938895Y-30910253D01*
X35928268Y-30953043D01*
X35894182Y-31010706D01*
X35872753Y-31034776D01*
X35789162Y-31113617D01*
X35678213Y-31208293D01*
X35240683Y-31548694D01*
G37*
G36*
X36900588Y-31912585D02*
G01*
X37003437Y-31909576D01*
X37094386Y-31900239D01*
X37161620Y-31887246D01*
X37221192Y-31869237D01*
X37267678Y-31848939D01*
X37308618Y-31824326D01*
X37341944Y-31797351D01*
X37370796Y-31766317D01*
X37415317Y-31692417D01*
X37445256Y-31596119D01*
X37460174Y-31466615D01*
X37461309Y-31411765D01*
X37458297Y-31332484D01*
X37448937Y-31262341D01*
X37435848Y-31210207D01*
X37417671Y-31163820D01*
X37396654Y-31126621D01*
X37371047Y-31093630D01*
X37307495Y-31040781D01*
X37220665Y-30999962D01*
X37098690Y-30969482D01*
X37028633Y-30959397D01*
X36917876Y-30951760D01*
X36803960Y-30955184D01*
X36824934Y-30691584D01*
X37400401Y-30687371D01*
X37400401Y-30464713D01*
X36591835Y-30464713D01*
X36528912Y-31213654D01*
X36705847Y-31190893D01*
X36842637Y-31180921D01*
X36999232Y-31186268D01*
X37055501Y-31194893D01*
X37101456Y-31209084D01*
X37130691Y-31224575D01*
X37154357Y-31244313D01*
X37184387Y-31292755D01*
X37199263Y-31363477D01*
X37200915Y-31405445D01*
X37197883Y-31471391D01*
X37188380Y-31527289D01*
X37175734Y-31565104D01*
X37158262Y-31597172D01*
X37138276Y-31621240D01*
X37113952Y-31641150D01*
X37051157Y-31669408D01*
X36958284Y-31684189D01*
X36904801Y-31685806D01*
X36839588Y-31682725D01*
X36774942Y-31672887D01*
X36648482Y-31634465D01*
X36493191Y-31563531D01*
X36493191Y-31826489D01*
X36572163Y-31860068D01*
X36648518Y-31884619D01*
X36782681Y-31907789D01*
X36900588Y-31912585D01*
G37*
G36*
X38732684Y-31895000D02*
G01*
X38478611Y-31895000D01*
X38478611Y-31784083D01*
X38461758Y-31784083D01*
X38431595Y-31827234D01*
X38379760Y-31874725D01*
X38346523Y-31892305D01*
X38307997Y-31904963D01*
X38243626Y-31915296D01*
X38163629Y-31918447D01*
X38143831Y-31918301D01*
X38013478Y-31907531D01*
X37919917Y-31881845D01*
X37849455Y-31841662D01*
X37819933Y-31814820D01*
X37794312Y-31783301D01*
X37770641Y-31743397D01*
X37751141Y-31697369D01*
X37733395Y-31635720D01*
X37720604Y-31564898D01*
X37710929Y-31461133D01*
X37707872Y-31340874D01*
X37966250Y-31340874D01*
X37969504Y-31438183D01*
X37985793Y-31541902D01*
X38013743Y-31609042D01*
X38032640Y-31634174D01*
X38055296Y-31654680D01*
X38085133Y-31672378D01*
X38120209Y-31685130D01*
X38173684Y-31694915D01*
X38237085Y-31697987D01*
X38269400Y-31697091D01*
X38346569Y-31683856D01*
X38400367Y-31655491D01*
X38422406Y-31633657D01*
X38440601Y-31606547D01*
X38457481Y-31567222D01*
X38469731Y-31519453D01*
X38479722Y-31439357D01*
X38482824Y-31340874D01*
X38480891Y-31261795D01*
X38466615Y-31149247D01*
X38440886Y-31078390D01*
X38402730Y-31031566D01*
X38375587Y-31013728D01*
X38343672Y-31000898D01*
X38294903Y-30991054D01*
X38237085Y-30987973D01*
X38186068Y-30989833D01*
X38105631Y-31004963D01*
X38049966Y-31034529D01*
X38027418Y-31056578D01*
X38008851Y-31083645D01*
X37991777Y-31122281D01*
X37979414Y-31168826D01*
X37969361Y-31246268D01*
X37966250Y-31340874D01*
X37707872Y-31340874D01*
X37708303Y-31293595D01*
X37720121Y-31122552D01*
X37745400Y-31004938D01*
X37782526Y-30921000D01*
X37832868Y-30859210D01*
X37865264Y-30834028D01*
X37902096Y-30813398D01*
X37949325Y-30795236D01*
X38002766Y-30782191D01*
X38077943Y-30772577D01*
X38163629Y-30769528D01*
X38289385Y-30776700D01*
X38365305Y-30796611D01*
X38393800Y-30811909D01*
X38417716Y-30831336D01*
X38441882Y-30861239D01*
X38461758Y-30898489D01*
X38478611Y-30898489D01*
X38478611Y-30363047D01*
X38732684Y-30363047D01*
X38732684Y-31895000D01*
G37*
G36*
X39654431Y-30453350D02*
G01*
X39770067Y-30472607D01*
X39848861Y-30503596D01*
X39905952Y-30548349D01*
X39929573Y-30578969D01*
X39948890Y-30614730D01*
X39966725Y-30664396D01*
X39979539Y-30722386D01*
X39990393Y-30822722D01*
X39993619Y-30943643D01*
X39992604Y-31003548D01*
X39978151Y-31148792D01*
X39944341Y-31276027D01*
X39917063Y-31341884D01*
X39882253Y-31409014D01*
X39831031Y-31490976D01*
X39767341Y-31578834D01*
X39639213Y-31734239D01*
X39472832Y-31918447D01*
X39149424Y-31918447D01*
X39245049Y-31825039D01*
X39437886Y-31623347D01*
X39544816Y-31492532D01*
X39653449Y-31341331D01*
X39636597Y-31341331D01*
X39573555Y-31388544D01*
X39525935Y-31404512D01*
X39464405Y-31408468D01*
X39338991Y-31404690D01*
X39219169Y-31387966D01*
X39138961Y-31359409D01*
X39081624Y-31317466D01*
X39058067Y-31288613D01*
X39038805Y-31254736D01*
X39021010Y-31207433D01*
X39008216Y-31151964D01*
X38997237Y-31054024D01*
X38994051Y-30937323D01*
X39237626Y-30937323D01*
X39243368Y-31048941D01*
X39260857Y-31118400D01*
X39291035Y-31162241D01*
X39315221Y-31179457D01*
X39345246Y-31191940D01*
X39407001Y-31203543D01*
X39487486Y-31206876D01*
X39591295Y-31201196D01*
X39658295Y-31183415D01*
X39701799Y-31152053D01*
X39719363Y-31126485D01*
X39732360Y-31094585D01*
X39745063Y-31029166D01*
X39749986Y-30943643D01*
X39743886Y-30806432D01*
X39725241Y-30738936D01*
X39693262Y-30695360D01*
X39667702Y-30678089D01*
X39636167Y-30665583D01*
X39573027Y-30654136D01*
X39491700Y-30650826D01*
X39386604Y-30657448D01*
X39323541Y-30676359D01*
X39300580Y-30690942D01*
X39281833Y-30709674D01*
X39264879Y-30737174D01*
X39252553Y-30771483D01*
X39240957Y-30843210D01*
X39237626Y-30937323D01*
X38994051Y-30937323D01*
X38993994Y-30935217D01*
X38999636Y-30784556D01*
X39018461Y-30669758D01*
X39049172Y-30591462D01*
X39093796Y-30534643D01*
X39124440Y-30511093D01*
X39160277Y-30491828D01*
X39210163Y-30474016D01*
X39268475Y-30461215D01*
X39369640Y-30450354D01*
X39491700Y-30447128D01*
X39654431Y-30453350D01*
G37*
G36*
X40882880Y-30444870D02*
G01*
X40998468Y-30461043D01*
X41077312Y-30489897D01*
X41109324Y-30510230D01*
X41137366Y-30535064D01*
X41164946Y-30569024D01*
X41188891Y-30609754D01*
X41218275Y-30680678D01*
X41244020Y-30768063D01*
X41252585Y-30802691D01*
X41277953Y-30958945D01*
X41285425Y-31062533D01*
X41288167Y-31190298D01*
X41288108Y-31210099D01*
X41278242Y-31404395D01*
X41265402Y-31493593D01*
X41246127Y-31582949D01*
X41225871Y-31654118D01*
X41184814Y-31753176D01*
X41137564Y-31818810D01*
X41108770Y-31844195D01*
X41076141Y-31864779D01*
X41032703Y-31883287D01*
X40982681Y-31896603D01*
X40883571Y-31909122D01*
X40761060Y-31912585D01*
X40616009Y-31907368D01*
X40511467Y-31889566D01*
X40437791Y-31858662D01*
X40407081Y-31836771D01*
X40379839Y-31809947D01*
X40353011Y-31773558D01*
X40329474Y-31729783D01*
X40303157Y-31661586D01*
X40286600Y-31601816D01*
X40555255Y-31601816D01*
X40557280Y-31607447D01*
X40582284Y-31649040D01*
X40602443Y-31664734D01*
X40628880Y-31676262D01*
X40684810Y-31686834D01*
X40763167Y-31690019D01*
X40776161Y-31689954D01*
X40881886Y-31680348D01*
X40916744Y-31668408D01*
X40942441Y-31650851D01*
X40961110Y-31627035D01*
X40974883Y-31596317D01*
X40996266Y-31511599D01*
X41016639Y-31377400D01*
X41025667Y-31171430D01*
X41019347Y-31013893D01*
X40555255Y-31601816D01*
X40286600Y-31601816D01*
X40280207Y-31578736D01*
X40273767Y-31550081D01*
X40249955Y-31392650D01*
X40240367Y-31177750D01*
X40502773Y-31177750D01*
X40505659Y-31295021D01*
X40513215Y-31385570D01*
X40985733Y-30787114D01*
X40975368Y-30753784D01*
X40948174Y-30708488D01*
X40927464Y-30691651D01*
X40901318Y-30679369D01*
X40842425Y-30667400D01*
X40761060Y-30664016D01*
X40713786Y-30664994D01*
X40635413Y-30675888D01*
X40589756Y-30699390D01*
X40570027Y-30722408D01*
X40555032Y-30752872D01*
X40532174Y-30839687D01*
X40531359Y-30844068D01*
X40511933Y-30975693D01*
X40502773Y-31177750D01*
X40240367Y-31177750D01*
X40240273Y-31175643D01*
X40248280Y-30979804D01*
X40264000Y-30861192D01*
X40284329Y-30770170D01*
X40308624Y-30687045D01*
X40349347Y-30593287D01*
X40396785Y-30530775D01*
X40426182Y-30506358D01*
X40459822Y-30486491D01*
X40504959Y-30468623D01*
X40557444Y-30455783D01*
X40650855Y-30444706D01*
X40765273Y-30441449D01*
X40882880Y-30444870D01*
G37*
G36*
X42026208Y-31895000D02*
G01*
X42286601Y-31895000D01*
X42286601Y-30464713D01*
X42026208Y-30464713D01*
X41574664Y-30781252D01*
X41574664Y-31059231D01*
X41952660Y-30825491D01*
X42034542Y-30758263D01*
X42026208Y-30888688D01*
X42026208Y-31895000D01*
G37*
G36*
X43320756Y-31912585D02*
G01*
X43424623Y-31909514D01*
X43512851Y-31899744D01*
X43570993Y-31887076D01*
X43620942Y-31869521D01*
X43657750Y-31850206D01*
X43689176Y-31826739D01*
X43734754Y-31770601D01*
X43765195Y-31695074D01*
X43782296Y-31587826D01*
X43784848Y-31538710D01*
X43532789Y-31538710D01*
X43518724Y-31589390D01*
X43499812Y-31628472D01*
X43482105Y-31650278D01*
X43460388Y-31667005D01*
X43405152Y-31686533D01*
X43331197Y-31692125D01*
X43263424Y-31689040D01*
X43206458Y-31679170D01*
X43169696Y-31666456D01*
X43138495Y-31648812D01*
X43115106Y-31628601D01*
X43095630Y-31603853D01*
X43067199Y-31538612D01*
X43050850Y-31439032D01*
X43047723Y-31349483D01*
X43050812Y-31256129D01*
X43060711Y-31179118D01*
X43073102Y-31131548D01*
X43090208Y-31091863D01*
X43108878Y-31063783D01*
X43131532Y-31040766D01*
X43187165Y-31009551D01*
X43266589Y-30992852D01*
X43329091Y-30990080D01*
X43385943Y-30993228D01*
X43431285Y-31003542D01*
X43457557Y-31016100D01*
X43479174Y-31033510D01*
X43509029Y-31080903D01*
X43530683Y-31166667D01*
X43784848Y-31166667D01*
X43780083Y-31083910D01*
X43768915Y-31012531D01*
X43755001Y-30963609D01*
X43736182Y-30921069D01*
X43715204Y-30888580D01*
X43689839Y-30860562D01*
X43627378Y-30818219D01*
X43540807Y-30788944D01*
X43415287Y-30772338D01*
X43316543Y-30769528D01*
X43218297Y-30772574D01*
X43132069Y-30782169D01*
X43070729Y-30795181D01*
X43016493Y-30813284D01*
X42974485Y-30833652D01*
X42937467Y-30858466D01*
X42907013Y-30886070D01*
X42880583Y-30918025D01*
X42838779Y-30996488D01*
X42809554Y-31102949D01*
X42793611Y-31252804D01*
X42791543Y-31347377D01*
X42794591Y-31457519D01*
X42804207Y-31553568D01*
X42817124Y-31620869D01*
X42835071Y-31680027D01*
X42855041Y-31725146D01*
X42879324Y-31764679D01*
X42905930Y-31796603D01*
X42936649Y-31824152D01*
X43010724Y-31866775D01*
X43109578Y-31895830D01*
X43247027Y-31911011D01*
X43320756Y-31912585D01*
G37*
G36*
X45571698Y-30884842D02*
G01*
X45588459Y-30884842D01*
X45619812Y-30845286D01*
X45678662Y-30793470D01*
X45713055Y-30775069D01*
X45751447Y-30761927D01*
X45811832Y-30751531D01*
X45884573Y-30748371D01*
X45907925Y-30748575D01*
X46037298Y-30759748D01*
X46130426Y-30785829D01*
X46200729Y-30826473D01*
X46230237Y-30853612D01*
X46255845Y-30885446D01*
X46279528Y-30925766D01*
X46299034Y-30972243D01*
X46316796Y-31034507D01*
X46329595Y-31106001D01*
X46339286Y-31210863D01*
X46342345Y-31332356D01*
X46341646Y-31393475D01*
X46328935Y-31564465D01*
X46302960Y-31682333D01*
X46265248Y-31766577D01*
X46214407Y-31828615D01*
X46181816Y-31853877D01*
X46144822Y-31874573D01*
X46097561Y-31892755D01*
X46044162Y-31905815D01*
X45969508Y-31915402D01*
X45884573Y-31918447D01*
X45848005Y-31917588D01*
X45758903Y-31904113D01*
X45720430Y-31890012D01*
X45684408Y-31870203D01*
X45637228Y-31833397D01*
X45588459Y-31783625D01*
X45571698Y-31783625D01*
X45571698Y-31895000D01*
X45317533Y-31895000D01*
X45318309Y-31332356D01*
X45567485Y-31332356D01*
X45569895Y-31422596D01*
X45584898Y-31535776D01*
X45611175Y-31607204D01*
X45649681Y-31654368D01*
X45676813Y-31672260D01*
X45708609Y-31685127D01*
X45756544Y-31694914D01*
X45813132Y-31697987D01*
X45867084Y-31695790D01*
X45945544Y-31679929D01*
X46000495Y-31649327D01*
X46022955Y-31626458D01*
X46041460Y-31598435D01*
X46058536Y-31558363D01*
X46070901Y-31510139D01*
X46080948Y-31430058D01*
X46084058Y-31332356D01*
X46080504Y-31229496D01*
X46063852Y-31125413D01*
X46035624Y-31057979D01*
X46016628Y-31032752D01*
X45993898Y-31012171D01*
X45964067Y-30994442D01*
X45929057Y-30981669D01*
X45875961Y-30971901D01*
X45813132Y-30968831D01*
X45779472Y-30969828D01*
X45703266Y-30983380D01*
X45649839Y-31012201D01*
X45627854Y-31034416D01*
X45609698Y-31061982D01*
X45592823Y-31102019D01*
X45580576Y-31150642D01*
X45570587Y-31232155D01*
X45567485Y-31332356D01*
X45318309Y-31332356D01*
X45319639Y-30368268D01*
X45573804Y-30368268D01*
X45571698Y-30884842D01*
G37*
G36*
X46922941Y-30662367D02*
G01*
X47244151Y-30662367D01*
X47244151Y-30366253D01*
X46922941Y-30366253D01*
X46922941Y-30662367D01*
G37*
G36*
X46618401Y-31895000D02*
G01*
X47586518Y-31895000D01*
X47586518Y-31678753D01*
X47235816Y-31678753D01*
X47235816Y-30798838D01*
X46639375Y-30798838D01*
X46639375Y-31015176D01*
X46983757Y-31015176D01*
X46983757Y-31678753D01*
X46618401Y-31678753D01*
X46618401Y-31895000D01*
G37*
G36*
X48376162Y-30781935D02*
G01*
X48446597Y-30802913D01*
X48475562Y-30820289D01*
X48500830Y-30842734D01*
X48529712Y-30880515D01*
X48555552Y-30928714D01*
X48572313Y-30928714D01*
X48572313Y-30798838D01*
X48818052Y-30798838D01*
X48818052Y-31926140D01*
X48812730Y-32037349D01*
X48792452Y-32139912D01*
X48758451Y-32214226D01*
X48735608Y-32244417D01*
X48708466Y-32270544D01*
X48674306Y-32294281D01*
X48634653Y-32313813D01*
X48581407Y-32331523D01*
X48519952Y-32344288D01*
X48428730Y-32354012D01*
X48322452Y-32357076D01*
X48222267Y-32354611D01*
X48087354Y-32338702D01*
X47995879Y-32310488D01*
X47931125Y-32270078D01*
X47905283Y-32243721D01*
X47883952Y-32213212D01*
X47865028Y-32173724D01*
X47851055Y-32128426D01*
X47839921Y-32062895D01*
X47835188Y-31987140D01*
X48093566Y-31987140D01*
X48094525Y-32002169D01*
X48106889Y-32066141D01*
X48132567Y-32105850D01*
X48155167Y-32121765D01*
X48184688Y-32133425D01*
X48244243Y-32143889D01*
X48324559Y-32147058D01*
X48412484Y-32141231D01*
X48477614Y-32121908D01*
X48521246Y-32088117D01*
X48538638Y-32061540D01*
X48551379Y-32028988D01*
X48562103Y-31973664D01*
X48565993Y-31905075D01*
X48568100Y-31745523D01*
X48551338Y-31745523D01*
X48512990Y-31813305D01*
X48467091Y-31858049D01*
X48435522Y-31875059D01*
X48397822Y-31887378D01*
X48331452Y-31897710D01*
X48246798Y-31900861D01*
X48231025Y-31900766D01*
X48101414Y-31890361D01*
X48007820Y-31864881D01*
X47937021Y-31824805D01*
X47907352Y-31798090D01*
X47881515Y-31766682D01*
X47857774Y-31727259D01*
X47838144Y-31681789D01*
X47820495Y-31621950D01*
X47807723Y-31553341D01*
X47798358Y-31457210D01*
X47795346Y-31346552D01*
X48051526Y-31346552D01*
X48053473Y-31421066D01*
X48067871Y-31527591D01*
X48094078Y-31595579D01*
X48133601Y-31641301D01*
X48162163Y-31658973D01*
X48195885Y-31671706D01*
X48247887Y-31681536D01*
X48309813Y-31684615D01*
X48345849Y-31683643D01*
X48427021Y-31670390D01*
X48482689Y-31642607D01*
X48505122Y-31621599D01*
X48523609Y-31595613D01*
X48540591Y-31558374D01*
X48552903Y-31513307D01*
X48562891Y-31438362D01*
X48565993Y-31346552D01*
X48563489Y-31259023D01*
X48548247Y-31150675D01*
X48521455Y-31081497D01*
X48481741Y-31035169D01*
X48453427Y-31017390D01*
X48420163Y-31004590D01*
X48369636Y-30994802D01*
X48309813Y-30991728D01*
X48268304Y-30993083D01*
X48189487Y-31007345D01*
X48134690Y-31036411D01*
X48112366Y-31058406D01*
X48093961Y-31085538D01*
X48076969Y-31124540D01*
X48064653Y-31171685D01*
X48054632Y-31250297D01*
X48051526Y-31346552D01*
X47795346Y-31346552D01*
X47796240Y-31281279D01*
X47809610Y-31119664D01*
X47836382Y-31007002D01*
X47875292Y-30925512D01*
X47928158Y-30864736D01*
X47962363Y-30839725D01*
X48001225Y-30819218D01*
X48051238Y-30801082D01*
X48107826Y-30788052D01*
X48187496Y-30778438D01*
X48278306Y-30775390D01*
X48376162Y-30781935D01*
G37*
G36*
X50840108Y-31912585D02*
G01*
X50959649Y-31909499D01*
X51059852Y-31899625D01*
X51123507Y-31887109D01*
X51177494Y-31869798D01*
X51216008Y-31851136D01*
X51248387Y-31828524D01*
X51273053Y-31804030D01*
X51293097Y-31775803D01*
X51320621Y-31706576D01*
X51333076Y-31609865D01*
X51333600Y-31580751D01*
X51330533Y-31522133D01*
X51320782Y-31470309D01*
X51307352Y-31432696D01*
X51288513Y-31398773D01*
X51237270Y-31344006D01*
X51159407Y-31296942D01*
X51038363Y-31252797D01*
X50930416Y-31225469D01*
X50747753Y-31180323D01*
X50646360Y-31143351D01*
X50622885Y-31127492D01*
X50610293Y-31110906D01*
X50607008Y-31095135D01*
X50610115Y-31063923D01*
X50620141Y-31038775D01*
X50633387Y-31023089D01*
X50651947Y-31010515D01*
X50711069Y-30993063D01*
X50833788Y-30985867D01*
X50916015Y-30989083D01*
X50976340Y-30999873D01*
X51004747Y-31011517D01*
X51026158Y-31027397D01*
X51049009Y-31066520D01*
X51056354Y-31109881D01*
X51308413Y-31109881D01*
X51304785Y-31039432D01*
X51294580Y-30978590D01*
X51281277Y-30936772D01*
X51262933Y-30900366D01*
X51241928Y-30872153D01*
X51216288Y-30847843D01*
X51150618Y-30810389D01*
X51055417Y-30784471D01*
X50911412Y-30770813D01*
X50835894Y-30769528D01*
X50717528Y-30772617D01*
X50618540Y-30782513D01*
X50556042Y-30795010D01*
X50503146Y-30812293D01*
X50465534Y-30830908D01*
X50434003Y-30853463D01*
X50410032Y-30877937D01*
X50390652Y-30906149D01*
X50364298Y-30975671D01*
X50353084Y-31073465D01*
X50352843Y-31093120D01*
X50355904Y-31147368D01*
X50365608Y-31195137D01*
X50379012Y-31229799D01*
X50397799Y-31260904D01*
X50449424Y-31311138D01*
X50529272Y-31354213D01*
X50656188Y-31394400D01*
X50781306Y-31421016D01*
X50902293Y-31446757D01*
X50987274Y-31473775D01*
X51023444Y-31492073D01*
X51049195Y-31512568D01*
X51063323Y-31531495D01*
X51071782Y-31552705D01*
X51075314Y-31582857D01*
X51072213Y-31615703D01*
X51062230Y-31642101D01*
X51049148Y-31658437D01*
X51030870Y-31671494D01*
X50973867Y-31689294D01*
X50863945Y-31696453D01*
X50840108Y-31696338D01*
X50760010Y-31692283D01*
X50698236Y-31681306D01*
X50665335Y-31669033D01*
X50639635Y-31652434D01*
X50622779Y-31634318D01*
X50610426Y-31612399D01*
X50597413Y-31553185D01*
X50596475Y-31532390D01*
X50338189Y-31532390D01*
X50339085Y-31607623D01*
X50346845Y-31673066D01*
X50358479Y-31718777D01*
X50375325Y-31758851D01*
X50394962Y-31789963D01*
X50419254Y-31817043D01*
X50481041Y-31859044D01*
X50569106Y-31889283D01*
X50699022Y-31907883D01*
X50840108Y-31912585D01*
G37*
G36*
X52132549Y-31912585D02*
G01*
X52236416Y-31909514D01*
X52324644Y-31899744D01*
X52382786Y-31887076D01*
X52432735Y-31869521D01*
X52469543Y-31850206D01*
X52500970Y-31826739D01*
X52546547Y-31770601D01*
X52576989Y-31695074D01*
X52594090Y-31587826D01*
X52596641Y-31538710D01*
X52344583Y-31538710D01*
X52330517Y-31589390D01*
X52311605Y-31628472D01*
X52293899Y-31650278D01*
X52272181Y-31667005D01*
X52216945Y-31686533D01*
X52142991Y-31692125D01*
X52075218Y-31689040D01*
X52018251Y-31679170D01*
X51981490Y-31666456D01*
X51950288Y-31648812D01*
X51926899Y-31628601D01*
X51907423Y-31603853D01*
X51878992Y-31538612D01*
X51862643Y-31439032D01*
X51859516Y-31349483D01*
X51862605Y-31256129D01*
X51872504Y-31179118D01*
X51884895Y-31131548D01*
X51902001Y-31091863D01*
X51920671Y-31063783D01*
X51943326Y-31040766D01*
X51998958Y-31009551D01*
X52078382Y-30992852D01*
X52140884Y-30990080D01*
X52197737Y-30993228D01*
X52243078Y-31003542D01*
X52269350Y-31016100D01*
X52290968Y-31033510D01*
X52320823Y-31080903D01*
X52342476Y-31166667D01*
X52596641Y-31166667D01*
X52591876Y-31083910D01*
X52580709Y-31012531D01*
X52566795Y-30963609D01*
X52547976Y-30921069D01*
X52526998Y-30888580D01*
X52501632Y-30860562D01*
X52439172Y-30818219D01*
X52352600Y-30788944D01*
X52227080Y-30772338D01*
X52128336Y-30769528D01*
X52030091Y-30772574D01*
X51943863Y-30782169D01*
X51882522Y-30795181D01*
X51828286Y-30813284D01*
X51786278Y-30833652D01*
X51749260Y-30858466D01*
X51718806Y-30886070D01*
X51692376Y-30918025D01*
X51650572Y-30996488D01*
X51621347Y-31102949D01*
X51605405Y-31252804D01*
X51603336Y-31347377D01*
X51606385Y-31457519D01*
X51616001Y-31553568D01*
X51628917Y-31620869D01*
X51646864Y-31680027D01*
X51666834Y-31725146D01*
X51691117Y-31764679D01*
X51717724Y-31796603D01*
X51748442Y-31824152D01*
X51822517Y-31866775D01*
X51921371Y-31895830D01*
X52058821Y-31911011D01*
X52132549Y-31912585D01*
G37*
G36*
X53458317Y-30772790D02*
G01*
X53582536Y-30789963D01*
X53667941Y-30819595D01*
X53729194Y-30862113D01*
X53753883Y-30890161D01*
X53774121Y-30922626D01*
X53792023Y-30965100D01*
X53804907Y-31013882D01*
X53814584Y-31084895D01*
X53817642Y-31167125D01*
X53817642Y-31895000D01*
X53578223Y-31895000D01*
X53578223Y-31763566D01*
X53561461Y-31763566D01*
X53521405Y-31815329D01*
X53462281Y-31867294D01*
X53427742Y-31885756D01*
X53389237Y-31898933D01*
X53328269Y-31909413D01*
X53254815Y-31912585D01*
X53107328Y-31903685D01*
X53016743Y-31881366D01*
X52954381Y-31846625D01*
X52929852Y-31823198D01*
X52909771Y-31795569D01*
X52892031Y-31758854D01*
X52879255Y-31716096D01*
X52869452Y-31651444D01*
X52866377Y-31575438D01*
X52867314Y-31556662D01*
X53122557Y-31556662D01*
X53127581Y-31610879D01*
X53146624Y-31652673D01*
X53164313Y-31668786D01*
X53187833Y-31680566D01*
X53235265Y-31691058D01*
X53298961Y-31694232D01*
X53327370Y-31693744D01*
X53417659Y-31682192D01*
X53477794Y-31656750D01*
X53501471Y-31637717D01*
X53521114Y-31614092D01*
X53539154Y-31580675D01*
X53552638Y-31540216D01*
X53564493Y-31472696D01*
X53569796Y-31389875D01*
X53361976Y-31391981D01*
X53300471Y-31394391D01*
X53215629Y-31408451D01*
X53166111Y-31433292D01*
X53148446Y-31451621D01*
X53135730Y-31474059D01*
X53125669Y-31511030D01*
X53122557Y-31556662D01*
X52867314Y-31556662D01*
X52870961Y-31483537D01*
X52890777Y-31389035D01*
X52925238Y-31319292D01*
X52949011Y-31290369D01*
X52977444Y-31265270D01*
X53014010Y-31242066D01*
X53056727Y-31222939D01*
X53115109Y-31205375D01*
X53182924Y-31192702D01*
X53285569Y-31182928D01*
X53406031Y-31179856D01*
X53571903Y-31179856D01*
X53571903Y-31167125D01*
X53570558Y-31130594D01*
X53557091Y-31067081D01*
X53528816Y-31025613D01*
X53504993Y-31009063D01*
X53474879Y-30997016D01*
X53420661Y-30986882D01*
X53351443Y-30983760D01*
X53329164Y-30984024D01*
X53244324Y-30993455D01*
X53196860Y-31014369D01*
X53180282Y-31030724D01*
X53168611Y-31051284D01*
X53159739Y-31087322D01*
X53158278Y-31132962D01*
X52902006Y-31132962D01*
X52901394Y-31083538D01*
X52911727Y-30980919D01*
X52937205Y-30908497D01*
X52955872Y-30879444D01*
X52978942Y-30854288D01*
X53008935Y-30831356D01*
X53044589Y-30812455D01*
X53094170Y-30795048D01*
X53152470Y-30782475D01*
X53243419Y-30772612D01*
X53351443Y-30769528D01*
X53458317Y-30772790D01*
G37*
G36*
X54125204Y-31895000D02*
G01*
X54381385Y-31895000D01*
X54381385Y-31324662D01*
X54384478Y-31237020D01*
X54394405Y-31165159D01*
X54406754Y-31121330D01*
X54423794Y-31085002D01*
X54442467Y-31059413D01*
X54465141Y-31038665D01*
X54521811Y-31010926D01*
X54604863Y-30997472D01*
X54643885Y-30996400D01*
X54705685Y-30999518D01*
X54754589Y-31009626D01*
X54782448Y-31021840D01*
X54804705Y-31038667D01*
X54832116Y-31082037D01*
X54845899Y-31150431D01*
X54847583Y-31196343D01*
X54847583Y-31895000D01*
X55103763Y-31895000D01*
X55103763Y-31200556D01*
X55100693Y-31105320D01*
X55090926Y-31024019D01*
X55078189Y-30969933D01*
X55060518Y-30923310D01*
X55040933Y-30888655D01*
X55017104Y-30859017D01*
X54959423Y-30815673D01*
X54880809Y-30786810D01*
X54768187Y-30771422D01*
X54698473Y-30769528D01*
X54632345Y-30772684D01*
X54576432Y-30783049D01*
X54539925Y-30796365D01*
X54507071Y-30815063D01*
X54451376Y-30867606D01*
X54398146Y-30948039D01*
X54381385Y-30948039D01*
X54381385Y-30798838D01*
X54125204Y-30798838D01*
X54125204Y-31895000D01*
G37*
G36*
X55381926Y-31895000D02*
G01*
X56377246Y-31895000D01*
X56377246Y-31676646D01*
X56018209Y-31676646D01*
X56018209Y-30365062D01*
X55402900Y-30365062D01*
X55402900Y-30583507D01*
X55766150Y-30583507D01*
X55766150Y-31676646D01*
X55381926Y-31676646D01*
X55381926Y-31895000D01*
G37*
G36*
X56993562Y-30662367D02*
G01*
X57314772Y-30662367D01*
X57314772Y-30366253D01*
X56993562Y-30366253D01*
X56993562Y-30662367D01*
G37*
G36*
X56689022Y-31895000D02*
G01*
X57657139Y-31895000D01*
X57657139Y-31678753D01*
X57306437Y-31678753D01*
X57306437Y-30798838D01*
X56709996Y-30798838D01*
X56709996Y-31015176D01*
X57054378Y-31015176D01*
X57054378Y-31678753D01*
X56689022Y-31678753D01*
X56689022Y-31895000D01*
G37*
G36*
X58446783Y-30781935D02*
G01*
X58517218Y-30802913D01*
X58546184Y-30820289D01*
X58571451Y-30842734D01*
X58600333Y-30880515D01*
X58626173Y-30928714D01*
X58642934Y-30928714D01*
X58642934Y-30798838D01*
X58888673Y-30798838D01*
X58888673Y-31926140D01*
X58883351Y-32037349D01*
X58863073Y-32139912D01*
X58829072Y-32214226D01*
X58806229Y-32244417D01*
X58779087Y-32270544D01*
X58744927Y-32294281D01*
X58705274Y-32313813D01*
X58652028Y-32331523D01*
X58590573Y-32344288D01*
X58499351Y-32354012D01*
X58393073Y-32357076D01*
X58292888Y-32354611D01*
X58157976Y-32338702D01*
X58066500Y-32310488D01*
X58001746Y-32270078D01*
X57975904Y-32243721D01*
X57954574Y-32213212D01*
X57935650Y-32173724D01*
X57921676Y-32128426D01*
X57910542Y-32062895D01*
X57905809Y-31987140D01*
X58164187Y-31987140D01*
X58165146Y-32002169D01*
X58177511Y-32066141D01*
X58203188Y-32105850D01*
X58225788Y-32121765D01*
X58255309Y-32133425D01*
X58314864Y-32143889D01*
X58395180Y-32147058D01*
X58483105Y-32141231D01*
X58548236Y-32121908D01*
X58591867Y-32088117D01*
X58609259Y-32061540D01*
X58622000Y-32028988D01*
X58632725Y-31973664D01*
X58636614Y-31905075D01*
X58638721Y-31745523D01*
X58621960Y-31745523D01*
X58583611Y-31813305D01*
X58537712Y-31858049D01*
X58506143Y-31875059D01*
X58468443Y-31887378D01*
X58402073Y-31897710D01*
X58317419Y-31900861D01*
X58301646Y-31900766D01*
X58172035Y-31890361D01*
X58078441Y-31864881D01*
X58007642Y-31824805D01*
X57977973Y-31798090D01*
X57952136Y-31766682D01*
X57928395Y-31727259D01*
X57908765Y-31681789D01*
X57891116Y-31621950D01*
X57878344Y-31553341D01*
X57868979Y-31457210D01*
X57865967Y-31346552D01*
X58122147Y-31346552D01*
X58124094Y-31421066D01*
X58138492Y-31527591D01*
X58164700Y-31595579D01*
X58204222Y-31641301D01*
X58232784Y-31658973D01*
X58266506Y-31671706D01*
X58318508Y-31681536D01*
X58380434Y-31684615D01*
X58416470Y-31683643D01*
X58497642Y-31670390D01*
X58553310Y-31642607D01*
X58575743Y-31621599D01*
X58594230Y-31595613D01*
X58611212Y-31558374D01*
X58623524Y-31513307D01*
X58633512Y-31438362D01*
X58636614Y-31346552D01*
X58634110Y-31259023D01*
X58618868Y-31150675D01*
X58592077Y-31081497D01*
X58552362Y-31035169D01*
X58524049Y-31017390D01*
X58490784Y-31004590D01*
X58440257Y-30994802D01*
X58380434Y-30991728D01*
X58338925Y-30993083D01*
X58260108Y-31007345D01*
X58205311Y-31036411D01*
X58182987Y-31058406D01*
X58164582Y-31085538D01*
X58147590Y-31124540D01*
X58135274Y-31171685D01*
X58125253Y-31250297D01*
X58122147Y-31346552D01*
X57865967Y-31346552D01*
X57866861Y-31281279D01*
X57880231Y-31119664D01*
X57907003Y-31007002D01*
X57945913Y-30925512D01*
X57998779Y-30864736D01*
X58032984Y-30839725D01*
X58071846Y-30819218D01*
X58121859Y-30801082D01*
X58178447Y-30788052D01*
X58258118Y-30778438D01*
X58348927Y-30775390D01*
X58446783Y-30781935D01*
G37*
G36*
X59160515Y-31895000D02*
G01*
X59416695Y-31895000D01*
X59416695Y-31322647D01*
X59419806Y-31231421D01*
X59429858Y-31157076D01*
X59442183Y-31112715D01*
X59459191Y-31076060D01*
X59477734Y-31050459D01*
X59500258Y-31029753D01*
X59556475Y-31002235D01*
X59639093Y-30988989D01*
X59677089Y-30987973D01*
X59739625Y-30991103D01*
X59789062Y-31001291D01*
X59816997Y-31013529D01*
X59839343Y-31030398D01*
X59866933Y-31073890D01*
X59881006Y-31142581D01*
X59882894Y-31192130D01*
X59882894Y-31895000D01*
X60139074Y-31895000D01*
X60139074Y-31196343D01*
X60136002Y-31101754D01*
X60126219Y-31021087D01*
X60113484Y-30967585D01*
X60095815Y-30921491D01*
X60076226Y-30887241D01*
X60052384Y-30857963D01*
X59994530Y-30815108D01*
X59915366Y-30786550D01*
X59801410Y-30771359D01*
X59731677Y-30769528D01*
X59665999Y-30772668D01*
X59609784Y-30782923D01*
X59572356Y-30796257D01*
X59538728Y-30814983D01*
X59483319Y-30866649D01*
X59433456Y-30943918D01*
X59416695Y-30943918D01*
X59416695Y-30364238D01*
X59160515Y-30364238D01*
X59160515Y-31895000D01*
G37*
G36*
X61042986Y-31918355D02*
G01*
X61226931Y-31907604D01*
X61376927Y-31891061D01*
X61376927Y-31670510D01*
X61228332Y-31689423D01*
X61114427Y-31695697D01*
X61046930Y-31692573D01*
X60998528Y-31682429D01*
X60975214Y-31671112D01*
X60958162Y-31655764D01*
X60939997Y-31615723D01*
X60933810Y-31536146D01*
X60933810Y-31015176D01*
X61343313Y-31015176D01*
X61343313Y-30798838D01*
X60933810Y-30798838D01*
X60933810Y-30473415D01*
X60690177Y-30576271D01*
X60690177Y-30798838D01*
X60461291Y-30798838D01*
X60410916Y-31015176D01*
X60681843Y-31015176D01*
X60681843Y-31544480D01*
X60685291Y-31639757D01*
X60697705Y-31720989D01*
X60711387Y-31764618D01*
X60730535Y-31802787D01*
X60751598Y-31830860D01*
X60777589Y-31855024D01*
X60842825Y-31890420D01*
X60935807Y-31912154D01*
X61042986Y-31918355D01*
G37*
G36*
X63528938Y-30772790D02*
G01*
X63653157Y-30789963D01*
X63738562Y-30819595D01*
X63799815Y-30862113D01*
X63824504Y-30890161D01*
X63844742Y-30922626D01*
X63862644Y-30965100D01*
X63875528Y-31013882D01*
X63885205Y-31084895D01*
X63888263Y-31167125D01*
X63888263Y-31895000D01*
X63648844Y-31895000D01*
X63648844Y-31763566D01*
X63632083Y-31763566D01*
X63592026Y-31815329D01*
X63532902Y-31867294D01*
X63498363Y-31885756D01*
X63459858Y-31898933D01*
X63398890Y-31909413D01*
X63325436Y-31912585D01*
X63177949Y-31903685D01*
X63087364Y-31881366D01*
X63025002Y-31846625D01*
X63000473Y-31823198D01*
X62980392Y-31795569D01*
X62962652Y-31758854D01*
X62949876Y-31716096D01*
X62940073Y-31651444D01*
X62936998Y-31575438D01*
X62937935Y-31556662D01*
X63193178Y-31556662D01*
X63198202Y-31610879D01*
X63217245Y-31652673D01*
X63234934Y-31668786D01*
X63258454Y-31680566D01*
X63305886Y-31691058D01*
X63369583Y-31694232D01*
X63397991Y-31693744D01*
X63488280Y-31682192D01*
X63548415Y-31656750D01*
X63572092Y-31637717D01*
X63591735Y-31614092D01*
X63609775Y-31580675D01*
X63623260Y-31540216D01*
X63635114Y-31472696D01*
X63640417Y-31389875D01*
X63432597Y-31391981D01*
X63371092Y-31394391D01*
X63286250Y-31408451D01*
X63236733Y-31433292D01*
X63219067Y-31451621D01*
X63206351Y-31474059D01*
X63196290Y-31511030D01*
X63193178Y-31556662D01*
X62937935Y-31556662D01*
X62941582Y-31483537D01*
X62961398Y-31389035D01*
X62995859Y-31319292D01*
X63019632Y-31290369D01*
X63048065Y-31265270D01*
X63084631Y-31242066D01*
X63127348Y-31222939D01*
X63185730Y-31205375D01*
X63253545Y-31192702D01*
X63356190Y-31182928D01*
X63476653Y-31179856D01*
X63642524Y-31179856D01*
X63642524Y-31167125D01*
X63641179Y-31130594D01*
X63627712Y-31067081D01*
X63599438Y-31025613D01*
X63575614Y-31009063D01*
X63545500Y-30997016D01*
X63491282Y-30986882D01*
X63422064Y-30983760D01*
X63399785Y-30984024D01*
X63314945Y-30993455D01*
X63267481Y-31014369D01*
X63250903Y-31030724D01*
X63239232Y-31051284D01*
X63230360Y-31087322D01*
X63228899Y-31132962D01*
X62972627Y-31132962D01*
X62972015Y-31083538D01*
X62982348Y-30980919D01*
X63007826Y-30908497D01*
X63026493Y-30879444D01*
X63049563Y-30854288D01*
X63079556Y-30831356D01*
X63115211Y-30812455D01*
X63164791Y-30795048D01*
X63223092Y-30782475D01*
X63314040Y-30772612D01*
X63422064Y-30769528D01*
X63528938Y-30772790D01*
G37*
G36*
X64330190Y-31895000D02*
G01*
X64582157Y-31895000D01*
X64582157Y-31354612D01*
X64592979Y-31279980D01*
X64627402Y-31196062D01*
X64683364Y-31116825D01*
X64714614Y-31086856D01*
X64746466Y-31065037D01*
X64783749Y-31051812D01*
X64949592Y-31040760D01*
X65100837Y-31043386D01*
X65100837Y-30791327D01*
X64895123Y-30787114D01*
X64788506Y-30790789D01*
X64751183Y-30799517D01*
X64719497Y-30816515D01*
X64689684Y-30844537D01*
X64657977Y-30886341D01*
X64573822Y-31022320D01*
X64550649Y-31022320D01*
X64561182Y-30798838D01*
X64330190Y-30798838D01*
X64330190Y-31895000D01*
G37*
G36*
X65589017Y-31895000D02*
G01*
X65840984Y-31895000D01*
X65840984Y-31354612D01*
X65851806Y-31279980D01*
X65886229Y-31196062D01*
X65942191Y-31116825D01*
X65973441Y-31086856D01*
X66005294Y-31065037D01*
X66042576Y-31051812D01*
X66208420Y-31040760D01*
X66359665Y-31043386D01*
X66359665Y-30791327D01*
X66153951Y-30787114D01*
X66047333Y-30790789D01*
X66010011Y-30799517D01*
X65978325Y-30816515D01*
X65948512Y-30844537D01*
X65916805Y-30886341D01*
X65832650Y-31022320D01*
X65809477Y-31022320D01*
X65820010Y-30798838D01*
X65589017Y-30798838D01*
X65589017Y-31895000D01*
G37*
G36*
X67305421Y-30772790D02*
G01*
X67429640Y-30789963D01*
X67515045Y-30819595D01*
X67576298Y-30862113D01*
X67600986Y-30890161D01*
X67621225Y-30922626D01*
X67639127Y-30965100D01*
X67652011Y-31013882D01*
X67661688Y-31084895D01*
X67664746Y-31167125D01*
X67664746Y-31895000D01*
X67425327Y-31895000D01*
X67425327Y-31763566D01*
X67408565Y-31763566D01*
X67368509Y-31815329D01*
X67309385Y-31867294D01*
X67274846Y-31885756D01*
X67236341Y-31898933D01*
X67175373Y-31909413D01*
X67101919Y-31912585D01*
X66954432Y-31903685D01*
X66863847Y-31881366D01*
X66801485Y-31846625D01*
X66776956Y-31823198D01*
X66756875Y-31795569D01*
X66739135Y-31758854D01*
X66726359Y-31716096D01*
X66716556Y-31651444D01*
X66713481Y-31575438D01*
X66714418Y-31556662D01*
X66969661Y-31556662D01*
X66974685Y-31610879D01*
X66993728Y-31652673D01*
X67011417Y-31668786D01*
X67034937Y-31680566D01*
X67082369Y-31691058D01*
X67146065Y-31694232D01*
X67174474Y-31693744D01*
X67264763Y-31682192D01*
X67324898Y-31656750D01*
X67348575Y-31637717D01*
X67368218Y-31614092D01*
X67386258Y-31580675D01*
X67399742Y-31540216D01*
X67411597Y-31472696D01*
X67416900Y-31389875D01*
X67209080Y-31391981D01*
X67147575Y-31394391D01*
X67062733Y-31408451D01*
X67013215Y-31433292D01*
X66995550Y-31451621D01*
X66982834Y-31474059D01*
X66972773Y-31511030D01*
X66969661Y-31556662D01*
X66714418Y-31556662D01*
X66718065Y-31483537D01*
X66737881Y-31389035D01*
X66772342Y-31319292D01*
X66796115Y-31290369D01*
X66824548Y-31265270D01*
X66861114Y-31242066D01*
X66903831Y-31222939D01*
X66962213Y-31205375D01*
X67030028Y-31192702D01*
X67132673Y-31182928D01*
X67253135Y-31179856D01*
X67419007Y-31179856D01*
X67419007Y-31167125D01*
X67417662Y-31130594D01*
X67404195Y-31067081D01*
X67375920Y-31025613D01*
X67352097Y-31009063D01*
X67321983Y-30997016D01*
X67267765Y-30986882D01*
X67198547Y-30983760D01*
X67176268Y-30984024D01*
X67091428Y-30993455D01*
X67043964Y-31014369D01*
X67027385Y-31030724D01*
X67015715Y-31051284D01*
X67006843Y-31087322D01*
X67005382Y-31132962D01*
X66749110Y-31132962D01*
X66748497Y-31083538D01*
X66758831Y-30980919D01*
X66784308Y-30908497D01*
X66802976Y-30879444D01*
X66826046Y-30854288D01*
X66856039Y-30831356D01*
X66891693Y-30812455D01*
X66941274Y-30795048D01*
X66999574Y-30782475D01*
X67090523Y-30772612D01*
X67198547Y-30769528D01*
X67305421Y-30772790D01*
G37*
G36*
X68178114Y-32346543D02*
G01*
X68442629Y-32346543D01*
X68988695Y-30798838D01*
X68724088Y-30798838D01*
X68465801Y-31605297D01*
X68455268Y-31605297D01*
X68192768Y-30798838D01*
X67932375Y-30798838D01*
X68289397Y-31794249D01*
X68360746Y-31794249D01*
X68178114Y-32346543D01*
G37*
G36*
X70966462Y-30461546D02*
G01*
X71142262Y-30478146D01*
X71264212Y-30507095D01*
X71351419Y-30547073D01*
X71415326Y-30599384D01*
X71441126Y-30632219D01*
X71462233Y-30669173D01*
X71480593Y-30715591D01*
X71493763Y-30767624D01*
X71503311Y-30838888D01*
X71506350Y-30919280D01*
X71506243Y-30936287D01*
X71495778Y-31067395D01*
X71470389Y-31161227D01*
X71430548Y-31231730D01*
X71403906Y-31261234D01*
X71372603Y-31286825D01*
X71332913Y-31310475D01*
X71287109Y-31329947D01*
X71225559Y-31347704D01*
X71154800Y-31360496D01*
X71050202Y-31370231D01*
X70928777Y-31373297D01*
X70775545Y-31373297D01*
X70775545Y-31895000D01*
X70506725Y-31895000D01*
X70506725Y-31140289D01*
X70775545Y-31140289D01*
X70907802Y-31140289D01*
X70958866Y-31139494D01*
X71076574Y-31127630D01*
X71149038Y-31104127D01*
X71196095Y-31068570D01*
X71213882Y-31043111D01*
X71226682Y-31012988D01*
X71236552Y-30966414D01*
X71239637Y-30910853D01*
X71239447Y-30897364D01*
X71228786Y-30823993D01*
X71202321Y-30772717D01*
X71180972Y-30751431D01*
X71153988Y-30733808D01*
X71113694Y-30717202D01*
X71064039Y-30705119D01*
X70977792Y-30695062D01*
X70870067Y-30691951D01*
X70775545Y-30691951D01*
X70775545Y-31140289D01*
X70506725Y-31140289D01*
X70506725Y-30465171D01*
X70714531Y-30460962D01*
X70834346Y-30458852D01*
X70966462Y-30461546D01*
G37*
G36*
X72288446Y-31912585D02*
G01*
X72393498Y-31909515D01*
X72483773Y-31899750D01*
X72544606Y-31886940D01*
X72597516Y-31869147D01*
X72637275Y-31849421D01*
X72671760Y-31825411D01*
X72699587Y-31798765D01*
X72723297Y-31767910D01*
X72759895Y-31691214D01*
X72784109Y-31584237D01*
X72792472Y-31497311D01*
X72529972Y-31497311D01*
X72517799Y-31553458D01*
X72500345Y-31597958D01*
X72483317Y-31623901D01*
X72462125Y-31644554D01*
X72409515Y-31670445D01*
X72327983Y-31682749D01*
X72288446Y-31683699D01*
X72229786Y-31680647D01*
X72178810Y-31671007D01*
X72142964Y-31657922D01*
X72111618Y-31639687D01*
X72086658Y-31618136D01*
X72065109Y-31591650D01*
X72030967Y-31521016D01*
X72007112Y-31414458D01*
X71995138Y-31247573D01*
X71994439Y-31183062D01*
X71997531Y-31053138D01*
X72007456Y-30945642D01*
X72019826Y-30879302D01*
X72036900Y-30823704D01*
X72055071Y-30784965D01*
X72077040Y-30752841D01*
X72100558Y-30728989D01*
X72127597Y-30709982D01*
X72193464Y-30685157D01*
X72288446Y-30676106D01*
X72347661Y-30679224D01*
X72395905Y-30689329D01*
X72425342Y-30701979D01*
X72450026Y-30719535D01*
X72485070Y-30766676D01*
X72510867Y-30842995D01*
X72517332Y-30875041D01*
X72779832Y-30875041D01*
X72773414Y-30787079D01*
X72760792Y-30710995D01*
X72745837Y-30658668D01*
X72726062Y-30613034D01*
X72704373Y-30578173D01*
X72678367Y-30547989D01*
X72615497Y-30502395D01*
X72530330Y-30470577D01*
X72409738Y-30451604D01*
X72288446Y-30447128D01*
X72194287Y-30450162D01*
X72110346Y-30459673D01*
X72048331Y-30472866D01*
X71992706Y-30491254D01*
X71948433Y-30512230D01*
X71908803Y-30537827D01*
X71875453Y-30566480D01*
X71845923Y-30599683D01*
X71797509Y-30680960D01*
X71760915Y-30789828D01*
X71736255Y-30939615D01*
X71725747Y-31152520D01*
X71725619Y-31183062D01*
X71728669Y-31321310D01*
X71738293Y-31442454D01*
X71751244Y-31527864D01*
X71769250Y-31603316D01*
X71789137Y-31660788D01*
X71813300Y-31711489D01*
X71839181Y-31751962D01*
X71868970Y-31787309D01*
X71937863Y-31841680D01*
X72024932Y-31880111D01*
X72139026Y-31904216D01*
X72288446Y-31912585D01*
G37*
G36*
X73374800Y-30459212D02*
G01*
X73576805Y-30470482D01*
X73711837Y-30494642D01*
X73805206Y-30529537D01*
X73871494Y-30575504D01*
X73897625Y-30604152D01*
X73918967Y-30636558D01*
X73937334Y-30677045D01*
X73950509Y-30722576D01*
X73960058Y-30785127D01*
X73963097Y-30855899D01*
X73960387Y-30927412D01*
X73944541Y-31012794D01*
X73915128Y-31070284D01*
X73893078Y-31093628D01*
X73866035Y-31112829D01*
X73824588Y-31131757D01*
X73774053Y-31145876D01*
X73774053Y-31158516D01*
X73872652Y-31184764D01*
X73935996Y-31220572D01*
X73960473Y-31243964D01*
X73980461Y-31271432D01*
X73998122Y-31308043D01*
X74010836Y-31350872D01*
X74020894Y-31418716D01*
X74024005Y-31499784D01*
X74014897Y-31621649D01*
X73990178Y-31708192D01*
X73949852Y-31774443D01*
X73922110Y-31802731D01*
X73889251Y-31827339D01*
X73846699Y-31850445D01*
X73797220Y-31869508D01*
X73729613Y-31887087D01*
X73651319Y-31899771D01*
X73533684Y-31909518D01*
X73396057Y-31912585D01*
X73361708Y-31912488D01*
X73190357Y-31907561D01*
X72984446Y-31891611D01*
X72984446Y-31677471D01*
X73249053Y-31677471D01*
X73431777Y-31681592D01*
X73584372Y-31672516D01*
X73662638Y-31651887D01*
X73711411Y-31620299D01*
X73729328Y-31597917D01*
X73742203Y-31571332D01*
X73752097Y-31530168D01*
X73755185Y-31480916D01*
X73751048Y-31418442D01*
X73732882Y-31359162D01*
X73717901Y-31336755D01*
X73698463Y-31318345D01*
X73669899Y-31301638D01*
X73634355Y-31289499D01*
X73570808Y-31279257D01*
X73490579Y-31276119D01*
X73249053Y-31276119D01*
X73249053Y-31677471D01*
X72984446Y-31677471D01*
X72984446Y-30687829D01*
X73249053Y-30687829D01*
X73249053Y-31045034D01*
X73543060Y-31045034D01*
X73611715Y-31036473D01*
X73656335Y-31015248D01*
X73672942Y-30997440D01*
X73685020Y-30974477D01*
X73695341Y-30931316D01*
X73698490Y-30874858D01*
X73689477Y-30797783D01*
X73665456Y-30752712D01*
X73644169Y-30734002D01*
X73616519Y-30719277D01*
X73563036Y-30703753D01*
X73492685Y-30694057D01*
X73381894Y-30687818D01*
X73249053Y-30687829D01*
X72984446Y-30687829D01*
X72984446Y-30464713D01*
X73322601Y-30458852D01*
X73374800Y-30459212D01*
G37*
G36*
X76781995Y-31548694D02*
G01*
X76781995Y-31895000D01*
X77764767Y-31895000D01*
X77764767Y-31659885D01*
X77052830Y-31659885D01*
X77052830Y-31640926D01*
X77254642Y-31496362D01*
X77407568Y-31376446D01*
X77589283Y-31210061D01*
X77594683Y-31204678D01*
X77649509Y-31145425D01*
X77690212Y-31090047D01*
X77712485Y-31048865D01*
X77728468Y-31006286D01*
X77744221Y-30913587D01*
X77745808Y-30862768D01*
X77742749Y-30778364D01*
X77733062Y-30705244D01*
X77720142Y-30654800D01*
X77702179Y-30610730D01*
X77681889Y-30576958D01*
X77657133Y-30547648D01*
X77596021Y-30503016D01*
X77511546Y-30471434D01*
X77390038Y-30452148D01*
X77256529Y-30447128D01*
X77150876Y-30450191D01*
X77060046Y-30459909D01*
X76998547Y-30472702D01*
X76945098Y-30490459D01*
X76904976Y-30510129D01*
X76870228Y-30534051D01*
X76842301Y-30560518D01*
X76818566Y-30591132D01*
X76782247Y-30666870D01*
X76758704Y-30771920D01*
X76750488Y-30866981D01*
X77019216Y-30866981D01*
X77026288Y-30811154D01*
X77039579Y-30766358D01*
X77054081Y-30739799D01*
X77073101Y-30718341D01*
X77121856Y-30690770D01*
X77198459Y-30676202D01*
X77258635Y-30673999D01*
X77330043Y-30677139D01*
X77385710Y-30687392D01*
X77416076Y-30699433D01*
X77440067Y-30715977D01*
X77468420Y-30757313D01*
X77481977Y-30820668D01*
X77483400Y-30858555D01*
X77480207Y-30910253D01*
X77469579Y-30953043D01*
X77435494Y-31010706D01*
X77414065Y-31034776D01*
X77330474Y-31113617D01*
X77219525Y-31208293D01*
X76781995Y-31548694D01*
G37*
G36*
X78647709Y-30444870D02*
G01*
X78763297Y-30461043D01*
X78842142Y-30489897D01*
X78874153Y-30510230D01*
X78902195Y-30535064D01*
X78929775Y-30569024D01*
X78953720Y-30609754D01*
X78983104Y-30680678D01*
X79008849Y-30768063D01*
X79017414Y-30802691D01*
X79042782Y-30958945D01*
X79050254Y-31062533D01*
X79052996Y-31190298D01*
X79052937Y-31210099D01*
X79043071Y-31404395D01*
X79030231Y-31493593D01*
X79010956Y-31582949D01*
X78990700Y-31654118D01*
X78949643Y-31753176D01*
X78902393Y-31818810D01*
X78873599Y-31844195D01*
X78840971Y-31864779D01*
X78797532Y-31883287D01*
X78747510Y-31896603D01*
X78648400Y-31909122D01*
X78525889Y-31912585D01*
X78380838Y-31907368D01*
X78276296Y-31889566D01*
X78202620Y-31858662D01*
X78171910Y-31836771D01*
X78144668Y-31809947D01*
X78117840Y-31773558D01*
X78094303Y-31729783D01*
X78067986Y-31661586D01*
X78051429Y-31601816D01*
X78320084Y-31601816D01*
X78322109Y-31607447D01*
X78347113Y-31649040D01*
X78367272Y-31664734D01*
X78393709Y-31676262D01*
X78449639Y-31686834D01*
X78527996Y-31690019D01*
X78540990Y-31689954D01*
X78646715Y-31680348D01*
X78681573Y-31668408D01*
X78707270Y-31650851D01*
X78725939Y-31627035D01*
X78739712Y-31596317D01*
X78761095Y-31511599D01*
X78781468Y-31377400D01*
X78790496Y-31171430D01*
X78784176Y-31013893D01*
X78320084Y-31601816D01*
X78051429Y-31601816D01*
X78045036Y-31578736D01*
X78038596Y-31550081D01*
X78014784Y-31392650D01*
X78005196Y-31177750D01*
X78267602Y-31177750D01*
X78270488Y-31295021D01*
X78278044Y-31385570D01*
X78750562Y-30787114D01*
X78740197Y-30753784D01*
X78713003Y-30708488D01*
X78692293Y-30691651D01*
X78666147Y-30679369D01*
X78607254Y-30667400D01*
X78525889Y-30664016D01*
X78478615Y-30664994D01*
X78400242Y-30675888D01*
X78354585Y-30699390D01*
X78334856Y-30722408D01*
X78319861Y-30752872D01*
X78297003Y-30839687D01*
X78296188Y-30844068D01*
X78276762Y-30975693D01*
X78267602Y-31177750D01*
X78005196Y-31177750D01*
X78005102Y-31175643D01*
X78013109Y-30979804D01*
X78028829Y-30861192D01*
X78049158Y-30770170D01*
X78073453Y-30687045D01*
X78114176Y-30593287D01*
X78161614Y-30530775D01*
X78191011Y-30506358D01*
X78224651Y-30486491D01*
X78269788Y-30468623D01*
X78322273Y-30455783D01*
X78415684Y-30444706D01*
X78530102Y-30441449D01*
X78647709Y-30444870D01*
G37*
G36*
X79299651Y-31548694D02*
G01*
X79299651Y-31895000D01*
X80282423Y-31895000D01*
X80282423Y-31659885D01*
X79570485Y-31659885D01*
X79570485Y-31640926D01*
X79772297Y-31496362D01*
X79925223Y-31376446D01*
X80106938Y-31210061D01*
X80112338Y-31204678D01*
X80167165Y-31145425D01*
X80207867Y-31090047D01*
X80230140Y-31048865D01*
X80246123Y-31006286D01*
X80261876Y-30913587D01*
X80263463Y-30862768D01*
X80260405Y-30778364D01*
X80250717Y-30705244D01*
X80237798Y-30654800D01*
X80219834Y-30610730D01*
X80199544Y-30576958D01*
X80174788Y-30547648D01*
X80113676Y-30503016D01*
X80029201Y-30471434D01*
X79907693Y-30452148D01*
X79774184Y-30447128D01*
X79668531Y-30450191D01*
X79577702Y-30459909D01*
X79516202Y-30472702D01*
X79462753Y-30490459D01*
X79422632Y-30510129D01*
X79387884Y-30534051D01*
X79359956Y-30560518D01*
X79336221Y-30591132D01*
X79299903Y-30666870D01*
X79276360Y-30771920D01*
X79268143Y-30866981D01*
X79536871Y-30866981D01*
X79543943Y-30811154D01*
X79557234Y-30766358D01*
X79571736Y-30739799D01*
X79590757Y-30718341D01*
X79639512Y-30690770D01*
X79716115Y-30676202D01*
X79776290Y-30673999D01*
X79847698Y-30677139D01*
X79903366Y-30687392D01*
X79933731Y-30699433D01*
X79957722Y-30715977D01*
X79986075Y-30757313D01*
X79999632Y-30820668D01*
X80001055Y-30858555D01*
X79997862Y-30910253D01*
X79987235Y-30953043D01*
X79953149Y-31010706D01*
X79931721Y-31034776D01*
X79848130Y-31113617D01*
X79737180Y-31208293D01*
X79299651Y-31548694D01*
G37*
G36*
X81032288Y-30807067D02*
G01*
X80908598Y-30945261D01*
X80871278Y-30998274D01*
X80846166Y-31045034D01*
X80846166Y-31068207D01*
X80884147Y-31030159D01*
X80911314Y-31010306D01*
X80940480Y-30996004D01*
X81004690Y-30981627D01*
X81093920Y-30977898D01*
X81200778Y-30980678D01*
X81322299Y-30996093D01*
X81402919Y-31023427D01*
X81460204Y-31064038D01*
X81483674Y-31092093D01*
X81502869Y-31125151D01*
X81520605Y-31171443D01*
X81533364Y-31225881D01*
X81544329Y-31322381D01*
X81547570Y-31439792D01*
X81542475Y-31581514D01*
X81524185Y-31696300D01*
X81493947Y-31774398D01*
X81449762Y-31831020D01*
X81419315Y-31854500D01*
X81383648Y-31873711D01*
X81333836Y-31891503D01*
X81275518Y-31904294D01*
X81173406Y-31915212D01*
X81049864Y-31918447D01*
X80891283Y-31912639D01*
X80773433Y-31893748D01*
X80693486Y-31863183D01*
X80635864Y-31819124D01*
X80612128Y-31789089D01*
X80592728Y-31754033D01*
X80574859Y-31705483D01*
X80562025Y-31648849D01*
X80551171Y-31551107D01*
X80547945Y-31433472D01*
X80793684Y-31433472D01*
X80798935Y-31560890D01*
X80816818Y-31628660D01*
X80848004Y-31672189D01*
X80873105Y-31689438D01*
X80904184Y-31701939D01*
X80967634Y-31713525D01*
X81049864Y-31716855D01*
X81152896Y-31710851D01*
X81217532Y-31692690D01*
X81259667Y-31660625D01*
X81276649Y-31634256D01*
X81288994Y-31601330D01*
X81300604Y-31532413D01*
X81303938Y-31441898D01*
X81298785Y-31341760D01*
X81281638Y-31273581D01*
X81251447Y-31230268D01*
X81226965Y-31213136D01*
X81196458Y-31200701D01*
X81132975Y-31189057D01*
X81049864Y-31185718D01*
X80956548Y-31190061D01*
X80886584Y-31206322D01*
X80842281Y-31235533D01*
X80824644Y-31259314D01*
X80811592Y-31289084D01*
X80798670Y-31351435D01*
X80793684Y-31433472D01*
X80547945Y-31433472D01*
X80550728Y-31329505D01*
X80568792Y-31183230D01*
X80606173Y-31054351D01*
X80635257Y-30987995D01*
X80671777Y-30920740D01*
X80724448Y-30839761D01*
X80789173Y-30753750D01*
X80910431Y-30611714D01*
X81064519Y-30447128D01*
X81402673Y-30447128D01*
X81032288Y-30807067D01*
G37*
G36*
X81907615Y-31385020D02*
G01*
X82705556Y-31385020D01*
X82705556Y-31154028D01*
X81907615Y-31154028D01*
X81907615Y-31385020D01*
G37*
G36*
X83683020Y-30444870D02*
G01*
X83798607Y-30461043D01*
X83877452Y-30489897D01*
X83909463Y-30510230D01*
X83937506Y-30535064D01*
X83965086Y-30569024D01*
X83989031Y-30609754D01*
X84018415Y-30680678D01*
X84044159Y-30768063D01*
X84052725Y-30802691D01*
X84078093Y-30958945D01*
X84085564Y-31062533D01*
X84088306Y-31190298D01*
X84088247Y-31210099D01*
X84078381Y-31404395D01*
X84065541Y-31493593D01*
X84046266Y-31582949D01*
X84026010Y-31654118D01*
X83984954Y-31753176D01*
X83937704Y-31818810D01*
X83908910Y-31844195D01*
X83876281Y-31864779D01*
X83832843Y-31883287D01*
X83782820Y-31896603D01*
X83683710Y-31909122D01*
X83561200Y-31912585D01*
X83416148Y-31907368D01*
X83311607Y-31889566D01*
X83237930Y-31858662D01*
X83207220Y-31836771D01*
X83179979Y-31809947D01*
X83153150Y-31773558D01*
X83129614Y-31729783D01*
X83103297Y-31661586D01*
X83086740Y-31601816D01*
X83355395Y-31601816D01*
X83357419Y-31607447D01*
X83382424Y-31649040D01*
X83402582Y-31664734D01*
X83429020Y-31676262D01*
X83484949Y-31686834D01*
X83563306Y-31690019D01*
X83576301Y-31689954D01*
X83682025Y-31680348D01*
X83716883Y-31668408D01*
X83742581Y-31650851D01*
X83761250Y-31627035D01*
X83775022Y-31596317D01*
X83796406Y-31511599D01*
X83816779Y-31377400D01*
X83825806Y-31171430D01*
X83819487Y-31013893D01*
X83355395Y-31601816D01*
X83086740Y-31601816D01*
X83080347Y-31578736D01*
X83073907Y-31550081D01*
X83050095Y-31392650D01*
X83040507Y-31177750D01*
X83302913Y-31177750D01*
X83305798Y-31295021D01*
X83313354Y-31385570D01*
X83785873Y-30787114D01*
X83775507Y-30753784D01*
X83748313Y-30708488D01*
X83727604Y-30691651D01*
X83701458Y-30679369D01*
X83642564Y-30667400D01*
X83561200Y-30664016D01*
X83513925Y-30664994D01*
X83435553Y-30675888D01*
X83389895Y-30699390D01*
X83370166Y-30722408D01*
X83355172Y-30752872D01*
X83332314Y-30839687D01*
X83331499Y-30844068D01*
X83312072Y-30975693D01*
X83302913Y-31177750D01*
X83040507Y-31177750D01*
X83040413Y-31175643D01*
X83048420Y-30979804D01*
X83064139Y-30861192D01*
X83084468Y-30770170D01*
X83108763Y-30687045D01*
X83149487Y-30593287D01*
X83196925Y-30530775D01*
X83226321Y-30506358D01*
X83259962Y-30486491D01*
X83305098Y-30468623D01*
X83357583Y-30455783D01*
X83450995Y-30444706D01*
X83565413Y-30441449D01*
X83683020Y-30444870D01*
G37*
G36*
X84826347Y-31895000D02*
G01*
X85086741Y-31895000D01*
X85086741Y-30464713D01*
X84826347Y-30464713D01*
X84374803Y-30781252D01*
X84374803Y-31059231D01*
X84752800Y-30825491D01*
X84834682Y-30758263D01*
X84826347Y-30888688D01*
X84826347Y-31895000D01*
G37*
G36*
X85684098Y-31385020D02*
G01*
X86482039Y-31385020D01*
X86482039Y-31154028D01*
X85684098Y-31154028D01*
X85684098Y-31385020D01*
G37*
G36*
X87344002Y-31895000D02*
G01*
X87604396Y-31895000D01*
X87604396Y-30464713D01*
X87344002Y-30464713D01*
X86892459Y-30781252D01*
X86892459Y-31059231D01*
X87270455Y-30825491D01*
X87352337Y-30758263D01*
X87344002Y-30888688D01*
X87344002Y-31895000D01*
G37*
G36*
X88748709Y-30453350D02*
G01*
X88864345Y-30472607D01*
X88943139Y-30503596D01*
X89000229Y-30548349D01*
X89023851Y-30578969D01*
X89043168Y-30614730D01*
X89061003Y-30664396D01*
X89073817Y-30722386D01*
X89084671Y-30822722D01*
X89087896Y-30943643D01*
X89086881Y-31003548D01*
X89072429Y-31148792D01*
X89038618Y-31276027D01*
X89011340Y-31341884D01*
X88976531Y-31409014D01*
X88925309Y-31490976D01*
X88861619Y-31578834D01*
X88733491Y-31734239D01*
X88567110Y-31918447D01*
X88243702Y-31918447D01*
X88339327Y-31825039D01*
X88532163Y-31623347D01*
X88639094Y-31492532D01*
X88747727Y-31341331D01*
X88730874Y-31341331D01*
X88667832Y-31388544D01*
X88620212Y-31404512D01*
X88558683Y-31408468D01*
X88433269Y-31404690D01*
X88313447Y-31387966D01*
X88233239Y-31359409D01*
X88175902Y-31317466D01*
X88152344Y-31288613D01*
X88133083Y-31254736D01*
X88115288Y-31207433D01*
X88102493Y-31151964D01*
X88091515Y-31054024D01*
X88088329Y-30937323D01*
X88331904Y-30937323D01*
X88337645Y-31048941D01*
X88355135Y-31118400D01*
X88385313Y-31162241D01*
X88409498Y-31179457D01*
X88439524Y-31191940D01*
X88501279Y-31203543D01*
X88581764Y-31206876D01*
X88685572Y-31201196D01*
X88752572Y-31183415D01*
X88796077Y-31152053D01*
X88813641Y-31126485D01*
X88826638Y-31094585D01*
X88839341Y-31029166D01*
X88844264Y-30943643D01*
X88838164Y-30806432D01*
X88819518Y-30738936D01*
X88787540Y-30695360D01*
X88761980Y-30678089D01*
X88730445Y-30665583D01*
X88667304Y-30654136D01*
X88585977Y-30650826D01*
X88480882Y-30657448D01*
X88417819Y-30676359D01*
X88394858Y-30690942D01*
X88376111Y-30709674D01*
X88359157Y-30737174D01*
X88346831Y-30771483D01*
X88335235Y-30843210D01*
X88331904Y-30937323D01*
X88088329Y-30937323D01*
X88088271Y-30935217D01*
X88093914Y-30784556D01*
X88112739Y-30669758D01*
X88143450Y-30591462D01*
X88188074Y-30534643D01*
X88218718Y-30511093D01*
X88254554Y-30491828D01*
X88304441Y-30474016D01*
X88362752Y-30461215D01*
X88463918Y-30450354D01*
X88585977Y-30447128D01*
X88748709Y-30453350D01*
G37*
G36*
X92429688Y-31912585D02*
G01*
X92534740Y-31909515D01*
X92625016Y-31899750D01*
X92685849Y-31886940D01*
X92738758Y-31869147D01*
X92778517Y-31849421D01*
X92813002Y-31825411D01*
X92840829Y-31798765D01*
X92864539Y-31767910D01*
X92901138Y-31691214D01*
X92925352Y-31584237D01*
X92933714Y-31497311D01*
X92671214Y-31497311D01*
X92659041Y-31553458D01*
X92641587Y-31597958D01*
X92624559Y-31623901D01*
X92603367Y-31644554D01*
X92550757Y-31670445D01*
X92469226Y-31682749D01*
X92429688Y-31683699D01*
X92371028Y-31680647D01*
X92320052Y-31671007D01*
X92284206Y-31657922D01*
X92252860Y-31639687D01*
X92227901Y-31618136D01*
X92206351Y-31591650D01*
X92172209Y-31521016D01*
X92148354Y-31414458D01*
X92136381Y-31247573D01*
X92135681Y-31183062D01*
X92138773Y-31053138D01*
X92148698Y-30945642D01*
X92161068Y-30879302D01*
X92178142Y-30823704D01*
X92196314Y-30784965D01*
X92218283Y-30752841D01*
X92241800Y-30728989D01*
X92268839Y-30709982D01*
X92334706Y-30685157D01*
X92429688Y-30676106D01*
X92488903Y-30679224D01*
X92537147Y-30689329D01*
X92566584Y-30701979D01*
X92591268Y-30719535D01*
X92626312Y-30766676D01*
X92652109Y-30842995D01*
X92658574Y-30875041D01*
X92921074Y-30875041D01*
X92914656Y-30787079D01*
X92902034Y-30710995D01*
X92887079Y-30658668D01*
X92867304Y-30613034D01*
X92845615Y-30578173D01*
X92819609Y-30547989D01*
X92756739Y-30502395D01*
X92671572Y-30470577D01*
X92550980Y-30451604D01*
X92429688Y-30447128D01*
X92335529Y-30450162D01*
X92251588Y-30459673D01*
X92189573Y-30472866D01*
X92133948Y-30491254D01*
X92089675Y-30512230D01*
X92050046Y-30537827D01*
X92016695Y-30566480D01*
X91987165Y-30599683D01*
X91938752Y-30680960D01*
X91902158Y-30789828D01*
X91877497Y-30939615D01*
X91866989Y-31152520D01*
X91866861Y-31183062D01*
X91869911Y-31321310D01*
X91879535Y-31442454D01*
X91892486Y-31527864D01*
X91910492Y-31603316D01*
X91930379Y-31660788D01*
X91954542Y-31711489D01*
X91980423Y-31751962D01*
X92010212Y-31787309D01*
X92079105Y-31841680D01*
X92166174Y-31880111D01*
X92280268Y-31904216D01*
X92429688Y-31912585D01*
G37*
G36*
X93207663Y-31895000D02*
G01*
X94135846Y-31895000D01*
X94135846Y-31664007D01*
X93476391Y-31664007D01*
X93476391Y-31267784D01*
X94009817Y-31267784D01*
X94009817Y-31036791D01*
X93476391Y-31036791D01*
X93476391Y-30695798D01*
X94093806Y-30695798D01*
X94093806Y-30464713D01*
X93207663Y-30464713D01*
X93207663Y-31895000D01*
G37*
G36*
X94999455Y-30467203D02*
G01*
X95127867Y-30491611D01*
X95218667Y-30527600D01*
X95284395Y-30575570D01*
X95310673Y-30605687D01*
X95332212Y-30639711D01*
X95350890Y-30682246D01*
X95364395Y-30729975D01*
X95374324Y-30794952D01*
X95377821Y-30868172D01*
X95369820Y-30993559D01*
X95347834Y-31067285D01*
X95310966Y-31119532D01*
X95283227Y-31141502D01*
X95249749Y-31159233D01*
X95196620Y-31176866D01*
X95132174Y-31189199D01*
X95132174Y-31208066D01*
X95184039Y-31220282D01*
X95240305Y-31250018D01*
X95265093Y-31274216D01*
X95286526Y-31304939D01*
X95314790Y-31366527D01*
X95340086Y-31448035D01*
X95459704Y-31895000D01*
X95172016Y-31895000D01*
X95073373Y-31466994D01*
X95047869Y-31394533D01*
X95011909Y-31351472D01*
X94984455Y-31334593D01*
X94950792Y-31322353D01*
X94890183Y-31311974D01*
X94812979Y-31308817D01*
X94678524Y-31308817D01*
X94678524Y-31895000D01*
X94411810Y-31895000D01*
X94411810Y-30691951D01*
X94678524Y-30691951D01*
X94678524Y-31075809D01*
X94949450Y-31075809D01*
X94965466Y-31075516D01*
X95029883Y-31064903D01*
X95071306Y-31039301D01*
X95087797Y-31017080D01*
X95099806Y-30988672D01*
X95110073Y-30936018D01*
X95113215Y-30868172D01*
X95106262Y-30794195D01*
X95085584Y-30747683D01*
X95067710Y-30729706D01*
X95044467Y-30715990D01*
X95001420Y-30702943D01*
X94945237Y-30696164D01*
X94788284Y-30689386D01*
X94678524Y-30691951D01*
X94411810Y-30691951D01*
X94411810Y-30464713D01*
X94661762Y-30458852D01*
X94812704Y-30456691D01*
X94999455Y-30467203D01*
G37*
G36*
X95616050Y-31895000D02*
G01*
X95874337Y-31895000D01*
X95874337Y-31073702D01*
X95844936Y-30775390D01*
X95851256Y-30775390D01*
X96363708Y-31895000D01*
X96691237Y-31895000D01*
X96691237Y-30464713D01*
X96432950Y-30464713D01*
X96432950Y-31287934D01*
X96462351Y-31586338D01*
X96456031Y-31586338D01*
X95943671Y-30464713D01*
X95616050Y-30464713D01*
X95616050Y-31895000D01*
G37*
G36*
X97013546Y-31385020D02*
G01*
X97811488Y-31385020D01*
X97811488Y-31154028D01*
X97013546Y-31154028D01*
X97013546Y-31385020D01*
G37*
G36*
X98815806Y-30455164D02*
G01*
X98928608Y-30478970D01*
X99014736Y-30517190D01*
X99050811Y-30542177D01*
X99083003Y-30571539D01*
X99112588Y-30607019D01*
X99138300Y-30647710D01*
X99162357Y-30698858D01*
X99182161Y-30756928D01*
X99200131Y-30833434D01*
X99213059Y-30920179D01*
X99222694Y-31043806D01*
X99225745Y-31185169D01*
X99216105Y-31417593D01*
X99192216Y-31568919D01*
X99156363Y-31678490D01*
X99108750Y-31760025D01*
X99079686Y-31793254D01*
X99046820Y-31821923D01*
X99007761Y-31847504D01*
X98964087Y-31868466D01*
X98909156Y-31886845D01*
X98847867Y-31900030D01*
X98764709Y-31909550D01*
X98671345Y-31912585D01*
X98529201Y-31904939D01*
X98415216Y-31881527D01*
X98328441Y-31843768D01*
X98259858Y-31790067D01*
X98230202Y-31755049D01*
X98204434Y-31714879D01*
X98180356Y-31664439D01*
X98160535Y-31607170D01*
X98142561Y-31531761D01*
X98129630Y-31446264D01*
X98119995Y-31324448D01*
X98116944Y-31185169D01*
X98381550Y-31185169D01*
X98382069Y-31240851D01*
X98393504Y-31410350D01*
X98416920Y-31518144D01*
X98450589Y-31589295D01*
X98471837Y-31615880D01*
X98496458Y-31637493D01*
X98527377Y-31655760D01*
X98562739Y-31668860D01*
X98613225Y-31678535D01*
X98671345Y-31681592D01*
X98759602Y-31673757D01*
X98825916Y-31650114D01*
X98852971Y-31631808D01*
X98876488Y-31608711D01*
X98898410Y-31577536D01*
X98916537Y-31539837D01*
X98933594Y-31485504D01*
X98945951Y-31420531D01*
X98955932Y-31314144D01*
X98959032Y-31185169D01*
X98958429Y-31123160D01*
X98946830Y-30951093D01*
X98923440Y-30842211D01*
X98889958Y-30770634D01*
X98868890Y-30743980D01*
X98844476Y-30722318D01*
X98813873Y-30704046D01*
X98778867Y-30690943D01*
X98728895Y-30681269D01*
X98671345Y-30678212D01*
X98579662Y-30686901D01*
X98514249Y-30711485D01*
X98487348Y-30730424D01*
X98463934Y-30754246D01*
X98442031Y-30786407D01*
X98423903Y-30825246D01*
X98406866Y-30881029D01*
X98394515Y-30947655D01*
X98384637Y-31055190D01*
X98381550Y-31185169D01*
X98116944Y-31185169D01*
X98117023Y-31160686D01*
X98127110Y-30943853D01*
X98151368Y-30791904D01*
X98187508Y-30681863D01*
X98235325Y-30600007D01*
X98264450Y-30566671D01*
X98297353Y-30537915D01*
X98336393Y-30512278D01*
X98380011Y-30491275D01*
X98434783Y-30472877D01*
X98495849Y-30459681D01*
X98578559Y-30450162D01*
X98671345Y-30447128D01*
X98815806Y-30455164D01*
G37*
G36*
X99419827Y-31895000D02*
G01*
X99688647Y-31895000D01*
X99688647Y-31270623D01*
X100171698Y-31270623D01*
X100171698Y-31895000D01*
X100440426Y-31895000D01*
X100440426Y-30464713D01*
X100171698Y-30464713D01*
X100171698Y-31033311D01*
X99688647Y-31033311D01*
X99688647Y-30464713D01*
X99419827Y-30464713D01*
X99419827Y-31895000D01*
G37*
G36*
X100731228Y-31895000D02*
G01*
X101722335Y-31895000D01*
X101722335Y-31659885D01*
X100999956Y-31659885D01*
X100999956Y-30464713D01*
X100731228Y-30464713D01*
X100731228Y-31895000D01*
G37*
G36*
X102048857Y-31385020D02*
G01*
X102846798Y-31385020D01*
X102846798Y-31154028D01*
X102048857Y-31154028D01*
X102048857Y-31385020D01*
G37*
G36*
X103261431Y-31895000D02*
G01*
X103538677Y-31895000D01*
X103702442Y-30649544D01*
X103710868Y-30649544D01*
X103872527Y-31895000D01*
X104151879Y-31895000D01*
X104321964Y-30464713D01*
X104090971Y-30464713D01*
X104006891Y-31590551D01*
X104004876Y-31590551D01*
X103988023Y-31329516D01*
X103857872Y-30464713D01*
X103555438Y-30464713D01*
X103421074Y-31329516D01*
X103406328Y-31590551D01*
X103404221Y-31590551D01*
X103322339Y-30464713D01*
X103091346Y-30464713D01*
X103261431Y-31895000D01*
G37*
G36*
X106058439Y-31895000D02*
G01*
X106388075Y-31895000D01*
X106812325Y-30464713D01*
X106549825Y-30464713D01*
X106228524Y-31580018D01*
X106217991Y-31580018D01*
X105896689Y-30464713D01*
X105634189Y-30464713D01*
X106058439Y-31895000D01*
G37*
G36*
X106993859Y-31548694D02*
G01*
X106993859Y-31895000D01*
X107976631Y-31895000D01*
X107976631Y-31659885D01*
X107264693Y-31659885D01*
X107264693Y-31640926D01*
X107466505Y-31496362D01*
X107619431Y-31376446D01*
X107801146Y-31210061D01*
X107806546Y-31204678D01*
X107861373Y-31145425D01*
X107902075Y-31090047D01*
X107924348Y-31048865D01*
X107940331Y-31006286D01*
X107956084Y-30913587D01*
X107957671Y-30862768D01*
X107954613Y-30778364D01*
X107944925Y-30705244D01*
X107932006Y-30654800D01*
X107914042Y-30610730D01*
X107893752Y-30576958D01*
X107868996Y-30547648D01*
X107807884Y-30503016D01*
X107723409Y-30471434D01*
X107601901Y-30452148D01*
X107468392Y-30447128D01*
X107362739Y-30450191D01*
X107271910Y-30459909D01*
X107210410Y-30472702D01*
X107156961Y-30490459D01*
X107116839Y-30510129D01*
X107082092Y-30534051D01*
X107054164Y-30560518D01*
X107030429Y-30591132D01*
X106994111Y-30666870D01*
X106970568Y-30771920D01*
X106962351Y-30866981D01*
X107231079Y-30866981D01*
X107238151Y-30811154D01*
X107251442Y-30766358D01*
X107265944Y-30739799D01*
X107284965Y-30718341D01*
X107333719Y-30690770D01*
X107410322Y-30676202D01*
X107470498Y-30673999D01*
X107541906Y-30677139D01*
X107597574Y-30687392D01*
X107627939Y-30699433D01*
X107651930Y-30715977D01*
X107680283Y-30757313D01*
X107693840Y-30820668D01*
X107695263Y-30858555D01*
X107692070Y-30910253D01*
X107681443Y-30953043D01*
X107647357Y-31010706D01*
X107625928Y-31034776D01*
X107542338Y-31113617D01*
X107431388Y-31208293D01*
X106993859Y-31548694D01*
G37*
G36*
X111364215Y-30467203D02*
G01*
X111492626Y-30491611D01*
X111583426Y-30527600D01*
X111649154Y-30575570D01*
X111675432Y-30605687D01*
X111696971Y-30639711D01*
X111715649Y-30682246D01*
X111729154Y-30729975D01*
X111739084Y-30794952D01*
X111742581Y-30868172D01*
X111734579Y-30993559D01*
X111712594Y-31067285D01*
X111675726Y-31119532D01*
X111647986Y-31141502D01*
X111614508Y-31159233D01*
X111561379Y-31176866D01*
X111496933Y-31189199D01*
X111496933Y-31208066D01*
X111548799Y-31220282D01*
X111605064Y-31250018D01*
X111629852Y-31274216D01*
X111651286Y-31304939D01*
X111679549Y-31366527D01*
X111704845Y-31448035D01*
X111824463Y-31895000D01*
X111536775Y-31895000D01*
X111438132Y-31466994D01*
X111412628Y-31394533D01*
X111376668Y-31351472D01*
X111349214Y-31334593D01*
X111315551Y-31322353D01*
X111254942Y-31311974D01*
X111177739Y-31308817D01*
X111043283Y-31308817D01*
X111043283Y-31895000D01*
X110776570Y-31895000D01*
X110776570Y-30691951D01*
X111043283Y-30691951D01*
X111043283Y-31075809D01*
X111314209Y-31075809D01*
X111330226Y-31075516D01*
X111394642Y-31064903D01*
X111436065Y-31039301D01*
X111452556Y-31017080D01*
X111464565Y-30988672D01*
X111474832Y-30936018D01*
X111477974Y-30868172D01*
X111471021Y-30794195D01*
X111450344Y-30747683D01*
X111432469Y-30729706D01*
X111409226Y-30715990D01*
X111366180Y-30702943D01*
X111309996Y-30696164D01*
X111153043Y-30689386D01*
X111043283Y-30691951D01*
X110776570Y-30691951D01*
X110776570Y-30464713D01*
X111026522Y-30458852D01*
X111177463Y-30456691D01*
X111364215Y-30467203D01*
G37*
G36*
X112588599Y-30771017D02*
G01*
X112723840Y-30786066D01*
X112821364Y-30815113D01*
X112894684Y-30857926D01*
X112925194Y-30885713D01*
X112951631Y-30917943D01*
X112975827Y-30957992D01*
X112995730Y-31003744D01*
X113013656Y-31063907D01*
X113026558Y-31132418D01*
X113036185Y-31230528D01*
X113039235Y-31343163D01*
X113037527Y-31428478D01*
X113022215Y-31578914D01*
X112993504Y-31685609D01*
X112952184Y-31764130D01*
X112926009Y-31796077D01*
X112895816Y-31823670D01*
X112859085Y-31848469D01*
X112817375Y-31868823D01*
X112763455Y-31886922D01*
X112702440Y-31899930D01*
X112616465Y-31909538D01*
X112518449Y-31912585D01*
X112450047Y-31911175D01*
X112314045Y-31896281D01*
X112216039Y-31867370D01*
X112142438Y-31824735D01*
X112111848Y-31797086D01*
X112085347Y-31765021D01*
X112061116Y-31725217D01*
X112041186Y-31679758D01*
X112023249Y-31620032D01*
X112010339Y-31552046D01*
X112000712Y-31454777D01*
X111997662Y-31343163D01*
X112253842Y-31343163D01*
X112256508Y-31431169D01*
X112272054Y-31536894D01*
X112299295Y-31604873D01*
X112317742Y-31630165D01*
X112339891Y-31650775D01*
X112369054Y-31668524D01*
X112403348Y-31681302D01*
X112455990Y-31691150D01*
X112518449Y-31694232D01*
X112564898Y-31692622D01*
X112644527Y-31677921D01*
X112699758Y-31648626D01*
X112722183Y-31626640D01*
X112740671Y-31599578D01*
X112757674Y-31560903D01*
X112770001Y-31514232D01*
X112779958Y-31437225D01*
X112783055Y-31343163D01*
X112780092Y-31249483D01*
X112764142Y-31143584D01*
X112736577Y-31075373D01*
X112718001Y-31049996D01*
X112695744Y-31029315D01*
X112666562Y-31011544D01*
X112632306Y-30998749D01*
X112580163Y-30988942D01*
X112518449Y-30985867D01*
X112470637Y-30987624D01*
X112391992Y-31002691D01*
X112337096Y-31032516D01*
X112314703Y-31054918D01*
X112296239Y-31082462D01*
X112279227Y-31121853D01*
X112266896Y-31169352D01*
X112256939Y-31247633D01*
X112253842Y-31343163D01*
X111997662Y-31343163D01*
X111999461Y-31254962D01*
X112014930Y-31103932D01*
X112043743Y-30996882D01*
X112085109Y-30918165D01*
X112111280Y-30886160D01*
X112141452Y-30858527D01*
X112178137Y-30833702D01*
X112219778Y-30813333D01*
X112273612Y-30795218D01*
X112334513Y-30782203D01*
X112420464Y-30772578D01*
X112518449Y-30769528D01*
X112588599Y-30771017D01*
G37*
G36*
X113266931Y-31895000D02*
G01*
X113535751Y-31895000D01*
X113535751Y-31270623D01*
X114018802Y-31270623D01*
X114018802Y-31895000D01*
X114287530Y-31895000D01*
X114287530Y-30464713D01*
X114018802Y-30464713D01*
X114018802Y-31033311D01*
X113535751Y-31033311D01*
X113535751Y-30464713D01*
X113266931Y-30464713D01*
X113266931Y-31895000D01*
G37*
G36*
X115040317Y-31912585D02*
G01*
X115158948Y-31909519D01*
X115260268Y-31899785D01*
X115327750Y-31887096D01*
X115385938Y-31869513D01*
X115428686Y-31850320D01*
X115465334Y-31827037D01*
X115493917Y-31801821D01*
X115517859Y-31772764D01*
X115552702Y-31702700D01*
X115572935Y-31607896D01*
X115577865Y-31511966D01*
X115574804Y-31443001D01*
X115565097Y-31381606D01*
X115551656Y-31336387D01*
X115532806Y-31295218D01*
X115510171Y-31260327D01*
X115482196Y-31228144D01*
X115407502Y-31169582D01*
X115295463Y-31112931D01*
X115138961Y-31057308D01*
X114984345Y-31005561D01*
X114874797Y-30958982D01*
X114830406Y-30932866D01*
X114798707Y-30906312D01*
X114782125Y-30884571D01*
X114772490Y-30861683D01*
X114769391Y-30837397D01*
X114772488Y-30793149D01*
X114782445Y-30757191D01*
X114795168Y-30735036D01*
X114812837Y-30716933D01*
X114862589Y-30692297D01*
X114947957Y-30678437D01*
X115023464Y-30676106D01*
X115103792Y-30679247D01*
X115166331Y-30689512D01*
X115200433Y-30701527D01*
X115227596Y-30718027D01*
X115246137Y-30736383D01*
X115260389Y-30758746D01*
X115278348Y-30819782D01*
X115281751Y-30849945D01*
X115548464Y-30849945D01*
X115545961Y-30772313D01*
X115537001Y-30704610D01*
X115524413Y-30655943D01*
X115506802Y-30613291D01*
X115486546Y-30579965D01*
X115461824Y-30550971D01*
X115400214Y-30506157D01*
X115314693Y-30473914D01*
X115191569Y-30453541D01*
X115031891Y-30447128D01*
X114913755Y-30450195D01*
X114813203Y-30459945D01*
X114746749Y-30472596D01*
X114689640Y-30490121D01*
X114647922Y-30509206D01*
X114612306Y-30532349D01*
X114584666Y-30557413D01*
X114561665Y-30586292D01*
X114528603Y-30656148D01*
X114510278Y-30751242D01*
X114506891Y-30828971D01*
X114509950Y-30890394D01*
X114519642Y-30945286D01*
X114533186Y-30986216D01*
X114552209Y-31023638D01*
X114604238Y-31085910D01*
X114683030Y-31141887D01*
X114804540Y-31197916D01*
X114954221Y-31248000D01*
X115078795Y-31288324D01*
X115173545Y-31327484D01*
X115222088Y-31354455D01*
X115259413Y-31382784D01*
X115282547Y-31407883D01*
X115299123Y-31434877D01*
X115314479Y-31493212D01*
X115315365Y-31514072D01*
X115312288Y-31559677D01*
X115302470Y-31596930D01*
X115289802Y-31620304D01*
X115272242Y-31639473D01*
X115223511Y-31665582D01*
X115141821Y-31680653D01*
X115040317Y-31683699D01*
X114959736Y-31679815D01*
X114895321Y-31669096D01*
X114858027Y-31656510D01*
X114827623Y-31639365D01*
X114806247Y-31620360D01*
X114789227Y-31597282D01*
X114766257Y-31536267D01*
X114756751Y-31463789D01*
X114494251Y-31463789D01*
X114494749Y-31548518D01*
X114502068Y-31622749D01*
X114513448Y-31675642D01*
X114530063Y-31722301D01*
X114549387Y-31758613D01*
X114573297Y-31790495D01*
X114632667Y-31839908D01*
X114714192Y-31876268D01*
X114829475Y-31900933D01*
X114998707Y-31912248D01*
X115040317Y-31912585D01*
G37*
G36*
X117591586Y-31912585D02*
G01*
X117695453Y-31909514D01*
X117783681Y-31899744D01*
X117841823Y-31887076D01*
X117891772Y-31869521D01*
X117928580Y-31850206D01*
X117960007Y-31826739D01*
X118005584Y-31770601D01*
X118036026Y-31695074D01*
X118053127Y-31587826D01*
X118055678Y-31538710D01*
X117803620Y-31538710D01*
X117789554Y-31589390D01*
X117770642Y-31628472D01*
X117752936Y-31650278D01*
X117731218Y-31667005D01*
X117675982Y-31686533D01*
X117602028Y-31692125D01*
X117534255Y-31689040D01*
X117477288Y-31679170D01*
X117440527Y-31666456D01*
X117409325Y-31648812D01*
X117385936Y-31628601D01*
X117366460Y-31603853D01*
X117338029Y-31538612D01*
X117321680Y-31439032D01*
X117318553Y-31349483D01*
X117321642Y-31256129D01*
X117331541Y-31179118D01*
X117343932Y-31131548D01*
X117361038Y-31091863D01*
X117379708Y-31063783D01*
X117402363Y-31040766D01*
X117457995Y-31009551D01*
X117537419Y-30992852D01*
X117599921Y-30990080D01*
X117656774Y-30993228D01*
X117702115Y-31003542D01*
X117728387Y-31016100D01*
X117750005Y-31033510D01*
X117779860Y-31080903D01*
X117801513Y-31166667D01*
X118055678Y-31166667D01*
X118050913Y-31083910D01*
X118039746Y-31012531D01*
X118025832Y-30963609D01*
X118007013Y-30921069D01*
X117986035Y-30888580D01*
X117960669Y-30860562D01*
X117898209Y-30818219D01*
X117811637Y-30788944D01*
X117686117Y-30772338D01*
X117587373Y-30769528D01*
X117489128Y-30772574D01*
X117402900Y-30782169D01*
X117341559Y-30795181D01*
X117287323Y-30813284D01*
X117245315Y-30833652D01*
X117208297Y-30858466D01*
X117177843Y-30886070D01*
X117151413Y-30918025D01*
X117109609Y-30996488D01*
X117080384Y-31102949D01*
X117064442Y-31252804D01*
X117062373Y-31347377D01*
X117065422Y-31457519D01*
X117075038Y-31553568D01*
X117087954Y-31620869D01*
X117105901Y-31680027D01*
X117125871Y-31725146D01*
X117150154Y-31764679D01*
X117176761Y-31796603D01*
X117207479Y-31824152D01*
X117281554Y-31866775D01*
X117380408Y-31895830D01*
X117517858Y-31911011D01*
X117591586Y-31912585D01*
G37*
G36*
X118882738Y-30771017D02*
G01*
X119017978Y-30786066D01*
X119115502Y-30815113D01*
X119188822Y-30857926D01*
X119219332Y-30885713D01*
X119245769Y-30917943D01*
X119269965Y-30957992D01*
X119289868Y-31003744D01*
X119307794Y-31063907D01*
X119320696Y-31132418D01*
X119330323Y-31230528D01*
X119333374Y-31343163D01*
X119331665Y-31428478D01*
X119316354Y-31578914D01*
X119287642Y-31685609D01*
X119246322Y-31764130D01*
X119220148Y-31796077D01*
X119189954Y-31823670D01*
X119153223Y-31848469D01*
X119111513Y-31868823D01*
X119057594Y-31886922D01*
X118996578Y-31899930D01*
X118910603Y-31909538D01*
X118812587Y-31912585D01*
X118744185Y-31911175D01*
X118608183Y-31896281D01*
X118510177Y-31867370D01*
X118436576Y-31824735D01*
X118405986Y-31797086D01*
X118379486Y-31765021D01*
X118355254Y-31725217D01*
X118335324Y-31679758D01*
X118317387Y-31620032D01*
X118304477Y-31552046D01*
X118294850Y-31454777D01*
X118291800Y-31343163D01*
X118547980Y-31343163D01*
X118550646Y-31431169D01*
X118566192Y-31536894D01*
X118593433Y-31604873D01*
X118611880Y-31630165D01*
X118634029Y-31650775D01*
X118663192Y-31668524D01*
X118697486Y-31681302D01*
X118750129Y-31691150D01*
X118812587Y-31694232D01*
X118859037Y-31692622D01*
X118938665Y-31677921D01*
X118993896Y-31648626D01*
X119016322Y-31626640D01*
X119034809Y-31599578D01*
X119051813Y-31560903D01*
X119064139Y-31514232D01*
X119074096Y-31437225D01*
X119077193Y-31343163D01*
X119074230Y-31249483D01*
X119058280Y-31143584D01*
X119030715Y-31075373D01*
X119012139Y-31049996D01*
X118989882Y-31029315D01*
X118960700Y-31011544D01*
X118926444Y-30998749D01*
X118874301Y-30988942D01*
X118812587Y-30985867D01*
X118764775Y-30987624D01*
X118686130Y-31002691D01*
X118631234Y-31032516D01*
X118608842Y-31054918D01*
X118590377Y-31082462D01*
X118573366Y-31121853D01*
X118561035Y-31169352D01*
X118551077Y-31247633D01*
X118547980Y-31343163D01*
X118291800Y-31343163D01*
X118293599Y-31254962D01*
X118309068Y-31103932D01*
X118337882Y-30996882D01*
X118379248Y-30918165D01*
X118405418Y-30886160D01*
X118435590Y-30858527D01*
X118472275Y-30833702D01*
X118513917Y-30813333D01*
X118567751Y-30795218D01*
X118628651Y-30782203D01*
X118714602Y-30772578D01*
X118812587Y-30769528D01*
X118882738Y-30771017D01*
G37*
G36*
X119493933Y-31895000D02*
G01*
X119727032Y-31895000D01*
X119727032Y-31274195D01*
X119730236Y-31164311D01*
X119740939Y-31085649D01*
X119752140Y-31050593D01*
X119767295Y-31025125D01*
X119782846Y-31010779D01*
X119801503Y-31001614D01*
X119838315Y-30996400D01*
X119873442Y-30999507D01*
X119901709Y-31009532D01*
X119919053Y-31022525D01*
X119932976Y-31040656D01*
X119951901Y-31095895D01*
X119960156Y-31199855D01*
X119960131Y-31234170D01*
X119955918Y-31895000D01*
X120186911Y-31895000D01*
X120186911Y-31263662D01*
X120190098Y-31161619D01*
X120200684Y-31087350D01*
X120212018Y-31052887D01*
X120227395Y-31027456D01*
X120243408Y-31012644D01*
X120262670Y-31002875D01*
X120306620Y-30996400D01*
X120336492Y-30999507D01*
X120360737Y-31009532D01*
X120388542Y-31041779D01*
X120406115Y-31102550D01*
X120413690Y-31234170D01*
X120413690Y-31895000D01*
X120646789Y-31895000D01*
X120646789Y-31196343D01*
X120643683Y-31080010D01*
X120633663Y-30985201D01*
X120621410Y-30928684D01*
X120604524Y-30881973D01*
X120586563Y-30849964D01*
X120564844Y-30823932D01*
X120513662Y-30790060D01*
X120443678Y-30772501D01*
X120388503Y-30769528D01*
X120333332Y-30772660D01*
X120288261Y-30782855D01*
X120260321Y-30795733D01*
X120236403Y-30813680D01*
X120199290Y-30864185D01*
X120172165Y-30931278D01*
X120170058Y-30931278D01*
X120151843Y-30879344D01*
X120129427Y-30838901D01*
X120109284Y-30815872D01*
X120085262Y-30798012D01*
X120025941Y-30776646D01*
X119936959Y-30769528D01*
X119894440Y-30773495D01*
X119858002Y-30784470D01*
X119832514Y-30798925D01*
X119809065Y-30819184D01*
X119763364Y-30882861D01*
X119737473Y-30933110D01*
X119720712Y-30933110D01*
X119720712Y-30798838D01*
X119493933Y-30798838D01*
X119493933Y-31895000D01*
G37*
G36*
X121387466Y-30775743D02*
G01*
X121520450Y-30787596D01*
X121615812Y-30814067D01*
X121687427Y-30854730D01*
X121717311Y-30881629D01*
X121743227Y-30913102D01*
X121767075Y-30952685D01*
X121786708Y-30998211D01*
X121804512Y-31058823D01*
X121817338Y-31128269D01*
X121826999Y-31229317D01*
X121830054Y-31346094D01*
X121829487Y-31399002D01*
X121817152Y-31564893D01*
X121791353Y-31679655D01*
X121753528Y-31762104D01*
X121702074Y-31823223D01*
X121668828Y-31848267D01*
X121631010Y-31868801D01*
X121582407Y-31886923D01*
X121527372Y-31899945D01*
X121449993Y-31909540D01*
X121361749Y-31912585D01*
X121297917Y-31910303D01*
X121213368Y-31894613D01*
X121178963Y-31880228D01*
X121148011Y-31860772D01*
X121111382Y-31827391D01*
X121076168Y-31783625D01*
X121059316Y-31783625D01*
X121059316Y-32345261D01*
X120805242Y-32345261D01*
X120805242Y-31346094D01*
X121055102Y-31346094D01*
X121056902Y-31421515D01*
X121070973Y-31533482D01*
X121096579Y-31604024D01*
X121134709Y-31650705D01*
X121161897Y-31668511D01*
X121193898Y-31681323D01*
X121242810Y-31691153D01*
X121300841Y-31694232D01*
X121350758Y-31692473D01*
X121431915Y-31677540D01*
X121487913Y-31648238D01*
X121510530Y-31626419D01*
X121529147Y-31599637D01*
X121546237Y-31561478D01*
X121558611Y-31515530D01*
X121568658Y-31439231D01*
X121571768Y-31346094D01*
X121568825Y-31253864D01*
X121552956Y-31149857D01*
X121525388Y-31082769D01*
X121506670Y-31057685D01*
X121484186Y-31037230D01*
X121454431Y-31019534D01*
X121419390Y-31006788D01*
X121365241Y-30996920D01*
X121300841Y-30993835D01*
X121269471Y-30994650D01*
X121191460Y-31007546D01*
X121137470Y-31035381D01*
X121115451Y-31056809D01*
X121097273Y-31083465D01*
X121080426Y-31122160D01*
X121068195Y-31169245D01*
X121058204Y-31248466D01*
X121055102Y-31346094D01*
X120805242Y-31346094D01*
X120805242Y-30798838D01*
X121059316Y-30798838D01*
X121059316Y-30905633D01*
X121076168Y-30905633D01*
X121097209Y-30882921D01*
X121167159Y-30822589D01*
X121201742Y-30802989D01*
X121238342Y-30789151D01*
X121292243Y-30778576D01*
X121355430Y-30775390D01*
X121387466Y-30775743D01*
G37*
G36*
X122099790Y-31895000D02*
G01*
X123095110Y-31895000D01*
X123095110Y-31676646D01*
X122736073Y-31676646D01*
X122736073Y-30365062D01*
X122120765Y-30365062D01*
X122120765Y-30583507D01*
X122484015Y-30583507D01*
X122484015Y-31676646D01*
X122099790Y-31676646D01*
X122099790Y-31895000D01*
G37*
G36*
X123711427Y-30662367D02*
G01*
X124032636Y-30662367D01*
X124032636Y-30366253D01*
X123711427Y-30366253D01*
X123711427Y-30662367D01*
G37*
G36*
X123406886Y-31895000D02*
G01*
X124375004Y-31895000D01*
X124375004Y-31678753D01*
X124024302Y-31678753D01*
X124024302Y-30798838D01*
X123427861Y-30798838D01*
X123427861Y-31015176D01*
X123772243Y-31015176D01*
X123772243Y-31678753D01*
X123406886Y-31678753D01*
X123406886Y-31895000D01*
G37*
G36*
X125211492Y-30772790D02*
G01*
X125335711Y-30789963D01*
X125421116Y-30819595D01*
X125482369Y-30862113D01*
X125507058Y-30890161D01*
X125527296Y-30922626D01*
X125545198Y-30965100D01*
X125558082Y-31013882D01*
X125567760Y-31084895D01*
X125570817Y-31167125D01*
X125570817Y-31895000D01*
X125331398Y-31895000D01*
X125331398Y-31763566D01*
X125314637Y-31763566D01*
X125274580Y-31815329D01*
X125215456Y-31867294D01*
X125180917Y-31885756D01*
X125142412Y-31898933D01*
X125081444Y-31909413D01*
X125007990Y-31912585D01*
X124860503Y-31903685D01*
X124769918Y-31881366D01*
X124707556Y-31846625D01*
X124683027Y-31823198D01*
X124662947Y-31795569D01*
X124645206Y-31758854D01*
X124632431Y-31716096D01*
X124622627Y-31651444D01*
X124619552Y-31575438D01*
X124620489Y-31556662D01*
X124875732Y-31556662D01*
X124880756Y-31610879D01*
X124899799Y-31652673D01*
X124917488Y-31668786D01*
X124941008Y-31680566D01*
X124988440Y-31691058D01*
X125052137Y-31694232D01*
X125080545Y-31693744D01*
X125170834Y-31682192D01*
X125230969Y-31656750D01*
X125254646Y-31637717D01*
X125274289Y-31614092D01*
X125292330Y-31580675D01*
X125305814Y-31540216D01*
X125317668Y-31472696D01*
X125322971Y-31389875D01*
X125115151Y-31391981D01*
X125053647Y-31394391D01*
X124968805Y-31408451D01*
X124919287Y-31433292D01*
X124901621Y-31451621D01*
X124888905Y-31474059D01*
X124878844Y-31511030D01*
X124875732Y-31556662D01*
X124620489Y-31556662D01*
X124624137Y-31483537D01*
X124643952Y-31389035D01*
X124678413Y-31319292D01*
X124702186Y-31290369D01*
X124730619Y-31265270D01*
X124767185Y-31242066D01*
X124809902Y-31222939D01*
X124868284Y-31205375D01*
X124936099Y-31192702D01*
X125038744Y-31182928D01*
X125159207Y-31179856D01*
X125325078Y-31179856D01*
X125325078Y-31167125D01*
X125323733Y-31130594D01*
X125310266Y-31067081D01*
X125281992Y-31025613D01*
X125258168Y-31009063D01*
X125228054Y-30997016D01*
X125173836Y-30986882D01*
X125104618Y-30983760D01*
X125082340Y-30984024D01*
X124997499Y-30993455D01*
X124950035Y-31014369D01*
X124933457Y-31030724D01*
X124921786Y-31051284D01*
X124912914Y-31087322D01*
X124911453Y-31132962D01*
X124655181Y-31132962D01*
X124654569Y-31083538D01*
X124664903Y-30980919D01*
X124690380Y-30908497D01*
X124709047Y-30879444D01*
X124732117Y-30854288D01*
X124762110Y-30831356D01*
X124797765Y-30812455D01*
X124847345Y-30795048D01*
X124905646Y-30782475D01*
X124996594Y-30772612D01*
X125104618Y-30769528D01*
X125211492Y-30772790D01*
G37*
G36*
X125878380Y-31895000D02*
G01*
X126134560Y-31895000D01*
X126134560Y-31324662D01*
X126137653Y-31237020D01*
X126147580Y-31165159D01*
X126159930Y-31121330D01*
X126176969Y-31085002D01*
X126195643Y-31059413D01*
X126218316Y-31038665D01*
X126274986Y-31010926D01*
X126358038Y-30997472D01*
X126397060Y-30996400D01*
X126458860Y-30999518D01*
X126507765Y-31009626D01*
X126535623Y-31021840D01*
X126557880Y-31038667D01*
X126585291Y-31082037D01*
X126599075Y-31150431D01*
X126600758Y-31196343D01*
X126600758Y-31895000D01*
X126856939Y-31895000D01*
X126856939Y-31200556D01*
X126853869Y-31105320D01*
X126844102Y-31024019D01*
X126831364Y-30969933D01*
X126813693Y-30923310D01*
X126794108Y-30888655D01*
X126770279Y-30859017D01*
X126712599Y-30815673D01*
X126633984Y-30786810D01*
X126521362Y-30771422D01*
X126451648Y-30769528D01*
X126385520Y-30772684D01*
X126329608Y-30783049D01*
X126293100Y-30796365D01*
X126260246Y-30815063D01*
X126204551Y-30867606D01*
X126151321Y-30948039D01*
X126134560Y-30948039D01*
X126134560Y-30798838D01*
X125878380Y-30798838D01*
X125878380Y-31895000D01*
G37*
G36*
X127760851Y-31918355D02*
G01*
X127944795Y-31907604D01*
X128094792Y-31891061D01*
X128094792Y-31670510D01*
X127946197Y-31689423D01*
X127832292Y-31695697D01*
X127764795Y-31692573D01*
X127716393Y-31682429D01*
X127693078Y-31671112D01*
X127676026Y-31655764D01*
X127657861Y-31615723D01*
X127651674Y-31536146D01*
X127651674Y-31015176D01*
X128061178Y-31015176D01*
X128061178Y-30798838D01*
X127651674Y-30798838D01*
X127651674Y-30473415D01*
X127408042Y-30576271D01*
X127408042Y-30798838D01*
X127179156Y-30798838D01*
X127128781Y-31015176D01*
X127399707Y-31015176D01*
X127399707Y-31544480D01*
X127403156Y-31639757D01*
X127415570Y-31720989D01*
X127429252Y-31764618D01*
X127448400Y-31802787D01*
X127469463Y-31830860D01*
X127495453Y-31855024D01*
X127560690Y-31890420D01*
X127653672Y-31912154D01*
X127760851Y-31918355D01*
G37*
G36*
X130823381Y-31895000D02*
G01*
X131056481Y-31895000D01*
X131056481Y-31274195D01*
X131059684Y-31164311D01*
X131070387Y-31085649D01*
X131081589Y-31050593D01*
X131096744Y-31025125D01*
X131112295Y-31010779D01*
X131130951Y-31001614D01*
X131167764Y-30996400D01*
X131202891Y-30999507D01*
X131231158Y-31009532D01*
X131248502Y-31022525D01*
X131262424Y-31040656D01*
X131281350Y-31095895D01*
X131289605Y-31199855D01*
X131289580Y-31234170D01*
X131285367Y-31895000D01*
X131516359Y-31895000D01*
X131516359Y-31263662D01*
X131519546Y-31161619D01*
X131530132Y-31087350D01*
X131541467Y-31052887D01*
X131556844Y-31027456D01*
X131572857Y-31012644D01*
X131592118Y-31002875D01*
X131636069Y-30996400D01*
X131665940Y-30999507D01*
X131690186Y-31009532D01*
X131717990Y-31041779D01*
X131735564Y-31102550D01*
X131743139Y-31234170D01*
X131743139Y-31895000D01*
X131976238Y-31895000D01*
X131976238Y-31196343D01*
X131973132Y-31080010D01*
X131963112Y-30985201D01*
X131950859Y-30928684D01*
X131933973Y-30881973D01*
X131916011Y-30849964D01*
X131894293Y-30823932D01*
X131843110Y-30790060D01*
X131773127Y-30772501D01*
X131717951Y-30769528D01*
X131662780Y-30772660D01*
X131617709Y-30782855D01*
X131589770Y-30795733D01*
X131565851Y-30813680D01*
X131528738Y-30864185D01*
X131501613Y-30931278D01*
X131499507Y-30931278D01*
X131481291Y-30879344D01*
X131458876Y-30838901D01*
X131438732Y-30815872D01*
X131414710Y-30798012D01*
X131355389Y-30776646D01*
X131266407Y-30769528D01*
X131223889Y-30773495D01*
X131187451Y-30784470D01*
X131161963Y-30798925D01*
X131138514Y-30819184D01*
X131092813Y-30882861D01*
X131066922Y-30933110D01*
X131050161Y-30933110D01*
X131050161Y-30798838D01*
X130823381Y-30798838D01*
X130823381Y-31895000D01*
G37*
G36*
X132764458Y-30772790D02*
G01*
X132888677Y-30789963D01*
X132974082Y-30819595D01*
X133035335Y-30862113D01*
X133060023Y-30890161D01*
X133080262Y-30922626D01*
X133098164Y-30965100D01*
X133111048Y-31013882D01*
X133120725Y-31084895D01*
X133123783Y-31167125D01*
X133123783Y-31895000D01*
X132884364Y-31895000D01*
X132884364Y-31763566D01*
X132867602Y-31763566D01*
X132827546Y-31815329D01*
X132768422Y-31867294D01*
X132733883Y-31885756D01*
X132695378Y-31898933D01*
X132634410Y-31909413D01*
X132560956Y-31912585D01*
X132413469Y-31903685D01*
X132322884Y-31881366D01*
X132260522Y-31846625D01*
X132235993Y-31823198D01*
X132215912Y-31795569D01*
X132198172Y-31758854D01*
X132185396Y-31716096D01*
X132175593Y-31651444D01*
X132172518Y-31575438D01*
X132173455Y-31556662D01*
X132428698Y-31556662D01*
X132433722Y-31610879D01*
X132452765Y-31652673D01*
X132470454Y-31668786D01*
X132493974Y-31680566D01*
X132541406Y-31691058D01*
X132605102Y-31694232D01*
X132633511Y-31693744D01*
X132723800Y-31682192D01*
X132783935Y-31656750D01*
X132807612Y-31637717D01*
X132827255Y-31614092D01*
X132845295Y-31580675D01*
X132858779Y-31540216D01*
X132870634Y-31472696D01*
X132875937Y-31389875D01*
X132668117Y-31391981D01*
X132606612Y-31394391D01*
X132521770Y-31408451D01*
X132472252Y-31433292D01*
X132454587Y-31451621D01*
X132441871Y-31474059D01*
X132431810Y-31511030D01*
X132428698Y-31556662D01*
X132173455Y-31556662D01*
X132177102Y-31483537D01*
X132196918Y-31389035D01*
X132231379Y-31319292D01*
X132255152Y-31290369D01*
X132283585Y-31265270D01*
X132320151Y-31242066D01*
X132362868Y-31222939D01*
X132421250Y-31205375D01*
X132489065Y-31192702D01*
X132591710Y-31182928D01*
X132712172Y-31179856D01*
X132878044Y-31179856D01*
X132878044Y-31167125D01*
X132876699Y-31130594D01*
X132863232Y-31067081D01*
X132834957Y-31025613D01*
X132811134Y-31009063D01*
X132781020Y-30997016D01*
X132726802Y-30986882D01*
X132657584Y-30983760D01*
X132635305Y-30984024D01*
X132550465Y-30993455D01*
X132503001Y-31014369D01*
X132486422Y-31030724D01*
X132474752Y-31051284D01*
X132465880Y-31087322D01*
X132464419Y-31132962D01*
X132208147Y-31132962D01*
X132207534Y-31083538D01*
X132217868Y-30980919D01*
X132243345Y-30908497D01*
X132262013Y-30879444D01*
X132285083Y-30854288D01*
X132315076Y-30831356D01*
X132350730Y-30812455D01*
X132400311Y-30795048D01*
X132458611Y-30782475D01*
X132549560Y-30772612D01*
X132657584Y-30769528D01*
X132764458Y-30772790D01*
G37*
G36*
X134403585Y-31895000D02*
G01*
X134149511Y-31895000D01*
X134149511Y-31784083D01*
X134132658Y-31784083D01*
X134102495Y-31827234D01*
X134050660Y-31874725D01*
X134017424Y-31892305D01*
X133978897Y-31904963D01*
X133914526Y-31915296D01*
X133834529Y-31918447D01*
X133814731Y-31918301D01*
X133684379Y-31907531D01*
X133590818Y-31881845D01*
X133520355Y-31841662D01*
X133490833Y-31814820D01*
X133465212Y-31783301D01*
X133441541Y-31743397D01*
X133422042Y-31697369D01*
X133404295Y-31635720D01*
X133391505Y-31564898D01*
X133381829Y-31461133D01*
X133378772Y-31340874D01*
X133637151Y-31340874D01*
X133640404Y-31438183D01*
X133656693Y-31541902D01*
X133684644Y-31609042D01*
X133703540Y-31634174D01*
X133726197Y-31654680D01*
X133756033Y-31672378D01*
X133791109Y-31685130D01*
X133844585Y-31694915D01*
X133907985Y-31697987D01*
X133940301Y-31697091D01*
X134017469Y-31683856D01*
X134071268Y-31655491D01*
X134093306Y-31633657D01*
X134111501Y-31606547D01*
X134128381Y-31567222D01*
X134140631Y-31519453D01*
X134150622Y-31439357D01*
X134153724Y-31340874D01*
X134151792Y-31261795D01*
X134137515Y-31149247D01*
X134111787Y-31078390D01*
X134073630Y-31031566D01*
X134046487Y-31013728D01*
X134014572Y-31000898D01*
X133965804Y-30991054D01*
X133907985Y-30987973D01*
X133856968Y-30989833D01*
X133776531Y-31004963D01*
X133720866Y-31034529D01*
X133698318Y-31056578D01*
X133679751Y-31083645D01*
X133662678Y-31122281D01*
X133650314Y-31168826D01*
X133640261Y-31246268D01*
X133637151Y-31340874D01*
X133378772Y-31340874D01*
X133379203Y-31293595D01*
X133391021Y-31122552D01*
X133416300Y-31004938D01*
X133453427Y-30921000D01*
X133503768Y-30859210D01*
X133536164Y-30834028D01*
X133572996Y-30813398D01*
X133620225Y-30795236D01*
X133673666Y-30782191D01*
X133748844Y-30772577D01*
X133834529Y-30769528D01*
X133960285Y-30776700D01*
X134036205Y-30796611D01*
X134064700Y-30811909D01*
X134088616Y-30831336D01*
X134112782Y-30861239D01*
X134132658Y-30898489D01*
X134149511Y-30898489D01*
X134149511Y-30363047D01*
X134403585Y-30363047D01*
X134403585Y-31895000D01*
G37*
G36*
X135279883Y-30773413D02*
G01*
X135397059Y-30792638D01*
X135484115Y-30826114D01*
X135551289Y-30874703D01*
X135579791Y-30906559D01*
X135604299Y-30943308D01*
X135626836Y-30989613D01*
X135644980Y-31042386D01*
X135660866Y-31112335D01*
X135671469Y-31191900D01*
X135677857Y-31306403D01*
X135677158Y-31437777D01*
X134931607Y-31437777D01*
X134945777Y-31539592D01*
X134970989Y-31607869D01*
X135008863Y-31652878D01*
X135036852Y-31670370D01*
X135070315Y-31682978D01*
X135126029Y-31693203D01*
X135194107Y-31696338D01*
X135254234Y-31693117D01*
X135315525Y-31676608D01*
X135339315Y-31661866D01*
X135359216Y-31642196D01*
X135381585Y-31606219D01*
X135399912Y-31558769D01*
X135660306Y-31558769D01*
X135632509Y-31682129D01*
X135595681Y-31765131D01*
X135546743Y-31824935D01*
X135514997Y-31849237D01*
X135478507Y-31869165D01*
X135430483Y-31886937D01*
X135375223Y-31899734D01*
X135292726Y-31909513D01*
X135196214Y-31912585D01*
X135124054Y-31910999D01*
X134989083Y-31895700D01*
X134891540Y-31866384D01*
X134818114Y-31823276D01*
X134787542Y-31795327D01*
X134761057Y-31762943D01*
X134736814Y-31722729D01*
X134716879Y-31676831D01*
X134698927Y-31616521D01*
X134686010Y-31547904D01*
X134676372Y-31449685D01*
X134673320Y-31337027D01*
X134674578Y-31261944D01*
X134676756Y-31238292D01*
X134933714Y-31238292D01*
X135427206Y-31238292D01*
X135419117Y-31139788D01*
X135396708Y-31074143D01*
X135380046Y-31049473D01*
X135359445Y-31029352D01*
X135331294Y-31011724D01*
X135297712Y-30999029D01*
X135243909Y-30988977D01*
X135179453Y-30985867D01*
X135166676Y-30985979D01*
X135077332Y-30995818D01*
X135017315Y-31019832D01*
X134994093Y-31037658D01*
X134974758Y-31059919D01*
X134957977Y-31089724D01*
X134945658Y-31125640D01*
X134936672Y-31176977D01*
X134933714Y-31238292D01*
X134676756Y-31238292D01*
X134688863Y-31106830D01*
X134716527Y-30997872D01*
X134756588Y-30918373D01*
X134781950Y-30886245D01*
X134811259Y-30858524D01*
X134846867Y-30833700D01*
X134887347Y-30813338D01*
X134939754Y-30795234D01*
X134999118Y-30782227D01*
X135083311Y-30772581D01*
X135179453Y-30769528D01*
X135279883Y-30773413D01*
G37*
G36*
X137558531Y-30662367D02*
G01*
X137879740Y-30662367D01*
X137879740Y-30366253D01*
X137558531Y-30366253D01*
X137558531Y-30662367D01*
G37*
G36*
X137253990Y-31895000D02*
G01*
X138222108Y-31895000D01*
X138222108Y-31678753D01*
X137871406Y-31678753D01*
X137871406Y-30798838D01*
X137274965Y-30798838D01*
X137274965Y-31015176D01*
X137619347Y-31015176D01*
X137619347Y-31678753D01*
X137253990Y-31678753D01*
X137253990Y-31895000D01*
G37*
G36*
X138466656Y-31895000D02*
G01*
X138722836Y-31895000D01*
X138722836Y-31324662D01*
X138725929Y-31237020D01*
X138735856Y-31165159D01*
X138748206Y-31121330D01*
X138765246Y-31085002D01*
X138783919Y-31059413D01*
X138806593Y-31038665D01*
X138863263Y-31010926D01*
X138946315Y-30997472D01*
X138985336Y-30996400D01*
X139047136Y-30999518D01*
X139096041Y-31009626D01*
X139123899Y-31021840D01*
X139146156Y-31038667D01*
X139173567Y-31082037D01*
X139187351Y-31150431D01*
X139189035Y-31196343D01*
X139189035Y-31895000D01*
X139445215Y-31895000D01*
X139445215Y-31200556D01*
X139442145Y-31105320D01*
X139432378Y-31024019D01*
X139419640Y-30969933D01*
X139401969Y-30923310D01*
X139382385Y-30888655D01*
X139358556Y-30859017D01*
X139300875Y-30815673D01*
X139222260Y-30786810D01*
X139109639Y-30771422D01*
X139039924Y-30769528D01*
X138973796Y-30772684D01*
X138917884Y-30783049D01*
X138881376Y-30796365D01*
X138848522Y-30815063D01*
X138792827Y-30867606D01*
X138739597Y-30948039D01*
X138722836Y-30948039D01*
X138722836Y-30798838D01*
X138466656Y-30798838D01*
X138466656Y-31895000D01*
G37*
G36*
X141523966Y-31912585D02*
G01*
X141629018Y-31909515D01*
X141719293Y-31899750D01*
X141780126Y-31886940D01*
X141833036Y-31869147D01*
X141872795Y-31849421D01*
X141907280Y-31825411D01*
X141935107Y-31798765D01*
X141958817Y-31767910D01*
X141995415Y-31691214D01*
X142019629Y-31584237D01*
X142027991Y-31497311D01*
X141765491Y-31497311D01*
X141753319Y-31553458D01*
X141735865Y-31597958D01*
X141718837Y-31623901D01*
X141697645Y-31644554D01*
X141645035Y-31670445D01*
X141563503Y-31682749D01*
X141523966Y-31683699D01*
X141465305Y-31680647D01*
X141414330Y-31671007D01*
X141378484Y-31657922D01*
X141347138Y-31639687D01*
X141322178Y-31618136D01*
X141300629Y-31591650D01*
X141266487Y-31521016D01*
X141242632Y-31414458D01*
X141230658Y-31247573D01*
X141229959Y-31183062D01*
X141233051Y-31053138D01*
X141242976Y-30945642D01*
X141255346Y-30879302D01*
X141272420Y-30823704D01*
X141290591Y-30784965D01*
X141312560Y-30752841D01*
X141336078Y-30728989D01*
X141363117Y-30709982D01*
X141428984Y-30685157D01*
X141523966Y-30676106D01*
X141583181Y-30679224D01*
X141631425Y-30689329D01*
X141660862Y-30701979D01*
X141685546Y-30719535D01*
X141720589Y-30766676D01*
X141746387Y-30842995D01*
X141752852Y-30875041D01*
X142015352Y-30875041D01*
X142008934Y-30787079D01*
X141996312Y-30710995D01*
X141981357Y-30658668D01*
X141961582Y-30613034D01*
X141939893Y-30578173D01*
X141913887Y-30547989D01*
X141851017Y-30502395D01*
X141765850Y-30470577D01*
X141645258Y-30451604D01*
X141523966Y-30447128D01*
X141429807Y-30450162D01*
X141345866Y-30459673D01*
X141283851Y-30472866D01*
X141228226Y-30491254D01*
X141183953Y-30512230D01*
X141144323Y-30537827D01*
X141110973Y-30566480D01*
X141081443Y-30599683D01*
X141033029Y-30680960D01*
X140996435Y-30789828D01*
X140971775Y-30939615D01*
X140961267Y-31152520D01*
X140961139Y-31183062D01*
X140964188Y-31321310D01*
X140973813Y-31442454D01*
X140986764Y-31527864D01*
X141004770Y-31603316D01*
X141024657Y-31660788D01*
X141048820Y-31711489D01*
X141074701Y-31751962D01*
X141104490Y-31787309D01*
X141173383Y-31841680D01*
X141260452Y-31880111D01*
X141374546Y-31904216D01*
X141523966Y-31912585D01*
G37*
G36*
X142243139Y-31895000D02*
G01*
X142499319Y-31895000D01*
X142499319Y-31322647D01*
X142502430Y-31231421D01*
X142512482Y-31157076D01*
X142524807Y-31112715D01*
X142541815Y-31076060D01*
X142560358Y-31050459D01*
X142582882Y-31029753D01*
X142639099Y-31002235D01*
X142721717Y-30988989D01*
X142759713Y-30987973D01*
X142822249Y-30991103D01*
X142871686Y-31001291D01*
X142899621Y-31013529D01*
X142921967Y-31030398D01*
X142949557Y-31073890D01*
X142963630Y-31142581D01*
X142965518Y-31192130D01*
X142965518Y-31895000D01*
X143221698Y-31895000D01*
X143221698Y-31196343D01*
X143218625Y-31101754D01*
X143208842Y-31021087D01*
X143196108Y-30967585D01*
X143178439Y-30921491D01*
X143158849Y-30887241D01*
X143135008Y-30857963D01*
X143077154Y-30815108D01*
X142997990Y-30786550D01*
X142884034Y-30771359D01*
X142814301Y-30769528D01*
X142748623Y-30772668D01*
X142692408Y-30782923D01*
X142654980Y-30796257D01*
X142621352Y-30814983D01*
X142565943Y-30866649D01*
X142516080Y-30943918D01*
X142499319Y-30943918D01*
X142499319Y-30364238D01*
X142243139Y-30364238D01*
X142243139Y-31895000D01*
G37*
G36*
X143852669Y-30662367D02*
G01*
X144173879Y-30662367D01*
X144173879Y-30366253D01*
X143852669Y-30366253D01*
X143852669Y-30662367D01*
G37*
G36*
X143548128Y-31895000D02*
G01*
X144516246Y-31895000D01*
X144516246Y-31678753D01*
X144165544Y-31678753D01*
X144165544Y-30798838D01*
X143569103Y-30798838D01*
X143569103Y-31015176D01*
X143913485Y-31015176D01*
X143913485Y-31678753D01*
X143548128Y-31678753D01*
X143548128Y-31895000D01*
G37*
G36*
X144760794Y-31895000D02*
G01*
X145016974Y-31895000D01*
X145016974Y-31324662D01*
X145020067Y-31237020D01*
X145029995Y-31165159D01*
X145042344Y-31121330D01*
X145059384Y-31085002D01*
X145078057Y-31059413D01*
X145100731Y-31038665D01*
X145157401Y-31010926D01*
X145240453Y-30997472D01*
X145279474Y-30996400D01*
X145341275Y-30999518D01*
X145390179Y-31009626D01*
X145418037Y-31021840D01*
X145440294Y-31038667D01*
X145467705Y-31082037D01*
X145481489Y-31150431D01*
X145483173Y-31196343D01*
X145483173Y-31895000D01*
X145739353Y-31895000D01*
X145739353Y-31200556D01*
X145736283Y-31105320D01*
X145726516Y-31024019D01*
X145713778Y-30969933D01*
X145696107Y-30923310D01*
X145676523Y-30888655D01*
X145652694Y-30859017D01*
X145595013Y-30815673D01*
X145516399Y-30786810D01*
X145403777Y-30771422D01*
X145334063Y-30769528D01*
X145267934Y-30772684D01*
X145212022Y-30783049D01*
X145175514Y-30796365D01*
X145142660Y-30815063D01*
X145086966Y-30867606D01*
X145033736Y-30948039D01*
X145016974Y-30948039D01*
X145016974Y-30798838D01*
X144760794Y-30798838D01*
X144760794Y-31895000D01*
G37*
G36*
X146611562Y-30772790D02*
G01*
X146735780Y-30789963D01*
X146821186Y-30819595D01*
X146882439Y-30862113D01*
X146907127Y-30890161D01*
X146927366Y-30922626D01*
X146945268Y-30965100D01*
X146958152Y-31013882D01*
X146967829Y-31084895D01*
X146970887Y-31167125D01*
X146970887Y-31895000D01*
X146731468Y-31895000D01*
X146731468Y-31763566D01*
X146714706Y-31763566D01*
X146674650Y-31815329D01*
X146615526Y-31867294D01*
X146580987Y-31885756D01*
X146542482Y-31898933D01*
X146481514Y-31909413D01*
X146408060Y-31912585D01*
X146260573Y-31903685D01*
X146169988Y-31881366D01*
X146107626Y-31846625D01*
X146083097Y-31823198D01*
X146063016Y-31795569D01*
X146045276Y-31758854D01*
X146032500Y-31716096D01*
X146022697Y-31651444D01*
X146019622Y-31575438D01*
X146020559Y-31556662D01*
X146275802Y-31556662D01*
X146280826Y-31610879D01*
X146299869Y-31652673D01*
X146317558Y-31668786D01*
X146341078Y-31680566D01*
X146388510Y-31691058D01*
X146452206Y-31694232D01*
X146480615Y-31693744D01*
X146570904Y-31682192D01*
X146631039Y-31656750D01*
X146654716Y-31637717D01*
X146674358Y-31614092D01*
X146692399Y-31580675D01*
X146705883Y-31540216D01*
X146717738Y-31472696D01*
X146723041Y-31389875D01*
X146515221Y-31391981D01*
X146453716Y-31394391D01*
X146368874Y-31408451D01*
X146319356Y-31433292D01*
X146301691Y-31451621D01*
X146288975Y-31474059D01*
X146278914Y-31511030D01*
X146275802Y-31556662D01*
X146020559Y-31556662D01*
X146024206Y-31483537D01*
X146044022Y-31389035D01*
X146078483Y-31319292D01*
X146102256Y-31290369D01*
X146130689Y-31265270D01*
X146167255Y-31242066D01*
X146209972Y-31222939D01*
X146268354Y-31205375D01*
X146336169Y-31192702D01*
X146438814Y-31182928D01*
X146559276Y-31179856D01*
X146725148Y-31179856D01*
X146725148Y-31167125D01*
X146723803Y-31130594D01*
X146710336Y-31067081D01*
X146682061Y-31025613D01*
X146658238Y-31009063D01*
X146628124Y-30997016D01*
X146573906Y-30986882D01*
X146504688Y-30983760D01*
X146482409Y-30984024D01*
X146397569Y-30993455D01*
X146350105Y-31014369D01*
X146333526Y-31030724D01*
X146321856Y-31051284D01*
X146312984Y-31087322D01*
X146311523Y-31132962D01*
X146055251Y-31132962D01*
X146054638Y-31083538D01*
X146064972Y-30980919D01*
X146090449Y-30908497D01*
X146109117Y-30879444D01*
X146132187Y-30854288D01*
X146162180Y-30831356D01*
X146197834Y-30812455D01*
X146247415Y-30795048D01*
X146305715Y-30782475D01*
X146396664Y-30772612D01*
X146504688Y-30769528D01*
X146611562Y-30772790D01*
G37*
D12*
G36*
X107016338Y-25187756D02*
G01*
X102122283Y-25187756D01*
X102122283Y-23889115D01*
X102622283Y-23889115D01*
X102624013Y-24044877D01*
X102647378Y-24181220D01*
X102685144Y-24282847D01*
X102739990Y-24371601D01*
X102890613Y-24505078D01*
X103115369Y-24601711D01*
X103453666Y-24665120D01*
X103945071Y-24687756D01*
X104280755Y-24678559D01*
X104574138Y-24649355D01*
X104779701Y-24610194D01*
X104962358Y-24555601D01*
X105105846Y-24493657D01*
X105234036Y-24417915D01*
X105440375Y-24232190D01*
X105607390Y-23980116D01*
X105748670Y-23625355D01*
X105819940Y-23358128D01*
X106516338Y-20344141D01*
X105647138Y-20344141D01*
X104956542Y-23332849D01*
X104901135Y-23527076D01*
X104830963Y-23682008D01*
X104766748Y-23773441D01*
X104689984Y-23846646D01*
X104511850Y-23937711D01*
X104257581Y-23982893D01*
X104086121Y-23988733D01*
X103899663Y-23979550D01*
X103755900Y-23950442D01*
X103676393Y-23915320D01*
X103617003Y-23867458D01*
X103557463Y-23746926D01*
X103555189Y-23556887D01*
X103587561Y-23389727D01*
X102711034Y-23389727D01*
X102650490Y-23657431D01*
X102622283Y-23889115D01*
X102122283Y-23889115D01*
X102122283Y-19844141D01*
X107016338Y-19844141D01*
X107016338Y-25187756D01*
G37*
D13*
X133225126Y-170325126D02*
X133649390Y-170749390D01*
X135063604Y-169900862D02*
X132800862Y-172163604D01*
X135558579Y-174921320D02*
X132800862Y-172163604D01*
X137750610Y-174850610D02*
X138174874Y-175274874D01*
X137750610Y-175274874D02*
X138174874Y-174850610D01*
X137821320Y-172658579D02*
X135063604Y-169900862D01*
X144400000Y-60900000D02*
X144400000Y-57000000D01*
X145700000Y-62700000D02*
X146300000Y-62700000D01*
X146000000Y-56000000D02*
X146000000Y-56600000D01*
X146000000Y-62400000D02*
X146000000Y-63000000D01*
X147600000Y-57000000D02*
X144400000Y-57000000D01*
X147600000Y-60900000D02*
X147600000Y-57000000D01*
X67000000Y-44900000D02*
X67000000Y-41000000D01*
X68300000Y-46700000D02*
X68900000Y-46700000D01*
X68600000Y-40000000D02*
X68600000Y-40600000D01*
X68600000Y-46400000D02*
X68600000Y-47000000D01*
X70200000Y-41000000D02*
X67000000Y-41000000D01*
X70200000Y-44900000D02*
X70200000Y-41000000D01*
X102200000Y-170100000D02*
X102200000Y-174000000D01*
X102200000Y-174000000D02*
X105400000Y-174000000D01*
X103800000Y-168600000D02*
X103800000Y-168000000D01*
X103800000Y-175000000D02*
X103800000Y-174400000D01*
X104100000Y-168300000D02*
X103500000Y-168300000D01*
X105400000Y-170100000D02*
X105400000Y-174000000D01*
X114542421Y-175370645D02*
X115570645Y-174342421D01*
X115829355Y-176657579D02*
X116857579Y-175629355D01*
X129550000Y-172950000D02*
X129550000Y-169050000D01*
X130850000Y-174750000D02*
X131450000Y-174750000D01*
X131150000Y-168050000D02*
X131150000Y-168650000D01*
X131150000Y-174450000D02*
X131150000Y-175050000D01*
X132750000Y-169050000D02*
X129550000Y-169050000D01*
X132750000Y-172950000D02*
X132750000Y-169050000D01*
X39800000Y-81600000D02*
X39800000Y-82200000D01*
X40100000Y-81900000D02*
X39500000Y-81900000D01*
X41600000Y-80300000D02*
X45500000Y-80300000D01*
X41600000Y-83500000D02*
X45500000Y-83500000D01*
X45500000Y-83500000D02*
X45500000Y-80300000D01*
X46500000Y-81900000D02*
X45900000Y-81900000D01*
X71800000Y-142400000D02*
X71800000Y-143000000D01*
X72100000Y-142700000D02*
X71500000Y-142700000D01*
X73600000Y-141100000D02*
X77500000Y-141100000D01*
X73600000Y-144300000D02*
X77500000Y-144300000D01*
X77500000Y-144300000D02*
X77500000Y-141100000D01*
X78500000Y-142700000D02*
X77900000Y-142700000D01*
X103800000Y-145599999D02*
X103800000Y-146199999D01*
X104100000Y-145899999D02*
X103500000Y-145899999D01*
X105600000Y-144299999D02*
X109500000Y-144299999D01*
X105600000Y-147499999D02*
X109500000Y-147499999D01*
X109500000Y-147499999D02*
X109500000Y-144299999D01*
X110500000Y-145899999D02*
X109900000Y-145899999D01*
X103800000Y-139200000D02*
X103800000Y-139800000D01*
X104100000Y-139500000D02*
X103500000Y-139500000D01*
X105600000Y-137900000D02*
X109500000Y-137900000D01*
X105600000Y-141100000D02*
X109500000Y-141100000D01*
X109500000Y-141100000D02*
X109500000Y-137900000D01*
X110500000Y-139500000D02*
X109900000Y-139500000D01*
X108600000Y-170100000D02*
X108600000Y-174000000D01*
X108600000Y-174000000D02*
X111800000Y-174000000D01*
X110200000Y-168600000D02*
X110200000Y-168000000D01*
X110200000Y-175000000D02*
X110200000Y-174400000D01*
X110500000Y-168300000D02*
X109900000Y-168300000D01*
X111800000Y-170100000D02*
X111800000Y-174000000D01*
X70900000Y-60900000D02*
X70900000Y-57000000D01*
X72200000Y-62700000D02*
X72800000Y-62700000D01*
X72500000Y-56000000D02*
X72500000Y-56600000D01*
X72500000Y-62400000D02*
X72500000Y-63000000D01*
X74100000Y-57000000D02*
X70900000Y-57000000D01*
X74100000Y-60900000D02*
X74100000Y-57000000D01*
X102200000Y-42100000D02*
X102200000Y-46000000D01*
X102200000Y-46000000D02*
X105400000Y-46000000D01*
X103800000Y-40600000D02*
X103800000Y-40000000D01*
X103800000Y-47000000D02*
X103800000Y-46400000D01*
X104100000Y-40300000D02*
X103500000Y-40300000D01*
X105400000Y-42100000D02*
X105400000Y-46000000D01*
X70200000Y-172900000D02*
X70200000Y-169000000D01*
X71500000Y-174700000D02*
X72100000Y-174700000D01*
X71800000Y-168000000D02*
X71800000Y-168600000D01*
X71800000Y-174400000D02*
X71800000Y-175000000D01*
X73400000Y-169000000D02*
X70200000Y-169000000D01*
X73400000Y-172900000D02*
X73400000Y-169000000D01*
X39800000Y-145600000D02*
X39800000Y-146200000D01*
X40100000Y-145900000D02*
X39500000Y-145900000D01*
X41600000Y-144300000D02*
X45500000Y-144300000D01*
X41600000Y-147500000D02*
X45500000Y-147500000D01*
X45500000Y-147500000D02*
X45500000Y-144300000D01*
X46500000Y-145900000D02*
X45900000Y-145900000D01*
X76600000Y-44900000D02*
X76600000Y-41000000D01*
X77900000Y-46700000D02*
X78500000Y-46700000D01*
X78200000Y-40000000D02*
X78200000Y-40600000D01*
X78200000Y-46400000D02*
X78200000Y-47000000D01*
X79800000Y-41000000D02*
X76600000Y-41000000D01*
X79800000Y-44900000D02*
X79800000Y-41000000D01*
X70200000Y-44900000D02*
X70200000Y-41000000D01*
X71500000Y-46700000D02*
X72100000Y-46700000D01*
X71800000Y-40000000D02*
X71800000Y-40600000D01*
X71800000Y-46400000D02*
X71800000Y-47000000D01*
X73400000Y-41000000D02*
X70200000Y-41000000D01*
X73400000Y-44900000D02*
X73400000Y-41000000D01*
X103800000Y-110400000D02*
X103800000Y-111000000D01*
X104100000Y-110700000D02*
X103500000Y-110700000D01*
X105600000Y-109100000D02*
X109500000Y-109100000D01*
X105600000Y-112300000D02*
X109500000Y-112300000D01*
X109500000Y-112300000D02*
X109500000Y-109100000D01*
X110500000Y-110700000D02*
X109900000Y-110700000D01*
X34400000Y-90100000D02*
X34400000Y-94000000D01*
X34400000Y-94000000D02*
X37600000Y-94000000D01*
X36000000Y-88600000D02*
X36000000Y-88000000D01*
X36000000Y-95000000D02*
X36000000Y-94400000D01*
X36300000Y-88300000D02*
X35700000Y-88300000D01*
X37600000Y-90100000D02*
X37600000Y-94000000D01*
X116992420Y-178029355D02*
X118020644Y-179057579D01*
X118279354Y-176742421D02*
X119307578Y-177770645D01*
X71800000Y-136000000D02*
X71800000Y-136600000D01*
X72100000Y-136300000D02*
X71500000Y-136300000D01*
X73600000Y-134700000D02*
X77500000Y-134700000D01*
X73600000Y-137900000D02*
X77500000Y-137900000D01*
X77500000Y-137900000D02*
X77500000Y-134700000D01*
X78500000Y-136300000D02*
X77900000Y-136300000D01*
X39336218Y-46698959D02*
X42093934Y-49456676D01*
X39406928Y-44082664D02*
X38982664Y-44506928D01*
X39406928Y-44506928D02*
X38982664Y-44082664D01*
X41598959Y-44436218D02*
X44356676Y-47193934D01*
X42093934Y-49456676D02*
X44356676Y-47193934D01*
X43932412Y-49032412D02*
X43508148Y-48608148D01*
X137825126Y-165725126D02*
X138249390Y-166149390D01*
X139663604Y-165300862D02*
X137400862Y-167563604D01*
X140158579Y-170321320D02*
X137400862Y-167563604D01*
X142350610Y-170250610D02*
X142774874Y-170674874D01*
X142350610Y-170674874D02*
X142774874Y-170250610D01*
X142421320Y-168058579D02*
X139663604Y-165300862D01*
X135800000Y-139200000D02*
X135800000Y-139800000D01*
X136100000Y-139500000D02*
X135500000Y-139500000D01*
X137600000Y-137900000D02*
X141500000Y-137900000D01*
X137600000Y-141100000D02*
X141500000Y-141100000D01*
X141500000Y-141100000D02*
X141500000Y-137900000D01*
X142500000Y-139500000D02*
X141900000Y-139500000D01*
X38800862Y-168836396D02*
X41063604Y-171099138D01*
X39225126Y-170674874D02*
X39649390Y-170250610D01*
X41558579Y-166078680D02*
X38800862Y-168836396D01*
X43750610Y-166149390D02*
X44174874Y-165725126D01*
X43821320Y-168341421D02*
X41063604Y-171099138D01*
X44174874Y-166149390D02*
X43750610Y-165725126D01*
X39800000Y-72000000D02*
X39800000Y-72600000D01*
X40100000Y-72300000D02*
X39500000Y-72300000D01*
X41600000Y-70700000D02*
X45500000Y-70700000D01*
X41600000Y-73900000D02*
X45500000Y-73900000D01*
X45500000Y-73900000D02*
X45500000Y-70700000D01*
X46500000Y-72300000D02*
X45900000Y-72300000D01*
X71800000Y-75200000D02*
X71800000Y-75800000D01*
X72100000Y-75500000D02*
X71500000Y-75500000D01*
X73600000Y-73900000D02*
X77500000Y-73900000D01*
X73600000Y-77100000D02*
X77500000Y-77100000D01*
X77500000Y-77100000D02*
X77500000Y-73900000D01*
X78500000Y-75500000D02*
X77900000Y-75500000D01*
X39775000Y-142375000D02*
X39775000Y-142975000D01*
X40075000Y-142675000D02*
X39475000Y-142675000D01*
X41575000Y-141075000D02*
X45475000Y-141075000D01*
X41575000Y-144275000D02*
X45475000Y-144275000D01*
X45475000Y-144275000D02*
X45475000Y-141075000D01*
X46475000Y-142675000D02*
X45875000Y-142675000D01*
X41636218Y-44398959D02*
X44393934Y-47156676D01*
X41706928Y-41782664D02*
X41282664Y-42206928D01*
X41706928Y-42206928D02*
X41282664Y-41782664D01*
X43898959Y-42136218D02*
X46656676Y-44893934D01*
X44393934Y-47156676D02*
X46656676Y-44893934D01*
X46232412Y-46732412D02*
X45808148Y-46308148D01*
X39800000Y-110400001D02*
X39800000Y-111000001D01*
X40100000Y-110700001D02*
X39500000Y-110700001D01*
X41600000Y-109100001D02*
X45500000Y-109100001D01*
X41600000Y-112300001D02*
X45500000Y-112300001D01*
X45500000Y-112300001D02*
X45500000Y-109100001D01*
X46500000Y-110700001D02*
X45900000Y-110700001D01*
X70900000Y-124900000D02*
X70900000Y-121000000D01*
X72200000Y-126700000D02*
X72800000Y-126700000D01*
X72500000Y-120000000D02*
X72500000Y-120600000D01*
X72500000Y-126400000D02*
X72500000Y-127000000D01*
X74100000Y-121000000D02*
X70900000Y-121000000D01*
X74100000Y-124900000D02*
X74100000Y-121000000D01*
X135850000Y-78400000D02*
X135850000Y-79000000D01*
X136150000Y-78700000D02*
X135550000Y-78700000D01*
X137650000Y-77100000D02*
X141550000Y-77100000D01*
X137650000Y-80300000D02*
X141550000Y-80300000D01*
X141550000Y-80300000D02*
X141550000Y-77100000D01*
X142550000Y-78700000D02*
X141950000Y-78700000D01*
X107900000Y-154100000D02*
X107900000Y-158000000D01*
X107900000Y-158000000D02*
X111100000Y-158000000D01*
X109500000Y-152600000D02*
X109500000Y-152000000D01*
X109500000Y-159000000D02*
X109500000Y-158400000D01*
X109800000Y-152300000D02*
X109200000Y-152300000D01*
X111100000Y-154100000D02*
X111100000Y-158000000D01*
X130925126Y-41950610D02*
X131349390Y-42374874D01*
X131278680Y-39758579D02*
X134036396Y-37000862D01*
X131349390Y-41950610D02*
X130925126Y-42374874D01*
X133541421Y-42021320D02*
X136299138Y-39263604D01*
X135874874Y-37425126D02*
X135450610Y-37849390D01*
X136299138Y-39263604D02*
X134036396Y-37000862D01*
X73400000Y-172900000D02*
X73400000Y-169000000D01*
X74700000Y-174700000D02*
X75300000Y-174700000D01*
X75000000Y-168000000D02*
X75000000Y-168600000D01*
X75000000Y-174400000D02*
X75000000Y-175000000D01*
X76600000Y-169000000D02*
X73400000Y-169000000D01*
X76600000Y-172900000D02*
X76600000Y-169000000D01*
X71800000Y-139200000D02*
X71800000Y-139800000D01*
X72100000Y-139500000D02*
X71500000Y-139500000D01*
X73600000Y-137900000D02*
X77500000Y-137900000D01*
X73600000Y-141100000D02*
X77500000Y-141100000D01*
X77500000Y-141100000D02*
X77500000Y-137900000D01*
X78500000Y-139500000D02*
X77900000Y-139500000D01*
X36500862Y-166536396D02*
X38763604Y-168799138D01*
X36925126Y-168374874D02*
X37349390Y-167950610D01*
X39258579Y-163778680D02*
X36500862Y-166536396D01*
X41450610Y-163849390D02*
X41874874Y-163425126D01*
X41521320Y-166041421D02*
X38763604Y-168799138D01*
X41874874Y-163849390D02*
X41450610Y-163425126D01*
X135800000Y-68800000D02*
X135800000Y-69400000D01*
X136100000Y-69100000D02*
X135500000Y-69100000D01*
X137600000Y-67500000D02*
X141500000Y-67500000D01*
X137600000Y-70700000D02*
X141500000Y-70700000D01*
X141500000Y-70700000D02*
X141500000Y-67500000D01*
X142500000Y-69100000D02*
X141900000Y-69100000D01*
X39800000Y-75200000D02*
X39800000Y-75800000D01*
X40100000Y-75500000D02*
X39500000Y-75500000D01*
X41600000Y-73900000D02*
X45500000Y-73900000D01*
X41600000Y-77100000D02*
X45500000Y-77100000D01*
X45500000Y-77100000D02*
X45500000Y-73900000D01*
X46500000Y-75500000D02*
X45900000Y-75500000D01*
X39800000Y-78400000D02*
X39800000Y-79000000D01*
X40100000Y-78700000D02*
X39500000Y-78700000D01*
X41600000Y-77100000D02*
X45500000Y-77100000D01*
X41600000Y-80300000D02*
X45500000Y-80300000D01*
X45500000Y-80300000D02*
X45500000Y-77100000D01*
X46500000Y-78700000D02*
X45900000Y-78700000D01*
X144400000Y-156900000D02*
X144400000Y-153000000D01*
X145700000Y-158700000D02*
X146300000Y-158700000D01*
X146000000Y-152000000D02*
X146000000Y-152600000D01*
X146000000Y-158400000D02*
X146000000Y-159000000D01*
X147600000Y-153000000D02*
X144400000Y-153000000D01*
X147600000Y-156900000D02*
X147600000Y-153000000D01*
X133225126Y-44250610D02*
X133649390Y-44674874D01*
X133578680Y-42058579D02*
X136336396Y-39300862D01*
X133649390Y-44250610D02*
X133225126Y-44674874D01*
X135841421Y-44321320D02*
X138599138Y-41563604D01*
X138174874Y-39725126D02*
X137750610Y-40149390D01*
X138599138Y-41563604D02*
X136336396Y-39300862D01*
X103800000Y-142400000D02*
X103800000Y-143000000D01*
X104100000Y-142700000D02*
X103500000Y-142700000D01*
X105600000Y-141100000D02*
X109500000Y-141100000D01*
X105600000Y-144300000D02*
X109500000Y-144300000D01*
X109500000Y-144300000D02*
X109500000Y-141100000D01*
X110500000Y-142700000D02*
X109900000Y-142700000D01*
X37036218Y-48998959D02*
X39793934Y-51756676D01*
X37106928Y-46382664D02*
X36682664Y-46806928D01*
X37106928Y-46806928D02*
X36682664Y-46382664D01*
X39298959Y-46736218D02*
X42056676Y-49493934D01*
X39793934Y-51756676D02*
X42056676Y-49493934D01*
X41632412Y-51332412D02*
X41208148Y-50908148D01*
X135800000Y-136000000D02*
X135800000Y-136600000D01*
X136100000Y-136300000D02*
X135500000Y-136300000D01*
X137600000Y-134700000D02*
X141500000Y-134700000D01*
X137600000Y-137900000D02*
X141500000Y-137900000D01*
X141500000Y-137900000D02*
X141500000Y-134700000D01*
X142500000Y-136300000D02*
X141900000Y-136300000D01*
X103800000Y-78400000D02*
X103800000Y-79000000D01*
X104100000Y-78700000D02*
X103500000Y-78700000D01*
X105600000Y-77100000D02*
X109500000Y-77100000D01*
X105600000Y-80300000D02*
X109500000Y-80300000D01*
X109500000Y-80300000D02*
X109500000Y-77100000D01*
X110500000Y-78700000D02*
X109900000Y-78700000D01*
X144400000Y-92900000D02*
X144400000Y-89000000D01*
X145700000Y-94700000D02*
X146300000Y-94700000D01*
X146000000Y-88000000D02*
X146000000Y-88600000D01*
X146000000Y-94400000D02*
X146000000Y-95000000D01*
X147600000Y-89000000D02*
X144400000Y-89000000D01*
X147600000Y-92900000D02*
X147600000Y-89000000D01*
X103800000Y-136000000D02*
X103800000Y-136600000D01*
X104100000Y-136300000D02*
X103500000Y-136300000D01*
X105600000Y-134700000D02*
X109500000Y-134700000D01*
X105600000Y-137900000D02*
X109500000Y-137900000D01*
X109500000Y-137900000D02*
X109500000Y-134700000D01*
X110500000Y-136300000D02*
X109900000Y-136300000D01*
X103800000Y-113599999D02*
X103800000Y-114199999D01*
X104100000Y-113899999D02*
X103500000Y-113899999D01*
X105600000Y-112299999D02*
X109500000Y-112299999D01*
X105600000Y-115499999D02*
X109500000Y-115499999D01*
X109500000Y-115499999D02*
X109500000Y-112299999D01*
X110500000Y-113899999D02*
X109900000Y-113899999D01*
X43400862Y-173436396D02*
X45663604Y-175699138D01*
X43825126Y-175274874D02*
X44249390Y-174850610D01*
X46158579Y-170678680D02*
X43400862Y-173436396D01*
X48350610Y-170749390D02*
X48774874Y-170325126D01*
X48421320Y-172941421D02*
X45663604Y-175699138D01*
X48774874Y-170749390D02*
X48350610Y-170325126D01*
X43936218Y-42098959D02*
X46693934Y-44856676D01*
X44006928Y-39482664D02*
X43582664Y-39906928D01*
X44006928Y-39906928D02*
X43582664Y-39482664D01*
X46198959Y-39836218D02*
X48956676Y-42593934D01*
X46693934Y-44856676D02*
X48956676Y-42593934D01*
X48532412Y-44432412D02*
X48108148Y-44008148D01*
X71800000Y-72000000D02*
X71800000Y-72600000D01*
X72100000Y-72300000D02*
X71500000Y-72300000D01*
X73600000Y-70700000D02*
X77500000Y-70700000D01*
X73600000Y-73900000D02*
X77500000Y-73900000D01*
X77500000Y-73900000D02*
X77500000Y-70700000D01*
X78500000Y-72300000D02*
X77900000Y-72300000D01*
X103800000Y-104000000D02*
X103800000Y-104600000D01*
X104100000Y-104300000D02*
X103500000Y-104300000D01*
X105600000Y-102700000D02*
X109500000Y-102700000D01*
X105600000Y-105900000D02*
X109500000Y-105900000D01*
X109500000Y-105900000D02*
X109500000Y-102700000D01*
X110500000Y-104300000D02*
X109900000Y-104300000D01*
X71800000Y-110400000D02*
X71800000Y-111000000D01*
X72100000Y-110700000D02*
X71500000Y-110700000D01*
X73600000Y-109100000D02*
X77500000Y-109100000D01*
X73600000Y-112300000D02*
X77500000Y-112300000D01*
X77500000Y-112300000D02*
X77500000Y-109100000D01*
X78500000Y-110700000D02*
X77900000Y-110700000D01*
X71800000Y-107200000D02*
X71800000Y-107800000D01*
X72100000Y-107500000D02*
X71500000Y-107500000D01*
X73600000Y-105900000D02*
X77500000Y-105900000D01*
X73600000Y-109100000D02*
X77500000Y-109100000D01*
X77500000Y-109100000D02*
X77500000Y-105900000D01*
X78500000Y-107500000D02*
X77900000Y-107500000D01*
X107900000Y-90100000D02*
X107900000Y-94000000D01*
X107900000Y-94000000D02*
X111100000Y-94000000D01*
X109500000Y-88600000D02*
X109500000Y-88000000D01*
X109500000Y-95000000D02*
X109500000Y-94400000D01*
X109800000Y-88300000D02*
X109200000Y-88300000D01*
X111100000Y-90100000D02*
X111100000Y-94000000D01*
X135800000Y-72000000D02*
X135800000Y-72600000D01*
X136100000Y-72300000D02*
X135500000Y-72300000D01*
X137600000Y-70700000D02*
X141500000Y-70700000D01*
X137600000Y-73900000D02*
X141500000Y-73900000D01*
X141500000Y-73900000D02*
X141500000Y-70700000D01*
X142500000Y-72300000D02*
X141900000Y-72300000D01*
X39800000Y-113600000D02*
X39800000Y-114200000D01*
X40100000Y-113900000D02*
X39500000Y-113900000D01*
X41600000Y-112300000D02*
X45500000Y-112300000D01*
X41600000Y-115500000D02*
X45500000Y-115500000D01*
X45500000Y-115500000D02*
X45500000Y-112300000D01*
X46500000Y-113900000D02*
X45900000Y-113900000D01*
X103800000Y-72000000D02*
X103800000Y-72600000D01*
X104100000Y-72300000D02*
X103500000Y-72300000D01*
X105600000Y-70700000D02*
X109500000Y-70700000D01*
X105600000Y-73900000D02*
X109500000Y-73900000D01*
X109500000Y-73900000D02*
X109500000Y-70700000D01*
X110500000Y-72300000D02*
X109900000Y-72300000D01*
X103800000Y-107200000D02*
X103800000Y-107800000D01*
X104100000Y-107500000D02*
X103500000Y-107500000D01*
X105600000Y-105900000D02*
X109500000Y-105900000D01*
X105600000Y-109100000D02*
X109500000Y-109100000D01*
X109500000Y-109100000D02*
X109500000Y-105900000D01*
X110500000Y-107500000D02*
X109900000Y-107500000D01*
X71800000Y-78400000D02*
X71800000Y-79000000D01*
X72100000Y-78700000D02*
X71500000Y-78700000D01*
X73600000Y-77100000D02*
X77500000Y-77100000D01*
X73600000Y-80300000D02*
X77500000Y-80300000D01*
X77500000Y-80300000D02*
X77500000Y-77100000D01*
X78500000Y-78700000D02*
X77900000Y-78700000D01*
X135800000Y-142400000D02*
X135800000Y-143000000D01*
X136100000Y-142700000D02*
X135500000Y-142700000D01*
X137600000Y-141100000D02*
X141500000Y-141100000D01*
X137600000Y-144300000D02*
X141500000Y-144300000D01*
X141500000Y-144300000D02*
X141500000Y-141100000D01*
X142500000Y-142700000D02*
X141900000Y-142700000D01*
X99000000Y-42100000D02*
X99000000Y-46000000D01*
X99000000Y-46000000D02*
X102200000Y-46000000D01*
X100600000Y-40600000D02*
X100600000Y-40000000D01*
X100600000Y-47000000D02*
X100600000Y-46400000D01*
X100900000Y-40300000D02*
X100300000Y-40300000D01*
X102200000Y-42100000D02*
X102200000Y-46000000D01*
X67000000Y-172900000D02*
X67000000Y-169000000D01*
X68300000Y-174700000D02*
X68900000Y-174700000D01*
X68600000Y-168000000D02*
X68600000Y-168600000D01*
X68600000Y-174400000D02*
X68600000Y-175000000D01*
X70200000Y-169000000D02*
X67000000Y-169000000D01*
X70200000Y-172900000D02*
X70200000Y-169000000D01*
X80940000Y-20440000D02*
X81240000Y-20440000D01*
X80940000Y-24560000D02*
X80940000Y-20440000D01*
X80940000Y-24560000D02*
X81240000Y-24560000D01*
X81240000Y-20440000D02*
X81240000Y-18060000D01*
X82760000Y-20440000D02*
X83239999Y-20440000D01*
X82760000Y-24560000D02*
X83239999Y-24560000D01*
X84760000Y-20440000D02*
X85240000Y-20440000D01*
X84760000Y-24560000D02*
X85240000Y-24560000D01*
X86760000Y-20440000D02*
X87240000Y-20440001D01*
X86760000Y-24560000D02*
X87240000Y-24559999D01*
X88760000Y-20440000D02*
X89240000Y-20440000D01*
X88760000Y-24560000D02*
X89240000Y-24560000D01*
X90759999Y-20440000D02*
X91240001Y-20440000D01*
X90759999Y-24560000D02*
X91240001Y-24560000D01*
X92760000Y-20440000D02*
X93240000Y-20440000D01*
X92760000Y-24560000D02*
X93240000Y-24560000D01*
X94760000Y-20440001D02*
X95240000Y-20440000D01*
X94760000Y-24559999D02*
X95240000Y-24560000D01*
X96760000Y-20440000D02*
X97240000Y-20440000D01*
X96760000Y-24560000D02*
X97240000Y-24560000D01*
X98760001Y-20440000D02*
X99240000Y-20440000D01*
X98760001Y-24560000D02*
X99240000Y-24560000D01*
X100760000Y-20440000D02*
X101060000Y-20440000D01*
X100760000Y-24560000D02*
X101060000Y-24560000D01*
X101060000Y-24560000D02*
X101060000Y-20440000D01*
X135725000Y-132775000D02*
X135725000Y-133375000D01*
X136025000Y-133075000D02*
X135425000Y-133075000D01*
X137525000Y-131475000D02*
X141425000Y-131475000D01*
X137525000Y-134675000D02*
X141425000Y-134675000D01*
X141425000Y-134675000D02*
X141425000Y-131475000D01*
X142425000Y-133075000D02*
X141825000Y-133075000D01*
X107900000Y-122100000D02*
X107900000Y-126000000D01*
X107900000Y-126000000D02*
X111100000Y-126000000D01*
X109500000Y-120600000D02*
X109500000Y-120000000D01*
X109500000Y-127000000D02*
X109500000Y-126400000D01*
X109800000Y-120300000D02*
X109200000Y-120300000D01*
X111100000Y-122100000D02*
X111100000Y-126000000D01*
X99000000Y-170100000D02*
X99000000Y-174000000D01*
X99000000Y-174000000D02*
X102200000Y-174000000D01*
X100600000Y-168600000D02*
X100600000Y-168000000D01*
X100600000Y-175000000D02*
X100600000Y-174400000D01*
X100900000Y-168300000D02*
X100300000Y-168300000D01*
X102200000Y-170100000D02*
X102200000Y-174000000D01*
X135725000Y-100775000D02*
X135725000Y-101375000D01*
X136025000Y-101075000D02*
X135425000Y-101075000D01*
X137525000Y-99475000D02*
X141425000Y-99475000D01*
X137525000Y-102675000D02*
X141425000Y-102675000D01*
X141425000Y-102675000D02*
X141425000Y-99475000D01*
X142425000Y-101075000D02*
X141825000Y-101075000D01*
X70900000Y-92925000D02*
X70900000Y-89025000D01*
X72200000Y-94725000D02*
X72800000Y-94725000D01*
X72500000Y-88025000D02*
X72500000Y-88625000D01*
X72500000Y-94425000D02*
X72500000Y-95025000D01*
X74100000Y-89025000D02*
X70900000Y-89025000D01*
X74100000Y-92925000D02*
X74100000Y-89025000D01*
X144400000Y-124900000D02*
X144400000Y-121000000D01*
X145700000Y-126700000D02*
X146300000Y-126700000D01*
X146000000Y-120000000D02*
X146000000Y-120600000D01*
X146000000Y-126400000D02*
X146000000Y-127000000D01*
X147600000Y-121000000D02*
X144400000Y-121000000D01*
X147600000Y-124900000D02*
X147600000Y-121000000D01*
X70900000Y-156900000D02*
X70900000Y-153000000D01*
X72200000Y-158700000D02*
X72800000Y-158700000D01*
X72500000Y-152000000D02*
X72500000Y-152600000D01*
X72500000Y-158400000D02*
X72500000Y-159000000D01*
X74100000Y-153000000D02*
X70900000Y-153000000D01*
X74100000Y-156900000D02*
X74100000Y-153000000D01*
X135800000Y-104000000D02*
X135800000Y-104600000D01*
X136100000Y-104300000D02*
X135500000Y-104300000D01*
X137600000Y-102700000D02*
X141500000Y-102700000D01*
X137600000Y-105900000D02*
X141500000Y-105900000D01*
X141500000Y-105900000D02*
X141500000Y-102700000D01*
X142500000Y-104300000D02*
X141900000Y-104300000D01*
X105400000Y-170100000D02*
X105400000Y-174000000D01*
X105400000Y-174000000D02*
X108600000Y-174000000D01*
X107000000Y-168600000D02*
X107000000Y-168000000D01*
X107000000Y-175000000D02*
X107000000Y-174400000D01*
X107300000Y-168300000D02*
X106700000Y-168300000D01*
X108600000Y-170100000D02*
X108600000Y-174000000D01*
X109892421Y-176470645D02*
X110920645Y-175442421D01*
X111179355Y-177757579D02*
X112207579Y-176729355D01*
X39825000Y-139175000D02*
X39825000Y-139775000D01*
X40125000Y-139475000D02*
X39525000Y-139475000D01*
X41625000Y-137875000D02*
X45525000Y-137875000D01*
X41625000Y-141075000D02*
X45525000Y-141075000D01*
X45525000Y-141075000D02*
X45525000Y-137875000D01*
X46525000Y-139475000D02*
X45925000Y-139475000D01*
X39825000Y-135975000D02*
X39825000Y-136575000D01*
X40125000Y-136275000D02*
X39525000Y-136275000D01*
X41625000Y-134675000D02*
X45525000Y-134675000D01*
X41625000Y-137875000D02*
X45525000Y-137875000D01*
X45525000Y-137875000D02*
X45525000Y-134675000D01*
X46525000Y-136275000D02*
X45925000Y-136275000D01*
X39800001Y-104000000D02*
X39800001Y-104600000D01*
X40100001Y-104300000D02*
X39500001Y-104300000D01*
X41600001Y-102700000D02*
X45500001Y-102700000D01*
X41600001Y-105900000D02*
X45500001Y-105900000D01*
X45500001Y-105900000D02*
X45500001Y-102700000D01*
X46500001Y-104300000D02*
X45900001Y-104300000D01*
X108600000Y-42100000D02*
X108600000Y-46000000D01*
X108600000Y-46000000D02*
X111800000Y-46000000D01*
X110200000Y-40600000D02*
X110200000Y-40000000D01*
X110200000Y-47000000D02*
X110200000Y-46400000D01*
X110500000Y-40300000D02*
X109900000Y-40300000D01*
X111800000Y-42100000D02*
X111800000Y-46000000D01*
X103800000Y-75200000D02*
X103800000Y-75800000D01*
X104100000Y-75500000D02*
X103500000Y-75500000D01*
X105600000Y-73900000D02*
X109500000Y-73900000D01*
X105600000Y-77100000D02*
X109500000Y-77100000D01*
X109500000Y-77100000D02*
X109500000Y-73900000D01*
X110500000Y-75500000D02*
X109900000Y-75500000D01*
X135800000Y-75200000D02*
X135800000Y-75800000D01*
X136100000Y-75500000D02*
X135500000Y-75500000D01*
X137600000Y-73900000D02*
X141500000Y-73900000D01*
X137600000Y-77100000D02*
X141500000Y-77100000D01*
X141500000Y-77100000D02*
X141500000Y-73900000D01*
X142500000Y-75500000D02*
X141900000Y-75500000D01*
X39800000Y-107200000D02*
X39800000Y-107800000D01*
X40100000Y-107500000D02*
X39500000Y-107500000D01*
X41600000Y-105900000D02*
X45500000Y-105900000D01*
X41600000Y-109100000D02*
X45500000Y-109100000D01*
X45500000Y-109100000D02*
X45500000Y-105900000D01*
X46500000Y-107500000D02*
X45900000Y-107500000D01*
X71800000Y-100800001D02*
X71800000Y-101400001D01*
X72100000Y-101100001D02*
X71500000Y-101100001D01*
X73600000Y-99500001D02*
X77500000Y-99500001D01*
X73600000Y-102700001D02*
X77500000Y-102700001D01*
X77500000Y-102700001D02*
X77500000Y-99500001D01*
X78500000Y-101100001D02*
X77900000Y-101100001D01*
X34400000Y-122100000D02*
X34400000Y-126000000D01*
X34400000Y-126000000D02*
X37600000Y-126000000D01*
X36000000Y-120600000D02*
X36000000Y-120000000D01*
X36000000Y-127000000D02*
X36000000Y-126400000D01*
X36300000Y-120300000D02*
X35700000Y-120300000D01*
X37600000Y-122100000D02*
X37600000Y-126000000D01*
X71825000Y-68800000D02*
X71825000Y-69400000D01*
X72125000Y-69100000D02*
X71525000Y-69100000D01*
X73625000Y-67500000D02*
X77525000Y-67500000D01*
X73625000Y-70700000D02*
X77525000Y-70700000D01*
X77525000Y-70700000D02*
X77525000Y-67500000D01*
X78525000Y-69100000D02*
X77925000Y-69100000D01*
X76600000Y-172900000D02*
X76600000Y-169000000D01*
X77900000Y-174700000D02*
X78500000Y-174700000D01*
X78200000Y-168000000D02*
X78200000Y-168600000D01*
X78200000Y-174400000D02*
X78200000Y-175000000D01*
X79800000Y-169000000D02*
X76600000Y-169000000D01*
X79800000Y-172900000D02*
X79800000Y-169000000D01*
X90762742Y-89977500D02*
X91237258Y-89977500D01*
X90762742Y-91022500D02*
X91237258Y-91022500D01*
X62692421Y-177770645D02*
X63720645Y-176742421D01*
X63979355Y-179057579D02*
X65007579Y-178029355D01*
X71800000Y-104000000D02*
X71800000Y-104600000D01*
X72100000Y-104300000D02*
X71500000Y-104300000D01*
X73600000Y-102700000D02*
X77500000Y-102700000D01*
X73600000Y-105900000D02*
X77500000Y-105900000D01*
X77500000Y-105900000D02*
X77500000Y-102700000D01*
X78500000Y-104300000D02*
X77900000Y-104300000D01*
X60242421Y-175629355D02*
X61270645Y-176657579D01*
X61529355Y-174342421D02*
X62557579Y-175370645D01*
X65142421Y-175629355D02*
X66170645Y-176657579D01*
X66429355Y-174342421D02*
X67457579Y-175370645D01*
X71800000Y-132800001D02*
X71800000Y-133400001D01*
X72100000Y-133100001D02*
X71500000Y-133100001D01*
X73600000Y-131500001D02*
X77500000Y-131500001D01*
X73600000Y-134700001D02*
X77500000Y-134700001D01*
X77500000Y-134700001D02*
X77500000Y-131500001D01*
X78500000Y-133100001D02*
X77900000Y-133100001D01*
X135800000Y-107200000D02*
X135800000Y-107800000D01*
X136100000Y-107500000D02*
X135500000Y-107500000D01*
X137600000Y-105900000D02*
X141500000Y-105900000D01*
X137600000Y-109100000D02*
X141500000Y-109100000D01*
X141500000Y-109100000D02*
X141500000Y-105900000D01*
X142500000Y-107500000D02*
X141900000Y-107500000D01*
X34400000Y-154100000D02*
X34400000Y-158000000D01*
X34400000Y-158000000D02*
X37600000Y-158000000D01*
X36000000Y-152600000D02*
X36000000Y-152000000D01*
X36000000Y-159000000D02*
X36000000Y-158400000D01*
X36300000Y-152300000D02*
X35700000Y-152300000D01*
X37600000Y-154100000D02*
X37600000Y-158000000D01*
X135525126Y-46550610D02*
X135949390Y-46974874D01*
X135878680Y-44358579D02*
X138636396Y-41600862D01*
X135949390Y-46550610D02*
X135525126Y-46974874D01*
X138141421Y-46621320D02*
X140899138Y-43863604D01*
X140474874Y-42025126D02*
X140050610Y-42449390D01*
X140899138Y-43863604D02*
X138636396Y-41600862D01*
X105400000Y-42100000D02*
X105400000Y-46000000D01*
X105400000Y-46000000D02*
X108600000Y-46000000D01*
X107000000Y-40600000D02*
X107000000Y-40000000D01*
X107000000Y-47000000D02*
X107000000Y-46400000D01*
X107300000Y-40300000D02*
X106700000Y-40300000D01*
X108600000Y-42100000D02*
X108600000Y-46000000D01*
X119442422Y-175370646D02*
X120470646Y-174342422D01*
X120729356Y-176657580D02*
X121757580Y-175629356D01*
X137825126Y-48850610D02*
X138249390Y-49274874D01*
X138178680Y-46658579D02*
X140936396Y-43900862D01*
X138249390Y-48850610D02*
X137825126Y-49274874D01*
X140441421Y-48921320D02*
X143199138Y-46163604D01*
X142774874Y-44325126D02*
X142350610Y-44749390D01*
X143199138Y-46163604D02*
X140936396Y-43900862D01*
X34400000Y-58100000D02*
X34400000Y-62000000D01*
X34400000Y-62000000D02*
X37600000Y-62000000D01*
X36000000Y-56600000D02*
X36000000Y-56000000D01*
X36000000Y-63000000D02*
X36000000Y-62400000D01*
X36300000Y-56300000D02*
X35700000Y-56300000D01*
X37600000Y-58100000D02*
X37600000Y-62000000D01*
X70820645Y-177757579D02*
X69792421Y-176729355D01*
X72107579Y-176470645D02*
X71079355Y-175442421D01*
X73400000Y-44900000D02*
X73400000Y-41000000D01*
X74700000Y-46700000D02*
X75300000Y-46700000D01*
X75000000Y-40000000D02*
X75000000Y-40600000D01*
X75000000Y-46400000D02*
X75000000Y-47000000D01*
X76600000Y-41000000D02*
X73400000Y-41000000D01*
X76600000Y-44900000D02*
X76600000Y-41000000D01*
X107900000Y-58075000D02*
X107900000Y-61975000D01*
X107900000Y-61975000D02*
X111100000Y-61975000D01*
X109500000Y-56575000D02*
X109500000Y-55975000D01*
X109500000Y-62975000D02*
X109500000Y-62375000D01*
X109800000Y-56275000D02*
X109200000Y-56275000D01*
X111100000Y-58075000D02*
X111100000Y-61975000D01*
X41100862Y-171136396D02*
X43363604Y-173399138D01*
X41525126Y-172974874D02*
X41949390Y-172550610D01*
X43858579Y-168378680D02*
X41100862Y-171136396D01*
X46050610Y-168449390D02*
X46474874Y-168025126D01*
X46121320Y-170641421D02*
X43363604Y-173399138D01*
X46474874Y-168449390D02*
X46050610Y-168025126D01*
X135525126Y-168025126D02*
X135949390Y-168449390D01*
X137363604Y-167600862D02*
X135100862Y-169863604D01*
X137858579Y-172621320D02*
X135100862Y-169863604D01*
X140050610Y-172550610D02*
X140474874Y-172974874D01*
X140050610Y-172974874D02*
X140474874Y-172550610D01*
X140121320Y-170358579D02*
X137363604Y-167600862D01*
X103800000Y-81599999D02*
X103800000Y-82199999D01*
X104100000Y-81899999D02*
X103500000Y-81899999D01*
X105600000Y-80299999D02*
X109500000Y-80299999D01*
X105600000Y-83499999D02*
X109500000Y-83499999D01*
X109500000Y-83499999D02*
X109500000Y-80299999D01*
X110500000Y-81899999D02*
X109900000Y-81899999D01*
X135800000Y-110400000D02*
X135800000Y-111000000D01*
X136100000Y-110700000D02*
X135500000Y-110700000D01*
X137600000Y-109100000D02*
X141500000Y-109100000D01*
X137600000Y-112300000D02*
X141500000Y-112300000D01*
X141500000Y-112300000D02*
X141500000Y-109100000D01*
X142500000Y-110700000D02*
X141900000Y-110700000D01*
%LPC*%
D14*
X153612500Y-32000000D02*
G75*
G02*
X150387500Y-32000000I-1612500J0D01*
G01*
X150387500Y-32000000D02*
G75*
G02*
X153612500Y-32000000I1612500J0D01*
G01*
X31612500Y-183000000D02*
G75*
G02*
X28387500Y-183000000I-1612500J0D01*
G01*
X28387500Y-183000000D02*
G75*
G02*
X31612500Y-183000000I1612500J0D01*
G01*
X31612500Y-32000000D02*
G75*
G02*
X28387500Y-32000000I-1612500J0D01*
G01*
X28387500Y-32000000D02*
G75*
G02*
X31612500Y-32000000I1612500J0D01*
G01*
X153612500Y-183000000D02*
G75*
G02*
X150387500Y-183000000I-1612500J0D01*
G01*
X150387500Y-183000000D02*
G75*
G02*
X153612500Y-183000000I1612500J0D01*
G01*
D15*
X136442462Y-173542462D03*
D16*
X134621662Y-171721662D03*
D17*
X146000000Y-60550000D03*
D18*
X146000000Y-57975000D03*
D19*
X68600000Y-42450000D03*
D20*
X68600000Y-45025000D03*
D21*
X103800000Y-170450000D03*
D20*
X103800000Y-173025000D03*
D22*
X114665856Y-176534144D03*
X116734144Y-174465856D03*
D19*
X131150000Y-170500000D03*
D20*
X131150000Y-173075000D03*
D23*
X44050000Y-81900000D03*
D24*
X41475000Y-81900000D03*
D23*
X76050000Y-142700000D03*
D24*
X73475000Y-142700000D03*
D23*
X108050000Y-145899999D03*
D24*
X105475000Y-145899999D03*
D23*
X108050000Y-139500000D03*
D24*
X105475000Y-139500000D03*
D25*
X110200000Y-172550000D03*
D18*
X110200000Y-169975000D03*
D17*
X72500000Y-60550000D03*
D18*
X72500000Y-57975000D03*
D21*
X103800000Y-42450000D03*
D20*
X103800000Y-45025000D03*
D17*
X71800000Y-172550000D03*
D18*
X71800000Y-169975000D03*
D23*
X44050000Y-145900000D03*
D24*
X41475000Y-145900000D03*
D19*
X78200000Y-42450000D03*
D20*
X78200000Y-45025000D03*
D17*
X71800000Y-44550000D03*
D18*
X71800000Y-41975000D03*
D26*
X105950000Y-110700000D03*
D27*
X108525000Y-110700000D03*
D21*
X36000000Y-90450000D03*
D20*
X36000000Y-93025000D03*
D28*
X117115855Y-176865856D03*
X119184143Y-178934144D03*
D26*
X73950000Y-136300000D03*
D27*
X76525000Y-136300000D03*
D29*
X40715076Y-45815076D03*
D30*
X42535876Y-47635876D03*
D31*
X139557538Y-167457538D03*
D30*
X141378338Y-169278338D03*
D23*
X140050000Y-139500000D03*
D24*
X137475000Y-139500000D03*
D32*
X152000000Y-32000000D03*
X30000000Y-183000000D03*
D33*
X42442462Y-167457538D03*
D34*
X40621662Y-169278338D03*
D23*
X44050000Y-72300000D03*
D24*
X41475000Y-72300000D03*
D23*
X76050000Y-75500000D03*
D24*
X73475000Y-75500000D03*
D26*
X41925000Y-142675000D03*
D27*
X44500000Y-142675000D03*
D35*
X44500000Y-45000000D03*
D16*
X42679200Y-43179200D03*
D26*
X41950000Y-110700001D03*
D27*
X44525000Y-110700001D03*
D17*
X72500000Y-124550000D03*
D18*
X72500000Y-121975000D03*
D23*
X140100000Y-78700000D03*
D24*
X137525000Y-78700000D03*
D21*
X109500000Y-154450000D03*
D20*
X109500000Y-157025000D03*
D36*
X134142462Y-39157538D03*
D34*
X132321662Y-40978338D03*
D19*
X75000000Y-170450000D03*
D20*
X75000000Y-173025000D03*
D32*
X30000000Y-32000000D03*
D23*
X76050000Y-139500000D03*
D24*
X73475000Y-139500000D03*
D37*
X38657538Y-166642462D03*
D38*
X40478338Y-164821662D03*
D23*
X140050000Y-69100000D03*
D24*
X137475000Y-69100000D03*
D23*
X44050000Y-75500000D03*
D24*
X41475000Y-75500000D03*
D26*
X41950000Y-78700000D03*
D27*
X44525000Y-78700000D03*
D17*
X146000000Y-156550000D03*
D18*
X146000000Y-153975000D03*
D39*
X134957538Y-42942462D03*
D38*
X136778338Y-41121662D03*
D26*
X105950000Y-142700000D03*
D27*
X108525000Y-142700000D03*
D35*
X39900000Y-49600000D03*
D16*
X38079200Y-47779200D03*
D26*
X137950000Y-136300000D03*
D27*
X140525000Y-136300000D03*
D26*
X105950000Y-78700000D03*
D27*
X108525000Y-78700000D03*
D17*
X146000000Y-92550000D03*
D18*
X146000000Y-89975000D03*
D23*
X108050000Y-136300000D03*
D24*
X105475000Y-136300000D03*
D23*
X108050000Y-113899999D03*
D24*
X105475000Y-113899999D03*
D37*
X45557538Y-173542462D03*
D38*
X47378338Y-171721662D03*
D35*
X46800000Y-42700000D03*
D16*
X44979200Y-40879200D03*
D26*
X73950000Y-72300000D03*
D27*
X76525000Y-72300000D03*
D23*
X108050000Y-104300000D03*
D24*
X105475000Y-104300000D03*
D23*
X76050000Y-110700000D03*
D24*
X73475000Y-110700000D03*
D23*
X76050000Y-107500000D03*
D24*
X73475000Y-107500000D03*
D21*
X109500000Y-90450000D03*
D20*
X109500000Y-93025000D03*
D26*
X137950000Y-72300000D03*
D27*
X140525000Y-72300000D03*
D23*
X44050000Y-113900000D03*
D24*
X41475000Y-113900000D03*
D23*
X108050000Y-72300000D03*
D24*
X105475000Y-72300000D03*
D23*
X108050000Y-107500000D03*
D24*
X105475000Y-107500000D03*
D23*
X76050000Y-78700000D03*
D24*
X73475000Y-78700000D03*
D23*
X140050000Y-142700000D03*
D24*
X137475000Y-142700000D03*
D25*
X100600000Y-44550000D03*
D18*
X100600000Y-41975000D03*
D19*
X68600000Y-170450000D03*
D20*
X68600000Y-173025000D03*
D40*
X83000000Y-22500000D03*
X99000000Y-22500000D03*
D41*
X82000000Y-20100000D03*
X82000000Y-24900000D03*
X84000000Y-20100000D03*
X84000000Y-24900000D03*
X86000000Y-20100000D03*
X86000000Y-24900000D03*
X88000000Y-20100000D03*
X88000000Y-24900000D03*
X90000000Y-20100000D03*
X90000000Y-24900000D03*
X92000000Y-20100000D03*
X92000000Y-24900000D03*
X94000000Y-20100000D03*
X94000000Y-24900000D03*
X96000000Y-20100000D03*
X96000000Y-24900000D03*
X98000000Y-20100000D03*
X98000000Y-24900000D03*
X100000000Y-20100000D03*
X100000000Y-24900000D03*
D23*
X139975000Y-133075000D03*
D24*
X137400000Y-133075000D03*
D21*
X109500000Y-122450000D03*
D20*
X109500000Y-125025000D03*
D25*
X100600000Y-172550000D03*
D18*
X100600000Y-169975000D03*
D23*
X139975000Y-101075000D03*
D24*
X137400000Y-101075000D03*
D17*
X72500000Y-92575000D03*
D18*
X72500000Y-90000000D03*
D17*
X146000000Y-124550000D03*
D18*
X146000000Y-121975000D03*
D17*
X72500000Y-156550000D03*
D18*
X72500000Y-153975000D03*
D26*
X137950000Y-104300000D03*
D27*
X140525000Y-104300000D03*
D25*
X107000000Y-172550000D03*
D18*
X107000000Y-169975000D03*
D22*
X110015856Y-177634144D03*
X112084144Y-175565856D03*
D23*
X44075000Y-139475000D03*
D24*
X41500000Y-139475000D03*
D23*
X44075000Y-136275000D03*
D24*
X41500000Y-136275000D03*
D23*
X44050001Y-104300000D03*
D24*
X41475001Y-104300000D03*
D25*
X110200000Y-44550000D03*
D18*
X110200000Y-41975000D03*
D23*
X108050000Y-75500000D03*
D24*
X105475000Y-75500000D03*
D23*
X140050000Y-75500000D03*
D24*
X137475000Y-75500000D03*
D23*
X44050000Y-107500000D03*
D24*
X41475000Y-107500000D03*
D23*
X76050000Y-101100001D03*
D24*
X73475000Y-101100001D03*
D21*
X36000000Y-122450000D03*
D20*
X36000000Y-125025000D03*
D23*
X76075000Y-69100000D03*
D24*
X73500000Y-69100000D03*
D19*
X78200000Y-170450000D03*
D20*
X78200000Y-173025000D03*
D42*
X90175000Y-90500000D03*
X91825000Y-90500000D03*
D22*
X62815856Y-178934144D03*
X64884144Y-176865856D03*
D26*
X73950000Y-104300000D03*
D27*
X76525000Y-104300000D03*
D28*
X60365856Y-174465856D03*
X62434144Y-176534144D03*
X65265856Y-174465856D03*
X67334144Y-176534144D03*
D23*
X76050000Y-133100001D03*
D24*
X73475000Y-133100001D03*
D23*
X140050000Y-107500000D03*
D24*
X137475000Y-107500000D03*
D21*
X36000000Y-154450000D03*
D20*
X36000000Y-157025000D03*
D36*
X138742462Y-43757538D03*
D34*
X136921662Y-45578338D03*
D25*
X107000000Y-44550000D03*
D18*
X107000000Y-41975000D03*
D22*
X119565857Y-176534145D03*
X121634145Y-174465857D03*
D32*
X152000000Y-183000000D03*
D36*
X141042462Y-46057538D03*
D34*
X139221662Y-47878338D03*
D21*
X36000000Y-58450000D03*
D20*
X36000000Y-61025000D03*
D43*
X71984144Y-177634144D03*
X69915856Y-175565856D03*
D19*
X75000000Y-42450000D03*
D20*
X75000000Y-45025000D03*
D21*
X109500000Y-58425000D03*
D20*
X109500000Y-61000000D03*
D37*
X43257538Y-171242462D03*
D38*
X45078338Y-169421662D03*
D31*
X137257538Y-169757538D03*
D30*
X139078338Y-171578338D03*
D23*
X108050000Y-81899999D03*
D24*
X105475000Y-81899999D03*
D23*
X140050000Y-110700000D03*
D24*
X137475000Y-110700000D03*
%LPD*%
M02*
