G04 #@! TF.GenerationSoftware,KiCad,Pcbnew,8.0.4*
G04 #@! TF.CreationDate,2024-08-02T19:36:33-07:00*
G04 #@! TF.ProjectId,backlight,6261636b-6c69-4676-9874-2e6b69636164,rev?*
G04 #@! TF.SameCoordinates,Original*
G04 #@! TF.FileFunction,Copper,L2,Bot*
G04 #@! TF.FilePolarity,Positive*
%FSLAX46Y46*%
G04 Gerber Fmt 4.6, Leading zero omitted, Abs format (unit mm)*
G04 Created by KiCad (PCBNEW 8.0.4) date 2024-08-02 19:36:33*
%MOMM*%
%LPD*%
G01*
G04 APERTURE LIST*
G04 #@! TA.AperFunction,WasherPad*
%ADD10C,4.000000*%
G04 #@! TD*
G04 #@! TA.AperFunction,ComponentPad*
%ADD11C,1.800000*%
G04 #@! TD*
G04 #@! TA.AperFunction,ComponentPad*
%ADD12O,1.800000X1.000000*%
G04 #@! TD*
G04 #@! TA.AperFunction,ComponentPad*
%ADD13O,2.100000X1.000000*%
G04 #@! TD*
G04 #@! TA.AperFunction,ComponentPad*
%ADD14O,4.200000X2.000000*%
G04 #@! TD*
G04 #@! TA.AperFunction,ComponentPad*
%ADD15O,2.000000X4.200000*%
G04 #@! TD*
G04 #@! TA.AperFunction,ComponentPad*
%ADD16R,2.000000X4.600000*%
G04 #@! TD*
G04 #@! TA.AperFunction,ViaPad*
%ADD17C,0.600000*%
G04 #@! TD*
G04 #@! TA.AperFunction,ViaPad*
%ADD18C,1.200000*%
G04 #@! TD*
G04 #@! TA.AperFunction,ViaPad*
%ADD19C,0.800000*%
G04 #@! TD*
G04 #@! TA.AperFunction,Conductor*
%ADD20C,0.400000*%
G04 #@! TD*
G04 #@! TA.AperFunction,Conductor*
%ADD21C,0.200000*%
G04 #@! TD*
G04 APERTURE END LIST*
D10*
X148667843Y-60870000D03*
X157467843Y-60870000D03*
D11*
X155567843Y-67870000D03*
X153067843Y-67870000D03*
X150567843Y-67870000D03*
D10*
X134317843Y-60870000D03*
X143117843Y-60870000D03*
D11*
X141217843Y-67870000D03*
X138717843Y-67870000D03*
X136217843Y-67870000D03*
D10*
X119967843Y-60870000D03*
X128767843Y-60870000D03*
D11*
X126867843Y-67870000D03*
X124367843Y-67870000D03*
X121867843Y-67870000D03*
D12*
X179575000Y-71180000D03*
D13*
X175395000Y-71180000D03*
D12*
X179575000Y-79820000D03*
D13*
X175395000Y-79820000D03*
D14*
X171550000Y-60350000D03*
D15*
X174950000Y-65150000D03*
D16*
X168650000Y-65150000D03*
D17*
X100600000Y-71950000D03*
X87150000Y-63000000D03*
X100600000Y-69550000D03*
X172600000Y-79100000D03*
X164400000Y-75200000D03*
X108350000Y-64000000D03*
X99700000Y-66050000D03*
X110300000Y-66100000D03*
X89100000Y-66100000D03*
X90000000Y-69600000D03*
X87150000Y-65000000D03*
X97750000Y-63950000D03*
X108350000Y-65000000D03*
X108350000Y-63000000D03*
X90000000Y-72000000D03*
X176900000Y-79200000D03*
X97750000Y-62950000D03*
X178200000Y-71800000D03*
X172600000Y-82300000D03*
X111200000Y-69600000D03*
X172600000Y-80700000D03*
X178200000Y-79200000D03*
X97750000Y-64950000D03*
X111200000Y-72000000D03*
X87150000Y-64000000D03*
X176900000Y-71800000D03*
D18*
X101000000Y-96000000D03*
X93000000Y-96000000D03*
X97000000Y-92000000D03*
X99000000Y-90000000D03*
X101000000Y-92000000D03*
X101000000Y-94000000D03*
X97000000Y-96000000D03*
X99000000Y-96000000D03*
X93000000Y-92000000D03*
X95000000Y-94000000D03*
X99000000Y-94000000D03*
X157000000Y-130500000D03*
X157000000Y-136500000D03*
X157000000Y-132500000D03*
D19*
X92800000Y-73200000D03*
D18*
X155000000Y-136500000D03*
X155000000Y-128500000D03*
D19*
X116800000Y-82000000D03*
D18*
X157000000Y-134500000D03*
X153000000Y-130500000D03*
X155000000Y-132500000D03*
X153000000Y-134500000D03*
X157000000Y-128500000D03*
X111000000Y-109000000D03*
X109000000Y-111000000D03*
X107000000Y-113000000D03*
X103000000Y-113000000D03*
X105000000Y-111000000D03*
X103000000Y-109000000D03*
X105000000Y-109000000D03*
X103000000Y-111000000D03*
X115200000Y-109000000D03*
X103000000Y-107500000D03*
X107000000Y-109000000D03*
X161000000Y-141000000D03*
X161000000Y-143000000D03*
X161000000Y-139000000D03*
D19*
X103400000Y-73200000D03*
D18*
X153000000Y-139000000D03*
D19*
X118400000Y-83000000D03*
D18*
X157000000Y-139000000D03*
X159000000Y-141000000D03*
X157000000Y-143000000D03*
X159000000Y-139000000D03*
X161000000Y-137000000D03*
X155000000Y-141000000D03*
X167000000Y-136500000D03*
X169000000Y-136500000D03*
D19*
X120000000Y-84000000D03*
D18*
X171000000Y-130500000D03*
X169000000Y-128500000D03*
X169000000Y-132500000D03*
D19*
X114000000Y-73200000D03*
D18*
X167000000Y-134500000D03*
X167000000Y-132500000D03*
X173400000Y-128000000D03*
X167000000Y-130500000D03*
X167000000Y-128500000D03*
X171000000Y-134500000D03*
X105000000Y-94000000D03*
X103000000Y-96000000D03*
X105000000Y-90000000D03*
X103000000Y-92000000D03*
X105000000Y-96000000D03*
X109000000Y-94000000D03*
X103000000Y-94000000D03*
X111000000Y-92000000D03*
X107000000Y-92000000D03*
X111000000Y-96000000D03*
X115200000Y-88800000D03*
X107000000Y-96000000D03*
X93000000Y-104500000D03*
X88800000Y-118800000D03*
X101000000Y-122000000D03*
X99000000Y-124000000D03*
X97000000Y-106500000D03*
X99000000Y-120000000D03*
X97000000Y-126000000D03*
X93000000Y-100500000D03*
X99000000Y-126000000D03*
X97000000Y-122000000D03*
X97000000Y-100500000D03*
X97000000Y-104500000D03*
X101000000Y-124000000D03*
X95000000Y-124000000D03*
X95000000Y-106500000D03*
X93000000Y-126000000D03*
X93000000Y-122000000D03*
X97000000Y-102500000D03*
X95000000Y-98500000D03*
X101000000Y-126000000D03*
X95000000Y-102500000D03*
X97000000Y-98500000D03*
X133000001Y-140000001D03*
X137000001Y-142000001D03*
X97000000Y-134500000D03*
X135000001Y-140000001D03*
X95000000Y-136500000D03*
X133000001Y-142000001D03*
X97000000Y-136500000D03*
X93000000Y-134500000D03*
X88800000Y-136800000D03*
X95000000Y-132500000D03*
X95000000Y-128500000D03*
X133000001Y-138000001D03*
X97000000Y-128500000D03*
X141000001Y-142000001D03*
X93000000Y-130500000D03*
X97000000Y-132500000D03*
X97000000Y-130500000D03*
X139000001Y-140000001D03*
X135000001Y-144000001D03*
X141000001Y-138000000D03*
X137000001Y-138000001D03*
X135000002Y-138000000D03*
X135000001Y-107999999D03*
X139000001Y-131500001D03*
X133000000Y-112000000D03*
X137000000Y-108000000D03*
X141000000Y-112000000D03*
X137000002Y-135500001D03*
X135000000Y-110000000D03*
X137000001Y-133500001D03*
X139000000Y-110000000D03*
X141000001Y-133500001D03*
X133000000Y-108000000D03*
X133000000Y-110000000D03*
X137000002Y-131500001D03*
X137000001Y-129500001D03*
X137000000Y-112000000D03*
X139000001Y-127500001D03*
X139000001Y-135500001D03*
X137000001Y-127500002D03*
X135000000Y-114000000D03*
X141000000Y-107999999D03*
X141000001Y-129500002D03*
X161000000Y-94000000D03*
X137000001Y-101500000D03*
X161000000Y-92000000D03*
X137000000Y-103500000D03*
X141000000Y-103500000D03*
X139000000Y-105500000D03*
X157000000Y-96000000D03*
X139000000Y-101500000D03*
X137000000Y-99500000D03*
X159000000Y-96000000D03*
X137000000Y-97500001D03*
X153000000Y-96000000D03*
X159000000Y-90000000D03*
X153000000Y-92000000D03*
X141000000Y-99500001D03*
X159000000Y-94000000D03*
X145200000Y-97200000D03*
X139000000Y-97500000D03*
X157000000Y-92000000D03*
X161000000Y-96000000D03*
X137000001Y-105500000D03*
X155000000Y-94000000D03*
X157000000Y-106500000D03*
X153000000Y-104500000D03*
X155000000Y-102500000D03*
X161000000Y-124000000D03*
X153000000Y-126000000D03*
X153000000Y-100500000D03*
X157000000Y-102500000D03*
X155000000Y-106500000D03*
X159000000Y-120000000D03*
X157000000Y-104500000D03*
X153000000Y-122000000D03*
X155000000Y-124000000D03*
X155000000Y-98500000D03*
X157000000Y-126000000D03*
X161000000Y-126000000D03*
X159000000Y-124000000D03*
X157000000Y-122000000D03*
X159000000Y-126000000D03*
X157000000Y-98500000D03*
X148800000Y-118800000D03*
X157000000Y-100500000D03*
X161000000Y-122000000D03*
X101000000Y-109000000D03*
X105000000Y-141000000D03*
X101000000Y-111000000D03*
X107000000Y-139000000D03*
X99000000Y-111000000D03*
X101000000Y-107500000D03*
X103000000Y-141000000D03*
X107000000Y-143000000D03*
X99000000Y-109000000D03*
X111000000Y-139000000D03*
X105000000Y-139000000D03*
X115200000Y-144600000D03*
X93000000Y-109000000D03*
X103000000Y-139000000D03*
X97000000Y-113000000D03*
X95000000Y-111000000D03*
X103000000Y-137500000D03*
X101000000Y-113000000D03*
X109000000Y-141000000D03*
X103000000Y-143000000D03*
X97000000Y-109000000D03*
X129000000Y-125000000D03*
X101000000Y-137500000D03*
X131000000Y-127000000D03*
X118800000Y-125000000D03*
X101000000Y-143000000D03*
X97000000Y-143000000D03*
X99000000Y-141000000D03*
X99000000Y-139000000D03*
X97000000Y-139000000D03*
X131000002Y-125000000D03*
X131000000Y-123000000D03*
X101000000Y-139000000D03*
X101000000Y-141000000D03*
X131000001Y-121000001D03*
X93000000Y-139000000D03*
X129000001Y-123000000D03*
X127000001Y-121000001D03*
X95000000Y-141000000D03*
X123000001Y-125000000D03*
X125000001Y-123000000D03*
X127000001Y-125000000D03*
X131000001Y-94999999D03*
X130999999Y-92999999D03*
X125000000Y-92999999D03*
X118800000Y-95000000D03*
X133000000Y-125000000D03*
X131000000Y-91000000D03*
X127000000Y-94999999D03*
X133000002Y-123000000D03*
X135000001Y-123000000D03*
X133000001Y-121000000D03*
X129000000Y-92999999D03*
X135000002Y-125000000D03*
X123000000Y-94999999D03*
X137000001Y-121000000D03*
X141000001Y-125000000D03*
X127000000Y-91000000D03*
X133000002Y-127000000D03*
X137000001Y-125000000D03*
X128999999Y-94999999D03*
X139000001Y-123000000D03*
X130999999Y-96999999D03*
X135000001Y-94999999D03*
X163000000Y-111000000D03*
X163000000Y-107500000D03*
X163000000Y-115400000D03*
X133000001Y-92999999D03*
X133000001Y-96999999D03*
X163000000Y-113000000D03*
X133000000Y-90999999D03*
X167000000Y-109000000D03*
X165000000Y-111000000D03*
X163000000Y-109000000D03*
X169000000Y-111000000D03*
X137000000Y-94999999D03*
X165000000Y-109000000D03*
X132999999Y-94999999D03*
X135000000Y-92999999D03*
X139000000Y-92999999D03*
X167000000Y-113000000D03*
X171000000Y-109000000D03*
X141000000Y-94999999D03*
X137000000Y-90999999D03*
X157000000Y-113000000D03*
X171000000Y-139000000D03*
X155000000Y-111000000D03*
X167000000Y-139000000D03*
X159000000Y-109000000D03*
X161000000Y-109000000D03*
X163000000Y-143000000D03*
X161000000Y-107500000D03*
X165000000Y-141000000D03*
X157000000Y-109000000D03*
X161000000Y-113000000D03*
X169000000Y-141000000D03*
X163000000Y-139000000D03*
X165000000Y-139000000D03*
X163000000Y-137000000D03*
X161000000Y-111000000D03*
X153000000Y-109000000D03*
X163000000Y-141000000D03*
X159000000Y-111000000D03*
X167000000Y-143000000D03*
X107000000Y-102500000D03*
X111000000Y-100500000D03*
X107000000Y-100500000D03*
X109000000Y-98500000D03*
X107000000Y-106500000D03*
X103000000Y-122000000D03*
X111000000Y-126000000D03*
X105000000Y-124000000D03*
X109000000Y-124000000D03*
X103000000Y-126000000D03*
X109000000Y-102500000D03*
X107000000Y-104500000D03*
X109000000Y-106500000D03*
X103000000Y-124000000D03*
X107000000Y-122000000D03*
X111000000Y-122000000D03*
X105000000Y-126000000D03*
X107000000Y-126000000D03*
X105000000Y-120000000D03*
X107000000Y-98500000D03*
X111000000Y-104500000D03*
X107000000Y-130500000D03*
X127000001Y-138000001D03*
X129000000Y-138000000D03*
X107000000Y-128500000D03*
X131000001Y-138000001D03*
X129000001Y-144000001D03*
X123000001Y-142000001D03*
X127000001Y-142000001D03*
X115200000Y-136800000D03*
X123000001Y-138000001D03*
X131000001Y-142000001D03*
X109000000Y-132500000D03*
X111000000Y-134500000D03*
X129000001Y-140000001D03*
X111000000Y-130500000D03*
X125000001Y-140000001D03*
X109000000Y-136500000D03*
X107000000Y-136500000D03*
X107000000Y-132500000D03*
X131000001Y-140000001D03*
X107000000Y-134500000D03*
X109000000Y-128500000D03*
X127000001Y-129500002D03*
X125000001Y-135500001D03*
X127000000Y-108000000D03*
X129000000Y-110000000D03*
X127000001Y-133500001D03*
X129000000Y-114000000D03*
X125000001Y-127500001D03*
X123000001Y-133500001D03*
X131000000Y-108000000D03*
X123000000Y-112000000D03*
X131000000Y-110000000D03*
X125000001Y-131500001D03*
X128999999Y-107999999D03*
X123000001Y-129500001D03*
X125000000Y-110000000D03*
X131000000Y-112000000D03*
X127000000Y-135500001D03*
X123000000Y-108000000D03*
X127000000Y-131500001D03*
X127000000Y-112000000D03*
X127000001Y-127500002D03*
X118800000Y-115200000D03*
X126999999Y-101500000D03*
X127000000Y-99500001D03*
X171000000Y-92000000D03*
X163000000Y-94000000D03*
X163000000Y-96000000D03*
X163000000Y-92000000D03*
X127000000Y-97500001D03*
X127000000Y-103500000D03*
X165000000Y-94000000D03*
X123000000Y-103500000D03*
X125000000Y-101500000D03*
X171000000Y-96000000D03*
X125000000Y-105500000D03*
X169000000Y-94000000D03*
X165000000Y-96000000D03*
X125000000Y-97500000D03*
X123000000Y-99500000D03*
X167000000Y-92000000D03*
X167000000Y-96000000D03*
X165000000Y-90000000D03*
X126999999Y-105500000D03*
X165000000Y-126000000D03*
X167000000Y-122000000D03*
X167000000Y-126000000D03*
X163000000Y-126000000D03*
X163000000Y-124000000D03*
X169000000Y-98500000D03*
X167000000Y-100500000D03*
X163000000Y-122000000D03*
X172400000Y-106800000D03*
X172400000Y-118800000D03*
X171000000Y-126000000D03*
X167000000Y-104500000D03*
X167000000Y-106500000D03*
X167000000Y-102500000D03*
X165000000Y-120000000D03*
X171000000Y-122000000D03*
X171000000Y-100500000D03*
X169000000Y-106500000D03*
X165000000Y-124000000D03*
X167000000Y-98500000D03*
X169000000Y-102500000D03*
X171000000Y-104500000D03*
X169000000Y-124000000D03*
D17*
X168200000Y-80725000D03*
X175900000Y-76750000D03*
X167600000Y-82325000D03*
X175900000Y-74100000D03*
X90950000Y-71900000D03*
X101550000Y-71900000D03*
X112150000Y-71900000D03*
D20*
X92800000Y-73200000D02*
X101360932Y-81760932D01*
X116800000Y-82000000D02*
X101938092Y-82000000D01*
X101360932Y-81760932D02*
G75*
G03*
X101938092Y-82000013I577168J577132D01*
G01*
X118160932Y-81160932D02*
X117639067Y-80639067D01*
X110360932Y-80160932D02*
X103400000Y-73200000D01*
X118400000Y-81738092D02*
X118400000Y-83000000D01*
X110938092Y-80400000D02*
X117061907Y-80400000D01*
X110360932Y-80160932D02*
G75*
G03*
X110938092Y-80400013I577168J577132D01*
G01*
X118160932Y-81160932D02*
G75*
G02*
X118400013Y-81738092I-577132J-577168D01*
G01*
X117639067Y-80639067D02*
G75*
G03*
X117061907Y-80399987I-577167J-577133D01*
G01*
X119760932Y-78960932D02*
X114000000Y-73200000D01*
X120000000Y-79538092D02*
X120000000Y-84000000D01*
X119760932Y-78960932D02*
G75*
G02*
X120000013Y-79538092I-577132J-577168D01*
G01*
D21*
X168200000Y-80725000D02*
X168200000Y-80612500D01*
X171710932Y-76989067D02*
X168279549Y-80420450D01*
X175900000Y-76750000D02*
X172288092Y-76750000D01*
X172288092Y-76750000D02*
G75*
G03*
X171710942Y-76989077I8J-816200D01*
G01*
X168279549Y-80420450D02*
G75*
G03*
X168200000Y-80612500I192051J-192050D01*
G01*
X167839067Y-80160932D02*
X171460932Y-76539067D01*
X172038092Y-76300000D02*
X174861907Y-76300000D01*
X167600000Y-80738092D02*
X167600000Y-82325000D01*
X175439067Y-76060931D02*
X175660932Y-75839067D01*
X175900000Y-74100000D02*
X175900000Y-75261907D01*
X175900000Y-75261907D02*
G75*
G02*
X175660923Y-75839058I-816200J7D01*
G01*
X175439067Y-76060931D02*
G75*
G02*
X174861907Y-76300012I-577167J577131D01*
G01*
X167839067Y-80160932D02*
G75*
G03*
X167599986Y-80738092I577133J-577168D01*
G01*
X172038092Y-76300000D02*
G75*
G03*
X171460942Y-76539077I8J-816200D01*
G01*
X121539067Y-70660932D02*
X124316620Y-67883379D01*
X124348921Y-67870000D02*
X124367843Y-67870000D01*
X90950000Y-71900000D02*
X91710932Y-71139067D01*
X92288092Y-70900000D02*
X120961907Y-70900000D01*
X124348921Y-67870000D02*
G75*
G03*
X124316606Y-67883365I-21J-45700D01*
G01*
X92288092Y-70900000D02*
G75*
G03*
X91710942Y-71139077I8J-816200D01*
G01*
X121539067Y-70660932D02*
G75*
G02*
X120961907Y-70900013I-577167J577132D01*
G01*
X138717843Y-67876078D02*
X138717843Y-67870000D01*
X101550000Y-71900000D02*
X101910932Y-71539067D01*
X138713544Y-67886455D02*
X135539067Y-71060932D01*
X134961907Y-71300000D02*
X102488092Y-71300000D01*
X138717843Y-67876078D02*
G75*
G02*
X138713549Y-67886460I-14643J-22D01*
G01*
X102488092Y-71300000D02*
G75*
G03*
X101910942Y-71539077I8J-816200D01*
G01*
X135539067Y-71060932D02*
G75*
G02*
X134961907Y-71300013I-577167J577132D01*
G01*
X112250000Y-71800000D02*
X112150000Y-71900000D01*
X112491421Y-71700000D02*
X148899750Y-71700000D01*
X149476910Y-71460932D02*
X153067843Y-67870000D01*
X149476910Y-71460932D02*
G75*
G02*
X148899750Y-71700043I-577210J577132D01*
G01*
X112491421Y-71700000D02*
G75*
G03*
X112249994Y-71799994I-21J-341400D01*
G01*
G04 #@! TA.AperFunction,Conductor*
G36*
X115609641Y-97201527D02*
G01*
X115704207Y-97216504D01*
X115741102Y-97228491D01*
X115817617Y-97267477D01*
X115849002Y-97290281D01*
X115909718Y-97350997D01*
X115932522Y-97382383D01*
X115971507Y-97458895D01*
X115983495Y-97495792D01*
X115998473Y-97590357D01*
X116000000Y-97609755D01*
X116000000Y-107190244D01*
X115998473Y-107209642D01*
X115983495Y-107304207D01*
X115971507Y-107341104D01*
X115932522Y-107417616D01*
X115909718Y-107449002D01*
X115849002Y-107509718D01*
X115817616Y-107532522D01*
X115741104Y-107571507D01*
X115704207Y-107583495D01*
X115624425Y-107596131D01*
X115609640Y-107598473D01*
X115590244Y-107600000D01*
X106009756Y-107600000D01*
X105990359Y-107598473D01*
X105971258Y-107595447D01*
X105895792Y-107583495D01*
X105858895Y-107571507D01*
X105782383Y-107532522D01*
X105750997Y-107509718D01*
X105690281Y-107449002D01*
X105667477Y-107417616D01*
X105628492Y-107341104D01*
X105616504Y-107304206D01*
X105601527Y-107209641D01*
X105600000Y-107190244D01*
X105600000Y-102999994D01*
X105580424Y-102876395D01*
X105580423Y-102876393D01*
X105523607Y-102764886D01*
X105523603Y-102764882D01*
X105523602Y-102764880D01*
X105435119Y-102676397D01*
X105435116Y-102676395D01*
X105435114Y-102676393D01*
X105323607Y-102619577D01*
X105323606Y-102619576D01*
X105323603Y-102619575D01*
X105323604Y-102619575D01*
X105200005Y-102600000D01*
X105200000Y-102600000D01*
X102809756Y-102600000D01*
X102790359Y-102598473D01*
X102771258Y-102595447D01*
X102695792Y-102583495D01*
X102658895Y-102571507D01*
X102582383Y-102532522D01*
X102550997Y-102509718D01*
X102490281Y-102449002D01*
X102467477Y-102417616D01*
X102428492Y-102341104D01*
X102416504Y-102304206D01*
X102401527Y-102209641D01*
X102400000Y-102190244D01*
X102400000Y-100209755D01*
X102401527Y-100190358D01*
X102416504Y-100095793D01*
X102428490Y-100058898D01*
X102467479Y-99982379D01*
X102490278Y-99951000D01*
X102551000Y-99890278D01*
X102582379Y-99867479D01*
X102658898Y-99828490D01*
X102695784Y-99816505D01*
X102790370Y-99801525D01*
X102809756Y-99800000D01*
X105400005Y-99800000D01*
X105523604Y-99780424D01*
X105523605Y-99780423D01*
X105523607Y-99780423D01*
X105635114Y-99723607D01*
X105723607Y-99635114D01*
X105780423Y-99523607D01*
X105780423Y-99523605D01*
X105780424Y-99523604D01*
X105800000Y-99400005D01*
X105800000Y-97609755D01*
X105801527Y-97590358D01*
X105816504Y-97495793D01*
X105816505Y-97495792D01*
X105816504Y-97495790D01*
X105828490Y-97458898D01*
X105867479Y-97382379D01*
X105890278Y-97351000D01*
X105951000Y-97290278D01*
X105982379Y-97267479D01*
X106058898Y-97228490D01*
X106095784Y-97216505D01*
X106190370Y-97201525D01*
X106209756Y-97200000D01*
X115590244Y-97200000D01*
X115609641Y-97201527D01*
G37*
G04 #@! TD.AperFunction*
G04 #@! TA.AperFunction,Conductor*
G36*
X157809641Y-97201527D02*
G01*
X157904207Y-97216504D01*
X157941102Y-97228491D01*
X158017617Y-97267477D01*
X158049002Y-97290281D01*
X158109718Y-97350997D01*
X158132522Y-97382383D01*
X158171507Y-97458895D01*
X158183495Y-97495792D01*
X158198473Y-97590357D01*
X158200000Y-97609755D01*
X158200000Y-99400005D01*
X158219575Y-99523604D01*
X158219577Y-99523607D01*
X158276393Y-99635114D01*
X158276395Y-99635116D01*
X158276397Y-99635119D01*
X158364880Y-99723602D01*
X158364882Y-99723603D01*
X158364886Y-99723607D01*
X158476393Y-99780423D01*
X158476394Y-99780423D01*
X158476396Y-99780424D01*
X158476395Y-99780424D01*
X158599995Y-99800000D01*
X158600000Y-99800000D01*
X161390244Y-99800000D01*
X161409641Y-99801527D01*
X161504207Y-99816504D01*
X161541102Y-99828491D01*
X161617617Y-99867477D01*
X161649002Y-99890281D01*
X161709718Y-99950997D01*
X161732522Y-99982383D01*
X161771507Y-100058895D01*
X161783495Y-100095792D01*
X161798473Y-100190357D01*
X161800000Y-100209755D01*
X161800000Y-102190244D01*
X161798473Y-102209642D01*
X161783495Y-102304207D01*
X161771507Y-102341104D01*
X161732522Y-102417616D01*
X161709718Y-102449002D01*
X161649002Y-102509718D01*
X161617616Y-102532522D01*
X161541104Y-102571507D01*
X161504207Y-102583495D01*
X161424425Y-102596131D01*
X161409640Y-102598473D01*
X161390244Y-102600000D01*
X158799995Y-102600000D01*
X158676395Y-102619575D01*
X158602055Y-102657454D01*
X158564886Y-102676393D01*
X158564885Y-102676394D01*
X158564880Y-102676397D01*
X158476397Y-102764880D01*
X158476394Y-102764885D01*
X158419575Y-102876395D01*
X158400000Y-102999994D01*
X158400000Y-107190244D01*
X158398473Y-107209642D01*
X158383495Y-107304207D01*
X158371507Y-107341104D01*
X158332522Y-107417616D01*
X158309718Y-107449002D01*
X158249002Y-107509718D01*
X158217616Y-107532522D01*
X158141104Y-107571507D01*
X158104207Y-107583495D01*
X158024425Y-107596131D01*
X158009640Y-107598473D01*
X157990244Y-107600000D01*
X148409756Y-107600000D01*
X148390359Y-107598473D01*
X148371258Y-107595447D01*
X148295792Y-107583495D01*
X148258895Y-107571507D01*
X148182383Y-107532522D01*
X148150997Y-107509718D01*
X148090281Y-107449002D01*
X148067477Y-107417616D01*
X148028492Y-107341104D01*
X148016504Y-107304206D01*
X148001527Y-107209641D01*
X148000000Y-107190244D01*
X148000000Y-97609755D01*
X148001527Y-97590358D01*
X148016504Y-97495793D01*
X148016505Y-97495792D01*
X148016504Y-97495790D01*
X148028490Y-97458898D01*
X148067479Y-97382379D01*
X148090278Y-97351000D01*
X148151000Y-97290278D01*
X148182379Y-97267479D01*
X148258898Y-97228490D01*
X148295784Y-97216505D01*
X148390370Y-97201525D01*
X148409756Y-97200000D01*
X157790244Y-97200000D01*
X157809641Y-97201527D01*
G37*
G04 #@! TD.AperFunction*
G04 #@! TA.AperFunction,Conductor*
G36*
X131209641Y-134801527D02*
G01*
X131304207Y-134816504D01*
X131341102Y-134828491D01*
X131417617Y-134867477D01*
X131449002Y-134890281D01*
X131509718Y-134950997D01*
X131532522Y-134982383D01*
X131571507Y-135058895D01*
X131583495Y-135095792D01*
X131598473Y-135190357D01*
X131600000Y-135209755D01*
X131600000Y-145590244D01*
X131598473Y-145609641D01*
X131583496Y-145704206D01*
X131571508Y-145741104D01*
X131532523Y-145817616D01*
X131509719Y-145849002D01*
X131449003Y-145909718D01*
X131417617Y-145932522D01*
X131341105Y-145971507D01*
X131304208Y-145983495D01*
X131224426Y-145996131D01*
X131209641Y-145998473D01*
X131190245Y-146000000D01*
X118409756Y-146000000D01*
X118390359Y-145998473D01*
X118295794Y-145983496D01*
X118258896Y-145971508D01*
X118182384Y-145932523D01*
X118150998Y-145909719D01*
X118090282Y-145849003D01*
X118067478Y-145817617D01*
X118067477Y-145817616D01*
X118028492Y-145741103D01*
X118016505Y-145704207D01*
X118001528Y-145609642D01*
X118000001Y-145590245D01*
X118000001Y-137809755D01*
X118001528Y-137790358D01*
X118016505Y-137695793D01*
X118028491Y-137658898D01*
X118067480Y-137582379D01*
X118090279Y-137551000D01*
X118151001Y-137490278D01*
X118182380Y-137467479D01*
X118258899Y-137428490D01*
X118295785Y-137416505D01*
X118390371Y-137401525D01*
X118409757Y-137400000D01*
X128400007Y-137400000D01*
X128523606Y-137380424D01*
X128523607Y-137380423D01*
X128523609Y-137380423D01*
X128635116Y-137323607D01*
X128723609Y-137235114D01*
X128780424Y-137123607D01*
X128780424Y-137123605D01*
X128780425Y-137123604D01*
X128786528Y-137085063D01*
X128800002Y-137000000D01*
X128800001Y-135209755D01*
X128801528Y-135190359D01*
X128816506Y-135095792D01*
X128816507Y-135095787D01*
X128828492Y-135058898D01*
X128867480Y-134982380D01*
X128890278Y-134951001D01*
X128951001Y-134890278D01*
X128982380Y-134867479D01*
X129058899Y-134828490D01*
X129095785Y-134816505D01*
X129190371Y-134801525D01*
X129209757Y-134800000D01*
X131190244Y-134800000D01*
X131209641Y-134801527D01*
G37*
G04 #@! TD.AperFunction*
G04 #@! TA.AperFunction,Conductor*
G36*
X164609641Y-103201527D02*
G01*
X164704207Y-103216504D01*
X164741102Y-103228491D01*
X164817617Y-103267477D01*
X164849002Y-103290281D01*
X164909718Y-103350997D01*
X164932522Y-103382383D01*
X164971507Y-103458895D01*
X164983495Y-103495792D01*
X164998473Y-103590357D01*
X165000000Y-103609755D01*
X165000000Y-107800005D01*
X165019575Y-107923604D01*
X165019577Y-107923607D01*
X165076393Y-108035114D01*
X165076395Y-108035116D01*
X165076397Y-108035119D01*
X165164880Y-108123602D01*
X165164882Y-108123603D01*
X165164886Y-108123607D01*
X165276393Y-108180423D01*
X165276394Y-108180423D01*
X165276396Y-108180424D01*
X165276395Y-108180424D01*
X165399995Y-108200000D01*
X165400000Y-108200000D01*
X175590244Y-108200000D01*
X175609641Y-108201527D01*
X175704207Y-108216504D01*
X175741102Y-108228491D01*
X175817617Y-108267477D01*
X175849002Y-108290281D01*
X175909718Y-108350997D01*
X175932522Y-108382383D01*
X175971507Y-108458895D01*
X175983495Y-108495792D01*
X175998473Y-108590357D01*
X176000000Y-108609755D01*
X176000000Y-115590244D01*
X175998473Y-115609642D01*
X175983495Y-115704207D01*
X175971507Y-115741104D01*
X175932522Y-115817616D01*
X175909718Y-115849002D01*
X175849002Y-115909718D01*
X175817616Y-115932522D01*
X175741104Y-115971507D01*
X175704207Y-115983495D01*
X175624425Y-115996131D01*
X175609640Y-115998473D01*
X175590244Y-116000000D01*
X162809756Y-116000000D01*
X162790359Y-115998473D01*
X162771258Y-115995447D01*
X162695792Y-115983495D01*
X162658895Y-115971507D01*
X162582383Y-115932522D01*
X162550997Y-115909718D01*
X162490281Y-115849002D01*
X162467477Y-115817616D01*
X162428492Y-115741104D01*
X162416504Y-115704206D01*
X162401527Y-115609641D01*
X162400000Y-115590244D01*
X162400000Y-103609755D01*
X162401527Y-103590358D01*
X162416504Y-103495793D01*
X162416505Y-103495792D01*
X162416504Y-103495790D01*
X162428490Y-103458898D01*
X162467479Y-103382379D01*
X162490278Y-103351000D01*
X162551000Y-103290278D01*
X162582379Y-103267479D01*
X162658898Y-103228490D01*
X162695784Y-103216505D01*
X162790370Y-103201525D01*
X162809756Y-103200000D01*
X164590244Y-103200000D01*
X164609641Y-103201527D01*
G37*
G04 #@! TD.AperFunction*
G04 #@! TA.AperFunction,Conductor*
G36*
X104609641Y-103201527D02*
G01*
X104704207Y-103216504D01*
X104741102Y-103228491D01*
X104817617Y-103267477D01*
X104849002Y-103290281D01*
X104909718Y-103350997D01*
X104932522Y-103382383D01*
X104971507Y-103458895D01*
X104983495Y-103495792D01*
X104998473Y-103590357D01*
X105000000Y-103609755D01*
X105000000Y-107800005D01*
X105019575Y-107923604D01*
X105019577Y-107923607D01*
X105076393Y-108035114D01*
X105076395Y-108035116D01*
X105076397Y-108035119D01*
X105164880Y-108123602D01*
X105164882Y-108123603D01*
X105164886Y-108123607D01*
X105276393Y-108180423D01*
X105276394Y-108180423D01*
X105276396Y-108180424D01*
X105276395Y-108180424D01*
X105399995Y-108200000D01*
X105400000Y-108200000D01*
X115590244Y-108200000D01*
X115609641Y-108201527D01*
X115704207Y-108216504D01*
X115741102Y-108228491D01*
X115817617Y-108267477D01*
X115849002Y-108290281D01*
X115909718Y-108350997D01*
X115932522Y-108382383D01*
X115971507Y-108458895D01*
X115983495Y-108495792D01*
X115998473Y-108590357D01*
X116000000Y-108609755D01*
X116000000Y-115590244D01*
X115998473Y-115609642D01*
X115983495Y-115704207D01*
X115971507Y-115741104D01*
X115932522Y-115817616D01*
X115909718Y-115849002D01*
X115849002Y-115909718D01*
X115817616Y-115932522D01*
X115741104Y-115971507D01*
X115704207Y-115983495D01*
X115624425Y-115996131D01*
X115609640Y-115998473D01*
X115590244Y-116000000D01*
X102809756Y-116000000D01*
X102790359Y-115998473D01*
X102771258Y-115995447D01*
X102695792Y-115983495D01*
X102658895Y-115971507D01*
X102582383Y-115932522D01*
X102550997Y-115909718D01*
X102490281Y-115849002D01*
X102467477Y-115817616D01*
X102428492Y-115741104D01*
X102416504Y-115704206D01*
X102401527Y-115609641D01*
X102400000Y-115590244D01*
X102400000Y-103609755D01*
X102401527Y-103590358D01*
X102416504Y-103495793D01*
X102416505Y-103495792D01*
X102416504Y-103495790D01*
X102428490Y-103458898D01*
X102467479Y-103382379D01*
X102490278Y-103351000D01*
X102551000Y-103290278D01*
X102582379Y-103267479D01*
X102658898Y-103228490D01*
X102695784Y-103216505D01*
X102790370Y-103201525D01*
X102809756Y-103200000D01*
X104590244Y-103200000D01*
X104609641Y-103201527D01*
G37*
G04 #@! TD.AperFunction*
G04 #@! TA.AperFunction,Conductor*
G36*
X134809642Y-134801527D02*
G01*
X134904208Y-134816504D01*
X134941103Y-134828491D01*
X135017618Y-134867477D01*
X135049003Y-134890281D01*
X135109720Y-134950998D01*
X135132524Y-134982385D01*
X135171507Y-135058895D01*
X135183495Y-135095791D01*
X135198473Y-135190359D01*
X135200000Y-135209757D01*
X135200000Y-136999999D01*
X135219576Y-137123604D01*
X135276390Y-137235110D01*
X135276391Y-137235111D01*
X135276393Y-137235114D01*
X135364886Y-137323607D01*
X135476393Y-137380423D01*
X135476394Y-137380423D01*
X135476396Y-137380424D01*
X135476395Y-137380424D01*
X135599995Y-137400000D01*
X135600000Y-137400000D01*
X145590245Y-137400000D01*
X145609642Y-137401527D01*
X145704208Y-137416504D01*
X145741103Y-137428491D01*
X145817618Y-137467477D01*
X145849003Y-137490281D01*
X145909719Y-137550997D01*
X145932523Y-137582383D01*
X145971508Y-137658895D01*
X145983496Y-137695792D01*
X145998474Y-137790357D01*
X146000001Y-137809755D01*
X146000001Y-145590245D01*
X145998474Y-145609643D01*
X145983496Y-145704208D01*
X145971508Y-145741105D01*
X145932523Y-145817617D01*
X145909719Y-145849003D01*
X145849003Y-145909719D01*
X145817617Y-145932523D01*
X145741105Y-145971508D01*
X145704207Y-145983496D01*
X145609642Y-145998473D01*
X145590245Y-146000000D01*
X132609756Y-146000000D01*
X132590361Y-145998473D01*
X132554206Y-145992747D01*
X132495793Y-145983495D01*
X132458896Y-145971507D01*
X132382384Y-145932522D01*
X132350998Y-145909718D01*
X132290282Y-145849002D01*
X132267478Y-145817616D01*
X132228493Y-145741104D01*
X132216505Y-145704206D01*
X132201528Y-145609641D01*
X132200001Y-145590244D01*
X132200001Y-135209755D01*
X132201528Y-135190358D01*
X132216505Y-135095793D01*
X132228491Y-135058898D01*
X132267480Y-134982379D01*
X132290279Y-134951000D01*
X132351001Y-134890278D01*
X132382380Y-134867479D01*
X132458899Y-134828490D01*
X132495785Y-134816505D01*
X132590371Y-134801525D01*
X132609757Y-134800000D01*
X134790245Y-134800000D01*
X134809642Y-134801527D01*
G37*
G04 #@! TD.AperFunction*
G04 #@! TA.AperFunction,Conductor*
G36*
X101409641Y-133201527D02*
G01*
X101504207Y-133216504D01*
X101541102Y-133228491D01*
X101617617Y-133267477D01*
X101649002Y-133290281D01*
X101709718Y-133350997D01*
X101732522Y-133382383D01*
X101771507Y-133458895D01*
X101783495Y-133495792D01*
X101798473Y-133590357D01*
X101800000Y-133609755D01*
X101800000Y-145590244D01*
X101798473Y-145609642D01*
X101783495Y-145704207D01*
X101771507Y-145741104D01*
X101732522Y-145817616D01*
X101709718Y-145849002D01*
X101649002Y-145909718D01*
X101617616Y-145932522D01*
X101541104Y-145971507D01*
X101504207Y-145983495D01*
X101424425Y-145996131D01*
X101409640Y-145998473D01*
X101390244Y-146000000D01*
X88409756Y-146000000D01*
X88390359Y-145998473D01*
X88371258Y-145995447D01*
X88295792Y-145983495D01*
X88258895Y-145971507D01*
X88182383Y-145932522D01*
X88150997Y-145909718D01*
X88090281Y-145849002D01*
X88067477Y-145817616D01*
X88028492Y-145741104D01*
X88016504Y-145704206D01*
X88001527Y-145609641D01*
X88000000Y-145590244D01*
X88000000Y-138609755D01*
X88001527Y-138590358D01*
X88016504Y-138495793D01*
X88028490Y-138458898D01*
X88067479Y-138382379D01*
X88090278Y-138351000D01*
X88151000Y-138290278D01*
X88182379Y-138267479D01*
X88258898Y-138228490D01*
X88295784Y-138216505D01*
X88390370Y-138201525D01*
X88409756Y-138200000D01*
X98600005Y-138200000D01*
X98723604Y-138180424D01*
X98723605Y-138180423D01*
X98723607Y-138180423D01*
X98835114Y-138123607D01*
X98923607Y-138035114D01*
X98980423Y-137923607D01*
X98980423Y-137923605D01*
X98980424Y-137923604D01*
X99000000Y-137800005D01*
X99000000Y-133609755D01*
X99001527Y-133590358D01*
X99016504Y-133495793D01*
X99016505Y-133495792D01*
X99016504Y-133495790D01*
X99028490Y-133458898D01*
X99067479Y-133382379D01*
X99090278Y-133351000D01*
X99151000Y-133290278D01*
X99182379Y-133267479D01*
X99258898Y-133228490D01*
X99295784Y-133216505D01*
X99390370Y-133201525D01*
X99409756Y-133200000D01*
X101390244Y-133200000D01*
X101409641Y-133201527D01*
G37*
G04 #@! TD.AperFunction*
G04 #@! TA.AperFunction,Conductor*
G36*
X131209640Y-88001526D02*
G01*
X131304206Y-88016503D01*
X131341101Y-88028490D01*
X131417616Y-88067476D01*
X131449001Y-88090280D01*
X131509717Y-88150996D01*
X131532521Y-88182382D01*
X131571506Y-88258894D01*
X131583494Y-88295791D01*
X131598472Y-88390356D01*
X131599999Y-88409754D01*
X131599999Y-100390244D01*
X131598472Y-100409641D01*
X131583495Y-100504206D01*
X131571507Y-100541104D01*
X131532522Y-100617616D01*
X131509718Y-100649002D01*
X131449002Y-100709718D01*
X131417616Y-100732522D01*
X131341104Y-100771507D01*
X131304207Y-100783495D01*
X131224425Y-100796131D01*
X131209640Y-100798473D01*
X131190244Y-100800000D01*
X129409756Y-100800000D01*
X129390359Y-100798473D01*
X129371258Y-100795447D01*
X129295792Y-100783495D01*
X129258895Y-100771507D01*
X129182383Y-100732522D01*
X129150997Y-100709718D01*
X129090281Y-100649002D01*
X129067477Y-100617616D01*
X129028492Y-100541104D01*
X129016504Y-100504206D01*
X129001527Y-100409641D01*
X129000000Y-100390244D01*
X129000000Y-96199993D01*
X128980424Y-96076394D01*
X128980423Y-96076392D01*
X128923607Y-95964885D01*
X128923603Y-95964881D01*
X128923602Y-95964879D01*
X128835119Y-95876396D01*
X128835116Y-95876394D01*
X128835114Y-95876392D01*
X128723607Y-95819576D01*
X128723606Y-95819575D01*
X128723603Y-95819574D01*
X128723604Y-95819574D01*
X128600005Y-95799999D01*
X128600000Y-95799999D01*
X118409755Y-95799999D01*
X118390358Y-95798472D01*
X118371257Y-95795446D01*
X118295791Y-95783494D01*
X118258894Y-95771506D01*
X118182382Y-95732521D01*
X118150996Y-95709717D01*
X118090280Y-95649001D01*
X118067476Y-95617615D01*
X118028491Y-95541103D01*
X118016503Y-95504205D01*
X118001526Y-95409640D01*
X117999999Y-95390243D01*
X117999999Y-88409754D01*
X118001526Y-88390357D01*
X118016503Y-88295792D01*
X118016504Y-88295791D01*
X118016503Y-88295789D01*
X118028489Y-88258897D01*
X118067478Y-88182378D01*
X118090277Y-88150999D01*
X118150999Y-88090277D01*
X118182378Y-88067478D01*
X118258897Y-88028489D01*
X118295783Y-88016504D01*
X118390369Y-88001524D01*
X118409755Y-87999999D01*
X131190243Y-87999999D01*
X131209640Y-88001526D01*
G37*
G04 #@! TD.AperFunction*
G04 #@! TA.AperFunction,Conductor*
G36*
X134809641Y-104801526D02*
G01*
X134904207Y-104816503D01*
X134941102Y-104828490D01*
X135017617Y-104867476D01*
X135049002Y-104890280D01*
X135109719Y-104950997D01*
X135132523Y-104982384D01*
X135171506Y-105058894D01*
X135183494Y-105095790D01*
X135198472Y-105190358D01*
X135199999Y-105209756D01*
X135199999Y-106999998D01*
X135219575Y-107123603D01*
X135276389Y-107235109D01*
X135276390Y-107235110D01*
X135276392Y-107235113D01*
X135364885Y-107323606D01*
X135476392Y-107380422D01*
X135476393Y-107380422D01*
X135476395Y-107380423D01*
X135476394Y-107380423D01*
X135599994Y-107399999D01*
X135599999Y-107399999D01*
X145590244Y-107399999D01*
X145609641Y-107401526D01*
X145704207Y-107416503D01*
X145741102Y-107428490D01*
X145817617Y-107467476D01*
X145849002Y-107490280D01*
X145909718Y-107550996D01*
X145932522Y-107582382D01*
X145971507Y-107658894D01*
X145983495Y-107695791D01*
X145998473Y-107790356D01*
X146000000Y-107809754D01*
X146000000Y-115590244D01*
X145998473Y-115609642D01*
X145983495Y-115704207D01*
X145971507Y-115741104D01*
X145932522Y-115817616D01*
X145909718Y-115849002D01*
X145849002Y-115909718D01*
X145817616Y-115932522D01*
X145741104Y-115971507D01*
X145704206Y-115983495D01*
X145609641Y-115998472D01*
X145590244Y-115999999D01*
X132609755Y-115999999D01*
X132590360Y-115998472D01*
X132554205Y-115992746D01*
X132495792Y-115983494D01*
X132458895Y-115971506D01*
X132382383Y-115932521D01*
X132350997Y-115909717D01*
X132290281Y-115849001D01*
X132267477Y-115817615D01*
X132228492Y-115741103D01*
X132216504Y-115704205D01*
X132201527Y-115609640D01*
X132200000Y-115590243D01*
X132200000Y-105209754D01*
X132201527Y-105190357D01*
X132216504Y-105095792D01*
X132228490Y-105058897D01*
X132267479Y-104982378D01*
X132290278Y-104950999D01*
X132351000Y-104890277D01*
X132382379Y-104867478D01*
X132458898Y-104828489D01*
X132495784Y-104816504D01*
X132590370Y-104801524D01*
X132609756Y-104799999D01*
X134790244Y-104799999D01*
X134809641Y-104801526D01*
G37*
G04 #@! TD.AperFunction*
G04 #@! TA.AperFunction,Conductor*
G36*
X131209640Y-104801526D02*
G01*
X131304206Y-104816503D01*
X131341101Y-104828490D01*
X131417616Y-104867476D01*
X131449001Y-104890280D01*
X131509717Y-104950996D01*
X131532521Y-104982382D01*
X131571506Y-105058894D01*
X131583494Y-105095791D01*
X131598472Y-105190356D01*
X131599999Y-105209754D01*
X131599999Y-115590243D01*
X131598472Y-115609640D01*
X131583495Y-115704205D01*
X131571507Y-115741103D01*
X131532522Y-115817615D01*
X131509718Y-115849001D01*
X131449002Y-115909717D01*
X131417616Y-115932521D01*
X131341104Y-115971506D01*
X131304207Y-115983494D01*
X131224425Y-115996130D01*
X131209640Y-115998472D01*
X131190244Y-115999999D01*
X118409755Y-115999999D01*
X118390358Y-115998472D01*
X118295793Y-115983495D01*
X118258895Y-115971507D01*
X118182383Y-115932522D01*
X118150997Y-115909718D01*
X118090281Y-115849002D01*
X118067477Y-115817616D01*
X118067476Y-115817615D01*
X118028491Y-115741102D01*
X118016504Y-115704206D01*
X118001527Y-115609641D01*
X118000000Y-115590244D01*
X118000000Y-107809754D01*
X118001527Y-107790357D01*
X118016504Y-107695792D01*
X118028490Y-107658897D01*
X118067479Y-107582378D01*
X118090278Y-107550999D01*
X118151000Y-107490277D01*
X118182379Y-107467478D01*
X118258898Y-107428489D01*
X118295784Y-107416504D01*
X118390370Y-107401524D01*
X118409756Y-107399999D01*
X128400006Y-107399999D01*
X128523605Y-107380423D01*
X128523606Y-107380422D01*
X128523608Y-107380422D01*
X128635115Y-107323606D01*
X128723608Y-107235113D01*
X128780423Y-107123606D01*
X128780423Y-107123604D01*
X128780424Y-107123603D01*
X128786527Y-107085062D01*
X128800001Y-106999999D01*
X128800000Y-105209754D01*
X128801527Y-105190358D01*
X128816505Y-105095791D01*
X128816506Y-105095786D01*
X128828491Y-105058897D01*
X128867479Y-104982379D01*
X128890277Y-104951000D01*
X128951000Y-104890277D01*
X128982379Y-104867478D01*
X129058898Y-104828489D01*
X129095784Y-104816504D01*
X129190370Y-104801524D01*
X129209756Y-104799999D01*
X131190243Y-104799999D01*
X131209640Y-104801526D01*
G37*
G04 #@! TD.AperFunction*
G04 #@! TA.AperFunction,Conductor*
G36*
X175609641Y-97201527D02*
G01*
X175704207Y-97216504D01*
X175741102Y-97228491D01*
X175817617Y-97267477D01*
X175849002Y-97290281D01*
X175909718Y-97350997D01*
X175932522Y-97382383D01*
X175971507Y-97458895D01*
X175983495Y-97495792D01*
X175998473Y-97590357D01*
X176000000Y-97609755D01*
X176000000Y-107190244D01*
X175998473Y-107209642D01*
X175983495Y-107304207D01*
X175971507Y-107341104D01*
X175932522Y-107417616D01*
X175909718Y-107449002D01*
X175849002Y-107509718D01*
X175817616Y-107532522D01*
X175741104Y-107571507D01*
X175704207Y-107583495D01*
X175624425Y-107596131D01*
X175609640Y-107598473D01*
X175590244Y-107600000D01*
X166009756Y-107600000D01*
X165990359Y-107598473D01*
X165971258Y-107595447D01*
X165895792Y-107583495D01*
X165858895Y-107571507D01*
X165782383Y-107532522D01*
X165750997Y-107509718D01*
X165690281Y-107449002D01*
X165667477Y-107417616D01*
X165628492Y-107341104D01*
X165616504Y-107304206D01*
X165601527Y-107209641D01*
X165600000Y-107190244D01*
X165600000Y-102999994D01*
X165580424Y-102876395D01*
X165580423Y-102876393D01*
X165523607Y-102764886D01*
X165523603Y-102764882D01*
X165523602Y-102764880D01*
X165435119Y-102676397D01*
X165435116Y-102676395D01*
X165435114Y-102676393D01*
X165323607Y-102619577D01*
X165323606Y-102619576D01*
X165323603Y-102619575D01*
X165323604Y-102619575D01*
X165200005Y-102600000D01*
X165200000Y-102600000D01*
X162809756Y-102600000D01*
X162790359Y-102598473D01*
X162771258Y-102595447D01*
X162695792Y-102583495D01*
X162658895Y-102571507D01*
X162582383Y-102532522D01*
X162550997Y-102509718D01*
X162490281Y-102449002D01*
X162467477Y-102417616D01*
X162428492Y-102341104D01*
X162416504Y-102304206D01*
X162401527Y-102209641D01*
X162400000Y-102190244D01*
X162400000Y-100209755D01*
X162401527Y-100190358D01*
X162416504Y-100095793D01*
X162428490Y-100058898D01*
X162467479Y-99982379D01*
X162490278Y-99951000D01*
X162551000Y-99890278D01*
X162582379Y-99867479D01*
X162658898Y-99828490D01*
X162695784Y-99816505D01*
X162790370Y-99801525D01*
X162809756Y-99800000D01*
X165400005Y-99800000D01*
X165523604Y-99780424D01*
X165523605Y-99780423D01*
X165523607Y-99780423D01*
X165635114Y-99723607D01*
X165723607Y-99635114D01*
X165780423Y-99523607D01*
X165780423Y-99523605D01*
X165780424Y-99523604D01*
X165800000Y-99400005D01*
X165800000Y-97609755D01*
X165801527Y-97590358D01*
X165816504Y-97495793D01*
X165816505Y-97495792D01*
X165816504Y-97495790D01*
X165828490Y-97458898D01*
X165867479Y-97382379D01*
X165890278Y-97351000D01*
X165951000Y-97290278D01*
X165982379Y-97267479D01*
X166058898Y-97228490D01*
X166095784Y-97216505D01*
X166190370Y-97201525D01*
X166209756Y-97200000D01*
X175590244Y-97200000D01*
X175609641Y-97201527D01*
G37*
G04 #@! TD.AperFunction*
G04 #@! TA.AperFunction,Conductor*
G36*
X164609641Y-133201527D02*
G01*
X164704207Y-133216504D01*
X164741102Y-133228491D01*
X164817617Y-133267477D01*
X164849002Y-133290281D01*
X164909718Y-133350997D01*
X164932522Y-133382383D01*
X164971507Y-133458895D01*
X164983495Y-133495792D01*
X164998473Y-133590357D01*
X165000000Y-133609755D01*
X165000000Y-137800005D01*
X165019575Y-137923604D01*
X165019577Y-137923607D01*
X165076393Y-138035114D01*
X165076395Y-138035116D01*
X165076397Y-138035119D01*
X165164880Y-138123602D01*
X165164882Y-138123603D01*
X165164886Y-138123607D01*
X165276393Y-138180423D01*
X165276394Y-138180423D01*
X165276396Y-138180424D01*
X165276395Y-138180424D01*
X165399995Y-138200000D01*
X165400000Y-138200000D01*
X175590244Y-138200000D01*
X175609641Y-138201527D01*
X175704207Y-138216504D01*
X175741102Y-138228491D01*
X175817617Y-138267477D01*
X175849002Y-138290281D01*
X175909718Y-138350997D01*
X175932522Y-138382383D01*
X175971507Y-138458895D01*
X175983495Y-138495792D01*
X175998473Y-138590357D01*
X176000000Y-138609755D01*
X176000000Y-145590244D01*
X175998473Y-145609642D01*
X175983495Y-145704207D01*
X175971507Y-145741104D01*
X175932522Y-145817616D01*
X175909718Y-145849002D01*
X175849002Y-145909718D01*
X175817616Y-145932522D01*
X175741104Y-145971507D01*
X175704207Y-145983495D01*
X175624425Y-145996131D01*
X175609640Y-145998473D01*
X175590244Y-146000000D01*
X162809756Y-146000000D01*
X162790359Y-145998473D01*
X162771258Y-145995447D01*
X162695792Y-145983495D01*
X162658895Y-145971507D01*
X162582383Y-145932522D01*
X162550997Y-145909718D01*
X162490281Y-145849002D01*
X162467477Y-145817616D01*
X162428492Y-145741104D01*
X162416504Y-145704206D01*
X162401527Y-145609641D01*
X162400000Y-145590244D01*
X162400000Y-133609755D01*
X162401527Y-133590358D01*
X162416504Y-133495793D01*
X162416505Y-133495792D01*
X162416504Y-133495790D01*
X162428490Y-133458898D01*
X162467479Y-133382379D01*
X162490278Y-133351000D01*
X162551000Y-133290278D01*
X162582379Y-133267479D01*
X162658898Y-133228490D01*
X162695784Y-133216505D01*
X162790370Y-133201525D01*
X162809756Y-133200000D01*
X164590244Y-133200000D01*
X164609641Y-133201527D01*
G37*
G04 #@! TD.AperFunction*
G04 #@! TA.AperFunction,Conductor*
G36*
X128009642Y-126401527D02*
G01*
X128104208Y-126416504D01*
X128141103Y-126428491D01*
X128217618Y-126467477D01*
X128249003Y-126490281D01*
X128309719Y-126550997D01*
X128332523Y-126582383D01*
X128371508Y-126658895D01*
X128383496Y-126695792D01*
X128398474Y-126790357D01*
X128400001Y-126809755D01*
X128400001Y-131000006D01*
X128419576Y-131123605D01*
X128419578Y-131123608D01*
X128476394Y-131235115D01*
X128476396Y-131235117D01*
X128476398Y-131235120D01*
X128564881Y-131323603D01*
X128564883Y-131323604D01*
X128564887Y-131323608D01*
X128676394Y-131380424D01*
X128676395Y-131380424D01*
X128676397Y-131380425D01*
X128676396Y-131380425D01*
X128799995Y-131400000D01*
X128800001Y-131400001D01*
X131190245Y-131400000D01*
X131209642Y-131401527D01*
X131304208Y-131416504D01*
X131341103Y-131428491D01*
X131417618Y-131467477D01*
X131449003Y-131490281D01*
X131509719Y-131550997D01*
X131532523Y-131582383D01*
X131571508Y-131658895D01*
X131583496Y-131695792D01*
X131598474Y-131790357D01*
X131600001Y-131809755D01*
X131600001Y-133790244D01*
X131598474Y-133809642D01*
X131583496Y-133904207D01*
X131571508Y-133941104D01*
X131532523Y-134017616D01*
X131509719Y-134049002D01*
X131449003Y-134109718D01*
X131417617Y-134132522D01*
X131341105Y-134171507D01*
X131304208Y-134183495D01*
X131224426Y-134196131D01*
X131209641Y-134198473D01*
X131190245Y-134200000D01*
X128599996Y-134200000D01*
X128476396Y-134219575D01*
X128402056Y-134257454D01*
X128364887Y-134276393D01*
X128364886Y-134276394D01*
X128364885Y-134276394D01*
X128276391Y-134364889D01*
X128219577Y-134476395D01*
X128200001Y-134600000D01*
X128200001Y-136390242D01*
X128198474Y-136409640D01*
X128183496Y-136504208D01*
X128171508Y-136541104D01*
X128132525Y-136617614D01*
X128109721Y-136649001D01*
X128049004Y-136709718D01*
X128017618Y-136732522D01*
X127941106Y-136771507D01*
X127904209Y-136783495D01*
X127824427Y-136796131D01*
X127809642Y-136798473D01*
X127790246Y-136800000D01*
X118409757Y-136800000D01*
X118390360Y-136798473D01*
X118371259Y-136795447D01*
X118295793Y-136783495D01*
X118258896Y-136771507D01*
X118182384Y-136732522D01*
X118150998Y-136709718D01*
X118090282Y-136649002D01*
X118067478Y-136617616D01*
X118028493Y-136541104D01*
X118016505Y-136504209D01*
X118001525Y-136409628D01*
X118000000Y-136390256D01*
X118000000Y-126809754D01*
X118001527Y-126790358D01*
X118016504Y-126695793D01*
X118016505Y-126695792D01*
X118016504Y-126695790D01*
X118028490Y-126658898D01*
X118067479Y-126582379D01*
X118090278Y-126551000D01*
X118151000Y-126490278D01*
X118182379Y-126467479D01*
X118258898Y-126428490D01*
X118295784Y-126416505D01*
X118390370Y-126401525D01*
X118409756Y-126400000D01*
X127990245Y-126400000D01*
X128009642Y-126401527D01*
G37*
G04 #@! TD.AperFunction*
G04 #@! TA.AperFunction,Conductor*
G36*
X157809641Y-127201527D02*
G01*
X157904207Y-127216504D01*
X157941102Y-127228491D01*
X158017617Y-127267477D01*
X158049002Y-127290281D01*
X158109718Y-127350997D01*
X158132522Y-127382383D01*
X158171507Y-127458895D01*
X158183495Y-127495792D01*
X158198473Y-127590357D01*
X158200000Y-127609755D01*
X158200000Y-129400005D01*
X158219575Y-129523604D01*
X158219577Y-129523607D01*
X158276393Y-129635114D01*
X158276395Y-129635116D01*
X158276397Y-129635119D01*
X158364880Y-129723602D01*
X158364882Y-129723603D01*
X158364886Y-129723607D01*
X158476393Y-129780423D01*
X158476394Y-129780423D01*
X158476396Y-129780424D01*
X158476395Y-129780424D01*
X158599995Y-129800000D01*
X158600000Y-129800000D01*
X161390244Y-129800000D01*
X161409641Y-129801527D01*
X161504207Y-129816504D01*
X161541102Y-129828491D01*
X161617617Y-129867477D01*
X161649002Y-129890281D01*
X161709718Y-129950997D01*
X161732522Y-129982383D01*
X161771507Y-130058895D01*
X161783495Y-130095792D01*
X161798473Y-130190357D01*
X161800000Y-130209755D01*
X161800000Y-132190244D01*
X161798473Y-132209642D01*
X161783495Y-132304207D01*
X161771507Y-132341104D01*
X161732522Y-132417616D01*
X161709718Y-132449002D01*
X161649002Y-132509718D01*
X161617616Y-132532522D01*
X161541104Y-132571507D01*
X161504207Y-132583495D01*
X161424425Y-132596131D01*
X161409640Y-132598473D01*
X161390244Y-132600000D01*
X158799995Y-132600000D01*
X158676395Y-132619575D01*
X158602055Y-132657454D01*
X158564886Y-132676393D01*
X158564885Y-132676394D01*
X158564880Y-132676397D01*
X158476397Y-132764880D01*
X158476394Y-132764885D01*
X158419575Y-132876395D01*
X158400000Y-132999994D01*
X158400000Y-137190244D01*
X158398473Y-137209642D01*
X158383495Y-137304207D01*
X158371507Y-137341104D01*
X158332522Y-137417616D01*
X158309718Y-137449002D01*
X158249002Y-137509718D01*
X158217616Y-137532522D01*
X158141104Y-137571507D01*
X158104207Y-137583495D01*
X158024425Y-137596131D01*
X158009640Y-137598473D01*
X157990244Y-137600000D01*
X148409756Y-137600000D01*
X148390359Y-137598473D01*
X148371258Y-137595447D01*
X148295792Y-137583495D01*
X148258895Y-137571507D01*
X148182383Y-137532522D01*
X148150997Y-137509718D01*
X148090281Y-137449002D01*
X148067477Y-137417616D01*
X148028492Y-137341104D01*
X148016504Y-137304206D01*
X148001527Y-137209641D01*
X148000000Y-137190244D01*
X148000000Y-127609755D01*
X148001527Y-127590358D01*
X148016504Y-127495793D01*
X148016505Y-127495792D01*
X148016504Y-127495790D01*
X148028490Y-127458898D01*
X148067479Y-127382379D01*
X148090278Y-127351000D01*
X148151000Y-127290278D01*
X148182379Y-127267479D01*
X148258898Y-127228490D01*
X148295784Y-127216505D01*
X148390370Y-127201525D01*
X148409756Y-127200000D01*
X157790244Y-127200000D01*
X157809641Y-127201527D01*
G37*
G04 #@! TD.AperFunction*
G04 #@! TA.AperFunction,Conductor*
G36*
X145609642Y-96401526D02*
G01*
X145704208Y-96416503D01*
X145741103Y-96428490D01*
X145817618Y-96467476D01*
X145849003Y-96490280D01*
X145909719Y-96550996D01*
X145932523Y-96582382D01*
X145971508Y-96658894D01*
X145983496Y-96695792D01*
X145998473Y-96790357D01*
X146000000Y-96809754D01*
X146000000Y-106390243D01*
X145998473Y-106409641D01*
X145983495Y-106504206D01*
X145971507Y-106541103D01*
X145932522Y-106617615D01*
X145909718Y-106649001D01*
X145849002Y-106709717D01*
X145817616Y-106732521D01*
X145741104Y-106771506D01*
X145704207Y-106783494D01*
X145624425Y-106796130D01*
X145609640Y-106798472D01*
X145590244Y-106799999D01*
X136209755Y-106799999D01*
X136190358Y-106798472D01*
X136171257Y-106795446D01*
X136095791Y-106783494D01*
X136058894Y-106771506D01*
X135982382Y-106732521D01*
X135950996Y-106709717D01*
X135890279Y-106649000D01*
X135867475Y-106617613D01*
X135828492Y-106541103D01*
X135816504Y-106504207D01*
X135801526Y-106409639D01*
X135799999Y-106390241D01*
X135800000Y-104600000D01*
X135788368Y-104526566D01*
X135780423Y-104476395D01*
X135723609Y-104364889D01*
X135723608Y-104364888D01*
X135723607Y-104364886D01*
X135635114Y-104276393D01*
X135523607Y-104219577D01*
X135523606Y-104219576D01*
X135523603Y-104219575D01*
X135523604Y-104219575D01*
X135400003Y-104199999D01*
X134000000Y-104199999D01*
X132609755Y-104199999D01*
X132590360Y-104198472D01*
X132554205Y-104192746D01*
X132495792Y-104183494D01*
X132458895Y-104171506D01*
X132382383Y-104132521D01*
X132350997Y-104109717D01*
X132290281Y-104049001D01*
X132267477Y-104017615D01*
X132228492Y-103941103D01*
X132216504Y-103904205D01*
X132201527Y-103809640D01*
X132200000Y-103790243D01*
X132200000Y-101809754D01*
X132201527Y-101790357D01*
X132216504Y-101695792D01*
X132228490Y-101658897D01*
X132267479Y-101582378D01*
X132290278Y-101550999D01*
X132351000Y-101490277D01*
X132382379Y-101467478D01*
X132458898Y-101428489D01*
X132495784Y-101416504D01*
X132590370Y-101401524D01*
X132609756Y-101399999D01*
X135200005Y-101399999D01*
X135323604Y-101380423D01*
X135323605Y-101380422D01*
X135323607Y-101380422D01*
X135435114Y-101323606D01*
X135523607Y-101235113D01*
X135580423Y-101123606D01*
X135580423Y-101123604D01*
X135580424Y-101123603D01*
X135600000Y-101000004D01*
X135600000Y-96809754D01*
X135601527Y-96790357D01*
X135616504Y-96695792D01*
X135628490Y-96658897D01*
X135667479Y-96582378D01*
X135690278Y-96550999D01*
X135751000Y-96490277D01*
X135782379Y-96467478D01*
X135858898Y-96428489D01*
X135895784Y-96416504D01*
X135990370Y-96401524D01*
X136009756Y-96399999D01*
X145590245Y-96399999D01*
X145609642Y-96401526D01*
G37*
G04 #@! TD.AperFunction*
G04 #@! TA.AperFunction,Conductor*
G36*
X161409641Y-103201527D02*
G01*
X161504207Y-103216504D01*
X161541102Y-103228491D01*
X161617617Y-103267477D01*
X161649002Y-103290281D01*
X161709718Y-103350997D01*
X161732522Y-103382383D01*
X161771507Y-103458895D01*
X161783495Y-103495792D01*
X161798473Y-103590357D01*
X161800000Y-103609755D01*
X161800000Y-115590244D01*
X161798473Y-115609642D01*
X161783495Y-115704207D01*
X161771507Y-115741104D01*
X161732522Y-115817616D01*
X161709718Y-115849002D01*
X161649002Y-115909718D01*
X161617616Y-115932522D01*
X161541104Y-115971507D01*
X161504207Y-115983495D01*
X161424425Y-115996131D01*
X161409640Y-115998473D01*
X161390244Y-116000000D01*
X148409756Y-116000000D01*
X148390359Y-115998473D01*
X148371258Y-115995447D01*
X148295792Y-115983495D01*
X148258895Y-115971507D01*
X148182383Y-115932522D01*
X148150997Y-115909718D01*
X148090281Y-115849002D01*
X148067477Y-115817616D01*
X148028492Y-115741104D01*
X148016504Y-115704206D01*
X148001527Y-115609641D01*
X148000000Y-115590244D01*
X148000000Y-108609755D01*
X148001527Y-108590358D01*
X148016504Y-108495793D01*
X148028490Y-108458898D01*
X148067479Y-108382379D01*
X148090278Y-108351000D01*
X148151000Y-108290278D01*
X148182379Y-108267479D01*
X148258898Y-108228490D01*
X148295784Y-108216505D01*
X148390370Y-108201525D01*
X148409756Y-108200000D01*
X158600005Y-108200000D01*
X158723604Y-108180424D01*
X158723605Y-108180423D01*
X158723607Y-108180423D01*
X158835114Y-108123607D01*
X158923607Y-108035114D01*
X158980423Y-107923607D01*
X158980423Y-107923605D01*
X158980424Y-107923604D01*
X159000000Y-107800005D01*
X159000000Y-103609755D01*
X159001527Y-103590358D01*
X159016504Y-103495793D01*
X159016505Y-103495792D01*
X159016504Y-103495790D01*
X159028490Y-103458898D01*
X159067479Y-103382379D01*
X159090278Y-103351000D01*
X159151000Y-103290278D01*
X159182379Y-103267479D01*
X159258898Y-103228490D01*
X159295784Y-103216505D01*
X159390370Y-103201525D01*
X159409756Y-103200000D01*
X161390244Y-103200000D01*
X161409641Y-103201527D01*
G37*
G04 #@! TD.AperFunction*
G04 #@! TA.AperFunction,Conductor*
G36*
X115609641Y-88001527D02*
G01*
X115704207Y-88016504D01*
X115741102Y-88028491D01*
X115817617Y-88067477D01*
X115849002Y-88090281D01*
X115909718Y-88150997D01*
X115932522Y-88182383D01*
X115971507Y-88258895D01*
X115983495Y-88295792D01*
X115998473Y-88390357D01*
X116000000Y-88409755D01*
X116000000Y-96190244D01*
X115998473Y-96209642D01*
X115983495Y-96304207D01*
X115971507Y-96341104D01*
X115932522Y-96417616D01*
X115909718Y-96449002D01*
X115849002Y-96509718D01*
X115817616Y-96532522D01*
X115741104Y-96571507D01*
X115704207Y-96583495D01*
X115624425Y-96596131D01*
X115609640Y-96598473D01*
X115590244Y-96600000D01*
X105599995Y-96600000D01*
X105476395Y-96619575D01*
X105402055Y-96657454D01*
X105364886Y-96676393D01*
X105364885Y-96676394D01*
X105364880Y-96676397D01*
X105276397Y-96764880D01*
X105276394Y-96764885D01*
X105219575Y-96876395D01*
X105200000Y-96999994D01*
X105200000Y-98790244D01*
X105198473Y-98809642D01*
X105183495Y-98904207D01*
X105171507Y-98941104D01*
X105132522Y-99017616D01*
X105109718Y-99049002D01*
X105049002Y-99109718D01*
X105017616Y-99132522D01*
X104941104Y-99171507D01*
X104904207Y-99183495D01*
X104824425Y-99196131D01*
X104809640Y-99198473D01*
X104790244Y-99200000D01*
X102809756Y-99200000D01*
X102790359Y-99198473D01*
X102771258Y-99195447D01*
X102695792Y-99183495D01*
X102658895Y-99171507D01*
X102582383Y-99132522D01*
X102550997Y-99109718D01*
X102490281Y-99049002D01*
X102467477Y-99017616D01*
X102428492Y-98941104D01*
X102416504Y-98904206D01*
X102401527Y-98809641D01*
X102400000Y-98790244D01*
X102400000Y-88409755D01*
X102401527Y-88390358D01*
X102416504Y-88295793D01*
X102416505Y-88295792D01*
X102416504Y-88295790D01*
X102428490Y-88258898D01*
X102467479Y-88182379D01*
X102490278Y-88151000D01*
X102551000Y-88090278D01*
X102582379Y-88067479D01*
X102658898Y-88028490D01*
X102695784Y-88016505D01*
X102790370Y-88001525D01*
X102809756Y-88000000D01*
X115590244Y-88000000D01*
X115609641Y-88001527D01*
G37*
G04 #@! TD.AperFunction*
G04 #@! TA.AperFunction,Conductor*
G36*
X145609643Y-126401527D02*
G01*
X145704209Y-126416504D01*
X145741104Y-126428491D01*
X145817619Y-126467477D01*
X145849004Y-126490281D01*
X145909720Y-126550997D01*
X145932524Y-126582383D01*
X145971509Y-126658895D01*
X145983497Y-126695793D01*
X145998474Y-126790358D01*
X146000001Y-126809755D01*
X146000001Y-136390244D01*
X145998474Y-136409642D01*
X145983496Y-136504207D01*
X145971508Y-136541104D01*
X145932523Y-136617616D01*
X145909719Y-136649002D01*
X145849003Y-136709718D01*
X145817617Y-136732522D01*
X145741105Y-136771507D01*
X145704208Y-136783495D01*
X145624426Y-136796131D01*
X145609641Y-136798473D01*
X145590245Y-136800000D01*
X136209756Y-136800000D01*
X136190359Y-136798473D01*
X136171258Y-136795447D01*
X136095792Y-136783495D01*
X136058895Y-136771507D01*
X135982383Y-136732522D01*
X135950997Y-136709718D01*
X135890280Y-136649001D01*
X135867476Y-136617614D01*
X135828493Y-136541104D01*
X135816505Y-136504208D01*
X135801527Y-136409640D01*
X135800000Y-136390242D01*
X135800001Y-134600001D01*
X135788369Y-134526567D01*
X135780424Y-134476396D01*
X135723610Y-134364890D01*
X135723609Y-134364889D01*
X135723608Y-134364887D01*
X135635115Y-134276394D01*
X135523608Y-134219578D01*
X135523607Y-134219577D01*
X135523604Y-134219576D01*
X135523605Y-134219576D01*
X135400004Y-134200000D01*
X134000001Y-134200000D01*
X132609756Y-134200000D01*
X132590361Y-134198473D01*
X132554206Y-134192747D01*
X132495793Y-134183495D01*
X132458896Y-134171507D01*
X132382384Y-134132522D01*
X132350998Y-134109718D01*
X132290282Y-134049002D01*
X132267478Y-134017616D01*
X132228493Y-133941104D01*
X132216505Y-133904206D01*
X132201528Y-133809641D01*
X132200001Y-133790244D01*
X132200001Y-131809755D01*
X132201528Y-131790358D01*
X132216505Y-131695793D01*
X132228491Y-131658898D01*
X132267480Y-131582379D01*
X132290279Y-131551000D01*
X132351001Y-131490278D01*
X132382380Y-131467479D01*
X132458899Y-131428490D01*
X132495785Y-131416505D01*
X132590371Y-131401525D01*
X132609757Y-131400000D01*
X135200006Y-131400000D01*
X135323605Y-131380424D01*
X135323606Y-131380423D01*
X135323608Y-131380423D01*
X135435115Y-131323607D01*
X135523608Y-131235114D01*
X135580424Y-131123607D01*
X135580424Y-131123605D01*
X135580425Y-131123604D01*
X135600001Y-131000005D01*
X135600001Y-126809755D01*
X135601528Y-126790358D01*
X135616505Y-126695793D01*
X135628491Y-126658898D01*
X135667480Y-126582379D01*
X135690279Y-126551000D01*
X135751001Y-126490278D01*
X135782380Y-126467479D01*
X135858899Y-126428490D01*
X135895785Y-126416505D01*
X135990371Y-126401525D01*
X136009757Y-126400000D01*
X145590246Y-126400000D01*
X145609643Y-126401527D01*
G37*
G04 #@! TD.AperFunction*
G04 #@! TA.AperFunction,Conductor*
G36*
X175609641Y-127201527D02*
G01*
X175704207Y-127216504D01*
X175741102Y-127228491D01*
X175817617Y-127267477D01*
X175849002Y-127290281D01*
X175909718Y-127350997D01*
X175932522Y-127382383D01*
X175971507Y-127458895D01*
X175983495Y-127495792D01*
X175998473Y-127590357D01*
X176000000Y-127609755D01*
X176000000Y-137190244D01*
X175998473Y-137209642D01*
X175983495Y-137304207D01*
X175971507Y-137341104D01*
X175932522Y-137417616D01*
X175909718Y-137449002D01*
X175849002Y-137509718D01*
X175817616Y-137532522D01*
X175741104Y-137571507D01*
X175704207Y-137583495D01*
X175624425Y-137596131D01*
X175609640Y-137598473D01*
X175590244Y-137600000D01*
X166009756Y-137600000D01*
X165990359Y-137598473D01*
X165971258Y-137595447D01*
X165895792Y-137583495D01*
X165858895Y-137571507D01*
X165782383Y-137532522D01*
X165750997Y-137509718D01*
X165690281Y-137449002D01*
X165667477Y-137417616D01*
X165628492Y-137341104D01*
X165616504Y-137304206D01*
X165601527Y-137209641D01*
X165600000Y-137190244D01*
X165600000Y-132999994D01*
X165580424Y-132876395D01*
X165580423Y-132876393D01*
X165523607Y-132764886D01*
X165523603Y-132764882D01*
X165523602Y-132764880D01*
X165435119Y-132676397D01*
X165435116Y-132676395D01*
X165435114Y-132676393D01*
X165323607Y-132619577D01*
X165323606Y-132619576D01*
X165323603Y-132619575D01*
X165323604Y-132619575D01*
X165200005Y-132600000D01*
X165200000Y-132600000D01*
X162809756Y-132600000D01*
X162790359Y-132598473D01*
X162771258Y-132595447D01*
X162695792Y-132583495D01*
X162658895Y-132571507D01*
X162582383Y-132532522D01*
X162550997Y-132509718D01*
X162490281Y-132449002D01*
X162467477Y-132417616D01*
X162428492Y-132341104D01*
X162416504Y-132304206D01*
X162401527Y-132209641D01*
X162400000Y-132190244D01*
X162400000Y-130209755D01*
X162401527Y-130190358D01*
X162416504Y-130095793D01*
X162428490Y-130058898D01*
X162467479Y-129982379D01*
X162490278Y-129951000D01*
X162551000Y-129890278D01*
X162582379Y-129867479D01*
X162658898Y-129828490D01*
X162695784Y-129816505D01*
X162790370Y-129801525D01*
X162809756Y-129800000D01*
X165400005Y-129800000D01*
X165523604Y-129780424D01*
X165523605Y-129780423D01*
X165523607Y-129780423D01*
X165635114Y-129723607D01*
X165723607Y-129635114D01*
X165780423Y-129523607D01*
X165780423Y-129523605D01*
X165780424Y-129523604D01*
X165800000Y-129400005D01*
X165800000Y-127609755D01*
X165801527Y-127590358D01*
X165816504Y-127495793D01*
X165816505Y-127495792D01*
X165816504Y-127495790D01*
X165828490Y-127458898D01*
X165867479Y-127382379D01*
X165890278Y-127351000D01*
X165951000Y-127290278D01*
X165982379Y-127267479D01*
X166058898Y-127228490D01*
X166095784Y-127216505D01*
X166190370Y-127201525D01*
X166209756Y-127200000D01*
X175590244Y-127200000D01*
X175609641Y-127201527D01*
G37*
G04 #@! TD.AperFunction*
G04 #@! TA.AperFunction,Conductor*
G36*
X101409641Y-103201527D02*
G01*
X101504207Y-103216504D01*
X101541102Y-103228491D01*
X101617617Y-103267477D01*
X101649002Y-103290281D01*
X101709718Y-103350997D01*
X101732522Y-103382383D01*
X101771507Y-103458895D01*
X101783495Y-103495792D01*
X101798473Y-103590357D01*
X101800000Y-103609755D01*
X101800000Y-115590244D01*
X101798473Y-115609642D01*
X101783495Y-115704207D01*
X101771507Y-115741104D01*
X101732522Y-115817616D01*
X101709718Y-115849002D01*
X101649002Y-115909718D01*
X101617616Y-115932522D01*
X101541104Y-115971507D01*
X101504207Y-115983495D01*
X101424425Y-115996131D01*
X101409640Y-115998473D01*
X101390244Y-116000000D01*
X88409756Y-116000000D01*
X88390359Y-115998473D01*
X88371258Y-115995447D01*
X88295792Y-115983495D01*
X88258895Y-115971507D01*
X88182383Y-115932522D01*
X88150997Y-115909718D01*
X88090281Y-115849002D01*
X88067477Y-115817616D01*
X88028492Y-115741104D01*
X88016504Y-115704206D01*
X88001527Y-115609641D01*
X88000000Y-115590244D01*
X88000000Y-108609755D01*
X88001527Y-108590358D01*
X88016504Y-108495793D01*
X88028490Y-108458898D01*
X88067479Y-108382379D01*
X88090278Y-108351000D01*
X88151000Y-108290278D01*
X88182379Y-108267479D01*
X88258898Y-108228490D01*
X88295784Y-108216505D01*
X88390370Y-108201525D01*
X88409756Y-108200000D01*
X98600005Y-108200000D01*
X98723604Y-108180424D01*
X98723605Y-108180423D01*
X98723607Y-108180423D01*
X98835114Y-108123607D01*
X98923607Y-108035114D01*
X98980423Y-107923607D01*
X98980423Y-107923605D01*
X98980424Y-107923604D01*
X99000000Y-107800005D01*
X99000000Y-103609755D01*
X99001527Y-103590358D01*
X99016504Y-103495793D01*
X99016505Y-103495792D01*
X99016504Y-103495790D01*
X99028490Y-103458898D01*
X99067479Y-103382379D01*
X99090278Y-103351000D01*
X99151000Y-103290278D01*
X99182379Y-103267479D01*
X99258898Y-103228490D01*
X99295784Y-103216505D01*
X99390370Y-103201525D01*
X99409756Y-103200000D01*
X101390244Y-103200000D01*
X101409641Y-103201527D01*
G37*
G04 #@! TD.AperFunction*
G04 #@! TA.AperFunction,Conductor*
G36*
X145609642Y-88001526D02*
G01*
X145704208Y-88016503D01*
X145741103Y-88028490D01*
X145817618Y-88067476D01*
X145849003Y-88090280D01*
X145909719Y-88150996D01*
X145932523Y-88182382D01*
X145971508Y-88258894D01*
X145983496Y-88295791D01*
X145998474Y-88390356D01*
X146000001Y-88409754D01*
X146000001Y-95390243D01*
X145998474Y-95409641D01*
X145983496Y-95504206D01*
X145971508Y-95541103D01*
X145932523Y-95617615D01*
X145909719Y-95649001D01*
X145849003Y-95709717D01*
X145817617Y-95732521D01*
X145741105Y-95771506D01*
X145704208Y-95783494D01*
X145624426Y-95796130D01*
X145609641Y-95798472D01*
X145590245Y-95799999D01*
X135399995Y-95799999D01*
X135276395Y-95819574D01*
X135202055Y-95857453D01*
X135164886Y-95876392D01*
X135164885Y-95876393D01*
X135164880Y-95876396D01*
X135076397Y-95964879D01*
X135076394Y-95964884D01*
X135019575Y-96076394D01*
X135000000Y-96199993D01*
X135000000Y-100390244D01*
X134998473Y-100409642D01*
X134983495Y-100504207D01*
X134971507Y-100541104D01*
X134932522Y-100617616D01*
X134909718Y-100649002D01*
X134849002Y-100709718D01*
X134817616Y-100732522D01*
X134741104Y-100771507D01*
X134704207Y-100783495D01*
X134624425Y-100796131D01*
X134609640Y-100798473D01*
X134590244Y-100800000D01*
X132609756Y-100800000D01*
X132590359Y-100798473D01*
X132571258Y-100795447D01*
X132495792Y-100783495D01*
X132458895Y-100771507D01*
X132382383Y-100732522D01*
X132350997Y-100709718D01*
X132290281Y-100649002D01*
X132267477Y-100617616D01*
X132228492Y-100541104D01*
X132216504Y-100504206D01*
X132201527Y-100409641D01*
X132200000Y-100390244D01*
X132200000Y-98200000D01*
X132200001Y-94399999D01*
X132199999Y-88409754D01*
X132201526Y-88390357D01*
X132216503Y-88295792D01*
X132216504Y-88295791D01*
X132216503Y-88295789D01*
X132228489Y-88258897D01*
X132267478Y-88182378D01*
X132290277Y-88150999D01*
X132350999Y-88090277D01*
X132382378Y-88067478D01*
X132458897Y-88028489D01*
X132495783Y-88016504D01*
X132590369Y-88001524D01*
X132609755Y-87999999D01*
X145590245Y-87999999D01*
X145609642Y-88001526D01*
G37*
G04 #@! TD.AperFunction*
G04 #@! TA.AperFunction,Conductor*
G36*
X97809641Y-97201527D02*
G01*
X97904207Y-97216504D01*
X97941102Y-97228491D01*
X98017617Y-97267477D01*
X98049002Y-97290281D01*
X98109718Y-97350997D01*
X98132522Y-97382383D01*
X98171507Y-97458895D01*
X98183495Y-97495792D01*
X98198473Y-97590357D01*
X98200000Y-97609755D01*
X98200000Y-99400005D01*
X98219575Y-99523604D01*
X98219577Y-99523607D01*
X98276393Y-99635114D01*
X98276395Y-99635116D01*
X98276397Y-99635119D01*
X98364880Y-99723602D01*
X98364882Y-99723603D01*
X98364886Y-99723607D01*
X98476393Y-99780423D01*
X98476394Y-99780423D01*
X98476396Y-99780424D01*
X98476395Y-99780424D01*
X98599995Y-99800000D01*
X98600000Y-99800000D01*
X101390244Y-99800000D01*
X101409641Y-99801527D01*
X101504207Y-99816504D01*
X101541102Y-99828491D01*
X101617617Y-99867477D01*
X101649002Y-99890281D01*
X101709718Y-99950997D01*
X101732522Y-99982383D01*
X101771507Y-100058895D01*
X101783495Y-100095792D01*
X101798473Y-100190357D01*
X101800000Y-100209755D01*
X101800000Y-102190244D01*
X101798473Y-102209642D01*
X101783495Y-102304207D01*
X101771507Y-102341104D01*
X101732522Y-102417616D01*
X101709718Y-102449002D01*
X101649002Y-102509718D01*
X101617616Y-102532522D01*
X101541104Y-102571507D01*
X101504207Y-102583495D01*
X101424425Y-102596131D01*
X101409640Y-102598473D01*
X101390244Y-102600000D01*
X98799995Y-102600000D01*
X98676395Y-102619575D01*
X98602055Y-102657454D01*
X98564886Y-102676393D01*
X98564885Y-102676394D01*
X98564880Y-102676397D01*
X98476397Y-102764880D01*
X98476394Y-102764885D01*
X98419575Y-102876395D01*
X98400000Y-102999994D01*
X98400000Y-107190244D01*
X98398473Y-107209642D01*
X98383495Y-107304207D01*
X98371507Y-107341104D01*
X98332522Y-107417616D01*
X98309718Y-107449002D01*
X98249002Y-107509718D01*
X98217616Y-107532522D01*
X98141104Y-107571507D01*
X98104207Y-107583495D01*
X98024425Y-107596131D01*
X98009640Y-107598473D01*
X97990244Y-107600000D01*
X88409756Y-107600000D01*
X88390359Y-107598473D01*
X88371258Y-107595447D01*
X88295792Y-107583495D01*
X88258895Y-107571507D01*
X88182383Y-107532522D01*
X88150997Y-107509718D01*
X88090281Y-107449002D01*
X88067477Y-107417616D01*
X88028492Y-107341104D01*
X88016504Y-107304206D01*
X88001527Y-107209641D01*
X88000000Y-107190244D01*
X88000000Y-97609755D01*
X88001527Y-97590358D01*
X88016504Y-97495793D01*
X88016505Y-97495792D01*
X88016504Y-97495790D01*
X88028490Y-97458898D01*
X88067479Y-97382379D01*
X88090278Y-97351000D01*
X88151000Y-97290278D01*
X88182379Y-97267479D01*
X88258898Y-97228490D01*
X88295784Y-97216505D01*
X88390370Y-97201525D01*
X88409756Y-97200000D01*
X97790244Y-97200000D01*
X97809641Y-97201527D01*
G37*
G04 #@! TD.AperFunction*
G04 #@! TA.AperFunction,Conductor*
G36*
X161409641Y-133201527D02*
G01*
X161504207Y-133216504D01*
X161541102Y-133228491D01*
X161617617Y-133267477D01*
X161649002Y-133290281D01*
X161709718Y-133350997D01*
X161732522Y-133382383D01*
X161771507Y-133458895D01*
X161783495Y-133495792D01*
X161798473Y-133590357D01*
X161800000Y-133609755D01*
X161800000Y-145590244D01*
X161798473Y-145609642D01*
X161783495Y-145704207D01*
X161771507Y-145741104D01*
X161732522Y-145817616D01*
X161709718Y-145849002D01*
X161649002Y-145909718D01*
X161617616Y-145932522D01*
X161541104Y-145971507D01*
X161504207Y-145983495D01*
X161424425Y-145996131D01*
X161409640Y-145998473D01*
X161390244Y-146000000D01*
X148409756Y-146000000D01*
X148390359Y-145998473D01*
X148371258Y-145995447D01*
X148295792Y-145983495D01*
X148258895Y-145971507D01*
X148182383Y-145932522D01*
X148150997Y-145909718D01*
X148090281Y-145849002D01*
X148067477Y-145817616D01*
X148028492Y-145741104D01*
X148016504Y-145704206D01*
X148001527Y-145609641D01*
X148000000Y-145590244D01*
X148000000Y-138609755D01*
X148001527Y-138590358D01*
X148016504Y-138495793D01*
X148028490Y-138458898D01*
X148067479Y-138382379D01*
X148090278Y-138351000D01*
X148151000Y-138290278D01*
X148182379Y-138267479D01*
X148258898Y-138228490D01*
X148295784Y-138216505D01*
X148390370Y-138201525D01*
X148409756Y-138200000D01*
X158600005Y-138200000D01*
X158723604Y-138180424D01*
X158723605Y-138180423D01*
X158723607Y-138180423D01*
X158835114Y-138123607D01*
X158923607Y-138035114D01*
X158980423Y-137923607D01*
X158980423Y-137923605D01*
X158980424Y-137923604D01*
X159000000Y-137800005D01*
X159000000Y-133609755D01*
X159001527Y-133590358D01*
X159016504Y-133495793D01*
X159016505Y-133495792D01*
X159016504Y-133495790D01*
X159028490Y-133458898D01*
X159067479Y-133382379D01*
X159090278Y-133351000D01*
X159151000Y-133290278D01*
X159182379Y-133267479D01*
X159258898Y-133228490D01*
X159295784Y-133216505D01*
X159390370Y-133201525D01*
X159409756Y-133200000D01*
X161390244Y-133200000D01*
X161409641Y-133201527D01*
G37*
G04 #@! TD.AperFunction*
G04 #@! TA.AperFunction,Conductor*
G36*
X97809641Y-127201527D02*
G01*
X97904207Y-127216504D01*
X97941102Y-127228491D01*
X98017617Y-127267477D01*
X98049002Y-127290281D01*
X98109718Y-127350997D01*
X98132522Y-127382383D01*
X98171507Y-127458895D01*
X98183495Y-127495792D01*
X98198473Y-127590357D01*
X98200000Y-127609755D01*
X98200000Y-129400005D01*
X98219575Y-129523604D01*
X98219577Y-129523607D01*
X98276393Y-129635114D01*
X98276395Y-129635116D01*
X98276397Y-129635119D01*
X98364880Y-129723602D01*
X98364882Y-129723603D01*
X98364886Y-129723607D01*
X98476393Y-129780423D01*
X98476394Y-129780423D01*
X98476396Y-129780424D01*
X98476395Y-129780424D01*
X98599995Y-129800000D01*
X98600000Y-129800000D01*
X101390244Y-129800000D01*
X101409641Y-129801527D01*
X101504207Y-129816504D01*
X101541102Y-129828491D01*
X101617617Y-129867477D01*
X101649002Y-129890281D01*
X101709718Y-129950997D01*
X101732522Y-129982383D01*
X101771507Y-130058895D01*
X101783495Y-130095792D01*
X101798473Y-130190357D01*
X101800000Y-130209755D01*
X101800000Y-132190244D01*
X101798473Y-132209642D01*
X101783495Y-132304207D01*
X101771507Y-132341104D01*
X101732522Y-132417616D01*
X101709718Y-132449002D01*
X101649002Y-132509718D01*
X101617616Y-132532522D01*
X101541104Y-132571507D01*
X101504207Y-132583495D01*
X101424425Y-132596131D01*
X101409640Y-132598473D01*
X101390244Y-132600000D01*
X98799995Y-132600000D01*
X98676395Y-132619575D01*
X98602055Y-132657454D01*
X98564886Y-132676393D01*
X98564885Y-132676394D01*
X98564880Y-132676397D01*
X98476397Y-132764880D01*
X98476394Y-132764885D01*
X98419575Y-132876395D01*
X98400000Y-132999994D01*
X98400000Y-137190244D01*
X98398473Y-137209642D01*
X98383495Y-137304207D01*
X98371507Y-137341104D01*
X98332522Y-137417616D01*
X98309718Y-137449002D01*
X98249002Y-137509718D01*
X98217616Y-137532522D01*
X98141104Y-137571507D01*
X98104207Y-137583495D01*
X98024425Y-137596131D01*
X98009640Y-137598473D01*
X97990244Y-137600000D01*
X88409756Y-137600000D01*
X88390359Y-137598473D01*
X88371258Y-137595447D01*
X88295792Y-137583495D01*
X88258895Y-137571507D01*
X88182383Y-137532522D01*
X88150997Y-137509718D01*
X88090281Y-137449002D01*
X88067477Y-137417616D01*
X88028492Y-137341104D01*
X88016504Y-137304206D01*
X88001527Y-137209641D01*
X88000000Y-137190244D01*
X88000000Y-127609755D01*
X88001527Y-127590358D01*
X88016504Y-127495793D01*
X88016505Y-127495792D01*
X88016504Y-127495790D01*
X88028490Y-127458898D01*
X88067479Y-127382379D01*
X88090278Y-127351000D01*
X88151000Y-127290278D01*
X88182379Y-127267479D01*
X88258898Y-127228490D01*
X88295784Y-127216505D01*
X88390370Y-127201525D01*
X88409756Y-127200000D01*
X97790244Y-127200000D01*
X97809641Y-127201527D01*
G37*
G04 #@! TD.AperFunction*
G04 #@! TA.AperFunction,Conductor*
G36*
X161409641Y-88001527D02*
G01*
X161504207Y-88016504D01*
X161541102Y-88028491D01*
X161617617Y-88067477D01*
X161649002Y-88090281D01*
X161709718Y-88150997D01*
X161732522Y-88182383D01*
X161771507Y-88258895D01*
X161783495Y-88295792D01*
X161798473Y-88390357D01*
X161800000Y-88409755D01*
X161800000Y-98790244D01*
X161798473Y-98809642D01*
X161783495Y-98904207D01*
X161771507Y-98941104D01*
X161732522Y-99017616D01*
X161709718Y-99049002D01*
X161649002Y-99109718D01*
X161617616Y-99132522D01*
X161541104Y-99171507D01*
X161504207Y-99183495D01*
X161424425Y-99196131D01*
X161409640Y-99198473D01*
X161390244Y-99200000D01*
X159209756Y-99200000D01*
X159190359Y-99198473D01*
X159171258Y-99195447D01*
X159095792Y-99183495D01*
X159058895Y-99171507D01*
X158982383Y-99132522D01*
X158950997Y-99109718D01*
X158890281Y-99049002D01*
X158867477Y-99017616D01*
X158828492Y-98941104D01*
X158816504Y-98904206D01*
X158801527Y-98809641D01*
X158800000Y-98790244D01*
X158800000Y-96999994D01*
X158780424Y-96876395D01*
X158780423Y-96876393D01*
X158723607Y-96764886D01*
X158723603Y-96764882D01*
X158723602Y-96764880D01*
X158635119Y-96676397D01*
X158635116Y-96676395D01*
X158635114Y-96676393D01*
X158523607Y-96619577D01*
X158523606Y-96619576D01*
X158523603Y-96619575D01*
X158523604Y-96619575D01*
X158400005Y-96600000D01*
X158400000Y-96600000D01*
X148409756Y-96600000D01*
X148390359Y-96598473D01*
X148371258Y-96595447D01*
X148295792Y-96583495D01*
X148258895Y-96571507D01*
X148182383Y-96532522D01*
X148150997Y-96509718D01*
X148090281Y-96449002D01*
X148067477Y-96417616D01*
X148028492Y-96341104D01*
X148016504Y-96304206D01*
X148001527Y-96209641D01*
X148000000Y-96190244D01*
X148000000Y-88409755D01*
X148001527Y-88390358D01*
X148016504Y-88295793D01*
X148016505Y-88295792D01*
X148016504Y-88295790D01*
X148028490Y-88258898D01*
X148067479Y-88182379D01*
X148090278Y-88151000D01*
X148151000Y-88090278D01*
X148182379Y-88067479D01*
X148258898Y-88028490D01*
X148295784Y-88016505D01*
X148390370Y-88001525D01*
X148409756Y-88000000D01*
X161390244Y-88000000D01*
X161409641Y-88001527D01*
G37*
G04 #@! TD.AperFunction*
G04 #@! TA.AperFunction,Conductor*
G36*
X128009641Y-96401526D02*
G01*
X128104207Y-96416503D01*
X128141102Y-96428490D01*
X128217617Y-96467476D01*
X128249002Y-96490280D01*
X128309718Y-96550996D01*
X128332522Y-96582382D01*
X128371507Y-96658894D01*
X128383495Y-96695791D01*
X128398473Y-96790356D01*
X128400000Y-96809754D01*
X128400000Y-101000005D01*
X128419575Y-101123604D01*
X128419577Y-101123607D01*
X128476393Y-101235114D01*
X128476395Y-101235116D01*
X128476397Y-101235119D01*
X128564880Y-101323602D01*
X128564882Y-101323603D01*
X128564886Y-101323607D01*
X128676393Y-101380423D01*
X128676394Y-101380423D01*
X128676396Y-101380424D01*
X128676395Y-101380424D01*
X128799994Y-101399999D01*
X128800000Y-101400000D01*
X131190244Y-101399999D01*
X131209641Y-101401526D01*
X131304207Y-101416503D01*
X131341102Y-101428490D01*
X131417617Y-101467476D01*
X131449002Y-101490280D01*
X131509718Y-101550996D01*
X131532522Y-101582382D01*
X131571507Y-101658894D01*
X131583495Y-101695791D01*
X131598473Y-101790356D01*
X131600000Y-101809754D01*
X131600000Y-103790243D01*
X131598473Y-103809641D01*
X131583495Y-103904206D01*
X131571507Y-103941103D01*
X131532522Y-104017615D01*
X131509718Y-104049001D01*
X131449002Y-104109717D01*
X131417616Y-104132521D01*
X131341104Y-104171506D01*
X131304207Y-104183494D01*
X131224425Y-104196130D01*
X131209640Y-104198472D01*
X131190244Y-104199999D01*
X128599995Y-104199999D01*
X128476395Y-104219574D01*
X128402055Y-104257453D01*
X128364886Y-104276392D01*
X128364885Y-104276393D01*
X128364884Y-104276393D01*
X128276390Y-104364888D01*
X128219576Y-104476394D01*
X128200000Y-104599999D01*
X128200000Y-106390241D01*
X128198473Y-106409639D01*
X128183495Y-106504207D01*
X128171507Y-106541103D01*
X128132524Y-106617613D01*
X128109720Y-106649000D01*
X128049003Y-106709717D01*
X128017617Y-106732521D01*
X127941105Y-106771506D01*
X127904208Y-106783494D01*
X127824426Y-106796130D01*
X127809641Y-106798472D01*
X127790245Y-106799999D01*
X118409756Y-106799999D01*
X118390359Y-106798472D01*
X118371258Y-106795446D01*
X118295792Y-106783494D01*
X118258895Y-106771506D01*
X118182383Y-106732521D01*
X118150997Y-106709717D01*
X118090281Y-106649001D01*
X118067477Y-106617615D01*
X118028492Y-106541103D01*
X118016504Y-106504208D01*
X118001524Y-106409627D01*
X117999999Y-106390255D01*
X117999999Y-96809753D01*
X118001526Y-96790357D01*
X118016503Y-96695792D01*
X118016504Y-96695791D01*
X118016503Y-96695789D01*
X118028489Y-96658897D01*
X118067478Y-96582378D01*
X118090277Y-96550999D01*
X118150999Y-96490277D01*
X118182378Y-96467478D01*
X118258897Y-96428489D01*
X118295783Y-96416504D01*
X118390369Y-96401524D01*
X118409755Y-96399999D01*
X127990244Y-96399999D01*
X128009641Y-96401526D01*
G37*
G04 #@! TD.AperFunction*
G04 #@! TA.AperFunction,Conductor*
G36*
X145609643Y-118001527D02*
G01*
X145704209Y-118016504D01*
X145741104Y-118028491D01*
X145817619Y-118067477D01*
X145849004Y-118090281D01*
X145909720Y-118150997D01*
X145932524Y-118182383D01*
X145971509Y-118258895D01*
X145983497Y-118295792D01*
X145998475Y-118390357D01*
X146000002Y-118409755D01*
X146000002Y-125390244D01*
X145998475Y-125409642D01*
X145983497Y-125504207D01*
X145971509Y-125541104D01*
X145932524Y-125617616D01*
X145909720Y-125649002D01*
X145849004Y-125709718D01*
X145817618Y-125732522D01*
X145741106Y-125771507D01*
X145704209Y-125783495D01*
X145624427Y-125796131D01*
X145609642Y-125798473D01*
X145590246Y-125800000D01*
X135399996Y-125800000D01*
X135276396Y-125819575D01*
X135202056Y-125857454D01*
X135164887Y-125876393D01*
X135164886Y-125876394D01*
X135164881Y-125876397D01*
X135076398Y-125964880D01*
X135076395Y-125964885D01*
X135019576Y-126076395D01*
X135000001Y-126199994D01*
X135000001Y-130390245D01*
X134998474Y-130409643D01*
X134983496Y-130504208D01*
X134971508Y-130541105D01*
X134932523Y-130617617D01*
X134909719Y-130649003D01*
X134849003Y-130709719D01*
X134817617Y-130732523D01*
X134741105Y-130771508D01*
X134704208Y-130783496D01*
X134624426Y-130796132D01*
X134609641Y-130798474D01*
X134590245Y-130800001D01*
X132609757Y-130800001D01*
X132590360Y-130798474D01*
X132571259Y-130795448D01*
X132495793Y-130783496D01*
X132458896Y-130771508D01*
X132382384Y-130732523D01*
X132350998Y-130709719D01*
X132290282Y-130649003D01*
X132267478Y-130617617D01*
X132228493Y-130541105D01*
X132216505Y-130504207D01*
X132201528Y-130409642D01*
X132200001Y-130390245D01*
X132200001Y-128200001D01*
X132200002Y-124400000D01*
X132200000Y-118409755D01*
X132201527Y-118390358D01*
X132216504Y-118295793D01*
X132216505Y-118295792D01*
X132216504Y-118295790D01*
X132228490Y-118258898D01*
X132267479Y-118182379D01*
X132290278Y-118151000D01*
X132351000Y-118090278D01*
X132382379Y-118067479D01*
X132458898Y-118028490D01*
X132495784Y-118016505D01*
X132590370Y-118001525D01*
X132609756Y-118000000D01*
X145590246Y-118000000D01*
X145609643Y-118001527D01*
G37*
G04 #@! TD.AperFunction*
G04 #@! TA.AperFunction,Conductor*
G36*
X104609641Y-133201527D02*
G01*
X104704207Y-133216504D01*
X104741102Y-133228491D01*
X104817617Y-133267477D01*
X104849002Y-133290281D01*
X104909718Y-133350997D01*
X104932522Y-133382383D01*
X104971507Y-133458895D01*
X104983495Y-133495792D01*
X104998473Y-133590357D01*
X105000000Y-133609755D01*
X105000000Y-137800005D01*
X105019575Y-137923604D01*
X105019577Y-137923607D01*
X105076393Y-138035114D01*
X105076395Y-138035116D01*
X105076397Y-138035119D01*
X105164880Y-138123602D01*
X105164882Y-138123603D01*
X105164886Y-138123607D01*
X105276393Y-138180423D01*
X105276394Y-138180423D01*
X105276396Y-138180424D01*
X105276395Y-138180424D01*
X105399995Y-138200000D01*
X105400000Y-138200000D01*
X115590244Y-138200000D01*
X115609641Y-138201527D01*
X115704207Y-138216504D01*
X115741102Y-138228491D01*
X115817617Y-138267477D01*
X115849002Y-138290281D01*
X115909718Y-138350997D01*
X115932522Y-138382383D01*
X115971507Y-138458895D01*
X115983495Y-138495792D01*
X115998473Y-138590357D01*
X116000000Y-138609755D01*
X116000000Y-145590244D01*
X115998473Y-145609642D01*
X115983495Y-145704207D01*
X115971507Y-145741104D01*
X115932522Y-145817616D01*
X115909718Y-145849002D01*
X115849002Y-145909718D01*
X115817616Y-145932522D01*
X115741104Y-145971507D01*
X115704207Y-145983495D01*
X115624425Y-145996131D01*
X115609640Y-145998473D01*
X115590244Y-146000000D01*
X102809756Y-146000000D01*
X102790359Y-145998473D01*
X102771258Y-145995447D01*
X102695792Y-145983495D01*
X102658895Y-145971507D01*
X102582383Y-145932522D01*
X102550997Y-145909718D01*
X102490281Y-145849002D01*
X102467477Y-145817616D01*
X102428492Y-145741104D01*
X102416504Y-145704206D01*
X102401527Y-145609641D01*
X102400000Y-145590244D01*
X102400000Y-133609755D01*
X102401527Y-133590358D01*
X102416504Y-133495793D01*
X102416505Y-133495792D01*
X102416504Y-133495790D01*
X102428490Y-133458898D01*
X102467479Y-133382379D01*
X102490278Y-133351000D01*
X102551000Y-133290278D01*
X102582379Y-133267479D01*
X102658898Y-133228490D01*
X102695784Y-133216505D01*
X102790370Y-133201525D01*
X102809756Y-133200000D01*
X104590244Y-133200000D01*
X104609641Y-133201527D01*
G37*
G04 #@! TD.AperFunction*
G04 #@! TA.AperFunction,Conductor*
G36*
X101409641Y-88001527D02*
G01*
X101504207Y-88016504D01*
X101541102Y-88028491D01*
X101617617Y-88067477D01*
X101649002Y-88090281D01*
X101709718Y-88150997D01*
X101732522Y-88182383D01*
X101771507Y-88258895D01*
X101783495Y-88295792D01*
X101798473Y-88390357D01*
X101800000Y-88409755D01*
X101800000Y-98790244D01*
X101798473Y-98809642D01*
X101783495Y-98904207D01*
X101771507Y-98941104D01*
X101732522Y-99017616D01*
X101709718Y-99049002D01*
X101649002Y-99109718D01*
X101617616Y-99132522D01*
X101541104Y-99171507D01*
X101504207Y-99183495D01*
X101424425Y-99196131D01*
X101409640Y-99198473D01*
X101390244Y-99200000D01*
X99209756Y-99200000D01*
X99190359Y-99198473D01*
X99171258Y-99195447D01*
X99095792Y-99183495D01*
X99058895Y-99171507D01*
X98982383Y-99132522D01*
X98950997Y-99109718D01*
X98890281Y-99049002D01*
X98867477Y-99017616D01*
X98828492Y-98941104D01*
X98816504Y-98904206D01*
X98801527Y-98809641D01*
X98800000Y-98790244D01*
X98800000Y-96999994D01*
X98780424Y-96876395D01*
X98780423Y-96876393D01*
X98723607Y-96764886D01*
X98723603Y-96764882D01*
X98723602Y-96764880D01*
X98635119Y-96676397D01*
X98635116Y-96676395D01*
X98635114Y-96676393D01*
X98523607Y-96619577D01*
X98523606Y-96619576D01*
X98523603Y-96619575D01*
X98523604Y-96619575D01*
X98400005Y-96600000D01*
X98400000Y-96600000D01*
X88409756Y-96600000D01*
X88390359Y-96598473D01*
X88371258Y-96595447D01*
X88295792Y-96583495D01*
X88258895Y-96571507D01*
X88182383Y-96532522D01*
X88150997Y-96509718D01*
X88090281Y-96449002D01*
X88067477Y-96417616D01*
X88028492Y-96341104D01*
X88016504Y-96304206D01*
X88001527Y-96209641D01*
X88000000Y-96190244D01*
X88000000Y-88409755D01*
X88001527Y-88390358D01*
X88016504Y-88295793D01*
X88016505Y-88295792D01*
X88016504Y-88295790D01*
X88028490Y-88258898D01*
X88067479Y-88182379D01*
X88090278Y-88151000D01*
X88151000Y-88090278D01*
X88182379Y-88067479D01*
X88258898Y-88028490D01*
X88295784Y-88016505D01*
X88390370Y-88001525D01*
X88409756Y-88000000D01*
X101390244Y-88000000D01*
X101409641Y-88001527D01*
G37*
G04 #@! TD.AperFunction*
G04 #@! TA.AperFunction,Conductor*
G36*
X131209641Y-118001527D02*
G01*
X131304207Y-118016504D01*
X131341102Y-118028491D01*
X131417617Y-118067477D01*
X131449002Y-118090281D01*
X131509718Y-118150997D01*
X131532522Y-118182383D01*
X131571507Y-118258895D01*
X131583495Y-118295792D01*
X131598473Y-118390357D01*
X131600000Y-118409755D01*
X131600000Y-130390245D01*
X131598473Y-130409642D01*
X131583496Y-130504207D01*
X131571508Y-130541105D01*
X131532523Y-130617617D01*
X131509719Y-130649003D01*
X131449003Y-130709719D01*
X131417617Y-130732523D01*
X131341105Y-130771508D01*
X131304208Y-130783496D01*
X131224426Y-130796132D01*
X131209641Y-130798474D01*
X131190245Y-130800001D01*
X129409757Y-130800001D01*
X129390360Y-130798474D01*
X129371259Y-130795448D01*
X129295793Y-130783496D01*
X129258896Y-130771508D01*
X129182384Y-130732523D01*
X129150998Y-130709719D01*
X129090282Y-130649003D01*
X129067478Y-130617617D01*
X129028493Y-130541105D01*
X129016505Y-130504207D01*
X129001528Y-130409642D01*
X129000001Y-130390245D01*
X129000001Y-126199994D01*
X128980425Y-126076395D01*
X128980424Y-126076393D01*
X128923608Y-125964886D01*
X128923604Y-125964882D01*
X128923603Y-125964880D01*
X128835120Y-125876397D01*
X128835117Y-125876395D01*
X128835115Y-125876393D01*
X128723608Y-125819577D01*
X128723607Y-125819576D01*
X128723604Y-125819575D01*
X128723605Y-125819575D01*
X128600006Y-125800000D01*
X128600001Y-125800000D01*
X118409756Y-125800000D01*
X118390359Y-125798473D01*
X118371258Y-125795447D01*
X118295792Y-125783495D01*
X118258895Y-125771507D01*
X118182383Y-125732522D01*
X118150997Y-125709718D01*
X118090281Y-125649002D01*
X118067477Y-125617616D01*
X118028492Y-125541104D01*
X118016504Y-125504206D01*
X118001527Y-125409641D01*
X118000000Y-125390244D01*
X118000000Y-118409755D01*
X118001527Y-118390358D01*
X118016504Y-118295793D01*
X118016505Y-118295792D01*
X118016504Y-118295790D01*
X118028490Y-118258898D01*
X118067479Y-118182379D01*
X118090278Y-118151000D01*
X118151000Y-118090278D01*
X118182379Y-118067479D01*
X118258898Y-118028490D01*
X118295784Y-118016505D01*
X118390370Y-118001525D01*
X118409756Y-118000000D01*
X131190244Y-118000000D01*
X131209641Y-118001527D01*
G37*
G04 #@! TD.AperFunction*
G04 #@! TA.AperFunction,Conductor*
G36*
X175609641Y-118001527D02*
G01*
X175704207Y-118016504D01*
X175741102Y-118028491D01*
X175817617Y-118067477D01*
X175849002Y-118090281D01*
X175909718Y-118150997D01*
X175932522Y-118182383D01*
X175971507Y-118258895D01*
X175983495Y-118295792D01*
X175998473Y-118390357D01*
X176000000Y-118409755D01*
X176000000Y-126190244D01*
X175998473Y-126209642D01*
X175983495Y-126304207D01*
X175971507Y-126341104D01*
X175932522Y-126417616D01*
X175909718Y-126449002D01*
X175849002Y-126509718D01*
X175817616Y-126532522D01*
X175741104Y-126571507D01*
X175704207Y-126583495D01*
X175624425Y-126596131D01*
X175609640Y-126598473D01*
X175590244Y-126600000D01*
X165599995Y-126600000D01*
X165476395Y-126619575D01*
X165402055Y-126657454D01*
X165364886Y-126676393D01*
X165364885Y-126676394D01*
X165364880Y-126676397D01*
X165276397Y-126764880D01*
X165276394Y-126764885D01*
X165219575Y-126876395D01*
X165200000Y-126999994D01*
X165200000Y-128790244D01*
X165198473Y-128809642D01*
X165183495Y-128904207D01*
X165171507Y-128941104D01*
X165132522Y-129017616D01*
X165109718Y-129049002D01*
X165049002Y-129109718D01*
X165017616Y-129132522D01*
X164941104Y-129171507D01*
X164904207Y-129183495D01*
X164824425Y-129196131D01*
X164809640Y-129198473D01*
X164790244Y-129200000D01*
X162809756Y-129200000D01*
X162790359Y-129198473D01*
X162771258Y-129195447D01*
X162695792Y-129183495D01*
X162658895Y-129171507D01*
X162582383Y-129132522D01*
X162550997Y-129109718D01*
X162490281Y-129049002D01*
X162467477Y-129017616D01*
X162428492Y-128941104D01*
X162416504Y-128904206D01*
X162401527Y-128809641D01*
X162400000Y-128790244D01*
X162400000Y-118409755D01*
X162401527Y-118390358D01*
X162416504Y-118295793D01*
X162416505Y-118295792D01*
X162416504Y-118295790D01*
X162428490Y-118258898D01*
X162467479Y-118182379D01*
X162490278Y-118151000D01*
X162551000Y-118090278D01*
X162582379Y-118067479D01*
X162658898Y-118028490D01*
X162695784Y-118016505D01*
X162790370Y-118001525D01*
X162809756Y-118000000D01*
X175590244Y-118000000D01*
X175609641Y-118001527D01*
G37*
G04 #@! TD.AperFunction*
G04 #@! TA.AperFunction,Conductor*
G36*
X115609641Y-118001527D02*
G01*
X115704207Y-118016504D01*
X115741102Y-118028491D01*
X115817617Y-118067477D01*
X115849002Y-118090281D01*
X115909718Y-118150997D01*
X115932522Y-118182383D01*
X115971507Y-118258895D01*
X115983495Y-118295792D01*
X115998473Y-118390357D01*
X116000000Y-118409755D01*
X116000000Y-126190244D01*
X115998473Y-126209642D01*
X115983495Y-126304207D01*
X115971507Y-126341104D01*
X115932522Y-126417616D01*
X115909718Y-126449002D01*
X115849002Y-126509718D01*
X115817616Y-126532522D01*
X115741104Y-126571507D01*
X115704207Y-126583495D01*
X115624425Y-126596131D01*
X115609640Y-126598473D01*
X115590244Y-126600000D01*
X105599995Y-126600000D01*
X105476395Y-126619575D01*
X105402055Y-126657454D01*
X105364886Y-126676393D01*
X105364885Y-126676394D01*
X105364880Y-126676397D01*
X105276397Y-126764880D01*
X105276394Y-126764885D01*
X105219575Y-126876395D01*
X105200000Y-126999994D01*
X105200000Y-128790244D01*
X105198473Y-128809642D01*
X105183495Y-128904207D01*
X105171507Y-128941104D01*
X105132522Y-129017616D01*
X105109718Y-129049002D01*
X105049002Y-129109718D01*
X105017616Y-129132522D01*
X104941104Y-129171507D01*
X104904207Y-129183495D01*
X104824425Y-129196131D01*
X104809640Y-129198473D01*
X104790244Y-129200000D01*
X102809756Y-129200000D01*
X102790359Y-129198473D01*
X102771258Y-129195447D01*
X102695792Y-129183495D01*
X102658895Y-129171507D01*
X102582383Y-129132522D01*
X102550997Y-129109718D01*
X102490281Y-129049002D01*
X102467477Y-129017616D01*
X102428492Y-128941104D01*
X102416504Y-128904206D01*
X102401527Y-128809641D01*
X102400000Y-128790244D01*
X102400000Y-118409755D01*
X102401527Y-118390358D01*
X102416504Y-118295793D01*
X102416505Y-118295792D01*
X102416504Y-118295790D01*
X102428490Y-118258898D01*
X102467479Y-118182379D01*
X102490278Y-118151000D01*
X102551000Y-118090278D01*
X102582379Y-118067479D01*
X102658898Y-118028490D01*
X102695784Y-118016505D01*
X102790370Y-118001525D01*
X102809756Y-118000000D01*
X115590244Y-118000000D01*
X115609641Y-118001527D01*
G37*
G04 #@! TD.AperFunction*
G04 #@! TA.AperFunction,Conductor*
G36*
X175609641Y-88001527D02*
G01*
X175704207Y-88016504D01*
X175741102Y-88028491D01*
X175817617Y-88067477D01*
X175849002Y-88090281D01*
X175909718Y-88150997D01*
X175932522Y-88182383D01*
X175971507Y-88258895D01*
X175983495Y-88295792D01*
X175998473Y-88390357D01*
X176000000Y-88409755D01*
X176000000Y-96190244D01*
X175998473Y-96209642D01*
X175983495Y-96304207D01*
X175971507Y-96341104D01*
X175932522Y-96417616D01*
X175909718Y-96449002D01*
X175849002Y-96509718D01*
X175817616Y-96532522D01*
X175741104Y-96571507D01*
X175704207Y-96583495D01*
X175624425Y-96596131D01*
X175609640Y-96598473D01*
X175590244Y-96600000D01*
X165599995Y-96600000D01*
X165476395Y-96619575D01*
X165402055Y-96657454D01*
X165364886Y-96676393D01*
X165364885Y-96676394D01*
X165364880Y-96676397D01*
X165276397Y-96764880D01*
X165276394Y-96764885D01*
X165219575Y-96876395D01*
X165200000Y-96999994D01*
X165200000Y-98790244D01*
X165198473Y-98809642D01*
X165183495Y-98904207D01*
X165171507Y-98941104D01*
X165132522Y-99017616D01*
X165109718Y-99049002D01*
X165049002Y-99109718D01*
X165017616Y-99132522D01*
X164941104Y-99171507D01*
X164904207Y-99183495D01*
X164824425Y-99196131D01*
X164809640Y-99198473D01*
X164790244Y-99200000D01*
X162809756Y-99200000D01*
X162790359Y-99198473D01*
X162771258Y-99195447D01*
X162695792Y-99183495D01*
X162658895Y-99171507D01*
X162582383Y-99132522D01*
X162550997Y-99109718D01*
X162490281Y-99049002D01*
X162467477Y-99017616D01*
X162428492Y-98941104D01*
X162416504Y-98904206D01*
X162401527Y-98809641D01*
X162400000Y-98790244D01*
X162400000Y-88409755D01*
X162401527Y-88390358D01*
X162416504Y-88295793D01*
X162416505Y-88295792D01*
X162416504Y-88295790D01*
X162428490Y-88258898D01*
X162467479Y-88182379D01*
X162490278Y-88151000D01*
X162551000Y-88090278D01*
X162582379Y-88067479D01*
X162658898Y-88028490D01*
X162695784Y-88016505D01*
X162790370Y-88001525D01*
X162809756Y-88000000D01*
X175590244Y-88000000D01*
X175609641Y-88001527D01*
G37*
G04 #@! TD.AperFunction*
G04 #@! TA.AperFunction,Conductor*
G36*
X101409641Y-118001527D02*
G01*
X101504207Y-118016504D01*
X101541102Y-118028491D01*
X101617617Y-118067477D01*
X101649002Y-118090281D01*
X101709718Y-118150997D01*
X101732522Y-118182383D01*
X101771507Y-118258895D01*
X101783495Y-118295792D01*
X101798473Y-118390357D01*
X101800000Y-118409755D01*
X101800000Y-128790244D01*
X101798473Y-128809642D01*
X101783495Y-128904207D01*
X101771507Y-128941104D01*
X101732522Y-129017616D01*
X101709718Y-129049002D01*
X101649002Y-129109718D01*
X101617616Y-129132522D01*
X101541104Y-129171507D01*
X101504207Y-129183495D01*
X101424425Y-129196131D01*
X101409640Y-129198473D01*
X101390244Y-129200000D01*
X99209756Y-129200000D01*
X99190359Y-129198473D01*
X99171258Y-129195447D01*
X99095792Y-129183495D01*
X99058895Y-129171507D01*
X98982383Y-129132522D01*
X98950997Y-129109718D01*
X98890281Y-129049002D01*
X98867477Y-129017616D01*
X98828492Y-128941104D01*
X98816504Y-128904206D01*
X98801527Y-128809641D01*
X98800000Y-128790244D01*
X98800000Y-126999994D01*
X98780424Y-126876395D01*
X98780423Y-126876393D01*
X98723607Y-126764886D01*
X98723603Y-126764882D01*
X98723602Y-126764880D01*
X98635119Y-126676397D01*
X98635116Y-126676395D01*
X98635114Y-126676393D01*
X98523607Y-126619577D01*
X98523606Y-126619576D01*
X98523603Y-126619575D01*
X98523604Y-126619575D01*
X98400005Y-126600000D01*
X98400000Y-126600000D01*
X88409756Y-126600000D01*
X88390359Y-126598473D01*
X88371258Y-126595447D01*
X88295792Y-126583495D01*
X88258895Y-126571507D01*
X88182383Y-126532522D01*
X88150997Y-126509718D01*
X88090281Y-126449002D01*
X88067477Y-126417616D01*
X88028492Y-126341104D01*
X88016504Y-126304206D01*
X88001527Y-126209641D01*
X88000000Y-126190244D01*
X88000000Y-118409755D01*
X88001527Y-118390358D01*
X88016504Y-118295793D01*
X88016505Y-118295792D01*
X88016504Y-118295790D01*
X88028490Y-118258898D01*
X88067479Y-118182379D01*
X88090278Y-118151000D01*
X88151000Y-118090278D01*
X88182379Y-118067479D01*
X88258898Y-118028490D01*
X88295784Y-118016505D01*
X88390370Y-118001525D01*
X88409756Y-118000000D01*
X101390244Y-118000000D01*
X101409641Y-118001527D01*
G37*
G04 #@! TD.AperFunction*
G04 #@! TA.AperFunction,Conductor*
G36*
X115609641Y-127201527D02*
G01*
X115704207Y-127216504D01*
X115741102Y-127228491D01*
X115817617Y-127267477D01*
X115849002Y-127290281D01*
X115909718Y-127350997D01*
X115932522Y-127382383D01*
X115971507Y-127458895D01*
X115983495Y-127495792D01*
X115998473Y-127590357D01*
X116000000Y-127609755D01*
X116000000Y-137190244D01*
X115998473Y-137209642D01*
X115983495Y-137304207D01*
X115971507Y-137341104D01*
X115932522Y-137417616D01*
X115909718Y-137449002D01*
X115849002Y-137509718D01*
X115817616Y-137532522D01*
X115741104Y-137571507D01*
X115704207Y-137583495D01*
X115624425Y-137596131D01*
X115609640Y-137598473D01*
X115590244Y-137600000D01*
X106009756Y-137600000D01*
X105990359Y-137598473D01*
X105971258Y-137595447D01*
X105895792Y-137583495D01*
X105858895Y-137571507D01*
X105782383Y-137532522D01*
X105750997Y-137509718D01*
X105690281Y-137449002D01*
X105667477Y-137417616D01*
X105628492Y-137341104D01*
X105616504Y-137304206D01*
X105601527Y-137209641D01*
X105600000Y-137190244D01*
X105600000Y-132999994D01*
X105580424Y-132876395D01*
X105580423Y-132876393D01*
X105523607Y-132764886D01*
X105523603Y-132764882D01*
X105523602Y-132764880D01*
X105435119Y-132676397D01*
X105435116Y-132676395D01*
X105435114Y-132676393D01*
X105323607Y-132619577D01*
X105323606Y-132619576D01*
X105323603Y-132619575D01*
X105323604Y-132619575D01*
X105200005Y-132600000D01*
X105200000Y-132600000D01*
X102809756Y-132600000D01*
X102790359Y-132598473D01*
X102771258Y-132595447D01*
X102695792Y-132583495D01*
X102658895Y-132571507D01*
X102582383Y-132532522D01*
X102550997Y-132509718D01*
X102490281Y-132449002D01*
X102467477Y-132417616D01*
X102428492Y-132341104D01*
X102416504Y-132304206D01*
X102401527Y-132209641D01*
X102400000Y-132190244D01*
X102400000Y-130209755D01*
X102401527Y-130190358D01*
X102416504Y-130095793D01*
X102428490Y-130058898D01*
X102467479Y-129982379D01*
X102490278Y-129951000D01*
X102551000Y-129890278D01*
X102582379Y-129867479D01*
X102658898Y-129828490D01*
X102695784Y-129816505D01*
X102790370Y-129801525D01*
X102809756Y-129800000D01*
X105400005Y-129800000D01*
X105523604Y-129780424D01*
X105523605Y-129780423D01*
X105523607Y-129780423D01*
X105635114Y-129723607D01*
X105723607Y-129635114D01*
X105780423Y-129523607D01*
X105780423Y-129523605D01*
X105780424Y-129523604D01*
X105800000Y-129400005D01*
X105800000Y-127609755D01*
X105801527Y-127590358D01*
X105816504Y-127495793D01*
X105816505Y-127495792D01*
X105816504Y-127495790D01*
X105828490Y-127458898D01*
X105867479Y-127382379D01*
X105890278Y-127351000D01*
X105951000Y-127290278D01*
X105982379Y-127267479D01*
X106058898Y-127228490D01*
X106095784Y-127216505D01*
X106190370Y-127201525D01*
X106209756Y-127200000D01*
X115590244Y-127200000D01*
X115609641Y-127201527D01*
G37*
G04 #@! TD.AperFunction*
G04 #@! TA.AperFunction,Conductor*
G36*
X161409641Y-118001527D02*
G01*
X161504207Y-118016504D01*
X161541102Y-118028491D01*
X161617617Y-118067477D01*
X161649002Y-118090281D01*
X161709718Y-118150997D01*
X161732522Y-118182383D01*
X161771507Y-118258895D01*
X161783495Y-118295792D01*
X161798473Y-118390357D01*
X161800000Y-118409755D01*
X161800000Y-128790244D01*
X161798473Y-128809642D01*
X161783495Y-128904207D01*
X161771507Y-128941104D01*
X161732522Y-129017616D01*
X161709718Y-129049002D01*
X161649002Y-129109718D01*
X161617616Y-129132522D01*
X161541104Y-129171507D01*
X161504207Y-129183495D01*
X161424425Y-129196131D01*
X161409640Y-129198473D01*
X161390244Y-129200000D01*
X159209756Y-129200000D01*
X159190359Y-129198473D01*
X159171258Y-129195447D01*
X159095792Y-129183495D01*
X159058895Y-129171507D01*
X158982383Y-129132522D01*
X158950997Y-129109718D01*
X158890281Y-129049002D01*
X158867477Y-129017616D01*
X158828492Y-128941104D01*
X158816504Y-128904206D01*
X158801527Y-128809641D01*
X158800000Y-128790244D01*
X158800000Y-126999994D01*
X158780424Y-126876395D01*
X158780423Y-126876393D01*
X158723607Y-126764886D01*
X158723603Y-126764882D01*
X158723602Y-126764880D01*
X158635119Y-126676397D01*
X158635116Y-126676395D01*
X158635114Y-126676393D01*
X158523607Y-126619577D01*
X158523606Y-126619576D01*
X158523603Y-126619575D01*
X158523604Y-126619575D01*
X158400005Y-126600000D01*
X158400000Y-126600000D01*
X148409756Y-126600000D01*
X148390359Y-126598473D01*
X148371258Y-126595447D01*
X148295792Y-126583495D01*
X148258895Y-126571507D01*
X148182383Y-126532522D01*
X148150997Y-126509718D01*
X148090281Y-126449002D01*
X148067477Y-126417616D01*
X148028492Y-126341104D01*
X148016504Y-126304206D01*
X148001527Y-126209641D01*
X148000000Y-126190244D01*
X148000000Y-118409755D01*
X148001527Y-118390358D01*
X148016504Y-118295793D01*
X148016505Y-118295792D01*
X148016504Y-118295790D01*
X148028490Y-118258898D01*
X148067479Y-118182379D01*
X148090278Y-118151000D01*
X148151000Y-118090278D01*
X148182379Y-118067479D01*
X148258898Y-118028490D01*
X148295784Y-118016505D01*
X148390370Y-118001525D01*
X148409756Y-118000000D01*
X161390244Y-118000000D01*
X161409641Y-118001527D01*
G37*
G04 #@! TD.AperFunction*
G04 #@! TA.AperFunction,Conductor*
G36*
X177925270Y-52220185D02*
G01*
X177971025Y-52272989D01*
X177980969Y-52342147D01*
X177951944Y-52405703D01*
X177935544Y-52421447D01*
X177764435Y-52557901D01*
X177557901Y-52764435D01*
X177375791Y-52992795D01*
X177220393Y-53240109D01*
X177093665Y-53503261D01*
X176997197Y-53778953D01*
X176997196Y-53778955D01*
X176932202Y-54063714D01*
X176932199Y-54063728D01*
X176899500Y-54353952D01*
X176899500Y-54646047D01*
X176932199Y-54936271D01*
X176932202Y-54936285D01*
X176997196Y-55221044D01*
X176997197Y-55221046D01*
X177093665Y-55496738D01*
X177220393Y-55759890D01*
X177220395Y-55759893D01*
X177375792Y-56007206D01*
X177557902Y-56235565D01*
X177764435Y-56442098D01*
X177992794Y-56624208D01*
X178240107Y-56779605D01*
X178503263Y-56906335D01*
X178778955Y-57002803D01*
X179063714Y-57067798D01*
X179063723Y-57067799D01*
X179063728Y-57067800D01*
X179257210Y-57089599D01*
X179353953Y-57100499D01*
X179353956Y-57100500D01*
X179353959Y-57100500D01*
X179646044Y-57100500D01*
X179646045Y-57100499D01*
X179794371Y-57083787D01*
X179936271Y-57067800D01*
X179936274Y-57067799D01*
X179936286Y-57067798D01*
X180221045Y-57002803D01*
X180496737Y-56906335D01*
X180759893Y-56779605D01*
X181007206Y-56624208D01*
X181235565Y-56442098D01*
X181442098Y-56235565D01*
X181534953Y-56119129D01*
X181578553Y-56064456D01*
X181635741Y-56024315D01*
X181705553Y-56021465D01*
X181765823Y-56056810D01*
X181797416Y-56119129D01*
X181799500Y-56141768D01*
X181799500Y-85162497D01*
X181779815Y-85229536D01*
X181727011Y-85275291D01*
X181694898Y-85284969D01*
X181609640Y-85298473D01*
X181590244Y-85300000D01*
X82409756Y-85300000D01*
X82390359Y-85298473D01*
X82305101Y-85284969D01*
X82241968Y-85255041D01*
X82205036Y-85195730D01*
X82200500Y-85162497D01*
X82200500Y-73200000D01*
X92094355Y-73200000D01*
X92114859Y-73368869D01*
X92114860Y-73368874D01*
X92175182Y-73527931D01*
X92237475Y-73618177D01*
X92271817Y-73667929D01*
X92399148Y-73780734D01*
X92539704Y-73854504D01*
X92545444Y-73857799D01*
X92548261Y-73859216D01*
X92556803Y-73862456D01*
X92556786Y-73862499D01*
X92558677Y-73863099D01*
X92717081Y-73925244D01*
X92720265Y-73926545D01*
X92808432Y-73964001D01*
X92827671Y-73974257D01*
X92881167Y-74009136D01*
X92897298Y-74021661D01*
X92982634Y-74099998D01*
X93009412Y-74124579D01*
X93009789Y-74124925D01*
X93017016Y-74129417D01*
X93039233Y-74147047D01*
X101059529Y-82167343D01*
X101059656Y-82167454D01*
X101061071Y-82168869D01*
X101068048Y-82175846D01*
X101204983Y-82280926D01*
X101354463Y-82367233D01*
X101513929Y-82433290D01*
X101680654Y-82477967D01*
X101851784Y-82500499D01*
X101862198Y-82500499D01*
X101862210Y-82500500D01*
X101938087Y-82500500D01*
X102003979Y-82500501D01*
X102003983Y-82500500D01*
X115961526Y-82500500D01*
X115989497Y-82503696D01*
X115990846Y-82504008D01*
X115998148Y-82505699D01*
X116150199Y-82512200D01*
X116170458Y-82514750D01*
X116185711Y-82517963D01*
X116185716Y-82517965D01*
X116228744Y-82527028D01*
X116228744Y-82527029D01*
X116232947Y-82527914D01*
X116253799Y-82534265D01*
X116342595Y-82570107D01*
X116345752Y-82571432D01*
X116513821Y-82644787D01*
X116513965Y-82644849D01*
X116515918Y-82645693D01*
X116516232Y-82645827D01*
X116530945Y-82651837D01*
X116530937Y-82651855D01*
X116547312Y-82658497D01*
X116549775Y-82659790D01*
X116714944Y-82700500D01*
X116885056Y-82700500D01*
X117050225Y-82659790D01*
X117129692Y-82618081D01*
X117200849Y-82580736D01*
X117200850Y-82580734D01*
X117200852Y-82580734D01*
X117328183Y-82467929D01*
X117424818Y-82327930D01*
X117485140Y-82168872D01*
X117505645Y-82000000D01*
X117485140Y-81831128D01*
X117424818Y-81672070D01*
X117413989Y-81656382D01*
X117371842Y-81595322D01*
X117328183Y-81532071D01*
X117200852Y-81419266D01*
X117200849Y-81419263D01*
X117050226Y-81340210D01*
X116885056Y-81299500D01*
X116714944Y-81299500D01*
X116549775Y-81340209D01*
X116541132Y-81344746D01*
X116519096Y-81352918D01*
X116519260Y-81353414D01*
X116513820Y-81355211D01*
X116345819Y-81428536D01*
X116342648Y-81429867D01*
X116303149Y-81445812D01*
X116253800Y-81465732D01*
X116232946Y-81472083D01*
X116170459Y-81485246D01*
X116150199Y-81487796D01*
X115998164Y-81494299D01*
X115997620Y-81494323D01*
X115995457Y-81494827D01*
X115989339Y-81496255D01*
X115961161Y-81499500D01*
X101946227Y-81499500D01*
X101930040Y-81498439D01*
X101920550Y-81497189D01*
X101872568Y-81490871D01*
X101841305Y-81482493D01*
X101795326Y-81463448D01*
X101767297Y-81447265D01*
X101721223Y-81411911D01*
X101709033Y-81401218D01*
X101663303Y-81355485D01*
X101663265Y-81355451D01*
X93746800Y-73438986D01*
X93729281Y-73416947D01*
X93724584Y-73409420D01*
X93724583Y-73409419D01*
X93724579Y-73409412D01*
X93621656Y-73297292D01*
X93609142Y-73281176D01*
X93574254Y-73227668D01*
X93564001Y-73208432D01*
X93560419Y-73200000D01*
X102694355Y-73200000D01*
X102714859Y-73368869D01*
X102714860Y-73368874D01*
X102775182Y-73527931D01*
X102837475Y-73618177D01*
X102871817Y-73667929D01*
X102999148Y-73780734D01*
X103139704Y-73854504D01*
X103145444Y-73857799D01*
X103148261Y-73859216D01*
X103156803Y-73862456D01*
X103156786Y-73862499D01*
X103158677Y-73863099D01*
X103317081Y-73925244D01*
X103320265Y-73926545D01*
X103408432Y-73964001D01*
X103427671Y-73974257D01*
X103481167Y-74009136D01*
X103497298Y-74021661D01*
X103582634Y-74099998D01*
X103609412Y-74124579D01*
X103609789Y-74124925D01*
X103617016Y-74129417D01*
X103639233Y-74147047D01*
X110059528Y-80567342D01*
X110059655Y-80567453D01*
X110068045Y-80575843D01*
X110068048Y-80575846D01*
X110204983Y-80680926D01*
X110354463Y-80767233D01*
X110513929Y-80833290D01*
X110680654Y-80877967D01*
X110851784Y-80900499D01*
X110862198Y-80900499D01*
X110862210Y-80900500D01*
X110938087Y-80900500D01*
X111003979Y-80900501D01*
X111003983Y-80900500D01*
X116996011Y-80900500D01*
X117053776Y-80900500D01*
X117069960Y-80901561D01*
X117086080Y-80903683D01*
X117127429Y-80909127D01*
X117158692Y-80917503D01*
X117204675Y-80936552D01*
X117232706Y-80952737D01*
X117278776Y-80988090D01*
X117290972Y-80998786D01*
X117337568Y-81045386D01*
X117337599Y-81045413D01*
X117755451Y-81463265D01*
X117755485Y-81463303D01*
X117801285Y-81509099D01*
X117811982Y-81521295D01*
X117847274Y-81567286D01*
X117863461Y-81595322D01*
X117882506Y-81641300D01*
X117890884Y-81672564D01*
X117898439Y-81729937D01*
X117899500Y-81746126D01*
X117899500Y-82161519D01*
X117896304Y-82189489D01*
X117894300Y-82198143D01*
X117887796Y-82350198D01*
X117885246Y-82370459D01*
X117872083Y-82432946D01*
X117865731Y-82453801D01*
X117829869Y-82542643D01*
X117828532Y-82545829D01*
X117755127Y-82714016D01*
X117753586Y-82717609D01*
X117753583Y-82717617D01*
X117750517Y-82725178D01*
X117748033Y-82738294D01*
X117742142Y-82759185D01*
X117714859Y-82831128D01*
X117694355Y-83000000D01*
X117714859Y-83168869D01*
X117714860Y-83168874D01*
X117775182Y-83327931D01*
X117837475Y-83418177D01*
X117871817Y-83467929D01*
X117959712Y-83545797D01*
X117999150Y-83580736D01*
X118149773Y-83659789D01*
X118149775Y-83659790D01*
X118314944Y-83700500D01*
X118485056Y-83700500D01*
X118650225Y-83659790D01*
X118729692Y-83618081D01*
X118800849Y-83580736D01*
X118800850Y-83580734D01*
X118800852Y-83580734D01*
X118928183Y-83467929D01*
X119024818Y-83327930D01*
X119085140Y-83168872D01*
X119105645Y-83000000D01*
X119085140Y-82831128D01*
X119054193Y-82749527D01*
X119049312Y-82733438D01*
X119044787Y-82713821D01*
X118971446Y-82545784D01*
X118970114Y-82542610D01*
X118934266Y-82453803D01*
X118927915Y-82432954D01*
X118914749Y-82370455D01*
X118912200Y-82350193D01*
X118911248Y-82327931D01*
X118905700Y-82198149D01*
X118905698Y-82198098D01*
X118905678Y-82197626D01*
X118905677Y-82197620D01*
X118903745Y-82189341D01*
X118900500Y-82161160D01*
X118900500Y-81803982D01*
X118900501Y-81803979D01*
X118900500Y-81789463D01*
X118900513Y-81789418D01*
X118900512Y-81707908D01*
X118900512Y-81651783D01*
X118877980Y-81480651D01*
X118833302Y-81313925D01*
X118767245Y-81154457D01*
X118680937Y-81004976D01*
X118586385Y-80881760D01*
X118575854Y-80868036D01*
X118575851Y-80868033D01*
X118514829Y-80807015D01*
X117940653Y-80232839D01*
X117940521Y-80232723D01*
X117931952Y-80224153D01*
X117931943Y-80224145D01*
X117795021Y-80119077D01*
X117795017Y-80119075D01*
X117795015Y-80119073D01*
X117645536Y-80032766D01*
X117645532Y-80032764D01*
X117645528Y-80032762D01*
X117645525Y-80032761D01*
X117486067Y-79966708D01*
X117486064Y-79966707D01*
X117319354Y-79922035D01*
X117319345Y-79922033D01*
X117319344Y-79922033D01*
X117319341Y-79922032D01*
X117319338Y-79922032D01*
X117148215Y-79899500D01*
X117127801Y-79899500D01*
X117127799Y-79899500D01*
X117061911Y-79899500D01*
X116996019Y-79899499D01*
X116996018Y-79899499D01*
X116988425Y-79899499D01*
X116988409Y-79899500D01*
X110946227Y-79899500D01*
X110930040Y-79898439D01*
X110920550Y-79897189D01*
X110872568Y-79890871D01*
X110841305Y-79882493D01*
X110795326Y-79863448D01*
X110767297Y-79847265D01*
X110721223Y-79811911D01*
X110709033Y-79801218D01*
X110663303Y-79755485D01*
X110663265Y-79755451D01*
X104346800Y-73438986D01*
X104329281Y-73416947D01*
X104324584Y-73409420D01*
X104324583Y-73409419D01*
X104324579Y-73409412D01*
X104221656Y-73297292D01*
X104209142Y-73281176D01*
X104174254Y-73227668D01*
X104164001Y-73208432D01*
X104160419Y-73200000D01*
X113294355Y-73200000D01*
X113314859Y-73368869D01*
X113314860Y-73368874D01*
X113375182Y-73527931D01*
X113437475Y-73618177D01*
X113471817Y-73667929D01*
X113599148Y-73780734D01*
X113739704Y-73854504D01*
X113745444Y-73857799D01*
X113748261Y-73859216D01*
X113756803Y-73862456D01*
X113756786Y-73862499D01*
X113758677Y-73863099D01*
X113917081Y-73925244D01*
X113920265Y-73926545D01*
X114008432Y-73964001D01*
X114027671Y-73974257D01*
X114081167Y-74009136D01*
X114097298Y-74021661D01*
X114182634Y-74099998D01*
X114209412Y-74124579D01*
X114209789Y-74124925D01*
X114217016Y-74129417D01*
X114239233Y-74147047D01*
X119355451Y-79263265D01*
X119355485Y-79263303D01*
X119401285Y-79309099D01*
X119411982Y-79321295D01*
X119447274Y-79367286D01*
X119463461Y-79395322D01*
X119482506Y-79441300D01*
X119490884Y-79472564D01*
X119498439Y-79529937D01*
X119499500Y-79546126D01*
X119499500Y-83161519D01*
X119496304Y-83189489D01*
X119494300Y-83198143D01*
X119487796Y-83350198D01*
X119485246Y-83370459D01*
X119472083Y-83432946D01*
X119465731Y-83453801D01*
X119429869Y-83542643D01*
X119428532Y-83545829D01*
X119355127Y-83714016D01*
X119353586Y-83717609D01*
X119353583Y-83717617D01*
X119350517Y-83725178D01*
X119348033Y-83738294D01*
X119342142Y-83759185D01*
X119314859Y-83831128D01*
X119294355Y-84000000D01*
X119314859Y-84168869D01*
X119314860Y-84168874D01*
X119375182Y-84327931D01*
X119437475Y-84418177D01*
X119471817Y-84467929D01*
X119577505Y-84561560D01*
X119599150Y-84580736D01*
X119749773Y-84659789D01*
X119749775Y-84659790D01*
X119914944Y-84700500D01*
X120085056Y-84700500D01*
X120250225Y-84659790D01*
X120329692Y-84618081D01*
X120400849Y-84580736D01*
X120400850Y-84580734D01*
X120400852Y-84580734D01*
X120528183Y-84467929D01*
X120624818Y-84327930D01*
X120685140Y-84168872D01*
X120705645Y-84000000D01*
X120685140Y-83831128D01*
X120654193Y-83749527D01*
X120649312Y-83733438D01*
X120644787Y-83713821D01*
X120571446Y-83545784D01*
X120570114Y-83542610D01*
X120534266Y-83453803D01*
X120527915Y-83432954D01*
X120514749Y-83370455D01*
X120512200Y-83350193D01*
X120511248Y-83327931D01*
X120505700Y-83198149D01*
X120505698Y-83198098D01*
X120505678Y-83197626D01*
X120505677Y-83197620D01*
X120503745Y-83189341D01*
X120500500Y-83161160D01*
X120500500Y-82324998D01*
X166994318Y-82324998D01*
X166994318Y-82325001D01*
X167014955Y-82481760D01*
X167014956Y-82481762D01*
X167055951Y-82580734D01*
X167075464Y-82627841D01*
X167171718Y-82753282D01*
X167297159Y-82849536D01*
X167443238Y-82910044D01*
X167521619Y-82920363D01*
X167599999Y-82930682D01*
X167600000Y-82930682D01*
X167600001Y-82930682D01*
X167652254Y-82923802D01*
X167756762Y-82910044D01*
X167902841Y-82849536D01*
X168028282Y-82753282D01*
X168124536Y-82627841D01*
X168185044Y-82481762D01*
X168205682Y-82325000D01*
X168185044Y-82168238D01*
X168156251Y-82098728D01*
X168151467Y-82084927D01*
X168145422Y-82063489D01*
X168145421Y-82063486D01*
X168081776Y-81934913D01*
X168081772Y-81934904D01*
X168076537Y-81924805D01*
X168076120Y-81924036D01*
X168070469Y-81914066D01*
X168032992Y-81850742D01*
X168023879Y-81831861D01*
X168020298Y-81822489D01*
X168012644Y-81789495D01*
X168005209Y-81707908D01*
X168004813Y-81706449D01*
X168004432Y-81703580D01*
X168004256Y-81702599D01*
X168004300Y-81702590D01*
X168000500Y-81674026D01*
X168000500Y-81445812D01*
X168020185Y-81378773D01*
X168072989Y-81333018D01*
X168140685Y-81322873D01*
X168200000Y-81330682D01*
X168200001Y-81330682D01*
X168252254Y-81323802D01*
X168356762Y-81310044D01*
X168502841Y-81249536D01*
X168628282Y-81153282D01*
X168724536Y-81027841D01*
X168785044Y-80881762D01*
X168805682Y-80725000D01*
X168803179Y-80705993D01*
X168802676Y-80686015D01*
X168802555Y-80686017D01*
X168802485Y-80680290D01*
X168802486Y-80680279D01*
X168789572Y-80557014D01*
X168788197Y-80546225D01*
X168799249Y-80477235D01*
X168823518Y-80442872D01*
X168946390Y-80320000D01*
X173865203Y-80320000D01*
X173904194Y-80396521D01*
X174005967Y-80536602D01*
X174128397Y-80659032D01*
X174268475Y-80760804D01*
X174422742Y-80839408D01*
X174587415Y-80892914D01*
X174758429Y-80920000D01*
X174895000Y-80920000D01*
X175895000Y-80920000D01*
X176031571Y-80920000D01*
X176202584Y-80892914D01*
X176367257Y-80839408D01*
X176521524Y-80760804D01*
X176661602Y-80659032D01*
X176784032Y-80536602D01*
X176885805Y-80396521D01*
X176924796Y-80320000D01*
X178195203Y-80320000D01*
X178234194Y-80396521D01*
X178335967Y-80536602D01*
X178458397Y-80659032D01*
X178598475Y-80760804D01*
X178752742Y-80839408D01*
X178917415Y-80892914D01*
X179075000Y-80917873D01*
X179075000Y-80917872D01*
X180075000Y-80917872D01*
X180232584Y-80892914D01*
X180397257Y-80839408D01*
X180551524Y-80760804D01*
X180691602Y-80659032D01*
X180814032Y-80536602D01*
X180915805Y-80396521D01*
X180954796Y-80320000D01*
X180075000Y-80320000D01*
X180075000Y-80917872D01*
X179075000Y-80917872D01*
X179075000Y-80320000D01*
X178195203Y-80320000D01*
X176924796Y-80320000D01*
X175895000Y-80320000D01*
X175895000Y-80920000D01*
X174895000Y-80920000D01*
X174895000Y-80320000D01*
X173865203Y-80320000D01*
X168946390Y-80320000D01*
X169485886Y-79780504D01*
X174545000Y-79780504D01*
X174545000Y-79859496D01*
X174565444Y-79935796D01*
X174604940Y-80004205D01*
X174660795Y-80060060D01*
X174729204Y-80099556D01*
X174805504Y-80120000D01*
X175984496Y-80120000D01*
X176060796Y-80099556D01*
X176129205Y-80060060D01*
X176185060Y-80004205D01*
X176224556Y-79935796D01*
X176245000Y-79859496D01*
X176245000Y-79780504D01*
X178875000Y-79780504D01*
X178875000Y-79859496D01*
X178895444Y-79935796D01*
X178934940Y-80004205D01*
X178990795Y-80060060D01*
X179059204Y-80099556D01*
X179135504Y-80120000D01*
X180014496Y-80120000D01*
X180090796Y-80099556D01*
X180159205Y-80060060D01*
X180215060Y-80004205D01*
X180254556Y-79935796D01*
X180275000Y-79859496D01*
X180275000Y-79780504D01*
X180254556Y-79704204D01*
X180215060Y-79635795D01*
X180159205Y-79579940D01*
X180090796Y-79540444D01*
X180014496Y-79520000D01*
X179135504Y-79520000D01*
X179059204Y-79540444D01*
X178990795Y-79579940D01*
X178934940Y-79635795D01*
X178895444Y-79704204D01*
X178875000Y-79780504D01*
X176245000Y-79780504D01*
X176224556Y-79704204D01*
X176185060Y-79635795D01*
X176129205Y-79579940D01*
X176060796Y-79540444D01*
X175984496Y-79520000D01*
X174805504Y-79520000D01*
X174729204Y-79540444D01*
X174660795Y-79579940D01*
X174604940Y-79635795D01*
X174565444Y-79704204D01*
X174545000Y-79780504D01*
X169485886Y-79780504D01*
X169946391Y-79319999D01*
X173865203Y-79319999D01*
X173865204Y-79320000D01*
X176924796Y-79320000D01*
X176924796Y-79319999D01*
X178195203Y-79319999D01*
X178195204Y-79320000D01*
X179075000Y-79320000D01*
X180075000Y-79320000D01*
X180954796Y-79320000D01*
X180954796Y-79319999D01*
X180915805Y-79243478D01*
X180814032Y-79103397D01*
X180691602Y-78980967D01*
X180551524Y-78879195D01*
X180397255Y-78800591D01*
X180232581Y-78747085D01*
X180232582Y-78747085D01*
X180075000Y-78722126D01*
X180075000Y-79320000D01*
X179075000Y-79320000D01*
X179075000Y-78722126D01*
X179074999Y-78722126D01*
X178917418Y-78747085D01*
X178752744Y-78800591D01*
X178598475Y-78879195D01*
X178458397Y-78980967D01*
X178335967Y-79103397D01*
X178234194Y-79243478D01*
X178195203Y-79319999D01*
X176924796Y-79319999D01*
X176885805Y-79243478D01*
X176784032Y-79103397D01*
X176661602Y-78980967D01*
X176521521Y-78879194D01*
X176495824Y-78866100D01*
X176445029Y-78818125D01*
X176428234Y-78750304D01*
X176447261Y-78692101D01*
X176446438Y-78691661D01*
X176448930Y-78686997D01*
X176449021Y-78686721D01*
X176449307Y-78686292D01*
X176449307Y-78686291D01*
X176449311Y-78686286D01*
X176496463Y-78572452D01*
X176520500Y-78451606D01*
X176520500Y-78328394D01*
X176496463Y-78207548D01*
X176449311Y-78093714D01*
X176449310Y-78093713D01*
X176449307Y-78093707D01*
X176380858Y-77991267D01*
X176380855Y-77991263D01*
X176293736Y-77904144D01*
X176293732Y-77904141D01*
X176191292Y-77835692D01*
X176191283Y-77835687D01*
X176077454Y-77788538D01*
X176077455Y-77788538D01*
X176077452Y-77788537D01*
X176077448Y-77788536D01*
X176077444Y-77788535D01*
X175956610Y-77764500D01*
X175956606Y-77764500D01*
X175833394Y-77764500D01*
X175833389Y-77764500D01*
X175712555Y-77788535D01*
X175712545Y-77788538D01*
X175598716Y-77835687D01*
X175598707Y-77835692D01*
X175496267Y-77904141D01*
X175496263Y-77904144D01*
X175409144Y-77991263D01*
X175409141Y-77991267D01*
X175340692Y-78093707D01*
X175340687Y-78093716D01*
X175293538Y-78207545D01*
X175293535Y-78207555D01*
X175269500Y-78328389D01*
X175269500Y-78451610D01*
X175293409Y-78571809D01*
X175287182Y-78641401D01*
X175244318Y-78696578D01*
X175178429Y-78719822D01*
X175171792Y-78720000D01*
X174758429Y-78720000D01*
X174587415Y-78747085D01*
X174422742Y-78800591D01*
X174268475Y-78879195D01*
X174128397Y-78980967D01*
X174005967Y-79103397D01*
X173904194Y-79243478D01*
X173865203Y-79319999D01*
X169946391Y-79319999D01*
X171943208Y-77323182D01*
X171943218Y-77323175D01*
X171953420Y-77312973D01*
X171989835Y-77276556D01*
X171998828Y-77268404D01*
X172047702Y-77228292D01*
X172067892Y-77214800D01*
X172118241Y-77187887D01*
X172140681Y-77178591D01*
X172195313Y-77162017D01*
X172219142Y-77157278D01*
X172267976Y-77152467D01*
X172281895Y-77151097D01*
X172294049Y-77150500D01*
X175249060Y-77150500D01*
X175277222Y-77154407D01*
X175277268Y-77154163D01*
X175282633Y-77155157D01*
X175282816Y-77155183D01*
X175282881Y-77155201D01*
X175282906Y-77155208D01*
X175364493Y-77162644D01*
X175397492Y-77170299D01*
X175406862Y-77173879D01*
X175425752Y-77182997D01*
X175489066Y-77220469D01*
X175499036Y-77226120D01*
X175499805Y-77226537D01*
X175509904Y-77231772D01*
X175577921Y-77265441D01*
X175638469Y-77295413D01*
X175647165Y-77299549D01*
X175647500Y-77299701D01*
X175647817Y-77299846D01*
X175663478Y-77306476D01*
X175670892Y-77307884D01*
X175695192Y-77315142D01*
X175743238Y-77335044D01*
X175881762Y-77353280D01*
X175899999Y-77355682D01*
X175900000Y-77355682D01*
X175900001Y-77355682D01*
X175952254Y-77348802D01*
X176056762Y-77335044D01*
X176202841Y-77274536D01*
X176328282Y-77178282D01*
X176424536Y-77052841D01*
X176485044Y-76906762D01*
X176505682Y-76750000D01*
X176485044Y-76593238D01*
X176424536Y-76447159D01*
X176328282Y-76321718D01*
X176202841Y-76225464D01*
X176105882Y-76185302D01*
X176051480Y-76141462D01*
X176029415Y-76075168D01*
X176046694Y-76007469D01*
X176053008Y-75997871D01*
X176124400Y-75899614D01*
X176124404Y-75899607D01*
X176211349Y-75728978D01*
X176211349Y-75728977D01*
X176211349Y-75728976D01*
X176211351Y-75728973D01*
X176270536Y-75546829D01*
X176300499Y-75357669D01*
X176300499Y-75329076D01*
X176300500Y-75329067D01*
X176300500Y-74750940D01*
X176304407Y-74722776D01*
X176304164Y-74722731D01*
X176305157Y-74717369D01*
X176305184Y-74717181D01*
X176305209Y-74717091D01*
X176305209Y-74717090D01*
X176305209Y-74717089D01*
X176312645Y-74635499D01*
X176320302Y-74602494D01*
X176323881Y-74593128D01*
X176332995Y-74574246D01*
X176370466Y-74510936D01*
X176376037Y-74501114D01*
X176376454Y-74500346D01*
X176381768Y-74490102D01*
X176445421Y-74361514D01*
X176449607Y-74352708D01*
X176449917Y-74352028D01*
X176456476Y-74336521D01*
X176457883Y-74329111D01*
X176465144Y-74304803D01*
X176485044Y-74256762D01*
X176505682Y-74100000D01*
X176485044Y-73943238D01*
X176424536Y-73797159D01*
X176328282Y-73671718D01*
X176202841Y-73575464D01*
X176056762Y-73514956D01*
X176056760Y-73514955D01*
X175900001Y-73494318D01*
X175899999Y-73494318D01*
X175743239Y-73514955D01*
X175743237Y-73514956D01*
X175597160Y-73575463D01*
X175471718Y-73671718D01*
X175375463Y-73797160D01*
X175314956Y-73943237D01*
X175314955Y-73943239D01*
X175294318Y-74099998D01*
X175294318Y-74100001D01*
X175314955Y-74256760D01*
X175314956Y-74256761D01*
X175343740Y-74326254D01*
X175348523Y-74340048D01*
X175354574Y-74361504D01*
X175354577Y-74361513D01*
X175418218Y-74490082D01*
X175423451Y-74500175D01*
X175423881Y-74500968D01*
X175429515Y-74510908D01*
X175429529Y-74510932D01*
X175466999Y-74574242D01*
X175476116Y-74593130D01*
X175479698Y-74602503D01*
X175487353Y-74635503D01*
X175494790Y-74717089D01*
X175494791Y-74717096D01*
X175495185Y-74718548D01*
X175495563Y-74721390D01*
X175495743Y-74722391D01*
X175495697Y-74722399D01*
X175499500Y-74750974D01*
X175499500Y-75255808D01*
X175498903Y-75267966D01*
X175492707Y-75330856D01*
X175487964Y-75354694D01*
X175471400Y-75409297D01*
X175462096Y-75431758D01*
X175435192Y-75482088D01*
X175421688Y-75502298D01*
X175381515Y-75551247D01*
X175373343Y-75560262D01*
X175337033Y-75596570D01*
X175337026Y-75596578D01*
X175337026Y-75596579D01*
X175337024Y-75596581D01*
X175204632Y-75728973D01*
X175200917Y-75732688D01*
X175200874Y-75732728D01*
X175160178Y-75773427D01*
X175151167Y-75781595D01*
X175102307Y-75821696D01*
X175082096Y-75835201D01*
X175031762Y-75862107D01*
X175009303Y-75871410D01*
X174954695Y-75887976D01*
X174930854Y-75892719D01*
X174868077Y-75898903D01*
X174855921Y-75899500D01*
X172089465Y-75899500D01*
X172089413Y-75899485D01*
X171942328Y-75899486D01*
X171753166Y-75929449D01*
X171753165Y-75929450D01*
X171571030Y-75988633D01*
X171571024Y-75988635D01*
X171571021Y-75988637D01*
X171505614Y-76021965D01*
X171400384Y-76075585D01*
X171400375Y-76075591D01*
X171245439Y-76188163D01*
X171245438Y-76188164D01*
X171177726Y-76255880D01*
X171165372Y-76268234D01*
X167513359Y-79920245D01*
X167513220Y-79920402D01*
X167488180Y-79945441D01*
X167488173Y-79945449D01*
X167375601Y-80100382D01*
X167288647Y-80271030D01*
X167229464Y-80453168D01*
X167199500Y-80642331D01*
X167199500Y-81674055D01*
X167195592Y-81702221D01*
X167195836Y-81702267D01*
X167194845Y-81707610D01*
X167194818Y-81707808D01*
X167194791Y-81707902D01*
X167194790Y-81707906D01*
X167187353Y-81789491D01*
X167179699Y-81822489D01*
X167176121Y-81831854D01*
X167166999Y-81850752D01*
X167129527Y-81914067D01*
X167123868Y-81924054D01*
X167123439Y-81924845D01*
X167118230Y-81934896D01*
X167054550Y-82063541D01*
X167050334Y-82072416D01*
X167050025Y-82073095D01*
X167043520Y-82088481D01*
X167042108Y-82095912D01*
X167034852Y-82120204D01*
X167014955Y-82168240D01*
X166994318Y-82324998D01*
X120500500Y-82324998D01*
X120500500Y-79603982D01*
X120500501Y-79603979D01*
X120500500Y-79589463D01*
X120500513Y-79589418D01*
X120500512Y-79520000D01*
X120500512Y-79451783D01*
X120477980Y-79280651D01*
X120433302Y-79113925D01*
X120367245Y-78954457D01*
X120280937Y-78804976D01*
X120197756Y-78696578D01*
X120175854Y-78668036D01*
X120175851Y-78668033D01*
X120114829Y-78607015D01*
X114946800Y-73438986D01*
X114929281Y-73416947D01*
X114924584Y-73409420D01*
X114924583Y-73409419D01*
X114924579Y-73409412D01*
X114821656Y-73297292D01*
X114809142Y-73281176D01*
X114774254Y-73227668D01*
X114764001Y-73208432D01*
X114726545Y-73120265D01*
X114725239Y-73117067D01*
X114658297Y-72946434D01*
X114657367Y-72944093D01*
X114657270Y-72943853D01*
X114657255Y-72943815D01*
X114653575Y-72935063D01*
X114650876Y-72931103D01*
X114637395Y-72905234D01*
X114624817Y-72872068D01*
X114590476Y-72822318D01*
X114528183Y-72732071D01*
X114400852Y-72619266D01*
X114400849Y-72619263D01*
X114250226Y-72540210D01*
X114085056Y-72499500D01*
X113914944Y-72499500D01*
X113749773Y-72540210D01*
X113599150Y-72619263D01*
X113471816Y-72732072D01*
X113375182Y-72872068D01*
X113314860Y-73031125D01*
X113314859Y-73031130D01*
X113294355Y-73200000D01*
X104160419Y-73200000D01*
X104126545Y-73120265D01*
X104125239Y-73117067D01*
X104058297Y-72946434D01*
X104057367Y-72944093D01*
X104057270Y-72943853D01*
X104057255Y-72943815D01*
X104053575Y-72935063D01*
X104050876Y-72931103D01*
X104037395Y-72905234D01*
X104024817Y-72872068D01*
X103990476Y-72822318D01*
X103928183Y-72732071D01*
X103800852Y-72619266D01*
X103800849Y-72619263D01*
X103650226Y-72540210D01*
X103485056Y-72499500D01*
X103314944Y-72499500D01*
X103149773Y-72540210D01*
X102999150Y-72619263D01*
X102871816Y-72732072D01*
X102775182Y-72872068D01*
X102714860Y-73031125D01*
X102714859Y-73031130D01*
X102694355Y-73200000D01*
X93560419Y-73200000D01*
X93526545Y-73120265D01*
X93525239Y-73117067D01*
X93458297Y-72946434D01*
X93457367Y-72944093D01*
X93457270Y-72943853D01*
X93457255Y-72943815D01*
X93453575Y-72935063D01*
X93450876Y-72931103D01*
X93437395Y-72905234D01*
X93424817Y-72872068D01*
X93390476Y-72822318D01*
X93328183Y-72732071D01*
X93200852Y-72619266D01*
X93200849Y-72619263D01*
X93050226Y-72540210D01*
X92885056Y-72499500D01*
X92714944Y-72499500D01*
X92549773Y-72540210D01*
X92399150Y-72619263D01*
X92271816Y-72732072D01*
X92175182Y-72872068D01*
X92114860Y-73031125D01*
X92114859Y-73031130D01*
X92094355Y-73200000D01*
X82200500Y-73200000D01*
X82200500Y-71899998D01*
X90344318Y-71899998D01*
X90344318Y-71900001D01*
X90364955Y-72056760D01*
X90364956Y-72056762D01*
X90383294Y-72101035D01*
X90425464Y-72202841D01*
X90521718Y-72328282D01*
X90647159Y-72424536D01*
X90793238Y-72485044D01*
X90871619Y-72495363D01*
X90949999Y-72505682D01*
X90950000Y-72505682D01*
X90950001Y-72505682D01*
X91002254Y-72498802D01*
X91106762Y-72485044D01*
X91252841Y-72424536D01*
X91378282Y-72328282D01*
X91474536Y-72202841D01*
X91503326Y-72133334D01*
X91509696Y-72120203D01*
X91516018Y-72108916D01*
X91520589Y-72100755D01*
X91566507Y-71964817D01*
X91570014Y-71953744D01*
X91570262Y-71952906D01*
X91573250Y-71942084D01*
X91576120Y-71930892D01*
X91591517Y-71870835D01*
X91598428Y-71851024D01*
X91602516Y-71841879D01*
X91620443Y-71813123D01*
X91655902Y-71770552D01*
X91672875Y-71750175D01*
X91673623Y-71748869D01*
X91675371Y-71746584D01*
X91675954Y-71745748D01*
X91675991Y-71745774D01*
X91693499Y-71722891D01*
X91946348Y-71470042D01*
X91946362Y-71470031D01*
X91974245Y-71442147D01*
X91989835Y-71426556D01*
X91998828Y-71418404D01*
X92047702Y-71378292D01*
X92067892Y-71364800D01*
X92118241Y-71337887D01*
X92140681Y-71328591D01*
X92195313Y-71312017D01*
X92219142Y-71307278D01*
X92267976Y-71302467D01*
X92281895Y-71301097D01*
X92294049Y-71300500D01*
X101001651Y-71300500D01*
X101068690Y-71320185D01*
X101114445Y-71372989D01*
X101124389Y-71442147D01*
X101100027Y-71499986D01*
X101025464Y-71597157D01*
X100964956Y-71743237D01*
X100964955Y-71743239D01*
X100944318Y-71899998D01*
X100944318Y-71900001D01*
X100964955Y-72056760D01*
X100964956Y-72056762D01*
X100983294Y-72101035D01*
X101025464Y-72202841D01*
X101121718Y-72328282D01*
X101247159Y-72424536D01*
X101393238Y-72485044D01*
X101471619Y-72495363D01*
X101549999Y-72505682D01*
X101550000Y-72505682D01*
X101550001Y-72505682D01*
X101602254Y-72498802D01*
X101706762Y-72485044D01*
X101852841Y-72424536D01*
X101978282Y-72328282D01*
X102074536Y-72202841D01*
X102113455Y-72108879D01*
X102117021Y-72101055D01*
X102124551Y-72085953D01*
X102126121Y-72080443D01*
X102130808Y-72066986D01*
X102135044Y-72056762D01*
X102135718Y-72051639D01*
X102139407Y-72033830D01*
X102143625Y-72019032D01*
X102162449Y-71952989D01*
X102167537Y-71932471D01*
X102167871Y-71930892D01*
X102171513Y-71910171D01*
X102175631Y-71880856D01*
X102204448Y-71817211D01*
X102214270Y-71807037D01*
X102224282Y-71797791D01*
X102224288Y-71797782D01*
X102224313Y-71797760D01*
X102229749Y-71793026D01*
X102247702Y-71778291D01*
X102267892Y-71764800D01*
X102318241Y-71737887D01*
X102340681Y-71728591D01*
X102395313Y-71712017D01*
X102419142Y-71707278D01*
X102467976Y-71702467D01*
X102481895Y-71701097D01*
X102494049Y-71700500D01*
X111429188Y-71700500D01*
X111496227Y-71720185D01*
X111541982Y-71772989D01*
X111552127Y-71840686D01*
X111544318Y-71900000D01*
X111544318Y-71900001D01*
X111564955Y-72056760D01*
X111564956Y-72056762D01*
X111583294Y-72101035D01*
X111625464Y-72202841D01*
X111721718Y-72328282D01*
X111847159Y-72424536D01*
X111993238Y-72485044D01*
X112071619Y-72495363D01*
X112149999Y-72505682D01*
X112150000Y-72505682D01*
X112150001Y-72505682D01*
X112202254Y-72498802D01*
X112306762Y-72485044D01*
X112452841Y-72424536D01*
X112578282Y-72328282D01*
X112600492Y-72299335D01*
X112614275Y-72284157D01*
X112616126Y-72282430D01*
X112692441Y-72178863D01*
X112707071Y-72157112D01*
X112708295Y-72155293D01*
X112762044Y-72110653D01*
X112811185Y-72100500D01*
X148833125Y-72100500D01*
X148833165Y-72100502D01*
X148842188Y-72100502D01*
X148842191Y-72100503D01*
X148848368Y-72100502D01*
X148848515Y-72100545D01*
X148899775Y-72100542D01*
X148899775Y-72100543D01*
X148995528Y-72100537D01*
X148995536Y-72100537D01*
X149184685Y-72070566D01*
X149184687Y-72070565D01*
X149184696Y-72070564D01*
X149366840Y-72011370D01*
X149537480Y-71924410D01*
X149692417Y-71811826D01*
X149754369Y-71749866D01*
X149824235Y-71680000D01*
X173865203Y-71680000D01*
X173904194Y-71756521D01*
X174005967Y-71896602D01*
X174128397Y-72019032D01*
X174268475Y-72120804D01*
X174422742Y-72199408D01*
X174587415Y-72252914D01*
X174758429Y-72280000D01*
X175171792Y-72280000D01*
X175238831Y-72299685D01*
X175284586Y-72352489D01*
X175294530Y-72421647D01*
X175293409Y-72428191D01*
X175269500Y-72548389D01*
X175269500Y-72671610D01*
X175293535Y-72792444D01*
X175293538Y-72792454D01*
X175340687Y-72906283D01*
X175340692Y-72906292D01*
X175409141Y-73008732D01*
X175409144Y-73008736D01*
X175496263Y-73095855D01*
X175496267Y-73095858D01*
X175598707Y-73164307D01*
X175598713Y-73164310D01*
X175598714Y-73164311D01*
X175712548Y-73211463D01*
X175794029Y-73227670D01*
X175833389Y-73235499D01*
X175833393Y-73235500D01*
X175833394Y-73235500D01*
X175956607Y-73235500D01*
X175956608Y-73235499D01*
X176077452Y-73211463D01*
X176191286Y-73164311D01*
X176293733Y-73095858D01*
X176380858Y-73008733D01*
X176449311Y-72906286D01*
X176496463Y-72792452D01*
X176520500Y-72671606D01*
X176520500Y-72548394D01*
X176496463Y-72427548D01*
X176449311Y-72313714D01*
X176449310Y-72313713D01*
X176449307Y-72313707D01*
X176449023Y-72313282D01*
X176448942Y-72313024D01*
X176446438Y-72308339D01*
X176447326Y-72307864D01*
X176428139Y-72246607D01*
X176446618Y-72179225D01*
X176495826Y-72133897D01*
X176521523Y-72120803D01*
X176661602Y-72019032D01*
X176784032Y-71896602D01*
X176885805Y-71756521D01*
X176924796Y-71680000D01*
X178195203Y-71680000D01*
X178234194Y-71756521D01*
X178335967Y-71896602D01*
X178458397Y-72019032D01*
X178598475Y-72120804D01*
X178752742Y-72199408D01*
X178917415Y-72252914D01*
X179075000Y-72277873D01*
X179075000Y-72277872D01*
X180075000Y-72277872D01*
X180232584Y-72252914D01*
X180397257Y-72199408D01*
X180551524Y-72120804D01*
X180691602Y-72019032D01*
X180814032Y-71896602D01*
X180915805Y-71756521D01*
X180954796Y-71680000D01*
X180075000Y-71680000D01*
X180075000Y-72277872D01*
X179075000Y-72277872D01*
X179075000Y-71680000D01*
X178195203Y-71680000D01*
X176924796Y-71680000D01*
X173865203Y-71680000D01*
X149824235Y-71680000D01*
X150363731Y-71140504D01*
X174545000Y-71140504D01*
X174545000Y-71219496D01*
X174565444Y-71295796D01*
X174604940Y-71364205D01*
X174660795Y-71420060D01*
X174729204Y-71459556D01*
X174805504Y-71480000D01*
X175984496Y-71480000D01*
X176060796Y-71459556D01*
X176129205Y-71420060D01*
X176185060Y-71364205D01*
X176224556Y-71295796D01*
X176245000Y-71219496D01*
X176245000Y-71140504D01*
X178875000Y-71140504D01*
X178875000Y-71219496D01*
X178895444Y-71295796D01*
X178934940Y-71364205D01*
X178990795Y-71420060D01*
X179059204Y-71459556D01*
X179135504Y-71480000D01*
X180014496Y-71480000D01*
X180090796Y-71459556D01*
X180159205Y-71420060D01*
X180215060Y-71364205D01*
X180254556Y-71295796D01*
X180275000Y-71219496D01*
X180275000Y-71140504D01*
X180254556Y-71064204D01*
X180215060Y-70995795D01*
X180159205Y-70939940D01*
X180090796Y-70900444D01*
X180014496Y-70880000D01*
X179135504Y-70880000D01*
X179059204Y-70900444D01*
X178990795Y-70939940D01*
X178934940Y-70995795D01*
X178895444Y-71064204D01*
X178875000Y-71140504D01*
X176245000Y-71140504D01*
X176224556Y-71064204D01*
X176185060Y-70995795D01*
X176129205Y-70939940D01*
X176060796Y-70900444D01*
X175984496Y-70880000D01*
X174805504Y-70880000D01*
X174729204Y-70900444D01*
X174660795Y-70939940D01*
X174604940Y-70995795D01*
X174565444Y-71064204D01*
X174545000Y-71140504D01*
X150363731Y-71140504D01*
X150824236Y-70679999D01*
X173865203Y-70679999D01*
X173865204Y-70680000D01*
X174895000Y-70680000D01*
X175895000Y-70680000D01*
X176924796Y-70680000D01*
X176924796Y-70679999D01*
X178195203Y-70679999D01*
X178195204Y-70680000D01*
X179075000Y-70680000D01*
X180075000Y-70680000D01*
X180954796Y-70680000D01*
X180954796Y-70679999D01*
X180915805Y-70603478D01*
X180814032Y-70463397D01*
X180691602Y-70340967D01*
X180551524Y-70239195D01*
X180397255Y-70160591D01*
X180232581Y-70107085D01*
X180232582Y-70107085D01*
X180075000Y-70082126D01*
X180075000Y-70680000D01*
X179075000Y-70680000D01*
X179075000Y-70082126D01*
X179074999Y-70082126D01*
X178917418Y-70107085D01*
X178752744Y-70160591D01*
X178598475Y-70239195D01*
X178458397Y-70340967D01*
X178335967Y-70463397D01*
X178234194Y-70603478D01*
X178195203Y-70679999D01*
X176924796Y-70679999D01*
X176885805Y-70603478D01*
X176784032Y-70463397D01*
X176661602Y-70340967D01*
X176521524Y-70239195D01*
X176367257Y-70160591D01*
X176202584Y-70107085D01*
X176031571Y-70080000D01*
X175895000Y-70080000D01*
X175895000Y-70680000D01*
X174895000Y-70680000D01*
X174895000Y-70080000D01*
X174758429Y-70080000D01*
X174587415Y-70107085D01*
X174422742Y-70160591D01*
X174268475Y-70239195D01*
X174128397Y-70340967D01*
X174005967Y-70463397D01*
X173904194Y-70603478D01*
X173865203Y-70679999D01*
X150824236Y-70679999D01*
X152491002Y-69013232D01*
X152552323Y-68979749D01*
X152622015Y-68984733D01*
X152623474Y-68985288D01*
X152737903Y-69029618D01*
X152956600Y-69070500D01*
X152956602Y-69070500D01*
X153179084Y-69070500D01*
X153179086Y-69070500D01*
X153397783Y-69029618D01*
X153605244Y-68949247D01*
X153794405Y-68832124D01*
X153958824Y-68682236D01*
X154092901Y-68504689D01*
X154192072Y-68305528D01*
X154198577Y-68282661D01*
X154235855Y-68223571D01*
X154299165Y-68194013D01*
X154368404Y-68203375D01*
X154421591Y-68248684D01*
X154437107Y-68282658D01*
X154443613Y-68305523D01*
X154443615Y-68305530D01*
X154443618Y-68305538D01*
X154542781Y-68504683D01*
X154542786Y-68504691D01*
X154676863Y-68682238D01*
X154841280Y-68832123D01*
X154841282Y-68832125D01*
X155030438Y-68949245D01*
X155030439Y-68949245D01*
X155030442Y-68949247D01*
X155237903Y-69029618D01*
X155456600Y-69070500D01*
X155456602Y-69070500D01*
X155679084Y-69070500D01*
X155679086Y-69070500D01*
X155897783Y-69029618D01*
X156105244Y-68949247D01*
X156294405Y-68832124D01*
X156458824Y-68682236D01*
X156592901Y-68504689D01*
X156692072Y-68305528D01*
X156752958Y-68091536D01*
X156773486Y-67870000D01*
X156773485Y-67869994D01*
X156752958Y-67648464D01*
X156752957Y-67648462D01*
X156745645Y-67622764D01*
X156692072Y-67434472D01*
X156676936Y-67404075D01*
X156592904Y-67235316D01*
X156592899Y-67235308D01*
X156458822Y-67057761D01*
X156294405Y-66907876D01*
X156294403Y-66907874D01*
X156105247Y-66790754D01*
X156105241Y-66790752D01*
X155897783Y-66710382D01*
X155679086Y-66669500D01*
X155456600Y-66669500D01*
X155237903Y-66710382D01*
X155106707Y-66761207D01*
X155030444Y-66790752D01*
X155030438Y-66790754D01*
X154841282Y-66907874D01*
X154841280Y-66907876D01*
X154676863Y-67057761D01*
X154542786Y-67235308D01*
X154542781Y-67235316D01*
X154443618Y-67434461D01*
X154443612Y-67434476D01*
X154437109Y-67457335D01*
X154399830Y-67516429D01*
X154336520Y-67545986D01*
X154267281Y-67536624D01*
X154214094Y-67491314D01*
X154198577Y-67457335D01*
X154192073Y-67434476D01*
X154192072Y-67434472D01*
X154176936Y-67404075D01*
X154092904Y-67235316D01*
X154092899Y-67235308D01*
X153958822Y-67057761D01*
X153794405Y-66907876D01*
X153794403Y-66907874D01*
X153605247Y-66790754D01*
X153605241Y-66790752D01*
X153397783Y-66710382D01*
X153179086Y-66669500D01*
X152956600Y-66669500D01*
X152737903Y-66710382D01*
X152606707Y-66761207D01*
X152530444Y-66790752D01*
X152530438Y-66790754D01*
X152341282Y-66907874D01*
X152341280Y-66907876D01*
X152176863Y-67057761D01*
X152082249Y-67183051D01*
X152026140Y-67224687D01*
X151960362Y-67230185D01*
X151921986Y-67222962D01*
X150567843Y-68577107D01*
X149919986Y-69224963D01*
X149963228Y-69248364D01*
X149963239Y-69248369D01*
X150198349Y-69329083D01*
X150443550Y-69370000D01*
X150692135Y-69370000D01*
X150692268Y-69369989D01*
X150692321Y-69370000D01*
X150697266Y-69370000D01*
X150697266Y-69371016D01*
X150760706Y-69384063D01*
X150810670Y-69432903D01*
X150826298Y-69501002D01*
X150802627Y-69566740D01*
X150790202Y-69581245D01*
X149239401Y-71132046D01*
X149239364Y-71132079D01*
X149205597Y-71165851D01*
X149205581Y-71165868D01*
X149197980Y-71173467D01*
X149188982Y-71181622D01*
X149140138Y-71221713D01*
X149119926Y-71235220D01*
X149069592Y-71262128D01*
X149047135Y-71271431D01*
X148992518Y-71288003D01*
X148968678Y-71292747D01*
X148917314Y-71297809D01*
X148906227Y-71298902D01*
X148894068Y-71299500D01*
X136166254Y-71299500D01*
X136099215Y-71279815D01*
X136053460Y-71227011D01*
X136043516Y-71157853D01*
X136072541Y-71094297D01*
X136078573Y-71087819D01*
X136577759Y-70588633D01*
X138149765Y-69016625D01*
X138211086Y-68983142D01*
X138280778Y-68988126D01*
X138282056Y-68988612D01*
X138387903Y-69029618D01*
X138606600Y-69070500D01*
X138606602Y-69070500D01*
X138829084Y-69070500D01*
X138829086Y-69070500D01*
X139047783Y-69029618D01*
X139255244Y-68949247D01*
X139444405Y-68832124D01*
X139608824Y-68682236D01*
X139742901Y-68504689D01*
X139842072Y-68305528D01*
X139848577Y-68282661D01*
X139885855Y-68223571D01*
X139949165Y-68194013D01*
X140018404Y-68203375D01*
X140071591Y-68248684D01*
X140087107Y-68282658D01*
X140093613Y-68305523D01*
X140093615Y-68305530D01*
X140093618Y-68305538D01*
X140192781Y-68504683D01*
X140192786Y-68504691D01*
X140326863Y-68682238D01*
X140491280Y-68832123D01*
X140491282Y-68832125D01*
X140680438Y-68949245D01*
X140680439Y-68949245D01*
X140680442Y-68949247D01*
X140887903Y-69029618D01*
X141106600Y-69070500D01*
X141106602Y-69070500D01*
X141329084Y-69070500D01*
X141329086Y-69070500D01*
X141547783Y-69029618D01*
X141755244Y-68949247D01*
X141944405Y-68832124D01*
X142108824Y-68682236D01*
X142242901Y-68504689D01*
X142342072Y-68305528D01*
X142402958Y-68091536D01*
X142423486Y-67870000D01*
X142423485Y-67869994D01*
X149062702Y-67869994D01*
X149062702Y-67870005D01*
X149083228Y-68117729D01*
X149083230Y-68117738D01*
X149144255Y-68358717D01*
X149213699Y-68517036D01*
X149860736Y-67870000D01*
X149794910Y-67804174D01*
X150067843Y-67804174D01*
X150067843Y-67935826D01*
X150101918Y-68062993D01*
X150167744Y-68177007D01*
X150260836Y-68270099D01*
X150374850Y-68335925D01*
X150502017Y-68370000D01*
X150633669Y-68370000D01*
X150760836Y-68335925D01*
X150874850Y-68270099D01*
X150967942Y-68177007D01*
X151033768Y-68062993D01*
X151067843Y-67935826D01*
X151067843Y-67804174D01*
X151033768Y-67677007D01*
X150967942Y-67562993D01*
X150874850Y-67469901D01*
X150760836Y-67404075D01*
X150633669Y-67370000D01*
X150502017Y-67370000D01*
X150374850Y-67404075D01*
X150260836Y-67469901D01*
X150167744Y-67562993D01*
X150101918Y-67677007D01*
X150067843Y-67804174D01*
X149794910Y-67804174D01*
X149213699Y-67222963D01*
X149144255Y-67381282D01*
X149083230Y-67622261D01*
X149083228Y-67622270D01*
X149062702Y-67869994D01*
X142423485Y-67869994D01*
X142402958Y-67648464D01*
X142402957Y-67648462D01*
X142395645Y-67622764D01*
X142342072Y-67434472D01*
X142326936Y-67404075D01*
X142242904Y-67235316D01*
X142242899Y-67235308D01*
X142108822Y-67057761D01*
X141944405Y-66907876D01*
X141944403Y-66907874D01*
X141755247Y-66790754D01*
X141755241Y-66790752D01*
X141547783Y-66710382D01*
X141329086Y-66669500D01*
X141106600Y-66669500D01*
X140887903Y-66710382D01*
X140756707Y-66761207D01*
X140680444Y-66790752D01*
X140680438Y-66790754D01*
X140491282Y-66907874D01*
X140491280Y-66907876D01*
X140326863Y-67057761D01*
X140192786Y-67235308D01*
X140192781Y-67235316D01*
X140093618Y-67434461D01*
X140093612Y-67434476D01*
X140087109Y-67457335D01*
X140049830Y-67516429D01*
X139986520Y-67545986D01*
X139917281Y-67536624D01*
X139864094Y-67491314D01*
X139848577Y-67457335D01*
X139842073Y-67434476D01*
X139842072Y-67434472D01*
X139826936Y-67404075D01*
X139742904Y-67235316D01*
X139742899Y-67235308D01*
X139608822Y-67057761D01*
X139444405Y-66907876D01*
X139444403Y-66907874D01*
X139255247Y-66790754D01*
X139255241Y-66790752D01*
X139047783Y-66710382D01*
X138829086Y-66669500D01*
X138606600Y-66669500D01*
X138387903Y-66710382D01*
X138256707Y-66761207D01*
X138180444Y-66790752D01*
X138180438Y-66790754D01*
X137991282Y-66907874D01*
X137991280Y-66907876D01*
X137826863Y-67057761D01*
X137732249Y-67183051D01*
X137676140Y-67224687D01*
X137610362Y-67230185D01*
X137571986Y-67222962D01*
X136217843Y-68577107D01*
X135569986Y-69224963D01*
X135613228Y-69248364D01*
X135613239Y-69248369D01*
X135848349Y-69329083D01*
X136093550Y-69370000D01*
X136342138Y-69370000D01*
X136346193Y-69369323D01*
X136415559Y-69377700D01*
X136469384Y-69422249D01*
X136490579Y-69488826D01*
X136472416Y-69556293D01*
X136454292Y-69579311D01*
X135296581Y-70737024D01*
X135296575Y-70737028D01*
X135260168Y-70773437D01*
X135251153Y-70781608D01*
X135202308Y-70821696D01*
X135182096Y-70835202D01*
X135131762Y-70862107D01*
X135109306Y-70871409D01*
X135054698Y-70887976D01*
X135030855Y-70892720D01*
X134968087Y-70898903D01*
X134955931Y-70899500D01*
X122166254Y-70899500D01*
X122099215Y-70879815D01*
X122053460Y-70827011D01*
X122043516Y-70757853D01*
X122072541Y-70694297D01*
X122078573Y-70687819D01*
X122429368Y-70337024D01*
X123763726Y-69002664D01*
X123825047Y-68969181D01*
X123894738Y-68974165D01*
X123896132Y-68974695D01*
X124037903Y-69029618D01*
X124256600Y-69070500D01*
X124256602Y-69070500D01*
X124479084Y-69070500D01*
X124479086Y-69070500D01*
X124697783Y-69029618D01*
X124905244Y-68949247D01*
X125094405Y-68832124D01*
X125258824Y-68682236D01*
X125392901Y-68504689D01*
X125492072Y-68305528D01*
X125498577Y-68282661D01*
X125535855Y-68223571D01*
X125599165Y-68194013D01*
X125668404Y-68203375D01*
X125721591Y-68248684D01*
X125737107Y-68282658D01*
X125743613Y-68305523D01*
X125743615Y-68305530D01*
X125743618Y-68305538D01*
X125842781Y-68504683D01*
X125842786Y-68504691D01*
X125976863Y-68682238D01*
X126141280Y-68832123D01*
X126141282Y-68832125D01*
X126330438Y-68949245D01*
X126330439Y-68949245D01*
X126330442Y-68949247D01*
X126537903Y-69029618D01*
X126756600Y-69070500D01*
X126756602Y-69070500D01*
X126979084Y-69070500D01*
X126979086Y-69070500D01*
X127197783Y-69029618D01*
X127405244Y-68949247D01*
X127594405Y-68832124D01*
X127758824Y-68682236D01*
X127892901Y-68504689D01*
X127992072Y-68305528D01*
X128052958Y-68091536D01*
X128073486Y-67870000D01*
X128073485Y-67869994D01*
X134712702Y-67869994D01*
X134712702Y-67870005D01*
X134733228Y-68117729D01*
X134733230Y-68117738D01*
X134794255Y-68358717D01*
X134863699Y-68517036D01*
X135510736Y-67870000D01*
X135510736Y-67869999D01*
X135444911Y-67804174D01*
X135717843Y-67804174D01*
X135717843Y-67935826D01*
X135751918Y-68062993D01*
X135817744Y-68177007D01*
X135910836Y-68270099D01*
X136024850Y-68335925D01*
X136152017Y-68370000D01*
X136283669Y-68370000D01*
X136410836Y-68335925D01*
X136524850Y-68270099D01*
X136617942Y-68177007D01*
X136683768Y-68062993D01*
X136717843Y-67935826D01*
X136717843Y-67804174D01*
X136683768Y-67677007D01*
X136617942Y-67562993D01*
X136524850Y-67469901D01*
X136410836Y-67404075D01*
X136283669Y-67370000D01*
X136152017Y-67370000D01*
X136024850Y-67404075D01*
X135910836Y-67469901D01*
X135817744Y-67562993D01*
X135751918Y-67677007D01*
X135717843Y-67804174D01*
X135444911Y-67804174D01*
X134863699Y-67222963D01*
X134794255Y-67381282D01*
X134733230Y-67622261D01*
X134733228Y-67622270D01*
X134712702Y-67869994D01*
X128073485Y-67869994D01*
X128052958Y-67648464D01*
X128052957Y-67648462D01*
X128045645Y-67622764D01*
X127992072Y-67434472D01*
X127976936Y-67404075D01*
X127892904Y-67235316D01*
X127892899Y-67235308D01*
X127758822Y-67057761D01*
X127594405Y-66907876D01*
X127594403Y-66907874D01*
X127405247Y-66790754D01*
X127405241Y-66790752D01*
X127197783Y-66710382D01*
X126979086Y-66669500D01*
X126756600Y-66669500D01*
X126537903Y-66710382D01*
X126406707Y-66761207D01*
X126330444Y-66790752D01*
X126330438Y-66790754D01*
X126141282Y-66907874D01*
X126141280Y-66907876D01*
X125976863Y-67057761D01*
X125842786Y-67235308D01*
X125842781Y-67235316D01*
X125743618Y-67434461D01*
X125743612Y-67434476D01*
X125737109Y-67457335D01*
X125699830Y-67516429D01*
X125636520Y-67545986D01*
X125567281Y-67536624D01*
X125514094Y-67491314D01*
X125498577Y-67457335D01*
X125492073Y-67434476D01*
X125492072Y-67434472D01*
X125476936Y-67404075D01*
X125392904Y-67235316D01*
X125392899Y-67235308D01*
X125258822Y-67057761D01*
X125094405Y-66907876D01*
X125094403Y-66907874D01*
X124905247Y-66790754D01*
X124905241Y-66790752D01*
X124697783Y-66710382D01*
X124479086Y-66669500D01*
X124256600Y-66669500D01*
X124037903Y-66710382D01*
X123906707Y-66761207D01*
X123830444Y-66790752D01*
X123830438Y-66790754D01*
X123641282Y-66907874D01*
X123641280Y-66907876D01*
X123476863Y-67057761D01*
X123382249Y-67183051D01*
X123326140Y-67224687D01*
X123260362Y-67230185D01*
X123221986Y-67222962D01*
X121867843Y-68577107D01*
X121219986Y-69224963D01*
X121263228Y-69248364D01*
X121263239Y-69248369D01*
X121498349Y-69329083D01*
X121743550Y-69370000D01*
X121964242Y-69370000D01*
X122031281Y-69389685D01*
X122077036Y-69442489D01*
X122086980Y-69511647D01*
X122057955Y-69575203D01*
X122051923Y-69581681D01*
X121296581Y-70337024D01*
X121296575Y-70337028D01*
X121260168Y-70373437D01*
X121251153Y-70381608D01*
X121202308Y-70421696D01*
X121182096Y-70435202D01*
X121131762Y-70462107D01*
X121109306Y-70471409D01*
X121054698Y-70487976D01*
X121030855Y-70492720D01*
X120968087Y-70498903D01*
X120955931Y-70499500D01*
X92339465Y-70499500D01*
X92339413Y-70499485D01*
X92192328Y-70499486D01*
X92003166Y-70529449D01*
X92003165Y-70529450D01*
X91821030Y-70588633D01*
X91821024Y-70588635D01*
X91821021Y-70588637D01*
X91791896Y-70603478D01*
X91650384Y-70675585D01*
X91650375Y-70675591D01*
X91495436Y-70788165D01*
X91495435Y-70788167D01*
X91436336Y-70847270D01*
X91436333Y-70847273D01*
X91127085Y-71156520D01*
X91104411Y-71173672D01*
X91104551Y-71173876D01*
X91100081Y-71176947D01*
X91099925Y-71177066D01*
X91099840Y-71177113D01*
X91099824Y-71177123D01*
X91036874Y-71229555D01*
X91008124Y-71247478D01*
X90998982Y-71251565D01*
X90979174Y-71258476D01*
X90907916Y-71276747D01*
X90896978Y-71279768D01*
X90896192Y-71280001D01*
X90885199Y-71283485D01*
X90749231Y-71329414D01*
X90744050Y-71331260D01*
X90739772Y-71332784D01*
X90739089Y-71333040D01*
X90739057Y-71333052D01*
X90723797Y-71339246D01*
X90717514Y-71343521D01*
X90695230Y-71355551D01*
X90647158Y-71375464D01*
X90521719Y-71471716D01*
X90425463Y-71597160D01*
X90364956Y-71743237D01*
X90364955Y-71743239D01*
X90344318Y-71899998D01*
X82200500Y-71899998D01*
X82200500Y-67869994D01*
X120362702Y-67869994D01*
X120362702Y-67870005D01*
X120383228Y-68117729D01*
X120383230Y-68117738D01*
X120444255Y-68358717D01*
X120513699Y-68517036D01*
X121160736Y-67870000D01*
X121094910Y-67804174D01*
X121367843Y-67804174D01*
X121367843Y-67935826D01*
X121401918Y-68062993D01*
X121467744Y-68177007D01*
X121560836Y-68270099D01*
X121674850Y-68335925D01*
X121802017Y-68370000D01*
X121933669Y-68370000D01*
X122060836Y-68335925D01*
X122174850Y-68270099D01*
X122267942Y-68177007D01*
X122333768Y-68062993D01*
X122367843Y-67935826D01*
X122367843Y-67804174D01*
X122333768Y-67677007D01*
X122267942Y-67562993D01*
X122174850Y-67469901D01*
X122060836Y-67404075D01*
X121933669Y-67370000D01*
X121802017Y-67370000D01*
X121674850Y-67404075D01*
X121560836Y-67469901D01*
X121467744Y-67562993D01*
X121401918Y-67677007D01*
X121367843Y-67804174D01*
X121094910Y-67804174D01*
X120513699Y-67222963D01*
X120444255Y-67381282D01*
X120383230Y-67622261D01*
X120383228Y-67622270D01*
X120362702Y-67869994D01*
X82200500Y-67869994D01*
X82200500Y-66515036D01*
X121219986Y-66515036D01*
X121867843Y-67162893D01*
X121867844Y-67162893D01*
X122515699Y-66515036D01*
X135569986Y-66515036D01*
X136217843Y-67162893D01*
X136217844Y-67162893D01*
X136865699Y-66515036D01*
X149919986Y-66515036D01*
X150567843Y-67162893D01*
X150567844Y-67162893D01*
X151215699Y-66515036D01*
X151215699Y-66515035D01*
X151172462Y-66491637D01*
X151172442Y-66491629D01*
X150937336Y-66410916D01*
X150692136Y-66370000D01*
X150443550Y-66370000D01*
X150198349Y-66410916D01*
X149963235Y-66491631D01*
X149919986Y-66515036D01*
X136865699Y-66515036D01*
X136865699Y-66515035D01*
X136822462Y-66491637D01*
X136822442Y-66491629D01*
X136587336Y-66410916D01*
X136342136Y-66370000D01*
X136093550Y-66370000D01*
X135848349Y-66410916D01*
X135613235Y-66491631D01*
X135569986Y-66515036D01*
X122515699Y-66515036D01*
X122515699Y-66515035D01*
X122472462Y-66491637D01*
X122472442Y-66491629D01*
X122237336Y-66410916D01*
X121992136Y-66370000D01*
X121743550Y-66370000D01*
X121498349Y-66410916D01*
X121263235Y-66491631D01*
X121219986Y-66515036D01*
X82200500Y-66515036D01*
X82200500Y-60870000D01*
X117662407Y-60870000D01*
X117682130Y-61170918D01*
X117682131Y-61170930D01*
X117740961Y-61466683D01*
X117740965Y-61466698D01*
X117837896Y-61752247D01*
X117837905Y-61752268D01*
X117971274Y-62022713D01*
X117971278Y-62022720D01*
X118138816Y-62273459D01*
X118337653Y-62500189D01*
X118564383Y-62699026D01*
X118815122Y-62866564D01*
X118815129Y-62866568D01*
X119085574Y-62999937D01*
X119085579Y-62999939D01*
X119085591Y-62999945D01*
X119371152Y-63096880D01*
X119571094Y-63136651D01*
X119666912Y-63155711D01*
X119666913Y-63155711D01*
X119666923Y-63155713D01*
X119967843Y-63175436D01*
X120268763Y-63155713D01*
X120564534Y-63096880D01*
X120850095Y-62999945D01*
X121120561Y-62866566D01*
X121371304Y-62699025D01*
X121598032Y-62500189D01*
X121796868Y-62273461D01*
X121964409Y-62022718D01*
X122097788Y-61752252D01*
X122194723Y-61466691D01*
X122253556Y-61170920D01*
X122273279Y-60870000D01*
X126462407Y-60870000D01*
X126482130Y-61170918D01*
X126482131Y-61170930D01*
X126540961Y-61466683D01*
X126540965Y-61466698D01*
X126637896Y-61752247D01*
X126637905Y-61752268D01*
X126771274Y-62022713D01*
X126771278Y-62022720D01*
X126938816Y-62273459D01*
X127137653Y-62500189D01*
X127364383Y-62699026D01*
X127615122Y-62866564D01*
X127615129Y-62866568D01*
X127885574Y-62999937D01*
X127885579Y-62999939D01*
X127885591Y-62999945D01*
X128171152Y-63096880D01*
X128371094Y-63136651D01*
X128466912Y-63155711D01*
X128466913Y-63155711D01*
X128466923Y-63155713D01*
X128767843Y-63175436D01*
X129068763Y-63155713D01*
X129364534Y-63096880D01*
X129650095Y-62999945D01*
X129920561Y-62866566D01*
X130171304Y-62699025D01*
X130398032Y-62500189D01*
X130596868Y-62273461D01*
X130764409Y-62022718D01*
X130897788Y-61752252D01*
X130994723Y-61466691D01*
X131053556Y-61170920D01*
X131073279Y-60870000D01*
X132012407Y-60870000D01*
X132032130Y-61170918D01*
X132032131Y-61170930D01*
X132090961Y-61466683D01*
X132090965Y-61466698D01*
X132187896Y-61752247D01*
X132187905Y-61752268D01*
X132321274Y-62022713D01*
X132321278Y-62022720D01*
X132488816Y-62273459D01*
X132687653Y-62500189D01*
X132914383Y-62699026D01*
X133165122Y-62866564D01*
X133165129Y-62866568D01*
X133435574Y-62999937D01*
X133435579Y-62999939D01*
X133435591Y-62999945D01*
X133721152Y-63096880D01*
X133921094Y-63136651D01*
X134016912Y-63155711D01*
X134016913Y-63155711D01*
X134016923Y-63155713D01*
X134317843Y-63175436D01*
X134618763Y-63155713D01*
X134914534Y-63096880D01*
X135200095Y-62999945D01*
X135470561Y-62866566D01*
X135721304Y-62699025D01*
X135948032Y-62500189D01*
X136146868Y-62273461D01*
X136314409Y-62022718D01*
X136447788Y-61752252D01*
X136544723Y-61466691D01*
X136603556Y-61170920D01*
X136623279Y-60870000D01*
X140812407Y-60870000D01*
X140832130Y-61170918D01*
X140832131Y-61170930D01*
X140890961Y-61466683D01*
X140890965Y-61466698D01*
X140987896Y-61752247D01*
X140987905Y-61752268D01*
X141121274Y-62022713D01*
X141121278Y-62022720D01*
X141288816Y-62273459D01*
X141487653Y-62500189D01*
X141714383Y-62699026D01*
X141965122Y-62866564D01*
X141965129Y-62866568D01*
X142235574Y-62999937D01*
X142235579Y-62999939D01*
X142235591Y-62999945D01*
X142521152Y-63096880D01*
X142721094Y-63136651D01*
X142816912Y-63155711D01*
X142816913Y-63155711D01*
X142816923Y-63155713D01*
X143117843Y-63175436D01*
X143418763Y-63155713D01*
X143714534Y-63096880D01*
X144000095Y-62999945D01*
X144270561Y-62866566D01*
X144521304Y-62699025D01*
X144748032Y-62500189D01*
X144946868Y-62273461D01*
X145114409Y-62022718D01*
X145247788Y-61752252D01*
X145344723Y-61466691D01*
X145403556Y-61170920D01*
X145423279Y-60870000D01*
X146362407Y-60870000D01*
X146382130Y-61170918D01*
X146382131Y-61170930D01*
X146440961Y-61466683D01*
X146440965Y-61466698D01*
X146537896Y-61752247D01*
X146537905Y-61752268D01*
X146671274Y-62022713D01*
X146671278Y-62022720D01*
X146838816Y-62273459D01*
X147037653Y-62500189D01*
X147264383Y-62699026D01*
X147515122Y-62866564D01*
X147515129Y-62866568D01*
X147785574Y-62999937D01*
X147785579Y-62999939D01*
X147785591Y-62999945D01*
X148071152Y-63096880D01*
X148271094Y-63136651D01*
X148366912Y-63155711D01*
X148366913Y-63155711D01*
X148366923Y-63155713D01*
X148667843Y-63175436D01*
X148968763Y-63155713D01*
X149264534Y-63096880D01*
X149550095Y-62999945D01*
X149820561Y-62866566D01*
X150071304Y-62699025D01*
X150298032Y-62500189D01*
X150496868Y-62273461D01*
X150664409Y-62022718D01*
X150797788Y-61752252D01*
X150894723Y-61466691D01*
X150953556Y-61170920D01*
X150973279Y-60870000D01*
X155162407Y-60870000D01*
X155182130Y-61170918D01*
X155182131Y-61170930D01*
X155240961Y-61466683D01*
X155240965Y-61466698D01*
X155337896Y-61752247D01*
X155337905Y-61752268D01*
X155471274Y-62022713D01*
X155471278Y-62022720D01*
X155638816Y-62273459D01*
X155837653Y-62500189D01*
X156064383Y-62699026D01*
X156315122Y-62866564D01*
X156315129Y-62866568D01*
X156585574Y-62999937D01*
X156585579Y-62999939D01*
X156585591Y-62999945D01*
X156871152Y-63096880D01*
X157071094Y-63136651D01*
X157166912Y-63155711D01*
X157166913Y-63155711D01*
X157166923Y-63155713D01*
X157467843Y-63175436D01*
X157768763Y-63155713D01*
X158064534Y-63096880D01*
X158350095Y-62999945D01*
X158620561Y-62866566D01*
X158712505Y-62805131D01*
X167349500Y-62805131D01*
X167349500Y-67494856D01*
X167349502Y-67494882D01*
X167352413Y-67519987D01*
X167352415Y-67519991D01*
X167397793Y-67622764D01*
X167397794Y-67622765D01*
X167477235Y-67702206D01*
X167580009Y-67747585D01*
X167605135Y-67750500D01*
X169694864Y-67750499D01*
X169694879Y-67750497D01*
X169694882Y-67750497D01*
X169719987Y-67747586D01*
X169719988Y-67747585D01*
X169719991Y-67747585D01*
X169822765Y-67702206D01*
X169902206Y-67622765D01*
X169947585Y-67519991D01*
X169950500Y-67494865D01*
X169950499Y-63924071D01*
X173350000Y-63924071D01*
X173350000Y-64650000D01*
X174450000Y-64650000D01*
X174450000Y-65650000D01*
X173350000Y-65650000D01*
X173350000Y-66375928D01*
X173389397Y-66624669D01*
X173467219Y-66864184D01*
X173581557Y-67088583D01*
X173729590Y-67292331D01*
X173729590Y-67292332D01*
X173907667Y-67470409D01*
X174111416Y-67618442D01*
X174335812Y-67732779D01*
X174335818Y-67732781D01*
X174449999Y-67769880D01*
X174450000Y-67769879D01*
X174450000Y-66315826D01*
X174484075Y-66442993D01*
X174549901Y-66557007D01*
X174642993Y-66650099D01*
X174757007Y-66715925D01*
X174884174Y-66750000D01*
X175015826Y-66750000D01*
X175142993Y-66715925D01*
X175257007Y-66650099D01*
X175350099Y-66557007D01*
X175415925Y-66442993D01*
X175450000Y-66315826D01*
X175450000Y-67769880D01*
X175564181Y-67732781D01*
X175564187Y-67732779D01*
X175788583Y-67618442D01*
X175992331Y-67470409D01*
X175992332Y-67470409D01*
X176170409Y-67292332D01*
X176170409Y-67292331D01*
X176318442Y-67088583D01*
X176432780Y-66864184D01*
X176510602Y-66624669D01*
X176550000Y-66375928D01*
X176550000Y-65650000D01*
X175450000Y-65650000D01*
X175450000Y-64650000D01*
X176550000Y-64650000D01*
X176550000Y-63924071D01*
X176510602Y-63675330D01*
X176432780Y-63435815D01*
X176318442Y-63211416D01*
X176170409Y-63007668D01*
X176170409Y-63007667D01*
X175992332Y-62829590D01*
X175788583Y-62681557D01*
X175564191Y-62567222D01*
X175450000Y-62530119D01*
X175450000Y-63984174D01*
X175415925Y-63857007D01*
X175350099Y-63742993D01*
X175257007Y-63649901D01*
X175142993Y-63584075D01*
X175015826Y-63550000D01*
X174884174Y-63550000D01*
X174757007Y-63584075D01*
X174642993Y-63649901D01*
X174549901Y-63742993D01*
X174484075Y-63857007D01*
X174450000Y-63984174D01*
X174450000Y-62530119D01*
X174335808Y-62567222D01*
X174111416Y-62681557D01*
X173907668Y-62829590D01*
X173907667Y-62829590D01*
X173729590Y-63007667D01*
X173729590Y-63007668D01*
X173581557Y-63211416D01*
X173467219Y-63435815D01*
X173389397Y-63675330D01*
X173350000Y-63924071D01*
X169950499Y-63924071D01*
X169950499Y-62805136D01*
X169950497Y-62805117D01*
X169947586Y-62780012D01*
X169947585Y-62780010D01*
X169947585Y-62780009D01*
X169902206Y-62677235D01*
X169822765Y-62597794D01*
X169753526Y-62567222D01*
X169719992Y-62552415D01*
X169694865Y-62549500D01*
X167605143Y-62549500D01*
X167605117Y-62549502D01*
X167580012Y-62552413D01*
X167580008Y-62552415D01*
X167477235Y-62597793D01*
X167397794Y-62677234D01*
X167352415Y-62780006D01*
X167352415Y-62780008D01*
X167349500Y-62805131D01*
X158712505Y-62805131D01*
X158871304Y-62699025D01*
X159098032Y-62500189D01*
X159296868Y-62273461D01*
X159464409Y-62022718D01*
X159597788Y-61752252D01*
X159694723Y-61466691D01*
X159753556Y-61170920D01*
X159773279Y-60870000D01*
X159753556Y-60569080D01*
X159694723Y-60273309D01*
X159597788Y-59987748D01*
X159529858Y-59849999D01*
X168930119Y-59849999D01*
X168930120Y-59850000D01*
X170384174Y-59850000D01*
X170257007Y-59884075D01*
X170142993Y-59949901D01*
X170049901Y-60042993D01*
X169984075Y-60157007D01*
X169950000Y-60284174D01*
X169950000Y-60415826D01*
X169984075Y-60542993D01*
X170049901Y-60657007D01*
X170142993Y-60750099D01*
X170257007Y-60815925D01*
X170384174Y-60850000D01*
X168930119Y-60850000D01*
X168967218Y-60964181D01*
X168967220Y-60964187D01*
X169081557Y-61188583D01*
X169229590Y-61392331D01*
X169229590Y-61392332D01*
X169407667Y-61570409D01*
X169611416Y-61718442D01*
X169835815Y-61832780D01*
X170075330Y-61910602D01*
X170324072Y-61950000D01*
X171050000Y-61950000D01*
X171050000Y-60850000D01*
X172050000Y-60850000D01*
X172050000Y-61950000D01*
X172775928Y-61950000D01*
X173024669Y-61910602D01*
X173264184Y-61832780D01*
X173488583Y-61718442D01*
X173692331Y-61570409D01*
X173692332Y-61570409D01*
X173870409Y-61392332D01*
X173870409Y-61392331D01*
X174018442Y-61188583D01*
X174132779Y-60964187D01*
X174132781Y-60964181D01*
X174169880Y-60850000D01*
X172715826Y-60850000D01*
X172842993Y-60815925D01*
X172957007Y-60750099D01*
X173050099Y-60657007D01*
X173115925Y-60542993D01*
X173150000Y-60415826D01*
X173150000Y-60284174D01*
X173115925Y-60157007D01*
X173050099Y-60042993D01*
X172957007Y-59949901D01*
X172842993Y-59884075D01*
X172715826Y-59850000D01*
X174169880Y-59850000D01*
X174169880Y-59849999D01*
X174132781Y-59735818D01*
X174132779Y-59735812D01*
X174018442Y-59511416D01*
X173870409Y-59307668D01*
X173870409Y-59307667D01*
X173692332Y-59129590D01*
X173488583Y-58981557D01*
X173264184Y-58867219D01*
X173024669Y-58789397D01*
X172775928Y-58750000D01*
X172050000Y-58750000D01*
X172050000Y-59850000D01*
X171050000Y-59850000D01*
X171050000Y-58750000D01*
X170324072Y-58750000D01*
X170075330Y-58789397D01*
X169835815Y-58867219D01*
X169611416Y-58981557D01*
X169407668Y-59129590D01*
X169407667Y-59129590D01*
X169229590Y-59307667D01*
X169229590Y-59307668D01*
X169081557Y-59511416D01*
X168967220Y-59735812D01*
X168967218Y-59735818D01*
X168930119Y-59849999D01*
X159529858Y-59849999D01*
X159464409Y-59717282D01*
X159296868Y-59466539D01*
X159098032Y-59239810D01*
X158871302Y-59040973D01*
X158620563Y-58873435D01*
X158620556Y-58873431D01*
X158350111Y-58740062D01*
X158350090Y-58740053D01*
X158064541Y-58643122D01*
X158064535Y-58643120D01*
X158064534Y-58643120D01*
X158064532Y-58643119D01*
X158064526Y-58643118D01*
X157768773Y-58584288D01*
X157768764Y-58584287D01*
X157768763Y-58584287D01*
X157467843Y-58564564D01*
X157166923Y-58584287D01*
X157166922Y-58584287D01*
X157166912Y-58584288D01*
X156871159Y-58643118D01*
X156871144Y-58643122D01*
X156585595Y-58740053D01*
X156585574Y-58740062D01*
X156315129Y-58873431D01*
X156315122Y-58873435D01*
X156064383Y-59040973D01*
X155837653Y-59239810D01*
X155638816Y-59466540D01*
X155471278Y-59717279D01*
X155471274Y-59717286D01*
X155337905Y-59987731D01*
X155337896Y-59987752D01*
X155240965Y-60273301D01*
X155240961Y-60273316D01*
X155182131Y-60569069D01*
X155182130Y-60569081D01*
X155162407Y-60870000D01*
X150973279Y-60870000D01*
X150953556Y-60569080D01*
X150894723Y-60273309D01*
X150797788Y-59987748D01*
X150664409Y-59717282D01*
X150496868Y-59466539D01*
X150298032Y-59239810D01*
X150071302Y-59040973D01*
X149820563Y-58873435D01*
X149820556Y-58873431D01*
X149550111Y-58740062D01*
X149550090Y-58740053D01*
X149264541Y-58643122D01*
X149264535Y-58643120D01*
X149264534Y-58643120D01*
X149264532Y-58643119D01*
X149264526Y-58643118D01*
X148968773Y-58584288D01*
X148968764Y-58584287D01*
X148968763Y-58584287D01*
X148667843Y-58564564D01*
X148366923Y-58584287D01*
X148366922Y-58584287D01*
X148366912Y-58584288D01*
X148071159Y-58643118D01*
X148071144Y-58643122D01*
X147785595Y-58740053D01*
X147785574Y-58740062D01*
X147515129Y-58873431D01*
X147515122Y-58873435D01*
X147264383Y-59040973D01*
X147037653Y-59239810D01*
X146838816Y-59466540D01*
X146671278Y-59717279D01*
X146671274Y-59717286D01*
X146537905Y-59987731D01*
X146537896Y-59987752D01*
X146440965Y-60273301D01*
X146440961Y-60273316D01*
X146382131Y-60569069D01*
X146382130Y-60569081D01*
X146362407Y-60870000D01*
X145423279Y-60870000D01*
X145403556Y-60569080D01*
X145344723Y-60273309D01*
X145247788Y-59987748D01*
X145114409Y-59717282D01*
X144946868Y-59466539D01*
X144748032Y-59239810D01*
X144521302Y-59040973D01*
X144270563Y-58873435D01*
X144270556Y-58873431D01*
X144000111Y-58740062D01*
X144000090Y-58740053D01*
X143714541Y-58643122D01*
X143714535Y-58643120D01*
X143714534Y-58643120D01*
X143714532Y-58643119D01*
X143714526Y-58643118D01*
X143418773Y-58584288D01*
X143418764Y-58584287D01*
X143418763Y-58584287D01*
X143117843Y-58564564D01*
X142816923Y-58584287D01*
X142816922Y-58584287D01*
X142816912Y-58584288D01*
X142521159Y-58643118D01*
X142521144Y-58643122D01*
X142235595Y-58740053D01*
X142235574Y-58740062D01*
X141965129Y-58873431D01*
X141965122Y-58873435D01*
X141714383Y-59040973D01*
X141487653Y-59239810D01*
X141288816Y-59466540D01*
X141121278Y-59717279D01*
X141121274Y-59717286D01*
X140987905Y-59987731D01*
X140987896Y-59987752D01*
X140890965Y-60273301D01*
X140890961Y-60273316D01*
X140832131Y-60569069D01*
X140832130Y-60569081D01*
X140812407Y-60870000D01*
X136623279Y-60870000D01*
X136603556Y-60569080D01*
X136544723Y-60273309D01*
X136447788Y-59987748D01*
X136314409Y-59717282D01*
X136146868Y-59466539D01*
X135948032Y-59239810D01*
X135721302Y-59040973D01*
X135470563Y-58873435D01*
X135470556Y-58873431D01*
X135200111Y-58740062D01*
X135200090Y-58740053D01*
X134914541Y-58643122D01*
X134914535Y-58643120D01*
X134914534Y-58643120D01*
X134914532Y-58643119D01*
X134914526Y-58643118D01*
X134618773Y-58584288D01*
X134618764Y-58584287D01*
X134618763Y-58584287D01*
X134317843Y-58564564D01*
X134016923Y-58584287D01*
X134016922Y-58584287D01*
X134016912Y-58584288D01*
X133721159Y-58643118D01*
X133721144Y-58643122D01*
X133435595Y-58740053D01*
X133435574Y-58740062D01*
X133165129Y-58873431D01*
X133165122Y-58873435D01*
X132914383Y-59040973D01*
X132687653Y-59239810D01*
X132488816Y-59466540D01*
X132321278Y-59717279D01*
X132321274Y-59717286D01*
X132187905Y-59987731D01*
X132187896Y-59987752D01*
X132090965Y-60273301D01*
X132090961Y-60273316D01*
X132032131Y-60569069D01*
X132032130Y-60569081D01*
X132012407Y-60870000D01*
X131073279Y-60870000D01*
X131053556Y-60569080D01*
X130994723Y-60273309D01*
X130897788Y-59987748D01*
X130764409Y-59717282D01*
X130596868Y-59466539D01*
X130398032Y-59239810D01*
X130171302Y-59040973D01*
X129920563Y-58873435D01*
X129920556Y-58873431D01*
X129650111Y-58740062D01*
X129650090Y-58740053D01*
X129364541Y-58643122D01*
X129364535Y-58643120D01*
X129364534Y-58643120D01*
X129364532Y-58643119D01*
X129364526Y-58643118D01*
X129068773Y-58584288D01*
X129068764Y-58584287D01*
X129068763Y-58584287D01*
X128767843Y-58564564D01*
X128466923Y-58584287D01*
X128466922Y-58584287D01*
X128466912Y-58584288D01*
X128171159Y-58643118D01*
X128171144Y-58643122D01*
X127885595Y-58740053D01*
X127885574Y-58740062D01*
X127615129Y-58873431D01*
X127615122Y-58873435D01*
X127364383Y-59040973D01*
X127137653Y-59239810D01*
X126938816Y-59466540D01*
X126771278Y-59717279D01*
X126771274Y-59717286D01*
X126637905Y-59987731D01*
X126637896Y-59987752D01*
X126540965Y-60273301D01*
X126540961Y-60273316D01*
X126482131Y-60569069D01*
X126482130Y-60569081D01*
X126462407Y-60870000D01*
X122273279Y-60870000D01*
X122253556Y-60569080D01*
X122194723Y-60273309D01*
X122097788Y-59987748D01*
X121964409Y-59717282D01*
X121796868Y-59466539D01*
X121598032Y-59239810D01*
X121371302Y-59040973D01*
X121120563Y-58873435D01*
X121120556Y-58873431D01*
X120850111Y-58740062D01*
X120850090Y-58740053D01*
X120564541Y-58643122D01*
X120564535Y-58643120D01*
X120564534Y-58643120D01*
X120564532Y-58643119D01*
X120564526Y-58643118D01*
X120268773Y-58584288D01*
X120268764Y-58584287D01*
X120268763Y-58584287D01*
X119967843Y-58564564D01*
X119666923Y-58584287D01*
X119666922Y-58584287D01*
X119666912Y-58584288D01*
X119371159Y-58643118D01*
X119371144Y-58643122D01*
X119085595Y-58740053D01*
X119085574Y-58740062D01*
X118815129Y-58873431D01*
X118815122Y-58873435D01*
X118564383Y-59040973D01*
X118337653Y-59239810D01*
X118138816Y-59466540D01*
X117971278Y-59717279D01*
X117971274Y-59717286D01*
X117837905Y-59987731D01*
X117837896Y-59987752D01*
X117740965Y-60273301D01*
X117740961Y-60273316D01*
X117682131Y-60569069D01*
X117682130Y-60569081D01*
X117662407Y-60870000D01*
X82200500Y-60870000D01*
X82200500Y-56141768D01*
X82220185Y-56074729D01*
X82272989Y-56028974D01*
X82342147Y-56019030D01*
X82405703Y-56048055D01*
X82421447Y-56064456D01*
X82557895Y-56235558D01*
X82557901Y-56235564D01*
X82557902Y-56235565D01*
X82764435Y-56442098D01*
X82992794Y-56624208D01*
X83240107Y-56779605D01*
X83503263Y-56906335D01*
X83778955Y-57002803D01*
X84063714Y-57067798D01*
X84063723Y-57067799D01*
X84063728Y-57067800D01*
X84257210Y-57089599D01*
X84353953Y-57100499D01*
X84353956Y-57100500D01*
X84353959Y-57100500D01*
X84646044Y-57100500D01*
X84646045Y-57100499D01*
X84794371Y-57083787D01*
X84936271Y-57067800D01*
X84936274Y-57067799D01*
X84936286Y-57067798D01*
X85221045Y-57002803D01*
X85496737Y-56906335D01*
X85759893Y-56779605D01*
X86007206Y-56624208D01*
X86235565Y-56442098D01*
X86442098Y-56235565D01*
X86624208Y-56007206D01*
X86779605Y-55759893D01*
X86906335Y-55496737D01*
X87002803Y-55221045D01*
X87067798Y-54936286D01*
X87100500Y-54646041D01*
X87100500Y-54353959D01*
X87067798Y-54063714D01*
X87002803Y-53778955D01*
X86906335Y-53503263D01*
X86779605Y-53240107D01*
X86624208Y-52992794D01*
X86442098Y-52764435D01*
X86235565Y-52557902D01*
X86064456Y-52421447D01*
X86024316Y-52364259D01*
X86021466Y-52294447D01*
X86056811Y-52234177D01*
X86119130Y-52202584D01*
X86141769Y-52200500D01*
X177858231Y-52200500D01*
X177925270Y-52220185D01*
G37*
G04 #@! TD.AperFunction*
G04 #@! TA.AperFunction,Conductor*
G36*
X93167506Y-73051474D02*
G01*
X93173824Y-73057821D01*
X93173896Y-73058000D01*
X93243029Y-73234216D01*
X93243036Y-73234232D01*
X93243037Y-73234235D01*
X93297641Y-73362765D01*
X93297647Y-73362777D01*
X93372607Y-73477747D01*
X93499526Y-73616006D01*
X93502596Y-73624417D01*
X93499180Y-73632190D01*
X93232190Y-73899180D01*
X93223917Y-73902607D01*
X93216006Y-73899526D01*
X93077747Y-73772607D01*
X92962777Y-73697647D01*
X92962765Y-73697641D01*
X92834235Y-73643037D01*
X92834232Y-73643036D01*
X92834216Y-73643029D01*
X92658000Y-73573896D01*
X92651550Y-73567684D01*
X92651381Y-73558731D01*
X92651425Y-73558620D01*
X92797437Y-73203802D01*
X92803753Y-73197457D01*
X93158553Y-73051453D01*
X93167506Y-73051474D01*
G37*
G04 #@! TD.AperFunction*
G04 #@! TA.AperFunction,Conductor*
G36*
X116651428Y-81641248D02*
G01*
X116651500Y-81641418D01*
X116702278Y-81763210D01*
X116799123Y-81995498D01*
X116799144Y-82004452D01*
X116799123Y-82004502D01*
X116651504Y-82358572D01*
X116645157Y-82364890D01*
X116636203Y-82364869D01*
X116636025Y-82364793D01*
X116462524Y-82289068D01*
X116333009Y-82236789D01*
X116291722Y-82228091D01*
X116198708Y-82208497D01*
X116198705Y-82208496D01*
X116198701Y-82208496D01*
X116011200Y-82200478D01*
X116003081Y-82196701D01*
X116000000Y-82188789D01*
X116000000Y-81811210D01*
X116003427Y-81802937D01*
X116011200Y-81799521D01*
X116198708Y-81791502D01*
X116333008Y-81763210D01*
X116462536Y-81710925D01*
X116636027Y-81635204D01*
X116644978Y-81635036D01*
X116651428Y-81641248D01*
G37*
G04 #@! TD.AperFunction*
G04 #@! TA.AperFunction,Conductor*
G36*
X103767506Y-73051474D02*
G01*
X103773824Y-73057821D01*
X103773896Y-73058000D01*
X103843029Y-73234216D01*
X103843036Y-73234232D01*
X103843037Y-73234235D01*
X103897641Y-73362765D01*
X103897647Y-73362777D01*
X103972607Y-73477747D01*
X104099526Y-73616006D01*
X104102596Y-73624417D01*
X104099180Y-73632190D01*
X103832190Y-73899180D01*
X103823917Y-73902607D01*
X103816006Y-73899526D01*
X103677747Y-73772607D01*
X103562777Y-73697647D01*
X103562765Y-73697641D01*
X103434235Y-73643037D01*
X103434232Y-73643036D01*
X103434216Y-73643029D01*
X103258000Y-73573896D01*
X103251550Y-73567684D01*
X103251381Y-73558731D01*
X103251425Y-73558620D01*
X103397437Y-73203802D01*
X103403753Y-73197457D01*
X103758553Y-73051453D01*
X103767506Y-73051474D01*
G37*
G04 #@! TD.AperFunction*
G04 #@! TA.AperFunction,Conductor*
G36*
X118597063Y-82203427D02*
G01*
X118600479Y-82211200D01*
X118608496Y-82398699D01*
X118608496Y-82398704D01*
X118636789Y-82533009D01*
X118689068Y-82662524D01*
X118764793Y-82836025D01*
X118764962Y-82844978D01*
X118758750Y-82851428D01*
X118758572Y-82851504D01*
X118404502Y-82999123D01*
X118395548Y-82999144D01*
X118395498Y-82999123D01*
X118041426Y-82851504D01*
X118035108Y-82845157D01*
X118035129Y-82836203D01*
X118035153Y-82836146D01*
X118110925Y-82662536D01*
X118163210Y-82533008D01*
X118191502Y-82398708D01*
X118199521Y-82211199D01*
X118203298Y-82203081D01*
X118211210Y-82200000D01*
X118588790Y-82200000D01*
X118597063Y-82203427D01*
G37*
G04 #@! TD.AperFunction*
G04 #@! TA.AperFunction,Conductor*
G36*
X114367506Y-73051474D02*
G01*
X114373824Y-73057821D01*
X114373896Y-73058000D01*
X114443029Y-73234216D01*
X114443036Y-73234232D01*
X114443037Y-73234235D01*
X114497641Y-73362765D01*
X114497647Y-73362777D01*
X114572607Y-73477747D01*
X114699526Y-73616006D01*
X114702596Y-73624417D01*
X114699180Y-73632190D01*
X114432190Y-73899180D01*
X114423917Y-73902607D01*
X114416006Y-73899526D01*
X114277747Y-73772607D01*
X114162777Y-73697647D01*
X114162765Y-73697641D01*
X114034235Y-73643037D01*
X114034232Y-73643036D01*
X114034216Y-73643029D01*
X113858000Y-73573896D01*
X113851550Y-73567684D01*
X113851381Y-73558731D01*
X113851425Y-73558620D01*
X113997437Y-73203802D01*
X114003753Y-73197457D01*
X114358553Y-73051453D01*
X114367506Y-73051474D01*
G37*
G04 #@! TD.AperFunction*
G04 #@! TA.AperFunction,Conductor*
G36*
X120197063Y-83203427D02*
G01*
X120200479Y-83211200D01*
X120208496Y-83398699D01*
X120208496Y-83398704D01*
X120236789Y-83533009D01*
X120289068Y-83662524D01*
X120364793Y-83836025D01*
X120364962Y-83844978D01*
X120358750Y-83851428D01*
X120358572Y-83851504D01*
X120004502Y-83999123D01*
X119995548Y-83999144D01*
X119995498Y-83999123D01*
X119641426Y-83851504D01*
X119635108Y-83845157D01*
X119635129Y-83836203D01*
X119635153Y-83836146D01*
X119710925Y-83662536D01*
X119763210Y-83533008D01*
X119791502Y-83398708D01*
X119799521Y-83211199D01*
X119803298Y-83203081D01*
X119811210Y-83200000D01*
X120188790Y-83200000D01*
X120197063Y-83203427D01*
G37*
G04 #@! TD.AperFunction*
G04 #@! TA.AperFunction,Conductor*
G36*
X175789693Y-76483664D02*
G01*
X175790003Y-76484343D01*
X175899115Y-76745489D01*
X175899142Y-76754444D01*
X175899115Y-76754511D01*
X175790003Y-77015655D01*
X175783651Y-77021967D01*
X175774696Y-77021940D01*
X175774017Y-77021630D01*
X175645433Y-76957980D01*
X175644664Y-76957563D01*
X175549969Y-76901519D01*
X175549962Y-76901516D01*
X175451214Y-76863783D01*
X175310638Y-76850969D01*
X175302710Y-76846805D01*
X175300000Y-76839317D01*
X175300000Y-76660682D01*
X175303427Y-76652409D01*
X175310637Y-76649030D01*
X175451213Y-76636216D01*
X175549969Y-76598480D01*
X175644674Y-76542429D01*
X175645423Y-76542023D01*
X175774019Y-76478367D01*
X175782951Y-76477769D01*
X175789693Y-76483664D01*
G37*
G04 #@! TD.AperFunction*
G04 #@! TA.AperFunction,Conductor*
G36*
X168412265Y-80162221D02*
G01*
X168538755Y-80288711D01*
X168542182Y-80296984D01*
X168540033Y-80303742D01*
X168474188Y-80396807D01*
X168474188Y-80396808D01*
X168465623Y-80486630D01*
X168485578Y-80587801D01*
X168485735Y-80588846D01*
X168498649Y-80712111D01*
X168496103Y-80720696D01*
X168488232Y-80724966D01*
X168487041Y-80725030D01*
X168204179Y-80725695D01*
X168195897Y-80722288D01*
X168195850Y-80722241D01*
X168063341Y-80588846D01*
X167996413Y-80521470D01*
X167993015Y-80513187D01*
X167996469Y-80504925D01*
X167996739Y-80504666D01*
X168107217Y-80402526D01*
X168107989Y-80401874D01*
X168196089Y-80333567D01*
X168243271Y-80296984D01*
X168284594Y-80264944D01*
X168396052Y-80161902D01*
X168404451Y-80158803D01*
X168412265Y-80162221D01*
G37*
G04 #@! TD.AperFunction*
G04 #@! TA.AperFunction,Conductor*
G36*
X167697591Y-81728427D02*
G01*
X167700970Y-81735638D01*
X167713783Y-81876214D01*
X167751516Y-81974962D01*
X167751519Y-81974969D01*
X167807563Y-82069664D01*
X167807980Y-82070433D01*
X167871630Y-82199017D01*
X167872229Y-82207951D01*
X167866334Y-82214693D01*
X167865655Y-82215003D01*
X167604511Y-82324115D01*
X167595556Y-82324142D01*
X167595489Y-82324115D01*
X167334343Y-82215003D01*
X167328031Y-82208651D01*
X167328058Y-82199696D01*
X167328354Y-82199046D01*
X167392023Y-82070423D01*
X167392429Y-82069674D01*
X167448480Y-81974969D01*
X167486216Y-81876213D01*
X167499030Y-81735637D01*
X167503194Y-81727710D01*
X167510682Y-81725000D01*
X167689318Y-81725000D01*
X167697591Y-81728427D01*
G37*
G04 #@! TD.AperFunction*
G04 #@! TA.AperFunction,Conductor*
G36*
X176165655Y-74209996D02*
G01*
X176171967Y-74216348D01*
X176171940Y-74225303D01*
X176171630Y-74225983D01*
X176107977Y-74354571D01*
X176107560Y-74355339D01*
X176051519Y-74450029D01*
X176051516Y-74450036D01*
X176013783Y-74548784D01*
X176000970Y-74689362D01*
X175996806Y-74697290D01*
X175989318Y-74700000D01*
X175810682Y-74700000D01*
X175802409Y-74696573D01*
X175799030Y-74689362D01*
X175786216Y-74548786D01*
X175748480Y-74450030D01*
X175692435Y-74355334D01*
X175692018Y-74354565D01*
X175628369Y-74225982D01*
X175627770Y-74217048D01*
X175633665Y-74210306D01*
X175634325Y-74210004D01*
X175895490Y-74100883D01*
X175904444Y-74100857D01*
X176165655Y-74209996D01*
G37*
G04 #@! TD.AperFunction*
G04 #@! TA.AperFunction,Conductor*
G36*
X91311106Y-71412579D02*
G01*
X91437420Y-71538893D01*
X91440847Y-71547166D01*
X91438137Y-71554654D01*
X91347797Y-71663114D01*
X91347796Y-71663116D01*
X91304649Y-71759627D01*
X91304647Y-71759630D01*
X91277321Y-71866212D01*
X91277073Y-71867050D01*
X91231155Y-72002988D01*
X91225260Y-72009730D01*
X91216326Y-72010329D01*
X91215626Y-72010067D01*
X90953815Y-71902563D01*
X90947463Y-71896251D01*
X90947436Y-71896184D01*
X90891363Y-71759627D01*
X90839932Y-71634372D01*
X90839959Y-71625418D01*
X90846311Y-71619106D01*
X90846994Y-71618850D01*
X90982967Y-71572919D01*
X90983767Y-71572682D01*
X91090368Y-71545350D01*
X91186882Y-71502203D01*
X91295346Y-71411861D01*
X91303895Y-71409200D01*
X91311106Y-71412579D01*
G37*
G04 #@! TD.AperFunction*
G04 #@! TA.AperFunction,Conductor*
G36*
X101919505Y-71409701D02*
G01*
X102018787Y-71558279D01*
X102020534Y-71567061D01*
X102016997Y-71573374D01*
X101951489Y-71633881D01*
X101920825Y-71662203D01*
X101884550Y-71756877D01*
X101884548Y-71756883D01*
X101868984Y-71867670D01*
X101868650Y-71869249D01*
X101830752Y-72002213D01*
X101825189Y-72009230D01*
X101816293Y-72010258D01*
X101815063Y-72009832D01*
X101553688Y-71902412D01*
X101547340Y-71896098D01*
X101547313Y-71896033D01*
X101535673Y-71867670D01*
X101439727Y-71633879D01*
X101439756Y-71624926D01*
X101446109Y-71618615D01*
X101446282Y-71618545D01*
X101581818Y-71566099D01*
X101683346Y-71528662D01*
X101780305Y-71482679D01*
X101903616Y-71406255D01*
X101912451Y-71404811D01*
X101919505Y-71409701D01*
G37*
G04 #@! TD.AperFunction*
G04 #@! TA.AperFunction,Conductor*
G36*
X112677404Y-71603927D02*
G01*
X112680831Y-71612200D01*
X112680831Y-71790580D01*
X112677404Y-71798853D01*
X112671628Y-71802010D01*
X112559115Y-71826590D01*
X112559112Y-71826592D01*
X112496985Y-71896917D01*
X112496984Y-71896920D01*
X112447548Y-71995923D01*
X112446499Y-71997637D01*
X112370184Y-72101204D01*
X112362518Y-72105831D01*
X112353824Y-72103682D01*
X112352511Y-72102556D01*
X112152462Y-71903446D01*
X112149016Y-71895181D01*
X112149016Y-71895114D01*
X112149959Y-71612159D01*
X112153413Y-71603899D01*
X112161659Y-71600500D01*
X112669131Y-71600500D01*
X112677404Y-71603927D01*
G37*
G04 #@! TD.AperFunction*
M02*
