G04 #@! TF.GenerationSoftware,KiCad,Pcbnew,9.0.1-rc2*
G04 #@! TF.CreationDate,2025-10-07T22:29:05-07:00*
G04 #@! TF.ProjectId,backlight,6261636b-6c69-4676-9874-2e6b69636164,rev?*
G04 #@! TF.SameCoordinates,Original*
G04 #@! TF.FileFunction,Legend,Top*
G04 #@! TF.FilePolarity,Positive*
%FSLAX46Y46*%
G04 Gerber Fmt 4.6, Leading zero omitted, Abs format (unit mm)*
G04 Created by KiCad (PCBNEW 9.0.1-rc2) date 2025-10-07 22:29:05*
%MOMM*%
%LPD*%
G01*
G04 APERTURE LIST*
G04 Aperture macros list*
%AMRoundRect*
0 Rectangle with rounded corners*
0 $1 Rounding radius*
0 $2 $3 $4 $5 $6 $7 $8 $9 X,Y pos of 4 corners*
0 Add a 4 corners polygon primitive as box body*
4,1,4,$2,$3,$4,$5,$6,$7,$8,$9,$2,$3,0*
0 Add four circle primitives for the rounded corners*
1,1,$1+$1,$2,$3*
1,1,$1+$1,$4,$5*
1,1,$1+$1,$6,$7*
1,1,$1+$1,$8,$9*
0 Add four rect primitives between the rounded corners*
20,1,$1+$1,$2,$3,$4,$5,0*
20,1,$1+$1,$4,$5,$6,$7,0*
20,1,$1+$1,$6,$7,$8,$9,0*
20,1,$1+$1,$8,$9,$2,$3,0*%
%AMFreePoly0*
4,1,9,3.862500,-0.866500,0.737500,-0.866500,0.737500,-0.450000,-0.737500,-0.450000,-0.737500,0.450000,0.737500,0.450000,0.737500,0.866500,3.862500,0.866500,3.862500,-0.866500,3.862500,-0.866500,$1*%
G04 Aperture macros list end*
%ADD10C,0.150000*%
%ADD11C,0.300000*%
%ADD12C,0.350000*%
%ADD13C,0.400000*%
%ADD14C,0.120000*%
%ADD15C,2.575000*%
%ADD16RoundRect,0.250000X0.300000X0.300000X-0.300000X0.300000X-0.300000X-0.300000X0.300000X-0.300000X0*%
%ADD17RoundRect,0.250000X-1.500000X-0.550000X1.500000X-0.550000X1.500000X0.550000X-1.500000X0.550000X0*%
%ADD18O,1.800000X1.800000*%
%ADD19O,1.500000X1.500000*%
%ADD20RoundRect,0.225000X-0.425000X-0.225000X0.425000X-0.225000X0.425000X0.225000X-0.425000X0.225000X0*%
%ADD21FreePoly0,0.000000*%
%ADD22RoundRect,0.250000X-0.300000X0.300000X-0.300000X-0.300000X0.300000X-0.300000X0.300000X0.300000X0*%
%ADD23RoundRect,0.250000X-0.250000X-0.475000X0.250000X-0.475000X0.250000X0.475000X-0.250000X0.475000X0*%
%ADD24RoundRect,0.250000X0.475000X-0.250000X0.475000X0.250000X-0.475000X0.250000X-0.475000X-0.250000X0*%
%ADD25RoundRect,0.200000X-0.200000X-0.275000X0.200000X-0.275000X0.200000X0.275000X-0.200000X0.275000X0*%
%ADD26RoundRect,0.150000X0.150000X-0.512500X0.150000X0.512500X-0.150000X0.512500X-0.150000X-0.512500X0*%
%ADD27RoundRect,0.200000X0.275000X-0.200000X0.275000X0.200000X-0.275000X0.200000X-0.275000X-0.200000X0*%
%ADD28RoundRect,0.250000X-0.325000X-0.650000X0.325000X-0.650000X0.325000X0.650000X-0.325000X0.650000X0*%
%ADD29R,1.550000X2.200000*%
%ADD30R,2.500000X2.200000*%
%ADD31C,2.200000*%
%ADD32RoundRect,0.250000X-0.475000X0.250000X-0.475000X-0.250000X0.475000X-0.250000X0.475000X0.250000X0*%
%ADD33C,2.000000*%
%ADD34R,2.200000X1.550000*%
%ADD35R,2.200000X2.500000*%
%ADD36C,1.300000*%
%ADD37RoundRect,0.100000X0.637500X0.100000X-0.637500X0.100000X-0.637500X-0.100000X0.637500X-0.100000X0*%
%ADD38RoundRect,0.200000X0.200000X0.275000X-0.200000X0.275000X-0.200000X-0.275000X0.200000X-0.275000X0*%
%ADD39RoundRect,0.249999X0.450001X1.850001X-0.450001X1.850001X-0.450001X-1.850001X0.450001X-1.850001X0*%
%ADD40RoundRect,0.250000X0.400000X-0.400000X0.400000X0.400000X-0.400000X0.400000X-0.400000X-0.400000X0*%
%ADD41RoundRect,0.250000X0.400000X-0.750000X0.400000X0.750000X-0.400000X0.750000X-0.400000X-0.750000X0*%
%ADD42O,4.200000X2.000000*%
%ADD43O,2.000000X4.200000*%
%ADD44R,2.000000X4.600000*%
%ADD45RoundRect,0.200000X-0.275000X0.200000X-0.275000X-0.200000X0.275000X-0.200000X0.275000X0.200000X0*%
%ADD46O,1.700000X1.000000*%
%ADD47RoundRect,0.200000X-0.400000X0.200000X-0.400000X-0.200000X0.400000X-0.200000X0.400000X0.200000X0*%
%ADD48RoundRect,0.190000X-0.410000X0.190000X-0.410000X-0.190000X0.410000X-0.190000X0.410000X0.190000X0*%
%ADD49RoundRect,0.175000X0.425000X-0.175000X0.425000X0.175000X-0.425000X0.175000X-0.425000X-0.175000X0*%
%ADD50RoundRect,0.200000X0.400000X-0.200000X0.400000X0.200000X-0.400000X0.200000X-0.400000X-0.200000X0*%
%ADD51RoundRect,0.190000X0.410000X-0.190000X0.410000X0.190000X-0.410000X0.190000X-0.410000X-0.190000X0*%
%ADD52RoundRect,0.175000X-0.425000X0.175000X-0.425000X-0.175000X0.425000X-0.175000X0.425000X0.175000X0*%
G04 APERTURE END LIST*
D10*
X149300000Y-63600000D02*
X157300000Y-63600000D01*
X157300000Y-71600000D01*
X149300000Y-71600000D01*
X149300000Y-63600000D01*
G36*
X149300000Y-63600000D02*
G01*
X157300000Y-63600000D01*
X157300000Y-71600000D01*
X149300000Y-71600000D01*
X149300000Y-63600000D01*
G37*
X137950000Y-71500000D02*
X138300000Y-71500000D01*
X137950000Y-66400000D02*
X138300000Y-66400000D01*
X138300000Y-66400000D02*
X138300000Y-71500000D01*
X138300000Y-61200000D02*
X138300000Y-66400000D01*
X137950000Y-61175000D02*
X138650000Y-61175000D01*
D11*
G36*
X139400806Y-60987873D02*
G01*
X139414215Y-60987873D01*
X139439297Y-60956228D01*
X139486378Y-60914776D01*
X139513892Y-60900055D01*
X139544606Y-60889541D01*
X139592914Y-60881225D01*
X139651106Y-60878697D01*
X139669788Y-60878860D01*
X139773286Y-60887798D01*
X139847789Y-60908663D01*
X139904031Y-60941179D01*
X139927638Y-60962889D01*
X139948124Y-60988357D01*
X139967071Y-61020613D01*
X139982675Y-61057794D01*
X139996885Y-61107606D01*
X140007124Y-61164801D01*
X140014877Y-61248690D01*
X140017324Y-61345884D01*
X140016765Y-61394780D01*
X140006596Y-61531572D01*
X139985816Y-61625866D01*
X139955646Y-61693261D01*
X139914974Y-61742892D01*
X139888901Y-61763101D01*
X139859305Y-61779658D01*
X139821497Y-61794204D01*
X139778777Y-61804652D01*
X139719054Y-61812322D01*
X139651106Y-61814757D01*
X139621852Y-61814071D01*
X139550570Y-61803290D01*
X139519792Y-61792009D01*
X139490974Y-61776163D01*
X139453230Y-61746717D01*
X139414215Y-61706900D01*
X139400806Y-61706900D01*
X139400806Y-61796000D01*
X139197474Y-61796000D01*
X139198095Y-61345884D01*
X139397436Y-61345884D01*
X139399364Y-61418077D01*
X139411367Y-61508620D01*
X139432388Y-61565763D01*
X139463193Y-61603494D01*
X139484898Y-61617808D01*
X139510335Y-61628102D01*
X139548683Y-61635931D01*
X139593954Y-61638390D01*
X139637116Y-61636632D01*
X139699884Y-61623943D01*
X139743844Y-61599461D01*
X139761812Y-61581166D01*
X139776616Y-61558748D01*
X139790277Y-61526691D01*
X139800169Y-61488111D01*
X139808207Y-61424047D01*
X139810695Y-61345884D01*
X139807851Y-61263597D01*
X139794530Y-61180330D01*
X139771947Y-61126383D01*
X139756750Y-61106201D01*
X139738566Y-61089737D01*
X139714702Y-61075553D01*
X139686693Y-61065335D01*
X139644216Y-61057521D01*
X139593954Y-61055064D01*
X139567026Y-61055862D01*
X139506061Y-61066704D01*
X139463319Y-61089761D01*
X139445731Y-61107533D01*
X139431207Y-61129585D01*
X139417707Y-61161615D01*
X139407909Y-61200514D01*
X139399917Y-61265724D01*
X139397436Y-61345884D01*
X139198095Y-61345884D01*
X139199159Y-60574614D01*
X139402492Y-60574614D01*
X139400806Y-60987873D01*
G37*
G36*
X140308730Y-61796000D02*
G01*
X140510304Y-61796000D01*
X140510304Y-61363690D01*
X140518961Y-61303984D01*
X140546500Y-61236850D01*
X140591270Y-61173460D01*
X140616270Y-61149484D01*
X140641751Y-61132030D01*
X140671577Y-61121450D01*
X140804252Y-61112608D01*
X140925248Y-61114709D01*
X140925248Y-60913062D01*
X140760677Y-60909691D01*
X140675383Y-60912631D01*
X140645525Y-60919614D01*
X140620177Y-60933212D01*
X140596326Y-60955630D01*
X140570960Y-60989073D01*
X140503636Y-61097856D01*
X140485098Y-61097856D01*
X140493524Y-60919070D01*
X140308730Y-60919070D01*
X140308730Y-61796000D01*
G37*
G36*
X141488863Y-60809893D02*
G01*
X141745831Y-60809893D01*
X141745831Y-60573002D01*
X141488863Y-60573002D01*
X141488863Y-60809893D01*
G37*
G36*
X141245231Y-61796000D02*
G01*
X142019725Y-61796000D01*
X142019725Y-61623002D01*
X141739163Y-61623002D01*
X141739163Y-60919070D01*
X141262010Y-60919070D01*
X141262010Y-61092140D01*
X141537516Y-61092140D01*
X141537516Y-61623002D01*
X141245231Y-61623002D01*
X141245231Y-61796000D01*
G37*
G36*
X142651440Y-60905548D02*
G01*
X142707788Y-60922330D01*
X142730960Y-60936231D01*
X142751174Y-60954187D01*
X142774280Y-60984412D01*
X142794951Y-61022971D01*
X142808360Y-61022971D01*
X142808360Y-60919070D01*
X143004951Y-60919070D01*
X143004951Y-61820912D01*
X143000694Y-61909879D01*
X142984472Y-61991929D01*
X142957271Y-62051381D01*
X142938997Y-62075534D01*
X142917283Y-62096435D01*
X142889955Y-62115425D01*
X142858232Y-62131050D01*
X142815636Y-62145219D01*
X142766472Y-62155430D01*
X142693494Y-62163210D01*
X142608472Y-62165661D01*
X142528324Y-62163688D01*
X142420394Y-62150962D01*
X142347213Y-62128391D01*
X142295410Y-62096062D01*
X142274736Y-62074977D01*
X142257672Y-62050570D01*
X142242533Y-62018979D01*
X142231354Y-61982741D01*
X142222447Y-61930316D01*
X142218660Y-61869712D01*
X142425363Y-61869712D01*
X142426130Y-61881735D01*
X142436022Y-61932913D01*
X142456564Y-61964680D01*
X142474644Y-61977412D01*
X142498260Y-61986740D01*
X142545905Y-61995111D01*
X142610157Y-61997646D01*
X142680498Y-61992985D01*
X142732602Y-61977527D01*
X142767507Y-61950493D01*
X142781421Y-61929232D01*
X142791613Y-61903190D01*
X142800193Y-61858931D01*
X142803305Y-61804060D01*
X142804990Y-61676418D01*
X142791581Y-61676418D01*
X142760902Y-61730644D01*
X142724183Y-61766439D01*
X142698928Y-61780047D01*
X142668767Y-61789902D01*
X142615672Y-61798168D01*
X142547949Y-61800689D01*
X142535330Y-61800613D01*
X142431641Y-61792289D01*
X142356766Y-61771904D01*
X142300127Y-61739844D01*
X142276392Y-61718472D01*
X142255722Y-61693346D01*
X142236729Y-61661807D01*
X142221025Y-61625431D01*
X142206906Y-61577560D01*
X142196688Y-61522673D01*
X142189197Y-61445768D01*
X142186787Y-61357242D01*
X142391731Y-61357242D01*
X142393288Y-61416853D01*
X142404807Y-61502073D01*
X142425773Y-61556463D01*
X142457391Y-61593041D01*
X142480241Y-61607178D01*
X142507218Y-61617364D01*
X142548819Y-61625228D01*
X142598360Y-61627692D01*
X142627189Y-61626914D01*
X142692127Y-61616312D01*
X142736661Y-61594085D01*
X142754608Y-61577279D01*
X142769397Y-61556491D01*
X142782983Y-61526699D01*
X142792832Y-61490645D01*
X142800823Y-61430690D01*
X142803305Y-61357242D01*
X142801301Y-61287218D01*
X142789108Y-61200540D01*
X142767675Y-61145197D01*
X142735903Y-61108135D01*
X142713252Y-61093912D01*
X142686640Y-61083672D01*
X142646219Y-61075841D01*
X142598360Y-61073383D01*
X142565153Y-61074466D01*
X142502100Y-61085876D01*
X142458262Y-61109129D01*
X142440403Y-61126724D01*
X142425679Y-61148430D01*
X142412086Y-61179632D01*
X142402232Y-61217348D01*
X142394216Y-61280237D01*
X142391731Y-61357242D01*
X142186787Y-61357242D01*
X142187502Y-61305023D01*
X142198198Y-61175731D01*
X142219616Y-61085602D01*
X142250744Y-61020409D01*
X142293037Y-60971789D01*
X142320400Y-60951780D01*
X142351490Y-60935374D01*
X142391501Y-60920865D01*
X142436771Y-60910441D01*
X142500507Y-60902751D01*
X142573155Y-60900312D01*
X142651440Y-60905548D01*
G37*
G36*
X143222425Y-61796000D02*
G01*
X143427369Y-61796000D01*
X143427369Y-61338117D01*
X143429858Y-61265137D01*
X143437900Y-61205661D01*
X143447760Y-61170172D01*
X143461366Y-61140848D01*
X143476201Y-61120367D01*
X143494220Y-61103802D01*
X143539194Y-61081788D01*
X143605288Y-61071191D01*
X143635684Y-61070378D01*
X143685713Y-61072883D01*
X143725263Y-61081033D01*
X143747611Y-61090823D01*
X143765488Y-61104318D01*
X143787560Y-61139112D01*
X143798818Y-61194065D01*
X143800328Y-61233704D01*
X143800328Y-61796000D01*
X144005272Y-61796000D01*
X144005272Y-61237074D01*
X144002815Y-61161403D01*
X143994988Y-61096869D01*
X143984800Y-61054068D01*
X143970665Y-61017193D01*
X143954994Y-60989792D01*
X143935921Y-60966370D01*
X143889638Y-60932086D01*
X143826306Y-60909240D01*
X143735142Y-60897087D01*
X143679355Y-60895623D01*
X143626813Y-60898135D01*
X143581841Y-60906338D01*
X143551898Y-60917006D01*
X143524996Y-60931986D01*
X143480669Y-60973319D01*
X143440778Y-61035134D01*
X143427369Y-61035134D01*
X143427369Y-60571390D01*
X143222425Y-60571390D01*
X143222425Y-61796000D01*
G37*
G36*
X144728402Y-61814684D02*
G01*
X144875558Y-61806083D01*
X144995555Y-61792849D01*
X144995555Y-61616408D01*
X144876679Y-61631539D01*
X144785555Y-61636558D01*
X144731557Y-61634059D01*
X144692836Y-61625943D01*
X144674184Y-61616889D01*
X144660543Y-61604611D01*
X144646011Y-61572578D01*
X144641061Y-61508916D01*
X144641061Y-61092140D01*
X144968664Y-61092140D01*
X144968664Y-60919070D01*
X144641061Y-60919070D01*
X144641061Y-60658732D01*
X144446155Y-60741017D01*
X144446155Y-60919070D01*
X144263046Y-60919070D01*
X144222746Y-61092140D01*
X144439487Y-61092140D01*
X144439487Y-61515584D01*
X144442246Y-61591805D01*
X144452177Y-61656791D01*
X144463123Y-61691694D01*
X144478442Y-61722229D01*
X144495292Y-61744688D01*
X144516084Y-61764019D01*
X144568273Y-61792336D01*
X144642659Y-61809723D01*
X144728402Y-61814684D01*
G37*
G36*
X145236550Y-61796000D02*
G01*
X145441494Y-61796000D01*
X145441494Y-61339729D01*
X145443968Y-61269616D01*
X145451910Y-61212127D01*
X145461789Y-61177064D01*
X145475421Y-61148001D01*
X145490360Y-61127531D01*
X145508499Y-61110932D01*
X145553835Y-61088741D01*
X145620277Y-61077977D01*
X145651494Y-61077120D01*
X145700934Y-61079615D01*
X145740057Y-61087700D01*
X145762344Y-61097472D01*
X145780150Y-61110934D01*
X145802078Y-61145630D01*
X145813105Y-61200345D01*
X145814453Y-61237074D01*
X145814453Y-61796000D01*
X146019397Y-61796000D01*
X146019397Y-61240445D01*
X146016941Y-61164256D01*
X146009127Y-61099215D01*
X145998937Y-61055946D01*
X145984800Y-61018648D01*
X145969132Y-60990924D01*
X145950069Y-60967213D01*
X145903925Y-60932539D01*
X145841033Y-60909448D01*
X145750936Y-60897137D01*
X145695164Y-60895623D01*
X145642262Y-60898147D01*
X145597532Y-60906439D01*
X145568326Y-60917092D01*
X145542042Y-60932050D01*
X145497487Y-60974085D01*
X145454903Y-61038431D01*
X145441494Y-61038431D01*
X145441494Y-60919070D01*
X145236550Y-60919070D01*
X145236550Y-61796000D01*
G37*
G36*
X146715379Y-60898730D02*
G01*
X146809120Y-60914110D01*
X146878765Y-60940891D01*
X146932504Y-60979762D01*
X146955306Y-61005247D01*
X146974912Y-61034646D01*
X146992942Y-61071690D01*
X147007457Y-61113908D01*
X147020166Y-61169868D01*
X147028649Y-61233520D01*
X147033759Y-61325122D01*
X147033200Y-61430221D01*
X146436759Y-61430221D01*
X146448095Y-61511673D01*
X146468264Y-61566295D01*
X146498563Y-61602303D01*
X146520955Y-61616296D01*
X146547725Y-61626382D01*
X146592296Y-61634562D01*
X146646759Y-61637071D01*
X146694861Y-61634494D01*
X146743893Y-61621286D01*
X146762925Y-61609493D01*
X146778846Y-61593756D01*
X146796741Y-61564975D01*
X146811403Y-61527015D01*
X147019718Y-61527015D01*
X146997480Y-61625703D01*
X146968018Y-61692105D01*
X146928868Y-61739948D01*
X146903471Y-61759390D01*
X146874279Y-61775332D01*
X146835860Y-61789549D01*
X146791652Y-61799787D01*
X146725654Y-61807610D01*
X146648444Y-61810068D01*
X146590716Y-61808799D01*
X146482739Y-61796560D01*
X146404705Y-61773107D01*
X146345965Y-61738620D01*
X146321507Y-61716261D01*
X146300319Y-61690355D01*
X146280925Y-61658183D01*
X146264976Y-61621464D01*
X146250615Y-61573217D01*
X146240281Y-61518323D01*
X146232571Y-61439748D01*
X146230129Y-61349621D01*
X146231135Y-61289555D01*
X146232878Y-61270633D01*
X146438444Y-61270633D01*
X146833238Y-61270633D01*
X146826767Y-61191831D01*
X146808839Y-61139315D01*
X146795510Y-61119579D01*
X146779030Y-61103481D01*
X146756508Y-61089379D01*
X146729643Y-61079223D01*
X146686600Y-61071182D01*
X146635035Y-61068693D01*
X146624814Y-61068783D01*
X146553338Y-61076655D01*
X146505325Y-61095866D01*
X146486747Y-61110126D01*
X146471280Y-61127935D01*
X146457855Y-61151779D01*
X146447999Y-61180512D01*
X146440811Y-61221582D01*
X146438444Y-61270633D01*
X146232878Y-61270633D01*
X146242563Y-61165464D01*
X146264695Y-61078298D01*
X146296743Y-61014698D01*
X146317033Y-60988996D01*
X146340481Y-60966819D01*
X146368967Y-60946960D01*
X146401351Y-60930670D01*
X146443276Y-60916187D01*
X146490767Y-60905782D01*
X146558122Y-60898065D01*
X146635035Y-60895623D01*
X146715379Y-60898730D01*
G37*
G36*
X147643783Y-61810068D02*
G01*
X147739416Y-61807599D01*
X147819578Y-61799700D01*
X147870502Y-61789687D01*
X147913692Y-61775838D01*
X147944503Y-61760909D01*
X147970406Y-61742819D01*
X147990139Y-61723224D01*
X148006174Y-61700642D01*
X148028193Y-61645261D01*
X148038157Y-61567892D01*
X148038577Y-61544600D01*
X148036122Y-61497706D01*
X148028322Y-61456247D01*
X148017578Y-61426157D01*
X148002507Y-61399018D01*
X147961512Y-61355204D01*
X147899222Y-61317553D01*
X147802387Y-61282237D01*
X147716030Y-61260375D01*
X147569899Y-61224258D01*
X147488785Y-61194681D01*
X147470005Y-61181993D01*
X147459931Y-61168725D01*
X147457303Y-61156108D01*
X147459789Y-61131138D01*
X147467809Y-61111020D01*
X147478406Y-61098471D01*
X147493254Y-61088412D01*
X147540551Y-61074450D01*
X147638727Y-61068693D01*
X147704508Y-61071266D01*
X147752768Y-61079898D01*
X147775494Y-61089214D01*
X147792623Y-61101918D01*
X147810904Y-61133216D01*
X147816780Y-61167905D01*
X148018427Y-61167905D01*
X148015524Y-61111546D01*
X148007361Y-61062872D01*
X147996718Y-61029418D01*
X147982043Y-61000293D01*
X147965239Y-60977722D01*
X147944727Y-60958275D01*
X147892191Y-60928311D01*
X147816030Y-60907577D01*
X147700826Y-60896651D01*
X147640412Y-60895623D01*
X147545719Y-60898093D01*
X147466528Y-60906010D01*
X147416530Y-60916008D01*
X147374213Y-60929835D01*
X147344124Y-60944726D01*
X147318898Y-60962770D01*
X147299722Y-60982349D01*
X147284218Y-61004919D01*
X147263135Y-61060537D01*
X147254164Y-61138772D01*
X147253971Y-61154496D01*
X147256420Y-61197894D01*
X147264183Y-61236110D01*
X147274906Y-61263839D01*
X147289935Y-61288723D01*
X147331236Y-61328910D01*
X147395114Y-61363370D01*
X147496646Y-61395520D01*
X147596741Y-61416812D01*
X147693531Y-61437405D01*
X147761516Y-61459020D01*
X147790451Y-61473658D01*
X147811053Y-61490054D01*
X147822355Y-61505196D01*
X147829122Y-61522164D01*
X147831947Y-61546286D01*
X147829467Y-61572562D01*
X147821481Y-61593681D01*
X147811015Y-61606750D01*
X147796393Y-61617195D01*
X147750790Y-61631435D01*
X147662852Y-61637162D01*
X147643783Y-61637071D01*
X147579705Y-61633826D01*
X147530285Y-61625045D01*
X147503965Y-61615226D01*
X147483404Y-61601947D01*
X147469919Y-61587455D01*
X147460037Y-61569919D01*
X147449627Y-61522548D01*
X147448877Y-61505912D01*
X147242247Y-61505912D01*
X147242965Y-61566098D01*
X147249173Y-61618453D01*
X147258480Y-61655022D01*
X147271956Y-61687081D01*
X147287666Y-61711970D01*
X147307100Y-61733635D01*
X147356529Y-61767235D01*
X147426981Y-61791426D01*
X147530914Y-61806306D01*
X147643783Y-61810068D01*
G37*
G36*
X148650845Y-61810068D02*
G01*
X148746478Y-61807599D01*
X148826640Y-61799700D01*
X148877564Y-61789687D01*
X148920754Y-61775838D01*
X148951565Y-61760909D01*
X148977468Y-61742819D01*
X148997201Y-61723224D01*
X149013236Y-61700642D01*
X149035255Y-61645261D01*
X149045219Y-61567892D01*
X149045639Y-61544600D01*
X149043185Y-61497706D01*
X149035384Y-61456247D01*
X149024640Y-61426157D01*
X149009569Y-61399018D01*
X148968575Y-61355204D01*
X148906284Y-61317553D01*
X148809449Y-61282237D01*
X148723092Y-61260375D01*
X148576961Y-61224258D01*
X148495847Y-61194681D01*
X148477067Y-61181993D01*
X148466993Y-61168725D01*
X148464365Y-61156108D01*
X148466851Y-61131138D01*
X148474871Y-61111020D01*
X148485468Y-61098471D01*
X148500316Y-61088412D01*
X148547613Y-61074450D01*
X148645789Y-61068693D01*
X148711570Y-61071266D01*
X148759830Y-61079898D01*
X148782556Y-61089214D01*
X148799685Y-61101918D01*
X148817966Y-61133216D01*
X148823842Y-61167905D01*
X149025489Y-61167905D01*
X149022586Y-61111546D01*
X149014423Y-61062872D01*
X149003780Y-61029418D01*
X148989105Y-61000293D01*
X148972301Y-60977722D01*
X148951789Y-60958275D01*
X148899253Y-60928311D01*
X148823092Y-60907577D01*
X148707888Y-60896651D01*
X148647474Y-60895623D01*
X148552781Y-60898093D01*
X148473590Y-60906010D01*
X148423592Y-60916008D01*
X148381275Y-60929835D01*
X148351186Y-60944726D01*
X148325961Y-60962770D01*
X148306785Y-60982349D01*
X148291280Y-61004919D01*
X148270197Y-61060537D01*
X148261226Y-61138772D01*
X148261033Y-61154496D01*
X148263482Y-61197894D01*
X148271245Y-61236110D01*
X148281968Y-61263839D01*
X148296997Y-61288723D01*
X148338298Y-61328910D01*
X148402176Y-61363370D01*
X148503709Y-61395520D01*
X148603804Y-61416812D01*
X148700593Y-61437405D01*
X148768578Y-61459020D01*
X148797514Y-61473658D01*
X148818115Y-61490054D01*
X148829417Y-61505196D01*
X148836185Y-61522164D01*
X148839009Y-61546286D01*
X148836529Y-61572562D01*
X148828543Y-61593681D01*
X148818077Y-61606750D01*
X148803455Y-61617195D01*
X148757852Y-61631435D01*
X148669914Y-61637162D01*
X148650845Y-61637071D01*
X148586767Y-61633826D01*
X148537347Y-61625045D01*
X148511027Y-61615226D01*
X148490466Y-61601947D01*
X148476982Y-61587455D01*
X148467099Y-61569919D01*
X148456689Y-61522548D01*
X148455939Y-61505912D01*
X148249309Y-61505912D01*
X148250027Y-61566098D01*
X148256235Y-61618453D01*
X148265542Y-61655022D01*
X148279019Y-61687081D01*
X148294728Y-61711970D01*
X148314162Y-61733635D01*
X148363591Y-61767235D01*
X148434043Y-61791426D01*
X148537976Y-61806306D01*
X148650845Y-61810068D01*
G37*
G36*
X150745412Y-60898232D02*
G01*
X150844787Y-60911970D01*
X150913112Y-60935676D01*
X150962114Y-60969690D01*
X150981865Y-60992129D01*
X150998055Y-61018101D01*
X151012377Y-61052080D01*
X151022684Y-61091106D01*
X151030426Y-61147916D01*
X151032872Y-61213700D01*
X151032872Y-61796000D01*
X150841337Y-61796000D01*
X150841337Y-61690853D01*
X150827928Y-61690853D01*
X150795882Y-61732263D01*
X150748583Y-61773835D01*
X150720952Y-61788605D01*
X150690148Y-61799146D01*
X150641374Y-61807530D01*
X150582610Y-61810068D01*
X150464621Y-61802948D01*
X150392153Y-61785093D01*
X150342264Y-61757300D01*
X150322640Y-61738558D01*
X150306576Y-61716455D01*
X150292384Y-61687083D01*
X150282163Y-61652877D01*
X150274320Y-61601155D01*
X150271860Y-61540351D01*
X150272609Y-61525330D01*
X150476804Y-61525330D01*
X150480823Y-61568703D01*
X150496058Y-61602138D01*
X150510209Y-61615028D01*
X150529025Y-61624453D01*
X150566970Y-61632846D01*
X150617928Y-61635385D01*
X150640655Y-61634995D01*
X150712886Y-61625753D01*
X150760994Y-61605400D01*
X150779935Y-61590174D01*
X150795649Y-61571273D01*
X150810082Y-61544540D01*
X150820869Y-61512172D01*
X150830353Y-61458156D01*
X150834596Y-61391900D01*
X150668339Y-61393585D01*
X150619136Y-61395513D01*
X150551262Y-61406760D01*
X150511648Y-61426633D01*
X150497516Y-61441296D01*
X150487342Y-61459247D01*
X150479294Y-61488824D01*
X150476804Y-61525330D01*
X150272609Y-61525330D01*
X150275528Y-61466830D01*
X150291380Y-61391228D01*
X150318949Y-61335434D01*
X150337967Y-61312295D01*
X150360714Y-61292216D01*
X150389966Y-61273653D01*
X150424140Y-61258351D01*
X150470846Y-61244300D01*
X150525098Y-61234162D01*
X150607214Y-61226342D01*
X150703584Y-61223885D01*
X150836281Y-61223885D01*
X150836281Y-61213700D01*
X150835205Y-61184475D01*
X150824432Y-61133665D01*
X150801812Y-61100490D01*
X150782753Y-61087251D01*
X150758662Y-61077613D01*
X150715288Y-61069506D01*
X150659913Y-61067008D01*
X150642090Y-61067219D01*
X150574217Y-61074764D01*
X150536247Y-61091495D01*
X150522984Y-61104579D01*
X150513647Y-61121027D01*
X150506550Y-61149858D01*
X150505381Y-61186369D01*
X150300363Y-61186369D01*
X150299873Y-61146831D01*
X150308140Y-61064735D01*
X150328522Y-61006798D01*
X150343456Y-60983555D01*
X150361912Y-60963430D01*
X150385907Y-60945085D01*
X150414430Y-60929964D01*
X150454094Y-60916038D01*
X150500735Y-60905980D01*
X150573494Y-60898090D01*
X150659913Y-60895623D01*
X150745412Y-60898232D01*
G37*
G36*
X152056714Y-61796000D02*
G01*
X151853455Y-61796000D01*
X151853455Y-61707266D01*
X151839972Y-61707266D01*
X151815842Y-61741787D01*
X151774374Y-61779780D01*
X151747785Y-61793844D01*
X151716963Y-61803970D01*
X151665467Y-61812237D01*
X151601469Y-61814757D01*
X151585631Y-61814641D01*
X151481349Y-61806025D01*
X151406500Y-61785476D01*
X151350130Y-61753329D01*
X151326512Y-61731856D01*
X151306016Y-61706641D01*
X151287079Y-61674717D01*
X151271479Y-61637895D01*
X151257282Y-61588576D01*
X151247049Y-61531918D01*
X151239309Y-61448906D01*
X151236864Y-61352699D01*
X151443566Y-61352699D01*
X151446169Y-61430546D01*
X151459200Y-61513521D01*
X151481561Y-61567233D01*
X151496678Y-61587339D01*
X151514803Y-61603744D01*
X151538672Y-61617902D01*
X151566733Y-61628104D01*
X151609513Y-61635932D01*
X151660234Y-61638390D01*
X151686086Y-61637673D01*
X151747821Y-61627085D01*
X151790860Y-61604393D01*
X151808491Y-61586926D01*
X151823047Y-61565238D01*
X151836551Y-61533778D01*
X151846351Y-61495562D01*
X151854344Y-61431485D01*
X151856825Y-61352699D01*
X151855279Y-61289436D01*
X151843858Y-61199397D01*
X151823275Y-61142712D01*
X151792750Y-61105252D01*
X151771036Y-61090983D01*
X151745504Y-61080718D01*
X151706489Y-61072843D01*
X151660234Y-61070378D01*
X151619420Y-61071867D01*
X151555071Y-61083970D01*
X151510539Y-61107623D01*
X151492500Y-61125263D01*
X151477646Y-61146916D01*
X151463988Y-61177825D01*
X151454097Y-61215061D01*
X151446055Y-61277015D01*
X151443566Y-61352699D01*
X151236864Y-61352699D01*
X151237208Y-61314876D01*
X151246663Y-61178041D01*
X151266886Y-61083951D01*
X151296587Y-61016800D01*
X151336860Y-60967368D01*
X151362777Y-60947222D01*
X151392243Y-60930718D01*
X151430026Y-60916188D01*
X151472779Y-60905753D01*
X151532921Y-60898061D01*
X151601469Y-60895623D01*
X151702074Y-60901360D01*
X151762810Y-60917289D01*
X151785606Y-60929527D01*
X151804739Y-60945069D01*
X151824071Y-60968991D01*
X151839972Y-60998791D01*
X151853455Y-60998791D01*
X151853455Y-60570438D01*
X152056714Y-60570438D01*
X152056714Y-61796000D01*
G37*
G36*
X152611902Y-60808941D02*
G01*
X152868943Y-60808941D01*
X152868943Y-60572050D01*
X152611902Y-60572050D01*
X152611902Y-60808941D01*
G37*
G36*
X152343064Y-62199220D02*
G01*
X152486203Y-62186556D01*
X152601712Y-62169532D01*
X152664126Y-62155036D01*
X152716452Y-62137347D01*
X152752409Y-62120079D01*
X152782518Y-62100028D01*
X152805019Y-62079317D01*
X152823424Y-62055902D01*
X152849068Y-62000585D01*
X152862951Y-61925191D01*
X152865573Y-61859893D01*
X152865573Y-60919070D01*
X152401902Y-60919070D01*
X152401902Y-61093826D01*
X152663926Y-61093826D01*
X152663926Y-61851467D01*
X152661341Y-61885139D01*
X152652629Y-61913528D01*
X152641542Y-61931409D01*
X152625841Y-61947196D01*
X152578129Y-61973809D01*
X152490041Y-61999106D01*
X152343064Y-62024538D01*
X152343064Y-62199220D01*
G37*
G36*
X153585332Y-61810068D02*
G01*
X153649368Y-61807561D01*
X153702309Y-61799395D01*
X153735577Y-61789117D01*
X153764676Y-61774801D01*
X153810123Y-61736526D01*
X153854097Y-61672315D01*
X153867579Y-61672315D01*
X153867579Y-61796000D01*
X154072523Y-61796000D01*
X154072523Y-60919070D01*
X153867579Y-60919070D01*
X153867579Y-61372702D01*
X153865095Y-61441829D01*
X153857084Y-61498697D01*
X153847140Y-61533352D01*
X153833396Y-61562227D01*
X153818269Y-61582737D01*
X153799864Y-61599490D01*
X153753583Y-61622312D01*
X153685497Y-61634035D01*
X153644097Y-61635385D01*
X153598585Y-61632891D01*
X153562630Y-61624810D01*
X153542113Y-61615003D01*
X153525765Y-61601482D01*
X153505469Y-61565858D01*
X153495524Y-61507905D01*
X153494620Y-61476017D01*
X153494620Y-60919070D01*
X153289676Y-60919070D01*
X153289676Y-61472646D01*
X153292139Y-61550581D01*
X153299999Y-61616543D01*
X153310120Y-61659492D01*
X153324148Y-61696234D01*
X153339592Y-61723157D01*
X153358369Y-61745976D01*
X153403738Y-61778732D01*
X153465851Y-61799743D01*
X153555796Y-61809600D01*
X153585332Y-61810068D01*
G37*
G36*
X154693217Y-61810068D02*
G01*
X154788850Y-61807599D01*
X154869013Y-61799700D01*
X154919937Y-61789687D01*
X154963127Y-61775838D01*
X154993938Y-61760909D01*
X155019841Y-61742819D01*
X155039573Y-61723224D01*
X155055609Y-61700642D01*
X155077628Y-61645261D01*
X155087592Y-61567892D01*
X155088011Y-61544600D01*
X155085557Y-61497706D01*
X155077756Y-61456247D01*
X155067012Y-61426157D01*
X155051942Y-61399018D01*
X155010947Y-61355204D01*
X154948657Y-61317553D01*
X154851821Y-61282237D01*
X154765464Y-61260375D01*
X154619333Y-61224258D01*
X154538220Y-61194681D01*
X154519440Y-61181993D01*
X154509366Y-61168725D01*
X154506738Y-61156108D01*
X154509224Y-61131138D01*
X154517244Y-61111020D01*
X154527841Y-61098471D01*
X154542689Y-61088412D01*
X154589986Y-61074450D01*
X154688162Y-61068693D01*
X154753943Y-61071266D01*
X154802203Y-61079898D01*
X154824929Y-61089214D01*
X154842058Y-61101918D01*
X154860338Y-61133216D01*
X154866215Y-61167905D01*
X155067861Y-61167905D01*
X155064959Y-61111546D01*
X155056796Y-61062872D01*
X155046152Y-61029418D01*
X155031478Y-61000293D01*
X155014674Y-60977722D01*
X154994162Y-60958275D01*
X154941626Y-60928311D01*
X154865465Y-60907577D01*
X154750261Y-60896651D01*
X154689847Y-60895623D01*
X154595153Y-60898093D01*
X154515963Y-60906010D01*
X154465965Y-60916008D01*
X154423648Y-60929835D01*
X154393559Y-60944726D01*
X154368333Y-60962770D01*
X154349157Y-60982349D01*
X154333652Y-61004919D01*
X154312569Y-61060537D01*
X154303599Y-61138772D01*
X154303406Y-61154496D01*
X154305855Y-61197894D01*
X154313618Y-61236110D01*
X154324341Y-61263839D01*
X154339370Y-61288723D01*
X154380671Y-61328910D01*
X154444549Y-61363370D01*
X154546081Y-61395520D01*
X154646176Y-61416812D01*
X154742966Y-61437405D01*
X154810950Y-61459020D01*
X154839886Y-61473658D01*
X154860487Y-61490054D01*
X154871790Y-61505196D01*
X154878557Y-61522164D01*
X154881382Y-61546286D01*
X154878901Y-61572562D01*
X154870915Y-61593681D01*
X154860450Y-61606750D01*
X154845828Y-61617195D01*
X154800225Y-61631435D01*
X154712287Y-61637162D01*
X154693217Y-61637071D01*
X154629139Y-61633826D01*
X154579720Y-61625045D01*
X154553399Y-61615226D01*
X154532839Y-61601947D01*
X154519354Y-61587455D01*
X154509472Y-61569919D01*
X154499062Y-61522548D01*
X154498312Y-61505912D01*
X154291682Y-61505912D01*
X154292399Y-61566098D01*
X154298608Y-61618453D01*
X154307915Y-61655022D01*
X154321391Y-61687081D01*
X154337101Y-61711970D01*
X154356535Y-61733635D01*
X154405964Y-61767235D01*
X154476416Y-61791426D01*
X154580348Y-61806306D01*
X154693217Y-61810068D01*
G37*
G36*
X155806085Y-61814684D02*
G01*
X155953241Y-61806083D01*
X156073238Y-61792849D01*
X156073238Y-61616408D01*
X155954362Y-61631539D01*
X155863238Y-61636558D01*
X155809240Y-61634059D01*
X155770519Y-61625943D01*
X155751867Y-61616889D01*
X155738226Y-61604611D01*
X155723694Y-61572578D01*
X155718744Y-61508916D01*
X155718744Y-61092140D01*
X156046347Y-61092140D01*
X156046347Y-60919070D01*
X155718744Y-60919070D01*
X155718744Y-60658732D01*
X155523838Y-60741017D01*
X155523838Y-60919070D01*
X155340730Y-60919070D01*
X155300429Y-61092140D01*
X155517171Y-61092140D01*
X155517171Y-61515584D01*
X155519929Y-61591805D01*
X155529861Y-61656791D01*
X155540806Y-61691694D01*
X155556125Y-61722229D01*
X155572975Y-61744688D01*
X155593767Y-61764019D01*
X155645956Y-61792336D01*
X155720342Y-61809723D01*
X155806085Y-61814684D01*
G37*
D10*
X116500000Y-133000000D02*
X106100000Y-133000000D01*
X106100000Y-127000000D01*
X97900000Y-127000000D01*
X97900000Y-133000000D01*
X87500000Y-133000000D01*
X87500000Y-117500000D01*
X116500000Y-117500000D01*
X116500000Y-133000000D01*
G36*
X116500000Y-133000000D02*
G01*
X106100000Y-133000000D01*
X106100000Y-127000000D01*
X97900000Y-127000000D01*
X97900000Y-133000000D01*
X87500000Y-133000000D01*
X87500000Y-117500000D01*
X116500000Y-117500000D01*
X116500000Y-133000000D01*
G37*
X98600000Y-106600000D02*
X104600000Y-106600000D01*
X104600000Y-103000000D01*
X116500000Y-103000000D01*
X116500000Y-116500000D01*
X87500000Y-116500000D01*
X87500000Y-103000000D01*
X98600000Y-103000000D01*
X98600000Y-106600000D01*
G36*
X98600000Y-106600000D02*
G01*
X104600000Y-106600000D01*
X104600000Y-103000000D01*
X116500000Y-103000000D01*
X116500000Y-116500000D01*
X87500000Y-116500000D01*
X87500000Y-103000000D01*
X98600000Y-103000000D01*
X98600000Y-106600000D01*
G37*
X127900000Y-107000000D02*
X136100000Y-107000000D01*
X136100000Y-101000000D01*
X146500000Y-101000000D01*
X146500000Y-116500000D01*
X117500000Y-116500000D01*
X117500000Y-101000000D01*
X127900000Y-101000000D01*
X127900000Y-107000000D01*
G36*
X127900000Y-107000000D02*
G01*
X136100000Y-107000000D01*
X136100000Y-101000000D01*
X146500000Y-101000000D01*
X146500000Y-116500000D01*
X117500000Y-116500000D01*
X117500000Y-101000000D01*
X127900000Y-101000000D01*
X127900000Y-107000000D01*
G37*
X127900000Y-137000000D02*
X136100000Y-137000000D01*
X136100000Y-131000000D01*
X146500000Y-131000000D01*
X146500000Y-146500000D01*
X117500000Y-146500000D01*
X117500000Y-131000000D01*
X127900000Y-131000000D01*
X127900000Y-137000000D01*
G36*
X127900000Y-137000000D02*
G01*
X136100000Y-137000000D01*
X136100000Y-131000000D01*
X146500000Y-131000000D01*
X146500000Y-146500000D01*
X117500000Y-146500000D01*
X117500000Y-131000000D01*
X127900000Y-131000000D01*
X127900000Y-137000000D01*
G37*
X176500000Y-133000000D02*
X166100000Y-133000000D01*
X166100000Y-127000000D01*
X157900000Y-127000000D01*
X157900000Y-133000000D01*
X147500000Y-133000000D01*
X147500000Y-117500000D01*
X176500000Y-117500000D01*
X176500000Y-133000000D01*
G36*
X176500000Y-133000000D02*
G01*
X166100000Y-133000000D01*
X166100000Y-127000000D01*
X157900000Y-127000000D01*
X157900000Y-133000000D01*
X147500000Y-133000000D01*
X147500000Y-117500000D01*
X176500000Y-117500000D01*
X176500000Y-133000000D01*
G37*
X146500000Y-131000000D02*
X135400000Y-131000000D01*
X135400001Y-127400000D01*
X129400000Y-127400000D01*
X129399999Y-131000000D01*
X117500000Y-131000000D01*
X117500000Y-117500000D01*
X146500000Y-117500000D01*
X146500000Y-131000000D01*
G36*
X146500000Y-131000000D02*
G01*
X135400000Y-131000000D01*
X135400001Y-127400000D01*
X129400000Y-127400000D01*
X129399999Y-131000000D01*
X117500000Y-131000000D01*
X117500000Y-117500000D01*
X146500000Y-117500000D01*
X146500000Y-131000000D01*
G37*
X146500000Y-101000000D02*
X135400001Y-101000000D01*
X135400000Y-97400000D01*
X129399999Y-97400000D01*
X129400000Y-101000000D01*
X117500000Y-101000000D01*
X117500000Y-87500000D01*
X146500000Y-87500000D01*
X146500000Y-101000000D01*
G36*
X146500000Y-101000000D02*
G01*
X135400001Y-101000000D01*
X135400000Y-97400000D01*
X129399999Y-97400000D01*
X129400000Y-101000000D01*
X117500000Y-101000000D01*
X117500000Y-87500000D01*
X146500000Y-87500000D01*
X146500000Y-101000000D01*
G37*
X176500000Y-103000000D02*
X166100000Y-103000000D01*
X166100000Y-97000000D01*
X157900000Y-97000000D01*
X157900000Y-103000000D01*
X147500000Y-103000000D01*
X147500000Y-87500000D01*
X176500000Y-87500000D01*
X176500000Y-103000000D01*
G36*
X176500000Y-103000000D02*
G01*
X166100000Y-103000000D01*
X166100000Y-97000000D01*
X157900000Y-97000000D01*
X157900000Y-103000000D01*
X147500000Y-103000000D01*
X147500000Y-87500000D01*
X176500000Y-87500000D01*
X176500000Y-103000000D01*
G37*
X98600000Y-136600000D02*
X104600000Y-136600000D01*
X104600000Y-133000000D01*
X116500000Y-133000000D01*
X116500000Y-146500000D01*
X87500000Y-146500000D01*
X87500000Y-133000000D01*
X98600000Y-133000000D01*
X98600000Y-136600000D01*
G36*
X98600000Y-136600000D02*
G01*
X104600000Y-136600000D01*
X104600000Y-133000000D01*
X116500000Y-133000000D01*
X116500000Y-146500000D01*
X87500000Y-146500000D01*
X87500000Y-133000000D01*
X98600000Y-133000000D01*
X98600000Y-136600000D01*
G37*
X116500000Y-103000000D02*
X106100000Y-103000000D01*
X106100000Y-97000000D01*
X97900000Y-97000000D01*
X97900000Y-103000000D01*
X87500000Y-103000000D01*
X87500000Y-87500000D01*
X116500000Y-87500000D01*
X116500000Y-103000000D01*
G36*
X116500000Y-103000000D02*
G01*
X106100000Y-103000000D01*
X106100000Y-97000000D01*
X97900000Y-97000000D01*
X97900000Y-103000000D01*
X87500000Y-103000000D01*
X87500000Y-87500000D01*
X116500000Y-87500000D01*
X116500000Y-103000000D01*
G37*
X158600000Y-136600000D02*
X164600000Y-136600000D01*
X164600000Y-133000000D01*
X176500000Y-133000000D01*
X176500000Y-146500000D01*
X147500000Y-146500000D01*
X147500000Y-133000000D01*
X158600000Y-133000000D01*
X158600000Y-136600000D01*
G36*
X158600000Y-136600000D02*
G01*
X164600000Y-136600000D01*
X164600000Y-133000000D01*
X176500000Y-133000000D01*
X176500000Y-146500000D01*
X147500000Y-146500000D01*
X147500000Y-133000000D01*
X158600000Y-133000000D01*
X158600000Y-136600000D01*
G37*
X158600000Y-106600000D02*
X164600000Y-106600000D01*
X164600000Y-103000000D01*
X176500000Y-103000000D01*
X176500000Y-116500000D01*
X147500000Y-116500000D01*
X147500000Y-103000000D01*
X158600000Y-103000000D01*
X158600000Y-106600000D01*
G36*
X158600000Y-106600000D02*
G01*
X164600000Y-106600000D01*
X164600000Y-103000000D01*
X176500000Y-103000000D01*
X176500000Y-116500000D01*
X147500000Y-116500000D01*
X147500000Y-103000000D01*
X158600000Y-103000000D01*
X158600000Y-106600000D01*
G37*
D12*
G36*
X136849496Y-67078413D02*
G01*
X136944298Y-67075422D01*
X137029225Y-67065433D01*
X137092939Y-67051772D01*
X137157758Y-67032178D01*
X137298292Y-66974548D01*
X137298292Y-66312211D01*
X136784784Y-66312211D01*
X136784784Y-66525838D01*
X137061157Y-66525838D01*
X137061157Y-66823924D01*
X137006021Y-66844634D01*
X136949455Y-66856943D01*
X136843598Y-66862819D01*
X136783151Y-66859967D01*
X136730709Y-66850941D01*
X136694163Y-66838782D01*
X136662228Y-66821848D01*
X136637134Y-66802129D01*
X136615444Y-66777947D01*
X136581485Y-66714855D01*
X136557655Y-66621815D01*
X136544950Y-66479227D01*
X136543716Y-66402397D01*
X136546603Y-66280827D01*
X136555866Y-66180095D01*
X136567425Y-66117783D01*
X136583383Y-66065504D01*
X136600369Y-66029039D01*
X136620906Y-65998770D01*
X136642864Y-65976297D01*
X136668106Y-65958366D01*
X136729418Y-65934940D01*
X136818123Y-65926331D01*
X136889919Y-65929262D01*
X136946632Y-65938834D01*
X136978418Y-65950201D01*
X137004096Y-65965856D01*
X137022034Y-65983434D01*
X137036098Y-66004899D01*
X137054664Y-66063467D01*
X137059191Y-66098669D01*
X137302225Y-66098669D01*
X137295316Y-66020948D01*
X137282782Y-65953465D01*
X137268161Y-65906293D01*
X137249085Y-65865046D01*
X137228138Y-65833174D01*
X137203137Y-65805515D01*
X137142443Y-65763254D01*
X137059929Y-65733417D01*
X136942779Y-65715306D01*
X136816157Y-65710653D01*
X136729524Y-65713484D01*
X136652238Y-65722358D01*
X136595040Y-65734681D01*
X136543709Y-65751859D01*
X136502791Y-65771478D01*
X136466151Y-65795422D01*
X136435266Y-65822269D01*
X136407915Y-65853386D01*
X136363017Y-65929697D01*
X136329086Y-66032084D01*
X136306307Y-66173110D01*
X136296827Y-66373653D01*
X136296750Y-66396499D01*
X136299595Y-66522890D01*
X136308566Y-66634009D01*
X136320691Y-66712938D01*
X136337557Y-66782880D01*
X136356248Y-66836479D01*
X136378969Y-66883919D01*
X136403378Y-66922021D01*
X136431489Y-66955430D01*
X136496655Y-67007279D01*
X136579088Y-67044484D01*
X136686978Y-67068567D01*
X136833749Y-67078340D01*
X136849496Y-67078413D01*
G37*
G36*
X136688521Y-70821931D02*
G01*
X136877059Y-70832450D01*
X137003088Y-70855000D01*
X137090233Y-70887568D01*
X137152102Y-70930471D01*
X137176491Y-70957208D01*
X137196410Y-70987455D01*
X137213553Y-71025242D01*
X137225849Y-71067738D01*
X137234762Y-71126119D01*
X137237598Y-71192172D01*
X137235069Y-71258918D01*
X137220280Y-71338607D01*
X137192827Y-71392265D01*
X137172247Y-71414053D01*
X137147007Y-71431974D01*
X137108323Y-71449640D01*
X137061157Y-71462818D01*
X137061157Y-71474615D01*
X137153183Y-71499113D01*
X137212303Y-71532534D01*
X137235149Y-71554366D01*
X137253804Y-71580003D01*
X137270288Y-71614174D01*
X137282155Y-71654147D01*
X137291541Y-71717469D01*
X137294446Y-71793132D01*
X137285945Y-71906872D01*
X137262873Y-71987646D01*
X137225236Y-72049480D01*
X137199343Y-72075882D01*
X137168675Y-72098849D01*
X137128960Y-72120415D01*
X137082780Y-72138208D01*
X137019679Y-72154614D01*
X136946605Y-72166453D01*
X136836813Y-72175550D01*
X136708360Y-72178413D01*
X136676302Y-72178322D01*
X136516374Y-72173724D01*
X136324191Y-72158837D01*
X136324191Y-71958973D01*
X136571157Y-71958973D01*
X136741700Y-71962819D01*
X136884121Y-71954348D01*
X136957170Y-71935095D01*
X137002691Y-71905612D01*
X137019414Y-71884723D01*
X137031430Y-71859910D01*
X137040665Y-71821490D01*
X137043547Y-71775522D01*
X137039686Y-71717212D01*
X137022731Y-71661884D01*
X137008749Y-71640971D01*
X136990607Y-71623789D01*
X136963946Y-71608196D01*
X136930773Y-71596866D01*
X136871462Y-71587306D01*
X136796581Y-71584377D01*
X136571157Y-71584377D01*
X136571157Y-71958973D01*
X136324191Y-71958973D01*
X136324191Y-71035307D01*
X136571157Y-71035307D01*
X136571157Y-71368699D01*
X136845564Y-71368699D01*
X136909641Y-71360708D01*
X136951287Y-71340898D01*
X136966786Y-71324277D01*
X136978060Y-71302845D01*
X136987693Y-71262561D01*
X136990632Y-71209868D01*
X136982219Y-71137930D01*
X136959799Y-71095864D01*
X136939932Y-71078401D01*
X136914125Y-71064659D01*
X136864208Y-71050169D01*
X136798547Y-71041120D01*
X136695142Y-71035297D01*
X136571157Y-71035307D01*
X136324191Y-71035307D01*
X136324191Y-70827066D01*
X136639802Y-70821595D01*
X136688521Y-70821931D01*
G37*
G36*
X136898134Y-60529389D02*
G01*
X137017985Y-60552171D01*
X137102732Y-60585760D01*
X137164078Y-60630532D01*
X137188603Y-60658641D01*
X137208706Y-60690397D01*
X137226139Y-60730096D01*
X137238744Y-60774643D01*
X137248012Y-60835289D01*
X137251276Y-60903627D01*
X137243808Y-61020655D01*
X137223288Y-61089466D01*
X137188878Y-61138230D01*
X137162987Y-61158735D01*
X137131741Y-61175284D01*
X137082154Y-61191741D01*
X137022005Y-61203252D01*
X137022005Y-61220862D01*
X137070413Y-61232264D01*
X137122927Y-61260017D01*
X137146062Y-61282601D01*
X137166067Y-61311276D01*
X137192446Y-61368759D01*
X137216056Y-61444833D01*
X137327699Y-61862000D01*
X137059191Y-61862000D01*
X136967124Y-61462528D01*
X136943320Y-61394897D01*
X136909758Y-61354707D01*
X136884134Y-61338954D01*
X136852715Y-61327529D01*
X136796147Y-61317842D01*
X136724090Y-61314896D01*
X136598598Y-61314896D01*
X136598598Y-61862000D01*
X136349665Y-61862000D01*
X136349665Y-60739154D01*
X136598598Y-60739154D01*
X136598598Y-61097422D01*
X136851462Y-61097422D01*
X136866411Y-61097148D01*
X136926533Y-61087243D01*
X136965195Y-61063347D01*
X136980586Y-61042608D01*
X136991795Y-61016094D01*
X137001377Y-60966950D01*
X137004310Y-60903627D01*
X136997820Y-60834582D01*
X136978521Y-60791171D01*
X136961838Y-60774392D01*
X136940145Y-60761591D01*
X136899968Y-60749414D01*
X136847530Y-60743086D01*
X136701041Y-60736760D01*
X136598598Y-60739154D01*
X136349665Y-60739154D01*
X136349665Y-60527066D01*
X136582954Y-60521595D01*
X136723833Y-60519578D01*
X136898134Y-60529389D01*
G37*
D13*
G36*
X148098429Y-71679277D02*
G01*
X141135640Y-71679277D01*
X141135640Y-69716886D01*
X141891196Y-69716886D01*
X141893619Y-69952260D01*
X141926329Y-70158290D01*
X141979203Y-70311859D01*
X142055986Y-70445977D01*
X142266858Y-70647675D01*
X142581518Y-70793699D01*
X143055133Y-70889516D01*
X143743100Y-70923721D01*
X144213057Y-70909824D01*
X144623793Y-70865693D01*
X144911582Y-70806517D01*
X145167302Y-70724021D01*
X145368185Y-70630417D01*
X145547651Y-70515961D01*
X145836526Y-70235311D01*
X146070346Y-69854399D01*
X146268138Y-69318315D01*
X146367917Y-68914506D01*
X147342873Y-64360037D01*
X146125994Y-64360037D01*
X145159159Y-68876307D01*
X145081590Y-69169805D01*
X144983349Y-69403924D01*
X144893448Y-69542089D01*
X144785978Y-69652710D01*
X144536590Y-69790320D01*
X144180614Y-69858595D01*
X143940570Y-69867420D01*
X143679529Y-69853544D01*
X143478260Y-69809558D01*
X143366951Y-69756485D01*
X143283805Y-69684160D01*
X143200449Y-69502023D01*
X143197265Y-69214852D01*
X143242585Y-68962256D01*
X142015448Y-68962256D01*
X141930686Y-69366786D01*
X141891196Y-69716886D01*
X141135640Y-69716886D01*
X141135640Y-63604481D01*
X148098429Y-63604481D01*
X148098429Y-71679277D01*
G37*
D11*
G36*
X138388091Y-77464000D02*
G01*
X139018091Y-77464000D01*
X139018091Y-77277593D01*
X138808091Y-77277593D01*
X138808091Y-76506250D01*
X139006367Y-76506250D01*
X139006367Y-76319771D01*
X138399888Y-76319771D01*
X138399888Y-76506250D01*
X138598091Y-76506250D01*
X138598091Y-77277593D01*
X138388091Y-77277593D01*
X138388091Y-77464000D01*
G37*
G36*
X139321294Y-77464000D02*
G01*
X139526238Y-77464000D01*
X139526238Y-77007729D01*
X139528713Y-76937616D01*
X139536654Y-76880127D01*
X139546534Y-76845064D01*
X139560166Y-76816001D01*
X139575104Y-76795531D01*
X139593243Y-76778932D01*
X139638579Y-76756741D01*
X139705021Y-76745977D01*
X139736238Y-76745120D01*
X139785678Y-76747615D01*
X139824802Y-76755700D01*
X139847089Y-76765472D01*
X139864894Y-76778934D01*
X139886823Y-76813630D01*
X139897850Y-76868345D01*
X139899197Y-76905074D01*
X139899197Y-77464000D01*
X140104141Y-77464000D01*
X140104141Y-76908445D01*
X140101685Y-76832256D01*
X140093872Y-76767215D01*
X140083681Y-76723946D01*
X140069544Y-76686648D01*
X140053877Y-76658924D01*
X140034814Y-76635213D01*
X139988669Y-76600539D01*
X139925778Y-76577448D01*
X139835680Y-76565137D01*
X139779909Y-76563623D01*
X139727006Y-76566147D01*
X139682276Y-76574439D01*
X139653070Y-76585092D01*
X139626787Y-76600050D01*
X139582231Y-76642085D01*
X139539647Y-76706431D01*
X139526238Y-76706431D01*
X139526238Y-76587070D01*
X139321294Y-76587070D01*
X139321294Y-77464000D01*
G37*
G36*
X140763874Y-76568594D02*
G01*
X140870261Y-76578077D01*
X140946550Y-76599253D01*
X141003842Y-76631784D01*
X141027749Y-76653303D01*
X141048483Y-76678482D01*
X141067561Y-76710148D01*
X141083268Y-76746569D01*
X141097510Y-76795058D01*
X141107771Y-76850615D01*
X141115500Y-76931453D01*
X141117944Y-77024875D01*
X141117490Y-77067201D01*
X141107622Y-77199915D01*
X141086983Y-77291724D01*
X141056723Y-77357683D01*
X141015560Y-77406578D01*
X140988963Y-77426614D01*
X140958709Y-77443041D01*
X140919826Y-77457538D01*
X140875798Y-77467956D01*
X140813896Y-77475632D01*
X140743300Y-77478068D01*
X140692235Y-77476242D01*
X140624595Y-77463690D01*
X140597071Y-77452183D01*
X140572309Y-77436618D01*
X140543007Y-77409912D01*
X140514836Y-77374900D01*
X140501353Y-77374900D01*
X140501353Y-77824209D01*
X140298094Y-77824209D01*
X140298094Y-77024875D01*
X140497983Y-77024875D01*
X140499422Y-77085212D01*
X140510680Y-77174786D01*
X140531164Y-77231219D01*
X140561668Y-77268564D01*
X140583419Y-77282808D01*
X140609019Y-77293059D01*
X140648148Y-77300922D01*
X140694574Y-77303385D01*
X140734507Y-77301978D01*
X140799433Y-77290032D01*
X140844232Y-77266591D01*
X140862325Y-77249135D01*
X140877219Y-77227710D01*
X140890890Y-77197182D01*
X140900789Y-77160424D01*
X140908827Y-77099384D01*
X140911315Y-77024875D01*
X140908961Y-76951091D01*
X140896266Y-76867885D01*
X140874211Y-76814215D01*
X140859237Y-76794148D01*
X140841250Y-76777784D01*
X140817445Y-76763627D01*
X140789413Y-76753430D01*
X140746093Y-76745536D01*
X140694574Y-76743068D01*
X140669477Y-76743720D01*
X140607069Y-76754037D01*
X140563877Y-76776304D01*
X140546262Y-76793447D01*
X140531720Y-76814772D01*
X140518242Y-76845728D01*
X140508457Y-76883396D01*
X140500464Y-76946773D01*
X140497983Y-77024875D01*
X140298094Y-77024875D01*
X140298094Y-76587070D01*
X140501353Y-76587070D01*
X140501353Y-76672506D01*
X140514836Y-76672506D01*
X140531668Y-76654337D01*
X140587628Y-76606071D01*
X140615295Y-76590391D01*
X140644574Y-76579321D01*
X140687696Y-76570861D01*
X140738244Y-76568312D01*
X140763874Y-76568594D01*
G37*
G36*
X141627704Y-77478068D02*
G01*
X141691740Y-77475561D01*
X141744681Y-77467395D01*
X141777949Y-77457117D01*
X141807048Y-77442801D01*
X141852495Y-77404526D01*
X141896468Y-77340315D01*
X141909951Y-77340315D01*
X141909951Y-77464000D01*
X142114895Y-77464000D01*
X142114895Y-76587070D01*
X141909951Y-76587070D01*
X141909951Y-77040702D01*
X141907466Y-77109829D01*
X141899456Y-77166697D01*
X141889512Y-77201352D01*
X141875768Y-77230227D01*
X141860640Y-77250737D01*
X141842235Y-77267490D01*
X141795955Y-77290312D01*
X141727869Y-77302035D01*
X141686468Y-77303385D01*
X141640957Y-77300891D01*
X141605002Y-77292810D01*
X141584485Y-77283003D01*
X141568136Y-77269482D01*
X141547841Y-77233858D01*
X141537896Y-77175905D01*
X141536992Y-77144017D01*
X141536992Y-76587070D01*
X141332048Y-76587070D01*
X141332048Y-77140646D01*
X141334510Y-77218581D01*
X141342371Y-77284543D01*
X141352492Y-77327492D01*
X141366520Y-77364234D01*
X141381964Y-77391157D01*
X141400741Y-77413976D01*
X141446110Y-77446732D01*
X141508223Y-77467743D01*
X141598168Y-77477600D01*
X141627704Y-77478068D01*
G37*
G36*
X142841395Y-77482684D02*
G01*
X142988551Y-77474083D01*
X143108548Y-77460849D01*
X143108548Y-77284408D01*
X142989672Y-77299539D01*
X142898548Y-77304558D01*
X142844550Y-77302059D01*
X142805829Y-77293943D01*
X142787177Y-77284889D01*
X142773536Y-77272611D01*
X142759003Y-77240578D01*
X142754054Y-77176916D01*
X142754054Y-76760140D01*
X143081657Y-76760140D01*
X143081657Y-76587070D01*
X142754054Y-76587070D01*
X142754054Y-76326732D01*
X142559148Y-76409017D01*
X142559148Y-76587070D01*
X142376039Y-76587070D01*
X142335739Y-76760140D01*
X142552480Y-76760140D01*
X142552480Y-77183584D01*
X142555239Y-77259805D01*
X142565170Y-77324791D01*
X142576116Y-77359694D01*
X142591434Y-77390229D01*
X142608285Y-77412688D01*
X142629077Y-77432019D01*
X142681266Y-77460336D01*
X142755652Y-77477723D01*
X142841395Y-77482684D01*
G37*
G36*
X143578007Y-77431173D02*
G01*
X143897184Y-77431173D01*
X143897184Y-77123794D01*
X143578007Y-77123794D01*
X143578007Y-77431173D01*
G37*
G36*
X143578007Y-76769959D02*
G01*
X143897184Y-76769959D01*
X143897184Y-76462579D01*
X143578007Y-76462579D01*
X143578007Y-76769959D01*
G37*
G36*
X145755090Y-77464000D02*
G01*
X145963405Y-77464000D01*
X145963405Y-76319771D01*
X145755090Y-76319771D01*
X145393855Y-76573002D01*
X145393855Y-76795385D01*
X145696252Y-76608392D01*
X145761758Y-76554610D01*
X145755090Y-76658951D01*
X145755090Y-77464000D01*
G37*
G36*
X146878855Y-76310680D02*
G01*
X146971364Y-76326085D01*
X147034400Y-76350876D01*
X147080072Y-76386679D01*
X147098969Y-76411175D01*
X147114422Y-76439784D01*
X147128690Y-76479516D01*
X147138942Y-76525909D01*
X147147625Y-76606178D01*
X147150205Y-76702914D01*
X147149393Y-76750838D01*
X147137831Y-76867034D01*
X147110783Y-76968821D01*
X147088961Y-77021507D01*
X147061113Y-77075211D01*
X147020135Y-77140781D01*
X146969184Y-77211067D01*
X146866681Y-77335391D01*
X146733576Y-77482757D01*
X146474849Y-77482757D01*
X146551350Y-77408031D01*
X146705619Y-77246678D01*
X146791163Y-77142025D01*
X146878070Y-77021065D01*
X146864588Y-77021065D01*
X146814154Y-77058835D01*
X146776058Y-77071609D01*
X146726835Y-77074774D01*
X146626503Y-77071752D01*
X146530646Y-77058372D01*
X146466480Y-77035527D01*
X146420610Y-77001972D01*
X146401764Y-76978890D01*
X146386354Y-76951788D01*
X146372118Y-76913946D01*
X146361883Y-76869571D01*
X146353100Y-76791219D01*
X146350551Y-76697859D01*
X146545411Y-76697859D01*
X146550005Y-76787153D01*
X146563996Y-76842720D01*
X146588138Y-76877792D01*
X146607487Y-76891565D01*
X146631508Y-76901552D01*
X146680911Y-76910835D01*
X146745300Y-76913501D01*
X146828346Y-76908957D01*
X146881946Y-76894732D01*
X146916750Y-76869642D01*
X146930801Y-76849188D01*
X146941198Y-76823668D01*
X146951361Y-76771333D01*
X146955300Y-76702914D01*
X146950420Y-76593146D01*
X146935503Y-76539148D01*
X146909920Y-76504288D01*
X146889472Y-76490471D01*
X146864244Y-76480466D01*
X146813732Y-76471309D01*
X146748670Y-76468661D01*
X146664594Y-76473959D01*
X146614143Y-76489087D01*
X146595774Y-76500754D01*
X146580777Y-76515739D01*
X146567214Y-76537739D01*
X146557353Y-76565186D01*
X146548076Y-76622568D01*
X146545411Y-76697859D01*
X146350551Y-76697859D01*
X146350505Y-76696173D01*
X146355019Y-76575645D01*
X146370079Y-76483806D01*
X146394648Y-76421169D01*
X146430347Y-76375714D01*
X146454863Y-76356874D01*
X146483532Y-76341462D01*
X146523441Y-76327212D01*
X146570090Y-76316972D01*
X146651022Y-76308283D01*
X146748670Y-76305702D01*
X146878855Y-76310680D01*
G37*
G36*
X147448353Y-77056016D02*
G01*
X148086706Y-77056016D01*
X148086706Y-76871222D01*
X147448353Y-76871222D01*
X147448353Y-77056016D01*
G37*
G36*
X148383168Y-77186955D02*
G01*
X148383168Y-77464000D01*
X149169385Y-77464000D01*
X149169385Y-77275908D01*
X148599836Y-77275908D01*
X148599836Y-77260741D01*
X148761285Y-77145090D01*
X148883626Y-77049157D01*
X149028997Y-76916048D01*
X149033318Y-76911742D01*
X149077179Y-76864340D01*
X149109741Y-76820038D01*
X149127560Y-76787092D01*
X149140346Y-76753028D01*
X149152948Y-76678870D01*
X149154218Y-76638214D01*
X149151771Y-76570691D01*
X149144021Y-76512195D01*
X149133685Y-76471840D01*
X149119314Y-76436584D01*
X149103083Y-76409566D01*
X149083277Y-76386118D01*
X149034388Y-76350413D01*
X148966808Y-76325147D01*
X148869602Y-76309718D01*
X148762794Y-76305702D01*
X148678272Y-76308153D01*
X148605608Y-76315927D01*
X148556409Y-76326161D01*
X148513650Y-76340367D01*
X148481552Y-76356103D01*
X148453754Y-76375241D01*
X148431412Y-76396415D01*
X148412424Y-76420906D01*
X148383369Y-76481496D01*
X148364535Y-76565536D01*
X148357962Y-76641585D01*
X148572944Y-76641585D01*
X148578601Y-76596923D01*
X148589235Y-76561086D01*
X148600836Y-76539839D01*
X148616052Y-76522673D01*
X148655056Y-76500616D01*
X148716339Y-76488961D01*
X148764480Y-76487199D01*
X148821605Y-76489711D01*
X148866140Y-76497913D01*
X148890432Y-76507547D01*
X148909625Y-76520782D01*
X148932307Y-76553851D01*
X148943153Y-76604534D01*
X148944291Y-76634844D01*
X148941737Y-76676202D01*
X148933235Y-76710435D01*
X148905966Y-76756565D01*
X148888824Y-76775821D01*
X148821951Y-76838893D01*
X148733192Y-76914634D01*
X148383168Y-77186955D01*
G37*
G36*
X149378433Y-77256271D02*
G01*
X149843789Y-77256271D01*
X149843789Y-77464000D01*
X150045362Y-77464000D01*
X150045362Y-77256271D01*
X150201653Y-77256271D01*
X150201653Y-77074774D01*
X150045362Y-77074774D01*
X150045362Y-76807841D01*
X149843789Y-76807841D01*
X149843789Y-77074774D01*
X149590118Y-77074774D01*
X149971503Y-76305702D01*
X149746336Y-76305702D01*
X149378433Y-77064736D01*
X149378433Y-77256271D01*
G37*
G36*
X150656018Y-77464000D02*
G01*
X150919727Y-77464000D01*
X151259127Y-76319771D01*
X151049127Y-76319771D01*
X150792086Y-77212014D01*
X150783660Y-77212014D01*
X150526618Y-76319771D01*
X150316618Y-76319771D01*
X150656018Y-77464000D01*
G37*
G36*
X152755799Y-76321456D02*
G01*
X152885194Y-76340254D01*
X152988408Y-76369127D01*
X153065865Y-76406844D01*
X153125825Y-76455010D01*
X153151136Y-76484514D01*
X153173050Y-76517581D01*
X153193071Y-76557497D01*
X153209506Y-76602029D01*
X153224110Y-76658708D01*
X153234596Y-76722048D01*
X153242243Y-76809152D01*
X153244675Y-76907419D01*
X153242217Y-77004900D01*
X153227731Y-77135586D01*
X153202182Y-77232535D01*
X153166273Y-77306652D01*
X153118750Y-77364787D01*
X153089117Y-77389526D01*
X153055796Y-77410896D01*
X153015290Y-77430442D01*
X152970080Y-77446369D01*
X152912567Y-77460343D01*
X152848419Y-77470122D01*
X152761251Y-77476744D01*
X152663401Y-77478068D01*
X152662211Y-77478068D01*
X152559684Y-77475667D01*
X152389581Y-77464000D01*
X152389581Y-77288291D01*
X152604563Y-77288291D01*
X152737334Y-77293274D01*
X152773848Y-77290481D01*
X152856228Y-77274837D01*
X152915075Y-77248549D01*
X152938836Y-77230820D01*
X152959403Y-77209626D01*
X152978099Y-77182780D01*
X152993494Y-77151415D01*
X153007531Y-77108802D01*
X153017661Y-77059250D01*
X153025477Y-76984085D01*
X153027934Y-76895622D01*
X153027407Y-76853883D01*
X153017555Y-76737090D01*
X152997186Y-76658052D01*
X152966750Y-76601642D01*
X152946704Y-76578818D01*
X152923289Y-76559482D01*
X152893049Y-76541757D01*
X152858162Y-76527697D01*
X152807672Y-76514755D01*
X152749057Y-76506323D01*
X152604563Y-76497897D01*
X152604563Y-77288291D01*
X152389581Y-77288291D01*
X152389581Y-76321822D01*
X152531843Y-76315139D01*
X152645928Y-76315011D01*
X152755799Y-76321456D01*
G37*
G36*
X153851887Y-77478068D02*
G01*
X153935929Y-77475612D01*
X154008149Y-77467800D01*
X154056815Y-77457552D01*
X154099143Y-77443317D01*
X154130950Y-77427537D01*
X154158538Y-77408328D01*
X154180800Y-77387012D01*
X154199768Y-77362328D01*
X154229047Y-77300971D01*
X154248418Y-77215390D01*
X154255108Y-77145849D01*
X154045108Y-77145849D01*
X154035370Y-77190767D01*
X154021406Y-77226367D01*
X154007784Y-77247121D01*
X153990830Y-77263643D01*
X153948742Y-77284356D01*
X153883517Y-77294199D01*
X153851887Y-77294959D01*
X153804959Y-77292517D01*
X153764178Y-77284806D01*
X153735502Y-77274337D01*
X153710425Y-77259749D01*
X153690457Y-77242509D01*
X153673217Y-77221320D01*
X153645904Y-77164813D01*
X153626820Y-77079566D01*
X153617241Y-76946058D01*
X153616681Y-76894450D01*
X153619155Y-76790511D01*
X153627095Y-76704514D01*
X153636991Y-76651441D01*
X153650650Y-76606963D01*
X153665188Y-76575972D01*
X153682763Y-76550273D01*
X153701577Y-76531191D01*
X153723208Y-76515986D01*
X153775902Y-76496126D01*
X153851887Y-76488884D01*
X153899259Y-76491379D01*
X153937854Y-76499463D01*
X153961404Y-76509583D01*
X153981151Y-76523628D01*
X154009186Y-76561341D01*
X154029824Y-76622396D01*
X154034996Y-76648033D01*
X154244996Y-76648033D01*
X154239862Y-76577663D01*
X154229764Y-76516796D01*
X154217800Y-76474934D01*
X154201980Y-76438427D01*
X154184629Y-76410538D01*
X154163824Y-76386391D01*
X154113528Y-76349916D01*
X154045394Y-76324462D01*
X153948921Y-76309283D01*
X153851887Y-76305702D01*
X153776560Y-76308129D01*
X153709407Y-76315738D01*
X153659795Y-76326292D01*
X153615295Y-76341003D01*
X153579877Y-76357784D01*
X153548173Y-76378261D01*
X153521493Y-76401184D01*
X153497869Y-76427746D01*
X153459138Y-76492768D01*
X153429863Y-76579863D01*
X153410134Y-76699692D01*
X153401728Y-76870016D01*
X153401625Y-76894450D01*
X153404065Y-77005048D01*
X153411765Y-77101963D01*
X153422125Y-77170291D01*
X153436530Y-77230653D01*
X153452440Y-77276631D01*
X153471770Y-77317191D01*
X153492475Y-77349570D01*
X153516306Y-77377847D01*
X153571421Y-77421344D01*
X153641076Y-77452089D01*
X153732351Y-77471373D01*
X153851887Y-77478068D01*
G37*
G36*
X155753464Y-77478068D02*
G01*
X155835743Y-77475661D01*
X155908503Y-77468191D01*
X155962290Y-77457797D01*
X156009948Y-77443390D01*
X156047136Y-77427151D01*
X156079888Y-77407461D01*
X156106549Y-77385881D01*
X156129631Y-77361054D01*
X156165248Y-77301934D01*
X156189198Y-77224895D01*
X156201133Y-77121292D01*
X156202041Y-77077412D01*
X156199631Y-77013987D01*
X156192144Y-76957873D01*
X156181672Y-76916166D01*
X156167131Y-76879056D01*
X156150317Y-76849297D01*
X156129831Y-76822904D01*
X156078990Y-76780625D01*
X156009526Y-76747969D01*
X155911946Y-76723586D01*
X155855900Y-76715517D01*
X155767295Y-76709408D01*
X155676161Y-76712147D01*
X155692941Y-76501267D01*
X156153314Y-76497897D01*
X156153314Y-76319771D01*
X155506461Y-76319771D01*
X155456123Y-76918923D01*
X155597671Y-76900714D01*
X155707103Y-76892736D01*
X155832379Y-76897014D01*
X155877394Y-76903915D01*
X155914159Y-76915267D01*
X155937547Y-76927660D01*
X155956479Y-76943450D01*
X155980503Y-76982204D01*
X155992404Y-77038781D01*
X155993726Y-77072356D01*
X155991300Y-77125112D01*
X155983698Y-77169831D01*
X155973581Y-77200083D01*
X155959603Y-77225737D01*
X155943614Y-77244992D01*
X155924155Y-77260920D01*
X155873919Y-77283527D01*
X155799621Y-77295351D01*
X155756835Y-77296644D01*
X155704664Y-77294180D01*
X155652947Y-77286309D01*
X155551779Y-77255572D01*
X155427547Y-77198825D01*
X155427547Y-77409191D01*
X155490724Y-77436054D01*
X155551808Y-77455695D01*
X155659138Y-77474231D01*
X155753464Y-77478068D01*
G37*
G36*
X156925174Y-76303896D02*
G01*
X157017643Y-76316834D01*
X157080719Y-76339917D01*
X157106328Y-76356184D01*
X157128762Y-76376051D01*
X157150826Y-76403219D01*
X157169982Y-76435803D01*
X157193490Y-76492542D01*
X157214085Y-76562450D01*
X157220937Y-76590153D01*
X157241232Y-76715156D01*
X157247209Y-76798026D01*
X157249403Y-76900238D01*
X157249355Y-76916079D01*
X157241463Y-77071516D01*
X157231191Y-77142874D01*
X157215771Y-77214359D01*
X157199566Y-77271294D01*
X157166721Y-77350541D01*
X157128921Y-77403048D01*
X157105886Y-77423356D01*
X157079783Y-77439823D01*
X157045032Y-77454629D01*
X157005014Y-77465283D01*
X156925726Y-77475297D01*
X156827718Y-77478068D01*
X156711677Y-77473895D01*
X156628043Y-77459652D01*
X156569102Y-77434930D01*
X156544534Y-77417417D01*
X156522741Y-77395958D01*
X156501278Y-77366846D01*
X156482449Y-77331826D01*
X156461395Y-77277269D01*
X156448150Y-77229453D01*
X156663073Y-77229453D01*
X156664693Y-77233958D01*
X156684697Y-77267232D01*
X156700823Y-77279787D01*
X156721974Y-77289010D01*
X156766717Y-77297467D01*
X156829403Y-77300015D01*
X156839798Y-77299963D01*
X156924378Y-77292278D01*
X156952264Y-77282726D01*
X156972822Y-77268681D01*
X156987757Y-77249628D01*
X156998775Y-77225054D01*
X157015882Y-77157279D01*
X157032181Y-77049920D01*
X157039403Y-76885144D01*
X157034347Y-76759115D01*
X156663073Y-77229453D01*
X156448150Y-77229453D01*
X156443035Y-77210988D01*
X156437883Y-77188064D01*
X156418834Y-77062120D01*
X156411163Y-76890200D01*
X156621088Y-76890200D01*
X156623396Y-76984017D01*
X156629441Y-77056456D01*
X157007456Y-76577691D01*
X156999164Y-76551027D01*
X156977408Y-76514791D01*
X156960841Y-76501320D01*
X156939924Y-76491495D01*
X156892809Y-76481920D01*
X156827718Y-76479212D01*
X156789898Y-76479995D01*
X156727200Y-76488710D01*
X156690674Y-76507512D01*
X156674891Y-76525926D01*
X156662895Y-76550298D01*
X156644609Y-76619750D01*
X156643957Y-76623254D01*
X156628416Y-76728554D01*
X156621088Y-76890200D01*
X156411163Y-76890200D01*
X156411088Y-76888515D01*
X156417494Y-76731843D01*
X156430069Y-76636954D01*
X156446332Y-76564136D01*
X156465768Y-76497636D01*
X156498347Y-76422630D01*
X156536298Y-76372620D01*
X156559815Y-76353086D01*
X156586727Y-76337193D01*
X156622836Y-76322899D01*
X156664824Y-76312626D01*
X156739554Y-76303765D01*
X156831088Y-76301159D01*
X156925174Y-76303896D01*
G37*
G36*
X157932236Y-76303896D02*
G01*
X158024706Y-76316834D01*
X158087781Y-76339917D01*
X158113391Y-76356184D01*
X158135824Y-76376051D01*
X158157889Y-76403219D01*
X158177045Y-76435803D01*
X158200552Y-76492542D01*
X158221147Y-76562450D01*
X158227999Y-76590153D01*
X158248294Y-76715156D01*
X158254271Y-76798026D01*
X158256465Y-76900238D01*
X158256418Y-76916079D01*
X158248525Y-77071516D01*
X158238253Y-77142874D01*
X158222833Y-77214359D01*
X158206628Y-77271294D01*
X158173783Y-77350541D01*
X158135983Y-77403048D01*
X158112948Y-77423356D01*
X158086845Y-77439823D01*
X158052094Y-77454629D01*
X158012076Y-77465283D01*
X157932788Y-77475297D01*
X157834780Y-77478068D01*
X157718739Y-77473895D01*
X157635105Y-77459652D01*
X157576164Y-77434930D01*
X157551596Y-77417417D01*
X157529803Y-77395958D01*
X157508340Y-77366846D01*
X157489511Y-77331826D01*
X157468457Y-77277269D01*
X157455212Y-77229453D01*
X157670136Y-77229453D01*
X157671755Y-77233958D01*
X157691759Y-77267232D01*
X157707886Y-77279787D01*
X157729036Y-77289010D01*
X157773779Y-77297467D01*
X157836465Y-77300015D01*
X157846861Y-77299963D01*
X157931440Y-77292278D01*
X157959326Y-77282726D01*
X157979884Y-77268681D01*
X157994820Y-77249628D01*
X158005838Y-77225054D01*
X158022944Y-77157279D01*
X158039243Y-77049920D01*
X158046465Y-76885144D01*
X158041409Y-76759115D01*
X157670136Y-77229453D01*
X157455212Y-77229453D01*
X157450097Y-77210988D01*
X157444945Y-77188064D01*
X157425896Y-77062120D01*
X157418225Y-76890200D01*
X157628150Y-76890200D01*
X157630458Y-76984017D01*
X157636503Y-77056456D01*
X158014518Y-76577691D01*
X158006226Y-76551027D01*
X157984471Y-76514791D01*
X157967903Y-76501320D01*
X157946986Y-76491495D01*
X157899871Y-76481920D01*
X157834780Y-76479212D01*
X157796960Y-76479995D01*
X157734262Y-76488710D01*
X157697736Y-76507512D01*
X157681953Y-76525926D01*
X157669957Y-76550298D01*
X157651671Y-76619750D01*
X157651019Y-76623254D01*
X157635478Y-76728554D01*
X157628150Y-76890200D01*
X157418225Y-76890200D01*
X157418150Y-76888515D01*
X157424556Y-76731843D01*
X157437131Y-76636954D01*
X157453394Y-76564136D01*
X157472831Y-76497636D01*
X157505409Y-76422630D01*
X157543360Y-76372620D01*
X157566877Y-76353086D01*
X157593789Y-76337193D01*
X157629898Y-76322899D01*
X157671887Y-76312626D01*
X157746616Y-76303765D01*
X157838150Y-76301159D01*
X157932236Y-76303896D01*
G37*
G36*
X158383227Y-77464000D02*
G01*
X158569706Y-77464000D01*
X158569706Y-76967356D01*
X158572269Y-76879449D01*
X158580832Y-76816519D01*
X158589793Y-76788474D01*
X158601917Y-76768100D01*
X158614358Y-76756623D01*
X158629283Y-76749291D01*
X158658733Y-76745120D01*
X158686835Y-76747605D01*
X158709448Y-76755625D01*
X158723324Y-76766020D01*
X158734461Y-76780524D01*
X158749602Y-76824716D01*
X158756206Y-76907884D01*
X158756186Y-76935336D01*
X158752815Y-77464000D01*
X158937609Y-77464000D01*
X158937609Y-76958930D01*
X158940159Y-76877295D01*
X158948628Y-76817880D01*
X158957696Y-76790309D01*
X158969997Y-76769965D01*
X158982807Y-76758115D01*
X158998217Y-76750300D01*
X159033377Y-76745120D01*
X159057274Y-76747605D01*
X159076670Y-76755625D01*
X159098914Y-76781423D01*
X159112973Y-76830040D01*
X159119033Y-76935336D01*
X159119033Y-77464000D01*
X159305512Y-77464000D01*
X159305512Y-76905074D01*
X159303027Y-76812008D01*
X159295011Y-76736160D01*
X159285209Y-76690947D01*
X159271700Y-76653579D01*
X159257331Y-76627971D01*
X159239956Y-76607145D01*
X159199010Y-76580048D01*
X159143024Y-76566001D01*
X159098883Y-76563623D01*
X159054746Y-76566128D01*
X159018689Y-76574284D01*
X158996338Y-76584587D01*
X158977203Y-76598944D01*
X158947513Y-76639348D01*
X158925812Y-76693023D01*
X158924127Y-76693023D01*
X158909555Y-76651475D01*
X158891623Y-76619121D01*
X158875508Y-76600697D01*
X158856290Y-76586409D01*
X158808833Y-76569317D01*
X158737648Y-76563623D01*
X158703633Y-76566796D01*
X158674482Y-76575576D01*
X158654092Y-76587140D01*
X158635333Y-76603347D01*
X158598772Y-76654289D01*
X158578060Y-76694488D01*
X158564651Y-76694488D01*
X158564651Y-76587070D01*
X158383227Y-76587070D01*
X158383227Y-77464000D01*
G37*
G36*
X160332725Y-77464000D02*
G01*
X160121039Y-77464000D01*
X160047107Y-77210769D01*
X159660739Y-77210769D01*
X159588492Y-77464000D01*
X159378492Y-77464000D01*
X159503069Y-77024362D01*
X159711151Y-77024362D01*
X159998454Y-77024362D01*
X159852274Y-76514676D01*
X159850589Y-76514676D01*
X159711151Y-77024362D01*
X159503069Y-77024362D01*
X159702725Y-76319771D01*
X160001751Y-76319771D01*
X160332725Y-77464000D01*
G37*
G36*
X161922519Y-76564814D02*
G01*
X162030712Y-76576853D01*
X162108731Y-76600090D01*
X162167387Y-76634341D01*
X162191795Y-76656570D01*
X162212944Y-76682354D01*
X162232302Y-76714394D01*
X162248224Y-76750995D01*
X162262564Y-76799125D01*
X162272886Y-76853934D01*
X162280588Y-76932423D01*
X162283028Y-77022531D01*
X162281661Y-77090783D01*
X162269412Y-77211131D01*
X162246443Y-77296487D01*
X162213387Y-77359304D01*
X162192447Y-77384861D01*
X162168293Y-77406936D01*
X162138908Y-77426775D01*
X162105540Y-77443058D01*
X162062404Y-77457537D01*
X162013592Y-77467944D01*
X161944812Y-77475630D01*
X161866399Y-77478068D01*
X161811677Y-77476940D01*
X161702876Y-77465024D01*
X161624471Y-77441896D01*
X161565590Y-77407788D01*
X161541118Y-77385669D01*
X161519918Y-77360017D01*
X161500532Y-77328173D01*
X161484589Y-77291806D01*
X161470239Y-77244026D01*
X161459911Y-77189637D01*
X161452209Y-77111822D01*
X161449769Y-77022531D01*
X161654713Y-77022531D01*
X161656846Y-77092935D01*
X161669283Y-77177515D01*
X161691076Y-77231898D01*
X161705834Y-77252132D01*
X161723553Y-77268620D01*
X161746883Y-77282819D01*
X161774318Y-77293041D01*
X161816432Y-77300920D01*
X161866399Y-77303385D01*
X161903559Y-77302097D01*
X161967261Y-77290337D01*
X162011446Y-77266901D01*
X162029386Y-77249312D01*
X162044176Y-77227662D01*
X162057779Y-77196723D01*
X162067640Y-77159385D01*
X162075606Y-77097780D01*
X162078084Y-77022531D01*
X162075713Y-76947587D01*
X162062953Y-76862867D01*
X162040901Y-76808299D01*
X162026041Y-76787997D01*
X162008235Y-76771452D01*
X161984890Y-76757235D01*
X161957485Y-76746999D01*
X161915770Y-76739154D01*
X161866399Y-76736693D01*
X161828149Y-76738099D01*
X161765233Y-76750153D01*
X161721316Y-76774013D01*
X161703403Y-76791934D01*
X161688631Y-76813970D01*
X161675022Y-76845482D01*
X161665157Y-76883482D01*
X161657191Y-76946106D01*
X161654713Y-77022531D01*
X161449769Y-77022531D01*
X161451208Y-76951970D01*
X161463584Y-76831146D01*
X161486635Y-76745506D01*
X161519727Y-76682532D01*
X161540664Y-76656928D01*
X161564801Y-76634822D01*
X161594149Y-76614961D01*
X161627463Y-76598666D01*
X161670530Y-76584174D01*
X161719250Y-76573762D01*
X161788011Y-76566062D01*
X161866399Y-76563623D01*
X161922519Y-76564814D01*
G37*
G36*
X162591214Y-77464000D02*
G01*
X162792787Y-77464000D01*
X162792787Y-77031690D01*
X162801445Y-76971984D01*
X162828983Y-76904850D01*
X162873753Y-76841460D01*
X162898753Y-76817484D01*
X162924235Y-76800030D01*
X162954061Y-76789450D01*
X163086736Y-76780608D01*
X163207732Y-76782709D01*
X163207732Y-76581062D01*
X163043161Y-76577691D01*
X162957867Y-76580631D01*
X162928008Y-76587614D01*
X162902660Y-76601212D01*
X162878809Y-76623630D01*
X162853444Y-76657073D01*
X162786120Y-76765856D01*
X162767581Y-76765856D01*
X162776008Y-76587070D01*
X162591214Y-76587070D01*
X162591214Y-77464000D01*
G37*
G36*
X164895938Y-77478068D02*
G01*
X164978562Y-77475624D01*
X165050213Y-77467892D01*
X165099697Y-77457592D01*
X165142968Y-77443284D01*
X165175752Y-77427372D01*
X165204288Y-77408014D01*
X165227297Y-77386635D01*
X165246941Y-77361915D01*
X165276989Y-77301269D01*
X165296386Y-77218439D01*
X165304214Y-77089868D01*
X165304214Y-76319771D01*
X165089159Y-76319771D01*
X165089159Y-77084812D01*
X165086665Y-77142441D01*
X165078588Y-77189073D01*
X165068704Y-77216591D01*
X165055054Y-77239135D01*
X165039687Y-77255114D01*
X165020918Y-77267767D01*
X164970684Y-77284337D01*
X164895938Y-77289976D01*
X164839088Y-77287492D01*
X164792621Y-77279478D01*
X164764517Y-77269529D01*
X164741292Y-77255777D01*
X164724616Y-77240247D01*
X164711245Y-77221275D01*
X164693255Y-77170834D01*
X164685938Y-77083127D01*
X164685938Y-76319771D01*
X164470956Y-76319771D01*
X164470956Y-77091554D01*
X164473396Y-77166548D01*
X164481097Y-77232026D01*
X164491469Y-77278042D01*
X164505894Y-77318525D01*
X164522117Y-77349690D01*
X164541884Y-77376984D01*
X164589667Y-77418651D01*
X164653516Y-77448776D01*
X164741763Y-77468876D01*
X164868754Y-77477852D01*
X164895938Y-77478068D01*
G37*
G36*
X165898018Y-77478068D02*
G01*
X165992923Y-77475615D01*
X166073979Y-77467828D01*
X166127964Y-77457677D01*
X166174514Y-77443610D01*
X166208713Y-77428256D01*
X166238031Y-77409629D01*
X166260897Y-77389456D01*
X166280051Y-77366211D01*
X166307926Y-77310160D01*
X166324112Y-77234316D01*
X166328056Y-77157572D01*
X166325607Y-77102401D01*
X166317842Y-77053284D01*
X166307089Y-77017109D01*
X166292009Y-76984174D01*
X166273901Y-76956262D01*
X166251521Y-76930515D01*
X166191766Y-76883666D01*
X166102135Y-76838345D01*
X165976933Y-76793846D01*
X165853240Y-76752449D01*
X165765602Y-76715185D01*
X165730089Y-76694292D01*
X165704730Y-76673050D01*
X165691464Y-76655656D01*
X165683756Y-76637346D01*
X165681277Y-76617918D01*
X165683754Y-76582519D01*
X165691720Y-76553752D01*
X165701899Y-76536029D01*
X165716034Y-76521546D01*
X165755835Y-76501837D01*
X165824130Y-76490750D01*
X165884535Y-76488884D01*
X165948797Y-76491397D01*
X165998829Y-76499609D01*
X166026110Y-76509221D01*
X166047841Y-76522421D01*
X166062674Y-76537107D01*
X166074076Y-76554997D01*
X166088442Y-76603826D01*
X166091165Y-76627956D01*
X166304535Y-76627956D01*
X166302533Y-76565850D01*
X166295365Y-76511688D01*
X166285294Y-76472754D01*
X166271206Y-76438633D01*
X166255001Y-76411972D01*
X166235223Y-76388777D01*
X166185935Y-76352925D01*
X166117518Y-76327131D01*
X166019019Y-76310833D01*
X165891277Y-76305702D01*
X165796768Y-76308156D01*
X165716327Y-76315956D01*
X165663163Y-76326077D01*
X165617476Y-76340096D01*
X165584102Y-76355364D01*
X165555609Y-76373879D01*
X165533497Y-76393930D01*
X165515096Y-76417033D01*
X165488646Y-76472918D01*
X165473986Y-76548994D01*
X165471277Y-76611177D01*
X165473724Y-76660315D01*
X165481478Y-76704229D01*
X165492313Y-76736973D01*
X165507531Y-76766910D01*
X165549154Y-76816728D01*
X165612188Y-76861510D01*
X165709396Y-76906333D01*
X165829141Y-76946400D01*
X165928800Y-76978659D01*
X166004600Y-77009987D01*
X166043435Y-77031564D01*
X166073295Y-77054227D01*
X166091802Y-77074306D01*
X166105062Y-77095902D01*
X166117347Y-77142569D01*
X166118056Y-77159258D01*
X166115594Y-77195742D01*
X166107740Y-77225544D01*
X166097606Y-77244243D01*
X166083557Y-77259578D01*
X166044573Y-77280466D01*
X165979220Y-77292522D01*
X165898018Y-77294959D01*
X165833553Y-77291852D01*
X165782021Y-77283277D01*
X165752186Y-77273208D01*
X165727862Y-77259492D01*
X165710762Y-77244288D01*
X165697145Y-77225825D01*
X165678769Y-77177014D01*
X165671165Y-77119031D01*
X165461165Y-77119031D01*
X165461563Y-77186814D01*
X165467419Y-77246199D01*
X165476523Y-77288513D01*
X165489815Y-77325841D01*
X165505273Y-77354890D01*
X165524402Y-77380396D01*
X165571897Y-77419926D01*
X165637118Y-77449014D01*
X165729344Y-77468746D01*
X165864729Y-77477798D01*
X165898018Y-77478068D01*
G37*
G36*
X166805716Y-76315369D02*
G01*
X166967320Y-76324386D01*
X167075345Y-76343714D01*
X167150040Y-76371629D01*
X167203071Y-76408403D01*
X167223976Y-76431321D01*
X167241049Y-76457247D01*
X167255743Y-76489636D01*
X167266283Y-76526061D01*
X167273922Y-76576102D01*
X167276353Y-76632719D01*
X167274185Y-76689929D01*
X167261509Y-76758235D01*
X167237978Y-76804227D01*
X167220338Y-76822903D01*
X167198704Y-76838263D01*
X167165546Y-76853406D01*
X167125118Y-76864701D01*
X167125118Y-76874812D01*
X167203997Y-76895811D01*
X167254672Y-76924457D01*
X167274254Y-76943171D01*
X167290244Y-76965146D01*
X167304373Y-76994434D01*
X167314545Y-77028698D01*
X167322590Y-77082973D01*
X167325080Y-77147827D01*
X167317793Y-77245319D01*
X167298018Y-77314554D01*
X167265757Y-77367554D01*
X167243564Y-77390185D01*
X167217277Y-77409871D01*
X167183235Y-77428356D01*
X167143652Y-77443607D01*
X167089566Y-77457669D01*
X167026931Y-77467817D01*
X166932823Y-77475614D01*
X166822721Y-77478068D01*
X166795242Y-77477990D01*
X166658161Y-77474049D01*
X166493433Y-77461288D01*
X166493433Y-77289976D01*
X166705118Y-77289976D01*
X166851297Y-77293274D01*
X166973373Y-77286012D01*
X167035986Y-77269510D01*
X167075004Y-77244239D01*
X167089338Y-77226334D01*
X167099638Y-77205065D01*
X167107553Y-77172135D01*
X167110024Y-77132733D01*
X167106714Y-77082753D01*
X167092181Y-77035329D01*
X167080197Y-77017404D01*
X167064646Y-77002676D01*
X167041795Y-76989311D01*
X167013360Y-76979599D01*
X166962522Y-76971405D01*
X166898339Y-76968895D01*
X166705118Y-76968895D01*
X166705118Y-77289976D01*
X166493433Y-77289976D01*
X166493433Y-76498263D01*
X166705118Y-76498263D01*
X166705118Y-76784027D01*
X166940324Y-76784027D01*
X166995247Y-76777178D01*
X167030943Y-76760198D01*
X167044229Y-76745952D01*
X167053892Y-76727582D01*
X167062149Y-76693053D01*
X167064668Y-76647886D01*
X167057457Y-76586226D01*
X167038240Y-76550169D01*
X167021211Y-76535201D01*
X166999091Y-76523422D01*
X166956305Y-76511002D01*
X166900024Y-76503246D01*
X166811391Y-76498254D01*
X166705118Y-76498263D01*
X166493433Y-76498263D01*
X166493433Y-76319771D01*
X166763956Y-76315081D01*
X166805716Y-76315369D01*
G37*
G36*
X168907294Y-76317236D02*
G01*
X169047934Y-76330517D01*
X169145494Y-76353676D01*
X169215259Y-76385658D01*
X169266385Y-76427507D01*
X169287025Y-76453775D01*
X169303911Y-76483338D01*
X169318598Y-76520472D01*
X169329135Y-76562099D01*
X169336773Y-76619111D01*
X169339204Y-76683424D01*
X169339119Y-76697029D01*
X169330747Y-76801916D01*
X169310435Y-76876982D01*
X169278563Y-76933384D01*
X169257249Y-76956987D01*
X169232206Y-76977460D01*
X169200454Y-76996380D01*
X169163811Y-77011958D01*
X169114571Y-77026163D01*
X169057964Y-77036397D01*
X168974286Y-77044185D01*
X168877145Y-77046637D01*
X168754560Y-77046637D01*
X168754560Y-77464000D01*
X168539504Y-77464000D01*
X168539504Y-76860231D01*
X168754560Y-76860231D01*
X168860366Y-76860231D01*
X168901217Y-76859595D01*
X168995383Y-76850104D01*
X169053354Y-76831301D01*
X169091000Y-76802856D01*
X169105230Y-76782489D01*
X169115470Y-76758390D01*
X169123366Y-76721131D01*
X169125833Y-76676683D01*
X169125682Y-76665891D01*
X169117153Y-76607194D01*
X169095981Y-76566174D01*
X169078902Y-76549144D01*
X169057315Y-76535047D01*
X169025079Y-76521762D01*
X168985355Y-76512095D01*
X168916357Y-76504050D01*
X168830177Y-76501561D01*
X168754560Y-76501561D01*
X168754560Y-76860231D01*
X168539504Y-76860231D01*
X168539504Y-76320137D01*
X168705749Y-76316769D01*
X168801601Y-76315081D01*
X168907294Y-76317236D01*
G37*
G36*
X169875854Y-76321456D02*
G01*
X170005249Y-76340254D01*
X170108464Y-76369127D01*
X170185921Y-76406844D01*
X170245881Y-76455010D01*
X170271192Y-76484514D01*
X170293106Y-76517581D01*
X170313127Y-76557497D01*
X170329562Y-76602029D01*
X170344166Y-76658708D01*
X170354652Y-76722048D01*
X170362299Y-76809152D01*
X170364731Y-76907419D01*
X170362273Y-77004900D01*
X170347787Y-77135586D01*
X170322238Y-77232535D01*
X170286329Y-77306652D01*
X170238806Y-77364787D01*
X170209173Y-77389526D01*
X170175852Y-77410896D01*
X170135346Y-77430442D01*
X170090136Y-77446369D01*
X170032623Y-77460343D01*
X169968474Y-77470122D01*
X169881307Y-77476744D01*
X169783457Y-77478068D01*
X169782267Y-77478068D01*
X169679739Y-77475667D01*
X169509637Y-77464000D01*
X169509637Y-77288291D01*
X169724619Y-77288291D01*
X169857390Y-77293274D01*
X169893904Y-77290481D01*
X169976284Y-77274837D01*
X170035130Y-77248549D01*
X170058892Y-77230820D01*
X170079459Y-77209626D01*
X170098154Y-77182780D01*
X170113550Y-77151415D01*
X170127587Y-77108802D01*
X170137717Y-77059250D01*
X170145533Y-76984085D01*
X170147990Y-76895622D01*
X170147463Y-76853883D01*
X170137611Y-76737090D01*
X170117241Y-76658052D01*
X170086805Y-76601642D01*
X170066760Y-76578818D01*
X170043345Y-76559482D01*
X170013104Y-76541757D01*
X169978218Y-76527697D01*
X169927727Y-76514755D01*
X169869113Y-76506323D01*
X169724619Y-76497897D01*
X169724619Y-77288291D01*
X169509637Y-77288291D01*
X169509637Y-76321822D01*
X169651898Y-76315139D01*
X169765983Y-76315011D01*
X169875854Y-76321456D01*
G37*
G36*
X171545596Y-77186955D02*
G01*
X171545596Y-77464000D01*
X172331814Y-77464000D01*
X172331814Y-77275908D01*
X171762264Y-77275908D01*
X171762264Y-77260741D01*
X171923713Y-77145090D01*
X172046054Y-77049157D01*
X172191426Y-76916048D01*
X172195746Y-76911742D01*
X172239607Y-76864340D01*
X172272170Y-76820038D01*
X172289988Y-76787092D01*
X172302774Y-76753028D01*
X172315377Y-76678870D01*
X172316646Y-76638214D01*
X172314199Y-76570691D01*
X172306449Y-76512195D01*
X172296114Y-76471840D01*
X172281743Y-76436584D01*
X172265511Y-76409566D01*
X172245706Y-76386118D01*
X172196816Y-76350413D01*
X172129237Y-76325147D01*
X172032030Y-76309718D01*
X171925223Y-76305702D01*
X171840701Y-76308153D01*
X171768037Y-76315927D01*
X171718838Y-76326161D01*
X171676078Y-76340367D01*
X171643981Y-76356103D01*
X171616183Y-76375241D01*
X171593841Y-76396415D01*
X171574853Y-76420906D01*
X171545798Y-76481496D01*
X171526963Y-76565536D01*
X171520390Y-76641585D01*
X171735373Y-76641585D01*
X171741030Y-76596923D01*
X171751663Y-76561086D01*
X171763264Y-76539839D01*
X171778481Y-76522673D01*
X171817485Y-76500616D01*
X171878767Y-76488961D01*
X171926908Y-76487199D01*
X171984034Y-76489711D01*
X172028568Y-76497913D01*
X172052861Y-76507547D01*
X172072053Y-76520782D01*
X172094736Y-76553851D01*
X172105582Y-76604534D01*
X172106720Y-76634844D01*
X172104165Y-76676202D01*
X172095663Y-76710435D01*
X172068395Y-76756565D01*
X172051252Y-76775821D01*
X171984379Y-76838893D01*
X171895620Y-76914634D01*
X171545596Y-77186955D01*
G37*
G36*
X173038167Y-76303896D02*
G01*
X173130637Y-76316834D01*
X173193713Y-76339917D01*
X173219322Y-76356184D01*
X173241756Y-76376051D01*
X173263820Y-76403219D01*
X173282976Y-76435803D01*
X173306483Y-76492542D01*
X173327079Y-76562450D01*
X173333931Y-76590153D01*
X173354226Y-76715156D01*
X173360203Y-76798026D01*
X173362397Y-76900238D01*
X173362349Y-76916079D01*
X173354456Y-77071516D01*
X173344184Y-77142874D01*
X173328764Y-77214359D01*
X173312560Y-77271294D01*
X173279715Y-77350541D01*
X173241914Y-77403048D01*
X173218879Y-77423356D01*
X173192776Y-77439823D01*
X173158026Y-77454629D01*
X173118008Y-77465283D01*
X173038720Y-77475297D01*
X172940711Y-77478068D01*
X172824670Y-77473895D01*
X172741037Y-77459652D01*
X172682096Y-77434930D01*
X172657528Y-77417417D01*
X172635734Y-77395958D01*
X172614272Y-77366846D01*
X172595442Y-77331826D01*
X172574389Y-77277269D01*
X172561144Y-77229453D01*
X172776067Y-77229453D01*
X172777687Y-77233958D01*
X172797691Y-77267232D01*
X172813817Y-77279787D01*
X172834967Y-77289010D01*
X172879711Y-77297467D01*
X172942397Y-77300015D01*
X172952792Y-77299963D01*
X173037372Y-77292278D01*
X173065258Y-77282726D01*
X173085816Y-77268681D01*
X173100751Y-77249628D01*
X173111769Y-77225054D01*
X173128876Y-77157279D01*
X173145174Y-77049920D01*
X173152397Y-76885144D01*
X173147341Y-76759115D01*
X172776067Y-77229453D01*
X172561144Y-77229453D01*
X172556029Y-77210988D01*
X172550877Y-77188064D01*
X172531827Y-77062120D01*
X172524157Y-76890200D01*
X172734082Y-76890200D01*
X172736390Y-76984017D01*
X172742435Y-77056456D01*
X173120450Y-76577691D01*
X173112157Y-76551027D01*
X173090402Y-76514791D01*
X173073835Y-76501320D01*
X173052918Y-76491495D01*
X173005803Y-76481920D01*
X172940711Y-76479212D01*
X172902892Y-76479995D01*
X172840194Y-76488710D01*
X172803668Y-76507512D01*
X172787884Y-76525926D01*
X172775889Y-76550298D01*
X172757602Y-76619750D01*
X172756950Y-76623254D01*
X172741409Y-76728554D01*
X172734082Y-76890200D01*
X172524157Y-76890200D01*
X172524082Y-76888515D01*
X172530487Y-76731843D01*
X172543063Y-76636954D01*
X172559326Y-76564136D01*
X172578762Y-76497636D01*
X172611341Y-76422630D01*
X172649291Y-76372620D01*
X172672809Y-76353086D01*
X172699721Y-76337193D01*
X172735830Y-76322899D01*
X172777818Y-76312626D01*
X172852547Y-76303765D01*
X172944082Y-76301159D01*
X173038167Y-76303896D01*
G37*
G36*
X173818447Y-77464000D02*
G01*
X174082156Y-77464000D01*
X174421556Y-76319771D01*
X174211556Y-76319771D01*
X173954515Y-77212014D01*
X173946088Y-77212014D01*
X173689047Y-76319771D01*
X173479047Y-76319771D01*
X173818447Y-77464000D01*
G37*
G36*
X138745956Y-79494068D02*
G01*
X138829997Y-79491612D01*
X138902218Y-79483800D01*
X138950884Y-79473552D01*
X138993212Y-79459317D01*
X139025019Y-79443537D01*
X139052607Y-79424328D01*
X139074868Y-79403012D01*
X139093837Y-79378328D01*
X139123115Y-79316971D01*
X139142486Y-79231390D01*
X139149176Y-79161849D01*
X138939176Y-79161849D01*
X138929438Y-79206767D01*
X138915475Y-79242367D01*
X138901853Y-79263121D01*
X138884899Y-79279643D01*
X138842811Y-79300356D01*
X138777586Y-79310199D01*
X138745956Y-79310959D01*
X138699027Y-79308517D01*
X138658247Y-79300806D01*
X138629570Y-79290337D01*
X138604493Y-79275749D01*
X138584526Y-79258509D01*
X138567286Y-79237320D01*
X138539972Y-79180813D01*
X138520889Y-79095566D01*
X138511310Y-78962058D01*
X138510750Y-78910450D01*
X138513224Y-78806511D01*
X138521164Y-78720514D01*
X138531060Y-78667441D01*
X138544719Y-78622963D01*
X138559256Y-78591972D01*
X138576831Y-78566273D01*
X138595645Y-78547191D01*
X138617276Y-78531986D01*
X138669970Y-78512126D01*
X138745956Y-78504884D01*
X138793328Y-78507379D01*
X138831923Y-78515463D01*
X138855473Y-78525583D01*
X138875219Y-78539628D01*
X138903254Y-78577341D01*
X138923892Y-78638396D01*
X138929064Y-78664033D01*
X139139064Y-78664033D01*
X139133930Y-78593663D01*
X139123832Y-78532796D01*
X139111868Y-78490934D01*
X139096048Y-78454427D01*
X139078697Y-78426538D01*
X139057892Y-78402391D01*
X139007596Y-78365916D01*
X138939463Y-78340462D01*
X138842989Y-78325283D01*
X138745956Y-78321702D01*
X138670628Y-78324129D01*
X138603475Y-78331738D01*
X138553863Y-78342292D01*
X138509363Y-78357003D01*
X138473945Y-78373784D01*
X138442242Y-78394261D01*
X138415561Y-78417184D01*
X138391937Y-78443746D01*
X138353206Y-78508768D01*
X138323931Y-78595863D01*
X138304203Y-78715692D01*
X138295796Y-78886016D01*
X138295694Y-78910450D01*
X138298134Y-79021048D01*
X138305833Y-79117963D01*
X138316194Y-79186291D01*
X138330599Y-79246653D01*
X138346508Y-79292631D01*
X138365839Y-79333191D01*
X138386543Y-79365570D01*
X138410375Y-79393847D01*
X138465489Y-79437344D01*
X138535144Y-79468089D01*
X138626420Y-79487373D01*
X138745956Y-79494068D01*
G37*
G36*
X139368335Y-79480000D02*
G01*
X140110882Y-79480000D01*
X140110882Y-79295205D01*
X139583318Y-79295205D01*
X139583318Y-78978227D01*
X140010059Y-78978227D01*
X140010059Y-78793433D01*
X139583318Y-78793433D01*
X139583318Y-78520638D01*
X140077250Y-78520638D01*
X140077250Y-78335771D01*
X139368335Y-78335771D01*
X139368335Y-79480000D01*
G37*
G36*
X140801769Y-78337762D02*
G01*
X140904499Y-78357289D01*
X140977139Y-78386080D01*
X141029721Y-78424456D01*
X141050743Y-78448549D01*
X141067974Y-78475769D01*
X141082917Y-78509797D01*
X141093721Y-78547980D01*
X141101665Y-78599962D01*
X141104462Y-78658538D01*
X141098061Y-78758847D01*
X141080472Y-78817828D01*
X141050978Y-78859626D01*
X141028786Y-78877202D01*
X141002004Y-78891386D01*
X140959501Y-78905492D01*
X140907944Y-78915359D01*
X140907944Y-78930453D01*
X140949437Y-78940226D01*
X140994449Y-78964014D01*
X141014279Y-78983373D01*
X141031426Y-79007951D01*
X141054037Y-79057222D01*
X141074274Y-79122428D01*
X141169968Y-79480000D01*
X140939818Y-79480000D01*
X140860903Y-79137595D01*
X140840500Y-79079626D01*
X140811732Y-79045178D01*
X140789769Y-79031675D01*
X140762839Y-79021882D01*
X140714351Y-79013579D01*
X140652588Y-79011053D01*
X140545024Y-79011053D01*
X140545024Y-79480000D01*
X140331653Y-79480000D01*
X140331653Y-78517561D01*
X140545024Y-78517561D01*
X140545024Y-78824647D01*
X140761765Y-78824647D01*
X140774578Y-78824413D01*
X140826111Y-78815922D01*
X140859250Y-78795440D01*
X140872443Y-78777664D01*
X140882050Y-78754937D01*
X140890264Y-78712814D01*
X140892777Y-78658538D01*
X140887215Y-78599356D01*
X140870672Y-78562146D01*
X140856373Y-78547765D01*
X140837779Y-78536792D01*
X140803341Y-78526355D01*
X140758394Y-78520931D01*
X140632832Y-78515509D01*
X140545024Y-78517561D01*
X140331653Y-78517561D01*
X140331653Y-78335771D01*
X140531615Y-78331081D01*
X140652368Y-78329353D01*
X140801769Y-78337762D01*
G37*
G36*
X141295045Y-79480000D02*
G01*
X141501674Y-79480000D01*
X141501674Y-78822962D01*
X141478154Y-78584312D01*
X141483210Y-78584312D01*
X141893171Y-79480000D01*
X142155195Y-79480000D01*
X142155195Y-78335771D01*
X141948565Y-78335771D01*
X141948565Y-78994347D01*
X141972086Y-79233070D01*
X141967030Y-79233070D01*
X141557142Y-78335771D01*
X141295045Y-78335771D01*
X141295045Y-79480000D01*
G37*
G36*
X142413042Y-79072016D02*
G01*
X143051395Y-79072016D01*
X143051395Y-78887222D01*
X142413042Y-78887222D01*
X142413042Y-79072016D01*
G37*
G36*
X143854850Y-78328131D02*
G01*
X143945091Y-78347176D01*
X144013993Y-78377752D01*
X144042854Y-78397741D01*
X144068607Y-78421231D01*
X144092276Y-78449615D01*
X144112845Y-78482168D01*
X144132090Y-78523086D01*
X144147934Y-78569543D01*
X144162310Y-78630747D01*
X144172652Y-78700143D01*
X144180360Y-78799045D01*
X144182801Y-78912135D01*
X144175089Y-79098074D01*
X144155978Y-79219135D01*
X144127295Y-79306792D01*
X144089205Y-79372020D01*
X144065954Y-79398603D01*
X144039661Y-79421538D01*
X144008414Y-79442003D01*
X143973474Y-79458773D01*
X143929530Y-79473476D01*
X143880499Y-79484024D01*
X143813972Y-79491640D01*
X143739281Y-79494068D01*
X143625566Y-79487951D01*
X143534378Y-79469221D01*
X143464958Y-79439014D01*
X143410091Y-79396054D01*
X143386367Y-79368039D01*
X143365752Y-79335903D01*
X143346490Y-79295551D01*
X143330633Y-79249736D01*
X143316254Y-79189409D01*
X143305909Y-79121011D01*
X143298201Y-79023558D01*
X143295760Y-78912135D01*
X143507445Y-78912135D01*
X143507860Y-78956681D01*
X143517008Y-79092280D01*
X143535741Y-79178515D01*
X143562677Y-79235436D01*
X143579674Y-79256704D01*
X143599372Y-79273994D01*
X143624107Y-79288608D01*
X143652396Y-79299088D01*
X143692785Y-79306828D01*
X143739281Y-79309274D01*
X143809886Y-79303005D01*
X143862938Y-79284091D01*
X143884582Y-79269446D01*
X143903396Y-79250969D01*
X143920933Y-79226029D01*
X143935435Y-79195870D01*
X143949080Y-79152403D01*
X143958966Y-79100424D01*
X143966950Y-79015315D01*
X143969431Y-78912135D01*
X143968948Y-78862528D01*
X143959669Y-78724874D01*
X143940957Y-78637769D01*
X143914172Y-78580507D01*
X143897317Y-78559184D01*
X143877786Y-78541854D01*
X143853303Y-78527237D01*
X143825299Y-78516755D01*
X143785321Y-78509015D01*
X143739281Y-78506570D01*
X143665934Y-78513521D01*
X143613605Y-78533188D01*
X143592084Y-78548339D01*
X143573352Y-78567396D01*
X143555830Y-78593125D01*
X143541327Y-78624197D01*
X143527698Y-78668823D01*
X143517817Y-78722124D01*
X143509914Y-78808152D01*
X143507445Y-78912135D01*
X143295760Y-78912135D01*
X143295824Y-78892549D01*
X143303893Y-78719082D01*
X143323300Y-78597523D01*
X143352211Y-78509490D01*
X143390465Y-78444005D01*
X143413765Y-78417337D01*
X143440087Y-78394332D01*
X143471319Y-78373823D01*
X143506214Y-78357020D01*
X143550032Y-78342302D01*
X143598884Y-78331744D01*
X143665052Y-78324130D01*
X143739281Y-78321702D01*
X143854850Y-78328131D01*
G37*
G36*
X144338066Y-79480000D02*
G01*
X144553122Y-79480000D01*
X144553122Y-78980498D01*
X144939563Y-78980498D01*
X144939563Y-79480000D01*
X145154546Y-79480000D01*
X145154546Y-78335771D01*
X144939563Y-78335771D01*
X144939563Y-78790648D01*
X144553122Y-78790648D01*
X144553122Y-78335771D01*
X144338066Y-78335771D01*
X144338066Y-79480000D01*
G37*
G36*
X145387187Y-79480000D02*
G01*
X146180073Y-79480000D01*
X146180073Y-79291908D01*
X145602170Y-79291908D01*
X145602170Y-78335771D01*
X145387187Y-78335771D01*
X145387187Y-79480000D01*
G37*
G36*
X146441290Y-79072016D02*
G01*
X147079644Y-79072016D01*
X147079644Y-78887222D01*
X146441290Y-78887222D01*
X146441290Y-79072016D01*
G37*
G36*
X147411350Y-79480000D02*
G01*
X147633147Y-79480000D01*
X147764159Y-78483635D01*
X147770900Y-78483635D01*
X147900226Y-79480000D01*
X148123709Y-79480000D01*
X148259776Y-78335771D01*
X148074982Y-78335771D01*
X148007718Y-79236441D01*
X148006106Y-79236441D01*
X147992623Y-79027613D01*
X147888503Y-78335771D01*
X147646556Y-78335771D01*
X147539064Y-79027613D01*
X147527267Y-79236441D01*
X147525582Y-79236441D01*
X147460076Y-78335771D01*
X147275282Y-78335771D01*
X147411350Y-79480000D01*
G37*
G36*
X149648956Y-79480000D02*
G01*
X149912665Y-79480000D01*
X150252065Y-78335771D01*
X150042065Y-78335771D01*
X149785024Y-79228014D01*
X149776598Y-79228014D01*
X149519556Y-78335771D01*
X149309556Y-78335771D01*
X149648956Y-79480000D01*
G37*
G36*
X150397292Y-79202955D02*
G01*
X150397292Y-79480000D01*
X151183510Y-79480000D01*
X151183510Y-79291908D01*
X150613960Y-79291908D01*
X150613960Y-79276741D01*
X150775409Y-79161090D01*
X150897750Y-79065157D01*
X151043122Y-78932048D01*
X151047442Y-78927742D01*
X151091303Y-78880340D01*
X151123865Y-78836038D01*
X151141684Y-78803092D01*
X151154470Y-78769028D01*
X151167072Y-78694870D01*
X151168342Y-78654214D01*
X151165895Y-78586691D01*
X151158145Y-78528195D01*
X151147810Y-78487840D01*
X151133438Y-78452584D01*
X151117207Y-78425566D01*
X151097402Y-78402118D01*
X151048512Y-78366413D01*
X150980933Y-78341147D01*
X150883726Y-78325718D01*
X150776919Y-78321702D01*
X150692396Y-78324153D01*
X150619733Y-78331927D01*
X150570533Y-78342161D01*
X150527774Y-78356367D01*
X150495677Y-78372103D01*
X150467878Y-78391241D01*
X150445536Y-78412415D01*
X150426549Y-78436906D01*
X150397494Y-78497496D01*
X150378659Y-78581536D01*
X150372086Y-78657585D01*
X150587069Y-78657585D01*
X150592726Y-78612923D01*
X150603359Y-78577086D01*
X150614960Y-78555839D01*
X150630177Y-78538673D01*
X150669181Y-78516616D01*
X150730463Y-78504961D01*
X150778604Y-78503199D01*
X150835730Y-78505711D01*
X150880264Y-78513913D01*
X150904557Y-78523547D01*
X150923749Y-78536782D01*
X150946431Y-78569851D01*
X150957277Y-78620534D01*
X150958415Y-78650844D01*
X150955861Y-78692202D01*
X150947359Y-78726435D01*
X150920090Y-78772565D01*
X150902948Y-78791821D01*
X150836075Y-78854893D01*
X150747316Y-78930634D01*
X150397292Y-79202955D01*
G37*
G36*
X138695430Y-80349236D02*
G01*
X138836071Y-80362517D01*
X138933630Y-80385676D01*
X139003396Y-80417658D01*
X139054522Y-80459507D01*
X139075162Y-80485775D01*
X139092047Y-80515338D01*
X139106735Y-80552472D01*
X139117272Y-80594099D01*
X139124910Y-80651111D01*
X139127341Y-80715424D01*
X139127255Y-80729029D01*
X139118883Y-80833916D01*
X139098572Y-80908982D01*
X139066700Y-80965384D01*
X139045385Y-80988987D01*
X139020343Y-81009460D01*
X138988591Y-81028380D01*
X138951948Y-81043958D01*
X138902708Y-81058163D01*
X138846101Y-81068397D01*
X138762423Y-81076185D01*
X138665282Y-81078637D01*
X138542697Y-81078637D01*
X138542697Y-81496000D01*
X138327641Y-81496000D01*
X138327641Y-80892231D01*
X138542697Y-80892231D01*
X138648503Y-80892231D01*
X138689354Y-80891595D01*
X138783520Y-80882104D01*
X138841491Y-80863301D01*
X138879137Y-80834856D01*
X138893367Y-80814489D01*
X138903606Y-80790390D01*
X138911502Y-80753131D01*
X138913970Y-80708683D01*
X138913819Y-80697891D01*
X138905290Y-80639194D01*
X138884118Y-80598174D01*
X138867039Y-80581144D01*
X138845452Y-80567047D01*
X138813216Y-80553762D01*
X138773492Y-80544095D01*
X138704494Y-80536050D01*
X138618314Y-80533561D01*
X138542697Y-80533561D01*
X138542697Y-80892231D01*
X138327641Y-80892231D01*
X138327641Y-80352137D01*
X138493885Y-80348769D01*
X138589738Y-80347081D01*
X138695430Y-80349236D01*
G37*
G36*
X139753018Y-81510068D02*
G01*
X139837059Y-81507612D01*
X139909280Y-81499800D01*
X139957946Y-81489552D01*
X140000274Y-81475317D01*
X140032081Y-81459537D01*
X140059669Y-81440328D01*
X140081931Y-81419012D01*
X140100899Y-81394328D01*
X140130177Y-81332971D01*
X140149548Y-81247390D01*
X140156238Y-81177849D01*
X139946238Y-81177849D01*
X139936500Y-81222767D01*
X139922537Y-81258367D01*
X139908915Y-81279121D01*
X139891961Y-81295643D01*
X139849873Y-81316356D01*
X139784648Y-81326199D01*
X139753018Y-81326959D01*
X139706089Y-81324517D01*
X139665309Y-81316806D01*
X139636632Y-81306337D01*
X139611555Y-81291749D01*
X139591588Y-81274509D01*
X139574348Y-81253320D01*
X139547035Y-81196813D01*
X139527951Y-81111566D01*
X139518372Y-80978058D01*
X139517812Y-80926450D01*
X139520286Y-80822511D01*
X139528226Y-80736514D01*
X139538122Y-80683441D01*
X139551781Y-80638963D01*
X139566318Y-80607972D01*
X139583893Y-80582273D01*
X139602707Y-80563191D01*
X139624338Y-80547986D01*
X139677032Y-80528126D01*
X139753018Y-80520884D01*
X139800390Y-80523379D01*
X139838985Y-80531463D01*
X139862535Y-80541583D01*
X139882282Y-80555628D01*
X139910317Y-80593341D01*
X139930954Y-80654396D01*
X139936127Y-80680033D01*
X140146127Y-80680033D01*
X140140992Y-80609663D01*
X140130894Y-80548796D01*
X140118930Y-80506934D01*
X140103110Y-80470427D01*
X140085759Y-80442538D01*
X140064955Y-80418391D01*
X140014658Y-80381916D01*
X139946525Y-80356462D01*
X139850051Y-80341283D01*
X139753018Y-80337702D01*
X139677691Y-80340129D01*
X139610537Y-80347738D01*
X139560925Y-80358292D01*
X139516426Y-80373003D01*
X139481007Y-80389784D01*
X139449304Y-80410261D01*
X139422623Y-80433184D01*
X139398999Y-80459746D01*
X139360268Y-80524768D01*
X139330993Y-80611863D01*
X139311265Y-80731692D01*
X139302858Y-80902016D01*
X139302756Y-80926450D01*
X139305196Y-81037048D01*
X139312895Y-81133963D01*
X139323256Y-81202291D01*
X139337661Y-81262653D01*
X139353571Y-81308631D01*
X139372901Y-81349191D01*
X139393606Y-81381570D01*
X139417437Y-81409847D01*
X139472551Y-81453344D01*
X139542206Y-81484089D01*
X139633482Y-81503373D01*
X139753018Y-81510068D01*
G37*
G36*
X140622101Y-80347369D02*
G01*
X140783705Y-80356386D01*
X140891730Y-80375714D01*
X140966426Y-80403629D01*
X141019456Y-80440403D01*
X141040361Y-80463321D01*
X141057434Y-80489247D01*
X141072128Y-80521636D01*
X141082668Y-80558061D01*
X141090307Y-80608102D01*
X141092739Y-80664719D01*
X141090570Y-80721929D01*
X141077894Y-80790235D01*
X141054363Y-80836227D01*
X141036724Y-80854903D01*
X141015089Y-80870263D01*
X140981931Y-80885406D01*
X140941503Y-80896701D01*
X140941503Y-80906812D01*
X141020383Y-80927811D01*
X141071057Y-80956457D01*
X141090639Y-80975171D01*
X141106629Y-80997146D01*
X141120758Y-81026434D01*
X141130930Y-81060698D01*
X141138976Y-81114973D01*
X141141465Y-81179827D01*
X141134178Y-81277319D01*
X141114403Y-81346554D01*
X141082142Y-81399554D01*
X141059949Y-81422185D01*
X141033662Y-81441871D01*
X140999620Y-81460356D01*
X140960037Y-81475607D01*
X140905951Y-81489669D01*
X140843316Y-81499817D01*
X140749208Y-81507614D01*
X140639106Y-81510068D01*
X140611627Y-81509990D01*
X140474547Y-81506049D01*
X140309818Y-81493288D01*
X140309818Y-81321976D01*
X140521503Y-81321976D01*
X140667683Y-81325274D01*
X140789758Y-81318012D01*
X140852371Y-81301510D01*
X140891390Y-81276239D01*
X140905723Y-81258334D01*
X140916023Y-81237065D01*
X140923939Y-81204135D01*
X140926409Y-81164733D01*
X140923099Y-81114753D01*
X140908567Y-81067329D01*
X140896582Y-81049404D01*
X140881032Y-81034676D01*
X140858180Y-81021311D01*
X140829745Y-81011599D01*
X140778908Y-81003405D01*
X140714724Y-81000895D01*
X140521503Y-81000895D01*
X140521503Y-81321976D01*
X140309818Y-81321976D01*
X140309818Y-80530263D01*
X140521503Y-80530263D01*
X140521503Y-80816027D01*
X140756709Y-80816027D01*
X140811633Y-80809178D01*
X140847329Y-80792198D01*
X140860614Y-80777952D01*
X140870277Y-80759582D01*
X140878534Y-80725053D01*
X140881053Y-80679886D01*
X140873842Y-80618226D01*
X140854625Y-80582169D01*
X140837596Y-80567201D01*
X140815476Y-80555422D01*
X140772690Y-80543002D01*
X140716409Y-80535246D01*
X140627776Y-80530254D01*
X140521503Y-80530263D01*
X140309818Y-80530263D01*
X140309818Y-80351771D01*
X140580341Y-80347081D01*
X140622101Y-80347369D01*
G37*
G36*
X142816032Y-80598232D02*
G01*
X142915407Y-80611970D01*
X142983732Y-80635676D01*
X143032734Y-80669690D01*
X143052485Y-80692129D01*
X143068675Y-80718101D01*
X143082997Y-80752080D01*
X143093304Y-80791106D01*
X143101046Y-80847916D01*
X143103492Y-80913700D01*
X143103492Y-81496000D01*
X142911957Y-81496000D01*
X142911957Y-81390853D01*
X142898548Y-81390853D01*
X142866503Y-81432263D01*
X142819204Y-81473835D01*
X142791573Y-81488605D01*
X142760768Y-81499146D01*
X142711994Y-81507530D01*
X142653230Y-81510068D01*
X142535241Y-81502948D01*
X142462773Y-81485093D01*
X142412884Y-81457300D01*
X142393260Y-81438558D01*
X142377196Y-81416455D01*
X142363004Y-81387083D01*
X142352783Y-81352877D01*
X142344941Y-81301155D01*
X142342480Y-81240351D01*
X142343229Y-81225330D01*
X142547424Y-81225330D01*
X142551443Y-81268703D01*
X142566678Y-81302138D01*
X142580829Y-81315028D01*
X142599645Y-81324453D01*
X142637591Y-81332846D01*
X142688548Y-81335385D01*
X142711275Y-81334995D01*
X142783506Y-81325753D01*
X142831614Y-81305400D01*
X142850555Y-81290174D01*
X142866270Y-81271273D01*
X142880702Y-81244540D01*
X142891490Y-81212172D01*
X142900973Y-81158156D01*
X142905216Y-81091900D01*
X142738960Y-81093585D01*
X142689756Y-81095513D01*
X142621882Y-81106760D01*
X142582268Y-81126633D01*
X142568136Y-81141296D01*
X142557963Y-81159247D01*
X142549914Y-81188824D01*
X142547424Y-81225330D01*
X142343229Y-81225330D01*
X142346148Y-81166830D01*
X142362000Y-81091228D01*
X142389569Y-81035434D01*
X142408587Y-81012295D01*
X142431334Y-80992216D01*
X142460587Y-80973653D01*
X142494760Y-80958351D01*
X142541466Y-80944300D01*
X142595718Y-80934162D01*
X142677834Y-80926342D01*
X142774204Y-80923885D01*
X142906901Y-80923885D01*
X142906901Y-80913700D01*
X142905825Y-80884475D01*
X142895052Y-80833665D01*
X142872432Y-80800490D01*
X142853373Y-80787251D01*
X142829282Y-80777613D01*
X142785908Y-80769506D01*
X142730533Y-80767008D01*
X142712710Y-80767219D01*
X142644838Y-80774764D01*
X142606867Y-80791495D01*
X142593604Y-80804579D01*
X142584267Y-80821027D01*
X142577170Y-80849858D01*
X142576001Y-80886369D01*
X142370983Y-80886369D01*
X142370494Y-80846831D01*
X142378761Y-80764735D01*
X142399142Y-80706798D01*
X142414077Y-80683555D01*
X142432532Y-80663430D01*
X142456527Y-80645085D01*
X142485050Y-80629964D01*
X142524715Y-80616038D01*
X142571355Y-80605980D01*
X142644114Y-80598090D01*
X142730533Y-80595623D01*
X142816032Y-80598232D01*
G37*
G36*
X143742651Y-81510068D02*
G01*
X143838284Y-81507599D01*
X143918447Y-81499700D01*
X143969370Y-81489687D01*
X144012560Y-81475838D01*
X144043372Y-81460909D01*
X144069274Y-81442819D01*
X144089007Y-81423224D01*
X144105043Y-81400642D01*
X144127062Y-81345261D01*
X144137026Y-81267892D01*
X144137445Y-81244600D01*
X144134991Y-81197706D01*
X144127190Y-81156247D01*
X144116446Y-81126157D01*
X144101376Y-81099018D01*
X144060381Y-81055204D01*
X143998091Y-81017553D01*
X143901255Y-80982237D01*
X143814898Y-80960375D01*
X143668767Y-80924258D01*
X143587654Y-80894681D01*
X143568874Y-80881993D01*
X143558800Y-80868725D01*
X143556172Y-80856108D01*
X143558657Y-80831138D01*
X143566678Y-80811020D01*
X143577275Y-80798471D01*
X143592123Y-80788412D01*
X143639420Y-80774450D01*
X143737595Y-80768693D01*
X143803377Y-80771266D01*
X143851637Y-80779898D01*
X143874363Y-80789214D01*
X143891492Y-80801918D01*
X143909772Y-80833216D01*
X143915648Y-80867905D01*
X144117295Y-80867905D01*
X144114393Y-80811546D01*
X144106230Y-80762872D01*
X144095586Y-80729418D01*
X144080912Y-80700293D01*
X144064108Y-80677722D01*
X144043596Y-80658275D01*
X143991059Y-80628311D01*
X143914899Y-80607577D01*
X143799695Y-80596651D01*
X143739281Y-80595623D01*
X143644587Y-80598093D01*
X143565397Y-80606010D01*
X143515398Y-80616008D01*
X143473082Y-80629835D01*
X143442993Y-80644726D01*
X143417767Y-80662770D01*
X143398591Y-80682349D01*
X143383086Y-80704919D01*
X143362003Y-80760537D01*
X143353033Y-80838772D01*
X143352840Y-80854496D01*
X143355289Y-80897894D01*
X143363052Y-80936110D01*
X143373775Y-80963839D01*
X143388804Y-80988723D01*
X143430105Y-81028910D01*
X143493983Y-81063370D01*
X143595515Y-81095520D01*
X143695610Y-81116812D01*
X143792400Y-81137405D01*
X143860384Y-81159020D01*
X143889320Y-81173658D01*
X143909921Y-81190054D01*
X143921224Y-81205196D01*
X143927991Y-81222164D01*
X143930816Y-81246286D01*
X143928335Y-81272562D01*
X143920349Y-81293681D01*
X143909883Y-81306750D01*
X143895261Y-81317195D01*
X143849659Y-81331435D01*
X143761721Y-81337162D01*
X143742651Y-81337071D01*
X143678573Y-81333826D01*
X143629154Y-81325045D01*
X143602833Y-81315226D01*
X143582273Y-81301947D01*
X143568788Y-81287455D01*
X143558906Y-81269919D01*
X143548496Y-81222548D01*
X143547745Y-81205912D01*
X143341116Y-81205912D01*
X143341833Y-81266098D01*
X143348041Y-81318453D01*
X143357349Y-81355022D01*
X143370825Y-81387081D01*
X143386535Y-81411970D01*
X143405968Y-81433635D01*
X143455398Y-81467235D01*
X143525850Y-81491426D01*
X143629782Y-81506306D01*
X143742651Y-81510068D01*
G37*
G36*
X144749713Y-81510068D02*
G01*
X144845346Y-81507599D01*
X144925509Y-81499700D01*
X144976433Y-81489687D01*
X145019623Y-81475838D01*
X145050434Y-81460909D01*
X145076337Y-81442819D01*
X145096069Y-81423224D01*
X145112105Y-81400642D01*
X145134124Y-81345261D01*
X145144088Y-81267892D01*
X145144508Y-81244600D01*
X145142053Y-81197706D01*
X145134253Y-81156247D01*
X145123508Y-81126157D01*
X145108438Y-81099018D01*
X145067443Y-81055204D01*
X145005153Y-81017553D01*
X144908317Y-80982237D01*
X144821960Y-80960375D01*
X144675829Y-80924258D01*
X144594716Y-80894681D01*
X144575936Y-80881993D01*
X144565862Y-80868725D01*
X144563234Y-80856108D01*
X144565720Y-80831138D01*
X144573740Y-80811020D01*
X144584337Y-80798471D01*
X144599185Y-80788412D01*
X144646482Y-80774450D01*
X144744658Y-80768693D01*
X144810439Y-80771266D01*
X144858699Y-80779898D01*
X144881425Y-80789214D01*
X144898554Y-80801918D01*
X144916834Y-80833216D01*
X144922711Y-80867905D01*
X145124357Y-80867905D01*
X145121455Y-80811546D01*
X145113292Y-80762872D01*
X145102648Y-80729418D01*
X145087974Y-80700293D01*
X145071170Y-80677722D01*
X145050658Y-80658275D01*
X144998122Y-80628311D01*
X144921961Y-80607577D01*
X144806757Y-80596651D01*
X144746343Y-80595623D01*
X144651650Y-80598093D01*
X144572459Y-80606010D01*
X144522461Y-80616008D01*
X144480144Y-80629835D01*
X144450055Y-80644726D01*
X144424829Y-80662770D01*
X144405653Y-80682349D01*
X144390148Y-80704919D01*
X144369065Y-80760537D01*
X144360095Y-80838772D01*
X144359902Y-80854496D01*
X144362351Y-80897894D01*
X144370114Y-80936110D01*
X144380837Y-80963839D01*
X144395866Y-80988723D01*
X144437167Y-81028910D01*
X144501045Y-81063370D01*
X144602577Y-81095520D01*
X144702672Y-81116812D01*
X144799462Y-81137405D01*
X144867446Y-81159020D01*
X144896382Y-81173658D01*
X144916983Y-81190054D01*
X144928286Y-81205196D01*
X144935053Y-81222164D01*
X144937878Y-81246286D01*
X144935397Y-81272562D01*
X144927411Y-81293681D01*
X144916946Y-81306750D01*
X144902324Y-81317195D01*
X144856721Y-81331435D01*
X144768783Y-81337162D01*
X144749713Y-81337071D01*
X144685635Y-81333826D01*
X144636216Y-81325045D01*
X144609895Y-81315226D01*
X144589335Y-81301947D01*
X144575850Y-81287455D01*
X144565968Y-81269919D01*
X144555558Y-81222548D01*
X144554808Y-81205912D01*
X144348178Y-81205912D01*
X144348895Y-81266098D01*
X144355104Y-81318453D01*
X144364411Y-81355022D01*
X144377887Y-81387081D01*
X144393597Y-81411970D01*
X144413031Y-81433635D01*
X144462460Y-81467235D01*
X144532912Y-81491426D01*
X144636844Y-81506306D01*
X144749713Y-81510068D01*
G37*
G36*
X145835434Y-80598730D02*
G01*
X145929175Y-80614110D01*
X145998820Y-80640891D01*
X146052559Y-80679762D01*
X146075361Y-80705247D01*
X146094967Y-80734646D01*
X146112997Y-80771690D01*
X146127512Y-80813908D01*
X146140221Y-80869868D01*
X146148704Y-80933520D01*
X146153814Y-81025122D01*
X146153255Y-81130221D01*
X145556814Y-81130221D01*
X145568150Y-81211673D01*
X145588319Y-81266295D01*
X145618618Y-81302303D01*
X145641010Y-81316296D01*
X145667780Y-81326382D01*
X145712351Y-81334562D01*
X145766814Y-81337071D01*
X145814916Y-81334494D01*
X145863948Y-81321286D01*
X145882980Y-81309493D01*
X145898901Y-81293756D01*
X145916796Y-81264975D01*
X145931458Y-81227015D01*
X146139773Y-81227015D01*
X146117535Y-81325703D01*
X146088073Y-81392105D01*
X146048923Y-81439948D01*
X146023526Y-81459390D01*
X145994334Y-81475332D01*
X145955915Y-81489549D01*
X145911707Y-81499787D01*
X145845709Y-81507610D01*
X145768499Y-81510068D01*
X145710771Y-81508799D01*
X145602794Y-81496560D01*
X145524760Y-81473107D01*
X145466020Y-81438620D01*
X145441562Y-81416261D01*
X145420374Y-81390355D01*
X145400980Y-81358183D01*
X145385031Y-81321464D01*
X145370670Y-81273217D01*
X145360336Y-81218323D01*
X145352626Y-81139748D01*
X145350184Y-81049621D01*
X145351190Y-80989555D01*
X145352933Y-80970633D01*
X145558499Y-80970633D01*
X145953293Y-80970633D01*
X145946822Y-80891831D01*
X145928894Y-80839315D01*
X145915565Y-80819579D01*
X145899085Y-80803481D01*
X145876563Y-80789379D01*
X145849698Y-80779223D01*
X145806655Y-80771182D01*
X145755090Y-80768693D01*
X145744869Y-80768783D01*
X145673393Y-80776655D01*
X145625380Y-80795866D01*
X145606802Y-80810126D01*
X145591335Y-80827935D01*
X145577910Y-80851779D01*
X145568054Y-80880512D01*
X145560866Y-80921582D01*
X145558499Y-80970633D01*
X145352933Y-80970633D01*
X145362618Y-80865464D01*
X145384750Y-80778298D01*
X145416798Y-80714698D01*
X145437088Y-80688996D01*
X145460536Y-80666819D01*
X145489022Y-80646960D01*
X145521406Y-80630670D01*
X145563331Y-80616187D01*
X145610822Y-80605782D01*
X145678177Y-80598065D01*
X145755090Y-80595623D01*
X145835434Y-80598730D01*
G37*
G36*
X146298482Y-81496000D02*
G01*
X146484961Y-81496000D01*
X146484961Y-80999356D01*
X146487524Y-80911449D01*
X146496086Y-80848519D01*
X146505048Y-80820474D01*
X146517172Y-80800100D01*
X146529613Y-80788623D01*
X146544538Y-80781291D01*
X146573988Y-80777120D01*
X146602090Y-80779605D01*
X146624703Y-80787625D01*
X146638578Y-80798020D01*
X146649716Y-80812524D01*
X146664856Y-80856716D01*
X146671460Y-80939884D01*
X146671441Y-80967336D01*
X146668070Y-81496000D01*
X146852864Y-81496000D01*
X146852864Y-80990930D01*
X146855414Y-80909295D01*
X146863883Y-80849880D01*
X146872950Y-80822309D01*
X146885252Y-80801965D01*
X146898062Y-80790115D01*
X146913471Y-80782300D01*
X146948632Y-80777120D01*
X146972529Y-80779605D01*
X146991925Y-80787625D01*
X147014169Y-80813423D01*
X147028228Y-80862040D01*
X147034288Y-80967336D01*
X147034288Y-81496000D01*
X147220767Y-81496000D01*
X147220767Y-80937074D01*
X147218282Y-80844008D01*
X147210266Y-80768160D01*
X147200463Y-80722947D01*
X147186955Y-80685579D01*
X147172586Y-80659971D01*
X147155211Y-80639145D01*
X147114265Y-80612048D01*
X147058278Y-80598001D01*
X147014138Y-80595623D01*
X146970001Y-80598128D01*
X146933944Y-80606284D01*
X146911592Y-80616587D01*
X146892458Y-80630944D01*
X146862767Y-80671348D01*
X146841067Y-80725023D01*
X146839382Y-80725023D01*
X146824810Y-80683475D01*
X146806877Y-80651121D01*
X146790763Y-80632697D01*
X146771545Y-80618409D01*
X146724088Y-80601317D01*
X146652903Y-80595623D01*
X146618888Y-80598796D01*
X146589737Y-80607576D01*
X146569347Y-80619140D01*
X146550588Y-80635347D01*
X146514027Y-80686289D01*
X146493314Y-80726488D01*
X146479905Y-80726488D01*
X146479905Y-80619070D01*
X146298482Y-80619070D01*
X146298482Y-81496000D01*
G37*
G36*
X147584420Y-80687873D02*
G01*
X147597829Y-80687873D01*
X147622911Y-80656228D01*
X147669991Y-80614776D01*
X147697506Y-80600055D01*
X147728220Y-80589541D01*
X147776528Y-80581225D01*
X147834720Y-80578697D01*
X147853402Y-80578860D01*
X147956900Y-80587798D01*
X148031403Y-80608663D01*
X148087645Y-80641179D01*
X148111252Y-80662889D01*
X148131738Y-80688357D01*
X148150685Y-80720613D01*
X148166289Y-80757794D01*
X148180499Y-80807606D01*
X148190738Y-80864801D01*
X148198491Y-80948690D01*
X148200938Y-81045884D01*
X148200379Y-81094780D01*
X148190210Y-81231572D01*
X148169430Y-81325866D01*
X148139260Y-81393261D01*
X148098588Y-81442892D01*
X148072515Y-81463101D01*
X148042919Y-81479658D01*
X148005111Y-81494204D01*
X147962391Y-81504652D01*
X147902668Y-81512322D01*
X147834720Y-81514757D01*
X147805466Y-81514071D01*
X147734184Y-81503290D01*
X147703406Y-81492009D01*
X147674588Y-81476163D01*
X147636844Y-81446717D01*
X147597829Y-81406900D01*
X147584420Y-81406900D01*
X147584420Y-81496000D01*
X147381088Y-81496000D01*
X147381709Y-81045884D01*
X147581050Y-81045884D01*
X147582978Y-81118077D01*
X147594981Y-81208620D01*
X147616002Y-81265763D01*
X147646807Y-81303494D01*
X147668512Y-81317808D01*
X147693949Y-81328102D01*
X147732297Y-81335931D01*
X147777568Y-81338390D01*
X147820729Y-81336632D01*
X147883498Y-81323943D01*
X147927458Y-81299461D01*
X147945426Y-81281166D01*
X147960230Y-81258748D01*
X147973891Y-81226691D01*
X147983783Y-81188111D01*
X147991821Y-81124047D01*
X147994309Y-81045884D01*
X147991465Y-80963597D01*
X147978144Y-80880330D01*
X147955561Y-80826383D01*
X147940364Y-80806201D01*
X147922180Y-80789737D01*
X147898316Y-80775553D01*
X147870307Y-80765335D01*
X147827830Y-80757521D01*
X147777568Y-80755064D01*
X147750640Y-80755862D01*
X147689675Y-80766704D01*
X147646933Y-80789761D01*
X147629345Y-80807533D01*
X147614821Y-80829585D01*
X147601321Y-80861615D01*
X147591523Y-80900514D01*
X147583531Y-80965724D01*
X147581050Y-81045884D01*
X147381709Y-81045884D01*
X147382773Y-80274614D01*
X147586106Y-80274614D01*
X147584420Y-80687873D01*
G37*
G36*
X148383168Y-81496000D02*
G01*
X149179424Y-81496000D01*
X149179424Y-81321317D01*
X148892194Y-81321317D01*
X148892194Y-80272050D01*
X148399947Y-80272050D01*
X148399947Y-80446806D01*
X148690547Y-80446806D01*
X148690547Y-81321317D01*
X148383168Y-81321317D01*
X148383168Y-81496000D01*
G37*
G36*
X149863683Y-80598730D02*
G01*
X149957423Y-80614110D01*
X150027068Y-80640891D01*
X150080808Y-80679762D01*
X150103609Y-80705247D01*
X150123216Y-80734646D01*
X150141245Y-80771690D01*
X150155760Y-80813908D01*
X150168470Y-80869868D01*
X150176952Y-80933520D01*
X150182062Y-81025122D01*
X150181503Y-81130221D01*
X149585062Y-81130221D01*
X149596398Y-81211673D01*
X149616568Y-81266295D01*
X149646867Y-81302303D01*
X149669258Y-81316296D01*
X149696029Y-81326382D01*
X149740600Y-81334562D01*
X149795062Y-81337071D01*
X149843164Y-81334494D01*
X149892196Y-81321286D01*
X149911228Y-81309493D01*
X149927150Y-81293756D01*
X149945045Y-81264975D01*
X149959706Y-81227015D01*
X150168021Y-81227015D01*
X150145784Y-81325703D01*
X150116321Y-81392105D01*
X150077171Y-81439948D01*
X150051775Y-81459390D01*
X150022582Y-81475332D01*
X149984163Y-81489549D01*
X149939955Y-81499787D01*
X149873957Y-81507610D01*
X149796748Y-81510068D01*
X149739020Y-81508799D01*
X149631043Y-81496560D01*
X149553009Y-81473107D01*
X149494268Y-81438620D01*
X149469810Y-81416261D01*
X149448622Y-81390355D01*
X149429228Y-81358183D01*
X149413280Y-81321464D01*
X149398918Y-81273217D01*
X149388585Y-81218323D01*
X149380874Y-81139748D01*
X149378433Y-81049621D01*
X149379439Y-80989555D01*
X149381182Y-80970633D01*
X149586748Y-80970633D01*
X149981542Y-80970633D01*
X149975070Y-80891831D01*
X149957143Y-80839315D01*
X149943813Y-80819579D01*
X149927333Y-80803481D01*
X149904812Y-80789379D01*
X149877946Y-80779223D01*
X149834904Y-80771182D01*
X149783339Y-80768693D01*
X149773117Y-80768783D01*
X149701642Y-80776655D01*
X149653628Y-80795866D01*
X149635051Y-80810126D01*
X149619583Y-80827935D01*
X149606158Y-80851779D01*
X149596303Y-80880512D01*
X149589114Y-80921582D01*
X149586748Y-80970633D01*
X149381182Y-80970633D01*
X149390867Y-80865464D01*
X149412998Y-80778298D01*
X149445047Y-80714698D01*
X149465337Y-80688996D01*
X149488784Y-80666819D01*
X149517271Y-80646960D01*
X149549654Y-80630670D01*
X149591580Y-80616187D01*
X149639071Y-80605782D01*
X149706425Y-80598065D01*
X149783339Y-80595623D01*
X149863683Y-80598730D01*
G37*
G36*
X151176769Y-81496000D02*
G01*
X150973510Y-81496000D01*
X150973510Y-81407266D01*
X150960027Y-81407266D01*
X150935897Y-81441787D01*
X150894429Y-81479780D01*
X150867840Y-81493844D01*
X150837018Y-81503970D01*
X150785522Y-81512237D01*
X150721524Y-81514757D01*
X150705686Y-81514641D01*
X150601404Y-81506025D01*
X150526555Y-81485476D01*
X150470185Y-81453329D01*
X150446567Y-81431856D01*
X150426071Y-81406641D01*
X150407134Y-81374717D01*
X150391534Y-81337895D01*
X150377337Y-81288576D01*
X150367104Y-81231918D01*
X150359364Y-81148906D01*
X150356919Y-81052699D01*
X150563621Y-81052699D01*
X150566224Y-81130546D01*
X150579255Y-81213521D01*
X150601616Y-81267233D01*
X150616733Y-81287339D01*
X150634858Y-81303744D01*
X150658727Y-81317902D01*
X150686788Y-81328104D01*
X150729568Y-81335932D01*
X150780289Y-81338390D01*
X150806141Y-81337673D01*
X150867876Y-81327085D01*
X150910915Y-81304393D01*
X150928546Y-81286926D01*
X150943102Y-81265238D01*
X150956606Y-81233778D01*
X150966406Y-81195562D01*
X150974399Y-81131485D01*
X150976880Y-81052699D01*
X150975334Y-80989436D01*
X150963913Y-80899397D01*
X150943330Y-80842712D01*
X150912805Y-80805252D01*
X150891091Y-80790983D01*
X150865559Y-80780718D01*
X150826544Y-80772843D01*
X150780289Y-80770378D01*
X150739475Y-80771867D01*
X150675126Y-80783970D01*
X150630594Y-80807623D01*
X150612555Y-80825263D01*
X150597701Y-80846916D01*
X150584043Y-80877825D01*
X150574152Y-80915061D01*
X150566110Y-80977015D01*
X150563621Y-81052699D01*
X150356919Y-81052699D01*
X150357263Y-81014876D01*
X150366718Y-80878041D01*
X150386941Y-80783951D01*
X150416642Y-80716800D01*
X150456915Y-80667368D01*
X150482832Y-80647222D01*
X150512298Y-80630718D01*
X150550081Y-80616188D01*
X150592834Y-80605753D01*
X150652976Y-80598061D01*
X150721524Y-80595623D01*
X150822129Y-80601360D01*
X150882865Y-80617289D01*
X150905661Y-80629527D01*
X150924794Y-80645069D01*
X150944126Y-80668991D01*
X150960027Y-80698791D01*
X150973510Y-80698791D01*
X150973510Y-80270438D01*
X151176769Y-80270438D01*
X151176769Y-81496000D01*
G37*
G36*
X152693663Y-80509893D02*
G01*
X152950631Y-80509893D01*
X152950631Y-80273002D01*
X152693663Y-80273002D01*
X152693663Y-80509893D01*
G37*
G36*
X152450031Y-81496000D02*
G01*
X153224525Y-81496000D01*
X153224525Y-81323002D01*
X152943963Y-81323002D01*
X152943963Y-80619070D01*
X152466810Y-80619070D01*
X152466810Y-80792140D01*
X152742316Y-80792140D01*
X152742316Y-81323002D01*
X152450031Y-81323002D01*
X152450031Y-81496000D01*
G37*
G36*
X153420163Y-81496000D02*
G01*
X153625108Y-81496000D01*
X153625108Y-81039729D01*
X153627582Y-80969616D01*
X153635524Y-80912127D01*
X153645403Y-80877064D01*
X153659035Y-80848001D01*
X153673974Y-80827531D01*
X153692113Y-80810932D01*
X153737449Y-80788741D01*
X153803891Y-80777977D01*
X153835108Y-80777120D01*
X153884548Y-80779615D01*
X153923671Y-80787700D01*
X153945958Y-80797472D01*
X153963764Y-80810934D01*
X153985692Y-80845630D01*
X153996719Y-80900345D01*
X153998066Y-80937074D01*
X153998066Y-81496000D01*
X154203011Y-81496000D01*
X154203011Y-80940445D01*
X154200555Y-80864256D01*
X154192741Y-80799215D01*
X154182551Y-80755946D01*
X154168414Y-80718648D01*
X154152746Y-80690924D01*
X154133683Y-80667213D01*
X154087539Y-80632539D01*
X154024647Y-80609448D01*
X153934550Y-80597137D01*
X153878778Y-80595623D01*
X153825876Y-80598147D01*
X153781146Y-80606439D01*
X153751940Y-80617092D01*
X153725656Y-80632050D01*
X153681101Y-80674085D01*
X153638517Y-80738431D01*
X153625108Y-80738431D01*
X153625108Y-80619070D01*
X153420163Y-80619070D01*
X153420163Y-81496000D01*
G37*
G36*
X155866011Y-81510068D02*
G01*
X155950053Y-81507612D01*
X156022273Y-81499800D01*
X156070940Y-81489552D01*
X156113268Y-81475317D01*
X156145074Y-81459537D01*
X156172663Y-81440328D01*
X156194924Y-81419012D01*
X156213892Y-81394328D01*
X156243171Y-81332971D01*
X156262542Y-81247390D01*
X156269232Y-81177849D01*
X156059232Y-81177849D01*
X156049494Y-81222767D01*
X156035531Y-81258367D01*
X156021908Y-81279121D01*
X156004955Y-81295643D01*
X155962867Y-81316356D01*
X155897641Y-81326199D01*
X155866011Y-81326959D01*
X155819083Y-81324517D01*
X155778302Y-81316806D01*
X155749626Y-81306337D01*
X155724549Y-81291749D01*
X155704581Y-81274509D01*
X155687342Y-81253320D01*
X155660028Y-81196813D01*
X155640944Y-81111566D01*
X155631365Y-80978058D01*
X155630806Y-80926450D01*
X155633280Y-80822511D01*
X155641220Y-80736514D01*
X155651116Y-80683441D01*
X155664775Y-80638963D01*
X155679312Y-80607972D01*
X155696887Y-80582273D01*
X155715701Y-80563191D01*
X155737332Y-80547986D01*
X155790026Y-80528126D01*
X155866011Y-80520884D01*
X155913383Y-80523379D01*
X155951979Y-80531463D01*
X155975528Y-80541583D01*
X155995275Y-80555628D01*
X156023310Y-80593341D01*
X156043948Y-80654396D01*
X156049120Y-80680033D01*
X156259120Y-80680033D01*
X156253986Y-80609663D01*
X156243888Y-80548796D01*
X156231924Y-80506934D01*
X156216104Y-80470427D01*
X156198753Y-80442538D01*
X156177948Y-80418391D01*
X156127652Y-80381916D01*
X156059518Y-80356462D01*
X155963045Y-80341283D01*
X155866011Y-80337702D01*
X155790684Y-80340129D01*
X155723531Y-80347738D01*
X155673919Y-80358292D01*
X155629419Y-80373003D01*
X155594001Y-80389784D01*
X155562297Y-80410261D01*
X155535617Y-80433184D01*
X155511993Y-80459746D01*
X155473262Y-80524768D01*
X155443987Y-80611863D01*
X155424258Y-80731692D01*
X155415852Y-80902016D01*
X155415750Y-80926450D01*
X155418189Y-81037048D01*
X155425889Y-81133963D01*
X155436250Y-81202291D01*
X155450655Y-81262653D01*
X155466564Y-81308631D01*
X155485895Y-81349191D01*
X155506599Y-81381570D01*
X155530431Y-81409847D01*
X155585545Y-81453344D01*
X155655200Y-81484089D01*
X155746476Y-81503373D01*
X155866011Y-81510068D01*
G37*
G36*
X156441350Y-81496000D02*
G01*
X156646294Y-81496000D01*
X156646294Y-81038117D01*
X156648783Y-80965137D01*
X156656824Y-80905661D01*
X156666684Y-80870172D01*
X156680290Y-80840848D01*
X156695125Y-80820367D01*
X156713144Y-80803802D01*
X156758118Y-80781788D01*
X156824212Y-80771191D01*
X156854609Y-80770378D01*
X156904638Y-80772883D01*
X156944188Y-80781033D01*
X156966536Y-80790823D01*
X156984412Y-80804318D01*
X157006484Y-80839112D01*
X157017743Y-80894065D01*
X157019253Y-80933704D01*
X157019253Y-81496000D01*
X157224197Y-81496000D01*
X157224197Y-80937074D01*
X157221739Y-80861403D01*
X157213913Y-80796869D01*
X157203725Y-80754068D01*
X157189590Y-80717193D01*
X157173918Y-80689792D01*
X157154845Y-80666370D01*
X157108562Y-80632086D01*
X157045231Y-80609240D01*
X156954066Y-80597087D01*
X156898279Y-80595623D01*
X156845737Y-80598135D01*
X156800765Y-80606338D01*
X156770822Y-80617006D01*
X156743920Y-80631986D01*
X156699593Y-80673319D01*
X156659703Y-80735134D01*
X156646294Y-80735134D01*
X156646294Y-80271390D01*
X156441350Y-80271390D01*
X156441350Y-81496000D01*
G37*
G36*
X157728974Y-80509893D02*
G01*
X157985942Y-80509893D01*
X157985942Y-80273002D01*
X157728974Y-80273002D01*
X157728974Y-80509893D01*
G37*
G36*
X157485341Y-81496000D02*
G01*
X158259836Y-81496000D01*
X158259836Y-81323002D01*
X157979274Y-81323002D01*
X157979274Y-80619070D01*
X157502121Y-80619070D01*
X157502121Y-80792140D01*
X157777627Y-80792140D01*
X157777627Y-81323002D01*
X157485341Y-81323002D01*
X157485341Y-81496000D01*
G37*
G36*
X158455474Y-81496000D02*
G01*
X158660418Y-81496000D01*
X158660418Y-81039729D01*
X158662893Y-80969616D01*
X158670834Y-80912127D01*
X158680714Y-80877064D01*
X158694346Y-80848001D01*
X158709284Y-80827531D01*
X158727423Y-80810932D01*
X158772759Y-80788741D01*
X158839201Y-80777977D01*
X158870418Y-80777120D01*
X158919858Y-80779615D01*
X158958982Y-80787700D01*
X158981269Y-80797472D01*
X158999074Y-80810934D01*
X159021003Y-80845630D01*
X159032030Y-80900345D01*
X159033377Y-80937074D01*
X159033377Y-81496000D01*
X159238321Y-81496000D01*
X159238321Y-80940445D01*
X159235865Y-80864256D01*
X159228052Y-80799215D01*
X159217861Y-80755946D01*
X159203724Y-80718648D01*
X159188057Y-80690924D01*
X159168994Y-80667213D01*
X159122849Y-80632539D01*
X159059958Y-80609448D01*
X158969860Y-80597137D01*
X158914089Y-80595623D01*
X158861186Y-80598147D01*
X158816456Y-80606439D01*
X158787250Y-80617092D01*
X158760967Y-80632050D01*
X158716411Y-80674085D01*
X158673827Y-80738431D01*
X158660418Y-80738431D01*
X158660418Y-80619070D01*
X158455474Y-80619070D01*
X158455474Y-81496000D01*
G37*
G36*
X159936088Y-80598232D02*
G01*
X160035463Y-80611970D01*
X160103788Y-80635676D01*
X160152790Y-80669690D01*
X160172541Y-80692129D01*
X160188731Y-80718101D01*
X160203053Y-80752080D01*
X160213360Y-80791106D01*
X160221102Y-80847916D01*
X160223548Y-80913700D01*
X160223548Y-81496000D01*
X160032013Y-81496000D01*
X160032013Y-81390853D01*
X160018604Y-81390853D01*
X159986559Y-81432263D01*
X159939259Y-81473835D01*
X159911628Y-81488605D01*
X159880824Y-81499146D01*
X159832050Y-81507530D01*
X159773286Y-81510068D01*
X159655297Y-81502948D01*
X159582829Y-81485093D01*
X159532940Y-81457300D01*
X159513316Y-81438558D01*
X159497252Y-81416455D01*
X159483060Y-81387083D01*
X159472839Y-81352877D01*
X159464996Y-81301155D01*
X159462536Y-81240351D01*
X159463285Y-81225330D01*
X159667480Y-81225330D01*
X159671499Y-81268703D01*
X159686734Y-81302138D01*
X159700885Y-81315028D01*
X159719701Y-81324453D01*
X159757646Y-81332846D01*
X159808604Y-81335385D01*
X159831331Y-81334995D01*
X159903562Y-81325753D01*
X159951670Y-81305400D01*
X159970611Y-81290174D01*
X159986325Y-81271273D01*
X160000758Y-81244540D01*
X160011545Y-81212172D01*
X160021029Y-81158156D01*
X160025272Y-81091900D01*
X159859016Y-81093585D01*
X159809812Y-81095513D01*
X159741938Y-81106760D01*
X159702324Y-81126633D01*
X159688192Y-81141296D01*
X159678019Y-81159247D01*
X159669970Y-81188824D01*
X159667480Y-81225330D01*
X159463285Y-81225330D01*
X159466204Y-81166830D01*
X159482056Y-81091228D01*
X159509625Y-81035434D01*
X159528643Y-81012295D01*
X159551390Y-80992216D01*
X159580643Y-80973653D01*
X159614816Y-80958351D01*
X159661522Y-80944300D01*
X159715774Y-80934162D01*
X159797890Y-80926342D01*
X159894260Y-80923885D01*
X160026957Y-80923885D01*
X160026957Y-80913700D01*
X160025881Y-80884475D01*
X160015108Y-80833665D01*
X159992488Y-80800490D01*
X159973429Y-80787251D01*
X159949338Y-80777613D01*
X159905964Y-80769506D01*
X159850589Y-80767008D01*
X159832766Y-80767219D01*
X159764894Y-80774764D01*
X159726923Y-80791495D01*
X159713660Y-80804579D01*
X159704323Y-80821027D01*
X159697226Y-80849858D01*
X159696057Y-80886369D01*
X159491039Y-80886369D01*
X159490549Y-80846831D01*
X159498817Y-80764735D01*
X159519198Y-80706798D01*
X159534132Y-80683555D01*
X159552588Y-80663430D01*
X159576583Y-80645085D01*
X159605106Y-80629964D01*
X159644770Y-80616038D01*
X159691411Y-80605980D01*
X159764170Y-80598090D01*
X159850589Y-80595623D01*
X159936088Y-80598232D01*
G37*
D13*
G36*
X138864968Y-75046757D02*
G01*
X138992479Y-75043466D01*
X139099363Y-75032933D01*
X139167261Y-75019583D01*
X139224847Y-75001118D01*
X139265929Y-74981212D01*
X139300466Y-74957092D01*
X139326777Y-74930965D01*
X139348157Y-74900856D01*
X139377516Y-74827015D01*
X139390801Y-74723856D01*
X139391361Y-74692801D01*
X139388088Y-74630275D01*
X139377687Y-74574996D01*
X139363362Y-74534876D01*
X139343268Y-74498691D01*
X139288608Y-74440273D01*
X139205555Y-74390071D01*
X139076441Y-74342983D01*
X138961298Y-74313833D01*
X138766456Y-74265678D01*
X138658305Y-74226241D01*
X138633265Y-74209324D01*
X138619833Y-74191633D01*
X138616329Y-74174810D01*
X138619643Y-74141517D01*
X138630337Y-74114693D01*
X138644467Y-74097961D01*
X138664264Y-74084549D01*
X138727327Y-74065934D01*
X138858227Y-74058258D01*
X138945936Y-74061688D01*
X139010283Y-74073198D01*
X139040584Y-74085619D01*
X139063423Y-74102557D01*
X139087796Y-74144288D01*
X139095631Y-74190540D01*
X139364494Y-74190540D01*
X139360624Y-74115395D01*
X139349739Y-74050496D01*
X139335549Y-74005890D01*
X139315982Y-73967057D01*
X139293577Y-73936963D01*
X139266228Y-73911033D01*
X139196179Y-73871081D01*
X139094632Y-73843436D01*
X138941026Y-73828868D01*
X138860474Y-73827497D01*
X138734217Y-73830791D01*
X138628629Y-73841347D01*
X138561965Y-73854677D01*
X138505543Y-73873113D01*
X138465424Y-73892969D01*
X138431790Y-73917027D01*
X138406222Y-73943132D01*
X138385549Y-73973226D01*
X138357438Y-74047383D01*
X138345477Y-74151696D01*
X138345220Y-74172661D01*
X138348485Y-74230526D01*
X138358836Y-74281480D01*
X138373134Y-74318452D01*
X138393172Y-74351630D01*
X138448240Y-74405214D01*
X138533411Y-74451161D01*
X138668787Y-74494027D01*
X138802247Y-74522417D01*
X138931300Y-74549874D01*
X139021946Y-74578693D01*
X139060527Y-74598211D01*
X139087995Y-74620073D01*
X139103065Y-74640262D01*
X139112088Y-74662885D01*
X139115855Y-74695048D01*
X139112547Y-74730083D01*
X139101899Y-74758242D01*
X139087945Y-74775666D01*
X139068449Y-74789594D01*
X139007645Y-74808580D01*
X138890395Y-74816217D01*
X138864968Y-74816094D01*
X138779531Y-74811769D01*
X138713638Y-74800060D01*
X138678544Y-74786969D01*
X138651131Y-74769263D01*
X138633151Y-74749940D01*
X138619974Y-74726559D01*
X138606094Y-74663398D01*
X138605094Y-74641217D01*
X138329588Y-74641217D01*
X138330544Y-74721464D01*
X138338822Y-74791270D01*
X138351232Y-74840029D01*
X138369200Y-74882774D01*
X138390147Y-74915960D01*
X138416058Y-74944846D01*
X138481964Y-74989647D01*
X138575900Y-75021902D01*
X138714477Y-75041742D01*
X138864968Y-75046757D01*
G37*
G36*
X140243573Y-75046757D02*
G01*
X140354364Y-75043482D01*
X140448474Y-75033060D01*
X140510492Y-75019547D01*
X140563772Y-75000822D01*
X140603033Y-74980220D01*
X140636555Y-74955188D01*
X140685170Y-74895308D01*
X140717641Y-74814745D01*
X140735883Y-74700348D01*
X140738604Y-74647958D01*
X140469742Y-74647958D01*
X140454738Y-74702017D01*
X140434566Y-74743704D01*
X140415679Y-74766963D01*
X140392514Y-74784806D01*
X140333595Y-74805635D01*
X140254710Y-74811600D01*
X140182419Y-74808310D01*
X140121655Y-74797781D01*
X140082443Y-74784220D01*
X140049161Y-74765400D01*
X140024213Y-74743841D01*
X140003439Y-74717443D01*
X139973112Y-74647852D01*
X139955673Y-74541634D01*
X139952338Y-74446115D01*
X139955633Y-74346538D01*
X139966191Y-74264393D01*
X139979408Y-74213651D01*
X139997655Y-74171320D01*
X140017570Y-74141369D01*
X140041734Y-74116818D01*
X140101076Y-74083521D01*
X140185795Y-74065708D01*
X140252463Y-74062752D01*
X140313106Y-74066110D01*
X140361470Y-74077111D01*
X140389494Y-74090506D01*
X140412553Y-74109077D01*
X140444398Y-74159630D01*
X140467495Y-74251112D01*
X140738604Y-74251112D01*
X140733522Y-74162837D01*
X140721610Y-74086700D01*
X140706768Y-74034516D01*
X140686694Y-73989140D01*
X140664318Y-73954486D01*
X140637262Y-73924600D01*
X140570637Y-73879433D01*
X140478294Y-73848207D01*
X140344406Y-73830493D01*
X140239079Y-73827497D01*
X140134284Y-73830746D01*
X140042307Y-73840981D01*
X139976878Y-73854860D01*
X139919026Y-73874169D01*
X139874217Y-73895895D01*
X139834731Y-73922364D01*
X139802247Y-73951808D01*
X139774055Y-73985894D01*
X139729464Y-74069587D01*
X139698291Y-74183146D01*
X139681285Y-74342991D01*
X139679079Y-74443868D01*
X139682331Y-74561354D01*
X139692588Y-74663806D01*
X139706366Y-74735593D01*
X139725509Y-74798695D01*
X139746810Y-74846822D01*
X139772712Y-74888991D01*
X139801092Y-74923043D01*
X139833859Y-74952429D01*
X139912872Y-74997893D01*
X140018316Y-75028885D01*
X140164929Y-75045078D01*
X140243573Y-75046757D01*
G37*
G36*
X141657725Y-73830977D02*
G01*
X141790225Y-73849293D01*
X141881324Y-73880902D01*
X141946661Y-73926253D01*
X141972995Y-73956172D01*
X141994582Y-73990801D01*
X142013679Y-74036107D01*
X142027421Y-74088141D01*
X142037744Y-74163888D01*
X142041005Y-74251600D01*
X142041005Y-75028000D01*
X141785624Y-75028000D01*
X141785624Y-74887804D01*
X141767746Y-74887804D01*
X141725019Y-74943018D01*
X141661953Y-74998447D01*
X141625112Y-75018140D01*
X141584040Y-75032195D01*
X141519007Y-75043374D01*
X141440656Y-75046757D01*
X141283336Y-75037264D01*
X141186713Y-75013458D01*
X141120194Y-74976400D01*
X141094029Y-74951411D01*
X141072610Y-74921941D01*
X141053687Y-74882778D01*
X141040059Y-74837169D01*
X141029603Y-74768207D01*
X141026322Y-74687134D01*
X141027321Y-74667106D01*
X141299581Y-74667106D01*
X141304940Y-74724938D01*
X141325253Y-74769518D01*
X141344121Y-74786705D01*
X141369208Y-74799271D01*
X141419803Y-74810462D01*
X141487746Y-74813847D01*
X141518048Y-74813327D01*
X141614357Y-74801004D01*
X141678500Y-74773866D01*
X141703756Y-74753565D01*
X141724708Y-74728364D01*
X141743952Y-74692720D01*
X141758335Y-74649563D01*
X141770979Y-74577542D01*
X141776636Y-74489200D01*
X141554962Y-74491447D01*
X141489357Y-74494018D01*
X141398858Y-74509014D01*
X141346039Y-74535511D01*
X141327196Y-74555062D01*
X141313632Y-74578996D01*
X141302901Y-74618432D01*
X141299581Y-74667106D01*
X141027321Y-74667106D01*
X141031212Y-74589106D01*
X141052349Y-74488304D01*
X141089107Y-74413912D01*
X141114465Y-74383060D01*
X141144794Y-74356288D01*
X141183798Y-74331537D01*
X141229362Y-74311135D01*
X141291637Y-74292400D01*
X141363973Y-74278882D01*
X141473461Y-74268456D01*
X141601954Y-74265180D01*
X141778883Y-74265180D01*
X141778883Y-74251600D01*
X141777449Y-74212634D01*
X141763084Y-74144887D01*
X141732925Y-74100654D01*
X141707513Y-74083001D01*
X141675391Y-74070151D01*
X141617559Y-74059341D01*
X141543726Y-74056011D01*
X141519962Y-74056292D01*
X141429466Y-74066352D01*
X141378838Y-74088660D01*
X141361154Y-74106105D01*
X141348705Y-74128037D01*
X141339242Y-74166477D01*
X141337683Y-74215159D01*
X141064326Y-74215159D01*
X141063673Y-74162441D01*
X141074696Y-74052981D01*
X141101872Y-73975730D01*
X141121784Y-73944741D01*
X141146391Y-73917907D01*
X141178384Y-73893447D01*
X141216416Y-73873285D01*
X141269301Y-73854718D01*
X141331489Y-73841307D01*
X141428501Y-73830786D01*
X141543726Y-73827497D01*
X141657725Y-73830977D01*
G37*
G36*
X142369072Y-75028000D02*
G01*
X142642331Y-75028000D01*
X142642331Y-74419639D01*
X142645630Y-74326154D01*
X142656219Y-74249502D01*
X142669392Y-74202752D01*
X142687567Y-74164002D01*
X142707486Y-74136708D01*
X142731671Y-74114577D01*
X142792119Y-74084988D01*
X142880708Y-74070636D01*
X142922331Y-74069493D01*
X142988251Y-74072820D01*
X143040416Y-74083601D01*
X143070131Y-74096630D01*
X143093872Y-74114579D01*
X143123110Y-74160840D01*
X143137813Y-74233793D01*
X143139609Y-74282766D01*
X143139609Y-75028000D01*
X143412868Y-75028000D01*
X143412868Y-74287260D01*
X143409593Y-74185675D01*
X143399175Y-74098953D01*
X143385588Y-74041262D01*
X143366739Y-73991530D01*
X143345849Y-73954565D01*
X143320432Y-73922951D01*
X143258905Y-73876718D01*
X143175050Y-73845930D01*
X143054920Y-73829516D01*
X142980558Y-73827497D01*
X142910021Y-73830863D01*
X142850382Y-73841919D01*
X142811440Y-73856123D01*
X142776396Y-73876067D01*
X142716988Y-73932113D01*
X142660209Y-74017909D01*
X142642331Y-74017909D01*
X142642331Y-73858760D01*
X142369072Y-73858760D01*
X142369072Y-75028000D01*
G37*
G36*
X143709574Y-75028000D02*
G01*
X144771249Y-75028000D01*
X144771249Y-74795090D01*
X144388276Y-74795090D01*
X144388276Y-73396066D01*
X143731947Y-73396066D01*
X143731947Y-73629074D01*
X144119414Y-73629074D01*
X144119414Y-74795090D01*
X143709574Y-74795090D01*
X143709574Y-75028000D01*
G37*
G36*
X145428653Y-73713191D02*
G01*
X145771277Y-73713191D01*
X145771277Y-73397337D01*
X145428653Y-73397337D01*
X145428653Y-73713191D01*
G37*
G36*
X145103810Y-75028000D02*
G01*
X146136469Y-75028000D01*
X146136469Y-74797337D01*
X145762386Y-74797337D01*
X145762386Y-73858760D01*
X145126183Y-73858760D01*
X145126183Y-74089521D01*
X145493524Y-74089521D01*
X145493524Y-74797337D01*
X145103810Y-74797337D01*
X145103810Y-75028000D01*
G37*
G36*
X146978756Y-73840731D02*
G01*
X147053887Y-73863107D01*
X147084783Y-73881641D01*
X147111734Y-73905583D01*
X147142542Y-73945883D01*
X147170105Y-73997295D01*
X147187983Y-73997295D01*
X147187983Y-73858760D01*
X147450105Y-73858760D01*
X147450105Y-75061217D01*
X147444429Y-75179839D01*
X147422799Y-75289239D01*
X147386531Y-75368508D01*
X147362165Y-75400712D01*
X147333213Y-75428580D01*
X147296776Y-75453900D01*
X147254479Y-75474734D01*
X147197683Y-75493625D01*
X147132132Y-75507241D01*
X147034828Y-75517613D01*
X146921465Y-75520882D01*
X146814601Y-75518251D01*
X146670694Y-75501282D01*
X146573120Y-75471188D01*
X146504050Y-75428083D01*
X146476485Y-75399969D01*
X146453732Y-75367426D01*
X146433546Y-75325306D01*
X146418642Y-75276988D01*
X146406765Y-75207088D01*
X146401717Y-75126283D01*
X146677320Y-75126283D01*
X146678343Y-75142313D01*
X146691532Y-75210550D01*
X146718921Y-75252907D01*
X146743027Y-75269882D01*
X146774517Y-75282320D01*
X146838042Y-75293481D01*
X146923712Y-75296862D01*
X147017499Y-75290646D01*
X147086972Y-75270036D01*
X147133512Y-75233991D01*
X147152064Y-75205643D01*
X147165653Y-75170920D01*
X147177093Y-75111908D01*
X147181242Y-75038746D01*
X147183489Y-74868558D01*
X147165610Y-74868558D01*
X147124705Y-74940859D01*
X147075747Y-74988586D01*
X147042073Y-75006729D01*
X147001859Y-75019870D01*
X146931065Y-75030891D01*
X146840768Y-75034252D01*
X146823942Y-75034151D01*
X146685691Y-75023052D01*
X146585858Y-74995873D01*
X146510338Y-74953125D01*
X146478691Y-74924629D01*
X146451132Y-74891128D01*
X146425808Y-74849076D01*
X146404870Y-74800575D01*
X146386044Y-74736747D01*
X146372420Y-74663564D01*
X146362432Y-74561024D01*
X146359218Y-74442989D01*
X146632477Y-74442989D01*
X146634554Y-74522471D01*
X146649912Y-74636097D01*
X146677867Y-74708618D01*
X146720024Y-74757388D01*
X146750490Y-74776237D01*
X146786460Y-74789819D01*
X146841929Y-74800305D01*
X146907983Y-74803589D01*
X146946422Y-74802553D01*
X147033005Y-74788416D01*
X147092384Y-74758781D01*
X147116313Y-74736373D01*
X147136032Y-74708654D01*
X147154146Y-74668932D01*
X147167279Y-74620860D01*
X147177933Y-74540920D01*
X147181242Y-74442989D01*
X147178571Y-74349624D01*
X147162313Y-74234054D01*
X147133735Y-74160263D01*
X147091373Y-74110847D01*
X147061172Y-74091883D01*
X147025690Y-74078230D01*
X146971795Y-74067788D01*
X146907983Y-74064510D01*
X146863707Y-74065955D01*
X146779635Y-74081168D01*
X146721186Y-74112172D01*
X146697373Y-74135633D01*
X146677742Y-74164574D01*
X146659617Y-74206176D01*
X146646479Y-74256464D01*
X146635791Y-74340316D01*
X146632477Y-74442989D01*
X146359218Y-74442989D01*
X146360172Y-74373364D01*
X146374434Y-74200975D01*
X146402991Y-74080802D01*
X146444494Y-73993879D01*
X146500885Y-73929052D01*
X146537370Y-73902373D01*
X146578823Y-73880499D01*
X146632170Y-73861154D01*
X146692530Y-73847255D01*
X146777512Y-73837001D01*
X146874375Y-73833750D01*
X146978756Y-73840731D01*
G37*
G36*
X147740070Y-75028000D02*
G01*
X148013329Y-75028000D01*
X148013329Y-74417490D01*
X148016647Y-74320183D01*
X148027369Y-74240882D01*
X148040515Y-74193563D01*
X148058657Y-74154464D01*
X148078437Y-74127156D01*
X148102462Y-74105070D01*
X148162427Y-74075717D01*
X148250553Y-74061589D01*
X148291082Y-74060505D01*
X148357787Y-74063844D01*
X148410520Y-74074711D01*
X148440318Y-74087764D01*
X148464153Y-74105758D01*
X148493582Y-74152149D01*
X148508593Y-74225420D01*
X148510607Y-74278272D01*
X148510607Y-75028000D01*
X148783866Y-75028000D01*
X148783866Y-74282766D01*
X148780589Y-74181871D01*
X148770153Y-74095826D01*
X148756570Y-74038758D01*
X148737723Y-73989590D01*
X148716828Y-73953057D01*
X148691397Y-73921827D01*
X148629686Y-73876115D01*
X148545244Y-73845654D01*
X148423691Y-73829449D01*
X148349309Y-73827497D01*
X148279253Y-73830846D01*
X148219290Y-73841785D01*
X148179367Y-73856008D01*
X148143497Y-73875982D01*
X148084394Y-73931092D01*
X148031207Y-74013512D01*
X148013329Y-74013512D01*
X148013329Y-73395187D01*
X147740070Y-73395187D01*
X147740070Y-75028000D01*
G37*
G36*
X149748039Y-75052912D02*
G01*
X149944246Y-75041445D01*
X150104243Y-75023799D01*
X150104243Y-74788544D01*
X149945741Y-74808718D01*
X149824243Y-74815411D01*
X149752246Y-74812078D01*
X149700617Y-74801258D01*
X149675748Y-74789186D01*
X149657560Y-74772815D01*
X149638183Y-74730104D01*
X149631584Y-74645222D01*
X149631584Y-74089521D01*
X150068388Y-74089521D01*
X150068388Y-73858760D01*
X149631584Y-73858760D01*
X149631584Y-73511642D01*
X149371710Y-73621356D01*
X149371710Y-73858760D01*
X149127564Y-73858760D01*
X149073831Y-74089521D01*
X149362819Y-74089521D01*
X149362819Y-74654113D01*
X149366497Y-74755741D01*
X149379739Y-74842388D01*
X149394333Y-74888925D01*
X149414758Y-74929639D01*
X149437225Y-74959584D01*
X149464948Y-74985359D01*
X149534534Y-75023114D01*
X149633715Y-75046297D01*
X149748039Y-75052912D01*
G37*
G36*
X151911640Y-75028000D02*
G01*
X152180405Y-75028000D01*
X152180405Y-74451586D01*
X152191948Y-74371979D01*
X152228666Y-74282466D01*
X152288359Y-74197946D01*
X152321692Y-74165979D01*
X152355668Y-74142707D01*
X152395436Y-74128600D01*
X152572336Y-74116811D01*
X152733664Y-74119612D01*
X152733664Y-73850749D01*
X152514236Y-73846255D01*
X152400510Y-73850175D01*
X152360699Y-73859485D01*
X152326901Y-73877616D01*
X152295100Y-73907506D01*
X152261280Y-73952098D01*
X152171514Y-74097141D01*
X152146797Y-74097141D01*
X152158032Y-73858760D01*
X151911640Y-73858760D01*
X151911640Y-75028000D01*
G37*
G36*
X153740091Y-73831641D02*
G01*
X153865079Y-73852147D01*
X153957938Y-73887855D01*
X154029591Y-73939683D01*
X154059993Y-73973663D01*
X154086135Y-74012862D01*
X154110174Y-74062253D01*
X154129528Y-74118545D01*
X154146474Y-74193157D01*
X154157784Y-74278026D01*
X154164597Y-74400163D01*
X154163852Y-74540295D01*
X153368597Y-74540295D01*
X153383712Y-74648898D01*
X153410604Y-74721727D01*
X153451003Y-74769737D01*
X153480858Y-74788395D01*
X153516552Y-74801843D01*
X153575981Y-74812750D01*
X153648597Y-74816094D01*
X153712733Y-74812659D01*
X153778109Y-74795049D01*
X153803485Y-74779324D01*
X153824714Y-74758342D01*
X153848574Y-74719967D01*
X153868123Y-74669353D01*
X154145876Y-74669353D01*
X154116226Y-74800938D01*
X154076942Y-74889473D01*
X154024742Y-74953264D01*
X153990880Y-74979186D01*
X153951957Y-75000443D01*
X153900732Y-75019399D01*
X153841788Y-75033049D01*
X153753790Y-75043481D01*
X153650844Y-75046757D01*
X153573874Y-75045065D01*
X153429905Y-75028747D01*
X153325859Y-74997476D01*
X153247538Y-74951494D01*
X153214928Y-74921682D01*
X153186677Y-74887140D01*
X153160818Y-74844244D01*
X153139554Y-74795286D01*
X153120405Y-74730956D01*
X153106627Y-74657765D01*
X153096346Y-74552998D01*
X153093091Y-74432829D01*
X153094433Y-74352740D01*
X153096756Y-74327511D01*
X153370844Y-74327511D01*
X153897236Y-74327511D01*
X153888608Y-74222441D01*
X153864705Y-74152420D01*
X153846932Y-74126105D01*
X153824958Y-74104642D01*
X153794930Y-74085839D01*
X153759109Y-74072298D01*
X153701719Y-74061576D01*
X153632966Y-74058258D01*
X153619337Y-74058377D01*
X153524037Y-74068873D01*
X153460019Y-74094488D01*
X153435248Y-74113501D01*
X153414625Y-74137247D01*
X153396725Y-74169039D01*
X153383585Y-74207349D01*
X153374000Y-74262109D01*
X153370844Y-74327511D01*
X153096756Y-74327511D01*
X153109670Y-74187285D01*
X153139178Y-74071064D01*
X153181910Y-73986264D01*
X153208963Y-73951995D01*
X153240226Y-73922426D01*
X153278208Y-73895946D01*
X153321387Y-73874227D01*
X153377287Y-73854916D01*
X153440609Y-73841042D01*
X153530414Y-73830753D01*
X153632966Y-73827497D01*
X153740091Y-73831641D01*
G37*
G36*
X154841284Y-75028000D02*
G01*
X155105652Y-75028000D01*
X155587202Y-73858760D01*
X155302707Y-73858760D01*
X154982456Y-74698760D01*
X154964480Y-74698760D01*
X154644131Y-73858760D01*
X154359735Y-73858760D01*
X154841284Y-75028000D01*
G37*
G36*
X156103433Y-75028000D02*
G01*
X156529002Y-75028000D01*
X156529002Y-74618160D01*
X156103433Y-74618160D01*
X156103433Y-75028000D01*
G37*
G36*
X157542512Y-75046757D02*
G01*
X157653337Y-75043550D01*
X157751060Y-75033601D01*
X157822993Y-75019788D01*
X157886537Y-75000658D01*
X157935886Y-74979147D01*
X157979198Y-74953084D01*
X158014275Y-74924579D01*
X158044508Y-74891809D01*
X158090745Y-74813862D01*
X158121227Y-74712242D01*
X158135402Y-74575230D01*
X158136022Y-74534434D01*
X158132837Y-74441202D01*
X158123043Y-74359776D01*
X158109408Y-74300036D01*
X158090622Y-74248099D01*
X158069507Y-74208399D01*
X158044035Y-74174435D01*
X158015948Y-74147545D01*
X157983746Y-74125425D01*
X157905571Y-74094658D01*
X157800798Y-74081206D01*
X157690328Y-74085027D01*
X157690328Y-74073889D01*
X158077795Y-73762138D01*
X158077795Y-73502361D01*
X157141563Y-73502361D01*
X157141563Y-73739863D01*
X157768681Y-73739863D01*
X157768681Y-73746506D01*
X157372226Y-74076136D01*
X157372226Y-74336011D01*
X157495655Y-74317576D01*
X157598249Y-74309880D01*
X157663393Y-74311519D01*
X157717913Y-74319882D01*
X157755593Y-74332094D01*
X157786757Y-74349208D01*
X157809649Y-74369018D01*
X157827785Y-74393028D01*
X157851128Y-74455130D01*
X157858269Y-74534434D01*
X157855045Y-74597072D01*
X157844980Y-74650360D01*
X157831416Y-74687008D01*
X157812671Y-74718137D01*
X157790836Y-74741910D01*
X157764211Y-74761541D01*
X157693785Y-74789682D01*
X157587275Y-74803819D01*
X157540265Y-74804859D01*
X157469243Y-74801574D01*
X157400346Y-74791085D01*
X157271481Y-74751113D01*
X157110202Y-74674140D01*
X157110202Y-74954922D01*
X157192311Y-74990355D01*
X157272061Y-75016386D01*
X157413803Y-75041371D01*
X157542512Y-75046757D01*
G37*
G36*
X159822568Y-74658607D02*
G01*
X159822568Y-75028000D01*
X160870858Y-75028000D01*
X160870858Y-74777211D01*
X160111458Y-74777211D01*
X160111458Y-74756988D01*
X160326724Y-74602787D01*
X160489845Y-74474876D01*
X160683674Y-74297398D01*
X160689435Y-74291656D01*
X160747916Y-74228454D01*
X160791333Y-74169384D01*
X160815090Y-74125456D01*
X160832139Y-74080038D01*
X160848942Y-73981160D01*
X160850635Y-73926953D01*
X160847372Y-73836922D01*
X160837039Y-73758927D01*
X160823258Y-73705120D01*
X160804097Y-73658112D01*
X160782454Y-73622088D01*
X160756048Y-73590824D01*
X160690862Y-73543217D01*
X160600755Y-73509530D01*
X160471147Y-73488958D01*
X160328737Y-73483603D01*
X160216041Y-73486870D01*
X160119156Y-73497236D01*
X160053556Y-73510882D01*
X159996544Y-73529823D01*
X159953748Y-73550804D01*
X159916683Y-73576322D01*
X159886894Y-73604553D01*
X159861577Y-73637208D01*
X159822837Y-73717995D01*
X159797724Y-73830048D01*
X159788960Y-73931447D01*
X160075604Y-73931447D01*
X160083146Y-73871898D01*
X160097324Y-73824115D01*
X160112792Y-73795786D01*
X160133081Y-73772897D01*
X160185086Y-73743488D01*
X160266796Y-73727949D01*
X160330984Y-73725599D01*
X160407152Y-73728948D01*
X160466531Y-73739885D01*
X160498921Y-73752729D01*
X160524511Y-73770376D01*
X160554754Y-73814468D01*
X160569215Y-73882046D01*
X160570733Y-73922459D01*
X160567327Y-73977603D01*
X160555991Y-74023246D01*
X160519633Y-74084753D01*
X160496776Y-74110428D01*
X160407612Y-74194525D01*
X160289266Y-74295512D01*
X159822568Y-74658607D01*
G37*
G36*
X161812663Y-73481194D02*
G01*
X161935956Y-73498446D01*
X162020057Y-73529223D01*
X162054203Y-73550912D01*
X162084114Y-73577402D01*
X162113533Y-73613626D01*
X162139075Y-73657071D01*
X162170417Y-73732723D01*
X162197878Y-73825934D01*
X162207015Y-73862871D01*
X162234074Y-74029541D01*
X162242044Y-74140035D01*
X162244968Y-74276318D01*
X162244905Y-74297438D01*
X162234382Y-74504689D01*
X162220686Y-74599832D01*
X162200126Y-74695145D01*
X162178519Y-74771059D01*
X162134726Y-74876721D01*
X162084326Y-74946730D01*
X162053612Y-74973808D01*
X162018808Y-74995765D01*
X161972474Y-75015506D01*
X161919116Y-75029710D01*
X161813399Y-75043063D01*
X161682721Y-75046757D01*
X161528000Y-75041193D01*
X161416489Y-75022203D01*
X161337901Y-74989240D01*
X161305143Y-74965890D01*
X161276086Y-74937277D01*
X161247468Y-74898461D01*
X161222363Y-74851769D01*
X161194291Y-74779025D01*
X161176631Y-74715271D01*
X161463196Y-74715271D01*
X161465356Y-74721277D01*
X161492027Y-74765642D01*
X161513529Y-74782383D01*
X161541730Y-74794680D01*
X161601388Y-74805956D01*
X161684968Y-74809353D01*
X161698829Y-74809284D01*
X161811602Y-74799038D01*
X161848784Y-74786302D01*
X161876194Y-74767575D01*
X161896108Y-74742171D01*
X161910799Y-74709405D01*
X161933608Y-74619039D01*
X161955339Y-74475893D01*
X161964968Y-74256192D01*
X161958227Y-74088153D01*
X161463196Y-74715271D01*
X161176631Y-74715271D01*
X161169811Y-74690651D01*
X161162943Y-74660086D01*
X161137543Y-74492160D01*
X161127316Y-74262933D01*
X161407216Y-74262933D01*
X161410293Y-74388022D01*
X161418353Y-74484608D01*
X161922373Y-73846255D01*
X161911316Y-73810703D01*
X161882309Y-73762388D01*
X161860219Y-73744427D01*
X161832330Y-73731327D01*
X161769510Y-73718560D01*
X161682721Y-73714950D01*
X161632295Y-73715994D01*
X161548698Y-73727614D01*
X161499997Y-73752683D01*
X161478952Y-73777235D01*
X161462958Y-73809730D01*
X161438576Y-73902333D01*
X161437707Y-73907006D01*
X161416986Y-74047406D01*
X161407216Y-74262933D01*
X161127316Y-74262933D01*
X161127216Y-74260686D01*
X161135756Y-74051791D01*
X161152524Y-73925272D01*
X161174208Y-73828181D01*
X161200123Y-73739514D01*
X161243561Y-73639506D01*
X161294162Y-73572826D01*
X161325518Y-73546782D01*
X161361401Y-73525590D01*
X161409546Y-73506532D01*
X161465531Y-73492835D01*
X161565170Y-73481020D01*
X161687216Y-73477546D01*
X161812663Y-73481194D01*
G37*
G36*
X162508067Y-74658607D02*
G01*
X162508067Y-75028000D01*
X163556357Y-75028000D01*
X163556357Y-74777211D01*
X162796957Y-74777211D01*
X162796957Y-74756988D01*
X163012223Y-74602787D01*
X163175344Y-74474876D01*
X163369173Y-74297398D01*
X163374934Y-74291656D01*
X163433415Y-74228454D01*
X163476831Y-74169384D01*
X163500589Y-74125456D01*
X163517638Y-74080038D01*
X163534441Y-73981160D01*
X163536134Y-73926953D01*
X163532871Y-73836922D01*
X163522538Y-73758927D01*
X163508757Y-73705120D01*
X163489596Y-73658112D01*
X163467953Y-73622088D01*
X163441547Y-73590824D01*
X163376361Y-73543217D01*
X163286254Y-73509530D01*
X163156646Y-73488958D01*
X163014236Y-73483603D01*
X162901540Y-73486870D01*
X162804655Y-73497236D01*
X162739055Y-73510882D01*
X162682043Y-73529823D01*
X162639247Y-73550804D01*
X162602182Y-73576322D01*
X162572393Y-73604553D01*
X162547076Y-73637208D01*
X162508336Y-73717995D01*
X162483223Y-73830048D01*
X162474459Y-73931447D01*
X162761102Y-73931447D01*
X162768645Y-73871898D01*
X162782823Y-73824115D01*
X162798291Y-73795786D01*
X162818580Y-73772897D01*
X162870585Y-73743488D01*
X162952295Y-73727949D01*
X163016483Y-73725599D01*
X163092651Y-73728948D01*
X163152030Y-73739885D01*
X163184420Y-73752729D01*
X163210010Y-73770376D01*
X163240253Y-73814468D01*
X163254714Y-73882046D01*
X163256232Y-73922459D01*
X163252826Y-73977603D01*
X163241490Y-74023246D01*
X163205132Y-74084753D01*
X163182275Y-74110428D01*
X163093111Y-74194525D01*
X162974765Y-74295512D01*
X162508067Y-74658607D01*
G37*
G36*
X164278632Y-75046757D02*
G01*
X164388337Y-75043548D01*
X164485350Y-75033588D01*
X164557066Y-75019729D01*
X164620610Y-75000520D01*
X164670195Y-74978868D01*
X164713863Y-74952614D01*
X164749411Y-74923841D01*
X164780187Y-74890738D01*
X164827676Y-74811912D01*
X164859611Y-74709194D01*
X164875524Y-74571056D01*
X164876734Y-74512549D01*
X164873521Y-74427983D01*
X164863538Y-74353164D01*
X164849576Y-74297554D01*
X164830187Y-74248074D01*
X164807769Y-74208396D01*
X164780455Y-74173206D01*
X164712666Y-74116833D01*
X164620047Y-74073293D01*
X164489941Y-74040781D01*
X164415213Y-74030023D01*
X164297072Y-74021878D01*
X164175562Y-74025529D01*
X164197934Y-73744357D01*
X164811765Y-73739863D01*
X164811765Y-73502361D01*
X163949295Y-73502361D01*
X163882177Y-74301230D01*
X164070908Y-74276952D01*
X164216817Y-74266315D01*
X164383852Y-74272019D01*
X164443872Y-74281220D01*
X164492891Y-74296356D01*
X164524075Y-74312880D01*
X164549319Y-74333934D01*
X164581351Y-74385605D01*
X164597218Y-74461042D01*
X164598981Y-74505808D01*
X164595746Y-74576150D01*
X164585610Y-74635775D01*
X164572121Y-74676111D01*
X164553484Y-74710317D01*
X164532165Y-74735990D01*
X164506220Y-74757227D01*
X164439238Y-74787369D01*
X164340174Y-74803135D01*
X164283126Y-74804859D01*
X164213565Y-74801574D01*
X164144609Y-74791079D01*
X164009718Y-74750096D01*
X163844075Y-74674434D01*
X163844075Y-74954922D01*
X163928312Y-74990739D01*
X164009757Y-75016927D01*
X164152864Y-75041642D01*
X164278632Y-75046757D01*
G37*
G36*
X165289895Y-74484022D02*
G01*
X166141033Y-74484022D01*
X166141033Y-74237630D01*
X165289895Y-74237630D01*
X165289895Y-74484022D01*
G37*
G36*
X167060460Y-75028000D02*
G01*
X167338213Y-75028000D01*
X167338213Y-73502361D01*
X167060460Y-73502361D01*
X166578814Y-73840002D01*
X166578814Y-74136513D01*
X166982010Y-73887190D01*
X167069351Y-73815480D01*
X167060460Y-73954601D01*
X167060460Y-75028000D01*
G37*
G36*
X168526410Y-73481194D02*
G01*
X168649703Y-73498446D01*
X168733805Y-73529223D01*
X168767950Y-73550912D01*
X168797862Y-73577402D01*
X168827281Y-73613626D01*
X168852822Y-73657071D01*
X168884165Y-73732723D01*
X168911626Y-73825934D01*
X168920762Y-73862871D01*
X168947821Y-74029541D01*
X168955791Y-74140035D01*
X168958716Y-74276318D01*
X168958653Y-74297438D01*
X168948129Y-74504689D01*
X168934433Y-74599832D01*
X168913873Y-74695145D01*
X168892267Y-74771059D01*
X168848473Y-74876721D01*
X168798073Y-74946730D01*
X168767360Y-74973808D01*
X168732556Y-74995765D01*
X168686221Y-75015506D01*
X168632864Y-75029710D01*
X168527147Y-75043063D01*
X168396469Y-75046757D01*
X168241747Y-75041193D01*
X168130236Y-75022203D01*
X168051648Y-74989240D01*
X168018891Y-74965890D01*
X167989833Y-74937277D01*
X167961216Y-74898461D01*
X167936110Y-74851769D01*
X167908039Y-74779025D01*
X167890379Y-74715271D01*
X168176943Y-74715271D01*
X168179103Y-74721277D01*
X168205775Y-74765642D01*
X168227277Y-74782383D01*
X168255477Y-74794680D01*
X168315135Y-74805956D01*
X168398716Y-74809353D01*
X168412577Y-74809284D01*
X168525349Y-74799038D01*
X168562531Y-74786302D01*
X168589942Y-74767575D01*
X168609855Y-74742171D01*
X168624546Y-74709405D01*
X168647355Y-74619039D01*
X168669086Y-74475893D01*
X168678716Y-74256192D01*
X168671975Y-74088153D01*
X168176943Y-74715271D01*
X167890379Y-74715271D01*
X167883559Y-74690651D01*
X167876690Y-74660086D01*
X167851290Y-74492160D01*
X167841063Y-74262933D01*
X168120963Y-74262933D01*
X168124040Y-74388022D01*
X168132100Y-74484608D01*
X168636120Y-73846255D01*
X168625064Y-73810703D01*
X168596057Y-73762388D01*
X168573966Y-73744427D01*
X168546077Y-73731327D01*
X168483258Y-73718560D01*
X168396469Y-73714950D01*
X168346043Y-73715994D01*
X168262445Y-73727614D01*
X168213744Y-73752683D01*
X168192700Y-73777235D01*
X168176706Y-73809730D01*
X168152324Y-73902333D01*
X168151454Y-73907006D01*
X168130733Y-74047406D01*
X168120963Y-74262933D01*
X167841063Y-74262933D01*
X167840963Y-74260686D01*
X167849504Y-74051791D01*
X167866271Y-73925272D01*
X167887955Y-73828181D01*
X167913870Y-73739514D01*
X167957308Y-73639506D01*
X168007909Y-73572826D01*
X168039265Y-73546782D01*
X168075149Y-73525590D01*
X168123294Y-73506532D01*
X168179278Y-73492835D01*
X168278917Y-73481020D01*
X168400963Y-73477546D01*
X168526410Y-73481194D01*
G37*
G36*
X169318144Y-74484022D02*
G01*
X170169281Y-74484022D01*
X170169281Y-74237630D01*
X169318144Y-74237630D01*
X169318144Y-74484022D01*
G37*
G36*
X171211909Y-73481194D02*
G01*
X171335202Y-73498446D01*
X171419304Y-73529223D01*
X171453449Y-73550912D01*
X171483361Y-73577402D01*
X171512780Y-73613626D01*
X171538321Y-73657071D01*
X171569664Y-73732723D01*
X171597125Y-73825934D01*
X171606261Y-73862871D01*
X171633320Y-74029541D01*
X171641290Y-74140035D01*
X171644215Y-74276318D01*
X171644152Y-74297438D01*
X171633628Y-74504689D01*
X171619932Y-74599832D01*
X171599372Y-74695145D01*
X171577766Y-74771059D01*
X171533972Y-74876721D01*
X171483572Y-74946730D01*
X171452859Y-74973808D01*
X171418054Y-74995765D01*
X171371720Y-75015506D01*
X171318363Y-75029710D01*
X171212646Y-75043063D01*
X171081968Y-75046757D01*
X170927246Y-75041193D01*
X170815735Y-75022203D01*
X170737147Y-74989240D01*
X170704390Y-74965890D01*
X170675332Y-74937277D01*
X170646715Y-74898461D01*
X170621609Y-74851769D01*
X170593538Y-74779025D01*
X170575878Y-74715271D01*
X170862442Y-74715271D01*
X170864602Y-74721277D01*
X170891274Y-74765642D01*
X170912776Y-74782383D01*
X170940976Y-74794680D01*
X171000634Y-74805956D01*
X171084215Y-74809353D01*
X171098076Y-74809284D01*
X171210848Y-74799038D01*
X171248030Y-74786302D01*
X171275441Y-74767575D01*
X171295354Y-74742171D01*
X171310045Y-74709405D01*
X171332854Y-74619039D01*
X171354585Y-74475893D01*
X171364215Y-74256192D01*
X171357474Y-74088153D01*
X170862442Y-74715271D01*
X170575878Y-74715271D01*
X170569058Y-74690651D01*
X170562189Y-74660086D01*
X170536789Y-74492160D01*
X170526562Y-74262933D01*
X170806462Y-74262933D01*
X170809539Y-74388022D01*
X170817599Y-74484608D01*
X171321619Y-73846255D01*
X171310562Y-73810703D01*
X171281556Y-73762388D01*
X171259465Y-73744427D01*
X171231576Y-73731327D01*
X171168757Y-73718560D01*
X171081968Y-73714950D01*
X171031542Y-73715994D01*
X170947944Y-73727614D01*
X170899243Y-73752683D01*
X170878199Y-73777235D01*
X170862204Y-73809730D01*
X170837823Y-73902333D01*
X170836953Y-73907006D01*
X170816232Y-74047406D01*
X170806462Y-74262933D01*
X170526562Y-74262933D01*
X170526462Y-74260686D01*
X170535003Y-74051791D01*
X170551770Y-73925272D01*
X170573454Y-73828181D01*
X170599369Y-73739514D01*
X170642807Y-73639506D01*
X170693408Y-73572826D01*
X170724764Y-73546782D01*
X170760647Y-73525590D01*
X170808793Y-73506532D01*
X170864777Y-73492835D01*
X170964416Y-73481020D01*
X171086462Y-73477546D01*
X171211909Y-73481194D01*
G37*
G36*
X172312756Y-75046757D02*
G01*
X172423581Y-75043550D01*
X172521304Y-75033601D01*
X172593237Y-75019788D01*
X172656781Y-75000658D01*
X172706131Y-74979147D01*
X172749443Y-74953084D01*
X172784519Y-74924579D01*
X172814752Y-74891809D01*
X172860989Y-74813862D01*
X172891471Y-74712242D01*
X172905646Y-74575230D01*
X172906266Y-74534434D01*
X172903081Y-74441202D01*
X172893288Y-74359776D01*
X172879652Y-74300036D01*
X172860866Y-74248099D01*
X172839751Y-74208399D01*
X172814280Y-74174435D01*
X172786192Y-74147545D01*
X172753991Y-74125425D01*
X172675815Y-74094658D01*
X172571042Y-74081206D01*
X172460572Y-74085027D01*
X172460572Y-74073889D01*
X172848039Y-73762138D01*
X172848039Y-73502361D01*
X171911807Y-73502361D01*
X171911807Y-73739863D01*
X172538925Y-73739863D01*
X172538925Y-73746506D01*
X172142470Y-74076136D01*
X172142470Y-74336011D01*
X172265899Y-74317576D01*
X172368493Y-74309880D01*
X172433638Y-74311519D01*
X172488158Y-74319882D01*
X172525837Y-74332094D01*
X172557001Y-74349208D01*
X172579893Y-74369018D01*
X172598030Y-74393028D01*
X172621372Y-74455130D01*
X172628514Y-74534434D01*
X172625289Y-74597072D01*
X172615224Y-74650360D01*
X172601661Y-74687008D01*
X172582915Y-74718137D01*
X172561080Y-74741910D01*
X172534456Y-74761541D01*
X172464029Y-74789682D01*
X172357519Y-74803819D01*
X172310509Y-74804859D01*
X172239487Y-74801574D01*
X172170590Y-74791085D01*
X172041726Y-74751113D01*
X171880447Y-74674140D01*
X171880447Y-74954922D01*
X171962555Y-74990355D01*
X172042305Y-75016386D01*
X172184047Y-75041371D01*
X172312756Y-75046757D01*
G37*
D14*
X127210000Y-58700000D02*
X123350000Y-58700000D01*
X127210000Y-60700000D02*
X123350000Y-60700000D01*
X127210000Y-60700000D02*
X127210000Y-58700000D01*
X106410000Y-67310000D02*
X106410000Y-64960000D01*
X106410000Y-60490000D02*
X106410000Y-62840000D01*
X100654437Y-67310000D02*
X106410000Y-67310000D01*
X100654437Y-60490000D02*
X106410000Y-60490000D01*
X99590000Y-66245563D02*
X100654437Y-67310000D01*
X99590000Y-66245563D02*
X99590000Y-64960000D01*
X99590000Y-61554437D02*
X100654437Y-60490000D01*
X99590000Y-61554437D02*
X99590000Y-62840000D01*
X98956250Y-61658750D02*
X98956250Y-62446250D01*
X98562500Y-62052500D02*
X99350000Y-62052500D01*
X123930000Y-63252500D02*
X123690000Y-62922500D01*
X124170000Y-62922500D01*
X123930000Y-63252500D01*
G36*
X123930000Y-63252500D02*
G01*
X123690000Y-62922500D01*
X124170000Y-62922500D01*
X123930000Y-63252500D01*
G37*
X127060000Y-67822500D02*
X124340000Y-67822500D01*
X127060000Y-66842500D02*
X127060000Y-67822500D01*
X127060000Y-64082500D02*
X127060000Y-63102500D01*
X124480000Y-63102500D02*
X127060000Y-63102500D01*
X90400000Y-70589999D02*
X90400000Y-74449999D01*
X92400000Y-70589999D02*
X92400000Y-74449999D01*
X92400000Y-70589999D02*
X90400000Y-70589999D01*
X124288747Y-62635000D02*
X124811253Y-62635000D01*
X124288747Y-61165000D02*
X124811253Y-61165000D01*
X122485000Y-66511253D02*
X122485000Y-65988747D01*
X121015000Y-66511253D02*
X121015000Y-65988747D01*
X114181492Y-72872502D02*
X114656008Y-72872502D01*
X114181492Y-71827502D02*
X114656008Y-71827502D01*
X120533750Y-76925000D02*
X120203750Y-77165000D01*
X120203750Y-76685000D01*
X120533750Y-76925000D01*
G36*
X120533750Y-76925000D02*
G01*
X120203750Y-77165000D01*
X120203750Y-76685000D01*
X120533750Y-76925000D01*
G37*
X123603750Y-75625000D02*
X123603750Y-76425000D01*
X123603750Y-75625000D02*
X123603750Y-74825000D01*
X120483750Y-75625000D02*
X120483750Y-76425000D01*
X120483750Y-75625000D02*
X120483750Y-74825000D01*
X134622500Y-79307835D02*
X134622500Y-78833319D01*
X133577500Y-79307835D02*
X133577500Y-78833319D01*
X119507498Y-72497500D02*
X120930002Y-72497500D01*
X119507498Y-70677500D02*
X120930002Y-70677500D01*
X134900002Y-131100000D02*
X134900002Y-127900000D01*
X131000002Y-131100000D02*
X134900002Y-131100000D01*
X131000002Y-127900000D02*
X134900002Y-127900000D01*
X124181492Y-71372500D02*
X124656008Y-71372500D01*
X124181492Y-70327500D02*
X124656008Y-70327500D01*
X114181491Y-71372502D02*
X114656007Y-71372502D01*
X114181491Y-70327502D02*
X114656007Y-70327502D01*
X121622499Y-61827046D02*
X121622499Y-62349552D01*
X120152499Y-61827046D02*
X120152499Y-62349552D01*
X99743750Y-73690000D02*
X99743750Y-77550000D01*
X99743750Y-73690000D02*
X97743750Y-73690000D01*
X97743750Y-73690000D02*
X97743750Y-77550000D01*
X125628750Y-75326248D02*
X125628750Y-75848752D01*
X124158750Y-75326248D02*
X124158750Y-75848752D01*
X105628750Y-75326248D02*
X105628750Y-75848752D01*
X104158750Y-75326248D02*
X104158750Y-75848752D01*
X163000000Y-136100000D02*
X159100000Y-136100000D01*
X163000000Y-132900000D02*
X159100000Y-132900000D01*
X159100000Y-132900000D02*
X159100000Y-136100000D01*
X104181492Y-71372500D02*
X104656008Y-71372500D01*
X104181492Y-70327500D02*
X104656008Y-70327500D01*
X99507498Y-72497500D02*
X100930002Y-72497500D01*
X99507498Y-70677500D02*
X100930002Y-70677500D01*
X101600000Y-98600000D02*
X101600000Y-102500000D01*
X98400000Y-102500000D02*
X101600000Y-102500000D01*
X98400000Y-98600000D02*
X98400000Y-102500000D01*
X119743750Y-73690000D02*
X119743750Y-77550000D01*
X119743750Y-73690000D02*
X117743750Y-73690000D01*
X117743750Y-73690000D02*
X117743750Y-77550000D01*
X109743750Y-73690000D02*
X109743750Y-77550000D01*
X109743750Y-73690000D02*
X107743750Y-73690000D01*
X107743750Y-73690000D02*
X107743750Y-77550000D01*
X163000000Y-106100000D02*
X159100000Y-106100000D01*
X163000000Y-102900000D02*
X159100000Y-102900000D01*
X159100000Y-102900000D02*
X159100000Y-106100000D01*
X104181492Y-69872500D02*
X104656008Y-69872500D01*
X104181492Y-68827500D02*
X104656008Y-68827500D01*
X119702499Y-63978300D02*
X119372499Y-63738300D01*
X119702499Y-63498300D01*
X119702499Y-63978300D01*
G36*
X119702499Y-63978300D02*
G01*
X119372499Y-63738300D01*
X119702499Y-63498300D01*
X119702499Y-63978300D01*
G37*
X115512499Y-64198300D02*
X117712499Y-64198300D01*
X115512499Y-64198300D02*
X113312499Y-64198300D01*
X115512499Y-58728300D02*
X117712499Y-58728300D01*
X115512499Y-58728300D02*
X113312499Y-58728300D01*
X134900001Y-101099999D02*
X134900001Y-97899999D01*
X131000001Y-101099999D02*
X134900001Y-101099999D01*
X131000001Y-97899999D02*
X134900001Y-97899999D01*
X114181492Y-69872500D02*
X114656008Y-69872500D01*
X114181492Y-68827500D02*
X114656008Y-68827500D01*
X136122500Y-79307835D02*
X136122500Y-78833319D01*
X135077500Y-79307835D02*
X135077500Y-78833319D01*
X135599999Y-105399999D02*
X135599999Y-101499999D01*
X135599999Y-101499999D02*
X132399999Y-101499999D01*
X132399999Y-105399999D02*
X132399999Y-101499999D01*
X165600000Y-98600000D02*
X165600000Y-102500000D01*
X162400000Y-102500000D02*
X165600000Y-102500000D01*
X162400000Y-98600000D02*
X162400000Y-102500000D01*
X161600000Y-98600000D02*
X161600000Y-102500000D01*
X158400000Y-102500000D02*
X161600000Y-102500000D01*
X158400000Y-98600000D02*
X158400000Y-102500000D01*
X161600000Y-128600000D02*
X161600000Y-132500000D01*
X158400000Y-132500000D02*
X161600000Y-132500000D01*
X158400000Y-128600000D02*
X158400000Y-132500000D01*
X105600000Y-128600000D02*
X105600000Y-132500000D01*
X102400000Y-132500000D02*
X105600000Y-132500000D01*
X102400000Y-128600000D02*
X102400000Y-132500000D01*
X105600000Y-98600000D02*
X105600000Y-102500000D01*
X102400000Y-102500000D02*
X105600000Y-102500000D01*
X102400000Y-98600000D02*
X102400000Y-102500000D01*
X115628750Y-75326248D02*
X115628750Y-75848752D01*
X114158750Y-75326248D02*
X114158750Y-75848752D01*
X104181492Y-72872500D02*
X104656008Y-72872500D01*
X104181492Y-71827500D02*
X104656008Y-71827500D01*
X103000000Y-106100000D02*
X99100000Y-106100000D01*
X103000000Y-102900000D02*
X99100000Y-102900000D01*
X99100000Y-102900000D02*
X99100000Y-106100000D01*
X116049758Y-65785798D02*
X115575242Y-65785798D01*
X116049758Y-64740798D02*
X115575242Y-64740798D01*
X103000000Y-136100000D02*
X99100000Y-136100000D01*
X103000000Y-132900000D02*
X99100000Y-132900000D01*
X99100000Y-132900000D02*
X99100000Y-136100000D01*
X104803750Y-83997500D02*
X104803750Y-83597500D01*
X104803750Y-83997500D02*
X99283750Y-83997500D01*
X104803750Y-78477500D02*
X104803750Y-78877500D01*
X104803750Y-78477500D02*
X99283750Y-78477500D01*
X99283750Y-83997500D02*
X99283750Y-83597500D01*
X99283750Y-78477500D02*
X99283750Y-78877500D01*
X100533750Y-76925000D02*
X100203750Y-77165000D01*
X100203750Y-76685000D01*
X100533750Y-76925000D01*
G36*
X100533750Y-76925000D02*
G01*
X100203750Y-77165000D01*
X100203750Y-76685000D01*
X100533750Y-76925000D01*
G37*
X103603750Y-75625000D02*
X103603750Y-76425000D01*
X103603750Y-75625000D02*
X103603750Y-74825000D01*
X100483750Y-75625000D02*
X100483750Y-76425000D01*
X100483750Y-75625000D02*
X100483750Y-74825000D01*
X109507498Y-72497500D02*
X110930002Y-72497500D01*
X109507498Y-70677500D02*
X110930002Y-70677500D01*
X124803750Y-83997500D02*
X124803750Y-83597500D01*
X124803750Y-83997500D02*
X119283750Y-83997500D01*
X124803750Y-78477500D02*
X124803750Y-78877500D01*
X124803750Y-78477500D02*
X119283750Y-78477500D01*
X119283750Y-83997500D02*
X119283750Y-83597500D01*
X119283750Y-78477500D02*
X119283750Y-78877500D01*
X131600002Y-135400000D02*
X131600002Y-131500000D01*
X131600002Y-131500000D02*
X128400002Y-131500000D01*
X128400002Y-135400000D02*
X128400002Y-131500000D01*
X130127500Y-69144923D02*
X134847500Y-69144923D01*
X130127500Y-69474923D02*
X130127500Y-69144923D01*
X130127500Y-71774923D02*
X130127500Y-71234923D01*
X130127500Y-73864923D02*
X130127500Y-73534923D01*
X130127500Y-73864923D02*
X134847500Y-73864923D01*
X134847500Y-70274923D02*
X134847500Y-69144923D01*
X134847500Y-73864923D02*
X134847500Y-72734923D01*
X134847500Y-68714923D02*
X134847500Y-67584923D01*
X134847500Y-65124923D02*
X134847500Y-63994923D01*
X130127500Y-68714923D02*
X134847500Y-68714923D01*
X130127500Y-68714923D02*
X130127500Y-68384923D01*
X130127500Y-66624923D02*
X130127500Y-66084923D01*
X130127500Y-64324923D02*
X130127500Y-63994923D01*
X130127500Y-63994923D02*
X134847500Y-63994923D01*
X165600000Y-128600000D02*
X165600000Y-132500000D01*
X162400000Y-132500000D02*
X165600000Y-132500000D01*
X162400000Y-128600000D02*
X162400000Y-132500000D01*
X96900000Y-68025001D02*
X95600000Y-68025001D01*
X96900000Y-66025001D02*
X96900000Y-68025001D01*
X96900000Y-58825001D02*
X96900000Y-60825001D01*
X91000000Y-68025001D02*
X88600000Y-68025001D01*
X88600000Y-58825001D02*
X96900000Y-58825001D01*
X110533750Y-76925000D02*
X110203750Y-77165000D01*
X110203750Y-76685000D01*
X110533750Y-76925000D01*
G36*
X110533750Y-76925000D02*
G01*
X110203750Y-77165000D01*
X110203750Y-76685000D01*
X110533750Y-76925000D01*
G37*
X113603750Y-75625000D02*
X113603750Y-76425000D01*
X113603750Y-75625000D02*
X113603750Y-74825000D01*
X110483750Y-75625000D02*
X110483750Y-76425000D01*
X110483750Y-75625000D02*
X110483750Y-74825000D01*
X110947500Y-63751042D02*
X110947500Y-64225558D01*
X109902500Y-63751042D02*
X109902500Y-64225558D01*
X124181492Y-72862498D02*
X124656008Y-72862498D01*
X124181492Y-71817498D02*
X124656008Y-71817498D01*
X124181492Y-69872500D02*
X124656008Y-69872500D01*
X124181492Y-68827500D02*
X124656008Y-68827500D01*
X133122500Y-79307835D02*
X133122500Y-78833319D01*
X132077500Y-79307835D02*
X132077500Y-78833319D01*
X134847500Y-63564923D02*
X134847500Y-62434923D01*
X134847500Y-59974923D02*
X134847500Y-58844923D01*
X130127500Y-63564923D02*
X134847500Y-63564923D01*
X130127500Y-63564923D02*
X130127500Y-63234923D01*
X130127500Y-61474923D02*
X130127500Y-60934923D01*
X130127500Y-59174923D02*
X130127500Y-58844923D01*
X130127500Y-58844923D02*
X134847500Y-58844923D01*
X101600000Y-128600000D02*
X101600000Y-132500000D01*
X98400000Y-132500000D02*
X101600000Y-132500000D01*
X98400000Y-128600000D02*
X98400000Y-132500000D01*
X85650000Y-80570000D02*
X87350000Y-80570000D01*
X85650000Y-71230000D02*
X87350000Y-71230000D01*
X135600000Y-135400000D02*
X135600000Y-131500000D01*
X135600000Y-131500000D02*
X132400000Y-131500000D01*
X132400000Y-135400000D02*
X132400000Y-131500000D01*
X109472500Y-63751042D02*
X109472500Y-64225558D01*
X108427500Y-63751042D02*
X108427500Y-64225558D01*
X131600001Y-105399999D02*
X131600001Y-101499999D01*
X131600001Y-101499999D02*
X128400001Y-101499999D01*
X128400001Y-105399999D02*
X128400001Y-101499999D01*
X114803750Y-83997500D02*
X114803750Y-83597500D01*
X114803750Y-83997500D02*
X109283750Y-83997500D01*
X114803750Y-78477500D02*
X114803750Y-78877500D01*
X114803750Y-78477500D02*
X109283750Y-78477500D01*
X109283750Y-83997500D02*
X109283750Y-83597500D01*
X109283750Y-78477500D02*
X109283750Y-78877500D01*
%LPC*%
D15*
X180787500Y-88500000D02*
G75*
G02*
X178212500Y-88500000I-1287500J0D01*
G01*
X178212500Y-88500000D02*
G75*
G02*
X180787500Y-88500000I1287500J0D01*
G01*
X85787500Y-88500000D02*
G75*
G02*
X83212500Y-88500000I-1287500J0D01*
G01*
X83212500Y-88500000D02*
G75*
G02*
X85787500Y-88500000I1287500J0D01*
G01*
X85787500Y-145500000D02*
G75*
G02*
X83212500Y-145500000I-1287500J0D01*
G01*
X83212500Y-145500000D02*
G75*
G02*
X85787500Y-145500000I1287500J0D01*
G01*
X180787500Y-145500000D02*
G75*
G02*
X178212500Y-145500000I-1287500J0D01*
G01*
X178212500Y-145500000D02*
G75*
G02*
X180787500Y-145500000I1287500J0D01*
G01*
D16*
X123600000Y-59700000D03*
X126400000Y-59700000D03*
D17*
X105700000Y-63900000D03*
X100300000Y-63900000D03*
D18*
X180000000Y-70410000D03*
D19*
X176970000Y-70710000D03*
X176970000Y-75560000D03*
D18*
X180000000Y-75860000D03*
D20*
X123750000Y-66962500D03*
D21*
X123837501Y-65462500D03*
D20*
X123750000Y-63962500D03*
D22*
X91400000Y-74199998D03*
X91400000Y-71400000D03*
D23*
X125499999Y-61900000D03*
X123600001Y-61900000D03*
D24*
X121750000Y-65300001D03*
X121750000Y-67199999D03*
D25*
X115243750Y-72350002D03*
X113593750Y-72350002D03*
D26*
X121093750Y-74487500D03*
X122993750Y-74487500D03*
X122993750Y-76762500D03*
X122043750Y-76762500D03*
X121093750Y-76762500D03*
D27*
X134100000Y-78245577D03*
X134100000Y-79895577D03*
D28*
X121693750Y-71587500D03*
X118743750Y-71587500D03*
D29*
X130875002Y-129500000D03*
D30*
X133450002Y-129500000D03*
D25*
X125243750Y-70850000D03*
X123593750Y-70850000D03*
D31*
X179500000Y-88500000D03*
D25*
X115243749Y-70850002D03*
X113593749Y-70850002D03*
D32*
X120887499Y-63038298D03*
X120887499Y-61138300D03*
D22*
X98743750Y-77300000D03*
X98743750Y-74500000D03*
D33*
X179500000Y-141000000D03*
D32*
X124893750Y-76537500D03*
X124893750Y-74637500D03*
X104893750Y-76537500D03*
X104893750Y-74637500D03*
D29*
X163125000Y-134500000D03*
D30*
X160550000Y-134500000D03*
D25*
X105243750Y-70850000D03*
X103593750Y-70850000D03*
D31*
X84500000Y-88500000D03*
D28*
X101693750Y-71587500D03*
X98743750Y-71587500D03*
D34*
X100000000Y-98475000D03*
D35*
X100000000Y-101050000D03*
D22*
X118743750Y-77300000D03*
X118743750Y-74500000D03*
X108743750Y-77300000D03*
X108743750Y-74500000D03*
D29*
X163125000Y-104500000D03*
D30*
X160550000Y-104500000D03*
D25*
X105243750Y-69350000D03*
X103593750Y-69350000D03*
D36*
X84500000Y-141000000D03*
D37*
X112649999Y-63738300D03*
X112649999Y-63088300D03*
X112649999Y-62438300D03*
X112649999Y-61788300D03*
X112649999Y-61138300D03*
X112649999Y-60488300D03*
X112649999Y-59838300D03*
X112649999Y-59188300D03*
X118374999Y-59188300D03*
X118374999Y-59838300D03*
X118374999Y-60488300D03*
X118374999Y-61138300D03*
X118374999Y-61788300D03*
X118374999Y-62438300D03*
X118374999Y-63088300D03*
X118374999Y-63738300D03*
D29*
X130875001Y-99499999D03*
D30*
X133450001Y-99499999D03*
D31*
X84500000Y-145500000D03*
D25*
X115243750Y-69350000D03*
X113593750Y-69350000D03*
D27*
X135600000Y-78245577D03*
X135600000Y-79895577D03*
D34*
X133999999Y-105524999D03*
D35*
X133999999Y-102949999D03*
D34*
X164000000Y-101525000D03*
D35*
X164000000Y-98950000D03*
D34*
X160000000Y-98475000D03*
D35*
X160000000Y-101050000D03*
D34*
X160000000Y-128475000D03*
D35*
X160000000Y-131050000D03*
D34*
X104000000Y-131525000D03*
D35*
X104000000Y-128950000D03*
D34*
X104000000Y-101525000D03*
D35*
X104000000Y-98950000D03*
D32*
X114893750Y-76537500D03*
X114893750Y-74637500D03*
D25*
X105243750Y-72350000D03*
X103593750Y-72350000D03*
D29*
X103125000Y-104500000D03*
D30*
X100550000Y-104500000D03*
D38*
X114987500Y-65263298D03*
X116637500Y-65263298D03*
D29*
X103125000Y-134500000D03*
D30*
X100550000Y-134500000D03*
D39*
X100193750Y-81237500D03*
X103893750Y-81237500D03*
D26*
X101093750Y-74487500D03*
X102993750Y-74487500D03*
X102993750Y-76762500D03*
X102043750Y-76762500D03*
X101093750Y-76762500D03*
D28*
X111693750Y-71587500D03*
X108743750Y-71587500D03*
D39*
X120193750Y-81237500D03*
X123893750Y-81237500D03*
D34*
X130000002Y-132475000D03*
D35*
X130000002Y-135050000D03*
D40*
X129737500Y-70354923D03*
D41*
X135237500Y-71504923D03*
D40*
X129737500Y-72654923D03*
X129737500Y-67504923D03*
D41*
X135237500Y-66354923D03*
D40*
X129737500Y-65204923D03*
D34*
X164000000Y-131525000D03*
D35*
X164000000Y-128950000D03*
D42*
X93300000Y-68225001D03*
D43*
X89900000Y-63425001D03*
D44*
X96200000Y-63425001D03*
D33*
X85000000Y-60000000D03*
X179500000Y-59500000D03*
D26*
X111093750Y-74487500D03*
X112993750Y-74487500D03*
X112993750Y-76762500D03*
X112043750Y-76762500D03*
X111093750Y-76762500D03*
D45*
X110425000Y-64813300D03*
X110425000Y-63163300D03*
D25*
X125243750Y-72339998D03*
X123593750Y-72339998D03*
X125243750Y-69350000D03*
X123593750Y-69350000D03*
D27*
X132600000Y-78245577D03*
X132600000Y-79895577D03*
D40*
X129737500Y-62354923D03*
D41*
X135237500Y-61204923D03*
D40*
X129737500Y-60054923D03*
D31*
X179500000Y-145500000D03*
D34*
X100000000Y-128475000D03*
D35*
X100000000Y-131050000D03*
D46*
X84600000Y-80220000D03*
X88400000Y-80220000D03*
X84600000Y-71580000D03*
X88400000Y-71580000D03*
D47*
X88900000Y-73150000D03*
D48*
X88900000Y-74380000D03*
D49*
X88899999Y-76400000D03*
D50*
X88900000Y-78650000D03*
D51*
X88900000Y-77420000D03*
D52*
X88899999Y-75400000D03*
D34*
X134000000Y-135525000D03*
D35*
X134000000Y-132950000D03*
D45*
X108950000Y-64813300D03*
X108950000Y-63163300D03*
D34*
X130000001Y-102474999D03*
D35*
X130000001Y-105049999D03*
D39*
X110193750Y-81237500D03*
X113893750Y-81237500D03*
D36*
X177000000Y-59500000D03*
%LPD*%
M02*
