%TF.GenerationSoftware,KiCad,Pcbnew,9.0.1-rc2*%
%TF.CreationDate,2025-10-07T22:29:05-07:00*%
%TF.ProjectId,backlight,6261636b-6c69-4676-9874-2e6b69636164,rev?*%
%TF.SameCoordinates,Original*%
%TF.FileFunction,Drillmap*%
%TF.FilePolarity,Positive*%
%FSLAX45Y45*%
G04 Gerber Fmt 4.5, Leading zero omitted, Abs format (unit mm)*
G04 Created by KiCad (PCBNEW 9.0.1-rc2) date 2025-10-07 22:29:05*
%MOMM*%
%LPD*%
G01*
G04 APERTURE LIST*
%ADD10C,0.050000*%
%ADD11C,0.200000*%
%ADD12C,0.100000*%
G04 APERTURE END LIST*
D10*
X18100000Y-5800000D02*
G75*
G02*
X18200000Y-5900000I0J-100000D01*
G01*
X8200000Y-5900000D02*
G75*
G02*
X8300000Y-5800000I100000J0D01*
G01*
X8300000Y-5800000D02*
X18100000Y-5800000D01*
X8450000Y-14800000D02*
G75*
G02*
X8200000Y-14550000I0J250000D01*
G01*
X8200000Y-14550000D02*
X8200000Y-5900000D01*
X17950000Y-14800000D02*
X8450000Y-14800000D01*
X18200000Y-5900000D02*
X18200000Y-14550000D01*
X18200000Y-14550000D02*
G75*
G02*
X17950000Y-14800000I-250000J0D01*
G01*
D11*
D12*
X8355000Y-7425000D02*
X8385000Y-7455000D01*
X8385000Y-7425000D02*
X8355000Y-7455000D01*
X8655000Y-7300000D02*
X8685000Y-7330000D01*
X8685000Y-7300000D02*
X8655000Y-7330000D01*
X8655000Y-7847500D02*
X8685000Y-7877500D01*
X8685000Y-7847500D02*
X8655000Y-7877500D01*
X8725000Y-7525000D02*
X8755000Y-7555000D01*
X8755000Y-7525000D02*
X8725000Y-7555000D01*
X8725000Y-7625000D02*
X8755000Y-7655000D01*
X8755000Y-7625000D02*
X8725000Y-7655000D01*
X8752500Y-7300000D02*
X8782500Y-7330000D01*
X8782500Y-7300000D02*
X8752500Y-7330000D01*
X8752500Y-7847500D02*
X8782500Y-7877500D01*
X8782500Y-7847500D02*
X8752500Y-7877500D01*
X10026875Y-7043750D02*
X10056875Y-7073750D01*
X10056875Y-7043750D02*
X10026875Y-7073750D01*
X10026875Y-7143750D02*
X10056875Y-7173750D01*
X10056875Y-7143750D02*
X10026875Y-7173750D01*
X10026875Y-7243750D02*
X10056875Y-7273750D01*
X10056875Y-7243750D02*
X10026875Y-7273750D01*
X10189375Y-7318750D02*
X10219375Y-7348750D01*
X10219375Y-7318750D02*
X10189375Y-7348750D01*
X10189375Y-7547500D02*
X10219375Y-7577500D01*
X10219375Y-7547500D02*
X10189375Y-7577500D01*
X10189375Y-7787500D02*
X10219375Y-7817500D01*
X10219375Y-7787500D02*
X10189375Y-7817500D01*
X10284375Y-7788750D02*
X10314375Y-7818750D01*
X10314375Y-7788750D02*
X10284375Y-7818750D01*
X10395000Y-6235000D02*
X10425000Y-6265000D01*
X10425000Y-6235000D02*
X10395000Y-6265000D01*
X10395000Y-6515000D02*
X10425000Y-6545000D01*
X10425000Y-6515000D02*
X10395000Y-6545000D01*
X10475000Y-6235000D02*
X10505000Y-6265000D01*
X10505000Y-6235000D02*
X10475000Y-6265000D01*
X10475000Y-6515000D02*
X10505000Y-6545000D01*
X10505000Y-6515000D02*
X10475000Y-6545000D01*
X10877500Y-6575000D02*
X10907500Y-6605000D01*
X10907500Y-6575000D02*
X10877500Y-6605000D01*
X10975000Y-6098830D02*
X11005000Y-6128830D01*
X11005000Y-6098830D02*
X10975000Y-6128830D01*
X11027500Y-6575000D02*
X11057500Y-6605000D01*
X11057500Y-6575000D02*
X11027500Y-6605000D01*
X11027500Y-7042500D02*
X11057500Y-7072500D01*
X11057500Y-7042500D02*
X11027500Y-7072500D01*
X11027500Y-7142500D02*
X11057500Y-7172500D01*
X11057500Y-7142500D02*
X11027500Y-7172500D01*
X11027500Y-7242500D02*
X11057500Y-7272500D01*
X11057500Y-7242500D02*
X11027500Y-7272500D01*
X11072500Y-6163830D02*
X11102500Y-6193830D01*
X11102500Y-6163830D02*
X11072500Y-6193830D01*
X11190000Y-7317500D02*
X11220000Y-7347500D01*
X11220000Y-7317500D02*
X11190000Y-7347500D01*
X11190000Y-7546250D02*
X11220000Y-7576250D01*
X11220000Y-7546250D02*
X11190000Y-7576250D01*
X11190000Y-7786250D02*
X11220000Y-7816250D01*
X11220000Y-7786250D02*
X11190000Y-7816250D01*
X11284375Y-7785000D02*
X11314375Y-7815000D01*
X11314375Y-7785000D02*
X11284375Y-7815000D01*
X11628750Y-6098830D02*
X11658750Y-6128830D01*
X11658750Y-6098830D02*
X11628750Y-6128830D01*
X11949000Y-6098830D02*
X11979000Y-6128830D01*
X11979000Y-6098830D02*
X11949000Y-6128830D01*
X12026875Y-7041250D02*
X12056875Y-7071250D01*
X12056875Y-7041250D02*
X12026875Y-7071250D01*
X12026875Y-7141250D02*
X12056875Y-7171250D01*
X12056875Y-7141250D02*
X12026875Y-7171250D01*
X12026875Y-7241250D02*
X12056875Y-7271250D01*
X12056875Y-7241250D02*
X12026875Y-7271250D01*
X12030000Y-6515000D02*
X12060000Y-6545000D01*
X12060000Y-6515000D02*
X12030000Y-6545000D01*
X12075000Y-6407580D02*
X12105000Y-6437580D01*
X12105000Y-6407580D02*
X12075000Y-6437580D01*
X12189375Y-7316250D02*
X12219375Y-7346250D01*
X12219375Y-7316250D02*
X12189375Y-7346250D01*
X12189375Y-7545000D02*
X12219375Y-7575000D01*
X12219375Y-7545000D02*
X12189375Y-7575000D01*
X12189375Y-7785000D02*
X12219375Y-7815000D01*
X12219375Y-7785000D02*
X12189375Y-7815000D01*
X12284375Y-7783750D02*
X12314375Y-7813750D01*
X12314375Y-7783750D02*
X12284375Y-7813750D01*
X12535000Y-6362500D02*
X12565000Y-6392500D01*
X12565000Y-6362500D02*
X12535000Y-6392500D01*
X12535000Y-6702500D02*
X12565000Y-6732500D01*
X12565000Y-6702500D02*
X12535000Y-6732500D01*
X12630000Y-6365000D02*
X12660000Y-6395000D01*
X12660000Y-6365000D02*
X12630000Y-6395000D01*
X12630000Y-6705000D02*
X12660000Y-6735000D01*
X12660000Y-6705000D02*
X12630000Y-6735000D01*
X12640000Y-6172500D02*
X12670000Y-6202500D01*
X12670000Y-6172500D02*
X12640000Y-6202500D01*
X12725000Y-6365000D02*
X12755000Y-6395000D01*
X12755000Y-6365000D02*
X12725000Y-6395000D01*
X12725000Y-6705000D02*
X12755000Y-6735000D01*
X12755000Y-6705000D02*
X12725000Y-6735000D01*
X12785000Y-7870000D02*
X12815000Y-7900000D01*
X12815000Y-7870000D02*
X12785000Y-7900000D01*
X12865000Y-7949900D02*
X12895000Y-7979900D01*
X12895000Y-7949900D02*
X12865000Y-7979900D01*
X12935000Y-6357500D02*
X12965000Y-6387500D01*
X12965000Y-6357500D02*
X12935000Y-6387500D01*
X12945000Y-8030000D02*
X12975000Y-8060000D01*
X12975000Y-8030000D02*
X12945000Y-8060000D01*
X13007500Y-7822500D02*
X13037500Y-7852500D01*
X13037500Y-7822500D02*
X13007500Y-7852500D01*
X13090000Y-6735000D02*
X13120000Y-6765000D01*
X13120000Y-6735000D02*
X13090000Y-6765000D01*
X13100000Y-7705000D02*
X13130000Y-7735000D01*
X13130000Y-7705000D02*
X13100000Y-7735000D01*
X13245000Y-7705000D02*
X13275000Y-7735000D01*
X13275000Y-7705000D02*
X13245000Y-7735000D01*
X13375000Y-6085000D02*
X13405000Y-6115000D01*
X13405000Y-6085000D02*
X13375000Y-6115000D01*
X13375000Y-6620492D02*
X13405000Y-6650492D01*
X13405000Y-6620492D02*
X13375000Y-6650492D01*
X13395000Y-7705000D02*
X13425000Y-7735000D01*
X13425000Y-7705000D02*
X13395000Y-7735000D01*
X13507500Y-6985000D02*
X13537500Y-7015000D01*
X13537500Y-6985000D02*
X13507500Y-7015000D01*
X13545000Y-7705000D02*
X13575000Y-7735000D01*
X13575000Y-7705000D02*
X13545000Y-7735000D01*
X13672500Y-7975000D02*
X13702500Y-8005000D01*
X13702500Y-7975000D02*
X13672500Y-8005000D01*
X17745000Y-6575000D02*
X17775000Y-6605000D01*
X17775000Y-6575000D02*
X17745000Y-6605000D01*
X10540000Y-7820000D02*
G75*
G02*
X10500000Y-7820000I-20000J0D01*
G01*
X10500000Y-7820000D02*
G75*
G02*
X10540000Y-7820000I20000J0D01*
G01*
X11540000Y-7820000D02*
G75*
G02*
X11500000Y-7820000I-20000J0D01*
G01*
X11500000Y-7820000D02*
G75*
G02*
X11540000Y-7820000I20000J0D01*
G01*
X12540000Y-7820000D02*
G75*
G02*
X12500000Y-7820000I-20000J0D01*
G01*
X12500000Y-7820000D02*
G75*
G02*
X12540000Y-7820000I20000J0D01*
G01*
X8460000Y-7133000D02*
X8460000Y-7183000D01*
X8435000Y-7158000D02*
X8485000Y-7158000D01*
X8495000Y-7133000D02*
X8425000Y-7133000D01*
X8425000Y-7183000D02*
G75*
G02*
X8425000Y-7133000I0J25000D01*
G01*
X8425000Y-7183000D02*
X8495000Y-7183000D01*
X8495000Y-7183000D02*
G75*
G03*
X8495000Y-7133000I0J25000D01*
G01*
X8460000Y-7997000D02*
X8460000Y-8047000D01*
X8435000Y-8022000D02*
X8485000Y-8022000D01*
X8495000Y-7997000D02*
X8425000Y-7997000D01*
X8425000Y-8047000D02*
G75*
G02*
X8425000Y-7997000I0J25000D01*
G01*
X8425000Y-8047000D02*
X8495000Y-8047000D01*
X8495000Y-8047000D02*
G75*
G03*
X8495000Y-7997000I0J25000D01*
G01*
X8840000Y-7133000D02*
X8840000Y-7183000D01*
X8815000Y-7158000D02*
X8865000Y-7158000D01*
X8875000Y-7133000D02*
X8805000Y-7133000D01*
X8805000Y-7183000D02*
G75*
G02*
X8805000Y-7133000I0J25000D01*
G01*
X8805000Y-7183000D02*
X8875000Y-7183000D01*
X8875000Y-7183000D02*
G75*
G03*
X8875000Y-7133000I0J25000D01*
G01*
X8840000Y-7997000D02*
X8840000Y-8047000D01*
X8815000Y-8022000D02*
X8865000Y-8022000D01*
X8875000Y-7997000D02*
X8805000Y-7997000D01*
X8805000Y-8047000D02*
G75*
G02*
X8805000Y-7997000I0J25000D01*
G01*
X8805000Y-8047000D02*
X8875000Y-8047000D01*
X8875000Y-8047000D02*
G75*
G03*
X8875000Y-7997000I0J25000D01*
G01*
X8901213Y-11901213D02*
X8901213Y-11858787D01*
X8858787Y-11858787D01*
X8858787Y-11901213D01*
X8901213Y-11901213D01*
X8901213Y-13701213D02*
X8901213Y-13658787D01*
X8858787Y-13658787D01*
X8858787Y-13701213D01*
X8901213Y-13701213D01*
X9321213Y-9221213D02*
X9321213Y-9178787D01*
X9278787Y-9178787D01*
X9278787Y-9221213D01*
X9321213Y-9221213D01*
X9321213Y-9621213D02*
X9321213Y-9578787D01*
X9278787Y-9578787D01*
X9278787Y-9621213D01*
X9321213Y-9621213D01*
X9321213Y-10071213D02*
X9321213Y-10028787D01*
X9278787Y-10028787D01*
X9278787Y-10071213D01*
X9321213Y-10071213D01*
X9321213Y-10471213D02*
X9321213Y-10428787D01*
X9278787Y-10428787D01*
X9278787Y-10471213D01*
X9321213Y-10471213D01*
X9321213Y-10921213D02*
X9321213Y-10878787D01*
X9278787Y-10878787D01*
X9278787Y-10921213D01*
X9321213Y-10921213D01*
X9321213Y-12221213D02*
X9321213Y-12178787D01*
X9278787Y-12178787D01*
X9278787Y-12221213D01*
X9321213Y-12221213D01*
X9321213Y-12621213D02*
X9321213Y-12578787D01*
X9278787Y-12578787D01*
X9278787Y-12621213D01*
X9321213Y-12621213D01*
X9321213Y-13071213D02*
X9321213Y-13028787D01*
X9278787Y-13028787D01*
X9278787Y-13071213D01*
X9321213Y-13071213D01*
X9321213Y-13471213D02*
X9321213Y-13428787D01*
X9278787Y-13428787D01*
X9278787Y-13471213D01*
X9321213Y-13471213D01*
X9321213Y-13921213D02*
X9321213Y-13878787D01*
X9278787Y-13878787D01*
X9278787Y-13921213D01*
X9321213Y-13921213D01*
X9521213Y-9421213D02*
X9521213Y-9378787D01*
X9478787Y-9378787D01*
X9478787Y-9421213D01*
X9521213Y-9421213D01*
X9521213Y-9871213D02*
X9521213Y-9828787D01*
X9478787Y-9828787D01*
X9478787Y-9871213D01*
X9521213Y-9871213D01*
X9521213Y-10271213D02*
X9521213Y-10228787D01*
X9478787Y-10228787D01*
X9478787Y-10271213D01*
X9521213Y-10271213D01*
X9521213Y-10671213D02*
X9521213Y-10628787D01*
X9478787Y-10628787D01*
X9478787Y-10671213D01*
X9521213Y-10671213D01*
X9521213Y-11121213D02*
X9521213Y-11078787D01*
X9478787Y-11078787D01*
X9478787Y-11121213D01*
X9521213Y-11121213D01*
X9521213Y-12421213D02*
X9521213Y-12378787D01*
X9478787Y-12378787D01*
X9478787Y-12421213D01*
X9521213Y-12421213D01*
X9521213Y-12871213D02*
X9521213Y-12828787D01*
X9478787Y-12828787D01*
X9478787Y-12871213D01*
X9521213Y-12871213D01*
X9521213Y-13271213D02*
X9521213Y-13228787D01*
X9478787Y-13228787D01*
X9478787Y-13271213D01*
X9521213Y-13271213D01*
X9521213Y-13671213D02*
X9521213Y-13628787D01*
X9478787Y-13628787D01*
X9478787Y-13671213D01*
X9521213Y-13671213D01*
X9521213Y-14121213D02*
X9521213Y-14078787D01*
X9478787Y-14078787D01*
X9478787Y-14121213D01*
X9521213Y-14121213D01*
X9721213Y-9221213D02*
X9721213Y-9178787D01*
X9678787Y-9178787D01*
X9678787Y-9221213D01*
X9721213Y-9221213D01*
X9721213Y-9621213D02*
X9721213Y-9578787D01*
X9678787Y-9578787D01*
X9678787Y-9621213D01*
X9721213Y-9621213D01*
X9721213Y-9871213D02*
X9721213Y-9828787D01*
X9678787Y-9828787D01*
X9678787Y-9871213D01*
X9721213Y-9871213D01*
X9721213Y-10071213D02*
X9721213Y-10028787D01*
X9678787Y-10028787D01*
X9678787Y-10071213D01*
X9721213Y-10071213D01*
X9721213Y-10271213D02*
X9721213Y-10228787D01*
X9678787Y-10228787D01*
X9678787Y-10271213D01*
X9721213Y-10271213D01*
X9721213Y-10471213D02*
X9721213Y-10428787D01*
X9678787Y-10428787D01*
X9678787Y-10471213D01*
X9721213Y-10471213D01*
X9721213Y-10671213D02*
X9721213Y-10628787D01*
X9678787Y-10628787D01*
X9678787Y-10671213D01*
X9721213Y-10671213D01*
X9721213Y-10921213D02*
X9721213Y-10878787D01*
X9678787Y-10878787D01*
X9678787Y-10921213D01*
X9721213Y-10921213D01*
X9721213Y-11321213D02*
X9721213Y-11278787D01*
X9678787Y-11278787D01*
X9678787Y-11321213D01*
X9721213Y-11321213D01*
X9721213Y-12221213D02*
X9721213Y-12178787D01*
X9678787Y-12178787D01*
X9678787Y-12221213D01*
X9721213Y-12221213D01*
X9721213Y-12621213D02*
X9721213Y-12578787D01*
X9678787Y-12578787D01*
X9678787Y-12621213D01*
X9721213Y-12621213D01*
X9721213Y-12871213D02*
X9721213Y-12828787D01*
X9678787Y-12828787D01*
X9678787Y-12871213D01*
X9721213Y-12871213D01*
X9721213Y-13071213D02*
X9721213Y-13028787D01*
X9678787Y-13028787D01*
X9678787Y-13071213D01*
X9721213Y-13071213D01*
X9721213Y-13271213D02*
X9721213Y-13228787D01*
X9678787Y-13228787D01*
X9678787Y-13271213D01*
X9721213Y-13271213D01*
X9721213Y-13471213D02*
X9721213Y-13428787D01*
X9678787Y-13428787D01*
X9678787Y-13471213D01*
X9721213Y-13471213D01*
X9721213Y-13671213D02*
X9721213Y-13628787D01*
X9678787Y-13628787D01*
X9678787Y-13671213D01*
X9721213Y-13671213D01*
X9721213Y-13921213D02*
X9721213Y-13878787D01*
X9678787Y-13878787D01*
X9678787Y-13921213D01*
X9721213Y-13921213D01*
X9721213Y-14321213D02*
X9721213Y-14278787D01*
X9678787Y-14278787D01*
X9678787Y-14321213D01*
X9721213Y-14321213D01*
X9921213Y-9021213D02*
X9921213Y-8978787D01*
X9878787Y-8978787D01*
X9878787Y-9021213D01*
X9921213Y-9021213D01*
X9921213Y-9421213D02*
X9921213Y-9378787D01*
X9878787Y-9378787D01*
X9878787Y-9421213D01*
X9921213Y-9421213D01*
X9921213Y-9621213D02*
X9921213Y-9578787D01*
X9878787Y-9578787D01*
X9878787Y-9621213D01*
X9921213Y-9621213D01*
X9921213Y-10921213D02*
X9921213Y-10878787D01*
X9878787Y-10878787D01*
X9878787Y-10921213D01*
X9921213Y-10921213D01*
X9921213Y-11121213D02*
X9921213Y-11078787D01*
X9878787Y-11078787D01*
X9878787Y-11121213D01*
X9921213Y-11121213D01*
X9921213Y-12021213D02*
X9921213Y-11978787D01*
X9878787Y-11978787D01*
X9878787Y-12021213D01*
X9921213Y-12021213D01*
X9921213Y-12421213D02*
X9921213Y-12378787D01*
X9878787Y-12378787D01*
X9878787Y-12421213D01*
X9921213Y-12421213D01*
X9921213Y-12621213D02*
X9921213Y-12578787D01*
X9878787Y-12578787D01*
X9878787Y-12621213D01*
X9921213Y-12621213D01*
X9921213Y-13921213D02*
X9921213Y-13878787D01*
X9878787Y-13878787D01*
X9878787Y-13921213D01*
X9921213Y-13921213D01*
X9921213Y-14121213D02*
X9921213Y-14078787D01*
X9878787Y-14078787D01*
X9878787Y-14121213D01*
X9921213Y-14121213D01*
X10121213Y-9221213D02*
X10121213Y-9178787D01*
X10078787Y-9178787D01*
X10078787Y-9221213D01*
X10121213Y-9221213D01*
X10121213Y-9421213D02*
X10121213Y-9378787D01*
X10078787Y-9378787D01*
X10078787Y-9421213D01*
X10121213Y-9421213D01*
X10121213Y-9621213D02*
X10121213Y-9578787D01*
X10078787Y-9578787D01*
X10078787Y-9621213D01*
X10121213Y-9621213D01*
X10121213Y-10771213D02*
X10121213Y-10728787D01*
X10078787Y-10728787D01*
X10078787Y-10771213D01*
X10121213Y-10771213D01*
X10121213Y-10921213D02*
X10121213Y-10878787D01*
X10078787Y-10878787D01*
X10078787Y-10921213D01*
X10121213Y-10921213D01*
X10121213Y-11121213D02*
X10121213Y-11078787D01*
X10078787Y-11078787D01*
X10078787Y-11121213D01*
X10121213Y-11121213D01*
X10121213Y-11321213D02*
X10121213Y-11278787D01*
X10078787Y-11278787D01*
X10078787Y-11321213D01*
X10121213Y-11321213D01*
X10121213Y-12221213D02*
X10121213Y-12178787D01*
X10078787Y-12178787D01*
X10078787Y-12221213D01*
X10121213Y-12221213D01*
X10121213Y-12421213D02*
X10121213Y-12378787D01*
X10078787Y-12378787D01*
X10078787Y-12421213D01*
X10121213Y-12421213D01*
X10121213Y-12621213D02*
X10121213Y-12578787D01*
X10078787Y-12578787D01*
X10078787Y-12621213D01*
X10121213Y-12621213D01*
X10121213Y-13771213D02*
X10121213Y-13728787D01*
X10078787Y-13728787D01*
X10078787Y-13771213D01*
X10121213Y-13771213D01*
X10121213Y-13921213D02*
X10121213Y-13878787D01*
X10078787Y-13878787D01*
X10078787Y-13921213D01*
X10121213Y-13921213D01*
X10121213Y-14121213D02*
X10121213Y-14078787D01*
X10078787Y-14078787D01*
X10078787Y-14121213D01*
X10121213Y-14121213D01*
X10121213Y-14321213D02*
X10121213Y-14278787D01*
X10078787Y-14278787D01*
X10078787Y-14321213D01*
X10121213Y-14321213D01*
X10321213Y-9221213D02*
X10321213Y-9178787D01*
X10278787Y-9178787D01*
X10278787Y-9221213D01*
X10321213Y-9221213D01*
X10321213Y-9421213D02*
X10321213Y-9378787D01*
X10278787Y-9378787D01*
X10278787Y-9421213D01*
X10321213Y-9421213D01*
X10321213Y-9621213D02*
X10321213Y-9578787D01*
X10278787Y-9578787D01*
X10278787Y-9621213D01*
X10321213Y-9621213D01*
X10321213Y-10771213D02*
X10321213Y-10728787D01*
X10278787Y-10728787D01*
X10278787Y-10771213D01*
X10321213Y-10771213D01*
X10321213Y-10921213D02*
X10321213Y-10878787D01*
X10278787Y-10878787D01*
X10278787Y-10921213D01*
X10321213Y-10921213D01*
X10321213Y-11121213D02*
X10321213Y-11078787D01*
X10278787Y-11078787D01*
X10278787Y-11121213D01*
X10321213Y-11121213D01*
X10321213Y-11321213D02*
X10321213Y-11278787D01*
X10278787Y-11278787D01*
X10278787Y-11321213D01*
X10321213Y-11321213D01*
X10321213Y-12221213D02*
X10321213Y-12178787D01*
X10278787Y-12178787D01*
X10278787Y-12221213D01*
X10321213Y-12221213D01*
X10321213Y-12421213D02*
X10321213Y-12378787D01*
X10278787Y-12378787D01*
X10278787Y-12421213D01*
X10321213Y-12421213D01*
X10321213Y-12621213D02*
X10321213Y-12578787D01*
X10278787Y-12578787D01*
X10278787Y-12621213D01*
X10321213Y-12621213D01*
X10321213Y-13771213D02*
X10321213Y-13728787D01*
X10278787Y-13728787D01*
X10278787Y-13771213D01*
X10321213Y-13771213D01*
X10321213Y-13921213D02*
X10321213Y-13878787D01*
X10278787Y-13878787D01*
X10278787Y-13921213D01*
X10321213Y-13921213D01*
X10321213Y-14121213D02*
X10321213Y-14078787D01*
X10278787Y-14078787D01*
X10278787Y-14121213D01*
X10321213Y-14121213D01*
X10321213Y-14321213D02*
X10321213Y-14278787D01*
X10278787Y-14278787D01*
X10278787Y-14321213D01*
X10321213Y-14321213D01*
X10521213Y-9021213D02*
X10521213Y-8978787D01*
X10478787Y-8978787D01*
X10478787Y-9021213D01*
X10521213Y-9021213D01*
X10521213Y-9421213D02*
X10521213Y-9378787D01*
X10478787Y-9378787D01*
X10478787Y-9421213D01*
X10521213Y-9421213D01*
X10521213Y-9621213D02*
X10521213Y-9578787D01*
X10478787Y-9578787D01*
X10478787Y-9621213D01*
X10521213Y-9621213D01*
X10521213Y-10921213D02*
X10521213Y-10878787D01*
X10478787Y-10878787D01*
X10478787Y-10921213D01*
X10521213Y-10921213D01*
X10521213Y-11121213D02*
X10521213Y-11078787D01*
X10478787Y-11078787D01*
X10478787Y-11121213D01*
X10521213Y-11121213D01*
X10521213Y-12021213D02*
X10521213Y-11978787D01*
X10478787Y-11978787D01*
X10478787Y-12021213D01*
X10521213Y-12021213D01*
X10521213Y-12421213D02*
X10521213Y-12378787D01*
X10478787Y-12378787D01*
X10478787Y-12421213D01*
X10521213Y-12421213D01*
X10521213Y-12621213D02*
X10521213Y-12578787D01*
X10478787Y-12578787D01*
X10478787Y-12621213D01*
X10521213Y-12621213D01*
X10521213Y-13921213D02*
X10521213Y-13878787D01*
X10478787Y-13878787D01*
X10478787Y-13921213D01*
X10521213Y-13921213D01*
X10521213Y-14121213D02*
X10521213Y-14078787D01*
X10478787Y-14078787D01*
X10478787Y-14121213D01*
X10521213Y-14121213D01*
X10721213Y-9221213D02*
X10721213Y-9178787D01*
X10678787Y-9178787D01*
X10678787Y-9221213D01*
X10721213Y-9221213D01*
X10721213Y-9621213D02*
X10721213Y-9578787D01*
X10678787Y-9578787D01*
X10678787Y-9621213D01*
X10721213Y-9621213D01*
X10721213Y-9871213D02*
X10721213Y-9828787D01*
X10678787Y-9828787D01*
X10678787Y-9871213D01*
X10721213Y-9871213D01*
X10721213Y-10071213D02*
X10721213Y-10028787D01*
X10678787Y-10028787D01*
X10678787Y-10071213D01*
X10721213Y-10071213D01*
X10721213Y-10271213D02*
X10721213Y-10228787D01*
X10678787Y-10228787D01*
X10678787Y-10271213D01*
X10721213Y-10271213D01*
X10721213Y-10471213D02*
X10721213Y-10428787D01*
X10678787Y-10428787D01*
X10678787Y-10471213D01*
X10721213Y-10471213D01*
X10721213Y-10671213D02*
X10721213Y-10628787D01*
X10678787Y-10628787D01*
X10678787Y-10671213D01*
X10721213Y-10671213D01*
X10721213Y-10921213D02*
X10721213Y-10878787D01*
X10678787Y-10878787D01*
X10678787Y-10921213D01*
X10721213Y-10921213D01*
X10721213Y-11321213D02*
X10721213Y-11278787D01*
X10678787Y-11278787D01*
X10678787Y-11321213D01*
X10721213Y-11321213D01*
X10721213Y-12221213D02*
X10721213Y-12178787D01*
X10678787Y-12178787D01*
X10678787Y-12221213D01*
X10721213Y-12221213D01*
X10721213Y-12621213D02*
X10721213Y-12578787D01*
X10678787Y-12578787D01*
X10678787Y-12621213D01*
X10721213Y-12621213D01*
X10721213Y-12871213D02*
X10721213Y-12828787D01*
X10678787Y-12828787D01*
X10678787Y-12871213D01*
X10721213Y-12871213D01*
X10721213Y-13071213D02*
X10721213Y-13028787D01*
X10678787Y-13028787D01*
X10678787Y-13071213D01*
X10721213Y-13071213D01*
X10721213Y-13271213D02*
X10721213Y-13228787D01*
X10678787Y-13228787D01*
X10678787Y-13271213D01*
X10721213Y-13271213D01*
X10721213Y-13471213D02*
X10721213Y-13428787D01*
X10678787Y-13428787D01*
X10678787Y-13471213D01*
X10721213Y-13471213D01*
X10721213Y-13671213D02*
X10721213Y-13628787D01*
X10678787Y-13628787D01*
X10678787Y-13671213D01*
X10721213Y-13671213D01*
X10721213Y-13921213D02*
X10721213Y-13878787D01*
X10678787Y-13878787D01*
X10678787Y-13921213D01*
X10721213Y-13921213D01*
X10721213Y-14321213D02*
X10721213Y-14278787D01*
X10678787Y-14278787D01*
X10678787Y-14321213D01*
X10721213Y-14321213D01*
X10921213Y-9421213D02*
X10921213Y-9378787D01*
X10878787Y-9378787D01*
X10878787Y-9421213D01*
X10921213Y-9421213D01*
X10921213Y-9871213D02*
X10921213Y-9828787D01*
X10878787Y-9828787D01*
X10878787Y-9871213D01*
X10921213Y-9871213D01*
X10921213Y-10271213D02*
X10921213Y-10228787D01*
X10878787Y-10228787D01*
X10878787Y-10271213D01*
X10921213Y-10271213D01*
X10921213Y-10671213D02*
X10921213Y-10628787D01*
X10878787Y-10628787D01*
X10878787Y-10671213D01*
X10921213Y-10671213D01*
X10921213Y-11121213D02*
X10921213Y-11078787D01*
X10878787Y-11078787D01*
X10878787Y-11121213D01*
X10921213Y-11121213D01*
X10921213Y-12421213D02*
X10921213Y-12378787D01*
X10878787Y-12378787D01*
X10878787Y-12421213D01*
X10921213Y-12421213D01*
X10921213Y-12871213D02*
X10921213Y-12828787D01*
X10878787Y-12828787D01*
X10878787Y-12871213D01*
X10921213Y-12871213D01*
X10921213Y-13271213D02*
X10921213Y-13228787D01*
X10878787Y-13228787D01*
X10878787Y-13271213D01*
X10921213Y-13271213D01*
X10921213Y-13671213D02*
X10921213Y-13628787D01*
X10878787Y-13628787D01*
X10878787Y-13671213D01*
X10921213Y-13671213D01*
X10921213Y-14121213D02*
X10921213Y-14078787D01*
X10878787Y-14078787D01*
X10878787Y-14121213D01*
X10921213Y-14121213D01*
X11121213Y-9221213D02*
X11121213Y-9178787D01*
X11078787Y-9178787D01*
X11078787Y-9221213D01*
X11121213Y-9221213D01*
X11121213Y-9621213D02*
X11121213Y-9578787D01*
X11078787Y-9578787D01*
X11078787Y-9621213D01*
X11121213Y-9621213D01*
X11121213Y-10071213D02*
X11121213Y-10028787D01*
X11078787Y-10028787D01*
X11078787Y-10071213D01*
X11121213Y-10071213D01*
X11121213Y-10471213D02*
X11121213Y-10428787D01*
X11078787Y-10428787D01*
X11078787Y-10471213D01*
X11121213Y-10471213D01*
X11121213Y-10921213D02*
X11121213Y-10878787D01*
X11078787Y-10878787D01*
X11078787Y-10921213D01*
X11121213Y-10921213D01*
X11121213Y-12221213D02*
X11121213Y-12178787D01*
X11078787Y-12178787D01*
X11078787Y-12221213D01*
X11121213Y-12221213D01*
X11121213Y-12621213D02*
X11121213Y-12578787D01*
X11078787Y-12578787D01*
X11078787Y-12621213D01*
X11121213Y-12621213D01*
X11121213Y-13071213D02*
X11121213Y-13028787D01*
X11078787Y-13028787D01*
X11078787Y-13071213D01*
X11121213Y-13071213D01*
X11121213Y-13471213D02*
X11121213Y-13428787D01*
X11078787Y-13428787D01*
X11078787Y-13471213D01*
X11121213Y-13471213D01*
X11121213Y-13921213D02*
X11121213Y-13878787D01*
X11078787Y-13878787D01*
X11078787Y-13921213D01*
X11121213Y-13921213D01*
X11541213Y-8901213D02*
X11541213Y-8858787D01*
X11498787Y-8858787D01*
X11498787Y-8901213D01*
X11541213Y-8901213D01*
X11541213Y-10921213D02*
X11541213Y-10878787D01*
X11498787Y-10878787D01*
X11498787Y-10921213D01*
X11541213Y-10921213D01*
X11541213Y-13701213D02*
X11541213Y-13658787D01*
X11498787Y-13658787D01*
X11498787Y-13701213D01*
X11541213Y-13701213D01*
X11541213Y-14481213D02*
X11541213Y-14438787D01*
X11498787Y-14438787D01*
X11498787Y-14481213D01*
X11541213Y-14481213D01*
X11901213Y-9521213D02*
X11901213Y-9478787D01*
X11858787Y-9478787D01*
X11858787Y-9521213D01*
X11901213Y-9521213D01*
X11901213Y-11541213D02*
X11901213Y-11498787D01*
X11858787Y-11498787D01*
X11858787Y-11541213D01*
X11901213Y-11541213D01*
X11901213Y-12521213D02*
X11901213Y-12478787D01*
X11858787Y-12478787D01*
X11858787Y-12521213D01*
X11901213Y-12521213D01*
X12321213Y-9521213D02*
X12321213Y-9478787D01*
X12278787Y-9478787D01*
X12278787Y-9521213D01*
X12321213Y-9521213D01*
X12321213Y-9971213D02*
X12321213Y-9928787D01*
X12278787Y-9928787D01*
X12278787Y-9971213D01*
X12321213Y-9971213D01*
X12321213Y-10371213D02*
X12321213Y-10328787D01*
X12278787Y-10328787D01*
X12278787Y-10371213D01*
X12321213Y-10371213D01*
X12321213Y-10821213D02*
X12321213Y-10778787D01*
X12278787Y-10778787D01*
X12278787Y-10821213D01*
X12321213Y-10821213D01*
X12321213Y-11221213D02*
X12321213Y-11178787D01*
X12278787Y-11178787D01*
X12278787Y-11221213D01*
X12321213Y-11221213D01*
X12321213Y-12521213D02*
X12321213Y-12478787D01*
X12278787Y-12478787D01*
X12278787Y-12521213D01*
X12321213Y-12521213D01*
X12321213Y-12971213D02*
X12321213Y-12928787D01*
X12278787Y-12928787D01*
X12278787Y-12971213D01*
X12321213Y-12971213D01*
X12321213Y-13371213D02*
X12321213Y-13328787D01*
X12278787Y-13328787D01*
X12278787Y-13371213D01*
X12321213Y-13371213D01*
X12321213Y-13821213D02*
X12321213Y-13778787D01*
X12278787Y-13778787D01*
X12278787Y-13821213D01*
X12321213Y-13821213D01*
X12321213Y-14221213D02*
X12321213Y-14178787D01*
X12278787Y-14178787D01*
X12278787Y-14221213D01*
X12321213Y-14221213D01*
X12521213Y-9321213D02*
X12521213Y-9278787D01*
X12478787Y-9278787D01*
X12478787Y-9321213D01*
X12521213Y-9321213D01*
X12521213Y-9771213D02*
X12521213Y-9728787D01*
X12478787Y-9728787D01*
X12478787Y-9771213D01*
X12521213Y-9771213D01*
X12521213Y-10171213D02*
X12521213Y-10128787D01*
X12478787Y-10128787D01*
X12478787Y-10171213D01*
X12521213Y-10171213D01*
X12521213Y-10571213D02*
X12521213Y-10528787D01*
X12478787Y-10528787D01*
X12478787Y-10571213D01*
X12521213Y-10571213D01*
X12521213Y-11021213D02*
X12521213Y-10978787D01*
X12478787Y-10978787D01*
X12478787Y-11021213D01*
X12521213Y-11021213D01*
X12521213Y-12321213D02*
X12521213Y-12278787D01*
X12478787Y-12278787D01*
X12478787Y-12321213D01*
X12521213Y-12321213D01*
X12521213Y-12771213D02*
X12521213Y-12728787D01*
X12478787Y-12728787D01*
X12478787Y-12771213D01*
X12521213Y-12771213D01*
X12521213Y-13171213D02*
X12521213Y-13128787D01*
X12478787Y-13128787D01*
X12478787Y-13171213D01*
X12521213Y-13171213D01*
X12521213Y-13571213D02*
X12521213Y-13528787D01*
X12478787Y-13528787D01*
X12478787Y-13571213D01*
X12521213Y-13571213D01*
X12521213Y-14021213D02*
X12521213Y-13978787D01*
X12478787Y-13978787D01*
X12478787Y-14021213D01*
X12521213Y-14021213D01*
X12721213Y-10171213D02*
X12721213Y-10128787D01*
X12678786Y-10128787D01*
X12678786Y-10171213D01*
X12721213Y-10171213D01*
X12721213Y-10571213D02*
X12721213Y-10528787D01*
X12678786Y-10528787D01*
X12678786Y-10571213D01*
X12721213Y-10571213D01*
X12721213Y-9121213D02*
X12721213Y-9078787D01*
X12678787Y-9078787D01*
X12678787Y-9121213D01*
X12721213Y-9121213D01*
X12721213Y-9521213D02*
X12721213Y-9478787D01*
X12678787Y-9478787D01*
X12678787Y-9521213D01*
X12721213Y-9521213D01*
X12721213Y-9771214D02*
X12721213Y-9728787D01*
X12678787Y-9728787D01*
X12678787Y-9771214D01*
X12721213Y-9771214D01*
X12721213Y-9971214D02*
X12721213Y-9928787D01*
X12678787Y-9928787D01*
X12678787Y-9971214D01*
X12721213Y-9971214D01*
X12721213Y-10371213D02*
X12721213Y-10328787D01*
X12678787Y-10328787D01*
X12678787Y-10371213D01*
X12721213Y-10371213D01*
X12721213Y-10821213D02*
X12721213Y-10778787D01*
X12678787Y-10778787D01*
X12678787Y-10821213D01*
X12721213Y-10821213D01*
X12721213Y-11221213D02*
X12721213Y-11178787D01*
X12678787Y-11178787D01*
X12678787Y-11221213D01*
X12721213Y-11221213D01*
X12721213Y-13171213D02*
X12721213Y-13128787D01*
X12678787Y-13128787D01*
X12678787Y-13171213D01*
X12721213Y-13171213D01*
X12721213Y-13571213D02*
X12721213Y-13528787D01*
X12678787Y-13528787D01*
X12678787Y-13571213D01*
X12721213Y-13571213D01*
X12721213Y-12121213D02*
X12721213Y-12078787D01*
X12678787Y-12078787D01*
X12678787Y-12121213D01*
X12721213Y-12121213D01*
X12721213Y-12521213D02*
X12721213Y-12478787D01*
X12678787Y-12478787D01*
X12678787Y-12521213D01*
X12721213Y-12521213D01*
X12721213Y-12771214D02*
X12721213Y-12728787D01*
X12678787Y-12728787D01*
X12678787Y-12771214D01*
X12721213Y-12771214D01*
X12721213Y-12971214D02*
X12721213Y-12928787D01*
X12678787Y-12928787D01*
X12678787Y-12971214D01*
X12721213Y-12971214D01*
X12721213Y-13371213D02*
X12721213Y-13328787D01*
X12678787Y-13328787D01*
X12678787Y-13371213D01*
X12721213Y-13371213D01*
X12721213Y-13821213D02*
X12721213Y-13778787D01*
X12678787Y-13778787D01*
X12678787Y-13821213D01*
X12721213Y-13821213D01*
X12721213Y-14221213D02*
X12721213Y-14178787D01*
X12678787Y-14178787D01*
X12678787Y-14221213D01*
X12721213Y-14221213D01*
X12921213Y-9521213D02*
X12921213Y-9478787D01*
X12878786Y-9478787D01*
X12878786Y-9521213D01*
X12921213Y-9521213D01*
X12921213Y-10821213D02*
X12921213Y-10778787D01*
X12878786Y-10778787D01*
X12878786Y-10821213D01*
X12921213Y-10821213D01*
X12921213Y-9321213D02*
X12921213Y-9278787D01*
X12878787Y-9278787D01*
X12878787Y-9321213D01*
X12921213Y-9321213D01*
X12921213Y-11021213D02*
X12921213Y-10978787D01*
X12878787Y-10978787D01*
X12878787Y-11021213D01*
X12921213Y-11021213D01*
X12921213Y-11421213D02*
X12921213Y-11378787D01*
X12878787Y-11378787D01*
X12878787Y-11421213D01*
X12921213Y-11421213D01*
X12921213Y-12521213D02*
X12921213Y-12478787D01*
X12878787Y-12478787D01*
X12878787Y-12521213D01*
X12921213Y-12521213D01*
X12921213Y-13821213D02*
X12921213Y-13778787D01*
X12878787Y-13778787D01*
X12878787Y-13821213D01*
X12921213Y-13821213D01*
X12921213Y-12321213D02*
X12921213Y-12278787D01*
X12878787Y-12278787D01*
X12878787Y-12321213D01*
X12921213Y-12321213D01*
X12921213Y-14021213D02*
X12921213Y-13978787D01*
X12878787Y-13978787D01*
X12878787Y-14021213D01*
X12921213Y-14021213D01*
X12921213Y-14421213D02*
X12921213Y-14378787D01*
X12878787Y-14378787D01*
X12878787Y-14421213D01*
X12921213Y-14421213D01*
X13121213Y-9321213D02*
X13121213Y-9278787D01*
X13078786Y-9278787D01*
X13078786Y-9321213D01*
X13121213Y-9321213D01*
X13121213Y-9721213D02*
X13121213Y-9678787D01*
X13078786Y-9678787D01*
X13078786Y-9721213D01*
X13121213Y-9721213D01*
X13121213Y-9121213D02*
X13121213Y-9078787D01*
X13078787Y-9078787D01*
X13078787Y-9121213D01*
X13121213Y-9121213D01*
X13121213Y-10821213D02*
X13121213Y-10778787D01*
X13078787Y-10778787D01*
X13078787Y-10821213D01*
X13121213Y-10821213D01*
X13121213Y-11021213D02*
X13121213Y-10978787D01*
X13078787Y-10978787D01*
X13078787Y-11021213D01*
X13121213Y-11021213D01*
X13121213Y-11221213D02*
X13121213Y-11178787D01*
X13078787Y-11178787D01*
X13078787Y-11221213D01*
X13121213Y-11221213D01*
X13121213Y-12321213D02*
X13121213Y-12278787D01*
X13078787Y-12278787D01*
X13078787Y-12321213D01*
X13121213Y-12321213D01*
X13121213Y-12721213D02*
X13121213Y-12678787D01*
X13078787Y-12678787D01*
X13078787Y-12721213D01*
X13121213Y-12721213D01*
X13121213Y-9521213D02*
X13121213Y-9478787D01*
X13078787Y-9478787D01*
X13078787Y-9521213D01*
X13121213Y-9521213D01*
X13121213Y-12121213D02*
X13121213Y-12078787D01*
X13078787Y-12078787D01*
X13078787Y-12121213D01*
X13121213Y-12121213D01*
X13121213Y-13821213D02*
X13121213Y-13778787D01*
X13078787Y-13778787D01*
X13078787Y-13821213D01*
X13121213Y-13821213D01*
X13121213Y-14021213D02*
X13121213Y-13978787D01*
X13078787Y-13978787D01*
X13078787Y-14021213D01*
X13121213Y-14021213D01*
X13121213Y-14221213D02*
X13121213Y-14178787D01*
X13078787Y-14178787D01*
X13078787Y-14221213D01*
X13121213Y-14221213D01*
X13121214Y-12521213D02*
X13121214Y-12478787D01*
X13078787Y-12478787D01*
X13078787Y-12521213D01*
X13121214Y-12521213D01*
X13321213Y-9521213D02*
X13321213Y-9478787D01*
X13278786Y-9478787D01*
X13278786Y-9521213D01*
X13321213Y-9521213D01*
X13321213Y-9121213D02*
X13321213Y-9078787D01*
X13278787Y-9078787D01*
X13278787Y-9121213D01*
X13321213Y-9121213D01*
X13321213Y-10821213D02*
X13321213Y-10778787D01*
X13278787Y-10778787D01*
X13278787Y-10821213D01*
X13321213Y-10821213D01*
X13321213Y-11021213D02*
X13321213Y-10978787D01*
X13278787Y-10978787D01*
X13278787Y-11021213D01*
X13321213Y-11021213D01*
X13321213Y-11221213D02*
X13321213Y-11178787D01*
X13278787Y-11178787D01*
X13278787Y-11221213D01*
X13321213Y-11221213D01*
X13321213Y-12521213D02*
X13321213Y-12478787D01*
X13278787Y-12478787D01*
X13278787Y-12521213D01*
X13321213Y-12521213D01*
X13321213Y-9321213D02*
X13321213Y-9278787D01*
X13278787Y-9278787D01*
X13278787Y-9321213D01*
X13321213Y-9321213D01*
X13321213Y-9721213D02*
X13321213Y-9678787D01*
X13278787Y-9678787D01*
X13278787Y-9721213D01*
X13321213Y-9721213D01*
X13321213Y-12121213D02*
X13321213Y-12078787D01*
X13278787Y-12078787D01*
X13278787Y-12121213D01*
X13321213Y-12121213D01*
X13321213Y-13821213D02*
X13321213Y-13778787D01*
X13278787Y-13778787D01*
X13278787Y-13821213D01*
X13321213Y-13821213D01*
X13321213Y-14021213D02*
X13321213Y-13978787D01*
X13278787Y-13978787D01*
X13278787Y-14021213D01*
X13321213Y-14021213D01*
X13321213Y-14221213D02*
X13321213Y-14178787D01*
X13278787Y-14178787D01*
X13278787Y-14221213D01*
X13321213Y-14221213D01*
X13321214Y-12321213D02*
X13321214Y-12278787D01*
X13278787Y-12278787D01*
X13278787Y-12321213D01*
X13321214Y-12321213D01*
X13321214Y-12721213D02*
X13321214Y-12678787D01*
X13278787Y-12678787D01*
X13278787Y-12721213D01*
X13321214Y-12721213D01*
X13521213Y-9321213D02*
X13521213Y-9278787D01*
X13478787Y-9278787D01*
X13478787Y-9321213D01*
X13521213Y-9321213D01*
X13521213Y-11021213D02*
X13521213Y-10978787D01*
X13478787Y-10978787D01*
X13478787Y-11021213D01*
X13521213Y-11021213D01*
X13521213Y-11421213D02*
X13521213Y-11378787D01*
X13478787Y-11378787D01*
X13478787Y-11421213D01*
X13521213Y-11421213D01*
X13521213Y-9521213D02*
X13521213Y-9478787D01*
X13478787Y-9478787D01*
X13478787Y-9521213D01*
X13521213Y-9521213D01*
X13521213Y-10821213D02*
X13521213Y-10778787D01*
X13478787Y-10778787D01*
X13478787Y-10821213D01*
X13521213Y-10821213D01*
X13521213Y-12321213D02*
X13521213Y-12278787D01*
X13478787Y-12278787D01*
X13478787Y-12321213D01*
X13521213Y-12321213D01*
X13521213Y-14021213D02*
X13521213Y-13978787D01*
X13478787Y-13978787D01*
X13478787Y-14021213D01*
X13521213Y-14021213D01*
X13521213Y-14421213D02*
X13521213Y-14378787D01*
X13478787Y-14378787D01*
X13478787Y-14421213D01*
X13521213Y-14421213D01*
X13521214Y-12521213D02*
X13521214Y-12478787D01*
X13478787Y-12478787D01*
X13478787Y-12521213D01*
X13521214Y-12521213D01*
X13521214Y-13821213D02*
X13521214Y-13778787D01*
X13478787Y-13778787D01*
X13478787Y-13821213D01*
X13521214Y-13821213D01*
X13721213Y-9121213D02*
X13721213Y-9078787D01*
X13678787Y-9078787D01*
X13678787Y-9121213D01*
X13721213Y-9121213D01*
X13721213Y-9521213D02*
X13721213Y-9478787D01*
X13678787Y-9478787D01*
X13678787Y-9521213D01*
X13721213Y-9521213D01*
X13721213Y-9771214D02*
X13721213Y-9728787D01*
X13678787Y-9728787D01*
X13678787Y-9771214D01*
X13721213Y-9771214D01*
X13721213Y-9971213D02*
X13721213Y-9928787D01*
X13678787Y-9928787D01*
X13678787Y-9971213D01*
X13721213Y-9971213D01*
X13721213Y-10371213D02*
X13721213Y-10328787D01*
X13678787Y-10328787D01*
X13678787Y-10371213D01*
X13721213Y-10371213D01*
X13721213Y-10821213D02*
X13721213Y-10778787D01*
X13678787Y-10778787D01*
X13678787Y-10821213D01*
X13721213Y-10821213D01*
X13721213Y-11221213D02*
X13721213Y-11178787D01*
X13678787Y-11178787D01*
X13678787Y-11221213D01*
X13721213Y-11221213D01*
X13721213Y-10171213D02*
X13721213Y-10128787D01*
X13678787Y-10128787D01*
X13678787Y-10171213D01*
X13721213Y-10171213D01*
X13721213Y-10571213D02*
X13721213Y-10528787D01*
X13678787Y-10528787D01*
X13678787Y-10571213D01*
X13721213Y-10571213D01*
X13721213Y-12121213D02*
X13721213Y-12078787D01*
X13678787Y-12078787D01*
X13678787Y-12121213D01*
X13721213Y-12121213D01*
X13721213Y-12521213D02*
X13721213Y-12478787D01*
X13678787Y-12478787D01*
X13678787Y-12521213D01*
X13721213Y-12521213D01*
X13721213Y-12771214D02*
X13721213Y-12728787D01*
X13678787Y-12728787D01*
X13678787Y-12771214D01*
X13721213Y-12771214D01*
X13721213Y-12971213D02*
X13721213Y-12928787D01*
X13678787Y-12928787D01*
X13678787Y-12971213D01*
X13721213Y-12971213D01*
X13721213Y-13371213D02*
X13721213Y-13328787D01*
X13678787Y-13328787D01*
X13678787Y-13371213D01*
X13721213Y-13371213D01*
X13721213Y-13821213D02*
X13721213Y-13778787D01*
X13678787Y-13778787D01*
X13678787Y-13821213D01*
X13721213Y-13821213D01*
X13721213Y-14221213D02*
X13721213Y-14178787D01*
X13678787Y-14178787D01*
X13678787Y-14221213D01*
X13721213Y-14221213D01*
X13721214Y-13171213D02*
X13721214Y-13128787D01*
X13678787Y-13128787D01*
X13678787Y-13171213D01*
X13721214Y-13171213D01*
X13721214Y-13571213D02*
X13721214Y-13528787D01*
X13678787Y-13528787D01*
X13678787Y-13571213D01*
X13721214Y-13571213D01*
X13921213Y-9321213D02*
X13921213Y-9278787D01*
X13878787Y-9278787D01*
X13878787Y-9321213D01*
X13921213Y-9321213D01*
X13921213Y-9771213D02*
X13921213Y-9728787D01*
X13878787Y-9728787D01*
X13878787Y-9771213D01*
X13921213Y-9771213D01*
X13921213Y-10171213D02*
X13921213Y-10128787D01*
X13878787Y-10128787D01*
X13878787Y-10171213D01*
X13921213Y-10171213D01*
X13921213Y-10571213D02*
X13921213Y-10528787D01*
X13878787Y-10528787D01*
X13878787Y-10571213D01*
X13921213Y-10571213D01*
X13921213Y-11021213D02*
X13921213Y-10978787D01*
X13878787Y-10978787D01*
X13878787Y-11021213D01*
X13921213Y-11021213D01*
X13921213Y-12321213D02*
X13921213Y-12278787D01*
X13878787Y-12278787D01*
X13878787Y-12321213D01*
X13921213Y-12321213D01*
X13921213Y-12771213D02*
X13921213Y-12728787D01*
X13878787Y-12728787D01*
X13878787Y-12771213D01*
X13921213Y-12771213D01*
X13921213Y-13171213D02*
X13921213Y-13128787D01*
X13878787Y-13128787D01*
X13878787Y-13171213D01*
X13921213Y-13171213D01*
X13921213Y-13571213D02*
X13921213Y-13528787D01*
X13878787Y-13528787D01*
X13878787Y-13571213D01*
X13921213Y-13571213D01*
X13921213Y-14021213D02*
X13921213Y-13978787D01*
X13878787Y-13978787D01*
X13878787Y-14021213D01*
X13921213Y-14021213D01*
X14121213Y-9521213D02*
X14121213Y-9478787D01*
X14078787Y-9478787D01*
X14078787Y-9521213D01*
X14121213Y-9521213D01*
X14121213Y-9971214D02*
X14121213Y-9928787D01*
X14078787Y-9928787D01*
X14078787Y-9971214D01*
X14121213Y-9971214D01*
X14121213Y-10371213D02*
X14121213Y-10328787D01*
X14078787Y-10328787D01*
X14078787Y-10371213D01*
X14121213Y-10371213D01*
X14121213Y-10821213D02*
X14121213Y-10778787D01*
X14078787Y-10778787D01*
X14078787Y-10821213D01*
X14121213Y-10821213D01*
X14121213Y-11221213D02*
X14121213Y-11178787D01*
X14078787Y-11178787D01*
X14078787Y-11221213D01*
X14121213Y-11221213D01*
X14121213Y-12521213D02*
X14121213Y-12478787D01*
X14078787Y-12478787D01*
X14078787Y-12521213D01*
X14121213Y-12521213D01*
X14121213Y-12971214D02*
X14121213Y-12928787D01*
X14078787Y-12928787D01*
X14078787Y-12971214D01*
X14121213Y-12971214D01*
X14121213Y-13371213D02*
X14121213Y-13328787D01*
X14078787Y-13328787D01*
X14078787Y-13371213D01*
X14121213Y-13371213D01*
X14121213Y-13821213D02*
X14121213Y-13778787D01*
X14078787Y-13778787D01*
X14078787Y-13821213D01*
X14121213Y-13821213D01*
X14121213Y-14221213D02*
X14121213Y-14178787D01*
X14078787Y-14178787D01*
X14078787Y-14221213D01*
X14121213Y-14221213D01*
X14541213Y-9741213D02*
X14541213Y-9698787D01*
X14498787Y-9698787D01*
X14498787Y-9741213D01*
X14541213Y-9741213D01*
X14901213Y-11901213D02*
X14901213Y-11858787D01*
X14858787Y-11858787D01*
X14858787Y-11901213D01*
X14901213Y-11901213D01*
X15321213Y-9221213D02*
X15321213Y-9178787D01*
X15278787Y-9178787D01*
X15278787Y-9221213D01*
X15321213Y-9221213D01*
X15321213Y-9621213D02*
X15321213Y-9578787D01*
X15278787Y-9578787D01*
X15278787Y-9621213D01*
X15321213Y-9621213D01*
X15321213Y-10071213D02*
X15321213Y-10028787D01*
X15278787Y-10028787D01*
X15278787Y-10071213D01*
X15321213Y-10071213D01*
X15321213Y-10471213D02*
X15321213Y-10428787D01*
X15278787Y-10428787D01*
X15278787Y-10471213D01*
X15321213Y-10471213D01*
X15321213Y-10921213D02*
X15321213Y-10878787D01*
X15278787Y-10878787D01*
X15278787Y-10921213D01*
X15321213Y-10921213D01*
X15321213Y-12221213D02*
X15321213Y-12178787D01*
X15278787Y-12178787D01*
X15278787Y-12221213D01*
X15321213Y-12221213D01*
X15321213Y-12621213D02*
X15321213Y-12578787D01*
X15278787Y-12578787D01*
X15278787Y-12621213D01*
X15321213Y-12621213D01*
X15321213Y-13071213D02*
X15321213Y-13028787D01*
X15278787Y-13028787D01*
X15278787Y-13071213D01*
X15321213Y-13071213D01*
X15321213Y-13471213D02*
X15321213Y-13428787D01*
X15278787Y-13428787D01*
X15278787Y-13471213D01*
X15321213Y-13471213D01*
X15321213Y-13921213D02*
X15321213Y-13878787D01*
X15278787Y-13878787D01*
X15278787Y-13921213D01*
X15321213Y-13921213D01*
X15521213Y-9421213D02*
X15521213Y-9378787D01*
X15478787Y-9378787D01*
X15478787Y-9421213D01*
X15521213Y-9421213D01*
X15521213Y-9871213D02*
X15521213Y-9828787D01*
X15478787Y-9828787D01*
X15478787Y-9871213D01*
X15521213Y-9871213D01*
X15521213Y-10271213D02*
X15521213Y-10228787D01*
X15478787Y-10228787D01*
X15478787Y-10271213D01*
X15521213Y-10271213D01*
X15521213Y-10671213D02*
X15521213Y-10628787D01*
X15478787Y-10628787D01*
X15478787Y-10671213D01*
X15521213Y-10671213D01*
X15521213Y-11121213D02*
X15521213Y-11078787D01*
X15478787Y-11078787D01*
X15478787Y-11121213D01*
X15521213Y-11121213D01*
X15521213Y-12421213D02*
X15521213Y-12378787D01*
X15478787Y-12378787D01*
X15478787Y-12421213D01*
X15521213Y-12421213D01*
X15521213Y-12871213D02*
X15521213Y-12828787D01*
X15478787Y-12828787D01*
X15478787Y-12871213D01*
X15521213Y-12871213D01*
X15521213Y-13271213D02*
X15521213Y-13228787D01*
X15478787Y-13228787D01*
X15478787Y-13271213D01*
X15521213Y-13271213D01*
X15521213Y-13671213D02*
X15521213Y-13628787D01*
X15478787Y-13628787D01*
X15478787Y-13671213D01*
X15521213Y-13671213D01*
X15521213Y-14121213D02*
X15521213Y-14078787D01*
X15478787Y-14078787D01*
X15478787Y-14121213D01*
X15521213Y-14121213D01*
X15721213Y-9221213D02*
X15721213Y-9178787D01*
X15678787Y-9178787D01*
X15678787Y-9221213D01*
X15721213Y-9221213D01*
X15721213Y-9621213D02*
X15721213Y-9578787D01*
X15678787Y-9578787D01*
X15678787Y-9621213D01*
X15721213Y-9621213D01*
X15721213Y-9871213D02*
X15721213Y-9828787D01*
X15678787Y-9828787D01*
X15678787Y-9871213D01*
X15721213Y-9871213D01*
X15721213Y-10071213D02*
X15721213Y-10028787D01*
X15678787Y-10028787D01*
X15678787Y-10071213D01*
X15721213Y-10071213D01*
X15721213Y-10271213D02*
X15721213Y-10228787D01*
X15678787Y-10228787D01*
X15678787Y-10271213D01*
X15721213Y-10271213D01*
X15721213Y-10471213D02*
X15721213Y-10428787D01*
X15678787Y-10428787D01*
X15678787Y-10471213D01*
X15721213Y-10471213D01*
X15721213Y-10671213D02*
X15721213Y-10628787D01*
X15678787Y-10628787D01*
X15678787Y-10671213D01*
X15721213Y-10671213D01*
X15721213Y-10921213D02*
X15721213Y-10878787D01*
X15678787Y-10878787D01*
X15678787Y-10921213D01*
X15721213Y-10921213D01*
X15721213Y-11321213D02*
X15721213Y-11278787D01*
X15678787Y-11278787D01*
X15678787Y-11321213D01*
X15721213Y-11321213D01*
X15721213Y-12221213D02*
X15721213Y-12178787D01*
X15678787Y-12178787D01*
X15678787Y-12221213D01*
X15721213Y-12221213D01*
X15721213Y-12621213D02*
X15721213Y-12578787D01*
X15678787Y-12578787D01*
X15678787Y-12621213D01*
X15721213Y-12621213D01*
X15721213Y-12871213D02*
X15721213Y-12828787D01*
X15678787Y-12828787D01*
X15678787Y-12871213D01*
X15721213Y-12871213D01*
X15721213Y-13071213D02*
X15721213Y-13028787D01*
X15678787Y-13028787D01*
X15678787Y-13071213D01*
X15721213Y-13071213D01*
X15721213Y-13271213D02*
X15721213Y-13228787D01*
X15678787Y-13228787D01*
X15678787Y-13271213D01*
X15721213Y-13271213D01*
X15721213Y-13471213D02*
X15721213Y-13428787D01*
X15678787Y-13428787D01*
X15678787Y-13471213D01*
X15721213Y-13471213D01*
X15721213Y-13671213D02*
X15721213Y-13628787D01*
X15678787Y-13628787D01*
X15678787Y-13671213D01*
X15721213Y-13671213D01*
X15721213Y-13921213D02*
X15721213Y-13878787D01*
X15678787Y-13878787D01*
X15678787Y-13921213D01*
X15721213Y-13921213D01*
X15721213Y-14321213D02*
X15721213Y-14278787D01*
X15678787Y-14278787D01*
X15678787Y-14321213D01*
X15721213Y-14321213D01*
X15921213Y-9021213D02*
X15921213Y-8978787D01*
X15878787Y-8978787D01*
X15878787Y-9021213D01*
X15921213Y-9021213D01*
X15921213Y-9421213D02*
X15921213Y-9378787D01*
X15878787Y-9378787D01*
X15878787Y-9421213D01*
X15921213Y-9421213D01*
X15921213Y-9621213D02*
X15921213Y-9578787D01*
X15878787Y-9578787D01*
X15878787Y-9621213D01*
X15921213Y-9621213D01*
X15921213Y-10921213D02*
X15921213Y-10878787D01*
X15878787Y-10878787D01*
X15878787Y-10921213D01*
X15921213Y-10921213D01*
X15921213Y-11121213D02*
X15921213Y-11078787D01*
X15878787Y-11078787D01*
X15878787Y-11121213D01*
X15921213Y-11121213D01*
X15921213Y-12021213D02*
X15921213Y-11978787D01*
X15878787Y-11978787D01*
X15878787Y-12021213D01*
X15921213Y-12021213D01*
X15921213Y-12421213D02*
X15921213Y-12378787D01*
X15878787Y-12378787D01*
X15878787Y-12421213D01*
X15921213Y-12421213D01*
X15921213Y-12621213D02*
X15921213Y-12578787D01*
X15878787Y-12578787D01*
X15878787Y-12621213D01*
X15921213Y-12621213D01*
X15921213Y-13921213D02*
X15921213Y-13878787D01*
X15878787Y-13878787D01*
X15878787Y-13921213D01*
X15921213Y-13921213D01*
X15921213Y-14121213D02*
X15921213Y-14078787D01*
X15878787Y-14078787D01*
X15878787Y-14121213D01*
X15921213Y-14121213D01*
X16121213Y-9221213D02*
X16121213Y-9178787D01*
X16078787Y-9178787D01*
X16078787Y-9221213D01*
X16121213Y-9221213D01*
X16121213Y-9421213D02*
X16121213Y-9378787D01*
X16078787Y-9378787D01*
X16078787Y-9421213D01*
X16121213Y-9421213D01*
X16121213Y-9621213D02*
X16121213Y-9578787D01*
X16078787Y-9578787D01*
X16078787Y-9621213D01*
X16121213Y-9621213D01*
X16121213Y-10771213D02*
X16121213Y-10728787D01*
X16078787Y-10728787D01*
X16078787Y-10771213D01*
X16121213Y-10771213D01*
X16121213Y-10921213D02*
X16121213Y-10878787D01*
X16078787Y-10878787D01*
X16078787Y-10921213D01*
X16121213Y-10921213D01*
X16121213Y-11121213D02*
X16121213Y-11078787D01*
X16078787Y-11078787D01*
X16078787Y-11121213D01*
X16121213Y-11121213D01*
X16121213Y-11321213D02*
X16121213Y-11278787D01*
X16078787Y-11278787D01*
X16078787Y-11321213D01*
X16121213Y-11321213D01*
X16121213Y-12221213D02*
X16121213Y-12178787D01*
X16078787Y-12178787D01*
X16078787Y-12221213D01*
X16121213Y-12221213D01*
X16121213Y-12421213D02*
X16121213Y-12378787D01*
X16078787Y-12378787D01*
X16078787Y-12421213D01*
X16121213Y-12421213D01*
X16121213Y-12621213D02*
X16121213Y-12578787D01*
X16078787Y-12578787D01*
X16078787Y-12621213D01*
X16121213Y-12621213D01*
X16121213Y-13721213D02*
X16121213Y-13678787D01*
X16078787Y-13678787D01*
X16078787Y-13721213D01*
X16121213Y-13721213D01*
X16121213Y-13921213D02*
X16121213Y-13878787D01*
X16078787Y-13878787D01*
X16078787Y-13921213D01*
X16121213Y-13921213D01*
X16121213Y-14121213D02*
X16121213Y-14078787D01*
X16078787Y-14078787D01*
X16078787Y-14121213D01*
X16121213Y-14121213D01*
X16121213Y-14321213D02*
X16121213Y-14278787D01*
X16078787Y-14278787D01*
X16078787Y-14321213D01*
X16121213Y-14321213D01*
X16321213Y-9221213D02*
X16321213Y-9178787D01*
X16278787Y-9178787D01*
X16278787Y-9221213D01*
X16321213Y-9221213D01*
X16321213Y-9421213D02*
X16321213Y-9378787D01*
X16278787Y-9378787D01*
X16278787Y-9421213D01*
X16321213Y-9421213D01*
X16321213Y-9621213D02*
X16321213Y-9578787D01*
X16278787Y-9578787D01*
X16278787Y-9621213D01*
X16321213Y-9621213D01*
X16321213Y-10771213D02*
X16321213Y-10728787D01*
X16278787Y-10728787D01*
X16278787Y-10771213D01*
X16321213Y-10771213D01*
X16321213Y-10921213D02*
X16321213Y-10878787D01*
X16278787Y-10878787D01*
X16278787Y-10921213D01*
X16321213Y-10921213D01*
X16321213Y-11121213D02*
X16321213Y-11078787D01*
X16278787Y-11078787D01*
X16278787Y-11121213D01*
X16321213Y-11121213D01*
X16321213Y-11321213D02*
X16321213Y-11278787D01*
X16278787Y-11278787D01*
X16278787Y-11321213D01*
X16321213Y-11321213D01*
X16321213Y-11561213D02*
X16321213Y-11518787D01*
X16278787Y-11518787D01*
X16278787Y-11561213D01*
X16321213Y-11561213D01*
X16321213Y-12221213D02*
X16321213Y-12178787D01*
X16278787Y-12178787D01*
X16278787Y-12221213D01*
X16321213Y-12221213D01*
X16321213Y-12421213D02*
X16321213Y-12378787D01*
X16278787Y-12378787D01*
X16278787Y-12421213D01*
X16321213Y-12421213D01*
X16321213Y-12621213D02*
X16321213Y-12578787D01*
X16278787Y-12578787D01*
X16278787Y-12621213D01*
X16321213Y-12621213D01*
X16321213Y-13721213D02*
X16321213Y-13678787D01*
X16278787Y-13678787D01*
X16278787Y-13721213D01*
X16321213Y-13721213D01*
X16321213Y-13921213D02*
X16321213Y-13878787D01*
X16278787Y-13878787D01*
X16278787Y-13921213D01*
X16321213Y-13921213D01*
X16321213Y-14121213D02*
X16321213Y-14078787D01*
X16278787Y-14078787D01*
X16278787Y-14121213D01*
X16321213Y-14121213D01*
X16321213Y-14321213D02*
X16321213Y-14278787D01*
X16278787Y-14278787D01*
X16278787Y-14321213D01*
X16321213Y-14321213D01*
X16521213Y-9021213D02*
X16521213Y-8978787D01*
X16478787Y-8978787D01*
X16478787Y-9021213D01*
X16521213Y-9021213D01*
X16521213Y-9421213D02*
X16521213Y-9378787D01*
X16478787Y-9378787D01*
X16478787Y-9421213D01*
X16521213Y-9421213D01*
X16521213Y-9621213D02*
X16521213Y-9578787D01*
X16478787Y-9578787D01*
X16478787Y-9621213D01*
X16521213Y-9621213D01*
X16521213Y-10921213D02*
X16521213Y-10878787D01*
X16478787Y-10878787D01*
X16478787Y-10921213D01*
X16521213Y-10921213D01*
X16521213Y-11121213D02*
X16521213Y-11078787D01*
X16478787Y-11078787D01*
X16478787Y-11121213D01*
X16521213Y-11121213D01*
X16521213Y-12021213D02*
X16521213Y-11978787D01*
X16478787Y-11978787D01*
X16478787Y-12021213D01*
X16521213Y-12021213D01*
X16521213Y-12421213D02*
X16521213Y-12378787D01*
X16478787Y-12378787D01*
X16478787Y-12421213D01*
X16521213Y-12421213D01*
X16521213Y-12621213D02*
X16521213Y-12578787D01*
X16478787Y-12578787D01*
X16478787Y-12621213D01*
X16521213Y-12621213D01*
X16521213Y-13921213D02*
X16521213Y-13878787D01*
X16478787Y-13878787D01*
X16478787Y-13921213D01*
X16521213Y-13921213D01*
X16521213Y-14121213D02*
X16521213Y-14078787D01*
X16478787Y-14078787D01*
X16478787Y-14121213D01*
X16521213Y-14121213D01*
X16721213Y-9221213D02*
X16721213Y-9178787D01*
X16678787Y-9178787D01*
X16678787Y-9221213D01*
X16721213Y-9221213D01*
X16721213Y-9621213D02*
X16721213Y-9578787D01*
X16678787Y-9578787D01*
X16678787Y-9621213D01*
X16721213Y-9621213D01*
X16721213Y-9871213D02*
X16721213Y-9828787D01*
X16678787Y-9828787D01*
X16678787Y-9871213D01*
X16721213Y-9871213D01*
X16721213Y-10071213D02*
X16721213Y-10028787D01*
X16678787Y-10028787D01*
X16678787Y-10071213D01*
X16721213Y-10071213D01*
X16721213Y-10271213D02*
X16721213Y-10228787D01*
X16678787Y-10228787D01*
X16678787Y-10271213D01*
X16721213Y-10271213D01*
X16721213Y-10471213D02*
X16721213Y-10428787D01*
X16678787Y-10428787D01*
X16678787Y-10471213D01*
X16721213Y-10471213D01*
X16721213Y-10671213D02*
X16721213Y-10628787D01*
X16678787Y-10628787D01*
X16678787Y-10671213D01*
X16721213Y-10671213D01*
X16721213Y-10921213D02*
X16721213Y-10878787D01*
X16678787Y-10878787D01*
X16678787Y-10921213D01*
X16721213Y-10921213D01*
X16721213Y-11321213D02*
X16721213Y-11278787D01*
X16678787Y-11278787D01*
X16678787Y-11321213D01*
X16721213Y-11321213D01*
X16721213Y-12221213D02*
X16721213Y-12178787D01*
X16678787Y-12178787D01*
X16678787Y-12221213D01*
X16721213Y-12221213D01*
X16721213Y-12621213D02*
X16721213Y-12578787D01*
X16678787Y-12578787D01*
X16678787Y-12621213D01*
X16721213Y-12621213D01*
X16721213Y-12871213D02*
X16721213Y-12828787D01*
X16678787Y-12828787D01*
X16678787Y-12871213D01*
X16721213Y-12871213D01*
X16721213Y-13071213D02*
X16721213Y-13028787D01*
X16678787Y-13028787D01*
X16678787Y-13071213D01*
X16721213Y-13071213D01*
X16721213Y-13271213D02*
X16721213Y-13228787D01*
X16678787Y-13228787D01*
X16678787Y-13271213D01*
X16721213Y-13271213D01*
X16721213Y-13471213D02*
X16721213Y-13428787D01*
X16678787Y-13428787D01*
X16678787Y-13471213D01*
X16721213Y-13471213D01*
X16721213Y-13671213D02*
X16721213Y-13628787D01*
X16678787Y-13628787D01*
X16678787Y-13671213D01*
X16721213Y-13671213D01*
X16721213Y-13921213D02*
X16721213Y-13878787D01*
X16678787Y-13878787D01*
X16678787Y-13921213D01*
X16721213Y-13921213D01*
X16721213Y-14321213D02*
X16721213Y-14278787D01*
X16678787Y-14278787D01*
X16678787Y-14321213D01*
X16721213Y-14321213D01*
X16921213Y-9421213D02*
X16921213Y-9378787D01*
X16878787Y-9378787D01*
X16878787Y-9421213D01*
X16921213Y-9421213D01*
X16921213Y-9871213D02*
X16921213Y-9828787D01*
X16878787Y-9828787D01*
X16878787Y-9871213D01*
X16921213Y-9871213D01*
X16921213Y-10271213D02*
X16921213Y-10228787D01*
X16878787Y-10228787D01*
X16878787Y-10271213D01*
X16921213Y-10271213D01*
X16921213Y-10671213D02*
X16921213Y-10628787D01*
X16878787Y-10628787D01*
X16878787Y-10671213D01*
X16921213Y-10671213D01*
X16921213Y-11121213D02*
X16921213Y-11078787D01*
X16878787Y-11078787D01*
X16878787Y-11121213D01*
X16921213Y-11121213D01*
X16921213Y-12421213D02*
X16921213Y-12378787D01*
X16878787Y-12378787D01*
X16878787Y-12421213D01*
X16921213Y-12421213D01*
X16921213Y-12871213D02*
X16921213Y-12828787D01*
X16878787Y-12828787D01*
X16878787Y-12871213D01*
X16921213Y-12871213D01*
X16921213Y-13271213D02*
X16921213Y-13228787D01*
X16878787Y-13228787D01*
X16878787Y-13271213D01*
X16921213Y-13271213D01*
X16921213Y-13671213D02*
X16921213Y-13628787D01*
X16878787Y-13628787D01*
X16878787Y-13671213D01*
X16921213Y-13671213D01*
X16921213Y-14121213D02*
X16921213Y-14078787D01*
X16878787Y-14078787D01*
X16878787Y-14121213D01*
X16921213Y-14121213D01*
X17121213Y-9221213D02*
X17121213Y-9178787D01*
X17078787Y-9178787D01*
X17078787Y-9221213D01*
X17121213Y-9221213D01*
X17121213Y-9621213D02*
X17121213Y-9578787D01*
X17078787Y-9578787D01*
X17078787Y-9621213D01*
X17121213Y-9621213D01*
X17121213Y-10071213D02*
X17121213Y-10028787D01*
X17078787Y-10028787D01*
X17078787Y-10071213D01*
X17121213Y-10071213D01*
X17121213Y-10471213D02*
X17121213Y-10428787D01*
X17078787Y-10428787D01*
X17078787Y-10471213D01*
X17121213Y-10471213D01*
X17121213Y-10921213D02*
X17121213Y-10878787D01*
X17078787Y-10878787D01*
X17078787Y-10921213D01*
X17121213Y-10921213D01*
X17121213Y-12221213D02*
X17121213Y-12178787D01*
X17078787Y-12178787D01*
X17078787Y-12221213D01*
X17121213Y-12221213D01*
X17121213Y-12621213D02*
X17121213Y-12578787D01*
X17078787Y-12578787D01*
X17078787Y-12621213D01*
X17121213Y-12621213D01*
X17121213Y-13071213D02*
X17121213Y-13028787D01*
X17078787Y-13028787D01*
X17078787Y-13071213D01*
X17121213Y-13071213D01*
X17121213Y-13471213D02*
X17121213Y-13428787D01*
X17078787Y-13428787D01*
X17078787Y-13471213D01*
X17121213Y-13471213D01*
X17121213Y-13921213D02*
X17121213Y-13878787D01*
X17078787Y-13878787D01*
X17078787Y-13921213D01*
X17121213Y-13921213D01*
X17261213Y-10701213D02*
X17261213Y-10658787D01*
X17218787Y-10658787D01*
X17218787Y-10701213D01*
X17261213Y-10701213D01*
X17261213Y-11901213D02*
X17261213Y-11858787D01*
X17218787Y-11858787D01*
X17218787Y-11901213D01*
X17261213Y-11901213D01*
X17361213Y-12821213D02*
X17361213Y-12778787D01*
X17318787Y-12778787D01*
X17318787Y-12821213D01*
X17361213Y-12821213D01*
X8990000Y-6392500D02*
X9040000Y-6342500D01*
X8990000Y-6292500D01*
X8940000Y-6342500D01*
X8990000Y-6392500D01*
X8940000Y-6232500D02*
X8940000Y-6452500D01*
X9040000Y-6452500D02*
G75*
G02*
X8940000Y-6452500I-50000J0D01*
G01*
X9040000Y-6452500D02*
X9040000Y-6232500D01*
X9040000Y-6232500D02*
G75*
G03*
X8940000Y-6232500I-50000J0D01*
G01*
X9330000Y-6872500D02*
X9380000Y-6822500D01*
X9330000Y-6772500D01*
X9280000Y-6822500D01*
X9330000Y-6872500D01*
X9440000Y-6772500D02*
X9220000Y-6772500D01*
X9220000Y-6872500D02*
G75*
G02*
X9220000Y-6772500I0J50000D01*
G01*
X9220000Y-6872500D02*
X9440000Y-6872500D01*
X9440000Y-6872500D02*
G75*
G03*
X9440000Y-6772500I0J50000D01*
G01*
X9620000Y-6392500D02*
X9670000Y-6342500D01*
X9620000Y-6292500D01*
X9570000Y-6342500D01*
X9620000Y-6392500D01*
X9570000Y-6212500D02*
X9570000Y-6472500D01*
X9670000Y-6472500D02*
G75*
G02*
X9570000Y-6472500I-50000J0D01*
G01*
X9670000Y-6472500D02*
X9670000Y-6212500D01*
X9670000Y-6212500D02*
G75*
G03*
X9570000Y-6212500I-50000J0D01*
G01*
D11*
X8458277Y-15113984D02*
X8458277Y-14913984D01*
X8458277Y-14913984D02*
X8505896Y-14913984D01*
X8505896Y-14913984D02*
X8534467Y-14923508D01*
X8534467Y-14923508D02*
X8553515Y-14942555D01*
X8553515Y-14942555D02*
X8563039Y-14961603D01*
X8563039Y-14961603D02*
X8572563Y-14999698D01*
X8572563Y-14999698D02*
X8572563Y-15028269D01*
X8572563Y-15028269D02*
X8563039Y-15066365D01*
X8563039Y-15066365D02*
X8553515Y-15085412D01*
X8553515Y-15085412D02*
X8534467Y-15104460D01*
X8534467Y-15104460D02*
X8505896Y-15113984D01*
X8505896Y-15113984D02*
X8458277Y-15113984D01*
X8658277Y-15113984D02*
X8658277Y-14980650D01*
X8658277Y-15018746D02*
X8667801Y-14999698D01*
X8667801Y-14999698D02*
X8677324Y-14990174D01*
X8677324Y-14990174D02*
X8696372Y-14980650D01*
X8696372Y-14980650D02*
X8715420Y-14980650D01*
X8782086Y-15113984D02*
X8782086Y-14980650D01*
X8782086Y-14913984D02*
X8772563Y-14923508D01*
X8772563Y-14923508D02*
X8782086Y-14933031D01*
X8782086Y-14933031D02*
X8791610Y-14923508D01*
X8791610Y-14923508D02*
X8782086Y-14913984D01*
X8782086Y-14913984D02*
X8782086Y-14933031D01*
X8905896Y-15113984D02*
X8886848Y-15104460D01*
X8886848Y-15104460D02*
X8877324Y-15085412D01*
X8877324Y-15085412D02*
X8877324Y-14913984D01*
X9010658Y-15113984D02*
X8991610Y-15104460D01*
X8991610Y-15104460D02*
X8982086Y-15085412D01*
X8982086Y-15085412D02*
X8982086Y-14913984D01*
X9239229Y-15113984D02*
X9239229Y-14913984D01*
X9239229Y-14913984D02*
X9305896Y-15056841D01*
X9305896Y-15056841D02*
X9372563Y-14913984D01*
X9372563Y-14913984D02*
X9372563Y-15113984D01*
X9553515Y-15113984D02*
X9553515Y-15009222D01*
X9553515Y-15009222D02*
X9543991Y-14990174D01*
X9543991Y-14990174D02*
X9524944Y-14980650D01*
X9524944Y-14980650D02*
X9486848Y-14980650D01*
X9486848Y-14980650D02*
X9467801Y-14990174D01*
X9553515Y-15104460D02*
X9534467Y-15113984D01*
X9534467Y-15113984D02*
X9486848Y-15113984D01*
X9486848Y-15113984D02*
X9467801Y-15104460D01*
X9467801Y-15104460D02*
X9458277Y-15085412D01*
X9458277Y-15085412D02*
X9458277Y-15066365D01*
X9458277Y-15066365D02*
X9467801Y-15047317D01*
X9467801Y-15047317D02*
X9486848Y-15037793D01*
X9486848Y-15037793D02*
X9534467Y-15037793D01*
X9534467Y-15037793D02*
X9553515Y-15028269D01*
X9648753Y-14980650D02*
X9648753Y-15180650D01*
X9648753Y-14990174D02*
X9667801Y-14980650D01*
X9667801Y-14980650D02*
X9705896Y-14980650D01*
X9705896Y-14980650D02*
X9724944Y-14990174D01*
X9724944Y-14990174D02*
X9734467Y-14999698D01*
X9734467Y-14999698D02*
X9743991Y-15018746D01*
X9743991Y-15018746D02*
X9743991Y-15075888D01*
X9743991Y-15075888D02*
X9734467Y-15094936D01*
X9734467Y-15094936D02*
X9724944Y-15104460D01*
X9724944Y-15104460D02*
X9705896Y-15113984D01*
X9705896Y-15113984D02*
X9667801Y-15113984D01*
X9667801Y-15113984D02*
X9648753Y-15104460D01*
X9829705Y-15094936D02*
X9839229Y-15104460D01*
X9839229Y-15104460D02*
X9829705Y-15113984D01*
X9829705Y-15113984D02*
X9820182Y-15104460D01*
X9820182Y-15104460D02*
X9829705Y-15094936D01*
X9829705Y-15094936D02*
X9829705Y-15113984D01*
X9829705Y-14990174D02*
X9839229Y-14999698D01*
X9839229Y-14999698D02*
X9829705Y-15009222D01*
X9829705Y-15009222D02*
X9820182Y-14999698D01*
X9820182Y-14999698D02*
X9829705Y-14990174D01*
X9829705Y-14990174D02*
X9829705Y-15009222D01*
D12*
X8167500Y-15427500D02*
X8197500Y-15457500D01*
X8197500Y-15427500D02*
X8167500Y-15457500D01*
D11*
X8496372Y-15333984D02*
X8515420Y-15333984D01*
X8515420Y-15333984D02*
X8534467Y-15343508D01*
X8534467Y-15343508D02*
X8543991Y-15353031D01*
X8543991Y-15353031D02*
X8553515Y-15372079D01*
X8553515Y-15372079D02*
X8563039Y-15410174D01*
X8563039Y-15410174D02*
X8563039Y-15457793D01*
X8563039Y-15457793D02*
X8553515Y-15495888D01*
X8553515Y-15495888D02*
X8543991Y-15514936D01*
X8543991Y-15514936D02*
X8534467Y-15524460D01*
X8534467Y-15524460D02*
X8515420Y-15533984D01*
X8515420Y-15533984D02*
X8496372Y-15533984D01*
X8496372Y-15533984D02*
X8477324Y-15524460D01*
X8477324Y-15524460D02*
X8467801Y-15514936D01*
X8467801Y-15514936D02*
X8458277Y-15495888D01*
X8458277Y-15495888D02*
X8448753Y-15457793D01*
X8448753Y-15457793D02*
X8448753Y-15410174D01*
X8448753Y-15410174D02*
X8458277Y-15372079D01*
X8458277Y-15372079D02*
X8467801Y-15353031D01*
X8467801Y-15353031D02*
X8477324Y-15343508D01*
X8477324Y-15343508D02*
X8496372Y-15333984D01*
X8648753Y-15514936D02*
X8658277Y-15524460D01*
X8658277Y-15524460D02*
X8648753Y-15533984D01*
X8648753Y-15533984D02*
X8639229Y-15524460D01*
X8639229Y-15524460D02*
X8648753Y-15514936D01*
X8648753Y-15514936D02*
X8648753Y-15533984D01*
X8724944Y-15333984D02*
X8848753Y-15333984D01*
X8848753Y-15333984D02*
X8782086Y-15410174D01*
X8782086Y-15410174D02*
X8810658Y-15410174D01*
X8810658Y-15410174D02*
X8829705Y-15419698D01*
X8829705Y-15419698D02*
X8839229Y-15429222D01*
X8839229Y-15429222D02*
X8848753Y-15448269D01*
X8848753Y-15448269D02*
X8848753Y-15495888D01*
X8848753Y-15495888D02*
X8839229Y-15514936D01*
X8839229Y-15514936D02*
X8829705Y-15524460D01*
X8829705Y-15524460D02*
X8810658Y-15533984D01*
X8810658Y-15533984D02*
X8753515Y-15533984D01*
X8753515Y-15533984D02*
X8734467Y-15524460D01*
X8734467Y-15524460D02*
X8724944Y-15514936D01*
X8972563Y-15333984D02*
X8991610Y-15333984D01*
X8991610Y-15333984D02*
X9010658Y-15343508D01*
X9010658Y-15343508D02*
X9020182Y-15353031D01*
X9020182Y-15353031D02*
X9029705Y-15372079D01*
X9029705Y-15372079D02*
X9039229Y-15410174D01*
X9039229Y-15410174D02*
X9039229Y-15457793D01*
X9039229Y-15457793D02*
X9029705Y-15495888D01*
X9029705Y-15495888D02*
X9020182Y-15514936D01*
X9020182Y-15514936D02*
X9010658Y-15524460D01*
X9010658Y-15524460D02*
X8991610Y-15533984D01*
X8991610Y-15533984D02*
X8972563Y-15533984D01*
X8972563Y-15533984D02*
X8953515Y-15524460D01*
X8953515Y-15524460D02*
X8943991Y-15514936D01*
X8943991Y-15514936D02*
X8934467Y-15495888D01*
X8934467Y-15495888D02*
X8924944Y-15457793D01*
X8924944Y-15457793D02*
X8924944Y-15410174D01*
X8924944Y-15410174D02*
X8934467Y-15372079D01*
X8934467Y-15372079D02*
X8943991Y-15353031D01*
X8943991Y-15353031D02*
X8953515Y-15343508D01*
X8953515Y-15343508D02*
X8972563Y-15333984D01*
X9163039Y-15333984D02*
X9182086Y-15333984D01*
X9182086Y-15333984D02*
X9201134Y-15343508D01*
X9201134Y-15343508D02*
X9210658Y-15353031D01*
X9210658Y-15353031D02*
X9220182Y-15372079D01*
X9220182Y-15372079D02*
X9229705Y-15410174D01*
X9229705Y-15410174D02*
X9229705Y-15457793D01*
X9229705Y-15457793D02*
X9220182Y-15495888D01*
X9220182Y-15495888D02*
X9210658Y-15514936D01*
X9210658Y-15514936D02*
X9201134Y-15524460D01*
X9201134Y-15524460D02*
X9182086Y-15533984D01*
X9182086Y-15533984D02*
X9163039Y-15533984D01*
X9163039Y-15533984D02*
X9143991Y-15524460D01*
X9143991Y-15524460D02*
X9134467Y-15514936D01*
X9134467Y-15514936D02*
X9124944Y-15495888D01*
X9124944Y-15495888D02*
X9115420Y-15457793D01*
X9115420Y-15457793D02*
X9115420Y-15410174D01*
X9115420Y-15410174D02*
X9124944Y-15372079D01*
X9124944Y-15372079D02*
X9134467Y-15353031D01*
X9134467Y-15353031D02*
X9143991Y-15343508D01*
X9143991Y-15343508D02*
X9163039Y-15333984D01*
X9315420Y-15533984D02*
X9315420Y-15400650D01*
X9315420Y-15419698D02*
X9324944Y-15410174D01*
X9324944Y-15410174D02*
X9343991Y-15400650D01*
X9343991Y-15400650D02*
X9372563Y-15400650D01*
X9372563Y-15400650D02*
X9391610Y-15410174D01*
X9391610Y-15410174D02*
X9401134Y-15429222D01*
X9401134Y-15429222D02*
X9401134Y-15533984D01*
X9401134Y-15429222D02*
X9410658Y-15410174D01*
X9410658Y-15410174D02*
X9429705Y-15400650D01*
X9429705Y-15400650D02*
X9458277Y-15400650D01*
X9458277Y-15400650D02*
X9477325Y-15410174D01*
X9477325Y-15410174D02*
X9486848Y-15429222D01*
X9486848Y-15429222D02*
X9486848Y-15533984D01*
X9582086Y-15533984D02*
X9582086Y-15400650D01*
X9582086Y-15419698D02*
X9591610Y-15410174D01*
X9591610Y-15410174D02*
X9610658Y-15400650D01*
X9610658Y-15400650D02*
X9639229Y-15400650D01*
X9639229Y-15400650D02*
X9658277Y-15410174D01*
X9658277Y-15410174D02*
X9667801Y-15429222D01*
X9667801Y-15429222D02*
X9667801Y-15533984D01*
X9667801Y-15429222D02*
X9677325Y-15410174D01*
X9677325Y-15410174D02*
X9696372Y-15400650D01*
X9696372Y-15400650D02*
X9724944Y-15400650D01*
X9724944Y-15400650D02*
X9743991Y-15410174D01*
X9743991Y-15410174D02*
X9753515Y-15429222D01*
X9753515Y-15429222D02*
X9753515Y-15533984D01*
X10143991Y-15324460D02*
X9972563Y-15581603D01*
X10401134Y-15333984D02*
X10420182Y-15333984D01*
X10420182Y-15333984D02*
X10439229Y-15343508D01*
X10439229Y-15343508D02*
X10448753Y-15353031D01*
X10448753Y-15353031D02*
X10458277Y-15372079D01*
X10458277Y-15372079D02*
X10467801Y-15410174D01*
X10467801Y-15410174D02*
X10467801Y-15457793D01*
X10467801Y-15457793D02*
X10458277Y-15495888D01*
X10458277Y-15495888D02*
X10448753Y-15514936D01*
X10448753Y-15514936D02*
X10439229Y-15524460D01*
X10439229Y-15524460D02*
X10420182Y-15533984D01*
X10420182Y-15533984D02*
X10401134Y-15533984D01*
X10401134Y-15533984D02*
X10382087Y-15524460D01*
X10382087Y-15524460D02*
X10372563Y-15514936D01*
X10372563Y-15514936D02*
X10363039Y-15495888D01*
X10363039Y-15495888D02*
X10353515Y-15457793D01*
X10353515Y-15457793D02*
X10353515Y-15410174D01*
X10353515Y-15410174D02*
X10363039Y-15372079D01*
X10363039Y-15372079D02*
X10372563Y-15353031D01*
X10372563Y-15353031D02*
X10382087Y-15343508D01*
X10382087Y-15343508D02*
X10401134Y-15333984D01*
X10553515Y-15514936D02*
X10563039Y-15524460D01*
X10563039Y-15524460D02*
X10553515Y-15533984D01*
X10553515Y-15533984D02*
X10543991Y-15524460D01*
X10543991Y-15524460D02*
X10553515Y-15514936D01*
X10553515Y-15514936D02*
X10553515Y-15533984D01*
X10686848Y-15333984D02*
X10705896Y-15333984D01*
X10705896Y-15333984D02*
X10724944Y-15343508D01*
X10724944Y-15343508D02*
X10734468Y-15353031D01*
X10734468Y-15353031D02*
X10743991Y-15372079D01*
X10743991Y-15372079D02*
X10753515Y-15410174D01*
X10753515Y-15410174D02*
X10753515Y-15457793D01*
X10753515Y-15457793D02*
X10743991Y-15495888D01*
X10743991Y-15495888D02*
X10734468Y-15514936D01*
X10734468Y-15514936D02*
X10724944Y-15524460D01*
X10724944Y-15524460D02*
X10705896Y-15533984D01*
X10705896Y-15533984D02*
X10686848Y-15533984D01*
X10686848Y-15533984D02*
X10667801Y-15524460D01*
X10667801Y-15524460D02*
X10658277Y-15514936D01*
X10658277Y-15514936D02*
X10648753Y-15495888D01*
X10648753Y-15495888D02*
X10639229Y-15457793D01*
X10639229Y-15457793D02*
X10639229Y-15410174D01*
X10639229Y-15410174D02*
X10648753Y-15372079D01*
X10648753Y-15372079D02*
X10658277Y-15353031D01*
X10658277Y-15353031D02*
X10667801Y-15343508D01*
X10667801Y-15343508D02*
X10686848Y-15333984D01*
X10943991Y-15533984D02*
X10829706Y-15533984D01*
X10886848Y-15533984D02*
X10886848Y-15333984D01*
X10886848Y-15333984D02*
X10867801Y-15362555D01*
X10867801Y-15362555D02*
X10848753Y-15381603D01*
X10848753Y-15381603D02*
X10829706Y-15391127D01*
X11134468Y-15533984D02*
X11020182Y-15533984D01*
X11077325Y-15533984D02*
X11077325Y-15333984D01*
X11077325Y-15333984D02*
X11058277Y-15362555D01*
X11058277Y-15362555D02*
X11039229Y-15381603D01*
X11039229Y-15381603D02*
X11020182Y-15391127D01*
X11248753Y-15419698D02*
X11229706Y-15410174D01*
X11229706Y-15410174D02*
X11220182Y-15400650D01*
X11220182Y-15400650D02*
X11210658Y-15381603D01*
X11210658Y-15381603D02*
X11210658Y-15372079D01*
X11210658Y-15372079D02*
X11220182Y-15353031D01*
X11220182Y-15353031D02*
X11229706Y-15343508D01*
X11229706Y-15343508D02*
X11248753Y-15333984D01*
X11248753Y-15333984D02*
X11286848Y-15333984D01*
X11286848Y-15333984D02*
X11305896Y-15343508D01*
X11305896Y-15343508D02*
X11315420Y-15353031D01*
X11315420Y-15353031D02*
X11324944Y-15372079D01*
X11324944Y-15372079D02*
X11324944Y-15381603D01*
X11324944Y-15381603D02*
X11315420Y-15400650D01*
X11315420Y-15400650D02*
X11305896Y-15410174D01*
X11305896Y-15410174D02*
X11286848Y-15419698D01*
X11286848Y-15419698D02*
X11248753Y-15419698D01*
X11248753Y-15419698D02*
X11229706Y-15429222D01*
X11229706Y-15429222D02*
X11220182Y-15438746D01*
X11220182Y-15438746D02*
X11210658Y-15457793D01*
X11210658Y-15457793D02*
X11210658Y-15495888D01*
X11210658Y-15495888D02*
X11220182Y-15514936D01*
X11220182Y-15514936D02*
X11229706Y-15524460D01*
X11229706Y-15524460D02*
X11248753Y-15533984D01*
X11248753Y-15533984D02*
X11286848Y-15533984D01*
X11286848Y-15533984D02*
X11305896Y-15524460D01*
X11305896Y-15524460D02*
X11315420Y-15514936D01*
X11315420Y-15514936D02*
X11324944Y-15495888D01*
X11324944Y-15495888D02*
X11324944Y-15457793D01*
X11324944Y-15457793D02*
X11315420Y-15438746D01*
X11315420Y-15438746D02*
X11305896Y-15429222D01*
X11305896Y-15429222D02*
X11286848Y-15419698D01*
X11401134Y-15333984D02*
X11401134Y-15372079D01*
X11477325Y-15333984D02*
X11477325Y-15372079D01*
X11772563Y-15610174D02*
X11763039Y-15600650D01*
X11763039Y-15600650D02*
X11743991Y-15572079D01*
X11743991Y-15572079D02*
X11734468Y-15553031D01*
X11734468Y-15553031D02*
X11724944Y-15524460D01*
X11724944Y-15524460D02*
X11715420Y-15476841D01*
X11715420Y-15476841D02*
X11715420Y-15438746D01*
X11715420Y-15438746D02*
X11724944Y-15391127D01*
X11724944Y-15391127D02*
X11734468Y-15362555D01*
X11734468Y-15362555D02*
X11743991Y-15343508D01*
X11743991Y-15343508D02*
X11763039Y-15314936D01*
X11763039Y-15314936D02*
X11772563Y-15305412D01*
X11934468Y-15333984D02*
X11896372Y-15333984D01*
X11896372Y-15333984D02*
X11877325Y-15343508D01*
X11877325Y-15343508D02*
X11867801Y-15353031D01*
X11867801Y-15353031D02*
X11848753Y-15381603D01*
X11848753Y-15381603D02*
X11839229Y-15419698D01*
X11839229Y-15419698D02*
X11839229Y-15495888D01*
X11839229Y-15495888D02*
X11848753Y-15514936D01*
X11848753Y-15514936D02*
X11858277Y-15524460D01*
X11858277Y-15524460D02*
X11877325Y-15533984D01*
X11877325Y-15533984D02*
X11915420Y-15533984D01*
X11915420Y-15533984D02*
X11934468Y-15524460D01*
X11934468Y-15524460D02*
X11943991Y-15514936D01*
X11943991Y-15514936D02*
X11953515Y-15495888D01*
X11953515Y-15495888D02*
X11953515Y-15448269D01*
X11953515Y-15448269D02*
X11943991Y-15429222D01*
X11943991Y-15429222D02*
X11934468Y-15419698D01*
X11934468Y-15419698D02*
X11915420Y-15410174D01*
X11915420Y-15410174D02*
X11877325Y-15410174D01*
X11877325Y-15410174D02*
X11858277Y-15419698D01*
X11858277Y-15419698D02*
X11848753Y-15429222D01*
X11848753Y-15429222D02*
X11839229Y-15448269D01*
X12029706Y-15353031D02*
X12039229Y-15343508D01*
X12039229Y-15343508D02*
X12058277Y-15333984D01*
X12058277Y-15333984D02*
X12105896Y-15333984D01*
X12105896Y-15333984D02*
X12124944Y-15343508D01*
X12124944Y-15343508D02*
X12134468Y-15353031D01*
X12134468Y-15353031D02*
X12143991Y-15372079D01*
X12143991Y-15372079D02*
X12143991Y-15391127D01*
X12143991Y-15391127D02*
X12134468Y-15419698D01*
X12134468Y-15419698D02*
X12020182Y-15533984D01*
X12020182Y-15533984D02*
X12143991Y-15533984D01*
X12382087Y-15533984D02*
X12382087Y-15333984D01*
X12467801Y-15533984D02*
X12467801Y-15429222D01*
X12467801Y-15429222D02*
X12458277Y-15410174D01*
X12458277Y-15410174D02*
X12439230Y-15400650D01*
X12439230Y-15400650D02*
X12410658Y-15400650D01*
X12410658Y-15400650D02*
X12391610Y-15410174D01*
X12391610Y-15410174D02*
X12382087Y-15419698D01*
X12591610Y-15533984D02*
X12572563Y-15524460D01*
X12572563Y-15524460D02*
X12563039Y-15514936D01*
X12563039Y-15514936D02*
X12553515Y-15495888D01*
X12553515Y-15495888D02*
X12553515Y-15438746D01*
X12553515Y-15438746D02*
X12563039Y-15419698D01*
X12563039Y-15419698D02*
X12572563Y-15410174D01*
X12572563Y-15410174D02*
X12591610Y-15400650D01*
X12591610Y-15400650D02*
X12620182Y-15400650D01*
X12620182Y-15400650D02*
X12639230Y-15410174D01*
X12639230Y-15410174D02*
X12648753Y-15419698D01*
X12648753Y-15419698D02*
X12658277Y-15438746D01*
X12658277Y-15438746D02*
X12658277Y-15495888D01*
X12658277Y-15495888D02*
X12648753Y-15514936D01*
X12648753Y-15514936D02*
X12639230Y-15524460D01*
X12639230Y-15524460D02*
X12620182Y-15533984D01*
X12620182Y-15533984D02*
X12591610Y-15533984D01*
X12772563Y-15533984D02*
X12753515Y-15524460D01*
X12753515Y-15524460D02*
X12743991Y-15505412D01*
X12743991Y-15505412D02*
X12743991Y-15333984D01*
X12924944Y-15524460D02*
X12905896Y-15533984D01*
X12905896Y-15533984D02*
X12867801Y-15533984D01*
X12867801Y-15533984D02*
X12848753Y-15524460D01*
X12848753Y-15524460D02*
X12839230Y-15505412D01*
X12839230Y-15505412D02*
X12839230Y-15429222D01*
X12839230Y-15429222D02*
X12848753Y-15410174D01*
X12848753Y-15410174D02*
X12867801Y-15400650D01*
X12867801Y-15400650D02*
X12905896Y-15400650D01*
X12905896Y-15400650D02*
X12924944Y-15410174D01*
X12924944Y-15410174D02*
X12934468Y-15429222D01*
X12934468Y-15429222D02*
X12934468Y-15448269D01*
X12934468Y-15448269D02*
X12839230Y-15467317D01*
X13010658Y-15524460D02*
X13029706Y-15533984D01*
X13029706Y-15533984D02*
X13067801Y-15533984D01*
X13067801Y-15533984D02*
X13086849Y-15524460D01*
X13086849Y-15524460D02*
X13096372Y-15505412D01*
X13096372Y-15505412D02*
X13096372Y-15495888D01*
X13096372Y-15495888D02*
X13086849Y-15476841D01*
X13086849Y-15476841D02*
X13067801Y-15467317D01*
X13067801Y-15467317D02*
X13039230Y-15467317D01*
X13039230Y-15467317D02*
X13020182Y-15457793D01*
X13020182Y-15457793D02*
X13010658Y-15438746D01*
X13010658Y-15438746D02*
X13010658Y-15429222D01*
X13010658Y-15429222D02*
X13020182Y-15410174D01*
X13020182Y-15410174D02*
X13039230Y-15400650D01*
X13039230Y-15400650D02*
X13067801Y-15400650D01*
X13067801Y-15400650D02*
X13086849Y-15410174D01*
X13163039Y-15610174D02*
X13172563Y-15600650D01*
X13172563Y-15600650D02*
X13191611Y-15572079D01*
X13191611Y-15572079D02*
X13201134Y-15553031D01*
X13201134Y-15553031D02*
X13210658Y-15524460D01*
X13210658Y-15524460D02*
X13220182Y-15476841D01*
X13220182Y-15476841D02*
X13220182Y-15438746D01*
X13220182Y-15438746D02*
X13210658Y-15391127D01*
X13210658Y-15391127D02*
X13201134Y-15362555D01*
X13201134Y-15362555D02*
X13191611Y-15343508D01*
X13191611Y-15343508D02*
X13172563Y-15314936D01*
X13172563Y-15314936D02*
X13163039Y-15305412D01*
D12*
X8197500Y-15706500D02*
G75*
G02*
X8157500Y-15706500I-20000J0D01*
G01*
X8157500Y-15706500D02*
G75*
G02*
X8197500Y-15706500I20000J0D01*
G01*
D11*
X8496372Y-15597984D02*
X8515420Y-15597984D01*
X8515420Y-15597984D02*
X8534467Y-15607508D01*
X8534467Y-15607508D02*
X8543991Y-15617031D01*
X8543991Y-15617031D02*
X8553515Y-15636079D01*
X8553515Y-15636079D02*
X8563039Y-15674174D01*
X8563039Y-15674174D02*
X8563039Y-15721793D01*
X8563039Y-15721793D02*
X8553515Y-15759888D01*
X8553515Y-15759888D02*
X8543991Y-15778936D01*
X8543991Y-15778936D02*
X8534467Y-15788460D01*
X8534467Y-15788460D02*
X8515420Y-15797984D01*
X8515420Y-15797984D02*
X8496372Y-15797984D01*
X8496372Y-15797984D02*
X8477324Y-15788460D01*
X8477324Y-15788460D02*
X8467801Y-15778936D01*
X8467801Y-15778936D02*
X8458277Y-15759888D01*
X8458277Y-15759888D02*
X8448753Y-15721793D01*
X8448753Y-15721793D02*
X8448753Y-15674174D01*
X8448753Y-15674174D02*
X8458277Y-15636079D01*
X8458277Y-15636079D02*
X8467801Y-15617031D01*
X8467801Y-15617031D02*
X8477324Y-15607508D01*
X8477324Y-15607508D02*
X8496372Y-15597984D01*
X8648753Y-15778936D02*
X8658277Y-15788460D01*
X8658277Y-15788460D02*
X8648753Y-15797984D01*
X8648753Y-15797984D02*
X8639229Y-15788460D01*
X8639229Y-15788460D02*
X8648753Y-15778936D01*
X8648753Y-15778936D02*
X8648753Y-15797984D01*
X8829705Y-15664650D02*
X8829705Y-15797984D01*
X8782086Y-15588460D02*
X8734467Y-15731317D01*
X8734467Y-15731317D02*
X8858277Y-15731317D01*
X8972563Y-15597984D02*
X8991610Y-15597984D01*
X8991610Y-15597984D02*
X9010658Y-15607508D01*
X9010658Y-15607508D02*
X9020182Y-15617031D01*
X9020182Y-15617031D02*
X9029705Y-15636079D01*
X9029705Y-15636079D02*
X9039229Y-15674174D01*
X9039229Y-15674174D02*
X9039229Y-15721793D01*
X9039229Y-15721793D02*
X9029705Y-15759888D01*
X9029705Y-15759888D02*
X9020182Y-15778936D01*
X9020182Y-15778936D02*
X9010658Y-15788460D01*
X9010658Y-15788460D02*
X8991610Y-15797984D01*
X8991610Y-15797984D02*
X8972563Y-15797984D01*
X8972563Y-15797984D02*
X8953515Y-15788460D01*
X8953515Y-15788460D02*
X8943991Y-15778936D01*
X8943991Y-15778936D02*
X8934467Y-15759888D01*
X8934467Y-15759888D02*
X8924944Y-15721793D01*
X8924944Y-15721793D02*
X8924944Y-15674174D01*
X8924944Y-15674174D02*
X8934467Y-15636079D01*
X8934467Y-15636079D02*
X8943991Y-15617031D01*
X8943991Y-15617031D02*
X8953515Y-15607508D01*
X8953515Y-15607508D02*
X8972563Y-15597984D01*
X9163039Y-15597984D02*
X9182086Y-15597984D01*
X9182086Y-15597984D02*
X9201134Y-15607508D01*
X9201134Y-15607508D02*
X9210658Y-15617031D01*
X9210658Y-15617031D02*
X9220182Y-15636079D01*
X9220182Y-15636079D02*
X9229705Y-15674174D01*
X9229705Y-15674174D02*
X9229705Y-15721793D01*
X9229705Y-15721793D02*
X9220182Y-15759888D01*
X9220182Y-15759888D02*
X9210658Y-15778936D01*
X9210658Y-15778936D02*
X9201134Y-15788460D01*
X9201134Y-15788460D02*
X9182086Y-15797984D01*
X9182086Y-15797984D02*
X9163039Y-15797984D01*
X9163039Y-15797984D02*
X9143991Y-15788460D01*
X9143991Y-15788460D02*
X9134467Y-15778936D01*
X9134467Y-15778936D02*
X9124944Y-15759888D01*
X9124944Y-15759888D02*
X9115420Y-15721793D01*
X9115420Y-15721793D02*
X9115420Y-15674174D01*
X9115420Y-15674174D02*
X9124944Y-15636079D01*
X9124944Y-15636079D02*
X9134467Y-15617031D01*
X9134467Y-15617031D02*
X9143991Y-15607508D01*
X9143991Y-15607508D02*
X9163039Y-15597984D01*
X9315420Y-15797984D02*
X9315420Y-15664650D01*
X9315420Y-15683698D02*
X9324944Y-15674174D01*
X9324944Y-15674174D02*
X9343991Y-15664650D01*
X9343991Y-15664650D02*
X9372563Y-15664650D01*
X9372563Y-15664650D02*
X9391610Y-15674174D01*
X9391610Y-15674174D02*
X9401134Y-15693222D01*
X9401134Y-15693222D02*
X9401134Y-15797984D01*
X9401134Y-15693222D02*
X9410658Y-15674174D01*
X9410658Y-15674174D02*
X9429705Y-15664650D01*
X9429705Y-15664650D02*
X9458277Y-15664650D01*
X9458277Y-15664650D02*
X9477325Y-15674174D01*
X9477325Y-15674174D02*
X9486848Y-15693222D01*
X9486848Y-15693222D02*
X9486848Y-15797984D01*
X9582086Y-15797984D02*
X9582086Y-15664650D01*
X9582086Y-15683698D02*
X9591610Y-15674174D01*
X9591610Y-15674174D02*
X9610658Y-15664650D01*
X9610658Y-15664650D02*
X9639229Y-15664650D01*
X9639229Y-15664650D02*
X9658277Y-15674174D01*
X9658277Y-15674174D02*
X9667801Y-15693222D01*
X9667801Y-15693222D02*
X9667801Y-15797984D01*
X9667801Y-15693222D02*
X9677325Y-15674174D01*
X9677325Y-15674174D02*
X9696372Y-15664650D01*
X9696372Y-15664650D02*
X9724944Y-15664650D01*
X9724944Y-15664650D02*
X9743991Y-15674174D01*
X9743991Y-15674174D02*
X9753515Y-15693222D01*
X9753515Y-15693222D02*
X9753515Y-15797984D01*
X10143991Y-15588460D02*
X9972563Y-15845603D01*
X10401134Y-15597984D02*
X10420182Y-15597984D01*
X10420182Y-15597984D02*
X10439229Y-15607508D01*
X10439229Y-15607508D02*
X10448753Y-15617031D01*
X10448753Y-15617031D02*
X10458277Y-15636079D01*
X10458277Y-15636079D02*
X10467801Y-15674174D01*
X10467801Y-15674174D02*
X10467801Y-15721793D01*
X10467801Y-15721793D02*
X10458277Y-15759888D01*
X10458277Y-15759888D02*
X10448753Y-15778936D01*
X10448753Y-15778936D02*
X10439229Y-15788460D01*
X10439229Y-15788460D02*
X10420182Y-15797984D01*
X10420182Y-15797984D02*
X10401134Y-15797984D01*
X10401134Y-15797984D02*
X10382087Y-15788460D01*
X10382087Y-15788460D02*
X10372563Y-15778936D01*
X10372563Y-15778936D02*
X10363039Y-15759888D01*
X10363039Y-15759888D02*
X10353515Y-15721793D01*
X10353515Y-15721793D02*
X10353515Y-15674174D01*
X10353515Y-15674174D02*
X10363039Y-15636079D01*
X10363039Y-15636079D02*
X10372563Y-15617031D01*
X10372563Y-15617031D02*
X10382087Y-15607508D01*
X10382087Y-15607508D02*
X10401134Y-15597984D01*
X10553515Y-15778936D02*
X10563039Y-15788460D01*
X10563039Y-15788460D02*
X10553515Y-15797984D01*
X10553515Y-15797984D02*
X10543991Y-15788460D01*
X10543991Y-15788460D02*
X10553515Y-15778936D01*
X10553515Y-15778936D02*
X10553515Y-15797984D01*
X10686848Y-15597984D02*
X10705896Y-15597984D01*
X10705896Y-15597984D02*
X10724944Y-15607508D01*
X10724944Y-15607508D02*
X10734468Y-15617031D01*
X10734468Y-15617031D02*
X10743991Y-15636079D01*
X10743991Y-15636079D02*
X10753515Y-15674174D01*
X10753515Y-15674174D02*
X10753515Y-15721793D01*
X10753515Y-15721793D02*
X10743991Y-15759888D01*
X10743991Y-15759888D02*
X10734468Y-15778936D01*
X10734468Y-15778936D02*
X10724944Y-15788460D01*
X10724944Y-15788460D02*
X10705896Y-15797984D01*
X10705896Y-15797984D02*
X10686848Y-15797984D01*
X10686848Y-15797984D02*
X10667801Y-15788460D01*
X10667801Y-15788460D02*
X10658277Y-15778936D01*
X10658277Y-15778936D02*
X10648753Y-15759888D01*
X10648753Y-15759888D02*
X10639229Y-15721793D01*
X10639229Y-15721793D02*
X10639229Y-15674174D01*
X10639229Y-15674174D02*
X10648753Y-15636079D01*
X10648753Y-15636079D02*
X10658277Y-15617031D01*
X10658277Y-15617031D02*
X10667801Y-15607508D01*
X10667801Y-15607508D02*
X10686848Y-15597984D01*
X10943991Y-15797984D02*
X10829706Y-15797984D01*
X10886848Y-15797984D02*
X10886848Y-15597984D01*
X10886848Y-15597984D02*
X10867801Y-15626555D01*
X10867801Y-15626555D02*
X10848753Y-15645603D01*
X10848753Y-15645603D02*
X10829706Y-15655127D01*
X11124944Y-15597984D02*
X11029706Y-15597984D01*
X11029706Y-15597984D02*
X11020182Y-15693222D01*
X11020182Y-15693222D02*
X11029706Y-15683698D01*
X11029706Y-15683698D02*
X11048753Y-15674174D01*
X11048753Y-15674174D02*
X11096372Y-15674174D01*
X11096372Y-15674174D02*
X11115420Y-15683698D01*
X11115420Y-15683698D02*
X11124944Y-15693222D01*
X11124944Y-15693222D02*
X11134468Y-15712269D01*
X11134468Y-15712269D02*
X11134468Y-15759888D01*
X11134468Y-15759888D02*
X11124944Y-15778936D01*
X11124944Y-15778936D02*
X11115420Y-15788460D01*
X11115420Y-15788460D02*
X11096372Y-15797984D01*
X11096372Y-15797984D02*
X11048753Y-15797984D01*
X11048753Y-15797984D02*
X11029706Y-15788460D01*
X11029706Y-15788460D02*
X11020182Y-15778936D01*
X11201134Y-15597984D02*
X11334467Y-15597984D01*
X11334467Y-15597984D02*
X11248753Y-15797984D01*
X11401134Y-15597984D02*
X11401134Y-15636079D01*
X11477325Y-15597984D02*
X11477325Y-15636079D01*
X11772563Y-15874174D02*
X11763039Y-15864650D01*
X11763039Y-15864650D02*
X11743991Y-15836079D01*
X11743991Y-15836079D02*
X11734468Y-15817031D01*
X11734468Y-15817031D02*
X11724944Y-15788460D01*
X11724944Y-15788460D02*
X11715420Y-15740841D01*
X11715420Y-15740841D02*
X11715420Y-15702746D01*
X11715420Y-15702746D02*
X11724944Y-15655127D01*
X11724944Y-15655127D02*
X11734468Y-15626555D01*
X11734468Y-15626555D02*
X11743991Y-15607508D01*
X11743991Y-15607508D02*
X11763039Y-15578936D01*
X11763039Y-15578936D02*
X11772563Y-15569412D01*
X11829706Y-15597984D02*
X11953515Y-15597984D01*
X11953515Y-15597984D02*
X11886848Y-15674174D01*
X11886848Y-15674174D02*
X11915420Y-15674174D01*
X11915420Y-15674174D02*
X11934468Y-15683698D01*
X11934468Y-15683698D02*
X11943991Y-15693222D01*
X11943991Y-15693222D02*
X11953515Y-15712269D01*
X11953515Y-15712269D02*
X11953515Y-15759888D01*
X11953515Y-15759888D02*
X11943991Y-15778936D01*
X11943991Y-15778936D02*
X11934468Y-15788460D01*
X11934468Y-15788460D02*
X11915420Y-15797984D01*
X11915420Y-15797984D02*
X11858277Y-15797984D01*
X11858277Y-15797984D02*
X11839229Y-15788460D01*
X11839229Y-15788460D02*
X11829706Y-15778936D01*
X12191610Y-15797984D02*
X12191610Y-15597984D01*
X12277325Y-15797984D02*
X12277325Y-15693222D01*
X12277325Y-15693222D02*
X12267801Y-15674174D01*
X12267801Y-15674174D02*
X12248753Y-15664650D01*
X12248753Y-15664650D02*
X12220182Y-15664650D01*
X12220182Y-15664650D02*
X12201134Y-15674174D01*
X12201134Y-15674174D02*
X12191610Y-15683698D01*
X12401134Y-15797984D02*
X12382087Y-15788460D01*
X12382087Y-15788460D02*
X12372563Y-15778936D01*
X12372563Y-15778936D02*
X12363039Y-15759888D01*
X12363039Y-15759888D02*
X12363039Y-15702746D01*
X12363039Y-15702746D02*
X12372563Y-15683698D01*
X12372563Y-15683698D02*
X12382087Y-15674174D01*
X12382087Y-15674174D02*
X12401134Y-15664650D01*
X12401134Y-15664650D02*
X12429706Y-15664650D01*
X12429706Y-15664650D02*
X12448753Y-15674174D01*
X12448753Y-15674174D02*
X12458277Y-15683698D01*
X12458277Y-15683698D02*
X12467801Y-15702746D01*
X12467801Y-15702746D02*
X12467801Y-15759888D01*
X12467801Y-15759888D02*
X12458277Y-15778936D01*
X12458277Y-15778936D02*
X12448753Y-15788460D01*
X12448753Y-15788460D02*
X12429706Y-15797984D01*
X12429706Y-15797984D02*
X12401134Y-15797984D01*
X12582087Y-15797984D02*
X12563039Y-15788460D01*
X12563039Y-15788460D02*
X12553515Y-15769412D01*
X12553515Y-15769412D02*
X12553515Y-15597984D01*
X12734468Y-15788460D02*
X12715420Y-15797984D01*
X12715420Y-15797984D02*
X12677325Y-15797984D01*
X12677325Y-15797984D02*
X12658277Y-15788460D01*
X12658277Y-15788460D02*
X12648753Y-15769412D01*
X12648753Y-15769412D02*
X12648753Y-15693222D01*
X12648753Y-15693222D02*
X12658277Y-15674174D01*
X12658277Y-15674174D02*
X12677325Y-15664650D01*
X12677325Y-15664650D02*
X12715420Y-15664650D01*
X12715420Y-15664650D02*
X12734468Y-15674174D01*
X12734468Y-15674174D02*
X12743991Y-15693222D01*
X12743991Y-15693222D02*
X12743991Y-15712269D01*
X12743991Y-15712269D02*
X12648753Y-15731317D01*
X12820182Y-15788460D02*
X12839230Y-15797984D01*
X12839230Y-15797984D02*
X12877325Y-15797984D01*
X12877325Y-15797984D02*
X12896372Y-15788460D01*
X12896372Y-15788460D02*
X12905896Y-15769412D01*
X12905896Y-15769412D02*
X12905896Y-15759888D01*
X12905896Y-15759888D02*
X12896372Y-15740841D01*
X12896372Y-15740841D02*
X12877325Y-15731317D01*
X12877325Y-15731317D02*
X12848753Y-15731317D01*
X12848753Y-15731317D02*
X12829706Y-15721793D01*
X12829706Y-15721793D02*
X12820182Y-15702746D01*
X12820182Y-15702746D02*
X12820182Y-15693222D01*
X12820182Y-15693222D02*
X12829706Y-15674174D01*
X12829706Y-15674174D02*
X12848753Y-15664650D01*
X12848753Y-15664650D02*
X12877325Y-15664650D01*
X12877325Y-15664650D02*
X12896372Y-15674174D01*
X12972563Y-15874174D02*
X12982087Y-15864650D01*
X12982087Y-15864650D02*
X13001134Y-15836079D01*
X13001134Y-15836079D02*
X13010658Y-15817031D01*
X13010658Y-15817031D02*
X13020182Y-15788460D01*
X13020182Y-15788460D02*
X13029706Y-15740841D01*
X13029706Y-15740841D02*
X13029706Y-15702746D01*
X13029706Y-15702746D02*
X13020182Y-15655127D01*
X13020182Y-15655127D02*
X13010658Y-15626555D01*
X13010658Y-15626555D02*
X13001134Y-15607508D01*
X13001134Y-15607508D02*
X12982087Y-15578936D01*
X12982087Y-15578936D02*
X12972563Y-15569412D01*
D12*
X8172500Y-15945500D02*
X8172500Y-15995500D01*
X8147500Y-15970500D02*
X8197500Y-15970500D01*
D11*
X8496372Y-15861984D02*
X8515420Y-15861984D01*
X8515420Y-15861984D02*
X8534467Y-15871508D01*
X8534467Y-15871508D02*
X8543991Y-15881031D01*
X8543991Y-15881031D02*
X8553515Y-15900079D01*
X8553515Y-15900079D02*
X8563039Y-15938174D01*
X8563039Y-15938174D02*
X8563039Y-15985793D01*
X8563039Y-15985793D02*
X8553515Y-16023888D01*
X8553515Y-16023888D02*
X8543991Y-16042936D01*
X8543991Y-16042936D02*
X8534467Y-16052460D01*
X8534467Y-16052460D02*
X8515420Y-16061984D01*
X8515420Y-16061984D02*
X8496372Y-16061984D01*
X8496372Y-16061984D02*
X8477324Y-16052460D01*
X8477324Y-16052460D02*
X8467801Y-16042936D01*
X8467801Y-16042936D02*
X8458277Y-16023888D01*
X8458277Y-16023888D02*
X8448753Y-15985793D01*
X8448753Y-15985793D02*
X8448753Y-15938174D01*
X8448753Y-15938174D02*
X8458277Y-15900079D01*
X8458277Y-15900079D02*
X8467801Y-15881031D01*
X8467801Y-15881031D02*
X8477324Y-15871508D01*
X8477324Y-15871508D02*
X8496372Y-15861984D01*
X8648753Y-16042936D02*
X8658277Y-16052460D01*
X8658277Y-16052460D02*
X8648753Y-16061984D01*
X8648753Y-16061984D02*
X8639229Y-16052460D01*
X8639229Y-16052460D02*
X8648753Y-16042936D01*
X8648753Y-16042936D02*
X8648753Y-16061984D01*
X8839229Y-15861984D02*
X8743991Y-15861984D01*
X8743991Y-15861984D02*
X8734467Y-15957222D01*
X8734467Y-15957222D02*
X8743991Y-15947698D01*
X8743991Y-15947698D02*
X8763039Y-15938174D01*
X8763039Y-15938174D02*
X8810658Y-15938174D01*
X8810658Y-15938174D02*
X8829705Y-15947698D01*
X8829705Y-15947698D02*
X8839229Y-15957222D01*
X8839229Y-15957222D02*
X8848753Y-15976269D01*
X8848753Y-15976269D02*
X8848753Y-16023888D01*
X8848753Y-16023888D02*
X8839229Y-16042936D01*
X8839229Y-16042936D02*
X8829705Y-16052460D01*
X8829705Y-16052460D02*
X8810658Y-16061984D01*
X8810658Y-16061984D02*
X8763039Y-16061984D01*
X8763039Y-16061984D02*
X8743991Y-16052460D01*
X8743991Y-16052460D02*
X8734467Y-16042936D01*
X8972563Y-15861984D02*
X8991610Y-15861984D01*
X8991610Y-15861984D02*
X9010658Y-15871508D01*
X9010658Y-15871508D02*
X9020182Y-15881031D01*
X9020182Y-15881031D02*
X9029705Y-15900079D01*
X9029705Y-15900079D02*
X9039229Y-15938174D01*
X9039229Y-15938174D02*
X9039229Y-15985793D01*
X9039229Y-15985793D02*
X9029705Y-16023888D01*
X9029705Y-16023888D02*
X9020182Y-16042936D01*
X9020182Y-16042936D02*
X9010658Y-16052460D01*
X9010658Y-16052460D02*
X8991610Y-16061984D01*
X8991610Y-16061984D02*
X8972563Y-16061984D01*
X8972563Y-16061984D02*
X8953515Y-16052460D01*
X8953515Y-16052460D02*
X8943991Y-16042936D01*
X8943991Y-16042936D02*
X8934467Y-16023888D01*
X8934467Y-16023888D02*
X8924944Y-15985793D01*
X8924944Y-15985793D02*
X8924944Y-15938174D01*
X8924944Y-15938174D02*
X8934467Y-15900079D01*
X8934467Y-15900079D02*
X8943991Y-15881031D01*
X8943991Y-15881031D02*
X8953515Y-15871508D01*
X8953515Y-15871508D02*
X8972563Y-15861984D01*
X9163039Y-15861984D02*
X9182086Y-15861984D01*
X9182086Y-15861984D02*
X9201134Y-15871508D01*
X9201134Y-15871508D02*
X9210658Y-15881031D01*
X9210658Y-15881031D02*
X9220182Y-15900079D01*
X9220182Y-15900079D02*
X9229705Y-15938174D01*
X9229705Y-15938174D02*
X9229705Y-15985793D01*
X9229705Y-15985793D02*
X9220182Y-16023888D01*
X9220182Y-16023888D02*
X9210658Y-16042936D01*
X9210658Y-16042936D02*
X9201134Y-16052460D01*
X9201134Y-16052460D02*
X9182086Y-16061984D01*
X9182086Y-16061984D02*
X9163039Y-16061984D01*
X9163039Y-16061984D02*
X9143991Y-16052460D01*
X9143991Y-16052460D02*
X9134467Y-16042936D01*
X9134467Y-16042936D02*
X9124944Y-16023888D01*
X9124944Y-16023888D02*
X9115420Y-15985793D01*
X9115420Y-15985793D02*
X9115420Y-15938174D01*
X9115420Y-15938174D02*
X9124944Y-15900079D01*
X9124944Y-15900079D02*
X9134467Y-15881031D01*
X9134467Y-15881031D02*
X9143991Y-15871508D01*
X9143991Y-15871508D02*
X9163039Y-15861984D01*
X9315420Y-16061984D02*
X9315420Y-15928650D01*
X9315420Y-15947698D02*
X9324944Y-15938174D01*
X9324944Y-15938174D02*
X9343991Y-15928650D01*
X9343991Y-15928650D02*
X9372563Y-15928650D01*
X9372563Y-15928650D02*
X9391610Y-15938174D01*
X9391610Y-15938174D02*
X9401134Y-15957222D01*
X9401134Y-15957222D02*
X9401134Y-16061984D01*
X9401134Y-15957222D02*
X9410658Y-15938174D01*
X9410658Y-15938174D02*
X9429705Y-15928650D01*
X9429705Y-15928650D02*
X9458277Y-15928650D01*
X9458277Y-15928650D02*
X9477325Y-15938174D01*
X9477325Y-15938174D02*
X9486848Y-15957222D01*
X9486848Y-15957222D02*
X9486848Y-16061984D01*
X9582086Y-16061984D02*
X9582086Y-15928650D01*
X9582086Y-15947698D02*
X9591610Y-15938174D01*
X9591610Y-15938174D02*
X9610658Y-15928650D01*
X9610658Y-15928650D02*
X9639229Y-15928650D01*
X9639229Y-15928650D02*
X9658277Y-15938174D01*
X9658277Y-15938174D02*
X9667801Y-15957222D01*
X9667801Y-15957222D02*
X9667801Y-16061984D01*
X9667801Y-15957222D02*
X9677325Y-15938174D01*
X9677325Y-15938174D02*
X9696372Y-15928650D01*
X9696372Y-15928650D02*
X9724944Y-15928650D01*
X9724944Y-15928650D02*
X9743991Y-15938174D01*
X9743991Y-15938174D02*
X9753515Y-15957222D01*
X9753515Y-15957222D02*
X9753515Y-16061984D01*
X10143991Y-15852460D02*
X9972563Y-16109603D01*
X10401134Y-15861984D02*
X10420182Y-15861984D01*
X10420182Y-15861984D02*
X10439229Y-15871508D01*
X10439229Y-15871508D02*
X10448753Y-15881031D01*
X10448753Y-15881031D02*
X10458277Y-15900079D01*
X10458277Y-15900079D02*
X10467801Y-15938174D01*
X10467801Y-15938174D02*
X10467801Y-15985793D01*
X10467801Y-15985793D02*
X10458277Y-16023888D01*
X10458277Y-16023888D02*
X10448753Y-16042936D01*
X10448753Y-16042936D02*
X10439229Y-16052460D01*
X10439229Y-16052460D02*
X10420182Y-16061984D01*
X10420182Y-16061984D02*
X10401134Y-16061984D01*
X10401134Y-16061984D02*
X10382087Y-16052460D01*
X10382087Y-16052460D02*
X10372563Y-16042936D01*
X10372563Y-16042936D02*
X10363039Y-16023888D01*
X10363039Y-16023888D02*
X10353515Y-15985793D01*
X10353515Y-15985793D02*
X10353515Y-15938174D01*
X10353515Y-15938174D02*
X10363039Y-15900079D01*
X10363039Y-15900079D02*
X10372563Y-15881031D01*
X10372563Y-15881031D02*
X10382087Y-15871508D01*
X10382087Y-15871508D02*
X10401134Y-15861984D01*
X10553515Y-16042936D02*
X10563039Y-16052460D01*
X10563039Y-16052460D02*
X10553515Y-16061984D01*
X10553515Y-16061984D02*
X10543991Y-16052460D01*
X10543991Y-16052460D02*
X10553515Y-16042936D01*
X10553515Y-16042936D02*
X10553515Y-16061984D01*
X10686848Y-15861984D02*
X10705896Y-15861984D01*
X10705896Y-15861984D02*
X10724944Y-15871508D01*
X10724944Y-15871508D02*
X10734468Y-15881031D01*
X10734468Y-15881031D02*
X10743991Y-15900079D01*
X10743991Y-15900079D02*
X10753515Y-15938174D01*
X10753515Y-15938174D02*
X10753515Y-15985793D01*
X10753515Y-15985793D02*
X10743991Y-16023888D01*
X10743991Y-16023888D02*
X10734468Y-16042936D01*
X10734468Y-16042936D02*
X10724944Y-16052460D01*
X10724944Y-16052460D02*
X10705896Y-16061984D01*
X10705896Y-16061984D02*
X10686848Y-16061984D01*
X10686848Y-16061984D02*
X10667801Y-16052460D01*
X10667801Y-16052460D02*
X10658277Y-16042936D01*
X10658277Y-16042936D02*
X10648753Y-16023888D01*
X10648753Y-16023888D02*
X10639229Y-15985793D01*
X10639229Y-15985793D02*
X10639229Y-15938174D01*
X10639229Y-15938174D02*
X10648753Y-15900079D01*
X10648753Y-15900079D02*
X10658277Y-15881031D01*
X10658277Y-15881031D02*
X10667801Y-15871508D01*
X10667801Y-15871508D02*
X10686848Y-15861984D01*
X10943991Y-16061984D02*
X10829706Y-16061984D01*
X10886848Y-16061984D02*
X10886848Y-15861984D01*
X10886848Y-15861984D02*
X10867801Y-15890555D01*
X10867801Y-15890555D02*
X10848753Y-15909603D01*
X10848753Y-15909603D02*
X10829706Y-15919127D01*
X11039229Y-16061984D02*
X11077325Y-16061984D01*
X11077325Y-16061984D02*
X11096372Y-16052460D01*
X11096372Y-16052460D02*
X11105896Y-16042936D01*
X11105896Y-16042936D02*
X11124944Y-16014365D01*
X11124944Y-16014365D02*
X11134468Y-15976269D01*
X11134468Y-15976269D02*
X11134468Y-15900079D01*
X11134468Y-15900079D02*
X11124944Y-15881031D01*
X11124944Y-15881031D02*
X11115420Y-15871508D01*
X11115420Y-15871508D02*
X11096372Y-15861984D01*
X11096372Y-15861984D02*
X11058277Y-15861984D01*
X11058277Y-15861984D02*
X11039229Y-15871508D01*
X11039229Y-15871508D02*
X11029706Y-15881031D01*
X11029706Y-15881031D02*
X11020182Y-15900079D01*
X11020182Y-15900079D02*
X11020182Y-15947698D01*
X11020182Y-15947698D02*
X11029706Y-15966746D01*
X11029706Y-15966746D02*
X11039229Y-15976269D01*
X11039229Y-15976269D02*
X11058277Y-15985793D01*
X11058277Y-15985793D02*
X11096372Y-15985793D01*
X11096372Y-15985793D02*
X11115420Y-15976269D01*
X11115420Y-15976269D02*
X11124944Y-15966746D01*
X11124944Y-15966746D02*
X11134468Y-15947698D01*
X11201134Y-15861984D02*
X11334467Y-15861984D01*
X11334467Y-15861984D02*
X11248753Y-16061984D01*
X11401134Y-15861984D02*
X11401134Y-15900079D01*
X11477325Y-15861984D02*
X11477325Y-15900079D01*
X11772563Y-16138174D02*
X11763039Y-16128650D01*
X11763039Y-16128650D02*
X11743991Y-16100079D01*
X11743991Y-16100079D02*
X11734468Y-16081031D01*
X11734468Y-16081031D02*
X11724944Y-16052460D01*
X11724944Y-16052460D02*
X11715420Y-16004841D01*
X11715420Y-16004841D02*
X11715420Y-15966746D01*
X11715420Y-15966746D02*
X11724944Y-15919127D01*
X11724944Y-15919127D02*
X11734468Y-15890555D01*
X11734468Y-15890555D02*
X11743991Y-15871508D01*
X11743991Y-15871508D02*
X11763039Y-15842936D01*
X11763039Y-15842936D02*
X11772563Y-15833412D01*
X11886848Y-15861984D02*
X11905896Y-15861984D01*
X11905896Y-15861984D02*
X11924944Y-15871508D01*
X11924944Y-15871508D02*
X11934468Y-15881031D01*
X11934468Y-15881031D02*
X11943991Y-15900079D01*
X11943991Y-15900079D02*
X11953515Y-15938174D01*
X11953515Y-15938174D02*
X11953515Y-15985793D01*
X11953515Y-15985793D02*
X11943991Y-16023888D01*
X11943991Y-16023888D02*
X11934468Y-16042936D01*
X11934468Y-16042936D02*
X11924944Y-16052460D01*
X11924944Y-16052460D02*
X11905896Y-16061984D01*
X11905896Y-16061984D02*
X11886848Y-16061984D01*
X11886848Y-16061984D02*
X11867801Y-16052460D01*
X11867801Y-16052460D02*
X11858277Y-16042936D01*
X11858277Y-16042936D02*
X11848753Y-16023888D01*
X11848753Y-16023888D02*
X11839229Y-15985793D01*
X11839229Y-15985793D02*
X11839229Y-15938174D01*
X11839229Y-15938174D02*
X11848753Y-15900079D01*
X11848753Y-15900079D02*
X11858277Y-15881031D01*
X11858277Y-15881031D02*
X11867801Y-15871508D01*
X11867801Y-15871508D02*
X11886848Y-15861984D01*
X12191610Y-16061984D02*
X12191610Y-15861984D01*
X12277325Y-16061984D02*
X12277325Y-15957222D01*
X12277325Y-15957222D02*
X12267801Y-15938174D01*
X12267801Y-15938174D02*
X12248753Y-15928650D01*
X12248753Y-15928650D02*
X12220182Y-15928650D01*
X12220182Y-15928650D02*
X12201134Y-15938174D01*
X12201134Y-15938174D02*
X12191610Y-15947698D01*
X12401134Y-16061984D02*
X12382087Y-16052460D01*
X12382087Y-16052460D02*
X12372563Y-16042936D01*
X12372563Y-16042936D02*
X12363039Y-16023888D01*
X12363039Y-16023888D02*
X12363039Y-15966746D01*
X12363039Y-15966746D02*
X12372563Y-15947698D01*
X12372563Y-15947698D02*
X12382087Y-15938174D01*
X12382087Y-15938174D02*
X12401134Y-15928650D01*
X12401134Y-15928650D02*
X12429706Y-15928650D01*
X12429706Y-15928650D02*
X12448753Y-15938174D01*
X12448753Y-15938174D02*
X12458277Y-15947698D01*
X12458277Y-15947698D02*
X12467801Y-15966746D01*
X12467801Y-15966746D02*
X12467801Y-16023888D01*
X12467801Y-16023888D02*
X12458277Y-16042936D01*
X12458277Y-16042936D02*
X12448753Y-16052460D01*
X12448753Y-16052460D02*
X12429706Y-16061984D01*
X12429706Y-16061984D02*
X12401134Y-16061984D01*
X12582087Y-16061984D02*
X12563039Y-16052460D01*
X12563039Y-16052460D02*
X12553515Y-16033412D01*
X12553515Y-16033412D02*
X12553515Y-15861984D01*
X12734468Y-16052460D02*
X12715420Y-16061984D01*
X12715420Y-16061984D02*
X12677325Y-16061984D01*
X12677325Y-16061984D02*
X12658277Y-16052460D01*
X12658277Y-16052460D02*
X12648753Y-16033412D01*
X12648753Y-16033412D02*
X12648753Y-15957222D01*
X12648753Y-15957222D02*
X12658277Y-15938174D01*
X12658277Y-15938174D02*
X12677325Y-15928650D01*
X12677325Y-15928650D02*
X12715420Y-15928650D01*
X12715420Y-15928650D02*
X12734468Y-15938174D01*
X12734468Y-15938174D02*
X12743991Y-15957222D01*
X12743991Y-15957222D02*
X12743991Y-15976269D01*
X12743991Y-15976269D02*
X12648753Y-15995317D01*
X12820182Y-16052460D02*
X12839230Y-16061984D01*
X12839230Y-16061984D02*
X12877325Y-16061984D01*
X12877325Y-16061984D02*
X12896372Y-16052460D01*
X12896372Y-16052460D02*
X12905896Y-16033412D01*
X12905896Y-16033412D02*
X12905896Y-16023888D01*
X12905896Y-16023888D02*
X12896372Y-16004841D01*
X12896372Y-16004841D02*
X12877325Y-15995317D01*
X12877325Y-15995317D02*
X12848753Y-15995317D01*
X12848753Y-15995317D02*
X12829706Y-15985793D01*
X12829706Y-15985793D02*
X12820182Y-15966746D01*
X12820182Y-15966746D02*
X12820182Y-15957222D01*
X12820182Y-15957222D02*
X12829706Y-15938174D01*
X12829706Y-15938174D02*
X12848753Y-15928650D01*
X12848753Y-15928650D02*
X12877325Y-15928650D01*
X12877325Y-15928650D02*
X12896372Y-15938174D01*
X13143992Y-15985793D02*
X13296373Y-15985793D01*
X13220182Y-16061984D02*
X13220182Y-15909603D01*
X13629706Y-15928650D02*
X13629706Y-16061984D01*
X13582087Y-15852460D02*
X13534468Y-15995317D01*
X13534468Y-15995317D02*
X13658277Y-15995317D01*
X13877325Y-16052460D02*
X13896373Y-16061984D01*
X13896373Y-16061984D02*
X13934468Y-16061984D01*
X13934468Y-16061984D02*
X13953515Y-16052460D01*
X13953515Y-16052460D02*
X13963039Y-16033412D01*
X13963039Y-16033412D02*
X13963039Y-16023888D01*
X13963039Y-16023888D02*
X13953515Y-16004841D01*
X13953515Y-16004841D02*
X13934468Y-15995317D01*
X13934468Y-15995317D02*
X13905896Y-15995317D01*
X13905896Y-15995317D02*
X13886849Y-15985793D01*
X13886849Y-15985793D02*
X13877325Y-15966746D01*
X13877325Y-15966746D02*
X13877325Y-15957222D01*
X13877325Y-15957222D02*
X13886849Y-15938174D01*
X13886849Y-15938174D02*
X13905896Y-15928650D01*
X13905896Y-15928650D02*
X13934468Y-15928650D01*
X13934468Y-15928650D02*
X13953515Y-15938174D01*
X14077325Y-16061984D02*
X14058277Y-16052460D01*
X14058277Y-16052460D02*
X14048754Y-16033412D01*
X14048754Y-16033412D02*
X14048754Y-15861984D01*
X14182087Y-16061984D02*
X14163039Y-16052460D01*
X14163039Y-16052460D02*
X14153515Y-16042936D01*
X14153515Y-16042936D02*
X14143992Y-16023888D01*
X14143992Y-16023888D02*
X14143992Y-15966746D01*
X14143992Y-15966746D02*
X14153515Y-15947698D01*
X14153515Y-15947698D02*
X14163039Y-15938174D01*
X14163039Y-15938174D02*
X14182087Y-15928650D01*
X14182087Y-15928650D02*
X14210658Y-15928650D01*
X14210658Y-15928650D02*
X14229706Y-15938174D01*
X14229706Y-15938174D02*
X14239230Y-15947698D01*
X14239230Y-15947698D02*
X14248754Y-15966746D01*
X14248754Y-15966746D02*
X14248754Y-16023888D01*
X14248754Y-16023888D02*
X14239230Y-16042936D01*
X14239230Y-16042936D02*
X14229706Y-16052460D01*
X14229706Y-16052460D02*
X14210658Y-16061984D01*
X14210658Y-16061984D02*
X14182087Y-16061984D01*
X14305896Y-15928650D02*
X14382087Y-15928650D01*
X14334468Y-15861984D02*
X14334468Y-16033412D01*
X14334468Y-16033412D02*
X14343992Y-16052460D01*
X14343992Y-16052460D02*
X14363039Y-16061984D01*
X14363039Y-16061984D02*
X14382087Y-16061984D01*
X14439230Y-16052460D02*
X14458277Y-16061984D01*
X14458277Y-16061984D02*
X14496373Y-16061984D01*
X14496373Y-16061984D02*
X14515420Y-16052460D01*
X14515420Y-16052460D02*
X14524944Y-16033412D01*
X14524944Y-16033412D02*
X14524944Y-16023888D01*
X14524944Y-16023888D02*
X14515420Y-16004841D01*
X14515420Y-16004841D02*
X14496373Y-15995317D01*
X14496373Y-15995317D02*
X14467801Y-15995317D01*
X14467801Y-15995317D02*
X14448754Y-15985793D01*
X14448754Y-15985793D02*
X14439230Y-15966746D01*
X14439230Y-15966746D02*
X14439230Y-15957222D01*
X14439230Y-15957222D02*
X14448754Y-15938174D01*
X14448754Y-15938174D02*
X14467801Y-15928650D01*
X14467801Y-15928650D02*
X14496373Y-15928650D01*
X14496373Y-15928650D02*
X14515420Y-15938174D01*
X14591611Y-16138174D02*
X14601135Y-16128650D01*
X14601135Y-16128650D02*
X14620182Y-16100079D01*
X14620182Y-16100079D02*
X14629706Y-16081031D01*
X14629706Y-16081031D02*
X14639230Y-16052460D01*
X14639230Y-16052460D02*
X14648754Y-16004841D01*
X14648754Y-16004841D02*
X14648754Y-15966746D01*
X14648754Y-15966746D02*
X14639230Y-15919127D01*
X14639230Y-15919127D02*
X14629706Y-15890555D01*
X14629706Y-15890555D02*
X14620182Y-15871508D01*
X14620182Y-15871508D02*
X14601135Y-15842936D01*
X14601135Y-15842936D02*
X14591611Y-15833412D01*
D12*
X8188713Y-16255713D02*
X8188713Y-16213287D01*
X8146287Y-16213287D01*
X8146287Y-16255713D01*
X8188713Y-16255713D01*
D11*
X8496372Y-16125984D02*
X8515420Y-16125984D01*
X8515420Y-16125984D02*
X8534467Y-16135508D01*
X8534467Y-16135508D02*
X8543991Y-16145031D01*
X8543991Y-16145031D02*
X8553515Y-16164079D01*
X8553515Y-16164079D02*
X8563039Y-16202174D01*
X8563039Y-16202174D02*
X8563039Y-16249793D01*
X8563039Y-16249793D02*
X8553515Y-16287888D01*
X8553515Y-16287888D02*
X8543991Y-16306936D01*
X8543991Y-16306936D02*
X8534467Y-16316460D01*
X8534467Y-16316460D02*
X8515420Y-16325984D01*
X8515420Y-16325984D02*
X8496372Y-16325984D01*
X8496372Y-16325984D02*
X8477324Y-16316460D01*
X8477324Y-16316460D02*
X8467801Y-16306936D01*
X8467801Y-16306936D02*
X8458277Y-16287888D01*
X8458277Y-16287888D02*
X8448753Y-16249793D01*
X8448753Y-16249793D02*
X8448753Y-16202174D01*
X8448753Y-16202174D02*
X8458277Y-16164079D01*
X8458277Y-16164079D02*
X8467801Y-16145031D01*
X8467801Y-16145031D02*
X8477324Y-16135508D01*
X8477324Y-16135508D02*
X8496372Y-16125984D01*
X8648753Y-16306936D02*
X8658277Y-16316460D01*
X8658277Y-16316460D02*
X8648753Y-16325984D01*
X8648753Y-16325984D02*
X8639229Y-16316460D01*
X8639229Y-16316460D02*
X8648753Y-16306936D01*
X8648753Y-16306936D02*
X8648753Y-16325984D01*
X8829705Y-16125984D02*
X8791610Y-16125984D01*
X8791610Y-16125984D02*
X8772563Y-16135508D01*
X8772563Y-16135508D02*
X8763039Y-16145031D01*
X8763039Y-16145031D02*
X8743991Y-16173603D01*
X8743991Y-16173603D02*
X8734467Y-16211698D01*
X8734467Y-16211698D02*
X8734467Y-16287888D01*
X8734467Y-16287888D02*
X8743991Y-16306936D01*
X8743991Y-16306936D02*
X8753515Y-16316460D01*
X8753515Y-16316460D02*
X8772563Y-16325984D01*
X8772563Y-16325984D02*
X8810658Y-16325984D01*
X8810658Y-16325984D02*
X8829705Y-16316460D01*
X8829705Y-16316460D02*
X8839229Y-16306936D01*
X8839229Y-16306936D02*
X8848753Y-16287888D01*
X8848753Y-16287888D02*
X8848753Y-16240269D01*
X8848753Y-16240269D02*
X8839229Y-16221222D01*
X8839229Y-16221222D02*
X8829705Y-16211698D01*
X8829705Y-16211698D02*
X8810658Y-16202174D01*
X8810658Y-16202174D02*
X8772563Y-16202174D01*
X8772563Y-16202174D02*
X8753515Y-16211698D01*
X8753515Y-16211698D02*
X8743991Y-16221222D01*
X8743991Y-16221222D02*
X8734467Y-16240269D01*
X8972563Y-16125984D02*
X8991610Y-16125984D01*
X8991610Y-16125984D02*
X9010658Y-16135508D01*
X9010658Y-16135508D02*
X9020182Y-16145031D01*
X9020182Y-16145031D02*
X9029705Y-16164079D01*
X9029705Y-16164079D02*
X9039229Y-16202174D01*
X9039229Y-16202174D02*
X9039229Y-16249793D01*
X9039229Y-16249793D02*
X9029705Y-16287888D01*
X9029705Y-16287888D02*
X9020182Y-16306936D01*
X9020182Y-16306936D02*
X9010658Y-16316460D01*
X9010658Y-16316460D02*
X8991610Y-16325984D01*
X8991610Y-16325984D02*
X8972563Y-16325984D01*
X8972563Y-16325984D02*
X8953515Y-16316460D01*
X8953515Y-16316460D02*
X8943991Y-16306936D01*
X8943991Y-16306936D02*
X8934467Y-16287888D01*
X8934467Y-16287888D02*
X8924944Y-16249793D01*
X8924944Y-16249793D02*
X8924944Y-16202174D01*
X8924944Y-16202174D02*
X8934467Y-16164079D01*
X8934467Y-16164079D02*
X8943991Y-16145031D01*
X8943991Y-16145031D02*
X8953515Y-16135508D01*
X8953515Y-16135508D02*
X8972563Y-16125984D01*
X9163039Y-16125984D02*
X9182086Y-16125984D01*
X9182086Y-16125984D02*
X9201134Y-16135508D01*
X9201134Y-16135508D02*
X9210658Y-16145031D01*
X9210658Y-16145031D02*
X9220182Y-16164079D01*
X9220182Y-16164079D02*
X9229705Y-16202174D01*
X9229705Y-16202174D02*
X9229705Y-16249793D01*
X9229705Y-16249793D02*
X9220182Y-16287888D01*
X9220182Y-16287888D02*
X9210658Y-16306936D01*
X9210658Y-16306936D02*
X9201134Y-16316460D01*
X9201134Y-16316460D02*
X9182086Y-16325984D01*
X9182086Y-16325984D02*
X9163039Y-16325984D01*
X9163039Y-16325984D02*
X9143991Y-16316460D01*
X9143991Y-16316460D02*
X9134467Y-16306936D01*
X9134467Y-16306936D02*
X9124944Y-16287888D01*
X9124944Y-16287888D02*
X9115420Y-16249793D01*
X9115420Y-16249793D02*
X9115420Y-16202174D01*
X9115420Y-16202174D02*
X9124944Y-16164079D01*
X9124944Y-16164079D02*
X9134467Y-16145031D01*
X9134467Y-16145031D02*
X9143991Y-16135508D01*
X9143991Y-16135508D02*
X9163039Y-16125984D01*
X9315420Y-16325984D02*
X9315420Y-16192650D01*
X9315420Y-16211698D02*
X9324944Y-16202174D01*
X9324944Y-16202174D02*
X9343991Y-16192650D01*
X9343991Y-16192650D02*
X9372563Y-16192650D01*
X9372563Y-16192650D02*
X9391610Y-16202174D01*
X9391610Y-16202174D02*
X9401134Y-16221222D01*
X9401134Y-16221222D02*
X9401134Y-16325984D01*
X9401134Y-16221222D02*
X9410658Y-16202174D01*
X9410658Y-16202174D02*
X9429705Y-16192650D01*
X9429705Y-16192650D02*
X9458277Y-16192650D01*
X9458277Y-16192650D02*
X9477325Y-16202174D01*
X9477325Y-16202174D02*
X9486848Y-16221222D01*
X9486848Y-16221222D02*
X9486848Y-16325984D01*
X9582086Y-16325984D02*
X9582086Y-16192650D01*
X9582086Y-16211698D02*
X9591610Y-16202174D01*
X9591610Y-16202174D02*
X9610658Y-16192650D01*
X9610658Y-16192650D02*
X9639229Y-16192650D01*
X9639229Y-16192650D02*
X9658277Y-16202174D01*
X9658277Y-16202174D02*
X9667801Y-16221222D01*
X9667801Y-16221222D02*
X9667801Y-16325984D01*
X9667801Y-16221222D02*
X9677325Y-16202174D01*
X9677325Y-16202174D02*
X9696372Y-16192650D01*
X9696372Y-16192650D02*
X9724944Y-16192650D01*
X9724944Y-16192650D02*
X9743991Y-16202174D01*
X9743991Y-16202174D02*
X9753515Y-16221222D01*
X9753515Y-16221222D02*
X9753515Y-16325984D01*
X10143991Y-16116460D02*
X9972563Y-16373603D01*
X10401134Y-16125984D02*
X10420182Y-16125984D01*
X10420182Y-16125984D02*
X10439229Y-16135508D01*
X10439229Y-16135508D02*
X10448753Y-16145031D01*
X10448753Y-16145031D02*
X10458277Y-16164079D01*
X10458277Y-16164079D02*
X10467801Y-16202174D01*
X10467801Y-16202174D02*
X10467801Y-16249793D01*
X10467801Y-16249793D02*
X10458277Y-16287888D01*
X10458277Y-16287888D02*
X10448753Y-16306936D01*
X10448753Y-16306936D02*
X10439229Y-16316460D01*
X10439229Y-16316460D02*
X10420182Y-16325984D01*
X10420182Y-16325984D02*
X10401134Y-16325984D01*
X10401134Y-16325984D02*
X10382087Y-16316460D01*
X10382087Y-16316460D02*
X10372563Y-16306936D01*
X10372563Y-16306936D02*
X10363039Y-16287888D01*
X10363039Y-16287888D02*
X10353515Y-16249793D01*
X10353515Y-16249793D02*
X10353515Y-16202174D01*
X10353515Y-16202174D02*
X10363039Y-16164079D01*
X10363039Y-16164079D02*
X10372563Y-16145031D01*
X10372563Y-16145031D02*
X10382087Y-16135508D01*
X10382087Y-16135508D02*
X10401134Y-16125984D01*
X10553515Y-16306936D02*
X10563039Y-16316460D01*
X10563039Y-16316460D02*
X10553515Y-16325984D01*
X10553515Y-16325984D02*
X10543991Y-16316460D01*
X10543991Y-16316460D02*
X10553515Y-16306936D01*
X10553515Y-16306936D02*
X10553515Y-16325984D01*
X10686848Y-16125984D02*
X10705896Y-16125984D01*
X10705896Y-16125984D02*
X10724944Y-16135508D01*
X10724944Y-16135508D02*
X10734468Y-16145031D01*
X10734468Y-16145031D02*
X10743991Y-16164079D01*
X10743991Y-16164079D02*
X10753515Y-16202174D01*
X10753515Y-16202174D02*
X10753515Y-16249793D01*
X10753515Y-16249793D02*
X10743991Y-16287888D01*
X10743991Y-16287888D02*
X10734468Y-16306936D01*
X10734468Y-16306936D02*
X10724944Y-16316460D01*
X10724944Y-16316460D02*
X10705896Y-16325984D01*
X10705896Y-16325984D02*
X10686848Y-16325984D01*
X10686848Y-16325984D02*
X10667801Y-16316460D01*
X10667801Y-16316460D02*
X10658277Y-16306936D01*
X10658277Y-16306936D02*
X10648753Y-16287888D01*
X10648753Y-16287888D02*
X10639229Y-16249793D01*
X10639229Y-16249793D02*
X10639229Y-16202174D01*
X10639229Y-16202174D02*
X10648753Y-16164079D01*
X10648753Y-16164079D02*
X10658277Y-16145031D01*
X10658277Y-16145031D02*
X10667801Y-16135508D01*
X10667801Y-16135508D02*
X10686848Y-16125984D01*
X10829706Y-16145031D02*
X10839229Y-16135508D01*
X10839229Y-16135508D02*
X10858277Y-16125984D01*
X10858277Y-16125984D02*
X10905896Y-16125984D01*
X10905896Y-16125984D02*
X10924944Y-16135508D01*
X10924944Y-16135508D02*
X10934468Y-16145031D01*
X10934468Y-16145031D02*
X10943991Y-16164079D01*
X10943991Y-16164079D02*
X10943991Y-16183127D01*
X10943991Y-16183127D02*
X10934468Y-16211698D01*
X10934468Y-16211698D02*
X10820182Y-16325984D01*
X10820182Y-16325984D02*
X10943991Y-16325984D01*
X11010658Y-16125984D02*
X11134468Y-16125984D01*
X11134468Y-16125984D02*
X11067801Y-16202174D01*
X11067801Y-16202174D02*
X11096372Y-16202174D01*
X11096372Y-16202174D02*
X11115420Y-16211698D01*
X11115420Y-16211698D02*
X11124944Y-16221222D01*
X11124944Y-16221222D02*
X11134468Y-16240269D01*
X11134468Y-16240269D02*
X11134468Y-16287888D01*
X11134468Y-16287888D02*
X11124944Y-16306936D01*
X11124944Y-16306936D02*
X11115420Y-16316460D01*
X11115420Y-16316460D02*
X11096372Y-16325984D01*
X11096372Y-16325984D02*
X11039229Y-16325984D01*
X11039229Y-16325984D02*
X11020182Y-16316460D01*
X11020182Y-16316460D02*
X11010658Y-16306936D01*
X11305896Y-16125984D02*
X11267801Y-16125984D01*
X11267801Y-16125984D02*
X11248753Y-16135508D01*
X11248753Y-16135508D02*
X11239229Y-16145031D01*
X11239229Y-16145031D02*
X11220182Y-16173603D01*
X11220182Y-16173603D02*
X11210658Y-16211698D01*
X11210658Y-16211698D02*
X11210658Y-16287888D01*
X11210658Y-16287888D02*
X11220182Y-16306936D01*
X11220182Y-16306936D02*
X11229706Y-16316460D01*
X11229706Y-16316460D02*
X11248753Y-16325984D01*
X11248753Y-16325984D02*
X11286848Y-16325984D01*
X11286848Y-16325984D02*
X11305896Y-16316460D01*
X11305896Y-16316460D02*
X11315420Y-16306936D01*
X11315420Y-16306936D02*
X11324944Y-16287888D01*
X11324944Y-16287888D02*
X11324944Y-16240269D01*
X11324944Y-16240269D02*
X11315420Y-16221222D01*
X11315420Y-16221222D02*
X11305896Y-16211698D01*
X11305896Y-16211698D02*
X11286848Y-16202174D01*
X11286848Y-16202174D02*
X11248753Y-16202174D01*
X11248753Y-16202174D02*
X11229706Y-16211698D01*
X11229706Y-16211698D02*
X11220182Y-16221222D01*
X11220182Y-16221222D02*
X11210658Y-16240269D01*
X11401134Y-16125984D02*
X11401134Y-16164079D01*
X11477325Y-16125984D02*
X11477325Y-16164079D01*
X11772563Y-16402174D02*
X11763039Y-16392650D01*
X11763039Y-16392650D02*
X11743991Y-16364079D01*
X11743991Y-16364079D02*
X11734468Y-16345031D01*
X11734468Y-16345031D02*
X11724944Y-16316460D01*
X11724944Y-16316460D02*
X11715420Y-16268841D01*
X11715420Y-16268841D02*
X11715420Y-16230746D01*
X11715420Y-16230746D02*
X11724944Y-16183127D01*
X11724944Y-16183127D02*
X11734468Y-16154555D01*
X11734468Y-16154555D02*
X11743991Y-16135508D01*
X11743991Y-16135508D02*
X11763039Y-16106936D01*
X11763039Y-16106936D02*
X11772563Y-16097412D01*
X11829706Y-16125984D02*
X11953515Y-16125984D01*
X11953515Y-16125984D02*
X11886848Y-16202174D01*
X11886848Y-16202174D02*
X11915420Y-16202174D01*
X11915420Y-16202174D02*
X11934468Y-16211698D01*
X11934468Y-16211698D02*
X11943991Y-16221222D01*
X11943991Y-16221222D02*
X11953515Y-16240269D01*
X11953515Y-16240269D02*
X11953515Y-16287888D01*
X11953515Y-16287888D02*
X11943991Y-16306936D01*
X11943991Y-16306936D02*
X11934468Y-16316460D01*
X11934468Y-16316460D02*
X11915420Y-16325984D01*
X11915420Y-16325984D02*
X11858277Y-16325984D01*
X11858277Y-16325984D02*
X11839229Y-16316460D01*
X11839229Y-16316460D02*
X11829706Y-16306936D01*
X12067801Y-16211698D02*
X12048753Y-16202174D01*
X12048753Y-16202174D02*
X12039229Y-16192650D01*
X12039229Y-16192650D02*
X12029706Y-16173603D01*
X12029706Y-16173603D02*
X12029706Y-16164079D01*
X12029706Y-16164079D02*
X12039229Y-16145031D01*
X12039229Y-16145031D02*
X12048753Y-16135508D01*
X12048753Y-16135508D02*
X12067801Y-16125984D01*
X12067801Y-16125984D02*
X12105896Y-16125984D01*
X12105896Y-16125984D02*
X12124944Y-16135508D01*
X12124944Y-16135508D02*
X12134468Y-16145031D01*
X12134468Y-16145031D02*
X12143991Y-16164079D01*
X12143991Y-16164079D02*
X12143991Y-16173603D01*
X12143991Y-16173603D02*
X12134468Y-16192650D01*
X12134468Y-16192650D02*
X12124944Y-16202174D01*
X12124944Y-16202174D02*
X12105896Y-16211698D01*
X12105896Y-16211698D02*
X12067801Y-16211698D01*
X12067801Y-16211698D02*
X12048753Y-16221222D01*
X12048753Y-16221222D02*
X12039229Y-16230746D01*
X12039229Y-16230746D02*
X12029706Y-16249793D01*
X12029706Y-16249793D02*
X12029706Y-16287888D01*
X12029706Y-16287888D02*
X12039229Y-16306936D01*
X12039229Y-16306936D02*
X12048753Y-16316460D01*
X12048753Y-16316460D02*
X12067801Y-16325984D01*
X12067801Y-16325984D02*
X12105896Y-16325984D01*
X12105896Y-16325984D02*
X12124944Y-16316460D01*
X12124944Y-16316460D02*
X12134468Y-16306936D01*
X12134468Y-16306936D02*
X12143991Y-16287888D01*
X12143991Y-16287888D02*
X12143991Y-16249793D01*
X12143991Y-16249793D02*
X12134468Y-16230746D01*
X12134468Y-16230746D02*
X12124944Y-16221222D01*
X12124944Y-16221222D02*
X12105896Y-16211698D01*
X12210658Y-16125984D02*
X12343991Y-16125984D01*
X12343991Y-16125984D02*
X12258277Y-16325984D01*
X12572563Y-16325984D02*
X12572563Y-16125984D01*
X12658277Y-16325984D02*
X12658277Y-16221222D01*
X12658277Y-16221222D02*
X12648753Y-16202174D01*
X12648753Y-16202174D02*
X12629706Y-16192650D01*
X12629706Y-16192650D02*
X12601134Y-16192650D01*
X12601134Y-16192650D02*
X12582087Y-16202174D01*
X12582087Y-16202174D02*
X12572563Y-16211698D01*
X12782087Y-16325984D02*
X12763039Y-16316460D01*
X12763039Y-16316460D02*
X12753515Y-16306936D01*
X12753515Y-16306936D02*
X12743991Y-16287888D01*
X12743991Y-16287888D02*
X12743991Y-16230746D01*
X12743991Y-16230746D02*
X12753515Y-16211698D01*
X12753515Y-16211698D02*
X12763039Y-16202174D01*
X12763039Y-16202174D02*
X12782087Y-16192650D01*
X12782087Y-16192650D02*
X12810658Y-16192650D01*
X12810658Y-16192650D02*
X12829706Y-16202174D01*
X12829706Y-16202174D02*
X12839230Y-16211698D01*
X12839230Y-16211698D02*
X12848753Y-16230746D01*
X12848753Y-16230746D02*
X12848753Y-16287888D01*
X12848753Y-16287888D02*
X12839230Y-16306936D01*
X12839230Y-16306936D02*
X12829706Y-16316460D01*
X12829706Y-16316460D02*
X12810658Y-16325984D01*
X12810658Y-16325984D02*
X12782087Y-16325984D01*
X12963039Y-16325984D02*
X12943991Y-16316460D01*
X12943991Y-16316460D02*
X12934468Y-16297412D01*
X12934468Y-16297412D02*
X12934468Y-16125984D01*
X13115420Y-16316460D02*
X13096372Y-16325984D01*
X13096372Y-16325984D02*
X13058277Y-16325984D01*
X13058277Y-16325984D02*
X13039230Y-16316460D01*
X13039230Y-16316460D02*
X13029706Y-16297412D01*
X13029706Y-16297412D02*
X13029706Y-16221222D01*
X13029706Y-16221222D02*
X13039230Y-16202174D01*
X13039230Y-16202174D02*
X13058277Y-16192650D01*
X13058277Y-16192650D02*
X13096372Y-16192650D01*
X13096372Y-16192650D02*
X13115420Y-16202174D01*
X13115420Y-16202174D02*
X13124944Y-16221222D01*
X13124944Y-16221222D02*
X13124944Y-16240269D01*
X13124944Y-16240269D02*
X13029706Y-16259317D01*
X13201134Y-16316460D02*
X13220182Y-16325984D01*
X13220182Y-16325984D02*
X13258277Y-16325984D01*
X13258277Y-16325984D02*
X13277325Y-16316460D01*
X13277325Y-16316460D02*
X13286849Y-16297412D01*
X13286849Y-16297412D02*
X13286849Y-16287888D01*
X13286849Y-16287888D02*
X13277325Y-16268841D01*
X13277325Y-16268841D02*
X13258277Y-16259317D01*
X13258277Y-16259317D02*
X13229706Y-16259317D01*
X13229706Y-16259317D02*
X13210658Y-16249793D01*
X13210658Y-16249793D02*
X13201134Y-16230746D01*
X13201134Y-16230746D02*
X13201134Y-16221222D01*
X13201134Y-16221222D02*
X13210658Y-16202174D01*
X13210658Y-16202174D02*
X13229706Y-16192650D01*
X13229706Y-16192650D02*
X13258277Y-16192650D01*
X13258277Y-16192650D02*
X13277325Y-16202174D01*
X13353515Y-16402174D02*
X13363039Y-16392650D01*
X13363039Y-16392650D02*
X13382087Y-16364079D01*
X13382087Y-16364079D02*
X13391611Y-16345031D01*
X13391611Y-16345031D02*
X13401134Y-16316460D01*
X13401134Y-16316460D02*
X13410658Y-16268841D01*
X13410658Y-16268841D02*
X13410658Y-16230746D01*
X13410658Y-16230746D02*
X13401134Y-16183127D01*
X13401134Y-16183127D02*
X13391611Y-16154555D01*
X13391611Y-16154555D02*
X13382087Y-16135508D01*
X13382087Y-16135508D02*
X13363039Y-16106936D01*
X13363039Y-16106936D02*
X13353515Y-16097412D01*
D12*
X8147500Y-16548500D02*
X8197500Y-16498500D01*
X8147500Y-16448500D01*
X8097500Y-16498500D01*
X8147500Y-16548500D01*
D11*
X8563039Y-16589984D02*
X8448753Y-16589984D01*
X8505896Y-16589984D02*
X8505896Y-16389984D01*
X8505896Y-16389984D02*
X8486848Y-16418555D01*
X8486848Y-16418555D02*
X8467801Y-16437603D01*
X8467801Y-16437603D02*
X8448753Y-16447127D01*
X8648753Y-16570936D02*
X8658277Y-16580460D01*
X8658277Y-16580460D02*
X8648753Y-16589984D01*
X8648753Y-16589984D02*
X8639229Y-16580460D01*
X8639229Y-16580460D02*
X8648753Y-16570936D01*
X8648753Y-16570936D02*
X8648753Y-16589984D01*
X8782086Y-16389984D02*
X8801134Y-16389984D01*
X8801134Y-16389984D02*
X8820182Y-16399508D01*
X8820182Y-16399508D02*
X8829705Y-16409031D01*
X8829705Y-16409031D02*
X8839229Y-16428079D01*
X8839229Y-16428079D02*
X8848753Y-16466174D01*
X8848753Y-16466174D02*
X8848753Y-16513793D01*
X8848753Y-16513793D02*
X8839229Y-16551888D01*
X8839229Y-16551888D02*
X8829705Y-16570936D01*
X8829705Y-16570936D02*
X8820182Y-16580460D01*
X8820182Y-16580460D02*
X8801134Y-16589984D01*
X8801134Y-16589984D02*
X8782086Y-16589984D01*
X8782086Y-16589984D02*
X8763039Y-16580460D01*
X8763039Y-16580460D02*
X8753515Y-16570936D01*
X8753515Y-16570936D02*
X8743991Y-16551888D01*
X8743991Y-16551888D02*
X8734467Y-16513793D01*
X8734467Y-16513793D02*
X8734467Y-16466174D01*
X8734467Y-16466174D02*
X8743991Y-16428079D01*
X8743991Y-16428079D02*
X8753515Y-16409031D01*
X8753515Y-16409031D02*
X8763039Y-16399508D01*
X8763039Y-16399508D02*
X8782086Y-16389984D01*
X8972563Y-16389984D02*
X8991610Y-16389984D01*
X8991610Y-16389984D02*
X9010658Y-16399508D01*
X9010658Y-16399508D02*
X9020182Y-16409031D01*
X9020182Y-16409031D02*
X9029705Y-16428079D01*
X9029705Y-16428079D02*
X9039229Y-16466174D01*
X9039229Y-16466174D02*
X9039229Y-16513793D01*
X9039229Y-16513793D02*
X9029705Y-16551888D01*
X9029705Y-16551888D02*
X9020182Y-16570936D01*
X9020182Y-16570936D02*
X9010658Y-16580460D01*
X9010658Y-16580460D02*
X8991610Y-16589984D01*
X8991610Y-16589984D02*
X8972563Y-16589984D01*
X8972563Y-16589984D02*
X8953515Y-16580460D01*
X8953515Y-16580460D02*
X8943991Y-16570936D01*
X8943991Y-16570936D02*
X8934467Y-16551888D01*
X8934467Y-16551888D02*
X8924944Y-16513793D01*
X8924944Y-16513793D02*
X8924944Y-16466174D01*
X8924944Y-16466174D02*
X8934467Y-16428079D01*
X8934467Y-16428079D02*
X8943991Y-16409031D01*
X8943991Y-16409031D02*
X8953515Y-16399508D01*
X8953515Y-16399508D02*
X8972563Y-16389984D01*
X9163039Y-16389984D02*
X9182086Y-16389984D01*
X9182086Y-16389984D02*
X9201134Y-16399508D01*
X9201134Y-16399508D02*
X9210658Y-16409031D01*
X9210658Y-16409031D02*
X9220182Y-16428079D01*
X9220182Y-16428079D02*
X9229705Y-16466174D01*
X9229705Y-16466174D02*
X9229705Y-16513793D01*
X9229705Y-16513793D02*
X9220182Y-16551888D01*
X9220182Y-16551888D02*
X9210658Y-16570936D01*
X9210658Y-16570936D02*
X9201134Y-16580460D01*
X9201134Y-16580460D02*
X9182086Y-16589984D01*
X9182086Y-16589984D02*
X9163039Y-16589984D01*
X9163039Y-16589984D02*
X9143991Y-16580460D01*
X9143991Y-16580460D02*
X9134467Y-16570936D01*
X9134467Y-16570936D02*
X9124944Y-16551888D01*
X9124944Y-16551888D02*
X9115420Y-16513793D01*
X9115420Y-16513793D02*
X9115420Y-16466174D01*
X9115420Y-16466174D02*
X9124944Y-16428079D01*
X9124944Y-16428079D02*
X9134467Y-16409031D01*
X9134467Y-16409031D02*
X9143991Y-16399508D01*
X9143991Y-16399508D02*
X9163039Y-16389984D01*
X9315420Y-16589984D02*
X9315420Y-16456650D01*
X9315420Y-16475698D02*
X9324944Y-16466174D01*
X9324944Y-16466174D02*
X9343991Y-16456650D01*
X9343991Y-16456650D02*
X9372563Y-16456650D01*
X9372563Y-16456650D02*
X9391610Y-16466174D01*
X9391610Y-16466174D02*
X9401134Y-16485222D01*
X9401134Y-16485222D02*
X9401134Y-16589984D01*
X9401134Y-16485222D02*
X9410658Y-16466174D01*
X9410658Y-16466174D02*
X9429705Y-16456650D01*
X9429705Y-16456650D02*
X9458277Y-16456650D01*
X9458277Y-16456650D02*
X9477325Y-16466174D01*
X9477325Y-16466174D02*
X9486848Y-16485222D01*
X9486848Y-16485222D02*
X9486848Y-16589984D01*
X9582086Y-16589984D02*
X9582086Y-16456650D01*
X9582086Y-16475698D02*
X9591610Y-16466174D01*
X9591610Y-16466174D02*
X9610658Y-16456650D01*
X9610658Y-16456650D02*
X9639229Y-16456650D01*
X9639229Y-16456650D02*
X9658277Y-16466174D01*
X9658277Y-16466174D02*
X9667801Y-16485222D01*
X9667801Y-16485222D02*
X9667801Y-16589984D01*
X9667801Y-16485222D02*
X9677325Y-16466174D01*
X9677325Y-16466174D02*
X9696372Y-16456650D01*
X9696372Y-16456650D02*
X9724944Y-16456650D01*
X9724944Y-16456650D02*
X9743991Y-16466174D01*
X9743991Y-16466174D02*
X9753515Y-16485222D01*
X9753515Y-16485222D02*
X9753515Y-16589984D01*
X10143991Y-16380460D02*
X9972563Y-16637603D01*
X10401134Y-16389984D02*
X10420182Y-16389984D01*
X10420182Y-16389984D02*
X10439229Y-16399508D01*
X10439229Y-16399508D02*
X10448753Y-16409031D01*
X10448753Y-16409031D02*
X10458277Y-16428079D01*
X10458277Y-16428079D02*
X10467801Y-16466174D01*
X10467801Y-16466174D02*
X10467801Y-16513793D01*
X10467801Y-16513793D02*
X10458277Y-16551888D01*
X10458277Y-16551888D02*
X10448753Y-16570936D01*
X10448753Y-16570936D02*
X10439229Y-16580460D01*
X10439229Y-16580460D02*
X10420182Y-16589984D01*
X10420182Y-16589984D02*
X10401134Y-16589984D01*
X10401134Y-16589984D02*
X10382087Y-16580460D01*
X10382087Y-16580460D02*
X10372563Y-16570936D01*
X10372563Y-16570936D02*
X10363039Y-16551888D01*
X10363039Y-16551888D02*
X10353515Y-16513793D01*
X10353515Y-16513793D02*
X10353515Y-16466174D01*
X10353515Y-16466174D02*
X10363039Y-16428079D01*
X10363039Y-16428079D02*
X10372563Y-16409031D01*
X10372563Y-16409031D02*
X10382087Y-16399508D01*
X10382087Y-16399508D02*
X10401134Y-16389984D01*
X10553515Y-16570936D02*
X10563039Y-16580460D01*
X10563039Y-16580460D02*
X10553515Y-16589984D01*
X10553515Y-16589984D02*
X10543991Y-16580460D01*
X10543991Y-16580460D02*
X10553515Y-16570936D01*
X10553515Y-16570936D02*
X10553515Y-16589984D01*
X10686848Y-16389984D02*
X10705896Y-16389984D01*
X10705896Y-16389984D02*
X10724944Y-16399508D01*
X10724944Y-16399508D02*
X10734468Y-16409031D01*
X10734468Y-16409031D02*
X10743991Y-16428079D01*
X10743991Y-16428079D02*
X10753515Y-16466174D01*
X10753515Y-16466174D02*
X10753515Y-16513793D01*
X10753515Y-16513793D02*
X10743991Y-16551888D01*
X10743991Y-16551888D02*
X10734468Y-16570936D01*
X10734468Y-16570936D02*
X10724944Y-16580460D01*
X10724944Y-16580460D02*
X10705896Y-16589984D01*
X10705896Y-16589984D02*
X10686848Y-16589984D01*
X10686848Y-16589984D02*
X10667801Y-16580460D01*
X10667801Y-16580460D02*
X10658277Y-16570936D01*
X10658277Y-16570936D02*
X10648753Y-16551888D01*
X10648753Y-16551888D02*
X10639229Y-16513793D01*
X10639229Y-16513793D02*
X10639229Y-16466174D01*
X10639229Y-16466174D02*
X10648753Y-16428079D01*
X10648753Y-16428079D02*
X10658277Y-16409031D01*
X10658277Y-16409031D02*
X10667801Y-16399508D01*
X10667801Y-16399508D02*
X10686848Y-16389984D01*
X10820182Y-16389984D02*
X10943991Y-16389984D01*
X10943991Y-16389984D02*
X10877325Y-16466174D01*
X10877325Y-16466174D02*
X10905896Y-16466174D01*
X10905896Y-16466174D02*
X10924944Y-16475698D01*
X10924944Y-16475698D02*
X10934468Y-16485222D01*
X10934468Y-16485222D02*
X10943991Y-16504269D01*
X10943991Y-16504269D02*
X10943991Y-16551888D01*
X10943991Y-16551888D02*
X10934468Y-16570936D01*
X10934468Y-16570936D02*
X10924944Y-16580460D01*
X10924944Y-16580460D02*
X10905896Y-16589984D01*
X10905896Y-16589984D02*
X10848753Y-16589984D01*
X10848753Y-16589984D02*
X10829706Y-16580460D01*
X10829706Y-16580460D02*
X10820182Y-16570936D01*
X11039229Y-16589984D02*
X11077325Y-16589984D01*
X11077325Y-16589984D02*
X11096372Y-16580460D01*
X11096372Y-16580460D02*
X11105896Y-16570936D01*
X11105896Y-16570936D02*
X11124944Y-16542365D01*
X11124944Y-16542365D02*
X11134468Y-16504269D01*
X11134468Y-16504269D02*
X11134468Y-16428079D01*
X11134468Y-16428079D02*
X11124944Y-16409031D01*
X11124944Y-16409031D02*
X11115420Y-16399508D01*
X11115420Y-16399508D02*
X11096372Y-16389984D01*
X11096372Y-16389984D02*
X11058277Y-16389984D01*
X11058277Y-16389984D02*
X11039229Y-16399508D01*
X11039229Y-16399508D02*
X11029706Y-16409031D01*
X11029706Y-16409031D02*
X11020182Y-16428079D01*
X11020182Y-16428079D02*
X11020182Y-16475698D01*
X11020182Y-16475698D02*
X11029706Y-16494746D01*
X11029706Y-16494746D02*
X11039229Y-16504269D01*
X11039229Y-16504269D02*
X11058277Y-16513793D01*
X11058277Y-16513793D02*
X11096372Y-16513793D01*
X11096372Y-16513793D02*
X11115420Y-16504269D01*
X11115420Y-16504269D02*
X11124944Y-16494746D01*
X11124944Y-16494746D02*
X11134468Y-16475698D01*
X11305896Y-16456650D02*
X11305896Y-16589984D01*
X11258277Y-16380460D02*
X11210658Y-16523317D01*
X11210658Y-16523317D02*
X11334467Y-16523317D01*
X11401134Y-16389984D02*
X11401134Y-16428079D01*
X11477325Y-16389984D02*
X11477325Y-16428079D01*
X11772563Y-16666174D02*
X11763039Y-16656650D01*
X11763039Y-16656650D02*
X11743991Y-16628079D01*
X11743991Y-16628079D02*
X11734468Y-16609031D01*
X11734468Y-16609031D02*
X11724944Y-16580460D01*
X11724944Y-16580460D02*
X11715420Y-16532841D01*
X11715420Y-16532841D02*
X11715420Y-16494746D01*
X11715420Y-16494746D02*
X11724944Y-16447127D01*
X11724944Y-16447127D02*
X11734468Y-16418555D01*
X11734468Y-16418555D02*
X11743991Y-16399508D01*
X11743991Y-16399508D02*
X11763039Y-16370936D01*
X11763039Y-16370936D02*
X11772563Y-16361412D01*
X11886848Y-16389984D02*
X11905896Y-16389984D01*
X11905896Y-16389984D02*
X11924944Y-16399508D01*
X11924944Y-16399508D02*
X11934468Y-16409031D01*
X11934468Y-16409031D02*
X11943991Y-16428079D01*
X11943991Y-16428079D02*
X11953515Y-16466174D01*
X11953515Y-16466174D02*
X11953515Y-16513793D01*
X11953515Y-16513793D02*
X11943991Y-16551888D01*
X11943991Y-16551888D02*
X11934468Y-16570936D01*
X11934468Y-16570936D02*
X11924944Y-16580460D01*
X11924944Y-16580460D02*
X11905896Y-16589984D01*
X11905896Y-16589984D02*
X11886848Y-16589984D01*
X11886848Y-16589984D02*
X11867801Y-16580460D01*
X11867801Y-16580460D02*
X11858277Y-16570936D01*
X11858277Y-16570936D02*
X11848753Y-16551888D01*
X11848753Y-16551888D02*
X11839229Y-16513793D01*
X11839229Y-16513793D02*
X11839229Y-16466174D01*
X11839229Y-16466174D02*
X11848753Y-16428079D01*
X11848753Y-16428079D02*
X11858277Y-16409031D01*
X11858277Y-16409031D02*
X11867801Y-16399508D01*
X11867801Y-16399508D02*
X11886848Y-16389984D01*
X12191610Y-16589984D02*
X12191610Y-16389984D01*
X12277325Y-16589984D02*
X12277325Y-16485222D01*
X12277325Y-16485222D02*
X12267801Y-16466174D01*
X12267801Y-16466174D02*
X12248753Y-16456650D01*
X12248753Y-16456650D02*
X12220182Y-16456650D01*
X12220182Y-16456650D02*
X12201134Y-16466174D01*
X12201134Y-16466174D02*
X12191610Y-16475698D01*
X12401134Y-16589984D02*
X12382087Y-16580460D01*
X12382087Y-16580460D02*
X12372563Y-16570936D01*
X12372563Y-16570936D02*
X12363039Y-16551888D01*
X12363039Y-16551888D02*
X12363039Y-16494746D01*
X12363039Y-16494746D02*
X12372563Y-16475698D01*
X12372563Y-16475698D02*
X12382087Y-16466174D01*
X12382087Y-16466174D02*
X12401134Y-16456650D01*
X12401134Y-16456650D02*
X12429706Y-16456650D01*
X12429706Y-16456650D02*
X12448753Y-16466174D01*
X12448753Y-16466174D02*
X12458277Y-16475698D01*
X12458277Y-16475698D02*
X12467801Y-16494746D01*
X12467801Y-16494746D02*
X12467801Y-16551888D01*
X12467801Y-16551888D02*
X12458277Y-16570936D01*
X12458277Y-16570936D02*
X12448753Y-16580460D01*
X12448753Y-16580460D02*
X12429706Y-16589984D01*
X12429706Y-16589984D02*
X12401134Y-16589984D01*
X12582087Y-16589984D02*
X12563039Y-16580460D01*
X12563039Y-16580460D02*
X12553515Y-16561412D01*
X12553515Y-16561412D02*
X12553515Y-16389984D01*
X12734468Y-16580460D02*
X12715420Y-16589984D01*
X12715420Y-16589984D02*
X12677325Y-16589984D01*
X12677325Y-16589984D02*
X12658277Y-16580460D01*
X12658277Y-16580460D02*
X12648753Y-16561412D01*
X12648753Y-16561412D02*
X12648753Y-16485222D01*
X12648753Y-16485222D02*
X12658277Y-16466174D01*
X12658277Y-16466174D02*
X12677325Y-16456650D01*
X12677325Y-16456650D02*
X12715420Y-16456650D01*
X12715420Y-16456650D02*
X12734468Y-16466174D01*
X12734468Y-16466174D02*
X12743991Y-16485222D01*
X12743991Y-16485222D02*
X12743991Y-16504269D01*
X12743991Y-16504269D02*
X12648753Y-16523317D01*
X12820182Y-16580460D02*
X12839230Y-16589984D01*
X12839230Y-16589984D02*
X12877325Y-16589984D01*
X12877325Y-16589984D02*
X12896372Y-16580460D01*
X12896372Y-16580460D02*
X12905896Y-16561412D01*
X12905896Y-16561412D02*
X12905896Y-16551888D01*
X12905896Y-16551888D02*
X12896372Y-16532841D01*
X12896372Y-16532841D02*
X12877325Y-16523317D01*
X12877325Y-16523317D02*
X12848753Y-16523317D01*
X12848753Y-16523317D02*
X12829706Y-16513793D01*
X12829706Y-16513793D02*
X12820182Y-16494746D01*
X12820182Y-16494746D02*
X12820182Y-16485222D01*
X12820182Y-16485222D02*
X12829706Y-16466174D01*
X12829706Y-16466174D02*
X12848753Y-16456650D01*
X12848753Y-16456650D02*
X12877325Y-16456650D01*
X12877325Y-16456650D02*
X12896372Y-16466174D01*
X13143992Y-16513793D02*
X13296373Y-16513793D01*
X13220182Y-16589984D02*
X13220182Y-16437603D01*
X13524944Y-16389984D02*
X13648753Y-16389984D01*
X13648753Y-16389984D02*
X13582087Y-16466174D01*
X13582087Y-16466174D02*
X13610658Y-16466174D01*
X13610658Y-16466174D02*
X13629706Y-16475698D01*
X13629706Y-16475698D02*
X13639230Y-16485222D01*
X13639230Y-16485222D02*
X13648753Y-16504269D01*
X13648753Y-16504269D02*
X13648753Y-16551888D01*
X13648753Y-16551888D02*
X13639230Y-16570936D01*
X13639230Y-16570936D02*
X13629706Y-16580460D01*
X13629706Y-16580460D02*
X13610658Y-16589984D01*
X13610658Y-16589984D02*
X13553515Y-16589984D01*
X13553515Y-16589984D02*
X13534468Y-16580460D01*
X13534468Y-16580460D02*
X13524944Y-16570936D01*
X13877325Y-16580460D02*
X13896373Y-16589984D01*
X13896373Y-16589984D02*
X13934468Y-16589984D01*
X13934468Y-16589984D02*
X13953515Y-16580460D01*
X13953515Y-16580460D02*
X13963039Y-16561412D01*
X13963039Y-16561412D02*
X13963039Y-16551888D01*
X13963039Y-16551888D02*
X13953515Y-16532841D01*
X13953515Y-16532841D02*
X13934468Y-16523317D01*
X13934468Y-16523317D02*
X13905896Y-16523317D01*
X13905896Y-16523317D02*
X13886849Y-16513793D01*
X13886849Y-16513793D02*
X13877325Y-16494746D01*
X13877325Y-16494746D02*
X13877325Y-16485222D01*
X13877325Y-16485222D02*
X13886849Y-16466174D01*
X13886849Y-16466174D02*
X13905896Y-16456650D01*
X13905896Y-16456650D02*
X13934468Y-16456650D01*
X13934468Y-16456650D02*
X13953515Y-16466174D01*
X14077325Y-16589984D02*
X14058277Y-16580460D01*
X14058277Y-16580460D02*
X14048754Y-16561412D01*
X14048754Y-16561412D02*
X14048754Y-16389984D01*
X14182087Y-16589984D02*
X14163039Y-16580460D01*
X14163039Y-16580460D02*
X14153515Y-16570936D01*
X14153515Y-16570936D02*
X14143992Y-16551888D01*
X14143992Y-16551888D02*
X14143992Y-16494746D01*
X14143992Y-16494746D02*
X14153515Y-16475698D01*
X14153515Y-16475698D02*
X14163039Y-16466174D01*
X14163039Y-16466174D02*
X14182087Y-16456650D01*
X14182087Y-16456650D02*
X14210658Y-16456650D01*
X14210658Y-16456650D02*
X14229706Y-16466174D01*
X14229706Y-16466174D02*
X14239230Y-16475698D01*
X14239230Y-16475698D02*
X14248754Y-16494746D01*
X14248754Y-16494746D02*
X14248754Y-16551888D01*
X14248754Y-16551888D02*
X14239230Y-16570936D01*
X14239230Y-16570936D02*
X14229706Y-16580460D01*
X14229706Y-16580460D02*
X14210658Y-16589984D01*
X14210658Y-16589984D02*
X14182087Y-16589984D01*
X14305896Y-16456650D02*
X14382087Y-16456650D01*
X14334468Y-16389984D02*
X14334468Y-16561412D01*
X14334468Y-16561412D02*
X14343992Y-16580460D01*
X14343992Y-16580460D02*
X14363039Y-16589984D01*
X14363039Y-16589984D02*
X14382087Y-16589984D01*
X14439230Y-16580460D02*
X14458277Y-16589984D01*
X14458277Y-16589984D02*
X14496373Y-16589984D01*
X14496373Y-16589984D02*
X14515420Y-16580460D01*
X14515420Y-16580460D02*
X14524944Y-16561412D01*
X14524944Y-16561412D02*
X14524944Y-16551888D01*
X14524944Y-16551888D02*
X14515420Y-16532841D01*
X14515420Y-16532841D02*
X14496373Y-16523317D01*
X14496373Y-16523317D02*
X14467801Y-16523317D01*
X14467801Y-16523317D02*
X14448754Y-16513793D01*
X14448754Y-16513793D02*
X14439230Y-16494746D01*
X14439230Y-16494746D02*
X14439230Y-16485222D01*
X14439230Y-16485222D02*
X14448754Y-16466174D01*
X14448754Y-16466174D02*
X14467801Y-16456650D01*
X14467801Y-16456650D02*
X14496373Y-16456650D01*
X14496373Y-16456650D02*
X14515420Y-16466174D01*
X14591611Y-16666174D02*
X14601135Y-16656650D01*
X14601135Y-16656650D02*
X14620182Y-16628079D01*
X14620182Y-16628079D02*
X14629706Y-16609031D01*
X14629706Y-16609031D02*
X14639230Y-16580460D01*
X14639230Y-16580460D02*
X14648754Y-16532841D01*
X14648754Y-16532841D02*
X14648754Y-16494746D01*
X14648754Y-16494746D02*
X14639230Y-16447127D01*
X14639230Y-16447127D02*
X14629706Y-16418555D01*
X14629706Y-16418555D02*
X14620182Y-16399508D01*
X14620182Y-16399508D02*
X14601135Y-16370936D01*
X14601135Y-16370936D02*
X14591611Y-16361412D01*
M02*
