G04 #@! TF.GenerationSoftware,KiCad,Pcbnew,9.0.1-rc2*
G04 #@! TF.CreationDate,2025-11-09T14:34:19-08:00*
G04 #@! TF.ProjectId,bsl_array_v1,62736c5f-6172-4726-9179-5f76312e6b69,2*
G04 #@! TF.SameCoordinates,Original*
G04 #@! TF.FileFunction,Paste,Top*
G04 #@! TF.FilePolarity,Positive*
%FSLAX46Y46*%
G04 Gerber Fmt 4.6, Leading zero omitted, Abs format (unit mm)*
G04 Created by KiCad (PCBNEW 9.0.1-rc2) date 2025-11-09 14:34:19*
%MOMM*%
%LPD*%
G01*
G04 APERTURE LIST*
G04 Aperture macros list*
%AMRoundRect*
0 Rectangle with rounded corners*
0 $1 Rounding radius*
0 $2 $3 $4 $5 $6 $7 $8 $9 X,Y pos of 4 corners*
0 Add a 4 corners polygon primitive as box body*
4,1,4,$2,$3,$4,$5,$6,$7,$8,$9,$2,$3,0*
0 Add four circle primitives for the rounded corners*
1,1,$1+$1,$2,$3*
1,1,$1+$1,$4,$5*
1,1,$1+$1,$6,$7*
1,1,$1+$1,$8,$9*
0 Add four rect primitives between the rounded corners*
20,1,$1+$1,$2,$3,$4,$5,0*
20,1,$1+$1,$4,$5,$6,$7,0*
20,1,$1+$1,$6,$7,$8,$9,0*
20,1,$1+$1,$8,$9,$2,$3,0*%
%AMFreePoly0*
4,1,15,-1.250000,0.770000,-1.238756,0.855410,-1.190320,0.959280,-1.109280,1.040320,-1.005410,1.088756,-0.920000,1.100000,1.250000,1.100000,1.250000,-1.100000,-0.920000,-1.100000,-1.005410,-1.088756,-1.109280,-1.040320,-1.190320,-0.959280,-1.238756,-0.855410,-1.250000,-0.770000,-1.250000,0.770000,-1.250000,0.770000,$1*%
%AMFreePoly1*
4,1,13,-0.775000,1.100000,0.542500,1.100000,0.631474,1.082303,0.706902,1.031902,0.757302,0.956474,0.775000,0.867500,0.775000,-0.867500,0.757302,-0.956474,0.706902,-1.031902,0.631474,-1.082303,0.542500,-1.100000,-0.775000,-1.100000,-0.775000,1.100000,-0.775000,1.100000,$1*%
%AMFreePoly2*
4,1,17,-1.250000,0.660000,-1.242329,0.741801,-1.199011,0.865598,-1.121127,0.971127,-1.015598,1.049011,-0.891801,1.092329,-0.810000,1.100000,1.250000,1.100000,1.250000,-1.100000,-0.810000,-1.100000,-0.891801,-1.092329,-1.015598,-1.049011,-1.121127,-0.971127,-1.199011,-0.865598,-1.242329,-0.741801,-1.250000,-0.660000,-1.250000,0.660000,-1.250000,0.660000,$1*%
G04 Aperture macros list end*
%ADD10RoundRect,0.200000X0.200000X-1.050000X0.200000X1.050000X-0.200000X1.050000X-0.200000X-1.050000X0*%
%ADD11FreePoly0,135.000000*%
%ADD12FreePoly1,135.000000*%
%ADD13FreePoly0,90.000000*%
%ADD14FreePoly1,90.000000*%
%ADD15FreePoly2,270.000000*%
%ADD16FreePoly1,270.000000*%
%ADD17FreePoly0,270.000000*%
%ADD18RoundRect,0.250000X0.220971X-0.662913X0.662913X-0.220971X-0.220971X0.662913X-0.662913X0.220971X0*%
%ADD19FreePoly2,315.000000*%
%ADD20FreePoly1,315.000000*%
%ADD21FreePoly2,180.000000*%
%ADD22FreePoly1,180.000000*%
%ADD23FreePoly2,90.000000*%
%ADD24FreePoly0,0.000000*%
%ADD25FreePoly1,0.000000*%
%ADD26RoundRect,0.250000X-0.662913X-0.220971X-0.220971X-0.662913X0.662913X0.220971X0.220971X0.662913X0*%
%ADD27FreePoly0,315.000000*%
%ADD28FreePoly0,225.000000*%
%ADD29FreePoly1,225.000000*%
%ADD30FreePoly2,135.000000*%
%ADD31FreePoly2,225.000000*%
%ADD32FreePoly2,45.000000*%
%ADD33FreePoly1,45.000000*%
%ADD34FreePoly0,45.000000*%
%ADD35RoundRect,0.200000X-0.200000X-0.275000X0.200000X-0.275000X0.200000X0.275000X-0.200000X0.275000X0*%
%ADD36RoundRect,0.250000X0.662913X0.220971X0.220971X0.662913X-0.662913X-0.220971X-0.220971X-0.662913X0*%
G04 APERTURE END LIST*
D10*
X82000000Y-20100000D03*
X82000000Y-24900000D03*
X84000000Y-20100000D03*
X84000000Y-24900000D03*
X86000000Y-20100000D03*
X86000000Y-24900000D03*
X88000000Y-20100000D03*
X88000000Y-24900000D03*
X90000000Y-20100000D03*
X90000000Y-24900000D03*
X92000000Y-20100000D03*
X92000000Y-24900000D03*
X94000000Y-20100000D03*
X94000000Y-24900000D03*
X96000000Y-20100000D03*
X96000000Y-24900000D03*
X98000000Y-20100000D03*
X98000000Y-24900000D03*
X100000000Y-20100000D03*
X100000000Y-24900000D03*
D11*
X136442462Y-173542462D03*
D12*
X134621662Y-171721662D03*
D13*
X146000000Y-60550000D03*
D14*
X146000000Y-57975000D03*
D15*
X68600000Y-42450000D03*
D16*
X68600000Y-45025000D03*
D17*
X103800000Y-170450000D03*
D16*
X103800000Y-173025000D03*
D18*
X114665856Y-176534144D03*
X116734144Y-174465856D03*
D19*
X132657538Y-174357538D03*
D20*
X134478338Y-176178338D03*
D21*
X44050000Y-81900000D03*
D22*
X41475000Y-81900000D03*
D21*
X76050000Y-142700000D03*
D22*
X73475000Y-142700000D03*
D21*
X108050000Y-145899999D03*
D22*
X105475000Y-145899999D03*
D21*
X108050000Y-139500000D03*
D22*
X105475000Y-139500000D03*
D23*
X110200000Y-172550000D03*
D14*
X110200000Y-169975000D03*
D13*
X72500000Y-60550000D03*
D14*
X72500000Y-57975000D03*
D17*
X103800000Y-42450000D03*
D16*
X103800000Y-45025000D03*
D13*
X71800000Y-172550000D03*
D14*
X71800000Y-169975000D03*
D21*
X44050000Y-145900000D03*
D22*
X41475000Y-145900000D03*
D15*
X78200000Y-42450000D03*
D16*
X78200000Y-45025000D03*
D13*
X71800000Y-44550000D03*
D14*
X71800000Y-41975000D03*
D24*
X105950000Y-110700000D03*
D25*
X108525000Y-110700000D03*
D17*
X36000000Y-90450000D03*
D16*
X36000000Y-93025000D03*
D26*
X117115855Y-176865856D03*
X119184143Y-178934144D03*
D24*
X73950000Y-136300000D03*
D25*
X76525000Y-136300000D03*
D27*
X40715076Y-45815076D03*
D20*
X42535876Y-47635876D03*
D19*
X139557538Y-167457538D03*
D20*
X141378338Y-169278338D03*
D21*
X140050000Y-139500000D03*
D22*
X137475000Y-139500000D03*
D28*
X42442462Y-167457538D03*
D29*
X40621662Y-169278338D03*
D21*
X44050000Y-72300000D03*
D22*
X41475000Y-72300000D03*
D21*
X76050000Y-75500000D03*
D22*
X73475000Y-75500000D03*
D24*
X41925000Y-142675000D03*
D25*
X44500000Y-142675000D03*
D30*
X44500000Y-45000000D03*
D12*
X42679200Y-43179200D03*
D24*
X41950000Y-110700001D03*
D25*
X44525000Y-110700001D03*
D13*
X72500000Y-124550000D03*
D14*
X72500000Y-121975000D03*
D21*
X140100000Y-78700000D03*
D22*
X137525000Y-78700000D03*
D17*
X109500000Y-154450000D03*
D16*
X109500000Y-157025000D03*
D31*
X134142462Y-39157538D03*
D29*
X132321662Y-40978338D03*
D15*
X75000000Y-170450000D03*
D16*
X75000000Y-173025000D03*
D21*
X76050000Y-139500000D03*
D22*
X73475000Y-139500000D03*
D32*
X38657538Y-166642462D03*
D33*
X40478338Y-164821662D03*
D21*
X140050000Y-69100000D03*
D22*
X137475000Y-69100000D03*
D21*
X44050000Y-75500000D03*
D22*
X41475000Y-75500000D03*
D24*
X41950000Y-78700000D03*
D25*
X44525000Y-78700000D03*
D13*
X146000000Y-156550000D03*
D14*
X146000000Y-153975000D03*
D34*
X134957538Y-42942462D03*
D33*
X136778338Y-41121662D03*
D24*
X105950000Y-142700000D03*
D25*
X108525000Y-142700000D03*
D30*
X39900000Y-49600000D03*
D12*
X38079200Y-47779200D03*
D24*
X137950000Y-136300000D03*
D25*
X140525000Y-136300000D03*
D24*
X105950000Y-78700000D03*
D25*
X108525000Y-78700000D03*
D13*
X146000000Y-92550000D03*
D14*
X146000000Y-89975000D03*
D21*
X108050000Y-136300000D03*
D22*
X105475000Y-136300000D03*
D21*
X108050000Y-113899999D03*
D22*
X105475000Y-113899999D03*
D32*
X45557538Y-173542462D03*
D33*
X47378338Y-171721662D03*
D30*
X46800000Y-42700000D03*
D12*
X44979200Y-40879200D03*
D24*
X73950000Y-72300000D03*
D25*
X76525000Y-72300000D03*
D21*
X108050000Y-104300000D03*
D22*
X105475000Y-104300000D03*
D21*
X76050000Y-110700000D03*
D22*
X73475000Y-110700000D03*
D21*
X76050000Y-107500000D03*
D22*
X73475000Y-107500000D03*
D17*
X109500000Y-90450000D03*
D16*
X109500000Y-93025000D03*
D24*
X137950000Y-72300000D03*
D25*
X140525000Y-72300000D03*
D21*
X44050000Y-113900000D03*
D22*
X41475000Y-113900000D03*
D21*
X108050000Y-72300000D03*
D22*
X105475000Y-72300000D03*
D21*
X108050000Y-107500000D03*
D22*
X105475000Y-107500000D03*
D21*
X76050000Y-78700000D03*
D22*
X73475000Y-78700000D03*
D21*
X140050000Y-142700000D03*
D22*
X137475000Y-142700000D03*
D23*
X100600000Y-44550000D03*
D14*
X100600000Y-41975000D03*
D15*
X68600000Y-170450000D03*
D16*
X68600000Y-173025000D03*
D21*
X139975000Y-133075000D03*
D22*
X137400000Y-133075000D03*
D17*
X109500000Y-122450000D03*
D16*
X109500000Y-125025000D03*
D23*
X100600000Y-172550000D03*
D14*
X100600000Y-169975000D03*
D21*
X139975000Y-101075000D03*
D22*
X137400000Y-101075000D03*
D13*
X72500000Y-92575000D03*
D14*
X72500000Y-90000000D03*
D13*
X146000000Y-124550000D03*
D14*
X146000000Y-121975000D03*
D13*
X72500000Y-156550000D03*
D14*
X72500000Y-153975000D03*
D24*
X137950000Y-104300000D03*
D25*
X140525000Y-104300000D03*
D23*
X107000000Y-172550000D03*
D14*
X107000000Y-169975000D03*
D18*
X110015856Y-177634144D03*
X112084144Y-175565856D03*
D21*
X44075000Y-139475000D03*
D22*
X41500000Y-139475000D03*
D21*
X44075000Y-136275000D03*
D22*
X41500000Y-136275000D03*
D21*
X44050001Y-104300000D03*
D22*
X41475001Y-104300000D03*
D23*
X110200000Y-44550000D03*
D14*
X110200000Y-41975000D03*
D21*
X108050000Y-75500000D03*
D22*
X105475000Y-75500000D03*
D21*
X140050000Y-75500000D03*
D22*
X137475000Y-75500000D03*
D21*
X44050000Y-107500000D03*
D22*
X41475000Y-107500000D03*
D21*
X76050000Y-101100001D03*
D22*
X73475000Y-101100001D03*
D17*
X36000000Y-122450000D03*
D16*
X36000000Y-125025000D03*
D21*
X76075000Y-69100000D03*
D22*
X73500000Y-69100000D03*
D15*
X78200000Y-170450000D03*
D16*
X78200000Y-173025000D03*
D35*
X90175000Y-90500000D03*
X91825000Y-90500000D03*
D18*
X62815856Y-178934144D03*
X64884144Y-176865856D03*
D24*
X73950000Y-104300000D03*
D25*
X76525000Y-104300000D03*
D26*
X60365856Y-174465856D03*
X62434144Y-176534144D03*
X65265856Y-174465856D03*
X67334144Y-176534144D03*
D21*
X76050000Y-133100001D03*
D22*
X73475000Y-133100001D03*
D21*
X140050000Y-107500000D03*
D22*
X137475000Y-107500000D03*
D17*
X36000000Y-154450000D03*
D16*
X36000000Y-157025000D03*
D31*
X138742462Y-43757538D03*
D29*
X136921662Y-45578338D03*
D23*
X107000000Y-44550000D03*
D14*
X107000000Y-41975000D03*
D18*
X119565857Y-176534145D03*
X121634145Y-174465857D03*
D31*
X141042462Y-46057538D03*
D29*
X139221662Y-47878338D03*
D17*
X36000000Y-58450000D03*
D16*
X36000000Y-61025000D03*
D36*
X71984144Y-177634144D03*
X69915856Y-175565856D03*
D15*
X75000000Y-42450000D03*
D16*
X75000000Y-45025000D03*
D17*
X109500000Y-58425000D03*
D16*
X109500000Y-61000000D03*
D32*
X43257538Y-171242462D03*
D33*
X45078338Y-169421662D03*
D19*
X137257538Y-169757538D03*
D20*
X139078338Y-171578338D03*
D21*
X108050000Y-81899999D03*
D22*
X105475000Y-81899999D03*
D21*
X140050000Y-110700000D03*
D22*
X137475000Y-110700000D03*
M02*
