G04 #@! TF.GenerationSoftware,KiCad,Pcbnew,10.0.0*
G04 #@! TF.CreationDate,2026-06-28T10:47:03-07:00*
G04 #@! TF.ProjectId,sl_v4,736c5f76-342e-46b6-9963-61645f706362,b*
G04 #@! TF.SameCoordinates,Original*
G04 #@! TF.FileFunction,Profile,NP*
%FSLAX46Y46*%
G04 Gerber Fmt 4.6, Leading zero omitted, Abs format (unit mm)*
G04 Created by KiCad (PCBNEW 10.0.0) date 2026-06-28 10:47:03*
%MOMM*%
%LPD*%
G01*
G04 APERTURE LIST*
G04 #@! TA.AperFunction,Profile*
%ADD10C,0.050000*%
G04 #@! TD*
G04 APERTURE END LIST*
D10*
X35500000Y-55100000D02*
G75*
G02*
X37500000Y-53100000I2000000J0D01*
G01*
X35500001Y-81800000D02*
X35500000Y-55100000D01*
X35500001Y-150499999D02*
X35500001Y-157999999D01*
X35500001Y-150499999D02*
G75*
G02*
X36500001Y-149500001I999999J-1D01*
G01*
X36500001Y-82800000D02*
G75*
G02*
X35500000Y-81800000I-1J1000000D01*
G01*
X36500001Y-82800000D02*
X37000001Y-82800000D01*
X37000001Y-82800000D02*
G75*
G02*
X38000000Y-83800000I-1J-1000000D01*
G01*
X37000001Y-149499999D02*
X36500001Y-149499999D01*
X38000001Y-148499999D02*
G75*
G02*
X37000001Y-149500001I-1000001J-1D01*
G01*
X38000001Y-148499999D02*
X38000001Y-83800000D01*
X38000000Y-160500000D02*
G75*
G02*
X35500000Y-158000000I0J2500000D01*
G01*
X38000000Y-160500000D02*
X120000000Y-160500000D01*
X48000000Y-53100000D02*
X37500000Y-53100000D01*
X48000000Y-53100000D02*
G75*
G02*
X49000000Y-54100000I0J-1000000D01*
G01*
X49000000Y-54100000D02*
X49000000Y-54500000D01*
X50000000Y-55500000D02*
G75*
G02*
X49000000Y-54500000I0J1000000D01*
G01*
X50000000Y-55500000D02*
X60499999Y-55499999D01*
X61499999Y-54099999D02*
X61499999Y-54499999D01*
X61499999Y-54099999D02*
G75*
G02*
X62499999Y-53099999I1000001J-1D01*
G01*
X61499999Y-54499999D02*
G75*
G02*
X60499999Y-55499999I-999999J-1D01*
G01*
X62499999Y-53099999D02*
X88500000Y-53100000D01*
X88500000Y-53100000D02*
G75*
G02*
X89500000Y-54100000I0J-1000000D01*
G01*
X89500000Y-54100000D02*
X89500000Y-54500000D01*
X90500000Y-55500000D02*
G75*
G02*
X89500000Y-54500000I0J1000000D01*
G01*
X108000000Y-55500000D02*
X90500000Y-55500000D01*
X109000000Y-54100000D02*
X109000000Y-54500000D01*
X109000000Y-54100000D02*
G75*
G02*
X110000000Y-53100000I1000000J0D01*
G01*
X109000000Y-54500000D02*
G75*
G02*
X108000000Y-55500000I-1000000J0D01*
G01*
X110000000Y-53100000D02*
X120500000Y-53100000D01*
X120000000Y-83800001D02*
G75*
G02*
X121000000Y-82800000I1000000J1D01*
G01*
X120000000Y-148500000D02*
X120000000Y-83800001D01*
X120500000Y-53100000D02*
G75*
G02*
X122500000Y-55100001I0J-2000000D01*
G01*
X121000000Y-149500000D02*
G75*
G02*
X120000000Y-148500000I0J1000000D01*
G01*
X121000000Y-149500000D02*
X121500000Y-149500000D01*
X121500000Y-82800001D02*
X121000000Y-82800001D01*
X121500000Y-149500000D02*
G75*
G02*
X122500000Y-150500000I0J-1000000D01*
G01*
X122500000Y-81800001D02*
G75*
G02*
X121500000Y-82800000I-1000000J1D01*
G01*
X122500000Y-81800001D02*
X122500001Y-55100001D01*
X122500000Y-150500000D02*
X122500000Y-158000000D01*
X122500000Y-158000000D02*
G75*
G02*
X120000000Y-160500000I-2500000J0D01*
G01*
M02*
