G04 #@! TF.GenerationSoftware,KiCad,Pcbnew,9.0.1-rc2*
G04 #@! TF.CreationDate,2025-11-09T15:09:06-08:00*
G04 #@! TF.ProjectId,bsl_drv_v1,62736c5f-6472-4765-9f76-312e6b696361,rev?*
G04 #@! TF.SameCoordinates,Original*
G04 #@! TF.FileFunction,Legend,Top*
G04 #@! TF.FilePolarity,Positive*
%FSLAX46Y46*%
G04 Gerber Fmt 4.6, Leading zero omitted, Abs format (unit mm)*
G04 Created by KiCad (PCBNEW 9.0.1-rc2) date 2025-11-09 15:09:06*
%MOMM*%
%LPD*%
G01*
G04 APERTURE LIST*
G04 Aperture macros list*
%AMRoundRect*
0 Rectangle with rounded corners*
0 $1 Rounding radius*
0 $2 $3 $4 $5 $6 $7 $8 $9 X,Y pos of 4 corners*
0 Add a 4 corners polygon primitive as box body*
4,1,4,$2,$3,$4,$5,$6,$7,$8,$9,$2,$3,0*
0 Add four circle primitives for the rounded corners*
1,1,$1+$1,$2,$3*
1,1,$1+$1,$4,$5*
1,1,$1+$1,$6,$7*
1,1,$1+$1,$8,$9*
0 Add four rect primitives between the rounded corners*
20,1,$1+$1,$2,$3,$4,$5,0*
20,1,$1+$1,$4,$5,$6,$7,0*
20,1,$1+$1,$6,$7,$8,$9,0*
20,1,$1+$1,$8,$9,$2,$3,0*%
%AMFreePoly0*
4,1,9,3.862500,-0.866500,0.737500,-0.866500,0.737500,-0.450000,-0.737500,-0.450000,-0.737500,0.450000,0.737500,0.450000,0.737500,0.866500,3.862500,0.866500,3.862500,-0.866500,3.862500,-0.866500,$1*%
G04 Aperture macros list end*
%ADD10C,0.300000*%
%ADD11C,0.100000*%
%ADD12C,0.400000*%
%ADD13C,0.120000*%
%ADD14C,1.300000*%
%ADD15C,1.000000*%
%ADD16RoundRect,0.112500X0.237500X-0.112500X0.237500X0.112500X-0.237500X0.112500X-0.237500X-0.112500X0*%
%ADD17R,1.350000X1.350000*%
%ADD18C,1.350000*%
%ADD19RoundRect,0.250000X0.300000X0.300000X-0.300000X0.300000X-0.300000X-0.300000X0.300000X-0.300000X0*%
%ADD20RoundRect,0.112500X0.112500X-0.187500X0.112500X0.187500X-0.112500X0.187500X-0.112500X-0.187500X0*%
%ADD21RoundRect,0.112500X-0.112500X0.187500X-0.112500X-0.187500X0.112500X-0.187500X0.112500X0.187500X0*%
%ADD22RoundRect,0.150000X0.150000X-0.512500X0.150000X0.512500X-0.150000X0.512500X-0.150000X-0.512500X0*%
%ADD23RoundRect,0.100000X-0.225000X-0.100000X0.225000X-0.100000X0.225000X0.100000X-0.225000X0.100000X0*%
%ADD24RoundRect,0.100000X0.225000X0.100000X-0.225000X0.100000X-0.225000X-0.100000X0.225000X-0.100000X0*%
%ADD25RoundRect,0.250000X-0.475000X0.250000X-0.475000X-0.250000X0.475000X-0.250000X0.475000X0.250000X0*%
%ADD26RoundRect,0.135000X0.185000X-0.135000X0.185000X0.135000X-0.185000X0.135000X-0.185000X-0.135000X0*%
%ADD27RoundRect,0.200000X0.200000X0.275000X-0.200000X0.275000X-0.200000X-0.275000X0.200000X-0.275000X0*%
%ADD28RoundRect,0.250000X-2.600000X0.600000X-2.600000X-0.600000X2.600000X-0.600000X2.600000X0.600000X0*%
%ADD29RoundRect,0.140000X-0.170000X0.140000X-0.170000X-0.140000X0.170000X-0.140000X0.170000X0.140000X0*%
%ADD30RoundRect,0.250000X-0.325000X-0.650000X0.325000X-0.650000X0.325000X0.650000X-0.325000X0.650000X0*%
%ADD31RoundRect,0.140000X-0.140000X-0.170000X0.140000X-0.170000X0.140000X0.170000X-0.140000X0.170000X0*%
%ADD32C,1.600000*%
%ADD33RoundRect,0.250000X0.350000X1.000000X-0.350000X1.000000X-0.350000X-1.000000X0.350000X-1.000000X0*%
%ADD34RoundRect,0.200000X-0.300000X-0.200000X0.300000X-0.200000X0.300000X0.200000X-0.300000X0.200000X0*%
%ADD35RoundRect,0.250000X0.325000X0.650000X-0.325000X0.650000X-0.325000X-0.650000X0.325000X-0.650000X0*%
%ADD36RoundRect,0.250000X2.600000X-0.600000X2.600000X0.600000X-2.600000X0.600000X-2.600000X-0.600000X0*%
%ADD37RoundRect,0.135000X-0.185000X0.135000X-0.185000X-0.135000X0.185000X-0.135000X0.185000X0.135000X0*%
%ADD38RoundRect,0.200000X-0.200000X-0.275000X0.200000X-0.275000X0.200000X0.275000X-0.200000X0.275000X0*%
%ADD39RoundRect,0.140000X0.170000X-0.140000X0.170000X0.140000X-0.170000X0.140000X-0.170000X-0.140000X0*%
%ADD40RoundRect,0.140000X0.140000X0.170000X-0.140000X0.170000X-0.140000X-0.170000X0.140000X-0.170000X0*%
%ADD41RoundRect,0.250000X0.475000X-0.250000X0.475000X0.250000X-0.475000X0.250000X-0.475000X-0.250000X0*%
%ADD42RoundRect,0.135000X-0.135000X-0.185000X0.135000X-0.185000X0.135000X0.185000X-0.135000X0.185000X0*%
%ADD43RoundRect,0.150000X-0.825000X-0.150000X0.825000X-0.150000X0.825000X0.150000X-0.825000X0.150000X0*%
%ADD44RoundRect,0.250000X0.250000X0.475000X-0.250000X0.475000X-0.250000X-0.475000X0.250000X-0.475000X0*%
%ADD45C,0.650000*%
%ADD46R,1.450000X0.600000*%
%ADD47R,1.450000X0.300000*%
%ADD48O,2.100000X1.000000*%
%ADD49O,1.600000X1.000000*%
%ADD50R,1.200000X1.400000*%
%ADD51RoundRect,0.218750X0.218750X0.256250X-0.218750X0.256250X-0.218750X-0.256250X0.218750X-0.256250X0*%
%ADD52RoundRect,0.225000X0.425000X0.225000X-0.425000X0.225000X-0.425000X-0.225000X0.425000X-0.225000X0*%
%ADD53FreePoly0,180.000000*%
%ADD54RoundRect,0.135000X0.135000X0.185000X-0.135000X0.185000X-0.135000X-0.185000X0.135000X-0.185000X0*%
%ADD55RoundRect,0.218750X-0.218750X-0.381250X0.218750X-0.381250X0.218750X0.381250X-0.218750X0.381250X0*%
%ADD56RoundRect,0.200000X0.300000X0.200000X-0.300000X0.200000X-0.300000X-0.200000X0.300000X-0.200000X0*%
%ADD57C,4.000000*%
%ADD58RoundRect,0.050000X0.150000X0.300000X-0.150000X0.300000X-0.150000X-0.300000X0.150000X-0.300000X0*%
%ADD59RoundRect,0.200000X-0.200000X0.300000X-0.200000X-0.300000X0.200000X-0.300000X0.200000X0.300000X0*%
%ADD60RoundRect,0.050000X0.300000X-0.150000X0.300000X0.150000X-0.300000X0.150000X-0.300000X-0.150000X0*%
%ADD61RoundRect,0.050000X-0.150000X-0.300000X0.150000X-0.300000X0.150000X0.300000X-0.150000X0.300000X0*%
%ADD62RoundRect,0.250000X-0.250000X-0.475000X0.250000X-0.475000X0.250000X0.475000X-0.250000X0.475000X0*%
%ADD63RoundRect,0.050000X-0.300000X0.150000X-0.300000X-0.150000X0.300000X-0.150000X0.300000X0.150000X0*%
%ADD64RoundRect,0.050000X-0.050000X0.387500X-0.050000X-0.387500X0.050000X-0.387500X0.050000X0.387500X0*%
%ADD65RoundRect,0.050000X-0.387500X0.050000X-0.387500X-0.050000X0.387500X-0.050000X0.387500X0.050000X0*%
%ADD66R,3.200000X3.200000*%
G04 APERTURE END LIST*
D10*
G36*
X42612547Y-116118955D02*
G01*
X42612547Y-116396000D01*
X43398764Y-116396000D01*
X43398764Y-116207908D01*
X42829214Y-116207908D01*
X42829214Y-116192741D01*
X42990664Y-116077090D01*
X43113005Y-115981157D01*
X43258376Y-115848048D01*
X43262697Y-115843742D01*
X43306558Y-115796340D01*
X43339120Y-115752038D01*
X43356938Y-115719092D01*
X43369725Y-115685028D01*
X43382327Y-115610870D01*
X43383597Y-115570214D01*
X43381150Y-115502691D01*
X43373400Y-115444195D01*
X43363064Y-115403840D01*
X43348693Y-115368584D01*
X43332462Y-115341566D01*
X43312656Y-115318118D01*
X43263767Y-115282413D01*
X43196187Y-115257147D01*
X43098981Y-115241718D01*
X42992173Y-115237702D01*
X42907651Y-115240153D01*
X42834987Y-115247927D01*
X42785788Y-115258161D01*
X42743029Y-115272367D01*
X42710931Y-115288103D01*
X42683133Y-115307241D01*
X42660791Y-115328415D01*
X42641803Y-115352906D01*
X42612748Y-115413496D01*
X42593914Y-115497536D01*
X42587341Y-115573585D01*
X42802323Y-115573585D01*
X42807980Y-115528923D01*
X42818614Y-115493086D01*
X42830215Y-115471839D01*
X42845431Y-115454673D01*
X42884435Y-115432616D01*
X42945718Y-115420961D01*
X42993859Y-115419199D01*
X43050984Y-115421711D01*
X43095519Y-115429913D01*
X43119811Y-115439547D01*
X43139004Y-115452782D01*
X43161686Y-115485851D01*
X43172532Y-115536534D01*
X43173670Y-115566844D01*
X43171116Y-115608202D01*
X43162614Y-115642435D01*
X43135345Y-115688565D01*
X43118203Y-115707821D01*
X43051330Y-115770893D01*
X42962571Y-115846634D01*
X42612547Y-116118955D01*
G37*
G36*
X43940471Y-116410068D02*
G01*
X44022749Y-116407661D01*
X44095509Y-116400191D01*
X44149296Y-116389797D01*
X44196954Y-116375390D01*
X44234142Y-116359151D01*
X44266894Y-116339461D01*
X44293555Y-116317881D01*
X44316637Y-116293054D01*
X44352254Y-116233934D01*
X44376204Y-116156895D01*
X44388139Y-116053292D01*
X44389047Y-116009412D01*
X44386637Y-115945987D01*
X44379150Y-115889873D01*
X44368678Y-115848166D01*
X44354137Y-115811056D01*
X44337323Y-115781297D01*
X44316837Y-115754904D01*
X44265996Y-115712625D01*
X44196532Y-115679969D01*
X44098952Y-115655586D01*
X44042906Y-115647517D01*
X43954301Y-115641408D01*
X43863168Y-115644147D01*
X43879947Y-115433267D01*
X44340321Y-115429897D01*
X44340321Y-115251771D01*
X43693468Y-115251771D01*
X43643129Y-115850923D01*
X43784678Y-115832714D01*
X43894109Y-115824736D01*
X44019385Y-115829014D01*
X44064400Y-115835915D01*
X44101165Y-115847267D01*
X44124553Y-115859660D01*
X44143486Y-115875450D01*
X44167509Y-115914204D01*
X44179410Y-115970781D01*
X44180732Y-116004356D01*
X44178306Y-116057112D01*
X44170704Y-116101831D01*
X44160587Y-116132083D01*
X44146609Y-116157737D01*
X44130620Y-116176992D01*
X44111162Y-116192920D01*
X44060925Y-116215527D01*
X43986627Y-116227351D01*
X43943841Y-116228644D01*
X43891670Y-116226180D01*
X43839954Y-116218309D01*
X43738785Y-116187572D01*
X43614553Y-116130825D01*
X43614553Y-116341191D01*
X43677730Y-116368054D01*
X43738814Y-116387695D01*
X43846144Y-116406231D01*
X43940471Y-116410068D01*
G37*
G36*
X45406147Y-116396000D02*
G01*
X45202889Y-116396000D01*
X45202889Y-116307266D01*
X45189406Y-116307266D01*
X45165276Y-116341787D01*
X45123808Y-116379780D01*
X45097219Y-116393844D01*
X45066397Y-116403970D01*
X45014900Y-116412237D01*
X44950903Y-116414757D01*
X44935065Y-116414641D01*
X44830783Y-116406025D01*
X44755934Y-116385476D01*
X44699564Y-116353329D01*
X44675946Y-116331856D01*
X44655449Y-116306641D01*
X44636513Y-116274717D01*
X44620913Y-116237895D01*
X44606716Y-116188576D01*
X44596483Y-116131918D01*
X44588743Y-116048906D01*
X44586297Y-115952699D01*
X44793000Y-115952699D01*
X44795603Y-116030546D01*
X44808634Y-116113521D01*
X44830995Y-116167233D01*
X44846112Y-116187339D01*
X44864237Y-116203744D01*
X44888106Y-116217902D01*
X44916167Y-116228104D01*
X44958947Y-116235932D01*
X45009668Y-116238390D01*
X45035520Y-116237673D01*
X45097255Y-116227085D01*
X45140294Y-116204393D01*
X45157925Y-116186926D01*
X45172481Y-116165238D01*
X45185984Y-116133778D01*
X45195785Y-116095562D01*
X45203777Y-116031485D01*
X45206259Y-115952699D01*
X45204713Y-115889436D01*
X45193292Y-115799397D01*
X45172709Y-115742712D01*
X45142184Y-115705252D01*
X45120469Y-115690983D01*
X45094938Y-115680718D01*
X45055923Y-115672843D01*
X45009668Y-115670378D01*
X44968854Y-115671867D01*
X44904505Y-115683970D01*
X44859973Y-115707623D01*
X44841934Y-115725263D01*
X44827080Y-115746916D01*
X44813422Y-115777825D01*
X44803531Y-115815061D01*
X44795489Y-115877015D01*
X44793000Y-115952699D01*
X44586297Y-115952699D01*
X44586642Y-115914876D01*
X44596097Y-115778041D01*
X44616320Y-115683951D01*
X44646021Y-115616800D01*
X44686294Y-115567368D01*
X44712211Y-115547222D01*
X44741677Y-115530718D01*
X44779460Y-115516188D01*
X44822212Y-115505753D01*
X44882355Y-115498061D01*
X44950903Y-115495623D01*
X45051508Y-115501360D01*
X45112244Y-115517289D01*
X45135040Y-115529527D01*
X45154173Y-115545069D01*
X45173505Y-115568991D01*
X45189406Y-115598791D01*
X45202889Y-115598791D01*
X45202889Y-115170438D01*
X45406147Y-115170438D01*
X45406147Y-116396000D01*
G37*
G36*
X46143545Y-115242680D02*
G01*
X46236054Y-115258085D01*
X46299089Y-115282876D01*
X46344761Y-115318679D01*
X46363658Y-115343175D01*
X46379112Y-115371784D01*
X46393380Y-115411516D01*
X46403631Y-115457909D01*
X46412314Y-115538178D01*
X46414895Y-115634914D01*
X46414083Y-115682838D01*
X46402521Y-115799034D01*
X46375472Y-115900821D01*
X46353650Y-115953507D01*
X46325802Y-116007211D01*
X46284825Y-116072781D01*
X46233873Y-116143067D01*
X46131370Y-116267391D01*
X45998265Y-116414757D01*
X45739539Y-116414757D01*
X45816039Y-116340031D01*
X45970308Y-116178678D01*
X46055853Y-116074025D01*
X46142759Y-115953065D01*
X46129277Y-115953065D01*
X46078844Y-115990835D01*
X46040748Y-116003609D01*
X45991524Y-116006774D01*
X45891193Y-116003752D01*
X45795335Y-115990372D01*
X45731169Y-115967527D01*
X45685299Y-115933972D01*
X45666453Y-115910890D01*
X45651044Y-115883788D01*
X45636808Y-115845946D01*
X45626572Y-115801571D01*
X45617789Y-115723219D01*
X45615241Y-115629859D01*
X45810101Y-115629859D01*
X45814694Y-115719153D01*
X45828686Y-115774720D01*
X45852828Y-115809792D01*
X45872176Y-115823565D01*
X45896197Y-115833552D01*
X45945601Y-115842835D01*
X46009989Y-115845501D01*
X46093036Y-115840957D01*
X46146636Y-115826732D01*
X46181439Y-115801642D01*
X46195491Y-115781188D01*
X46205888Y-115755668D01*
X46216051Y-115703333D01*
X46219989Y-115634914D01*
X46215109Y-115525146D01*
X46200192Y-115471148D01*
X46174610Y-115436288D01*
X46154162Y-115422471D01*
X46128934Y-115412466D01*
X46078421Y-115403309D01*
X46013360Y-115400661D01*
X45929283Y-115405959D01*
X45878833Y-115421087D01*
X45860464Y-115432754D01*
X45845466Y-115447739D01*
X45831903Y-115469739D01*
X45822042Y-115497186D01*
X45812766Y-115554568D01*
X45810101Y-115629859D01*
X45615241Y-115629859D01*
X45615195Y-115628173D01*
X45619709Y-115507645D01*
X45634769Y-115415806D01*
X45659337Y-115353169D01*
X45695037Y-115307714D01*
X45719552Y-115288874D01*
X45748221Y-115273462D01*
X45788131Y-115259212D01*
X45834780Y-115248972D01*
X45915712Y-115240283D01*
X46013360Y-115237702D01*
X46143545Y-115242680D01*
G37*
G36*
X47126304Y-115235896D02*
G01*
X47218774Y-115248834D01*
X47281850Y-115271917D01*
X47307459Y-115288184D01*
X47329893Y-115308051D01*
X47351957Y-115335219D01*
X47371113Y-115367803D01*
X47394620Y-115424542D01*
X47415216Y-115494450D01*
X47422068Y-115522153D01*
X47442362Y-115647156D01*
X47448340Y-115730026D01*
X47450533Y-115832238D01*
X47450486Y-115848079D01*
X47442593Y-116003516D01*
X47432321Y-116074874D01*
X47416901Y-116146359D01*
X47400696Y-116203294D01*
X47367851Y-116282541D01*
X47330051Y-116335048D01*
X47307016Y-116355356D01*
X47280913Y-116371823D01*
X47246163Y-116386629D01*
X47206144Y-116397283D01*
X47126857Y-116407297D01*
X47028848Y-116410068D01*
X46912807Y-116405895D01*
X46829174Y-116391652D01*
X46770233Y-116366930D01*
X46745664Y-116349417D01*
X46723871Y-116327958D01*
X46702408Y-116298846D01*
X46683579Y-116263826D01*
X46662525Y-116209269D01*
X46649281Y-116161453D01*
X46864204Y-116161453D01*
X46865824Y-116165958D01*
X46885827Y-116199232D01*
X46901954Y-116211787D01*
X46923104Y-116221010D01*
X46967848Y-116229467D01*
X47030533Y-116232015D01*
X47040929Y-116231963D01*
X47125509Y-116224278D01*
X47153395Y-116214726D01*
X47173953Y-116200681D01*
X47188888Y-116181628D01*
X47199906Y-116157054D01*
X47217013Y-116089279D01*
X47233311Y-115981920D01*
X47240533Y-115817144D01*
X47235478Y-115691115D01*
X46864204Y-116161453D01*
X46649281Y-116161453D01*
X46644166Y-116142988D01*
X46639014Y-116120064D01*
X46619964Y-115994120D01*
X46612294Y-115822200D01*
X46822219Y-115822200D01*
X46824527Y-115916017D01*
X46830572Y-115988456D01*
X47208586Y-115509691D01*
X47200294Y-115483027D01*
X47178539Y-115446791D01*
X47161971Y-115433320D01*
X47141054Y-115423495D01*
X47093940Y-115413920D01*
X47028848Y-115411212D01*
X46991029Y-115411995D01*
X46928331Y-115420710D01*
X46891805Y-115439512D01*
X46876021Y-115457926D01*
X46864026Y-115482298D01*
X46845739Y-115551750D01*
X46845087Y-115555254D01*
X46829546Y-115660554D01*
X46822219Y-115822200D01*
X46612294Y-115822200D01*
X46612219Y-115820515D01*
X46618624Y-115663843D01*
X46631200Y-115568954D01*
X46647463Y-115496136D01*
X46666899Y-115429636D01*
X46699478Y-115354630D01*
X46737428Y-115304620D01*
X46760945Y-115285086D01*
X46787858Y-115269193D01*
X46823967Y-115254899D01*
X46865955Y-115244626D01*
X46940684Y-115235765D01*
X47032219Y-115233159D01*
X47126304Y-115235896D01*
G37*
G36*
X47647857Y-116118955D02*
G01*
X47647857Y-116396000D01*
X48434075Y-116396000D01*
X48434075Y-116207908D01*
X47864525Y-116207908D01*
X47864525Y-116192741D01*
X48025974Y-116077090D01*
X48148315Y-115981157D01*
X48293687Y-115848048D01*
X48298007Y-115843742D01*
X48341868Y-115796340D01*
X48374431Y-115752038D01*
X48392249Y-115719092D01*
X48405035Y-115685028D01*
X48417638Y-115610870D01*
X48418907Y-115570214D01*
X48416460Y-115502691D01*
X48408710Y-115444195D01*
X48398375Y-115403840D01*
X48384004Y-115368584D01*
X48367772Y-115341566D01*
X48347967Y-115318118D01*
X48299077Y-115282413D01*
X48231498Y-115257147D01*
X48134291Y-115241718D01*
X48027484Y-115237702D01*
X47942962Y-115240153D01*
X47870298Y-115247927D01*
X47821099Y-115258161D01*
X47778339Y-115272367D01*
X47746242Y-115288103D01*
X47718444Y-115307241D01*
X47696102Y-115328415D01*
X47677114Y-115352906D01*
X47648059Y-115413496D01*
X47629224Y-115497536D01*
X47622651Y-115573585D01*
X47837634Y-115573585D01*
X47843291Y-115528923D01*
X47853924Y-115493086D01*
X47865525Y-115471839D01*
X47880742Y-115454673D01*
X47919746Y-115432616D01*
X47981028Y-115420961D01*
X48029169Y-115419199D01*
X48086295Y-115421711D01*
X48130829Y-115429913D01*
X48155122Y-115439547D01*
X48174314Y-115452782D01*
X48196997Y-115485851D01*
X48207843Y-115536534D01*
X48208981Y-115566844D01*
X48206426Y-115608202D01*
X48197924Y-115642435D01*
X48170656Y-115688565D01*
X48153513Y-115707821D01*
X48086640Y-115770893D01*
X47997881Y-115846634D01*
X47647857Y-116118955D01*
G37*
G36*
X49130157Y-115498232D02*
G01*
X49229531Y-115511970D01*
X49297856Y-115535676D01*
X49346858Y-115569690D01*
X49366609Y-115592129D01*
X49382800Y-115618101D01*
X49397122Y-115652080D01*
X49407429Y-115691106D01*
X49415171Y-115747916D01*
X49417616Y-115813700D01*
X49417616Y-116396000D01*
X49226081Y-116396000D01*
X49226081Y-116290853D01*
X49212672Y-116290853D01*
X49180627Y-116332263D01*
X49133328Y-116373835D01*
X49105697Y-116388605D01*
X49074893Y-116399146D01*
X49026118Y-116407530D01*
X48967355Y-116410068D01*
X48849365Y-116402948D01*
X48776898Y-116385093D01*
X48727008Y-116357300D01*
X48707385Y-116338558D01*
X48691320Y-116316455D01*
X48677128Y-116287083D01*
X48666907Y-116252877D01*
X48659065Y-116201155D01*
X48656605Y-116140351D01*
X48657354Y-116125330D01*
X48861549Y-116125330D01*
X48865568Y-116168703D01*
X48880802Y-116202138D01*
X48894953Y-116215028D01*
X48913769Y-116224453D01*
X48951715Y-116232846D01*
X49002672Y-116235385D01*
X49025399Y-116234995D01*
X49097630Y-116225753D01*
X49145738Y-116205400D01*
X49164680Y-116190174D01*
X49180394Y-116171273D01*
X49194827Y-116144540D01*
X49205614Y-116112172D01*
X49215097Y-116058156D01*
X49219340Y-115991900D01*
X49053084Y-115993585D01*
X49003880Y-115995513D01*
X48936007Y-116006760D01*
X48896392Y-116026633D01*
X48882260Y-116041296D01*
X48872087Y-116059247D01*
X48864038Y-116088824D01*
X48861549Y-116125330D01*
X48657354Y-116125330D01*
X48660272Y-116066830D01*
X48676125Y-115991228D01*
X48703693Y-115935434D01*
X48722712Y-115912295D01*
X48745458Y-115892216D01*
X48774711Y-115873653D01*
X48808884Y-115858351D01*
X48855590Y-115844300D01*
X48909842Y-115834162D01*
X48991958Y-115826342D01*
X49088328Y-115823885D01*
X49221025Y-115823885D01*
X49221025Y-115813700D01*
X49219949Y-115784475D01*
X49209176Y-115733665D01*
X49186556Y-115700490D01*
X49167497Y-115687251D01*
X49143406Y-115677613D01*
X49100032Y-115669506D01*
X49044658Y-115667008D01*
X49026835Y-115667219D01*
X48958962Y-115674764D01*
X48920991Y-115691495D01*
X48907728Y-115704579D01*
X48898392Y-115721027D01*
X48891294Y-115749858D01*
X48890125Y-115786369D01*
X48685108Y-115786369D01*
X48684618Y-115746831D01*
X48692885Y-115664735D01*
X48713267Y-115606798D01*
X48728201Y-115583555D01*
X48746656Y-115563430D01*
X48770651Y-115545085D01*
X48799175Y-115529964D01*
X48838839Y-115516038D01*
X48885479Y-115505980D01*
X48958238Y-115498090D01*
X49044658Y-115495623D01*
X49130157Y-115498232D01*
G37*
G36*
X50877358Y-115587873D02*
G01*
X50890767Y-115587873D01*
X50915849Y-115556228D01*
X50962929Y-115514776D01*
X50990444Y-115500055D01*
X51021158Y-115489541D01*
X51069466Y-115481225D01*
X51127658Y-115478697D01*
X51146340Y-115478860D01*
X51249838Y-115487798D01*
X51324341Y-115508663D01*
X51380583Y-115541179D01*
X51404190Y-115562889D01*
X51424676Y-115588357D01*
X51443622Y-115620613D01*
X51459227Y-115657794D01*
X51473437Y-115707606D01*
X51483676Y-115764801D01*
X51491429Y-115848690D01*
X51493876Y-115945884D01*
X51493317Y-115994780D01*
X51483148Y-116131572D01*
X51462368Y-116225866D01*
X51432198Y-116293261D01*
X51391526Y-116342892D01*
X51365453Y-116363101D01*
X51335857Y-116379658D01*
X51298049Y-116394204D01*
X51255329Y-116404652D01*
X51195606Y-116412322D01*
X51127658Y-116414757D01*
X51098404Y-116414071D01*
X51027122Y-116403290D01*
X50996344Y-116392009D01*
X50967526Y-116376163D01*
X50929782Y-116346717D01*
X50890767Y-116306900D01*
X50877358Y-116306900D01*
X50877358Y-116396000D01*
X50674026Y-116396000D01*
X50674647Y-115945884D01*
X50873988Y-115945884D01*
X50875916Y-116018077D01*
X50887919Y-116108620D01*
X50908940Y-116165763D01*
X50939745Y-116203494D01*
X50961450Y-116217808D01*
X50986887Y-116228102D01*
X51025235Y-116235931D01*
X51070505Y-116238390D01*
X51113667Y-116236632D01*
X51176435Y-116223943D01*
X51220396Y-116199461D01*
X51238364Y-116181166D01*
X51253168Y-116158748D01*
X51266828Y-116126691D01*
X51276721Y-116088111D01*
X51284758Y-116024047D01*
X51287247Y-115945884D01*
X51284403Y-115863597D01*
X51271082Y-115780330D01*
X51248499Y-115726383D01*
X51233302Y-115706201D01*
X51215118Y-115689737D01*
X51191254Y-115675553D01*
X51163245Y-115665335D01*
X51120768Y-115657521D01*
X51070505Y-115655064D01*
X51043578Y-115655862D01*
X50982613Y-115666704D01*
X50939871Y-115689761D01*
X50922283Y-115707533D01*
X50907759Y-115729585D01*
X50894259Y-115761615D01*
X50884461Y-115800514D01*
X50876469Y-115865724D01*
X50873988Y-115945884D01*
X50674647Y-115945884D01*
X50675711Y-115174614D01*
X50879043Y-115174614D01*
X50877358Y-115587873D01*
G37*
G36*
X51958353Y-115409893D02*
G01*
X52215321Y-115409893D01*
X52215321Y-115173002D01*
X51958353Y-115173002D01*
X51958353Y-115409893D01*
G37*
G36*
X51714720Y-116396000D02*
G01*
X52489214Y-116396000D01*
X52489214Y-116223002D01*
X52208653Y-116223002D01*
X52208653Y-115519070D01*
X51731500Y-115519070D01*
X51731500Y-115692140D01*
X52007006Y-115692140D01*
X52007006Y-116223002D01*
X51714720Y-116223002D01*
X51714720Y-116396000D01*
G37*
G36*
X53120929Y-115505548D02*
G01*
X53177278Y-115522330D01*
X53200450Y-115536231D01*
X53220664Y-115554187D01*
X53243769Y-115584412D01*
X53264441Y-115622971D01*
X53277850Y-115622971D01*
X53277850Y-115519070D01*
X53474441Y-115519070D01*
X53474441Y-116420912D01*
X53470184Y-116509879D01*
X53453962Y-116591929D01*
X53426761Y-116651381D01*
X53408486Y-116675534D01*
X53386773Y-116696435D01*
X53359445Y-116715425D01*
X53327722Y-116731050D01*
X53285125Y-116745219D01*
X53235962Y-116755430D01*
X53162984Y-116763210D01*
X53077962Y-116765661D01*
X52997813Y-116763688D01*
X52889883Y-116750962D01*
X52816703Y-116728391D01*
X52764900Y-116696062D01*
X52744226Y-116674977D01*
X52727162Y-116650570D01*
X52712023Y-116618979D01*
X52700844Y-116582741D01*
X52691937Y-116530316D01*
X52688150Y-116469712D01*
X52894853Y-116469712D01*
X52895620Y-116481735D01*
X52905511Y-116532913D01*
X52926054Y-116564680D01*
X52944133Y-116577412D01*
X52967750Y-116586740D01*
X53015395Y-116595111D01*
X53079647Y-116597646D01*
X53149987Y-116592985D01*
X53202091Y-116577527D01*
X53236997Y-116550493D01*
X53250911Y-116529232D01*
X53261103Y-116503190D01*
X53269683Y-116458931D01*
X53272794Y-116404060D01*
X53274480Y-116276418D01*
X53261071Y-116276418D01*
X53230392Y-116330644D01*
X53193673Y-116366439D01*
X53168417Y-116380047D01*
X53138257Y-116389902D01*
X53085161Y-116398168D01*
X53017438Y-116400689D01*
X53004820Y-116400613D01*
X52901131Y-116392289D01*
X52826256Y-116371904D01*
X52769616Y-116339844D01*
X52745881Y-116318472D01*
X52725212Y-116293346D01*
X52706219Y-116261807D01*
X52690515Y-116225431D01*
X52676396Y-116177560D01*
X52666178Y-116122673D01*
X52658687Y-116045768D01*
X52656277Y-115957242D01*
X52861221Y-115957242D01*
X52862778Y-116016853D01*
X52874297Y-116102073D01*
X52895263Y-116156463D01*
X52926881Y-116193041D01*
X52949730Y-116207178D01*
X52976708Y-116217364D01*
X53018309Y-116225228D01*
X53067850Y-116227692D01*
X53096679Y-116226914D01*
X53161617Y-116216312D01*
X53206151Y-116194085D01*
X53224098Y-116177279D01*
X53238887Y-116156491D01*
X53252472Y-116126699D01*
X53262322Y-116090645D01*
X53270313Y-116030690D01*
X53272794Y-115957242D01*
X53270791Y-115887218D01*
X53258597Y-115800540D01*
X53237164Y-115745197D01*
X53205393Y-115708135D01*
X53182742Y-115693912D01*
X53156130Y-115683672D01*
X53115709Y-115675841D01*
X53067850Y-115673383D01*
X53034643Y-115674466D01*
X52971589Y-115685876D01*
X52927752Y-115709129D01*
X52909893Y-115726724D01*
X52895169Y-115748430D01*
X52881575Y-115779632D01*
X52871722Y-115817348D01*
X52863706Y-115880237D01*
X52861221Y-115957242D01*
X52656277Y-115957242D01*
X52656992Y-115905023D01*
X52667688Y-115775731D01*
X52689106Y-115685602D01*
X52720234Y-115620409D01*
X52762526Y-115571789D01*
X52789890Y-115551780D01*
X52820980Y-115535374D01*
X52860991Y-115520865D01*
X52906260Y-115510441D01*
X52969997Y-115502751D01*
X53042644Y-115500312D01*
X53120929Y-115505548D01*
G37*
G36*
X55092086Y-116410068D02*
G01*
X55187719Y-116407599D01*
X55267882Y-116399700D01*
X55318805Y-116389687D01*
X55361995Y-116375838D01*
X55392807Y-116360909D01*
X55418709Y-116342819D01*
X55438442Y-116323224D01*
X55454478Y-116300642D01*
X55476497Y-116245261D01*
X55486461Y-116167892D01*
X55486880Y-116144600D01*
X55484426Y-116097706D01*
X55476625Y-116056247D01*
X55465881Y-116026157D01*
X55450810Y-115999018D01*
X55409816Y-115955204D01*
X55347526Y-115917553D01*
X55250690Y-115882237D01*
X55164333Y-115860375D01*
X55018202Y-115824258D01*
X54937088Y-115794681D01*
X54918308Y-115781993D01*
X54908235Y-115768725D01*
X54905607Y-115756108D01*
X54908092Y-115731138D01*
X54916113Y-115711020D01*
X54926710Y-115698471D01*
X54941558Y-115688412D01*
X54988855Y-115674450D01*
X55087030Y-115668693D01*
X55152812Y-115671266D01*
X55201072Y-115679898D01*
X55223797Y-115689214D01*
X55240927Y-115701918D01*
X55259207Y-115733216D01*
X55265083Y-115767905D01*
X55466730Y-115767905D01*
X55463828Y-115711546D01*
X55455664Y-115662872D01*
X55445021Y-115629418D01*
X55430346Y-115600293D01*
X55413543Y-115577722D01*
X55393031Y-115558275D01*
X55340494Y-115528311D01*
X55264333Y-115507577D01*
X55149129Y-115496651D01*
X55088715Y-115495623D01*
X54994022Y-115498093D01*
X54914832Y-115506010D01*
X54864833Y-115516008D01*
X54822517Y-115529835D01*
X54792427Y-115544726D01*
X54767202Y-115562770D01*
X54748026Y-115582349D01*
X54732521Y-115604919D01*
X54711438Y-115660537D01*
X54702467Y-115738772D01*
X54702274Y-115754496D01*
X54704723Y-115797894D01*
X54712487Y-115836110D01*
X54723210Y-115863839D01*
X54738239Y-115888723D01*
X54779539Y-115928910D01*
X54843418Y-115963370D01*
X54944950Y-115995520D01*
X55045045Y-116016812D01*
X55141835Y-116037405D01*
X55209819Y-116059020D01*
X55238755Y-116073658D01*
X55259356Y-116090054D01*
X55270659Y-116105196D01*
X55277426Y-116122164D01*
X55280251Y-116146286D01*
X55277770Y-116172562D01*
X55269784Y-116193681D01*
X55259318Y-116206750D01*
X55244696Y-116217195D01*
X55199094Y-116231435D01*
X55111156Y-116237162D01*
X55092086Y-116237071D01*
X55028008Y-116233826D01*
X54978588Y-116225045D01*
X54952268Y-116215226D01*
X54931708Y-116201947D01*
X54918223Y-116187455D01*
X54908340Y-116169919D01*
X54897930Y-116122548D01*
X54897180Y-116105912D01*
X54690551Y-116105912D01*
X54691268Y-116166098D01*
X54697476Y-116218453D01*
X54706783Y-116255022D01*
X54720260Y-116287081D01*
X54735970Y-116311970D01*
X54755403Y-116333635D01*
X54804832Y-116367235D01*
X54875284Y-116391426D01*
X54979217Y-116406306D01*
X55092086Y-116410068D01*
G37*
G36*
X56126039Y-116410068D02*
G01*
X56209133Y-116407611D01*
X56279715Y-116399795D01*
X56326229Y-116389660D01*
X56366188Y-116375617D01*
X56395634Y-116360165D01*
X56420776Y-116341391D01*
X56457237Y-116296481D01*
X56481591Y-116236059D01*
X56495272Y-116150261D01*
X56497313Y-116110968D01*
X56295666Y-116110968D01*
X56284414Y-116151512D01*
X56269284Y-116182778D01*
X56255119Y-116200222D01*
X56237745Y-116213604D01*
X56193556Y-116229226D01*
X56134392Y-116233700D01*
X56080174Y-116231232D01*
X56034601Y-116223336D01*
X56005192Y-116213165D01*
X55980231Y-116199050D01*
X55961519Y-116182880D01*
X55945939Y-116163082D01*
X55923194Y-116110889D01*
X55910115Y-116031225D01*
X55907613Y-115959586D01*
X55910084Y-115884903D01*
X55918003Y-115823295D01*
X55927916Y-115785238D01*
X55941601Y-115753490D01*
X55956537Y-115731026D01*
X55974661Y-115712613D01*
X56019167Y-115687641D01*
X56082706Y-115674281D01*
X56132707Y-115672064D01*
X56178189Y-115674582D01*
X56214462Y-115682833D01*
X56235480Y-115692880D01*
X56252774Y-115706808D01*
X56276658Y-115744722D01*
X56293981Y-115813334D01*
X56497313Y-115813334D01*
X56493501Y-115747128D01*
X56484567Y-115690025D01*
X56473436Y-115650887D01*
X56458380Y-115616855D01*
X56441598Y-115590864D01*
X56421306Y-115568450D01*
X56371337Y-115534575D01*
X56302080Y-115511155D01*
X56201664Y-115497870D01*
X56122669Y-115495623D01*
X56044073Y-115498059D01*
X55975090Y-115505735D01*
X55926018Y-115516145D01*
X55882629Y-115530627D01*
X55849022Y-115546921D01*
X55819408Y-115566773D01*
X55795045Y-115588856D01*
X55773901Y-115614420D01*
X55740458Y-115677190D01*
X55717078Y-115762359D01*
X55704324Y-115882243D01*
X55702669Y-115957901D01*
X55705108Y-116046015D01*
X55712800Y-116122854D01*
X55723134Y-116176695D01*
X55737491Y-116224021D01*
X55753467Y-116260117D01*
X55772894Y-116291743D01*
X55794179Y-116317282D01*
X55818754Y-116339321D01*
X55878014Y-116373420D01*
X55957097Y-116396664D01*
X56067056Y-116408809D01*
X56126039Y-116410068D01*
G37*
G36*
X57186653Y-115498232D02*
G01*
X57286028Y-115511970D01*
X57354353Y-115535676D01*
X57403355Y-115569690D01*
X57423106Y-115592129D01*
X57439296Y-115618101D01*
X57453619Y-115652080D01*
X57463926Y-115691106D01*
X57471667Y-115747916D01*
X57474113Y-115813700D01*
X57474113Y-116396000D01*
X57282578Y-116396000D01*
X57282578Y-116290853D01*
X57269169Y-116290853D01*
X57237124Y-116332263D01*
X57189825Y-116373835D01*
X57162194Y-116388605D01*
X57131390Y-116399146D01*
X57082615Y-116407530D01*
X57023852Y-116410068D01*
X56905862Y-116402948D01*
X56833395Y-116385093D01*
X56783505Y-116357300D01*
X56763881Y-116338558D01*
X56747817Y-116316455D01*
X56733625Y-116287083D01*
X56723404Y-116252877D01*
X56715562Y-116201155D01*
X56713101Y-116140351D01*
X56713850Y-116125330D01*
X56918046Y-116125330D01*
X56922065Y-116168703D01*
X56937299Y-116202138D01*
X56951450Y-116215028D01*
X56970266Y-116224453D01*
X57008212Y-116232846D01*
X57059169Y-116235385D01*
X57081896Y-116234995D01*
X57154127Y-116225753D01*
X57202235Y-116205400D01*
X57221176Y-116190174D01*
X57236891Y-116171273D01*
X57251323Y-116144540D01*
X57262111Y-116112172D01*
X57271594Y-116058156D01*
X57275837Y-115991900D01*
X57109581Y-115993585D01*
X57060377Y-115995513D01*
X56992503Y-116006760D01*
X56952889Y-116026633D01*
X56938757Y-116041296D01*
X56928584Y-116059247D01*
X56920535Y-116088824D01*
X56918046Y-116125330D01*
X56713850Y-116125330D01*
X56716769Y-116066830D01*
X56732622Y-115991228D01*
X56760190Y-115935434D01*
X56779209Y-115912295D01*
X56801955Y-115892216D01*
X56831208Y-115873653D01*
X56865381Y-115858351D01*
X56912087Y-115844300D01*
X56966339Y-115834162D01*
X57048455Y-115826342D01*
X57144825Y-115823885D01*
X57277522Y-115823885D01*
X57277522Y-115813700D01*
X57276446Y-115784475D01*
X57265673Y-115733665D01*
X57243053Y-115700490D01*
X57223994Y-115687251D01*
X57199903Y-115677613D01*
X57156529Y-115669506D01*
X57101154Y-115667008D01*
X57083331Y-115667219D01*
X57015459Y-115674764D01*
X56977488Y-115691495D01*
X56964225Y-115704579D01*
X56954888Y-115721027D01*
X56947791Y-115749858D01*
X56946622Y-115786369D01*
X56741605Y-115786369D01*
X56741115Y-115746831D01*
X56749382Y-115664735D01*
X56769764Y-115606798D01*
X56784698Y-115583555D01*
X56803153Y-115563430D01*
X56827148Y-115545085D01*
X56855671Y-115529964D01*
X56895336Y-115516038D01*
X56941976Y-115505980D01*
X57014735Y-115498090D01*
X57101154Y-115495623D01*
X57186653Y-115498232D01*
G37*
G36*
X57720163Y-116396000D02*
G01*
X57925108Y-116396000D01*
X57925108Y-115939729D01*
X57927582Y-115869616D01*
X57935524Y-115812127D01*
X57945403Y-115777064D01*
X57959035Y-115748001D01*
X57973974Y-115727531D01*
X57992113Y-115710932D01*
X58037449Y-115688741D01*
X58103891Y-115677977D01*
X58135108Y-115677120D01*
X58184548Y-115679615D01*
X58223671Y-115687700D01*
X58245958Y-115697472D01*
X58263764Y-115710934D01*
X58285692Y-115745630D01*
X58296719Y-115800345D01*
X58298066Y-115837074D01*
X58298066Y-116396000D01*
X58503011Y-116396000D01*
X58503011Y-115840445D01*
X58500555Y-115764256D01*
X58492741Y-115699215D01*
X58482551Y-115655946D01*
X58468414Y-115618648D01*
X58452746Y-115590924D01*
X58433683Y-115567213D01*
X58387539Y-115532539D01*
X58324647Y-115509448D01*
X58234550Y-115497137D01*
X58178778Y-115495623D01*
X58125876Y-115498147D01*
X58081146Y-115506439D01*
X58051940Y-115517092D01*
X58025656Y-115532050D01*
X57981101Y-115574085D01*
X57938517Y-115638431D01*
X57925108Y-115638431D01*
X57925108Y-115519070D01*
X57720163Y-115519070D01*
X57720163Y-116396000D01*
G37*
G36*
X58725540Y-116396000D02*
G01*
X59521796Y-116396000D01*
X59521796Y-116221317D01*
X59234567Y-116221317D01*
X59234567Y-115172050D01*
X58742320Y-115172050D01*
X58742320Y-115346806D01*
X59032920Y-115346806D01*
X59032920Y-116221317D01*
X58725540Y-116221317D01*
X58725540Y-116396000D01*
G37*
G36*
X60014849Y-115409893D02*
G01*
X60271817Y-115409893D01*
X60271817Y-115173002D01*
X60014849Y-115173002D01*
X60014849Y-115409893D01*
G37*
G36*
X59771217Y-116396000D02*
G01*
X60545711Y-116396000D01*
X60545711Y-116223002D01*
X60265150Y-116223002D01*
X60265150Y-115519070D01*
X59787997Y-115519070D01*
X59787997Y-115692140D01*
X60063503Y-115692140D01*
X60063503Y-116223002D01*
X59771217Y-116223002D01*
X59771217Y-116396000D01*
G37*
G36*
X61177426Y-115505548D02*
G01*
X61233775Y-115522330D01*
X61256947Y-115536231D01*
X61277161Y-115554187D01*
X61300266Y-115584412D01*
X61320938Y-115622971D01*
X61334347Y-115622971D01*
X61334347Y-115519070D01*
X61530938Y-115519070D01*
X61530938Y-116420912D01*
X61526681Y-116509879D01*
X61510459Y-116591929D01*
X61483258Y-116651381D01*
X61464983Y-116675534D01*
X61443270Y-116696435D01*
X61415942Y-116715425D01*
X61384219Y-116731050D01*
X61341622Y-116745219D01*
X61292458Y-116755430D01*
X61219481Y-116763210D01*
X61134459Y-116765661D01*
X61054310Y-116763688D01*
X60946380Y-116750962D01*
X60873200Y-116728391D01*
X60821397Y-116696062D01*
X60800723Y-116674977D01*
X60783659Y-116650570D01*
X60768520Y-116618979D01*
X60757341Y-116582741D01*
X60748434Y-116530316D01*
X60744647Y-116469712D01*
X60951350Y-116469712D01*
X60952117Y-116481735D01*
X60962008Y-116532913D01*
X60982551Y-116564680D01*
X61000630Y-116577412D01*
X61024247Y-116586740D01*
X61071891Y-116595111D01*
X61136144Y-116597646D01*
X61206484Y-116592985D01*
X61258588Y-116577527D01*
X61293494Y-116550493D01*
X61307407Y-116529232D01*
X61317600Y-116503190D01*
X61326180Y-116458931D01*
X61329291Y-116404060D01*
X61330976Y-116276418D01*
X61317568Y-116276418D01*
X61286888Y-116330644D01*
X61250170Y-116366439D01*
X61224914Y-116380047D01*
X61194754Y-116389902D01*
X61141658Y-116398168D01*
X61073935Y-116400689D01*
X61061316Y-116400613D01*
X60957628Y-116392289D01*
X60882753Y-116371904D01*
X60826113Y-116339844D01*
X60802378Y-116318472D01*
X60781709Y-116293346D01*
X60762716Y-116261807D01*
X60747012Y-116225431D01*
X60732893Y-116177560D01*
X60722675Y-116122673D01*
X60715183Y-116045768D01*
X60712773Y-115957242D01*
X60917718Y-115957242D01*
X60919275Y-116016853D01*
X60930794Y-116102073D01*
X60951760Y-116156463D01*
X60983377Y-116193041D01*
X61006227Y-116207178D01*
X61033205Y-116217364D01*
X61074806Y-116225228D01*
X61124347Y-116227692D01*
X61153176Y-116226914D01*
X61218114Y-116216312D01*
X61262648Y-116194085D01*
X61280595Y-116177279D01*
X61295384Y-116156491D01*
X61308969Y-116126699D01*
X61318819Y-116090645D01*
X61326810Y-116030690D01*
X61329291Y-115957242D01*
X61327288Y-115887218D01*
X61315094Y-115800540D01*
X61293661Y-115745197D01*
X61261889Y-115708135D01*
X61239239Y-115693912D01*
X61212627Y-115683672D01*
X61172206Y-115675841D01*
X61124347Y-115673383D01*
X61091140Y-115674466D01*
X61028086Y-115685876D01*
X60984249Y-115709129D01*
X60966390Y-115726724D01*
X60951666Y-115748430D01*
X60938072Y-115779632D01*
X60928219Y-115817348D01*
X60920203Y-115880237D01*
X60917718Y-115957242D01*
X60712773Y-115957242D01*
X60713489Y-115905023D01*
X60724185Y-115775731D01*
X60745603Y-115685602D01*
X60776730Y-115620409D01*
X60819023Y-115571789D01*
X60846387Y-115551780D01*
X60877477Y-115535374D01*
X60917487Y-115520865D01*
X60962757Y-115510441D01*
X61026494Y-115502751D01*
X61099141Y-115500312D01*
X61177426Y-115505548D01*
G37*
G36*
X61748412Y-116396000D02*
G01*
X61953356Y-116396000D01*
X61953356Y-115938117D01*
X61955845Y-115865137D01*
X61963886Y-115805661D01*
X61973746Y-115770172D01*
X61987353Y-115740848D01*
X62002187Y-115720367D01*
X62020206Y-115703802D01*
X62065180Y-115681788D01*
X62131274Y-115671191D01*
X62161671Y-115670378D01*
X62211700Y-115672883D01*
X62251250Y-115681033D01*
X62273598Y-115690823D01*
X62291474Y-115704318D01*
X62313546Y-115739112D01*
X62324805Y-115794065D01*
X62326315Y-115833704D01*
X62326315Y-116396000D01*
X62531259Y-116396000D01*
X62531259Y-115837074D01*
X62528801Y-115761403D01*
X62520975Y-115696869D01*
X62510787Y-115654068D01*
X62496652Y-115617193D01*
X62480980Y-115589792D01*
X62461907Y-115566370D01*
X62415624Y-115532086D01*
X62352293Y-115509240D01*
X62261128Y-115497087D01*
X62205341Y-115495623D01*
X62152799Y-115498135D01*
X62107827Y-115506338D01*
X62077885Y-115517006D01*
X62050982Y-115531986D01*
X62006655Y-115573319D01*
X61966765Y-115635134D01*
X61953356Y-115635134D01*
X61953356Y-115171390D01*
X61748412Y-115171390D01*
X61748412Y-116396000D01*
G37*
G36*
X63254389Y-116414684D02*
G01*
X63401544Y-116406083D01*
X63521542Y-116392849D01*
X63521542Y-116216408D01*
X63402666Y-116231539D01*
X63311542Y-116236558D01*
X63257544Y-116234059D01*
X63218822Y-116225943D01*
X63200171Y-116216889D01*
X63186529Y-116204611D01*
X63171997Y-116172578D01*
X63167048Y-116108916D01*
X63167048Y-115692140D01*
X63494651Y-115692140D01*
X63494651Y-115519070D01*
X63167048Y-115519070D01*
X63167048Y-115258732D01*
X62972142Y-115341017D01*
X62972142Y-115519070D01*
X62789033Y-115519070D01*
X62748733Y-115692140D01*
X62965474Y-115692140D01*
X62965474Y-116115584D01*
X62968233Y-116191805D01*
X62978164Y-116256791D01*
X62989110Y-116291694D01*
X63004428Y-116322229D01*
X63021279Y-116344688D01*
X63042071Y-116364019D01*
X63094260Y-116392336D01*
X63168646Y-116409723D01*
X63254389Y-116414684D01*
G37*
G36*
X65547390Y-116396000D02*
G01*
X65344131Y-116396000D01*
X65344131Y-116307266D01*
X65330648Y-116307266D01*
X65306518Y-116341787D01*
X65265050Y-116379780D01*
X65238461Y-116393844D01*
X65207640Y-116403970D01*
X65156143Y-116412237D01*
X65092145Y-116414757D01*
X65076307Y-116414641D01*
X64972025Y-116406025D01*
X64897176Y-116385476D01*
X64840806Y-116353329D01*
X64817188Y-116331856D01*
X64796692Y-116306641D01*
X64777755Y-116274717D01*
X64762155Y-116237895D01*
X64747958Y-116188576D01*
X64737725Y-116131918D01*
X64729985Y-116048906D01*
X64727540Y-115952699D01*
X64934242Y-115952699D01*
X64936845Y-116030546D01*
X64949876Y-116113521D01*
X64972237Y-116167233D01*
X64987354Y-116187339D01*
X65005479Y-116203744D01*
X65029348Y-116217902D01*
X65057409Y-116228104D01*
X65100190Y-116235932D01*
X65150910Y-116238390D01*
X65176762Y-116237673D01*
X65238497Y-116227085D01*
X65281536Y-116204393D01*
X65299167Y-116186926D01*
X65313723Y-116165238D01*
X65327227Y-116133778D01*
X65337027Y-116095562D01*
X65345020Y-116031485D01*
X65347501Y-115952699D01*
X65345955Y-115889436D01*
X65334534Y-115799397D01*
X65313951Y-115742712D01*
X65283426Y-115705252D01*
X65261712Y-115690983D01*
X65236180Y-115680718D01*
X65197165Y-115672843D01*
X65150910Y-115670378D01*
X65110097Y-115671867D01*
X65045747Y-115683970D01*
X65001215Y-115707623D01*
X64983176Y-115725263D01*
X64968322Y-115746916D01*
X64954664Y-115777825D01*
X64944773Y-115815061D01*
X64936731Y-115877015D01*
X64934242Y-115952699D01*
X64727540Y-115952699D01*
X64727884Y-115914876D01*
X64737339Y-115778041D01*
X64757562Y-115683951D01*
X64787263Y-115616800D01*
X64827536Y-115567368D01*
X64853453Y-115547222D01*
X64882919Y-115530718D01*
X64920702Y-115516188D01*
X64963455Y-115505753D01*
X65023597Y-115498061D01*
X65092145Y-115495623D01*
X65192750Y-115501360D01*
X65253486Y-115517289D01*
X65276282Y-115529527D01*
X65295415Y-115545069D01*
X65314748Y-115568991D01*
X65330648Y-115598791D01*
X65344131Y-115598791D01*
X65344131Y-115170438D01*
X65547390Y-115170438D01*
X65547390Y-116396000D01*
G37*
G36*
X65884152Y-116396000D02*
G01*
X66085725Y-116396000D01*
X66085725Y-115963690D01*
X66094383Y-115903984D01*
X66121921Y-115836850D01*
X66166691Y-115773460D01*
X66191691Y-115749484D01*
X66217173Y-115732030D01*
X66246999Y-115721450D01*
X66379674Y-115712608D01*
X66500669Y-115714709D01*
X66500669Y-115513062D01*
X66336099Y-115509691D01*
X66250804Y-115512631D01*
X66220946Y-115519614D01*
X66195598Y-115533212D01*
X66171747Y-115555630D01*
X66146381Y-115589073D01*
X66079057Y-115697856D01*
X66060519Y-115697856D01*
X66068946Y-115519070D01*
X65884152Y-115519070D01*
X65884152Y-116396000D01*
G37*
G36*
X67064284Y-115409893D02*
G01*
X67321252Y-115409893D01*
X67321252Y-115173002D01*
X67064284Y-115173002D01*
X67064284Y-115409893D01*
G37*
G36*
X66820652Y-116396000D02*
G01*
X67595146Y-116396000D01*
X67595146Y-116223002D01*
X67314584Y-116223002D01*
X67314584Y-115519070D01*
X66837431Y-115519070D01*
X66837431Y-115692140D01*
X67112937Y-115692140D01*
X67112937Y-116223002D01*
X66820652Y-116223002D01*
X66820652Y-116396000D01*
G37*
G36*
X68081385Y-116396000D02*
G01*
X68279661Y-116396000D01*
X68640823Y-115519070D01*
X68427452Y-115519070D01*
X68187264Y-116149070D01*
X68173782Y-116149070D01*
X67933520Y-115519070D01*
X67720223Y-115519070D01*
X68081385Y-116396000D01*
G37*
G36*
X69269614Y-115498730D02*
G01*
X69363355Y-115514110D01*
X69433000Y-115540891D01*
X69486739Y-115579762D01*
X69509541Y-115605247D01*
X69529147Y-115634646D01*
X69547177Y-115671690D01*
X69561692Y-115713908D01*
X69574401Y-115769868D01*
X69582884Y-115833520D01*
X69587994Y-115925122D01*
X69587435Y-116030221D01*
X68990994Y-116030221D01*
X69002330Y-116111673D01*
X69022499Y-116166295D01*
X69052798Y-116202303D01*
X69075190Y-116216296D01*
X69101960Y-116226382D01*
X69146531Y-116234562D01*
X69200994Y-116237071D01*
X69249096Y-116234494D01*
X69298128Y-116221286D01*
X69317160Y-116209493D01*
X69333081Y-116193756D01*
X69350976Y-116164975D01*
X69365638Y-116127015D01*
X69573953Y-116127015D01*
X69551715Y-116225703D01*
X69522253Y-116292105D01*
X69483103Y-116339948D01*
X69457706Y-116359390D01*
X69428514Y-116375332D01*
X69390095Y-116389549D01*
X69345887Y-116399787D01*
X69279889Y-116407610D01*
X69202679Y-116410068D01*
X69144951Y-116408799D01*
X69036974Y-116396560D01*
X68958940Y-116373107D01*
X68900200Y-116338620D01*
X68875742Y-116316261D01*
X68854554Y-116290355D01*
X68835160Y-116258183D01*
X68819211Y-116221464D01*
X68804850Y-116173217D01*
X68794516Y-116118323D01*
X68786806Y-116039748D01*
X68784364Y-115949621D01*
X68785371Y-115889555D01*
X68787113Y-115870633D01*
X68992679Y-115870633D01*
X69387473Y-115870633D01*
X69381002Y-115791831D01*
X69363074Y-115739315D01*
X69349745Y-115719579D01*
X69333265Y-115703481D01*
X69310743Y-115689379D01*
X69283878Y-115679223D01*
X69240835Y-115671182D01*
X69189270Y-115668693D01*
X69179049Y-115668783D01*
X69107573Y-115676655D01*
X69059560Y-115695866D01*
X69040982Y-115710126D01*
X69025515Y-115727935D01*
X69012090Y-115751779D01*
X69002234Y-115780512D01*
X68995046Y-115821582D01*
X68992679Y-115870633D01*
X68787113Y-115870633D01*
X68796798Y-115765464D01*
X68818930Y-115678298D01*
X68850978Y-115614698D01*
X68871268Y-115588996D01*
X68894716Y-115566819D01*
X68923202Y-115546960D01*
X68955586Y-115530670D01*
X68997511Y-115516187D01*
X69045002Y-115505782D01*
X69112357Y-115498065D01*
X69189270Y-115495623D01*
X69269614Y-115498730D01*
G37*
G36*
X69912400Y-116396000D02*
G01*
X70113974Y-116396000D01*
X70113974Y-115963690D01*
X70122631Y-115903984D01*
X70150170Y-115836850D01*
X70194939Y-115773460D01*
X70219939Y-115749484D01*
X70245421Y-115732030D01*
X70275247Y-115721450D01*
X70407922Y-115712608D01*
X70528918Y-115714709D01*
X70528918Y-115513062D01*
X70364347Y-115509691D01*
X70279053Y-115512631D01*
X70249195Y-115519614D01*
X70223846Y-115533212D01*
X70199995Y-115555630D01*
X70174630Y-115589073D01*
X70107306Y-115697856D01*
X70088768Y-115697856D01*
X70097194Y-115519070D01*
X69912400Y-115519070D01*
X69912400Y-116396000D01*
G37*
G36*
X60712547Y-114318955D02*
G01*
X60712547Y-114596000D01*
X61498764Y-114596000D01*
X61498764Y-114407908D01*
X60929214Y-114407908D01*
X60929214Y-114392741D01*
X61090664Y-114277090D01*
X61213005Y-114181157D01*
X61358376Y-114048048D01*
X61362697Y-114043742D01*
X61406558Y-113996340D01*
X61439120Y-113952038D01*
X61456938Y-113919092D01*
X61469725Y-113885028D01*
X61482327Y-113810870D01*
X61483597Y-113770214D01*
X61481150Y-113702691D01*
X61473400Y-113644195D01*
X61463064Y-113603840D01*
X61448693Y-113568584D01*
X61432462Y-113541566D01*
X61412656Y-113518118D01*
X61363767Y-113482413D01*
X61296187Y-113457147D01*
X61198981Y-113441718D01*
X61092173Y-113437702D01*
X61007651Y-113440153D01*
X60934987Y-113447927D01*
X60885788Y-113458161D01*
X60843029Y-113472367D01*
X60810931Y-113488103D01*
X60783133Y-113507241D01*
X60760791Y-113528415D01*
X60741803Y-113552906D01*
X60712748Y-113613496D01*
X60693914Y-113697536D01*
X60687341Y-113773585D01*
X60902323Y-113773585D01*
X60907980Y-113728923D01*
X60918614Y-113693086D01*
X60930215Y-113671839D01*
X60945431Y-113654673D01*
X60984435Y-113632616D01*
X61045718Y-113620961D01*
X61093859Y-113619199D01*
X61150984Y-113621711D01*
X61195519Y-113629913D01*
X61219811Y-113639547D01*
X61239004Y-113652782D01*
X61261686Y-113685851D01*
X61272532Y-113736534D01*
X61273670Y-113766844D01*
X61271116Y-113808202D01*
X61262614Y-113842435D01*
X61235345Y-113888565D01*
X61218203Y-113907821D01*
X61151330Y-113970893D01*
X61062571Y-114046634D01*
X60712547Y-114318955D01*
G37*
G36*
X62205118Y-113435896D02*
G01*
X62297588Y-113448834D01*
X62360664Y-113471917D01*
X62386273Y-113488184D01*
X62408706Y-113508051D01*
X62430771Y-113535219D01*
X62449927Y-113567803D01*
X62473434Y-113624542D01*
X62494030Y-113694450D01*
X62500882Y-113722153D01*
X62521176Y-113847156D01*
X62527153Y-113930026D01*
X62529347Y-114032238D01*
X62529300Y-114048079D01*
X62521407Y-114203516D01*
X62511135Y-114274874D01*
X62495715Y-114346359D01*
X62479510Y-114403294D01*
X62446665Y-114482541D01*
X62408865Y-114535048D01*
X62385830Y-114555356D01*
X62359727Y-114571823D01*
X62324976Y-114586629D01*
X62284958Y-114597283D01*
X62205670Y-114607297D01*
X62107662Y-114610068D01*
X61991621Y-114605895D01*
X61907987Y-114591652D01*
X61849046Y-114566930D01*
X61824478Y-114549417D01*
X61802685Y-114527958D01*
X61781222Y-114498846D01*
X61762393Y-114463826D01*
X61741339Y-114409269D01*
X61728094Y-114361453D01*
X61943018Y-114361453D01*
X61944637Y-114365958D01*
X61964641Y-114399232D01*
X61980768Y-114411787D01*
X62001918Y-114421010D01*
X62046661Y-114429467D01*
X62109347Y-114432015D01*
X62119743Y-114431963D01*
X62204322Y-114424278D01*
X62232208Y-114414726D01*
X62252766Y-114400681D01*
X62267702Y-114381628D01*
X62278720Y-114357054D01*
X62295826Y-114289279D01*
X62312125Y-114181920D01*
X62319347Y-114017144D01*
X62314291Y-113891115D01*
X61943018Y-114361453D01*
X61728094Y-114361453D01*
X61722979Y-114342988D01*
X61717828Y-114320064D01*
X61698778Y-114194120D01*
X61691107Y-114022200D01*
X61901032Y-114022200D01*
X61903340Y-114116017D01*
X61909385Y-114188456D01*
X62287400Y-113709691D01*
X62279108Y-113683027D01*
X62257353Y-113646791D01*
X62240785Y-113633320D01*
X62219868Y-113623495D01*
X62172753Y-113613920D01*
X62107662Y-113611212D01*
X62069842Y-113611995D01*
X62007144Y-113620710D01*
X61970618Y-113639512D01*
X61954835Y-113657926D01*
X61942839Y-113682298D01*
X61924553Y-113751750D01*
X61923901Y-113755254D01*
X61908360Y-113860554D01*
X61901032Y-114022200D01*
X61691107Y-114022200D01*
X61691032Y-114020515D01*
X61697438Y-113863843D01*
X61710013Y-113768954D01*
X61726277Y-113696136D01*
X61745713Y-113629636D01*
X61778291Y-113554630D01*
X61816242Y-113504620D01*
X61839759Y-113485086D01*
X61866672Y-113469193D01*
X61902780Y-113454899D01*
X61944769Y-113444626D01*
X62019498Y-113435765D01*
X62111032Y-113433159D01*
X62205118Y-113435896D01*
G37*
G36*
X62726671Y-114318955D02*
G01*
X62726671Y-114596000D01*
X63512889Y-114596000D01*
X63512889Y-114407908D01*
X62943339Y-114407908D01*
X62943339Y-114392741D01*
X63104788Y-114277090D01*
X63227129Y-114181157D01*
X63372501Y-114048048D01*
X63376821Y-114043742D01*
X63420682Y-113996340D01*
X63453244Y-113952038D01*
X63471063Y-113919092D01*
X63483849Y-113885028D01*
X63496451Y-113810870D01*
X63497721Y-113770214D01*
X63495274Y-113702691D01*
X63487524Y-113644195D01*
X63477189Y-113603840D01*
X63462817Y-113568584D01*
X63446586Y-113541566D01*
X63426781Y-113518118D01*
X63377891Y-113482413D01*
X63310311Y-113457147D01*
X63213105Y-113441718D01*
X63106297Y-113437702D01*
X63021775Y-113440153D01*
X62949112Y-113447927D01*
X62899912Y-113458161D01*
X62857153Y-113472367D01*
X62825056Y-113488103D01*
X62797257Y-113507241D01*
X62774915Y-113528415D01*
X62755928Y-113552906D01*
X62726873Y-113613496D01*
X62708038Y-113697536D01*
X62701465Y-113773585D01*
X62916448Y-113773585D01*
X62922105Y-113728923D01*
X62932738Y-113693086D01*
X62944339Y-113671839D01*
X62959556Y-113654673D01*
X62998560Y-113632616D01*
X63059842Y-113620961D01*
X63107983Y-113619199D01*
X63165109Y-113621711D01*
X63209643Y-113629913D01*
X63233936Y-113639547D01*
X63253128Y-113652782D01*
X63275810Y-113685851D01*
X63286656Y-113736534D01*
X63287794Y-113766844D01*
X63285240Y-113808202D01*
X63276738Y-113842435D01*
X63249469Y-113888565D01*
X63232327Y-113907821D01*
X63165454Y-113970893D01*
X63076695Y-114046634D01*
X62726671Y-114318955D01*
G37*
G36*
X64054595Y-114610068D02*
G01*
X64136874Y-114607661D01*
X64209633Y-114600191D01*
X64263420Y-114589797D01*
X64311078Y-114575390D01*
X64348267Y-114559151D01*
X64381018Y-114539461D01*
X64407679Y-114517881D01*
X64430761Y-114493054D01*
X64466378Y-114433934D01*
X64490329Y-114356895D01*
X64502263Y-114253292D01*
X64503171Y-114209412D01*
X64500762Y-114145987D01*
X64493274Y-114089873D01*
X64482802Y-114048166D01*
X64468261Y-114011056D01*
X64451447Y-113981297D01*
X64430962Y-113954904D01*
X64380120Y-113912625D01*
X64310656Y-113879969D01*
X64213076Y-113855586D01*
X64157030Y-113847517D01*
X64068425Y-113841408D01*
X63977292Y-113844147D01*
X63994071Y-113633267D01*
X64454445Y-113629897D01*
X64454445Y-113451771D01*
X63807592Y-113451771D01*
X63757254Y-114050923D01*
X63898802Y-114032714D01*
X64008234Y-114024736D01*
X64133510Y-114029014D01*
X64178525Y-114035915D01*
X64215289Y-114047267D01*
X64238677Y-114059660D01*
X64257610Y-114075450D01*
X64281634Y-114114204D01*
X64293534Y-114170781D01*
X64294856Y-114204356D01*
X64292431Y-114257112D01*
X64284828Y-114301831D01*
X64274711Y-114332083D01*
X64260733Y-114357737D01*
X64244745Y-114376992D01*
X64225286Y-114392920D01*
X64175049Y-114415527D01*
X64100751Y-114427351D01*
X64057965Y-114428644D01*
X64005794Y-114426180D01*
X63954078Y-114418309D01*
X63852909Y-114387572D01*
X63728677Y-114330825D01*
X63728677Y-114541191D01*
X63791855Y-114568054D01*
X63852938Y-114587695D01*
X63960269Y-114606231D01*
X64054595Y-114610068D01*
G37*
G36*
X64813042Y-114188016D02*
G01*
X65451395Y-114188016D01*
X65451395Y-114003222D01*
X64813042Y-114003222D01*
X64813042Y-114188016D01*
G37*
G36*
X66140966Y-114596000D02*
G01*
X66349281Y-114596000D01*
X66349281Y-113451771D01*
X66140966Y-113451771D01*
X65779731Y-113705002D01*
X65779731Y-113927385D01*
X66082128Y-113740392D01*
X66147634Y-113686610D01*
X66140966Y-113790951D01*
X66140966Y-114596000D01*
G37*
G36*
X67148028Y-114596000D02*
G01*
X67356343Y-114596000D01*
X67356343Y-113451771D01*
X67148028Y-113451771D01*
X66786793Y-113705002D01*
X66786793Y-113927385D01*
X67089190Y-113740392D01*
X67154696Y-113686610D01*
X67148028Y-113790951D01*
X67148028Y-114596000D01*
G37*
G36*
X67834228Y-114188016D02*
G01*
X68472581Y-114188016D01*
X68472581Y-114003222D01*
X67834228Y-114003222D01*
X67834228Y-114188016D01*
G37*
G36*
X69254553Y-113435896D02*
G01*
X69347022Y-113448834D01*
X69410098Y-113471917D01*
X69435707Y-113488184D01*
X69458141Y-113508051D01*
X69480205Y-113535219D01*
X69499361Y-113567803D01*
X69522868Y-113624542D01*
X69543464Y-113694450D01*
X69550316Y-113722153D01*
X69570611Y-113847156D01*
X69576588Y-113930026D01*
X69578782Y-114032238D01*
X69578734Y-114048079D01*
X69570842Y-114203516D01*
X69560570Y-114274874D01*
X69545150Y-114346359D01*
X69528945Y-114403294D01*
X69496100Y-114482541D01*
X69458300Y-114535048D01*
X69435265Y-114555356D01*
X69409162Y-114571823D01*
X69374411Y-114586629D01*
X69334393Y-114597283D01*
X69255105Y-114607297D01*
X69157096Y-114610068D01*
X69041055Y-114605895D01*
X68957422Y-114591652D01*
X68898481Y-114566930D01*
X68873913Y-114549417D01*
X68852120Y-114527958D01*
X68830657Y-114498846D01*
X68811828Y-114463826D01*
X68790774Y-114409269D01*
X68777529Y-114361453D01*
X68992452Y-114361453D01*
X68994072Y-114365958D01*
X69014076Y-114399232D01*
X69030202Y-114411787D01*
X69051353Y-114421010D01*
X69096096Y-114429467D01*
X69158782Y-114432015D01*
X69169177Y-114431963D01*
X69253757Y-114424278D01*
X69281643Y-114414726D01*
X69302201Y-114400681D01*
X69317136Y-114381628D01*
X69328154Y-114357054D01*
X69345261Y-114289279D01*
X69361560Y-114181920D01*
X69368782Y-114017144D01*
X69363726Y-113891115D01*
X68992452Y-114361453D01*
X68777529Y-114361453D01*
X68772414Y-114342988D01*
X68767262Y-114320064D01*
X68748212Y-114194120D01*
X68740542Y-114022200D01*
X68950467Y-114022200D01*
X68952775Y-114116017D01*
X68958820Y-114188456D01*
X69336835Y-113709691D01*
X69328543Y-113683027D01*
X69306787Y-113646791D01*
X69290220Y-113633320D01*
X69269303Y-113623495D01*
X69222188Y-113613920D01*
X69157096Y-113611212D01*
X69119277Y-113611995D01*
X69056579Y-113620710D01*
X69020053Y-113639512D01*
X69004270Y-113657926D01*
X68992274Y-113682298D01*
X68973988Y-113751750D01*
X68973336Y-113755254D01*
X68957795Y-113860554D01*
X68950467Y-114022200D01*
X68740542Y-114022200D01*
X68740467Y-114020515D01*
X68746873Y-113863843D01*
X68759448Y-113768954D01*
X68775711Y-113696136D01*
X68795147Y-113629636D01*
X68827726Y-113554630D01*
X68865677Y-113504620D01*
X68889194Y-113485086D01*
X68916106Y-113469193D01*
X68952215Y-113454899D01*
X68994203Y-113444626D01*
X69068933Y-113435765D01*
X69160467Y-113433159D01*
X69254553Y-113435896D01*
G37*
G36*
X70228936Y-113438503D02*
G01*
X70349931Y-113447988D01*
X70425335Y-113466531D01*
X70475701Y-113493981D01*
X70495288Y-113512358D01*
X70511230Y-113534027D01*
X70525561Y-113563617D01*
X70535850Y-113598319D01*
X70544570Y-113658743D01*
X70547156Y-113731893D01*
X70546972Y-113749789D01*
X70539359Y-113824060D01*
X70519936Y-113874333D01*
X70502964Y-113897114D01*
X70480705Y-113917739D01*
X70430889Y-113949234D01*
X70362362Y-113980874D01*
X70362362Y-113994283D01*
X70424120Y-114025263D01*
X70496590Y-114071739D01*
X70539315Y-114116110D01*
X70554597Y-114142432D01*
X70565470Y-114171642D01*
X70574752Y-114222293D01*
X70577418Y-114283637D01*
X70575383Y-114355262D01*
X70563114Y-114443044D01*
X70540746Y-114502546D01*
X70506532Y-114545981D01*
X70482228Y-114564219D01*
X70453393Y-114579179D01*
X70412200Y-114593212D01*
X70363391Y-114603329D01*
X70274766Y-114612156D01*
X70165844Y-114614757D01*
X70056143Y-114612054D01*
X69947875Y-114599335D01*
X69877448Y-114577677D01*
X69828718Y-114546549D01*
X69809284Y-114525715D01*
X69793442Y-114501363D01*
X69779083Y-114468105D01*
X69768780Y-114429339D01*
X69760141Y-114363138D01*
X69757786Y-114290378D01*
X69964270Y-114290378D01*
X69964912Y-114316155D01*
X69973825Y-114368788D01*
X69993773Y-114401443D01*
X70011553Y-114414592D01*
X70034699Y-114424237D01*
X70089648Y-114433974D01*
X70165844Y-114436704D01*
X70224549Y-114435327D01*
X70294983Y-114425652D01*
X70334428Y-114407581D01*
X70348576Y-114393602D01*
X70358788Y-114376110D01*
X70368116Y-114340419D01*
X70370788Y-114293749D01*
X70370661Y-114281656D01*
X70363173Y-114218938D01*
X70342828Y-114174576D01*
X70324094Y-114153484D01*
X70299159Y-114134189D01*
X70242097Y-114104088D01*
X70162473Y-114073344D01*
X70124589Y-114086301D01*
X70045960Y-114120744D01*
X70002380Y-114153926D01*
X69987231Y-114173964D01*
X69976422Y-114196752D01*
X69966962Y-114238465D01*
X69964270Y-114290378D01*
X69757786Y-114290378D01*
X69757568Y-114283637D01*
X69758820Y-114238639D01*
X69769898Y-114168116D01*
X69793985Y-114115795D01*
X69814549Y-114090570D01*
X69841036Y-114067059D01*
X69896533Y-114031300D01*
X69970938Y-113994283D01*
X69970938Y-113980874D01*
X69942916Y-113968159D01*
X69866905Y-113926098D01*
X69824091Y-113887203D01*
X69809011Y-113864069D01*
X69798246Y-113838017D01*
X69788829Y-113790703D01*
X69786144Y-113731893D01*
X69992773Y-113731893D01*
X69995269Y-113774140D01*
X70008626Y-113817125D01*
X70021960Y-113835612D01*
X70040529Y-113851869D01*
X70089669Y-113877941D01*
X70162473Y-113903424D01*
X70253569Y-113871784D01*
X70301657Y-113843435D01*
X70317191Y-113827381D01*
X70328232Y-113809129D01*
X70337817Y-113775655D01*
X70340526Y-113733578D01*
X70336260Y-113683105D01*
X70321555Y-113649633D01*
X70307663Y-113636685D01*
X70288901Y-113627127D01*
X70239431Y-113616939D01*
X70167529Y-113614143D01*
X70071367Y-113620106D01*
X70029371Y-113634263D01*
X70015185Y-113645473D01*
X70004941Y-113659883D01*
X69995467Y-113690601D01*
X69992773Y-113731893D01*
X69786144Y-113731893D01*
X69786455Y-113704187D01*
X69794911Y-113610623D01*
X69813673Y-113549543D01*
X69843758Y-113506090D01*
X69865475Y-113488057D01*
X69891572Y-113473257D01*
X69929340Y-113459342D01*
X69974552Y-113449289D01*
X70059692Y-113440323D01*
X70165844Y-113437702D01*
X70228936Y-113438503D01*
G37*
D11*
X93750000Y-114750000D02*
X92650000Y-114150000D01*
X93750000Y-113550000D01*
X93750000Y-114750000D01*
G36*
X93750000Y-114750000D02*
G01*
X92650000Y-114150000D01*
X93750000Y-113550000D01*
X93750000Y-114750000D01*
G37*
D10*
G36*
X46545956Y-114610068D02*
G01*
X46629997Y-114607612D01*
X46702218Y-114599800D01*
X46750884Y-114589552D01*
X46793212Y-114575317D01*
X46825019Y-114559537D01*
X46852607Y-114540328D01*
X46874868Y-114519012D01*
X46893837Y-114494328D01*
X46923115Y-114432971D01*
X46942486Y-114347390D01*
X46949176Y-114277849D01*
X46739176Y-114277849D01*
X46729438Y-114322767D01*
X46715475Y-114358367D01*
X46701853Y-114379121D01*
X46684899Y-114395643D01*
X46642811Y-114416356D01*
X46577586Y-114426199D01*
X46545956Y-114426959D01*
X46499027Y-114424517D01*
X46458247Y-114416806D01*
X46429570Y-114406337D01*
X46404493Y-114391749D01*
X46384526Y-114374509D01*
X46367286Y-114353320D01*
X46339972Y-114296813D01*
X46320889Y-114211566D01*
X46311310Y-114078058D01*
X46310750Y-114026450D01*
X46313224Y-113922511D01*
X46321164Y-113836514D01*
X46331060Y-113783441D01*
X46344719Y-113738963D01*
X46359256Y-113707972D01*
X46376831Y-113682273D01*
X46395645Y-113663191D01*
X46417276Y-113647986D01*
X46469970Y-113628126D01*
X46545956Y-113620884D01*
X46593328Y-113623379D01*
X46631923Y-113631463D01*
X46655473Y-113641583D01*
X46675219Y-113655628D01*
X46703254Y-113693341D01*
X46723892Y-113754396D01*
X46729064Y-113780033D01*
X46939064Y-113780033D01*
X46933930Y-113709663D01*
X46923832Y-113648796D01*
X46911868Y-113606934D01*
X46896048Y-113570427D01*
X46878697Y-113542538D01*
X46857892Y-113518391D01*
X46807596Y-113481916D01*
X46739463Y-113456462D01*
X46642989Y-113441283D01*
X46545956Y-113437702D01*
X46470628Y-113440129D01*
X46403475Y-113447738D01*
X46353863Y-113458292D01*
X46309363Y-113473003D01*
X46273945Y-113489784D01*
X46242242Y-113510261D01*
X46215561Y-113533184D01*
X46191937Y-113559746D01*
X46153206Y-113624768D01*
X46123931Y-113711863D01*
X46104203Y-113831692D01*
X46095796Y-114002016D01*
X46095694Y-114026450D01*
X46098134Y-114137048D01*
X46105833Y-114233963D01*
X46116194Y-114302291D01*
X46130599Y-114362653D01*
X46146508Y-114408631D01*
X46165839Y-114449191D01*
X46186543Y-114481570D01*
X46210375Y-114509847D01*
X46265489Y-114553344D01*
X46335144Y-114584089D01*
X46426420Y-114603373D01*
X46545956Y-114610068D01*
G37*
G36*
X47168335Y-114596000D02*
G01*
X47910882Y-114596000D01*
X47910882Y-114411205D01*
X47383318Y-114411205D01*
X47383318Y-114094227D01*
X47810059Y-114094227D01*
X47810059Y-113909433D01*
X47383318Y-113909433D01*
X47383318Y-113636638D01*
X47877250Y-113636638D01*
X47877250Y-113451771D01*
X47168335Y-113451771D01*
X47168335Y-114596000D01*
G37*
G36*
X48601769Y-113453762D02*
G01*
X48704499Y-113473289D01*
X48777139Y-113502080D01*
X48829721Y-113540456D01*
X48850743Y-113564549D01*
X48867974Y-113591769D01*
X48882917Y-113625797D01*
X48893721Y-113663980D01*
X48901665Y-113715962D01*
X48904462Y-113774538D01*
X48898061Y-113874847D01*
X48880472Y-113933828D01*
X48850978Y-113975626D01*
X48828786Y-113993202D01*
X48802004Y-114007386D01*
X48759501Y-114021492D01*
X48707944Y-114031359D01*
X48707944Y-114046453D01*
X48749437Y-114056226D01*
X48794449Y-114080014D01*
X48814279Y-114099373D01*
X48831426Y-114123951D01*
X48854037Y-114173222D01*
X48874274Y-114238428D01*
X48969968Y-114596000D01*
X48739818Y-114596000D01*
X48660903Y-114253595D01*
X48640500Y-114195626D01*
X48611732Y-114161178D01*
X48589769Y-114147675D01*
X48562839Y-114137882D01*
X48514351Y-114129579D01*
X48452588Y-114127053D01*
X48345024Y-114127053D01*
X48345024Y-114596000D01*
X48131653Y-114596000D01*
X48131653Y-113633561D01*
X48345024Y-113633561D01*
X48345024Y-113940647D01*
X48561765Y-113940647D01*
X48574578Y-113940413D01*
X48626111Y-113931922D01*
X48659250Y-113911440D01*
X48672443Y-113893664D01*
X48682050Y-113870937D01*
X48690264Y-113828814D01*
X48692777Y-113774538D01*
X48687215Y-113715356D01*
X48670672Y-113678146D01*
X48656373Y-113663765D01*
X48637779Y-113652792D01*
X48603341Y-113642355D01*
X48558394Y-113636931D01*
X48432832Y-113631509D01*
X48345024Y-113633561D01*
X48131653Y-113633561D01*
X48131653Y-113451771D01*
X48331615Y-113447081D01*
X48452368Y-113445353D01*
X48601769Y-113453762D01*
G37*
G36*
X49095045Y-114596000D02*
G01*
X49301674Y-114596000D01*
X49301674Y-113938962D01*
X49278154Y-113700312D01*
X49283210Y-113700312D01*
X49693171Y-114596000D01*
X49955195Y-114596000D01*
X49955195Y-113451771D01*
X49748565Y-113451771D01*
X49748565Y-114110347D01*
X49772086Y-114349070D01*
X49767030Y-114349070D01*
X49357142Y-113451771D01*
X49095045Y-113451771D01*
X49095045Y-114596000D01*
G37*
G36*
X50213042Y-114188016D02*
G01*
X50851395Y-114188016D01*
X50851395Y-114003222D01*
X50213042Y-114003222D01*
X50213042Y-114188016D01*
G37*
G36*
X51654850Y-113444131D02*
G01*
X51745091Y-113463176D01*
X51813993Y-113493752D01*
X51842854Y-113513741D01*
X51868607Y-113537231D01*
X51892276Y-113565615D01*
X51912845Y-113598168D01*
X51932090Y-113639086D01*
X51947934Y-113685543D01*
X51962310Y-113746747D01*
X51972652Y-113816143D01*
X51980360Y-113915045D01*
X51982801Y-114028135D01*
X51975089Y-114214074D01*
X51955978Y-114335135D01*
X51927295Y-114422792D01*
X51889205Y-114488020D01*
X51865954Y-114514603D01*
X51839661Y-114537538D01*
X51808414Y-114558003D01*
X51773474Y-114574773D01*
X51729530Y-114589476D01*
X51680499Y-114600024D01*
X51613972Y-114607640D01*
X51539281Y-114610068D01*
X51425566Y-114603951D01*
X51334378Y-114585221D01*
X51264958Y-114555014D01*
X51210091Y-114512054D01*
X51186367Y-114484039D01*
X51165752Y-114451903D01*
X51146490Y-114411551D01*
X51130633Y-114365736D01*
X51116254Y-114305409D01*
X51105909Y-114237011D01*
X51098201Y-114139558D01*
X51095760Y-114028135D01*
X51307445Y-114028135D01*
X51307860Y-114072681D01*
X51317008Y-114208280D01*
X51335741Y-114294515D01*
X51362677Y-114351436D01*
X51379674Y-114372704D01*
X51399372Y-114389994D01*
X51424107Y-114404608D01*
X51452396Y-114415088D01*
X51492785Y-114422828D01*
X51539281Y-114425274D01*
X51609886Y-114419005D01*
X51662938Y-114400091D01*
X51684582Y-114385446D01*
X51703396Y-114366969D01*
X51720933Y-114342029D01*
X51735435Y-114311870D01*
X51749080Y-114268403D01*
X51758966Y-114216424D01*
X51766950Y-114131315D01*
X51769431Y-114028135D01*
X51768948Y-113978528D01*
X51759669Y-113840874D01*
X51740957Y-113753769D01*
X51714172Y-113696507D01*
X51697317Y-113675184D01*
X51677786Y-113657854D01*
X51653303Y-113643237D01*
X51625299Y-113632755D01*
X51585321Y-113625015D01*
X51539281Y-113622570D01*
X51465934Y-113629521D01*
X51413605Y-113649188D01*
X51392084Y-113664339D01*
X51373352Y-113683396D01*
X51355830Y-113709125D01*
X51341327Y-113740197D01*
X51327698Y-113784823D01*
X51317817Y-113838124D01*
X51309914Y-113924152D01*
X51307445Y-114028135D01*
X51095760Y-114028135D01*
X51095824Y-114008549D01*
X51103893Y-113835082D01*
X51123300Y-113713523D01*
X51152211Y-113625490D01*
X51190465Y-113560005D01*
X51213765Y-113533337D01*
X51240087Y-113510332D01*
X51271319Y-113489823D01*
X51306214Y-113473020D01*
X51350032Y-113458302D01*
X51398884Y-113447744D01*
X51465052Y-113440130D01*
X51539281Y-113437702D01*
X51654850Y-113444131D01*
G37*
G36*
X52138066Y-114596000D02*
G01*
X52353122Y-114596000D01*
X52353122Y-114096498D01*
X52739563Y-114096498D01*
X52739563Y-114596000D01*
X52954546Y-114596000D01*
X52954546Y-113451771D01*
X52739563Y-113451771D01*
X52739563Y-113906648D01*
X52353122Y-113906648D01*
X52353122Y-113451771D01*
X52138066Y-113451771D01*
X52138066Y-114596000D01*
G37*
G36*
X53187187Y-114596000D02*
G01*
X53980073Y-114596000D01*
X53980073Y-114407908D01*
X53402170Y-114407908D01*
X53402170Y-113451771D01*
X53187187Y-113451771D01*
X53187187Y-114596000D01*
G37*
G36*
X54241290Y-114188016D02*
G01*
X54879644Y-114188016D01*
X54879644Y-114003222D01*
X54241290Y-114003222D01*
X54241290Y-114188016D01*
G37*
G36*
X55211350Y-114596000D02*
G01*
X55433147Y-114596000D01*
X55564159Y-113599635D01*
X55570900Y-113599635D01*
X55700226Y-114596000D01*
X55923709Y-114596000D01*
X56059776Y-113451771D01*
X55874982Y-113451771D01*
X55807718Y-114352441D01*
X55806106Y-114352441D01*
X55792623Y-114143613D01*
X55688503Y-113451771D01*
X55446556Y-113451771D01*
X55339064Y-114143613D01*
X55327267Y-114352441D01*
X55325582Y-114352441D01*
X55260076Y-113451771D01*
X55075282Y-113451771D01*
X55211350Y-114596000D01*
G37*
G36*
X57448956Y-114596000D02*
G01*
X57712665Y-114596000D01*
X58052065Y-113451771D01*
X57842065Y-113451771D01*
X57585024Y-114344014D01*
X57576598Y-114344014D01*
X57319556Y-113451771D01*
X57109556Y-113451771D01*
X57448956Y-114596000D01*
G37*
G36*
X58197292Y-114318955D02*
G01*
X58197292Y-114596000D01*
X58983510Y-114596000D01*
X58983510Y-114407908D01*
X58413960Y-114407908D01*
X58413960Y-114392741D01*
X58575409Y-114277090D01*
X58697750Y-114181157D01*
X58843122Y-114048048D01*
X58847442Y-114043742D01*
X58891303Y-113996340D01*
X58923865Y-113952038D01*
X58941684Y-113919092D01*
X58954470Y-113885028D01*
X58967072Y-113810870D01*
X58968342Y-113770214D01*
X58965895Y-113702691D01*
X58958145Y-113644195D01*
X58947810Y-113603840D01*
X58933438Y-113568584D01*
X58917207Y-113541566D01*
X58897402Y-113518118D01*
X58848512Y-113482413D01*
X58780933Y-113457147D01*
X58683726Y-113441718D01*
X58576919Y-113437702D01*
X58492396Y-113440153D01*
X58419733Y-113447927D01*
X58370533Y-113458161D01*
X58327774Y-113472367D01*
X58295677Y-113488103D01*
X58267878Y-113507241D01*
X58245536Y-113528415D01*
X58226549Y-113552906D01*
X58197494Y-113613496D01*
X58178659Y-113697536D01*
X58172086Y-113773585D01*
X58387069Y-113773585D01*
X58392726Y-113728923D01*
X58403359Y-113693086D01*
X58414960Y-113671839D01*
X58430177Y-113654673D01*
X58469181Y-113632616D01*
X58530463Y-113620961D01*
X58578604Y-113619199D01*
X58635730Y-113621711D01*
X58680264Y-113629913D01*
X58704557Y-113639547D01*
X58723749Y-113652782D01*
X58746431Y-113685851D01*
X58757277Y-113736534D01*
X58758415Y-113766844D01*
X58755861Y-113808202D01*
X58747359Y-113842435D01*
X58720090Y-113888565D01*
X58702948Y-113907821D01*
X58636075Y-113970893D01*
X58547316Y-114046634D01*
X58197292Y-114318955D01*
G37*
D12*
G36*
X49797515Y-90811338D02*
G01*
X45793383Y-90811338D01*
X45793383Y-89656991D01*
X46237827Y-89656991D01*
X46239211Y-89795446D01*
X46257903Y-89916640D01*
X46288116Y-90006975D01*
X46331993Y-90085868D01*
X46452491Y-90204514D01*
X46632296Y-90290410D01*
X46902933Y-90346773D01*
X47296058Y-90366894D01*
X47564605Y-90358719D01*
X47799311Y-90332760D01*
X47963762Y-90297950D01*
X48109887Y-90249423D01*
X48224677Y-90194362D01*
X48327230Y-90127035D01*
X48492301Y-89961947D01*
X48625912Y-89737881D01*
X48738936Y-89422537D01*
X48795953Y-89185003D01*
X49353071Y-86505903D01*
X48657711Y-86505903D01*
X48105234Y-89162533D01*
X48060909Y-89335178D01*
X48004771Y-89472896D01*
X47953399Y-89554169D01*
X47891988Y-89619240D01*
X47749481Y-89700188D01*
X47546065Y-89740349D01*
X47408898Y-89745540D01*
X47259731Y-89737378D01*
X47144720Y-89711504D01*
X47081115Y-89680285D01*
X47033603Y-89637741D01*
X46985971Y-89530601D01*
X46984152Y-89361677D01*
X47010049Y-89213091D01*
X46308828Y-89213091D01*
X46260392Y-89451050D01*
X46237827Y-89656991D01*
X45793383Y-89656991D01*
X45793383Y-86061459D01*
X49797515Y-86061459D01*
X49797515Y-90811338D01*
G37*
D10*
G36*
X94587784Y-115498232D02*
G01*
X94687159Y-115511970D01*
X94755483Y-115535676D01*
X94804486Y-115569690D01*
X94824236Y-115592129D01*
X94840427Y-115618101D01*
X94854749Y-115652080D01*
X94865056Y-115691106D01*
X94872798Y-115747916D01*
X94875244Y-115813700D01*
X94875244Y-116396000D01*
X94683709Y-116396000D01*
X94683709Y-116290853D01*
X94670300Y-116290853D01*
X94638254Y-116332263D01*
X94590955Y-116373835D01*
X94563324Y-116388605D01*
X94532520Y-116399146D01*
X94483746Y-116407530D01*
X94424982Y-116410068D01*
X94306992Y-116402948D01*
X94234525Y-116385093D01*
X94184635Y-116357300D01*
X94165012Y-116338558D01*
X94148948Y-116316455D01*
X94134755Y-116287083D01*
X94124535Y-116252877D01*
X94116692Y-116201155D01*
X94114232Y-116140351D01*
X94114981Y-116125330D01*
X94319176Y-116125330D01*
X94323195Y-116168703D01*
X94338430Y-116202138D01*
X94352581Y-116215028D01*
X94371397Y-116224453D01*
X94409342Y-116232846D01*
X94460300Y-116235385D01*
X94483026Y-116234995D01*
X94555258Y-116225753D01*
X94603365Y-116205400D01*
X94622307Y-116190174D01*
X94638021Y-116171273D01*
X94652454Y-116144540D01*
X94663241Y-116112172D01*
X94672725Y-116058156D01*
X94676967Y-115991900D01*
X94510711Y-115993585D01*
X94461508Y-115995513D01*
X94393634Y-116006760D01*
X94354020Y-116026633D01*
X94339887Y-116041296D01*
X94329714Y-116059247D01*
X94321666Y-116088824D01*
X94319176Y-116125330D01*
X94114981Y-116125330D01*
X94117899Y-116066830D01*
X94133752Y-115991228D01*
X94161321Y-115935434D01*
X94180339Y-115912295D01*
X94203085Y-115892216D01*
X94232338Y-115873653D01*
X94266512Y-115858351D01*
X94313218Y-115844300D01*
X94367470Y-115834162D01*
X94449586Y-115826342D01*
X94545956Y-115823885D01*
X94678653Y-115823885D01*
X94678653Y-115813700D01*
X94677577Y-115784475D01*
X94666803Y-115733665D01*
X94644184Y-115700490D01*
X94625125Y-115687251D01*
X94601034Y-115677613D01*
X94557659Y-115669506D01*
X94502285Y-115667008D01*
X94484462Y-115667219D01*
X94416589Y-115674764D01*
X94378618Y-115691495D01*
X94365356Y-115704579D01*
X94356019Y-115721027D01*
X94348922Y-115749858D01*
X94347752Y-115786369D01*
X94142735Y-115786369D01*
X94142245Y-115746831D01*
X94150512Y-115664735D01*
X94170894Y-115606798D01*
X94185828Y-115583555D01*
X94204284Y-115563430D01*
X94228278Y-115545085D01*
X94256802Y-115529964D01*
X94296466Y-115516038D01*
X94343107Y-115505980D01*
X94415866Y-115498090D01*
X94502285Y-115495623D01*
X94587784Y-115498232D01*
G37*
G36*
X95514403Y-116410068D02*
G01*
X95610036Y-116407599D01*
X95690199Y-116399700D01*
X95741122Y-116389687D01*
X95784312Y-116375838D01*
X95815123Y-116360909D01*
X95841026Y-116342819D01*
X95860759Y-116323224D01*
X95876795Y-116300642D01*
X95898813Y-116245261D01*
X95908777Y-116167892D01*
X95909197Y-116144600D01*
X95906743Y-116097706D01*
X95898942Y-116056247D01*
X95888198Y-116026157D01*
X95873127Y-115999018D01*
X95832133Y-115955204D01*
X95769842Y-115917553D01*
X95673007Y-115882237D01*
X95586650Y-115860375D01*
X95440519Y-115824258D01*
X95359405Y-115794681D01*
X95340625Y-115781993D01*
X95330551Y-115768725D01*
X95327923Y-115756108D01*
X95330409Y-115731138D01*
X95338429Y-115711020D01*
X95349026Y-115698471D01*
X95363875Y-115688412D01*
X95411172Y-115674450D01*
X95509347Y-115668693D01*
X95575129Y-115671266D01*
X95623389Y-115679898D01*
X95646114Y-115689214D01*
X95663243Y-115701918D01*
X95681524Y-115733216D01*
X95687400Y-115767905D01*
X95889047Y-115767905D01*
X95886145Y-115711546D01*
X95877981Y-115662872D01*
X95867338Y-115629418D01*
X95852663Y-115600293D01*
X95835860Y-115577722D01*
X95815347Y-115558275D01*
X95762811Y-115528311D01*
X95686650Y-115507577D01*
X95571446Y-115496651D01*
X95511032Y-115495623D01*
X95416339Y-115498093D01*
X95337148Y-115506010D01*
X95287150Y-115516008D01*
X95244834Y-115529835D01*
X95214744Y-115544726D01*
X95189519Y-115562770D01*
X95170343Y-115582349D01*
X95154838Y-115604919D01*
X95133755Y-115660537D01*
X95124784Y-115738772D01*
X95124591Y-115754496D01*
X95127040Y-115797894D01*
X95134803Y-115836110D01*
X95145527Y-115863839D01*
X95160556Y-115888723D01*
X95201856Y-115928910D01*
X95265735Y-115963370D01*
X95367267Y-115995520D01*
X95467362Y-116016812D01*
X95564151Y-116037405D01*
X95632136Y-116059020D01*
X95661072Y-116073658D01*
X95681673Y-116090054D01*
X95692975Y-116105196D01*
X95699743Y-116122164D01*
X95702568Y-116146286D01*
X95700087Y-116172562D01*
X95692101Y-116193681D01*
X95681635Y-116206750D01*
X95667013Y-116217195D01*
X95621410Y-116231435D01*
X95533473Y-116237162D01*
X95514403Y-116237071D01*
X95450325Y-116233826D01*
X95400905Y-116225045D01*
X95374585Y-116215226D01*
X95354024Y-116201947D01*
X95340540Y-116187455D01*
X95330657Y-116169919D01*
X95320247Y-116122548D01*
X95319497Y-116105912D01*
X95112868Y-116105912D01*
X95113585Y-116166098D01*
X95119793Y-116218453D01*
X95129100Y-116255022D01*
X95142577Y-116287081D01*
X95158286Y-116311970D01*
X95177720Y-116333635D01*
X95227149Y-116367235D01*
X95297601Y-116391426D01*
X95401534Y-116406306D01*
X95514403Y-116410068D01*
G37*
G36*
X96521465Y-116410068D02*
G01*
X96617098Y-116407599D01*
X96697261Y-116399700D01*
X96748184Y-116389687D01*
X96791374Y-116375838D01*
X96822186Y-116360909D01*
X96848088Y-116342819D01*
X96867821Y-116323224D01*
X96883857Y-116300642D01*
X96905875Y-116245261D01*
X96915839Y-116167892D01*
X96916259Y-116144600D01*
X96913805Y-116097706D01*
X96906004Y-116056247D01*
X96895260Y-116026157D01*
X96880189Y-115999018D01*
X96839195Y-115955204D01*
X96776905Y-115917553D01*
X96680069Y-115882237D01*
X96593712Y-115860375D01*
X96447581Y-115824258D01*
X96366467Y-115794681D01*
X96347687Y-115781993D01*
X96337614Y-115768725D01*
X96334986Y-115756108D01*
X96337471Y-115731138D01*
X96345492Y-115711020D01*
X96356089Y-115698471D01*
X96370937Y-115688412D01*
X96418234Y-115674450D01*
X96516409Y-115668693D01*
X96582191Y-115671266D01*
X96630451Y-115679898D01*
X96653176Y-115689214D01*
X96670306Y-115701918D01*
X96688586Y-115733216D01*
X96694462Y-115767905D01*
X96896109Y-115767905D01*
X96893207Y-115711546D01*
X96885043Y-115662872D01*
X96874400Y-115629418D01*
X96859725Y-115600293D01*
X96842922Y-115577722D01*
X96822409Y-115558275D01*
X96769873Y-115528311D01*
X96693712Y-115507577D01*
X96578508Y-115496651D01*
X96518094Y-115495623D01*
X96423401Y-115498093D01*
X96344210Y-115506010D01*
X96294212Y-115516008D01*
X96251896Y-115529835D01*
X96221806Y-115544726D01*
X96196581Y-115562770D01*
X96177405Y-115582349D01*
X96161900Y-115604919D01*
X96140817Y-115660537D01*
X96131846Y-115738772D01*
X96131653Y-115754496D01*
X96134102Y-115797894D01*
X96141865Y-115836110D01*
X96152589Y-115863839D01*
X96167618Y-115888723D01*
X96208918Y-115928910D01*
X96272797Y-115963370D01*
X96374329Y-115995520D01*
X96474424Y-116016812D01*
X96571213Y-116037405D01*
X96639198Y-116059020D01*
X96668134Y-116073658D01*
X96688735Y-116090054D01*
X96700037Y-116105196D01*
X96706805Y-116122164D01*
X96709630Y-116146286D01*
X96707149Y-116172562D01*
X96699163Y-116193681D01*
X96688697Y-116206750D01*
X96674075Y-116217195D01*
X96628473Y-116231435D01*
X96540535Y-116237162D01*
X96521465Y-116237071D01*
X96457387Y-116233826D01*
X96407967Y-116225045D01*
X96381647Y-116215226D01*
X96361086Y-116201947D01*
X96347602Y-116187455D01*
X96337719Y-116169919D01*
X96327309Y-116122548D01*
X96326559Y-116105912D01*
X96119930Y-116105912D01*
X96120647Y-116166098D01*
X96126855Y-116218453D01*
X96136162Y-116255022D01*
X96149639Y-116287081D01*
X96165349Y-116311970D01*
X96184782Y-116333635D01*
X96234211Y-116367235D01*
X96304663Y-116391426D01*
X96408596Y-116406306D01*
X96521465Y-116410068D01*
G37*
G36*
X97607186Y-115498730D02*
G01*
X97700927Y-115514110D01*
X97770571Y-115540891D01*
X97824311Y-115579762D01*
X97847113Y-115605247D01*
X97866719Y-115634646D01*
X97884748Y-115671690D01*
X97899264Y-115713908D01*
X97911973Y-115769868D01*
X97920455Y-115833520D01*
X97925565Y-115925122D01*
X97925006Y-116030221D01*
X97328565Y-116030221D01*
X97339901Y-116111673D01*
X97360071Y-116166295D01*
X97390370Y-116202303D01*
X97412761Y-116216296D01*
X97439532Y-116226382D01*
X97484103Y-116234562D01*
X97538565Y-116237071D01*
X97586667Y-116234494D01*
X97635700Y-116221286D01*
X97654732Y-116209493D01*
X97670653Y-116193756D01*
X97688548Y-116164975D01*
X97703210Y-116127015D01*
X97911524Y-116127015D01*
X97889287Y-116225703D01*
X97859824Y-116292105D01*
X97820674Y-116339948D01*
X97795278Y-116359390D01*
X97766086Y-116375332D01*
X97727666Y-116389549D01*
X97683458Y-116399787D01*
X97617460Y-116407610D01*
X97540251Y-116410068D01*
X97482523Y-116408799D01*
X97374546Y-116396560D01*
X97296512Y-116373107D01*
X97237771Y-116338620D01*
X97213313Y-116316261D01*
X97192125Y-116290355D01*
X97172731Y-116258183D01*
X97156783Y-116221464D01*
X97142421Y-116173217D01*
X97132088Y-116118323D01*
X97124377Y-116039748D01*
X97121936Y-115949621D01*
X97122942Y-115889555D01*
X97124685Y-115870633D01*
X97330251Y-115870633D01*
X97725045Y-115870633D01*
X97718573Y-115791831D01*
X97700646Y-115739315D01*
X97687317Y-115719579D01*
X97670836Y-115703481D01*
X97648315Y-115689379D01*
X97621449Y-115679223D01*
X97578407Y-115671182D01*
X97526842Y-115668693D01*
X97516620Y-115668783D01*
X97445145Y-115676655D01*
X97397131Y-115695866D01*
X97378554Y-115710126D01*
X97363086Y-115727935D01*
X97349661Y-115751779D01*
X97339806Y-115780512D01*
X97332617Y-115821582D01*
X97330251Y-115870633D01*
X97124685Y-115870633D01*
X97134370Y-115765464D01*
X97156501Y-115678298D01*
X97188550Y-115614698D01*
X97208840Y-115588996D01*
X97232287Y-115566819D01*
X97260774Y-115546960D01*
X97293157Y-115530670D01*
X97335083Y-115516187D01*
X97382574Y-115505782D01*
X97449928Y-115498065D01*
X97526842Y-115495623D01*
X97607186Y-115498730D01*
G37*
G36*
X98070233Y-116396000D02*
G01*
X98256713Y-116396000D01*
X98256713Y-115899356D01*
X98259276Y-115811449D01*
X98267838Y-115748519D01*
X98276799Y-115720474D01*
X98288923Y-115700100D01*
X98301364Y-115688623D01*
X98316289Y-115681291D01*
X98345739Y-115677120D01*
X98373841Y-115679605D01*
X98396455Y-115687625D01*
X98410330Y-115698020D01*
X98421468Y-115712524D01*
X98436608Y-115756716D01*
X98443212Y-115839884D01*
X98443192Y-115867336D01*
X98439822Y-116396000D01*
X98624616Y-116396000D01*
X98624616Y-115890930D01*
X98627165Y-115809295D01*
X98635634Y-115749880D01*
X98644702Y-115722309D01*
X98657003Y-115701965D01*
X98669814Y-115690115D01*
X98685223Y-115682300D01*
X98720383Y-115677120D01*
X98744280Y-115679605D01*
X98763677Y-115687625D01*
X98785920Y-115713423D01*
X98799979Y-115762040D01*
X98806039Y-115867336D01*
X98806039Y-116396000D01*
X98992519Y-116396000D01*
X98992519Y-115837074D01*
X98990034Y-115744008D01*
X98982017Y-115668160D01*
X98972215Y-115622947D01*
X98958706Y-115585579D01*
X98944337Y-115559971D01*
X98926962Y-115539145D01*
X98886016Y-115512048D01*
X98830030Y-115498001D01*
X98785889Y-115495623D01*
X98741753Y-115498128D01*
X98705696Y-115506284D01*
X98683344Y-115516587D01*
X98664209Y-115530944D01*
X98634519Y-115571348D01*
X98612819Y-115625023D01*
X98611133Y-115625023D01*
X98596561Y-115583475D01*
X98578629Y-115551121D01*
X98562514Y-115532697D01*
X98543296Y-115518409D01*
X98495840Y-115501317D01*
X98424654Y-115495623D01*
X98390639Y-115498796D01*
X98361489Y-115507576D01*
X98341098Y-115519140D01*
X98322339Y-115535347D01*
X98285778Y-115586289D01*
X98265066Y-115626488D01*
X98251657Y-115626488D01*
X98251657Y-115519070D01*
X98070233Y-115519070D01*
X98070233Y-116396000D01*
G37*
G36*
X99356172Y-115587873D02*
G01*
X99369581Y-115587873D01*
X99394663Y-115556228D01*
X99441743Y-115514776D01*
X99469258Y-115500055D01*
X99499971Y-115489541D01*
X99548280Y-115481225D01*
X99606472Y-115478697D01*
X99625153Y-115478860D01*
X99728652Y-115487798D01*
X99803154Y-115508663D01*
X99859397Y-115541179D01*
X99883004Y-115562889D01*
X99903490Y-115588357D01*
X99922436Y-115620613D01*
X99938041Y-115657794D01*
X99952251Y-115707606D01*
X99962490Y-115764801D01*
X99970242Y-115848690D01*
X99972690Y-115945884D01*
X99972131Y-115994780D01*
X99961962Y-116131572D01*
X99941181Y-116225866D01*
X99911012Y-116293261D01*
X99870340Y-116342892D01*
X99844266Y-116363101D01*
X99814671Y-116379658D01*
X99776862Y-116394204D01*
X99734143Y-116404652D01*
X99674420Y-116412322D01*
X99606472Y-116414757D01*
X99577217Y-116414071D01*
X99505936Y-116403290D01*
X99475157Y-116392009D01*
X99446340Y-116376163D01*
X99408596Y-116346717D01*
X99369581Y-116306900D01*
X99356172Y-116306900D01*
X99356172Y-116396000D01*
X99152840Y-116396000D01*
X99153461Y-115945884D01*
X99352801Y-115945884D01*
X99354729Y-116018077D01*
X99366732Y-116108620D01*
X99387753Y-116165763D01*
X99418559Y-116203494D01*
X99440264Y-116217808D01*
X99465701Y-116228102D01*
X99504049Y-116235931D01*
X99549319Y-116238390D01*
X99592481Y-116236632D01*
X99655249Y-116223943D01*
X99699210Y-116199461D01*
X99717178Y-116181166D01*
X99731982Y-116158748D01*
X99745642Y-116126691D01*
X99755535Y-116088111D01*
X99763572Y-116024047D01*
X99766060Y-115945884D01*
X99763217Y-115863597D01*
X99749895Y-115780330D01*
X99727313Y-115726383D01*
X99712116Y-115706201D01*
X99693932Y-115689737D01*
X99670067Y-115675553D01*
X99642059Y-115665335D01*
X99599582Y-115657521D01*
X99549319Y-115655064D01*
X99522391Y-115655862D01*
X99461427Y-115666704D01*
X99418685Y-115689761D01*
X99401097Y-115707533D01*
X99386572Y-115729585D01*
X99373072Y-115761615D01*
X99363274Y-115800514D01*
X99355283Y-115865724D01*
X99352801Y-115945884D01*
X99153461Y-115945884D01*
X99154525Y-115174614D01*
X99357857Y-115174614D01*
X99356172Y-115587873D01*
G37*
G36*
X100154919Y-116396000D02*
G01*
X100951175Y-116396000D01*
X100951175Y-116221317D01*
X100663946Y-116221317D01*
X100663946Y-115172050D01*
X100171699Y-115172050D01*
X100171699Y-115346806D01*
X100462299Y-115346806D01*
X100462299Y-116221317D01*
X100154919Y-116221317D01*
X100154919Y-116396000D01*
G37*
G36*
X101635434Y-115498730D02*
G01*
X101729175Y-115514110D01*
X101798820Y-115540891D01*
X101852559Y-115579762D01*
X101875361Y-115605247D01*
X101894967Y-115634646D01*
X101912997Y-115671690D01*
X101927512Y-115713908D01*
X101940221Y-115769868D01*
X101948704Y-115833520D01*
X101953814Y-115925122D01*
X101953255Y-116030221D01*
X101356814Y-116030221D01*
X101368150Y-116111673D01*
X101388319Y-116166295D01*
X101418618Y-116202303D01*
X101441010Y-116216296D01*
X101467780Y-116226382D01*
X101512351Y-116234562D01*
X101566814Y-116237071D01*
X101614916Y-116234494D01*
X101663948Y-116221286D01*
X101682980Y-116209493D01*
X101698901Y-116193756D01*
X101716796Y-116164975D01*
X101731458Y-116127015D01*
X101939773Y-116127015D01*
X101917535Y-116225703D01*
X101888073Y-116292105D01*
X101848923Y-116339948D01*
X101823526Y-116359390D01*
X101794334Y-116375332D01*
X101755915Y-116389549D01*
X101711707Y-116399787D01*
X101645709Y-116407610D01*
X101568499Y-116410068D01*
X101510771Y-116408799D01*
X101402794Y-116396560D01*
X101324760Y-116373107D01*
X101266020Y-116338620D01*
X101241562Y-116316261D01*
X101220374Y-116290355D01*
X101200980Y-116258183D01*
X101185031Y-116221464D01*
X101170670Y-116173217D01*
X101160336Y-116118323D01*
X101152626Y-116039748D01*
X101150184Y-115949621D01*
X101151190Y-115889555D01*
X101152933Y-115870633D01*
X101358499Y-115870633D01*
X101753293Y-115870633D01*
X101746822Y-115791831D01*
X101728894Y-115739315D01*
X101715565Y-115719579D01*
X101699085Y-115703481D01*
X101676563Y-115689379D01*
X101649698Y-115679223D01*
X101606655Y-115671182D01*
X101555090Y-115668693D01*
X101544869Y-115668783D01*
X101473393Y-115676655D01*
X101425380Y-115695866D01*
X101406802Y-115710126D01*
X101391335Y-115727935D01*
X101377910Y-115751779D01*
X101368054Y-115780512D01*
X101360866Y-115821582D01*
X101358499Y-115870633D01*
X101152933Y-115870633D01*
X101162618Y-115765464D01*
X101184750Y-115678298D01*
X101216798Y-115614698D01*
X101237088Y-115588996D01*
X101260536Y-115566819D01*
X101289022Y-115546960D01*
X101321406Y-115530670D01*
X101363331Y-115516187D01*
X101410822Y-115505782D01*
X101478177Y-115498065D01*
X101555090Y-115495623D01*
X101635434Y-115498730D01*
G37*
G36*
X102948520Y-116396000D02*
G01*
X102745261Y-116396000D01*
X102745261Y-116307266D01*
X102731779Y-116307266D01*
X102707649Y-116341787D01*
X102666181Y-116379780D01*
X102639591Y-116393844D01*
X102608770Y-116403970D01*
X102557273Y-116412237D01*
X102493276Y-116414757D01*
X102477437Y-116414641D01*
X102373155Y-116406025D01*
X102298307Y-116385476D01*
X102241937Y-116353329D01*
X102218319Y-116331856D01*
X102197822Y-116306641D01*
X102178885Y-116274717D01*
X102163286Y-116237895D01*
X102149089Y-116188576D01*
X102138856Y-116131918D01*
X102131116Y-116048906D01*
X102128670Y-115952699D01*
X102335373Y-115952699D01*
X102337976Y-116030546D01*
X102351007Y-116113521D01*
X102373367Y-116167233D01*
X102388484Y-116187339D01*
X102406610Y-116203744D01*
X102430479Y-116217902D01*
X102458540Y-116228104D01*
X102501320Y-116235932D01*
X102552041Y-116238390D01*
X102577893Y-116237673D01*
X102639628Y-116227085D01*
X102682666Y-116204393D01*
X102700297Y-116186926D01*
X102714853Y-116165238D01*
X102728357Y-116133778D01*
X102738158Y-116095562D01*
X102746150Y-116031485D01*
X102748632Y-115952699D01*
X102747086Y-115889436D01*
X102735664Y-115799397D01*
X102715082Y-115742712D01*
X102684556Y-115705252D01*
X102662842Y-115690983D01*
X102637310Y-115680718D01*
X102598295Y-115672843D01*
X102552041Y-115670378D01*
X102511227Y-115671867D01*
X102446877Y-115683970D01*
X102402345Y-115707623D01*
X102384307Y-115725263D01*
X102369453Y-115746916D01*
X102355795Y-115777825D01*
X102345903Y-115815061D01*
X102337862Y-115877015D01*
X102335373Y-115952699D01*
X102128670Y-115952699D01*
X102129015Y-115914876D01*
X102138470Y-115778041D01*
X102158693Y-115683951D01*
X102188394Y-115616800D01*
X102228667Y-115567368D01*
X102254584Y-115547222D01*
X102284050Y-115530718D01*
X102321832Y-115516188D01*
X102364585Y-115505753D01*
X102424727Y-115498061D01*
X102493276Y-115495623D01*
X102593880Y-115501360D01*
X102654616Y-115517289D01*
X102677412Y-115529527D01*
X102696545Y-115545069D01*
X102715878Y-115568991D01*
X102731779Y-115598791D01*
X102745261Y-115598791D01*
X102745261Y-115170438D01*
X102948520Y-115170438D01*
X102948520Y-116396000D01*
G37*
G36*
X104465415Y-115409893D02*
G01*
X104722383Y-115409893D01*
X104722383Y-115173002D01*
X104465415Y-115173002D01*
X104465415Y-115409893D01*
G37*
G36*
X104221782Y-116396000D02*
G01*
X104996277Y-116396000D01*
X104996277Y-116223002D01*
X104715715Y-116223002D01*
X104715715Y-115519070D01*
X104238562Y-115519070D01*
X104238562Y-115692140D01*
X104514068Y-115692140D01*
X104514068Y-116223002D01*
X104221782Y-116223002D01*
X104221782Y-116396000D01*
G37*
G36*
X105191915Y-116396000D02*
G01*
X105396859Y-116396000D01*
X105396859Y-115939729D01*
X105399334Y-115869616D01*
X105407275Y-115812127D01*
X105417155Y-115777064D01*
X105430787Y-115748001D01*
X105445725Y-115727531D01*
X105463865Y-115710932D01*
X105509201Y-115688741D01*
X105575642Y-115677977D01*
X105606859Y-115677120D01*
X105656299Y-115679615D01*
X105695423Y-115687700D01*
X105717710Y-115697472D01*
X105735515Y-115710934D01*
X105757444Y-115745630D01*
X105768471Y-115800345D01*
X105769818Y-115837074D01*
X105769818Y-116396000D01*
X105974762Y-116396000D01*
X105974762Y-115840445D01*
X105972306Y-115764256D01*
X105964493Y-115699215D01*
X105954302Y-115655946D01*
X105940166Y-115618648D01*
X105924498Y-115590924D01*
X105905435Y-115567213D01*
X105859290Y-115532539D01*
X105796399Y-115509448D01*
X105706301Y-115497137D01*
X105650530Y-115495623D01*
X105597627Y-115498147D01*
X105552897Y-115506439D01*
X105523691Y-115517092D01*
X105497408Y-115532050D01*
X105452852Y-115574085D01*
X105410268Y-115638431D01*
X105396859Y-115638431D01*
X105396859Y-115519070D01*
X105191915Y-115519070D01*
X105191915Y-116396000D01*
G37*
G36*
X107637763Y-116410068D02*
G01*
X107721805Y-116407612D01*
X107794025Y-116399800D01*
X107842691Y-116389552D01*
X107885019Y-116375317D01*
X107916826Y-116359537D01*
X107944414Y-116340328D01*
X107966676Y-116319012D01*
X107985644Y-116294328D01*
X108014923Y-116232971D01*
X108034294Y-116147390D01*
X108040983Y-116077849D01*
X107830983Y-116077849D01*
X107821245Y-116122767D01*
X107807282Y-116158367D01*
X107793660Y-116179121D01*
X107776706Y-116195643D01*
X107734618Y-116216356D01*
X107669393Y-116226199D01*
X107637763Y-116226959D01*
X107590835Y-116224517D01*
X107550054Y-116216806D01*
X107521377Y-116206337D01*
X107496301Y-116191749D01*
X107476333Y-116174509D01*
X107459093Y-116153320D01*
X107431780Y-116096813D01*
X107412696Y-116011566D01*
X107403117Y-115878058D01*
X107402557Y-115826450D01*
X107405031Y-115722511D01*
X107412971Y-115636514D01*
X107422867Y-115583441D01*
X107436526Y-115538963D01*
X107451063Y-115507972D01*
X107468639Y-115482273D01*
X107487453Y-115463191D01*
X107509084Y-115447986D01*
X107561778Y-115428126D01*
X107637763Y-115420884D01*
X107685135Y-115423379D01*
X107723730Y-115431463D01*
X107747280Y-115441583D01*
X107767027Y-115455628D01*
X107795062Y-115493341D01*
X107815699Y-115554396D01*
X107820872Y-115580033D01*
X108030872Y-115580033D01*
X108025737Y-115509663D01*
X108015640Y-115448796D01*
X108003675Y-115406934D01*
X107987856Y-115370427D01*
X107970504Y-115342538D01*
X107949700Y-115318391D01*
X107899404Y-115281916D01*
X107831270Y-115256462D01*
X107734797Y-115241283D01*
X107637763Y-115237702D01*
X107562436Y-115240129D01*
X107495283Y-115247738D01*
X107445671Y-115258292D01*
X107401171Y-115273003D01*
X107365752Y-115289784D01*
X107334049Y-115310261D01*
X107307369Y-115333184D01*
X107283745Y-115359746D01*
X107245014Y-115424768D01*
X107215739Y-115511863D01*
X107196010Y-115631692D01*
X107187604Y-115802016D01*
X107187501Y-115826450D01*
X107189941Y-115937048D01*
X107197640Y-116033963D01*
X107208001Y-116102291D01*
X107222406Y-116162653D01*
X107238316Y-116208631D01*
X107257646Y-116249191D01*
X107278351Y-116281570D01*
X107302182Y-116309847D01*
X107357297Y-116353344D01*
X107426952Y-116384089D01*
X107518227Y-116403373D01*
X107637763Y-116410068D01*
G37*
G36*
X108213101Y-116396000D02*
G01*
X108418046Y-116396000D01*
X108418046Y-115938117D01*
X108420534Y-115865137D01*
X108428576Y-115805661D01*
X108438436Y-115770172D01*
X108452042Y-115740848D01*
X108466877Y-115720367D01*
X108484896Y-115703802D01*
X108529870Y-115681788D01*
X108595964Y-115671191D01*
X108626360Y-115670378D01*
X108676389Y-115672883D01*
X108715939Y-115681033D01*
X108738287Y-115690823D01*
X108756164Y-115704318D01*
X108778236Y-115739112D01*
X108789494Y-115794065D01*
X108791004Y-115833704D01*
X108791004Y-116396000D01*
X108995949Y-116396000D01*
X108995949Y-115837074D01*
X108993491Y-115761403D01*
X108985664Y-115696869D01*
X108975476Y-115654068D01*
X108961342Y-115617193D01*
X108945670Y-115589792D01*
X108926597Y-115566370D01*
X108880314Y-115532086D01*
X108816982Y-115509240D01*
X108725818Y-115497087D01*
X108670031Y-115495623D01*
X108617489Y-115498135D01*
X108572517Y-115506338D01*
X108542574Y-115517006D01*
X108515672Y-115531986D01*
X108471345Y-115573319D01*
X108431454Y-115635134D01*
X108418046Y-115635134D01*
X108418046Y-115171390D01*
X108213101Y-115171390D01*
X108213101Y-116396000D01*
G37*
G36*
X109500725Y-115409893D02*
G01*
X109757693Y-115409893D01*
X109757693Y-115173002D01*
X109500725Y-115173002D01*
X109500725Y-115409893D01*
G37*
G36*
X109257093Y-116396000D02*
G01*
X110031587Y-116396000D01*
X110031587Y-116223002D01*
X109751025Y-116223002D01*
X109751025Y-115519070D01*
X109273872Y-115519070D01*
X109273872Y-115692140D01*
X109549378Y-115692140D01*
X109549378Y-116223002D01*
X109257093Y-116223002D01*
X109257093Y-116396000D01*
G37*
G36*
X110227226Y-116396000D02*
G01*
X110432170Y-116396000D01*
X110432170Y-115939729D01*
X110434644Y-115869616D01*
X110442586Y-115812127D01*
X110452466Y-115777064D01*
X110466097Y-115748001D01*
X110481036Y-115727531D01*
X110499175Y-115710932D01*
X110544511Y-115688741D01*
X110610953Y-115677977D01*
X110642170Y-115677120D01*
X110691610Y-115679615D01*
X110730734Y-115687700D01*
X110753020Y-115697472D01*
X110770826Y-115710934D01*
X110792754Y-115745630D01*
X110803782Y-115800345D01*
X110805129Y-115837074D01*
X110805129Y-116396000D01*
X111010073Y-116396000D01*
X111010073Y-115840445D01*
X111007617Y-115764256D01*
X110999803Y-115699215D01*
X110989613Y-115655946D01*
X110975476Y-115618648D01*
X110959808Y-115590924D01*
X110940745Y-115567213D01*
X110894601Y-115532539D01*
X110831709Y-115509448D01*
X110741612Y-115497137D01*
X110685840Y-115495623D01*
X110632938Y-115498147D01*
X110588208Y-115506439D01*
X110559002Y-115517092D01*
X110532718Y-115532050D01*
X110488163Y-115574085D01*
X110445579Y-115638431D01*
X110432170Y-115638431D01*
X110432170Y-115519070D01*
X110227226Y-115519070D01*
X110227226Y-116396000D01*
G37*
G36*
X111707840Y-115498232D02*
G01*
X111807215Y-115511970D01*
X111875539Y-115535676D01*
X111924541Y-115569690D01*
X111944292Y-115592129D01*
X111960483Y-115618101D01*
X111974805Y-115652080D01*
X111985112Y-115691106D01*
X111992854Y-115747916D01*
X111995300Y-115813700D01*
X111995300Y-116396000D01*
X111803764Y-116396000D01*
X111803764Y-116290853D01*
X111790355Y-116290853D01*
X111758310Y-116332263D01*
X111711011Y-116373835D01*
X111683380Y-116388605D01*
X111652576Y-116399146D01*
X111603801Y-116407530D01*
X111545038Y-116410068D01*
X111427048Y-116402948D01*
X111354581Y-116385093D01*
X111304691Y-116357300D01*
X111285068Y-116338558D01*
X111269003Y-116316455D01*
X111254811Y-116287083D01*
X111244591Y-116252877D01*
X111236748Y-116201155D01*
X111234288Y-116140351D01*
X111235037Y-116125330D01*
X111439232Y-116125330D01*
X111443251Y-116168703D01*
X111458486Y-116202138D01*
X111472636Y-116215028D01*
X111491452Y-116224453D01*
X111529398Y-116232846D01*
X111580355Y-116235385D01*
X111603082Y-116234995D01*
X111675314Y-116225753D01*
X111723421Y-116205400D01*
X111742363Y-116190174D01*
X111758077Y-116171273D01*
X111772510Y-116144540D01*
X111783297Y-116112172D01*
X111792780Y-116058156D01*
X111797023Y-115991900D01*
X111630767Y-115993585D01*
X111581563Y-115995513D01*
X111513690Y-116006760D01*
X111474075Y-116026633D01*
X111459943Y-116041296D01*
X111449770Y-116059247D01*
X111441722Y-116088824D01*
X111439232Y-116125330D01*
X111235037Y-116125330D01*
X111237955Y-116066830D01*
X111253808Y-115991228D01*
X111281376Y-115935434D01*
X111300395Y-115912295D01*
X111323141Y-115892216D01*
X111352394Y-115873653D01*
X111386568Y-115858351D01*
X111433274Y-115844300D01*
X111487526Y-115834162D01*
X111569641Y-115826342D01*
X111666011Y-115823885D01*
X111798709Y-115823885D01*
X111798709Y-115813700D01*
X111797633Y-115784475D01*
X111786859Y-115733665D01*
X111764239Y-115700490D01*
X111745181Y-115687251D01*
X111721089Y-115677613D01*
X111677715Y-115669506D01*
X111622341Y-115667008D01*
X111604518Y-115667219D01*
X111536645Y-115674764D01*
X111498674Y-115691495D01*
X111485411Y-115704579D01*
X111476075Y-115721027D01*
X111468978Y-115749858D01*
X111467808Y-115786369D01*
X111262791Y-115786369D01*
X111262301Y-115746831D01*
X111270568Y-115664735D01*
X111290950Y-115606798D01*
X111305884Y-115583555D01*
X111324340Y-115563430D01*
X111348334Y-115545085D01*
X111376858Y-115529964D01*
X111416522Y-115516038D01*
X111463163Y-115505980D01*
X111535922Y-115498090D01*
X111622341Y-115495623D01*
X111707840Y-115498232D01*
G37*
D13*
X113100000Y-104150000D02*
G75*
G02*
X111700000Y-104150000I-700000J0D01*
G01*
X111700000Y-104150000D02*
G75*
G02*
X113100000Y-104150000I700000J0D01*
G01*
X97450000Y-96250000D02*
G75*
G02*
X96050000Y-96250000I-700000J0D01*
G01*
X96050000Y-96250000D02*
G75*
G02*
X97450000Y-96250000I700000J0D01*
G01*
X118380000Y-106860000D02*
X116970000Y-106860000D01*
X118380000Y-104540000D02*
X116970000Y-104540000D01*
X116970000Y-106860000D02*
X116970000Y-106200000D01*
X116970000Y-105200000D02*
X116970000Y-104540000D01*
X118990000Y-107170000D02*
X118510000Y-107170000D01*
X118750000Y-106840000D01*
X118990000Y-107170000D01*
G36*
X118990000Y-107170000D02*
G01*
X118510000Y-107170000D01*
X118750000Y-106840000D01*
X118990000Y-107170000D01*
G37*
X92000000Y-113200000D02*
X92000000Y-114200000D01*
X91000000Y-113200000D02*
X92000000Y-113200000D01*
X89360000Y-115116856D02*
X89360000Y-115283144D01*
X88640000Y-115116856D02*
X88640000Y-115283144D01*
X87360000Y-115116856D02*
X87360000Y-115283144D01*
X86640000Y-115116856D02*
X86640000Y-115283144D01*
X85360000Y-115116856D02*
X85360000Y-115283144D01*
X84640000Y-115116856D02*
X84640000Y-115283144D01*
X83360000Y-115116856D02*
X83360000Y-115283144D01*
X82640000Y-115116856D02*
X82640000Y-115283144D01*
X81360000Y-115116856D02*
X81360000Y-115283144D01*
X80640000Y-115116856D02*
X80640000Y-115283144D01*
X79360000Y-115116856D02*
X79360000Y-115283144D01*
X78640000Y-115116856D02*
X78640000Y-115283144D01*
X77360000Y-115116856D02*
X77360000Y-115283144D01*
X76640000Y-115116856D02*
X76640000Y-115283144D01*
X75360000Y-115116856D02*
X75360000Y-115283144D01*
X74640000Y-115116856D02*
X74640000Y-115283144D01*
X73360000Y-115116856D02*
X73360000Y-115283144D01*
X72640000Y-115116856D02*
X72640000Y-115283144D01*
X91360000Y-115185000D02*
X91360000Y-115283144D01*
X90640000Y-115185000D02*
X90640000Y-115283144D01*
X91360000Y-117116856D02*
X91360000Y-117590000D01*
X90640000Y-117116856D02*
X90640000Y-117590000D01*
X89360000Y-117116856D02*
X89360000Y-117590000D01*
X88640000Y-117116856D02*
X88640000Y-117590000D01*
X87360000Y-117116856D02*
X87360000Y-117590000D01*
X86640000Y-117116856D02*
X86640000Y-117590000D01*
X85360000Y-117116856D02*
X85360000Y-117590000D01*
X84640000Y-117116856D02*
X84640000Y-117590000D01*
X83360000Y-117116856D02*
X83360000Y-117590000D01*
X82640000Y-117116856D02*
X82640000Y-117590000D01*
X81360000Y-117116856D02*
X81360000Y-117590000D01*
X80640000Y-117116856D02*
X80640000Y-117590000D01*
X79360000Y-117116856D02*
X79360000Y-117590000D01*
X78640000Y-117116856D02*
X78640000Y-117590000D01*
X77360000Y-117116856D02*
X77360000Y-117590000D01*
X76640000Y-117116856D02*
X76640000Y-117590000D01*
X75360000Y-117116856D02*
X75360000Y-117590000D01*
X74640000Y-117116856D02*
X74640000Y-117590000D01*
X73360000Y-117116856D02*
X73360000Y-117590000D01*
X72640000Y-117116856D02*
X72640000Y-117590000D01*
X92110000Y-117590000D02*
X71890000Y-117590000D01*
X90000000Y-117590000D02*
X90000000Y-119310000D01*
X88000000Y-117590000D02*
X88000000Y-119310000D01*
X86000000Y-117590000D02*
X86000000Y-119310000D01*
X84000000Y-117590000D02*
X84000000Y-119310000D01*
X82000000Y-117590000D02*
X82000000Y-119310000D01*
X80000000Y-117590000D02*
X80000000Y-119310000D01*
X78000000Y-117590000D02*
X78000000Y-119310000D01*
X76000000Y-117590000D02*
X76000000Y-119310000D01*
X74000000Y-117590000D02*
X74000000Y-119310000D01*
X71890000Y-117590000D02*
X71890000Y-119310000D01*
X92110000Y-119310000D02*
X92110000Y-117590000D01*
X89360000Y-119310000D02*
X89360000Y-123510000D01*
X87360000Y-119310000D02*
X87360000Y-123510000D01*
X85360000Y-119310000D02*
X85360000Y-123510000D01*
X83360000Y-119310000D02*
X83360000Y-123510000D01*
X81360000Y-119310000D02*
X81360000Y-123510000D01*
X79360000Y-119310000D02*
X79360000Y-123510000D01*
X77360000Y-119310000D02*
X77360000Y-123510000D01*
X75360000Y-119310000D02*
X75360000Y-123510000D01*
X73360000Y-119310000D02*
X73360000Y-123510000D01*
X71890000Y-119310000D02*
X92110000Y-119310000D01*
X89360000Y-123510000D02*
X88640000Y-123510000D01*
X88640000Y-123510000D02*
X88640000Y-119310000D01*
X87360000Y-123510000D02*
X86640000Y-123510000D01*
X86640000Y-123510000D02*
X86640000Y-119310000D01*
X85360000Y-123510000D02*
X84640000Y-123510000D01*
X84640000Y-123510000D02*
X84640000Y-119310000D01*
X83360000Y-123510000D02*
X82640000Y-123510000D01*
X82640000Y-123510000D02*
X82640000Y-119310000D01*
X81360000Y-123510000D02*
X80640000Y-123510000D01*
X80640000Y-123510000D02*
X80640000Y-119310000D01*
X79360000Y-123510000D02*
X78640000Y-123510000D01*
X78640000Y-123510000D02*
X78640000Y-119310000D01*
X77360000Y-123510000D02*
X76640000Y-123510000D01*
X76640000Y-123510000D02*
X76640000Y-119310000D01*
X75360000Y-123510000D02*
X74640000Y-123510000D01*
X74640000Y-123510000D02*
X74640000Y-119310000D01*
X73360000Y-123510000D02*
X72640000Y-123510000D01*
X72640000Y-123510000D02*
X72640000Y-119310000D01*
X91360000Y-119310000D02*
X90640000Y-119310000D01*
X90640000Y-123510000D01*
X91360000Y-123510000D01*
X91360000Y-119310000D01*
G36*
X91360000Y-119310000D02*
G01*
X90640000Y-119310000D01*
X90640000Y-123510000D01*
X91360000Y-123510000D01*
X91360000Y-119310000D01*
G37*
X49660000Y-93500000D02*
X49660000Y-91500000D01*
X49660000Y-93500000D02*
X45800000Y-93500000D01*
X49660000Y-91500000D02*
X45800000Y-91500000D01*
X79474999Y-107675000D02*
X81174999Y-107675000D01*
X79474999Y-107675000D02*
X79474999Y-105015000D01*
X81174999Y-107675000D02*
X81174999Y-105015000D01*
X87225001Y-91225000D02*
X85525001Y-91225000D01*
X87225001Y-91225000D02*
X87225001Y-93885000D01*
X85525001Y-91225000D02*
X85525001Y-93885000D01*
X51274999Y-107675000D02*
X52974999Y-107675000D01*
X51274999Y-107675000D02*
X51274999Y-105015000D01*
X52974999Y-107675000D02*
X52974999Y-105015000D01*
X113924999Y-104060000D02*
X115624999Y-104060000D01*
X113924999Y-104060000D02*
X113924999Y-101400000D01*
X115624999Y-104060000D02*
X115624999Y-101400000D01*
X88874999Y-107675001D02*
X90574999Y-107675001D01*
X88874999Y-107675001D02*
X88874999Y-105015001D01*
X90574999Y-107675001D02*
X90574999Y-105015001D01*
X77825000Y-91225000D02*
X76125000Y-91225000D01*
X77825000Y-91225000D02*
X77825000Y-93885000D01*
X76125000Y-91225000D02*
X76125000Y-93885000D01*
X60674999Y-107675000D02*
X62374999Y-107675000D01*
X60674999Y-107675000D02*
X60674999Y-105015000D01*
X62374999Y-107675000D02*
X62374999Y-105015000D01*
X70074999Y-107675000D02*
X71774999Y-107675000D01*
X70074999Y-107675000D02*
X70074999Y-105015000D01*
X71774999Y-107675000D02*
X71774999Y-105015000D01*
X68425001Y-91225000D02*
X66725001Y-91225000D01*
X68425001Y-91225000D02*
X68425001Y-93885000D01*
X66725001Y-91225000D02*
X66725001Y-93885000D01*
X47950000Y-109260000D02*
X49650000Y-109260000D01*
X47950000Y-109260000D02*
X47950000Y-106600000D01*
X49650000Y-109260000D02*
X49650000Y-106600000D01*
X43590000Y-110312500D02*
X43590000Y-111112500D01*
X43590000Y-110312500D02*
X43590000Y-109512500D01*
X46710000Y-110312500D02*
X46710000Y-111112500D01*
X46710000Y-110312500D02*
X46710000Y-109512500D01*
X43640000Y-111612500D02*
X43310000Y-111852500D01*
X43310000Y-111372500D01*
X43640000Y-111612500D01*
G36*
X43640000Y-111612500D02*
G01*
X43310000Y-111852500D01*
X43310000Y-111372500D01*
X43640000Y-111612500D01*
G37*
X84889999Y-107055000D02*
X86299999Y-107055000D01*
X84899999Y-109375000D02*
X86299999Y-109375000D01*
X84519999Y-107105000D02*
X84279999Y-106775000D01*
X84759999Y-106775000D01*
X84519999Y-107105000D01*
G36*
X84519999Y-107105000D02*
G01*
X84279999Y-106775000D01*
X84759999Y-106775000D01*
X84519999Y-107105000D01*
G37*
X81810001Y-91845000D02*
X80400001Y-91845000D01*
X81800001Y-89525000D02*
X80400001Y-89525000D01*
X82420001Y-92125000D02*
X81940001Y-92125000D01*
X82180001Y-91795000D01*
X82420001Y-92125000D01*
G36*
X82420001Y-92125000D02*
G01*
X81940001Y-92125000D01*
X82180001Y-91795000D01*
X82420001Y-92125000D01*
G37*
X56689999Y-107055000D02*
X58099999Y-107055000D01*
X56699999Y-109375000D02*
X58099999Y-109375000D01*
X56319999Y-107105000D02*
X56079999Y-106775000D01*
X56559999Y-106775000D01*
X56319999Y-107105000D01*
G36*
X56319999Y-107105000D02*
G01*
X56079999Y-106775000D01*
X56559999Y-106775000D01*
X56319999Y-107105000D01*
G37*
X72410000Y-91845000D02*
X71000000Y-91845000D01*
X72400000Y-89525000D02*
X71000000Y-89525000D01*
X73020000Y-92125000D02*
X72540000Y-92125000D01*
X72780000Y-91795000D01*
X73020000Y-92125000D01*
G36*
X73020000Y-92125000D02*
G01*
X72540000Y-92125000D01*
X72780000Y-91795000D01*
X73020000Y-92125000D01*
G37*
X66089999Y-107055000D02*
X67499999Y-107055000D01*
X66099999Y-109375000D02*
X67499999Y-109375000D01*
X65719999Y-107105000D02*
X65479999Y-106775000D01*
X65959999Y-106775000D01*
X65719999Y-107105000D01*
G36*
X65719999Y-107105000D02*
G01*
X65479999Y-106775000D01*
X65959999Y-106775000D01*
X65719999Y-107105000D01*
G37*
X94289999Y-107055000D02*
X95699999Y-107055000D01*
X94299999Y-109375000D02*
X95699999Y-109375000D01*
X93919999Y-107105000D02*
X93679999Y-106775000D01*
X94159999Y-106775000D01*
X93919999Y-107105000D01*
G36*
X93919999Y-107105000D02*
G01*
X93679999Y-106775000D01*
X94159999Y-106775000D01*
X93919999Y-107105000D01*
G37*
X63010001Y-91845000D02*
X61600001Y-91845000D01*
X63000001Y-89525000D02*
X61600001Y-89525000D01*
X63620001Y-92125000D02*
X63140001Y-92125000D01*
X63380001Y-91795000D01*
X63620001Y-92125000D01*
G36*
X63620001Y-92125000D02*
G01*
X63140001Y-92125000D01*
X63380001Y-91795000D01*
X63620001Y-92125000D01*
G37*
X75489999Y-107055000D02*
X76899999Y-107055000D01*
X75499999Y-109375000D02*
X76899999Y-109375000D01*
X75119999Y-107105000D02*
X74879999Y-106775000D01*
X75359999Y-106775000D01*
X75119999Y-107105000D01*
G36*
X75119999Y-107105000D02*
G01*
X74879999Y-106775000D01*
X75359999Y-106775000D01*
X75119999Y-107105000D01*
G37*
X81035000Y-102303747D02*
X81035000Y-102826253D01*
X79565000Y-102303747D02*
X79565000Y-102826253D01*
X88129999Y-110068641D02*
X88129999Y-109761359D01*
X87369999Y-110068641D02*
X87369999Y-109761359D01*
X85807257Y-112487500D02*
X85332741Y-112487500D01*
X85807257Y-111442500D02*
X85332741Y-111442500D01*
X85812257Y-111022500D02*
X85337741Y-111022500D01*
X85812257Y-109977500D02*
X85337741Y-109977500D01*
X88060000Y-106560000D02*
X87910000Y-106560000D01*
X88060000Y-100040000D02*
X88060000Y-106560000D01*
X88060000Y-100040000D02*
X87910000Y-100040000D01*
X81540000Y-106560000D02*
X81690000Y-106560000D01*
X81540000Y-100040000D02*
X81690000Y-100040000D01*
X81540000Y-100040000D02*
X81540000Y-106560000D01*
X88109999Y-107957164D02*
X88109999Y-108172836D01*
X87389999Y-107957164D02*
X87389999Y-108172836D01*
X80913747Y-109825000D02*
X82336251Y-109825000D01*
X80913747Y-108005000D02*
X82336251Y-108005000D01*
X82242163Y-107640000D02*
X82457835Y-107640000D01*
X82242163Y-106920000D02*
X82457835Y-106920000D01*
X125970000Y-114020000D02*
X123970000Y-114020000D01*
X123970000Y-114020000D02*
X123969999Y-114570000D01*
X123970000Y-108780000D02*
X125970000Y-108780000D01*
X123969999Y-114570000D02*
X121450000Y-114570000D01*
X123969999Y-108230000D02*
X123970000Y-108780000D01*
X119849999Y-114570000D02*
X118450000Y-114570000D01*
X116850000Y-114570000D02*
X114450000Y-114570000D01*
X113349999Y-108230000D02*
X123969999Y-108230000D01*
X113349999Y-106900000D02*
X113349999Y-108230000D01*
X111630000Y-114570000D02*
X112850000Y-114570000D01*
X111630000Y-114570000D02*
X111630000Y-106900000D01*
X90250000Y-93750000D02*
X92750000Y-93750000D01*
X93200000Y-94200000D02*
X92750000Y-93750000D01*
X89800000Y-94200000D02*
X90250000Y-93750000D01*
X94250000Y-95500000D02*
X94250000Y-97500000D01*
X88750000Y-95500000D02*
X88750000Y-97500000D01*
X93200000Y-98800000D02*
X92750000Y-99250000D01*
X89800000Y-98800000D02*
X90250000Y-99250000D01*
X90250000Y-99250000D02*
X92750000Y-99250000D01*
X85786253Y-90895000D02*
X84363749Y-90895000D01*
X85786253Y-89075000D02*
X84363749Y-89075000D01*
X78640000Y-98860000D02*
X78790000Y-98860000D01*
X78640000Y-98860000D02*
X78640000Y-92340000D01*
X85160000Y-98860000D02*
X85010000Y-98860000D01*
X85160000Y-98860000D02*
X85160000Y-92340000D01*
X78640000Y-92340000D02*
X78790000Y-92340000D01*
X85160000Y-92340000D02*
X85010000Y-92340000D01*
X78570001Y-88831359D02*
X78570001Y-89138641D01*
X79330001Y-88831359D02*
X79330001Y-89138641D01*
X80892743Y-87457500D02*
X81367259Y-87457500D01*
X80892743Y-86412500D02*
X81367259Y-86412500D01*
X78590001Y-90942836D02*
X78590001Y-90727164D01*
X79310001Y-90942836D02*
X79310001Y-90727164D01*
X84457837Y-91980000D02*
X84242165Y-91980000D01*
X84457837Y-91260000D02*
X84242165Y-91260000D01*
X85665000Y-96596253D02*
X85665000Y-96073747D01*
X87135000Y-96596253D02*
X87135000Y-96073747D01*
X80887743Y-88922500D02*
X81362259Y-88922500D01*
X80887743Y-87877500D02*
X81362259Y-87877500D01*
X59909999Y-107957164D02*
X59909999Y-108172836D01*
X59189999Y-107957164D02*
X59189999Y-108172836D01*
X59929999Y-110068641D02*
X59929999Y-109761359D01*
X59169999Y-110068641D02*
X59169999Y-109761359D01*
X54042163Y-106920000D02*
X54257835Y-106920000D01*
X54042163Y-107640000D02*
X54257835Y-107640000D01*
X57612257Y-109977500D02*
X57137741Y-109977500D01*
X57612257Y-111022500D02*
X57137741Y-111022500D01*
X52835000Y-102303747D02*
X52835000Y-102826253D01*
X51365000Y-102303747D02*
X51365000Y-102826253D01*
X52713747Y-108005000D02*
X54136251Y-108005000D01*
X52713747Y-109825000D02*
X54136251Y-109825000D01*
X57607257Y-111442500D02*
X57132741Y-111442500D01*
X57607257Y-112487500D02*
X57132741Y-112487500D01*
X59860000Y-100040000D02*
X59710000Y-100040000D01*
X59860000Y-100040000D02*
X59860000Y-106560000D01*
X53340000Y-100040000D02*
X53490000Y-100040000D01*
X53340000Y-100040000D02*
X53340000Y-106560000D01*
X59860000Y-106560000D02*
X59710000Y-106560000D01*
X53340000Y-106560000D02*
X53490000Y-106560000D01*
X97460000Y-100040000D02*
X97310000Y-100040000D01*
X97460000Y-100040000D02*
X97460000Y-106560000D01*
X90940000Y-100040000D02*
X91090000Y-100040000D01*
X90940000Y-100040000D02*
X90940000Y-106560000D01*
X97460000Y-106560000D02*
X97310000Y-106560000D01*
X90940000Y-106560000D02*
X91090000Y-106560000D01*
X44496359Y-107382499D02*
X44803641Y-107382499D01*
X44496359Y-108142499D02*
X44803641Y-108142499D01*
X75057836Y-91260000D02*
X74842164Y-91260000D01*
X75057836Y-91980000D02*
X74842164Y-91980000D01*
X114599999Y-87190001D02*
X112649999Y-87190000D01*
X114599999Y-87190001D02*
X116549999Y-87190000D01*
X114599999Y-92309999D02*
X112649999Y-92310000D01*
X114599999Y-92309999D02*
X116549999Y-92310000D01*
X111899999Y-87285000D02*
X111660000Y-86955000D01*
X112139999Y-86955000D01*
X111899999Y-87285000D01*
G36*
X111899999Y-87285000D02*
G01*
X111660000Y-86955000D01*
X112139999Y-86955000D01*
X111899999Y-87285000D01*
G37*
X108961253Y-106897500D02*
X108438747Y-106897500D01*
X108961253Y-105427500D02*
X108438747Y-105427500D01*
X68569999Y-110068641D02*
X68569999Y-109761359D01*
X69329999Y-110068641D02*
X69329999Y-109761359D01*
X104674999Y-87125000D02*
G75*
G02*
X103274999Y-87125000I-700000J0D01*
G01*
X103274999Y-87125000D02*
G75*
G02*
X104674999Y-87125000I700000J0D01*
G01*
X120473999Y-94262479D02*
X122473999Y-94262479D01*
X120473999Y-103662479D02*
X122473999Y-103662479D01*
X124373999Y-94262480D02*
X125873999Y-94262479D01*
X124373999Y-103662478D02*
X125873999Y-103662478D01*
X42570000Y-110158860D02*
X42570000Y-110466142D01*
X43330000Y-110158860D02*
X43330000Y-110466142D01*
X108039999Y-89537836D02*
X108039999Y-89322164D01*
X108759999Y-89537836D02*
X108759999Y-89322164D01*
X49895000Y-108861361D02*
X49895000Y-109168643D01*
X50655000Y-108861361D02*
X50655000Y-109168643D01*
X116707835Y-86190000D02*
X116492163Y-86190000D01*
X116707835Y-86910000D02*
X116492163Y-86910000D01*
X115560358Y-94020000D02*
X115867640Y-94020000D01*
X115560358Y-94780000D02*
X115867640Y-94780000D01*
X59770001Y-88831359D02*
X59770001Y-89138641D01*
X60530001Y-88831359D02*
X60530001Y-89138641D01*
X100082835Y-94565000D02*
X99867163Y-94565000D01*
X100082835Y-95285000D02*
X99867163Y-95285000D01*
X95949999Y-89390001D02*
X95949999Y-93390001D01*
X99249999Y-89390001D02*
X95949999Y-89390001D01*
X46461357Y-107382499D02*
X46768639Y-107382499D01*
X46461357Y-108142499D02*
X46768639Y-108142499D01*
X106440000Y-103242164D02*
X106440000Y-103457836D01*
X107160000Y-103242164D02*
X107160000Y-103457836D01*
X108706357Y-87470000D02*
X109013639Y-87470000D01*
X108706357Y-88230000D02*
X109013639Y-88230000D01*
X72140000Y-106560000D02*
X72290000Y-106560000D01*
X78660000Y-106560000D02*
X78510000Y-106560000D01*
X72140000Y-100040000D02*
X72140000Y-106560000D01*
X72140000Y-100040000D02*
X72290000Y-100040000D01*
X78660000Y-100040000D02*
X78660000Y-106560000D01*
X78660000Y-100040000D02*
X78510000Y-100040000D01*
X108949998Y-89583641D02*
X108949998Y-89276359D01*
X109709998Y-89583641D02*
X109709998Y-89276359D01*
X97357834Y-88470002D02*
X97142162Y-88470002D01*
X97357834Y-89190002D02*
X97142162Y-89190002D01*
X111817162Y-94990000D02*
X112032834Y-94990000D01*
X111817162Y-95710000D02*
X112032834Y-95710000D01*
X100600000Y-101350000D02*
G75*
G02*
X99200000Y-101350000I-700000J0D01*
G01*
X99200000Y-101350000D02*
G75*
G02*
X100600000Y-101350000I700000J0D01*
G01*
X65657837Y-91260000D02*
X65442165Y-91260000D01*
X65657837Y-91980000D02*
X65442165Y-91980000D01*
X69910000Y-90942836D02*
X69910000Y-90727164D01*
X69190000Y-90942836D02*
X69190000Y-90727164D01*
X108389999Y-100222164D02*
X108389999Y-100437836D01*
X109109999Y-100222164D02*
X109109999Y-100437836D01*
X77734999Y-96596253D02*
X77734999Y-96073747D01*
X76264999Y-96596253D02*
X76264999Y-96073747D01*
X62092743Y-86412500D02*
X62567259Y-86412500D01*
X62092743Y-87457500D02*
X62567259Y-87457500D01*
X49895000Y-107268642D02*
X49895000Y-106961360D01*
X50655000Y-107268642D02*
X50655000Y-106961360D01*
X41620000Y-110466141D02*
X41620000Y-110158859D01*
X42380000Y-110466141D02*
X42380000Y-110158859D01*
X63442163Y-106920000D02*
X63657835Y-106920000D01*
X63442163Y-107640000D02*
X63657835Y-107640000D01*
X66865000Y-96596253D02*
X66865000Y-96073747D01*
X68335000Y-96596253D02*
X68335000Y-96073747D01*
X104439999Y-100222164D02*
X104439999Y-100437836D01*
X105159999Y-100222164D02*
X105159999Y-100437836D01*
X67012257Y-109977500D02*
X66537741Y-109977500D01*
X67012257Y-111022500D02*
X66537741Y-111022500D01*
X99469999Y-92693642D02*
X99469999Y-92386360D01*
X100229999Y-92693642D02*
X100229999Y-92386360D01*
X111817163Y-94040000D02*
X112032835Y-94040000D01*
X111817163Y-94760000D02*
X112032835Y-94760000D01*
X60765000Y-102303747D02*
X60765000Y-102826253D01*
X62235000Y-102303747D02*
X62235000Y-102826253D01*
X50735000Y-102298747D02*
X50735000Y-102821253D01*
X49265000Y-102298747D02*
X49265000Y-102821253D01*
X77989999Y-107957164D02*
X77989999Y-108172836D01*
X78709999Y-107957164D02*
X78709999Y-108172836D01*
X72842163Y-107640000D02*
X73057835Y-107640000D01*
X72842163Y-106920000D02*
X73057835Y-106920000D01*
X107440000Y-103242164D02*
X107440000Y-103457836D01*
X108160000Y-103242164D02*
X108160000Y-103457836D01*
X111812779Y-99640000D02*
X111487219Y-99640000D01*
X111812779Y-100660000D02*
X111487219Y-100660000D01*
X104439999Y-89537836D02*
X104439999Y-89322164D01*
X105159999Y-89537836D02*
X105159999Y-89322164D01*
X111817162Y-97145000D02*
X112032834Y-97145000D01*
X111817162Y-97865000D02*
X112032834Y-97865000D01*
X97842163Y-93620002D02*
X98057835Y-93620002D01*
X97842163Y-94340002D02*
X98057835Y-94340002D01*
X71492742Y-86412500D02*
X71967258Y-86412500D01*
X71492742Y-87457500D02*
X71967258Y-87457500D01*
X41600000Y-94300001D02*
X40100000Y-94300001D01*
X41600000Y-103699999D02*
X40100000Y-103700000D01*
X45500000Y-94300000D02*
X43500000Y-94300000D01*
X45500000Y-103700000D02*
X43500000Y-103700000D01*
X44547163Y-112502498D02*
X44762835Y-112502498D01*
X44547163Y-113222498D02*
X44762835Y-113222498D01*
X108919999Y-112122500D02*
X106339999Y-112122500D01*
X106339999Y-111142500D02*
X106339999Y-112122500D01*
X106339999Y-108382500D02*
X106339999Y-107402500D01*
X106339999Y-107402500D02*
X109059999Y-107402500D01*
X109709999Y-112302500D02*
X109229999Y-112302500D01*
X109469999Y-111972500D01*
X109709999Y-112302500D01*
G36*
X109709999Y-112302500D02*
G01*
X109229999Y-112302500D01*
X109469999Y-111972500D01*
X109709999Y-112302500D01*
G37*
X114928640Y-99820000D02*
X114621358Y-99820000D01*
X114928640Y-100580000D02*
X114621358Y-100580000D01*
X90313747Y-109825000D02*
X91736251Y-109825000D01*
X90313747Y-108005000D02*
X91736251Y-108005000D01*
X75760000Y-92340000D02*
X75610000Y-92340000D01*
X69240000Y-92340000D02*
X69390000Y-92340000D01*
X75760000Y-98860000D02*
X75760000Y-92340000D01*
X75760000Y-98860000D02*
X75610000Y-98860000D01*
X69240000Y-98860000D02*
X69240000Y-92340000D01*
X69240000Y-98860000D02*
X69390000Y-98860000D01*
X50650378Y-99415000D02*
X51449622Y-99415000D01*
X50650378Y-100535000D02*
X51449622Y-100535000D01*
X68589999Y-107957164D02*
X68589999Y-108172836D01*
X69309999Y-107957164D02*
X69309999Y-108172836D01*
X88965000Y-102303747D02*
X88965000Y-102826253D01*
X90435000Y-102303747D02*
X90435000Y-102826253D01*
X76386252Y-89075000D02*
X74963748Y-89075000D01*
X76386252Y-90895000D02*
X74963748Y-90895000D01*
X95207257Y-112487501D02*
X94732741Y-112487501D01*
X95207257Y-111442501D02*
X94732741Y-111442501D01*
X92750000Y-86250000D02*
X90250000Y-86250000D01*
X93200000Y-86700000D02*
X92750000Y-86250000D01*
X89800000Y-86700000D02*
X90250000Y-86250000D01*
X94250000Y-90000000D02*
X94250000Y-88000000D01*
X88750000Y-90000000D02*
X88750000Y-88000000D01*
X93200000Y-91300000D02*
X92750000Y-91750000D01*
X89800000Y-91300000D02*
X90250000Y-91750000D01*
X92750000Y-91750000D02*
X90250000Y-91750000D01*
X70165000Y-102303747D02*
X70165000Y-102826253D01*
X71635000Y-102303747D02*
X71635000Y-102826253D01*
X71513747Y-109825000D02*
X72936251Y-109825000D01*
X71513747Y-108005000D02*
X72936251Y-108005000D01*
X102296357Y-99480000D02*
X102603639Y-99480000D01*
X102296357Y-100240000D02*
X102603639Y-100240000D01*
X66986253Y-89075000D02*
X65563749Y-89075000D01*
X66986253Y-90895000D02*
X65563749Y-90895000D01*
X67007257Y-111442500D02*
X66532741Y-111442500D01*
X67007257Y-112487500D02*
X66532741Y-112487500D01*
X62087743Y-87877500D02*
X62562259Y-87877500D01*
X62087743Y-88922500D02*
X62562259Y-88922500D01*
X45484999Y-105289999D02*
X44174999Y-105289999D01*
X45484999Y-106510001D02*
X44174999Y-106510001D01*
X45484999Y-106510001D02*
X45484999Y-105289999D01*
X99049999Y-107550001D02*
X99049999Y-110050001D01*
X99499999Y-107100001D02*
X99049999Y-107550001D01*
X99499999Y-110500001D02*
X99049999Y-110050001D01*
X102799999Y-106050001D02*
X100799999Y-106050001D01*
X102799999Y-111550001D02*
X100799999Y-111550001D01*
X104099999Y-107100001D02*
X104549999Y-107550001D01*
X104099999Y-110500001D02*
X104549999Y-110050001D01*
X104549999Y-107550001D02*
X104549999Y-110050001D01*
X115899999Y-102560000D02*
X115899999Y-101250000D01*
X115899999Y-102560000D02*
X117120001Y-102560000D01*
X117120001Y-102560000D02*
X117120001Y-101250000D01*
X91642163Y-107640000D02*
X91857835Y-107640000D01*
X91642163Y-106920000D02*
X91857835Y-106920000D01*
X76407257Y-112487500D02*
X75932741Y-112487500D01*
X76407257Y-111442500D02*
X75932741Y-111442500D01*
X45764999Y-105289999D02*
X45764999Y-106510001D01*
X45764999Y-105289999D02*
X47074999Y-105289999D01*
X45764999Y-106510001D02*
X47074999Y-106510001D01*
X71487742Y-87877500D02*
X71962258Y-87877500D01*
X71487742Y-88922500D02*
X71962258Y-88922500D01*
X115899999Y-100084999D02*
X115899999Y-98774999D01*
X115899999Y-100084999D02*
X117120001Y-100084999D01*
X117120001Y-100084999D02*
X117120001Y-98774999D01*
X113953640Y-95520000D02*
X113646358Y-95520000D01*
X113953640Y-96280000D02*
X113646358Y-96280000D01*
X107419999Y-101296359D02*
X107419999Y-101603641D01*
X108179999Y-101296359D02*
X108179999Y-101603641D01*
X113646358Y-96470000D02*
X113953640Y-96470000D01*
X113646358Y-97230000D02*
X113953640Y-97230000D01*
X96769999Y-110068641D02*
X96769999Y-109761359D01*
X97529999Y-110068641D02*
X97529999Y-109761359D01*
X77969999Y-110068641D02*
X77969999Y-109761359D01*
X78729999Y-110068641D02*
X78729999Y-109761359D01*
X95212257Y-111022500D02*
X94737741Y-111022500D01*
X95212257Y-109977500D02*
X94737741Y-109977500D01*
X109339999Y-100222164D02*
X109339999Y-100437836D01*
X110059999Y-100222164D02*
X110059999Y-100437836D01*
X108438747Y-114097500D02*
X108961253Y-114097500D01*
X108438747Y-112627500D02*
X108961253Y-112627500D01*
X111817163Y-98095000D02*
X112032835Y-98095000D01*
X111817163Y-98815000D02*
X112032835Y-98815000D01*
X62740000Y-100040000D02*
X62740000Y-106560000D01*
X62740000Y-100040000D02*
X62890000Y-100040000D01*
X62740000Y-106560000D02*
X62890000Y-106560000D01*
X69260000Y-100040000D02*
X69110000Y-100040000D01*
X69260000Y-100040000D02*
X69260000Y-106560000D01*
X69260000Y-106560000D02*
X69110000Y-106560000D01*
X69930000Y-88831359D02*
X69930000Y-89138641D01*
X69170000Y-88831359D02*
X69170000Y-89138641D01*
X100082836Y-95490000D02*
X99867164Y-95490000D01*
X100082836Y-96210000D02*
X99867164Y-96210000D01*
X76412257Y-111022500D02*
X75937741Y-111022500D01*
X76412257Y-109977500D02*
X75937741Y-109977500D01*
X115899999Y-96840000D02*
X115899999Y-98150000D01*
X117120001Y-96840000D02*
X115899999Y-96840000D01*
X117120001Y-96840000D02*
X117120001Y-98150000D01*
X96789999Y-107957164D02*
X96789999Y-108172836D01*
X97509999Y-107957164D02*
X97509999Y-108172836D01*
X59840000Y-92340000D02*
X59990000Y-92340000D01*
X59840000Y-98860000D02*
X59840000Y-92340000D01*
X59840000Y-98860000D02*
X59990000Y-98860000D01*
X66360000Y-92340000D02*
X66210000Y-92340000D01*
X66360000Y-98860000D02*
X66210000Y-98860000D01*
X66360000Y-98860000D02*
X66360000Y-92340000D01*
X99075000Y-97500000D02*
G75*
G02*
X97675000Y-97500000I-700000J0D01*
G01*
X97675000Y-97500000D02*
G75*
G02*
X99075000Y-97500000I700000J0D01*
G01*
X102649999Y-101375000D02*
G75*
G02*
X101249999Y-101375000I-700000J0D01*
G01*
X101249999Y-101375000D02*
G75*
G02*
X102649999Y-101375000I700000J0D01*
G01*
X59790001Y-90942836D02*
X59790001Y-90727164D01*
X60510001Y-90942836D02*
X60510001Y-90727164D01*
X62113747Y-108005000D02*
X63536251Y-108005000D01*
X62113747Y-109825000D02*
X63536251Y-109825000D01*
X102184999Y-91260000D02*
X102834998Y-91260000D01*
X102184999Y-91909999D02*
X102184999Y-91260000D01*
X102184999Y-97830001D02*
X102184999Y-98480000D01*
X102184999Y-98480000D02*
X102834998Y-98480000D01*
X108755000Y-91260000D02*
X109164999Y-91260000D01*
X109404999Y-91909999D02*
X109404999Y-91560000D01*
X109404999Y-97830001D02*
X109404999Y-98480000D01*
X109404999Y-98480000D02*
X108755000Y-98480000D01*
X109734999Y-91500000D02*
X109404999Y-91260000D01*
X109734999Y-91020000D01*
X109734999Y-91500000D01*
G36*
X109734999Y-91500000D02*
G01*
X109404999Y-91260000D01*
X109734999Y-91020000D01*
X109734999Y-91500000D01*
G37*
X59025001Y-91225000D02*
X57325001Y-91225000D01*
X59025001Y-91225000D02*
X59025001Y-93885000D01*
X57325001Y-91225000D02*
X57325001Y-93885000D01*
X53610001Y-91845000D02*
X52200001Y-91845000D01*
X53600001Y-89525000D02*
X52200001Y-89525000D01*
X54220001Y-92125000D02*
X53740001Y-92125000D01*
X53980001Y-91795000D01*
X54220001Y-92125000D01*
G36*
X54220001Y-92125000D02*
G01*
X53740001Y-92125000D01*
X53980001Y-91795000D01*
X54220001Y-92125000D01*
G37*
X51130001Y-88831359D02*
X51130001Y-89138641D01*
X50370001Y-88831359D02*
X50370001Y-89138641D01*
X52687743Y-87877500D02*
X53162259Y-87877500D01*
X52687743Y-88922500D02*
X53162259Y-88922500D01*
X58935000Y-96596253D02*
X58935000Y-96073747D01*
X57465000Y-96596253D02*
X57465000Y-96073747D01*
X52692743Y-86412500D02*
X53167259Y-86412500D01*
X52692743Y-87457500D02*
X53167259Y-87457500D01*
X56257837Y-91260000D02*
X56042165Y-91260000D01*
X56257837Y-91980000D02*
X56042165Y-91980000D01*
X51110001Y-90942836D02*
X51110001Y-90727164D01*
X50390001Y-90942836D02*
X50390001Y-90727164D01*
X57586253Y-89075000D02*
X56163749Y-89075000D01*
X57586253Y-90895000D02*
X56163749Y-90895000D01*
X56960000Y-92340000D02*
X56810000Y-92340000D01*
X50440000Y-92340000D02*
X50590000Y-92340000D01*
X56960000Y-98860000D02*
X56960000Y-92340000D01*
X56960000Y-98860000D02*
X56810000Y-98860000D01*
X50440000Y-98860000D02*
X50440000Y-92340000D01*
X50440000Y-98860000D02*
X50590000Y-98860000D01*
%LPC*%
D14*
X121350000Y-86850000D03*
X42000000Y-114100000D03*
D15*
X112400000Y-104150000D03*
X96750000Y-96250000D03*
D16*
X118700000Y-106350000D03*
X118700000Y-105050000D03*
X116700000Y-105700000D03*
D17*
X91000000Y-114200000D03*
D18*
X91000000Y-116200000D03*
X89000000Y-114200000D03*
X89000000Y-116200000D03*
X87000000Y-114200000D03*
X87000000Y-116200000D03*
X85000000Y-114200000D03*
X85000000Y-116200000D03*
X83000000Y-114200000D03*
X83000000Y-116200000D03*
X81000000Y-114200000D03*
X81000000Y-116200000D03*
X79000000Y-114200000D03*
X79000000Y-116200000D03*
X77000000Y-114200000D03*
X77000000Y-116200000D03*
X75000000Y-114200000D03*
X75000000Y-116200000D03*
X73000000Y-114200000D03*
X73000000Y-116200000D03*
D19*
X48850000Y-92500000D03*
X46050000Y-92500000D03*
D20*
X80324999Y-107115000D03*
X80324999Y-105015000D03*
D21*
X86375001Y-91785000D03*
X86375001Y-93885000D03*
D20*
X52124999Y-107115000D03*
X52124999Y-105015000D03*
X114774999Y-103500000D03*
X114774999Y-101400000D03*
X89724999Y-107115001D03*
X89724999Y-105015001D03*
D21*
X76975000Y-91785000D03*
X76975000Y-93885000D03*
D20*
X61524999Y-107115000D03*
X61524999Y-105015000D03*
X70924999Y-107115000D03*
X70924999Y-105015000D03*
D21*
X67575001Y-91785000D03*
X67575001Y-93885000D03*
D20*
X48800000Y-108700000D03*
X48800000Y-106600000D03*
D22*
X44200000Y-111450000D03*
X45150000Y-111450000D03*
X46100000Y-111450000D03*
X46100000Y-109175000D03*
X45150000Y-109175000D03*
X44200000Y-109175000D03*
D23*
X84649999Y-107565000D03*
X84649999Y-108215000D03*
X84649999Y-108865000D03*
X86549999Y-108865000D03*
X86549999Y-107565000D03*
D24*
X82050001Y-91335000D03*
X82050001Y-90685000D03*
X82050001Y-90035000D03*
X80150001Y-90035000D03*
X80150001Y-91335000D03*
D23*
X56449999Y-107565000D03*
X56449999Y-108215000D03*
X56449999Y-108865000D03*
X58349999Y-108865000D03*
X58349999Y-107565000D03*
D24*
X72650000Y-91335000D03*
X72650000Y-90685000D03*
X72650000Y-90035000D03*
X70750000Y-90035000D03*
X70750000Y-91335000D03*
D23*
X65849999Y-107565000D03*
X65849999Y-108215000D03*
X65849999Y-108865000D03*
X67749999Y-108865000D03*
X67749999Y-107565000D03*
X94049999Y-107565000D03*
X94049999Y-108215000D03*
X94049999Y-108865000D03*
X95949999Y-108865000D03*
X95949999Y-107565000D03*
D24*
X63250001Y-91335000D03*
X63250001Y-90685000D03*
X63250001Y-90035000D03*
X61350001Y-90035000D03*
X61350001Y-91335000D03*
D23*
X75249999Y-107565000D03*
X75249999Y-108215000D03*
X75249999Y-108865000D03*
X77149999Y-108865000D03*
X77149999Y-107565000D03*
D25*
X80300000Y-103514999D03*
X80300000Y-101615001D03*
D26*
X87749999Y-109405001D03*
X87749999Y-110424999D03*
D27*
X84744999Y-111965000D03*
X86394999Y-111965000D03*
X84749999Y-110500000D03*
X86399999Y-110500000D03*
D28*
X84800000Y-105550000D03*
X84800000Y-101050000D03*
D29*
X87749999Y-108545000D03*
X87749999Y-107585000D03*
D30*
X83100000Y-108915000D03*
X80149998Y-108915000D03*
D31*
X82829999Y-107280000D03*
X81869999Y-107280000D03*
D32*
X122250000Y-111400000D03*
X115250000Y-111400000D03*
D33*
X117650000Y-114650000D03*
X120649999Y-114650000D03*
X112549999Y-108150000D03*
X113650000Y-114650000D03*
D34*
X94500000Y-98350000D03*
X88500000Y-98350000D03*
X94500000Y-94650000D03*
X88500000Y-94650000D03*
D35*
X83600000Y-89985000D03*
X86550002Y-89985000D03*
D36*
X81900000Y-93350000D03*
X81900000Y-97850000D03*
D37*
X78950001Y-89494999D03*
X78950001Y-88475001D03*
D38*
X81955001Y-86935000D03*
X80305001Y-86935000D03*
D39*
X78950001Y-90355000D03*
X78950001Y-91315000D03*
D40*
X83870001Y-91620000D03*
X84830001Y-91620000D03*
D41*
X86400000Y-95385001D03*
X86400000Y-97284999D03*
D38*
X81950001Y-88400000D03*
X80300001Y-88400000D03*
D29*
X59549999Y-108545000D03*
X59549999Y-107585000D03*
D26*
X59549999Y-109405001D03*
X59549999Y-110424999D03*
D31*
X54629999Y-107280000D03*
X53669999Y-107280000D03*
D27*
X56549999Y-110500000D03*
X58199999Y-110500000D03*
D25*
X52100000Y-103514999D03*
X52100000Y-101615001D03*
D30*
X54900000Y-108915000D03*
X51949998Y-108915000D03*
D27*
X56544999Y-111965000D03*
X58194999Y-111965000D03*
D28*
X56600000Y-105550000D03*
X56600000Y-101050000D03*
X94200000Y-105550000D03*
X94200000Y-101050000D03*
D42*
X44140001Y-107762499D03*
X45159999Y-107762499D03*
D40*
X75430000Y-91620000D03*
X74470000Y-91620000D03*
D43*
X112124999Y-87845000D03*
X112124999Y-89115000D03*
X112124999Y-90385000D03*
X112124999Y-91655000D03*
X117074999Y-91655000D03*
X117074999Y-90385000D03*
X117074999Y-89115000D03*
X117074999Y-87845000D03*
D44*
X109649999Y-106162500D03*
X107750001Y-106162500D03*
D26*
X68949999Y-110424999D03*
X68949999Y-109405001D03*
D15*
X103974999Y-87125000D03*
D45*
X119773999Y-101852479D03*
X119773999Y-96072479D03*
D46*
X118328999Y-102212479D03*
X118328999Y-101412480D03*
D47*
X118329000Y-100212479D03*
X118328999Y-99212479D03*
X118328999Y-98712479D03*
X118329000Y-97712479D03*
D46*
X118328999Y-96512478D03*
X118328999Y-95712479D03*
X118328999Y-95712479D03*
X118328999Y-96512478D03*
D47*
X118328999Y-97212479D03*
X118328999Y-98212479D03*
X118328999Y-99712479D03*
X118328999Y-100712479D03*
D46*
X118328999Y-101412480D03*
X118328999Y-102212479D03*
D48*
X119243999Y-103282479D03*
D49*
X123423999Y-103282479D03*
D48*
X119243999Y-94642479D03*
D49*
X123423999Y-94642479D03*
D37*
X42950000Y-109802502D03*
X42950000Y-110822500D03*
D39*
X108399999Y-89910000D03*
X108399999Y-88950000D03*
D37*
X50275000Y-108505003D03*
X50275000Y-109525001D03*
D40*
X117079999Y-86550000D03*
X116119999Y-86550000D03*
D42*
X115203999Y-94400000D03*
X116223999Y-94400000D03*
D37*
X60150001Y-88475001D03*
X60150001Y-89494999D03*
D40*
X100454999Y-94925000D03*
X99494999Y-94925000D03*
D50*
X96749999Y-90290001D03*
X96749999Y-92490001D03*
X98449999Y-92490001D03*
X98449999Y-90290001D03*
D42*
X46104999Y-107762499D03*
X47124997Y-107762499D03*
D29*
X106800000Y-102870000D03*
X106800000Y-103830000D03*
D42*
X108349998Y-87850000D03*
X109369998Y-87850000D03*
D28*
X75400000Y-101050000D03*
X75400000Y-105550000D03*
D26*
X109329998Y-89939999D03*
X109329998Y-88920001D03*
D40*
X97729998Y-88830002D03*
X96769998Y-88830002D03*
D31*
X111444998Y-95350000D03*
X112404998Y-95350000D03*
D15*
X99900000Y-101350000D03*
D40*
X66030001Y-91620000D03*
X65070001Y-91620000D03*
D39*
X69550000Y-91315000D03*
X69550000Y-90355000D03*
D29*
X108749999Y-99850000D03*
X108749999Y-100810000D03*
D41*
X76999999Y-97284999D03*
X76999999Y-95385001D03*
D38*
X61505001Y-86935000D03*
X63155001Y-86935000D03*
D26*
X50275000Y-107625000D03*
X50275000Y-106605002D03*
X42000000Y-110822499D03*
X42000000Y-109802501D03*
D31*
X63069999Y-107280000D03*
X64029999Y-107280000D03*
D41*
X67600000Y-97284999D03*
X67600000Y-95385001D03*
D29*
X104799999Y-99850000D03*
X104799999Y-100810000D03*
D27*
X67599999Y-110500000D03*
X65949999Y-110500000D03*
D26*
X99849999Y-93050000D03*
X99849999Y-92030002D03*
D31*
X111444999Y-94400000D03*
X112404999Y-94400000D03*
D25*
X61500000Y-101615001D03*
X61500000Y-103514999D03*
X50000000Y-103509999D03*
X50000000Y-101610001D03*
D29*
X78349999Y-107585000D03*
X78349999Y-108545000D03*
D31*
X72469999Y-107280000D03*
X73429999Y-107280000D03*
D29*
X107800000Y-102870000D03*
X107800000Y-103830000D03*
D51*
X112437500Y-100150000D03*
X110862498Y-100150000D03*
D39*
X104799999Y-89910000D03*
X104799999Y-88950000D03*
D31*
X111444998Y-97505000D03*
X112404998Y-97505000D03*
X97469999Y-93980002D03*
X98429999Y-93980002D03*
D38*
X70905000Y-86935000D03*
X72555000Y-86935000D03*
D45*
X46200000Y-96110000D03*
X46200000Y-101890000D03*
D46*
X47645000Y-95750000D03*
X47645000Y-96549999D03*
D47*
X47644999Y-97750000D03*
X47645000Y-98750000D03*
X47645000Y-99250000D03*
X47644999Y-100250000D03*
D46*
X47645000Y-101450001D03*
X47645000Y-102250000D03*
X47645000Y-102250000D03*
X47645000Y-101450001D03*
D47*
X47645000Y-100750000D03*
X47645000Y-99750000D03*
X47645000Y-98250000D03*
X47645000Y-97250000D03*
D46*
X47645000Y-96549999D03*
X47645000Y-95750000D03*
D48*
X46730000Y-94680000D03*
D49*
X42550000Y-94680000D03*
D48*
X46730000Y-103320000D03*
D49*
X42550000Y-103320000D03*
D31*
X44174999Y-112862498D03*
X45134999Y-112862498D03*
D52*
X109649999Y-111262500D03*
D53*
X109562498Y-109762500D03*
D52*
X109649999Y-108262500D03*
D54*
X115284998Y-100200000D03*
X114265000Y-100200000D03*
D30*
X89549998Y-108915000D03*
X92500000Y-108915000D03*
D36*
X72500000Y-97850000D03*
X72500000Y-93350000D03*
D55*
X49987500Y-99975000D03*
X52112500Y-99975000D03*
D29*
X68949999Y-107585000D03*
X68949999Y-108545000D03*
D25*
X89700000Y-101615001D03*
X89700000Y-103514999D03*
D35*
X77150001Y-89985000D03*
X74199999Y-89985000D03*
D27*
X95794999Y-111965001D03*
X94144999Y-111965001D03*
D56*
X94500000Y-90850000D03*
X88500000Y-90850000D03*
X94500000Y-87150000D03*
X88500000Y-87150000D03*
D25*
X70900000Y-101615001D03*
X70900000Y-103514999D03*
D30*
X70749998Y-108915000D03*
X73700000Y-108915000D03*
D42*
X101939998Y-99860000D03*
X102959998Y-99860000D03*
D35*
X67750002Y-89985000D03*
X64800000Y-89985000D03*
D27*
X67594999Y-111965000D03*
X65944999Y-111965000D03*
D38*
X61500001Y-88400000D03*
X63150001Y-88400000D03*
D57*
X43000000Y-89500000D03*
D58*
X45024998Y-105900000D03*
X44325000Y-105900000D03*
D59*
X103649999Y-105800001D03*
X103649999Y-111800001D03*
X99949999Y-105800001D03*
X99949999Y-111800001D03*
D60*
X116510000Y-102099999D03*
X116510000Y-101400001D03*
D31*
X91269999Y-107280000D03*
X92229999Y-107280000D03*
D27*
X76994999Y-111965000D03*
X75344999Y-111965000D03*
D61*
X46225000Y-105900000D03*
X46924998Y-105900000D03*
D38*
X70900000Y-88400000D03*
X72550000Y-88400000D03*
D60*
X116510000Y-99624998D03*
X116510000Y-98925000D03*
D54*
X114309998Y-95900000D03*
X113290000Y-95900000D03*
D37*
X107799999Y-100940001D03*
X107799999Y-101959999D03*
D42*
X113290000Y-96850000D03*
X114309998Y-96850000D03*
D26*
X97149999Y-110424999D03*
X97149999Y-109405001D03*
X78349999Y-110424999D03*
X78349999Y-109405001D03*
D27*
X95799999Y-110500000D03*
X94149999Y-110500000D03*
D29*
X109699999Y-99850000D03*
X109699999Y-100810000D03*
D62*
X107750001Y-113362500D03*
X109649999Y-113362500D03*
D31*
X111444999Y-98455000D03*
X112404999Y-98455000D03*
D28*
X66000000Y-101050000D03*
X66000000Y-105550000D03*
D57*
X122999998Y-89500000D03*
D37*
X69550000Y-88475001D03*
X69550000Y-89494999D03*
D40*
X100455000Y-95850000D03*
X99495000Y-95850000D03*
D27*
X76999999Y-110500000D03*
X75349999Y-110500000D03*
D63*
X116510000Y-97300001D03*
X116510000Y-97999999D03*
D29*
X97149999Y-107585000D03*
X97149999Y-108545000D03*
D36*
X63100000Y-97850000D03*
X63100000Y-93350000D03*
D15*
X98375000Y-97500000D03*
X101949999Y-101375000D03*
D39*
X60150001Y-91315000D03*
X60150001Y-90355000D03*
D30*
X61349998Y-108915000D03*
X64300000Y-108915000D03*
D64*
X108394999Y-91432500D03*
X107994998Y-91432500D03*
X107594999Y-91432500D03*
X107194999Y-91432500D03*
X106794999Y-91432500D03*
X106395000Y-91432500D03*
X105994999Y-91432500D03*
X105594999Y-91432500D03*
X105194998Y-91432500D03*
X104794999Y-91432500D03*
X104394999Y-91432500D03*
X103994999Y-91432500D03*
X103595000Y-91432500D03*
X103194999Y-91432500D03*
D65*
X102357499Y-92270000D03*
X102357499Y-92670001D03*
X102357499Y-93070000D03*
X102357499Y-93470000D03*
X102357499Y-93870000D03*
X102357499Y-94269999D03*
X102357499Y-94670000D03*
X102357499Y-95070000D03*
X102357499Y-95470001D03*
X102357499Y-95870000D03*
X102357499Y-96270000D03*
X102357499Y-96670000D03*
X102357499Y-97069999D03*
X102357499Y-97470000D03*
D64*
X103194999Y-98307500D03*
X103595000Y-98307500D03*
X103994999Y-98307500D03*
X104394999Y-98307500D03*
X104794999Y-98307500D03*
X105194998Y-98307500D03*
X105594999Y-98307500D03*
X105994999Y-98307500D03*
X106395000Y-98307500D03*
X106794999Y-98307500D03*
X107194999Y-98307500D03*
X107594999Y-98307500D03*
X107994998Y-98307500D03*
X108394999Y-98307500D03*
D65*
X109232499Y-97470000D03*
X109232499Y-97069999D03*
X109232499Y-96670000D03*
X109232499Y-96270000D03*
X109232499Y-95870000D03*
X109232499Y-95470001D03*
X109232499Y-95070000D03*
X109232499Y-94670000D03*
X109232499Y-94269999D03*
X109232499Y-93870000D03*
X109232499Y-93470000D03*
X109232499Y-93070000D03*
X109232499Y-92670001D03*
X109232499Y-92270000D03*
D66*
X105794999Y-94870000D03*
D21*
X58175001Y-91785000D03*
X58175001Y-93885000D03*
D24*
X53850001Y-91335000D03*
X53850001Y-90685000D03*
X53850001Y-90035000D03*
X51950001Y-90035000D03*
X51950001Y-91335000D03*
D37*
X50750001Y-88475001D03*
X50750001Y-89494999D03*
D38*
X52100001Y-88400000D03*
X53750001Y-88400000D03*
D41*
X58200000Y-97284999D03*
X58200000Y-95385001D03*
D38*
X52105001Y-86935000D03*
X53755001Y-86935000D03*
D40*
X56630001Y-91620000D03*
X55670001Y-91620000D03*
D39*
X50750001Y-91315000D03*
X50750001Y-90355000D03*
D35*
X58350002Y-89985000D03*
X55400000Y-89985000D03*
D36*
X53700000Y-97850000D03*
X53700000Y-93350000D03*
%LPD*%
M02*
