G04 #@! TF.GenerationSoftware,KiCad,Pcbnew,9.0.1-rc2*
G04 #@! TF.CreationDate,2025-11-09T15:09:06-08:00*
G04 #@! TF.ProjectId,bsl_drv_v1,62736c5f-6472-4765-9f76-312e6b696361,rev?*
G04 #@! TF.SameCoordinates,Original*
G04 #@! TF.FileFunction,Copper,L2,Inr*
G04 #@! TF.FilePolarity,Positive*
%FSLAX46Y46*%
G04 Gerber Fmt 4.6, Leading zero omitted, Abs format (unit mm)*
G04 Created by KiCad (PCBNEW 9.0.1-rc2) date 2025-11-09 15:09:06*
%MOMM*%
%LPD*%
G01*
G04 APERTURE LIST*
G04 #@! TA.AperFunction,ComponentPad*
%ADD10R,1.350000X1.350000*%
G04 #@! TD*
G04 #@! TA.AperFunction,ComponentPad*
%ADD11C,1.350000*%
G04 #@! TD*
G04 #@! TA.AperFunction,HeatsinkPad*
%ADD12O,2.100000X1.000000*%
G04 #@! TD*
G04 #@! TA.AperFunction,HeatsinkPad*
%ADD13O,1.600000X1.000000*%
G04 #@! TD*
G04 #@! TA.AperFunction,ViaPad*
%ADD14C,0.500000*%
G04 #@! TD*
G04 APERTURE END LIST*
D10*
X91000000Y-114200000D03*
D11*
X91000000Y-116200000D03*
X89000000Y-114200000D03*
X89000000Y-116200000D03*
X87000000Y-114200000D03*
X87000000Y-116200000D03*
X85000000Y-114200000D03*
X85000000Y-116200000D03*
X83000000Y-114200000D03*
X83000000Y-116200000D03*
X81000000Y-114200000D03*
X81000000Y-116200000D03*
X79000000Y-114200000D03*
X79000000Y-116200000D03*
X77000000Y-114200000D03*
X77000000Y-116200000D03*
X75000000Y-114200000D03*
X75000000Y-116200000D03*
X73000000Y-114200000D03*
X73000000Y-116200000D03*
D12*
X119243999Y-103282479D03*
D13*
X123423999Y-103282479D03*
D12*
X119243999Y-94642479D03*
D13*
X123423999Y-94642479D03*
D12*
X46730000Y-94680000D03*
D13*
X42550000Y-94680000D03*
D12*
X46730000Y-103320000D03*
D13*
X42550000Y-103320000D03*
D14*
X94250000Y-114150000D03*
X82000000Y-116900000D03*
X57500000Y-88250000D03*
X47000000Y-90000000D03*
X50750000Y-95750000D03*
X46000000Y-99250000D03*
X52250000Y-111750000D03*
X56000000Y-114750000D03*
X58250000Y-113500000D03*
X69879999Y-112865000D03*
X81649999Y-111500000D03*
X119000000Y-110000000D03*
X113750000Y-104500000D03*
X120000000Y-91000000D03*
X101000000Y-88250000D03*
X87250000Y-88000000D03*
X89750000Y-92750000D03*
X91750000Y-96750000D03*
X98000000Y-100250000D03*
X100750000Y-103750000D03*
X98750000Y-112000000D03*
X98000000Y-114750000D03*
X108000000Y-116500000D03*
X112000000Y-116500000D03*
X104000000Y-116500000D03*
X120000000Y-116500000D03*
X116000000Y-116500000D03*
X124000000Y-116500000D03*
X125000000Y-108499999D03*
X125000000Y-112499999D03*
X125000000Y-92500000D03*
X125000000Y-104499999D03*
X125000000Y-100500000D03*
X125000000Y-96499999D03*
X125000000Y-87500000D03*
X120000000Y-86500000D03*
X113500000Y-86500000D03*
X109500000Y-86500000D03*
X105500000Y-86500000D03*
X101500000Y-86500000D03*
X97500000Y-86500000D03*
X93500000Y-86500000D03*
X89500000Y-86500000D03*
X85500000Y-86500000D03*
X67500000Y-86500000D03*
X46000000Y-116500000D03*
X42000000Y-116500000D03*
X50000000Y-116500000D03*
X41000000Y-112499999D03*
X41000000Y-108499999D03*
X41000000Y-100500000D03*
X41000000Y-104499999D03*
X41000000Y-92500000D03*
X41000000Y-96499999D03*
X48500000Y-86500000D03*
X44500000Y-86500000D03*
X41000000Y-87500000D03*
X117275000Y-103575000D03*
X116925000Y-102975000D03*
X116575000Y-103575000D03*
X117625000Y-102975000D03*
X117725000Y-94950000D03*
X117300000Y-94400000D03*
X98650000Y-95850000D03*
X98650000Y-94925000D03*
X95600000Y-91250000D03*
X95600000Y-90100000D03*
X100400000Y-90700000D03*
X99350000Y-93900000D03*
X112400000Y-104150000D03*
X107793959Y-99443959D03*
X108000000Y-100200000D03*
X48950000Y-93775000D03*
X47550000Y-104175000D03*
X99750000Y-99352000D03*
X102800000Y-103500000D03*
X103258739Y-102971264D03*
X70500000Y-111100000D03*
X103374000Y-101550000D03*
X103958732Y-102975000D03*
X107484438Y-92340562D03*
X106400000Y-88000000D03*
X106800000Y-92800000D03*
X106400000Y-88900000D03*
X106000000Y-92400000D03*
X105600000Y-90400000D03*
X103494426Y-89855574D03*
X102400000Y-89925000D03*
X101750000Y-90450000D03*
X106225000Y-101475000D03*
X119750000Y-106350000D03*
X100950000Y-91350000D03*
X99950000Y-106800000D03*
X100625000Y-97426000D03*
X93500000Y-90850000D03*
X89700000Y-90850000D03*
X89500000Y-94650000D03*
X93500000Y-94650000D03*
X112550000Y-110050000D03*
X119750000Y-105050000D03*
X106750000Y-105750000D03*
X106750000Y-106550000D03*
X110750000Y-111100000D03*
X110750000Y-111750000D03*
X110650000Y-112700000D03*
X110200000Y-112200000D03*
X99900000Y-101350000D03*
X106399999Y-94250000D03*
X113225000Y-97700000D03*
X107574999Y-88950000D03*
X103649999Y-106800000D03*
X63699998Y-89400000D03*
X54299998Y-89400000D03*
X65400002Y-109500000D03*
X73099997Y-89400000D03*
X74800002Y-109500000D03*
X93600002Y-109500000D03*
X56000002Y-109500000D03*
X82499998Y-89400000D03*
X84200002Y-109500000D03*
X48250000Y-103000000D03*
X43300000Y-107762499D03*
X96000000Y-88800000D03*
X45624999Y-105900000D03*
X96700000Y-93800000D03*
X104799999Y-88100000D03*
X114385000Y-94400000D03*
X104799999Y-101550000D03*
X50275000Y-110300000D03*
X113724999Y-91300000D03*
X47100000Y-108575000D03*
X66399998Y-95000000D03*
X56999998Y-95000000D03*
X62700002Y-103900000D03*
X75799998Y-95000000D03*
X72100002Y-103900000D03*
X90900002Y-103900000D03*
X81500002Y-103900000D03*
X53300002Y-103900000D03*
X85199998Y-95000000D03*
X106800000Y-104600000D03*
X113724999Y-92000000D03*
X107799999Y-104600000D03*
X48950000Y-104175000D03*
X64899998Y-88600000D03*
X55499998Y-88600000D03*
X64200002Y-110300000D03*
X74299997Y-88600000D03*
X73600002Y-110300000D03*
X92400002Y-110300000D03*
X54800002Y-110300000D03*
X83699998Y-88600000D03*
X83000002Y-110300000D03*
X48950000Y-103000000D03*
X103649999Y-110750000D03*
X105199999Y-95450000D03*
X109699999Y-101550000D03*
X105794999Y-94870000D03*
X48600000Y-103600000D03*
X64420226Y-91611023D03*
X55020226Y-91611023D03*
X64679774Y-107288977D03*
X73820225Y-91611023D03*
X74079774Y-107288977D03*
X92879774Y-107288977D03*
X55279774Y-107288977D03*
X83220226Y-91611023D03*
X83479774Y-107288977D03*
X62499998Y-90700000D03*
X53099998Y-90700000D03*
X66600002Y-108200000D03*
X71899997Y-90700000D03*
X76000002Y-108200000D03*
X94800002Y-108200001D03*
X57200002Y-108200000D03*
X81299998Y-90700000D03*
X85400002Y-108200000D03*
X105199999Y-94250000D03*
X100100000Y-93900000D03*
X99600000Y-90300000D03*
X48250000Y-95000000D03*
X48250000Y-104175000D03*
X49300000Y-94400000D03*
X64099998Y-88600000D03*
X54699998Y-88600000D03*
X65000002Y-110300000D03*
X73499997Y-88600001D03*
X74400002Y-110300000D03*
X93200002Y-110300000D03*
X55600002Y-110300000D03*
X82899998Y-88600000D03*
X83800002Y-110300000D03*
X95600000Y-92500000D03*
X66399998Y-95799999D03*
X56999998Y-95800000D03*
X62700002Y-103100001D03*
X75799997Y-95800000D03*
X72100002Y-103100001D03*
X90900003Y-103100000D03*
X53300002Y-103100001D03*
X85199998Y-95799999D03*
X81500002Y-103100001D03*
X45950000Y-112862498D03*
X116510000Y-96600000D03*
X98500000Y-88800000D03*
X115299999Y-86550000D03*
X106399999Y-95450000D03*
X64099997Y-87800000D03*
X54699998Y-87800000D03*
X65000003Y-111100000D03*
X73499997Y-87800000D03*
X74400003Y-111100000D03*
X93200002Y-111100000D03*
X55600003Y-111100000D03*
X82899997Y-87800000D03*
X83800003Y-111100000D03*
X115699999Y-99400000D03*
X108749999Y-101550000D03*
X60799998Y-90700000D03*
X51399998Y-90700001D03*
X68300002Y-108200000D03*
X70199997Y-90700000D03*
X77700002Y-108200000D03*
X96500002Y-108200000D03*
X58900002Y-108200000D03*
X79599998Y-90700000D03*
X87100002Y-108200000D03*
X113499999Y-100200000D03*
X48950000Y-95000000D03*
X48600000Y-94400000D03*
X49300000Y-95600000D03*
X113224999Y-98450000D03*
X113224999Y-94400000D03*
X113234047Y-95130000D03*
X91319999Y-109565000D03*
X90619999Y-109565000D03*
X56580001Y-89335000D03*
X57280001Y-89335000D03*
X75380000Y-89335000D03*
X76080001Y-89335000D03*
X63119999Y-109565000D03*
X62419999Y-109565000D03*
X72519999Y-109565000D03*
X71819999Y-109565000D03*
X65980001Y-89335000D03*
X66680001Y-89335000D03*
X81919999Y-109565000D03*
X81219999Y-109565000D03*
X109650000Y-107312500D03*
X103974999Y-89050000D03*
X118100000Y-87100000D03*
X107579999Y-89910001D03*
X103974998Y-99855000D03*
X97700002Y-107000000D03*
X78900002Y-107000000D03*
X88300002Y-107000000D03*
X109650000Y-105000000D03*
X103320132Y-94919999D03*
X110719999Y-95320000D03*
X111444999Y-99150000D03*
X48800000Y-105725000D03*
X53125000Y-99675000D03*
X119498999Y-98712479D03*
X119498999Y-99732479D03*
X96750000Y-111500000D03*
X96750000Y-112200000D03*
X51150000Y-87400000D03*
X51150000Y-86700000D03*
X69949999Y-87400000D03*
X69949999Y-86700000D03*
X68550000Y-111500000D03*
X68550000Y-112200000D03*
X60550000Y-87400000D03*
X60550000Y-86700000D03*
X77950000Y-111500000D03*
X77950000Y-112200000D03*
X87350000Y-111500000D03*
X87350000Y-112200000D03*
X97700002Y-111000000D03*
X50199998Y-87900000D03*
X68999997Y-87899999D03*
X59599998Y-87900000D03*
X78900002Y-111000000D03*
X88300002Y-111000000D03*
X84780001Y-89335000D03*
X85480001Y-89335000D03*
X53719999Y-109565000D03*
X53019999Y-109565000D03*
X59150000Y-111500000D03*
X59150000Y-112200000D03*
X79350000Y-87400000D03*
X79350000Y-86700000D03*
X78399998Y-87900000D03*
X60100002Y-111000000D03*
X107574999Y-87850000D03*
X69500002Y-111000000D03*
X78399998Y-91900000D03*
X60100002Y-107000000D03*
X50199998Y-91900000D03*
X59599998Y-91900000D03*
X68999997Y-91899999D03*
X69500002Y-107000000D03*
G04 #@! TA.AperFunction,Conductor*
G36*
X120865538Y-86019407D02*
G01*
X120901502Y-86068907D01*
X120901502Y-86130093D01*
X120865538Y-86179593D01*
X120862349Y-86181815D01*
X120823137Y-86208015D01*
X120708015Y-86323137D01*
X120617563Y-86458506D01*
X120617563Y-86458507D01*
X120555262Y-86608917D01*
X120555262Y-86608919D01*
X120523500Y-86768594D01*
X120523500Y-86768597D01*
X120523500Y-86931403D01*
X120553470Y-87082074D01*
X120555262Y-87091080D01*
X120555262Y-87091082D01*
X120617563Y-87241492D01*
X120617563Y-87241493D01*
X120707849Y-87376613D01*
X120708016Y-87376863D01*
X120823137Y-87491984D01*
X120958505Y-87582435D01*
X121108919Y-87644738D01*
X121268597Y-87676500D01*
X121268598Y-87676500D01*
X121331092Y-87676500D01*
X121389283Y-87695407D01*
X121425247Y-87744907D01*
X121425247Y-87806093D01*
X121401097Y-87845501D01*
X121305908Y-87940691D01*
X121266673Y-87979926D01*
X121083100Y-88219164D01*
X120932311Y-88480339D01*
X120816913Y-88758936D01*
X120816909Y-88758949D01*
X120738859Y-89050234D01*
X120738859Y-89050239D01*
X120699498Y-89349215D01*
X120699498Y-89650784D01*
X120738859Y-89949760D01*
X120738859Y-89949765D01*
X120767350Y-90056094D01*
X120812905Y-90226109D01*
X120816909Y-90241050D01*
X120816913Y-90241063D01*
X120932311Y-90519660D01*
X120932313Y-90519664D01*
X120932315Y-90519668D01*
X121051792Y-90726608D01*
X121083100Y-90780835D01*
X121266673Y-91020073D01*
X121266675Y-91020075D01*
X121266679Y-91020080D01*
X121479918Y-91233319D01*
X121479922Y-91233322D01*
X121479924Y-91233324D01*
X121719162Y-91416897D01*
X121719166Y-91416900D01*
X121980330Y-91567683D01*
X122258940Y-91683087D01*
X122550230Y-91761138D01*
X122849215Y-91800500D01*
X122849216Y-91800500D01*
X123150780Y-91800500D01*
X123150781Y-91800500D01*
X123449766Y-91761138D01*
X123741056Y-91683087D01*
X124019666Y-91567683D01*
X124280830Y-91416900D01*
X124520078Y-91233319D01*
X124733317Y-91020080D01*
X124916898Y-90780832D01*
X125067681Y-90519668D01*
X125183085Y-90241058D01*
X125261136Y-89949768D01*
X125300498Y-89650783D01*
X125300498Y-89349217D01*
X125261136Y-89050232D01*
X125183085Y-88758942D01*
X125067681Y-88480332D01*
X124916898Y-88219168D01*
X124910238Y-88210489D01*
X124733322Y-87979926D01*
X124733320Y-87979924D01*
X124733317Y-87979920D01*
X124520078Y-87766681D01*
X124520073Y-87766677D01*
X124520071Y-87766675D01*
X124280833Y-87583102D01*
X124280830Y-87583100D01*
X124019666Y-87432317D01*
X124019662Y-87432315D01*
X124019658Y-87432313D01*
X123741061Y-87316915D01*
X123741060Y-87316914D01*
X123741056Y-87316913D01*
X123449766Y-87238862D01*
X123449763Y-87238861D01*
X123449761Y-87238861D01*
X123150782Y-87199500D01*
X123150781Y-87199500D01*
X122849215Y-87199500D01*
X122849213Y-87199500D01*
X122550237Y-87238861D01*
X122550232Y-87238861D01*
X122314032Y-87302151D01*
X122258940Y-87316913D01*
X122229377Y-87329158D01*
X122228982Y-87329322D01*
X122167985Y-87334121D01*
X122115817Y-87302151D01*
X122092403Y-87245623D01*
X122099633Y-87199973D01*
X122144738Y-87091081D01*
X122176500Y-86931403D01*
X122176500Y-86768597D01*
X122144738Y-86608919D01*
X122082436Y-86458507D01*
X122082436Y-86458506D01*
X121991984Y-86323137D01*
X121876862Y-86208015D01*
X121837651Y-86181815D01*
X121799772Y-86133765D01*
X121797370Y-86072627D01*
X121831363Y-86021753D01*
X121888767Y-86000576D01*
X121892653Y-86000500D01*
X123934108Y-86000500D01*
X123996460Y-86000500D01*
X124003522Y-86000752D01*
X124028505Y-86002538D01*
X124206345Y-86015258D01*
X124220308Y-86017265D01*
X124415549Y-86059737D01*
X124429088Y-86063713D01*
X124616292Y-86133537D01*
X124629118Y-86139394D01*
X124804483Y-86235150D01*
X124816355Y-86242780D01*
X124866345Y-86280202D01*
X124976290Y-86362506D01*
X124986965Y-86371755D01*
X125128241Y-86513031D01*
X125137491Y-86523707D01*
X125257216Y-86683641D01*
X125264852Y-86695523D01*
X125360599Y-86870870D01*
X125366467Y-86883719D01*
X125436284Y-87070903D01*
X125440264Y-87084456D01*
X125482732Y-87279680D01*
X125484742Y-87293661D01*
X125499247Y-87496461D01*
X125499499Y-87503524D01*
X125499500Y-115434107D01*
X125499500Y-115496459D01*
X125499248Y-115503522D01*
X125484742Y-115706336D01*
X125482732Y-115720317D01*
X125440264Y-115915542D01*
X125436284Y-115929095D01*
X125366466Y-116116284D01*
X125360598Y-116129132D01*
X125360598Y-116129133D01*
X125264855Y-116304473D01*
X125257219Y-116316355D01*
X125137492Y-116476292D01*
X125128242Y-116486968D01*
X124986968Y-116628242D01*
X124976292Y-116637492D01*
X124816355Y-116757219D01*
X124804473Y-116764855D01*
X124629133Y-116860598D01*
X124616284Y-116866466D01*
X124429095Y-116936284D01*
X124415542Y-116940264D01*
X124220317Y-116982732D01*
X124206336Y-116984742D01*
X124003536Y-116999247D01*
X123996473Y-116999499D01*
X94928045Y-116999499D01*
X94928029Y-116999500D01*
X94892679Y-116999500D01*
X94680235Y-117030044D01*
X94680234Y-117030044D01*
X94474295Y-117090513D01*
X94279049Y-117179679D01*
X94279042Y-117179682D01*
X94098495Y-117295713D01*
X94098483Y-117295722D01*
X93936285Y-117436266D01*
X93936267Y-117436284D01*
X93795723Y-117598481D01*
X93795714Y-117598493D01*
X93679684Y-117779040D01*
X93679680Y-117779048D01*
X93590513Y-117974294D01*
X93530046Y-118180229D01*
X93530045Y-118180235D01*
X93499500Y-118392676D01*
X93499500Y-118494452D01*
X93498877Y-118505537D01*
X93488226Y-118600061D01*
X93483293Y-118621674D01*
X93453717Y-118706197D01*
X93444099Y-118726169D01*
X93396461Y-118801986D01*
X93382639Y-118819320D01*
X93319320Y-118882639D01*
X93301987Y-118896460D01*
X93301986Y-118896461D01*
X93226169Y-118944099D01*
X93206197Y-118953717D01*
X93121674Y-118983293D01*
X93100061Y-118988226D01*
X93005537Y-118998877D01*
X92994452Y-118999500D01*
X71005561Y-118999500D01*
X70994478Y-118998878D01*
X70973497Y-118996514D01*
X70899932Y-118988226D01*
X70878318Y-118983292D01*
X70793805Y-118953719D01*
X70773833Y-118944101D01*
X70698011Y-118896460D01*
X70680682Y-118882642D01*
X70617354Y-118819313D01*
X70603544Y-118801995D01*
X70555896Y-118726165D01*
X70546282Y-118706202D01*
X70516704Y-118621669D01*
X70511775Y-118600073D01*
X70501123Y-118505537D01*
X70500502Y-118494469D01*
X70500502Y-118392675D01*
X70482174Y-118265209D01*
X70469956Y-118180229D01*
X70409486Y-117974288D01*
X70320323Y-117779048D01*
X70204282Y-117598485D01*
X70063725Y-117436274D01*
X69901520Y-117295722D01*
X69901518Y-117295720D01*
X69901506Y-117295711D01*
X69720960Y-117179682D01*
X69720954Y-117179679D01*
X69720951Y-117179677D01*
X69525711Y-117090514D01*
X69525706Y-117090512D01*
X69525705Y-117090512D01*
X69319770Y-117030044D01*
X69319764Y-117030043D01*
X69107323Y-116999498D01*
X69107318Y-116999498D01*
X69000000Y-116999498D01*
X68934108Y-116999498D01*
X68934107Y-116999498D01*
X42003523Y-116999498D01*
X41996461Y-116999246D01*
X41793663Y-116984742D01*
X41779681Y-116982732D01*
X41584457Y-116940264D01*
X41570904Y-116936284D01*
X41383715Y-116866466D01*
X41370875Y-116860602D01*
X41195525Y-116764854D01*
X41183643Y-116757218D01*
X41023709Y-116637493D01*
X41013033Y-116628243D01*
X40871755Y-116486965D01*
X40862506Y-116476290D01*
X40846849Y-116455375D01*
X40742780Y-116316355D01*
X40735145Y-116304474D01*
X40639394Y-116129117D01*
X40633537Y-116116291D01*
X40632596Y-116113768D01*
X72124500Y-116113768D01*
X72124500Y-116286231D01*
X72158145Y-116455373D01*
X72158145Y-116455375D01*
X72224139Y-116614700D01*
X72224145Y-116614712D01*
X72292660Y-116717249D01*
X72319955Y-116758099D01*
X72441901Y-116880045D01*
X72503034Y-116920893D01*
X72585287Y-116975854D01*
X72585299Y-116975860D01*
X72641759Y-116999246D01*
X72744626Y-117041855D01*
X72913771Y-117075500D01*
X72913772Y-117075500D01*
X73086228Y-117075500D01*
X73086229Y-117075500D01*
X73255374Y-117041855D01*
X73414705Y-116975858D01*
X73414707Y-116975856D01*
X73414712Y-116975854D01*
X73470226Y-116938760D01*
X73558099Y-116880045D01*
X73680045Y-116758099D01*
X73763469Y-116633247D01*
X73775854Y-116614712D01*
X73775860Y-116614700D01*
X73828768Y-116486968D01*
X73841855Y-116455374D01*
X73875500Y-116286229D01*
X73875500Y-116113771D01*
X73875499Y-116113768D01*
X74124500Y-116113768D01*
X74124500Y-116286231D01*
X74158145Y-116455373D01*
X74158145Y-116455375D01*
X74224139Y-116614700D01*
X74224145Y-116614712D01*
X74292660Y-116717249D01*
X74319955Y-116758099D01*
X74441901Y-116880045D01*
X74503034Y-116920893D01*
X74585287Y-116975854D01*
X74585299Y-116975860D01*
X74641759Y-116999246D01*
X74744626Y-117041855D01*
X74913771Y-117075500D01*
X74913772Y-117075500D01*
X75086228Y-117075500D01*
X75086229Y-117075500D01*
X75255374Y-117041855D01*
X75414705Y-116975858D01*
X75414707Y-116975856D01*
X75414712Y-116975854D01*
X75470226Y-116938760D01*
X75558099Y-116880045D01*
X75680045Y-116758099D01*
X75763469Y-116633247D01*
X75775854Y-116614712D01*
X75775860Y-116614700D01*
X75828768Y-116486968D01*
X75841855Y-116455374D01*
X75875500Y-116286229D01*
X75875500Y-116113771D01*
X75875499Y-116113768D01*
X76124500Y-116113768D01*
X76124500Y-116286231D01*
X76158145Y-116455373D01*
X76158145Y-116455375D01*
X76224139Y-116614700D01*
X76224145Y-116614712D01*
X76292660Y-116717249D01*
X76319955Y-116758099D01*
X76441901Y-116880045D01*
X76503034Y-116920893D01*
X76585287Y-116975854D01*
X76585299Y-116975860D01*
X76641759Y-116999246D01*
X76744626Y-117041855D01*
X76913771Y-117075500D01*
X76913772Y-117075500D01*
X77086228Y-117075500D01*
X77086229Y-117075500D01*
X77255374Y-117041855D01*
X77414705Y-116975858D01*
X77414707Y-116975856D01*
X77414712Y-116975854D01*
X77470226Y-116938760D01*
X77558099Y-116880045D01*
X77680045Y-116758099D01*
X77763469Y-116633247D01*
X77775854Y-116614712D01*
X77775860Y-116614700D01*
X77828768Y-116486968D01*
X77841855Y-116455374D01*
X77875500Y-116286229D01*
X77875500Y-116113771D01*
X77875499Y-116113768D01*
X78124500Y-116113768D01*
X78124500Y-116286231D01*
X78158145Y-116455373D01*
X78158145Y-116455375D01*
X78224139Y-116614700D01*
X78224145Y-116614712D01*
X78292660Y-116717249D01*
X78319955Y-116758099D01*
X78441901Y-116880045D01*
X78503034Y-116920893D01*
X78585287Y-116975854D01*
X78585299Y-116975860D01*
X78641759Y-116999246D01*
X78744626Y-117041855D01*
X78913771Y-117075500D01*
X78913772Y-117075500D01*
X79086228Y-117075500D01*
X79086229Y-117075500D01*
X79255374Y-117041855D01*
X79414705Y-116975858D01*
X79414707Y-116975856D01*
X79414712Y-116975854D01*
X79470226Y-116938760D01*
X79558099Y-116880045D01*
X79680045Y-116758099D01*
X79763469Y-116633247D01*
X79775854Y-116614712D01*
X79775860Y-116614700D01*
X79828768Y-116486968D01*
X79841855Y-116455374D01*
X79875500Y-116286229D01*
X79875500Y-116113771D01*
X79875499Y-116113768D01*
X80124500Y-116113768D01*
X80124500Y-116286231D01*
X80158145Y-116455373D01*
X80158145Y-116455375D01*
X80224139Y-116614700D01*
X80224145Y-116614712D01*
X80292660Y-116717249D01*
X80319955Y-116758099D01*
X80441901Y-116880045D01*
X80503034Y-116920893D01*
X80585287Y-116975854D01*
X80585299Y-116975860D01*
X80641759Y-116999246D01*
X80744626Y-117041855D01*
X80913771Y-117075500D01*
X80913772Y-117075500D01*
X81086228Y-117075500D01*
X81086229Y-117075500D01*
X81255374Y-117041855D01*
X81414705Y-116975858D01*
X81414707Y-116975856D01*
X81414712Y-116975854D01*
X81470226Y-116938760D01*
X81558099Y-116880045D01*
X81680045Y-116758099D01*
X81763469Y-116633247D01*
X81775854Y-116614712D01*
X81775860Y-116614700D01*
X81828768Y-116486968D01*
X81841855Y-116455374D01*
X81875500Y-116286229D01*
X81875500Y-116113771D01*
X81875499Y-116113768D01*
X82124500Y-116113768D01*
X82124500Y-116286231D01*
X82158145Y-116455373D01*
X82158145Y-116455375D01*
X82224139Y-116614700D01*
X82224145Y-116614712D01*
X82292660Y-116717249D01*
X82319955Y-116758099D01*
X82441901Y-116880045D01*
X82503034Y-116920893D01*
X82585287Y-116975854D01*
X82585299Y-116975860D01*
X82641759Y-116999246D01*
X82744626Y-117041855D01*
X82913771Y-117075500D01*
X82913772Y-117075500D01*
X83086228Y-117075500D01*
X83086229Y-117075500D01*
X83255374Y-117041855D01*
X83414705Y-116975858D01*
X83414707Y-116975856D01*
X83414712Y-116975854D01*
X83470226Y-116938760D01*
X83558099Y-116880045D01*
X83680045Y-116758099D01*
X83763469Y-116633247D01*
X83775854Y-116614712D01*
X83775860Y-116614700D01*
X83828768Y-116486968D01*
X83841855Y-116455374D01*
X83875500Y-116286229D01*
X83875500Y-116113771D01*
X83875499Y-116113768D01*
X84124500Y-116113768D01*
X84124500Y-116286231D01*
X84158145Y-116455373D01*
X84158145Y-116455375D01*
X84224139Y-116614700D01*
X84224145Y-116614712D01*
X84292660Y-116717249D01*
X84319955Y-116758099D01*
X84441901Y-116880045D01*
X84503034Y-116920893D01*
X84585287Y-116975854D01*
X84585299Y-116975860D01*
X84641759Y-116999246D01*
X84744626Y-117041855D01*
X84913771Y-117075500D01*
X84913772Y-117075500D01*
X85086228Y-117075500D01*
X85086229Y-117075500D01*
X85255374Y-117041855D01*
X85414705Y-116975858D01*
X85414707Y-116975856D01*
X85414712Y-116975854D01*
X85470226Y-116938760D01*
X85558099Y-116880045D01*
X85680045Y-116758099D01*
X85763469Y-116633247D01*
X85775854Y-116614712D01*
X85775860Y-116614700D01*
X85828768Y-116486968D01*
X85841855Y-116455374D01*
X85875500Y-116286229D01*
X85875500Y-116113771D01*
X85875499Y-116113768D01*
X86124500Y-116113768D01*
X86124500Y-116286231D01*
X86158145Y-116455373D01*
X86158145Y-116455375D01*
X86224139Y-116614700D01*
X86224145Y-116614712D01*
X86292660Y-116717249D01*
X86319955Y-116758099D01*
X86441901Y-116880045D01*
X86503034Y-116920893D01*
X86585287Y-116975854D01*
X86585299Y-116975860D01*
X86641759Y-116999246D01*
X86744626Y-117041855D01*
X86913771Y-117075500D01*
X86913772Y-117075500D01*
X87086228Y-117075500D01*
X87086229Y-117075500D01*
X87255374Y-117041855D01*
X87414705Y-116975858D01*
X87414707Y-116975856D01*
X87414712Y-116975854D01*
X87470226Y-116938760D01*
X87558099Y-116880045D01*
X87680045Y-116758099D01*
X87763469Y-116633247D01*
X87775854Y-116614712D01*
X87775860Y-116614700D01*
X87828768Y-116486968D01*
X87841855Y-116455374D01*
X87875500Y-116286229D01*
X87875500Y-116113771D01*
X87875499Y-116113768D01*
X88124500Y-116113768D01*
X88124500Y-116286231D01*
X88158145Y-116455373D01*
X88158145Y-116455375D01*
X88224139Y-116614700D01*
X88224145Y-116614712D01*
X88292660Y-116717249D01*
X88319955Y-116758099D01*
X88441901Y-116880045D01*
X88503034Y-116920893D01*
X88585287Y-116975854D01*
X88585299Y-116975860D01*
X88641759Y-116999246D01*
X88744626Y-117041855D01*
X88913771Y-117075500D01*
X88913772Y-117075500D01*
X89086228Y-117075500D01*
X89086229Y-117075500D01*
X89255374Y-117041855D01*
X89414705Y-116975858D01*
X89414707Y-116975856D01*
X89414712Y-116975854D01*
X89470226Y-116938760D01*
X89558099Y-116880045D01*
X89680045Y-116758099D01*
X89763469Y-116633247D01*
X89775854Y-116614712D01*
X89775860Y-116614700D01*
X89828768Y-116486968D01*
X89841855Y-116455374D01*
X89875500Y-116286229D01*
X89875500Y-116113771D01*
X89875499Y-116113768D01*
X90124500Y-116113768D01*
X90124500Y-116286231D01*
X90158145Y-116455373D01*
X90158145Y-116455375D01*
X90224139Y-116614700D01*
X90224145Y-116614712D01*
X90292660Y-116717249D01*
X90319955Y-116758099D01*
X90441901Y-116880045D01*
X90503034Y-116920893D01*
X90585287Y-116975854D01*
X90585299Y-116975860D01*
X90641759Y-116999246D01*
X90744626Y-117041855D01*
X90913771Y-117075500D01*
X90913772Y-117075500D01*
X91086228Y-117075500D01*
X91086229Y-117075500D01*
X91255374Y-117041855D01*
X91414705Y-116975858D01*
X91414707Y-116975856D01*
X91414712Y-116975854D01*
X91470226Y-116938760D01*
X91558099Y-116880045D01*
X91680045Y-116758099D01*
X91763469Y-116633247D01*
X91775854Y-116614712D01*
X91775860Y-116614700D01*
X91828768Y-116486968D01*
X91841855Y-116455374D01*
X91875500Y-116286229D01*
X91875500Y-116113771D01*
X91841855Y-115944626D01*
X91775858Y-115785295D01*
X91775854Y-115785287D01*
X91686292Y-115651251D01*
X91680045Y-115641901D01*
X91558099Y-115519955D01*
X91517249Y-115492660D01*
X91414712Y-115424145D01*
X91414700Y-115424139D01*
X91255374Y-115358145D01*
X91086231Y-115324500D01*
X91086229Y-115324500D01*
X90913771Y-115324500D01*
X90913768Y-115324500D01*
X90744626Y-115358145D01*
X90744624Y-115358145D01*
X90585299Y-115424139D01*
X90585287Y-115424145D01*
X90441901Y-115519955D01*
X90441897Y-115519958D01*
X90319958Y-115641897D01*
X90319955Y-115641901D01*
X90224145Y-115785287D01*
X90224139Y-115785299D01*
X90158145Y-115944624D01*
X90158145Y-115944626D01*
X90124500Y-116113768D01*
X89875499Y-116113768D01*
X89841855Y-115944626D01*
X89775858Y-115785295D01*
X89775854Y-115785287D01*
X89686292Y-115651251D01*
X89680045Y-115641901D01*
X89558099Y-115519955D01*
X89517249Y-115492660D01*
X89414712Y-115424145D01*
X89414700Y-115424139D01*
X89255374Y-115358145D01*
X89086231Y-115324500D01*
X89086229Y-115324500D01*
X88913771Y-115324500D01*
X88913768Y-115324500D01*
X88744626Y-115358145D01*
X88744624Y-115358145D01*
X88585299Y-115424139D01*
X88585287Y-115424145D01*
X88441901Y-115519955D01*
X88441897Y-115519958D01*
X88319958Y-115641897D01*
X88319955Y-115641901D01*
X88224145Y-115785287D01*
X88224139Y-115785299D01*
X88158145Y-115944624D01*
X88158145Y-115944626D01*
X88124500Y-116113768D01*
X87875499Y-116113768D01*
X87841855Y-115944626D01*
X87775858Y-115785295D01*
X87775854Y-115785287D01*
X87686292Y-115651251D01*
X87680045Y-115641901D01*
X87558099Y-115519955D01*
X87517249Y-115492660D01*
X87414712Y-115424145D01*
X87414700Y-115424139D01*
X87255374Y-115358145D01*
X87086231Y-115324500D01*
X87086229Y-115324500D01*
X86913771Y-115324500D01*
X86913768Y-115324500D01*
X86744626Y-115358145D01*
X86744624Y-115358145D01*
X86585299Y-115424139D01*
X86585287Y-115424145D01*
X86441901Y-115519955D01*
X86441897Y-115519958D01*
X86319958Y-115641897D01*
X86319955Y-115641901D01*
X86224145Y-115785287D01*
X86224139Y-115785299D01*
X86158145Y-115944624D01*
X86158145Y-115944626D01*
X86124500Y-116113768D01*
X85875499Y-116113768D01*
X85841855Y-115944626D01*
X85775858Y-115785295D01*
X85775854Y-115785287D01*
X85686292Y-115651251D01*
X85680045Y-115641901D01*
X85558099Y-115519955D01*
X85517249Y-115492660D01*
X85414712Y-115424145D01*
X85414700Y-115424139D01*
X85255374Y-115358145D01*
X85086231Y-115324500D01*
X85086229Y-115324500D01*
X84913771Y-115324500D01*
X84913768Y-115324500D01*
X84744626Y-115358145D01*
X84744624Y-115358145D01*
X84585299Y-115424139D01*
X84585287Y-115424145D01*
X84441901Y-115519955D01*
X84441897Y-115519958D01*
X84319958Y-115641897D01*
X84319955Y-115641901D01*
X84224145Y-115785287D01*
X84224139Y-115785299D01*
X84158145Y-115944624D01*
X84158145Y-115944626D01*
X84124500Y-116113768D01*
X83875499Y-116113768D01*
X83841855Y-115944626D01*
X83775858Y-115785295D01*
X83775854Y-115785287D01*
X83686292Y-115651251D01*
X83680045Y-115641901D01*
X83558099Y-115519955D01*
X83517249Y-115492660D01*
X83414712Y-115424145D01*
X83414700Y-115424139D01*
X83255374Y-115358145D01*
X83086231Y-115324500D01*
X83086229Y-115324500D01*
X82913771Y-115324500D01*
X82913768Y-115324500D01*
X82744626Y-115358145D01*
X82744624Y-115358145D01*
X82585299Y-115424139D01*
X82585287Y-115424145D01*
X82441901Y-115519955D01*
X82441897Y-115519958D01*
X82319958Y-115641897D01*
X82319955Y-115641901D01*
X82224145Y-115785287D01*
X82224139Y-115785299D01*
X82158145Y-115944624D01*
X82158145Y-115944626D01*
X82124500Y-116113768D01*
X81875499Y-116113768D01*
X81841855Y-115944626D01*
X81775858Y-115785295D01*
X81775854Y-115785287D01*
X81686292Y-115651251D01*
X81680045Y-115641901D01*
X81558099Y-115519955D01*
X81517249Y-115492660D01*
X81414712Y-115424145D01*
X81414700Y-115424139D01*
X81255374Y-115358145D01*
X81086231Y-115324500D01*
X81086229Y-115324500D01*
X80913771Y-115324500D01*
X80913768Y-115324500D01*
X80744626Y-115358145D01*
X80744624Y-115358145D01*
X80585299Y-115424139D01*
X80585287Y-115424145D01*
X80441901Y-115519955D01*
X80441897Y-115519958D01*
X80319958Y-115641897D01*
X80319955Y-115641901D01*
X80224145Y-115785287D01*
X80224139Y-115785299D01*
X80158145Y-115944624D01*
X80158145Y-115944626D01*
X80124500Y-116113768D01*
X79875499Y-116113768D01*
X79841855Y-115944626D01*
X79775858Y-115785295D01*
X79775854Y-115785287D01*
X79686292Y-115651251D01*
X79680045Y-115641901D01*
X79558099Y-115519955D01*
X79517249Y-115492660D01*
X79414712Y-115424145D01*
X79414700Y-115424139D01*
X79255374Y-115358145D01*
X79086231Y-115324500D01*
X79086229Y-115324500D01*
X78913771Y-115324500D01*
X78913768Y-115324500D01*
X78744626Y-115358145D01*
X78744624Y-115358145D01*
X78585299Y-115424139D01*
X78585287Y-115424145D01*
X78441901Y-115519955D01*
X78441897Y-115519958D01*
X78319958Y-115641897D01*
X78319955Y-115641901D01*
X78224145Y-115785287D01*
X78224139Y-115785299D01*
X78158145Y-115944624D01*
X78158145Y-115944626D01*
X78124500Y-116113768D01*
X77875499Y-116113768D01*
X77841855Y-115944626D01*
X77775858Y-115785295D01*
X77775854Y-115785287D01*
X77686292Y-115651251D01*
X77680045Y-115641901D01*
X77558099Y-115519955D01*
X77517249Y-115492660D01*
X77414712Y-115424145D01*
X77414700Y-115424139D01*
X77255374Y-115358145D01*
X77086231Y-115324500D01*
X77086229Y-115324500D01*
X76913771Y-115324500D01*
X76913768Y-115324500D01*
X76744626Y-115358145D01*
X76744624Y-115358145D01*
X76585299Y-115424139D01*
X76585287Y-115424145D01*
X76441901Y-115519955D01*
X76441897Y-115519958D01*
X76319958Y-115641897D01*
X76319955Y-115641901D01*
X76224145Y-115785287D01*
X76224139Y-115785299D01*
X76158145Y-115944624D01*
X76158145Y-115944626D01*
X76124500Y-116113768D01*
X75875499Y-116113768D01*
X75841855Y-115944626D01*
X75775858Y-115785295D01*
X75775854Y-115785287D01*
X75686292Y-115651251D01*
X75680045Y-115641901D01*
X75558099Y-115519955D01*
X75517249Y-115492660D01*
X75414712Y-115424145D01*
X75414700Y-115424139D01*
X75255374Y-115358145D01*
X75086231Y-115324500D01*
X75086229Y-115324500D01*
X74913771Y-115324500D01*
X74913768Y-115324500D01*
X74744626Y-115358145D01*
X74744624Y-115358145D01*
X74585299Y-115424139D01*
X74585287Y-115424145D01*
X74441901Y-115519955D01*
X74441897Y-115519958D01*
X74319958Y-115641897D01*
X74319955Y-115641901D01*
X74224145Y-115785287D01*
X74224139Y-115785299D01*
X74158145Y-115944624D01*
X74158145Y-115944626D01*
X74124500Y-116113768D01*
X73875499Y-116113768D01*
X73841855Y-115944626D01*
X73775858Y-115785295D01*
X73775854Y-115785287D01*
X73686292Y-115651251D01*
X73680045Y-115641901D01*
X73558099Y-115519955D01*
X73517249Y-115492660D01*
X73414712Y-115424145D01*
X73414700Y-115424139D01*
X73255374Y-115358145D01*
X73086231Y-115324500D01*
X73086229Y-115324500D01*
X72913771Y-115324500D01*
X72913768Y-115324500D01*
X72744626Y-115358145D01*
X72744624Y-115358145D01*
X72585299Y-115424139D01*
X72585287Y-115424145D01*
X72441901Y-115519955D01*
X72441897Y-115519958D01*
X72319958Y-115641897D01*
X72319955Y-115641901D01*
X72224145Y-115785287D01*
X72224139Y-115785299D01*
X72158145Y-115944624D01*
X72158145Y-115944626D01*
X72124500Y-116113768D01*
X40632596Y-116113768D01*
X40563713Y-115929087D01*
X40559737Y-115915548D01*
X40517265Y-115720307D01*
X40515258Y-115706346D01*
X40500752Y-115503535D01*
X40500500Y-115496472D01*
X40500500Y-114018594D01*
X41173500Y-114018594D01*
X41173500Y-114181405D01*
X41205262Y-114341080D01*
X41205262Y-114341082D01*
X41267563Y-114491492D01*
X41267563Y-114491493D01*
X41349892Y-114614705D01*
X41358016Y-114626863D01*
X41473137Y-114741984D01*
X41608505Y-114832435D01*
X41758919Y-114894738D01*
X41918597Y-114926500D01*
X41918598Y-114926500D01*
X42081402Y-114926500D01*
X42081403Y-114926500D01*
X42241081Y-114894738D01*
X42391495Y-114832435D01*
X42526863Y-114741984D01*
X42641984Y-114626863D01*
X42732435Y-114491495D01*
X42794738Y-114341081D01*
X42826500Y-114181403D01*
X42826500Y-114113768D01*
X72124500Y-114113768D01*
X72124500Y-114286231D01*
X72158145Y-114455373D01*
X72158145Y-114455375D01*
X72224139Y-114614700D01*
X72224145Y-114614712D01*
X72292660Y-114717249D01*
X72319955Y-114758099D01*
X72441901Y-114880045D01*
X72463921Y-114894758D01*
X72585287Y-114975854D01*
X72585299Y-114975860D01*
X72644153Y-115000238D01*
X72744626Y-115041855D01*
X72913771Y-115075500D01*
X72913772Y-115075500D01*
X73086228Y-115075500D01*
X73086229Y-115075500D01*
X73255374Y-115041855D01*
X73414705Y-114975858D01*
X73414707Y-114975856D01*
X73414712Y-114975854D01*
X73488574Y-114926500D01*
X73558099Y-114880045D01*
X73680045Y-114758099D01*
X73748188Y-114656115D01*
X73775854Y-114614712D01*
X73775860Y-114614700D01*
X73826894Y-114491492D01*
X73841855Y-114455374D01*
X73875500Y-114286229D01*
X73875500Y-114113771D01*
X73875499Y-114113768D01*
X74124500Y-114113768D01*
X74124500Y-114286231D01*
X74158145Y-114455373D01*
X74158145Y-114455375D01*
X74224139Y-114614700D01*
X74224145Y-114614712D01*
X74292660Y-114717249D01*
X74319955Y-114758099D01*
X74441901Y-114880045D01*
X74463921Y-114894758D01*
X74585287Y-114975854D01*
X74585299Y-114975860D01*
X74644153Y-115000238D01*
X74744626Y-115041855D01*
X74913771Y-115075500D01*
X74913772Y-115075500D01*
X75086228Y-115075500D01*
X75086229Y-115075500D01*
X75255374Y-115041855D01*
X75414705Y-114975858D01*
X75414707Y-114975856D01*
X75414712Y-114975854D01*
X75488574Y-114926500D01*
X75558099Y-114880045D01*
X75680045Y-114758099D01*
X75748188Y-114656115D01*
X75775854Y-114614712D01*
X75775860Y-114614700D01*
X75826894Y-114491492D01*
X75841855Y-114455374D01*
X75875500Y-114286229D01*
X75875500Y-114113771D01*
X75875499Y-114113768D01*
X76124500Y-114113768D01*
X76124500Y-114286231D01*
X76158145Y-114455373D01*
X76158145Y-114455375D01*
X76224139Y-114614700D01*
X76224145Y-114614712D01*
X76292660Y-114717249D01*
X76319955Y-114758099D01*
X76441901Y-114880045D01*
X76463921Y-114894758D01*
X76585287Y-114975854D01*
X76585299Y-114975860D01*
X76644153Y-115000238D01*
X76744626Y-115041855D01*
X76913771Y-115075500D01*
X76913772Y-115075500D01*
X77086228Y-115075500D01*
X77086229Y-115075500D01*
X77255374Y-115041855D01*
X77414705Y-114975858D01*
X77414707Y-114975856D01*
X77414712Y-114975854D01*
X77488574Y-114926500D01*
X77558099Y-114880045D01*
X77680045Y-114758099D01*
X77748188Y-114656115D01*
X77775854Y-114614712D01*
X77775860Y-114614700D01*
X77826894Y-114491492D01*
X77841855Y-114455374D01*
X77875500Y-114286229D01*
X77875500Y-114113771D01*
X77875499Y-114113768D01*
X78124500Y-114113768D01*
X78124500Y-114286231D01*
X78158145Y-114455373D01*
X78158145Y-114455375D01*
X78224139Y-114614700D01*
X78224145Y-114614712D01*
X78292660Y-114717249D01*
X78319955Y-114758099D01*
X78441901Y-114880045D01*
X78463921Y-114894758D01*
X78585287Y-114975854D01*
X78585299Y-114975860D01*
X78644153Y-115000238D01*
X78744626Y-115041855D01*
X78913771Y-115075500D01*
X78913772Y-115075500D01*
X79086228Y-115075500D01*
X79086229Y-115075500D01*
X79255374Y-115041855D01*
X79414705Y-114975858D01*
X79414707Y-114975856D01*
X79414712Y-114975854D01*
X79488574Y-114926500D01*
X79558099Y-114880045D01*
X79680045Y-114758099D01*
X79748188Y-114656115D01*
X79775854Y-114614712D01*
X79775860Y-114614700D01*
X79826894Y-114491492D01*
X79841855Y-114455374D01*
X79875500Y-114286229D01*
X79875500Y-114113817D01*
X80125000Y-114113817D01*
X80125000Y-114286182D01*
X80158626Y-114455227D01*
X80158626Y-114455229D01*
X80224583Y-114614465D01*
X80312513Y-114746063D01*
X80655414Y-114403161D01*
X80679920Y-114445606D01*
X80754394Y-114520080D01*
X80796836Y-114544583D01*
X80453935Y-114887485D01*
X80585534Y-114975416D01*
X80744771Y-115041373D01*
X80913817Y-115074999D01*
X80913821Y-115075000D01*
X81086179Y-115075000D01*
X81086182Y-115074999D01*
X81255227Y-115041373D01*
X81255229Y-115041373D01*
X81414464Y-114975416D01*
X81546063Y-114887485D01*
X81203162Y-114544584D01*
X81245606Y-114520080D01*
X81320080Y-114445606D01*
X81344584Y-114403162D01*
X81687485Y-114746063D01*
X81775416Y-114614464D01*
X81841373Y-114455229D01*
X81841373Y-114455227D01*
X81874999Y-114286182D01*
X81875000Y-114286178D01*
X81875000Y-114113819D01*
X81874999Y-114113818D01*
X81874989Y-114113768D01*
X82124500Y-114113768D01*
X82124500Y-114286231D01*
X82158145Y-114455373D01*
X82158145Y-114455375D01*
X82224139Y-114614700D01*
X82224145Y-114614712D01*
X82292660Y-114717249D01*
X82319955Y-114758099D01*
X82441901Y-114880045D01*
X82463921Y-114894758D01*
X82585287Y-114975854D01*
X82585299Y-114975860D01*
X82644153Y-115000238D01*
X82744626Y-115041855D01*
X82913771Y-115075500D01*
X82913772Y-115075500D01*
X83086228Y-115075500D01*
X83086229Y-115075500D01*
X83255374Y-115041855D01*
X83414705Y-114975858D01*
X83414707Y-114975856D01*
X83414712Y-114975854D01*
X83488574Y-114926500D01*
X83558099Y-114880045D01*
X83680045Y-114758099D01*
X83748188Y-114656115D01*
X83775854Y-114614712D01*
X83775860Y-114614700D01*
X83826894Y-114491492D01*
X83841855Y-114455374D01*
X83875500Y-114286229D01*
X83875500Y-114113771D01*
X83875499Y-114113768D01*
X84124500Y-114113768D01*
X84124500Y-114286231D01*
X84158145Y-114455373D01*
X84158145Y-114455375D01*
X84224139Y-114614700D01*
X84224145Y-114614712D01*
X84292660Y-114717249D01*
X84319955Y-114758099D01*
X84441901Y-114880045D01*
X84463921Y-114894758D01*
X84585287Y-114975854D01*
X84585299Y-114975860D01*
X84644153Y-115000238D01*
X84744626Y-115041855D01*
X84913771Y-115075500D01*
X84913772Y-115075500D01*
X85086228Y-115075500D01*
X85086229Y-115075500D01*
X85255374Y-115041855D01*
X85414705Y-114975858D01*
X85414707Y-114975856D01*
X85414712Y-114975854D01*
X85488574Y-114926500D01*
X85558099Y-114880045D01*
X85680045Y-114758099D01*
X85748188Y-114656115D01*
X85775854Y-114614712D01*
X85775860Y-114614700D01*
X85826894Y-114491492D01*
X85841855Y-114455374D01*
X85875500Y-114286229D01*
X85875500Y-114113771D01*
X85875499Y-114113768D01*
X86124500Y-114113768D01*
X86124500Y-114286231D01*
X86158145Y-114455373D01*
X86158145Y-114455375D01*
X86224139Y-114614700D01*
X86224145Y-114614712D01*
X86292660Y-114717249D01*
X86319955Y-114758099D01*
X86441901Y-114880045D01*
X86463921Y-114894758D01*
X86585287Y-114975854D01*
X86585299Y-114975860D01*
X86644153Y-115000238D01*
X86744626Y-115041855D01*
X86913771Y-115075500D01*
X86913772Y-115075500D01*
X87086228Y-115075500D01*
X87086229Y-115075500D01*
X87255374Y-115041855D01*
X87414705Y-114975858D01*
X87414707Y-114975856D01*
X87414712Y-114975854D01*
X87488574Y-114926500D01*
X87558099Y-114880045D01*
X87680045Y-114758099D01*
X87748188Y-114656115D01*
X87775854Y-114614712D01*
X87775860Y-114614700D01*
X87826894Y-114491492D01*
X87841855Y-114455374D01*
X87875500Y-114286229D01*
X87875500Y-114113771D01*
X87875499Y-114113768D01*
X88124500Y-114113768D01*
X88124500Y-114286231D01*
X88158145Y-114455373D01*
X88158145Y-114455375D01*
X88224139Y-114614700D01*
X88224145Y-114614712D01*
X88292660Y-114717249D01*
X88319955Y-114758099D01*
X88441901Y-114880045D01*
X88463921Y-114894758D01*
X88585287Y-114975854D01*
X88585299Y-114975860D01*
X88644153Y-115000238D01*
X88744626Y-115041855D01*
X88913771Y-115075500D01*
X88913772Y-115075500D01*
X89086228Y-115075500D01*
X89086229Y-115075500D01*
X89255374Y-115041855D01*
X89414705Y-114975858D01*
X89414707Y-114975856D01*
X89414712Y-114975854D01*
X89488574Y-114926500D01*
X89558099Y-114880045D01*
X89680045Y-114758099D01*
X89748188Y-114656115D01*
X89775854Y-114614712D01*
X89775860Y-114614700D01*
X89826894Y-114491492D01*
X89841855Y-114455374D01*
X89875500Y-114286229D01*
X89875500Y-114113771D01*
X89841855Y-113944626D01*
X89775858Y-113785295D01*
X89775854Y-113785287D01*
X89720893Y-113703034D01*
X89680045Y-113641901D01*
X89558099Y-113519955D01*
X89536096Y-113505253D01*
X90124500Y-113505253D01*
X90124500Y-114894746D01*
X90124501Y-114894758D01*
X90136132Y-114953227D01*
X90136134Y-114953233D01*
X90151249Y-114975854D01*
X90180448Y-115019552D01*
X90246769Y-115063867D01*
X90291231Y-115072711D01*
X90305241Y-115075498D01*
X90305246Y-115075498D01*
X90305252Y-115075500D01*
X90305253Y-115075500D01*
X91694747Y-115075500D01*
X91694748Y-115075500D01*
X91753231Y-115063867D01*
X91819552Y-115019552D01*
X91863867Y-114953231D01*
X91875500Y-114894748D01*
X91875500Y-113505252D01*
X91863867Y-113446769D01*
X91819552Y-113380448D01*
X91786174Y-113358145D01*
X91753233Y-113336134D01*
X91753231Y-113336133D01*
X91753228Y-113336132D01*
X91753227Y-113336132D01*
X91694758Y-113324501D01*
X91694748Y-113324500D01*
X90305252Y-113324500D01*
X90305251Y-113324500D01*
X90305241Y-113324501D01*
X90246772Y-113336132D01*
X90246766Y-113336134D01*
X90180451Y-113380445D01*
X90180445Y-113380451D01*
X90136134Y-113446766D01*
X90136132Y-113446772D01*
X90124501Y-113505241D01*
X90124500Y-113505253D01*
X89536096Y-113505253D01*
X89517249Y-113492660D01*
X89414712Y-113424145D01*
X89414700Y-113424139D01*
X89255374Y-113358145D01*
X89086231Y-113324500D01*
X89086229Y-113324500D01*
X88913771Y-113324500D01*
X88913768Y-113324500D01*
X88744626Y-113358145D01*
X88744624Y-113358145D01*
X88585299Y-113424139D01*
X88585287Y-113424145D01*
X88441901Y-113519955D01*
X88441897Y-113519958D01*
X88319958Y-113641897D01*
X88319955Y-113641901D01*
X88224145Y-113785287D01*
X88224139Y-113785299D01*
X88158145Y-113944624D01*
X88158145Y-113944626D01*
X88124500Y-114113768D01*
X87875499Y-114113768D01*
X87841855Y-113944626D01*
X87775858Y-113785295D01*
X87775854Y-113785287D01*
X87720893Y-113703034D01*
X87680045Y-113641901D01*
X87558099Y-113519955D01*
X87517249Y-113492660D01*
X87414712Y-113424145D01*
X87414700Y-113424139D01*
X87255374Y-113358145D01*
X87086231Y-113324500D01*
X87086229Y-113324500D01*
X86913771Y-113324500D01*
X86913768Y-113324500D01*
X86744626Y-113358145D01*
X86744624Y-113358145D01*
X86585299Y-113424139D01*
X86585287Y-113424145D01*
X86441901Y-113519955D01*
X86441897Y-113519958D01*
X86319958Y-113641897D01*
X86319955Y-113641901D01*
X86224145Y-113785287D01*
X86224139Y-113785299D01*
X86158145Y-113944624D01*
X86158145Y-113944626D01*
X86124500Y-114113768D01*
X85875499Y-114113768D01*
X85841855Y-113944626D01*
X85775858Y-113785295D01*
X85775854Y-113785287D01*
X85720893Y-113703034D01*
X85680045Y-113641901D01*
X85558099Y-113519955D01*
X85517249Y-113492660D01*
X85414712Y-113424145D01*
X85414700Y-113424139D01*
X85255374Y-113358145D01*
X85086231Y-113324500D01*
X85086229Y-113324500D01*
X84913771Y-113324500D01*
X84913768Y-113324500D01*
X84744626Y-113358145D01*
X84744624Y-113358145D01*
X84585299Y-113424139D01*
X84585287Y-113424145D01*
X84441901Y-113519955D01*
X84441897Y-113519958D01*
X84319958Y-113641897D01*
X84319955Y-113641901D01*
X84224145Y-113785287D01*
X84224139Y-113785299D01*
X84158145Y-113944624D01*
X84158145Y-113944626D01*
X84124500Y-114113768D01*
X83875499Y-114113768D01*
X83841855Y-113944626D01*
X83775858Y-113785295D01*
X83775854Y-113785287D01*
X83720893Y-113703034D01*
X83680045Y-113641901D01*
X83558099Y-113519955D01*
X83517249Y-113492660D01*
X83414712Y-113424145D01*
X83414700Y-113424139D01*
X83255374Y-113358145D01*
X83086231Y-113324500D01*
X83086229Y-113324500D01*
X82913771Y-113324500D01*
X82913768Y-113324500D01*
X82744626Y-113358145D01*
X82744624Y-113358145D01*
X82585299Y-113424139D01*
X82585287Y-113424145D01*
X82441901Y-113519955D01*
X82441897Y-113519958D01*
X82319958Y-113641897D01*
X82319955Y-113641901D01*
X82224145Y-113785287D01*
X82224139Y-113785299D01*
X82158145Y-113944624D01*
X82158145Y-113944626D01*
X82124500Y-114113768D01*
X81874989Y-114113768D01*
X81841373Y-113944772D01*
X81841373Y-113944770D01*
X81775416Y-113785534D01*
X81687485Y-113653935D01*
X81344583Y-113996836D01*
X81320080Y-113954394D01*
X81245606Y-113879920D01*
X81203161Y-113855414D01*
X81546063Y-113512513D01*
X81414465Y-113424583D01*
X81255228Y-113358626D01*
X81086182Y-113325000D01*
X80913817Y-113325000D01*
X80744772Y-113358626D01*
X80744770Y-113358626D01*
X80585534Y-113424583D01*
X80453935Y-113512513D01*
X80796837Y-113855415D01*
X80754394Y-113879920D01*
X80679920Y-113954394D01*
X80655415Y-113996837D01*
X80312513Y-113653935D01*
X80224583Y-113785534D01*
X80158626Y-113944770D01*
X80158626Y-113944772D01*
X80125000Y-114113817D01*
X79875500Y-114113817D01*
X79875500Y-114113771D01*
X79841855Y-113944626D01*
X79775858Y-113785295D01*
X79775854Y-113785287D01*
X79720893Y-113703034D01*
X79680045Y-113641901D01*
X79558099Y-113519955D01*
X79517249Y-113492660D01*
X79414712Y-113424145D01*
X79414700Y-113424139D01*
X79255374Y-113358145D01*
X79086231Y-113324500D01*
X79086229Y-113324500D01*
X78913771Y-113324500D01*
X78913768Y-113324500D01*
X78744626Y-113358145D01*
X78744624Y-113358145D01*
X78585299Y-113424139D01*
X78585287Y-113424145D01*
X78441901Y-113519955D01*
X78441897Y-113519958D01*
X78319958Y-113641897D01*
X78319955Y-113641901D01*
X78224145Y-113785287D01*
X78224139Y-113785299D01*
X78158145Y-113944624D01*
X78158145Y-113944626D01*
X78124500Y-114113768D01*
X77875499Y-114113768D01*
X77841855Y-113944626D01*
X77775858Y-113785295D01*
X77775854Y-113785287D01*
X77720893Y-113703034D01*
X77680045Y-113641901D01*
X77558099Y-113519955D01*
X77517249Y-113492660D01*
X77414712Y-113424145D01*
X77414700Y-113424139D01*
X77255374Y-113358145D01*
X77086231Y-113324500D01*
X77086229Y-113324500D01*
X76913771Y-113324500D01*
X76913768Y-113324500D01*
X76744626Y-113358145D01*
X76744624Y-113358145D01*
X76585299Y-113424139D01*
X76585287Y-113424145D01*
X76441901Y-113519955D01*
X76441897Y-113519958D01*
X76319958Y-113641897D01*
X76319955Y-113641901D01*
X76224145Y-113785287D01*
X76224139Y-113785299D01*
X76158145Y-113944624D01*
X76158145Y-113944626D01*
X76124500Y-114113768D01*
X75875499Y-114113768D01*
X75841855Y-113944626D01*
X75775858Y-113785295D01*
X75775854Y-113785287D01*
X75720893Y-113703034D01*
X75680045Y-113641901D01*
X75558099Y-113519955D01*
X75517249Y-113492660D01*
X75414712Y-113424145D01*
X75414700Y-113424139D01*
X75255374Y-113358145D01*
X75086231Y-113324500D01*
X75086229Y-113324500D01*
X74913771Y-113324500D01*
X74913768Y-113324500D01*
X74744626Y-113358145D01*
X74744624Y-113358145D01*
X74585299Y-113424139D01*
X74585287Y-113424145D01*
X74441901Y-113519955D01*
X74441897Y-113519958D01*
X74319958Y-113641897D01*
X74319955Y-113641901D01*
X74224145Y-113785287D01*
X74224139Y-113785299D01*
X74158145Y-113944624D01*
X74158145Y-113944626D01*
X74124500Y-114113768D01*
X73875499Y-114113768D01*
X73841855Y-113944626D01*
X73775858Y-113785295D01*
X73775854Y-113785287D01*
X73720893Y-113703034D01*
X73680045Y-113641901D01*
X73558099Y-113519955D01*
X73517249Y-113492660D01*
X73414712Y-113424145D01*
X73414700Y-113424139D01*
X73255374Y-113358145D01*
X73086231Y-113324500D01*
X73086229Y-113324500D01*
X72913771Y-113324500D01*
X72913768Y-113324500D01*
X72744626Y-113358145D01*
X72744624Y-113358145D01*
X72585299Y-113424139D01*
X72585287Y-113424145D01*
X72441901Y-113519955D01*
X72441897Y-113519958D01*
X72319958Y-113641897D01*
X72319955Y-113641901D01*
X72224145Y-113785287D01*
X72224139Y-113785299D01*
X72158145Y-113944624D01*
X72158145Y-113944626D01*
X72124500Y-114113768D01*
X42826500Y-114113768D01*
X42826500Y-114018597D01*
X42794738Y-113858919D01*
X42732436Y-113708507D01*
X42732436Y-113708506D01*
X42641984Y-113573137D01*
X42526862Y-113458015D01*
X42391492Y-113367563D01*
X42241081Y-113305262D01*
X42081405Y-113273500D01*
X42081403Y-113273500D01*
X41918597Y-113273500D01*
X41918594Y-113273500D01*
X41758919Y-113305262D01*
X41758917Y-113305262D01*
X41608507Y-113367563D01*
X41608506Y-113367563D01*
X41473137Y-113458015D01*
X41358015Y-113573137D01*
X41267563Y-113708506D01*
X41267563Y-113708507D01*
X41205262Y-113858917D01*
X41205262Y-113858919D01*
X41173500Y-114018594D01*
X40500500Y-114018594D01*
X40500500Y-111440691D01*
X58699500Y-111440691D01*
X58699500Y-111559309D01*
X58726574Y-111660351D01*
X58730202Y-111673890D01*
X58789507Y-111776608D01*
X58789513Y-111776616D01*
X58792898Y-111780001D01*
X58820672Y-111834519D01*
X58811097Y-111894951D01*
X58792898Y-111919999D01*
X58789513Y-111923383D01*
X58789507Y-111923391D01*
X58730202Y-112026109D01*
X58730201Y-112026114D01*
X58699500Y-112140691D01*
X58699500Y-112259309D01*
X58718694Y-112330941D01*
X58730202Y-112373890D01*
X58789507Y-112476608D01*
X58789509Y-112476610D01*
X58789511Y-112476613D01*
X58873387Y-112560489D01*
X58873389Y-112560490D01*
X58873391Y-112560492D01*
X58976110Y-112619797D01*
X58976111Y-112619797D01*
X58976114Y-112619799D01*
X59090691Y-112650500D01*
X59090693Y-112650500D01*
X59209307Y-112650500D01*
X59209309Y-112650500D01*
X59323886Y-112619799D01*
X59323888Y-112619797D01*
X59323890Y-112619797D01*
X59426608Y-112560492D01*
X59426608Y-112560491D01*
X59426613Y-112560489D01*
X59510489Y-112476613D01*
X59510492Y-112476608D01*
X59569797Y-112373890D01*
X59569797Y-112373888D01*
X59569799Y-112373886D01*
X59600500Y-112259309D01*
X59600500Y-112140691D01*
X59569799Y-112026114D01*
X59569797Y-112026111D01*
X59569797Y-112026109D01*
X59510492Y-111923391D01*
X59510490Y-111923389D01*
X59510489Y-111923387D01*
X59507103Y-111920001D01*
X59479328Y-111865487D01*
X59488899Y-111805055D01*
X59507102Y-111779999D01*
X59510489Y-111776613D01*
X59510492Y-111776608D01*
X59569797Y-111673890D01*
X59569797Y-111673888D01*
X59569799Y-111673886D01*
X59600500Y-111559309D01*
X59600500Y-111440691D01*
X59585187Y-111383542D01*
X59588388Y-111322443D01*
X59626893Y-111274892D01*
X59685993Y-111259056D01*
X59743115Y-111280982D01*
X59750806Y-111287906D01*
X59823389Y-111360489D01*
X59823391Y-111360490D01*
X59823393Y-111360492D01*
X59926112Y-111419797D01*
X59926113Y-111419797D01*
X59926116Y-111419799D01*
X60040693Y-111450500D01*
X60040695Y-111450500D01*
X60159309Y-111450500D01*
X60159311Y-111450500D01*
X60195918Y-111440691D01*
X68099500Y-111440691D01*
X68099500Y-111559309D01*
X68126574Y-111660351D01*
X68130202Y-111673890D01*
X68189507Y-111776608D01*
X68189513Y-111776616D01*
X68192898Y-111780001D01*
X68220672Y-111834519D01*
X68211097Y-111894951D01*
X68192898Y-111919999D01*
X68189513Y-111923383D01*
X68189507Y-111923391D01*
X68130202Y-112026109D01*
X68130201Y-112026114D01*
X68099500Y-112140691D01*
X68099500Y-112259309D01*
X68118694Y-112330941D01*
X68130202Y-112373890D01*
X68189507Y-112476608D01*
X68189509Y-112476610D01*
X68189511Y-112476613D01*
X68273387Y-112560489D01*
X68273389Y-112560490D01*
X68273391Y-112560492D01*
X68376110Y-112619797D01*
X68376111Y-112619797D01*
X68376114Y-112619799D01*
X68490691Y-112650500D01*
X68490693Y-112650500D01*
X68609307Y-112650500D01*
X68609309Y-112650500D01*
X68723886Y-112619799D01*
X68723888Y-112619797D01*
X68723890Y-112619797D01*
X68826608Y-112560492D01*
X68826608Y-112560491D01*
X68826613Y-112560489D01*
X68910489Y-112476613D01*
X68910492Y-112476608D01*
X68969797Y-112373890D01*
X68969797Y-112373888D01*
X68969799Y-112373886D01*
X69000500Y-112259309D01*
X69000500Y-112140691D01*
X68969799Y-112026114D01*
X68969797Y-112026111D01*
X68969797Y-112026109D01*
X68910492Y-111923391D01*
X68910490Y-111923389D01*
X68910489Y-111923387D01*
X68907103Y-111920001D01*
X68879328Y-111865487D01*
X68888899Y-111805055D01*
X68907102Y-111779999D01*
X68910489Y-111776613D01*
X68910492Y-111776608D01*
X68969797Y-111673890D01*
X68969797Y-111673888D01*
X68969799Y-111673886D01*
X69000500Y-111559309D01*
X69000500Y-111440691D01*
X68985187Y-111383542D01*
X68988388Y-111322443D01*
X69026893Y-111274892D01*
X69085993Y-111259056D01*
X69143115Y-111280982D01*
X69150806Y-111287906D01*
X69223389Y-111360489D01*
X69223391Y-111360490D01*
X69223393Y-111360492D01*
X69326112Y-111419797D01*
X69326113Y-111419797D01*
X69326116Y-111419799D01*
X69440693Y-111450500D01*
X69440695Y-111450500D01*
X69559309Y-111450500D01*
X69559311Y-111450500D01*
X69673888Y-111419799D01*
X69673890Y-111419797D01*
X69673892Y-111419797D01*
X69776610Y-111360492D01*
X69776610Y-111360491D01*
X69776615Y-111360489D01*
X69860491Y-111276613D01*
X69891552Y-111222813D01*
X69937021Y-111181874D01*
X69997871Y-111175478D01*
X70050859Y-111206071D01*
X70072913Y-111246689D01*
X70079481Y-111271200D01*
X70080202Y-111273890D01*
X70139507Y-111376608D01*
X70139509Y-111376610D01*
X70139511Y-111376613D01*
X70223387Y-111460489D01*
X70223389Y-111460490D01*
X70223391Y-111460492D01*
X70326110Y-111519797D01*
X70326111Y-111519797D01*
X70326114Y-111519799D01*
X70440691Y-111550500D01*
X70440693Y-111550500D01*
X70559307Y-111550500D01*
X70559309Y-111550500D01*
X70673886Y-111519799D01*
X70673888Y-111519797D01*
X70673890Y-111519797D01*
X70776608Y-111460492D01*
X70776608Y-111460491D01*
X70776613Y-111460489D01*
X70796411Y-111440691D01*
X77499500Y-111440691D01*
X77499500Y-111559309D01*
X77526574Y-111660351D01*
X77530202Y-111673890D01*
X77589507Y-111776608D01*
X77589513Y-111776616D01*
X77592898Y-111780001D01*
X77620672Y-111834519D01*
X77611097Y-111894951D01*
X77592898Y-111919999D01*
X77589513Y-111923383D01*
X77589507Y-111923391D01*
X77530202Y-112026109D01*
X77530201Y-112026114D01*
X77499500Y-112140691D01*
X77499500Y-112259309D01*
X77518694Y-112330941D01*
X77530202Y-112373890D01*
X77589507Y-112476608D01*
X77589509Y-112476610D01*
X77589511Y-112476613D01*
X77673387Y-112560489D01*
X77673389Y-112560490D01*
X77673391Y-112560492D01*
X77776110Y-112619797D01*
X77776111Y-112619797D01*
X77776114Y-112619799D01*
X77890691Y-112650500D01*
X77890693Y-112650500D01*
X78009307Y-112650500D01*
X78009309Y-112650500D01*
X78123886Y-112619799D01*
X78123888Y-112619797D01*
X78123890Y-112619797D01*
X78226608Y-112560492D01*
X78226608Y-112560491D01*
X78226613Y-112560489D01*
X78310489Y-112476613D01*
X78310492Y-112476608D01*
X78369797Y-112373890D01*
X78369797Y-112373888D01*
X78369799Y-112373886D01*
X78400500Y-112259309D01*
X78400500Y-112140691D01*
X78369799Y-112026114D01*
X78369797Y-112026111D01*
X78369797Y-112026109D01*
X78310492Y-111923391D01*
X78310490Y-111923389D01*
X78310489Y-111923387D01*
X78307103Y-111920001D01*
X78279328Y-111865487D01*
X78288899Y-111805055D01*
X78307102Y-111779999D01*
X78310489Y-111776613D01*
X78310492Y-111776608D01*
X78369797Y-111673890D01*
X78369797Y-111673888D01*
X78369799Y-111673886D01*
X78400500Y-111559309D01*
X78400500Y-111440691D01*
X78385187Y-111383542D01*
X78388388Y-111322443D01*
X78426893Y-111274892D01*
X78485993Y-111259056D01*
X78543115Y-111280982D01*
X78550806Y-111287906D01*
X78623389Y-111360489D01*
X78623391Y-111360490D01*
X78623393Y-111360492D01*
X78726112Y-111419797D01*
X78726113Y-111419797D01*
X78726116Y-111419799D01*
X78840693Y-111450500D01*
X78840695Y-111450500D01*
X78959309Y-111450500D01*
X78959311Y-111450500D01*
X78995918Y-111440691D01*
X86899500Y-111440691D01*
X86899500Y-111559309D01*
X86926574Y-111660351D01*
X86930202Y-111673890D01*
X86989507Y-111776608D01*
X86989513Y-111776616D01*
X86992898Y-111780001D01*
X87020672Y-111834519D01*
X87011097Y-111894951D01*
X86992898Y-111919999D01*
X86989513Y-111923383D01*
X86989507Y-111923391D01*
X86930202Y-112026109D01*
X86930201Y-112026114D01*
X86899500Y-112140691D01*
X86899500Y-112259309D01*
X86918694Y-112330941D01*
X86930202Y-112373890D01*
X86989507Y-112476608D01*
X86989509Y-112476610D01*
X86989511Y-112476613D01*
X87073387Y-112560489D01*
X87073389Y-112560490D01*
X87073391Y-112560492D01*
X87176110Y-112619797D01*
X87176111Y-112619797D01*
X87176114Y-112619799D01*
X87290691Y-112650500D01*
X87290693Y-112650500D01*
X87409307Y-112650500D01*
X87409309Y-112650500D01*
X87523886Y-112619799D01*
X87523888Y-112619797D01*
X87523890Y-112619797D01*
X87626608Y-112560492D01*
X87626608Y-112560491D01*
X87626613Y-112560489D01*
X87710489Y-112476613D01*
X87710492Y-112476608D01*
X87769797Y-112373890D01*
X87769797Y-112373888D01*
X87769799Y-112373886D01*
X87800500Y-112259309D01*
X87800500Y-112140691D01*
X87769799Y-112026114D01*
X87769797Y-112026111D01*
X87769797Y-112026109D01*
X87710492Y-111923391D01*
X87710490Y-111923389D01*
X87710489Y-111923387D01*
X87707103Y-111920001D01*
X87679328Y-111865487D01*
X87688899Y-111805055D01*
X87707102Y-111779999D01*
X87710489Y-111776613D01*
X87710492Y-111776608D01*
X87769797Y-111673890D01*
X87769797Y-111673888D01*
X87769799Y-111673886D01*
X87800500Y-111559309D01*
X87800500Y-111440691D01*
X87785187Y-111383542D01*
X87788388Y-111322443D01*
X87826893Y-111274892D01*
X87885993Y-111259056D01*
X87943115Y-111280982D01*
X87950806Y-111287906D01*
X88023389Y-111360489D01*
X88023391Y-111360490D01*
X88023393Y-111360492D01*
X88126112Y-111419797D01*
X88126113Y-111419797D01*
X88126116Y-111419799D01*
X88240693Y-111450500D01*
X88240695Y-111450500D01*
X88359309Y-111450500D01*
X88359311Y-111450500D01*
X88395918Y-111440691D01*
X96299500Y-111440691D01*
X96299500Y-111559309D01*
X96326574Y-111660351D01*
X96330202Y-111673890D01*
X96389507Y-111776608D01*
X96389513Y-111776616D01*
X96392898Y-111780001D01*
X96420672Y-111834519D01*
X96411097Y-111894951D01*
X96392898Y-111919999D01*
X96389513Y-111923383D01*
X96389507Y-111923391D01*
X96330202Y-112026109D01*
X96330201Y-112026114D01*
X96299500Y-112140691D01*
X96299500Y-112259309D01*
X96318694Y-112330941D01*
X96330202Y-112373890D01*
X96389507Y-112476608D01*
X96389509Y-112476610D01*
X96389511Y-112476613D01*
X96473387Y-112560489D01*
X96473389Y-112560490D01*
X96473391Y-112560492D01*
X96576110Y-112619797D01*
X96576111Y-112619797D01*
X96576114Y-112619799D01*
X96690691Y-112650500D01*
X96690693Y-112650500D01*
X96809307Y-112650500D01*
X96809309Y-112650500D01*
X96923886Y-112619799D01*
X96923888Y-112619797D01*
X96923890Y-112619797D01*
X97026608Y-112560492D01*
X97026608Y-112560491D01*
X97026613Y-112560489D01*
X97110489Y-112476613D01*
X97110492Y-112476608D01*
X97169797Y-112373890D01*
X97169797Y-112373888D01*
X97169799Y-112373886D01*
X97200500Y-112259309D01*
X97200500Y-112140691D01*
X97169799Y-112026114D01*
X97169797Y-112026111D01*
X97169797Y-112026109D01*
X97110492Y-111923391D01*
X97110490Y-111923389D01*
X97110489Y-111923387D01*
X97107103Y-111920001D01*
X97079328Y-111865487D01*
X97088899Y-111805055D01*
X97107102Y-111779999D01*
X97110489Y-111776613D01*
X97110492Y-111776608D01*
X97169797Y-111673890D01*
X97169797Y-111673888D01*
X97169799Y-111673886D01*
X97200500Y-111559309D01*
X97200500Y-111440691D01*
X97185187Y-111383542D01*
X97188388Y-111322443D01*
X97226893Y-111274892D01*
X97285993Y-111259056D01*
X97343115Y-111280982D01*
X97350806Y-111287906D01*
X97423389Y-111360489D01*
X97423391Y-111360490D01*
X97423393Y-111360492D01*
X97526112Y-111419797D01*
X97526113Y-111419797D01*
X97526116Y-111419799D01*
X97640693Y-111450500D01*
X97640695Y-111450500D01*
X97759309Y-111450500D01*
X97759311Y-111450500D01*
X97873888Y-111419799D01*
X97873890Y-111419797D01*
X97873892Y-111419797D01*
X97976610Y-111360492D01*
X97976610Y-111360491D01*
X97976615Y-111360489D01*
X98040572Y-111296532D01*
X114199500Y-111296532D01*
X114199500Y-111503467D01*
X114239869Y-111706418D01*
X114319058Y-111897597D01*
X114404930Y-112026114D01*
X114434023Y-112069655D01*
X114580345Y-112215977D01*
X114752402Y-112330941D01*
X114943580Y-112410130D01*
X115146535Y-112450500D01*
X115146536Y-112450500D01*
X115353464Y-112450500D01*
X115353465Y-112450500D01*
X115556420Y-112410130D01*
X115747598Y-112330941D01*
X115919655Y-112215977D01*
X116065977Y-112069655D01*
X116180941Y-111897598D01*
X116260130Y-111706420D01*
X116300500Y-111503465D01*
X116300500Y-111296535D01*
X116300499Y-111296532D01*
X121199500Y-111296532D01*
X121199500Y-111503467D01*
X121239869Y-111706418D01*
X121319058Y-111897597D01*
X121404930Y-112026114D01*
X121434023Y-112069655D01*
X121580345Y-112215977D01*
X121752402Y-112330941D01*
X121943580Y-112410130D01*
X122146535Y-112450500D01*
X122146536Y-112450500D01*
X122353464Y-112450500D01*
X122353465Y-112450500D01*
X122556420Y-112410130D01*
X122747598Y-112330941D01*
X122919655Y-112215977D01*
X123065977Y-112069655D01*
X123180941Y-111897598D01*
X123260130Y-111706420D01*
X123300500Y-111503465D01*
X123300500Y-111296535D01*
X123260130Y-111093580D01*
X123180941Y-110902402D01*
X123065977Y-110730345D01*
X122919655Y-110584023D01*
X122919651Y-110584020D01*
X122747597Y-110469058D01*
X122556418Y-110389869D01*
X122353467Y-110349500D01*
X122353465Y-110349500D01*
X122146535Y-110349500D01*
X122146532Y-110349500D01*
X121943581Y-110389869D01*
X121752402Y-110469058D01*
X121580348Y-110584020D01*
X121434020Y-110730348D01*
X121319058Y-110902402D01*
X121239869Y-111093581D01*
X121199500Y-111296532D01*
X116300499Y-111296532D01*
X116260130Y-111093580D01*
X116180941Y-110902402D01*
X116065977Y-110730345D01*
X115919655Y-110584023D01*
X115919651Y-110584020D01*
X115747597Y-110469058D01*
X115556418Y-110389869D01*
X115353467Y-110349500D01*
X115353465Y-110349500D01*
X115146535Y-110349500D01*
X115146532Y-110349500D01*
X114943581Y-110389869D01*
X114752402Y-110469058D01*
X114580348Y-110584020D01*
X114434020Y-110730348D01*
X114319058Y-110902402D01*
X114239869Y-111093581D01*
X114199500Y-111296532D01*
X98040572Y-111296532D01*
X98060491Y-111276613D01*
X98062063Y-111273890D01*
X98080377Y-111242171D01*
X98119799Y-111173890D01*
X98119799Y-111173888D01*
X98119801Y-111173886D01*
X98150502Y-111059309D01*
X98150502Y-110940691D01*
X98119801Y-110826114D01*
X98119799Y-110826111D01*
X98119799Y-110826109D01*
X98060494Y-110723391D01*
X98060492Y-110723389D01*
X98060491Y-110723387D01*
X97976615Y-110639511D01*
X97976612Y-110639509D01*
X97976610Y-110639507D01*
X97873891Y-110580202D01*
X97873892Y-110580202D01*
X97860353Y-110576574D01*
X97759311Y-110549500D01*
X97640693Y-110549500D01*
X97570569Y-110568289D01*
X97526111Y-110580202D01*
X97423393Y-110639507D01*
X97339509Y-110723391D01*
X97280204Y-110826109D01*
X97280203Y-110826114D01*
X97249502Y-110940691D01*
X97249502Y-111059309D01*
X97264815Y-111116456D01*
X97261612Y-111177557D01*
X97223107Y-111225107D01*
X97164007Y-111240943D01*
X97106885Y-111219016D01*
X97099194Y-111212092D01*
X97026613Y-111139511D01*
X97026610Y-111139509D01*
X97026608Y-111139507D01*
X96923889Y-111080202D01*
X96923890Y-111080202D01*
X96910351Y-111076574D01*
X96809309Y-111049500D01*
X96690691Y-111049500D01*
X96654084Y-111059309D01*
X96576109Y-111080202D01*
X96473391Y-111139507D01*
X96389507Y-111223391D01*
X96330202Y-111326109D01*
X96330201Y-111326114D01*
X96299500Y-111440691D01*
X88395918Y-111440691D01*
X88473888Y-111419799D01*
X88473890Y-111419797D01*
X88473892Y-111419797D01*
X88576610Y-111360492D01*
X88576610Y-111360491D01*
X88576615Y-111360489D01*
X88660491Y-111276613D01*
X88662063Y-111273890D01*
X88719799Y-111173890D01*
X88719799Y-111173888D01*
X88719801Y-111173886D01*
X88750502Y-111059309D01*
X88750502Y-110940691D01*
X88719801Y-110826114D01*
X88719799Y-110826111D01*
X88719799Y-110826109D01*
X88660494Y-110723391D01*
X88660492Y-110723389D01*
X88660491Y-110723387D01*
X88576615Y-110639511D01*
X88576612Y-110639509D01*
X88576610Y-110639507D01*
X88473891Y-110580202D01*
X88473892Y-110580202D01*
X88460353Y-110576574D01*
X88359311Y-110549500D01*
X88240693Y-110549500D01*
X88170569Y-110568289D01*
X88126111Y-110580202D01*
X88023393Y-110639507D01*
X87939509Y-110723391D01*
X87880204Y-110826109D01*
X87880203Y-110826114D01*
X87849502Y-110940691D01*
X87849502Y-111059309D01*
X87864815Y-111116456D01*
X87861612Y-111177557D01*
X87823107Y-111225107D01*
X87764007Y-111240943D01*
X87706885Y-111219016D01*
X87699194Y-111212092D01*
X87626613Y-111139511D01*
X87626610Y-111139509D01*
X87626608Y-111139507D01*
X87523889Y-111080202D01*
X87523890Y-111080202D01*
X87510351Y-111076574D01*
X87409309Y-111049500D01*
X87290691Y-111049500D01*
X87254084Y-111059309D01*
X87176109Y-111080202D01*
X87073391Y-111139507D01*
X86989507Y-111223391D01*
X86930202Y-111326109D01*
X86930201Y-111326114D01*
X86899500Y-111440691D01*
X78995918Y-111440691D01*
X79073888Y-111419799D01*
X79073890Y-111419797D01*
X79073892Y-111419797D01*
X79176610Y-111360492D01*
X79176610Y-111360491D01*
X79176615Y-111360489D01*
X79260491Y-111276613D01*
X79262063Y-111273890D01*
X79319799Y-111173890D01*
X79319799Y-111173888D01*
X79319801Y-111173886D01*
X79350502Y-111059309D01*
X79350502Y-110940691D01*
X79319801Y-110826114D01*
X79319799Y-110826111D01*
X79319799Y-110826109D01*
X79260494Y-110723391D01*
X79260492Y-110723389D01*
X79260491Y-110723387D01*
X79176615Y-110639511D01*
X79176612Y-110639509D01*
X79176610Y-110639507D01*
X79073891Y-110580202D01*
X79073892Y-110580202D01*
X79060353Y-110576574D01*
X78959311Y-110549500D01*
X78840693Y-110549500D01*
X78770569Y-110568289D01*
X78726111Y-110580202D01*
X78623393Y-110639507D01*
X78539509Y-110723391D01*
X78480204Y-110826109D01*
X78480203Y-110826114D01*
X78449502Y-110940691D01*
X78449502Y-111059309D01*
X78464815Y-111116456D01*
X78461612Y-111177557D01*
X78423107Y-111225107D01*
X78364007Y-111240943D01*
X78306885Y-111219016D01*
X78299194Y-111212092D01*
X78226613Y-111139511D01*
X78226610Y-111139509D01*
X78226608Y-111139507D01*
X78123889Y-111080202D01*
X78123890Y-111080202D01*
X78110351Y-111076574D01*
X78009309Y-111049500D01*
X77890691Y-111049500D01*
X77854084Y-111059309D01*
X77776109Y-111080202D01*
X77673391Y-111139507D01*
X77589507Y-111223391D01*
X77530202Y-111326109D01*
X77530201Y-111326114D01*
X77499500Y-111440691D01*
X70796411Y-111440691D01*
X70860489Y-111376613D01*
X70889648Y-111326109D01*
X70919797Y-111273890D01*
X70919797Y-111273888D01*
X70919799Y-111273886D01*
X70950500Y-111159309D01*
X70950500Y-111040691D01*
X70919799Y-110926114D01*
X70919797Y-110926111D01*
X70919797Y-110926109D01*
X70860492Y-110823391D01*
X70860490Y-110823389D01*
X70860489Y-110823387D01*
X70776613Y-110739511D01*
X70776610Y-110739509D01*
X70776608Y-110739507D01*
X70673889Y-110680202D01*
X70673890Y-110680202D01*
X70660351Y-110676574D01*
X70559309Y-110649500D01*
X70440691Y-110649500D01*
X70370567Y-110668289D01*
X70326109Y-110680202D01*
X70223391Y-110739507D01*
X70139510Y-110823388D01*
X70108449Y-110877186D01*
X70062978Y-110918126D01*
X70002128Y-110924520D01*
X69949140Y-110893926D01*
X69927087Y-110853308D01*
X69919801Y-110826114D01*
X69919800Y-110826113D01*
X69919800Y-110826111D01*
X69919799Y-110826110D01*
X69860494Y-110723391D01*
X69860492Y-110723389D01*
X69860491Y-110723387D01*
X69776615Y-110639511D01*
X69776612Y-110639509D01*
X69776610Y-110639507D01*
X69673891Y-110580202D01*
X69673892Y-110580202D01*
X69660353Y-110576574D01*
X69559311Y-110549500D01*
X69440693Y-110549500D01*
X69370569Y-110568289D01*
X69326111Y-110580202D01*
X69223393Y-110639507D01*
X69139509Y-110723391D01*
X69080204Y-110826109D01*
X69080203Y-110826114D01*
X69049502Y-110940691D01*
X69049502Y-111059309D01*
X69064815Y-111116456D01*
X69061612Y-111177557D01*
X69023107Y-111225107D01*
X68964007Y-111240943D01*
X68906885Y-111219016D01*
X68899194Y-111212092D01*
X68826613Y-111139511D01*
X68826610Y-111139509D01*
X68826608Y-111139507D01*
X68723889Y-111080202D01*
X68723890Y-111080202D01*
X68710351Y-111076574D01*
X68609309Y-111049500D01*
X68490691Y-111049500D01*
X68454084Y-111059309D01*
X68376109Y-111080202D01*
X68273391Y-111139507D01*
X68189507Y-111223391D01*
X68130202Y-111326109D01*
X68130201Y-111326114D01*
X68099500Y-111440691D01*
X60195918Y-111440691D01*
X60273888Y-111419799D01*
X60273890Y-111419797D01*
X60273892Y-111419797D01*
X60376610Y-111360492D01*
X60376610Y-111360491D01*
X60376615Y-111360489D01*
X60460491Y-111276613D01*
X60462063Y-111273890D01*
X60519799Y-111173890D01*
X60519799Y-111173888D01*
X60519801Y-111173886D01*
X60550502Y-111059309D01*
X60550502Y-110940691D01*
X60519801Y-110826114D01*
X60519799Y-110826111D01*
X60519799Y-110826109D01*
X60460494Y-110723391D01*
X60460492Y-110723389D01*
X60460491Y-110723387D01*
X60376615Y-110639511D01*
X60376612Y-110639509D01*
X60376610Y-110639507D01*
X60273891Y-110580202D01*
X60273892Y-110580202D01*
X60260353Y-110576574D01*
X60159311Y-110549500D01*
X60040693Y-110549500D01*
X59970569Y-110568289D01*
X59926111Y-110580202D01*
X59823393Y-110639507D01*
X59739509Y-110723391D01*
X59680204Y-110826109D01*
X59680203Y-110826114D01*
X59649502Y-110940691D01*
X59649502Y-111059309D01*
X59664815Y-111116456D01*
X59661612Y-111177557D01*
X59623107Y-111225107D01*
X59564007Y-111240943D01*
X59506885Y-111219016D01*
X59499194Y-111212092D01*
X59426613Y-111139511D01*
X59426610Y-111139509D01*
X59426608Y-111139507D01*
X59323889Y-111080202D01*
X59323890Y-111080202D01*
X59310351Y-111076574D01*
X59209309Y-111049500D01*
X59090691Y-111049500D01*
X59054084Y-111059309D01*
X58976109Y-111080202D01*
X58873391Y-111139507D01*
X58789507Y-111223391D01*
X58730202Y-111326109D01*
X58730201Y-111326114D01*
X58699500Y-111440691D01*
X40500500Y-111440691D01*
X40500500Y-109505691D01*
X52569499Y-109505691D01*
X52569499Y-109624309D01*
X52596573Y-109725351D01*
X52600201Y-109738890D01*
X52659506Y-109841608D01*
X52659508Y-109841610D01*
X52659510Y-109841613D01*
X52743386Y-109925489D01*
X52743388Y-109925490D01*
X52743390Y-109925492D01*
X52846109Y-109984797D01*
X52846110Y-109984797D01*
X52846113Y-109984799D01*
X52960690Y-110015500D01*
X52960692Y-110015500D01*
X53079306Y-110015500D01*
X53079308Y-110015500D01*
X53193885Y-109984799D01*
X53193887Y-109984797D01*
X53193889Y-109984797D01*
X53296607Y-109925492D01*
X53296607Y-109925491D01*
X53296612Y-109925489D01*
X53299997Y-109922103D01*
X53354512Y-109894328D01*
X53414944Y-109903899D01*
X53439999Y-109922102D01*
X53443386Y-109925489D01*
X53443388Y-109925490D01*
X53443390Y-109925492D01*
X53546109Y-109984797D01*
X53546110Y-109984797D01*
X53546113Y-109984799D01*
X53660690Y-110015500D01*
X53660692Y-110015500D01*
X53779306Y-110015500D01*
X53779308Y-110015500D01*
X53893885Y-109984799D01*
X53893887Y-109984797D01*
X53893889Y-109984797D01*
X53996607Y-109925492D01*
X53996607Y-109925491D01*
X53996612Y-109925489D01*
X54080488Y-109841613D01*
X54139798Y-109738886D01*
X54170499Y-109624309D01*
X54170499Y-109505691D01*
X61969499Y-109505691D01*
X61969499Y-109624309D01*
X61996573Y-109725351D01*
X62000201Y-109738890D01*
X62059506Y-109841608D01*
X62059508Y-109841610D01*
X62059510Y-109841613D01*
X62143386Y-109925489D01*
X62143388Y-109925490D01*
X62143390Y-109925492D01*
X62246109Y-109984797D01*
X62246110Y-109984797D01*
X62246113Y-109984799D01*
X62360690Y-110015500D01*
X62360692Y-110015500D01*
X62479306Y-110015500D01*
X62479308Y-110015500D01*
X62593885Y-109984799D01*
X62593887Y-109984797D01*
X62593889Y-109984797D01*
X62696607Y-109925492D01*
X62696607Y-109925491D01*
X62696612Y-109925489D01*
X62699997Y-109922103D01*
X62754512Y-109894328D01*
X62814944Y-109903899D01*
X62839999Y-109922102D01*
X62843386Y-109925489D01*
X62843388Y-109925490D01*
X62843390Y-109925492D01*
X62946109Y-109984797D01*
X62946110Y-109984797D01*
X62946113Y-109984799D01*
X63060690Y-110015500D01*
X63060692Y-110015500D01*
X63179306Y-110015500D01*
X63179308Y-110015500D01*
X63293885Y-109984799D01*
X63293887Y-109984797D01*
X63293889Y-109984797D01*
X63396607Y-109925492D01*
X63396607Y-109925491D01*
X63396612Y-109925489D01*
X63480488Y-109841613D01*
X63539798Y-109738886D01*
X63570499Y-109624309D01*
X63570499Y-109505691D01*
X71369499Y-109505691D01*
X71369499Y-109624309D01*
X71396573Y-109725351D01*
X71400201Y-109738890D01*
X71459506Y-109841608D01*
X71459508Y-109841610D01*
X71459510Y-109841613D01*
X71543386Y-109925489D01*
X71543388Y-109925490D01*
X71543390Y-109925492D01*
X71646109Y-109984797D01*
X71646110Y-109984797D01*
X71646113Y-109984799D01*
X71760690Y-110015500D01*
X71760692Y-110015500D01*
X71879306Y-110015500D01*
X71879308Y-110015500D01*
X71993885Y-109984799D01*
X71993887Y-109984797D01*
X71993889Y-109984797D01*
X72096607Y-109925492D01*
X72096607Y-109925491D01*
X72096612Y-109925489D01*
X72099997Y-109922103D01*
X72154512Y-109894328D01*
X72214944Y-109903899D01*
X72239999Y-109922102D01*
X72243386Y-109925489D01*
X72243388Y-109925490D01*
X72243390Y-109925492D01*
X72346109Y-109984797D01*
X72346110Y-109984797D01*
X72346113Y-109984799D01*
X72460690Y-110015500D01*
X72460692Y-110015500D01*
X72579306Y-110015500D01*
X72579308Y-110015500D01*
X72693885Y-109984799D01*
X72693887Y-109984797D01*
X72693889Y-109984797D01*
X72796607Y-109925492D01*
X72796607Y-109925491D01*
X72796612Y-109925489D01*
X72880488Y-109841613D01*
X72939798Y-109738886D01*
X72970499Y-109624309D01*
X72970499Y-109505691D01*
X80769499Y-109505691D01*
X80769499Y-109624309D01*
X80796573Y-109725351D01*
X80800201Y-109738890D01*
X80859506Y-109841608D01*
X80859508Y-109841610D01*
X80859510Y-109841613D01*
X80943386Y-109925489D01*
X80943388Y-109925490D01*
X80943390Y-109925492D01*
X81046109Y-109984797D01*
X81046110Y-109984797D01*
X81046113Y-109984799D01*
X81160690Y-110015500D01*
X81160692Y-110015500D01*
X81279306Y-110015500D01*
X81279308Y-110015500D01*
X81393885Y-109984799D01*
X81393887Y-109984797D01*
X81393889Y-109984797D01*
X81496607Y-109925492D01*
X81496607Y-109925491D01*
X81496612Y-109925489D01*
X81499997Y-109922103D01*
X81554512Y-109894328D01*
X81614944Y-109903899D01*
X81639999Y-109922102D01*
X81643386Y-109925489D01*
X81643388Y-109925490D01*
X81643390Y-109925492D01*
X81746109Y-109984797D01*
X81746110Y-109984797D01*
X81746113Y-109984799D01*
X81860690Y-110015500D01*
X81860692Y-110015500D01*
X81979306Y-110015500D01*
X81979308Y-110015500D01*
X82093885Y-109984799D01*
X82093887Y-109984797D01*
X82093889Y-109984797D01*
X82196607Y-109925492D01*
X82196607Y-109925491D01*
X82196612Y-109925489D01*
X82280488Y-109841613D01*
X82339798Y-109738886D01*
X82370499Y-109624309D01*
X82370499Y-109505691D01*
X90169499Y-109505691D01*
X90169499Y-109624309D01*
X90196573Y-109725351D01*
X90200201Y-109738890D01*
X90259506Y-109841608D01*
X90259508Y-109841610D01*
X90259510Y-109841613D01*
X90343386Y-109925489D01*
X90343388Y-109925490D01*
X90343390Y-109925492D01*
X90446109Y-109984797D01*
X90446110Y-109984797D01*
X90446113Y-109984799D01*
X90560690Y-110015500D01*
X90560692Y-110015500D01*
X90679306Y-110015500D01*
X90679308Y-110015500D01*
X90793885Y-109984799D01*
X90793887Y-109984797D01*
X90793889Y-109984797D01*
X90896607Y-109925492D01*
X90896607Y-109925491D01*
X90896612Y-109925489D01*
X90899997Y-109922103D01*
X90954512Y-109894328D01*
X91014944Y-109903899D01*
X91039999Y-109922102D01*
X91043386Y-109925489D01*
X91043388Y-109925490D01*
X91043390Y-109925492D01*
X91146109Y-109984797D01*
X91146110Y-109984797D01*
X91146113Y-109984799D01*
X91260690Y-110015500D01*
X91260692Y-110015500D01*
X91379306Y-110015500D01*
X91379308Y-110015500D01*
X91493885Y-109984799D01*
X91493887Y-109984797D01*
X91493889Y-109984797D01*
X91596607Y-109925492D01*
X91596607Y-109925491D01*
X91596612Y-109925489D01*
X91680488Y-109841613D01*
X91739798Y-109738886D01*
X91770499Y-109624309D01*
X91770499Y-109505691D01*
X91739798Y-109391114D01*
X91739796Y-109391111D01*
X91739796Y-109391109D01*
X91680491Y-109288391D01*
X91680489Y-109288389D01*
X91680488Y-109288387D01*
X91596612Y-109204511D01*
X91596609Y-109204509D01*
X91596607Y-109204507D01*
X91493888Y-109145202D01*
X91493889Y-109145202D01*
X91480350Y-109141574D01*
X91379308Y-109114500D01*
X91260690Y-109114500D01*
X91190566Y-109133289D01*
X91146108Y-109145202D01*
X91043390Y-109204507D01*
X91043382Y-109204513D01*
X91039998Y-109207898D01*
X90985480Y-109235672D01*
X90925048Y-109226097D01*
X90900000Y-109207898D01*
X90896615Y-109204513D01*
X90896607Y-109204507D01*
X90793888Y-109145202D01*
X90793889Y-109145202D01*
X90780350Y-109141574D01*
X90679308Y-109114500D01*
X90560690Y-109114500D01*
X90490566Y-109133289D01*
X90446108Y-109145202D01*
X90343390Y-109204507D01*
X90259506Y-109288391D01*
X90200201Y-109391109D01*
X90200200Y-109391114D01*
X90169499Y-109505691D01*
X82370499Y-109505691D01*
X82339798Y-109391114D01*
X82339796Y-109391111D01*
X82339796Y-109391109D01*
X82280491Y-109288391D01*
X82280489Y-109288389D01*
X82280488Y-109288387D01*
X82196612Y-109204511D01*
X82196609Y-109204509D01*
X82196607Y-109204507D01*
X82093888Y-109145202D01*
X82093889Y-109145202D01*
X82080350Y-109141574D01*
X81979308Y-109114500D01*
X81860690Y-109114500D01*
X81790566Y-109133289D01*
X81746108Y-109145202D01*
X81643390Y-109204507D01*
X81643382Y-109204513D01*
X81639998Y-109207898D01*
X81585480Y-109235672D01*
X81525048Y-109226097D01*
X81500000Y-109207898D01*
X81496615Y-109204513D01*
X81496607Y-109204507D01*
X81393888Y-109145202D01*
X81393889Y-109145202D01*
X81380350Y-109141574D01*
X81279308Y-109114500D01*
X81160690Y-109114500D01*
X81090566Y-109133289D01*
X81046108Y-109145202D01*
X80943390Y-109204507D01*
X80859506Y-109288391D01*
X80800201Y-109391109D01*
X80800200Y-109391114D01*
X80769499Y-109505691D01*
X72970499Y-109505691D01*
X72939798Y-109391114D01*
X72939796Y-109391111D01*
X72939796Y-109391109D01*
X72880491Y-109288391D01*
X72880489Y-109288389D01*
X72880488Y-109288387D01*
X72796612Y-109204511D01*
X72796609Y-109204509D01*
X72796607Y-109204507D01*
X72693888Y-109145202D01*
X72693889Y-109145202D01*
X72680350Y-109141574D01*
X72579308Y-109114500D01*
X72460690Y-109114500D01*
X72390566Y-109133289D01*
X72346108Y-109145202D01*
X72243390Y-109204507D01*
X72243382Y-109204513D01*
X72239998Y-109207898D01*
X72185480Y-109235672D01*
X72125048Y-109226097D01*
X72100000Y-109207898D01*
X72096615Y-109204513D01*
X72096607Y-109204507D01*
X71993888Y-109145202D01*
X71993889Y-109145202D01*
X71980350Y-109141574D01*
X71879308Y-109114500D01*
X71760690Y-109114500D01*
X71690566Y-109133289D01*
X71646108Y-109145202D01*
X71543390Y-109204507D01*
X71459506Y-109288391D01*
X71400201Y-109391109D01*
X71400200Y-109391114D01*
X71369499Y-109505691D01*
X63570499Y-109505691D01*
X63539798Y-109391114D01*
X63539796Y-109391111D01*
X63539796Y-109391109D01*
X63480491Y-109288391D01*
X63480489Y-109288389D01*
X63480488Y-109288387D01*
X63396612Y-109204511D01*
X63396609Y-109204509D01*
X63396607Y-109204507D01*
X63293888Y-109145202D01*
X63293889Y-109145202D01*
X63280350Y-109141574D01*
X63179308Y-109114500D01*
X63060690Y-109114500D01*
X62990566Y-109133289D01*
X62946108Y-109145202D01*
X62843390Y-109204507D01*
X62843382Y-109204513D01*
X62839998Y-109207898D01*
X62785480Y-109235672D01*
X62725048Y-109226097D01*
X62700000Y-109207898D01*
X62696615Y-109204513D01*
X62696607Y-109204507D01*
X62593888Y-109145202D01*
X62593889Y-109145202D01*
X62580350Y-109141574D01*
X62479308Y-109114500D01*
X62360690Y-109114500D01*
X62290566Y-109133289D01*
X62246108Y-109145202D01*
X62143390Y-109204507D01*
X62059506Y-109288391D01*
X62000201Y-109391109D01*
X62000200Y-109391114D01*
X61969499Y-109505691D01*
X54170499Y-109505691D01*
X54139798Y-109391114D01*
X54139796Y-109391111D01*
X54139796Y-109391109D01*
X54080491Y-109288391D01*
X54080489Y-109288389D01*
X54080488Y-109288387D01*
X53996612Y-109204511D01*
X53996609Y-109204509D01*
X53996607Y-109204507D01*
X53893888Y-109145202D01*
X53893889Y-109145202D01*
X53880350Y-109141574D01*
X53779308Y-109114500D01*
X53660690Y-109114500D01*
X53590566Y-109133289D01*
X53546108Y-109145202D01*
X53443390Y-109204507D01*
X53443382Y-109204513D01*
X53439998Y-109207898D01*
X53385480Y-109235672D01*
X53325048Y-109226097D01*
X53300000Y-109207898D01*
X53296615Y-109204513D01*
X53296607Y-109204507D01*
X53193888Y-109145202D01*
X53193889Y-109145202D01*
X53180350Y-109141574D01*
X53079308Y-109114500D01*
X52960690Y-109114500D01*
X52890566Y-109133289D01*
X52846108Y-109145202D01*
X52743390Y-109204507D01*
X52659506Y-109288391D01*
X52600201Y-109391109D01*
X52600200Y-109391114D01*
X52569499Y-109505691D01*
X40500500Y-109505691D01*
X40500500Y-106940691D01*
X59649502Y-106940691D01*
X59649502Y-107059309D01*
X59670752Y-107138614D01*
X59680204Y-107173890D01*
X59739509Y-107276608D01*
X59739511Y-107276610D01*
X59739513Y-107276613D01*
X59823389Y-107360489D01*
X59823391Y-107360490D01*
X59823393Y-107360492D01*
X59926112Y-107419797D01*
X59926113Y-107419797D01*
X59926116Y-107419799D01*
X60040693Y-107450500D01*
X60040695Y-107450500D01*
X60159309Y-107450500D01*
X60159311Y-107450500D01*
X60273888Y-107419799D01*
X60273890Y-107419797D01*
X60273892Y-107419797D01*
X60376610Y-107360492D01*
X60376610Y-107360491D01*
X60376615Y-107360489D01*
X60460491Y-107276613D01*
X60474014Y-107253191D01*
X60519799Y-107173890D01*
X60519799Y-107173888D01*
X60519801Y-107173886D01*
X60550502Y-107059309D01*
X60550502Y-106940691D01*
X69049502Y-106940691D01*
X69049502Y-107059309D01*
X69070752Y-107138614D01*
X69080204Y-107173890D01*
X69139509Y-107276608D01*
X69139511Y-107276610D01*
X69139513Y-107276613D01*
X69223389Y-107360489D01*
X69223391Y-107360490D01*
X69223393Y-107360492D01*
X69326112Y-107419797D01*
X69326113Y-107419797D01*
X69326116Y-107419799D01*
X69440693Y-107450500D01*
X69440695Y-107450500D01*
X69559309Y-107450500D01*
X69559311Y-107450500D01*
X69673888Y-107419799D01*
X69673890Y-107419797D01*
X69673892Y-107419797D01*
X69776610Y-107360492D01*
X69776610Y-107360491D01*
X69776615Y-107360489D01*
X69860491Y-107276613D01*
X69874014Y-107253191D01*
X69919799Y-107173890D01*
X69919799Y-107173888D01*
X69919801Y-107173886D01*
X69950502Y-107059309D01*
X69950502Y-106940691D01*
X78449502Y-106940691D01*
X78449502Y-107059309D01*
X78470752Y-107138614D01*
X78480204Y-107173890D01*
X78539509Y-107276608D01*
X78539511Y-107276610D01*
X78539513Y-107276613D01*
X78623389Y-107360489D01*
X78623391Y-107360490D01*
X78623393Y-107360492D01*
X78726112Y-107419797D01*
X78726113Y-107419797D01*
X78726116Y-107419799D01*
X78840693Y-107450500D01*
X78840695Y-107450500D01*
X78959309Y-107450500D01*
X78959311Y-107450500D01*
X79073888Y-107419799D01*
X79073890Y-107419797D01*
X79073892Y-107419797D01*
X79176610Y-107360492D01*
X79176610Y-107360491D01*
X79176615Y-107360489D01*
X79260491Y-107276613D01*
X79274014Y-107253191D01*
X79319799Y-107173890D01*
X79319799Y-107173888D01*
X79319801Y-107173886D01*
X79350502Y-107059309D01*
X79350502Y-106940691D01*
X87849502Y-106940691D01*
X87849502Y-107059309D01*
X87870752Y-107138614D01*
X87880204Y-107173890D01*
X87939509Y-107276608D01*
X87939511Y-107276610D01*
X87939513Y-107276613D01*
X88023389Y-107360489D01*
X88023391Y-107360490D01*
X88023393Y-107360492D01*
X88126112Y-107419797D01*
X88126113Y-107419797D01*
X88126116Y-107419799D01*
X88240693Y-107450500D01*
X88240695Y-107450500D01*
X88359309Y-107450500D01*
X88359311Y-107450500D01*
X88473888Y-107419799D01*
X88473890Y-107419797D01*
X88473892Y-107419797D01*
X88576610Y-107360492D01*
X88576610Y-107360491D01*
X88576615Y-107360489D01*
X88660491Y-107276613D01*
X88674014Y-107253191D01*
X88719799Y-107173890D01*
X88719799Y-107173888D01*
X88719801Y-107173886D01*
X88750502Y-107059309D01*
X88750502Y-106940691D01*
X97249502Y-106940691D01*
X97249502Y-107059309D01*
X97270752Y-107138614D01*
X97280204Y-107173890D01*
X97339509Y-107276608D01*
X97339511Y-107276610D01*
X97339513Y-107276613D01*
X97423389Y-107360489D01*
X97423391Y-107360490D01*
X97423393Y-107360492D01*
X97526112Y-107419797D01*
X97526113Y-107419797D01*
X97526116Y-107419799D01*
X97640693Y-107450500D01*
X97640695Y-107450500D01*
X97759309Y-107450500D01*
X97759311Y-107450500D01*
X97873888Y-107419799D01*
X97873890Y-107419797D01*
X97873892Y-107419797D01*
X97976610Y-107360492D01*
X97976610Y-107360491D01*
X97976615Y-107360489D01*
X98060491Y-107276613D01*
X98074014Y-107253191D01*
X109199500Y-107253191D01*
X109199500Y-107371809D01*
X109212359Y-107419799D01*
X109230202Y-107486390D01*
X109289507Y-107589108D01*
X109289509Y-107589110D01*
X109289511Y-107589113D01*
X109373387Y-107672989D01*
X109373389Y-107672990D01*
X109373391Y-107672992D01*
X109476110Y-107732297D01*
X109476111Y-107732297D01*
X109476114Y-107732299D01*
X109590691Y-107763000D01*
X109590693Y-107763000D01*
X109709307Y-107763000D01*
X109709309Y-107763000D01*
X109823886Y-107732299D01*
X109823888Y-107732297D01*
X109823890Y-107732297D01*
X109926608Y-107672992D01*
X109926608Y-107672991D01*
X109926613Y-107672989D01*
X110010489Y-107589113D01*
X110069799Y-107486386D01*
X110100500Y-107371809D01*
X110100500Y-107253191D01*
X110069799Y-107138614D01*
X110069797Y-107138611D01*
X110069797Y-107138609D01*
X110010492Y-107035891D01*
X110010490Y-107035889D01*
X110010489Y-107035887D01*
X109926613Y-106952011D01*
X109926610Y-106952009D01*
X109926608Y-106952007D01*
X109823889Y-106892702D01*
X109823890Y-106892702D01*
X109810351Y-106889074D01*
X109709309Y-106862000D01*
X109590691Y-106862000D01*
X109520567Y-106880789D01*
X109476109Y-106892702D01*
X109373391Y-106952007D01*
X109289507Y-107035891D01*
X109230202Y-107138609D01*
X109220750Y-107173886D01*
X109199500Y-107253191D01*
X98074014Y-107253191D01*
X98119799Y-107173890D01*
X98119799Y-107173888D01*
X98119801Y-107173886D01*
X98150502Y-107059309D01*
X98150502Y-106940691D01*
X98119801Y-106826114D01*
X98119799Y-106826111D01*
X98119799Y-106826109D01*
X98095315Y-106783702D01*
X98070482Y-106740691D01*
X99499500Y-106740691D01*
X99499500Y-106859309D01*
X99508448Y-106892702D01*
X99530202Y-106973890D01*
X99589507Y-107076608D01*
X99589509Y-107076610D01*
X99589511Y-107076613D01*
X99673387Y-107160489D01*
X99673389Y-107160490D01*
X99673391Y-107160492D01*
X99776110Y-107219797D01*
X99776111Y-107219797D01*
X99776114Y-107219799D01*
X99890691Y-107250500D01*
X99890693Y-107250500D01*
X100009307Y-107250500D01*
X100009309Y-107250500D01*
X100123886Y-107219799D01*
X100123888Y-107219797D01*
X100123890Y-107219797D01*
X100225774Y-107160974D01*
X100225783Y-107160968D01*
X100226613Y-107160489D01*
X100310489Y-107076613D01*
X100334000Y-107035891D01*
X100369797Y-106973890D01*
X100369797Y-106973888D01*
X100369799Y-106973886D01*
X100400500Y-106859309D01*
X100400500Y-106740691D01*
X100369799Y-106626114D01*
X100369797Y-106626111D01*
X100369797Y-106626109D01*
X100310492Y-106523391D01*
X100310490Y-106523389D01*
X100310489Y-106523387D01*
X100226613Y-106439511D01*
X100226610Y-106439509D01*
X100226608Y-106439507D01*
X100123891Y-106380203D01*
X100123888Y-106380202D01*
X100123886Y-106380201D01*
X100009309Y-106349500D01*
X99890691Y-106349500D01*
X99820567Y-106368289D01*
X99776109Y-106380202D01*
X99673391Y-106439507D01*
X99589507Y-106523391D01*
X99530202Y-106626109D01*
X99530067Y-106626613D01*
X99499500Y-106740691D01*
X98070482Y-106740691D01*
X98060494Y-106723391D01*
X98060492Y-106723389D01*
X98060491Y-106723387D01*
X97976615Y-106639511D01*
X97976612Y-106639509D01*
X97976610Y-106639507D01*
X97873891Y-106580202D01*
X97873892Y-106580202D01*
X97860353Y-106576574D01*
X97759311Y-106549500D01*
X97640693Y-106549500D01*
X97570569Y-106568289D01*
X97526111Y-106580202D01*
X97423393Y-106639507D01*
X97339509Y-106723391D01*
X97280204Y-106826109D01*
X97280203Y-106826114D01*
X97249502Y-106940691D01*
X88750502Y-106940691D01*
X88719801Y-106826114D01*
X88719799Y-106826111D01*
X88719799Y-106826109D01*
X88660494Y-106723391D01*
X88660492Y-106723389D01*
X88660491Y-106723387D01*
X88576615Y-106639511D01*
X88576612Y-106639509D01*
X88576610Y-106639507D01*
X88473891Y-106580202D01*
X88473892Y-106580202D01*
X88460353Y-106576574D01*
X88359311Y-106549500D01*
X88240693Y-106549500D01*
X88170569Y-106568289D01*
X88126111Y-106580202D01*
X88023393Y-106639507D01*
X87939509Y-106723391D01*
X87880204Y-106826109D01*
X87880203Y-106826114D01*
X87849502Y-106940691D01*
X79350502Y-106940691D01*
X79319801Y-106826114D01*
X79319799Y-106826111D01*
X79319799Y-106826109D01*
X79260494Y-106723391D01*
X79260492Y-106723389D01*
X79260491Y-106723387D01*
X79176615Y-106639511D01*
X79176612Y-106639509D01*
X79176610Y-106639507D01*
X79073891Y-106580202D01*
X79073892Y-106580202D01*
X79060353Y-106576574D01*
X78959311Y-106549500D01*
X78840693Y-106549500D01*
X78770569Y-106568289D01*
X78726111Y-106580202D01*
X78623393Y-106639507D01*
X78539509Y-106723391D01*
X78480204Y-106826109D01*
X78480203Y-106826114D01*
X78449502Y-106940691D01*
X69950502Y-106940691D01*
X69919801Y-106826114D01*
X69919799Y-106826111D01*
X69919799Y-106826109D01*
X69860494Y-106723391D01*
X69860492Y-106723389D01*
X69860491Y-106723387D01*
X69776615Y-106639511D01*
X69776612Y-106639509D01*
X69776610Y-106639507D01*
X69673891Y-106580202D01*
X69673892Y-106580202D01*
X69660353Y-106576574D01*
X69559311Y-106549500D01*
X69440693Y-106549500D01*
X69370569Y-106568289D01*
X69326111Y-106580202D01*
X69223393Y-106639507D01*
X69139509Y-106723391D01*
X69080204Y-106826109D01*
X69080203Y-106826114D01*
X69049502Y-106940691D01*
X60550502Y-106940691D01*
X60519801Y-106826114D01*
X60519799Y-106826111D01*
X60519799Y-106826109D01*
X60460494Y-106723391D01*
X60460492Y-106723389D01*
X60460491Y-106723387D01*
X60376615Y-106639511D01*
X60376612Y-106639509D01*
X60376610Y-106639507D01*
X60273891Y-106580202D01*
X60273892Y-106580202D01*
X60260353Y-106576574D01*
X60159311Y-106549500D01*
X60040693Y-106549500D01*
X59970569Y-106568289D01*
X59926111Y-106580202D01*
X59823393Y-106639507D01*
X59739509Y-106723391D01*
X59680204Y-106826109D01*
X59680203Y-106826114D01*
X59649502Y-106940691D01*
X40500500Y-106940691D01*
X40500500Y-106290691D01*
X119299500Y-106290691D01*
X119299500Y-106409309D01*
X119307592Y-106439507D01*
X119330202Y-106523890D01*
X119389507Y-106626608D01*
X119389509Y-106626610D01*
X119389511Y-106626613D01*
X119473387Y-106710489D01*
X119473389Y-106710490D01*
X119473391Y-106710492D01*
X119576110Y-106769797D01*
X119576111Y-106769797D01*
X119576114Y-106769799D01*
X119690691Y-106800500D01*
X119690693Y-106800500D01*
X119809307Y-106800500D01*
X119809309Y-106800500D01*
X119923886Y-106769799D01*
X119923888Y-106769797D01*
X119923890Y-106769797D01*
X120026608Y-106710492D01*
X120026608Y-106710491D01*
X120026613Y-106710489D01*
X120110489Y-106626613D01*
X120169799Y-106523886D01*
X120200500Y-106409309D01*
X120200500Y-106290691D01*
X120169799Y-106176114D01*
X120169797Y-106176111D01*
X120169797Y-106176109D01*
X120110492Y-106073391D01*
X120110490Y-106073389D01*
X120110489Y-106073387D01*
X120026613Y-105989511D01*
X120026610Y-105989509D01*
X120026608Y-105989507D01*
X119923889Y-105930202D01*
X119923890Y-105930202D01*
X119910351Y-105926574D01*
X119809309Y-105899500D01*
X119690691Y-105899500D01*
X119620567Y-105918289D01*
X119576109Y-105930202D01*
X119473391Y-105989507D01*
X119389507Y-106073391D01*
X119330202Y-106176109D01*
X119330201Y-106176114D01*
X119299500Y-106290691D01*
X40500500Y-106290691D01*
X40500500Y-105665691D01*
X48349500Y-105665691D01*
X48349500Y-105784309D01*
X48376574Y-105885351D01*
X48380202Y-105898890D01*
X48439507Y-106001608D01*
X48439509Y-106001610D01*
X48439511Y-106001613D01*
X48523387Y-106085489D01*
X48523389Y-106085490D01*
X48523391Y-106085492D01*
X48626110Y-106144797D01*
X48626111Y-106144797D01*
X48626114Y-106144799D01*
X48740691Y-106175500D01*
X48740693Y-106175500D01*
X48859307Y-106175500D01*
X48859309Y-106175500D01*
X48973886Y-106144799D01*
X48973888Y-106144797D01*
X48973890Y-106144797D01*
X49076608Y-106085492D01*
X49076608Y-106085491D01*
X49076613Y-106085489D01*
X49160489Y-106001613D01*
X49167476Y-105989511D01*
X49219797Y-105898890D01*
X49219797Y-105898888D01*
X49219799Y-105898886D01*
X49250500Y-105784309D01*
X49250500Y-105665691D01*
X49219799Y-105551114D01*
X49219797Y-105551111D01*
X49219797Y-105551109D01*
X49160492Y-105448391D01*
X49160490Y-105448389D01*
X49160489Y-105448387D01*
X49076613Y-105364511D01*
X49076610Y-105364509D01*
X49076608Y-105364507D01*
X48973889Y-105305202D01*
X48973890Y-105305202D01*
X48960351Y-105301574D01*
X48859309Y-105274500D01*
X48740691Y-105274500D01*
X48670567Y-105293289D01*
X48626109Y-105305202D01*
X48523391Y-105364507D01*
X48439507Y-105448391D01*
X48380202Y-105551109D01*
X48380201Y-105551114D01*
X48349500Y-105665691D01*
X40500500Y-105665691D01*
X40500500Y-104940691D01*
X109199500Y-104940691D01*
X109199500Y-105059309D01*
X109226574Y-105160351D01*
X109230202Y-105173890D01*
X109289507Y-105276608D01*
X109289509Y-105276610D01*
X109289511Y-105276613D01*
X109373387Y-105360489D01*
X109373389Y-105360490D01*
X109373391Y-105360492D01*
X109476110Y-105419797D01*
X109476111Y-105419797D01*
X109476114Y-105419799D01*
X109590691Y-105450500D01*
X109590693Y-105450500D01*
X109709307Y-105450500D01*
X109709309Y-105450500D01*
X109823886Y-105419799D01*
X109823888Y-105419797D01*
X109823890Y-105419797D01*
X109926608Y-105360492D01*
X109926608Y-105360491D01*
X109926613Y-105360489D01*
X110010489Y-105276613D01*
X110069799Y-105173886D01*
X110100500Y-105059309D01*
X110100500Y-104940691D01*
X110069799Y-104826114D01*
X110069797Y-104826111D01*
X110069797Y-104826109D01*
X110010492Y-104723391D01*
X110010490Y-104723389D01*
X110010489Y-104723387D01*
X109926613Y-104639511D01*
X109926610Y-104639509D01*
X109926608Y-104639507D01*
X109823889Y-104580202D01*
X109823890Y-104580202D01*
X109785065Y-104569799D01*
X109709309Y-104549500D01*
X109590691Y-104549500D01*
X109520567Y-104568289D01*
X109476109Y-104580202D01*
X109373391Y-104639507D01*
X109289507Y-104723391D01*
X109230202Y-104826109D01*
X109230201Y-104826114D01*
X109199500Y-104940691D01*
X40500500Y-104940691D01*
X40500500Y-104090691D01*
X111949500Y-104090691D01*
X111949500Y-104209309D01*
X111976574Y-104310351D01*
X111980202Y-104323890D01*
X112039507Y-104426608D01*
X112039509Y-104426610D01*
X112039511Y-104426613D01*
X112123387Y-104510489D01*
X112123389Y-104510490D01*
X112123391Y-104510492D01*
X112226110Y-104569797D01*
X112226111Y-104569797D01*
X112226114Y-104569799D01*
X112340691Y-104600500D01*
X112340693Y-104600500D01*
X112459307Y-104600500D01*
X112459309Y-104600500D01*
X112573886Y-104569799D01*
X112573888Y-104569797D01*
X112573890Y-104569797D01*
X112676608Y-104510492D01*
X112676608Y-104510491D01*
X112676613Y-104510489D01*
X112760489Y-104426613D01*
X112819799Y-104323886D01*
X112850500Y-104209309D01*
X112850500Y-104090691D01*
X112819799Y-103976114D01*
X112819797Y-103976111D01*
X112819797Y-103976109D01*
X112760492Y-103873391D01*
X112760490Y-103873389D01*
X112760489Y-103873387D01*
X112676613Y-103789511D01*
X112676610Y-103789509D01*
X112676608Y-103789507D01*
X112573889Y-103730202D01*
X112573890Y-103730202D01*
X112560351Y-103726574D01*
X112459309Y-103699500D01*
X112340691Y-103699500D01*
X112270567Y-103718289D01*
X112226109Y-103730202D01*
X112123391Y-103789507D01*
X112039507Y-103873391D01*
X111980202Y-103976109D01*
X111975746Y-103992739D01*
X111949500Y-104090691D01*
X40500500Y-104090691D01*
X40500500Y-103220000D01*
X41556177Y-103220000D01*
X41966212Y-103220000D01*
X41950000Y-103280504D01*
X41950000Y-103359496D01*
X41966212Y-103420000D01*
X41556178Y-103420000D01*
X41576901Y-103524181D01*
X41576901Y-103524183D01*
X41629666Y-103651571D01*
X41706271Y-103766220D01*
X41803779Y-103863728D01*
X41918428Y-103940333D01*
X42045816Y-103993098D01*
X42181055Y-104019999D01*
X42181057Y-104020000D01*
X42449999Y-104020000D01*
X42450000Y-104019999D01*
X42450000Y-103620000D01*
X42650000Y-103620000D01*
X42650000Y-104019999D01*
X42650001Y-104020000D01*
X42918943Y-104020000D01*
X42918944Y-104019999D01*
X43054183Y-103993098D01*
X43181571Y-103940333D01*
X43296220Y-103863728D01*
X43393728Y-103766220D01*
X43470333Y-103651571D01*
X43523098Y-103524183D01*
X43523098Y-103524181D01*
X43543822Y-103420000D01*
X43133788Y-103420000D01*
X43150000Y-103359496D01*
X43150000Y-103280504D01*
X43133788Y-103220000D01*
X43543822Y-103220000D01*
X45486177Y-103220000D01*
X45896212Y-103220000D01*
X45880000Y-103280504D01*
X45880000Y-103359496D01*
X45896212Y-103420000D01*
X45486178Y-103420000D01*
X45506901Y-103524181D01*
X45506901Y-103524183D01*
X45559666Y-103651571D01*
X45636271Y-103766220D01*
X45733779Y-103863728D01*
X45848428Y-103940333D01*
X45975816Y-103993098D01*
X46111055Y-104019999D01*
X46111057Y-104020000D01*
X46629999Y-104020000D01*
X46630000Y-104019999D01*
X46630000Y-103620000D01*
X46830000Y-103620000D01*
X46830000Y-104019999D01*
X46830001Y-104020000D01*
X47348943Y-104020000D01*
X47348944Y-104019999D01*
X47484181Y-103993098D01*
X47485050Y-103992739D01*
X47485051Y-103992738D01*
X47485053Y-103992738D01*
X47611571Y-103940333D01*
X47726220Y-103863728D01*
X47823728Y-103766220D01*
X47900333Y-103651571D01*
X47953098Y-103524183D01*
X47953098Y-103524181D01*
X47969706Y-103440691D01*
X102349500Y-103440691D01*
X102349500Y-103559309D01*
X102364168Y-103614050D01*
X102380202Y-103673890D01*
X102439507Y-103776608D01*
X102439509Y-103776610D01*
X102439511Y-103776613D01*
X102523387Y-103860489D01*
X102523389Y-103860490D01*
X102523391Y-103860492D01*
X102626110Y-103919797D01*
X102626111Y-103919797D01*
X102626114Y-103919799D01*
X102740691Y-103950500D01*
X102740693Y-103950500D01*
X102859307Y-103950500D01*
X102859309Y-103950500D01*
X102973886Y-103919799D01*
X102973888Y-103919797D01*
X102973890Y-103919797D01*
X103076608Y-103860492D01*
X103076608Y-103860491D01*
X103076613Y-103860489D01*
X103160489Y-103776613D01*
X103160492Y-103776608D01*
X103219797Y-103673890D01*
X103219797Y-103673888D01*
X103219799Y-103673886D01*
X103250500Y-103559309D01*
X103250500Y-103515828D01*
X103269407Y-103457637D01*
X103318907Y-103421673D01*
X103323837Y-103420212D01*
X103432625Y-103391063D01*
X103432627Y-103391061D01*
X103432629Y-103391061D01*
X103535347Y-103331756D01*
X103535347Y-103331755D01*
X103535352Y-103331753D01*
X103536859Y-103330244D01*
X103538220Y-103329551D01*
X103540498Y-103327804D01*
X103540821Y-103328225D01*
X103591372Y-103302464D01*
X103651805Y-103312031D01*
X103676867Y-103330237D01*
X103682119Y-103335489D01*
X103682121Y-103335490D01*
X103682123Y-103335492D01*
X103784842Y-103394797D01*
X103784843Y-103394797D01*
X103784846Y-103394799D01*
X103899423Y-103425500D01*
X103899425Y-103425500D01*
X104018039Y-103425500D01*
X104018041Y-103425500D01*
X104132618Y-103394799D01*
X104132620Y-103394797D01*
X104132622Y-103394797D01*
X104235340Y-103335492D01*
X104235340Y-103335491D01*
X104235345Y-103335489D01*
X104319221Y-103251613D01*
X104359136Y-103182479D01*
X118000176Y-103182479D01*
X118410211Y-103182479D01*
X118393999Y-103242983D01*
X118393999Y-103321975D01*
X118410211Y-103382479D01*
X118000177Y-103382479D01*
X118020900Y-103486660D01*
X118020900Y-103486662D01*
X118073665Y-103614050D01*
X118150270Y-103728699D01*
X118247778Y-103826207D01*
X118362427Y-103902812D01*
X118489815Y-103955577D01*
X118625054Y-103982478D01*
X118625056Y-103982479D01*
X119143998Y-103982479D01*
X119143999Y-103982478D01*
X119143999Y-103582479D01*
X119343999Y-103582479D01*
X119343999Y-103982478D01*
X119344000Y-103982479D01*
X119862942Y-103982479D01*
X119862943Y-103982478D01*
X119998182Y-103955577D01*
X120125570Y-103902812D01*
X120240219Y-103826207D01*
X120337727Y-103728699D01*
X120414332Y-103614050D01*
X120467097Y-103486662D01*
X120467097Y-103486660D01*
X120487821Y-103382479D01*
X120077787Y-103382479D01*
X120093999Y-103321975D01*
X120093999Y-103242983D01*
X120077787Y-103182479D01*
X120487821Y-103182479D01*
X122430176Y-103182479D01*
X122840211Y-103182479D01*
X122823999Y-103242983D01*
X122823999Y-103321975D01*
X122840211Y-103382479D01*
X122430177Y-103382479D01*
X122450900Y-103486660D01*
X122450900Y-103486662D01*
X122503665Y-103614050D01*
X122580270Y-103728699D01*
X122677778Y-103826207D01*
X122792427Y-103902812D01*
X122919815Y-103955577D01*
X123055054Y-103982478D01*
X123055056Y-103982479D01*
X123323998Y-103982479D01*
X123323999Y-103982478D01*
X123323999Y-103582479D01*
X123523999Y-103582479D01*
X123523999Y-103982478D01*
X123524000Y-103982479D01*
X123792942Y-103982479D01*
X123792943Y-103982478D01*
X123928182Y-103955577D01*
X124055570Y-103902812D01*
X124170219Y-103826207D01*
X124267727Y-103728699D01*
X124344332Y-103614050D01*
X124397097Y-103486662D01*
X124397097Y-103486660D01*
X124417821Y-103382479D01*
X124007787Y-103382479D01*
X124023999Y-103321975D01*
X124023999Y-103242983D01*
X124007787Y-103182479D01*
X124417821Y-103182479D01*
X124397097Y-103078297D01*
X124397097Y-103078295D01*
X124344332Y-102950907D01*
X124267727Y-102836258D01*
X124170219Y-102738750D01*
X124055570Y-102662145D01*
X123928182Y-102609380D01*
X123792943Y-102582479D01*
X123524000Y-102582479D01*
X123523999Y-102582480D01*
X123523999Y-102982479D01*
X123323999Y-102982479D01*
X123323999Y-102582480D01*
X123323998Y-102582479D01*
X123055054Y-102582479D01*
X122919815Y-102609380D01*
X122792427Y-102662145D01*
X122677778Y-102738750D01*
X122580270Y-102836258D01*
X122503665Y-102950907D01*
X122450900Y-103078295D01*
X122450900Y-103078297D01*
X122430176Y-103182479D01*
X120487821Y-103182479D01*
X120467097Y-103078297D01*
X120467097Y-103078295D01*
X120414332Y-102950907D01*
X120337727Y-102836258D01*
X120240219Y-102738750D01*
X120125570Y-102662145D01*
X119998181Y-102609380D01*
X119940875Y-102597981D01*
X119887491Y-102568084D01*
X119861875Y-102512519D01*
X119873812Y-102452509D01*
X119918742Y-102410977D01*
X119934560Y-102405258D01*
X119996134Y-102388760D01*
X120127364Y-102312994D01*
X120234514Y-102205844D01*
X120310280Y-102074614D01*
X120349499Y-101928245D01*
X120349499Y-101776713D01*
X120310280Y-101630344D01*
X120310278Y-101630341D01*
X120310278Y-101630339D01*
X120234517Y-101499118D01*
X120234515Y-101499116D01*
X120234514Y-101499114D01*
X120127364Y-101391964D01*
X120127361Y-101391962D01*
X120127359Y-101391960D01*
X119996137Y-101316199D01*
X119996139Y-101316199D01*
X119939346Y-101300982D01*
X119849765Y-101276979D01*
X119698233Y-101276979D01*
X119608651Y-101300982D01*
X119551859Y-101316199D01*
X119420638Y-101391960D01*
X119313480Y-101499118D01*
X119237719Y-101630339D01*
X119227666Y-101667860D01*
X119198499Y-101776713D01*
X119198499Y-101928245D01*
X119233085Y-102057326D01*
X119237719Y-102074618D01*
X119313480Y-102205839D01*
X119313482Y-102205841D01*
X119313484Y-102205844D01*
X119420634Y-102312994D01*
X119420636Y-102312995D01*
X119420638Y-102312997D01*
X119551860Y-102388758D01*
X119551861Y-102388758D01*
X119551864Y-102388760D01*
X119551866Y-102388760D01*
X119557856Y-102391242D01*
X119556974Y-102393370D01*
X119599792Y-102421177D01*
X119621718Y-102478299D01*
X119605882Y-102537399D01*
X119558331Y-102575904D01*
X119522854Y-102582479D01*
X119344000Y-102582479D01*
X119343999Y-102582480D01*
X119343999Y-102982479D01*
X119143999Y-102982479D01*
X119143999Y-102582480D01*
X119143998Y-102582479D01*
X118625054Y-102582479D01*
X118489815Y-102609380D01*
X118362427Y-102662145D01*
X118247778Y-102738750D01*
X118150270Y-102836258D01*
X118073665Y-102950907D01*
X118020900Y-103078295D01*
X118020900Y-103078297D01*
X118000176Y-103182479D01*
X104359136Y-103182479D01*
X104378531Y-103148886D01*
X104409232Y-103034309D01*
X104409232Y-102915691D01*
X104378531Y-102801114D01*
X104378529Y-102801111D01*
X104378529Y-102801109D01*
X104319224Y-102698391D01*
X104319222Y-102698389D01*
X104319221Y-102698387D01*
X104235345Y-102614511D01*
X104235342Y-102614509D01*
X104235340Y-102614507D01*
X104132621Y-102555202D01*
X104132622Y-102555202D01*
X104118675Y-102551465D01*
X104018041Y-102524500D01*
X103899423Y-102524500D01*
X103851284Y-102537399D01*
X103784841Y-102555202D01*
X103682123Y-102614507D01*
X103682115Y-102614514D01*
X103680601Y-102616028D01*
X103679236Y-102616723D01*
X103676973Y-102618460D01*
X103676650Y-102618040D01*
X103626082Y-102643801D01*
X103565651Y-102634225D01*
X103540602Y-102616025D01*
X103535352Y-102610775D01*
X103535349Y-102610773D01*
X103535347Y-102610771D01*
X103432628Y-102551466D01*
X103432629Y-102551466D01*
X103380130Y-102537399D01*
X103318048Y-102520764D01*
X103199430Y-102520764D01*
X103137348Y-102537399D01*
X103084848Y-102551466D01*
X102982130Y-102610771D01*
X102898246Y-102694655D01*
X102838941Y-102797373D01*
X102808239Y-102911956D01*
X102808239Y-102955435D01*
X102789332Y-103013626D01*
X102739832Y-103049590D01*
X102734876Y-103051057D01*
X102626114Y-103080201D01*
X102626112Y-103080201D01*
X102626108Y-103080203D01*
X102523391Y-103139507D01*
X102439507Y-103223391D01*
X102380202Y-103326109D01*
X102380201Y-103326114D01*
X102349500Y-103440691D01*
X47969706Y-103440691D01*
X47973822Y-103420000D01*
X47563788Y-103420000D01*
X47580000Y-103359496D01*
X47580000Y-103280504D01*
X47563788Y-103220000D01*
X47973822Y-103220000D01*
X47953098Y-103115818D01*
X47953098Y-103115816D01*
X47900333Y-102988428D01*
X47823728Y-102873779D01*
X47726220Y-102776271D01*
X47611571Y-102699666D01*
X47484183Y-102646901D01*
X47348944Y-102620000D01*
X46830001Y-102620000D01*
X46830000Y-102620001D01*
X46830000Y-103020000D01*
X46630000Y-103020000D01*
X46630000Y-102620001D01*
X46629999Y-102620000D01*
X46451145Y-102620000D01*
X46392954Y-102601093D01*
X46356990Y-102551593D01*
X46356990Y-102490407D01*
X46392954Y-102440907D01*
X46416517Y-102429668D01*
X46416143Y-102428763D01*
X46422129Y-102426282D01*
X46422135Y-102426281D01*
X46553365Y-102350515D01*
X46660515Y-102243365D01*
X46736281Y-102112135D01*
X46775500Y-101965766D01*
X46775500Y-101814234D01*
X46736281Y-101667865D01*
X46736279Y-101667862D01*
X46736279Y-101667860D01*
X46660517Y-101536638D01*
X46660516Y-101536637D01*
X46660515Y-101536635D01*
X46614571Y-101490691D01*
X102923500Y-101490691D01*
X102923500Y-101609309D01*
X102934105Y-101648886D01*
X102954202Y-101723890D01*
X103013507Y-101826608D01*
X103013509Y-101826610D01*
X103013511Y-101826613D01*
X103097387Y-101910489D01*
X103097389Y-101910490D01*
X103097391Y-101910492D01*
X103200110Y-101969797D01*
X103200111Y-101969797D01*
X103200114Y-101969799D01*
X103314691Y-102000500D01*
X103314693Y-102000500D01*
X103433307Y-102000500D01*
X103433309Y-102000500D01*
X103547886Y-101969799D01*
X103547888Y-101969797D01*
X103547890Y-101969797D01*
X103650608Y-101910492D01*
X103650608Y-101910491D01*
X103650613Y-101910489D01*
X103734489Y-101826613D01*
X103741636Y-101814234D01*
X103793797Y-101723890D01*
X103793797Y-101723888D01*
X103793799Y-101723886D01*
X103824500Y-101609309D01*
X103824500Y-101490691D01*
X103804404Y-101415691D01*
X105774500Y-101415691D01*
X105774500Y-101534309D01*
X105794596Y-101609307D01*
X105805202Y-101648890D01*
X105864507Y-101751608D01*
X105864509Y-101751610D01*
X105864511Y-101751613D01*
X105948387Y-101835489D01*
X105948389Y-101835490D01*
X105948391Y-101835492D01*
X106051110Y-101894797D01*
X106051111Y-101894797D01*
X106051114Y-101894799D01*
X106165691Y-101925500D01*
X106165693Y-101925500D01*
X106284307Y-101925500D01*
X106284309Y-101925500D01*
X106398886Y-101894799D01*
X106398888Y-101894797D01*
X106398890Y-101894797D01*
X106501608Y-101835492D01*
X106501608Y-101835491D01*
X106501613Y-101835489D01*
X106585489Y-101751613D01*
X106601495Y-101723890D01*
X106603324Y-101720723D01*
X106603325Y-101720721D01*
X106644797Y-101648890D01*
X106644797Y-101648888D01*
X106644799Y-101648886D01*
X106675500Y-101534309D01*
X106675500Y-101415691D01*
X106644799Y-101301114D01*
X106644797Y-101301111D01*
X106644797Y-101301109D01*
X106585492Y-101198391D01*
X106585490Y-101198389D01*
X106585489Y-101198387D01*
X106501613Y-101114511D01*
X106501610Y-101114509D01*
X106501608Y-101114507D01*
X106398889Y-101055202D01*
X106398890Y-101055202D01*
X106385351Y-101051574D01*
X106284309Y-101024500D01*
X106165691Y-101024500D01*
X106095567Y-101043289D01*
X106051109Y-101055202D01*
X105948391Y-101114507D01*
X105864507Y-101198391D01*
X105805202Y-101301109D01*
X105805201Y-101301114D01*
X105774500Y-101415691D01*
X103804404Y-101415691D01*
X103793799Y-101376114D01*
X103793797Y-101376111D01*
X103793797Y-101376109D01*
X103734492Y-101273391D01*
X103734490Y-101273389D01*
X103734489Y-101273387D01*
X103650613Y-101189511D01*
X103650610Y-101189509D01*
X103650608Y-101189507D01*
X103547889Y-101130202D01*
X103547890Y-101130202D01*
X103489330Y-101114511D01*
X103433309Y-101099500D01*
X103314691Y-101099500D01*
X103258670Y-101114511D01*
X103200109Y-101130202D01*
X103097391Y-101189507D01*
X103013507Y-101273391D01*
X102954202Y-101376109D01*
X102954201Y-101376114D01*
X102923500Y-101490691D01*
X46614571Y-101490691D01*
X46553365Y-101429485D01*
X46553362Y-101429483D01*
X46553360Y-101429481D01*
X46422138Y-101353720D01*
X46422140Y-101353720D01*
X46365347Y-101338503D01*
X46275766Y-101314500D01*
X46124234Y-101314500D01*
X46034652Y-101338503D01*
X45977860Y-101353720D01*
X45846639Y-101429481D01*
X45739481Y-101536639D01*
X45663720Y-101667860D01*
X45663719Y-101667865D01*
X45624500Y-101814234D01*
X45624500Y-101965766D01*
X45659086Y-102094847D01*
X45663720Y-102112139D01*
X45739481Y-102243360D01*
X45739483Y-102243362D01*
X45739485Y-102243365D01*
X45846635Y-102350515D01*
X45846637Y-102350516D01*
X45846639Y-102350518D01*
X45977861Y-102426279D01*
X45977859Y-102426279D01*
X45977863Y-102426280D01*
X45977865Y-102426281D01*
X46039433Y-102442778D01*
X46090746Y-102476101D01*
X46112673Y-102533222D01*
X46096838Y-102592323D01*
X46049288Y-102630828D01*
X46033124Y-102635502D01*
X45975816Y-102646901D01*
X45848428Y-102699666D01*
X45733779Y-102776271D01*
X45636271Y-102873779D01*
X45559666Y-102988428D01*
X45506901Y-103115816D01*
X45506901Y-103115818D01*
X45486177Y-103220000D01*
X43543822Y-103220000D01*
X43523098Y-103115818D01*
X43523098Y-103115816D01*
X43470333Y-102988428D01*
X43393728Y-102873779D01*
X43296220Y-102776271D01*
X43181571Y-102699666D01*
X43054183Y-102646901D01*
X42918944Y-102620000D01*
X42650001Y-102620000D01*
X42650000Y-102620001D01*
X42650000Y-103020000D01*
X42450000Y-103020000D01*
X42450000Y-102620001D01*
X42449999Y-102620000D01*
X42181055Y-102620000D01*
X42045816Y-102646901D01*
X41918428Y-102699666D01*
X41803779Y-102776271D01*
X41706271Y-102873779D01*
X41629666Y-102988428D01*
X41576901Y-103115816D01*
X41576901Y-103115818D01*
X41556177Y-103220000D01*
X40500500Y-103220000D01*
X40500500Y-99615691D01*
X52674500Y-99615691D01*
X52674500Y-99734309D01*
X52701574Y-99835351D01*
X52705202Y-99848890D01*
X52764507Y-99951608D01*
X52764509Y-99951610D01*
X52764511Y-99951613D01*
X52848387Y-100035489D01*
X52848389Y-100035490D01*
X52848391Y-100035492D01*
X52951110Y-100094797D01*
X52951111Y-100094797D01*
X52951114Y-100094799D01*
X53065691Y-100125500D01*
X53065693Y-100125500D01*
X53184307Y-100125500D01*
X53184309Y-100125500D01*
X53298886Y-100094799D01*
X53298888Y-100094797D01*
X53298890Y-100094797D01*
X53401608Y-100035492D01*
X53401608Y-100035491D01*
X53401613Y-100035489D01*
X53485489Y-99951613D01*
X53501783Y-99923391D01*
X53544797Y-99848890D01*
X53544797Y-99848888D01*
X53544799Y-99848886D01*
X53575500Y-99734309D01*
X53575500Y-99615691D01*
X53544799Y-99501114D01*
X53544797Y-99501111D01*
X53544797Y-99501109D01*
X53485492Y-99398391D01*
X53485490Y-99398389D01*
X53485489Y-99398387D01*
X53401613Y-99314511D01*
X53401610Y-99314509D01*
X53401608Y-99314507D01*
X53363822Y-99292691D01*
X99299500Y-99292691D01*
X99299500Y-99411309D01*
X99326075Y-99510489D01*
X99330202Y-99525890D01*
X99389507Y-99628608D01*
X99389509Y-99628610D01*
X99389511Y-99628613D01*
X99473387Y-99712489D01*
X99473389Y-99712490D01*
X99473391Y-99712492D01*
X99576110Y-99771797D01*
X99576111Y-99771797D01*
X99576114Y-99771799D01*
X99690691Y-99802500D01*
X99690693Y-99802500D01*
X99809307Y-99802500D01*
X99809309Y-99802500D01*
X99834720Y-99795691D01*
X103524498Y-99795691D01*
X103524498Y-99914309D01*
X103534494Y-99951613D01*
X103555200Y-100028890D01*
X103614505Y-100131608D01*
X103614507Y-100131610D01*
X103614509Y-100131613D01*
X103698385Y-100215489D01*
X103698387Y-100215490D01*
X103698389Y-100215492D01*
X103801108Y-100274797D01*
X103801109Y-100274797D01*
X103801112Y-100274799D01*
X103915689Y-100305500D01*
X103915691Y-100305500D01*
X104034305Y-100305500D01*
X104034307Y-100305500D01*
X104148884Y-100274799D01*
X104148886Y-100274797D01*
X104148888Y-100274797D01*
X104251606Y-100215492D01*
X104251606Y-100215491D01*
X104251611Y-100215489D01*
X104335487Y-100131613D01*
X104394797Y-100028886D01*
X104425498Y-99914309D01*
X104425498Y-99795691D01*
X104394797Y-99681114D01*
X104394795Y-99681111D01*
X104394795Y-99681109D01*
X104335490Y-99578391D01*
X104335488Y-99578389D01*
X104335487Y-99578387D01*
X104251611Y-99494511D01*
X104251608Y-99494509D01*
X104251606Y-99494507D01*
X104198588Y-99463897D01*
X104148887Y-99435202D01*
X104148888Y-99435202D01*
X104116833Y-99426613D01*
X104034307Y-99404500D01*
X103915689Y-99404500D01*
X103845565Y-99423289D01*
X103801107Y-99435202D01*
X103698389Y-99494507D01*
X103614505Y-99578391D01*
X103555200Y-99681109D01*
X103544626Y-99720572D01*
X103524498Y-99795691D01*
X99834720Y-99795691D01*
X99923886Y-99771799D01*
X99923888Y-99771797D01*
X99923890Y-99771797D01*
X100026608Y-99712492D01*
X100026608Y-99712491D01*
X100026613Y-99712489D01*
X100110489Y-99628613D01*
X100144447Y-99569797D01*
X100169797Y-99525890D01*
X100169797Y-99525888D01*
X100169799Y-99525886D01*
X100200500Y-99411309D01*
X100200500Y-99384650D01*
X107343459Y-99384650D01*
X107343459Y-99503268D01*
X107361286Y-99569799D01*
X107374161Y-99617849D01*
X107433466Y-99720567D01*
X107433468Y-99720569D01*
X107433470Y-99720572D01*
X107517346Y-99804448D01*
X107517348Y-99804449D01*
X107517350Y-99804451D01*
X107574734Y-99837582D01*
X107615675Y-99883051D01*
X107622071Y-99943902D01*
X107610971Y-99972817D01*
X107580202Y-100026110D01*
X107580201Y-100026114D01*
X107549500Y-100140691D01*
X107549500Y-100259309D01*
X107553650Y-100274797D01*
X107580202Y-100373890D01*
X107639507Y-100476608D01*
X107639509Y-100476610D01*
X107639511Y-100476613D01*
X107723387Y-100560489D01*
X107723389Y-100560490D01*
X107723391Y-100560492D01*
X107826110Y-100619797D01*
X107826111Y-100619797D01*
X107826114Y-100619799D01*
X107940691Y-100650500D01*
X107940693Y-100650500D01*
X108059307Y-100650500D01*
X108059309Y-100650500D01*
X108173886Y-100619799D01*
X108173888Y-100619797D01*
X108173890Y-100619797D01*
X108276608Y-100560492D01*
X108276608Y-100560491D01*
X108276613Y-100560489D01*
X108360489Y-100476613D01*
X108419799Y-100373886D01*
X108450500Y-100259309D01*
X108450500Y-100140691D01*
X108419799Y-100026114D01*
X108419797Y-100026110D01*
X108419797Y-100026109D01*
X108360492Y-99923391D01*
X108360490Y-99923389D01*
X108360489Y-99923387D01*
X108276613Y-99839511D01*
X108273272Y-99837582D01*
X108219223Y-99806376D01*
X108178283Y-99760906D01*
X108171888Y-99700056D01*
X108182988Y-99671139D01*
X108213758Y-99617845D01*
X108244459Y-99503268D01*
X108244459Y-99384650D01*
X108213758Y-99270073D01*
X108213756Y-99270070D01*
X108213756Y-99270068D01*
X108154451Y-99167350D01*
X108154449Y-99167348D01*
X108154448Y-99167346D01*
X108077793Y-99090691D01*
X110994499Y-99090691D01*
X110994499Y-99209309D01*
X111010781Y-99270073D01*
X111025201Y-99323890D01*
X111084506Y-99426608D01*
X111084508Y-99426610D01*
X111084510Y-99426613D01*
X111168386Y-99510489D01*
X111168388Y-99510490D01*
X111168390Y-99510492D01*
X111271109Y-99569797D01*
X111271110Y-99569797D01*
X111271113Y-99569799D01*
X111385690Y-99600500D01*
X111385692Y-99600500D01*
X111504306Y-99600500D01*
X111504308Y-99600500D01*
X111618885Y-99569799D01*
X111618887Y-99569797D01*
X111618889Y-99569797D01*
X111721607Y-99510492D01*
X111721607Y-99510491D01*
X111721612Y-99510489D01*
X111805488Y-99426613D01*
X111821782Y-99398391D01*
X111864796Y-99323890D01*
X111864796Y-99323888D01*
X111864798Y-99323886D01*
X111895499Y-99209309D01*
X111895499Y-99090691D01*
X111864798Y-98976114D01*
X111864796Y-98976111D01*
X111864796Y-98976109D01*
X111805491Y-98873391D01*
X111805489Y-98873389D01*
X111805488Y-98873387D01*
X111721612Y-98789511D01*
X111721609Y-98789509D01*
X111622724Y-98732417D01*
X111622723Y-98732416D01*
X111618888Y-98730202D01*
X111618885Y-98730201D01*
X111504308Y-98699500D01*
X111385690Y-98699500D01*
X111315566Y-98718289D01*
X111271108Y-98730202D01*
X111168390Y-98789507D01*
X111084506Y-98873391D01*
X111025201Y-98976109D01*
X111021075Y-98991507D01*
X110994499Y-99090691D01*
X108077793Y-99090691D01*
X108070572Y-99083470D01*
X108070569Y-99083468D01*
X108070567Y-99083466D01*
X107967848Y-99024161D01*
X107967849Y-99024161D01*
X107954310Y-99020533D01*
X107853268Y-98993459D01*
X107734650Y-98993459D01*
X107664526Y-99012248D01*
X107620068Y-99024161D01*
X107517350Y-99083466D01*
X107433466Y-99167350D01*
X107374161Y-99270068D01*
X107370970Y-99281979D01*
X107343459Y-99384650D01*
X100200500Y-99384650D01*
X100200500Y-99292691D01*
X100169799Y-99178114D01*
X100169797Y-99178111D01*
X100169797Y-99178109D01*
X100110492Y-99075391D01*
X100110490Y-99075389D01*
X100110489Y-99075387D01*
X100026613Y-98991511D01*
X100026610Y-98991509D01*
X100026608Y-98991507D01*
X99923889Y-98932202D01*
X99923890Y-98932202D01*
X99910351Y-98928574D01*
X99809309Y-98901500D01*
X99690691Y-98901500D01*
X99620567Y-98920289D01*
X99576109Y-98932202D01*
X99473391Y-98991507D01*
X99389507Y-99075391D01*
X99330202Y-99178109D01*
X99330201Y-99178114D01*
X99299500Y-99292691D01*
X53363822Y-99292691D01*
X53298889Y-99255202D01*
X53298890Y-99255202D01*
X53285351Y-99251574D01*
X53184309Y-99224500D01*
X53065691Y-99224500D01*
X52995567Y-99243289D01*
X52951109Y-99255202D01*
X52848391Y-99314507D01*
X52764507Y-99398391D01*
X52705202Y-99501109D01*
X52705201Y-99501114D01*
X52674500Y-99615691D01*
X40500500Y-99615691D01*
X40500500Y-98653170D01*
X119048499Y-98653170D01*
X119048499Y-98771788D01*
X119053248Y-98789511D01*
X119079201Y-98886369D01*
X119138506Y-98989087D01*
X119138508Y-98989089D01*
X119138510Y-98989092D01*
X119222386Y-99072968D01*
X119222388Y-99072969D01*
X119222390Y-99072971D01*
X119330732Y-99135523D01*
X119329612Y-99137461D01*
X119368590Y-99170755D01*
X119382871Y-99230250D01*
X119359455Y-99286777D01*
X119330004Y-99308174D01*
X119330732Y-99309435D01*
X119222390Y-99371986D01*
X119138506Y-99455870D01*
X119079201Y-99558588D01*
X119079200Y-99558593D01*
X119048499Y-99673170D01*
X119048499Y-99791788D01*
X119072260Y-99880466D01*
X119079201Y-99906369D01*
X119138506Y-100009087D01*
X119138508Y-100009089D01*
X119138510Y-100009092D01*
X119222386Y-100092968D01*
X119222388Y-100092969D01*
X119222390Y-100092971D01*
X119325109Y-100152276D01*
X119325110Y-100152276D01*
X119325113Y-100152278D01*
X119439690Y-100182979D01*
X119439692Y-100182979D01*
X119558306Y-100182979D01*
X119558308Y-100182979D01*
X119672885Y-100152278D01*
X119672887Y-100152276D01*
X119672889Y-100152276D01*
X119775607Y-100092971D01*
X119775607Y-100092970D01*
X119775612Y-100092968D01*
X119859488Y-100009092D01*
X119908968Y-99923391D01*
X119918796Y-99906369D01*
X119918796Y-99906367D01*
X119918798Y-99906365D01*
X119949499Y-99791788D01*
X119949499Y-99673170D01*
X119918798Y-99558593D01*
X119918796Y-99558590D01*
X119918796Y-99558588D01*
X119859491Y-99455870D01*
X119859489Y-99455868D01*
X119859488Y-99455866D01*
X119775612Y-99371990D01*
X119775609Y-99371988D01*
X119775607Y-99371986D01*
X119667266Y-99309435D01*
X119668386Y-99307494D01*
X119629413Y-99274213D01*
X119615125Y-99214719D01*
X119638535Y-99158190D01*
X119667995Y-99136785D01*
X119667266Y-99135523D01*
X119775607Y-99072971D01*
X119775607Y-99072970D01*
X119775612Y-99072968D01*
X119859488Y-98989092D01*
X119892334Y-98932202D01*
X119918796Y-98886369D01*
X119918796Y-98886367D01*
X119918798Y-98886365D01*
X119949499Y-98771788D01*
X119949499Y-98653170D01*
X119918798Y-98538593D01*
X119918796Y-98538590D01*
X119918796Y-98538588D01*
X119859491Y-98435870D01*
X119859489Y-98435868D01*
X119859488Y-98435866D01*
X119775612Y-98351990D01*
X119775609Y-98351988D01*
X119775607Y-98351986D01*
X119672888Y-98292681D01*
X119672889Y-98292681D01*
X119659350Y-98289053D01*
X119558308Y-98261979D01*
X119439690Y-98261979D01*
X119369566Y-98280768D01*
X119325108Y-98292681D01*
X119222390Y-98351986D01*
X119138506Y-98435870D01*
X119079201Y-98538588D01*
X119079200Y-98538593D01*
X119048499Y-98653170D01*
X40500500Y-98653170D01*
X40500500Y-97366691D01*
X100174500Y-97366691D01*
X100174500Y-97485309D01*
X100201574Y-97586351D01*
X100205202Y-97599890D01*
X100264507Y-97702608D01*
X100264509Y-97702610D01*
X100264511Y-97702613D01*
X100348387Y-97786489D01*
X100348389Y-97786490D01*
X100348391Y-97786492D01*
X100451110Y-97845797D01*
X100451111Y-97845797D01*
X100451114Y-97845799D01*
X100565691Y-97876500D01*
X100565693Y-97876500D01*
X100684307Y-97876500D01*
X100684309Y-97876500D01*
X100798886Y-97845799D01*
X100798888Y-97845797D01*
X100798890Y-97845797D01*
X100901608Y-97786492D01*
X100901608Y-97786491D01*
X100901613Y-97786489D01*
X100985489Y-97702613D01*
X101044799Y-97599886D01*
X101075500Y-97485309D01*
X101075500Y-97366691D01*
X101044799Y-97252114D01*
X101044797Y-97252111D01*
X101044797Y-97252109D01*
X100985492Y-97149391D01*
X100985490Y-97149389D01*
X100985489Y-97149387D01*
X100901613Y-97065511D01*
X100901610Y-97065509D01*
X100901608Y-97065507D01*
X100798889Y-97006202D01*
X100798890Y-97006202D01*
X100785351Y-97002574D01*
X100684309Y-96975500D01*
X100565691Y-96975500D01*
X100495567Y-96994289D01*
X100451109Y-97006202D01*
X100348391Y-97065507D01*
X100264507Y-97149391D01*
X100205202Y-97252109D01*
X100205201Y-97252114D01*
X100174500Y-97366691D01*
X40500500Y-97366691D01*
X40500500Y-94580000D01*
X41556177Y-94580000D01*
X41966212Y-94580000D01*
X41950000Y-94640504D01*
X41950000Y-94719496D01*
X41966212Y-94780000D01*
X41556178Y-94780000D01*
X41576901Y-94884181D01*
X41576901Y-94884183D01*
X41629666Y-95011571D01*
X41706271Y-95126220D01*
X41803779Y-95223728D01*
X41918428Y-95300333D01*
X42045816Y-95353098D01*
X42181055Y-95379999D01*
X42181057Y-95380000D01*
X42449999Y-95380000D01*
X42450000Y-95379999D01*
X42450000Y-94980000D01*
X42650000Y-94980000D01*
X42650000Y-95379999D01*
X42650001Y-95380000D01*
X42918943Y-95380000D01*
X42918944Y-95379999D01*
X43054183Y-95353098D01*
X43181571Y-95300333D01*
X43296220Y-95223728D01*
X43393728Y-95126220D01*
X43470333Y-95011571D01*
X43523098Y-94884183D01*
X43523098Y-94884181D01*
X43543822Y-94780000D01*
X43133788Y-94780000D01*
X43150000Y-94719496D01*
X43150000Y-94640504D01*
X43133788Y-94580000D01*
X43543822Y-94580000D01*
X45486177Y-94580000D01*
X45896212Y-94580000D01*
X45880000Y-94640504D01*
X45880000Y-94719496D01*
X45896212Y-94780000D01*
X45486178Y-94780000D01*
X45506901Y-94884181D01*
X45506901Y-94884183D01*
X45559666Y-95011571D01*
X45636271Y-95126220D01*
X45733779Y-95223728D01*
X45848428Y-95300333D01*
X45975816Y-95353098D01*
X45975819Y-95353099D01*
X46033122Y-95364497D01*
X46086506Y-95394393D01*
X46112123Y-95449958D01*
X46100186Y-95509968D01*
X46055257Y-95551501D01*
X46039433Y-95557221D01*
X45977865Y-95573718D01*
X45977861Y-95573720D01*
X45846639Y-95649481D01*
X45739481Y-95756639D01*
X45663720Y-95887860D01*
X45663719Y-95887865D01*
X45624500Y-96034234D01*
X45624500Y-96185766D01*
X45659086Y-96314847D01*
X45663720Y-96332139D01*
X45739481Y-96463360D01*
X45739483Y-96463362D01*
X45739485Y-96463365D01*
X45846635Y-96570515D01*
X45846637Y-96570516D01*
X45846639Y-96570518D01*
X45977861Y-96646279D01*
X45977859Y-96646279D01*
X45977863Y-96646280D01*
X45977865Y-96646281D01*
X46124234Y-96685500D01*
X46124236Y-96685500D01*
X46275764Y-96685500D01*
X46275766Y-96685500D01*
X46422135Y-96646281D01*
X46422137Y-96646279D01*
X46422139Y-96646279D01*
X46553360Y-96570518D01*
X46553360Y-96570517D01*
X46553365Y-96570515D01*
X46660515Y-96463365D01*
X46736281Y-96332135D01*
X46775500Y-96185766D01*
X46775500Y-96034234D01*
X46736281Y-95887865D01*
X46736279Y-95887862D01*
X46736279Y-95887860D01*
X46660518Y-95756639D01*
X46660516Y-95756637D01*
X46660515Y-95756635D01*
X46553365Y-95649485D01*
X46553362Y-95649483D01*
X46553360Y-95649481D01*
X46422138Y-95573720D01*
X46416143Y-95571237D01*
X46417024Y-95569108D01*
X46374207Y-95541302D01*
X46352281Y-95484180D01*
X46368117Y-95425080D01*
X46415668Y-95386575D01*
X46451145Y-95380000D01*
X46629999Y-95380000D01*
X46630000Y-95379999D01*
X46630000Y-94980000D01*
X46830000Y-94980000D01*
X46830000Y-95379999D01*
X46830001Y-95380000D01*
X47348943Y-95380000D01*
X47348944Y-95379999D01*
X47484183Y-95353098D01*
X47611571Y-95300333D01*
X47726220Y-95223728D01*
X47823728Y-95126220D01*
X47900333Y-95011571D01*
X47953098Y-94884183D01*
X47953098Y-94884181D01*
X47957771Y-94860690D01*
X102869632Y-94860690D01*
X102869632Y-94979308D01*
X102878277Y-95011571D01*
X102900334Y-95093889D01*
X102959639Y-95196607D01*
X102959641Y-95196609D01*
X102959643Y-95196612D01*
X103043519Y-95280488D01*
X103043521Y-95280489D01*
X103043523Y-95280491D01*
X103146242Y-95339796D01*
X103146243Y-95339796D01*
X103146246Y-95339798D01*
X103260823Y-95370499D01*
X103260825Y-95370499D01*
X103379439Y-95370499D01*
X103379441Y-95370499D01*
X103494018Y-95339798D01*
X103494020Y-95339796D01*
X103494022Y-95339796D01*
X103596740Y-95280491D01*
X103596740Y-95280490D01*
X103596745Y-95280488D01*
X103616542Y-95260691D01*
X110269499Y-95260691D01*
X110269499Y-95379309D01*
X110294355Y-95472072D01*
X110300201Y-95493890D01*
X110359506Y-95596608D01*
X110359508Y-95596610D01*
X110359510Y-95596613D01*
X110443386Y-95680489D01*
X110443388Y-95680490D01*
X110443390Y-95680492D01*
X110546109Y-95739797D01*
X110546110Y-95739797D01*
X110546113Y-95739799D01*
X110660690Y-95770500D01*
X110660692Y-95770500D01*
X110779306Y-95770500D01*
X110779308Y-95770500D01*
X110893885Y-95739799D01*
X110893887Y-95739797D01*
X110893889Y-95739797D01*
X110996607Y-95680492D01*
X110996607Y-95680491D01*
X110996612Y-95680489D01*
X111080488Y-95596613D01*
X111080491Y-95596608D01*
X111139796Y-95493890D01*
X111139796Y-95493888D01*
X111139798Y-95493886D01*
X111170499Y-95379309D01*
X111170499Y-95260691D01*
X111139798Y-95146114D01*
X111139796Y-95146111D01*
X111139796Y-95146109D01*
X111080491Y-95043391D01*
X111080489Y-95043389D01*
X111080488Y-95043387D01*
X110996612Y-94959511D01*
X110996609Y-94959509D01*
X110996607Y-94959507D01*
X110893888Y-94900202D01*
X110893889Y-94900202D01*
X110880350Y-94896574D01*
X110779308Y-94869500D01*
X110660690Y-94869500D01*
X110605893Y-94884183D01*
X110546108Y-94900202D01*
X110443390Y-94959507D01*
X110359506Y-95043391D01*
X110300201Y-95146109D01*
X110300200Y-95146114D01*
X110269499Y-95260691D01*
X103616542Y-95260691D01*
X103680621Y-95196612D01*
X103680624Y-95196607D01*
X103739929Y-95093889D01*
X103739929Y-95093887D01*
X103739931Y-95093885D01*
X103770632Y-94979308D01*
X103770632Y-94860690D01*
X103739931Y-94746113D01*
X103739928Y-94746107D01*
X103680624Y-94643390D01*
X103680622Y-94643388D01*
X103680621Y-94643386D01*
X103596745Y-94559510D01*
X103596742Y-94559508D01*
X103596740Y-94559506D01*
X103567248Y-94542479D01*
X118000176Y-94542479D01*
X118410211Y-94542479D01*
X118393999Y-94602983D01*
X118393999Y-94681975D01*
X118410211Y-94742479D01*
X118000177Y-94742479D01*
X118020900Y-94846660D01*
X118020900Y-94846662D01*
X118073665Y-94974050D01*
X118150270Y-95088699D01*
X118247778Y-95186207D01*
X118362427Y-95262812D01*
X118489815Y-95315577D01*
X118625054Y-95342478D01*
X118625056Y-95342479D01*
X119143998Y-95342479D01*
X119143999Y-95342478D01*
X119143999Y-94942479D01*
X119343999Y-94942479D01*
X119343999Y-95342478D01*
X119344000Y-95342479D01*
X119522854Y-95342479D01*
X119581045Y-95361386D01*
X119617009Y-95410886D01*
X119617009Y-95472072D01*
X119581045Y-95521572D01*
X119557481Y-95532810D01*
X119557856Y-95533716D01*
X119551860Y-95536199D01*
X119420638Y-95611960D01*
X119313480Y-95719118D01*
X119237719Y-95850339D01*
X119237718Y-95850344D01*
X119198499Y-95996713D01*
X119198499Y-96148245D01*
X119208552Y-96185764D01*
X119237719Y-96294618D01*
X119313480Y-96425839D01*
X119313482Y-96425841D01*
X119313484Y-96425844D01*
X119420634Y-96532994D01*
X119420636Y-96532995D01*
X119420638Y-96532997D01*
X119551860Y-96608758D01*
X119551858Y-96608758D01*
X119551862Y-96608759D01*
X119551864Y-96608760D01*
X119698233Y-96647979D01*
X119698235Y-96647979D01*
X119849763Y-96647979D01*
X119849765Y-96647979D01*
X119996134Y-96608760D01*
X119996136Y-96608758D01*
X119996138Y-96608758D01*
X120127359Y-96532997D01*
X120127359Y-96532996D01*
X120127364Y-96532994D01*
X120234514Y-96425844D01*
X120310280Y-96294614D01*
X120349499Y-96148245D01*
X120349499Y-95996713D01*
X120310280Y-95850344D01*
X120310278Y-95850341D01*
X120310278Y-95850339D01*
X120234517Y-95719118D01*
X120234515Y-95719116D01*
X120234514Y-95719114D01*
X120127364Y-95611964D01*
X120127361Y-95611962D01*
X120127359Y-95611960D01*
X119996139Y-95536200D01*
X119996136Y-95536199D01*
X119996134Y-95536198D01*
X119934564Y-95519700D01*
X119883251Y-95486376D01*
X119861325Y-95429255D01*
X119877161Y-95370154D01*
X119924711Y-95331649D01*
X119940876Y-95326976D01*
X119998179Y-95315578D01*
X119998182Y-95315577D01*
X120125570Y-95262812D01*
X120240219Y-95186207D01*
X120337727Y-95088699D01*
X120414332Y-94974050D01*
X120467097Y-94846662D01*
X120467097Y-94846660D01*
X120487821Y-94742479D01*
X120077787Y-94742479D01*
X120093999Y-94681975D01*
X120093999Y-94602983D01*
X120077787Y-94542479D01*
X120487821Y-94542479D01*
X122430176Y-94542479D01*
X122840211Y-94542479D01*
X122823999Y-94602983D01*
X122823999Y-94681975D01*
X122840211Y-94742479D01*
X122430177Y-94742479D01*
X122450900Y-94846660D01*
X122450900Y-94846662D01*
X122503665Y-94974050D01*
X122580270Y-95088699D01*
X122677778Y-95186207D01*
X122792427Y-95262812D01*
X122919815Y-95315577D01*
X123055054Y-95342478D01*
X123055056Y-95342479D01*
X123323998Y-95342479D01*
X123323999Y-95342478D01*
X123323999Y-94942479D01*
X123523999Y-94942479D01*
X123523999Y-95342478D01*
X123524000Y-95342479D01*
X123792942Y-95342479D01*
X123792943Y-95342478D01*
X123928182Y-95315577D01*
X124055570Y-95262812D01*
X124170219Y-95186207D01*
X124267727Y-95088699D01*
X124344332Y-94974050D01*
X124397097Y-94846662D01*
X124397097Y-94846660D01*
X124417821Y-94742479D01*
X124007787Y-94742479D01*
X124023999Y-94681975D01*
X124023999Y-94602983D01*
X124007787Y-94542479D01*
X124417821Y-94542479D01*
X124397097Y-94438297D01*
X124397097Y-94438295D01*
X124344332Y-94310907D01*
X124267727Y-94196258D01*
X124170219Y-94098750D01*
X124055570Y-94022145D01*
X123928182Y-93969380D01*
X123792943Y-93942479D01*
X123524000Y-93942479D01*
X123523999Y-93942480D01*
X123523999Y-94342479D01*
X123323999Y-94342479D01*
X123323999Y-93942480D01*
X123323998Y-93942479D01*
X123055054Y-93942479D01*
X122919815Y-93969380D01*
X122792427Y-94022145D01*
X122677778Y-94098750D01*
X122580270Y-94196258D01*
X122503665Y-94310907D01*
X122450900Y-94438295D01*
X122450900Y-94438297D01*
X122430176Y-94542479D01*
X120487821Y-94542479D01*
X120467097Y-94438297D01*
X120467097Y-94438295D01*
X120414332Y-94310907D01*
X120337727Y-94196258D01*
X120240219Y-94098750D01*
X120125570Y-94022145D01*
X119998182Y-93969380D01*
X119862943Y-93942479D01*
X119344000Y-93942479D01*
X119343999Y-93942480D01*
X119343999Y-94342479D01*
X119143999Y-94342479D01*
X119143999Y-93942480D01*
X119143998Y-93942479D01*
X118625054Y-93942479D01*
X118489815Y-93969380D01*
X118362427Y-94022145D01*
X118247778Y-94098750D01*
X118150270Y-94196258D01*
X118073665Y-94310907D01*
X118020900Y-94438295D01*
X118020900Y-94438297D01*
X118000176Y-94542479D01*
X103567248Y-94542479D01*
X103494021Y-94500201D01*
X103494022Y-94500201D01*
X103477578Y-94495795D01*
X103379441Y-94469499D01*
X103260823Y-94469499D01*
X103190699Y-94488288D01*
X103146241Y-94500201D01*
X103043523Y-94559506D01*
X102959639Y-94643390D01*
X102900334Y-94746108D01*
X102900333Y-94746113D01*
X102869632Y-94860690D01*
X47957771Y-94860690D01*
X47962904Y-94834887D01*
X47973822Y-94780000D01*
X47563788Y-94780000D01*
X47580000Y-94719496D01*
X47580000Y-94640504D01*
X47563788Y-94580000D01*
X47973822Y-94580000D01*
X47953098Y-94475818D01*
X47953098Y-94475816D01*
X47900333Y-94348428D01*
X47823728Y-94233779D01*
X47726220Y-94136271D01*
X47611571Y-94059666D01*
X47484183Y-94006901D01*
X47348944Y-93980000D01*
X46830001Y-93980000D01*
X46830000Y-93980001D01*
X46830000Y-94380000D01*
X46630000Y-94380000D01*
X46630000Y-93980001D01*
X46629999Y-93980000D01*
X46111055Y-93980000D01*
X45975816Y-94006901D01*
X45848428Y-94059666D01*
X45733779Y-94136271D01*
X45636271Y-94233779D01*
X45559666Y-94348428D01*
X45506901Y-94475816D01*
X45506901Y-94475818D01*
X45486177Y-94580000D01*
X43543822Y-94580000D01*
X43523098Y-94475818D01*
X43523098Y-94475816D01*
X43470333Y-94348428D01*
X43393728Y-94233779D01*
X43296220Y-94136271D01*
X43181571Y-94059666D01*
X43054183Y-94006901D01*
X42918944Y-93980000D01*
X42650001Y-93980000D01*
X42650000Y-93980001D01*
X42650000Y-94380000D01*
X42450000Y-94380000D01*
X42450000Y-93980001D01*
X42449999Y-93980000D01*
X42181055Y-93980000D01*
X42045816Y-94006901D01*
X41918428Y-94059666D01*
X41803779Y-94136271D01*
X41706271Y-94233779D01*
X41629666Y-94348428D01*
X41576901Y-94475816D01*
X41576901Y-94475818D01*
X41556177Y-94580000D01*
X40500500Y-94580000D01*
X40500500Y-91840691D01*
X49749498Y-91840691D01*
X49749498Y-91959309D01*
X49770987Y-92039507D01*
X49780200Y-92073890D01*
X49839505Y-92176608D01*
X49839507Y-92176610D01*
X49839509Y-92176613D01*
X49923385Y-92260489D01*
X49923387Y-92260490D01*
X49923389Y-92260492D01*
X50026108Y-92319797D01*
X50026109Y-92319797D01*
X50026112Y-92319799D01*
X50140689Y-92350500D01*
X50140691Y-92350500D01*
X50259305Y-92350500D01*
X50259307Y-92350500D01*
X50373884Y-92319799D01*
X50373886Y-92319797D01*
X50373888Y-92319797D01*
X50476606Y-92260492D01*
X50476606Y-92260491D01*
X50476611Y-92260489D01*
X50560487Y-92176613D01*
X50560490Y-92176608D01*
X50619795Y-92073890D01*
X50619795Y-92073888D01*
X50619797Y-92073886D01*
X50650498Y-91959309D01*
X50650498Y-91840691D01*
X59149498Y-91840691D01*
X59149498Y-91959309D01*
X59170987Y-92039507D01*
X59180200Y-92073890D01*
X59239505Y-92176608D01*
X59239507Y-92176610D01*
X59239509Y-92176613D01*
X59323385Y-92260489D01*
X59323387Y-92260490D01*
X59323389Y-92260492D01*
X59426108Y-92319797D01*
X59426109Y-92319797D01*
X59426112Y-92319799D01*
X59540689Y-92350500D01*
X59540691Y-92350500D01*
X59659305Y-92350500D01*
X59659307Y-92350500D01*
X59773884Y-92319799D01*
X59773886Y-92319797D01*
X59773888Y-92319797D01*
X59876606Y-92260492D01*
X59876606Y-92260491D01*
X59876611Y-92260489D01*
X59960487Y-92176613D01*
X59960490Y-92176608D01*
X60019795Y-92073890D01*
X60019795Y-92073888D01*
X60019797Y-92073886D01*
X60050498Y-91959309D01*
X60050498Y-91840691D01*
X60050498Y-91840690D01*
X68549497Y-91840690D01*
X68549497Y-91959308D01*
X68576571Y-92060350D01*
X68580199Y-92073889D01*
X68639504Y-92176607D01*
X68639506Y-92176609D01*
X68639508Y-92176612D01*
X68723384Y-92260488D01*
X68723386Y-92260489D01*
X68723388Y-92260491D01*
X68826107Y-92319796D01*
X68826108Y-92319796D01*
X68826111Y-92319798D01*
X68940688Y-92350499D01*
X68940690Y-92350499D01*
X69059304Y-92350499D01*
X69059306Y-92350499D01*
X69173883Y-92319798D01*
X69173885Y-92319796D01*
X69173887Y-92319796D01*
X69276605Y-92260491D01*
X69276605Y-92260490D01*
X69276610Y-92260488D01*
X69360486Y-92176612D01*
X69366223Y-92166676D01*
X69419794Y-92073889D01*
X69419795Y-92073886D01*
X69419796Y-92073885D01*
X69450497Y-91959308D01*
X69450497Y-91840691D01*
X77949498Y-91840691D01*
X77949498Y-91959309D01*
X77970987Y-92039507D01*
X77980200Y-92073890D01*
X78039505Y-92176608D01*
X78039507Y-92176610D01*
X78039509Y-92176613D01*
X78123385Y-92260489D01*
X78123387Y-92260490D01*
X78123389Y-92260492D01*
X78226108Y-92319797D01*
X78226109Y-92319797D01*
X78226112Y-92319799D01*
X78340689Y-92350500D01*
X78340691Y-92350500D01*
X78459305Y-92350500D01*
X78459307Y-92350500D01*
X78495914Y-92340691D01*
X105549500Y-92340691D01*
X105549500Y-92459309D01*
X105564275Y-92514448D01*
X105580202Y-92573890D01*
X105639507Y-92676608D01*
X105639509Y-92676610D01*
X105639511Y-92676613D01*
X105723387Y-92760489D01*
X105723389Y-92760490D01*
X105723391Y-92760492D01*
X105826110Y-92819797D01*
X105826111Y-92819797D01*
X105826114Y-92819799D01*
X105940691Y-92850500D01*
X105940693Y-92850500D01*
X106059307Y-92850500D01*
X106059309Y-92850500D01*
X106173886Y-92819799D01*
X106205069Y-92801794D01*
X106264917Y-92789073D01*
X106320813Y-92813959D01*
X106350195Y-92861906D01*
X106376975Y-92961846D01*
X106380202Y-92973890D01*
X106439507Y-93076608D01*
X106439509Y-93076610D01*
X106439511Y-93076613D01*
X106523387Y-93160489D01*
X106523389Y-93160490D01*
X106523391Y-93160492D01*
X106626110Y-93219797D01*
X106626111Y-93219797D01*
X106626114Y-93219799D01*
X106740691Y-93250500D01*
X106740693Y-93250500D01*
X106859307Y-93250500D01*
X106859309Y-93250500D01*
X106973886Y-93219799D01*
X106973888Y-93219797D01*
X106973890Y-93219797D01*
X107076608Y-93160492D01*
X107076608Y-93160491D01*
X107076613Y-93160489D01*
X107160489Y-93076613D01*
X107219799Y-92973886D01*
X107250500Y-92859309D01*
X107250500Y-92859306D01*
X107252179Y-92853041D01*
X107253587Y-92853418D01*
X107276733Y-92804889D01*
X107330502Y-92775692D01*
X107374167Y-92777406D01*
X107425129Y-92791062D01*
X107425131Y-92791062D01*
X107543745Y-92791062D01*
X107543747Y-92791062D01*
X107658324Y-92760361D01*
X107658326Y-92760359D01*
X107658328Y-92760359D01*
X107761046Y-92701054D01*
X107761046Y-92701053D01*
X107761051Y-92701051D01*
X107844927Y-92617175D01*
X107904237Y-92514448D01*
X107934938Y-92399871D01*
X107934938Y-92281253D01*
X107904237Y-92166676D01*
X107904235Y-92166673D01*
X107904235Y-92166671D01*
X107844930Y-92063953D01*
X107844928Y-92063951D01*
X107844927Y-92063949D01*
X107761051Y-91980073D01*
X107761048Y-91980071D01*
X107761046Y-91980069D01*
X107658327Y-91920764D01*
X107658328Y-91920764D01*
X107644789Y-91917136D01*
X107543747Y-91890062D01*
X107425129Y-91890062D01*
X107355005Y-91908851D01*
X107310547Y-91920764D01*
X107207829Y-91980069D01*
X107123945Y-92063953D01*
X107064640Y-92166671D01*
X107061976Y-92176613D01*
X107039502Y-92260491D01*
X107032259Y-92287521D01*
X107030853Y-92287144D01*
X107007691Y-92335686D01*
X106953916Y-92364872D01*
X106910268Y-92363154D01*
X106876965Y-92354231D01*
X106859309Y-92349500D01*
X106740691Y-92349500D01*
X106639648Y-92376574D01*
X106626110Y-92380202D01*
X106594928Y-92398205D01*
X106535079Y-92410925D01*
X106479184Y-92386038D01*
X106449804Y-92338094D01*
X106419799Y-92226114D01*
X106419797Y-92226111D01*
X106419797Y-92226109D01*
X106360492Y-92123391D01*
X106360490Y-92123389D01*
X106360489Y-92123387D01*
X106276613Y-92039511D01*
X106276610Y-92039509D01*
X106276608Y-92039507D01*
X106173889Y-91980202D01*
X106173890Y-91980202D01*
X106160351Y-91976574D01*
X106059309Y-91949500D01*
X105940691Y-91949500D01*
X105904084Y-91959309D01*
X105826109Y-91980202D01*
X105723391Y-92039507D01*
X105639507Y-92123391D01*
X105580202Y-92226109D01*
X105570989Y-92260492D01*
X105549500Y-92340691D01*
X78495914Y-92340691D01*
X78573884Y-92319799D01*
X78573886Y-92319797D01*
X78573888Y-92319797D01*
X78676606Y-92260492D01*
X78676606Y-92260491D01*
X78676611Y-92260489D01*
X78760487Y-92176613D01*
X78760490Y-92176608D01*
X78819795Y-92073890D01*
X78819795Y-92073888D01*
X78819797Y-92073886D01*
X78850498Y-91959309D01*
X78850498Y-91840691D01*
X78819797Y-91726114D01*
X78819795Y-91726111D01*
X78819795Y-91726109D01*
X78760490Y-91623391D01*
X78760488Y-91623389D01*
X78760487Y-91623387D01*
X78676611Y-91539511D01*
X78676608Y-91539509D01*
X78676606Y-91539507D01*
X78573887Y-91480202D01*
X78573888Y-91480202D01*
X78560349Y-91476574D01*
X78459307Y-91449500D01*
X78340689Y-91449500D01*
X78270565Y-91468289D01*
X78226107Y-91480202D01*
X78123389Y-91539507D01*
X78039505Y-91623391D01*
X77980200Y-91726109D01*
X77980199Y-91726114D01*
X77949498Y-91840691D01*
X69450497Y-91840691D01*
X69450497Y-91840690D01*
X69419796Y-91726113D01*
X69419794Y-91726109D01*
X69419794Y-91726108D01*
X69360489Y-91623390D01*
X69360487Y-91623388D01*
X69360486Y-91623386D01*
X69276610Y-91539510D01*
X69276607Y-91539508D01*
X69276605Y-91539506D01*
X69173886Y-91480201D01*
X69173887Y-91480201D01*
X69160348Y-91476573D01*
X69059306Y-91449499D01*
X68940688Y-91449499D01*
X68870564Y-91468288D01*
X68826106Y-91480201D01*
X68723388Y-91539506D01*
X68639504Y-91623390D01*
X68580199Y-91726108D01*
X68576859Y-91738575D01*
X68549497Y-91840690D01*
X60050498Y-91840690D01*
X60019797Y-91726114D01*
X60019795Y-91726111D01*
X60019795Y-91726109D01*
X59960490Y-91623391D01*
X59960488Y-91623389D01*
X59960487Y-91623387D01*
X59876611Y-91539511D01*
X59876608Y-91539509D01*
X59876606Y-91539507D01*
X59773887Y-91480202D01*
X59773888Y-91480202D01*
X59760349Y-91476574D01*
X59659307Y-91449500D01*
X59540689Y-91449500D01*
X59470565Y-91468289D01*
X59426107Y-91480202D01*
X59323389Y-91539507D01*
X59239505Y-91623391D01*
X59180200Y-91726109D01*
X59180199Y-91726114D01*
X59149498Y-91840691D01*
X50650498Y-91840691D01*
X50619797Y-91726114D01*
X50619795Y-91726111D01*
X50619795Y-91726109D01*
X50560490Y-91623391D01*
X50560488Y-91623389D01*
X50560487Y-91623387D01*
X50476611Y-91539511D01*
X50476608Y-91539509D01*
X50476606Y-91539507D01*
X50373887Y-91480202D01*
X50373888Y-91480202D01*
X50360349Y-91476574D01*
X50259307Y-91449500D01*
X50140689Y-91449500D01*
X50070565Y-91468289D01*
X50026107Y-91480202D01*
X49923389Y-91539507D01*
X49839505Y-91623391D01*
X49780200Y-91726109D01*
X49780199Y-91726114D01*
X49749498Y-91840691D01*
X40500500Y-91840691D01*
X40500500Y-89349215D01*
X40699500Y-89349215D01*
X40699500Y-89650784D01*
X40738861Y-89949760D01*
X40738861Y-89949765D01*
X40767352Y-90056094D01*
X40812907Y-90226109D01*
X40816911Y-90241050D01*
X40816915Y-90241063D01*
X40932313Y-90519660D01*
X40932315Y-90519664D01*
X40932317Y-90519668D01*
X41051794Y-90726608D01*
X41083102Y-90780835D01*
X41266675Y-91020073D01*
X41266677Y-91020075D01*
X41266681Y-91020080D01*
X41479920Y-91233319D01*
X41479924Y-91233322D01*
X41479926Y-91233324D01*
X41719164Y-91416897D01*
X41719168Y-91416900D01*
X41980332Y-91567683D01*
X42258942Y-91683087D01*
X42550232Y-91761138D01*
X42849217Y-91800500D01*
X42849218Y-91800500D01*
X43150782Y-91800500D01*
X43150783Y-91800500D01*
X43449768Y-91761138D01*
X43741058Y-91683087D01*
X44019668Y-91567683D01*
X44280832Y-91416900D01*
X44520080Y-91233319D01*
X44733319Y-91020080D01*
X44916900Y-90780832D01*
X45067683Y-90519668D01*
X45121107Y-90390691D01*
X101299500Y-90390691D01*
X101299500Y-90509309D01*
X101316805Y-90573890D01*
X101330202Y-90623890D01*
X101389507Y-90726608D01*
X101389509Y-90726610D01*
X101389511Y-90726613D01*
X101473387Y-90810489D01*
X101473389Y-90810490D01*
X101473391Y-90810492D01*
X101576110Y-90869797D01*
X101576111Y-90869797D01*
X101576114Y-90869799D01*
X101690691Y-90900500D01*
X101690693Y-90900500D01*
X101809307Y-90900500D01*
X101809309Y-90900500D01*
X101923886Y-90869799D01*
X101923888Y-90869797D01*
X101923890Y-90869797D01*
X102026608Y-90810492D01*
X102026608Y-90810491D01*
X102026613Y-90810489D01*
X102110489Y-90726613D01*
X102169799Y-90623886D01*
X102200500Y-90509309D01*
X102200500Y-90466955D01*
X102219407Y-90408764D01*
X102268907Y-90372800D01*
X102325121Y-90371328D01*
X102340691Y-90375500D01*
X102340693Y-90375500D01*
X102459307Y-90375500D01*
X102459309Y-90375500D01*
X102573886Y-90344799D01*
X102573888Y-90344797D01*
X102573890Y-90344797D01*
X102581002Y-90340691D01*
X105149500Y-90340691D01*
X105149500Y-90459309D01*
X105151549Y-90466955D01*
X105180202Y-90573890D01*
X105239507Y-90676608D01*
X105239509Y-90676610D01*
X105239511Y-90676613D01*
X105323387Y-90760489D01*
X105323389Y-90760490D01*
X105323391Y-90760492D01*
X105426110Y-90819797D01*
X105426111Y-90819797D01*
X105426114Y-90819799D01*
X105540691Y-90850500D01*
X105540693Y-90850500D01*
X105659307Y-90850500D01*
X105659309Y-90850500D01*
X105773886Y-90819799D01*
X105773888Y-90819797D01*
X105773890Y-90819797D01*
X105876608Y-90760492D01*
X105876608Y-90760491D01*
X105876613Y-90760489D01*
X105960489Y-90676613D01*
X106019799Y-90573886D01*
X106050500Y-90459309D01*
X106050500Y-90340691D01*
X106019799Y-90226114D01*
X106019797Y-90226111D01*
X106019797Y-90226109D01*
X105960492Y-90123391D01*
X105960490Y-90123389D01*
X105960489Y-90123387D01*
X105876613Y-90039511D01*
X105876610Y-90039509D01*
X105876608Y-90039507D01*
X105773889Y-89980202D01*
X105773890Y-89980202D01*
X105733240Y-89969310D01*
X105659309Y-89949500D01*
X105540691Y-89949500D01*
X105478236Y-89966235D01*
X105426109Y-89980202D01*
X105323391Y-90039507D01*
X105239507Y-90123391D01*
X105180202Y-90226109D01*
X105167002Y-90275373D01*
X105149500Y-90340691D01*
X102581002Y-90340691D01*
X102676608Y-90285492D01*
X102676608Y-90285491D01*
X102676613Y-90285489D01*
X102760489Y-90201613D01*
X102776783Y-90173391D01*
X102819797Y-90098890D01*
X102819797Y-90098888D01*
X102819799Y-90098886D01*
X102850500Y-89984309D01*
X102850500Y-89865691D01*
X102831897Y-89796265D01*
X103043926Y-89796265D01*
X103043926Y-89914883D01*
X103057686Y-89966235D01*
X103074628Y-90029464D01*
X103133933Y-90132182D01*
X103133935Y-90132184D01*
X103133937Y-90132187D01*
X103217813Y-90216063D01*
X103217815Y-90216064D01*
X103217817Y-90216066D01*
X103320536Y-90275371D01*
X103320537Y-90275371D01*
X103320540Y-90275373D01*
X103435117Y-90306074D01*
X103435119Y-90306074D01*
X103553733Y-90306074D01*
X103553735Y-90306074D01*
X103668312Y-90275373D01*
X103771039Y-90216063D01*
X103854915Y-90132187D01*
X103854918Y-90132182D01*
X103914223Y-90029464D01*
X103914223Y-90029462D01*
X103914225Y-90029460D01*
X103944926Y-89914883D01*
X103944926Y-89850692D01*
X107129499Y-89850692D01*
X107129499Y-89969310D01*
X107152753Y-90056094D01*
X107160201Y-90083891D01*
X107219506Y-90186609D01*
X107219508Y-90186611D01*
X107219510Y-90186614D01*
X107303386Y-90270490D01*
X107303388Y-90270491D01*
X107303390Y-90270493D01*
X107406109Y-90329798D01*
X107406110Y-90329798D01*
X107406113Y-90329800D01*
X107520690Y-90360501D01*
X107520692Y-90360501D01*
X107639306Y-90360501D01*
X107639308Y-90360501D01*
X107753885Y-90329800D01*
X107753887Y-90329798D01*
X107753889Y-90329798D01*
X107856607Y-90270493D01*
X107856607Y-90270492D01*
X107856612Y-90270490D01*
X107940488Y-90186614D01*
X107940491Y-90186609D01*
X107999796Y-90083891D01*
X107999796Y-90083889D01*
X107999798Y-90083887D01*
X108030499Y-89969310D01*
X108030499Y-89850692D01*
X107999798Y-89736115D01*
X107999796Y-89736112D01*
X107999796Y-89736110D01*
X107940491Y-89633392D01*
X107940489Y-89633390D01*
X107940488Y-89633388D01*
X107856612Y-89549512D01*
X107856609Y-89549510D01*
X107856607Y-89549508D01*
X107753888Y-89490203D01*
X107753889Y-89490203D01*
X107740350Y-89486575D01*
X107639308Y-89459501D01*
X107520690Y-89459501D01*
X107450566Y-89478290D01*
X107406108Y-89490203D01*
X107303390Y-89549508D01*
X107219506Y-89633392D01*
X107160201Y-89736110D01*
X107146967Y-89785500D01*
X107129499Y-89850692D01*
X103944926Y-89850692D01*
X103944926Y-89796265D01*
X103914225Y-89681688D01*
X103895353Y-89649001D01*
X103882631Y-89589153D01*
X103907517Y-89533257D01*
X103960505Y-89502664D01*
X103981089Y-89500500D01*
X104034306Y-89500500D01*
X104034308Y-89500500D01*
X104148885Y-89469799D01*
X104148887Y-89469797D01*
X104148889Y-89469797D01*
X104251607Y-89410492D01*
X104251607Y-89410491D01*
X104251612Y-89410489D01*
X104335488Y-89326613D01*
X104339423Y-89319797D01*
X104394796Y-89223890D01*
X104394796Y-89223888D01*
X104394798Y-89223886D01*
X104425499Y-89109309D01*
X104425499Y-88990691D01*
X104394798Y-88876114D01*
X104394796Y-88876111D01*
X104394796Y-88876109D01*
X104335491Y-88773391D01*
X104335489Y-88773389D01*
X104335488Y-88773387D01*
X104251612Y-88689511D01*
X104251609Y-88689509D01*
X104251607Y-88689507D01*
X104148888Y-88630202D01*
X104148889Y-88630202D01*
X104123455Y-88623387D01*
X104034308Y-88599500D01*
X103915690Y-88599500D01*
X103845566Y-88618289D01*
X103801108Y-88630202D01*
X103698390Y-88689507D01*
X103614506Y-88773391D01*
X103555201Y-88876109D01*
X103544726Y-88915202D01*
X103524499Y-88990691D01*
X103524499Y-89109309D01*
X103555200Y-89223886D01*
X103555201Y-89223888D01*
X103574072Y-89256573D01*
X103586794Y-89316421D01*
X103561908Y-89372317D01*
X103508920Y-89402910D01*
X103488336Y-89405074D01*
X103435117Y-89405074D01*
X103364993Y-89423863D01*
X103320535Y-89435776D01*
X103217817Y-89495081D01*
X103133933Y-89578965D01*
X103074628Y-89681683D01*
X103070928Y-89695491D01*
X103043926Y-89796265D01*
X102831897Y-89796265D01*
X102819799Y-89751114D01*
X102819797Y-89751111D01*
X102819797Y-89751109D01*
X102760492Y-89648391D01*
X102760490Y-89648389D01*
X102760489Y-89648387D01*
X102676613Y-89564511D01*
X102676610Y-89564509D01*
X102676608Y-89564507D01*
X102573889Y-89505202D01*
X102573890Y-89505202D01*
X102556342Y-89500500D01*
X102459309Y-89474500D01*
X102340691Y-89474500D01*
X102282091Y-89490202D01*
X102226109Y-89505202D01*
X102123391Y-89564507D01*
X102039507Y-89648391D01*
X101980202Y-89751109D01*
X101949500Y-89865692D01*
X101949500Y-89908044D01*
X101930593Y-89966235D01*
X101881093Y-90002199D01*
X101824881Y-90003672D01*
X101814537Y-90000900D01*
X101809309Y-89999500D01*
X101690691Y-89999500D01*
X101620567Y-90018289D01*
X101576109Y-90030202D01*
X101473391Y-90089507D01*
X101389507Y-90173391D01*
X101330202Y-90276109D01*
X101330201Y-90276114D01*
X101299500Y-90390691D01*
X45121107Y-90390691D01*
X45183087Y-90241058D01*
X45261138Y-89949768D01*
X45300500Y-89650783D01*
X45300500Y-89349217D01*
X45290820Y-89275691D01*
X56129501Y-89275691D01*
X56129501Y-89394309D01*
X56140612Y-89435775D01*
X56160203Y-89508890D01*
X56219508Y-89611608D01*
X56219510Y-89611610D01*
X56219512Y-89611613D01*
X56303388Y-89695489D01*
X56303390Y-89695490D01*
X56303392Y-89695492D01*
X56406111Y-89754797D01*
X56406112Y-89754797D01*
X56406115Y-89754799D01*
X56520692Y-89785500D01*
X56520694Y-89785500D01*
X56639308Y-89785500D01*
X56639310Y-89785500D01*
X56753887Y-89754799D01*
X56753889Y-89754797D01*
X56753891Y-89754797D01*
X56856609Y-89695492D01*
X56856609Y-89695491D01*
X56856614Y-89695489D01*
X56859999Y-89692103D01*
X56914514Y-89664328D01*
X56974946Y-89673899D01*
X57000001Y-89692102D01*
X57003388Y-89695489D01*
X57003390Y-89695490D01*
X57003392Y-89695492D01*
X57106111Y-89754797D01*
X57106112Y-89754797D01*
X57106115Y-89754799D01*
X57220692Y-89785500D01*
X57220694Y-89785500D01*
X57339308Y-89785500D01*
X57339310Y-89785500D01*
X57453887Y-89754799D01*
X57453889Y-89754797D01*
X57453891Y-89754797D01*
X57556609Y-89695492D01*
X57556609Y-89695491D01*
X57556614Y-89695489D01*
X57640490Y-89611613D01*
X57640493Y-89611608D01*
X57699798Y-89508890D01*
X57699798Y-89508888D01*
X57699800Y-89508886D01*
X57730501Y-89394309D01*
X57730501Y-89275691D01*
X65529501Y-89275691D01*
X65529501Y-89394309D01*
X65540612Y-89435775D01*
X65560203Y-89508890D01*
X65619508Y-89611608D01*
X65619510Y-89611610D01*
X65619512Y-89611613D01*
X65703388Y-89695489D01*
X65703390Y-89695490D01*
X65703392Y-89695492D01*
X65806111Y-89754797D01*
X65806112Y-89754797D01*
X65806115Y-89754799D01*
X65920692Y-89785500D01*
X65920694Y-89785500D01*
X66039308Y-89785500D01*
X66039310Y-89785500D01*
X66153887Y-89754799D01*
X66153889Y-89754797D01*
X66153891Y-89754797D01*
X66256609Y-89695492D01*
X66256609Y-89695491D01*
X66256614Y-89695489D01*
X66259999Y-89692103D01*
X66314514Y-89664328D01*
X66374946Y-89673899D01*
X66400001Y-89692102D01*
X66403388Y-89695489D01*
X66403390Y-89695490D01*
X66403392Y-89695492D01*
X66506111Y-89754797D01*
X66506112Y-89754797D01*
X66506115Y-89754799D01*
X66620692Y-89785500D01*
X66620694Y-89785500D01*
X66739308Y-89785500D01*
X66739310Y-89785500D01*
X66853887Y-89754799D01*
X66853889Y-89754797D01*
X66853891Y-89754797D01*
X66956609Y-89695492D01*
X66956609Y-89695491D01*
X66956614Y-89695489D01*
X67040490Y-89611613D01*
X67040493Y-89611608D01*
X67099798Y-89508890D01*
X67099798Y-89508888D01*
X67099800Y-89508886D01*
X67130501Y-89394309D01*
X67130501Y-89275691D01*
X74929500Y-89275691D01*
X74929500Y-89394309D01*
X74940611Y-89435775D01*
X74960202Y-89508890D01*
X75019507Y-89611608D01*
X75019509Y-89611610D01*
X75019511Y-89611613D01*
X75103387Y-89695489D01*
X75103389Y-89695490D01*
X75103391Y-89695492D01*
X75206110Y-89754797D01*
X75206111Y-89754797D01*
X75206114Y-89754799D01*
X75320691Y-89785500D01*
X75320693Y-89785500D01*
X75439307Y-89785500D01*
X75439309Y-89785500D01*
X75553886Y-89754799D01*
X75553888Y-89754797D01*
X75553890Y-89754797D01*
X75656608Y-89695492D01*
X75656608Y-89695491D01*
X75656613Y-89695489D01*
X75659993Y-89692108D01*
X75714507Y-89664328D01*
X75774940Y-89673896D01*
X75800000Y-89692101D01*
X75803388Y-89695489D01*
X75803390Y-89695490D01*
X75803392Y-89695492D01*
X75906111Y-89754797D01*
X75906112Y-89754797D01*
X75906115Y-89754799D01*
X76020692Y-89785500D01*
X76020694Y-89785500D01*
X76139308Y-89785500D01*
X76139310Y-89785500D01*
X76253887Y-89754799D01*
X76253889Y-89754797D01*
X76253891Y-89754797D01*
X76356609Y-89695492D01*
X76356609Y-89695491D01*
X76356614Y-89695489D01*
X76440490Y-89611613D01*
X76440493Y-89611608D01*
X76499798Y-89508890D01*
X76499798Y-89508888D01*
X76499800Y-89508886D01*
X76530501Y-89394309D01*
X76530501Y-89275691D01*
X84329501Y-89275691D01*
X84329501Y-89394309D01*
X84340612Y-89435775D01*
X84360203Y-89508890D01*
X84419508Y-89611608D01*
X84419510Y-89611610D01*
X84419512Y-89611613D01*
X84503388Y-89695489D01*
X84503390Y-89695490D01*
X84503392Y-89695492D01*
X84606111Y-89754797D01*
X84606112Y-89754797D01*
X84606115Y-89754799D01*
X84720692Y-89785500D01*
X84720694Y-89785500D01*
X84839308Y-89785500D01*
X84839310Y-89785500D01*
X84953887Y-89754799D01*
X84953889Y-89754797D01*
X84953891Y-89754797D01*
X85056609Y-89695492D01*
X85056609Y-89695491D01*
X85056614Y-89695489D01*
X85059999Y-89692103D01*
X85114514Y-89664328D01*
X85174946Y-89673899D01*
X85200001Y-89692102D01*
X85203388Y-89695489D01*
X85203390Y-89695490D01*
X85203392Y-89695492D01*
X85306111Y-89754797D01*
X85306112Y-89754797D01*
X85306115Y-89754799D01*
X85420692Y-89785500D01*
X85420694Y-89785500D01*
X85539308Y-89785500D01*
X85539310Y-89785500D01*
X85653887Y-89754799D01*
X85653889Y-89754797D01*
X85653891Y-89754797D01*
X85756609Y-89695492D01*
X85756609Y-89695491D01*
X85756614Y-89695489D01*
X85840490Y-89611613D01*
X85840493Y-89611608D01*
X85899798Y-89508890D01*
X85899798Y-89508888D01*
X85899800Y-89508886D01*
X85930501Y-89394309D01*
X85930501Y-89275691D01*
X85899800Y-89161114D01*
X85899798Y-89161111D01*
X85899798Y-89161109D01*
X85840493Y-89058391D01*
X85840491Y-89058389D01*
X85840490Y-89058387D01*
X85756614Y-88974511D01*
X85756611Y-88974509D01*
X85756609Y-88974507D01*
X85653890Y-88915202D01*
X85653891Y-88915202D01*
X85640352Y-88911574D01*
X85539310Y-88884500D01*
X85420692Y-88884500D01*
X85350568Y-88903289D01*
X85306110Y-88915202D01*
X85203392Y-88974507D01*
X85203384Y-88974513D01*
X85200000Y-88977898D01*
X85145482Y-89005672D01*
X85085050Y-88996097D01*
X85060002Y-88977898D01*
X85056617Y-88974513D01*
X85056609Y-88974507D01*
X84953890Y-88915202D01*
X84953891Y-88915202D01*
X84940352Y-88911574D01*
X84839310Y-88884500D01*
X84720692Y-88884500D01*
X84650568Y-88903289D01*
X84606110Y-88915202D01*
X84503392Y-88974507D01*
X84419508Y-89058391D01*
X84360203Y-89161109D01*
X84360202Y-89161114D01*
X84329501Y-89275691D01*
X76530501Y-89275691D01*
X76499800Y-89161114D01*
X76499798Y-89161111D01*
X76499798Y-89161109D01*
X76440493Y-89058391D01*
X76440491Y-89058389D01*
X76440490Y-89058387D01*
X76356614Y-88974511D01*
X76356611Y-88974509D01*
X76356609Y-88974507D01*
X76253890Y-88915202D01*
X76253891Y-88915202D01*
X76240352Y-88911574D01*
X76139310Y-88884500D01*
X76020692Y-88884500D01*
X75950568Y-88903289D01*
X75906110Y-88915202D01*
X75803392Y-88974507D01*
X75803384Y-88974513D01*
X75799999Y-88977899D01*
X75745481Y-89005673D01*
X75685049Y-88996098D01*
X75659999Y-88977897D01*
X75656613Y-88974511D01*
X75656610Y-88974509D01*
X75656608Y-88974507D01*
X75553889Y-88915202D01*
X75553890Y-88915202D01*
X75540351Y-88911574D01*
X75439309Y-88884500D01*
X75320691Y-88884500D01*
X75250567Y-88903289D01*
X75206109Y-88915202D01*
X75103391Y-88974507D01*
X75019507Y-89058391D01*
X74960202Y-89161109D01*
X74960201Y-89161114D01*
X74929500Y-89275691D01*
X67130501Y-89275691D01*
X67099800Y-89161114D01*
X67099798Y-89161111D01*
X67099798Y-89161109D01*
X67040493Y-89058391D01*
X67040491Y-89058389D01*
X67040490Y-89058387D01*
X66956614Y-88974511D01*
X66956611Y-88974509D01*
X66956609Y-88974507D01*
X66853890Y-88915202D01*
X66853891Y-88915202D01*
X66840352Y-88911574D01*
X66739310Y-88884500D01*
X66620692Y-88884500D01*
X66550568Y-88903289D01*
X66506110Y-88915202D01*
X66403392Y-88974507D01*
X66403384Y-88974513D01*
X66400000Y-88977898D01*
X66345482Y-89005672D01*
X66285050Y-88996097D01*
X66260002Y-88977898D01*
X66256617Y-88974513D01*
X66256609Y-88974507D01*
X66153890Y-88915202D01*
X66153891Y-88915202D01*
X66140352Y-88911574D01*
X66039310Y-88884500D01*
X65920692Y-88884500D01*
X65850568Y-88903289D01*
X65806110Y-88915202D01*
X65703392Y-88974507D01*
X65619508Y-89058391D01*
X65560203Y-89161109D01*
X65560202Y-89161114D01*
X65529501Y-89275691D01*
X57730501Y-89275691D01*
X57699800Y-89161114D01*
X57699798Y-89161111D01*
X57699798Y-89161109D01*
X57640493Y-89058391D01*
X57640491Y-89058389D01*
X57640490Y-89058387D01*
X57556614Y-88974511D01*
X57556611Y-88974509D01*
X57556609Y-88974507D01*
X57453890Y-88915202D01*
X57453891Y-88915202D01*
X57440352Y-88911574D01*
X57339310Y-88884500D01*
X57220692Y-88884500D01*
X57150568Y-88903289D01*
X57106110Y-88915202D01*
X57003392Y-88974507D01*
X57003384Y-88974513D01*
X57000000Y-88977898D01*
X56945482Y-89005672D01*
X56885050Y-88996097D01*
X56860002Y-88977898D01*
X56856617Y-88974513D01*
X56856609Y-88974507D01*
X56753890Y-88915202D01*
X56753891Y-88915202D01*
X56740352Y-88911574D01*
X56639310Y-88884500D01*
X56520692Y-88884500D01*
X56450568Y-88903289D01*
X56406110Y-88915202D01*
X56303392Y-88974507D01*
X56219508Y-89058391D01*
X56160203Y-89161109D01*
X56160202Y-89161114D01*
X56129501Y-89275691D01*
X45290820Y-89275691D01*
X45261138Y-89050232D01*
X45183087Y-88758942D01*
X45067683Y-88480332D01*
X44916900Y-88219168D01*
X44910240Y-88210489D01*
X44733324Y-87979926D01*
X44733322Y-87979924D01*
X44733319Y-87979920D01*
X44594090Y-87840691D01*
X49749498Y-87840691D01*
X49749498Y-87959309D01*
X49766803Y-88023890D01*
X49780200Y-88073890D01*
X49839505Y-88176608D01*
X49839507Y-88176610D01*
X49839509Y-88176613D01*
X49923385Y-88260489D01*
X49923387Y-88260490D01*
X49923389Y-88260492D01*
X50026108Y-88319797D01*
X50026109Y-88319797D01*
X50026112Y-88319799D01*
X50140689Y-88350500D01*
X50140691Y-88350500D01*
X50259305Y-88350500D01*
X50259307Y-88350500D01*
X50373884Y-88319799D01*
X50373886Y-88319797D01*
X50373888Y-88319797D01*
X50476606Y-88260492D01*
X50476606Y-88260491D01*
X50476611Y-88260489D01*
X50560487Y-88176613D01*
X50560490Y-88176608D01*
X50619795Y-88073890D01*
X50619795Y-88073888D01*
X50619797Y-88073886D01*
X50650498Y-87959309D01*
X50650498Y-87840691D01*
X50635185Y-87783542D01*
X50638386Y-87722443D01*
X50676891Y-87674892D01*
X50735991Y-87659056D01*
X50793113Y-87680982D01*
X50800804Y-87687906D01*
X50873387Y-87760489D01*
X50873389Y-87760490D01*
X50873391Y-87760492D01*
X50976110Y-87819797D01*
X50976111Y-87819797D01*
X50976114Y-87819799D01*
X51090691Y-87850500D01*
X51090693Y-87850500D01*
X51209307Y-87850500D01*
X51209309Y-87850500D01*
X51245916Y-87840691D01*
X59149498Y-87840691D01*
X59149498Y-87959309D01*
X59166803Y-88023890D01*
X59180200Y-88073890D01*
X59239505Y-88176608D01*
X59239507Y-88176610D01*
X59239509Y-88176613D01*
X59323385Y-88260489D01*
X59323387Y-88260490D01*
X59323389Y-88260492D01*
X59426108Y-88319797D01*
X59426109Y-88319797D01*
X59426112Y-88319799D01*
X59540689Y-88350500D01*
X59540691Y-88350500D01*
X59659305Y-88350500D01*
X59659307Y-88350500D01*
X59773884Y-88319799D01*
X59773886Y-88319797D01*
X59773888Y-88319797D01*
X59876606Y-88260492D01*
X59876606Y-88260491D01*
X59876611Y-88260489D01*
X59960487Y-88176613D01*
X59960490Y-88176608D01*
X60019795Y-88073890D01*
X60019795Y-88073888D01*
X60019797Y-88073886D01*
X60050498Y-87959309D01*
X60050498Y-87840691D01*
X60035185Y-87783542D01*
X60038386Y-87722443D01*
X60076891Y-87674892D01*
X60135991Y-87659056D01*
X60193113Y-87680982D01*
X60200804Y-87687906D01*
X60273387Y-87760489D01*
X60273389Y-87760490D01*
X60273391Y-87760492D01*
X60376110Y-87819797D01*
X60376111Y-87819797D01*
X60376114Y-87819799D01*
X60490691Y-87850500D01*
X60490693Y-87850500D01*
X60609307Y-87850500D01*
X60609309Y-87850500D01*
X60645920Y-87840690D01*
X68549497Y-87840690D01*
X68549497Y-87959308D01*
X68555020Y-87979920D01*
X68580199Y-88073889D01*
X68639504Y-88176607D01*
X68639506Y-88176609D01*
X68639508Y-88176612D01*
X68723384Y-88260488D01*
X68723386Y-88260489D01*
X68723388Y-88260491D01*
X68826107Y-88319796D01*
X68826108Y-88319796D01*
X68826111Y-88319798D01*
X68940688Y-88350499D01*
X68940690Y-88350499D01*
X69059304Y-88350499D01*
X69059306Y-88350499D01*
X69173883Y-88319798D01*
X69173885Y-88319796D01*
X69173887Y-88319796D01*
X69276605Y-88260491D01*
X69276605Y-88260490D01*
X69276610Y-88260488D01*
X69360486Y-88176612D01*
X69419796Y-88073885D01*
X69450497Y-87959308D01*
X69450497Y-87840690D01*
X69435184Y-87783541D01*
X69438386Y-87722443D01*
X69476891Y-87674893D01*
X69535992Y-87659057D01*
X69593113Y-87680983D01*
X69600804Y-87687907D01*
X69673386Y-87760489D01*
X69673388Y-87760490D01*
X69673390Y-87760492D01*
X69776109Y-87819797D01*
X69776110Y-87819797D01*
X69776113Y-87819799D01*
X69890690Y-87850500D01*
X69890692Y-87850500D01*
X70009306Y-87850500D01*
X70009308Y-87850500D01*
X70045915Y-87840691D01*
X77949498Y-87840691D01*
X77949498Y-87959309D01*
X77966803Y-88023890D01*
X77980200Y-88073890D01*
X78039505Y-88176608D01*
X78039507Y-88176610D01*
X78039509Y-88176613D01*
X78123385Y-88260489D01*
X78123387Y-88260490D01*
X78123389Y-88260492D01*
X78226108Y-88319797D01*
X78226109Y-88319797D01*
X78226112Y-88319799D01*
X78340689Y-88350500D01*
X78340691Y-88350500D01*
X78459305Y-88350500D01*
X78459307Y-88350500D01*
X78573884Y-88319799D01*
X78573886Y-88319797D01*
X78573888Y-88319797D01*
X78676606Y-88260492D01*
X78676606Y-88260491D01*
X78676611Y-88260489D01*
X78760487Y-88176613D01*
X78760490Y-88176608D01*
X78819795Y-88073890D01*
X78819795Y-88073888D01*
X78819797Y-88073886D01*
X78850498Y-87959309D01*
X78850498Y-87940691D01*
X105949500Y-87940691D01*
X105949500Y-88059309D01*
X105953406Y-88073885D01*
X105980202Y-88173890D01*
X106039507Y-88276608D01*
X106039509Y-88276610D01*
X106039511Y-88276613D01*
X106123387Y-88360489D01*
X106123389Y-88360490D01*
X106129925Y-88364264D01*
X106170865Y-88409734D01*
X106177260Y-88470584D01*
X106146667Y-88523572D01*
X106129925Y-88535736D01*
X106123389Y-88539509D01*
X106039507Y-88623391D01*
X105980202Y-88726109D01*
X105980201Y-88726114D01*
X105949500Y-88840691D01*
X105949500Y-88959309D01*
X105973863Y-89050232D01*
X105980202Y-89073890D01*
X106039507Y-89176608D01*
X106039509Y-89176610D01*
X106039511Y-89176613D01*
X106123387Y-89260489D01*
X106123389Y-89260490D01*
X106123391Y-89260492D01*
X106226110Y-89319797D01*
X106226111Y-89319797D01*
X106226114Y-89319799D01*
X106340691Y-89350500D01*
X106340693Y-89350500D01*
X106459307Y-89350500D01*
X106459309Y-89350500D01*
X106573886Y-89319799D01*
X106573888Y-89319797D01*
X106573890Y-89319797D01*
X106676608Y-89260492D01*
X106676608Y-89260491D01*
X106676613Y-89260489D01*
X106760489Y-89176613D01*
X106760492Y-89176608D01*
X106819797Y-89073890D01*
X106819797Y-89073888D01*
X106819799Y-89073886D01*
X106850500Y-88959309D01*
X106850500Y-88840691D01*
X106819799Y-88726114D01*
X106819797Y-88726111D01*
X106819797Y-88726109D01*
X106760492Y-88623391D01*
X106760490Y-88623389D01*
X106760489Y-88623387D01*
X106676613Y-88539511D01*
X106670075Y-88535736D01*
X106629135Y-88490269D01*
X106622738Y-88429419D01*
X106653329Y-88376430D01*
X106670073Y-88364264D01*
X106676613Y-88360489D01*
X106760489Y-88276613D01*
X106793655Y-88219168D01*
X106819797Y-88173890D01*
X106819797Y-88173888D01*
X106819799Y-88173886D01*
X106850500Y-88059309D01*
X106850500Y-87940691D01*
X106819799Y-87826114D01*
X106819797Y-87826111D01*
X106819797Y-87826109D01*
X106799348Y-87790691D01*
X107124499Y-87790691D01*
X107124499Y-87909309D01*
X107137897Y-87959309D01*
X107155201Y-88023890D01*
X107214506Y-88126608D01*
X107214508Y-88126610D01*
X107214510Y-88126613D01*
X107298386Y-88210489D01*
X107298388Y-88210490D01*
X107298390Y-88210492D01*
X107401109Y-88269797D01*
X107401110Y-88269797D01*
X107401113Y-88269799D01*
X107515690Y-88300500D01*
X107515692Y-88300500D01*
X107634306Y-88300500D01*
X107634308Y-88300500D01*
X107748885Y-88269799D01*
X107748887Y-88269797D01*
X107748889Y-88269797D01*
X107851607Y-88210492D01*
X107851607Y-88210491D01*
X107851612Y-88210489D01*
X107935488Y-88126613D01*
X107965928Y-88073890D01*
X107994796Y-88023890D01*
X107994796Y-88023888D01*
X107994798Y-88023886D01*
X108025499Y-87909309D01*
X108025499Y-87790691D01*
X107994798Y-87676114D01*
X107994796Y-87676111D01*
X107994796Y-87676109D01*
X107935491Y-87573391D01*
X107935489Y-87573389D01*
X107935488Y-87573387D01*
X107851612Y-87489511D01*
X107851609Y-87489509D01*
X107851607Y-87489507D01*
X107748888Y-87430202D01*
X107748889Y-87430202D01*
X107735350Y-87426574D01*
X107634308Y-87399500D01*
X107515690Y-87399500D01*
X107445566Y-87418289D01*
X107401108Y-87430202D01*
X107298390Y-87489507D01*
X107214506Y-87573391D01*
X107155201Y-87676109D01*
X107152037Y-87687917D01*
X107124499Y-87790691D01*
X106799348Y-87790691D01*
X106760492Y-87723391D01*
X106760490Y-87723389D01*
X106760489Y-87723387D01*
X106676613Y-87639511D01*
X106676610Y-87639509D01*
X106676608Y-87639507D01*
X106573889Y-87580202D01*
X106573890Y-87580202D01*
X106548456Y-87573387D01*
X106459309Y-87549500D01*
X106340691Y-87549500D01*
X106270567Y-87568289D01*
X106226109Y-87580202D01*
X106123391Y-87639507D01*
X106039507Y-87723391D01*
X105980202Y-87826109D01*
X105980201Y-87826114D01*
X105949500Y-87940691D01*
X78850498Y-87940691D01*
X78850498Y-87840691D01*
X78835185Y-87783542D01*
X78838386Y-87722443D01*
X78876891Y-87674892D01*
X78935991Y-87659056D01*
X78993113Y-87680982D01*
X79000804Y-87687906D01*
X79073387Y-87760489D01*
X79073389Y-87760490D01*
X79073391Y-87760492D01*
X79176110Y-87819797D01*
X79176111Y-87819797D01*
X79176114Y-87819799D01*
X79290691Y-87850500D01*
X79290693Y-87850500D01*
X79409307Y-87850500D01*
X79409309Y-87850500D01*
X79523886Y-87819799D01*
X79523888Y-87819797D01*
X79523890Y-87819797D01*
X79626608Y-87760492D01*
X79626608Y-87760491D01*
X79626613Y-87760489D01*
X79710489Y-87676613D01*
X79731083Y-87640943D01*
X79769797Y-87573890D01*
X79769797Y-87573888D01*
X79769799Y-87573886D01*
X79800500Y-87459309D01*
X79800500Y-87340691D01*
X79769799Y-87226114D01*
X79769797Y-87226111D01*
X79769797Y-87226109D01*
X79710492Y-87123391D01*
X79710490Y-87123389D01*
X79710489Y-87123387D01*
X79707103Y-87120001D01*
X79701330Y-87108671D01*
X79691808Y-87100246D01*
X79687779Y-87082074D01*
X79679328Y-87065487D01*
X79681317Y-87052926D01*
X79678605Y-87040691D01*
X117649500Y-87040691D01*
X117649500Y-87159309D01*
X117670816Y-87238861D01*
X117680202Y-87273890D01*
X117739507Y-87376608D01*
X117739509Y-87376610D01*
X117739511Y-87376613D01*
X117823387Y-87460489D01*
X117823389Y-87460490D01*
X117823391Y-87460492D01*
X117926110Y-87519797D01*
X117926111Y-87519797D01*
X117926114Y-87519799D01*
X118040691Y-87550500D01*
X118040693Y-87550500D01*
X118159307Y-87550500D01*
X118159309Y-87550500D01*
X118273886Y-87519799D01*
X118273888Y-87519797D01*
X118273890Y-87519797D01*
X118376608Y-87460492D01*
X118376608Y-87460491D01*
X118376613Y-87460489D01*
X118460489Y-87376613D01*
X118494957Y-87316913D01*
X118519797Y-87273890D01*
X118519797Y-87273888D01*
X118519799Y-87273886D01*
X118550500Y-87159309D01*
X118550500Y-87040691D01*
X118519799Y-86926114D01*
X118519797Y-86926111D01*
X118519797Y-86926109D01*
X118460492Y-86823391D01*
X118460490Y-86823389D01*
X118460489Y-86823387D01*
X118376613Y-86739511D01*
X118376610Y-86739509D01*
X118376608Y-86739507D01*
X118273889Y-86680202D01*
X118273890Y-86680202D01*
X118260351Y-86676574D01*
X118159309Y-86649500D01*
X118040691Y-86649500D01*
X117970567Y-86668289D01*
X117926109Y-86680202D01*
X117823391Y-86739507D01*
X117739507Y-86823391D01*
X117680202Y-86926109D01*
X117678783Y-86931405D01*
X117649500Y-87040691D01*
X79678605Y-87040691D01*
X79678565Y-87040511D01*
X79685669Y-87025447D01*
X79688899Y-87005055D01*
X79702963Y-86984400D01*
X79704963Y-86982138D01*
X79710489Y-86976613D01*
X79769799Y-86873886D01*
X79800500Y-86759309D01*
X79800500Y-86640691D01*
X79769799Y-86526114D01*
X79769797Y-86526111D01*
X79769797Y-86526109D01*
X79710492Y-86423391D01*
X79710490Y-86423389D01*
X79710489Y-86423387D01*
X79626613Y-86339511D01*
X79626610Y-86339509D01*
X79626608Y-86339507D01*
X79523889Y-86280202D01*
X79523890Y-86280202D01*
X79510351Y-86276574D01*
X79409309Y-86249500D01*
X79290691Y-86249500D01*
X79220567Y-86268289D01*
X79176109Y-86280202D01*
X79073391Y-86339507D01*
X78989507Y-86423391D01*
X78930202Y-86526109D01*
X78930201Y-86526114D01*
X78899500Y-86640691D01*
X78899500Y-86759309D01*
X78901988Y-86768594D01*
X78930202Y-86873890D01*
X78989507Y-86976608D01*
X78989513Y-86976616D01*
X78992898Y-86980001D01*
X79020672Y-87034519D01*
X79011097Y-87094951D01*
X78992898Y-87119999D01*
X78989513Y-87123383D01*
X78989507Y-87123391D01*
X78930202Y-87226109D01*
X78917400Y-87273886D01*
X78899500Y-87340691D01*
X78899500Y-87459309D01*
X78914813Y-87516456D01*
X78911610Y-87577557D01*
X78873105Y-87625107D01*
X78814005Y-87640943D01*
X78756883Y-87619016D01*
X78749192Y-87612092D01*
X78676611Y-87539511D01*
X78676608Y-87539509D01*
X78676606Y-87539507D01*
X78573887Y-87480202D01*
X78573888Y-87480202D01*
X78560349Y-87476574D01*
X78459307Y-87449500D01*
X78340689Y-87449500D01*
X78299667Y-87460492D01*
X78226107Y-87480202D01*
X78123389Y-87539507D01*
X78039505Y-87623391D01*
X77980200Y-87726109D01*
X77980199Y-87726114D01*
X77949498Y-87840691D01*
X70045915Y-87840691D01*
X70123885Y-87819799D01*
X70123887Y-87819797D01*
X70123889Y-87819797D01*
X70226607Y-87760492D01*
X70226607Y-87760491D01*
X70226612Y-87760489D01*
X70310488Y-87676613D01*
X70331082Y-87640943D01*
X70369796Y-87573890D01*
X70369796Y-87573888D01*
X70369798Y-87573886D01*
X70400499Y-87459309D01*
X70400499Y-87340691D01*
X70369798Y-87226114D01*
X70369796Y-87226111D01*
X70369796Y-87226109D01*
X70310491Y-87123391D01*
X70310489Y-87123389D01*
X70310488Y-87123387D01*
X70307102Y-87120001D01*
X70279327Y-87065487D01*
X70288898Y-87005055D01*
X70307101Y-86979999D01*
X70310488Y-86976613D01*
X70310491Y-86976608D01*
X70369796Y-86873890D01*
X70369796Y-86873888D01*
X70369798Y-86873886D01*
X70400499Y-86759309D01*
X70400499Y-86640691D01*
X70369798Y-86526114D01*
X70369796Y-86526111D01*
X70369796Y-86526109D01*
X70310491Y-86423391D01*
X70310489Y-86423389D01*
X70310488Y-86423387D01*
X70226612Y-86339511D01*
X70226609Y-86339509D01*
X70226607Y-86339507D01*
X70123888Y-86280202D01*
X70123889Y-86280202D01*
X70110350Y-86276574D01*
X70009308Y-86249500D01*
X69890690Y-86249500D01*
X69820566Y-86268289D01*
X69776108Y-86280202D01*
X69673390Y-86339507D01*
X69589506Y-86423391D01*
X69530201Y-86526109D01*
X69530200Y-86526114D01*
X69499499Y-86640691D01*
X69499499Y-86759309D01*
X69501987Y-86768594D01*
X69530201Y-86873890D01*
X69589506Y-86976608D01*
X69589512Y-86976616D01*
X69592897Y-86980001D01*
X69620671Y-87034519D01*
X69611096Y-87094951D01*
X69592897Y-87119999D01*
X69589512Y-87123383D01*
X69589506Y-87123391D01*
X69530201Y-87226109D01*
X69517399Y-87273886D01*
X69501260Y-87334121D01*
X69499499Y-87340692D01*
X69499499Y-87459308D01*
X69514811Y-87516455D01*
X69511608Y-87577556D01*
X69473103Y-87625106D01*
X69414002Y-87640941D01*
X69356881Y-87619014D01*
X69349190Y-87612090D01*
X69276610Y-87539510D01*
X69276607Y-87539508D01*
X69276605Y-87539506D01*
X69173886Y-87480201D01*
X69173887Y-87480201D01*
X69160348Y-87476573D01*
X69059306Y-87449499D01*
X68940688Y-87449499D01*
X68870564Y-87468288D01*
X68826106Y-87480201D01*
X68723388Y-87539506D01*
X68639504Y-87623390D01*
X68580199Y-87726108D01*
X68575162Y-87744907D01*
X68549497Y-87840690D01*
X60645920Y-87840690D01*
X60723886Y-87819799D01*
X60723888Y-87819797D01*
X60723890Y-87819797D01*
X60826608Y-87760492D01*
X60826608Y-87760491D01*
X60826613Y-87760489D01*
X60910489Y-87676613D01*
X60931083Y-87640943D01*
X60969797Y-87573890D01*
X60969797Y-87573888D01*
X60969799Y-87573886D01*
X61000500Y-87459309D01*
X61000500Y-87340691D01*
X60969799Y-87226114D01*
X60969797Y-87226111D01*
X60969797Y-87226109D01*
X60910492Y-87123391D01*
X60910490Y-87123389D01*
X60910489Y-87123387D01*
X60907103Y-87120001D01*
X60879328Y-87065487D01*
X60888899Y-87005055D01*
X60907102Y-86979999D01*
X60910489Y-86976613D01*
X60910492Y-86976608D01*
X60969797Y-86873890D01*
X60969797Y-86873888D01*
X60969799Y-86873886D01*
X61000500Y-86759309D01*
X61000500Y-86640691D01*
X60969799Y-86526114D01*
X60969797Y-86526111D01*
X60969797Y-86526109D01*
X60910492Y-86423391D01*
X60910490Y-86423389D01*
X60910489Y-86423387D01*
X60826613Y-86339511D01*
X60826610Y-86339509D01*
X60826608Y-86339507D01*
X60723889Y-86280202D01*
X60723890Y-86280202D01*
X60710351Y-86276574D01*
X60609309Y-86249500D01*
X60490691Y-86249500D01*
X60420567Y-86268289D01*
X60376109Y-86280202D01*
X60273391Y-86339507D01*
X60189507Y-86423391D01*
X60130202Y-86526109D01*
X60130201Y-86526114D01*
X60099500Y-86640691D01*
X60099500Y-86759309D01*
X60101988Y-86768594D01*
X60130202Y-86873890D01*
X60189507Y-86976608D01*
X60189513Y-86976616D01*
X60192898Y-86980001D01*
X60220672Y-87034519D01*
X60211097Y-87094951D01*
X60192898Y-87119999D01*
X60189513Y-87123383D01*
X60189507Y-87123391D01*
X60130202Y-87226109D01*
X60117400Y-87273886D01*
X60099500Y-87340691D01*
X60099500Y-87459309D01*
X60114813Y-87516456D01*
X60111610Y-87577557D01*
X60073105Y-87625107D01*
X60014005Y-87640943D01*
X59956883Y-87619016D01*
X59949192Y-87612092D01*
X59876611Y-87539511D01*
X59876608Y-87539509D01*
X59876606Y-87539507D01*
X59773887Y-87480202D01*
X59773888Y-87480202D01*
X59760349Y-87476574D01*
X59659307Y-87449500D01*
X59540689Y-87449500D01*
X59499667Y-87460492D01*
X59426107Y-87480202D01*
X59323389Y-87539507D01*
X59239505Y-87623391D01*
X59180200Y-87726109D01*
X59180199Y-87726114D01*
X59149498Y-87840691D01*
X51245916Y-87840691D01*
X51323886Y-87819799D01*
X51323888Y-87819797D01*
X51323890Y-87819797D01*
X51426608Y-87760492D01*
X51426608Y-87760491D01*
X51426613Y-87760489D01*
X51510489Y-87676613D01*
X51531083Y-87640943D01*
X51569797Y-87573890D01*
X51569797Y-87573888D01*
X51569799Y-87573886D01*
X51600500Y-87459309D01*
X51600500Y-87340691D01*
X51569799Y-87226114D01*
X51569797Y-87226111D01*
X51569797Y-87226109D01*
X51510492Y-87123391D01*
X51510490Y-87123389D01*
X51510489Y-87123387D01*
X51507103Y-87120001D01*
X51479328Y-87065487D01*
X51488899Y-87005055D01*
X51507102Y-86979999D01*
X51510489Y-86976613D01*
X51510492Y-86976608D01*
X51569797Y-86873890D01*
X51569797Y-86873888D01*
X51569799Y-86873886D01*
X51600500Y-86759309D01*
X51600500Y-86640691D01*
X51569799Y-86526114D01*
X51569797Y-86526111D01*
X51569797Y-86526109D01*
X51510492Y-86423391D01*
X51510490Y-86423389D01*
X51510489Y-86423387D01*
X51426613Y-86339511D01*
X51426610Y-86339509D01*
X51426608Y-86339507D01*
X51323889Y-86280202D01*
X51323890Y-86280202D01*
X51310351Y-86276574D01*
X51209309Y-86249500D01*
X51090691Y-86249500D01*
X51020567Y-86268289D01*
X50976109Y-86280202D01*
X50873391Y-86339507D01*
X50789507Y-86423391D01*
X50730202Y-86526109D01*
X50730201Y-86526114D01*
X50699500Y-86640691D01*
X50699500Y-86759309D01*
X50701988Y-86768594D01*
X50730202Y-86873890D01*
X50789507Y-86976608D01*
X50789513Y-86976616D01*
X50792898Y-86980001D01*
X50820672Y-87034519D01*
X50811097Y-87094951D01*
X50792898Y-87119999D01*
X50789513Y-87123383D01*
X50789507Y-87123391D01*
X50730202Y-87226109D01*
X50717400Y-87273886D01*
X50699500Y-87340691D01*
X50699500Y-87459309D01*
X50714813Y-87516456D01*
X50711610Y-87577557D01*
X50673105Y-87625107D01*
X50614005Y-87640943D01*
X50556883Y-87619016D01*
X50549192Y-87612092D01*
X50476611Y-87539511D01*
X50476608Y-87539509D01*
X50476606Y-87539507D01*
X50373887Y-87480202D01*
X50373888Y-87480202D01*
X50360349Y-87476574D01*
X50259307Y-87449500D01*
X50140689Y-87449500D01*
X50099667Y-87460492D01*
X50026107Y-87480202D01*
X49923389Y-87539507D01*
X49839505Y-87623391D01*
X49780200Y-87726109D01*
X49780199Y-87726114D01*
X49749498Y-87840691D01*
X44594090Y-87840691D01*
X44520080Y-87766681D01*
X44520075Y-87766677D01*
X44520073Y-87766675D01*
X44280835Y-87583102D01*
X44280832Y-87583100D01*
X44019668Y-87432317D01*
X44019664Y-87432315D01*
X44019660Y-87432313D01*
X43741063Y-87316915D01*
X43741062Y-87316914D01*
X43741058Y-87316913D01*
X43449768Y-87238862D01*
X43449765Y-87238861D01*
X43449763Y-87238861D01*
X43150784Y-87199500D01*
X43150783Y-87199500D01*
X42849217Y-87199500D01*
X42849215Y-87199500D01*
X42550239Y-87238861D01*
X42550234Y-87238861D01*
X42258949Y-87316911D01*
X42258936Y-87316915D01*
X41980339Y-87432313D01*
X41719164Y-87583102D01*
X41479926Y-87766675D01*
X41266675Y-87979926D01*
X41083102Y-88219164D01*
X40932313Y-88480339D01*
X40816915Y-88758936D01*
X40816911Y-88758949D01*
X40738861Y-89050234D01*
X40738861Y-89050239D01*
X40699500Y-89349215D01*
X40500500Y-89349215D01*
X40500500Y-87503537D01*
X40500752Y-87496475D01*
X40501916Y-87480200D01*
X40515258Y-87293651D01*
X40517265Y-87279692D01*
X40559737Y-87084446D01*
X40563711Y-87070913D01*
X40633535Y-86883711D01*
X40639396Y-86870877D01*
X40735152Y-86695513D01*
X40742776Y-86683650D01*
X40862513Y-86523700D01*
X40871751Y-86513038D01*
X41013041Y-86371748D01*
X41023700Y-86362513D01*
X41183650Y-86242775D01*
X41195509Y-86235154D01*
X41370886Y-86139391D01*
X41383701Y-86133539D01*
X41570914Y-86063711D01*
X41584447Y-86059737D01*
X41779693Y-86017265D01*
X41793652Y-86015258D01*
X41973568Y-86002390D01*
X41996478Y-86000752D01*
X42003540Y-86000500D01*
X120807347Y-86000500D01*
X120865538Y-86019407D01*
G37*
G04 #@! TD.AperFunction*
M02*
