M48
; DRILL file {KiCad 9.0.1-rc2} date 2025-11-09T15:09:06-0800
; FORMAT={-:-/ absolute / metric / decimal}
; #@! TF.CreationDate,2025-11-09T15:09:06-08:00
; #@! TF.GenerationSoftware,Kicad,Pcbnew,9.0.1-rc2
; #@! TF.FileFunction,Plated,1,4,PTH
FMAT,2
METRIC
; #@! TA.AperFunction,Plated,PTH,ViaDrill
T1C0.300
; #@! TA.AperFunction,Plated,PTH,ComponentDrill
T2C0.600
; #@! TA.AperFunction,Plated,PTH,ComponentDrill
T3C0.800
%
G90
G05
T1
X41.0Y-87.5
X41.0Y-92.5
X41.0Y-96.5
X41.0Y-100.5
X41.0Y-104.5
X41.0Y-108.5
X41.0Y-112.5
X42.0Y-116.5
X43.3Y-107.762
X44.5Y-86.5
X45.625Y-105.9
X45.95Y-112.862
X46.0Y-99.25
X46.0Y-116.5
X47.0Y-90.0
X47.1Y-108.575
X47.55Y-104.175
X48.25Y-95.0
X48.25Y-103.0
X48.25Y-104.175
X48.5Y-86.5
X48.6Y-94.4
X48.6Y-103.6
X48.8Y-105.725
X48.95Y-93.775
X48.95Y-95.0
X48.95Y-103.0
X48.95Y-104.175
X49.3Y-94.4
X49.3Y-95.6
X50.0Y-116.5
X50.2Y-87.9
X50.2Y-91.9
X50.275Y-110.3
X50.75Y-95.75
X51.15Y-86.7
X51.15Y-87.4
X51.4Y-90.7
X52.25Y-111.75
X53.02Y-109.565
X53.1Y-90.7
X53.125Y-99.675
X53.3Y-103.1
X53.3Y-103.9
X53.72Y-109.565
X54.3Y-89.4
X54.7Y-87.8
X54.7Y-88.6
X54.8Y-110.3
X55.02Y-91.611
X55.28Y-107.289
X55.5Y-88.6
X55.6Y-110.3
X55.6Y-111.1
X56.0Y-114.75
X56.0Y-109.5
X56.58Y-89.335
X57.0Y-95.0
X57.0Y-95.8
X57.2Y-108.2
X57.28Y-89.335
X57.5Y-88.25
X58.25Y-113.5
X58.9Y-108.2
X59.15Y-111.5
X59.15Y-112.2
X59.6Y-87.9
X59.6Y-91.9
X60.1Y-107.0
X60.1Y-111.0
X60.55Y-86.7
X60.55Y-87.4
X60.8Y-90.7
X62.42Y-109.565
X62.5Y-90.7
X62.7Y-103.1
X62.7Y-103.9
X63.12Y-109.565
X63.7Y-89.4
X64.1Y-87.8
X64.1Y-88.6
X64.2Y-110.3
X64.42Y-91.611
X64.68Y-107.289
X64.9Y-88.6
X65.0Y-110.3
X65.0Y-111.1
X65.4Y-109.5
X65.98Y-89.335
X66.4Y-95.0
X66.4Y-95.8
X66.6Y-108.2
X66.68Y-89.335
X67.5Y-86.5
X68.3Y-108.2
X68.55Y-111.5
X68.55Y-112.2
X69.0Y-87.9
X69.0Y-91.9
X69.5Y-107.0
X69.5Y-111.0
X69.88Y-112.865
X69.95Y-86.7
X69.95Y-87.4
X70.2Y-90.7
X70.5Y-111.1
X71.82Y-109.565
X71.9Y-90.7
X72.1Y-103.1
X72.1Y-103.9
X72.52Y-109.565
X73.1Y-89.4
X73.5Y-87.8
X73.5Y-88.6
X73.6Y-110.3
X73.82Y-91.611
X74.08Y-107.289
X74.3Y-88.6
X74.4Y-110.3
X74.4Y-111.1
X74.8Y-109.5
X75.38Y-89.335
X75.8Y-95.8
X75.8Y-95.0
X76.0Y-108.2
X76.08Y-89.335
X77.7Y-108.2
X77.95Y-111.5
X77.95Y-112.2
X78.4Y-87.9
X78.4Y-91.9
X78.9Y-107.0
X78.9Y-111.0
X79.35Y-86.7
X79.35Y-87.4
X79.6Y-90.7
X81.22Y-109.565
X81.3Y-90.7
X81.5Y-103.1
X81.5Y-103.9
X81.65Y-111.5
X81.92Y-109.565
X82.0Y-116.9
X82.5Y-89.4
X82.9Y-87.8
X82.9Y-88.6
X83.0Y-110.3
X83.22Y-91.611
X83.48Y-107.289
X83.7Y-88.6
X83.8Y-110.3
X83.8Y-111.1
X84.2Y-109.5
X84.78Y-89.335
X85.2Y-95.0
X85.2Y-95.8
X85.4Y-108.2
X85.48Y-89.335
X85.5Y-86.5
X87.1Y-108.2
X87.25Y-88.0
X87.35Y-111.5
X87.35Y-112.2
X88.3Y-107.0
X88.3Y-111.0
X89.5Y-86.5
X89.5Y-94.65
X89.7Y-90.85
X89.75Y-92.75
X90.62Y-109.565
X90.9Y-103.9
X90.9Y-103.1
X91.32Y-109.565
X91.75Y-96.75
X92.4Y-110.3
X92.88Y-107.289
X93.2Y-110.3
X93.2Y-111.1
X93.5Y-86.5
X93.5Y-90.85
X93.5Y-94.65
X93.6Y-109.5
X94.25Y-114.15
X94.8Y-108.2
X95.6Y-90.1
X95.6Y-91.25
X95.6Y-92.5
X96.0Y-88.8
X96.5Y-108.2
X96.7Y-93.8
X96.75Y-111.5
X96.75Y-112.2
X97.5Y-86.5
X97.7Y-107.0
X97.7Y-111.0
X98.0Y-100.25
X98.0Y-114.75
X98.5Y-88.8
X98.65Y-94.925
X98.65Y-95.85
X98.75Y-112.0
X99.35Y-93.9
X99.6Y-90.3
X99.75Y-99.352
X99.9Y-101.35
X99.95Y-106.8
X100.1Y-93.9
X100.4Y-90.7
X100.625Y-97.426
X100.75Y-103.75
X100.95Y-91.35
X101.0Y-88.25
X101.5Y-86.5
X101.75Y-90.45
X102.4Y-89.925
X102.8Y-103.5
X103.259Y-102.971
X103.32Y-94.92
X103.374Y-101.55
X103.494Y-89.856
X103.65Y-106.8
X103.65Y-110.75
X103.959Y-102.975
X103.975Y-99.855
X103.975Y-89.05
X104.0Y-116.5
X104.8Y-88.1
X104.8Y-101.55
X105.2Y-94.25
X105.2Y-95.45
X105.5Y-86.5
X105.6Y-90.4
X105.795Y-94.87
X106.0Y-92.4
X106.225Y-101.475
X106.4Y-94.25
X106.4Y-95.45
X106.4Y-88.0
X106.4Y-88.9
X106.75Y-105.75
X106.75Y-106.55
X106.8Y-92.8
X106.8Y-104.6
X107.484Y-92.341
X107.575Y-87.85
X107.575Y-88.95
X107.58Y-89.91
X107.794Y-99.444
X107.8Y-104.6
X108.0Y-100.2
X108.0Y-116.5
X108.75Y-101.55
X109.5Y-86.5
X109.65Y-105.0
X109.65Y-107.312
X109.7Y-101.55
X110.2Y-112.2
X110.65Y-112.7
X110.72Y-95.32
X110.75Y-111.1
X110.75Y-111.75
X111.445Y-99.15
X112.0Y-116.5
X112.4Y-104.15
X112.55Y-110.05
X113.225Y-94.4
X113.225Y-98.45
X113.225Y-97.7
X113.234Y-95.13
X113.5Y-100.2
X113.5Y-86.5
X113.725Y-91.3
X113.725Y-92.0
X113.75Y-104.5
X114.385Y-94.4
X115.3Y-86.55
X115.7Y-99.4
X116.0Y-116.5
X116.51Y-96.6
X116.575Y-103.575
X116.925Y-102.975
X117.275Y-103.575
X117.3Y-94.4
X117.625Y-102.975
X117.725Y-94.95
X118.1Y-87.1
X119.0Y-110.0
X119.499Y-98.712
X119.499Y-99.732
X119.75Y-105.05
X119.75Y-106.35
X120.0Y-86.5
X120.0Y-91.0
X120.0Y-116.5
X124.0Y-116.5
X125.0Y-87.5
X125.0Y-92.5
X125.0Y-96.5
X125.0Y-100.5
X125.0Y-104.5
X125.0Y-108.5
X125.0Y-112.5
T3
X73.0Y-114.2
X73.0Y-116.2
X75.0Y-114.2
X75.0Y-116.2
X77.0Y-114.2
X77.0Y-116.2
X79.0Y-114.2
X79.0Y-116.2
X81.0Y-114.2
X81.0Y-116.2
X83.0Y-114.2
X83.0Y-116.2
X85.0Y-114.2
X85.0Y-116.2
X87.0Y-114.2
X87.0Y-116.2
X89.0Y-114.2
X89.0Y-116.2
X91.0Y-114.2
X91.0Y-116.2
T2
X42.85Y-94.68G85X42.25Y-94.68
G05
X42.85Y-103.32G85X42.25Y-103.32
G05
X47.28Y-94.68G85X46.18Y-94.68
G05
X47.28Y-103.32G85X46.18Y-103.32
G05
X118.694Y-94.642G85X119.794Y-94.642
G05
X118.694Y-103.282G85X119.794Y-103.282
G05
X123.124Y-94.642G85X123.724Y-94.642
G05
X123.124Y-103.282G85X123.724Y-103.282
G05
M30
