G04 #@! TF.GenerationSoftware,KiCad,Pcbnew,9.0.1-rc2*
G04 #@! TF.CreationDate,2025-11-09T15:09:06-08:00*
G04 #@! TF.ProjectId,bsl_drv_v1,62736c5f-6472-4765-9f76-312e6b696361,rev?*
G04 #@! TF.SameCoordinates,Original*
G04 #@! TF.FileFunction,Soldermask,Top*
G04 #@! TF.FilePolarity,Negative*
%FSLAX46Y46*%
G04 Gerber Fmt 4.6, Leading zero omitted, Abs format (unit mm)*
G04 Created by KiCad (PCBNEW 9.0.1-rc2) date 2025-11-09 15:09:06*
%MOMM*%
%LPD*%
G01*
G04 APERTURE LIST*
G04 Aperture macros list*
%AMRoundRect*
0 Rectangle with rounded corners*
0 $1 Rounding radius*
0 $2 $3 $4 $5 $6 $7 $8 $9 X,Y pos of 4 corners*
0 Add a 4 corners polygon primitive as box body*
4,1,4,$2,$3,$4,$5,$6,$7,$8,$9,$2,$3,0*
0 Add four circle primitives for the rounded corners*
1,1,$1+$1,$2,$3*
1,1,$1+$1,$4,$5*
1,1,$1+$1,$6,$7*
1,1,$1+$1,$8,$9*
0 Add four rect primitives between the rounded corners*
20,1,$1+$1,$2,$3,$4,$5,0*
20,1,$1+$1,$4,$5,$6,$7,0*
20,1,$1+$1,$6,$7,$8,$9,0*
20,1,$1+$1,$8,$9,$2,$3,0*%
%AMFreePoly0*
4,1,9,3.862500,-0.866500,0.737500,-0.866500,0.737500,-0.450000,-0.737500,-0.450000,-0.737500,0.450000,0.737500,0.450000,0.737500,0.866500,3.862500,0.866500,3.862500,-0.866500,3.862500,-0.866500,$1*%
G04 Aperture macros list end*
%ADD10C,1.300000*%
%ADD11C,1.000000*%
%ADD12RoundRect,0.112500X0.237500X-0.112500X0.237500X0.112500X-0.237500X0.112500X-0.237500X-0.112500X0*%
%ADD13R,1.350000X1.350000*%
%ADD14C,1.350000*%
%ADD15RoundRect,0.250000X0.300000X0.300000X-0.300000X0.300000X-0.300000X-0.300000X0.300000X-0.300000X0*%
%ADD16RoundRect,0.112500X0.112500X-0.187500X0.112500X0.187500X-0.112500X0.187500X-0.112500X-0.187500X0*%
%ADD17RoundRect,0.112500X-0.112500X0.187500X-0.112500X-0.187500X0.112500X-0.187500X0.112500X0.187500X0*%
%ADD18RoundRect,0.150000X0.150000X-0.512500X0.150000X0.512500X-0.150000X0.512500X-0.150000X-0.512500X0*%
%ADD19RoundRect,0.100000X-0.225000X-0.100000X0.225000X-0.100000X0.225000X0.100000X-0.225000X0.100000X0*%
%ADD20RoundRect,0.100000X0.225000X0.100000X-0.225000X0.100000X-0.225000X-0.100000X0.225000X-0.100000X0*%
%ADD21RoundRect,0.250000X-0.475000X0.250000X-0.475000X-0.250000X0.475000X-0.250000X0.475000X0.250000X0*%
%ADD22RoundRect,0.135000X0.185000X-0.135000X0.185000X0.135000X-0.185000X0.135000X-0.185000X-0.135000X0*%
%ADD23RoundRect,0.200000X0.200000X0.275000X-0.200000X0.275000X-0.200000X-0.275000X0.200000X-0.275000X0*%
%ADD24RoundRect,0.250000X-2.600000X0.600000X-2.600000X-0.600000X2.600000X-0.600000X2.600000X0.600000X0*%
%ADD25RoundRect,0.140000X-0.170000X0.140000X-0.170000X-0.140000X0.170000X-0.140000X0.170000X0.140000X0*%
%ADD26RoundRect,0.250000X-0.325000X-0.650000X0.325000X-0.650000X0.325000X0.650000X-0.325000X0.650000X0*%
%ADD27RoundRect,0.140000X-0.140000X-0.170000X0.140000X-0.170000X0.140000X0.170000X-0.140000X0.170000X0*%
%ADD28C,1.600000*%
%ADD29RoundRect,0.250000X0.350000X1.000000X-0.350000X1.000000X-0.350000X-1.000000X0.350000X-1.000000X0*%
%ADD30RoundRect,0.200000X-0.300000X-0.200000X0.300000X-0.200000X0.300000X0.200000X-0.300000X0.200000X0*%
%ADD31RoundRect,0.250000X0.325000X0.650000X-0.325000X0.650000X-0.325000X-0.650000X0.325000X-0.650000X0*%
%ADD32RoundRect,0.250000X2.600000X-0.600000X2.600000X0.600000X-2.600000X0.600000X-2.600000X-0.600000X0*%
%ADD33RoundRect,0.135000X-0.185000X0.135000X-0.185000X-0.135000X0.185000X-0.135000X0.185000X0.135000X0*%
%ADD34RoundRect,0.200000X-0.200000X-0.275000X0.200000X-0.275000X0.200000X0.275000X-0.200000X0.275000X0*%
%ADD35RoundRect,0.140000X0.170000X-0.140000X0.170000X0.140000X-0.170000X0.140000X-0.170000X-0.140000X0*%
%ADD36RoundRect,0.140000X0.140000X0.170000X-0.140000X0.170000X-0.140000X-0.170000X0.140000X-0.170000X0*%
%ADD37RoundRect,0.250000X0.475000X-0.250000X0.475000X0.250000X-0.475000X0.250000X-0.475000X-0.250000X0*%
%ADD38RoundRect,0.135000X-0.135000X-0.185000X0.135000X-0.185000X0.135000X0.185000X-0.135000X0.185000X0*%
%ADD39RoundRect,0.150000X-0.825000X-0.150000X0.825000X-0.150000X0.825000X0.150000X-0.825000X0.150000X0*%
%ADD40RoundRect,0.250000X0.250000X0.475000X-0.250000X0.475000X-0.250000X-0.475000X0.250000X-0.475000X0*%
%ADD41C,0.650000*%
%ADD42R,1.450000X0.600000*%
%ADD43R,1.450000X0.300000*%
%ADD44O,2.100000X1.000000*%
%ADD45O,1.600000X1.000000*%
%ADD46R,1.200000X1.400000*%
%ADD47RoundRect,0.218750X0.218750X0.256250X-0.218750X0.256250X-0.218750X-0.256250X0.218750X-0.256250X0*%
%ADD48RoundRect,0.225000X0.425000X0.225000X-0.425000X0.225000X-0.425000X-0.225000X0.425000X-0.225000X0*%
%ADD49FreePoly0,180.000000*%
%ADD50RoundRect,0.135000X0.135000X0.185000X-0.135000X0.185000X-0.135000X-0.185000X0.135000X-0.185000X0*%
%ADD51RoundRect,0.218750X-0.218750X-0.381250X0.218750X-0.381250X0.218750X0.381250X-0.218750X0.381250X0*%
%ADD52RoundRect,0.200000X0.300000X0.200000X-0.300000X0.200000X-0.300000X-0.200000X0.300000X-0.200000X0*%
%ADD53C,4.000000*%
%ADD54RoundRect,0.050000X0.150000X0.300000X-0.150000X0.300000X-0.150000X-0.300000X0.150000X-0.300000X0*%
%ADD55RoundRect,0.200000X-0.200000X0.300000X-0.200000X-0.300000X0.200000X-0.300000X0.200000X0.300000X0*%
%ADD56RoundRect,0.050000X0.300000X-0.150000X0.300000X0.150000X-0.300000X0.150000X-0.300000X-0.150000X0*%
%ADD57RoundRect,0.050000X-0.150000X-0.300000X0.150000X-0.300000X0.150000X0.300000X-0.150000X0.300000X0*%
%ADD58RoundRect,0.250000X-0.250000X-0.475000X0.250000X-0.475000X0.250000X0.475000X-0.250000X0.475000X0*%
%ADD59RoundRect,0.050000X-0.300000X0.150000X-0.300000X-0.150000X0.300000X-0.150000X0.300000X0.150000X0*%
%ADD60RoundRect,0.050000X-0.050000X0.387500X-0.050000X-0.387500X0.050000X-0.387500X0.050000X0.387500X0*%
%ADD61RoundRect,0.050000X-0.387500X0.050000X-0.387500X-0.050000X0.387500X-0.050000X0.387500X0.050000X0*%
%ADD62R,3.200000X3.200000*%
G04 APERTURE END LIST*
D10*
X121350000Y-86850000D03*
X42000000Y-114100000D03*
D11*
X112400000Y-104150000D03*
X96750000Y-96250000D03*
D12*
X118700000Y-106350000D03*
X118700000Y-105050000D03*
X116700000Y-105700000D03*
D13*
X91000000Y-114200000D03*
D14*
X91000000Y-116200000D03*
X89000000Y-114200000D03*
X89000000Y-116200000D03*
X87000000Y-114200000D03*
X87000000Y-116200000D03*
X85000000Y-114200000D03*
X85000000Y-116200000D03*
X83000000Y-114200000D03*
X83000000Y-116200000D03*
X81000000Y-114200000D03*
X81000000Y-116200000D03*
X79000000Y-114200000D03*
X79000000Y-116200000D03*
X77000000Y-114200000D03*
X77000000Y-116200000D03*
X75000000Y-114200000D03*
X75000000Y-116200000D03*
X73000000Y-114200000D03*
X73000000Y-116200000D03*
D15*
X48850000Y-92500000D03*
X46050000Y-92500000D03*
D16*
X80324999Y-107115000D03*
X80324999Y-105015000D03*
D17*
X86375001Y-91785000D03*
X86375001Y-93885000D03*
D16*
X52124999Y-107115000D03*
X52124999Y-105015000D03*
X114774999Y-103500000D03*
X114774999Y-101400000D03*
X89724999Y-107115001D03*
X89724999Y-105015001D03*
D17*
X76975000Y-91785000D03*
X76975000Y-93885000D03*
D16*
X61524999Y-107115000D03*
X61524999Y-105015000D03*
X70924999Y-107115000D03*
X70924999Y-105015000D03*
D17*
X67575001Y-91785000D03*
X67575001Y-93885000D03*
D16*
X48800000Y-108700000D03*
X48800000Y-106600000D03*
D18*
X44200000Y-111450000D03*
X45150000Y-111450000D03*
X46100000Y-111450000D03*
X46100000Y-109175000D03*
X45150000Y-109175000D03*
X44200000Y-109175000D03*
D19*
X84649999Y-107565000D03*
X84649999Y-108215000D03*
X84649999Y-108865000D03*
X86549999Y-108865000D03*
X86549999Y-107565000D03*
D20*
X82050001Y-91335000D03*
X82050001Y-90685000D03*
X82050001Y-90035000D03*
X80150001Y-90035000D03*
X80150001Y-91335000D03*
D19*
X56449999Y-107565000D03*
X56449999Y-108215000D03*
X56449999Y-108865000D03*
X58349999Y-108865000D03*
X58349999Y-107565000D03*
D20*
X72650000Y-91335000D03*
X72650000Y-90685000D03*
X72650000Y-90035000D03*
X70750000Y-90035000D03*
X70750000Y-91335000D03*
D19*
X65849999Y-107565000D03*
X65849999Y-108215000D03*
X65849999Y-108865000D03*
X67749999Y-108865000D03*
X67749999Y-107565000D03*
X94049999Y-107565000D03*
X94049999Y-108215000D03*
X94049999Y-108865000D03*
X95949999Y-108865000D03*
X95949999Y-107565000D03*
D20*
X63250001Y-91335000D03*
X63250001Y-90685000D03*
X63250001Y-90035000D03*
X61350001Y-90035000D03*
X61350001Y-91335000D03*
D19*
X75249999Y-107565000D03*
X75249999Y-108215000D03*
X75249999Y-108865000D03*
X77149999Y-108865000D03*
X77149999Y-107565000D03*
D21*
X80300000Y-103514999D03*
X80300000Y-101615001D03*
D22*
X87749999Y-109405001D03*
X87749999Y-110424999D03*
D23*
X84744999Y-111965000D03*
X86394999Y-111965000D03*
X84749999Y-110500000D03*
X86399999Y-110500000D03*
D24*
X84800000Y-105550000D03*
X84800000Y-101050000D03*
D25*
X87749999Y-108545000D03*
X87749999Y-107585000D03*
D26*
X83100000Y-108915000D03*
X80149998Y-108915000D03*
D27*
X82829999Y-107280000D03*
X81869999Y-107280000D03*
D28*
X122250000Y-111400000D03*
X115250000Y-111400000D03*
D29*
X117650000Y-114650000D03*
X120649999Y-114650000D03*
X112549999Y-108150000D03*
X113650000Y-114650000D03*
D30*
X94500000Y-98350000D03*
X88500000Y-98350000D03*
X94500000Y-94650000D03*
X88500000Y-94650000D03*
D31*
X83600000Y-89985000D03*
X86550002Y-89985000D03*
D32*
X81900000Y-93350000D03*
X81900000Y-97850000D03*
D33*
X78950001Y-89494999D03*
X78950001Y-88475001D03*
D34*
X81955001Y-86935000D03*
X80305001Y-86935000D03*
D35*
X78950001Y-90355000D03*
X78950001Y-91315000D03*
D36*
X83870001Y-91620000D03*
X84830001Y-91620000D03*
D37*
X86400000Y-95385001D03*
X86400000Y-97284999D03*
D34*
X81950001Y-88400000D03*
X80300001Y-88400000D03*
D25*
X59549999Y-108545000D03*
X59549999Y-107585000D03*
D22*
X59549999Y-109405001D03*
X59549999Y-110424999D03*
D27*
X54629999Y-107280000D03*
X53669999Y-107280000D03*
D23*
X56549999Y-110500000D03*
X58199999Y-110500000D03*
D21*
X52100000Y-103514999D03*
X52100000Y-101615001D03*
D26*
X54900000Y-108915000D03*
X51949998Y-108915000D03*
D23*
X56544999Y-111965000D03*
X58194999Y-111965000D03*
D24*
X56600000Y-105550000D03*
X56600000Y-101050000D03*
X94200000Y-105550000D03*
X94200000Y-101050000D03*
D38*
X44140001Y-107762499D03*
X45159999Y-107762499D03*
D36*
X75430000Y-91620000D03*
X74470000Y-91620000D03*
D39*
X112124999Y-87845000D03*
X112124999Y-89115000D03*
X112124999Y-90385000D03*
X112124999Y-91655000D03*
X117074999Y-91655000D03*
X117074999Y-90385000D03*
X117074999Y-89115000D03*
X117074999Y-87845000D03*
D40*
X109649999Y-106162500D03*
X107750001Y-106162500D03*
D22*
X68949999Y-110424999D03*
X68949999Y-109405001D03*
D11*
X103974999Y-87125000D03*
D41*
X119773999Y-101852479D03*
X119773999Y-96072479D03*
D42*
X118328999Y-102212479D03*
X118328999Y-101412480D03*
D43*
X118329000Y-100212479D03*
X118328999Y-99212479D03*
X118328999Y-98712479D03*
X118329000Y-97712479D03*
D42*
X118328999Y-96512478D03*
X118328999Y-95712479D03*
X118328999Y-95712479D03*
X118328999Y-96512478D03*
D43*
X118328999Y-97212479D03*
X118328999Y-98212479D03*
X118328999Y-99712479D03*
X118328999Y-100712479D03*
D42*
X118328999Y-101412480D03*
X118328999Y-102212479D03*
D44*
X119243999Y-103282479D03*
D45*
X123423999Y-103282479D03*
D44*
X119243999Y-94642479D03*
D45*
X123423999Y-94642479D03*
D33*
X42950000Y-109802502D03*
X42950000Y-110822500D03*
D35*
X108399999Y-89910000D03*
X108399999Y-88950000D03*
D33*
X50275000Y-108505003D03*
X50275000Y-109525001D03*
D36*
X117079999Y-86550000D03*
X116119999Y-86550000D03*
D38*
X115203999Y-94400000D03*
X116223999Y-94400000D03*
D33*
X60150001Y-88475001D03*
X60150001Y-89494999D03*
D36*
X100454999Y-94925000D03*
X99494999Y-94925000D03*
D46*
X96749999Y-90290001D03*
X96749999Y-92490001D03*
X98449999Y-92490001D03*
X98449999Y-90290001D03*
D38*
X46104999Y-107762499D03*
X47124997Y-107762499D03*
D25*
X106800000Y-102870000D03*
X106800000Y-103830000D03*
D38*
X108349998Y-87850000D03*
X109369998Y-87850000D03*
D24*
X75400000Y-101050000D03*
X75400000Y-105550000D03*
D22*
X109329998Y-89939999D03*
X109329998Y-88920001D03*
D36*
X97729998Y-88830002D03*
X96769998Y-88830002D03*
D27*
X111444998Y-95350000D03*
X112404998Y-95350000D03*
D11*
X99900000Y-101350000D03*
D36*
X66030001Y-91620000D03*
X65070001Y-91620000D03*
D35*
X69550000Y-91315000D03*
X69550000Y-90355000D03*
D25*
X108749999Y-99850000D03*
X108749999Y-100810000D03*
D37*
X76999999Y-97284999D03*
X76999999Y-95385001D03*
D34*
X61505001Y-86935000D03*
X63155001Y-86935000D03*
D22*
X50275000Y-107625000D03*
X50275000Y-106605002D03*
X42000000Y-110822499D03*
X42000000Y-109802501D03*
D27*
X63069999Y-107280000D03*
X64029999Y-107280000D03*
D37*
X67600000Y-97284999D03*
X67600000Y-95385001D03*
D25*
X104799999Y-99850000D03*
X104799999Y-100810000D03*
D23*
X67599999Y-110500000D03*
X65949999Y-110500000D03*
D22*
X99849999Y-93050000D03*
X99849999Y-92030002D03*
D27*
X111444999Y-94400000D03*
X112404999Y-94400000D03*
D21*
X61500000Y-101615001D03*
X61500000Y-103514999D03*
X50000000Y-103509999D03*
X50000000Y-101610001D03*
D25*
X78349999Y-107585000D03*
X78349999Y-108545000D03*
D27*
X72469999Y-107280000D03*
X73429999Y-107280000D03*
D25*
X107800000Y-102870000D03*
X107800000Y-103830000D03*
D47*
X112437500Y-100150000D03*
X110862498Y-100150000D03*
D35*
X104799999Y-89910000D03*
X104799999Y-88950000D03*
D27*
X111444998Y-97505000D03*
X112404998Y-97505000D03*
X97469999Y-93980002D03*
X98429999Y-93980002D03*
D34*
X70905000Y-86935000D03*
X72555000Y-86935000D03*
D41*
X46200000Y-96110000D03*
X46200000Y-101890000D03*
D42*
X47645000Y-95750000D03*
X47645000Y-96549999D03*
D43*
X47644999Y-97750000D03*
X47645000Y-98750000D03*
X47645000Y-99250000D03*
X47644999Y-100250000D03*
D42*
X47645000Y-101450001D03*
X47645000Y-102250000D03*
X47645000Y-102250000D03*
X47645000Y-101450001D03*
D43*
X47645000Y-100750000D03*
X47645000Y-99750000D03*
X47645000Y-98250000D03*
X47645000Y-97250000D03*
D42*
X47645000Y-96549999D03*
X47645000Y-95750000D03*
D44*
X46730000Y-94680000D03*
D45*
X42550000Y-94680000D03*
D44*
X46730000Y-103320000D03*
D45*
X42550000Y-103320000D03*
D27*
X44174999Y-112862498D03*
X45134999Y-112862498D03*
D48*
X109649999Y-111262500D03*
D49*
X109562498Y-109762500D03*
D48*
X109649999Y-108262500D03*
D50*
X115284998Y-100200000D03*
X114265000Y-100200000D03*
D26*
X89549998Y-108915000D03*
X92500000Y-108915000D03*
D32*
X72500000Y-97850000D03*
X72500000Y-93350000D03*
D51*
X49987500Y-99975000D03*
X52112500Y-99975000D03*
D25*
X68949999Y-107585000D03*
X68949999Y-108545000D03*
D21*
X89700000Y-101615001D03*
X89700000Y-103514999D03*
D31*
X77150001Y-89985000D03*
X74199999Y-89985000D03*
D23*
X95794999Y-111965001D03*
X94144999Y-111965001D03*
D52*
X94500000Y-90850000D03*
X88500000Y-90850000D03*
X94500000Y-87150000D03*
X88500000Y-87150000D03*
D21*
X70900000Y-101615001D03*
X70900000Y-103514999D03*
D26*
X70749998Y-108915000D03*
X73700000Y-108915000D03*
D38*
X101939998Y-99860000D03*
X102959998Y-99860000D03*
D31*
X67750002Y-89985000D03*
X64800000Y-89985000D03*
D23*
X67594999Y-111965000D03*
X65944999Y-111965000D03*
D34*
X61500001Y-88400000D03*
X63150001Y-88400000D03*
D53*
X43000000Y-89500000D03*
D54*
X45024998Y-105900000D03*
X44325000Y-105900000D03*
D55*
X103649999Y-105800001D03*
X103649999Y-111800001D03*
X99949999Y-105800001D03*
X99949999Y-111800001D03*
D56*
X116510000Y-102099999D03*
X116510000Y-101400001D03*
D27*
X91269999Y-107280000D03*
X92229999Y-107280000D03*
D23*
X76994999Y-111965000D03*
X75344999Y-111965000D03*
D57*
X46225000Y-105900000D03*
X46924998Y-105900000D03*
D34*
X70900000Y-88400000D03*
X72550000Y-88400000D03*
D56*
X116510000Y-99624998D03*
X116510000Y-98925000D03*
D50*
X114309998Y-95900000D03*
X113290000Y-95900000D03*
D33*
X107799999Y-100940001D03*
X107799999Y-101959999D03*
D38*
X113290000Y-96850000D03*
X114309998Y-96850000D03*
D22*
X97149999Y-110424999D03*
X97149999Y-109405001D03*
X78349999Y-110424999D03*
X78349999Y-109405001D03*
D23*
X95799999Y-110500000D03*
X94149999Y-110500000D03*
D25*
X109699999Y-99850000D03*
X109699999Y-100810000D03*
D58*
X107750001Y-113362500D03*
X109649999Y-113362500D03*
D27*
X111444999Y-98455000D03*
X112404999Y-98455000D03*
D24*
X66000000Y-101050000D03*
X66000000Y-105550000D03*
D53*
X122999998Y-89500000D03*
D33*
X69550000Y-88475001D03*
X69550000Y-89494999D03*
D36*
X100455000Y-95850000D03*
X99495000Y-95850000D03*
D23*
X76999999Y-110500000D03*
X75349999Y-110500000D03*
D59*
X116510000Y-97300001D03*
X116510000Y-97999999D03*
D25*
X97149999Y-107585000D03*
X97149999Y-108545000D03*
D32*
X63100000Y-97850000D03*
X63100000Y-93350000D03*
D11*
X98375000Y-97500000D03*
X101949999Y-101375000D03*
D35*
X60150001Y-91315000D03*
X60150001Y-90355000D03*
D26*
X61349998Y-108915000D03*
X64300000Y-108915000D03*
D60*
X108394999Y-91432500D03*
X107994998Y-91432500D03*
X107594999Y-91432500D03*
X107194999Y-91432500D03*
X106794999Y-91432500D03*
X106395000Y-91432500D03*
X105994999Y-91432500D03*
X105594999Y-91432500D03*
X105194998Y-91432500D03*
X104794999Y-91432500D03*
X104394999Y-91432500D03*
X103994999Y-91432500D03*
X103595000Y-91432500D03*
X103194999Y-91432500D03*
D61*
X102357499Y-92270000D03*
X102357499Y-92670001D03*
X102357499Y-93070000D03*
X102357499Y-93470000D03*
X102357499Y-93870000D03*
X102357499Y-94269999D03*
X102357499Y-94670000D03*
X102357499Y-95070000D03*
X102357499Y-95470001D03*
X102357499Y-95870000D03*
X102357499Y-96270000D03*
X102357499Y-96670000D03*
X102357499Y-97069999D03*
X102357499Y-97470000D03*
D60*
X103194999Y-98307500D03*
X103595000Y-98307500D03*
X103994999Y-98307500D03*
X104394999Y-98307500D03*
X104794999Y-98307500D03*
X105194998Y-98307500D03*
X105594999Y-98307500D03*
X105994999Y-98307500D03*
X106395000Y-98307500D03*
X106794999Y-98307500D03*
X107194999Y-98307500D03*
X107594999Y-98307500D03*
X107994998Y-98307500D03*
X108394999Y-98307500D03*
D61*
X109232499Y-97470000D03*
X109232499Y-97069999D03*
X109232499Y-96670000D03*
X109232499Y-96270000D03*
X109232499Y-95870000D03*
X109232499Y-95470001D03*
X109232499Y-95070000D03*
X109232499Y-94670000D03*
X109232499Y-94269999D03*
X109232499Y-93870000D03*
X109232499Y-93470000D03*
X109232499Y-93070000D03*
X109232499Y-92670001D03*
X109232499Y-92270000D03*
D62*
X105794999Y-94870000D03*
D17*
X58175001Y-91785000D03*
X58175001Y-93885000D03*
D20*
X53850001Y-91335000D03*
X53850001Y-90685000D03*
X53850001Y-90035000D03*
X51950001Y-90035000D03*
X51950001Y-91335000D03*
D33*
X50750001Y-88475001D03*
X50750001Y-89494999D03*
D34*
X52100001Y-88400000D03*
X53750001Y-88400000D03*
D37*
X58200000Y-97284999D03*
X58200000Y-95385001D03*
D34*
X52105001Y-86935000D03*
X53755001Y-86935000D03*
D36*
X56630001Y-91620000D03*
X55670001Y-91620000D03*
D35*
X50750001Y-91315000D03*
X50750001Y-90355000D03*
D31*
X58350002Y-89985000D03*
X55400000Y-89985000D03*
D32*
X53700000Y-97850000D03*
X53700000Y-93350000D03*
M02*
