G04 #@! TF.GenerationSoftware,KiCad,Pcbnew,9.0.1-rc2*
G04 #@! TF.CreationDate,2025-03-29T14:30:58-07:00*
G04 #@! TF.ProjectId,backlight,6261636b-6c69-4676-9874-2e6b69636164,rev?*
G04 #@! TF.SameCoordinates,Original*
G04 #@! TF.FileFunction,Copper,L2,Bot*
G04 #@! TF.FilePolarity,Positive*
%FSLAX46Y46*%
G04 Gerber Fmt 4.6, Leading zero omitted, Abs format (unit mm)*
G04 Created by KiCad (PCBNEW 9.0.1-rc2) date 2025-03-29 14:30:58*
%MOMM*%
%LPD*%
G01*
G04 APERTURE LIST*
G04 #@! TA.AperFunction,ComponentPad*
%ADD10O,4.200000X2.000000*%
G04 #@! TD*
G04 #@! TA.AperFunction,ComponentPad*
%ADD11O,2.000000X4.200000*%
G04 #@! TD*
G04 #@! TA.AperFunction,ComponentPad*
%ADD12R,2.000000X4.600000*%
G04 #@! TD*
G04 #@! TA.AperFunction,ComponentPad*
%ADD13O,1.700000X1.000000*%
G04 #@! TD*
G04 #@! TA.AperFunction,ViaPad*
%ADD14C,1.200000*%
G04 #@! TD*
G04 #@! TA.AperFunction,ViaPad*
%ADD15C,0.600000*%
G04 #@! TD*
G04 #@! TA.AperFunction,ViaPad*
%ADD16C,0.800000*%
G04 #@! TD*
G04 #@! TA.AperFunction,Conductor*
%ADD17C,0.200000*%
G04 #@! TD*
G04 #@! TA.AperFunction,Conductor*
%ADD18C,0.400000*%
G04 #@! TD*
G04 APERTURE END LIST*
D10*
X93300000Y-68225001D03*
D11*
X89900000Y-63425001D03*
D12*
X96200000Y-63425001D03*
D13*
X84600000Y-80220000D03*
X88400000Y-80220000D03*
X84600000Y-71580000D03*
X88400000Y-71580000D03*
D14*
X101000000Y-126000000D03*
X99000000Y-126000000D03*
X99000000Y-124000000D03*
X123000000Y-112000000D03*
X88800000Y-136800000D03*
D15*
X129700000Y-62300000D03*
X129700000Y-68000000D03*
X129700000Y-73700000D03*
X119640000Y-60312500D03*
X105100000Y-60700000D03*
X105100000Y-59400000D03*
X102400000Y-60700000D03*
X102400000Y-59400000D03*
X133800000Y-59700000D03*
X133800000Y-65400000D03*
X133800000Y-71200000D03*
D16*
X132534314Y-82365686D03*
X131500000Y-80450000D03*
X133368628Y-84331372D03*
X125200000Y-78200000D03*
X115200000Y-78200000D03*
X105200000Y-78200000D03*
D15*
X100418750Y-70587500D03*
X110425000Y-72575000D03*
X112050000Y-73325000D03*
X110425000Y-71575000D03*
X112050000Y-78012500D03*
X116437500Y-60312499D03*
X112050000Y-75612500D03*
X150762500Y-66690000D03*
X122043750Y-78000000D03*
X110425000Y-70575000D03*
X102043750Y-73337500D03*
X122043750Y-75600000D03*
X102043750Y-75625000D03*
X100418750Y-72587500D03*
X102043750Y-78025000D03*
X87675000Y-73150000D03*
X86375000Y-78625000D03*
X108925000Y-65362500D03*
X122043750Y-73312500D03*
X110425000Y-65362500D03*
X86375000Y-73150000D03*
X120418750Y-70562500D03*
X100418750Y-71587500D03*
X87675000Y-78625000D03*
X120418750Y-71562500D03*
X120418750Y-72562500D03*
X150762501Y-64190000D03*
D14*
X101000000Y-96000000D03*
X93000000Y-96000000D03*
X97000000Y-92000000D03*
X101000000Y-92000000D03*
X101000000Y-94000000D03*
X97000000Y-96000000D03*
X99000000Y-96000000D03*
X93000000Y-92000000D03*
X95000000Y-94000000D03*
X99000000Y-94000000D03*
X157000000Y-130500000D03*
X157000000Y-136500000D03*
X157000000Y-132500000D03*
X155000000Y-136500000D03*
X155000000Y-128500000D03*
X157000000Y-134500000D03*
X153000000Y-130500000D03*
X155000000Y-132500000D03*
X153000000Y-134500000D03*
X157000000Y-128500000D03*
X111000000Y-109000000D03*
X109000000Y-111000000D03*
X107000000Y-113000000D03*
X103000000Y-113000000D03*
X105000000Y-111000000D03*
X103000000Y-109000000D03*
X105000000Y-109000000D03*
X103000000Y-111000000D03*
X115200000Y-109000000D03*
X103000000Y-107500000D03*
X107000000Y-109000000D03*
X161000000Y-141000000D03*
X161000000Y-143000000D03*
X161000000Y-139000000D03*
X153000000Y-139000000D03*
X157000000Y-139000000D03*
X159000000Y-141000000D03*
X157000000Y-143000000D03*
X159000000Y-139000000D03*
X161000000Y-137000000D03*
X155000000Y-141000000D03*
X105000000Y-94000000D03*
X103000000Y-96000000D03*
X105000000Y-90000000D03*
X103000000Y-92000000D03*
X105000000Y-96000000D03*
X109000000Y-94000000D03*
X103000000Y-94000000D03*
X111000000Y-92000000D03*
X107000000Y-92000000D03*
X111000000Y-96000000D03*
X115200000Y-88800000D03*
X107000000Y-96000000D03*
X93000000Y-104500000D03*
X88800000Y-118800000D03*
X101000000Y-122000000D03*
X97000000Y-106500000D03*
X99000000Y-120000000D03*
X97000000Y-126000000D03*
X93000000Y-100500000D03*
X97000000Y-122000000D03*
X97000000Y-100500000D03*
X97000000Y-104500000D03*
X101000000Y-124000000D03*
X95000000Y-124000000D03*
X95000000Y-106500000D03*
X93000000Y-126000000D03*
X93000000Y-122000000D03*
X97000000Y-102500000D03*
X95000000Y-98500000D03*
X95000000Y-102500000D03*
X97000000Y-98500000D03*
X133000001Y-140000001D03*
X137000001Y-142000001D03*
X97000000Y-134500000D03*
X135000001Y-140000001D03*
X95000000Y-136500000D03*
X133000001Y-142000001D03*
X97000000Y-136500000D03*
X93000000Y-134500000D03*
X95000000Y-132500000D03*
X95000000Y-128500000D03*
X133000001Y-138000001D03*
X97000000Y-128500000D03*
X141000001Y-142000001D03*
X93000000Y-130500000D03*
X97000000Y-132500000D03*
X97000000Y-130500000D03*
X139000001Y-140000001D03*
X135000001Y-144000001D03*
X141000001Y-138000000D03*
X137000001Y-138000001D03*
X135000002Y-138000000D03*
X135000001Y-107999999D03*
X139000001Y-131500001D03*
X133000000Y-112000000D03*
X137000000Y-108000000D03*
X141000000Y-112000000D03*
X137000002Y-135500001D03*
X135000000Y-110000000D03*
X137000001Y-133500001D03*
X139000000Y-110000000D03*
X141000001Y-133500001D03*
X133000000Y-108000000D03*
X133000000Y-110000000D03*
X137000002Y-131500001D03*
X137000001Y-129500001D03*
X137000000Y-112000000D03*
X139000001Y-127500001D03*
X139000001Y-135500001D03*
X137000001Y-127500002D03*
X135000000Y-114000000D03*
X141000000Y-107999999D03*
X141000001Y-129500002D03*
X161000000Y-94000000D03*
X137000001Y-101500000D03*
X161000000Y-92000000D03*
X137000000Y-103500000D03*
X141000000Y-103500000D03*
X139000000Y-105500000D03*
X157000000Y-96000000D03*
X139000000Y-101500000D03*
X137000000Y-99500000D03*
X159000000Y-96000000D03*
X137000000Y-97500001D03*
X153000000Y-96000000D03*
X159000000Y-90000000D03*
X153000000Y-92000000D03*
X141000000Y-99500001D03*
X159000000Y-94000000D03*
X145200000Y-97200000D03*
X139000000Y-97500000D03*
X157000000Y-92000000D03*
X161000000Y-96000000D03*
X137000001Y-105500000D03*
X155000000Y-94000000D03*
X157000000Y-106500000D03*
X153000000Y-104500000D03*
X155000000Y-102500000D03*
X161000000Y-124000000D03*
X153000000Y-126000000D03*
X153000000Y-100500000D03*
X157000000Y-102500000D03*
X155000000Y-106500000D03*
X159000000Y-120000000D03*
X157000000Y-104500000D03*
X153000000Y-122000000D03*
X155000000Y-124000000D03*
X155000000Y-98500000D03*
X157000000Y-126000000D03*
X161000000Y-126000000D03*
X159000000Y-124000000D03*
X157000000Y-122000000D03*
X159000000Y-126000000D03*
X157000000Y-98500000D03*
X148800000Y-118800000D03*
X157000000Y-100500000D03*
X161000000Y-122000000D03*
X101000000Y-109000000D03*
X105000000Y-141000000D03*
X101000000Y-111000000D03*
X107000000Y-139000000D03*
X99000000Y-111000000D03*
X101000000Y-107500000D03*
X103000000Y-141000000D03*
X107000000Y-143000000D03*
X99000000Y-109000000D03*
X111000000Y-139000000D03*
X105000000Y-139000000D03*
X115200000Y-144600000D03*
X93000000Y-109000000D03*
X103000000Y-139000000D03*
X97000000Y-113000000D03*
X95000000Y-111000000D03*
X103000000Y-137500000D03*
X101000000Y-113000000D03*
X109000000Y-141000000D03*
X103000000Y-143000000D03*
X97000000Y-109000000D03*
X129000000Y-125000000D03*
X101000000Y-137500000D03*
X131000000Y-127000000D03*
X118800000Y-125000000D03*
X101000000Y-143000000D03*
X97000000Y-143000000D03*
X99000000Y-141000000D03*
X99000000Y-139000000D03*
X97000000Y-139000000D03*
X131000002Y-125000000D03*
X131000000Y-123000000D03*
X101000000Y-139000000D03*
X101000000Y-141000000D03*
X131000001Y-121000001D03*
X93000000Y-139000000D03*
X129000001Y-123000000D03*
X127000001Y-121000001D03*
X95000000Y-141000000D03*
X123000001Y-125000000D03*
X125000001Y-123000000D03*
X127000001Y-125000000D03*
X131000001Y-94999999D03*
X130999999Y-92999999D03*
X125000000Y-92999999D03*
X118800000Y-95000000D03*
X133000000Y-125000000D03*
X131000000Y-91000000D03*
X127000000Y-94999999D03*
X133000002Y-123000000D03*
X135000001Y-123000000D03*
X133000001Y-121000000D03*
X129000000Y-92999999D03*
X135000002Y-125000000D03*
X123000000Y-94999999D03*
X137000001Y-121000000D03*
X141000001Y-125000000D03*
X127000000Y-91000000D03*
X133000002Y-127000000D03*
X137000001Y-125000000D03*
X128999999Y-94999999D03*
X139000001Y-123000000D03*
X130999999Y-96999999D03*
X135000001Y-94999999D03*
X163000000Y-111000000D03*
X163000000Y-107500000D03*
X163000000Y-115400000D03*
X133000001Y-92999999D03*
X133000001Y-96999999D03*
X163000000Y-113000000D03*
X133000000Y-90999999D03*
X167000000Y-109000000D03*
X165000000Y-111000000D03*
X163000000Y-109000000D03*
X169000000Y-111000000D03*
X137000000Y-94999999D03*
X165000000Y-109000000D03*
X132999999Y-94999999D03*
X135000000Y-92999999D03*
X139000000Y-92999999D03*
X167000000Y-113000000D03*
X171000000Y-109000000D03*
X141000000Y-94999999D03*
X137000000Y-90999999D03*
X157000000Y-113000000D03*
X171000000Y-139000000D03*
X155000000Y-111000000D03*
X167000000Y-139000000D03*
X159000000Y-109000000D03*
X161000000Y-109000000D03*
X163000000Y-143000000D03*
X161000000Y-107500000D03*
X165000000Y-141000000D03*
X157000000Y-109000000D03*
X161000000Y-113000000D03*
X169000000Y-141000000D03*
X163000000Y-139000000D03*
X165000000Y-139000000D03*
X163000000Y-137000000D03*
X161000000Y-111000000D03*
X153000000Y-109000000D03*
X163000000Y-141000000D03*
X159000000Y-111000000D03*
X167000000Y-143000000D03*
X107000000Y-102500000D03*
X111000000Y-100500000D03*
X107000000Y-100500000D03*
X109000000Y-98500000D03*
X107000000Y-106500000D03*
X103000000Y-122000000D03*
X111000000Y-126000000D03*
X105000000Y-124000000D03*
X109000000Y-124000000D03*
X103000000Y-126000000D03*
X109000000Y-102500000D03*
X107000000Y-104500000D03*
X109000000Y-106500000D03*
X103000000Y-124000000D03*
X107000000Y-122000000D03*
X111000000Y-122000000D03*
X105000000Y-126000000D03*
X107000000Y-126000000D03*
X105000000Y-120000000D03*
X107000000Y-98500000D03*
X111000000Y-104500000D03*
D15*
X102993750Y-78037500D03*
X112993750Y-78000000D03*
X122993750Y-77987500D03*
D14*
X165000000Y-126000000D03*
X167000000Y-122000000D03*
X167000000Y-126000000D03*
X163000000Y-126000000D03*
X163000000Y-124000000D03*
X169000000Y-98500000D03*
X167000000Y-100500000D03*
X163000000Y-122000000D03*
X172400000Y-106800000D03*
X172400000Y-118800000D03*
X171000000Y-126000000D03*
X167000000Y-104500000D03*
X167000000Y-106500000D03*
X167000000Y-102500000D03*
X165000000Y-120000000D03*
X171000000Y-122000000D03*
X171000000Y-100500000D03*
X169000000Y-106500000D03*
X165000000Y-124000000D03*
X167000000Y-98500000D03*
X169000000Y-102500000D03*
X171000000Y-104500000D03*
X169000000Y-124000000D03*
X126999999Y-101500000D03*
X127000000Y-99500001D03*
X171000000Y-92000000D03*
X163000000Y-94000000D03*
X163000000Y-96000000D03*
X163000000Y-92000000D03*
X127000000Y-97500001D03*
X127000000Y-103500000D03*
X165000000Y-94000000D03*
X123000000Y-103500000D03*
X125000000Y-101500000D03*
X171000000Y-96000000D03*
X125000000Y-105500000D03*
X169000000Y-94000000D03*
X165000000Y-96000000D03*
X125000000Y-97500000D03*
X123000000Y-99500000D03*
X167000000Y-92000000D03*
X167000000Y-96000000D03*
X165000000Y-90000000D03*
X126999999Y-105500000D03*
X127000001Y-129500002D03*
X125000001Y-135500001D03*
X127000000Y-108000000D03*
X129000000Y-110000000D03*
X127000001Y-133500001D03*
X129000000Y-114000000D03*
X125000001Y-127500001D03*
X123000001Y-133500001D03*
X131000000Y-108000000D03*
X131000000Y-110000000D03*
X125000001Y-131500001D03*
X128999999Y-107999999D03*
X123000001Y-129500001D03*
X125000000Y-110000000D03*
X131000000Y-112000000D03*
X127000000Y-135500001D03*
X123000000Y-108000000D03*
X127000000Y-131500001D03*
X127000000Y-112000000D03*
X127000001Y-127500002D03*
X118800000Y-115200000D03*
X107000000Y-130500000D03*
X127000001Y-138000001D03*
X129000000Y-138000000D03*
X107000000Y-128500000D03*
X131000001Y-138000001D03*
X129000001Y-144000001D03*
X123000001Y-142000001D03*
X127000001Y-142000001D03*
X115200000Y-136800000D03*
X123000001Y-138000001D03*
X131000001Y-142000001D03*
X109000000Y-132500000D03*
X111000000Y-134500000D03*
X129000001Y-140000001D03*
X111000000Y-130500000D03*
X125000001Y-140000001D03*
X109000000Y-136500000D03*
X107000000Y-136500000D03*
X107000000Y-132500000D03*
X131000001Y-140000001D03*
X107000000Y-134500000D03*
X109000000Y-128500000D03*
X167000000Y-136500000D03*
X169000000Y-136500000D03*
X99000000Y-90000000D03*
X171000000Y-130500000D03*
X169000000Y-128500000D03*
X169000000Y-132500000D03*
X167000000Y-134500000D03*
X167000000Y-132500000D03*
X173400000Y-128000000D03*
X167000000Y-130500000D03*
X167000000Y-128500000D03*
X171000000Y-134500000D03*
D15*
X110875000Y-60962500D03*
X87400000Y-75400000D03*
X87400000Y-76400000D03*
X109900001Y-60312500D03*
D17*
X109578530Y-60228530D02*
G75*
G03*
X109781250Y-60312532I202770J202730D01*
G01*
X84215141Y-75482241D02*
G75*
G03*
X84984691Y-75801008I769559J769541D01*
G01*
X87100500Y-76100500D02*
G75*
G03*
X86377443Y-75800982I-723100J-723100D01*
G01*
X82999000Y-73815308D02*
G75*
G03*
X83317764Y-74584852I1088300J8D01*
G01*
X88733691Y-58300000D02*
G75*
G03*
X87964148Y-58618764I9J-1088300D01*
G01*
X107968758Y-58618758D02*
G75*
G03*
X107199208Y-58299992I-769558J-769542D01*
G01*
X83317758Y-63265141D02*
G75*
G03*
X82998991Y-64034691I769542J-769559D01*
G01*
X84381241Y-75081241D02*
G75*
G03*
X85150791Y-75400008I769559J769541D01*
G01*
X107738537Y-59019758D02*
G75*
G03*
X106968987Y-58701007I-769537J-769542D01*
G01*
X88899791Y-58701000D02*
G75*
G03*
X88130248Y-59019764I9J-1088300D01*
G01*
X83400000Y-73649208D02*
G75*
G03*
X83718764Y-74418752I1088300J8D01*
G01*
X109362520Y-60643741D02*
G75*
G03*
X110132070Y-60962523I769580J769541D01*
G01*
X83718758Y-63431241D02*
G75*
G03*
X83399991Y-64200791I769542J-769559D01*
G01*
D18*
X132768758Y-79168758D02*
G75*
G03*
X131999208Y-78849992I-769558J-769542D01*
G01*
X125531241Y-78531241D02*
G75*
G03*
X126300791Y-78850008I769559J769541D01*
G01*
X133049869Y-79449869D02*
G75*
G02*
X133368608Y-80219419I-769569J-769531D01*
G01*
D17*
X123376593Y-77887499D02*
G75*
G02*
X123135171Y-77987485I-241393J241399D01*
G01*
X133700000Y-71300000D02*
G75*
G02*
X133458578Y-71399991I-241400J241400D01*
G01*
X130314884Y-71400000D02*
G75*
G03*
X129545344Y-71718768I16J-1088300D01*
G01*
X123548950Y-78282241D02*
G75*
G02*
X122779401Y-78601002I-769550J769541D01*
G01*
X134100000Y-65700000D02*
G75*
G02*
X134400015Y-66424264I-724300J-724300D01*
G01*
X115656964Y-77098500D02*
G75*
G03*
X115655757Y-77098029I-1164J-1200D01*
G01*
X114141273Y-77700262D02*
G75*
G02*
X113417643Y-78000020I-723673J723662D01*
G01*
X134224971Y-71624971D02*
G75*
G02*
X133800001Y-71801000I-424971J424971D01*
G01*
X134401000Y-71200001D02*
G75*
G02*
X134224971Y-71624971I-601000J1D01*
G01*
X115194327Y-77098000D02*
G75*
G03*
X114424765Y-77416746I-27J-1088300D01*
G01*
X115656964Y-77098500D02*
G75*
G03*
X115658171Y-77099022I1236J1200D01*
G01*
X130480984Y-71801000D02*
G75*
G03*
X129711444Y-72119768I16J-1088300D01*
G01*
X134400000Y-70949349D02*
G75*
G03*
X134400476Y-70950580I1700J-51D01*
G01*
X134400500Y-70950557D02*
G75*
G02*
X134401027Y-70951763I-1200J-1243D01*
G01*
X121476048Y-78282241D02*
G75*
G03*
X122245598Y-78601003I769552J769541D01*
G01*
X120611565Y-77417758D02*
G75*
G03*
X119842015Y-77098987I-769565J-769542D01*
G01*
X114113893Y-78294741D02*
G75*
G02*
X113344344Y-78613532I-769593J769541D01*
G01*
X120445465Y-77818758D02*
G75*
G03*
X119675915Y-77499987I-769565J-769542D01*
G01*
X134508521Y-71908521D02*
G75*
G02*
X133800001Y-72202000I-708521J708521D01*
G01*
X121309948Y-78683241D02*
G75*
G03*
X122079498Y-79002003I769552J769541D01*
G01*
X103911319Y-77500000D02*
G75*
G03*
X103262484Y-77768734I-19J-917600D01*
G01*
X115200000Y-77499000D02*
G75*
G03*
X114704318Y-77704319I0J-701000D01*
G01*
X111006315Y-77818758D02*
G75*
G03*
X110236765Y-77500022I-769515J-769542D01*
G01*
X134801500Y-70784457D02*
G75*
G02*
X134802027Y-70785663I-1200J-1243D01*
G01*
X123725393Y-78683241D02*
G75*
G02*
X122955844Y-79002032I-769593J769541D01*
G01*
X130657427Y-72202000D02*
G75*
G03*
X129887865Y-72520746I-27J-1088300D01*
G01*
X115490864Y-77499500D02*
G75*
G03*
X115492071Y-77500022I1236J1200D01*
G01*
X115490864Y-77499500D02*
G75*
G03*
X115489657Y-77499029I-1164J-1200D01*
G01*
X134482241Y-60382241D02*
G75*
G02*
X134801008Y-61151791I-769541J-769559D01*
G01*
X111482298Y-78294741D02*
G75*
G03*
X112251848Y-78613468I769502J769541D01*
G01*
X134802000Y-71200001D02*
G75*
G02*
X134508521Y-71908521I-1002000J1D01*
G01*
X134801000Y-70783249D02*
G75*
G03*
X134801476Y-70784480I1700J-51D01*
G01*
D18*
X132551000Y-82037201D02*
G75*
G02*
X132542660Y-82057346I-28500J1D01*
G01*
X132316393Y-79883607D02*
G75*
G03*
X131750001Y-79648999I-566393J-566393D01*
G01*
X132542657Y-82057343D02*
G75*
G03*
X132534304Y-82077484I20143J-20157D01*
G01*
X116330241Y-79330241D02*
G75*
G03*
X117099791Y-79649008I769559J769541D01*
G01*
X132316393Y-79883607D02*
G75*
G02*
X132551001Y-80449998I-566393J-566393D01*
G01*
X107131241Y-80131241D02*
G75*
G03*
X107900791Y-80450008I769559J769541D01*
G01*
D17*
X134482241Y-60382241D02*
X133800000Y-59700000D01*
X134801000Y-61151791D02*
X134801000Y-70783249D01*
X134802000Y-70785664D02*
X134802000Y-71200001D01*
X133800001Y-72202000D02*
X130657427Y-72202000D01*
X123725393Y-78683241D02*
X129887877Y-72520758D01*
X122079498Y-79002000D02*
X122955844Y-79002000D01*
X120445465Y-77818758D02*
X121309948Y-78683241D01*
X119675915Y-77500000D02*
X115492071Y-77500000D01*
X115200000Y-77499000D02*
X115489656Y-77499000D01*
X113344344Y-78613500D02*
X112251848Y-78613500D01*
X114113893Y-78294741D02*
X114704317Y-77704318D01*
X111006315Y-77818758D02*
X111482298Y-78294741D01*
X103911319Y-77500000D02*
X110236765Y-77500000D01*
X103262500Y-77768750D02*
X102993750Y-78037500D01*
D18*
X105200000Y-78200000D02*
X107131241Y-80131241D01*
X131500000Y-80450000D02*
X107900791Y-80450000D01*
D17*
X84984691Y-75801000D02*
X86377443Y-75801000D01*
X87100500Y-76100500D02*
X87400000Y-76400000D01*
X88733691Y-58300000D02*
X107199208Y-58300000D01*
X87964141Y-58618757D02*
X83317758Y-63265141D01*
X109578530Y-60228530D02*
X107968758Y-58618758D01*
X82999000Y-73815308D02*
X82999000Y-64034691D01*
X109781250Y-60312500D02*
X109900001Y-60312500D01*
X84215141Y-75482241D02*
X83317758Y-74584858D01*
X110875000Y-60962500D02*
X110132070Y-60962500D01*
X107738537Y-59019758D02*
X109362520Y-60643741D01*
X106968987Y-58701000D02*
X88899791Y-58701000D01*
X88130241Y-59019757D02*
X83718758Y-63431241D01*
X84381241Y-75081241D02*
X83718758Y-74418758D01*
X85150791Y-75400000D02*
X87400000Y-75400000D01*
X83400000Y-73649208D02*
X83400000Y-64200791D01*
D18*
X131999208Y-78850000D02*
X126300791Y-78850000D01*
X132768758Y-79168758D02*
X133049869Y-79449869D01*
X125200000Y-78200000D02*
X125531241Y-78531241D01*
X133368628Y-84331372D02*
X133368628Y-80219419D01*
X116330241Y-79330241D02*
X115200000Y-78200000D01*
X132534314Y-82077484D02*
X132534314Y-82365686D01*
X132551000Y-82037201D02*
X132551000Y-80449998D01*
X131750001Y-79649000D02*
X117099791Y-79649000D01*
D17*
X133800000Y-65400000D02*
X134100000Y-65700000D01*
X134401000Y-71200001D02*
X134401000Y-70951764D01*
X133800001Y-71801000D02*
X130480984Y-71801000D01*
X123548950Y-78282241D02*
X129711434Y-72119758D01*
X115658171Y-77099000D02*
X119842015Y-77099000D01*
X121476048Y-78282241D02*
X120611565Y-77417758D01*
X115655756Y-77098000D02*
X115194327Y-77098000D01*
X113417643Y-78000000D02*
X112993750Y-78000000D01*
X114141273Y-77700262D02*
X114424777Y-77416758D01*
X134400000Y-66424264D02*
X134400000Y-70949349D01*
X122779401Y-78601000D02*
X122245598Y-78601000D01*
X133700000Y-71300000D02*
X133800000Y-71200000D01*
X133458578Y-71400000D02*
X130314884Y-71400000D01*
X123376593Y-77887499D02*
X129545334Y-71718758D01*
X122993750Y-77987500D02*
X123135171Y-77987500D01*
G04 #@! TA.AperFunction,Conductor*
G36*
X115609641Y-97201527D02*
G01*
X115704207Y-97216504D01*
X115741102Y-97228491D01*
X115817617Y-97267477D01*
X115819524Y-97268863D01*
X115820748Y-97269130D01*
X115849002Y-97290281D01*
X115909718Y-97350997D01*
X115932522Y-97382383D01*
X115971507Y-97458895D01*
X115983495Y-97495792D01*
X115998473Y-97590357D01*
X116000000Y-97609755D01*
X116000000Y-107190244D01*
X115998473Y-107209641D01*
X115998473Y-107209642D01*
X115983495Y-107304207D01*
X115971507Y-107341104D01*
X115932522Y-107417616D01*
X115909718Y-107449002D01*
X115849002Y-107509718D01*
X115817616Y-107532522D01*
X115741104Y-107571507D01*
X115704207Y-107583495D01*
X115624425Y-107596131D01*
X115609640Y-107598473D01*
X115590244Y-107600000D01*
X106009756Y-107600000D01*
X105990359Y-107598473D01*
X105971258Y-107595447D01*
X105895792Y-107583495D01*
X105858895Y-107571507D01*
X105782383Y-107532522D01*
X105750997Y-107509718D01*
X105690281Y-107449002D01*
X105667477Y-107417616D01*
X105628492Y-107341104D01*
X105616504Y-107304206D01*
X105601527Y-107209641D01*
X105600000Y-107190244D01*
X105600000Y-102999994D01*
X105580424Y-102876395D01*
X105580423Y-102876393D01*
X105523607Y-102764886D01*
X105523603Y-102764882D01*
X105523602Y-102764880D01*
X105435119Y-102676397D01*
X105435116Y-102676395D01*
X105435114Y-102676393D01*
X105323607Y-102619577D01*
X105323606Y-102619576D01*
X105323603Y-102619575D01*
X105323604Y-102619575D01*
X105200005Y-102600000D01*
X105200000Y-102600000D01*
X102809756Y-102600000D01*
X102790359Y-102598473D01*
X102771258Y-102595447D01*
X102695792Y-102583495D01*
X102658895Y-102571507D01*
X102582383Y-102532522D01*
X102550997Y-102509718D01*
X102490281Y-102449002D01*
X102467477Y-102417616D01*
X102428492Y-102341104D01*
X102416504Y-102304206D01*
X102401527Y-102209641D01*
X102400000Y-102190244D01*
X102400000Y-101109755D01*
X102401527Y-101090358D01*
X102416504Y-100995793D01*
X102428490Y-100958898D01*
X102467479Y-100882379D01*
X102490278Y-100851000D01*
X102551000Y-100790278D01*
X102582379Y-100767479D01*
X102658898Y-100728490D01*
X102695784Y-100716505D01*
X102790370Y-100701525D01*
X102809756Y-100700000D01*
X105400005Y-100700000D01*
X105523604Y-100680424D01*
X105523605Y-100680423D01*
X105523607Y-100680423D01*
X105635114Y-100623607D01*
X105723607Y-100535114D01*
X105780423Y-100423607D01*
X105780423Y-100423605D01*
X105780424Y-100423604D01*
X105800000Y-100300005D01*
X105800000Y-97609755D01*
X105801527Y-97590358D01*
X105816504Y-97495793D01*
X105816505Y-97495788D01*
X105828490Y-97458898D01*
X105867479Y-97382379D01*
X105890278Y-97351000D01*
X105951000Y-97290278D01*
X105982379Y-97267479D01*
X106058898Y-97228490D01*
X106095784Y-97216505D01*
X106190370Y-97201525D01*
X106209756Y-97200000D01*
X115590244Y-97200000D01*
X115609641Y-97201527D01*
G37*
G04 #@! TD.AperFunction*
G04 #@! TA.AperFunction,Conductor*
G36*
X157809641Y-97201527D02*
G01*
X157904207Y-97216504D01*
X157941102Y-97228491D01*
X158017617Y-97267477D01*
X158019524Y-97268863D01*
X158020748Y-97269130D01*
X158049002Y-97290281D01*
X158109718Y-97350997D01*
X158132522Y-97382383D01*
X158171507Y-97458895D01*
X158183495Y-97495792D01*
X158198473Y-97590357D01*
X158200000Y-97609755D01*
X158200000Y-99400005D01*
X158219575Y-99523604D01*
X158219577Y-99523607D01*
X158276393Y-99635114D01*
X158276395Y-99635116D01*
X158276397Y-99635119D01*
X158364880Y-99723602D01*
X158364882Y-99723603D01*
X158364886Y-99723607D01*
X158476393Y-99780423D01*
X158476394Y-99780423D01*
X158476396Y-99780424D01*
X158476395Y-99780424D01*
X158599995Y-99800000D01*
X158600000Y-99800000D01*
X161390244Y-99800000D01*
X161409641Y-99801527D01*
X161504207Y-99816504D01*
X161541102Y-99828491D01*
X161617617Y-99867477D01*
X161649002Y-99890281D01*
X161709718Y-99950997D01*
X161732522Y-99982383D01*
X161771507Y-100058895D01*
X161783495Y-100095792D01*
X161798473Y-100190357D01*
X161800000Y-100209755D01*
X161800000Y-102190244D01*
X161798473Y-102209642D01*
X161783495Y-102304207D01*
X161771507Y-102341104D01*
X161732522Y-102417616D01*
X161709718Y-102449002D01*
X161649002Y-102509718D01*
X161617616Y-102532522D01*
X161541104Y-102571507D01*
X161504207Y-102583495D01*
X161424425Y-102596131D01*
X161409640Y-102598473D01*
X161390244Y-102600000D01*
X158799995Y-102600000D01*
X158676395Y-102619575D01*
X158602055Y-102657454D01*
X158564886Y-102676393D01*
X158564885Y-102676394D01*
X158564880Y-102676397D01*
X158476397Y-102764880D01*
X158476394Y-102764885D01*
X158419575Y-102876395D01*
X158400000Y-102999994D01*
X158400000Y-107190244D01*
X158398473Y-107209641D01*
X158398473Y-107209642D01*
X158383495Y-107304207D01*
X158371507Y-107341104D01*
X158332522Y-107417616D01*
X158309718Y-107449002D01*
X158249002Y-107509718D01*
X158217616Y-107532522D01*
X158141104Y-107571507D01*
X158104207Y-107583495D01*
X158024425Y-107596131D01*
X158009640Y-107598473D01*
X157990244Y-107600000D01*
X148409756Y-107600000D01*
X148390359Y-107598473D01*
X148371258Y-107595447D01*
X148295792Y-107583495D01*
X148258895Y-107571507D01*
X148182383Y-107532522D01*
X148150997Y-107509718D01*
X148090281Y-107449002D01*
X148067477Y-107417616D01*
X148028492Y-107341104D01*
X148016504Y-107304206D01*
X148001527Y-107209641D01*
X148000000Y-107190244D01*
X148000000Y-97609755D01*
X148001527Y-97590358D01*
X148016504Y-97495793D01*
X148016505Y-97495788D01*
X148028490Y-97458898D01*
X148067479Y-97382379D01*
X148090278Y-97351000D01*
X148151000Y-97290278D01*
X148182379Y-97267479D01*
X148258898Y-97228490D01*
X148295784Y-97216505D01*
X148390370Y-97201525D01*
X148409756Y-97200000D01*
X157790244Y-97200000D01*
X157809641Y-97201527D01*
G37*
G04 #@! TD.AperFunction*
G04 #@! TA.AperFunction,Conductor*
G36*
X131209641Y-133801527D02*
G01*
X131304207Y-133816504D01*
X131341102Y-133828491D01*
X131417617Y-133867477D01*
X131419524Y-133868863D01*
X131420748Y-133869130D01*
X131449002Y-133890281D01*
X131509718Y-133950997D01*
X131532522Y-133982383D01*
X131571507Y-134058895D01*
X131583495Y-134095792D01*
X131598473Y-134190357D01*
X131600000Y-134209755D01*
X131600000Y-145590244D01*
X131598473Y-145609641D01*
X131583496Y-145704206D01*
X131571508Y-145741104D01*
X131532523Y-145817616D01*
X131509719Y-145849002D01*
X131449003Y-145909718D01*
X131417617Y-145932522D01*
X131341105Y-145971507D01*
X131304208Y-145983495D01*
X131224426Y-145996131D01*
X131209641Y-145998473D01*
X131190245Y-146000000D01*
X118409756Y-146000000D01*
X118390359Y-145998473D01*
X118295794Y-145983496D01*
X118258896Y-145971508D01*
X118182384Y-145932523D01*
X118150998Y-145909719D01*
X118090282Y-145849003D01*
X118067478Y-145817617D01*
X118067477Y-145817616D01*
X118028492Y-145741103D01*
X118016505Y-145704207D01*
X118001528Y-145609642D01*
X118000001Y-145590245D01*
X118000001Y-137809755D01*
X118001528Y-137790358D01*
X118016505Y-137695793D01*
X118028491Y-137658898D01*
X118067480Y-137582379D01*
X118090279Y-137551000D01*
X118151001Y-137490278D01*
X118182380Y-137467479D01*
X118258899Y-137428490D01*
X118295785Y-137416505D01*
X118390371Y-137401525D01*
X118409757Y-137400000D01*
X128400007Y-137400000D01*
X128523606Y-137380424D01*
X128523607Y-137380423D01*
X128523609Y-137380423D01*
X128635116Y-137323607D01*
X128723609Y-137235114D01*
X128780425Y-137123607D01*
X128780425Y-137123605D01*
X128780426Y-137123604D01*
X128800001Y-137000005D01*
X128800002Y-137000000D01*
X128800001Y-134209754D01*
X128801528Y-134190358D01*
X128816505Y-134095793D01*
X128816506Y-134095788D01*
X128828491Y-134058898D01*
X128867480Y-133982379D01*
X128890279Y-133951000D01*
X128951001Y-133890278D01*
X128982380Y-133867479D01*
X129058899Y-133828490D01*
X129095785Y-133816505D01*
X129190371Y-133801525D01*
X129209757Y-133800000D01*
X131190244Y-133800000D01*
X131209641Y-133801527D01*
G37*
G04 #@! TD.AperFunction*
G04 #@! TA.AperFunction,Conductor*
G36*
X164609641Y-103201527D02*
G01*
X164704207Y-103216504D01*
X164741102Y-103228491D01*
X164817617Y-103267477D01*
X164819524Y-103268863D01*
X164820748Y-103269130D01*
X164849002Y-103290281D01*
X164909718Y-103350997D01*
X164932522Y-103382383D01*
X164971507Y-103458895D01*
X164983495Y-103495792D01*
X164998473Y-103590357D01*
X165000000Y-103609755D01*
X165000000Y-107800005D01*
X165019575Y-107923604D01*
X165019577Y-107923607D01*
X165076393Y-108035114D01*
X165076395Y-108035116D01*
X165076397Y-108035119D01*
X165164880Y-108123602D01*
X165164882Y-108123603D01*
X165164886Y-108123607D01*
X165276393Y-108180423D01*
X165276394Y-108180423D01*
X165276396Y-108180424D01*
X165276395Y-108180424D01*
X165399995Y-108200000D01*
X165400000Y-108200000D01*
X175590244Y-108200000D01*
X175609641Y-108201527D01*
X175704207Y-108216504D01*
X175741102Y-108228491D01*
X175817617Y-108267477D01*
X175849002Y-108290281D01*
X175909718Y-108350997D01*
X175932522Y-108382383D01*
X175971507Y-108458895D01*
X175983495Y-108495792D01*
X175998473Y-108590357D01*
X176000000Y-108609755D01*
X176000000Y-115590244D01*
X175998473Y-115609641D01*
X175998473Y-115609642D01*
X175983495Y-115704207D01*
X175971507Y-115741104D01*
X175932522Y-115817616D01*
X175909718Y-115849002D01*
X175849002Y-115909718D01*
X175817616Y-115932522D01*
X175741104Y-115971507D01*
X175704207Y-115983495D01*
X175624425Y-115996131D01*
X175609640Y-115998473D01*
X175590244Y-116000000D01*
X162809756Y-116000000D01*
X162790359Y-115998473D01*
X162771258Y-115995447D01*
X162695792Y-115983495D01*
X162658895Y-115971507D01*
X162582383Y-115932522D01*
X162550997Y-115909718D01*
X162490281Y-115849002D01*
X162467477Y-115817616D01*
X162428492Y-115741104D01*
X162416504Y-115704206D01*
X162401527Y-115609641D01*
X162400000Y-115590244D01*
X162400000Y-103609755D01*
X162401527Y-103590358D01*
X162416504Y-103495793D01*
X162416505Y-103495788D01*
X162428490Y-103458898D01*
X162467479Y-103382379D01*
X162490278Y-103351000D01*
X162551000Y-103290278D01*
X162582379Y-103267479D01*
X162658898Y-103228490D01*
X162695784Y-103216505D01*
X162790370Y-103201525D01*
X162809756Y-103200000D01*
X164590244Y-103200000D01*
X164609641Y-103201527D01*
G37*
G04 #@! TD.AperFunction*
G04 #@! TA.AperFunction,Conductor*
G36*
X104609641Y-103201527D02*
G01*
X104704207Y-103216504D01*
X104741102Y-103228491D01*
X104817617Y-103267477D01*
X104819524Y-103268863D01*
X104820748Y-103269130D01*
X104849002Y-103290281D01*
X104909718Y-103350997D01*
X104932522Y-103382383D01*
X104971507Y-103458895D01*
X104983495Y-103495792D01*
X104998473Y-103590357D01*
X105000000Y-103609755D01*
X105000000Y-107800005D01*
X105019575Y-107923604D01*
X105019577Y-107923607D01*
X105076393Y-108035114D01*
X105076395Y-108035116D01*
X105076397Y-108035119D01*
X105164880Y-108123602D01*
X105164882Y-108123603D01*
X105164886Y-108123607D01*
X105276393Y-108180423D01*
X105276394Y-108180423D01*
X105276396Y-108180424D01*
X105276395Y-108180424D01*
X105399995Y-108200000D01*
X105400000Y-108200000D01*
X115590244Y-108200000D01*
X115609641Y-108201527D01*
X115704207Y-108216504D01*
X115741102Y-108228491D01*
X115817617Y-108267477D01*
X115849002Y-108290281D01*
X115909718Y-108350997D01*
X115932522Y-108382383D01*
X115971507Y-108458895D01*
X115983495Y-108495792D01*
X115998473Y-108590357D01*
X116000000Y-108609755D01*
X116000000Y-115590244D01*
X115998473Y-115609641D01*
X115998473Y-115609642D01*
X115983495Y-115704207D01*
X115971507Y-115741104D01*
X115932522Y-115817616D01*
X115909718Y-115849002D01*
X115849002Y-115909718D01*
X115817616Y-115932522D01*
X115741104Y-115971507D01*
X115704207Y-115983495D01*
X115624425Y-115996131D01*
X115609640Y-115998473D01*
X115590244Y-116000000D01*
X102809756Y-116000000D01*
X102790359Y-115998473D01*
X102771258Y-115995447D01*
X102695792Y-115983495D01*
X102658895Y-115971507D01*
X102582383Y-115932522D01*
X102550997Y-115909718D01*
X102490281Y-115849002D01*
X102467477Y-115817616D01*
X102428492Y-115741104D01*
X102416504Y-115704206D01*
X102401527Y-115609641D01*
X102400000Y-115590244D01*
X102400000Y-103609755D01*
X102401527Y-103590358D01*
X102416504Y-103495793D01*
X102416505Y-103495788D01*
X102428490Y-103458898D01*
X102467479Y-103382379D01*
X102490278Y-103351000D01*
X102551000Y-103290278D01*
X102582379Y-103267479D01*
X102658898Y-103228490D01*
X102695784Y-103216505D01*
X102790370Y-103201525D01*
X102809756Y-103200000D01*
X104590244Y-103200000D01*
X104609641Y-103201527D01*
G37*
G04 #@! TD.AperFunction*
G04 #@! TA.AperFunction,Conductor*
G36*
X134809642Y-134801527D02*
G01*
X134904208Y-134816504D01*
X134941103Y-134828491D01*
X135017618Y-134867477D01*
X135019525Y-134868863D01*
X135020749Y-134869130D01*
X135049003Y-134890281D01*
X135109720Y-134950998D01*
X135132524Y-134982385D01*
X135171507Y-135058895D01*
X135183495Y-135095791D01*
X135198473Y-135190359D01*
X135200000Y-135209757D01*
X135200000Y-136999999D01*
X135219576Y-137123604D01*
X135276390Y-137235110D01*
X135276391Y-137235111D01*
X135276393Y-137235114D01*
X135364886Y-137323607D01*
X135476393Y-137380423D01*
X135476394Y-137380423D01*
X135476396Y-137380424D01*
X135476395Y-137380424D01*
X135599995Y-137400000D01*
X135600000Y-137400000D01*
X145590245Y-137400000D01*
X145609642Y-137401527D01*
X145704208Y-137416504D01*
X145741103Y-137428491D01*
X145817618Y-137467477D01*
X145849003Y-137490281D01*
X145909719Y-137550997D01*
X145932523Y-137582383D01*
X145971508Y-137658895D01*
X145983496Y-137695792D01*
X145998474Y-137790357D01*
X146000001Y-137809755D01*
X146000001Y-145590245D01*
X145998474Y-145609641D01*
X145998474Y-145609643D01*
X145983496Y-145704208D01*
X145971508Y-145741105D01*
X145932523Y-145817617D01*
X145909719Y-145849003D01*
X145849003Y-145909719D01*
X145817617Y-145932523D01*
X145741105Y-145971508D01*
X145704207Y-145983496D01*
X145609642Y-145998473D01*
X145590245Y-146000000D01*
X132609756Y-146000000D01*
X132590361Y-145998473D01*
X132554206Y-145992747D01*
X132495793Y-145983495D01*
X132458896Y-145971507D01*
X132382384Y-145932522D01*
X132350998Y-145909718D01*
X132290282Y-145849002D01*
X132267478Y-145817616D01*
X132228493Y-145741104D01*
X132216505Y-145704206D01*
X132201528Y-145609641D01*
X132200001Y-145590244D01*
X132200001Y-135209755D01*
X132201528Y-135190358D01*
X132216505Y-135095793D01*
X132216506Y-135095791D01*
X132228491Y-135058898D01*
X132267480Y-134982379D01*
X132290279Y-134951000D01*
X132351001Y-134890278D01*
X132382380Y-134867479D01*
X132458899Y-134828490D01*
X132495785Y-134816505D01*
X132590371Y-134801525D01*
X132609757Y-134800000D01*
X134790245Y-134800000D01*
X134809642Y-134801527D01*
G37*
G04 #@! TD.AperFunction*
G04 #@! TA.AperFunction,Conductor*
G36*
X101409641Y-133201527D02*
G01*
X101504207Y-133216504D01*
X101541102Y-133228491D01*
X101617617Y-133267477D01*
X101619524Y-133268863D01*
X101620748Y-133269130D01*
X101649002Y-133290281D01*
X101709718Y-133350997D01*
X101732522Y-133382383D01*
X101771507Y-133458895D01*
X101783495Y-133495792D01*
X101798473Y-133590357D01*
X101800000Y-133609755D01*
X101800000Y-145590244D01*
X101798473Y-145609641D01*
X101798473Y-145609642D01*
X101783495Y-145704207D01*
X101771507Y-145741104D01*
X101732522Y-145817616D01*
X101709718Y-145849002D01*
X101649002Y-145909718D01*
X101617616Y-145932522D01*
X101541104Y-145971507D01*
X101504207Y-145983495D01*
X101424425Y-145996131D01*
X101409640Y-145998473D01*
X101390244Y-146000000D01*
X88409756Y-146000000D01*
X88390359Y-145998473D01*
X88371258Y-145995447D01*
X88295792Y-145983495D01*
X88258895Y-145971507D01*
X88182383Y-145932522D01*
X88150997Y-145909718D01*
X88090281Y-145849002D01*
X88067477Y-145817616D01*
X88028492Y-145741104D01*
X88016504Y-145704206D01*
X88001527Y-145609641D01*
X88000000Y-145590244D01*
X88000000Y-138609755D01*
X88001527Y-138590358D01*
X88016504Y-138495793D01*
X88028490Y-138458898D01*
X88067479Y-138382379D01*
X88090278Y-138351000D01*
X88151000Y-138290278D01*
X88182379Y-138267479D01*
X88258898Y-138228490D01*
X88295784Y-138216505D01*
X88390370Y-138201525D01*
X88409756Y-138200000D01*
X98600005Y-138200000D01*
X98723604Y-138180424D01*
X98723605Y-138180423D01*
X98723607Y-138180423D01*
X98835114Y-138123607D01*
X98923607Y-138035114D01*
X98980423Y-137923607D01*
X98980423Y-137923605D01*
X98980424Y-137923604D01*
X99000000Y-137800005D01*
X99000000Y-133609755D01*
X99001527Y-133590358D01*
X99016504Y-133495793D01*
X99016505Y-133495788D01*
X99028490Y-133458898D01*
X99067479Y-133382379D01*
X99090278Y-133351000D01*
X99151000Y-133290278D01*
X99182379Y-133267479D01*
X99258898Y-133228490D01*
X99295784Y-133216505D01*
X99390370Y-133201525D01*
X99409756Y-133200000D01*
X101390244Y-133200000D01*
X101409641Y-133201527D01*
G37*
G04 #@! TD.AperFunction*
G04 #@! TA.AperFunction,Conductor*
G36*
X131209640Y-88001526D02*
G01*
X131304206Y-88016503D01*
X131341101Y-88028490D01*
X131417616Y-88067476D01*
X131419523Y-88068862D01*
X131420747Y-88069129D01*
X131449001Y-88090280D01*
X131509717Y-88150996D01*
X131532521Y-88182382D01*
X131571506Y-88258894D01*
X131583494Y-88295791D01*
X131598472Y-88390356D01*
X131599999Y-88409754D01*
X131599999Y-100390244D01*
X131598472Y-100409641D01*
X131583495Y-100504206D01*
X131571507Y-100541104D01*
X131532522Y-100617616D01*
X131509718Y-100649002D01*
X131449002Y-100709718D01*
X131417616Y-100732522D01*
X131341104Y-100771507D01*
X131304207Y-100783495D01*
X131224425Y-100796131D01*
X131209640Y-100798473D01*
X131190244Y-100800000D01*
X129409756Y-100800000D01*
X129390359Y-100798473D01*
X129371258Y-100795447D01*
X129295792Y-100783495D01*
X129258895Y-100771507D01*
X129182383Y-100732522D01*
X129150997Y-100709718D01*
X129090281Y-100649002D01*
X129067477Y-100617616D01*
X129028492Y-100541104D01*
X129016504Y-100504206D01*
X129001527Y-100409641D01*
X129000000Y-100390244D01*
X129000000Y-96199993D01*
X128980424Y-96076394D01*
X128980423Y-96076392D01*
X128923607Y-95964885D01*
X128923603Y-95964881D01*
X128923602Y-95964879D01*
X128835119Y-95876396D01*
X128835116Y-95876394D01*
X128835114Y-95876392D01*
X128723607Y-95819576D01*
X128723606Y-95819575D01*
X128723603Y-95819574D01*
X128723604Y-95819574D01*
X128600005Y-95799999D01*
X128600000Y-95799999D01*
X118409755Y-95799999D01*
X118390358Y-95798472D01*
X118371257Y-95795446D01*
X118295791Y-95783494D01*
X118258894Y-95771506D01*
X118182382Y-95732521D01*
X118150996Y-95709717D01*
X118090280Y-95649001D01*
X118067476Y-95617615D01*
X118028491Y-95541103D01*
X118016503Y-95504205D01*
X118001526Y-95409640D01*
X117999999Y-95390243D01*
X117999999Y-88409754D01*
X118001526Y-88390357D01*
X118016503Y-88295792D01*
X118016504Y-88295787D01*
X118028489Y-88258897D01*
X118067478Y-88182378D01*
X118090277Y-88150999D01*
X118150999Y-88090277D01*
X118182378Y-88067478D01*
X118258897Y-88028489D01*
X118295783Y-88016504D01*
X118390369Y-88001524D01*
X118409755Y-87999999D01*
X131190243Y-87999999D01*
X131209640Y-88001526D01*
G37*
G04 #@! TD.AperFunction*
G04 #@! TA.AperFunction,Conductor*
G36*
X134809641Y-104801526D02*
G01*
X134904207Y-104816503D01*
X134941102Y-104828490D01*
X135017617Y-104867476D01*
X135019524Y-104868862D01*
X135020748Y-104869129D01*
X135049002Y-104890280D01*
X135109719Y-104950997D01*
X135132523Y-104982384D01*
X135171506Y-105058894D01*
X135183494Y-105095790D01*
X135198472Y-105190358D01*
X135199999Y-105209756D01*
X135199999Y-106999998D01*
X135219575Y-107123603D01*
X135276389Y-107235109D01*
X135276390Y-107235110D01*
X135276392Y-107235113D01*
X135364885Y-107323606D01*
X135476392Y-107380422D01*
X135476393Y-107380422D01*
X135476395Y-107380423D01*
X135476394Y-107380423D01*
X135599994Y-107399999D01*
X135599999Y-107399999D01*
X145590244Y-107399999D01*
X145609641Y-107401526D01*
X145704207Y-107416503D01*
X145741102Y-107428490D01*
X145817617Y-107467476D01*
X145849002Y-107490280D01*
X145909718Y-107550996D01*
X145932522Y-107582382D01*
X145971507Y-107658894D01*
X145983495Y-107695791D01*
X145998473Y-107790356D01*
X146000000Y-107809754D01*
X146000000Y-115590244D01*
X145998473Y-115609640D01*
X145998473Y-115609642D01*
X145983495Y-115704207D01*
X145971507Y-115741104D01*
X145932522Y-115817616D01*
X145909718Y-115849002D01*
X145849002Y-115909718D01*
X145817616Y-115932522D01*
X145741104Y-115971507D01*
X145704206Y-115983495D01*
X145609641Y-115998472D01*
X145590244Y-115999999D01*
X132609755Y-115999999D01*
X132590360Y-115998472D01*
X132554205Y-115992746D01*
X132495792Y-115983494D01*
X132458895Y-115971506D01*
X132382383Y-115932521D01*
X132350997Y-115909717D01*
X132290281Y-115849001D01*
X132267477Y-115817615D01*
X132228492Y-115741103D01*
X132216504Y-115704205D01*
X132201527Y-115609640D01*
X132200000Y-115590243D01*
X132200000Y-105209754D01*
X132201527Y-105190357D01*
X132216504Y-105095792D01*
X132216505Y-105095790D01*
X132228490Y-105058897D01*
X132267479Y-104982378D01*
X132290278Y-104950999D01*
X132351000Y-104890277D01*
X132382379Y-104867478D01*
X132458898Y-104828489D01*
X132495784Y-104816504D01*
X132590370Y-104801524D01*
X132609756Y-104799999D01*
X134790244Y-104799999D01*
X134809641Y-104801526D01*
G37*
G04 #@! TD.AperFunction*
G04 #@! TA.AperFunction,Conductor*
G36*
X131209640Y-103801526D02*
G01*
X131304206Y-103816503D01*
X131341101Y-103828490D01*
X131417616Y-103867476D01*
X131419523Y-103868862D01*
X131420747Y-103869129D01*
X131449001Y-103890280D01*
X131509717Y-103950996D01*
X131532521Y-103982382D01*
X131571506Y-104058894D01*
X131583494Y-104095791D01*
X131598472Y-104190356D01*
X131599999Y-104209754D01*
X131599999Y-115590243D01*
X131598472Y-115609640D01*
X131583495Y-115704205D01*
X131571507Y-115741103D01*
X131532522Y-115817615D01*
X131509718Y-115849001D01*
X131449002Y-115909717D01*
X131417616Y-115932521D01*
X131341104Y-115971506D01*
X131304207Y-115983494D01*
X131224425Y-115996130D01*
X131209640Y-115998472D01*
X131190244Y-115999999D01*
X118409755Y-115999999D01*
X118390358Y-115998472D01*
X118295793Y-115983495D01*
X118258895Y-115971507D01*
X118182383Y-115932522D01*
X118150997Y-115909718D01*
X118090281Y-115849002D01*
X118067477Y-115817616D01*
X118067476Y-115817615D01*
X118028491Y-115741102D01*
X118016504Y-115704206D01*
X118001527Y-115609641D01*
X118000000Y-115590244D01*
X118000000Y-107809754D01*
X118001527Y-107790357D01*
X118016504Y-107695792D01*
X118028490Y-107658897D01*
X118067479Y-107582378D01*
X118090278Y-107550999D01*
X118151000Y-107490277D01*
X118182379Y-107467478D01*
X118258898Y-107428489D01*
X118295784Y-107416504D01*
X118390370Y-107401524D01*
X118409756Y-107399999D01*
X128400006Y-107399999D01*
X128523605Y-107380423D01*
X128523606Y-107380422D01*
X128523608Y-107380422D01*
X128635115Y-107323606D01*
X128723608Y-107235113D01*
X128780424Y-107123606D01*
X128780424Y-107123604D01*
X128780425Y-107123603D01*
X128800000Y-107000004D01*
X128800001Y-106999999D01*
X128800000Y-104209753D01*
X128801527Y-104190357D01*
X128816504Y-104095792D01*
X128816505Y-104095787D01*
X128828490Y-104058897D01*
X128867479Y-103982378D01*
X128890278Y-103950999D01*
X128951000Y-103890277D01*
X128982379Y-103867478D01*
X129058898Y-103828489D01*
X129095784Y-103816504D01*
X129190370Y-103801524D01*
X129209756Y-103799999D01*
X131190243Y-103799999D01*
X131209640Y-103801526D01*
G37*
G04 #@! TD.AperFunction*
G04 #@! TA.AperFunction,Conductor*
G36*
X175609641Y-97201527D02*
G01*
X175704207Y-97216504D01*
X175741102Y-97228491D01*
X175817617Y-97267477D01*
X175819524Y-97268863D01*
X175820748Y-97269130D01*
X175849002Y-97290281D01*
X175909718Y-97350997D01*
X175932522Y-97382383D01*
X175971507Y-97458895D01*
X175983495Y-97495792D01*
X175998473Y-97590357D01*
X176000000Y-97609755D01*
X176000000Y-107190244D01*
X175998473Y-107209641D01*
X175998473Y-107209642D01*
X175983495Y-107304207D01*
X175971507Y-107341104D01*
X175932522Y-107417616D01*
X175909718Y-107449002D01*
X175849002Y-107509718D01*
X175817616Y-107532522D01*
X175741104Y-107571507D01*
X175704207Y-107583495D01*
X175624425Y-107596131D01*
X175609640Y-107598473D01*
X175590244Y-107600000D01*
X166009756Y-107600000D01*
X165990359Y-107598473D01*
X165971258Y-107595447D01*
X165895792Y-107583495D01*
X165858895Y-107571507D01*
X165782383Y-107532522D01*
X165750997Y-107509718D01*
X165690281Y-107449002D01*
X165667477Y-107417616D01*
X165628492Y-107341104D01*
X165616504Y-107304206D01*
X165601527Y-107209641D01*
X165600000Y-107190244D01*
X165600000Y-102999994D01*
X165580424Y-102876395D01*
X165580423Y-102876393D01*
X165523607Y-102764886D01*
X165523603Y-102764882D01*
X165523602Y-102764880D01*
X165435119Y-102676397D01*
X165435116Y-102676395D01*
X165435114Y-102676393D01*
X165323607Y-102619577D01*
X165323606Y-102619576D01*
X165323603Y-102619575D01*
X165323604Y-102619575D01*
X165200005Y-102600000D01*
X165200000Y-102600000D01*
X162809756Y-102600000D01*
X162790359Y-102598473D01*
X162771258Y-102595447D01*
X162695792Y-102583495D01*
X162658895Y-102571507D01*
X162582383Y-102532522D01*
X162550997Y-102509718D01*
X162490281Y-102449002D01*
X162467477Y-102417616D01*
X162428492Y-102341104D01*
X162416504Y-102304206D01*
X162401527Y-102209641D01*
X162400000Y-102190244D01*
X162400000Y-101109755D01*
X162401527Y-101090358D01*
X162416504Y-100995793D01*
X162428490Y-100958898D01*
X162467479Y-100882379D01*
X162490278Y-100851000D01*
X162551000Y-100790278D01*
X162582379Y-100767479D01*
X162658898Y-100728490D01*
X162695784Y-100716505D01*
X162790370Y-100701525D01*
X162809756Y-100700000D01*
X165400005Y-100700000D01*
X165523604Y-100680424D01*
X165523605Y-100680423D01*
X165523607Y-100680423D01*
X165635114Y-100623607D01*
X165723607Y-100535114D01*
X165780423Y-100423607D01*
X165780423Y-100423605D01*
X165780424Y-100423604D01*
X165800000Y-100300005D01*
X165800000Y-97609755D01*
X165801527Y-97590358D01*
X165816504Y-97495793D01*
X165816505Y-97495788D01*
X165828490Y-97458898D01*
X165867479Y-97382379D01*
X165890278Y-97351000D01*
X165951000Y-97290278D01*
X165982379Y-97267479D01*
X166058898Y-97228490D01*
X166095784Y-97216505D01*
X166190370Y-97201525D01*
X166209756Y-97200000D01*
X175590244Y-97200000D01*
X175609641Y-97201527D01*
G37*
G04 #@! TD.AperFunction*
G04 #@! TA.AperFunction,Conductor*
G36*
X164609641Y-133201527D02*
G01*
X164704207Y-133216504D01*
X164741102Y-133228491D01*
X164817617Y-133267477D01*
X164819524Y-133268863D01*
X164820748Y-133269130D01*
X164849002Y-133290281D01*
X164909718Y-133350997D01*
X164932522Y-133382383D01*
X164971507Y-133458895D01*
X164983495Y-133495792D01*
X164998473Y-133590357D01*
X165000000Y-133609755D01*
X165000000Y-137800005D01*
X165019575Y-137923604D01*
X165019577Y-137923607D01*
X165076393Y-138035114D01*
X165076395Y-138035116D01*
X165076397Y-138035119D01*
X165164880Y-138123602D01*
X165164882Y-138123603D01*
X165164886Y-138123607D01*
X165276393Y-138180423D01*
X165276394Y-138180423D01*
X165276396Y-138180424D01*
X165276395Y-138180424D01*
X165399995Y-138200000D01*
X165400000Y-138200000D01*
X175590244Y-138200000D01*
X175609641Y-138201527D01*
X175704207Y-138216504D01*
X175741102Y-138228491D01*
X175817617Y-138267477D01*
X175849002Y-138290281D01*
X175909718Y-138350997D01*
X175932522Y-138382383D01*
X175971507Y-138458895D01*
X175983495Y-138495792D01*
X175998473Y-138590357D01*
X176000000Y-138609755D01*
X176000000Y-145590244D01*
X175998473Y-145609641D01*
X175998473Y-145609642D01*
X175983495Y-145704207D01*
X175971507Y-145741104D01*
X175932522Y-145817616D01*
X175909718Y-145849002D01*
X175849002Y-145909718D01*
X175817616Y-145932522D01*
X175741104Y-145971507D01*
X175704207Y-145983495D01*
X175624425Y-145996131D01*
X175609640Y-145998473D01*
X175590244Y-146000000D01*
X162809756Y-146000000D01*
X162790359Y-145998473D01*
X162771258Y-145995447D01*
X162695792Y-145983495D01*
X162658895Y-145971507D01*
X162582383Y-145932522D01*
X162550997Y-145909718D01*
X162490281Y-145849002D01*
X162467477Y-145817616D01*
X162428492Y-145741104D01*
X162416504Y-145704206D01*
X162401527Y-145609641D01*
X162400000Y-145590244D01*
X162400000Y-133609755D01*
X162401527Y-133590358D01*
X162416504Y-133495793D01*
X162416505Y-133495788D01*
X162428490Y-133458898D01*
X162467479Y-133382379D01*
X162490278Y-133351000D01*
X162551000Y-133290278D01*
X162582379Y-133267479D01*
X162658898Y-133228490D01*
X162695784Y-133216505D01*
X162790370Y-133201525D01*
X162809756Y-133200000D01*
X164590244Y-133200000D01*
X164609641Y-133201527D01*
G37*
G04 #@! TD.AperFunction*
G04 #@! TA.AperFunction,Conductor*
G36*
X128009642Y-126401527D02*
G01*
X128104208Y-126416504D01*
X128141103Y-126428491D01*
X128217618Y-126467477D01*
X128219525Y-126468863D01*
X128220749Y-126469130D01*
X128249003Y-126490281D01*
X128309719Y-126550997D01*
X128332523Y-126582383D01*
X128371508Y-126658895D01*
X128383496Y-126695792D01*
X128398474Y-126790357D01*
X128400001Y-126809755D01*
X128400001Y-131000006D01*
X128419576Y-131123605D01*
X128419578Y-131123608D01*
X128476394Y-131235115D01*
X128476396Y-131235117D01*
X128476398Y-131235120D01*
X128564881Y-131323603D01*
X128564883Y-131323604D01*
X128564887Y-131323608D01*
X128676394Y-131380424D01*
X128676395Y-131380424D01*
X128676397Y-131380425D01*
X128676396Y-131380425D01*
X128799995Y-131400000D01*
X128800001Y-131400001D01*
X131190245Y-131400000D01*
X131209642Y-131401527D01*
X131304208Y-131416504D01*
X131341103Y-131428491D01*
X131417618Y-131467477D01*
X131449003Y-131490281D01*
X131509719Y-131550997D01*
X131532523Y-131582383D01*
X131571508Y-131658895D01*
X131583496Y-131695792D01*
X131598474Y-131790357D01*
X131600001Y-131809755D01*
X131600001Y-132890244D01*
X131598474Y-132909642D01*
X131583496Y-133004207D01*
X131571508Y-133041104D01*
X131532523Y-133117616D01*
X131509719Y-133149002D01*
X131449003Y-133209718D01*
X131417617Y-133232522D01*
X131341105Y-133271507D01*
X131304208Y-133283495D01*
X131224426Y-133296131D01*
X131209641Y-133298473D01*
X131190245Y-133300000D01*
X128599996Y-133300000D01*
X128476396Y-133319575D01*
X128402056Y-133357454D01*
X128364887Y-133376393D01*
X128364886Y-133376394D01*
X128364881Y-133376397D01*
X128276398Y-133464880D01*
X128276395Y-133464885D01*
X128219576Y-133576395D01*
X128200001Y-133699994D01*
X128200001Y-136390244D01*
X128198474Y-136409641D01*
X128183497Y-136504206D01*
X128171509Y-136541104D01*
X128132524Y-136617616D01*
X128109720Y-136649002D01*
X128049004Y-136709718D01*
X128017618Y-136732522D01*
X127941106Y-136771507D01*
X127904209Y-136783495D01*
X127824427Y-136796131D01*
X127809642Y-136798473D01*
X127790246Y-136800000D01*
X118409757Y-136800000D01*
X118390360Y-136798473D01*
X118371259Y-136795447D01*
X118295793Y-136783495D01*
X118258896Y-136771507D01*
X118182384Y-136732522D01*
X118150998Y-136709718D01*
X118090282Y-136649002D01*
X118067478Y-136617616D01*
X118028493Y-136541104D01*
X118016505Y-136504207D01*
X118016505Y-136504206D01*
X118001525Y-136409628D01*
X118000000Y-136390256D01*
X118000000Y-126809754D01*
X118001527Y-126790358D01*
X118016504Y-126695793D01*
X118016505Y-126695788D01*
X118028490Y-126658898D01*
X118067479Y-126582379D01*
X118090278Y-126551000D01*
X118151000Y-126490278D01*
X118182379Y-126467479D01*
X118258898Y-126428490D01*
X118295784Y-126416505D01*
X118390370Y-126401525D01*
X118409756Y-126400000D01*
X127990245Y-126400000D01*
X128009642Y-126401527D01*
G37*
G04 #@! TD.AperFunction*
G04 #@! TA.AperFunction,Conductor*
G36*
X157809641Y-127201527D02*
G01*
X157904207Y-127216504D01*
X157941102Y-127228491D01*
X158017617Y-127267477D01*
X158019524Y-127268863D01*
X158020748Y-127269130D01*
X158049002Y-127290281D01*
X158109718Y-127350997D01*
X158132522Y-127382383D01*
X158171507Y-127458895D01*
X158183495Y-127495792D01*
X158198473Y-127590357D01*
X158200000Y-127609755D01*
X158200000Y-129400005D01*
X158219575Y-129523604D01*
X158219577Y-129523607D01*
X158276393Y-129635114D01*
X158276395Y-129635116D01*
X158276397Y-129635119D01*
X158364880Y-129723602D01*
X158364882Y-129723603D01*
X158364886Y-129723607D01*
X158476393Y-129780423D01*
X158476394Y-129780423D01*
X158476396Y-129780424D01*
X158476395Y-129780424D01*
X158599995Y-129800000D01*
X158600000Y-129800000D01*
X161390244Y-129800000D01*
X161409641Y-129801527D01*
X161504207Y-129816504D01*
X161541102Y-129828491D01*
X161617617Y-129867477D01*
X161649002Y-129890281D01*
X161709718Y-129950997D01*
X161732522Y-129982383D01*
X161771507Y-130058895D01*
X161783495Y-130095792D01*
X161798473Y-130190357D01*
X161800000Y-130209755D01*
X161800000Y-132190244D01*
X161798473Y-132209642D01*
X161783495Y-132304207D01*
X161771507Y-132341104D01*
X161732522Y-132417616D01*
X161709718Y-132449002D01*
X161649002Y-132509718D01*
X161617616Y-132532522D01*
X161541104Y-132571507D01*
X161504207Y-132583495D01*
X161424425Y-132596131D01*
X161409640Y-132598473D01*
X161390244Y-132600000D01*
X158799995Y-132600000D01*
X158676395Y-132619575D01*
X158602055Y-132657454D01*
X158564886Y-132676393D01*
X158564885Y-132676394D01*
X158564880Y-132676397D01*
X158476397Y-132764880D01*
X158476394Y-132764885D01*
X158419575Y-132876395D01*
X158400000Y-132999994D01*
X158400000Y-137190244D01*
X158398473Y-137209641D01*
X158398473Y-137209642D01*
X158383495Y-137304207D01*
X158371507Y-137341104D01*
X158332522Y-137417616D01*
X158309718Y-137449002D01*
X158249002Y-137509718D01*
X158217616Y-137532522D01*
X158141104Y-137571507D01*
X158104207Y-137583495D01*
X158024425Y-137596131D01*
X158009640Y-137598473D01*
X157990244Y-137600000D01*
X148409756Y-137600000D01*
X148390359Y-137598473D01*
X148371258Y-137595447D01*
X148295792Y-137583495D01*
X148258895Y-137571507D01*
X148182383Y-137532522D01*
X148150997Y-137509718D01*
X148090281Y-137449002D01*
X148067477Y-137417616D01*
X148028492Y-137341104D01*
X148016504Y-137304206D01*
X148001527Y-137209641D01*
X148000000Y-137190244D01*
X148000000Y-127609755D01*
X148001527Y-127590358D01*
X148016504Y-127495793D01*
X148016505Y-127495788D01*
X148028490Y-127458898D01*
X148067479Y-127382379D01*
X148090278Y-127351000D01*
X148151000Y-127290278D01*
X148182379Y-127267479D01*
X148258898Y-127228490D01*
X148295784Y-127216505D01*
X148390370Y-127201525D01*
X148409756Y-127200000D01*
X157790244Y-127200000D01*
X157809641Y-127201527D01*
G37*
G04 #@! TD.AperFunction*
G04 #@! TA.AperFunction,Conductor*
G36*
X145609642Y-96401526D02*
G01*
X145704208Y-96416503D01*
X145741103Y-96428490D01*
X145817618Y-96467476D01*
X145819525Y-96468862D01*
X145820749Y-96469129D01*
X145849003Y-96490280D01*
X145909719Y-96550996D01*
X145932523Y-96582382D01*
X145971508Y-96658894D01*
X145983496Y-96695792D01*
X145998473Y-96790357D01*
X146000000Y-96809754D01*
X146000000Y-106390243D01*
X145998473Y-106409639D01*
X145998473Y-106409641D01*
X145983495Y-106504206D01*
X145971507Y-106541103D01*
X145932522Y-106617615D01*
X145909718Y-106649001D01*
X145849002Y-106709717D01*
X145817616Y-106732521D01*
X145741104Y-106771506D01*
X145704207Y-106783494D01*
X145624425Y-106796130D01*
X145609640Y-106798472D01*
X145590244Y-106799999D01*
X136209755Y-106799999D01*
X136190358Y-106798472D01*
X136171257Y-106795446D01*
X136095791Y-106783494D01*
X136058894Y-106771506D01*
X135982382Y-106732521D01*
X135950996Y-106709717D01*
X135890279Y-106649000D01*
X135867475Y-106617613D01*
X135828492Y-106541103D01*
X135816504Y-106504207D01*
X135801526Y-106409639D01*
X135799999Y-106390241D01*
X135800000Y-104600000D01*
X135788368Y-104526566D01*
X135780423Y-104476395D01*
X135723609Y-104364889D01*
X135723608Y-104364888D01*
X135723607Y-104364886D01*
X135635114Y-104276393D01*
X135523607Y-104219577D01*
X135523606Y-104219576D01*
X135523603Y-104219575D01*
X135523604Y-104219575D01*
X135400003Y-104199999D01*
X134000000Y-104199999D01*
X132609755Y-104199999D01*
X132590360Y-104198472D01*
X132554205Y-104192746D01*
X132495792Y-104183494D01*
X132458895Y-104171506D01*
X132382383Y-104132521D01*
X132350997Y-104109717D01*
X132290281Y-104049001D01*
X132267477Y-104017615D01*
X132228492Y-103941103D01*
X132216504Y-103904205D01*
X132201527Y-103809640D01*
X132200000Y-103790243D01*
X132200000Y-101809754D01*
X132201527Y-101790357D01*
X132216504Y-101695792D01*
X132228490Y-101658897D01*
X132267479Y-101582378D01*
X132290278Y-101550999D01*
X132351000Y-101490277D01*
X132382379Y-101467478D01*
X132458898Y-101428489D01*
X132495784Y-101416504D01*
X132590370Y-101401524D01*
X132609756Y-101399999D01*
X135200005Y-101399999D01*
X135323604Y-101380423D01*
X135323605Y-101380422D01*
X135323607Y-101380422D01*
X135435114Y-101323606D01*
X135523607Y-101235113D01*
X135580423Y-101123606D01*
X135580423Y-101123604D01*
X135580424Y-101123603D01*
X135600000Y-101000004D01*
X135600000Y-96809754D01*
X135601527Y-96790357D01*
X135616504Y-96695792D01*
X135628490Y-96658897D01*
X135667479Y-96582378D01*
X135690278Y-96550999D01*
X135751000Y-96490277D01*
X135782379Y-96467478D01*
X135858898Y-96428489D01*
X135895784Y-96416504D01*
X135990370Y-96401524D01*
X136009756Y-96399999D01*
X145590245Y-96399999D01*
X145609642Y-96401526D01*
G37*
G04 #@! TD.AperFunction*
G04 #@! TA.AperFunction,Conductor*
G36*
X161409641Y-103201527D02*
G01*
X161504207Y-103216504D01*
X161541102Y-103228491D01*
X161617617Y-103267477D01*
X161619524Y-103268863D01*
X161620748Y-103269130D01*
X161649002Y-103290281D01*
X161709718Y-103350997D01*
X161732522Y-103382383D01*
X161771507Y-103458895D01*
X161783495Y-103495792D01*
X161798473Y-103590357D01*
X161800000Y-103609755D01*
X161800000Y-115590244D01*
X161798473Y-115609641D01*
X161798473Y-115609642D01*
X161783495Y-115704207D01*
X161771507Y-115741104D01*
X161732522Y-115817616D01*
X161709718Y-115849002D01*
X161649002Y-115909718D01*
X161617616Y-115932522D01*
X161541104Y-115971507D01*
X161504207Y-115983495D01*
X161424425Y-115996131D01*
X161409640Y-115998473D01*
X161390244Y-116000000D01*
X148409756Y-116000000D01*
X148390359Y-115998473D01*
X148371258Y-115995447D01*
X148295792Y-115983495D01*
X148258895Y-115971507D01*
X148182383Y-115932522D01*
X148150997Y-115909718D01*
X148090281Y-115849002D01*
X148067477Y-115817616D01*
X148028492Y-115741104D01*
X148016504Y-115704206D01*
X148001527Y-115609641D01*
X148000000Y-115590244D01*
X148000000Y-108609755D01*
X148001527Y-108590358D01*
X148016504Y-108495793D01*
X148028490Y-108458898D01*
X148067479Y-108382379D01*
X148090278Y-108351000D01*
X148151000Y-108290278D01*
X148182379Y-108267479D01*
X148258898Y-108228490D01*
X148295784Y-108216505D01*
X148390370Y-108201525D01*
X148409756Y-108200000D01*
X158600005Y-108200000D01*
X158723604Y-108180424D01*
X158723605Y-108180423D01*
X158723607Y-108180423D01*
X158835114Y-108123607D01*
X158923607Y-108035114D01*
X158980423Y-107923607D01*
X158980423Y-107923605D01*
X158980424Y-107923604D01*
X159000000Y-107800005D01*
X159000000Y-103609755D01*
X159001527Y-103590358D01*
X159016504Y-103495793D01*
X159016505Y-103495788D01*
X159028490Y-103458898D01*
X159067479Y-103382379D01*
X159090278Y-103351000D01*
X159151000Y-103290278D01*
X159182379Y-103267479D01*
X159258898Y-103228490D01*
X159295784Y-103216505D01*
X159390370Y-103201525D01*
X159409756Y-103200000D01*
X161390244Y-103200000D01*
X161409641Y-103201527D01*
G37*
G04 #@! TD.AperFunction*
G04 #@! TA.AperFunction,Conductor*
G36*
X145609643Y-126401527D02*
G01*
X145704209Y-126416504D01*
X145741104Y-126428491D01*
X145817619Y-126467477D01*
X145819526Y-126468863D01*
X145820750Y-126469130D01*
X145849004Y-126490281D01*
X145909720Y-126550997D01*
X145932524Y-126582383D01*
X145971509Y-126658895D01*
X145983497Y-126695793D01*
X145998474Y-126790358D01*
X146000001Y-126809755D01*
X146000001Y-136390244D01*
X145998474Y-136409640D01*
X145998474Y-136409642D01*
X145983496Y-136504207D01*
X145971508Y-136541104D01*
X145932523Y-136617616D01*
X145909719Y-136649002D01*
X145849003Y-136709718D01*
X145817617Y-136732522D01*
X145741105Y-136771507D01*
X145704208Y-136783495D01*
X145624426Y-136796131D01*
X145609641Y-136798473D01*
X145590245Y-136800000D01*
X136209756Y-136800000D01*
X136190359Y-136798473D01*
X136171258Y-136795447D01*
X136095792Y-136783495D01*
X136058895Y-136771507D01*
X135982383Y-136732522D01*
X135950997Y-136709718D01*
X135890280Y-136649001D01*
X135867476Y-136617614D01*
X135828493Y-136541104D01*
X135816505Y-136504208D01*
X135801527Y-136409640D01*
X135800000Y-136390242D01*
X135800001Y-134600001D01*
X135788369Y-134526567D01*
X135780424Y-134476396D01*
X135723610Y-134364890D01*
X135723609Y-134364889D01*
X135723608Y-134364887D01*
X135635115Y-134276394D01*
X135523608Y-134219578D01*
X135523607Y-134219577D01*
X135523604Y-134219576D01*
X135523605Y-134219576D01*
X135400004Y-134200000D01*
X134000001Y-134200000D01*
X132609756Y-134200000D01*
X132590361Y-134198473D01*
X132554206Y-134192747D01*
X132495793Y-134183495D01*
X132458896Y-134171507D01*
X132382384Y-134132522D01*
X132350998Y-134109718D01*
X132290282Y-134049002D01*
X132267478Y-134017616D01*
X132228493Y-133941104D01*
X132216505Y-133904206D01*
X132201528Y-133809641D01*
X132200001Y-133790244D01*
X132200001Y-131809755D01*
X132201528Y-131790358D01*
X132216505Y-131695793D01*
X132228491Y-131658898D01*
X132267480Y-131582379D01*
X132290279Y-131551000D01*
X132351001Y-131490278D01*
X132382380Y-131467479D01*
X132458899Y-131428490D01*
X132495785Y-131416505D01*
X132590371Y-131401525D01*
X132609757Y-131400000D01*
X135200006Y-131400000D01*
X135323605Y-131380424D01*
X135323606Y-131380423D01*
X135323608Y-131380423D01*
X135435115Y-131323607D01*
X135523608Y-131235114D01*
X135580424Y-131123607D01*
X135580424Y-131123605D01*
X135580425Y-131123604D01*
X135600001Y-131000005D01*
X135600001Y-126809755D01*
X135601528Y-126790358D01*
X135616505Y-126695793D01*
X135628491Y-126658898D01*
X135667480Y-126582379D01*
X135690279Y-126551000D01*
X135751001Y-126490278D01*
X135782380Y-126467479D01*
X135858899Y-126428490D01*
X135895785Y-126416505D01*
X135990371Y-126401525D01*
X136009757Y-126400000D01*
X145590246Y-126400000D01*
X145609643Y-126401527D01*
G37*
G04 #@! TD.AperFunction*
G04 #@! TA.AperFunction,Conductor*
G36*
X175609641Y-127201527D02*
G01*
X175704207Y-127216504D01*
X175741102Y-127228491D01*
X175817617Y-127267477D01*
X175819524Y-127268863D01*
X175820748Y-127269130D01*
X175849002Y-127290281D01*
X175909718Y-127350997D01*
X175932522Y-127382383D01*
X175971507Y-127458895D01*
X175983495Y-127495792D01*
X175998473Y-127590357D01*
X176000000Y-127609755D01*
X176000000Y-137190244D01*
X175998473Y-137209641D01*
X175998473Y-137209642D01*
X175983495Y-137304207D01*
X175971507Y-137341104D01*
X175932522Y-137417616D01*
X175909718Y-137449002D01*
X175849002Y-137509718D01*
X175817616Y-137532522D01*
X175741104Y-137571507D01*
X175704207Y-137583495D01*
X175624425Y-137596131D01*
X175609640Y-137598473D01*
X175590244Y-137600000D01*
X166009756Y-137600000D01*
X165990359Y-137598473D01*
X165971258Y-137595447D01*
X165895792Y-137583495D01*
X165858895Y-137571507D01*
X165782383Y-137532522D01*
X165750997Y-137509718D01*
X165690281Y-137449002D01*
X165667477Y-137417616D01*
X165628492Y-137341104D01*
X165616504Y-137304206D01*
X165601527Y-137209641D01*
X165600000Y-137190244D01*
X165600000Y-132999994D01*
X165580424Y-132876395D01*
X165580423Y-132876393D01*
X165523607Y-132764886D01*
X165523603Y-132764882D01*
X165523602Y-132764880D01*
X165435119Y-132676397D01*
X165435116Y-132676395D01*
X165435114Y-132676393D01*
X165323607Y-132619577D01*
X165323606Y-132619576D01*
X165323603Y-132619575D01*
X165323604Y-132619575D01*
X165200005Y-132600000D01*
X165200000Y-132600000D01*
X162809756Y-132600000D01*
X162790359Y-132598473D01*
X162771258Y-132595447D01*
X162695792Y-132583495D01*
X162658895Y-132571507D01*
X162582383Y-132532522D01*
X162550997Y-132509718D01*
X162490281Y-132449002D01*
X162467477Y-132417616D01*
X162428492Y-132341104D01*
X162416504Y-132304206D01*
X162401527Y-132209641D01*
X162400000Y-132190244D01*
X162400000Y-131109755D01*
X162401527Y-131090358D01*
X162416504Y-130995793D01*
X162428490Y-130958898D01*
X162467479Y-130882379D01*
X162490278Y-130851000D01*
X162551000Y-130790278D01*
X162582379Y-130767479D01*
X162658898Y-130728490D01*
X162695784Y-130716505D01*
X162790370Y-130701525D01*
X162809756Y-130700000D01*
X165400005Y-130700000D01*
X165523604Y-130680424D01*
X165523605Y-130680423D01*
X165523607Y-130680423D01*
X165635114Y-130623607D01*
X165723607Y-130535114D01*
X165780423Y-130423607D01*
X165780423Y-130423605D01*
X165780424Y-130423604D01*
X165800000Y-130300005D01*
X165800000Y-127609755D01*
X165801527Y-127590358D01*
X165816504Y-127495793D01*
X165816505Y-127495788D01*
X165828490Y-127458898D01*
X165867479Y-127382379D01*
X165890278Y-127351000D01*
X165951000Y-127290278D01*
X165982379Y-127267479D01*
X166058898Y-127228490D01*
X166095784Y-127216505D01*
X166190370Y-127201525D01*
X166209756Y-127200000D01*
X175590244Y-127200000D01*
X175609641Y-127201527D01*
G37*
G04 #@! TD.AperFunction*
G04 #@! TA.AperFunction,Conductor*
G36*
X101409641Y-103201527D02*
G01*
X101504207Y-103216504D01*
X101541102Y-103228491D01*
X101617617Y-103267477D01*
X101619524Y-103268863D01*
X101620748Y-103269130D01*
X101649002Y-103290281D01*
X101709718Y-103350997D01*
X101732522Y-103382383D01*
X101771507Y-103458895D01*
X101783495Y-103495792D01*
X101798473Y-103590357D01*
X101800000Y-103609755D01*
X101800000Y-115590244D01*
X101798473Y-115609641D01*
X101798473Y-115609642D01*
X101783495Y-115704207D01*
X101771507Y-115741104D01*
X101732522Y-115817616D01*
X101709718Y-115849002D01*
X101649002Y-115909718D01*
X101617616Y-115932522D01*
X101541104Y-115971507D01*
X101504207Y-115983495D01*
X101424425Y-115996131D01*
X101409640Y-115998473D01*
X101390244Y-116000000D01*
X88409756Y-116000000D01*
X88390359Y-115998473D01*
X88371258Y-115995447D01*
X88295792Y-115983495D01*
X88258895Y-115971507D01*
X88182383Y-115932522D01*
X88150997Y-115909718D01*
X88090281Y-115849002D01*
X88067477Y-115817616D01*
X88028492Y-115741104D01*
X88016504Y-115704206D01*
X88001527Y-115609641D01*
X88000000Y-115590244D01*
X88000000Y-108609755D01*
X88001527Y-108590358D01*
X88016504Y-108495793D01*
X88028490Y-108458898D01*
X88067479Y-108382379D01*
X88090278Y-108351000D01*
X88151000Y-108290278D01*
X88182379Y-108267479D01*
X88258898Y-108228490D01*
X88295784Y-108216505D01*
X88390370Y-108201525D01*
X88409756Y-108200000D01*
X98600005Y-108200000D01*
X98723604Y-108180424D01*
X98723605Y-108180423D01*
X98723607Y-108180423D01*
X98835114Y-108123607D01*
X98923607Y-108035114D01*
X98980423Y-107923607D01*
X98980423Y-107923605D01*
X98980424Y-107923604D01*
X99000000Y-107800005D01*
X99000000Y-103609755D01*
X99001527Y-103590358D01*
X99016504Y-103495793D01*
X99016505Y-103495788D01*
X99028490Y-103458898D01*
X99067479Y-103382379D01*
X99090278Y-103351000D01*
X99151000Y-103290278D01*
X99182379Y-103267479D01*
X99258898Y-103228490D01*
X99295784Y-103216505D01*
X99390370Y-103201525D01*
X99409756Y-103200000D01*
X101390244Y-103200000D01*
X101409641Y-103201527D01*
G37*
G04 #@! TD.AperFunction*
G04 #@! TA.AperFunction,Conductor*
G36*
X145609642Y-88001526D02*
G01*
X145704208Y-88016503D01*
X145741103Y-88028490D01*
X145817618Y-88067476D01*
X145819525Y-88068862D01*
X145820749Y-88069129D01*
X145849003Y-88090280D01*
X145909719Y-88150996D01*
X145932523Y-88182382D01*
X145971508Y-88258894D01*
X145983496Y-88295791D01*
X145998474Y-88390356D01*
X146000001Y-88409754D01*
X146000001Y-95390243D01*
X145998474Y-95409641D01*
X145983496Y-95504206D01*
X145971508Y-95541103D01*
X145932523Y-95617615D01*
X145909719Y-95649001D01*
X145849003Y-95709717D01*
X145817617Y-95732521D01*
X145741105Y-95771506D01*
X145704208Y-95783494D01*
X145624426Y-95796130D01*
X145609641Y-95798472D01*
X145590245Y-95799999D01*
X135399995Y-95799999D01*
X135276395Y-95819574D01*
X135202055Y-95857453D01*
X135164886Y-95876392D01*
X135164885Y-95876393D01*
X135164880Y-95876396D01*
X135076397Y-95964879D01*
X135076394Y-95964884D01*
X135019575Y-96076394D01*
X135000000Y-96199993D01*
X135000000Y-100390244D01*
X134998473Y-100409641D01*
X134998473Y-100409642D01*
X134983495Y-100504207D01*
X134971507Y-100541104D01*
X134932522Y-100617616D01*
X134909718Y-100649002D01*
X134849002Y-100709718D01*
X134817616Y-100732522D01*
X134741104Y-100771507D01*
X134704207Y-100783495D01*
X134624425Y-100796131D01*
X134609640Y-100798473D01*
X134590244Y-100800000D01*
X132609756Y-100800000D01*
X132590359Y-100798473D01*
X132571258Y-100795447D01*
X132495792Y-100783495D01*
X132458895Y-100771507D01*
X132382383Y-100732522D01*
X132350997Y-100709718D01*
X132290281Y-100649002D01*
X132267477Y-100617616D01*
X132228492Y-100541104D01*
X132216504Y-100504206D01*
X132201527Y-100409641D01*
X132200000Y-100390244D01*
X132200000Y-98200000D01*
X132200001Y-94399999D01*
X132199999Y-88409754D01*
X132201526Y-88390357D01*
X132216503Y-88295792D01*
X132216504Y-88295787D01*
X132228489Y-88258897D01*
X132267478Y-88182378D01*
X132290277Y-88150999D01*
X132350999Y-88090277D01*
X132382378Y-88067478D01*
X132458897Y-88028489D01*
X132495783Y-88016504D01*
X132590369Y-88001524D01*
X132609755Y-87999999D01*
X145590245Y-87999999D01*
X145609642Y-88001526D01*
G37*
G04 #@! TD.AperFunction*
G04 #@! TA.AperFunction,Conductor*
G36*
X97809641Y-97201527D02*
G01*
X97904207Y-97216504D01*
X97941102Y-97228491D01*
X98017617Y-97267477D01*
X98019524Y-97268863D01*
X98020748Y-97269130D01*
X98049002Y-97290281D01*
X98109718Y-97350997D01*
X98132522Y-97382383D01*
X98171507Y-97458895D01*
X98183495Y-97495792D01*
X98198473Y-97590357D01*
X98200000Y-97609755D01*
X98200000Y-99400005D01*
X98219575Y-99523604D01*
X98219577Y-99523607D01*
X98276393Y-99635114D01*
X98276395Y-99635116D01*
X98276397Y-99635119D01*
X98364880Y-99723602D01*
X98364882Y-99723603D01*
X98364886Y-99723607D01*
X98476393Y-99780423D01*
X98476394Y-99780423D01*
X98476396Y-99780424D01*
X98476395Y-99780424D01*
X98599995Y-99800000D01*
X98600000Y-99800000D01*
X101390244Y-99800000D01*
X101409641Y-99801527D01*
X101504207Y-99816504D01*
X101541102Y-99828491D01*
X101617617Y-99867477D01*
X101649002Y-99890281D01*
X101709718Y-99950997D01*
X101732522Y-99982383D01*
X101771507Y-100058895D01*
X101783495Y-100095792D01*
X101798473Y-100190357D01*
X101800000Y-100209755D01*
X101800000Y-102190244D01*
X101798473Y-102209642D01*
X101783495Y-102304207D01*
X101771507Y-102341104D01*
X101732522Y-102417616D01*
X101709718Y-102449002D01*
X101649002Y-102509718D01*
X101617616Y-102532522D01*
X101541104Y-102571507D01*
X101504207Y-102583495D01*
X101424425Y-102596131D01*
X101409640Y-102598473D01*
X101390244Y-102600000D01*
X98799995Y-102600000D01*
X98676395Y-102619575D01*
X98602055Y-102657454D01*
X98564886Y-102676393D01*
X98564885Y-102676394D01*
X98564880Y-102676397D01*
X98476397Y-102764880D01*
X98476394Y-102764885D01*
X98419575Y-102876395D01*
X98400000Y-102999994D01*
X98400000Y-107190244D01*
X98398473Y-107209641D01*
X98398473Y-107209642D01*
X98383495Y-107304207D01*
X98371507Y-107341104D01*
X98332522Y-107417616D01*
X98309718Y-107449002D01*
X98249002Y-107509718D01*
X98217616Y-107532522D01*
X98141104Y-107571507D01*
X98104207Y-107583495D01*
X98024425Y-107596131D01*
X98009640Y-107598473D01*
X97990244Y-107600000D01*
X88409756Y-107600000D01*
X88390359Y-107598473D01*
X88371258Y-107595447D01*
X88295792Y-107583495D01*
X88258895Y-107571507D01*
X88182383Y-107532522D01*
X88150997Y-107509718D01*
X88090281Y-107449002D01*
X88067477Y-107417616D01*
X88028492Y-107341104D01*
X88016504Y-107304206D01*
X88001527Y-107209641D01*
X88000000Y-107190244D01*
X88000000Y-97609755D01*
X88001527Y-97590358D01*
X88016504Y-97495793D01*
X88016505Y-97495788D01*
X88028490Y-97458898D01*
X88067479Y-97382379D01*
X88090278Y-97351000D01*
X88151000Y-97290278D01*
X88182379Y-97267479D01*
X88258898Y-97228490D01*
X88295784Y-97216505D01*
X88390370Y-97201525D01*
X88409756Y-97200000D01*
X97790244Y-97200000D01*
X97809641Y-97201527D01*
G37*
G04 #@! TD.AperFunction*
G04 #@! TA.AperFunction,Conductor*
G36*
X161409641Y-133201527D02*
G01*
X161504207Y-133216504D01*
X161541102Y-133228491D01*
X161617617Y-133267477D01*
X161619524Y-133268863D01*
X161620748Y-133269130D01*
X161649002Y-133290281D01*
X161709718Y-133350997D01*
X161732522Y-133382383D01*
X161771507Y-133458895D01*
X161783495Y-133495792D01*
X161798473Y-133590357D01*
X161800000Y-133609755D01*
X161800000Y-145590244D01*
X161798473Y-145609641D01*
X161798473Y-145609642D01*
X161783495Y-145704207D01*
X161771507Y-145741104D01*
X161732522Y-145817616D01*
X161709718Y-145849002D01*
X161649002Y-145909718D01*
X161617616Y-145932522D01*
X161541104Y-145971507D01*
X161504207Y-145983495D01*
X161424425Y-145996131D01*
X161409640Y-145998473D01*
X161390244Y-146000000D01*
X148409756Y-146000000D01*
X148390359Y-145998473D01*
X148371258Y-145995447D01*
X148295792Y-145983495D01*
X148258895Y-145971507D01*
X148182383Y-145932522D01*
X148150997Y-145909718D01*
X148090281Y-145849002D01*
X148067477Y-145817616D01*
X148028492Y-145741104D01*
X148016504Y-145704206D01*
X148001527Y-145609641D01*
X148000000Y-145590244D01*
X148000000Y-138609755D01*
X148001527Y-138590358D01*
X148016504Y-138495793D01*
X148028490Y-138458898D01*
X148067479Y-138382379D01*
X148090278Y-138351000D01*
X148151000Y-138290278D01*
X148182379Y-138267479D01*
X148258898Y-138228490D01*
X148295784Y-138216505D01*
X148390370Y-138201525D01*
X148409756Y-138200000D01*
X158600005Y-138200000D01*
X158723604Y-138180424D01*
X158723605Y-138180423D01*
X158723607Y-138180423D01*
X158835114Y-138123607D01*
X158923607Y-138035114D01*
X158980423Y-137923607D01*
X158980423Y-137923605D01*
X158980424Y-137923604D01*
X159000000Y-137800005D01*
X159000000Y-133609755D01*
X159001527Y-133590358D01*
X159016504Y-133495793D01*
X159016505Y-133495788D01*
X159028490Y-133458898D01*
X159067479Y-133382379D01*
X159090278Y-133351000D01*
X159151000Y-133290278D01*
X159182379Y-133267479D01*
X159258898Y-133228490D01*
X159295784Y-133216505D01*
X159390370Y-133201525D01*
X159409756Y-133200000D01*
X161390244Y-133200000D01*
X161409641Y-133201527D01*
G37*
G04 #@! TD.AperFunction*
G04 #@! TA.AperFunction,Conductor*
G36*
X97809641Y-127201527D02*
G01*
X97904207Y-127216504D01*
X97941102Y-127228491D01*
X98017617Y-127267477D01*
X98019524Y-127268863D01*
X98020748Y-127269130D01*
X98049002Y-127290281D01*
X98109718Y-127350997D01*
X98132522Y-127382383D01*
X98171507Y-127458895D01*
X98183495Y-127495792D01*
X98198473Y-127590357D01*
X98200000Y-127609755D01*
X98200000Y-129400005D01*
X98219575Y-129523604D01*
X98219577Y-129523607D01*
X98276393Y-129635114D01*
X98276395Y-129635116D01*
X98276397Y-129635119D01*
X98364880Y-129723602D01*
X98364882Y-129723603D01*
X98364886Y-129723607D01*
X98476393Y-129780423D01*
X98476394Y-129780423D01*
X98476396Y-129780424D01*
X98476395Y-129780424D01*
X98599995Y-129800000D01*
X98600000Y-129800000D01*
X101390244Y-129800000D01*
X101409641Y-129801527D01*
X101504207Y-129816504D01*
X101541102Y-129828491D01*
X101617617Y-129867477D01*
X101649002Y-129890281D01*
X101709718Y-129950997D01*
X101732522Y-129982383D01*
X101771507Y-130058895D01*
X101783495Y-130095792D01*
X101798473Y-130190357D01*
X101800000Y-130209755D01*
X101800000Y-132190244D01*
X101798473Y-132209642D01*
X101783495Y-132304207D01*
X101771507Y-132341104D01*
X101732522Y-132417616D01*
X101709718Y-132449002D01*
X101649002Y-132509718D01*
X101617616Y-132532522D01*
X101541104Y-132571507D01*
X101504207Y-132583495D01*
X101424425Y-132596131D01*
X101409640Y-132598473D01*
X101390244Y-132600000D01*
X98799995Y-132600000D01*
X98676395Y-132619575D01*
X98602055Y-132657454D01*
X98564886Y-132676393D01*
X98564885Y-132676394D01*
X98564880Y-132676397D01*
X98476397Y-132764880D01*
X98476394Y-132764885D01*
X98419575Y-132876395D01*
X98400000Y-132999994D01*
X98400000Y-137190244D01*
X98398473Y-137209641D01*
X98398473Y-137209642D01*
X98383495Y-137304207D01*
X98371507Y-137341104D01*
X98332522Y-137417616D01*
X98309718Y-137449002D01*
X98249002Y-137509718D01*
X98217616Y-137532522D01*
X98141104Y-137571507D01*
X98104207Y-137583495D01*
X98024425Y-137596131D01*
X98009640Y-137598473D01*
X97990244Y-137600000D01*
X88409756Y-137600000D01*
X88390359Y-137598473D01*
X88371258Y-137595447D01*
X88295792Y-137583495D01*
X88258895Y-137571507D01*
X88182383Y-137532522D01*
X88150997Y-137509718D01*
X88090281Y-137449002D01*
X88067477Y-137417616D01*
X88028492Y-137341104D01*
X88016504Y-137304206D01*
X88001527Y-137209641D01*
X88000000Y-137190244D01*
X88000000Y-127609755D01*
X88001527Y-127590358D01*
X88016504Y-127495793D01*
X88016505Y-127495788D01*
X88028490Y-127458898D01*
X88067479Y-127382379D01*
X88090278Y-127351000D01*
X88151000Y-127290278D01*
X88182379Y-127267479D01*
X88258898Y-127228490D01*
X88295784Y-127216505D01*
X88390370Y-127201525D01*
X88409756Y-127200000D01*
X97790244Y-127200000D01*
X97809641Y-127201527D01*
G37*
G04 #@! TD.AperFunction*
G04 #@! TA.AperFunction,Conductor*
G36*
X161409641Y-88001527D02*
G01*
X161504207Y-88016504D01*
X161541102Y-88028491D01*
X161617617Y-88067477D01*
X161619524Y-88068863D01*
X161620748Y-88069130D01*
X161649002Y-88090281D01*
X161709718Y-88150997D01*
X161732522Y-88182383D01*
X161771507Y-88258895D01*
X161783495Y-88295792D01*
X161798473Y-88390357D01*
X161800000Y-88409755D01*
X161800000Y-98790244D01*
X161798473Y-98809641D01*
X161798473Y-98809642D01*
X161783495Y-98904207D01*
X161771507Y-98941104D01*
X161732522Y-99017616D01*
X161709718Y-99049002D01*
X161649002Y-99109718D01*
X161617616Y-99132522D01*
X161541104Y-99171507D01*
X161504207Y-99183495D01*
X161424425Y-99196131D01*
X161409640Y-99198473D01*
X161390244Y-99200000D01*
X159209756Y-99200000D01*
X159190359Y-99198473D01*
X159171258Y-99195447D01*
X159095792Y-99183495D01*
X159058895Y-99171507D01*
X158982383Y-99132522D01*
X158950997Y-99109718D01*
X158890281Y-99049002D01*
X158867477Y-99017616D01*
X158828492Y-98941104D01*
X158816504Y-98904206D01*
X158801527Y-98809641D01*
X158800000Y-98790244D01*
X158800000Y-96999994D01*
X158780424Y-96876395D01*
X158780423Y-96876393D01*
X158723607Y-96764886D01*
X158723603Y-96764882D01*
X158723602Y-96764880D01*
X158635119Y-96676397D01*
X158635116Y-96676395D01*
X158635114Y-96676393D01*
X158523607Y-96619577D01*
X158523606Y-96619576D01*
X158523603Y-96619575D01*
X158523604Y-96619575D01*
X158400005Y-96600000D01*
X158400000Y-96600000D01*
X148409756Y-96600000D01*
X148390359Y-96598473D01*
X148371258Y-96595447D01*
X148295792Y-96583495D01*
X148258895Y-96571507D01*
X148182383Y-96532522D01*
X148150997Y-96509718D01*
X148090281Y-96449002D01*
X148067477Y-96417616D01*
X148028492Y-96341104D01*
X148016504Y-96304206D01*
X148001527Y-96209641D01*
X148000000Y-96190244D01*
X148000000Y-88409755D01*
X148001527Y-88390358D01*
X148016504Y-88295793D01*
X148016505Y-88295788D01*
X148028490Y-88258898D01*
X148067479Y-88182379D01*
X148090278Y-88151000D01*
X148151000Y-88090278D01*
X148182379Y-88067479D01*
X148258898Y-88028490D01*
X148295784Y-88016505D01*
X148390370Y-88001525D01*
X148409756Y-88000000D01*
X161390244Y-88000000D01*
X161409641Y-88001527D01*
G37*
G04 #@! TD.AperFunction*
G04 #@! TA.AperFunction,Conductor*
G36*
X128009641Y-96401526D02*
G01*
X128104207Y-96416503D01*
X128141102Y-96428490D01*
X128217617Y-96467476D01*
X128219524Y-96468862D01*
X128220748Y-96469129D01*
X128249002Y-96490280D01*
X128309718Y-96550996D01*
X128332522Y-96582382D01*
X128371507Y-96658894D01*
X128383495Y-96695791D01*
X128398473Y-96790356D01*
X128400000Y-96809754D01*
X128400000Y-101000005D01*
X128419575Y-101123604D01*
X128419577Y-101123607D01*
X128476393Y-101235114D01*
X128476395Y-101235116D01*
X128476397Y-101235119D01*
X128564880Y-101323602D01*
X128564882Y-101323603D01*
X128564886Y-101323607D01*
X128676393Y-101380423D01*
X128676394Y-101380423D01*
X128676396Y-101380424D01*
X128676395Y-101380424D01*
X128799994Y-101399999D01*
X128800000Y-101400000D01*
X131190244Y-101399999D01*
X131209641Y-101401526D01*
X131304207Y-101416503D01*
X131341102Y-101428490D01*
X131417617Y-101467476D01*
X131449002Y-101490280D01*
X131509718Y-101550996D01*
X131532522Y-101582382D01*
X131571507Y-101658894D01*
X131583495Y-101695791D01*
X131598473Y-101790356D01*
X131600000Y-101809754D01*
X131600000Y-102890243D01*
X131598473Y-102909641D01*
X131583495Y-103004206D01*
X131571507Y-103041103D01*
X131532522Y-103117615D01*
X131509718Y-103149001D01*
X131449002Y-103209717D01*
X131417616Y-103232521D01*
X131341104Y-103271506D01*
X131304207Y-103283494D01*
X131224425Y-103296130D01*
X131209640Y-103298472D01*
X131190244Y-103299999D01*
X128599995Y-103299999D01*
X128476395Y-103319574D01*
X128402055Y-103357453D01*
X128364886Y-103376392D01*
X128364885Y-103376393D01*
X128364880Y-103376396D01*
X128276397Y-103464879D01*
X128276394Y-103464884D01*
X128219575Y-103576394D01*
X128200000Y-103699993D01*
X128200000Y-106390243D01*
X128198473Y-106409640D01*
X128183496Y-106504205D01*
X128171508Y-106541103D01*
X128132523Y-106617615D01*
X128109719Y-106649001D01*
X128049003Y-106709717D01*
X128017617Y-106732521D01*
X127941105Y-106771506D01*
X127904208Y-106783494D01*
X127824426Y-106796130D01*
X127809641Y-106798472D01*
X127790245Y-106799999D01*
X118409756Y-106799999D01*
X118390359Y-106798472D01*
X118371258Y-106795446D01*
X118295792Y-106783494D01*
X118258895Y-106771506D01*
X118182383Y-106732521D01*
X118150997Y-106709717D01*
X118090281Y-106649001D01*
X118067477Y-106617615D01*
X118028492Y-106541103D01*
X118016504Y-106504206D01*
X118016504Y-106504205D01*
X118001524Y-106409627D01*
X117999999Y-106390255D01*
X117999999Y-96809753D01*
X118001526Y-96790357D01*
X118016503Y-96695792D01*
X118016504Y-96695787D01*
X118028489Y-96658897D01*
X118067478Y-96582378D01*
X118090277Y-96550999D01*
X118150999Y-96490277D01*
X118182378Y-96467478D01*
X118258897Y-96428489D01*
X118295783Y-96416504D01*
X118390369Y-96401524D01*
X118409755Y-96399999D01*
X127990244Y-96399999D01*
X128009641Y-96401526D01*
G37*
G04 #@! TD.AperFunction*
G04 #@! TA.AperFunction,Conductor*
G36*
X145609643Y-118001527D02*
G01*
X145704209Y-118016504D01*
X145741104Y-118028491D01*
X145817619Y-118067477D01*
X145819526Y-118068863D01*
X145820750Y-118069130D01*
X145849004Y-118090281D01*
X145909720Y-118150997D01*
X145932524Y-118182383D01*
X145971509Y-118258895D01*
X145983497Y-118295792D01*
X145998475Y-118390357D01*
X146000002Y-118409755D01*
X146000002Y-125390244D01*
X145998475Y-125409642D01*
X145983497Y-125504207D01*
X145971509Y-125541104D01*
X145932524Y-125617616D01*
X145909720Y-125649002D01*
X145849004Y-125709718D01*
X145817618Y-125732522D01*
X145741106Y-125771507D01*
X145704209Y-125783495D01*
X145624427Y-125796131D01*
X145609642Y-125798473D01*
X145590246Y-125800000D01*
X135399996Y-125800000D01*
X135276396Y-125819575D01*
X135202056Y-125857454D01*
X135164887Y-125876393D01*
X135164886Y-125876394D01*
X135164881Y-125876397D01*
X135076398Y-125964880D01*
X135076395Y-125964885D01*
X135019576Y-126076395D01*
X135000001Y-126199994D01*
X135000001Y-130390245D01*
X134998474Y-130409642D01*
X134998474Y-130409643D01*
X134983496Y-130504208D01*
X134971508Y-130541105D01*
X134932523Y-130617617D01*
X134909719Y-130649003D01*
X134849003Y-130709719D01*
X134817617Y-130732523D01*
X134741105Y-130771508D01*
X134704208Y-130783496D01*
X134624426Y-130796132D01*
X134609641Y-130798474D01*
X134590245Y-130800001D01*
X132609757Y-130800001D01*
X132590360Y-130798474D01*
X132571259Y-130795448D01*
X132495793Y-130783496D01*
X132458896Y-130771508D01*
X132382384Y-130732523D01*
X132350998Y-130709719D01*
X132290282Y-130649003D01*
X132267478Y-130617617D01*
X132228493Y-130541105D01*
X132216505Y-130504207D01*
X132201528Y-130409642D01*
X132200001Y-130390245D01*
X132200001Y-128200001D01*
X132200002Y-124400000D01*
X132200000Y-118409755D01*
X132201527Y-118390358D01*
X132216504Y-118295793D01*
X132216505Y-118295788D01*
X132228490Y-118258898D01*
X132267479Y-118182379D01*
X132290278Y-118151000D01*
X132351000Y-118090278D01*
X132382379Y-118067479D01*
X132458898Y-118028490D01*
X132495784Y-118016505D01*
X132590370Y-118001525D01*
X132609756Y-118000000D01*
X145590246Y-118000000D01*
X145609643Y-118001527D01*
G37*
G04 #@! TD.AperFunction*
G04 #@! TA.AperFunction,Conductor*
G36*
X104609641Y-133201527D02*
G01*
X104704207Y-133216504D01*
X104741102Y-133228491D01*
X104817617Y-133267477D01*
X104819524Y-133268863D01*
X104820748Y-133269130D01*
X104849002Y-133290281D01*
X104909718Y-133350997D01*
X104932522Y-133382383D01*
X104971507Y-133458895D01*
X104983495Y-133495792D01*
X104998473Y-133590357D01*
X105000000Y-133609755D01*
X105000000Y-137800005D01*
X105019575Y-137923604D01*
X105019577Y-137923607D01*
X105076393Y-138035114D01*
X105076395Y-138035116D01*
X105076397Y-138035119D01*
X105164880Y-138123602D01*
X105164882Y-138123603D01*
X105164886Y-138123607D01*
X105276393Y-138180423D01*
X105276394Y-138180423D01*
X105276396Y-138180424D01*
X105276395Y-138180424D01*
X105399995Y-138200000D01*
X105400000Y-138200000D01*
X115590244Y-138200000D01*
X115609641Y-138201527D01*
X115704207Y-138216504D01*
X115741102Y-138228491D01*
X115817617Y-138267477D01*
X115849002Y-138290281D01*
X115909718Y-138350997D01*
X115932522Y-138382383D01*
X115971507Y-138458895D01*
X115983495Y-138495792D01*
X115998473Y-138590357D01*
X116000000Y-138609755D01*
X116000000Y-145590244D01*
X115998473Y-145609641D01*
X115998473Y-145609642D01*
X115983495Y-145704207D01*
X115971507Y-145741104D01*
X115932522Y-145817616D01*
X115909718Y-145849002D01*
X115849002Y-145909718D01*
X115817616Y-145932522D01*
X115741104Y-145971507D01*
X115704207Y-145983495D01*
X115624425Y-145996131D01*
X115609640Y-145998473D01*
X115590244Y-146000000D01*
X102809756Y-146000000D01*
X102790359Y-145998473D01*
X102771258Y-145995447D01*
X102695792Y-145983495D01*
X102658895Y-145971507D01*
X102582383Y-145932522D01*
X102550997Y-145909718D01*
X102490281Y-145849002D01*
X102467477Y-145817616D01*
X102428492Y-145741104D01*
X102416504Y-145704206D01*
X102401527Y-145609641D01*
X102400000Y-145590244D01*
X102400000Y-133609755D01*
X102401527Y-133590358D01*
X102416504Y-133495793D01*
X102416505Y-133495788D01*
X102428490Y-133458898D01*
X102467479Y-133382379D01*
X102490278Y-133351000D01*
X102551000Y-133290278D01*
X102582379Y-133267479D01*
X102658898Y-133228490D01*
X102695784Y-133216505D01*
X102790370Y-133201525D01*
X102809756Y-133200000D01*
X104590244Y-133200000D01*
X104609641Y-133201527D01*
G37*
G04 #@! TD.AperFunction*
G04 #@! TA.AperFunction,Conductor*
G36*
X101409641Y-88001527D02*
G01*
X101504207Y-88016504D01*
X101541102Y-88028491D01*
X101617617Y-88067477D01*
X101619524Y-88068863D01*
X101620748Y-88069130D01*
X101649002Y-88090281D01*
X101709718Y-88150997D01*
X101732522Y-88182383D01*
X101771507Y-88258895D01*
X101783495Y-88295792D01*
X101798473Y-88390357D01*
X101800000Y-88409755D01*
X101800000Y-98790244D01*
X101798473Y-98809641D01*
X101798473Y-98809642D01*
X101783495Y-98904207D01*
X101771507Y-98941104D01*
X101732522Y-99017616D01*
X101709718Y-99049002D01*
X101649002Y-99109718D01*
X101617616Y-99132522D01*
X101541104Y-99171507D01*
X101504207Y-99183495D01*
X101424425Y-99196131D01*
X101409640Y-99198473D01*
X101390244Y-99200000D01*
X99209756Y-99200000D01*
X99190359Y-99198473D01*
X99171258Y-99195447D01*
X99095792Y-99183495D01*
X99058895Y-99171507D01*
X98982383Y-99132522D01*
X98950997Y-99109718D01*
X98890281Y-99049002D01*
X98867477Y-99017616D01*
X98828492Y-98941104D01*
X98816504Y-98904206D01*
X98801527Y-98809641D01*
X98800000Y-98790244D01*
X98800000Y-96999994D01*
X98780424Y-96876395D01*
X98780423Y-96876393D01*
X98723607Y-96764886D01*
X98723603Y-96764882D01*
X98723602Y-96764880D01*
X98635119Y-96676397D01*
X98635116Y-96676395D01*
X98635114Y-96676393D01*
X98523607Y-96619577D01*
X98523606Y-96619576D01*
X98523603Y-96619575D01*
X98523604Y-96619575D01*
X98400005Y-96600000D01*
X98400000Y-96600000D01*
X88409756Y-96600000D01*
X88390359Y-96598473D01*
X88371258Y-96595447D01*
X88295792Y-96583495D01*
X88258895Y-96571507D01*
X88182383Y-96532522D01*
X88150997Y-96509718D01*
X88090281Y-96449002D01*
X88067477Y-96417616D01*
X88028492Y-96341104D01*
X88016504Y-96304206D01*
X88001527Y-96209641D01*
X88000000Y-96190244D01*
X88000000Y-88409755D01*
X88001527Y-88390358D01*
X88016504Y-88295793D01*
X88016505Y-88295788D01*
X88028490Y-88258898D01*
X88067479Y-88182379D01*
X88090278Y-88151000D01*
X88151000Y-88090278D01*
X88182379Y-88067479D01*
X88258898Y-88028490D01*
X88295784Y-88016505D01*
X88390370Y-88001525D01*
X88409756Y-88000000D01*
X101390244Y-88000000D01*
X101409641Y-88001527D01*
G37*
G04 #@! TD.AperFunction*
G04 #@! TA.AperFunction,Conductor*
G36*
X131209641Y-118001527D02*
G01*
X131304207Y-118016504D01*
X131341102Y-118028491D01*
X131417617Y-118067477D01*
X131419524Y-118068863D01*
X131420748Y-118069130D01*
X131449002Y-118090281D01*
X131509718Y-118150997D01*
X131532522Y-118182383D01*
X131571507Y-118258895D01*
X131583495Y-118295792D01*
X131598473Y-118390357D01*
X131600000Y-118409755D01*
X131600000Y-130390245D01*
X131598473Y-130409642D01*
X131583496Y-130504207D01*
X131571508Y-130541105D01*
X131532523Y-130617617D01*
X131509719Y-130649003D01*
X131449003Y-130709719D01*
X131417617Y-130732523D01*
X131341105Y-130771508D01*
X131304208Y-130783496D01*
X131224426Y-130796132D01*
X131209641Y-130798474D01*
X131190245Y-130800001D01*
X129409757Y-130800001D01*
X129390360Y-130798474D01*
X129371259Y-130795448D01*
X129295793Y-130783496D01*
X129258896Y-130771508D01*
X129182384Y-130732523D01*
X129150998Y-130709719D01*
X129090282Y-130649003D01*
X129067478Y-130617617D01*
X129028493Y-130541105D01*
X129016505Y-130504207D01*
X129001528Y-130409642D01*
X129000001Y-130390245D01*
X129000001Y-126199994D01*
X128980425Y-126076395D01*
X128980424Y-126076393D01*
X128923608Y-125964886D01*
X128923604Y-125964882D01*
X128923603Y-125964880D01*
X128835120Y-125876397D01*
X128835117Y-125876395D01*
X128835115Y-125876393D01*
X128723608Y-125819577D01*
X128723607Y-125819576D01*
X128723604Y-125819575D01*
X128723605Y-125819575D01*
X128600006Y-125800000D01*
X128600001Y-125800000D01*
X118409756Y-125800000D01*
X118390359Y-125798473D01*
X118371258Y-125795447D01*
X118295792Y-125783495D01*
X118258895Y-125771507D01*
X118182383Y-125732522D01*
X118150997Y-125709718D01*
X118090281Y-125649002D01*
X118067477Y-125617616D01*
X118028492Y-125541104D01*
X118016504Y-125504206D01*
X118001527Y-125409641D01*
X118000000Y-125390244D01*
X118000000Y-118409755D01*
X118001527Y-118390358D01*
X118016504Y-118295793D01*
X118016505Y-118295788D01*
X118028490Y-118258898D01*
X118067479Y-118182379D01*
X118090278Y-118151000D01*
X118151000Y-118090278D01*
X118182379Y-118067479D01*
X118258898Y-118028490D01*
X118295784Y-118016505D01*
X118390370Y-118001525D01*
X118409756Y-118000000D01*
X131190244Y-118000000D01*
X131209641Y-118001527D01*
G37*
G04 #@! TD.AperFunction*
G04 #@! TA.AperFunction,Conductor*
G36*
X175609641Y-118001527D02*
G01*
X175704207Y-118016504D01*
X175741102Y-118028491D01*
X175817617Y-118067477D01*
X175819524Y-118068863D01*
X175820748Y-118069130D01*
X175849002Y-118090281D01*
X175909718Y-118150997D01*
X175932522Y-118182383D01*
X175971507Y-118258895D01*
X175983495Y-118295792D01*
X175998473Y-118390357D01*
X176000000Y-118409755D01*
X176000000Y-126190244D01*
X175998473Y-126209642D01*
X175983495Y-126304207D01*
X175971507Y-126341104D01*
X175932522Y-126417616D01*
X175909718Y-126449002D01*
X175849002Y-126509718D01*
X175817616Y-126532522D01*
X175741104Y-126571507D01*
X175704207Y-126583495D01*
X175624425Y-126596131D01*
X175609640Y-126598473D01*
X175590244Y-126600000D01*
X165599995Y-126600000D01*
X165476395Y-126619575D01*
X165402055Y-126657454D01*
X165364886Y-126676393D01*
X165364885Y-126676394D01*
X165364880Y-126676397D01*
X165276397Y-126764880D01*
X165276394Y-126764885D01*
X165219575Y-126876395D01*
X165200000Y-126999994D01*
X165200000Y-129790244D01*
X165198473Y-129809641D01*
X165198473Y-129809642D01*
X165183495Y-129904207D01*
X165171507Y-129941104D01*
X165132522Y-130017616D01*
X165109718Y-130049002D01*
X165049002Y-130109718D01*
X165017616Y-130132522D01*
X164941104Y-130171507D01*
X164904207Y-130183495D01*
X164824425Y-130196131D01*
X164809640Y-130198473D01*
X164790244Y-130200000D01*
X162809756Y-130200000D01*
X162790359Y-130198473D01*
X162771258Y-130195447D01*
X162695792Y-130183495D01*
X162658895Y-130171507D01*
X162582383Y-130132522D01*
X162550997Y-130109718D01*
X162490281Y-130049002D01*
X162467477Y-130017616D01*
X162428492Y-129941104D01*
X162416504Y-129904206D01*
X162401527Y-129809641D01*
X162400000Y-129790244D01*
X162400000Y-118409755D01*
X162401527Y-118390358D01*
X162416504Y-118295793D01*
X162416505Y-118295788D01*
X162428490Y-118258898D01*
X162467479Y-118182379D01*
X162490278Y-118151000D01*
X162551000Y-118090278D01*
X162582379Y-118067479D01*
X162658898Y-118028490D01*
X162695784Y-118016505D01*
X162790370Y-118001525D01*
X162809756Y-118000000D01*
X175590244Y-118000000D01*
X175609641Y-118001527D01*
G37*
G04 #@! TD.AperFunction*
G04 #@! TA.AperFunction,Conductor*
G36*
X115609641Y-118001527D02*
G01*
X115704207Y-118016504D01*
X115741102Y-118028491D01*
X115817617Y-118067477D01*
X115819524Y-118068863D01*
X115820748Y-118069130D01*
X115849002Y-118090281D01*
X115909718Y-118150997D01*
X115932522Y-118182383D01*
X115971507Y-118258895D01*
X115983495Y-118295792D01*
X115998473Y-118390357D01*
X116000000Y-118409755D01*
X116000000Y-126190244D01*
X115998473Y-126209642D01*
X115983495Y-126304207D01*
X115971507Y-126341104D01*
X115932522Y-126417616D01*
X115909718Y-126449002D01*
X115849002Y-126509718D01*
X115817616Y-126532522D01*
X115741104Y-126571507D01*
X115704207Y-126583495D01*
X115624425Y-126596131D01*
X115609640Y-126598473D01*
X115590244Y-126600000D01*
X105599995Y-126600000D01*
X105476395Y-126619575D01*
X105402055Y-126657454D01*
X105364886Y-126676393D01*
X105364885Y-126676394D01*
X105364880Y-126676397D01*
X105276397Y-126764880D01*
X105276394Y-126764885D01*
X105219575Y-126876395D01*
X105200000Y-126999994D01*
X105200000Y-129790244D01*
X105198473Y-129809641D01*
X105198473Y-129809642D01*
X105183495Y-129904207D01*
X105171507Y-129941104D01*
X105132522Y-130017616D01*
X105109718Y-130049002D01*
X105049002Y-130109718D01*
X105017616Y-130132522D01*
X104941104Y-130171507D01*
X104904207Y-130183495D01*
X104824425Y-130196131D01*
X104809640Y-130198473D01*
X104790244Y-130200000D01*
X102809756Y-130200000D01*
X102790359Y-130198473D01*
X102771258Y-130195447D01*
X102695792Y-130183495D01*
X102658895Y-130171507D01*
X102582383Y-130132522D01*
X102550997Y-130109718D01*
X102490281Y-130049002D01*
X102467477Y-130017616D01*
X102428492Y-129941104D01*
X102416504Y-129904206D01*
X102401527Y-129809641D01*
X102400000Y-129790244D01*
X102400000Y-118409755D01*
X102401527Y-118390358D01*
X102416504Y-118295793D01*
X102416505Y-118295788D01*
X102428490Y-118258898D01*
X102467479Y-118182379D01*
X102490278Y-118151000D01*
X102551000Y-118090278D01*
X102582379Y-118067479D01*
X102658898Y-118028490D01*
X102695784Y-118016505D01*
X102790370Y-118001525D01*
X102809756Y-118000000D01*
X115590244Y-118000000D01*
X115609641Y-118001527D01*
G37*
G04 #@! TD.AperFunction*
G04 #@! TA.AperFunction,Conductor*
G36*
X175609641Y-88001527D02*
G01*
X175704207Y-88016504D01*
X175741102Y-88028491D01*
X175817617Y-88067477D01*
X175819524Y-88068863D01*
X175820748Y-88069130D01*
X175849002Y-88090281D01*
X175909718Y-88150997D01*
X175932522Y-88182383D01*
X175971507Y-88258895D01*
X175983495Y-88295792D01*
X175998473Y-88390357D01*
X176000000Y-88409755D01*
X176000000Y-96190244D01*
X175998473Y-96209642D01*
X175983495Y-96304207D01*
X175971507Y-96341104D01*
X175932522Y-96417616D01*
X175909718Y-96449002D01*
X175849002Y-96509718D01*
X175817616Y-96532522D01*
X175741104Y-96571507D01*
X175704207Y-96583495D01*
X175624425Y-96596131D01*
X175609640Y-96598473D01*
X175590244Y-96600000D01*
X165599995Y-96600000D01*
X165476395Y-96619575D01*
X165402055Y-96657454D01*
X165364886Y-96676393D01*
X165364885Y-96676394D01*
X165364880Y-96676397D01*
X165276397Y-96764880D01*
X165276394Y-96764885D01*
X165219575Y-96876395D01*
X165200000Y-96999994D01*
X165200000Y-99790244D01*
X165198473Y-99809641D01*
X165198473Y-99809642D01*
X165183495Y-99904207D01*
X165171507Y-99941104D01*
X165132522Y-100017616D01*
X165109718Y-100049002D01*
X165049002Y-100109718D01*
X165017616Y-100132522D01*
X164941104Y-100171507D01*
X164904207Y-100183495D01*
X164824425Y-100196131D01*
X164809640Y-100198473D01*
X164790244Y-100200000D01*
X162809756Y-100200000D01*
X162790359Y-100198473D01*
X162771258Y-100195447D01*
X162695792Y-100183495D01*
X162658895Y-100171507D01*
X162582383Y-100132522D01*
X162550997Y-100109718D01*
X162490281Y-100049002D01*
X162467477Y-100017616D01*
X162428492Y-99941104D01*
X162416504Y-99904206D01*
X162401527Y-99809641D01*
X162400000Y-99790244D01*
X162400000Y-88409755D01*
X162401527Y-88390358D01*
X162416504Y-88295793D01*
X162416505Y-88295788D01*
X162428490Y-88258898D01*
X162467479Y-88182379D01*
X162490278Y-88151000D01*
X162551000Y-88090278D01*
X162582379Y-88067479D01*
X162658898Y-88028490D01*
X162695784Y-88016505D01*
X162790370Y-88001525D01*
X162809756Y-88000000D01*
X175590244Y-88000000D01*
X175609641Y-88001527D01*
G37*
G04 #@! TD.AperFunction*
G04 #@! TA.AperFunction,Conductor*
G36*
X101409641Y-118001527D02*
G01*
X101504207Y-118016504D01*
X101541102Y-118028491D01*
X101617617Y-118067477D01*
X101619524Y-118068863D01*
X101620748Y-118069130D01*
X101649002Y-118090281D01*
X101709718Y-118150997D01*
X101732522Y-118182383D01*
X101771507Y-118258895D01*
X101783495Y-118295792D01*
X101798473Y-118390357D01*
X101800000Y-118409755D01*
X101800000Y-128790244D01*
X101798473Y-128809641D01*
X101798473Y-128809642D01*
X101783495Y-128904207D01*
X101771507Y-128941104D01*
X101732522Y-129017616D01*
X101709718Y-129049002D01*
X101649002Y-129109718D01*
X101617616Y-129132522D01*
X101541104Y-129171507D01*
X101504207Y-129183495D01*
X101424425Y-129196131D01*
X101409640Y-129198473D01*
X101390244Y-129200000D01*
X99209756Y-129200000D01*
X99190359Y-129198473D01*
X99171258Y-129195447D01*
X99095792Y-129183495D01*
X99058895Y-129171507D01*
X98982383Y-129132522D01*
X98950997Y-129109718D01*
X98890281Y-129049002D01*
X98867477Y-129017616D01*
X98828492Y-128941104D01*
X98816504Y-128904206D01*
X98801527Y-128809641D01*
X98800000Y-128790244D01*
X98800000Y-126999994D01*
X98780424Y-126876395D01*
X98780423Y-126876393D01*
X98723607Y-126764886D01*
X98723603Y-126764882D01*
X98723602Y-126764880D01*
X98635119Y-126676397D01*
X98635116Y-126676395D01*
X98635114Y-126676393D01*
X98523607Y-126619577D01*
X98523606Y-126619576D01*
X98523603Y-126619575D01*
X98523604Y-126619575D01*
X98400005Y-126600000D01*
X98400000Y-126600000D01*
X88409756Y-126600000D01*
X88390359Y-126598473D01*
X88371258Y-126595447D01*
X88295792Y-126583495D01*
X88258895Y-126571507D01*
X88182383Y-126532522D01*
X88150997Y-126509718D01*
X88090281Y-126449002D01*
X88067477Y-126417616D01*
X88028492Y-126341104D01*
X88016504Y-126304206D01*
X88001527Y-126209641D01*
X88000000Y-126190244D01*
X88000000Y-118409755D01*
X88001527Y-118390358D01*
X88016504Y-118295793D01*
X88016505Y-118295788D01*
X88028490Y-118258898D01*
X88067479Y-118182379D01*
X88090278Y-118151000D01*
X88151000Y-118090278D01*
X88182379Y-118067479D01*
X88258898Y-118028490D01*
X88295784Y-118016505D01*
X88390370Y-118001525D01*
X88409756Y-118000000D01*
X101390244Y-118000000D01*
X101409641Y-118001527D01*
G37*
G04 #@! TD.AperFunction*
G04 #@! TA.AperFunction,Conductor*
G36*
X115609641Y-127201527D02*
G01*
X115704207Y-127216504D01*
X115741102Y-127228491D01*
X115817617Y-127267477D01*
X115819524Y-127268863D01*
X115820748Y-127269130D01*
X115849002Y-127290281D01*
X115909718Y-127350997D01*
X115932522Y-127382383D01*
X115971507Y-127458895D01*
X115983495Y-127495792D01*
X115998473Y-127590357D01*
X116000000Y-127609755D01*
X116000000Y-137190244D01*
X115998473Y-137209641D01*
X115998473Y-137209642D01*
X115983495Y-137304207D01*
X115971507Y-137341104D01*
X115932522Y-137417616D01*
X115909718Y-137449002D01*
X115849002Y-137509718D01*
X115817616Y-137532522D01*
X115741104Y-137571507D01*
X115704207Y-137583495D01*
X115624425Y-137596131D01*
X115609640Y-137598473D01*
X115590244Y-137600000D01*
X106009756Y-137600000D01*
X105990359Y-137598473D01*
X105971258Y-137595447D01*
X105895792Y-137583495D01*
X105858895Y-137571507D01*
X105782383Y-137532522D01*
X105750997Y-137509718D01*
X105690281Y-137449002D01*
X105667477Y-137417616D01*
X105628492Y-137341104D01*
X105616504Y-137304206D01*
X105601527Y-137209641D01*
X105600000Y-137190244D01*
X105600000Y-132999994D01*
X105580424Y-132876395D01*
X105580423Y-132876393D01*
X105523607Y-132764886D01*
X105523603Y-132764882D01*
X105523602Y-132764880D01*
X105435119Y-132676397D01*
X105435116Y-132676395D01*
X105435114Y-132676393D01*
X105323607Y-132619577D01*
X105323606Y-132619576D01*
X105323603Y-132619575D01*
X105323604Y-132619575D01*
X105200005Y-132600000D01*
X105200000Y-132600000D01*
X102809756Y-132600000D01*
X102790359Y-132598473D01*
X102771258Y-132595447D01*
X102695792Y-132583495D01*
X102658895Y-132571507D01*
X102582383Y-132532522D01*
X102550997Y-132509718D01*
X102490281Y-132449002D01*
X102467477Y-132417616D01*
X102428492Y-132341104D01*
X102416504Y-132304206D01*
X102401527Y-132209641D01*
X102400000Y-132190244D01*
X102400000Y-131109755D01*
X102401527Y-131090358D01*
X102416504Y-130995793D01*
X102428490Y-130958898D01*
X102467479Y-130882379D01*
X102490278Y-130851000D01*
X102551000Y-130790278D01*
X102582379Y-130767479D01*
X102658898Y-130728490D01*
X102695784Y-130716505D01*
X102790370Y-130701525D01*
X102809756Y-130700000D01*
X105400005Y-130700000D01*
X105523604Y-130680424D01*
X105523605Y-130680423D01*
X105523607Y-130680423D01*
X105635114Y-130623607D01*
X105723607Y-130535114D01*
X105780423Y-130423607D01*
X105780423Y-130423605D01*
X105780424Y-130423604D01*
X105800000Y-130300005D01*
X105800000Y-127609755D01*
X105801527Y-127590358D01*
X105816504Y-127495793D01*
X105816505Y-127495788D01*
X105828490Y-127458898D01*
X105867479Y-127382379D01*
X105890278Y-127351000D01*
X105951000Y-127290278D01*
X105982379Y-127267479D01*
X106058898Y-127228490D01*
X106095784Y-127216505D01*
X106190370Y-127201525D01*
X106209756Y-127200000D01*
X115590244Y-127200000D01*
X115609641Y-127201527D01*
G37*
G04 #@! TD.AperFunction*
G04 #@! TA.AperFunction,Conductor*
G36*
X161409641Y-118001527D02*
G01*
X161504207Y-118016504D01*
X161541102Y-118028491D01*
X161617617Y-118067477D01*
X161619524Y-118068863D01*
X161620748Y-118069130D01*
X161649002Y-118090281D01*
X161709718Y-118150997D01*
X161732522Y-118182383D01*
X161771507Y-118258895D01*
X161783495Y-118295792D01*
X161798473Y-118390357D01*
X161800000Y-118409755D01*
X161800000Y-128790244D01*
X161798473Y-128809641D01*
X161798473Y-128809642D01*
X161783495Y-128904207D01*
X161771507Y-128941104D01*
X161732522Y-129017616D01*
X161709718Y-129049002D01*
X161649002Y-129109718D01*
X161617616Y-129132522D01*
X161541104Y-129171507D01*
X161504207Y-129183495D01*
X161424425Y-129196131D01*
X161409640Y-129198473D01*
X161390244Y-129200000D01*
X159209756Y-129200000D01*
X159190359Y-129198473D01*
X159171258Y-129195447D01*
X159095792Y-129183495D01*
X159058895Y-129171507D01*
X158982383Y-129132522D01*
X158950997Y-129109718D01*
X158890281Y-129049002D01*
X158867477Y-129017616D01*
X158828492Y-128941104D01*
X158816504Y-128904206D01*
X158801527Y-128809641D01*
X158800000Y-128790244D01*
X158800000Y-126999994D01*
X158780424Y-126876395D01*
X158780423Y-126876393D01*
X158723607Y-126764886D01*
X158723603Y-126764882D01*
X158723602Y-126764880D01*
X158635119Y-126676397D01*
X158635116Y-126676395D01*
X158635114Y-126676393D01*
X158523607Y-126619577D01*
X158523606Y-126619576D01*
X158523603Y-126619575D01*
X158523604Y-126619575D01*
X158400005Y-126600000D01*
X158400000Y-126600000D01*
X148409756Y-126600000D01*
X148390359Y-126598473D01*
X148371258Y-126595447D01*
X148295792Y-126583495D01*
X148258895Y-126571507D01*
X148182383Y-126532522D01*
X148150997Y-126509718D01*
X148090281Y-126449002D01*
X148067477Y-126417616D01*
X148028492Y-126341104D01*
X148016504Y-126304206D01*
X148001527Y-126209641D01*
X148000000Y-126190244D01*
X148000000Y-118409755D01*
X148001527Y-118390358D01*
X148016504Y-118295793D01*
X148016505Y-118295788D01*
X148028490Y-118258898D01*
X148067479Y-118182379D01*
X148090278Y-118151000D01*
X148151000Y-118090278D01*
X148182379Y-118067479D01*
X148258898Y-118028490D01*
X148295784Y-118016505D01*
X148390370Y-118001525D01*
X148409756Y-118000000D01*
X161390244Y-118000000D01*
X161409641Y-118001527D01*
G37*
G04 #@! TD.AperFunction*
G04 #@! TA.AperFunction,Conductor*
G36*
X177925270Y-52220185D02*
G01*
X177971025Y-52272989D01*
X177980969Y-52342147D01*
X177951944Y-52405703D01*
X177935544Y-52421447D01*
X177764435Y-52557901D01*
X177557901Y-52764435D01*
X177375791Y-52992795D01*
X177220393Y-53240109D01*
X177093665Y-53503261D01*
X176997197Y-53778953D01*
X176997196Y-53778955D01*
X176932202Y-54063714D01*
X176932199Y-54063728D01*
X176899500Y-54353952D01*
X176899500Y-54646047D01*
X176932199Y-54936271D01*
X176932202Y-54936285D01*
X176997196Y-55221044D01*
X176997197Y-55221046D01*
X177093665Y-55496738D01*
X177220393Y-55759890D01*
X177220395Y-55759893D01*
X177375792Y-56007206D01*
X177557902Y-56235565D01*
X177764435Y-56442098D01*
X177992794Y-56624208D01*
X178240107Y-56779605D01*
X178503263Y-56906335D01*
X178778955Y-57002803D01*
X179063714Y-57067798D01*
X179063723Y-57067799D01*
X179063728Y-57067800D01*
X179257210Y-57089599D01*
X179353953Y-57100499D01*
X179353956Y-57100500D01*
X179353959Y-57100500D01*
X179646044Y-57100500D01*
X179646045Y-57100499D01*
X179794371Y-57083787D01*
X179936271Y-57067800D01*
X179936274Y-57067799D01*
X179936286Y-57067798D01*
X180221045Y-57002803D01*
X180496737Y-56906335D01*
X180759893Y-56779605D01*
X181007206Y-56624208D01*
X181235565Y-56442098D01*
X181442098Y-56235565D01*
X181534953Y-56119129D01*
X181578553Y-56064456D01*
X181635741Y-56024315D01*
X181705553Y-56021465D01*
X181765823Y-56056810D01*
X181797416Y-56119129D01*
X181799500Y-56141768D01*
X181799500Y-85162497D01*
X181789899Y-85195192D01*
X181780762Y-85228040D01*
X181780074Y-85228653D01*
X181779815Y-85229536D01*
X181754080Y-85251834D01*
X181728617Y-85274544D01*
X181727460Y-85274901D01*
X181727011Y-85275291D01*
X181694898Y-85284969D01*
X181609640Y-85298473D01*
X181590244Y-85300000D01*
X82409756Y-85300000D01*
X82390359Y-85298473D01*
X82305101Y-85284969D01*
X82241968Y-85255041D01*
X82205036Y-85195730D01*
X82200500Y-85162497D01*
X82200500Y-80720000D01*
X83270203Y-80720000D01*
X83309194Y-80796521D01*
X83410967Y-80936602D01*
X83533397Y-81059032D01*
X83673475Y-81160804D01*
X83827744Y-81239408D01*
X83992414Y-81292913D01*
X84100000Y-81309953D01*
X84100000Y-81309952D01*
X85100000Y-81309952D01*
X85207584Y-81292913D01*
X85207587Y-81292913D01*
X85372255Y-81239408D01*
X85526524Y-81160804D01*
X85666602Y-81059032D01*
X85789032Y-80936602D01*
X85890805Y-80796521D01*
X85929796Y-80720000D01*
X87070203Y-80720000D01*
X87109194Y-80796521D01*
X87210967Y-80936602D01*
X87333397Y-81059032D01*
X87473475Y-81160804D01*
X87627744Y-81239408D01*
X87792414Y-81292913D01*
X87900000Y-81309953D01*
X87900000Y-81309952D01*
X88900000Y-81309952D01*
X89007584Y-81292913D01*
X89007587Y-81292913D01*
X89172255Y-81239408D01*
X89326524Y-81160804D01*
X89466602Y-81059032D01*
X89589032Y-80936602D01*
X89690805Y-80796521D01*
X89729796Y-80720000D01*
X88900000Y-80720000D01*
X88900000Y-81309952D01*
X87900000Y-81309952D01*
X87900000Y-80720000D01*
X87070203Y-80720000D01*
X85929796Y-80720000D01*
X85100000Y-80720000D01*
X85100000Y-81309952D01*
X84100000Y-81309952D01*
X84100000Y-80720000D01*
X83270203Y-80720000D01*
X82200500Y-80720000D01*
X82200500Y-80170272D01*
X84000000Y-80170272D01*
X84000000Y-80269728D01*
X84038060Y-80361614D01*
X84108386Y-80431940D01*
X84200272Y-80470000D01*
X84999728Y-80470000D01*
X85091614Y-80431940D01*
X85161940Y-80361614D01*
X85200000Y-80269728D01*
X85200000Y-80170272D01*
X87800000Y-80170272D01*
X87800000Y-80269728D01*
X87838060Y-80361614D01*
X87908386Y-80431940D01*
X88000272Y-80470000D01*
X88799728Y-80470000D01*
X88891614Y-80431940D01*
X88961940Y-80361614D01*
X89000000Y-80269728D01*
X89000000Y-80170272D01*
X88961940Y-80078386D01*
X88891614Y-80008060D01*
X88799728Y-79970000D01*
X88000272Y-79970000D01*
X87908386Y-80008060D01*
X87838060Y-80078386D01*
X87800000Y-80170272D01*
X85200000Y-80170272D01*
X85161940Y-80078386D01*
X85091614Y-80008060D01*
X84999728Y-79970000D01*
X84200272Y-79970000D01*
X84108386Y-80008060D01*
X84038060Y-80078386D01*
X84000000Y-80170272D01*
X82200500Y-80170272D01*
X82200500Y-79719999D01*
X83270203Y-79719999D01*
X83270204Y-79720000D01*
X84100000Y-79720000D01*
X85100000Y-79720000D01*
X85929796Y-79720000D01*
X85929796Y-79719999D01*
X87070203Y-79719999D01*
X87070204Y-79720000D01*
X87900000Y-79720000D01*
X88900000Y-79720000D01*
X89729796Y-79720000D01*
X89729796Y-79719999D01*
X89690805Y-79643478D01*
X89589032Y-79503397D01*
X89466602Y-79380967D01*
X89326524Y-79279195D01*
X89172257Y-79200591D01*
X89007584Y-79147085D01*
X88900000Y-79130045D01*
X88900000Y-79720000D01*
X87900000Y-79720000D01*
X87900000Y-79130045D01*
X87792415Y-79147085D01*
X87627742Y-79200591D01*
X87473475Y-79279195D01*
X87333397Y-79380967D01*
X87210967Y-79503397D01*
X87109194Y-79643478D01*
X87070203Y-79719999D01*
X85929796Y-79719999D01*
X85890805Y-79643478D01*
X85789032Y-79503397D01*
X85666602Y-79380967D01*
X85526524Y-79279195D01*
X85372257Y-79200591D01*
X85207584Y-79147085D01*
X85100000Y-79130045D01*
X85100000Y-79720000D01*
X84100000Y-79720000D01*
X84100000Y-79130045D01*
X83992415Y-79147085D01*
X83827742Y-79200591D01*
X83673475Y-79279195D01*
X83533397Y-79380967D01*
X83410967Y-79503397D01*
X83309194Y-79643478D01*
X83270203Y-79719999D01*
X82200500Y-79719999D01*
X82200500Y-77958443D01*
X102393250Y-77958443D01*
X102393250Y-78116557D01*
X102419333Y-78213898D01*
X102434173Y-78269283D01*
X102434176Y-78269290D01*
X102513225Y-78406209D01*
X102513229Y-78406214D01*
X102513230Y-78406216D01*
X102625034Y-78518020D01*
X102625036Y-78518021D01*
X102625040Y-78518024D01*
X102728800Y-78577929D01*
X102761966Y-78597077D01*
X102914693Y-78638000D01*
X102914695Y-78638000D01*
X103072805Y-78638000D01*
X103072807Y-78638000D01*
X103225534Y-78597077D01*
X103362466Y-78518020D01*
X103474270Y-78406216D01*
X103553327Y-78269284D01*
X103594250Y-78116557D01*
X103594250Y-78114730D01*
X103595101Y-78100228D01*
X103599729Y-78060928D01*
X103627119Y-77996651D01*
X103664424Y-77966072D01*
X103702671Y-77945631D01*
X103725114Y-77936334D01*
X103798762Y-77913996D01*
X103822583Y-77909259D01*
X103889212Y-77902699D01*
X103905484Y-77901097D01*
X103917631Y-77900500D01*
X103968894Y-77900501D01*
X103968897Y-77900500D01*
X104394256Y-77900500D01*
X104461295Y-77920185D01*
X104507050Y-77972989D01*
X104516994Y-78042147D01*
X104515873Y-78048691D01*
X104499500Y-78131002D01*
X104499500Y-78131007D01*
X104499500Y-78268993D01*
X104499500Y-78268995D01*
X104499499Y-78268995D01*
X104526418Y-78404322D01*
X104526421Y-78404332D01*
X104579221Y-78531804D01*
X104579228Y-78531817D01*
X104655885Y-78646541D01*
X104655888Y-78646545D01*
X104753455Y-78744112D01*
X104753458Y-78744114D01*
X104810894Y-78782492D01*
X104821668Y-78790571D01*
X104838811Y-78804946D01*
X104838812Y-78804947D01*
X105009974Y-78901359D01*
X105009994Y-78901370D01*
X105028138Y-78910805D01*
X105029558Y-78911484D01*
X105029577Y-78911493D01*
X105048376Y-78919712D01*
X105048504Y-78919768D01*
X105163783Y-78965589D01*
X105164611Y-78965913D01*
X105166796Y-78966768D01*
X105224481Y-78988971D01*
X105235326Y-78993752D01*
X105261567Y-79006853D01*
X105267066Y-79009598D01*
X105282309Y-79018621D01*
X105292227Y-79025496D01*
X105292231Y-79025498D01*
X105292232Y-79025500D01*
X105292233Y-79025500D01*
X105311643Y-79038952D01*
X105315588Y-79041687D01*
X105320187Y-79044874D01*
X105332733Y-79054828D01*
X105390744Y-79107299D01*
X105405646Y-79120777D01*
X105412254Y-79124842D01*
X105434961Y-79142775D01*
X106730738Y-80438551D01*
X106777330Y-80485144D01*
X106777330Y-80485143D01*
X106823927Y-80531740D01*
X106823945Y-80531750D01*
X106835919Y-80543723D01*
X106850968Y-80558772D01*
X106850976Y-80558779D01*
X107016198Y-80685561D01*
X107016202Y-80685564D01*
X107016207Y-80685567D01*
X107016215Y-80685572D01*
X107196556Y-80789695D01*
X107196560Y-80789696D01*
X107196569Y-80789702D01*
X107388987Y-80869406D01*
X107590161Y-80923312D01*
X107796651Y-80950499D01*
X107824899Y-80950499D01*
X107834896Y-80950499D01*
X107834899Y-80950500D01*
X107900787Y-80950500D01*
X107966679Y-80950501D01*
X107966683Y-80950500D01*
X130669735Y-80950500D01*
X130678900Y-80950839D01*
X130688289Y-80951534D01*
X130706451Y-80955703D01*
X130791172Y-80959160D01*
X130793223Y-80959312D01*
X130793722Y-80959499D01*
X130801693Y-80960233D01*
X130834802Y-80964990D01*
X130855322Y-80969746D01*
X130934892Y-80995478D01*
X130948020Y-81000563D01*
X130978688Y-81014496D01*
X130981942Y-81015952D01*
X130982210Y-81016070D01*
X130985955Y-81017689D01*
X131083359Y-81059032D01*
X131113742Y-81071928D01*
X131132936Y-81079321D01*
X131132952Y-81079327D01*
X131134445Y-81079845D01*
X131154220Y-81085964D01*
X131329524Y-81133762D01*
X131339354Y-81136267D01*
X131340121Y-81136449D01*
X131340128Y-81136450D01*
X131340143Y-81136454D01*
X131349360Y-81138363D01*
X131357271Y-81140003D01*
X131364525Y-81139936D01*
X131389851Y-81142313D01*
X131431007Y-81150500D01*
X131568995Y-81150500D01*
X131660041Y-81132389D01*
X131704328Y-81123580D01*
X131811179Y-81079321D01*
X131831804Y-81070778D01*
X131831804Y-81070777D01*
X131831811Y-81070775D01*
X131857608Y-81053537D01*
X131924284Y-81032659D01*
X131991664Y-81051142D01*
X132038356Y-81103120D01*
X132050500Y-81156639D01*
X132050500Y-81534825D01*
X132050126Y-81544450D01*
X132049402Y-81553743D01*
X132045300Y-81571442D01*
X132041937Y-81649625D01*
X132041770Y-81651772D01*
X132041563Y-81652315D01*
X132040772Y-81660542D01*
X132036728Y-81687501D01*
X132031535Y-81708919D01*
X132008269Y-81777546D01*
X132001899Y-81792874D01*
X131983361Y-81830212D01*
X131981340Y-81834357D01*
X131981313Y-81834413D01*
X131979974Y-81837252D01*
X131919977Y-81966226D01*
X131910662Y-81988517D01*
X131910029Y-81990219D01*
X131902513Y-82013141D01*
X131851636Y-82191842D01*
X131848610Y-82203316D01*
X131848386Y-82204239D01*
X131844449Y-82222984D01*
X131844449Y-82222987D01*
X131844509Y-82229556D01*
X131842131Y-82254877D01*
X131833814Y-82296688D01*
X131833814Y-82296693D01*
X131833814Y-82434679D01*
X131833814Y-82434681D01*
X131833813Y-82434681D01*
X131860732Y-82570008D01*
X131860735Y-82570018D01*
X131913535Y-82697490D01*
X131913542Y-82697503D01*
X131990199Y-82812227D01*
X131990202Y-82812231D01*
X132087768Y-82909797D01*
X132087772Y-82909800D01*
X132202496Y-82986457D01*
X132202509Y-82986464D01*
X132329981Y-83039264D01*
X132329986Y-83039266D01*
X132329990Y-83039266D01*
X132329991Y-83039267D01*
X132465318Y-83066186D01*
X132465321Y-83066186D01*
X132603309Y-83066186D01*
X132719936Y-83042987D01*
X132789528Y-83049214D01*
X132844705Y-83092077D01*
X132867950Y-83157966D01*
X132868128Y-83164604D01*
X132868128Y-83501103D01*
X132867789Y-83510270D01*
X132867093Y-83519657D01*
X132862924Y-83537824D01*
X132859466Y-83622537D01*
X132859313Y-83624607D01*
X132859124Y-83625107D01*
X132858392Y-83633072D01*
X132853635Y-83666177D01*
X132848881Y-83686691D01*
X132823152Y-83766254D01*
X132818066Y-83779384D01*
X132804083Y-83810166D01*
X132801029Y-83817116D01*
X132746710Y-83945085D01*
X132739320Y-83964262D01*
X132738799Y-83965762D01*
X132732662Y-83985588D01*
X132684852Y-84160942D01*
X132682291Y-84171009D01*
X132682105Y-84171799D01*
X132678623Y-84188641D01*
X132678690Y-84195908D01*
X132676313Y-84221223D01*
X132668128Y-84262377D01*
X132668128Y-84262379D01*
X132668128Y-84400365D01*
X132668128Y-84400367D01*
X132668127Y-84400367D01*
X132695046Y-84535694D01*
X132695049Y-84535704D01*
X132747849Y-84663176D01*
X132747856Y-84663189D01*
X132824513Y-84777913D01*
X132824516Y-84777917D01*
X132922082Y-84875483D01*
X132922086Y-84875486D01*
X133036810Y-84952143D01*
X133036823Y-84952150D01*
X133164295Y-85004950D01*
X133164300Y-85004952D01*
X133164304Y-85004952D01*
X133164305Y-85004953D01*
X133299632Y-85031872D01*
X133299635Y-85031872D01*
X133437623Y-85031872D01*
X133528669Y-85013761D01*
X133572956Y-85004952D01*
X133700439Y-84952147D01*
X133815170Y-84875486D01*
X133912742Y-84777914D01*
X133989403Y-84663183D01*
X134042208Y-84535700D01*
X134069128Y-84400365D01*
X134069128Y-84262379D01*
X134055648Y-84194616D01*
X134053744Y-84181292D01*
X134051787Y-84159007D01*
X133998922Y-83969772D01*
X133992696Y-83950080D01*
X133992171Y-83948596D01*
X133984699Y-83929533D01*
X133936242Y-83817142D01*
X133935611Y-83815678D01*
X133935563Y-83815568D01*
X133934229Y-83812519D01*
X133909197Y-83756158D01*
X133904911Y-83745115D01*
X133893674Y-83711475D01*
X133889274Y-83694301D01*
X133881059Y-83648974D01*
X133879227Y-83633072D01*
X133878913Y-83626811D01*
X133874301Y-83534865D01*
X133872503Y-83527323D01*
X133869128Y-83498586D01*
X133869128Y-80145438D01*
X133869109Y-80145153D01*
X133869110Y-80115293D01*
X133841929Y-79908804D01*
X133788029Y-79707629D01*
X133708331Y-79515211D01*
X133604200Y-79334842D01*
X133604197Y-79334838D01*
X133604193Y-79334831D01*
X133477424Y-79169615D01*
X133477414Y-79169603D01*
X133463894Y-79156083D01*
X133450372Y-79142560D01*
X133450369Y-79142555D01*
X133393378Y-79085564D01*
X133393377Y-79085562D01*
X133351827Y-79044011D01*
X133351808Y-79043994D01*
X133070619Y-78762805D01*
X133070525Y-78762722D01*
X133049027Y-78741224D01*
X133019503Y-78718569D01*
X132883797Y-78614435D01*
X132703429Y-78510298D01*
X132511012Y-78430594D01*
X132309837Y-78376687D01*
X132309834Y-78376686D01*
X132309832Y-78376686D01*
X132103342Y-78349500D01*
X132065102Y-78349500D01*
X132065100Y-78349500D01*
X131999212Y-78349500D01*
X131933320Y-78349499D01*
X131933316Y-78349500D01*
X126306889Y-78349500D01*
X126294734Y-78348903D01*
X126198274Y-78339402D01*
X126174432Y-78334659D01*
X126087539Y-78308299D01*
X126065088Y-78299000D01*
X125998868Y-78263603D01*
X125949028Y-78214643D01*
X125936869Y-78183626D01*
X125936863Y-78183628D01*
X125936850Y-78183578D01*
X125936837Y-78183544D01*
X125936719Y-78183060D01*
X125904213Y-78054975D01*
X125898198Y-78034347D01*
X125897875Y-78033370D01*
X125897676Y-78032766D01*
X125890131Y-78012380D01*
X125860813Y-77941079D01*
X125852487Y-77922600D01*
X125851804Y-77921208D01*
X125842288Y-77903350D01*
X125803548Y-77836110D01*
X125803525Y-77836071D01*
X125798495Y-77827656D01*
X125798099Y-77827017D01*
X125788796Y-77812893D01*
X125783514Y-77807711D01*
X125767254Y-77788090D01*
X125744114Y-77753458D01*
X125744112Y-77753455D01*
X125646544Y-77655887D01*
X125620696Y-77638616D01*
X125575907Y-77608689D01*
X125531103Y-77555078D01*
X125522396Y-77485754D01*
X125552550Y-77422726D01*
X125557099Y-77417926D01*
X130150711Y-72824316D01*
X130166783Y-72808244D01*
X130175765Y-72800104D01*
X130265859Y-72726168D01*
X130286062Y-72712668D01*
X130383443Y-72660620D01*
X130405887Y-72651323D01*
X130511551Y-72619274D01*
X130535391Y-72614533D01*
X130651529Y-72603097D01*
X130663677Y-72602500D01*
X130715000Y-72602501D01*
X130715003Y-72602500D01*
X133742418Y-72602500D01*
X133800001Y-72602500D01*
X133891926Y-72602500D01*
X134074202Y-72578502D01*
X134251787Y-72530919D01*
X134421641Y-72460562D01*
X134580859Y-72368638D01*
X134726717Y-72256718D01*
X134791717Y-72191717D01*
X134814875Y-72168559D01*
X134856718Y-72126717D01*
X134968638Y-71980859D01*
X135060562Y-71821641D01*
X135130919Y-71651787D01*
X135178502Y-71474202D01*
X135202500Y-71291926D01*
X135202500Y-71200001D01*
X135202500Y-71142418D01*
X135202500Y-71142417D01*
X135202500Y-70851539D01*
X135202503Y-70850654D01*
X135202589Y-70838595D01*
X135203629Y-70834755D01*
X135202871Y-70798996D01*
X135202884Y-70797276D01*
X135203047Y-70796732D01*
X135203378Y-70787073D01*
X135205546Y-70762958D01*
X135205454Y-70762496D01*
X135203215Y-70744123D01*
X135202994Y-70739405D01*
X135203046Y-70737701D01*
X135202886Y-70737091D01*
X135202800Y-70735230D01*
X135202697Y-70734442D01*
X135202414Y-70732120D01*
X135202279Y-70730921D01*
X135201500Y-70717047D01*
X135201500Y-61203159D01*
X135201508Y-61203128D01*
X135201507Y-61114726D01*
X135201507Y-61054206D01*
X135199841Y-61041556D01*
X135176031Y-60860714D01*
X135176031Y-60860711D01*
X135125517Y-60672198D01*
X135050829Y-60491891D01*
X134953245Y-60322875D01*
X134947462Y-60315339D01*
X134834441Y-60168049D01*
X134834433Y-60168040D01*
X134533166Y-59866773D01*
X134524231Y-59856819D01*
X134519041Y-59850368D01*
X134511410Y-59837754D01*
X134485997Y-59809293D01*
X134484012Y-59806826D01*
X134481532Y-59800825D01*
X134464725Y-59773173D01*
X134457015Y-59752898D01*
X134451634Y-59734633D01*
X134449220Y-59723289D01*
X134448615Y-59720446D01*
X134447129Y-59713826D01*
X134447018Y-59713356D01*
X134445625Y-59707699D01*
X134417557Y-59598228D01*
X134410820Y-59575619D01*
X134410238Y-59573910D01*
X134401776Y-59551888D01*
X134374502Y-59488351D01*
X134374498Y-59488343D01*
X134374491Y-59488326D01*
X134366363Y-59470928D01*
X134366362Y-59470926D01*
X134366355Y-59470911D01*
X134365688Y-59469593D01*
X134356409Y-59452613D01*
X134319006Y-59389045D01*
X134314630Y-59381839D01*
X134314295Y-59381304D01*
X134305981Y-59368726D01*
X134305976Y-59368721D01*
X134301848Y-59363707D01*
X134302453Y-59363208D01*
X134288660Y-59345384D01*
X134287670Y-59343669D01*
X134280520Y-59331284D01*
X134168716Y-59219480D01*
X134168713Y-59219478D01*
X134168709Y-59219475D01*
X134031790Y-59140426D01*
X134031786Y-59140424D01*
X134031784Y-59140423D01*
X133879057Y-59099500D01*
X133720943Y-59099500D01*
X133568216Y-59140423D01*
X133568209Y-59140426D01*
X133431290Y-59219475D01*
X133431282Y-59219481D01*
X133319481Y-59331282D01*
X133319475Y-59331290D01*
X133240426Y-59468209D01*
X133240423Y-59468216D01*
X133199500Y-59620943D01*
X133199500Y-59779057D01*
X133223004Y-59866773D01*
X133240423Y-59931783D01*
X133240426Y-59931790D01*
X133319475Y-60068709D01*
X133319479Y-60068714D01*
X133319480Y-60068716D01*
X133431284Y-60180520D01*
X133431285Y-60180521D01*
X133431287Y-60180522D01*
X133460499Y-60197387D01*
X133480183Y-60211480D01*
X133488348Y-60218628D01*
X133488347Y-60218628D01*
X133488351Y-60218630D01*
X133488353Y-60218632D01*
X133548991Y-60254513D01*
X133554860Y-60257752D01*
X133564977Y-60263337D01*
X133564994Y-60263345D01*
X133565009Y-60263354D01*
X133566265Y-60263999D01*
X133566282Y-60264007D01*
X133583059Y-60271988D01*
X133644342Y-60298882D01*
X133644349Y-60298885D01*
X133666946Y-60307749D01*
X133668692Y-60308355D01*
X133691681Y-60315334D01*
X133691691Y-60315336D01*
X133691699Y-60315339D01*
X133762015Y-60333699D01*
X133806410Y-60345291D01*
X133811332Y-60346532D01*
X133811751Y-60346634D01*
X133817761Y-60348033D01*
X133842196Y-60353460D01*
X133849755Y-60355140D01*
X133861146Y-60360612D01*
X133870186Y-60361574D01*
X133894949Y-60376852D01*
X133900560Y-60379548D01*
X133902350Y-60380987D01*
X133941160Y-60414623D01*
X133952718Y-60421481D01*
X133959574Y-60426993D01*
X133961395Y-60429610D01*
X133969560Y-60435953D01*
X134194740Y-60661133D01*
X134202911Y-60670148D01*
X134276837Y-60760225D01*
X134290341Y-60780434D01*
X134339710Y-60872794D01*
X134342392Y-60877810D01*
X134351694Y-60900268D01*
X134383745Y-61005920D01*
X134388488Y-61029762D01*
X134399903Y-61145651D01*
X134400500Y-61157806D01*
X134400500Y-64851902D01*
X134380815Y-64918941D01*
X134328011Y-64964696D01*
X134258853Y-64974640D01*
X134195297Y-64945615D01*
X134188819Y-64939583D01*
X134168717Y-64919481D01*
X134168709Y-64919475D01*
X134031790Y-64840426D01*
X134031786Y-64840424D01*
X134031784Y-64840423D01*
X133879057Y-64799500D01*
X133720943Y-64799500D01*
X133568216Y-64840423D01*
X133568209Y-64840426D01*
X133431290Y-64919475D01*
X133431282Y-64919481D01*
X133319481Y-65031282D01*
X133319475Y-65031290D01*
X133240426Y-65168209D01*
X133240423Y-65168216D01*
X133199500Y-65320943D01*
X133199500Y-65479057D01*
X133223154Y-65567333D01*
X133240423Y-65631783D01*
X133240426Y-65631790D01*
X133319475Y-65768709D01*
X133319479Y-65768714D01*
X133319480Y-65768716D01*
X133431284Y-65880520D01*
X133431286Y-65880521D01*
X133431290Y-65880524D01*
X133568209Y-65959573D01*
X133568216Y-65959577D01*
X133720943Y-66000500D01*
X133722547Y-66000500D01*
X133737142Y-66001362D01*
X133751518Y-66003065D01*
X133792321Y-66007903D01*
X133856576Y-66035340D01*
X133873578Y-66052377D01*
X133886633Y-66068285D01*
X133900136Y-66088493D01*
X133946267Y-66174795D01*
X133955570Y-66197253D01*
X133983979Y-66290900D01*
X133988721Y-66314738D01*
X133998902Y-66418064D01*
X133999500Y-66430223D01*
X133999500Y-70475500D01*
X133979815Y-70542539D01*
X133927011Y-70588294D01*
X133875500Y-70599500D01*
X133720943Y-70599500D01*
X133568216Y-70640423D01*
X133568209Y-70640426D01*
X133431283Y-70719479D01*
X133412174Y-70738588D01*
X133408018Y-70742556D01*
X133344630Y-70800322D01*
X133314098Y-70832503D01*
X133311965Y-70835107D01*
X133286420Y-70871364D01*
X133286411Y-70871378D01*
X133245549Y-70939373D01*
X133194144Y-70986695D01*
X133139265Y-70999500D01*
X130366254Y-70999500D01*
X130366206Y-70999486D01*
X130217296Y-70999487D01*
X130023807Y-71024964D01*
X130023791Y-71024967D01*
X129835293Y-71075477D01*
X129835289Y-71075479D01*
X129654988Y-71150165D01*
X129654971Y-71150173D01*
X129485979Y-71247744D01*
X129485970Y-71247750D01*
X129331136Y-71366561D01*
X129331133Y-71366563D01*
X129331133Y-71366564D01*
X129299421Y-71398278D01*
X123319407Y-77378290D01*
X123258084Y-77411775D01*
X123195624Y-77409237D01*
X123165109Y-77399950D01*
X123165087Y-77399944D01*
X123145226Y-77394977D01*
X123135258Y-77392484D01*
X123135253Y-77392483D01*
X123132964Y-77392031D01*
X123132946Y-77392028D01*
X123102428Y-77387594D01*
X123039767Y-77381701D01*
X123010240Y-77380360D01*
X123010181Y-77380359D01*
X123007979Y-77380366D01*
X123007951Y-77380366D01*
X123007943Y-77380367D01*
X122978362Y-77381895D01*
X122978355Y-77381895D01*
X122978349Y-77381896D01*
X122978331Y-77381897D01*
X122935913Y-77386157D01*
X122927528Y-77387000D01*
X122914693Y-77387000D01*
X122905263Y-77389526D01*
X122903216Y-77389781D01*
X122902143Y-77389940D01*
X122898478Y-77390614D01*
X122898470Y-77390615D01*
X122881247Y-77393783D01*
X122881238Y-77393785D01*
X122875305Y-77396304D01*
X122858961Y-77401931D01*
X122761968Y-77427922D01*
X122761959Y-77427926D01*
X122625040Y-77506975D01*
X122625032Y-77506981D01*
X122513231Y-77618782D01*
X122513225Y-77618790D01*
X122434176Y-77755709D01*
X122434173Y-77755716D01*
X122393250Y-77908443D01*
X122393250Y-78074684D01*
X122390188Y-78074684D01*
X122389792Y-78077218D01*
X122392227Y-78094147D01*
X122384519Y-78111024D01*
X122381660Y-78129355D01*
X122370306Y-78142145D01*
X122363202Y-78157703D01*
X122347594Y-78167733D01*
X122335278Y-78181609D01*
X122318511Y-78186423D01*
X122304424Y-78195477D01*
X122269489Y-78200500D01*
X122251692Y-78200500D01*
X122239538Y-78199903D01*
X122229537Y-78198918D01*
X122123566Y-78188480D01*
X122099726Y-78183738D01*
X122055104Y-78170202D01*
X121994067Y-78151686D01*
X121971616Y-78142386D01*
X121971165Y-78142145D01*
X121874245Y-78090339D01*
X121854034Y-78076835D01*
X121763929Y-78002886D01*
X121754914Y-77994715D01*
X121747855Y-77987656D01*
X121718529Y-77958329D01*
X121718526Y-77958327D01*
X120857478Y-77097278D01*
X120857477Y-77097277D01*
X120851864Y-77091664D01*
X120851724Y-77091541D01*
X120825763Y-77065580D01*
X120825762Y-77065579D01*
X120825757Y-77065574D01*
X120825753Y-77065571D01*
X120825751Y-77065569D01*
X120670931Y-76946767D01*
X120670924Y-76946762D01*
X120556197Y-76880524D01*
X120501911Y-76849181D01*
X120501906Y-76849179D01*
X120501898Y-76849174D01*
X120321603Y-76774491D01*
X120133097Y-76723978D01*
X120133098Y-76723978D01*
X119939601Y-76698501D01*
X119902352Y-76698501D01*
X119902334Y-76698500D01*
X119894742Y-76698500D01*
X115724205Y-76698500D01*
X115710629Y-76697755D01*
X115708601Y-76697531D01*
X115708483Y-76697500D01*
X115708314Y-76697500D01*
X115701550Y-76696755D01*
X115700963Y-76696510D01*
X115700423Y-76696439D01*
X115700442Y-76696292D01*
X115699957Y-76696090D01*
X115691782Y-76695383D01*
X115659161Y-76697232D01*
X115655239Y-76697392D01*
X115652473Y-76697461D01*
X115649381Y-76697500D01*
X115134119Y-76697500D01*
X115133874Y-76697515D01*
X115096755Y-76697515D01*
X114903261Y-76722985D01*
X114903259Y-76722985D01*
X114903255Y-76722986D01*
X114714755Y-76773490D01*
X114714749Y-76773492D01*
X114534446Y-76848171D01*
X114534430Y-76848179D01*
X114365432Y-76945746D01*
X114365415Y-76945757D01*
X114210598Y-77064548D01*
X114210584Y-77064559D01*
X114178865Y-77096277D01*
X114178864Y-77096278D01*
X113862383Y-77412758D01*
X113853368Y-77420930D01*
X113826905Y-77442648D01*
X113783920Y-77477926D01*
X113773125Y-77486785D01*
X113752914Y-77500289D01*
X113666761Y-77546341D01*
X113644309Y-77555642D01*
X113574023Y-77576965D01*
X113550837Y-77584000D01*
X113527001Y-77588742D01*
X113507014Y-77590712D01*
X113438367Y-77577698D01*
X113418065Y-77564675D01*
X113374971Y-77530689D01*
X113374957Y-77530678D01*
X113368840Y-77525854D01*
X113362466Y-77519480D01*
X113355512Y-77515465D01*
X113350227Y-77511458D01*
X113349505Y-77510932D01*
X113334043Y-77500377D01*
X113334039Y-77500374D01*
X113326613Y-77497378D01*
X113311021Y-77489777D01*
X113225538Y-77440425D01*
X113225536Y-77440424D01*
X113225534Y-77440423D01*
X113072807Y-77399500D01*
X112914693Y-77399500D01*
X112761966Y-77440423D01*
X112761959Y-77440426D01*
X112625040Y-77519475D01*
X112625032Y-77519481D01*
X112513231Y-77631282D01*
X112513225Y-77631290D01*
X112434176Y-77768209D01*
X112434173Y-77768216D01*
X112393250Y-77920943D01*
X112393250Y-78087184D01*
X112390187Y-78087184D01*
X112389792Y-78089713D01*
X112392227Y-78106646D01*
X112384521Y-78123518D01*
X112381664Y-78141846D01*
X112370308Y-78154640D01*
X112363202Y-78170202D01*
X112347596Y-78180230D01*
X112335285Y-78194103D01*
X112318518Y-78198918D01*
X112304424Y-78207976D01*
X112269489Y-78212999D01*
X112257913Y-78212999D01*
X112245764Y-78212402D01*
X112129800Y-78200985D01*
X112105958Y-78196244D01*
X112000299Y-78164197D01*
X111977841Y-78154895D01*
X111880469Y-78102853D01*
X111860256Y-78089349D01*
X111770420Y-78015627D01*
X111761401Y-78007452D01*
X111326670Y-77572720D01*
X111326630Y-77572647D01*
X111220523Y-77466545D01*
X111220518Y-77466540D01*
X111065684Y-77347737D01*
X111055083Y-77341617D01*
X111000091Y-77309869D01*
X110896659Y-77250155D01*
X110896649Y-77250151D01*
X110716357Y-77175476D01*
X110716354Y-77175475D01*
X110716349Y-77175473D01*
X110527832Y-77124966D01*
X110334335Y-77099497D01*
X110334329Y-77099497D01*
X110236752Y-77099500D01*
X103850978Y-77099500D01*
X103850643Y-77099521D01*
X103824938Y-77099521D01*
X103744117Y-77110159D01*
X103653639Y-77122068D01*
X103653638Y-77122068D01*
X103653637Y-77122069D01*
X103570190Y-77144426D01*
X103486743Y-77166783D01*
X103486732Y-77166787D01*
X103327121Y-77232895D01*
X103327110Y-77232900D01*
X103177488Y-77319279D01*
X103177477Y-77319286D01*
X103162893Y-77330476D01*
X103150353Y-77338934D01*
X103141392Y-77344212D01*
X103136971Y-77345857D01*
X103052718Y-77396451D01*
X103052179Y-77396769D01*
X103051502Y-77396939D01*
X103025934Y-77408376D01*
X102981897Y-77422019D01*
X102969326Y-77425204D01*
X102931169Y-77432772D01*
X102930815Y-77432841D01*
X102926219Y-77433738D01*
X102926040Y-77433774D01*
X102888084Y-77441195D01*
X102881108Y-77442644D01*
X102881093Y-77442648D01*
X102867598Y-77448373D01*
X102851275Y-77453991D01*
X102761970Y-77477921D01*
X102761959Y-77477926D01*
X102625040Y-77556975D01*
X102625032Y-77556981D01*
X102513231Y-77668782D01*
X102513225Y-77668790D01*
X102434176Y-77805709D01*
X102434173Y-77805716D01*
X102393250Y-77958443D01*
X82200500Y-77958443D01*
X82200500Y-73763970D01*
X82598491Y-73763970D01*
X82598492Y-73912892D01*
X82623968Y-74106380D01*
X82623969Y-74106386D01*
X82674481Y-74294899D01*
X82674487Y-74294916D01*
X82749165Y-74475196D01*
X82749170Y-74475208D01*
X82826133Y-74608509D01*
X82846752Y-74644221D01*
X82846756Y-74644227D01*
X82965560Y-74799054D01*
X82997278Y-74830771D01*
X82997279Y-74830772D01*
X83975295Y-75808789D01*
X83975386Y-75808868D01*
X84000946Y-75834428D01*
X84000947Y-75834429D01*
X84155779Y-75953239D01*
X84324794Y-76050822D01*
X84505101Y-76125509D01*
X84505104Y-76125509D01*
X84505107Y-76125511D01*
X84693609Y-76176022D01*
X84693610Y-76176022D01*
X84693613Y-76176023D01*
X84887106Y-76201499D01*
X84921962Y-76201499D01*
X84921974Y-76201500D01*
X84931964Y-76201500D01*
X84984688Y-76201500D01*
X85042271Y-76201500D01*
X86371337Y-76201500D01*
X86383475Y-76202096D01*
X86486644Y-76212260D01*
X86510458Y-76216998D01*
X86603805Y-76245318D01*
X86626239Y-76254611D01*
X86712256Y-76300589D01*
X86732463Y-76314091D01*
X86747701Y-76326597D01*
X86787035Y-76384340D01*
X86792183Y-76407931D01*
X86798585Y-76462240D01*
X86798595Y-76462319D01*
X86799500Y-76469996D01*
X86799500Y-76479057D01*
X86801586Y-76486842D01*
X86802503Y-76493505D01*
X86802603Y-76494138D01*
X86802642Y-76494385D01*
X86806097Y-76512689D01*
X86806099Y-76512693D01*
X86809220Y-76520035D01*
X86814879Y-76536453D01*
X86840424Y-76631786D01*
X86840426Y-76631790D01*
X86919475Y-76768709D01*
X86919479Y-76768714D01*
X86919480Y-76768716D01*
X87031284Y-76880520D01*
X87031286Y-76880521D01*
X87031290Y-76880524D01*
X87146023Y-76946764D01*
X87168216Y-76959577D01*
X87320943Y-77000500D01*
X87320945Y-77000500D01*
X87479055Y-77000500D01*
X87479057Y-77000500D01*
X87631784Y-76959577D01*
X87768716Y-76880520D01*
X87880520Y-76768716D01*
X87959577Y-76631784D01*
X88000500Y-76479057D01*
X88000500Y-76320943D01*
X87959577Y-76168216D01*
X87959573Y-76168209D01*
X87880524Y-76031290D01*
X87880518Y-76031282D01*
X87836917Y-75987681D01*
X87803432Y-75926358D01*
X87808416Y-75856666D01*
X87836917Y-75812319D01*
X87846515Y-75802721D01*
X87880520Y-75768716D01*
X87959577Y-75631784D01*
X88000500Y-75479057D01*
X88000500Y-75320943D01*
X87959577Y-75168216D01*
X87959573Y-75168209D01*
X87880524Y-75031290D01*
X87880518Y-75031282D01*
X87768717Y-74919481D01*
X87768709Y-74919475D01*
X87631790Y-74840426D01*
X87631786Y-74840424D01*
X87631784Y-74840423D01*
X87479057Y-74799500D01*
X87320943Y-74799500D01*
X87288356Y-74808231D01*
X87264485Y-74812182D01*
X87253649Y-74812901D01*
X87253636Y-74812903D01*
X87185364Y-74830414D01*
X87167583Y-74835553D01*
X87166283Y-74835972D01*
X87148952Y-74842137D01*
X87086591Y-74866458D01*
X87064506Y-74876090D01*
X87062860Y-74876886D01*
X87041513Y-74888282D01*
X86939098Y-74948287D01*
X86933815Y-74951454D01*
X86933565Y-74951607D01*
X86929289Y-74954280D01*
X86929234Y-74954314D01*
X86929218Y-74954325D01*
X86901559Y-74971929D01*
X86889637Y-74976112D01*
X86882567Y-74981824D01*
X86854248Y-74988532D01*
X86848379Y-74990592D01*
X86846093Y-74990840D01*
X86794864Y-74994500D01*
X86781838Y-74997823D01*
X86773093Y-74998774D01*
X86769955Y-74998211D01*
X86759696Y-74999500D01*
X85156888Y-74999500D01*
X85144734Y-74998903D01*
X85130759Y-74997526D01*
X85028761Y-74987479D01*
X85004922Y-74982737D01*
X84987757Y-74977530D01*
X84899266Y-74950686D01*
X84876814Y-74941385D01*
X84779441Y-74889336D01*
X84759230Y-74875831D01*
X84669091Y-74801854D01*
X84660076Y-74793683D01*
X84006255Y-74139862D01*
X83998091Y-74130856D01*
X83924155Y-74040766D01*
X83910655Y-74020561D01*
X83858607Y-73923187D01*
X83849305Y-73900730D01*
X83817252Y-73795071D01*
X83812512Y-73771242D01*
X83801097Y-73655346D01*
X83800500Y-73643192D01*
X83800500Y-72761228D01*
X83820185Y-72694189D01*
X83872989Y-72648434D01*
X83942147Y-72638490D01*
X83962819Y-72643297D01*
X83992416Y-72652914D01*
X84100000Y-72669953D01*
X84100000Y-72669952D01*
X85100000Y-72669952D01*
X85207584Y-72652913D01*
X85207587Y-72652913D01*
X85372255Y-72599408D01*
X85526524Y-72520804D01*
X85666602Y-72419032D01*
X85789032Y-72296602D01*
X85890805Y-72156521D01*
X85929796Y-72080000D01*
X87070203Y-72080000D01*
X87109194Y-72156521D01*
X87210967Y-72296602D01*
X87333397Y-72419032D01*
X87473475Y-72520804D01*
X87627744Y-72599408D01*
X87792414Y-72652913D01*
X87900000Y-72669953D01*
X87900000Y-72669952D01*
X88900000Y-72669952D01*
X89007584Y-72652913D01*
X89007587Y-72652913D01*
X89172255Y-72599408D01*
X89326524Y-72520804D01*
X89466602Y-72419032D01*
X89589032Y-72296602D01*
X89690805Y-72156521D01*
X89729796Y-72080000D01*
X88900000Y-72080000D01*
X88900000Y-72669952D01*
X87900000Y-72669952D01*
X87900000Y-72080000D01*
X87070203Y-72080000D01*
X85929796Y-72080000D01*
X85100000Y-72080000D01*
X85100000Y-72669952D01*
X84100000Y-72669952D01*
X84100000Y-71783554D01*
X84108386Y-71791940D01*
X84200272Y-71830000D01*
X84999728Y-71830000D01*
X85091614Y-71791940D01*
X85161940Y-71721614D01*
X85200000Y-71629728D01*
X85200000Y-71530272D01*
X87800000Y-71530272D01*
X87800000Y-71629728D01*
X87838060Y-71721614D01*
X87908386Y-71791940D01*
X88000272Y-71830000D01*
X88799728Y-71830000D01*
X88891614Y-71791940D01*
X88961940Y-71721614D01*
X89000000Y-71629728D01*
X89000000Y-71530272D01*
X88961940Y-71438386D01*
X88891614Y-71368060D01*
X88799728Y-71330000D01*
X88000272Y-71330000D01*
X87908386Y-71368060D01*
X87838060Y-71438386D01*
X87800000Y-71530272D01*
X85200000Y-71530272D01*
X85161940Y-71438386D01*
X85091614Y-71368060D01*
X84999728Y-71330000D01*
X84200272Y-71330000D01*
X84108386Y-71368060D01*
X84100000Y-71376446D01*
X84100000Y-71080000D01*
X85100000Y-71080000D01*
X85929796Y-71080000D01*
X85929796Y-71079999D01*
X87070203Y-71079999D01*
X87070204Y-71080000D01*
X87900000Y-71080000D01*
X88900000Y-71080000D01*
X89729796Y-71080000D01*
X89729796Y-71079999D01*
X89690805Y-71003478D01*
X89589032Y-70863397D01*
X89466602Y-70740967D01*
X89326524Y-70639195D01*
X89172257Y-70560591D01*
X89007584Y-70507085D01*
X88900000Y-70490045D01*
X88900000Y-71080000D01*
X87900000Y-71080000D01*
X87900000Y-70490045D01*
X87792415Y-70507085D01*
X87627742Y-70560591D01*
X87473475Y-70639195D01*
X87333397Y-70740967D01*
X87210967Y-70863397D01*
X87109194Y-71003478D01*
X87070203Y-71079999D01*
X85929796Y-71079999D01*
X85890805Y-71003478D01*
X85789032Y-70863397D01*
X85666602Y-70740967D01*
X85526524Y-70639195D01*
X85372257Y-70560591D01*
X85207584Y-70507085D01*
X85100000Y-70490045D01*
X85100000Y-71080000D01*
X84100000Y-71080000D01*
X84100000Y-70490045D01*
X83992414Y-70507086D01*
X83992407Y-70507087D01*
X83962817Y-70516702D01*
X83892976Y-70518697D01*
X83833143Y-70482616D01*
X83802316Y-70419915D01*
X83800500Y-70398771D01*
X83800500Y-67725000D01*
X90680119Y-67725000D01*
X90680120Y-67725001D01*
X92134174Y-67725001D01*
X92007007Y-67759076D01*
X91892993Y-67824902D01*
X91799901Y-67917994D01*
X91734075Y-68032008D01*
X91700000Y-68159175D01*
X91700000Y-68290827D01*
X91734075Y-68417994D01*
X91799901Y-68532008D01*
X91892993Y-68625100D01*
X92007007Y-68690926D01*
X92134174Y-68725001D01*
X90680119Y-68725001D01*
X90717218Y-68839182D01*
X90717220Y-68839188D01*
X90831557Y-69063584D01*
X90979590Y-69267332D01*
X90979590Y-69267333D01*
X91157667Y-69445410D01*
X91361416Y-69593443D01*
X91585815Y-69707781D01*
X91825330Y-69785603D01*
X92074072Y-69825001D01*
X92800000Y-69825001D01*
X92800000Y-68725001D01*
X93800000Y-68725001D01*
X93800000Y-69825001D01*
X94525928Y-69825001D01*
X94774669Y-69785603D01*
X95014184Y-69707781D01*
X95238583Y-69593443D01*
X95442331Y-69445410D01*
X95442332Y-69445410D01*
X95620409Y-69267333D01*
X95620409Y-69267332D01*
X95768442Y-69063584D01*
X95882779Y-68839188D01*
X95882781Y-68839182D01*
X95919880Y-68725001D01*
X94465826Y-68725001D01*
X94592993Y-68690926D01*
X94707007Y-68625100D01*
X94800099Y-68532008D01*
X94865925Y-68417994D01*
X94900000Y-68290827D01*
X94900000Y-68159175D01*
X94865925Y-68032008D01*
X94800099Y-67917994D01*
X94707007Y-67824902D01*
X94592993Y-67759076D01*
X94465826Y-67725001D01*
X95919880Y-67725001D01*
X95919880Y-67725000D01*
X95882781Y-67610819D01*
X95882779Y-67610813D01*
X95768442Y-67386417D01*
X95620409Y-67182669D01*
X95620409Y-67182668D01*
X95442332Y-67004591D01*
X95238583Y-66856558D01*
X95014184Y-66742220D01*
X94774669Y-66664398D01*
X94525928Y-66625001D01*
X93800000Y-66625001D01*
X93800000Y-67725001D01*
X92800000Y-67725001D01*
X92800000Y-66625001D01*
X92074072Y-66625001D01*
X91825330Y-66664398D01*
X91585815Y-66742220D01*
X91361416Y-66856558D01*
X91157668Y-67004591D01*
X91157667Y-67004591D01*
X90979590Y-67182668D01*
X90979590Y-67182669D01*
X90831557Y-67386417D01*
X90717220Y-67610813D01*
X90717218Y-67610819D01*
X90680119Y-67725000D01*
X83800500Y-67725000D01*
X83800500Y-64206888D01*
X83801097Y-64194733D01*
X83812520Y-64078762D01*
X83817260Y-64054930D01*
X83849316Y-63949257D01*
X83858611Y-63926821D01*
X83910664Y-63829439D01*
X83924166Y-63809233D01*
X83998165Y-63719067D01*
X84006312Y-63710078D01*
X85517318Y-62199072D01*
X88300000Y-62199072D01*
X88300000Y-62925001D01*
X89400000Y-62925001D01*
X89400000Y-63925001D01*
X88300000Y-63925001D01*
X88300000Y-64650929D01*
X88339397Y-64899670D01*
X88417219Y-65139185D01*
X88531557Y-65363584D01*
X88679590Y-65567332D01*
X88679590Y-65567333D01*
X88857667Y-65745410D01*
X89061416Y-65893443D01*
X89285812Y-66007780D01*
X89285818Y-66007782D01*
X89399999Y-66044881D01*
X89400000Y-66044880D01*
X89400000Y-64590827D01*
X89434075Y-64717994D01*
X89499901Y-64832008D01*
X89592993Y-64925100D01*
X89707007Y-64990926D01*
X89834174Y-65025001D01*
X89965826Y-65025001D01*
X90092993Y-64990926D01*
X90207007Y-64925100D01*
X90300099Y-64832008D01*
X90365925Y-64717994D01*
X90400000Y-64590827D01*
X90400000Y-66044881D01*
X90514181Y-66007782D01*
X90514187Y-66007780D01*
X90738583Y-65893443D01*
X90942331Y-65745410D01*
X90942332Y-65745410D01*
X91120409Y-65567333D01*
X91120409Y-65567332D01*
X91268442Y-65363584D01*
X91382780Y-65139185D01*
X91460602Y-64899670D01*
X91500000Y-64650929D01*
X91500000Y-63925001D01*
X90400000Y-63925001D01*
X90400000Y-62925001D01*
X91500000Y-62925001D01*
X91500000Y-62199072D01*
X91460602Y-61950331D01*
X91382780Y-61710816D01*
X91268442Y-61486417D01*
X91120409Y-61282669D01*
X91120409Y-61282668D01*
X90942332Y-61104591D01*
X90908667Y-61080132D01*
X94899500Y-61080132D01*
X94899500Y-65769857D01*
X94899502Y-65769883D01*
X94902413Y-65794988D01*
X94902415Y-65794992D01*
X94947793Y-65897765D01*
X94947794Y-65897766D01*
X95027235Y-65977207D01*
X95130009Y-66022586D01*
X95155135Y-66025501D01*
X97244864Y-66025500D01*
X97244879Y-66025498D01*
X97244882Y-66025498D01*
X97269987Y-66022587D01*
X97269988Y-66022586D01*
X97269991Y-66022586D01*
X97372765Y-65977207D01*
X97452206Y-65897766D01*
X97497585Y-65794992D01*
X97500500Y-65769866D01*
X97500499Y-61080137D01*
X97500497Y-61080118D01*
X97497586Y-61055013D01*
X97497585Y-61055011D01*
X97497585Y-61055010D01*
X97452206Y-60952236D01*
X97372765Y-60872795D01*
X97345404Y-60860714D01*
X97269992Y-60827416D01*
X97244865Y-60824501D01*
X95155143Y-60824501D01*
X95155117Y-60824503D01*
X95130012Y-60827414D01*
X95130008Y-60827416D01*
X95027235Y-60872794D01*
X94947794Y-60952235D01*
X94902415Y-61055007D01*
X94902415Y-61055009D01*
X94899500Y-61080132D01*
X90908667Y-61080132D01*
X90738583Y-60956558D01*
X90514191Y-60842223D01*
X90400000Y-60805120D01*
X90400000Y-62259175D01*
X90365925Y-62132008D01*
X90300099Y-62017994D01*
X90207007Y-61924902D01*
X90092993Y-61859076D01*
X89965826Y-61825001D01*
X89834174Y-61825001D01*
X89707007Y-61859076D01*
X89592993Y-61924902D01*
X89499901Y-62017994D01*
X89434075Y-62132008D01*
X89400000Y-62259175D01*
X89400000Y-60805120D01*
X89285808Y-60842223D01*
X89061416Y-60956558D01*
X88857668Y-61104591D01*
X88857667Y-61104591D01*
X88679590Y-61282668D01*
X88679590Y-61282669D01*
X88531557Y-61486417D01*
X88417219Y-61710816D01*
X88339397Y-61950331D01*
X88300000Y-62199072D01*
X85517318Y-62199072D01*
X88372720Y-59343669D01*
X88372723Y-59343668D01*
X88409135Y-59307254D01*
X88418125Y-59299106D01*
X88508231Y-59225155D01*
X88528431Y-59211657D01*
X88625817Y-59159603D01*
X88648262Y-59150306D01*
X88753929Y-59118251D01*
X88777754Y-59113511D01*
X88881317Y-59103310D01*
X88893643Y-59102097D01*
X88905797Y-59101500D01*
X106911409Y-59101500D01*
X106962901Y-59101500D01*
X106975053Y-59102097D01*
X106986545Y-59103228D01*
X107091029Y-59113518D01*
X107114855Y-59118257D01*
X107220522Y-59150310D01*
X107242970Y-59159608D01*
X107340348Y-59211656D01*
X107360558Y-59225160D01*
X107450583Y-59299041D01*
X107459600Y-59307214D01*
X109122242Y-60969855D01*
X109122476Y-60970061D01*
X109148323Y-60995908D01*
X109148329Y-60995913D01*
X109148331Y-60995915D01*
X109176602Y-61017609D01*
X109303159Y-61114726D01*
X109356043Y-61145259D01*
X109472173Y-61212311D01*
X109652477Y-61287001D01*
X109840987Y-61337518D01*
X110034478Y-61362997D01*
X110079336Y-61362998D01*
X110079343Y-61363000D01*
X110132059Y-61363000D01*
X110189642Y-61363001D01*
X110189645Y-61363000D01*
X110238645Y-61363000D01*
X110268275Y-61366592D01*
X110274547Y-61368136D01*
X110309446Y-61370110D01*
X110315622Y-61371616D01*
X110319307Y-61371063D01*
X110353225Y-61380788D01*
X110373017Y-61389675D01*
X110389720Y-61398776D01*
X110401880Y-61406669D01*
X110407141Y-61410008D01*
X110407552Y-61410263D01*
X110413013Y-61413573D01*
X110510282Y-61471142D01*
X110510295Y-61471149D01*
X110531025Y-61482362D01*
X110532623Y-61483148D01*
X110532630Y-61483151D01*
X110532642Y-61483157D01*
X110554211Y-61492752D01*
X110554225Y-61492757D01*
X110554235Y-61492762D01*
X110618425Y-61518394D01*
X110618431Y-61518396D01*
X110636489Y-61524956D01*
X110637885Y-61525414D01*
X110637893Y-61525416D01*
X110637895Y-61525417D01*
X110656488Y-61530870D01*
X110727859Y-61549364D01*
X110727876Y-61549368D01*
X110727887Y-61549371D01*
X110735788Y-61551306D01*
X110736156Y-61551391D01*
X110736402Y-61551448D01*
X110740286Y-61552242D01*
X110751513Y-61554538D01*
X110751520Y-61554537D01*
X110758008Y-61555168D01*
X110757931Y-61555953D01*
X110780257Y-61558797D01*
X110788975Y-61561132D01*
X110795943Y-61563000D01*
X110795944Y-61563000D01*
X110954055Y-61563000D01*
X110954057Y-61563000D01*
X111106784Y-61522077D01*
X111243716Y-61443020D01*
X111355520Y-61331216D01*
X111434577Y-61194284D01*
X111475500Y-61041557D01*
X111475500Y-60883443D01*
X111434577Y-60730716D01*
X111400788Y-60672191D01*
X111355524Y-60593790D01*
X111355518Y-60593782D01*
X111243717Y-60481981D01*
X111243709Y-60481975D01*
X111106790Y-60402926D01*
X111106786Y-60402924D01*
X111106784Y-60402923D01*
X110954057Y-60362000D01*
X110795943Y-60362000D01*
X110763356Y-60370731D01*
X110757651Y-60372115D01*
X110748652Y-60374074D01*
X110728640Y-60375403D01*
X110660365Y-60392915D01*
X110654948Y-60394480D01*
X110650886Y-60395365D01*
X110620014Y-60393163D01*
X110589057Y-60393031D01*
X110585464Y-60390700D01*
X110581193Y-60390396D01*
X110556406Y-60371849D01*
X110530441Y-60355005D01*
X110528679Y-60351102D01*
X110525250Y-60348537D01*
X110514425Y-60319534D01*
X110501689Y-60291326D01*
X110501184Y-60284057D01*
X110500819Y-60283078D01*
X110501044Y-60282039D01*
X110500501Y-60274205D01*
X110500501Y-60233445D01*
X110500501Y-60233443D01*
X110459578Y-60080716D01*
X110459574Y-60080709D01*
X110380525Y-59943790D01*
X110380519Y-59943782D01*
X110268718Y-59831981D01*
X110268710Y-59831975D01*
X110131791Y-59752926D01*
X110131787Y-59752924D01*
X110131785Y-59752923D01*
X109979058Y-59712000D01*
X109979057Y-59712000D01*
X109958425Y-59712000D01*
X109951073Y-59711782D01*
X109856914Y-59706189D01*
X109856909Y-59706189D01*
X109856190Y-59706191D01*
X109818465Y-59706329D01*
X109818447Y-59706330D01*
X109815514Y-59706526D01*
X109815495Y-59706528D01*
X109777111Y-59711550D01*
X109777107Y-59711550D01*
X109777104Y-59711551D01*
X109777101Y-59711551D01*
X109777079Y-59711555D01*
X109717207Y-59723289D01*
X109647633Y-59716865D01*
X109605678Y-59689285D01*
X108209218Y-58292825D01*
X108209124Y-58292742D01*
X108182952Y-58266570D01*
X108182943Y-58266562D01*
X108028122Y-58147762D01*
X108028119Y-58147760D01*
X107859104Y-58050177D01*
X107678798Y-57975490D01*
X107678796Y-57975489D01*
X107678795Y-57975489D01*
X107599125Y-57954141D01*
X107490285Y-57924977D01*
X107490280Y-57924976D01*
X107490278Y-57924976D01*
X107296791Y-57899500D01*
X107251937Y-57899500D01*
X107251935Y-57899500D01*
X88785060Y-57899500D01*
X88785025Y-57899490D01*
X88636106Y-57899491D01*
X88442613Y-57924967D01*
X88254099Y-57975481D01*
X88073794Y-58050167D01*
X88073791Y-58050168D01*
X88073791Y-58050169D01*
X87904775Y-58147753D01*
X87868859Y-58175312D01*
X87749943Y-58266562D01*
X82992292Y-63024213D01*
X82992198Y-63024318D01*
X82965570Y-63050948D01*
X82965566Y-63050952D01*
X82846763Y-63205776D01*
X82749178Y-63374794D01*
X82749173Y-63374806D01*
X82674491Y-63555096D01*
X82623977Y-63743613D01*
X82623976Y-63743619D01*
X82598500Y-63937106D01*
X82598500Y-73763940D01*
X82598491Y-73763970D01*
X82200500Y-73763970D01*
X82200500Y-56141768D01*
X82220185Y-56074729D01*
X82272989Y-56028974D01*
X82342147Y-56019030D01*
X82405703Y-56048055D01*
X82421447Y-56064456D01*
X82557895Y-56235558D01*
X82557901Y-56235564D01*
X82557902Y-56235565D01*
X82764435Y-56442098D01*
X82992794Y-56624208D01*
X83240107Y-56779605D01*
X83503263Y-56906335D01*
X83778955Y-57002803D01*
X84063714Y-57067798D01*
X84063723Y-57067799D01*
X84063728Y-57067800D01*
X84257210Y-57089599D01*
X84353953Y-57100499D01*
X84353956Y-57100500D01*
X84353959Y-57100500D01*
X84646044Y-57100500D01*
X84646045Y-57100499D01*
X84794371Y-57083787D01*
X84936271Y-57067800D01*
X84936274Y-57067799D01*
X84936286Y-57067798D01*
X85221045Y-57002803D01*
X85496737Y-56906335D01*
X85759893Y-56779605D01*
X86007206Y-56624208D01*
X86235565Y-56442098D01*
X86442098Y-56235565D01*
X86624208Y-56007206D01*
X86779605Y-55759893D01*
X86906335Y-55496737D01*
X87002803Y-55221045D01*
X87067798Y-54936286D01*
X87100500Y-54646041D01*
X87100500Y-54353959D01*
X87073259Y-54112182D01*
X87085313Y-54043361D01*
X87132663Y-53991981D01*
X87200273Y-53974357D01*
X87266679Y-53996084D01*
X87299581Y-54029408D01*
X87319177Y-54058735D01*
X87319180Y-54058739D01*
X87441260Y-54180819D01*
X87441264Y-54180822D01*
X87584815Y-54276740D01*
X87584819Y-54276742D01*
X87584822Y-54276744D01*
X87744334Y-54342817D01*
X87913667Y-54376499D01*
X87913671Y-54376500D01*
X87913672Y-54376500D01*
X88086329Y-54376500D01*
X88086330Y-54376499D01*
X88255666Y-54342817D01*
X88415178Y-54276744D01*
X88558736Y-54180822D01*
X88680822Y-54058736D01*
X88776744Y-53915178D01*
X88842817Y-53755666D01*
X88876500Y-53586328D01*
X88876500Y-53413672D01*
X88842817Y-53244334D01*
X88776744Y-53084822D01*
X88776742Y-53084819D01*
X88776740Y-53084815D01*
X88680822Y-52941264D01*
X88680819Y-52941260D01*
X88558739Y-52819180D01*
X88558735Y-52819177D01*
X88415184Y-52723259D01*
X88415174Y-52723254D01*
X88255666Y-52657183D01*
X88255658Y-52657181D01*
X88086332Y-52623500D01*
X88086328Y-52623500D01*
X87913672Y-52623500D01*
X87913667Y-52623500D01*
X87744341Y-52657181D01*
X87744333Y-52657183D01*
X87584825Y-52723254D01*
X87584815Y-52723259D01*
X87441264Y-52819177D01*
X87441260Y-52819180D01*
X87319180Y-52941260D01*
X87319177Y-52941264D01*
X87223259Y-53084815D01*
X87223254Y-53084825D01*
X87157183Y-53244333D01*
X87157181Y-53244341D01*
X87123500Y-53413667D01*
X87122903Y-53419733D01*
X87120970Y-53419542D01*
X87103815Y-53477969D01*
X87051011Y-53523724D01*
X86981853Y-53533668D01*
X86918297Y-53504643D01*
X86887780Y-53464732D01*
X86779606Y-53240109D01*
X86749163Y-53191659D01*
X86624208Y-52992794D01*
X86442098Y-52764435D01*
X86235565Y-52557902D01*
X86064456Y-52421447D01*
X86024316Y-52364259D01*
X86021466Y-52294447D01*
X86056811Y-52234177D01*
X86119130Y-52202584D01*
X86141769Y-52200500D01*
X177858231Y-52200500D01*
X177925270Y-52220185D01*
G37*
G04 #@! TD.AperFunction*
G04 #@! TA.AperFunction,Conductor*
G36*
X115609641Y-88001527D02*
G01*
X115704207Y-88016504D01*
X115741102Y-88028491D01*
X115817617Y-88067477D01*
X115819524Y-88068863D01*
X115820748Y-88069130D01*
X115849002Y-88090281D01*
X115909718Y-88150997D01*
X115932522Y-88182383D01*
X115971507Y-88258895D01*
X115983495Y-88295792D01*
X115998473Y-88390357D01*
X116000000Y-88409755D01*
X116000000Y-96190244D01*
X115998473Y-96209642D01*
X115983495Y-96304207D01*
X115971507Y-96341104D01*
X115932522Y-96417616D01*
X115909718Y-96449002D01*
X115849002Y-96509718D01*
X115817616Y-96532522D01*
X115741104Y-96571507D01*
X115704207Y-96583495D01*
X115624425Y-96596131D01*
X115609640Y-96598473D01*
X115590244Y-96600000D01*
X105599995Y-96600000D01*
X105476395Y-96619575D01*
X105402055Y-96657454D01*
X105364886Y-96676393D01*
X105364885Y-96676394D01*
X105364880Y-96676397D01*
X105276397Y-96764880D01*
X105276394Y-96764885D01*
X105219575Y-96876395D01*
X105200000Y-96999994D01*
X105200000Y-99790244D01*
X105198473Y-99809641D01*
X105198473Y-99809642D01*
X105183495Y-99904207D01*
X105171507Y-99941104D01*
X105132522Y-100017616D01*
X105109718Y-100049002D01*
X105049002Y-100109718D01*
X105017616Y-100132522D01*
X104941104Y-100171507D01*
X104904207Y-100183495D01*
X104824425Y-100196131D01*
X104809640Y-100198473D01*
X104790244Y-100200000D01*
X102809756Y-100200000D01*
X102790359Y-100198473D01*
X102771258Y-100195447D01*
X102695792Y-100183495D01*
X102658895Y-100171507D01*
X102582383Y-100132522D01*
X102550997Y-100109718D01*
X102490281Y-100049002D01*
X102467477Y-100017616D01*
X102428492Y-99941104D01*
X102416504Y-99904206D01*
X102401527Y-99809641D01*
X102400000Y-99790244D01*
X102400000Y-88409755D01*
X102401527Y-88390358D01*
X102416504Y-88295793D01*
X102416505Y-88295788D01*
X102428490Y-88258898D01*
X102467479Y-88182379D01*
X102490278Y-88151000D01*
X102551000Y-88090278D01*
X102582379Y-88067479D01*
X102658898Y-88028490D01*
X102695784Y-88016505D01*
X102790370Y-88001525D01*
X102809756Y-88000000D01*
X115590244Y-88000000D01*
X115609641Y-88001527D01*
G37*
G04 #@! TD.AperFunction*
G04 #@! TA.AperFunction,Conductor*
G36*
X109471687Y-59978523D02*
G01*
X109534923Y-60028262D01*
X109534924Y-60028263D01*
X109534925Y-60028263D01*
X109534926Y-60028264D01*
X109598513Y-60050010D01*
X109659302Y-60048177D01*
X109722162Y-60033635D01*
X109722442Y-60033575D01*
X109835858Y-60011348D01*
X109838795Y-60011152D01*
X109945165Y-60017470D01*
X109953220Y-60021381D01*
X109956150Y-60029843D01*
X109955952Y-60031400D01*
X109901648Y-60308411D01*
X109896694Y-60315870D01*
X109896635Y-60315909D01*
X109659844Y-60473011D01*
X109651056Y-60474730D01*
X109643954Y-60470199D01*
X109536007Y-60323581D01*
X109520908Y-60308411D01*
X109436635Y-60223743D01*
X109330696Y-60121794D01*
X109327111Y-60113588D01*
X109330379Y-60105251D01*
X109330483Y-60105144D01*
X109456182Y-59979445D01*
X109464454Y-59976019D01*
X109471687Y-59978523D01*
G37*
G04 #@! TD.AperFunction*
G04 #@! TA.AperFunction,Conductor*
G36*
X123073837Y-77691755D02*
G01*
X123076144Y-77692210D01*
X123183694Y-77724944D01*
X123280336Y-77752788D01*
X123353104Y-77743518D01*
X123395181Y-77720699D01*
X123432673Y-77688776D01*
X123441192Y-77686022D01*
X123448529Y-77689412D01*
X123574394Y-77815277D01*
X123577821Y-77823550D01*
X123574394Y-77831823D01*
X123370119Y-78036100D01*
X123336872Y-78069347D01*
X123336021Y-78070118D01*
X123217975Y-78166997D01*
X123216068Y-78168272D01*
X123150478Y-78203330D01*
X123141567Y-78204207D01*
X123135256Y-78199543D01*
X122994362Y-77990167D01*
X122992588Y-77985886D01*
X122992257Y-77984197D01*
X122937694Y-77705870D01*
X122939465Y-77697094D01*
X122946924Y-77692140D01*
X122947997Y-77691981D01*
X123008888Y-77685866D01*
X123011150Y-77685859D01*
X123073837Y-77691755D01*
G37*
G04 #@! TD.AperFunction*
G04 #@! TA.AperFunction,Conductor*
G36*
X133639833Y-70960461D02*
G01*
X133640895Y-70961815D01*
X133799680Y-71198036D01*
X133801453Y-71202318D01*
X133855862Y-71480610D01*
X133854086Y-71489387D01*
X133846624Y-71494338D01*
X133845906Y-71494455D01*
X133820212Y-71497838D01*
X133800749Y-71500400D01*
X133799228Y-71500500D01*
X133279342Y-71500500D01*
X133271069Y-71497073D01*
X133267642Y-71488800D01*
X133267642Y-71310237D01*
X133271069Y-71301964D01*
X133277788Y-71298641D01*
X133356052Y-71288160D01*
X133413387Y-71255814D01*
X133450947Y-71207726D01*
X133480034Y-71148656D01*
X133492367Y-71121887D01*
X133492952Y-71120781D01*
X133548268Y-71028735D01*
X133550409Y-71026122D01*
X133623305Y-70959693D01*
X133631728Y-70956655D01*
X133639833Y-70960461D01*
G37*
G04 #@! TD.AperFunction*
G04 #@! TA.AperFunction,Conductor*
G36*
X134055368Y-59543436D02*
G01*
X134055703Y-59543971D01*
X134093106Y-59607539D01*
X134093773Y-59608857D01*
X134121047Y-59672394D01*
X134121629Y-59674103D01*
X134149697Y-59783574D01*
X134149808Y-59784044D01*
X134159712Y-59830579D01*
X134159713Y-59830581D01*
X134198205Y-59931806D01*
X134235374Y-59987294D01*
X134235376Y-59987296D01*
X134235378Y-59987299D01*
X134239789Y-59992239D01*
X134283533Y-60041229D01*
X134286487Y-60049683D01*
X134283079Y-60057295D01*
X134157180Y-60183194D01*
X134148907Y-60186621D01*
X134141244Y-60183763D01*
X134073102Y-60124705D01*
X134006253Y-60085202D01*
X134006251Y-60085201D01*
X134006249Y-60085200D01*
X134006250Y-60085200D01*
X133944608Y-60063265D01*
X133944606Y-60063264D01*
X133944602Y-60063263D01*
X133898357Y-60052990D01*
X133884011Y-60049803D01*
X133883592Y-60049701D01*
X133768863Y-60019744D01*
X133767117Y-60019138D01*
X133705823Y-59992239D01*
X133704567Y-59991594D01*
X133643929Y-59955713D01*
X133638554Y-59948551D01*
X133639818Y-59939686D01*
X133640112Y-59939216D01*
X133797985Y-59701263D01*
X133801263Y-59697985D01*
X134039153Y-59540154D01*
X134047939Y-59538436D01*
X134055368Y-59543436D01*
G37*
G04 #@! TD.AperFunction*
G04 #@! TA.AperFunction,Conductor*
G36*
X103309998Y-77611293D02*
G01*
X103408984Y-77759449D01*
X103410731Y-77768232D01*
X103406624Y-77775038D01*
X103354362Y-77817403D01*
X103321904Y-77864126D01*
X103321902Y-77864131D01*
X103307891Y-77913673D01*
X103307888Y-77913689D01*
X103302695Y-77971075D01*
X103302663Y-77971388D01*
X103289463Y-78083478D01*
X103285092Y-78091294D01*
X103276475Y-78093730D01*
X103275587Y-78093591D01*
X103000634Y-78039570D01*
X102993177Y-78034612D01*
X102991408Y-78030336D01*
X102979871Y-77971388D01*
X102937470Y-77754746D01*
X102939244Y-77745971D01*
X102946704Y-77741019D01*
X102984404Y-77733648D01*
X102989960Y-77732563D01*
X103050814Y-77720493D01*
X103050816Y-77720492D01*
X103050823Y-77720491D01*
X103165882Y-77684847D01*
X103294248Y-77607762D01*
X103303103Y-77606441D01*
X103309998Y-77611293D01*
G37*
G04 #@! TD.AperFunction*
G04 #@! TA.AperFunction,Conductor*
G36*
X105538384Y-77987968D02*
G01*
X105538798Y-77988638D01*
X105628959Y-78146394D01*
X105629649Y-78147817D01*
X105681650Y-78276518D01*
X105681756Y-78276791D01*
X105702173Y-78331204D01*
X105702176Y-78331212D01*
X105768029Y-78460006D01*
X105768033Y-78460013D01*
X105823143Y-78533618D01*
X105823147Y-78533622D01*
X105894060Y-78610569D01*
X105897146Y-78618975D01*
X105893729Y-78626771D01*
X105626697Y-78893803D01*
X105618424Y-78897230D01*
X105610576Y-78894207D01*
X105517052Y-78809616D01*
X105517051Y-78809615D01*
X105466261Y-78774413D01*
X105431060Y-78750014D01*
X105353406Y-78711247D01*
X105353394Y-78711241D01*
X105276745Y-78681739D01*
X105276626Y-78681693D01*
X105161347Y-78635872D01*
X105159927Y-78635193D01*
X104988745Y-78538769D01*
X104983218Y-78531723D01*
X104984293Y-78522833D01*
X104984743Y-78522099D01*
X105026008Y-78460014D01*
X105197988Y-78201255D01*
X105201256Y-78197988D01*
X105276743Y-78147817D01*
X105522164Y-77984699D01*
X105530951Y-77982974D01*
X105538384Y-77987968D01*
G37*
G04 #@! TD.AperFunction*
G04 #@! TA.AperFunction,Conductor*
G36*
X131418723Y-80062149D02*
G01*
X131424250Y-80069195D01*
X131424451Y-80070032D01*
X131500534Y-80447689D01*
X131500534Y-80452311D01*
X131424435Y-80830044D01*
X131419441Y-80837477D01*
X131410654Y-80839203D01*
X131409887Y-80839021D01*
X131234583Y-80791223D01*
X131233090Y-80790705D01*
X131105317Y-80736472D01*
X131105049Y-80736354D01*
X131052141Y-80712317D01*
X131052135Y-80712315D01*
X130914487Y-80667802D01*
X130823462Y-80654724D01*
X130718909Y-80650457D01*
X130710782Y-80646696D01*
X130707686Y-80638767D01*
X130707686Y-80261127D01*
X130711113Y-80252854D01*
X130718798Y-80249442D01*
X130844747Y-80243125D01*
X130926823Y-80228249D01*
X130947692Y-80224467D01*
X130947697Y-80224466D01*
X131030017Y-80196969D01*
X131105159Y-80163594D01*
X131105265Y-80163549D01*
X131219125Y-80114459D01*
X131220587Y-80113941D01*
X131409835Y-80061074D01*
X131418723Y-80062149D01*
G37*
G04 #@! TD.AperFunction*
G04 #@! TA.AperFunction,Conductor*
G36*
X87092765Y-75952822D02*
G01*
X87220205Y-76020477D01*
X87325048Y-76049212D01*
X87425230Y-76076304D01*
X87426895Y-76076893D01*
X87484901Y-76102580D01*
X87489413Y-76104578D01*
X87490669Y-76105228D01*
X87556128Y-76144271D01*
X87561478Y-76151452D01*
X87560183Y-76160312D01*
X87559885Y-76160787D01*
X87403531Y-76396483D01*
X87396102Y-76401483D01*
X87396037Y-76401496D01*
X87118160Y-76456091D01*
X87109381Y-76454323D01*
X87104423Y-76446866D01*
X87104287Y-76446002D01*
X87090328Y-76327595D01*
X87090296Y-76327273D01*
X87084976Y-76267970D01*
X87084976Y-76267967D01*
X87059629Y-76195637D01*
X87026173Y-76156044D01*
X86980904Y-76120838D01*
X86976478Y-76113055D01*
X86978359Y-76105105D01*
X87077551Y-75956655D01*
X87084997Y-75951681D01*
X87092765Y-75952822D01*
G37*
G04 #@! TD.AperFunction*
G04 #@! TA.AperFunction,Conductor*
G36*
X110813405Y-60672588D02*
G01*
X110818780Y-60679750D01*
X110818915Y-60680337D01*
X110875530Y-60960180D01*
X110875530Y-60964820D01*
X110818921Y-61244632D01*
X110813921Y-61252061D01*
X110805133Y-61253780D01*
X110804518Y-61253638D01*
X110769762Y-61244632D01*
X110733119Y-61235137D01*
X110731723Y-61234679D01*
X110703669Y-61223476D01*
X110667503Y-61209035D01*
X110665883Y-61208238D01*
X110568614Y-61150669D01*
X110568203Y-61150414D01*
X110528308Y-61124520D01*
X110429518Y-61080163D01*
X110429517Y-61080162D01*
X110363991Y-61067208D01*
X110291803Y-61063124D01*
X110283737Y-61059236D01*
X110280764Y-61051443D01*
X110280764Y-60873393D01*
X110284191Y-60865120D01*
X110291628Y-60861724D01*
X110381574Y-60855300D01*
X110456776Y-60835964D01*
X110515883Y-60807883D01*
X110568254Y-60774550D01*
X110568541Y-60774374D01*
X110670939Y-60714379D01*
X110672584Y-60713583D01*
X110734956Y-60689258D01*
X110736266Y-60688836D01*
X110804541Y-60671324D01*
X110813405Y-60672588D01*
G37*
G04 #@! TD.AperFunction*
G04 #@! TA.AperFunction,Conductor*
G36*
X87338405Y-75110088D02*
G01*
X87343780Y-75117250D01*
X87343915Y-75117837D01*
X87400530Y-75397680D01*
X87400530Y-75402320D01*
X87343921Y-75682132D01*
X87338921Y-75689561D01*
X87330133Y-75691280D01*
X87329518Y-75691138D01*
X87294762Y-75682132D01*
X87258119Y-75672637D01*
X87256723Y-75672179D01*
X87228669Y-75660976D01*
X87192503Y-75646535D01*
X87190883Y-75645738D01*
X87093614Y-75588169D01*
X87093203Y-75587914D01*
X87053308Y-75562020D01*
X86954518Y-75517663D01*
X86954517Y-75517662D01*
X86888991Y-75504708D01*
X86816803Y-75500624D01*
X86808737Y-75496736D01*
X86805764Y-75488943D01*
X86805764Y-75310893D01*
X86809191Y-75302620D01*
X86816628Y-75299224D01*
X86906574Y-75292800D01*
X86981776Y-75273464D01*
X87040883Y-75245383D01*
X87093254Y-75212050D01*
X87093541Y-75211874D01*
X87195939Y-75151879D01*
X87197584Y-75151083D01*
X87259956Y-75126758D01*
X87261266Y-75126336D01*
X87329541Y-75108824D01*
X87338405Y-75110088D01*
G37*
G04 #@! TD.AperFunction*
G04 #@! TA.AperFunction,Conductor*
G36*
X125538421Y-77987944D02*
G01*
X125538817Y-77988583D01*
X125577581Y-78055864D01*
X125578264Y-78057255D01*
X125607581Y-78128552D01*
X125608100Y-78130124D01*
X125640606Y-78258209D01*
X125640714Y-78258671D01*
X125648914Y-78297528D01*
X125648918Y-78297542D01*
X125681191Y-78394256D01*
X125681193Y-78394259D01*
X125705943Y-78432813D01*
X125705945Y-78432815D01*
X125705947Y-78432818D01*
X125740877Y-78468991D01*
X125792757Y-78505434D01*
X125792756Y-78505434D01*
X125852859Y-78534821D01*
X125858786Y-78541534D01*
X125858529Y-78549810D01*
X125714125Y-78898422D01*
X125707793Y-78904753D01*
X125698869Y-78904766D01*
X125577511Y-78854899D01*
X125577512Y-78854895D01*
X125577494Y-78854892D01*
X125456240Y-78804850D01*
X125455613Y-78804570D01*
X125248781Y-78704632D01*
X125247598Y-78703973D01*
X124987854Y-78538992D01*
X124982708Y-78531664D01*
X124984251Y-78522843D01*
X124984345Y-78522697D01*
X125197774Y-78201577D01*
X125201033Y-78198316D01*
X125522200Y-77984681D01*
X125530985Y-77982954D01*
X125538421Y-77987944D01*
G37*
G04 #@! TD.AperFunction*
G04 #@! TA.AperFunction,Conductor*
G36*
X133565773Y-83542485D02*
G01*
X133569185Y-83550172D01*
X133575503Y-83676119D01*
X133575504Y-83676128D01*
X133594160Y-83779064D01*
X133594161Y-83779069D01*
X133621656Y-83861383D01*
X133655027Y-83936521D01*
X133655078Y-83936638D01*
X133704163Y-84050486D01*
X133704688Y-84051970D01*
X133757553Y-84241205D01*
X133756478Y-84250095D01*
X133749432Y-84255622D01*
X133748595Y-84255823D01*
X133370939Y-84331906D01*
X133366317Y-84331906D01*
X132988583Y-84255807D01*
X132981150Y-84250813D01*
X132979424Y-84242026D01*
X132979600Y-84241281D01*
X133027404Y-84065951D01*
X133027921Y-84064462D01*
X133082209Y-83936564D01*
X133082233Y-83936509D01*
X133106313Y-83883505D01*
X133150826Y-83745854D01*
X133163903Y-83654839D01*
X133168170Y-83550281D01*
X133171931Y-83542154D01*
X133179860Y-83539058D01*
X133557500Y-83539058D01*
X133565773Y-83542485D01*
G37*
G04 #@! TD.AperFunction*
G04 #@! TA.AperFunction,Conductor*
G36*
X115538384Y-77987968D02*
G01*
X115538798Y-77988638D01*
X115628959Y-78146394D01*
X115629649Y-78147817D01*
X115681650Y-78276518D01*
X115681756Y-78276791D01*
X115702173Y-78331204D01*
X115702176Y-78331212D01*
X115768029Y-78460006D01*
X115768033Y-78460013D01*
X115823143Y-78533618D01*
X115823147Y-78533622D01*
X115894060Y-78610569D01*
X115897146Y-78618975D01*
X115893729Y-78626771D01*
X115626697Y-78893803D01*
X115618424Y-78897230D01*
X115610576Y-78894207D01*
X115517052Y-78809616D01*
X115517051Y-78809615D01*
X115466261Y-78774413D01*
X115431060Y-78750014D01*
X115353406Y-78711247D01*
X115353394Y-78711241D01*
X115276745Y-78681739D01*
X115276626Y-78681693D01*
X115161347Y-78635872D01*
X115159927Y-78635193D01*
X114988745Y-78538769D01*
X114983218Y-78531723D01*
X114984293Y-78522833D01*
X114984743Y-78522099D01*
X115026008Y-78460014D01*
X115197988Y-78201255D01*
X115201256Y-78197988D01*
X115276743Y-78147817D01*
X115522164Y-77984699D01*
X115530951Y-77982974D01*
X115538384Y-77987968D01*
G37*
G04 #@! TD.AperFunction*
G04 #@! TA.AperFunction,Conductor*
G36*
X132748084Y-81576799D02*
G01*
X132751499Y-81584550D01*
X132757192Y-81712113D01*
X132757193Y-81712119D01*
X132774090Y-81816275D01*
X132829903Y-81976938D01*
X132868106Y-82073401D01*
X132868516Y-82074630D01*
X132923333Y-82275573D01*
X132922204Y-82284456D01*
X132915124Y-82289940D01*
X132914356Y-82290122D01*
X132536625Y-82366220D01*
X132532003Y-82366220D01*
X132154408Y-82290149D01*
X132146975Y-82285155D01*
X132145249Y-82276368D01*
X132145466Y-82275475D01*
X132196338Y-82096793D01*
X132196980Y-82095068D01*
X132256899Y-81966259D01*
X132256966Y-81966119D01*
X132288344Y-81902922D01*
X132333163Y-81770720D01*
X132346270Y-81683351D01*
X132350518Y-81584567D01*
X132354297Y-81576451D01*
X132362207Y-81573372D01*
X132739811Y-81573372D01*
X132748084Y-81576799D01*
G37*
G04 #@! TD.AperFunction*
G04 #@! TA.AperFunction,Conductor*
G36*
X134054910Y-65243740D02*
G01*
X134055492Y-65244719D01*
X134121604Y-65369157D01*
X134122553Y-65371542D01*
X134151095Y-65475261D01*
X134151084Y-65475263D01*
X134151105Y-65475299D01*
X134178525Y-65576312D01*
X134178527Y-65576316D01*
X134206941Y-65640412D01*
X134239054Y-65694236D01*
X134247056Y-65707648D01*
X134248352Y-65716509D01*
X134243508Y-65723371D01*
X134095332Y-65822380D01*
X134086549Y-65824127D01*
X134079742Y-65820018D01*
X134034716Y-65764450D01*
X134034714Y-65764447D01*
X133985468Y-65730181D01*
X133985467Y-65730180D01*
X133985465Y-65730179D01*
X133933229Y-65715344D01*
X133933232Y-65715344D01*
X133872667Y-65709784D01*
X133872360Y-65709752D01*
X133754011Y-65695722D01*
X133746198Y-65691345D01*
X133743769Y-65682726D01*
X133743907Y-65681847D01*
X133764641Y-65576316D01*
X133798503Y-65403961D01*
X133803461Y-65396505D01*
X133803471Y-65396498D01*
X134038695Y-65240457D01*
X134047481Y-65238740D01*
X134054910Y-65243740D01*
G37*
G04 #@! TD.AperFunction*
G04 #@! TA.AperFunction,Conductor*
G36*
X113169615Y-77757853D02*
G01*
X113170337Y-77758379D01*
X113263932Y-77832192D01*
X113264176Y-77832390D01*
X113310040Y-77870662D01*
X113379193Y-77903873D01*
X113430916Y-77908201D01*
X113487903Y-77901068D01*
X113496538Y-77903440D01*
X113500831Y-77910394D01*
X113535665Y-78085497D01*
X113533918Y-78094280D01*
X113527616Y-78098967D01*
X113389550Y-78141253D01*
X113318247Y-78181828D01*
X113295006Y-78195054D01*
X113294989Y-78195064D01*
X113294988Y-78195063D01*
X113204980Y-78246692D01*
X113203372Y-78247458D01*
X113139528Y-78272097D01*
X113138182Y-78272525D01*
X113064177Y-78291228D01*
X113055316Y-78289933D01*
X113049967Y-78282752D01*
X113049842Y-78282206D01*
X113047848Y-78272353D01*
X112993738Y-78004980D01*
X112995455Y-77996196D01*
X113153381Y-77761041D01*
X113160836Y-77756085D01*
X113169615Y-77757853D01*
G37*
G04 #@! TD.AperFunction*
M02*
