M48
; DRILL file {KiCad 9.0.1-rc2} date 2025-03-29T14:31:01-0700
; FORMAT={-:-/ absolute / metric / decimal}
; #@! TF.CreationDate,2025-03-29T14:31:01-07:00
; #@! TF.GenerationSoftware,Kicad,Pcbnew,9.0.1-rc2
; #@! TF.FileFunction,Plated,1,2,PTH
FMAT,2
METRIC
; #@! TA.AperFunction,Plated,PTH,ViaDrill
T1C0.300
; #@! TA.AperFunction,Plated,PTH,ViaDrill
T2C0.400
; #@! TA.AperFunction,Plated,PTH,ComponentDrill
T3C0.500
; #@! TA.AperFunction,Plated,PTH,ViaDrill
T4C0.600
; #@! TA.AperFunction,Plated,PTH,ComponentDrill
T5C1.000
%
G90
G05
T1
X86.375Y-73.15
X86.375Y-78.625
X87.4Y-75.4
X87.4Y-76.4
X87.675Y-73.15
X87.675Y-78.625
X100.419Y-70.587
X100.419Y-71.587
X100.419Y-72.587
X102.044Y-73.337
X102.044Y-75.625
X102.044Y-78.025
X102.4Y-59.4
X102.4Y-60.7
X102.994Y-78.037
X105.1Y-59.4
X105.1Y-60.7
X108.925Y-65.362
X109.9Y-60.312
X110.425Y-65.362
X110.425Y-70.575
X110.425Y-71.575
X110.425Y-72.575
X110.875Y-60.962
X112.05Y-73.325
X112.05Y-75.612
X112.05Y-78.013
X112.994Y-78.0
X116.438Y-60.312
X119.64Y-60.312
X120.419Y-70.562
X120.419Y-71.562
X120.419Y-72.562
X122.044Y-73.312
X122.044Y-75.6
X122.044Y-78.0
X122.994Y-77.987
X129.7Y-62.3
X129.7Y-68.0
X129.7Y-73.7
X133.8Y-59.7
X133.8Y-65.4
X133.8Y-71.2
X150.762Y-66.69
X150.763Y-64.19
T2
X105.2Y-78.2
X115.2Y-78.2
X125.2Y-78.2
X131.5Y-80.45
X132.534Y-82.366
X133.369Y-84.331
T4
X88.8Y-118.8
X88.8Y-136.8
X93.0Y-92.0
X93.0Y-96.0
X93.0Y-100.5
X93.0Y-104.5
X93.0Y-109.0
X93.0Y-122.0
X93.0Y-126.0
X93.0Y-130.5
X93.0Y-134.5
X93.0Y-139.0
X95.0Y-94.0
X95.0Y-98.5
X95.0Y-102.5
X95.0Y-106.5
X95.0Y-111.0
X95.0Y-124.0
X95.0Y-128.5
X95.0Y-132.5
X95.0Y-136.5
X95.0Y-141.0
X97.0Y-92.0
X97.0Y-96.0
X97.0Y-98.5
X97.0Y-100.5
X97.0Y-102.5
X97.0Y-104.5
X97.0Y-106.5
X97.0Y-109.0
X97.0Y-113.0
X97.0Y-122.0
X97.0Y-126.0
X97.0Y-128.5
X97.0Y-130.5
X97.0Y-132.5
X97.0Y-134.5
X97.0Y-136.5
X97.0Y-139.0
X97.0Y-143.0
X99.0Y-90.0
X99.0Y-94.0
X99.0Y-96.0
X99.0Y-109.0
X99.0Y-111.0
X99.0Y-120.0
X99.0Y-124.0
X99.0Y-126.0
X99.0Y-139.0
X99.0Y-141.0
X101.0Y-92.0
X101.0Y-94.0
X101.0Y-96.0
X101.0Y-107.5
X101.0Y-109.0
X101.0Y-111.0
X101.0Y-113.0
X101.0Y-122.0
X101.0Y-124.0
X101.0Y-126.0
X101.0Y-137.5
X101.0Y-139.0
X101.0Y-141.0
X101.0Y-143.0
X103.0Y-92.0
X103.0Y-94.0
X103.0Y-96.0
X103.0Y-107.5
X103.0Y-109.0
X103.0Y-111.0
X103.0Y-113.0
X103.0Y-122.0
X103.0Y-124.0
X103.0Y-126.0
X103.0Y-137.5
X103.0Y-139.0
X103.0Y-141.0
X103.0Y-143.0
X105.0Y-90.0
X105.0Y-94.0
X105.0Y-96.0
X105.0Y-109.0
X105.0Y-111.0
X105.0Y-120.0
X105.0Y-124.0
X105.0Y-126.0
X105.0Y-139.0
X105.0Y-141.0
X107.0Y-92.0
X107.0Y-96.0
X107.0Y-98.5
X107.0Y-100.5
X107.0Y-102.5
X107.0Y-104.5
X107.0Y-106.5
X107.0Y-109.0
X107.0Y-113.0
X107.0Y-122.0
X107.0Y-126.0
X107.0Y-128.5
X107.0Y-130.5
X107.0Y-132.5
X107.0Y-134.5
X107.0Y-136.5
X107.0Y-139.0
X107.0Y-143.0
X109.0Y-94.0
X109.0Y-98.5
X109.0Y-102.5
X109.0Y-106.5
X109.0Y-111.0
X109.0Y-124.0
X109.0Y-128.5
X109.0Y-132.5
X109.0Y-136.5
X109.0Y-141.0
X111.0Y-92.0
X111.0Y-96.0
X111.0Y-100.5
X111.0Y-104.5
X111.0Y-109.0
X111.0Y-122.0
X111.0Y-126.0
X111.0Y-130.5
X111.0Y-134.5
X111.0Y-139.0
X115.2Y-88.8
X115.2Y-109.0
X115.2Y-136.8
X115.2Y-144.6
X118.8Y-95.0
X118.8Y-115.2
X118.8Y-125.0
X123.0Y-95.0
X123.0Y-99.5
X123.0Y-103.5
X123.0Y-108.0
X123.0Y-112.0
X123.0Y-125.0
X123.0Y-129.5
X123.0Y-133.5
X123.0Y-138.0
X123.0Y-142.0
X125.0Y-93.0
X125.0Y-97.5
X125.0Y-101.5
X125.0Y-105.5
X125.0Y-110.0
X125.0Y-123.0
X125.0Y-127.5
X125.0Y-131.5
X125.0Y-135.5
X125.0Y-140.0
X127.0Y-101.5
X127.0Y-105.5
X127.0Y-91.0
X127.0Y-95.0
X127.0Y-97.5
X127.0Y-99.5
X127.0Y-103.5
X127.0Y-108.0
X127.0Y-112.0
X127.0Y-131.5
X127.0Y-135.5
X127.0Y-121.0
X127.0Y-125.0
X127.0Y-127.5
X127.0Y-129.5
X127.0Y-133.5
X127.0Y-138.0
X127.0Y-142.0
X129.0Y-95.0
X129.0Y-108.0
X129.0Y-93.0
X129.0Y-110.0
X129.0Y-114.0
X129.0Y-125.0
X129.0Y-138.0
X129.0Y-123.0
X129.0Y-140.0
X129.0Y-144.0
X131.0Y-93.0
X131.0Y-97.0
X131.0Y-91.0
X131.0Y-108.0
X131.0Y-110.0
X131.0Y-112.0
X131.0Y-123.0
X131.0Y-127.0
X131.0Y-95.0
X131.0Y-121.0
X131.0Y-138.0
X131.0Y-140.0
X131.0Y-142.0
X131.0Y-125.0
X133.0Y-95.0
X133.0Y-91.0
X133.0Y-108.0
X133.0Y-110.0
X133.0Y-112.0
X133.0Y-125.0
X133.0Y-93.0
X133.0Y-97.0
X133.0Y-121.0
X133.0Y-138.0
X133.0Y-140.0
X133.0Y-142.0
X133.0Y-123.0
X133.0Y-127.0
X135.0Y-93.0
X135.0Y-110.0
X135.0Y-114.0
X135.0Y-95.0
X135.0Y-108.0
X135.0Y-123.0
X135.0Y-140.0
X135.0Y-144.0
X135.0Y-125.0
X135.0Y-138.0
X137.0Y-91.0
X137.0Y-95.0
X137.0Y-97.5
X137.0Y-99.5
X137.0Y-103.5
X137.0Y-108.0
X137.0Y-112.0
X137.0Y-101.5
X137.0Y-105.5
X137.0Y-121.0
X137.0Y-125.0
X137.0Y-127.5
X137.0Y-129.5
X137.0Y-133.5
X137.0Y-138.0
X137.0Y-142.0
X137.0Y-131.5
X137.0Y-135.5
X139.0Y-93.0
X139.0Y-97.5
X139.0Y-101.5
X139.0Y-105.5
X139.0Y-110.0
X139.0Y-123.0
X139.0Y-127.5
X139.0Y-131.5
X139.0Y-135.5
X139.0Y-140.0
X141.0Y-95.0
X141.0Y-99.5
X141.0Y-103.5
X141.0Y-108.0
X141.0Y-112.0
X141.0Y-125.0
X141.0Y-129.5
X141.0Y-133.5
X141.0Y-138.0
X141.0Y-142.0
X145.2Y-97.2
X148.8Y-118.8
X153.0Y-92.0
X153.0Y-96.0
X153.0Y-100.5
X153.0Y-104.5
X153.0Y-109.0
X153.0Y-122.0
X153.0Y-126.0
X153.0Y-130.5
X153.0Y-134.5
X153.0Y-139.0
X155.0Y-94.0
X155.0Y-98.5
X155.0Y-102.5
X155.0Y-106.5
X155.0Y-111.0
X155.0Y-124.0
X155.0Y-128.5
X155.0Y-132.5
X155.0Y-136.5
X155.0Y-141.0
X157.0Y-92.0
X157.0Y-96.0
X157.0Y-98.5
X157.0Y-100.5
X157.0Y-102.5
X157.0Y-104.5
X157.0Y-106.5
X157.0Y-109.0
X157.0Y-113.0
X157.0Y-122.0
X157.0Y-126.0
X157.0Y-128.5
X157.0Y-130.5
X157.0Y-132.5
X157.0Y-134.5
X157.0Y-136.5
X157.0Y-139.0
X157.0Y-143.0
X159.0Y-90.0
X159.0Y-94.0
X159.0Y-96.0
X159.0Y-109.0
X159.0Y-111.0
X159.0Y-120.0
X159.0Y-124.0
X159.0Y-126.0
X159.0Y-139.0
X159.0Y-141.0
X161.0Y-92.0
X161.0Y-94.0
X161.0Y-96.0
X161.0Y-107.5
X161.0Y-109.0
X161.0Y-111.0
X161.0Y-113.0
X161.0Y-122.0
X161.0Y-124.0
X161.0Y-126.0
X161.0Y-137.0
X161.0Y-139.0
X161.0Y-141.0
X161.0Y-143.0
X163.0Y-92.0
X163.0Y-94.0
X163.0Y-96.0
X163.0Y-107.5
X163.0Y-109.0
X163.0Y-111.0
X163.0Y-113.0
X163.0Y-115.4
X163.0Y-122.0
X163.0Y-124.0
X163.0Y-126.0
X163.0Y-137.0
X163.0Y-139.0
X163.0Y-141.0
X163.0Y-143.0
X165.0Y-90.0
X165.0Y-94.0
X165.0Y-96.0
X165.0Y-109.0
X165.0Y-111.0
X165.0Y-120.0
X165.0Y-124.0
X165.0Y-126.0
X165.0Y-139.0
X165.0Y-141.0
X167.0Y-92.0
X167.0Y-96.0
X167.0Y-98.5
X167.0Y-100.5
X167.0Y-102.5
X167.0Y-104.5
X167.0Y-106.5
X167.0Y-109.0
X167.0Y-113.0
X167.0Y-122.0
X167.0Y-126.0
X167.0Y-128.5
X167.0Y-130.5
X167.0Y-132.5
X167.0Y-134.5
X167.0Y-136.5
X167.0Y-139.0
X167.0Y-143.0
X169.0Y-94.0
X169.0Y-98.5
X169.0Y-102.5
X169.0Y-106.5
X169.0Y-111.0
X169.0Y-124.0
X169.0Y-128.5
X169.0Y-132.5
X169.0Y-136.5
X169.0Y-141.0
X171.0Y-92.0
X171.0Y-96.0
X171.0Y-100.5
X171.0Y-104.5
X171.0Y-109.0
X171.0Y-122.0
X171.0Y-126.0
X171.0Y-130.5
X171.0Y-134.5
X171.0Y-139.0
X172.4Y-106.8
X172.4Y-118.8
X173.4Y-128.0
T3
X84.95Y-71.58G85X84.25Y-71.58
G05
X84.95Y-80.22G85X84.25Y-80.22
G05
X88.75Y-71.58G85X88.05Y-71.58
G05
X88.75Y-80.22G85X88.05Y-80.22
G05
T5
X89.9Y-62.325G85X89.9Y-64.525
G05
X94.4Y-68.225G85X92.2Y-68.225
G05
X96.2Y-62.125G85X96.2Y-64.725
G05
M30
