G04 #@! TF.GenerationSoftware,KiCad,Pcbnew,9.0.1-rc2*
G04 #@! TF.CreationDate,2025-03-29T14:30:59-07:00*
G04 #@! TF.ProjectId,backlight,6261636b-6c69-4676-9874-2e6b69636164,rev?*
G04 #@! TF.SameCoordinates,Original*
G04 #@! TF.FileFunction,Paste,Top*
G04 #@! TF.FilePolarity,Positive*
%FSLAX46Y46*%
G04 Gerber Fmt 4.6, Leading zero omitted, Abs format (unit mm)*
G04 Created by KiCad (PCBNEW 9.0.1-rc2) date 2025-03-29 14:30:59*
%MOMM*%
%LPD*%
G01*
G04 APERTURE LIST*
G04 Aperture macros list*
%AMRoundRect*
0 Rectangle with rounded corners*
0 $1 Rounding radius*
0 $2 $3 $4 $5 $6 $7 $8 $9 X,Y pos of 4 corners*
0 Add a 4 corners polygon primitive as box body*
4,1,4,$2,$3,$4,$5,$6,$7,$8,$9,$2,$3,0*
0 Add four circle primitives for the rounded corners*
1,1,$1+$1,$2,$3*
1,1,$1+$1,$4,$5*
1,1,$1+$1,$6,$7*
1,1,$1+$1,$8,$9*
0 Add four rect primitives between the rounded corners*
20,1,$1+$1,$2,$3,$4,$5,0*
20,1,$1+$1,$4,$5,$6,$7,0*
20,1,$1+$1,$6,$7,$8,$9,0*
20,1,$1+$1,$8,$9,$2,$3,0*%
G04 Aperture macros list end*
%ADD10R,2.200000X1.550000*%
%ADD11R,2.200000X2.500000*%
%ADD12R,1.550000X2.200000*%
%ADD13R,2.500000X2.200000*%
%ADD14RoundRect,0.250000X0.550000X-1.500000X0.550000X1.500000X-0.550000X1.500000X-0.550000X-1.500000X0*%
%ADD15R,3.150000X1.000000*%
%ADD16RoundRect,0.150000X0.150000X-0.512500X0.150000X0.512500X-0.150000X0.512500X-0.150000X-0.512500X0*%
%ADD17RoundRect,0.100000X0.637500X0.100000X-0.637500X0.100000X-0.637500X-0.100000X0.637500X-0.100000X0*%
%ADD18O,1.700000X1.000000*%
%ADD19RoundRect,0.200000X-0.400000X0.200000X-0.400000X-0.200000X0.400000X-0.200000X0.400000X0.200000X0*%
%ADD20RoundRect,0.190000X-0.410000X0.190000X-0.410000X-0.190000X0.410000X-0.190000X0.410000X0.190000X0*%
%ADD21RoundRect,0.175000X0.425000X-0.175000X0.425000X0.175000X-0.425000X0.175000X-0.425000X-0.175000X0*%
%ADD22RoundRect,0.200000X0.400000X-0.200000X0.400000X0.200000X-0.400000X0.200000X-0.400000X-0.200000X0*%
%ADD23RoundRect,0.190000X0.410000X-0.190000X0.410000X0.190000X-0.410000X0.190000X-0.410000X-0.190000X0*%
%ADD24RoundRect,0.175000X-0.425000X0.175000X-0.425000X-0.175000X0.425000X-0.175000X0.425000X0.175000X0*%
%ADD25RoundRect,0.200000X-0.200000X-0.275000X0.200000X-0.275000X0.200000X0.275000X-0.200000X0.275000X0*%
%ADD26RoundRect,0.250000X-0.325000X-0.650000X0.325000X-0.650000X0.325000X0.650000X-0.325000X0.650000X0*%
%ADD27RoundRect,0.250000X-0.475000X0.250000X-0.475000X-0.250000X0.475000X-0.250000X0.475000X0.250000X0*%
%ADD28RoundRect,0.250000X-0.300000X0.300000X-0.300000X-0.300000X0.300000X-0.300000X0.300000X0.300000X0*%
%ADD29RoundRect,0.200000X0.200000X0.275000X-0.200000X0.275000X-0.200000X-0.275000X0.200000X-0.275000X0*%
%ADD30RoundRect,0.249999X0.450001X1.850001X-0.450001X1.850001X-0.450001X-1.850001X0.450001X-1.850001X0*%
%ADD31RoundRect,0.250000X0.400000X-0.400000X0.400000X0.400000X-0.400000X0.400000X-0.400000X-0.400000X0*%
%ADD32RoundRect,0.250000X0.400000X-0.750000X0.400000X0.750000X-0.400000X0.750000X-0.400000X-0.750000X0*%
%ADD33RoundRect,0.200000X-0.275000X0.200000X-0.275000X-0.200000X0.275000X-0.200000X0.275000X0.200000X0*%
G04 APERTURE END LIST*
D10*
X104000000Y-131525000D03*
D11*
X104000000Y-128950000D03*
D10*
X130000002Y-132475000D03*
D11*
X130000002Y-135050000D03*
D10*
X164000000Y-101525000D03*
D11*
X164000000Y-98950000D03*
D10*
X104000000Y-101525000D03*
D11*
X104000000Y-98950000D03*
D10*
X130000001Y-102474999D03*
D11*
X130000001Y-105049999D03*
D10*
X164000000Y-131525000D03*
D11*
X164000000Y-128950000D03*
D12*
X130875002Y-129500000D03*
D13*
X133450002Y-129500000D03*
D12*
X163125000Y-134500000D03*
D13*
X160550000Y-134500000D03*
D10*
X100000000Y-98475000D03*
D11*
X100000000Y-101050000D03*
D12*
X163125000Y-104500000D03*
D13*
X160550000Y-104500000D03*
D12*
X130875001Y-99499999D03*
D13*
X133450001Y-99499999D03*
D10*
X133999999Y-105524999D03*
D11*
X133999999Y-102949999D03*
D10*
X160000000Y-98475000D03*
D11*
X160000000Y-101050000D03*
D10*
X160000000Y-128475000D03*
D11*
X160000000Y-131050000D03*
D12*
X103125000Y-104500000D03*
D13*
X100550000Y-104500000D03*
D12*
X103125000Y-134500000D03*
D13*
X100550000Y-134500000D03*
D10*
X100000000Y-128475000D03*
D11*
X100000000Y-131050000D03*
D10*
X134000000Y-135525000D03*
D11*
X134000000Y-132950000D03*
D14*
X103750000Y-59387500D03*
X103750000Y-64787500D03*
D15*
X145712500Y-62910000D03*
X150762500Y-62910000D03*
X145712500Y-65450000D03*
X150762500Y-65450000D03*
X145712500Y-67990000D03*
X150762500Y-67990000D03*
D16*
X121093750Y-74487500D03*
X122993750Y-74487500D03*
X122993750Y-76762500D03*
X122043750Y-76762500D03*
X121093750Y-76762500D03*
X101093750Y-74487500D03*
X102993750Y-74487500D03*
X102993750Y-76762500D03*
X102043750Y-76762500D03*
X101093750Y-76762500D03*
X111093750Y-74487500D03*
X112993750Y-74487500D03*
X112993750Y-76762500D03*
X112043750Y-76762500D03*
X111093750Y-76762500D03*
D17*
X112649999Y-62912500D03*
X112649999Y-62262500D03*
X112649999Y-61612500D03*
X112649999Y-60962500D03*
X112649999Y-60312500D03*
X112649999Y-59662500D03*
X112649999Y-59012500D03*
X112649999Y-58362500D03*
X118374999Y-58362500D03*
X118374999Y-59012500D03*
X118374999Y-59662500D03*
X118374999Y-60312500D03*
X118374999Y-60962500D03*
X118374999Y-61612500D03*
X118374999Y-62262500D03*
X118374999Y-62912500D03*
D18*
X84600000Y-80220000D03*
X88400000Y-80220000D03*
X84600000Y-71580000D03*
X88400000Y-71580000D03*
D19*
X88900000Y-73150000D03*
D20*
X88900000Y-74380000D03*
D21*
X88899999Y-76400000D03*
D22*
X88900000Y-78650000D03*
D23*
X88900000Y-77420000D03*
D24*
X88899999Y-75400000D03*
D25*
X115243750Y-72350002D03*
X113593750Y-72350002D03*
X125250000Y-62200000D03*
X123600000Y-62200000D03*
D26*
X121693750Y-71587500D03*
X118743750Y-71587500D03*
D25*
X125243750Y-70850000D03*
X123593750Y-70850000D03*
X115243749Y-70850002D03*
X113593749Y-70850002D03*
D27*
X120887499Y-62212498D03*
X120887499Y-60312500D03*
D28*
X98743750Y-77300000D03*
X98743750Y-74500000D03*
D27*
X124893750Y-76537500D03*
X124893750Y-74637500D03*
X104893750Y-76537500D03*
X104893750Y-74637500D03*
D25*
X105243750Y-70850000D03*
X103593750Y-70850000D03*
D26*
X101693750Y-71587500D03*
X98743750Y-71587500D03*
D28*
X118743750Y-77300000D03*
X118743750Y-74500000D03*
X108743750Y-77300000D03*
X108743750Y-74500000D03*
D25*
X105243750Y-69350000D03*
X103593750Y-69350000D03*
X115243750Y-69350000D03*
X113593750Y-69350000D03*
X125250000Y-63700000D03*
X123600000Y-63700000D03*
D27*
X114893750Y-76537500D03*
X114893750Y-74637500D03*
D25*
X105243750Y-72350000D03*
X103593750Y-72350000D03*
D29*
X114987500Y-64437498D03*
X116637500Y-64437498D03*
D30*
X100193750Y-81237500D03*
X103893750Y-81237500D03*
D26*
X111693750Y-71587500D03*
X108743750Y-71587500D03*
D30*
X120193750Y-81237500D03*
X123893750Y-81237500D03*
D31*
X129737500Y-60850000D03*
D32*
X135237500Y-59700000D03*
D31*
X129737500Y-58550000D03*
X129737500Y-64300000D03*
D32*
X135237500Y-65450000D03*
D31*
X129737500Y-66600000D03*
D33*
X110425000Y-63987500D03*
X110425000Y-62337500D03*
D25*
X125243750Y-72339998D03*
X123593750Y-72339998D03*
X125243750Y-69350000D03*
X123593750Y-69350000D03*
X125250000Y-60700000D03*
X123600000Y-60700000D03*
D31*
X129737500Y-72350000D03*
D32*
X135237500Y-71200000D03*
D31*
X129737500Y-70050000D03*
D33*
X108950000Y-63987500D03*
X108950000Y-62337500D03*
D30*
X110193750Y-81237500D03*
X113893750Y-81237500D03*
M02*
