ISO-10303-21;
HEADER;
FILE_DESCRIPTION (( 'STEP AP203' ),
    '1' );
FILE_NAME ('25d107 button.step',
    '2026-09-24T01:24:05',
    ( '' ),
    ( '' ),
    '',
    '',
    '' );
FILE_SCHEMA (( 'CONFIG_CONTROL_DESIGN' ));
ENDSEC;

DATA;
#1 = EDGE_CURVE ( 'NONE', #1197, #518, #818, .T. ) ;
#2 = VERTEX_POINT ( 'NONE', #975 ) ;
#3 = EDGE_CURVE ( 'NONE', #225, #1150, #1011, .T. ) ;
#4 = FACE_OUTER_BOUND ( 'NONE', #828, .T. ) ;
#5 = DIRECTION ( 'NONE',  ( -0.000000000000000000, -1.000000000000000000, -0.000000000000000000 ) ) ;
#6 = VERTEX_POINT ( 'NONE', #24 ) ;
#7 = ORIENTED_EDGE ( 'NONE', *, *, #343, .F. ) ;
#8 = CARTESIAN_POINT ( 'NONE',  ( 3.250000000000000000, 4.099999999999998757, 1.430908802125418600 ) ) ;
#9 = CYLINDRICAL_SURFACE ( 'NONE', #559, 15.86827091915841947 ) ;
#10 = ORIENTED_EDGE ( 'NONE', *, *, #165, .F. ) ;
#11 = DIRECTION ( 'NONE',  ( 0.000000000000000000, 0.000000000000000000, -1.000000000000000000 ) ) ;
#12 = AXIS2_PLACEMENT_3D ( 'NONE', #898, #763, #885 ) ;
#13 = ORIENTED_EDGE ( 'NONE', *, *, #41, .T. ) ;
#14 = TOROIDAL_SURFACE ( 'NONE', #300, 1.700000000000000178, 0.5999999999999999778 ) ;
#15 = CIRCLE ( 'NONE', #435, 3.600000000000000089 ) ;
#16 = CIRCLE ( 'NONE', #666, 0.5000000000000000000 ) ;
#17 = CARTESIAN_POINT ( 'NONE',  ( 7.500000000000000000, 0.5999999999999999778, -2.299999999999999822 ) ) ;
#18 = CARTESIAN_POINT ( 'NONE',  ( 2.816687638038912056E-16, 0.000000000000000000, 2.299999999999999822 ) ) ;
#19 = CARTESIAN_POINT ( 'NONE',  ( 4.306451612903227755, 5.400000000000000355, -1.661700544403713620 ) ) ;
#20 = EDGE_LOOP ( 'NONE', ( #1012, #927, #1204, #1186 ) ) ;
#21 = CARTESIAN_POINT ( 'NONE',  ( 3.250000000000000000, 5.400000000000000355, -1.430908802125418600 ) ) ;
#22 = DIRECTION ( 'NONE',  ( -0.000000000000000000, -1.000000000000000000, -0.000000000000000000 ) ) ;
#23 = EDGE_CURVE ( 'NONE', #887, #431, #365, .T. ) ;
#24 = CARTESIAN_POINT ( 'NONE',  ( 7.500000000000000000, 0.000000000000000000, 1.700000000000000178 ) ) ;
#25 = EDGE_CURVE ( 'NONE', #246, #643, #434, .T. ) ;
#26 = FACE_OUTER_BOUND ( 'NONE', #513, .T. ) ;
#27 = ORIENTED_EDGE ( 'NONE', *, *, #959, .F. ) ;
#28 = CARTESIAN_POINT ( 'NONE',  ( 4.250000000000000000, 4.099999999999998757, 1.430908802125420376 ) ) ;
#29 = DIRECTION ( 'NONE',  ( 0.000000000000000000, 0.000000000000000000, -1.000000000000000000 ) ) ;
#30 = FACE_OUTER_BOUND ( 'NONE', #740, .T. ) ;
#31 = LINE ( 'NONE', #453, #1183 ) ;
#32 = ADVANCED_FACE ( 'NONE', ( #30 ), #457, .F. ) ;
#33 = ORIENTED_EDGE ( 'NONE', *, *, #333, .F. ) ;
#34 = CIRCLE ( 'NONE', #161, 3.600000000000000089 ) ;
#35 = AXIS2_PLACEMENT_3D ( 'NONE', #523, #204, #405 ) ;
#36 = DIRECTION ( 'NONE',  ( 0.000000000000000000, 0.000000000000000000, -1.000000000000000000 ) ) ;
#37 = DIRECTION ( 'NONE',  ( -0.000000000000000000, 1.000000000000000000, -0.000000000000000000 ) ) ;
#38 = ORIENTED_EDGE ( 'NONE', *, *, #1335, .F. ) ;
#39 = EDGE_CURVE ( 'NONE', #1328, #829, #563, .T. ) ;
#40 = CARTESIAN_POINT ( 'NONE',  ( 0.3245359256503315137, 4.099999999999998757, 3.587135480133035959 ) ) ;
#41 = EDGE_CURVE ( 'NONE', #697, #960, #249, .T. ) ;
#42 = LINE ( 'NONE', #462, #686 ) ;
#43 = CARTESIAN_POINT ( 'NONE',  ( 0.000000000000000000, 4.099999999999998757, 0.000000000000000000 ) ) ;
#44 =( NAMED_UNIT ( * ) PLANE_ANGLE_UNIT ( ) SI_UNIT ( $, .RADIAN. ) );
#45 = ORIENTED_EDGE ( 'NONE', *, *, #626, .T. ) ;
#46 = FACE_OUTER_BOUND ( 'NONE', #1172, .T. ) ;
#47 = DIRECTION ( 'NONE',  ( -1.000000000000000000, 0.000000000000000000, 0.000000000000000000 ) ) ;
#48 = EDGE_CURVE ( 'NONE', #730, #1090, #337, .T. ) ;
#49 = LINE ( 'NONE', #243, #728 ) ;
#50 = APPROVAL_ROLE ( '' ) ;
#51 = EDGE_LOOP ( 'NONE', ( #745, #118, #889, #264 ) ) ;
#52 = CARTESIAN_POINT ( 'NONE',  ( 2.171480119019880917, 5.400000000000000355, 3.266191968884624153 ) ) ;
#53 = CIRCLE ( 'NONE', #230, 0.5000000000000004441 ) ;
#54 = DIRECTION ( 'NONE',  ( 0.000000000000000000, -0.000000000000000000, 1.000000000000000000 ) ) ;
#55 = DIRECTION ( 'NONE',  ( 0.000000000000000000, 0.000000000000000000, -1.000000000000000000 ) ) ;
#56 = AXIS2_PLACEMENT_3D ( 'NONE', #224, #1155, #131 ) ;
#57 = ORIENTED_EDGE ( 'NONE', *, *, #61, .T. ) ;
#58 = DATE_AND_TIME ( #990, #474 ) ;
#59 = VERTEX_POINT ( 'NONE', #657 ) ;
#60 = DIRECTION ( 'NONE',  ( -0.000000000000000000, 1.000000000000000000, -0.000000000000000000 ) ) ;
#61 = EDGE_CURVE ( 'NONE', #216, #1062, #1170, .T. ) ;
#62 = CARTESIAN_POINT ( 'NONE',  ( 7.500000000000000000, 4.099999999999998757, 0.000000000000000000 ) ) ;
#63 = DIRECTION ( 'NONE',  ( -0.000000000000000000, -1.000000000000000000, -0.000000000000000000 ) ) ;
#64 = EDGE_LOOP ( 'NONE', ( #233, #529 ) ) ;
#65 = MECHANICAL_CONTEXT ( 'NONE', #1159, 'mechanical' ) ;
#66 = EDGE_LOOP ( 'NONE', ( #341, #919, #114, #835 ) ) ;
#67 = EDGE_CURVE ( 'NONE', #241, #937, #49, .T. ) ;
#68 = FACE_BOUND ( 'NONE', #1218, .T. ) ;
#69 = DIRECTION ( 'NONE',  ( -0.000000000000000000, -1.000000000000000000, -0.000000000000000000 ) ) ;
#70 = CYLINDRICAL_SURFACE ( 'NONE', #1244, 0.5000000000000000000 ) ;
#71 = VERTEX_POINT ( 'NONE', #468 ) ;
#72 = EDGE_CURVE ( 'NONE', #1074, #1197, #882, .T. ) ;
#73 = FACE_OUTER_BOUND ( 'NONE', #64, .T. ) ;
#74 = DIRECTION ( 'NONE',  ( 0.000000000000000000, -1.000000000000000000, 0.000000000000000000 ) ) ;
#75 = AXIS2_PLACEMENT_3D ( 'NONE', #1251, #105, #532 ) ;
#76 = FACE_OUTER_BOUND ( 'NONE', #791, .T. ) ;
#77 = CIRCLE ( 'NONE', #12, 17.36827091915841592 ) ;
#78 = ORIENTED_EDGE ( 'NONE', *, *, #420, .T. ) ;
#79 = LOCAL_TIME ( 18, 24, 5.000000000000000000, #595 ) ;
#80 = AXIS2_PLACEMENT_3D ( 'NONE', #510, #635, #944 ) ;
#81 = ORIENTED_EDGE ( 'NONE', *, *, #1144, .T. ) ;
#82 = DIRECTION ( 'NONE',  ( 0.000000000000000000, 1.000000000000000000, 0.000000000000000000 ) ) ;
#83 = CARTESIAN_POINT ( 'NONE',  ( 4.821071679944716415, 5.400000000000000355, 5.646055531053212562 ) ) ;
#84 = ORIENTED_EDGE ( 'NONE', *, *, #23, .F. ) ;
#85 = CARTESIAN_POINT ( 'NONE',  ( 5.003389866030984123, 4.099999999999998757, 7.534719343088689847 ) ) ;
#86 = DIRECTION ( 'NONE',  ( 0.000000000000000000, 0.000000000000000000, -1.000000000000000000 ) ) ;
#87 = EDGE_CURVE ( 'NONE', #6, #195, #361, .T. ) ;
#88 = ORIENTED_EDGE ( 'NONE', *, *, #946, .F. ) ;
#89 = VERTEX_POINT ( 'NONE', #770 ) ;
#90 = CARTESIAN_POINT ( 'NONE',  ( 5.550319035511133592, 4.099999999999998757, 3.465363492724793382 ) ) ;
#91 = FACE_OUTER_BOUND ( 'NONE', #271, .T. ) ;
#92 = VERTEX_POINT ( 'NONE', #675 ) ;
#93 = AXIS2_PLACEMENT_3D ( 'NONE', #797, #362, #160 ) ;
#94 = DATE_AND_TIME ( #1237, #923 ) ;
#95 = CIRCLE ( 'NONE', #318, 0.5000000000000000000 ) ;
#96 = EDGE_CURVE ( 'NONE', #1238, #887, #1084, .T. ) ;
#97 = CIRCLE ( 'NONE', #625, 0.8321235853864785703 ) ;
#98 = ORIENTED_EDGE ( 'NONE', *, *, #1123, .F. ) ;
#99 = CARTESIAN_POINT ( 'NONE',  ( 8.211282186435251873, 5.400000000000000355, 0.2378605710492756875 ) ) ;
#100 = CARTESIAN_POINT ( 'NONE',  ( 4.005000999999936973, 5.400000000000000355, 8.099999000000025262 ) ) ;
#101 = ORIENTED_EDGE ( 'NONE', *, *, #268, .F. ) ;
#102 = ORIENTED_EDGE ( 'NONE', *, *, #1038, .F. ) ;
#103 = ORIENTED_EDGE ( 'NONE', *, *, #39, .F. ) ;
#104 = CARTESIAN_POINT ( 'NONE',  ( 0.2849583737417542562, 5.400000000000000355, 3.588704324019248659 ) ) ;
#105 = DIRECTION ( 'NONE',  ( 0.000000000000000000, -1.000000000000000000, 0.000000000000000000 ) ) ;
#106 = VERTEX_POINT ( 'NONE', #238 ) ;
#107 = DESIGN_CONTEXT ( 'detailed design', #239, 'design' ) ;
#108 = DIRECTION ( 'NONE',  ( 0.000000000000000000, 0.000000000000000000, -1.000000000000000000 ) ) ;
#109 = ORIENTED_EDGE ( 'NONE', *, *, #765, .F. ) ;
#110 = EDGE_CURVE ( 'NONE', #518, #517, #349, .T. ) ;
#111 = DIRECTION ( 'NONE',  ( 0.000000000000000000, 0.000000000000000000, -1.000000000000000000 ) ) ;
#112 = LINE ( 'NONE', #417, #144 ) ;
#113 = ORIENTED_EDGE ( 'NONE', *, *, #579, .T. ) ;
#114 = ORIENTED_EDGE ( 'NONE', *, *, #381, .F. ) ;
#115 = CIRCLE ( 'NONE', #665, 2.299999999999999822 ) ;
#116 = PLANE ( 'NONE',  #991 ) ;
#117 = VECTOR ( 'NONE', #682, 1000.000000000000000 ) ;
#118 = ORIENTED_EDGE ( 'NONE', *, *, #626, .F. ) ;
#119 = EDGE_CURVE ( 'NONE', #1081, #589, #584, .T. ) ;
#120 = CIRCLE ( 'NONE', #862, 0.8321235853864785703 ) ;
#121 = VECTOR ( 'NONE', #759, 1000.000000000000000 ) ;
#122 = CYLINDRICAL_SURFACE ( 'NONE', #687, 3.600000000000000089 ) ;
#123 = DIRECTION ( 'NONE',  ( 0.000000000000000000, 1.000000000000000000, 0.000000000000000000 ) ) ;
#124 = EDGE_CURVE ( 'NONE', #92, #630, #97, .T. ) ;
#125 = CARTESIAN_POINT ( 'NONE',  ( 7.500000000000000000, 5.400000000000000355, 0.000000000000000000 ) ) ;
#126 = DIRECTION ( 'NONE',  ( 0.000000000000000000, 0.000000000000000000, 1.000000000000000000 ) ) ;
#127 = VERTEX_POINT ( 'NONE', #958 ) ;
#128 = DIRECTION ( 'NONE',  ( -0.000000000000000000, -1.000000000000000000, -0.000000000000000000 ) ) ;
#129 = FACE_OUTER_BOUND ( 'NONE', #786, .T. ) ;
#130 = CARTESIAN_POINT ( 'NONE',  ( 7.032802297079268072, 4.099999999999998757, 6.385682528089893673 ) ) ;
#131 = DIRECTION ( 'NONE',  ( 0.000000000000000000, 0.000000000000000000, -1.000000000000000000 ) ) ;
#132 = ORIENTED_EDGE ( 'NONE', *, *, #1, .F. ) ;
#133 = CARTESIAN_POINT ( 'NONE',  ( 0.000000000000000000, 0.000000000000000000, 0.000000000000000000 ) ) ;
#134 = DIRECTION ( 'NONE',  ( -0.000000000000000000, -1.000000000000000000, -0.000000000000000000 ) ) ;
#135 = CARTESIAN_POINT ( 'NONE',  ( 6.308688892912511115, 5.400000000000000355, 6.795669648939411722 ) ) ;
#136 = VECTOR ( 'NONE', #606, 1000.000000000000000 ) ;
#137 = VERTEX_POINT ( 'NONE', #83 ) ;
#138 = ADVANCED_FACE ( 'NONE', ( #1196 ), #796, .T. ) ;
#139 = AXIS2_PLACEMENT_3D ( 'NONE', #662, #578, #348 ) ;
#140 = AXIS2_PLACEMENT_3D ( 'NONE', #979, #155, #708 ) ;
#141 = VECTOR ( 'NONE', #1270, 1000.000000000000000 ) ;
#142 = FACE_OUTER_BOUND ( 'NONE', #637, .T. ) ;
#143 = VECTOR ( 'NONE', #962, 1000.000000000000000 ) ;
#144 = VECTOR ( 'NONE', #629, 1000.000000000000000 ) ;
#145 = CARTESIAN_POINT ( 'NONE',  ( 7.447071532671806438, 0.000000000000000000, 4.099658348856192625 ) ) ;
#146 = CARTESIAN_POINT ( 'NONE',  ( 7.500000000000000000, 5.400000000000000355, 0.000000000000000000 ) ) ;
#147 = LINE ( 'NONE', #272, #388 ) ;
#148 = ORIENTED_EDGE ( 'NONE', *, *, #1, .T. ) ;
#149 = EDGE_CURVE ( 'NONE', #507, #71, #903, .T. ) ;
#150 = DIRECTION ( 'NONE',  ( 1.000000000000000000, -0.000000000000000000, 0.000000000000000000 ) ) ;
#151 = DIRECTION ( 'NONE',  ( 0.000000000000000000, 0.000000000000000000, -1.000000000000000000 ) ) ;
#152 = CARTESIAN_POINT ( 'NONE',  ( 5.076130911220966269, 5.400000000000000355, 3.306789778691940906 ) ) ;
#153 = DIRECTION ( 'NONE',  ( 1.000000000000000000, 0.000000000000000000, 0.000000000000000000 ) ) ;
#154 = DIRECTION ( 'NONE',  ( 0.000000000000000000, 0.000000000000000000, -1.000000000000000000 ) ) ;
#155 = DIRECTION ( 'NONE',  ( -0.000000000000000000, -1.000000000000000000, -0.000000000000000000 ) ) ;
#156 = DIRECTION ( 'NONE',  ( 0.000000000000000000, 0.000000000000000000, 1.000000000000000000 ) ) ;
#157 = ORIENTED_EDGE ( 'NONE', *, *, #1239, .T. ) ;
#158 =( LENGTH_UNIT ( ) NAMED_UNIT ( * ) SI_UNIT ( .MILLI., .METRE. ) );
#159 = ORIENTED_EDGE ( 'NONE', *, *, #857, .F. ) ;
#160 = DIRECTION ( 'NONE',  ( 0.000000000000000000, 0.000000000000000000, -1.000000000000000000 ) ) ;
#161 = AXIS2_PLACEMENT_3D ( 'NONE', #62, #475, #488 ) ;
#162 = AXIS2_PLACEMENT_3D ( 'NONE', #805, #912, #514 ) ;
#163 = DIRECTION ( 'NONE',  ( -0.000000000000000000, -1.000000000000000000, -0.000000000000000000 ) ) ;
#164 = CARTESIAN_POINT ( 'NONE',  ( 0.000000000000000000, 0.000000000000000000, 0.000000000000000000 ) ) ;
#165 = EDGE_CURVE ( 'NONE', #1197, #366, #790, .T. ) ;
#166 = EDGE_LOOP ( 'NONE', ( #10, #148, #865, #783 ) ) ;
#167 = DIRECTION ( 'NONE',  ( 0.000000000000000000, 0.000000000000000000, -1.000000000000000000 ) ) ;
#168 = CC_DESIGN_PERSON_AND_ORGANIZATION_ASSIGNMENT ( #703, #1114, ( #904 ) ) ;
#169 = CARTESIAN_POINT ( 'NONE',  ( 0.3245359256503315137, 5.400000000000000355, 4.087135480133036403 ) ) ;
#170 = DIRECTION ( 'NONE',  ( 0.000000000000000000, -1.000000000000000000, 0.000000000000000000 ) ) ;
#171 = CARTESIAN_POINT ( 'NONE',  ( 2.651725407426688275, 5.400000000000000355, 3.127035715115476400 ) ) ;
#172 = VERTEX_POINT ( 'NONE', #1300 ) ;
#173 = ADVANCED_FACE ( 'NONE', ( #378 ), #696, .F. ) ;
#174 = APPROVAL_ROLE ( '' ) ;
#175 = CARTESIAN_POINT ( 'NONE',  ( 6.308688892912511115, 4.099999999999998757, 6.795669648939411722 ) ) ;
#176 = DIRECTION ( 'NONE',  ( 0.000000000000000000, 0.000000000000000000, -1.000000000000000000 ) ) ;
#177 = DIRECTION ( 'NONE',  ( 0.000000000000000000, -1.000000000000000000, 0.000000000000000000 ) ) ;
#178 = ORIENTED_EDGE ( 'NONE', *, *, #3, .F. ) ;
#179 = ADVANCED_FACE ( 'NONE', ( #899 ), #785, .F. ) ;
#180 = ADVANCED_FACE ( 'NONE', ( #489 ), #386, .T. ) ;
#181 = EDGE_CURVE ( 'NONE', #1167, #697, #778, .T. ) ;
#182 = ORIENTED_EDGE ( 'NONE', *, *, #395, .T. ) ;
#183 = CYLINDRICAL_SURFACE ( 'NONE', #560, 0.8321235853864785703 ) ;
#184 = CARTESIAN_POINT ( 'NONE',  ( 0.3245359256503315137, 0.000000000000000000, 4.087135480133036403 ) ) ;
#185 = CIRCLE ( 'NONE', #986, 3.600000000000000089 ) ;
#186 = CARTESIAN_POINT ( 'NONE',  ( 5.550319035511134480, 5.400000000000000355, 3.465363492724791605 ) ) ;
#187 = VECTOR ( 'NONE', #699, 1000.000000000000000 ) ;
#188 = ORIENTED_EDGE ( 'NONE', *, *, #1239, .F. ) ;
#189 = VECTOR ( 'NONE', #74, 1000.000000000000000 ) ;
#190 = SECURITY_CLASSIFICATION_LEVEL ( 'unclassified' ) ;
#191 = EDGE_LOOP ( 'NONE', ( #1135, #680, #1132, #550 ) ) ;
#192 = EDGE_CURVE ( 'NONE', #127, #1042, #185, .T. ) ;
#193 = DIRECTION ( 'NONE',  ( 0.000000000000000000, -1.000000000000000000, 0.000000000000000000 ) ) ;
#194 = FACE_OUTER_BOUND ( 'NONE', #354, .T. ) ;
#195 = VERTEX_POINT ( 'NONE', #482 ) ;
#196 = VERTEX_POINT ( 'NONE', #394 ) ;
#197 = EDGE_LOOP ( 'NONE', ( #1213, #1045, #787, #618 ) ) ;
#198 = EDGE_CURVE ( 'NONE', #643, #1020, #1139, .T. ) ;
#199 = DIRECTION ( 'NONE',  ( 0.000000000000000000, 0.000000000000000000, -1.000000000000000000 ) ) ;
#200 = CARTESIAN_POINT ( 'NONE',  ( 0.000000000000000000, 0.000000000000000000, -3.600000000000000089 ) ) ;
#201 = ORIENTED_EDGE ( 'NONE', *, *, #48, .F. ) ;
#202 = ADVANCED_FACE ( 'NONE', ( #1189 ), #1100, .F. ) ;
#203 = ORIENTED_EDGE ( 'NONE', *, *, #268, .T. ) ;
#204 = DIRECTION ( 'NONE',  ( -0.000000000000000000, -1.000000000000000000, -0.000000000000000000 ) ) ;
#205 = DIRECTION ( 'NONE',  ( -0.000000000000000000, -1.000000000000000000, -0.000000000000000000 ) ) ;
#206 = ORIENTED_EDGE ( 'NONE', *, *, #293, .T. ) ;
#207 = TOROIDAL_SURFACE ( 'NONE', #1056, 1.700000000000000178, 0.5999999999999999778 ) ;
#208 = APPROVAL_STATUS ( 'not_yet_approved' ) ;
#209 = VECTOR ( 'NONE', #416, 1000.000000000000000 ) ;
#210 = AXIS2_PLACEMENT_3D ( 'NONE', #800, #476, #284 ) ;
#211 = AXIS2_PLACEMENT_3D ( 'NONE', #693, #888, #875 ) ;
#212 = CARTESIAN_POINT ( 'NONE',  ( 0.000000000000000000, 0.000000000000000000, 0.000000000000000000 ) ) ;
#213 = ORIENTED_EDGE ( 'NONE', *, *, #441, .F. ) ;
#214 = DIRECTION ( 'NONE',  ( -0.000000000000000000, -1.000000000000000000, -0.000000000000000000 ) ) ;
#215 = CARTESIAN_POINT ( 'NONE',  ( 4.408728476930471151E-16, 0.000000000000000000, 3.600000000000000089 ) ) ;
#216 = VERTEX_POINT ( 'NONE', #679 ) ;
#217 = EDGE_CURVE ( 'NONE', #1124, #761, #1318, .T. ) ;
#218 = CARTESIAN_POINT ( 'NONE',  ( 0.2849583737417542562, 4.099999999999998757, 3.588704324019248659 ) ) ;
#219 = ORIENTED_EDGE ( 'NONE', *, *, #622, .T. ) ;
#220 = DIRECTION ( 'NONE',  ( -0.000000000000000000, 1.000000000000000000, -0.000000000000000000 ) ) ;
#221 = FACE_OUTER_BOUND ( 'NONE', #617, .T. ) ;
#222 = EDGE_LOOP ( 'NONE', ( #535, #483, #527, #1252 ) ) ;
#223 = ADVANCED_FACE ( 'NONE', ( #76 ), #70, .F. ) ;
#224 = CARTESIAN_POINT ( 'NONE',  ( 7.500000000000000000, 4.099999999999998757, 0.000000000000000000 ) ) ;
#225 = VERTEX_POINT ( 'NONE', #1111 ) ;
#226 = EDGE_CURVE ( 'NONE', #1221, #1090, #1179, .T. ) ;
#227 = DIRECTION ( 'NONE',  ( 0.000000000000000000, 0.000000000000000000, -1.000000000000000000 ) ) ;
#228 = PLANE ( 'NONE',  #389 ) ;
#229 = DIRECTION ( 'NONE',  ( 0.000000000000000000, 1.000000000000000000, -0.000000000000000000 ) ) ;
#230 = AXIS2_PLACEMENT_3D ( 'NONE', #1126, #616, #1027 ) ;
#231 = CARTESIAN_POINT ( 'NONE',  ( 2.816687638038912056E-16, 4.099999999999998757, 2.299999999999999822 ) ) ;
#232 = VECTOR ( 'NONE', #170, 1000.000000000000000 ) ;
#233 = ORIENTED_EDGE ( 'NONE', *, *, #478, .T. ) ;
#234 = AXIS2_PLACEMENT_3D ( 'NONE', #851, #1052, #1259 ) ;
#235 = DIRECTION ( 'NONE',  ( 0.000000000000000000, 1.000000000000000000, 0.000000000000000000 ) ) ;
#236 = CYLINDRICAL_SURFACE ( 'NONE', #1184, 0.5000000000000000000 ) ;
#237 = EDGE_CURVE ( 'NONE', #1167, #630, #290, .T. ) ;
#238 = CARTESIAN_POINT ( 'NONE',  ( 0.000000000000000000, 5.400000000000000355, -3.600000000000000089 ) ) ;
#239 = APPLICATION_CONTEXT ( 'configuration controlled 3d designs of mechanical parts and assemblies' ) ;
#240 = CARTESIAN_POINT ( 'NONE',  ( 6.972883408381636450, 4.099999999999998757, 3.941084634823343258 ) ) ;
#241 = VERTEX_POINT ( 'NONE', #598 ) ;
#242 = CARTESIAN_POINT ( 'NONE',  ( 2.651725407426688275, 4.099999999999998757, 3.127035715115476400 ) ) ;
#243 = CARTESIAN_POINT ( 'NONE',  ( 5.003389866030984123, 5.400000000000000355, 7.534719343088689847 ) ) ;
#244 = EDGE_CURVE ( 'NONE', #1150, #980, #701, .T. ) ;
#245 = DIRECTION ( 'NONE',  ( 0.000000000000000000, 1.000000000000000000, 0.000000000000000000 ) ) ;
#246 = VERTEX_POINT ( 'NONE', #718 ) ;
#247 = CYLINDRICAL_SURFACE ( 'NONE', #1157, 3.600000000000000089 ) ;
#248 = DIRECTION ( 'NONE',  ( 0.000000000000000000, -1.000000000000000000, 0.000000000000000000 ) ) ;
#249 = LINE ( 'NONE', #1276, #121 ) ;
#250 = EDGE_CURVE ( 'NONE', #848, #1062, #948, .T. ) ;
#251 = AXIS2_PLACEMENT_3D ( 'NONE', #347, #342, #352 ) ;
#252 = ORIENTED_EDGE ( 'NONE', *, *, #1116, .F. ) ;
#253 = AXIS2_PLACEMENT_3D ( 'NONE', #1005, #897, #376 ) ;
#254 = CIRCLE ( 'NONE', #433, 2.299999999999999822 ) ;
#255 = CARTESIAN_POINT ( 'NONE',  ( 0.000000000000000000, 0.000000000000000000, 0.000000000000000000 ) ) ;
#256 = VECTOR ( 'NONE', #1234, 999.9999999999998863 ) ;
#257 = DIRECTION ( 'NONE',  ( -0.000000000000000000, -1.000000000000000000, -0.000000000000000000 ) ) ;
#258 = DIRECTION ( 'NONE',  ( 0.000000000000000000, -1.000000000000000000, 0.000000000000000000 ) ) ;
#259 = CARTESIAN_POINT ( 'NONE',  ( 0.000000000000000000, 5.400000000000000355, 0.000000000000000000 ) ) ;
#260 = ORIENTED_EDGE ( 'NONE', *, *, #414, .T. ) ;
#261 = CARTESIAN_POINT ( 'NONE',  ( 0.000000000000000000, 0.5999999999999999778, 0.000000000000000000 ) ) ;
#262 = DIRECTION ( 'NONE',  ( 0.000000000000000000, 1.000000000000000000, 0.000000000000000000 ) ) ;
#263 = DIRECTION ( 'NONE',  ( -0.000000000000000000, -1.000000000000000000, -0.000000000000000000 ) ) ;
#264 = ORIENTED_EDGE ( 'NONE', *, *, #866, .F. ) ;
#265 = ADVANCED_FACE ( 'NONE', ( #1331 ), #515, .T. ) ;
#266 = COORDINATED_UNIVERSAL_TIME_OFFSET ( 8, 0, .BEHIND. ) ;
#267 = DIRECTION ( 'NONE',  ( 0.000000000000000000, -1.000000000000000000, 0.000000000000000000 ) ) ;
#268 = EDGE_CURVE ( 'NONE', #980, #1315, #429, .T. ) ;
#269 = CARTESIAN_POINT ( 'NONE',  ( 0.8071899743089302470, 4.099999999999998757, 3.956578713500802369 ) ) ;
#270 = DIRECTION ( 'NONE',  ( 0.000000000000000000, 1.000000000000000000, 0.000000000000000000 ) ) ;
#271 = EDGE_LOOP ( 'NONE', ( #27, #599, #402, #721, #299, #1117, #533, #303, #316, #306, #977, #98, #837, #109, #1307, #477, #613, #998, #45, #391, #916, #895, #830, #84, #78, #399, #132, #921 ) ) ;
#272 = CARTESIAN_POINT ( 'NONE',  ( 4.250000000000000000, 5.400000000000000355, 1.430908802125420376 ) ) ;
#273 = DIRECTION ( 'NONE',  ( -0.000000000000000000, -1.000000000000000000, -0.000000000000000000 ) ) ;
#274 = AXIS2_PLACEMENT_3D ( 'NONE', #242, #649, #1070 ) ;
#275 = VECTOR ( 'NONE', #1153, 999.9999999999998863 ) ;
#276 = FACE_OUTER_BOUND ( 'NONE', #1039, .T. ) ;
#277 = ADVANCED_FACE ( 'NONE', ( #221 ), #1119, .F. ) ;
#278 = CARTESIAN_POINT ( 'NONE',  ( 0.000000000000000000, 4.099999999999998757, 0.000000000000000000 ) ) ;
#279 = APPROVAL_PERSON_ORGANIZATION ( #976, #397, #50 ) ;
#280 = VECTOR ( 'NONE', #1071, 1000.000000000000000 ) ;
#281 = ORIENTED_EDGE ( 'NONE', *, *, #1283, .T. ) ;
#282 = CARTESIAN_POINT ( 'NONE',  ( 0.000000000000000000, 0.000000000000000000, -1.700000000000000178 ) ) ;
#283 = DIRECTION ( 'NONE',  ( 0.000000000000000000, 0.000000000000000000, -1.000000000000000000 ) ) ;
#284 = DIRECTION ( 'NONE',  ( 0.000000000000000000, 0.000000000000000000, -1.000000000000000000 ) ) ;
#285 = ORIENTED_EDGE ( 'NONE', *, *, #530, .T. ) ;
#286 = EDGE_CURVE ( 'NONE', #1128, #459, #112, .T. ) ;
#287 = PERSON_AND_ORGANIZATION_ROLE ( 'creator' ) ;
#288 = CARTESIAN_POINT ( 'NONE',  ( 0.000000000000000000, 0.000000000000000000, 0.000000000000000000 ) ) ;
#289 = CARTESIAN_POINT ( 'NONE',  ( 6.972883408381636450, 5.400000000000000355, 3.941084634823343258 ) ) ;
#290 = LINE ( 'NONE', #1211, #600 ) ;
#291 = EDGE_LOOP ( 'NONE', ( #501, #633, #609, #702 ) ) ;
#292 = CALENDAR_DATE ( 2026, 23, 9 ) ;
#293 = EDGE_CURVE ( 'NONE', #630, #960, #1054, .T. ) ;
#294 = ORIENTED_EDGE ( 'NONE', *, *, #87, .T. ) ;
#295 = CYLINDRICAL_SURFACE ( 'NONE', #922, 2.332123585386478126 ) ;
#296 = AXIS2_PLACEMENT_3D ( 'NONE', #931, #537, #1130 ) ;
#297 = CARTESIAN_POINT ( 'NONE',  ( 7.500000000000000888, 4.099999999999998757, 3.600000000000000089 ) ) ;
#298 = AXIS2_PLACEMENT_3D ( 'NONE', #952, #460, #36 ) ;
#299 = ORIENTED_EDGE ( 'NONE', *, *, #1029, .F. ) ;
#300 = AXIS2_PLACEMENT_3D ( 'NONE', #755, #1068, #321 ) ;
#301 = SHAPE_DEFINITION_REPRESENTATION ( #450, #1225 ) ;
#302 = EDGE_CURVE ( 'NONE', #517, #89, #1288, .T. ) ;
#303 = ORIENTED_EDGE ( 'NONE', *, *, #1279, .T. ) ;
#304 = DIRECTION ( 'NONE',  ( 0.000000000000000000, 1.000000000000000000, 0.000000000000000000 ) ) ;
#305 = LINE ( 'NONE', #200, #838 ) ;
#306 = ORIENTED_EDGE ( 'NONE', *, *, #39, .T. ) ;
#307 = EDGE_LOOP ( 'NONE', ( #811, #1106, #103, #716 ) ) ;
#308 = CARTESIAN_POINT ( 'NONE',  ( 6.788717813564748127, 5.400000000000000355, -0.2378605710492756875 ) ) ;
#309 = DIRECTION ( 'NONE',  ( 0.000000000000000000, 1.000000000000000000, 0.000000000000000000 ) ) ;
#310 = ORIENTED_EDGE ( 'NONE', *, *, #486, .T. ) ;
#311 = EDGE_LOOP ( 'NONE', ( #1272, #933, #1341, #252 ) ) ;
#312 = DIRECTION ( 'NONE',  ( 0.000000000000000000, 0.000000000000000000, -1.000000000000000000 ) ) ;
#313 = CARTESIAN_POINT ( 'NONE',  ( 6.788717813564748127, 4.099999999999998757, -0.2378605710492756875 ) ) ;
#314 = AXIS2_PLACEMENT_3D ( 'NONE', #1016, #372, #588 ) ;
#315 = ORIENTED_EDGE ( 'NONE', *, *, #1116, .T. ) ;
#316 = ORIENTED_EDGE ( 'NONE', *, *, #381, .T. ) ;
#317 = AXIS2_PLACEMENT_3D ( 'NONE', #1188, #262, #678 ) ;
#318 = AXIS2_PLACEMENT_3D ( 'NONE', #839, #1140, #1250 ) ;
#319 = AXIS2_PLACEMENT_3D ( 'NONE', #504, #270, #1094 ) ;
#320 = AXIS2_PLACEMENT_3D ( 'NONE', #424, #760, #1171 ) ;
#321 = DIRECTION ( 'NONE',  ( 0.000000000000000000, 0.000000000000000000, -1.000000000000000000 ) ) ;
#322 = AXIS2_PLACEMENT_3D ( 'NONE', #278, #894, #691 ) ;
#323 = ORIENTED_EDGE ( 'NONE', *, *, #333, .T. ) ;
#324 = PLANE ( 'NONE',  #1226 ) ;
#325 = CARTESIAN_POINT ( 'NONE',  ( -14.51058043437768497, 5.400000000000000355, 8.099999000000051907 ) ) ;
#326 = VERTEX_POINT ( 'NONE', #407 ) ;
#327 = EDGE_CURVE ( 'NONE', #1231, #1323, #827, .T. ) ;
#328 = CARTESIAN_POINT ( 'NONE',  ( 3.250000000000000000, 4.099999999999998757, 1.548386256720202026 ) ) ;
#329 = ORIENTED_EDGE ( 'NONE', *, *, #1227, .T. ) ;
#330 = DIRECTION ( 'NONE',  ( 0.000000000000000000, 0.000000000000000000, -1.000000000000000000 ) ) ;
#331 = CARTESIAN_POINT ( 'NONE',  ( 2.750000000000000000, 0.000000000000000000, 1.430908802125418600 ) ) ;
#332 = DIRECTION ( 'NONE',  ( -1.000000000000000000, 0.000000000000000000, 0.000000000000000000 ) ) ;
#333 = EDGE_CURVE ( 'NONE', #1090, #195, #498, .T. ) ;
#334 = VERTEX_POINT ( 'NONE', #726 ) ;
#335 = CARTESIAN_POINT ( 'NONE',  ( 7.500000000000000000, 0.000000000000000000, 0.000000000000000000 ) ) ;
#336 = DIRECTION ( 'NONE',  ( 0.000000000000000000, 0.000000000000000000, -1.000000000000000000 ) ) ;
#337 = LINE ( 'NONE', #953, #141 ) ;
#338 = AXIS2_PLACEMENT_3D ( 'NONE', #1083, #248, #789 ) ;
#339 = FACE_OUTER_BOUND ( 'NONE', #346, .T. ) ;
#340 = VECTOR ( 'NONE', #82, 1000.000000000000000 ) ;
#341 = ORIENTED_EDGE ( 'NONE', *, *, #743, .T. ) ;
#342 = DIRECTION ( 'NONE',  ( -0.000000000000000000, -1.000000000000000000, -0.000000000000000000 ) ) ;
#343 = EDGE_CURVE ( 'NONE', #719, #1323, #115, .T. ) ;
#344 = DIRECTION ( 'NONE',  ( -0.000000000000000000, -1.000000000000000000, -0.000000000000000000 ) ) ;
#345 = CARTESIAN_POINT ( 'NONE',  ( 0.000000000000000000, 4.099999999999998757, -2.299999999999999822 ) ) ;
#346 = EDGE_LOOP ( 'NONE', ( #430, #539, #323, #564 ) ) ;
#347 = CARTESIAN_POINT ( 'NONE',  ( 0.3245359256503315137, 5.400000000000000355, 4.087135480133036403 ) ) ;
#348 = DIRECTION ( 'NONE',  ( -1.000000000000000000, 0.000000000000000000, 0.000000000000000000 ) ) ;
#349 = LINE ( 'NONE', #967, #280 ) ;
#350 = CC_DESIGN_PERSON_AND_ORGANIZATION_ASSIGNMENT ( #464, #1284, ( #735 ) ) ;
#351 = ORIENTED_EDGE ( 'NONE', *, *, #1243, .F. ) ;
#352 = DIRECTION ( 'NONE',  ( 1.734723475976805517E-15, 0.000000000000000000, 1.000000000000000000 ) ) ;
#353 = CARTESIAN_POINT ( 'NONE',  ( 4.821071679944716415, 5.400000000000000355, 5.646055531053212562 ) ) ;
#354 = EDGE_LOOP ( 'NONE', ( #655, #522, #1198, #379 ) ) ;
#355 = EDGE_CURVE ( 'NONE', #1231, #1212, #814, .T. ) ;
#356 = LINE ( 'NONE', #774, #863 ) ;
#357 = AXIS2_PLACEMENT_3D ( 'NONE', #1036, #810, #1048 ) ;
#358 = ORIENTED_EDGE ( 'NONE', *, *, #1004, .F. ) ;
#359 = CIRCLE ( 'NONE', #1095, 1.147310515219205795 ) ;
#360 = CIRCLE ( 'NONE', #384, 0.5000000000000000000 ) ;
#361 = CIRCLE ( 'NONE', #1163, 1.700000000000000178 ) ;
#362 = DIRECTION ( 'NONE',  ( -0.000000000000000000, -1.000000000000000000, -0.000000000000000000 ) ) ;
#363 = CC_DESIGN_SECURITY_CLASSIFICATION ( #688, ( #904 ) ) ;
#364 = DIRECTION ( 'NONE',  ( -0.000000000000000000, -1.000000000000000000, -0.000000000000000000 ) ) ;
#365 = LINE ( 'NONE', #569, #495 ) ;
#366 = VERTEX_POINT ( 'NONE', #297 ) ;
#367 = APPROVAL_DATE_TIME ( #571, #397 ) ;
#368 = ORIENTED_EDGE ( 'NONE', *, *, #773, .T. ) ;
#369 = EDGE_CURVE ( 'NONE', #589, #246, #422, .T. ) ;
#370 = FACE_OUTER_BOUND ( 'NONE', #807, .T. ) ;
#371 = LINE ( 'NONE', #1299, #493 ) ;
#372 = DIRECTION ( 'NONE',  ( 0.000000000000000000, -1.000000000000000000, 0.000000000000000000 ) ) ;
#373 = ORIENTED_EDGE ( 'NONE', *, *, #327, .T. ) ;
#374 = DIRECTION ( 'NONE',  ( 1.734723475976807094E-15, 0.000000000000000000, -1.000000000000000000 ) ) ;
#375 = VERTEX_POINT ( 'NONE', #820 ) ;
#376 = DIRECTION ( 'NONE',  ( -1.224646799147353207E-16, 0.000000000000000000, -1.000000000000000000 ) ) ;
#377 = LINE ( 'NONE', #568, #644 ) ;
#378 = FACE_OUTER_BOUND ( 'NONE', #66, .T. ) ;
#379 = ORIENTED_EDGE ( 'NONE', *, *, #41, .F. ) ;
#380 = CARTESIAN_POINT ( 'NONE',  ( 2.816687638038912056E-16, 0.5999999999999999778, 2.299999999999999822 ) ) ;
#381 = EDGE_CURVE ( 'NONE', #241, #1328, #1222, .T. ) ;
#382 = CARTESIAN_POINT ( 'NONE',  ( 7.500000000000000000, 0.5999999999999999778, 1.700000000000000178 ) ) ;
#383 = CIRCLE ( 'NONE', #749, 0.5999999999999998668 ) ;
#384 = AXIS2_PLACEMENT_3D ( 'NONE', #610, #304, #615 ) ;
#385 = DIRECTION ( 'NONE',  ( -0.000000000000000000, -1.000000000000000000, -0.000000000000000000 ) ) ;
#386 = CYLINDRICAL_SURFACE ( 'NONE', #491, 3.600000000000000089 ) ;
#387 = ADVANCED_FACE ( 'NONE', ( #194 ), #9, .F. ) ;
#388 = VECTOR ( 'NONE', #1206, 1000.000000000000000 ) ;
#389 = AXIS2_PLACEMENT_3D ( 'NONE', #573, #641, #762 ) ;
#390 = ORIENTED_EDGE ( 'NONE', *, *, #327, .F. ) ;
#391 = ORIENTED_EDGE ( 'NONE', *, *, #461, .T. ) ;
#392 = PLANE ( 'NONE',  #472 ) ;
#393 = LINE ( 'NONE', #1125, #340 ) ;
#394 = CARTESIAN_POINT ( 'NONE',  ( 3.193548387096774022, 5.400000000000000355, -1.661700544403711843 ) ) ;
#395 = EDGE_CURVE ( 'NONE', #1143, #730, #724, .T. ) ;
#396 = ORIENTED_EDGE ( 'NONE', *, *, #192, .T. ) ;
#397 = APPROVAL ( #1191, 'UNSPECIFIED' ) ;
#398 = DIRECTION ( 'NONE',  ( -0.000000000000000000, -1.000000000000000000, -0.000000000000000000 ) ) ;
#399 = ORIENTED_EDGE ( 'NONE', *, *, #940, .T. ) ;
#400 = DIRECTION ( 'NONE',  ( 0.000000000000000000, 0.000000000000000000, -1.000000000000000000 ) ) ;
#401 = DIRECTION ( 'NONE',  ( 0.000000000000000000, 0.000000000000000000, -1.000000000000000000 ) ) ;
#402 = ORIENTED_EDGE ( 'NONE', *, *, #1253, .F. ) ;
#403 = COORDINATED_UNIVERSAL_TIME_OFFSET ( 8, 0, .BEHIND. ) ;
#404 = ORIENTED_EDGE ( 'NONE', *, *, #1072, .T. ) ;
#405 = DIRECTION ( 'NONE',  ( 0.000000000000000000, 0.000000000000000000, -1.000000000000000000 ) ) ;
#406 = AXIS2_PLACEMENT_3D ( 'NONE', #832, #205, #621 ) ;
#407 = CARTESIAN_POINT ( 'NONE',  ( 4.250000000000000000, 5.400000000000000355, 1.430908802125420376 ) ) ;
#408 = VECTOR ( 'NONE', #1258, 1000.000000000000000 ) ;
#409 = ORIENTED_EDGE ( 'NONE', *, *, #964, .T. ) ;
#410 = VERTEX_POINT ( 'NONE', #1148 ) ;
#411 = CIRCLE ( 'NONE', #583, 0.5000000000000000000 ) ;
#412 = AXIS2_PLACEMENT_3D ( 'NONE', #878, #782, #868 ) ;
#413 = CIRCLE ( 'NONE', #320, 2.299999999999999822 ) ;
#414 = EDGE_CURVE ( 'NONE', #106, #643, #305, .T. ) ;
#415 = ORIENTED_EDGE ( 'NONE', *, *, #982, .T. ) ;
#416 = DIRECTION ( 'NONE',  ( -0.000000000000000000, -1.000000000000000000, -0.000000000000000000 ) ) ;
#417 = CARTESIAN_POINT ( 'NONE',  ( 0.3245359256503315137, 0.000000000000000000, 3.587135480133035959 ) ) ;
#418 = ORIENTED_EDGE ( 'NONE', *, *, #833, .F. ) ;
#419 = DATE_AND_TIME ( #1018, #79 ) ;
#420 = EDGE_CURVE ( 'NONE', #887, #375, #53, .T. ) ;
#421 = CARTESIAN_POINT ( 'NONE',  ( 7.500000000000000000, 0.000000000000000000, 0.000000000000000000 ) ) ;
#422 = LINE ( 'NONE', #215, #879 ) ;
#423 = ORIENTED_EDGE ( 'NONE', *, *, #1275, .T. ) ;
#424 = CARTESIAN_POINT ( 'NONE',  ( 7.500000000000000000, 4.099999999999998757, 0.000000000000000000 ) ) ;
#425 = ORIENTED_EDGE ( 'NONE', *, *, #940, .F. ) ;
#426 = ADVANCED_FACE ( 'NONE', ( #91 ), #228, .T. ) ;
#427 = DIRECTION ( 'NONE',  ( 0.000000000000000000, 0.000000000000000000, -1.000000000000000000 ) ) ;
#428 = ADVANCED_FACE ( 'NONE', ( #870 ), #656, .T. ) ;
#429 = LINE ( 'NONE', #313, #256 ) ;
#430 = ORIENTED_EDGE ( 'NONE', *, *, #590, .F. ) ;
#431 = VERTEX_POINT ( 'NONE', #440 ) ;
#432 = CIRCLE ( 'NONE', #772, 1.700000000000000178 ) ;
#433 = AXIS2_PLACEMENT_3D ( 'NONE', #439, #546, #741 ) ;
#434 = CIRCLE ( 'NONE', #1137, 3.600000000000000089 ) ;
#435 = AXIS2_PLACEMENT_3D ( 'NONE', #259, #458, #167 ) ;
#436 = CARTESIAN_POINT ( 'NONE',  ( 7.500000000000000888, 5.400000000000000355, 3.600000000000000089 ) ) ;
#437 = CIRCLE ( 'NONE', #607, 1.700000000000000178 ) ;
#438 = EDGE_LOOP ( 'NONE', ( #1096, #706, #315, #698 ) ) ;
#439 = CARTESIAN_POINT ( 'NONE',  ( 0.000000000000000000, 4.099999999999998757, 0.000000000000000000 ) ) ;
#440 = CARTESIAN_POINT ( 'NONE',  ( 6.243636052815220161, 5.400000000000000355, 6.121776673151763326 ) ) ;
#441 = EDGE_CURVE ( 'NONE', #1323, #719, #1249, .T. ) ;
#442 = DIRECTION ( 'NONE',  ( 0.000000000000000000, 0.000000000000000000, 1.000000000000000000 ) ) ;
#443 = ORIENTED_EDGE ( 'NONE', *, *, #244, .F. ) ;
#444 = FACE_OUTER_BOUND ( 'NONE', #670, .T. ) ;
#445 = FACE_OUTER_BOUND ( 'NONE', #1149, .T. ) ;
#446 = DIRECTION ( 'NONE',  ( -0.000000000000000000, -1.000000000000000000, -0.000000000000000000 ) ) ;
#447 = DIRECTION ( 'NONE',  ( -0.000000000000000000, -1.000000000000000000, -0.000000000000000000 ) ) ;
#448 = ORIENTED_EDGE ( 'NONE', *, *, #355, .T. ) ;
#449 = DIRECTION ( 'NONE',  ( 0.000000000000000000, 0.000000000000000000, -1.000000000000000000 ) ) ;
#450 = PRODUCT_DEFINITION_SHAPE ( 'NONE', 'NONE',  #735 ) ;
#451 = CARTESIAN_POINT ( 'NONE',  ( 6.972883408381637338, 5.400000000000000355, 3.941084634823342370 ) ) ;
#452 = CIRCLE ( 'NONE', #1289, 2.332123585386478126 ) ;
#453 = CARTESIAN_POINT ( 'NONE',  ( 3.193548387096774022, 0.000000000000000000, -1.661700544403712065 ) ) ;
#454 = AXIS2_PLACEMENT_3D ( 'NONE', #714, #1026, #283 ) ;
#455 = ORIENTED_EDGE ( 'NONE', *, *, #244, .T. ) ;
#456 = DIRECTION ( 'NONE',  ( -0.000000000000000000, -1.000000000000000000, -0.000000000000000000 ) ) ;
#457 = CYLINDRICAL_SURFACE ( 'NONE', #412, 0.5000000000000000000 ) ;
#458 = DIRECTION ( 'NONE',  ( -0.000000000000000000, -1.000000000000000000, -0.000000000000000000 ) ) ;
#459 = VERTEX_POINT ( 'NONE', #40 ) ;
#460 = DIRECTION ( 'NONE',  ( -0.000000000000000000, -1.000000000000000000, -0.000000000000000000 ) ) ;
#461 = EDGE_CURVE ( 'NONE', #1128, #766, #1076, .T. ) ;
#462 = CARTESIAN_POINT ( 'NONE',  ( 7.447071532671806438, 0.000000000000000000, 3.599658348856193069 ) ) ;
#463 = DIRECTION ( 'NONE',  ( -1.734723475976807094E-15, 0.000000000000000000, 1.000000000000000000 ) ) ;
#464 = PERSON_AND_ORGANIZATION ( #874, #1269 ) ;
#465 = ADVANCED_FACE ( 'NONE', ( #142 ), #1075, .T. ) ;
#466 = CYLINDRICAL_SURFACE ( 'NONE', #1203, 3.600000000000000089 ) ;
#467 = DIRECTION ( 'NONE',  ( -0.000000000000000000, -1.000000000000000000, -0.000000000000000000 ) ) ;
#468 = CARTESIAN_POINT ( 'NONE',  ( 3.250000000000000000, 5.400000000000000355, 1.430908802125418600 ) ) ;
#469 = ADVANCED_FACE ( 'NONE', ( #768 ), #236, .T. ) ;
#470 = PERSON_AND_ORGANIZATION ( #874, #1269 ) ;
#471 = AXIS2_PLACEMENT_3D ( 'NONE', #171, #1216, #156 ) ;
#472 = AXIS2_PLACEMENT_3D ( 'NONE', #681, #1092, #480 ) ;
#473 = FACE_OUTER_BOUND ( 'NONE', #653, .T. ) ;
#474 = LOCAL_TIME ( 18, 24, 5.000000000000000000, #266 ) ;
#475 = DIRECTION ( 'NONE',  ( -0.000000000000000000, -1.000000000000000000, -0.000000000000000000 ) ) ;
#476 = DIRECTION ( 'NONE',  ( -0.000000000000000000, -1.000000000000000000, -0.000000000000000000 ) ) ;
#477 = ORIENTED_EDGE ( 'NONE', *, *, #1295, .F. ) ;
#478 = EDGE_CURVE ( 'NONE', #601, #410, #437, .T. ) ;
#479 = ORIENTED_EDGE ( 'NONE', *, *, #997, .F. ) ;
#480 = DIRECTION ( 'NONE',  ( 0.000000000000000000, 0.000000000000000000, -1.000000000000000000 ) ) ;
#481 = CARTESIAN_POINT ( 'NONE',  ( 2.328344260179531666, 0.000000000000000000, 2.745689896198955093 ) ) ;
#482 = CARTESIAN_POINT ( 'NONE',  ( 7.500000000000000000, 0.000000000000000000, -1.700000000000000178 ) ) ;
#483 = ORIENTED_EDGE ( 'NONE', *, *, #96, .T. ) ;
#484 = EDGE_CURVE ( 'NONE', #980, #334, #16, .T. ) ;
#485 = DATE_TIME_ROLE ( 'creation_date' ) ;
#486 = EDGE_CURVE ( 'NONE', #1042, #963, #816, .T. ) ;
#487 = FACE_OUTER_BOUND ( 'NONE', #20, .T. ) ;
#488 = DIRECTION ( 'NONE',  ( 0.000000000000000000, 0.000000000000000000, -1.000000000000000000 ) ) ;
#489 = FACE_OUTER_BOUND ( 'NONE', #191, .T. ) ;
#490 = ORIENTED_EDGE ( 'NONE', *, *, #96, .F. ) ;
#491 = AXIS2_PLACEMENT_3D ( 'NONE', #164, #263, #1321 ) ;
#492 = DIRECTION ( 'NONE',  ( -0.000000000000000000, 1.000000000000000000, -0.000000000000000000 ) ) ;
#493 = VECTOR ( 'NONE', #781, 999.9999999999998863 ) ;
#494 = CIRCLE ( 'NONE', #1097, 2.299999999999999822 ) ;
#495 = VECTOR ( 'NONE', #663, 999.9999999999998863 ) ;
#496 = FACE_OUTER_BOUND ( 'NONE', #222, .T. ) ;
#497 = CARTESIAN_POINT ( 'NONE',  ( 5.076130911220966269, 0.000000000000000000, 3.306789778691940906 ) ) ;
#498 = CIRCLE ( 'NONE', #1312, 0.5999999999999998668 ) ;
#499 = ORIENTED_EDGE ( 'NONE', *, *, #72, .T. ) ;
#500 = CC_DESIGN_DATE_AND_TIME_ASSIGNMENT ( #58, #485, ( #735 ) ) ;
#501 = ORIENTED_EDGE ( 'NONE', *, *, #149, .F. ) ;
#502 = CARTESIAN_POINT ( 'NONE',  ( 4.306451612903225978, 0.000000000000000000, -1.661700544403714286 ) ) ;
#503 = ADVANCED_FACE ( 'NONE', ( #445 ), #661, .F. ) ;
#504 = CARTESIAN_POINT ( 'NONE',  ( 2.750000000000000000, 5.400000000000000355, 1.430908802125418600 ) ) ;
#505 = ORIENTED_EDGE ( 'NONE', *, *, #667, .T. ) ;
#506 = APPROVAL_DATE_TIME ( #419, #892 ) ;
#507 = VERTEX_POINT ( 'NONE', #547 ) ;
#508 = EDGE_CURVE ( 'NONE', #1230, #1081, #973, .T. ) ;
#509 = DIRECTION ( 'NONE',  ( 0.000000000000000000, 1.000000000000000000, 0.000000000000000000 ) ) ;
#510 = CARTESIAN_POINT ( 'NONE',  ( 4.750000000000000888, 4.099999999999998757, 1.430908802125420376 ) ) ;
#511 = ORIENTED_EDGE ( 'NONE', *, *, #237, .F. ) ;
#512 = COORDINATED_UNIVERSAL_TIME_OFFSET ( 8, 0, .BEHIND. ) ;
#513 = EDGE_LOOP ( 'NONE', ( #1002, #219, #157, #281 ) ) ;
#514 = DIRECTION ( 'NONE',  ( 0.000000000000000000, 0.000000000000000000, -1.000000000000000000 ) ) ;
#515 = CYLINDRICAL_SURFACE ( 'NONE', #771, 2.647310515219205573 ) ;
#516 = AXIS2_PLACEMENT_3D ( 'NONE', #949, #245, #442 ) ;
#517 = VERTEX_POINT ( 'NONE', #1274 ) ;
#518 = VERTEX_POINT ( 'NONE', #849 ) ;
#519 = VECTOR ( 'NONE', #108, 1000.000000000000000 ) ;
#520 = CLOSED_SHELL ( 'NONE', ( #32, #179, #746, #538, #909, #1019, #574, #180, #465, #972, #664, #1067, #612, #587, #705, #1107, #426, #138, #387, #265, #658, #886, #277, #914, #173, #813, #1063, #1024, #872, #1127, #503, #1193, #632, #1266, #428, #469, #1003, #850, #223, #202 ) ) ;
#521 = EDGE_CURVE ( 'NONE', #1074, #2, #1280, .T. ) ;
#522 = ORIENTED_EDGE ( 'NONE', *, *, #890, .T. ) ;
#523 = CARTESIAN_POINT ( 'NONE',  ( 7.500000000000000000, 0.000000000000000000, 0.000000000000000000 ) ) ;
#524 = DIRECTION ( 'NONE',  ( 0.000000000000000000, 0.000000000000000000, -1.000000000000000000 ) ) ;
#525 = EDGE_CURVE ( 'NONE', #334, #848, #793, .T. ) ;
#526 = ORIENTED_EDGE ( 'NONE', *, *, #1279, .F. ) ;
#527 = ORIENTED_EDGE ( 'NONE', *, *, #23, .T. ) ;
#528 = EDGE_CURVE ( 'NONE', #1328, #59, #1262, .T. ) ;
#529 = ORIENTED_EDGE ( 'NONE', *, *, #1038, .T. ) ;
#530 = EDGE_CURVE ( 'NONE', #719, #601, #540, .T. ) ;
#531 = CARTESIAN_POINT ( 'NONE',  ( 7.500000000000000000, 0.5999999999999999778, 0.000000000000000000 ) ) ;
#532 = DIRECTION ( 'NONE',  ( -1.000000000000000000, 0.000000000000000000, 0.000000000000000000 ) ) ;
#533 = ORIENTED_EDGE ( 'NONE', *, *, #1004, .T. ) ;
#534 = CARTESIAN_POINT ( 'NONE',  ( 4.750000000000000888, 0.000000000000000000, 1.430908802125420376 ) ) ;
#535 = ORIENTED_EDGE ( 'NONE', *, *, #825, .F. ) ;
#536 = FACE_OUTER_BOUND ( 'NONE', #623, .T. ) ;
#537 = DIRECTION ( 'NONE',  ( 0.000000000000000000, 1.000000000000000000, 0.000000000000000000 ) ) ;
#538 = ADVANCED_FACE ( 'NONE', ( #129 ), #247, .T. ) ;
#539 = ORIENTED_EDGE ( 'NONE', *, *, #1087, .F. ) ;
#540 = CIRCLE ( 'NONE', #989, 0.5999999999999998668 ) ;
#541 = CIRCLE ( 'NONE', #1267, 0.5000000000000004441 ) ;
#542 = VECTOR ( 'NONE', #908, 1000.000000000000000 ) ;
#543 = AXIS2_PLACEMENT_3D ( 'NONE', #970, #654, #638 ) ;
#544 = DIRECTION ( 'NONE',  ( 0.000000000000000000, 0.000000000000000000, -1.000000000000000000 ) ) ;
#545 = ORIENTED_EDGE ( 'NONE', *, *, #48, .T. ) ;
#546 = DIRECTION ( 'NONE',  ( -0.000000000000000000, -1.000000000000000000, -0.000000000000000000 ) ) ;
#547 = CARTESIAN_POINT ( 'NONE',  ( 3.193548387096774022, 5.400000000000000355, 1.661700544403711843 ) ) ;
#548 = CARTESIAN_POINT ( 'NONE',  ( 0.000000000000000000, 5.400000000000000355, 0.000000000000000000 ) ) ;
#549 = LINE ( 'NONE', #1166, #1334 ) ;
#550 = ORIENTED_EDGE ( 'NONE', *, *, #508, .T. ) ;
#551 = DIRECTION ( 'NONE',  ( -0.000000000000000000, -1.000000000000000000, -0.000000000000000000 ) ) ;
#552 = DIRECTION ( 'NONE',  ( -0.000000000000000000, -1.000000000000000000, -0.000000000000000000 ) ) ;
#553 = DIRECTION ( 'NONE',  ( -0.000000000000000000, -1.000000000000000000, -0.000000000000000000 ) ) ;
#554 = UNCERTAINTY_MEASURE_WITH_UNIT (LENGTH_MEASURE( 1.000000000000000082E-05 ), #158, 'distance_accuracy_value', 'NONE');
#555 = LINE ( 'NONE', #328, #143 ) ;
#556 = EDGE_LOOP ( 'NONE', ( #1236, #294 ) ) ;
#557 = CARTESIAN_POINT ( 'NONE',  ( 0.2849583737417542562, 0.000000000000000000, 3.588704324019248659 ) ) ;
#558 = ORIENTED_EDGE ( 'NONE', *, *, #369, .F. ) ;
#559 = AXIS2_PLACEMENT_3D ( 'NONE', #325, #611, #1022 ) ;
#560 = AXIS2_PLACEMENT_3D ( 'NONE', #1086, #267, #154 ) ;
#561 = CARTESIAN_POINT ( 'NONE',  ( 0.3245359256503315137, 5.400000000000000355, 3.587135480133035959 ) ) ;
#562 = AXIS2_PLACEMENT_3D ( 'NONE', #184, #605, #809 ) ;
#563 = CIRCLE ( 'NONE', #843, 17.36827091915841592 ) ;
#564 = ORIENTED_EDGE ( 'NONE', *, *, #87, .F. ) ;
#565 = LOCAL_TIME ( 18, 24, 5.000000000000000000, #880 ) ;
#566 = AXIS2_PLACEMENT_3D ( 'NONE', #806, #1202, #1089 ) ;
#567 = DIRECTION ( 'NONE',  ( -0.000000000000000000, -1.000000000000000000, -0.000000000000000000 ) ) ;
#568 = CARTESIAN_POINT ( 'NONE',  ( 3.250000000000000000, 5.400000000000000355, 0.000000000000000000 ) ) ;
#569 = CARTESIAN_POINT ( 'NONE',  ( 8.211282186435251873, 5.400000000000000355, 0.2378605710492756875 ) ) ;
#570 = ORIENTED_EDGE ( 'NONE', *, *, #590, .T. ) ;
#571 = DATE_AND_TIME ( #1296, #565 ) ;
#572 = ORIENTED_EDGE ( 'NONE', *, *, #758, .T. ) ;
#573 = CARTESIAN_POINT ( 'NONE',  ( 3.600000000000000089, 5.400000000000000355, 0.000000000000000000 ) ) ;
#574 = ADVANCED_FACE ( 'NONE', ( #370 ), #207, .T. ) ;
#575 = CYLINDRICAL_SURFACE ( 'NONE', #140, 3.600000000000000089 ) ;
#576 = DIRECTION ( 'NONE',  ( 0.000000000000000000, 0.000000000000000000, -1.000000000000000000 ) ) ;
#577 = DIRECTION ( 'NONE',  ( -1.000000000000000000, 0.000000000000000000, 0.000000000000000000 ) ) ;
#578 = DIRECTION ( 'NONE',  ( -0.000000000000000000, 1.000000000000000000, -0.000000000000000000 ) ) ;
#579 = EDGE_CURVE ( 'NONE', #1323, #410, #707, .T. ) ;
#580 = DIRECTION ( 'NONE',  ( 0.000000000000000000, 1.000000000000000000, 0.000000000000000000 ) ) ;
#581 = ORIENTED_EDGE ( 'NONE', *, *, #1029, .T. ) ;
#582 = CIRCLE ( 'NONE', #1180, 0.5000000000000004441 ) ;
#583 = AXIS2_PLACEMENT_3D ( 'NONE', #856, #1271, #744 ) ;
#584 = CIRCLE ( 'NONE', #776, 3.600000000000000089 ) ;
#585 = CARTESIAN_POINT ( 'NONE',  ( 7.032802297079268072, 4.099999999999998757, 6.385682528089893673 ) ) ;
#587 = ADVANCED_FACE ( 'NONE', ( #993 ), #694, .T. ) ;
#586 = CC_DESIGN_APPROVAL ( #892, ( #904 ) ) ;
#588 = DIRECTION ( 'NONE',  ( 0.000000000000000000, 0.000000000000000000, -1.000000000000000000 ) ) ;
#589 = VERTEX_POINT ( 'NONE', #788 ) ;
#590 = EDGE_CURVE ( 'NONE', #1221, #6, #383, .T. ) ;
#591 = DIRECTION ( 'NONE',  ( -0.000000000000000000, -1.000000000000000000, -0.000000000000000000 ) ) ;
#592 = CARTESIAN_POINT ( 'NONE',  ( 7.500000000000000000, 4.099999999999998757, -2.299999999999999822 ) ) ;
#593 = CARTESIAN_POINT ( 'NONE',  ( 4.750000000000000888, 5.400000000000000355, -1.430908802125420376 ) ) ;
#594 = ORIENTED_EDGE ( 'NONE', *, *, #420, .F. ) ;
#595 = COORDINATED_UNIVERSAL_TIME_OFFSET ( 8, 0, .BEHIND. ) ;
#596 = DIRECTION ( 'NONE',  ( -0.000000000000000000, -1.000000000000000000, -0.000000000000000000 ) ) ;
#597 = LINE ( 'NONE', #717, #209 ) ;
#598 = CARTESIAN_POINT ( 'NONE',  ( 5.003389866030984123, 5.400000000000000355, 7.534719343088689847 ) ) ;
#599 = ORIENTED_EDGE ( 'NONE', *, *, #217, .T. ) ;
#600 = VECTOR ( 'NONE', #177, 1000.000000000000000 ) ;
#601 = VERTEX_POINT ( 'NONE', #282 ) ;
#602 = DIRECTION ( 'NONE',  ( 1.778091562876225694E-14, 0.000000000000000000, 1.000000000000000000 ) ) ;
#603 = CIRCLE ( 'NONE', #139, 15.86827091915841947 ) ;
#604 = AXIS2_PLACEMENT_3D ( 'NONE', #646, #447, #659 ) ;
#605 = DIRECTION ( 'NONE',  ( 0.000000000000000000, -1.000000000000000000, 0.000000000000000000 ) ) ;
#606 = DIRECTION ( 'NONE',  ( 0.000000000000000000, -1.000000000000000000, 0.000000000000000000 ) ) ;
#607 = AXIS2_PLACEMENT_3D ( 'NONE', #133, #673, #757 ) ;
#608 = ORIENTED_EDGE ( 'NONE', *, *, #530, .F. ) ;
#609 = ORIENTED_EDGE ( 'NONE', *, *, #1199, .F. ) ;
#610 = CARTESIAN_POINT ( 'NONE',  ( 2.750000000000000000, 5.400000000000000355, -1.430908802125418600 ) ) ;
#611 = DIRECTION ( 'NONE',  ( 0.000000000000000000, -1.000000000000000000, 0.000000000000000000 ) ) ;
#612 = ADVANCED_FACE ( 'NONE', ( #73 ), #803, .T. ) ;
#613 = ORIENTED_EDGE ( 'NONE', *, *, #1275, .F. ) ;
#614 = PERSON_AND_ORGANIZATION ( #874, #1269 ) ;
#615 = DIRECTION ( 'NONE',  ( 0.000000000000000000, 0.000000000000000000, 1.000000000000000000 ) ) ;
#616 = DIRECTION ( 'NONE',  ( -0.000000000000000000, -1.000000000000000000, -0.000000000000000000 ) ) ;
#617 = EDGE_LOOP ( 'NONE', ( #358, #455, #203, #1192 ) ) ;
#618 = ORIENTED_EDGE ( 'NONE', *, *, #961, .T. ) ;
#619 = CARTESIAN_POINT ( 'NONE',  ( 6.243636052815220161, 5.400000000000000355, 6.121776673151763326 ) ) ;
#620 = AXIS2_PLACEMENT_3D ( 'NONE', #994, #69, #1281 ) ;
#621 = DIRECTION ( 'NONE',  ( 0.000000000000000000, 0.000000000000000000, -1.000000000000000000 ) ) ;
#622 = EDGE_CURVE ( 'NONE', #71, #1028, #1200, .T. ) ;
#623 = EDGE_LOOP ( 'NONE', ( #581, #1146, #1326, #409 ) ) ;
#624 = ORIENTED_EDGE ( 'NONE', *, *, #1253, .T. ) ;
#625 = AXIS2_PLACEMENT_3D ( 'NONE', #130, #37, #861 ) ;
#626 = EDGE_CURVE ( 'NONE', #1081, #1128, #582, .T. ) ;
#627 = ORIENTED_EDGE ( 'NONE', *, *, #650, .F. ) ;
#628 = CYLINDRICAL_SURFACE ( 'NONE', #775, 2.299999999999999822 ) ;
#629 = DIRECTION ( 'NONE',  ( 0.000000000000000000, -1.000000000000000000, 0.000000000000000000 ) ) ;
#630 = VERTEX_POINT ( 'NONE', #175 ) ;
#631 = CYLINDRICAL_SURFACE ( 'NONE', #795, 0.5000000000000000000 ) ;
#632 = ADVANCED_FACE ( 'NONE', ( #487 ), #677, .T. ) ;
#633 = ORIENTED_EDGE ( 'NONE', *, *, #758, .F. ) ;
#634 = CYLINDRICAL_SURFACE ( 'NONE', #1162, 2.299999999999999822 ) ;
#635 = DIRECTION ( 'NONE',  ( -0.000000000000000000, -1.000000000000000000, -0.000000000000000000 ) ) ;
#636 = ORIENTED_EDGE ( 'NONE', *, *, #25, .F. ) ;
#637 = EDGE_LOOP ( 'NONE', ( #558, #423, #260, #636 ) ) ;
#638 = DIRECTION ( 'NONE',  ( -1.000000000000000000, 0.000000000000000000, 0.000000000000000000 ) ) ;
#639 = ORIENTED_EDGE ( 'NONE', *, *, #1131, .F. ) ;
#640 = FACE_OUTER_BOUND ( 'NONE', #438, .T. ) ;
#641 = DIRECTION ( 'NONE',  ( 0.000000000000000000, 1.000000000000000000, 0.000000000000000000 ) ) ;
#642 = AXIS2_PLACEMENT_3D ( 'NONE', #737, #1229, #86 ) ;
#643 = VERTEX_POINT ( 'NONE', #1109 ) ;
#644 = VECTOR ( 'NONE', #54, 1000.000000000000000 ) ;
#645 = CIRCLE ( 'NONE', #56, 3.600000000000000089 ) ;
#646 = CARTESIAN_POINT ( 'NONE',  ( 0.000000000000000000, 5.400000000000000355, 0.000000000000000000 ) ) ;
#647 = ORIENTED_EDGE ( 'NONE', *, *, #478, .F. ) ;
#648 = CARTESIAN_POINT ( 'NONE',  ( 7.500000000000000000, 5.400000000000000355, 0.000000000000000000 ) ) ;
#649 = DIRECTION ( 'NONE',  ( 0.000000000000000000, 1.000000000000000000, 0.000000000000000000 ) ) ;
#650 = EDGE_CURVE ( 'NONE', #89, #1238, #1031, .T. ) ;
#651 = DIRECTION ( 'NONE',  ( -0.000000000000000000, -1.000000000000000000, -0.000000000000000000 ) ) ;
#652 = PRODUCT ( '25d107 button', '25d107 button', '', ( #65 ) ) ;
#653 = EDGE_LOOP ( 'NONE', ( #1264, #710, #81, #415, #368, #808, #1332, #852, #711, #206, #822, #910, #1069, #1277, #1242, #1049, #1285, #188, #955, #396, #310, #1190, #824, #1301, #101, #1017, #911, #1152 ) ) ;
#654 = DIRECTION ( 'NONE',  ( -0.000000000000000000, 1.000000000000000000, -0.000000000000000000 ) ) ;
#655 = ORIENTED_EDGE ( 'NONE', *, *, #779, .T. ) ;
#656 = CYLINDRICAL_SURFACE ( 'NONE', #901, 0.5000000000000000000 ) ;
#657 = CARTESIAN_POINT ( 'NONE',  ( 2.857690484780735840, 4.099999999999998757, 8.099999000000025262 ) ) ;
#658 = ADVANCED_FACE ( 'NONE', ( #689 ), #183, .F. ) ;
#659 = DIRECTION ( 'NONE',  ( 0.000000000000000000, 0.000000000000000000, -1.000000000000000000 ) ) ;
#660 = ORIENTED_EDGE ( 'NONE', *, *, #165, .T. ) ;
#661 = PLANE ( 'NONE',  #1134 ) ;
#662 = CARTESIAN_POINT ( 'NONE',  ( -14.51058043437768497, 5.400000000000000355, 8.099999000000051907 ) ) ;
#663 = DIRECTION ( 'NONE',  ( -0.3171474280657009537, 0.000000000000000000, 0.9483762485803359787 ) ) ;
#664 = ADVANCED_FACE ( 'NONE', ( #46 ), #466, .T. ) ;
#665 = AXIS2_PLACEMENT_3D ( 'NONE', #936, #309, #1141 ) ;
#667 = EDGE_CURVE ( 'NONE', #1315, #937, #452, .T. ) ;
#666 = AXIS2_PLACEMENT_3D ( 'NONE', #1268, #123, #1082 ) ;
#668 = DIRECTION ( 'NONE',  ( 0.000000000000000000, 0.000000000000000000, 1.000000000000000000 ) ) ;
#669 = AXIS2_PLACEMENT_3D ( 'NONE', #648, #214, #427 ) ;
#670 = EDGE_LOOP ( 'NONE', ( #1337, #329, #1303, #201 ) ) ;
#671 = EDGE_CURVE ( 'NONE', #963, #829, #983, .T. ) ;
#672 = VECTOR ( 'NONE', #1278, 1000.000000000000000 ) ;
#673 = DIRECTION ( 'NONE',  ( -0.000000000000000000, -1.000000000000000000, -0.000000000000000000 ) ) ;
#674 = FACE_OUTER_BOUND ( 'NONE', #166, .T. ) ;
#675 = CARTESIAN_POINT ( 'NONE',  ( 6.243636052815220161, 4.099999999999998757, 6.121776673151763326 ) ) ;
#676 = DIRECTION ( 'NONE',  ( 0.000000000000000000, 1.000000000000000000, 0.000000000000000000 ) ) ;
#677 = CYLINDRICAL_SURFACE ( 'NONE', #93, 0.5000000000000000000 ) ;
#678 = DIRECTION ( 'NONE',  ( 0.000000000000000000, 0.000000000000000000, -1.000000000000000000 ) ) ;
#679 = CARTESIAN_POINT ( 'NONE',  ( 4.250000000000000000, 4.099999999999998757, -1.430908802125420376 ) ) ;
#680 = ORIENTED_EDGE ( 'NONE', *, *, #369, .T. ) ;
#681 = CARTESIAN_POINT ( 'NONE',  ( 2.299999999999999822, 4.099999999999998757, 0.000000000000000000 ) ) ;
#682 = DIRECTION ( 'NONE',  ( 0.000000000000000000, 1.000000000000000000, 0.000000000000000000 ) ) ;
#683 = DIRECTION ( 'NONE',  ( 0.000000000000000000, -1.000000000000000000, 0.000000000000000000 ) ) ;
#684 = ORIENTED_EDGE ( 'NONE', *, *, #671, .F. ) ;
#685 =( NAMED_UNIT ( * ) SI_UNIT ( $, .STERADIAN. ) SOLID_ANGLE_UNIT ( ) );
#686 = VECTOR ( 'NONE', #257, 1000.000000000000000 ) ;
#687 = AXIS2_PLACEMENT_3D ( 'NONE', #212, #398, #544 ) ;
#688 = SECURITY_CLASSIFICATION ( '', '', #190 ) ;
#689 = FACE_OUTER_BOUND ( 'NONE', #821, .T. ) ;
#690 = CYLINDRICAL_SURFACE ( 'NONE', #943, 0.5000000000000000000 ) ;
#691 = DIRECTION ( 'NONE',  ( 0.000000000000000000, 0.000000000000000000, -1.000000000000000000 ) ) ;
#692 = ORIENTED_EDGE ( 'NONE', *, *, #461, .F. ) ;
#693 = CARTESIAN_POINT ( 'NONE',  ( 7.032802297079268072, 5.400000000000000355, 6.385682528089893673 ) ) ;
#694 = CYLINDRICAL_SURFACE ( 'NONE', #966, 2.299999999999999822 ) ;
#695 = LINE ( 'NONE', #1210, #1033 ) ;
#696 = CYLINDRICAL_SURFACE ( 'NONE', #566, 1.147310515219206239 ) ;
#697 = VERTEX_POINT ( 'NONE', #906 ) ;
#698 = ORIENTED_EDGE ( 'NONE', *, *, #198, .F. ) ;
#699 = DIRECTION ( 'NONE',  ( -0.000000000000000000, -1.000000000000000000, -0.000000000000000000 ) ) ;
#700 = CYLINDRICAL_SURFACE ( 'NONE', #562, 0.5000000000000000000 ) ;
#701 = LINE ( 'NONE', #186, #136 ) ;
#702 = ORIENTED_EDGE ( 'NONE', *, *, #622, .F. ) ;
#703 = PERSON_AND_ORGANIZATION ( #874, #1269 ) ;
#704 = VECTOR ( 'NONE', #5, 1000.000000000000000 ) ;
#705 = ADVANCED_FACE ( 'NONE', ( #473, #68, #1319 ), #392, .T. ) ;
#706 = ORIENTED_EDGE ( 'NONE', *, *, #1295, .T. ) ;
#707 = CIRCLE ( 'NONE', #253, 0.5999999999999998668 ) ;
#708 = DIRECTION ( 'NONE',  ( 0.000000000000000000, 0.000000000000000000, -1.000000000000000000 ) ) ;
#709 = DIRECTION ( 'NONE',  ( -0.000000000000000000, -1.000000000000000000, -0.000000000000000000 ) ) ;
#710 = ORIENTED_EDGE ( 'NONE', *, *, #1169, .T. ) ;
#711 = ORIENTED_EDGE ( 'NONE', *, *, #124, .T. ) ;
#712 = ORIENTED_EDGE ( 'NONE', *, *, #237, .T. ) ;
#713 = EDGE_CURVE ( 'NONE', #137, #1315, #891, .T. ) ;
#714 = CARTESIAN_POINT ( 'NONE',  ( 7.500000000000000000, 5.400000000000000355, 0.000000000000000000 ) ) ;
#715 = DIRECTION ( 'NONE',  ( -0.000000000000000000, -1.000000000000000000, -0.000000000000000000 ) ) ;
#716 = ORIENTED_EDGE ( 'NONE', *, *, #528, .T. ) ;
#717 = CARTESIAN_POINT ( 'NONE',  ( 0.000000000000000000, 0.000000000000000000, -2.299999999999999822 ) ) ;
#718 = CARTESIAN_POINT ( 'NONE',  ( 4.408728476930471151E-16, 4.099999999999998757, 3.600000000000000089 ) ) ;
#719 = VERTEX_POINT ( 'NONE', #984 ) ;
#720 = EDGE_CURVE ( 'NONE', #1217, #848, #877, .T. ) ;
#721 = ORIENTED_EDGE ( 'NONE', *, *, #1131, .T. ) ;
#722 = PERSON_AND_ORGANIZATION_ROLE ( 'classification_officer' ) ;
#723 = ORIENTED_EDGE ( 'NONE', *, *, #713, .T. ) ;
#724 = CIRCLE ( 'NONE', #642, 2.299999999999999822 ) ;
#725 = FACE_OUTER_BOUND ( 'NONE', #556, .T. ) ;
#726 = CARTESIAN_POINT ( 'NONE',  ( 5.371724702535482621, 4.099999999999998757, 2.903522732509997262 ) ) ;
#727 = CIRCLE ( 'NONE', #902, 0.5000000000000000000 ) ;
#728 = VECTOR ( 'NONE', #258, 1000.000000000000000 ) ;
#729 = ORIENTED_EDGE ( 'NONE', *, *, #484, .F. ) ;
#730 = VERTEX_POINT ( 'NONE', #592 ) ;
#731 =( GEOMETRIC_REPRESENTATION_CONTEXT ( 3 ) GLOBAL_UNCERTAINTY_ASSIGNED_CONTEXT ( ( #554 ) ) GLOBAL_UNIT_ASSIGNED_CONTEXT ( ( #158, #44, #685 ) ) REPRESENTATION_CONTEXT ( 'NONE', 'WORKASPACE' ) );
#732 = AXIS2_PLACEMENT_3D ( 'NONE', #593, #580, #1001 ) ;
#733 = CARTESIAN_POINT ( 'NONE',  ( 7.500000000000000000, 0.5999999999999999778, 2.299999999999999822 ) ) ;
#734 = ORIENTED_EDGE ( 'NONE', *, *, #110, .F. ) ;
#735 = PRODUCT_DEFINITION ( 'UNKNOWN', '', #904, #107 ) ;
#736 = CARTESIAN_POINT ( 'NONE',  ( 2.328344260179531666, 4.099999999999998757, 2.745689896198955093 ) ) ;
#737 = CARTESIAN_POINT ( 'NONE',  ( 7.500000000000000000, 4.099999999999998757, 0.000000000000000000 ) ) ;
#738 = ORIENTED_EDGE ( 'NONE', *, *, #1310, .F. ) ;
#739 = CARTESIAN_POINT ( 'NONE',  ( 5.550319035511133592, 5.400000000000000355, 3.465363492724793382 ) ) ;
#740 = EDGE_LOOP ( 'NONE', ( #425, #1120, #1102, #734 ) ) ;
#741 = DIRECTION ( 'NONE',  ( 0.000000000000000000, 0.000000000000000000, -1.000000000000000000 ) ) ;
#742 = DIRECTION ( 'NONE',  ( 0.000000000000000000, 0.000000000000000000, 1.000000000000000000 ) ) ;
#743 = EDGE_CURVE ( 'NONE', #937, #59, #359, .T. ) ;
#744 = DIRECTION ( 'NONE',  ( 0.000000000000000000, 0.000000000000000000, -1.000000000000000000 ) ) ;
#745 = ORIENTED_EDGE ( 'NONE', *, *, #286, .F. ) ;
#746 = ADVANCED_FACE ( 'NONE', ( #1195 ), #1333, .T. ) ;
#747 = CYLINDRICAL_SURFACE ( 'NONE', #1010, 3.600000000000000089 ) ;
#748 = CARTESIAN_POINT ( 'NONE',  ( 0.000000000000000000, 0.5999999999999999778, -1.700000000000000178 ) ) ;
#749 = AXIS2_PLACEMENT_3D ( 'NONE', #382, #1187, #999 ) ;
#750 = DIRECTION ( 'NONE',  ( -0.000000000000000000, -0.000000000000000000, 1.000000000000000000 ) ) ;
#751 = CIRCLE ( 'NONE', #543, 15.86827091915841947 ) ;
#752 = CIRCLE ( 'NONE', #604, 3.600000000000000089 ) ;
#753 = VECTOR ( 'NONE', #229, 1000.000000000000000 ) ;
#754 = CC_DESIGN_APPROVAL ( #932, ( #688 ) ) ;
#755 = CARTESIAN_POINT ( 'NONE',  ( 7.500000000000000000, 0.5999999999999999778, 0.000000000000000000 ) ) ;
#756 = ORIENTED_EDGE ( 'NONE', *, *, #486, .F. ) ;
#757 = DIRECTION ( 'NONE',  ( 0.000000000000000000, 0.000000000000000000, -1.000000000000000000 ) ) ;
#758 = EDGE_CURVE ( 'NONE', #127, #507, #1088, .T. ) ;
#759 = DIRECTION ( 'NONE',  ( 0.000000000000000000, -1.000000000000000000, 0.000000000000000000 ) ) ;
#760 = DIRECTION ( 'NONE',  ( -0.000000000000000000, -1.000000000000000000, -0.000000000000000000 ) ) ;
#761 = VERTEX_POINT ( 'NONE', #1305 ) ;
#762 = DIRECTION ( 'NONE',  ( 0.000000000000000000, -0.000000000000000000, 1.000000000000000000 ) ) ;
#763 = DIRECTION ( 'NONE',  ( -0.000000000000000000, 1.000000000000000000, -0.000000000000000000 ) ) ;
#764 = EDGE_LOOP ( 'NONE', ( #505, #777, #526, #723 ) ) ;
#765 = EDGE_CURVE ( 'NONE', #1008, #71, #377, .T. ) ;
#766 = VERTEX_POINT ( 'NONE', #769 ) ;
#767 = APPLICATION_PROTOCOL_DEFINITION ( 'international standard', 'config_control_design', 1994, #239 ) ;
#768 = FACE_OUTER_BOUND ( 'NONE', #311, .T. ) ;
#769 = CARTESIAN_POINT ( 'NONE',  ( 0.8071899743089302470, 5.400000000000000355, 3.956578713500802369 ) ) ;
#770 = CARTESIAN_POINT ( 'NONE',  ( 7.447071532671806438, 4.099999999999998757, 3.599658348856193069 ) ) ;
#771 = AXIS2_PLACEMENT_3D ( 'NONE', #100, #1340, #524 ) ;
#772 = AXIS2_PLACEMENT_3D ( 'NONE', #1093, #974, #1201 ) ;
#773 = EDGE_CURVE ( 'NONE', #366, #517, #34, .T. ) ;
#774 = CARTESIAN_POINT ( 'NONE',  ( 3.250000000000000000, 5.400000000000000355, -1.430908802125418600 ) ) ;
#775 = AXIS2_PLACEMENT_3D ( 'NONE', #421, #831, #1240 ) ;
#776 = AXIS2_PLACEMENT_3D ( 'NONE', #548, #651, #1066 ) ;
#777 = ORIENTED_EDGE ( 'NONE', *, *, #67, .F. ) ;
#778 = CIRCLE ( 'NONE', #941, 2.647310515219205573 ) ;
#779 = EDGE_CURVE ( 'NONE', #697, #766, #603, .T. ) ;
#780 = CARTESIAN_POINT ( 'NONE',  ( 0.000000000000000000, 0.000000000000000000, 0.000000000000000000 ) ) ;
#781 = DIRECTION ( 'NONE',  ( -0.3171474280657009537, 0.000000000000000000, 0.9483762485803359787 ) ) ;
#782 = DIRECTION ( 'NONE',  ( -0.000000000000000000, -1.000000000000000000, -0.000000000000000000 ) ) ;
#783 = ORIENTED_EDGE ( 'NONE', *, *, #773, .F. ) ;
#784 = CARTESIAN_POINT ( 'NONE',  ( 2.171480119019880917, 5.400000000000000355, 3.266191968884624153 ) ) ;
#785 = CYLINDRICAL_SURFACE ( 'NONE', #314, 0.5000000000000000000 ) ;
#786 = EDGE_LOOP ( 'NONE', ( #499, #660, #950, #1322 ) ) ;
#787 = ORIENTED_EDGE ( 'NONE', *, *, #1144, .F. ) ;
#788 = CARTESIAN_POINT ( 'NONE',  ( 4.408728476930471151E-16, 5.400000000000000355, 3.600000000000000089 ) ) ;
#789 = DIRECTION ( 'NONE',  ( 0.000000000000000000, 0.000000000000000000, -1.000000000000000000 ) ) ;
#790 = LINE ( 'NONE', #995, #542 ) ;
#791 = EDGE_LOOP ( 'NONE', ( #178, #1112, #729, #443 ) ) ;
#792 = CARTESIAN_POINT ( 'NONE',  ( 4.821071679944716415, 4.099999999999998757, 5.646055531053212562 ) ) ;
#793 = CIRCLE ( 'NONE', #298, 3.600000000000000089 ) ;
#794 = AXIS2_PLACEMENT_3D ( 'NONE', #146, #553, #1060 ) ;
#795 = AXIS2_PLACEMENT_3D ( 'NONE', #534, #938, #11 ) ;
#796 = TOROIDAL_SURFACE ( 'NONE', #210, 1.700000000000000178, 0.5999999999999999778 ) ;
#797 = CARTESIAN_POINT ( 'NONE',  ( 4.750000000000000888, 0.000000000000000000, -1.430908802125420376 ) ) ;
#798 = DIRECTION ( 'NONE',  ( 0.000000000000000000, -1.000000000000000000, 0.000000000000000000 ) ) ;
#799 = EDGE_CURVE ( 'NONE', #59, #963, #77, .T. ) ;
#800 = CARTESIAN_POINT ( 'NONE',  ( 0.000000000000000000, 0.5999999999999999778, 0.000000000000000000 ) ) ;
#801 = ORIENTED_EDGE ( 'NONE', *, *, #1327, .T. ) ;
#802 = ORIENTED_EDGE ( 'NONE', *, *, #804, .T. ) ;
#803 = PLANE ( 'NONE',  #1314 ) ;
#804 = EDGE_CURVE ( 'NONE', #929, #1042, #1174, .T. ) ;
#805 = CARTESIAN_POINT ( 'NONE',  ( 7.500000000000000000, 4.099999999999998757, 0.000000000000000000 ) ) ;
#806 = CARTESIAN_POINT ( 'NONE',  ( 4.005000999999936973, 5.400000000000000355, 8.099999000000025262 ) ) ;
#807 = EDGE_LOOP ( 'NONE', ( #213, #113, #647, #608 ) ) ;
#808 = ORIENTED_EDGE ( 'NONE', *, *, #302, .T. ) ;
#809 = DIRECTION ( 'NONE',  ( 0.000000000000000000, 0.000000000000000000, -1.000000000000000000 ) ) ;
#810 = DIRECTION ( 'NONE',  ( 0.9483762485803359787, 0.000000000000000000, 0.3171474280657009537 ) ) ;
#811 = ORIENTED_EDGE ( 'NONE', *, *, #799, .T. ) ;
#812 = PERSON_AND_ORGANIZATION ( #874, #1269 ) ;
#813 = ADVANCED_FACE ( 'NONE', ( #893 ), #1099, .T. ) ;
#814 = CIRCLE ( 'NONE', #406, 2.299999999999999822 ) ;
#815 = VERTEX_POINT ( 'NONE', #269 ) ;
#816 = CIRCLE ( 'NONE', #274, 0.5000000000000000000 ) ;
#817 = CIRCLE ( 'NONE', #234, 0.5000000000000000000 ) ;
#818 = CIRCLE ( 'NONE', #1293, 3.600000000000000089 ) ;
#819 = CARTESIAN_POINT ( 'NONE',  ( 2.328344260179531666, 5.400000000000000355, 2.745689896198955093 ) ) ;
#820 = CARTESIAN_POINT ( 'NONE',  ( 7.447071532671806438, 5.400000000000000355, 3.599658348856193069 ) ) ;
#821 = EDGE_LOOP ( 'NONE', ( #844, #88, #404, #712 ) ) ;
#822 = ORIENTED_EDGE ( 'NONE', *, *, #1232, .T. ) ;
#823 = PERSON_AND_ORGANIZATION ( #874, #1269 ) ;
#824 = ORIENTED_EDGE ( 'NONE', *, *, #743, .F. ) ;
#825 = EDGE_CURVE ( 'NONE', #1238, #92, #371, .T. ) ;
#826 = LINE ( 'NONE', #308, #275 ) ;
#827 = LINE ( 'NONE', #18, #704 ) ;
#828 = EDGE_LOOP ( 'NONE', ( #1208, #182, #545, #1023 ) ) ;
#829 = VERTEX_POINT ( 'NONE', #784 ) ;
#830 = ORIENTED_EDGE ( 'NONE', *, *, #1072, .F. ) ;
#831 = DIRECTION ( 'NONE',  ( -0.000000000000000000, -1.000000000000000000, -0.000000000000000000 ) ) ;
#832 = CARTESIAN_POINT ( 'NONE',  ( 0.000000000000000000, 4.099999999999998757, 0.000000000000000000 ) ) ;
#833 = EDGE_CURVE ( 'NONE', #195, #6, #432, .T. ) ;
#834 = EDGE_LOOP ( 'NONE', ( #1121, #7, #285, #102 ) ) ;
#835 = ORIENTED_EDGE ( 'NONE', *, *, #67, .T. ) ;
#836 = LINE ( 'NONE', #1145, #519 ) ;
#837 = ORIENTED_EDGE ( 'NONE', *, *, #149, .T. ) ;
#838 = VECTOR ( 'NONE', #715, 1000.000000000000000 ) ;
#839 = CARTESIAN_POINT ( 'NONE',  ( 2.651725407426688275, 5.400000000000000355, 3.127035715115476400 ) ) ;
#840 = VECTOR ( 'NONE', #1173, 1000.000000000000000 ) ;
#841 = DIRECTION ( 'NONE',  ( -1.000000000000000000, 0.000000000000000000, 0.000000000000000000 ) ) ;
#842 = AXIS2_PLACEMENT_3D ( 'NONE', #924, #1339, #176 ) ;
#843 = AXIS2_PLACEMENT_3D ( 'NONE', #873, #1291, #1164 ) ;
#844 = ORIENTED_EDGE ( 'NONE', *, *, #124, .F. ) ;
#845 = ORIENTED_EDGE ( 'NONE', *, *, #997, .T. ) ;
#846 = APPROVAL_PERSON_ORGANIZATION ( #812, #932, #1223 ) ;
#847 = CARTESIAN_POINT ( 'NONE',  ( 0.000000000000000000, 5.400000000000000355, 0.000000000000000000 ) ) ;
#848 = VERTEX_POINT ( 'NONE', #1077 ) ;
#849 = CARTESIAN_POINT ( 'NONE',  ( 7.453526223809390672, 5.400000000000000355, 3.599700013629828277 ) ) ;
#850 = ADVANCED_FACE ( 'NONE', ( #276 ), #690, .F. ) ;
#851 = CARTESIAN_POINT ( 'NONE',  ( 4.750000000000000888, 4.099999999999998757, -1.430908802125420376 ) ) ;
#852 = ORIENTED_EDGE ( 'NONE', *, *, #825, .T. ) ;
#853 = DIRECTION ( 'NONE',  ( -0.000000000000000000, -1.000000000000000000, -0.000000000000000000 ) ) ;
#854 = CARTESIAN_POINT ( 'NONE',  ( 4.250000000000000000, 14.09999999999999787, 1.548386256720202248 ) ) ;
#855 = DIRECTION ( 'NONE',  ( 0.000000000000000000, 0.000000000000000000, -1.000000000000000000 ) ) ;
#856 = CARTESIAN_POINT ( 'NONE',  ( 2.750000000000000000, 4.099999999999998757, 1.430908802125418600 ) ) ;
#857 = EDGE_CURVE ( 'NONE', #375, #89, #42, .T. ) ;
#858 = EDGE_LOOP ( 'NONE', ( #1297, #373, #900, #479 ) ) ;
#859 = DIRECTION ( 'NONE',  ( 0.000000000000000000, 0.000000000000000000, -1.000000000000000000 ) ) ;
#860 = CIRCLE ( 'NONE', #317, 0.5000000000000000000 ) ;
#861 = DIRECTION ( 'NONE',  ( -1.000000000000000000, 0.000000000000000000, 7.296430809732318955E-15 ) ) ;
#862 = AXIS2_PLACEMENT_3D ( 'NONE', #1158, #220, #1047 ) ;
#863 = VECTOR ( 'NONE', #1185, 1000.000000000000000 ) ;
#864 = CARTESIAN_POINT ( 'NONE',  ( 7.500000000000000000, 4.099999999999998757, 2.299999999999999822 ) ) ;
#865 = ORIENTED_EDGE ( 'NONE', *, *, #110, .T. ) ;
#866 = EDGE_CURVE ( 'NONE', #459, #1230, #860, .T. ) ;
#867 = DIRECTION ( 'NONE',  ( -1.000000000000000000, 0.000000000000000000, 0.000000000000000000 ) ) ;
#868 = DIRECTION ( 'NONE',  ( 0.000000000000000000, 0.000000000000000000, -1.000000000000000000 ) ) ;
#869 = PERSON_AND_ORGANIZATION_ROLE ( 'design_owner' ) ;
#870 = FACE_OUTER_BOUND ( 'NONE', #291, .T. ) ;
#871 = CARTESIAN_POINT ( 'NONE',  ( 4.005000999999936973, 4.099999999999998757, 8.099999000000025262 ) ) ;
#872 = ADVANCED_FACE ( 'NONE', ( #674 ), #575, .T. ) ;
#873 = CARTESIAN_POINT ( 'NONE',  ( -14.51058043437768497, 5.400000000000000355, 8.099999000000051907 ) ) ;
#874 = PERSON ( 'UNSPECIFIED', 'UNSPECIFIED', 'UNSPECIFIED', ('UNSPECIFIED'), ('UNSPECIFIED'), ('UNSPECIFIED') ) ;
#875 = DIRECTION ( 'NONE',  ( -1.000000000000000000, 0.000000000000000000, 0.000000000000000000 ) ) ;
#876 = DIRECTION ( 'NONE',  ( 0.000000000000000000, 0.000000000000000000, -1.000000000000000000 ) ) ;
#877 = LINE ( 'NONE', #1181, #1224 ) ;
#878 = CARTESIAN_POINT ( 'NONE',  ( 7.447071532671806438, 0.000000000000000000, 4.099658348856192625 ) ) ;
#879 = VECTOR ( 'NONE', #709, 1000.000000000000000 ) ;
#880 = COORDINATED_UNIVERSAL_TIME_OFFSET ( 8, 0, .BEHIND. ) ;
#881 = CIRCLE ( 'NONE', #1316, 1.700000000000000178 ) ;
#882 = CIRCLE ( 'NONE', #794, 3.600000000000000089 ) ;
#883 = EDGE_LOOP ( 'NONE', ( #915, #511, #996, #13 ) ) ;
#884 = CARTESIAN_POINT ( 'NONE',  ( 3.250000000000000000, 4.099999999999998757, 1.430908802125418600 ) ) ;
#885 = DIRECTION ( 'NONE',  ( -1.000000000000000000, 0.000000000000000000, 0.000000000000000000 ) ) ;
#886 = ADVANCED_FACE ( 'NONE', ( #496 ), #1324, .T. ) ;
#887 = VERTEX_POINT ( 'NONE', #289 ) ;
#888 = DIRECTION ( 'NONE',  ( -0.000000000000000000, 1.000000000000000000, -0.000000000000000000 ) ) ;
#889 = ORIENTED_EDGE ( 'NONE', *, *, #508, .F. ) ;
#890 = EDGE_CURVE ( 'NONE', #766, #815, #695, .T. ) ;
#891 = LINE ( 'NONE', #353, #232 ) ;
#892 = APPROVAL ( #1308, 'UNSPECIFIED' ) ;
#893 = FACE_OUTER_BOUND ( 'NONE', #307, .T. ) ;
#894 = DIRECTION ( 'NONE',  ( -0.000000000000000000, -1.000000000000000000, -0.000000000000000000 ) ) ;
#895 = ORIENTED_EDGE ( 'NONE', *, *, #181, .F. ) ;
#896 = PERSON_AND_ORGANIZATION ( #874, #1269 ) ;
#897 = DIRECTION ( 'NONE',  ( 1.000000000000000000, 0.000000000000000000, -1.224646799147353207E-16 ) ) ;
#898 = CARTESIAN_POINT ( 'NONE',  ( -14.51058043437768497, 4.099999999999998757, 8.099999000000051907 ) ) ;
#899 = FACE_OUTER_BOUND ( 'NONE', #1156, .T. ) ;
#900 = ORIENTED_EDGE ( 'NONE', *, *, #441, .T. ) ;
#901 = AXIS2_PLACEMENT_3D ( 'NONE', #331, #552, #1057 ) ;
#902 = AXIS2_PLACEMENT_3D ( 'NONE', #1055, #853, #312 ) ;
#903 = CIRCLE ( 'NONE', #319, 0.5000000000000000000 ) ;
#904 = PRODUCT_DEFINITION_FORMATION_WITH_SPECIFIED_SOURCE ( 'ANY', '', #652, .NOT_KNOWN. ) ;
#905 = AXIS2_PLACEMENT_3D ( 'NONE', #957, #1178, #449 ) ;
#906 = CARTESIAN_POINT ( 'NONE',  ( 1.357690484780734508, 5.400000000000000355, 8.099999000000028815 ) ) ;
#907 = CARTESIAN_POINT ( 'NONE',  ( 7.447071532671806438, 5.400000000000000355, 4.099658348856192625 ) ) ;
#908 = DIRECTION ( 'NONE',  ( -0.000000000000000000, -1.000000000000000000, -0.000000000000000000 ) ) ;
#909 = ADVANCED_FACE ( 'NONE', ( #1104 ), #1219, .T. ) ;
#910 = ORIENTED_EDGE ( 'NONE', *, *, #1310, .T. ) ;
#911 = ORIENTED_EDGE ( 'NONE', *, *, #525, .T. ) ;
#912 = DIRECTION ( 'NONE',  ( -0.000000000000000000, -1.000000000000000000, -0.000000000000000000 ) ) ;
#913 = DIRECTION ( 'NONE',  ( -1.000000000000000000, 0.000000000000000000, 0.000000000000000000 ) ) ;
#914 = ADVANCED_FACE ( 'NONE', ( #1320 ), #295, .T. ) ;
#915 = ORIENTED_EDGE ( 'NONE', *, *, #293, .F. ) ;
#916 = ORIENTED_EDGE ( 'NONE', *, *, #779, .F. ) ;
#917 = CARTESIAN_POINT ( 'NONE',  ( 2.171480119019880917, 4.099999999999998757, 3.266191968884624153 ) ) ;
#918 = CARTESIAN_POINT ( 'NONE',  ( 4.005000999999936973, 4.099999999999998757, 8.099999000000025262 ) ) ;
#919 = ORIENTED_EDGE ( 'NONE', *, *, #528, .F. ) ;
#920 = VECTOR ( 'NONE', #163, 1000.000000000000000 ) ;
#921 = ORIENTED_EDGE ( 'NONE', *, *, #72, .F. ) ;
#922 = AXIS2_PLACEMENT_3D ( 'NONE', #1233, #798, #400 ) ;
#923 = LOCAL_TIME ( 18, 24, 5.000000000000000000, #512 ) ;
#924 = CARTESIAN_POINT ( 'NONE',  ( 0.000000000000000000, 4.099999999999998757, 0.000000000000000000 ) ) ;
#925 = CC_DESIGN_PERSON_AND_ORGANIZATION_ASSIGNMENT ( #470, #869, ( #652 ) ) ;
#926 = DIRECTION ( 'NONE',  ( 0.000000000000000000, 0.000000000000000000, 1.000000000000000000 ) ) ;
#927 = ORIENTED_EDGE ( 'NONE', *, *, #961, .F. ) ;
#928 = EDGE_CURVE ( 'NONE', #1008, #196, #360, .T. ) ;
#929 = VERTEX_POINT ( 'NONE', #819 ) ;
#930 = CARTESIAN_POINT ( 'NONE',  ( 7.500000000000000000, 5.400000000000000355, -3.600000000000000089 ) ) ;
#931 = CARTESIAN_POINT ( 'NONE',  ( 7.447071532671806438, 4.099999999999998757, 4.099658348856192625 ) ) ;
#932 = APPROVAL ( #208, 'UNSPECIFIED' ) ;
#933 = ORIENTED_EDGE ( 'NONE', *, *, #1283, .F. ) ;
#934 = ORIENTED_EDGE ( 'NONE', *, *, #250, .F. ) ;
#935 = DIRECTION ( 'NONE',  ( 0.000000000000000000, 0.000000000000000000, -1.000000000000000000 ) ) ;
#936 = CARTESIAN_POINT ( 'NONE',  ( 0.000000000000000000, 0.5999999999999999778, 0.000000000000000000 ) ) ;
#937 = VERTEX_POINT ( 'NONE', #85 ) ;
#938 = DIRECTION ( 'NONE',  ( -0.000000000000000000, -1.000000000000000000, -0.000000000000000000 ) ) ;
#939 = EDGE_LOOP ( 'NONE', ( #1235, #684, #756, #1032 ) ) ;
#940 = EDGE_CURVE ( 'NONE', #375, #518, #541, .T. ) ;
#941 = AXIS2_PLACEMENT_3D ( 'NONE', #1306, #683, #913 ) ;
#942 = DIRECTION ( 'NONE',  ( 0.000000000000000000, 0.000000000000000000, -1.000000000000000000 ) ) ;
#943 = AXIS2_PLACEMENT_3D ( 'NONE', #145, #467, #151 ) ;
#944 = DIRECTION ( 'NONE',  ( 0.000000000000000000, 0.000000000000000000, -1.000000000000000000 ) ) ;
#945 = AXIS2_PLACEMENT_3D ( 'NONE', #1311, #385, #199 ) ;
#946 = EDGE_CURVE ( 'NONE', #431, #92, #1215, .T. ) ;
#947 = ORIENTED_EDGE ( 'NONE', *, *, #720, .F. ) ;
#948 = CIRCLE ( 'NONE', #80, 0.5000000000000000000 ) ;
#949 = CARTESIAN_POINT ( 'NONE',  ( 4.750000000000000888, 5.400000000000000355, 1.430908802125420376 ) ) ;
#950 = ORIENTED_EDGE ( 'NONE', *, *, #982, .F. ) ;
#951 = CARTESIAN_POINT ( 'NONE',  ( 3.193548387096774022, 4.099999999999998757, -1.661700544403711843 ) ) ;
#952 = CARTESIAN_POINT ( 'NONE',  ( 7.500000000000000000, 4.099999999999998757, 0.000000000000000000 ) ) ;
#953 = CARTESIAN_POINT ( 'NONE',  ( 7.500000000000000000, 0.000000000000000000, -2.299999999999999822 ) ) ;
#954 = DIRECTION ( 'NONE',  ( -0.000000000000000000, -1.000000000000000000, -0.000000000000000000 ) ) ;
#955 = ORIENTED_EDGE ( 'NONE', *, *, #1199, .T. ) ;
#956 = CARTESIAN_POINT ( 'NONE',  ( 7.500000000000000000, 0.000000000000000000, 0.000000000000000000 ) ) ;
#957 = CARTESIAN_POINT ( 'NONE',  ( 0.000000000000000000, 0.5999999999999999778, 0.000000000000000000 ) ) ;
#958 = CARTESIAN_POINT ( 'NONE',  ( 3.193548387096774022, 4.099999999999998757, 1.661700544403711843 ) ) ;
#959 = EDGE_CURVE ( 'NONE', #1124, #1074, #1205, .T. ) ;
#960 = VERTEX_POINT ( 'NONE', #1035 ) ;
#961 = EDGE_CURVE ( 'NONE', #1050, #1124, #1228, .T. ) ;
#962 = DIRECTION ( 'NONE',  ( 0.000000000000000000, 0.000000000000000000, -1.000000000000000000 ) ) ;
#963 = VERTEX_POINT ( 'NONE', #917 ) ;
#964 = EDGE_CURVE ( 'NONE', #334, #225, #393, .T. ) ;
#965 = CARTESIAN_POINT ( 'NONE',  ( 7.500000000000000000, 0.000000000000000000, -3.600000000000000089 ) ) ;
#966 = AXIS2_PLACEMENT_3D ( 'NONE', #1287, #591, #1304 ) ;
#967 = CARTESIAN_POINT ( 'NONE',  ( 7.453526223809390672, 0.000000000000000000, 3.599700013629828721 ) ) ;
#968 = CIRCLE ( 'NONE', #669, 3.600000000000000089 ) ;
#969 = CIRCLE ( 'NONE', #1013, 3.600000000000000089 ) ;
#970 = CARTESIAN_POINT ( 'NONE',  ( -14.51058043437768497, 4.099999999999998757, 8.099999000000051907 ) ) ;
#971 = ORIENTED_EDGE ( 'NONE', *, *, #226, .F. ) ;
#972 = ADVANCED_FACE ( 'NONE', ( #1110 ), #1330, .T. ) ;
#973 = LINE ( 'NONE', #557, #840 ) ;
#974 = DIRECTION ( 'NONE',  ( -0.000000000000000000, -1.000000000000000000, -0.000000000000000000 ) ) ;
#975 = CARTESIAN_POINT ( 'NONE',  ( 7.500000000000000000, 4.099999999999998757, -3.600000000000000089 ) ) ;
#976 = PERSON_AND_ORGANIZATION ( #874, #1269 ) ;
#977 = ORIENTED_EDGE ( 'NONE', *, *, #1058, .T. ) ;
#978 = CARTESIAN_POINT ( 'NONE',  ( 2.857690484780735840, 5.400000000000000355, 8.099999000000025262 ) ) ;
#979 = CARTESIAN_POINT ( 'NONE',  ( 7.500000000000000000, 0.000000000000000000, 0.000000000000000000 ) ) ;
#980 = VERTEX_POINT ( 'NONE', #90 ) ;
#981 = CARTESIAN_POINT ( 'NONE',  ( 2.857690484780735840, 5.400000000000000355, 8.099999000000025262 ) ) ;
#982 = EDGE_CURVE ( 'NONE', #2, #366, #1336, .T. ) ;
#983 = LINE ( 'NONE', #52, #1115 ) ;
#984 = CARTESIAN_POINT ( 'NONE',  ( 0.000000000000000000, 0.5999999999999999778, -2.299999999999999822 ) ) ;
#985 = CARTESIAN_POINT ( 'NONE',  ( 7.500000000000000000, 0.5999999999999999778, 0.000000000000000000 ) ) ;
#986 = AXIS2_PLACEMENT_3D ( 'NONE', #1007, #63, #1325 ) ;
#987 = EDGE_CURVE ( 'NONE', #1230, #246, #1136, .T. ) ;
#988 = ORIENTED_EDGE ( 'NONE', *, *, #192, .F. ) ;
#989 = AXIS2_PLACEMENT_3D ( 'NONE', #748, #867, #742 ) ;
#990 = CALENDAR_DATE ( 2026, 23, 9 ) ;
#991 = AXIS2_PLACEMENT_3D ( 'NONE', #1061, #332, #126 ) ;
#992 = AXIS2_PLACEMENT_3D ( 'NONE', #152, #1263, #463 ) ;
#993 = FACE_OUTER_BOUND ( 'NONE', #1247, .T. ) ;
#994 = CARTESIAN_POINT ( 'NONE',  ( 7.500000000000000000, 0.5999999999999999778, 0.000000000000000000 ) ) ;
#995 = CARTESIAN_POINT ( 'NONE',  ( 7.500000000000000888, 0.000000000000000000, 3.600000000000000089 ) ) ;
#996 = ORIENTED_EDGE ( 'NONE', *, *, #181, .T. ) ;
#997 = EDGE_CURVE ( 'NONE', #1212, #719, #597, .T. ) ;
#998 = ORIENTED_EDGE ( 'NONE', *, *, #119, .F. ) ;
#999 = DIRECTION ( 'NONE',  ( 0.000000000000000000, 0.000000000000000000, -1.000000000000000000 ) ) ;
#1000 = DIRECTION ( 'NONE',  ( 0.000000000000000000, -1.000000000000000000, 0.000000000000000000 ) ) ;
#1001 = DIRECTION ( 'NONE',  ( 0.000000000000000000, 0.000000000000000000, 1.000000000000000000 ) ) ;
#1002 = ORIENTED_EDGE ( 'NONE', *, *, #765, .T. ) ;
#1003 = ADVANCED_FACE ( 'NONE', ( #1006 ), #700, .F. ) ;
#1004 = EDGE_CURVE ( 'NONE', #1150, #137, #826, .T. ) ;
#1005 = CARTESIAN_POINT ( 'NONE',  ( 2.081899558550500526E-16, 0.5999999999999999778, 1.700000000000000178 ) ) ;
#1006 = FACE_OUTER_BOUND ( 'NONE', #51, .T. ) ;
#1007 = CARTESIAN_POINT ( 'NONE',  ( 0.000000000000000000, 4.099999999999998757, 0.000000000000000000 ) ) ;
#1008 = VERTEX_POINT ( 'NONE', #21 ) ;
#1009 = APPROVAL_DATE_TIME ( #94, #932 ) ;
#1010 = AXIS2_PLACEMENT_3D ( 'NONE', #335, #551, #935 ) ;
#1011 = CIRCLE ( 'NONE', #992, 0.5000000000000000000 ) ;
#1012 = ORIENTED_EDGE ( 'NONE', *, *, #217, .F. ) ;
#1013 = AXIS2_PLACEMENT_3D ( 'NONE', #847, #1254, #1151 ) ;
#1014 = AXIS2_PLACEMENT_3D ( 'NONE', #255, #1161, #29 ) ;
#1015 = DIRECTION ( 'NONE',  ( 0.000000000000000000, 0.000000000000000000, 1.000000000000000000 ) ) ;
#1016 = CARTESIAN_POINT ( 'NONE',  ( 0.3245359256503315137, 0.000000000000000000, 4.087135480133036403 ) ) ;
#1017 = ORIENTED_EDGE ( 'NONE', *, *, #484, .T. ) ;
#1018 = CALENDAR_DATE ( 2026, 23, 9 ) ;
#1019 = ADVANCED_FACE ( 'NONE', ( #444 ), #628, .T. ) ;
#1020 = VERTEX_POINT ( 'NONE', #951 ) ;
#1021 = DIRECTION ( 'NONE',  ( 0.9483762485803359787, 0.000000000000000000, 0.3171474280657009537 ) ) ;
#1022 = DIRECTION ( 'NONE',  ( 0.000000000000000000, 0.000000000000000000, -1.000000000000000000 ) ) ;
#1023 = ORIENTED_EDGE ( 'NONE', *, *, #1087, .T. ) ;
#1024 = ADVANCED_FACE ( 'NONE', ( #4 ), #634, .T. ) ;
#1025 = EDGE_LOOP ( 'NONE', ( #971, #570, #418, #33 ) ) ;
#1026 = DIRECTION ( 'NONE',  ( -0.000000000000000000, -1.000000000000000000, -0.000000000000000000 ) ) ;
#1027 = DIRECTION ( 'NONE',  ( 3.469446951953611033E-15, 0.000000000000000000, 1.000000000000000000 ) ) ;
#1028 = VERTEX_POINT ( 'NONE', #8 ) ;
#1029 = EDGE_CURVE ( 'NONE', #225, #1217, #968, .T. ) ;
#1030 = DATE_AND_TIME ( #292, #1338 ) ;
#1031 = CIRCLE ( 'NONE', #1265, 0.5000000000000000000 ) ;
#1032 = ORIENTED_EDGE ( 'NONE', *, *, #804, .F. ) ;
#1033 = VECTOR ( 'NONE', #193, 1000.000000000000000 ) ;
#1034 = VECTOR ( 'NONE', #750, 1000.000000000000000 ) ;
#1035 = CARTESIAN_POINT ( 'NONE',  ( 1.357690484780734508, 4.099999999999998757, 8.099999000000028815 ) ) ;
#1036 = CARTESIAN_POINT ( 'NONE',  ( 6.788717813564748127, 5.400000000000000355, -0.2378605710492756875 ) ) ;
#1037 = ORIENTED_EDGE ( 'NONE', *, *, #890, .F. ) ;
#1038 = EDGE_CURVE ( 'NONE', #410, #601, #881, .T. ) ;
#1039 = EDGE_LOOP ( 'NONE', ( #159, #594, #490, #627 ) ) ;
#1040 = CARTESIAN_POINT ( 'NONE',  ( 7.500000000000000000, 0.000000000000000000, 0.000000000000000000 ) ) ;
#1041 = DIRECTION ( 'NONE',  ( 0.000000000000000000, -1.000000000000000000, 0.000000000000000000 ) ) ;
#1042 = VERTEX_POINT ( 'NONE', #736 ) ;
#1043 = ORIENTED_EDGE ( 'NONE', *, *, #286, .T. ) ;
#1044 = DIRECTION ( 'NONE',  ( -0.000000000000000000, -1.000000000000000000, -0.000000000000000000 ) ) ;
#1045 = ORIENTED_EDGE ( 'NONE', *, *, #521, .T. ) ;
#1046 = EDGE_CURVE ( 'NONE', #1020, #172, #727, .T. ) ;
#1047 = DIRECTION ( 'NONE',  ( -1.000000000000000000, 0.000000000000000000, 7.296430809732318955E-15 ) ) ;
#1048 = DIRECTION ( 'NONE',  ( 0.3171474280657008982, 0.000000000000000000, -0.9483762485803358677 ) ) ;
#1049 = ORIENTED_EDGE ( 'NONE', *, *, #198, .T. ) ;
#1050 = VERTEX_POINT ( 'NONE', #1147 ) ;
#1051 = PRODUCT_RELATED_PRODUCT_CATEGORY ( 'detail', '', ( #652 ) ) ;
#1052 = DIRECTION ( 'NONE',  ( -0.000000000000000000, -1.000000000000000000, -0.000000000000000000 ) ) ;
#1053 = ORIENTED_EDGE ( 'NONE', *, *, #395, .F. ) ;
#1054 = CIRCLE ( 'NONE', #1113, 2.647310515219205573 ) ;
#1055 = CARTESIAN_POINT ( 'NONE',  ( 2.750000000000000000, 4.099999999999998757, -1.430908802125418600 ) ) ;
#1056 = AXIS2_PLACEMENT_3D ( 'NONE', #261, #596, #1098 ) ;
#1057 = DIRECTION ( 'NONE',  ( 0.000000000000000000, 0.000000000000000000, -1.000000000000000000 ) ) ;
#1058 = EDGE_CURVE ( 'NONE', #829, #929, #95, .T. ) ;
#1059 = CIRCLE ( 'NONE', #516, 0.5000000000000000000 ) ;
#1060 = DIRECTION ( 'NONE',  ( 0.000000000000000000, 0.000000000000000000, -1.000000000000000000 ) ) ;
#1061 = CARTESIAN_POINT ( 'NONE',  ( 3.250000000000000000, 14.09999999999999787, 1.548386256720202026 ) ) ;
#1062 = VERTEX_POINT ( 'NONE', #28 ) ;
#1063 = ADVANCED_FACE ( 'NONE', ( #725 ), #324, .T. ) ;
#1064 = CARTESIAN_POINT ( 'NONE',  ( 0.000000000000000000, 0.000000000000000000, 0.000000000000000000 ) ) ;
#1065 = DIRECTION ( 'NONE',  ( 0.000000000000000000, 0.000000000000000000, -1.000000000000000000 ) ) ;
#1066 = DIRECTION ( 'NONE',  ( 0.000000000000000000, 0.000000000000000000, -1.000000000000000000 ) ) ;
#1067 = ADVANCED_FACE ( 'NONE', ( #536 ), #747, .T. ) ;
#1068 = DIRECTION ( 'NONE',  ( -0.000000000000000000, -1.000000000000000000, -0.000000000000000000 ) ) ;
#1069 = ORIENTED_EDGE ( 'NONE', *, *, #866, .T. ) ;
#1070 = DIRECTION ( 'NONE',  ( 1.734723475976807094E-15, 0.000000000000000000, -1.000000000000000000 ) ) ;
#1071 = DIRECTION ( 'NONE',  ( -0.000000000000000000, -1.000000000000000000, -0.000000000000000000 ) ) ;
#1072 = EDGE_CURVE ( 'NONE', #431, #1167, #120, .T. ) ;
#1073 = CARTESIAN_POINT ( 'NONE',  ( 4.306451612903227755, 5.400000000000000355, 1.661700544403713620 ) ) ;
#1074 = VERTEX_POINT ( 'NONE', #930 ) ;
#1075 = CYLINDRICAL_SURFACE ( 'NONE', #1014, 3.600000000000000089 ) ;
#1076 = CIRCLE ( 'NONE', #251, 0.5000000000000004441 ) ;
#1077 = CARTESIAN_POINT ( 'NONE',  ( 4.306451612903227755, 4.099999999999998757, 1.661700544403713620 ) ) ;
#1078 = CARTESIAN_POINT ( 'NONE',  ( 4.250000000000000000, 4.099999999999998757, 1.548386256720202248 ) ) ;
#1079 = AXIS2_PLACEMENT_3D ( 'NONE', #985, #1313, #55 ) ;
#1080 = APPLICATION_PROTOCOL_DEFINITION ( 'international standard', 'config_control_design', 1994, #1159 ) ;
#1081 = VERTEX_POINT ( 'NONE', #104 ) ;
#1082 = DIRECTION ( 'NONE',  ( 0.000000000000000000, 0.000000000000000000, -1.000000000000000000 ) ) ;
#1083 = CARTESIAN_POINT ( 'NONE',  ( -14.51058043437768497, 5.400000000000000355, 8.099999000000051907 ) ) ;
#1084 = LINE ( 'NONE', #451, #753 ) ;
#1085 = CARTESIAN_POINT ( 'NONE',  ( 0.000000000000000000, 0.000000000000000000, 0.000000000000000000 ) ) ;
#1086 = CARTESIAN_POINT ( 'NONE',  ( 7.032802297079268072, 5.400000000000000355, 6.385682528089893673 ) ) ;
#1087 = EDGE_CURVE ( 'NONE', #1090, #1221, #494, .T. ) ;
#1088 = LINE ( 'NONE', #1290, #117 ) ;
#1089 = DIRECTION ( 'NONE',  ( 0.000000000000000000, 0.000000000000000000, -1.000000000000000000 ) ) ;
#1090 = VERTEX_POINT ( 'NONE', #17 ) ;
#1091 = LINE ( 'NONE', #1302, #672 ) ;
#1092 = DIRECTION ( 'NONE',  ( 0.000000000000000000, -1.000000000000000000, -0.000000000000000000 ) ) ;
#1093 = CARTESIAN_POINT ( 'NONE',  ( 7.500000000000000000, 0.000000000000000000, 0.000000000000000000 ) ) ;
#1094 = DIRECTION ( 'NONE',  ( 0.000000000000000000, 0.000000000000000000, 1.000000000000000000 ) ) ;
#1095 = AXIS2_PLACEMENT_3D ( 'NONE', #871, #1000, #47 ) ;
#1096 = ORIENTED_EDGE ( 'NONE', *, *, #414, .F. ) ;
#1097 = AXIS2_PLACEMENT_3D ( 'NONE', #531, #235, #111 ) ;
#1098 = DIRECTION ( 'NONE',  ( 0.000000000000000000, 0.000000000000000000, -1.000000000000000000 ) ) ;
#1099 = CYLINDRICAL_SURFACE ( 'NONE', #338, 17.36827091915841947 ) ;
#1100 = CYLINDRICAL_SURFACE ( 'NONE', #471, 0.5000000000000000000 ) ;
#1101 = EDGE_CURVE ( 'NONE', #1212, #1231, #254, .T. ) ;
#1102 = ORIENTED_EDGE ( 'NONE', *, *, #302, .F. ) ;
#1103 = DIRECTION ( 'NONE',  ( 0.000000000000000000, 0.000000000000000000, -1.000000000000000000 ) ) ;
#1104 = FACE_OUTER_BOUND ( 'NONE', #197, .T. ) ;
#1105 = DIRECTION ( 'NONE',  ( -0.000000000000000000, -1.000000000000000000, -0.000000000000000000 ) ) ;
#1106 = ORIENTED_EDGE ( 'NONE', *, *, #671, .T. ) ;
#1107 = ADVANCED_FACE ( 'NONE', ( #640 ), #122, .T. ) ;
#1108 = ORIENTED_EDGE ( 'NONE', *, *, #1101, .F. ) ;
#1109 = CARTESIAN_POINT ( 'NONE',  ( 0.000000000000000000, 4.099999999999998757, -3.600000000000000089 ) ) ;
#1110 = FACE_OUTER_BOUND ( 'NONE', #858, .T. ) ;
#1111 = CARTESIAN_POINT ( 'NONE',  ( 5.371724702535482621, 5.400000000000000355, 2.903522732509997262 ) ) ;
#1112 = ORIENTED_EDGE ( 'NONE', *, *, #964, .F. ) ;
#1113 = AXIS2_PLACEMENT_3D ( 'NONE', #918, #1041, #841 ) ;
#1114 = PERSON_AND_ORGANIZATION_ROLE ( 'design_supplier' ) ;
#1115 = VECTOR ( 'NONE', #60, 1000.000000000000000 ) ;
#1116 = EDGE_CURVE ( 'NONE', #196, #1020, #31, .T. ) ;
#1117 = ORIENTED_EDGE ( 'NONE', *, *, #3, .T. ) ;
#1118 = DIRECTION ( 'NONE',  ( 0.3171474280657008982, 0.000000000000000000, -0.9483762485803358677 ) ) ;
#1119 = PLANE ( 'NONE',  #357 ) ;
#1120 = ORIENTED_EDGE ( 'NONE', *, *, #857, .T. ) ;
#1121 = ORIENTED_EDGE ( 'NONE', *, *, #579, .F. ) ;
#1122 = DATE_TIME_ROLE ( 'classification_date' ) ;
#1123 = EDGE_CURVE ( 'NONE', #507, #929, #752, .T. ) ;
#1124 = VERTEX_POINT ( 'NONE', #19 ) ;
#1125 = CARTESIAN_POINT ( 'NONE',  ( 5.371724702535482621, 0.000000000000000000, 2.903522732509997262 ) ) ;
#1126 = CARTESIAN_POINT ( 'NONE',  ( 7.447071532671806438, 5.400000000000000355, 4.099658348856192625 ) ) ;
#1127 = ADVANCED_FACE ( 'NONE', ( #339 ), #14, .T. ) ;
#1128 = VERTEX_POINT ( 'NONE', #561 ) ;
#1129 = DIRECTION ( 'NONE',  ( -0.000000000000000000, -1.000000000000000000, -0.000000000000000000 ) ) ;
#1130 = DIRECTION ( 'NONE',  ( 1.249000902703301108E-13, 0.000000000000000000, -1.000000000000000000 ) ) ;
#1131 = EDGE_CURVE ( 'NONE', #326, #1217, #1059, .T. ) ;
#1132 = ORIENTED_EDGE ( 'NONE', *, *, #987, .F. ) ;
#1133 = ORIENTED_EDGE ( 'NONE', *, *, #1335, .T. ) ;
#1134 = AXIS2_PLACEMENT_3D ( 'NONE', #854, #150, #1065 ) ;
#1135 = ORIENTED_EDGE ( 'NONE', *, *, #119, .T. ) ;
#1136 = CIRCLE ( 'NONE', #842, 3.600000000000000089 ) ;
#1137 = AXIS2_PLACEMENT_3D ( 'NONE', #43, #446, #1175 ) ;
#1138 = AXIS2_PLACEMENT_3D ( 'NONE', #1085, #668, #153 ) ;
#1139 = CIRCLE ( 'NONE', #322, 3.600000000000000089 ) ;
#1140 = DIRECTION ( 'NONE',  ( -0.000000000000000000, -1.000000000000000000, -0.000000000000000000 ) ) ;
#1141 = DIRECTION ( 'NONE',  ( 0.000000000000000000, 0.000000000000000000, -1.000000000000000000 ) ) ;
#1142 = ORIENTED_EDGE ( 'NONE', *, *, #343, .T. ) ;
#1143 = VERTEX_POINT ( 'NONE', #864 ) ;
#1144 = EDGE_CURVE ( 'NONE', #1050, #2, #645, .T. ) ;
#1145 = CARTESIAN_POINT ( 'NONE',  ( 4.250000000000000000, 5.400000000000000355, 0.000000000000000000 ) ) ;
#1146 = ORIENTED_EDGE ( 'NONE', *, *, #720, .T. ) ;
#1147 = CARTESIAN_POINT ( 'NONE',  ( 4.306451612903227755, 4.099999999999998757, -1.661700544403713620 ) ) ;
#1148 = CARTESIAN_POINT ( 'NONE',  ( 2.449293598294706414E-16, 0.000000000000000000, 1.700000000000000178 ) ) ;
#1149 = EDGE_LOOP ( 'NONE', ( #624, #801, #57, #1133 ) ) ;
#1150 = VERTEX_POINT ( 'NONE', #739 ) ;
#1151 = DIRECTION ( 'NONE',  ( 0.000000000000000000, 0.000000000000000000, -1.000000000000000000 ) ) ;
#1152 = ORIENTED_EDGE ( 'NONE', *, *, #250, .T. ) ;
#1153 = DIRECTION ( 'NONE',  ( -0.3171474280657009537, 0.000000000000000000, 0.9483762485803359787 ) ) ;
#1154 = CARTESIAN_POINT ( 'NONE',  ( 7.500000000000000000, 0.000000000000000000, 0.000000000000000000 ) ) ;
#1155 = DIRECTION ( 'NONE',  ( -0.000000000000000000, -1.000000000000000000, -0.000000000000000000 ) ) ;
#1156 = EDGE_LOOP ( 'NONE', ( #692, #1043, #738, #1037 ) ) ;
#1157 = AXIS2_PLACEMENT_3D ( 'NONE', #1154, #22, #336 ) ;
#1158 = CARTESIAN_POINT ( 'NONE',  ( 7.032802297079268072, 5.400000000000000355, 6.385682528089893673 ) ) ;
#1159 = APPLICATION_CONTEXT ( 'configuration controlled 3d designs of mechanical parts and assemblies' ) ;
#1160 = VECTOR ( 'NONE', #456, 1000.000000000000000 ) ;
#1161 = DIRECTION ( 'NONE',  ( -0.000000000000000000, -1.000000000000000000, -0.000000000000000000 ) ) ;
#1162 = AXIS2_PLACEMENT_3D ( 'NONE', #956, #1257, #942 ) ;
#1163 = AXIS2_PLACEMENT_3D ( 'NONE', #1282, #134, #576 ) ;
#1164 = DIRECTION ( 'NONE',  ( -1.000000000000000000, 0.000000000000000000, 0.000000000000000000 ) ) ;
#1165 = CIRCLE ( 'NONE', #211, 2.332123585386478126 ) ;
#1166 = CARTESIAN_POINT ( 'NONE',  ( 7.500000000000000000, 0.000000000000000000, 2.299999999999999822 ) ) ;
#1167 = VERTEX_POINT ( 'NONE', #135 ) ;
#1168 = CARTESIAN_POINT ( 'NONE',  ( 2.750000000000000000, 0.000000000000000000, -1.430908802125418600 ) ) ;
#1169 = EDGE_CURVE ( 'NONE', #216, #1050, #817, .T. ) ;
#1170 = LINE ( 'NONE', #1078, #1034 ) ;
#1171 = DIRECTION ( 'NONE',  ( 0.000000000000000000, 0.000000000000000000, -1.000000000000000000 ) ) ;
#1172 = EDGE_LOOP ( 'NONE', ( #988, #572, #1260, #802 ) ) ;
#1173 = DIRECTION ( 'NONE',  ( 0.000000000000000000, 1.000000000000000000, 0.000000000000000000 ) ) ;
#1174 = LINE ( 'NONE', #481, #920 ) ;
#1175 = DIRECTION ( 'NONE',  ( 0.000000000000000000, 0.000000000000000000, -1.000000000000000000 ) ) ;
#1176 = CARTESIAN_POINT ( 'NONE',  ( 0.3245359256503315137, 4.099999999999998757, 4.087135480133036403 ) ) ;
#1177 = EDGE_LOOP ( 'NONE', ( #934, #947, #639, #38 ) ) ;
#1178 = DIRECTION ( 'NONE',  ( 0.000000000000000000, 1.000000000000000000, 0.000000000000000000 ) ) ;
#1179 = CIRCLE ( 'NONE', #1079, 2.299999999999999822 ) ;
#1180 = AXIS2_PLACEMENT_3D ( 'NONE', #169, #273, #602 ) ;
#1181 = CARTESIAN_POINT ( 'NONE',  ( 4.306451612903225978, 0.000000000000000000, 1.661700544403714286 ) ) ;
#1182 = EDGE_LOOP ( 'NONE', ( #351, #1053 ) ) ;
#1183 = VECTOR ( 'NONE', #954, 1000.000000000000000 ) ;
#1184 = AXIS2_PLACEMENT_3D ( 'NONE', #1168, #567, #859 ) ;
#1185 = DIRECTION ( 'NONE',  ( 0.000000000000000000, 1.000000000000000000, 0.000000000000000000 ) ) ;
#1186 = ORIENTED_EDGE ( 'NONE', *, *, #1327, .F. ) ;
#1187 = DIRECTION ( 'NONE',  ( 1.000000000000000000, 0.000000000000000000, -1.224646799147353207E-16 ) ) ;
#1188 = CARTESIAN_POINT ( 'NONE',  ( 0.3245359256503315137, 4.099999999999998757, 4.087135480133036403 ) ) ;
#1189 = FACE_OUTER_BOUND ( 'NONE', #939, .T. ) ;
#1190 = ORIENTED_EDGE ( 'NONE', *, *, #799, .F. ) ;
#1191 = APPROVAL_STATUS ( 'not_yet_approved' ) ;
#1192 = ORIENTED_EDGE ( 'NONE', *, *, #713, .F. ) ;
#1193 = ADVANCED_FACE ( 'NONE', ( #26 ), #116, .F. ) ;
#1194 = DIRECTION ( 'NONE',  ( 0.000000000000000000, 1.000000000000000000, 0.000000000000000000 ) ) ;
#1195 = FACE_OUTER_BOUND ( 'NONE', #1025, .T. ) ;
#1196 = FACE_OUTER_BOUND ( 'NONE', #834, .T. ) ;
#1197 = VERTEX_POINT ( 'NONE', #436 ) ;
#1198 = ORIENTED_EDGE ( 'NONE', *, *, #1232, .F. ) ;
#1199 = EDGE_CURVE ( 'NONE', #1028, #127, #411, .T. ) ;
#1200 = LINE ( 'NONE', #884, #187 ) ;
#1201 = DIRECTION ( 'NONE',  ( 0.000000000000000000, 0.000000000000000000, -1.000000000000000000 ) ) ;
#1202 = DIRECTION ( 'NONE',  ( 0.000000000000000000, -1.000000000000000000, 0.000000000000000000 ) ) ;
#1203 = AXIS2_PLACEMENT_3D ( 'NONE', #780, #1309, #1298 ) ;
#1204 = ORIENTED_EDGE ( 'NONE', *, *, #1169, .F. ) ;
#1205 = CIRCLE ( 'NONE', #454, 3.600000000000000089 ) ;
#1206 = DIRECTION ( 'NONE',  ( 0.000000000000000000, 1.000000000000000000, 0.000000000000000000 ) ) ;
#1207 = CIRCLE ( 'NONE', #1294, 0.5000000000000000000 ) ;
#1208 = ORIENTED_EDGE ( 'NONE', *, *, #1227, .F. ) ;
#1209 = DIRECTION ( 'NONE',  ( 0.000000000000000000, -1.000000000000000000, -0.000000000000000000 ) ) ;
#1210 = CARTESIAN_POINT ( 'NONE',  ( 0.8071899743089302470, 5.400000000000000355, 3.956578713500802369 ) ) ;
#1211 = CARTESIAN_POINT ( 'NONE',  ( 6.308688892912511115, 5.400000000000000355, 6.795669648939411722 ) ) ;
#1212 = VERTEX_POINT ( 'NONE', #345 ) ;
#1213 = ORIENTED_EDGE ( 'NONE', *, *, #959, .T. ) ;
#1214 = CARTESIAN_POINT ( 'NONE',  ( 7.447071532671806438, 4.099999999999998757, 4.099658348856192625 ) ) ;
#1215 = LINE ( 'NONE', #619, #189 ) ;
#1216 = DIRECTION ( 'NONE',  ( 0.000000000000000000, 1.000000000000000000, 0.000000000000000000 ) ) ;
#1217 = VERTEX_POINT ( 'NONE', #1073 ) ;
#1218 = EDGE_LOOP ( 'NONE', ( #1108, #1255 ) ) ;
#1219 = CYLINDRICAL_SURFACE ( 'NONE', #35, 3.600000000000000089 ) ;
#1220 = DIRECTION ( 'NONE',  ( -1.000000000000000000, 0.000000000000000000, 0.000000000000000000 ) ) ;
#1221 = VERTEX_POINT ( 'NONE', #733 ) ;
#1222 = CIRCLE ( 'NONE', #75, 1.147310515219205795 ) ;
#1223 = APPROVAL_ROLE ( '' ) ;
#1224 = VECTOR ( 'NONE', #364, 1000.000000000000000 ) ;
#1225 = ADVANCED_BREP_SHAPE_REPRESENTATION ( '25d107 button', ( #1273, #1138 ), #731 ) ;
#1226 = AXIS2_PLACEMENT_3D ( 'NONE', #1040, #1261, #330 ) ;
#1227 = EDGE_CURVE ( 'NONE', #1143, #1221, #549, .T. ) ;
#1228 = LINE ( 'NONE', #502, #1292 ) ;
#1229 = DIRECTION ( 'NONE',  ( -0.000000000000000000, -1.000000000000000000, -0.000000000000000000 ) ) ;
#1230 = VERTEX_POINT ( 'NONE', #218 ) ;
#1231 = VERTEX_POINT ( 'NONE', #231 ) ;
#1232 = EDGE_CURVE ( 'NONE', #960, #815, #751, .T. ) ;
#1233 = CARTESIAN_POINT ( 'NONE',  ( 7.032802297079268072, 5.400000000000000355, 6.385682528089893673 ) ) ;
#1234 = DIRECTION ( 'NONE',  ( -0.3171474280657009537, 0.000000000000000000, 0.9483762485803359787 ) ) ;
#1235 = ORIENTED_EDGE ( 'NONE', *, *, #1058, .F. ) ;
#1236 = ORIENTED_EDGE ( 'NONE', *, *, #833, .T. ) ;
#1237 = CALENDAR_DATE ( 2026, 23, 9 ) ;
#1238 = VERTEX_POINT ( 'NONE', #240 ) ;
#1239 = EDGE_CURVE ( 'NONE', #1028, #172, #555, .T. ) ;
#1240 = DIRECTION ( 'NONE',  ( 0.000000000000000000, 0.000000000000000000, -1.000000000000000000 ) ) ;
#1241 = CARTESIAN_POINT ( 'NONE',  ( 7.500000000000000000, 0.5999999999999999778, -1.700000000000000178 ) ) ;
#1242 = ORIENTED_EDGE ( 'NONE', *, *, #25, .T. ) ;
#1243 = EDGE_CURVE ( 'NONE', #730, #1143, #413, .T. ) ;
#1244 = AXIS2_PLACEMENT_3D ( 'NONE', #497, #1105, #401 ) ;
#1245 = FACE_OUTER_BOUND ( 'NONE', #1177, .T. ) ;
#1246 = AXIS2_PLACEMENT_3D ( 'NONE', #99, #1021, #1118 ) ;
#1247 = EDGE_LOOP ( 'NONE', ( #390, #448, #845, #1142 ) ) ;
#1248 = APPROVAL_PERSON_ORGANIZATION ( #896, #892, #174 ) ;
#1249 = CIRCLE ( 'NONE', #905, 2.299999999999999822 ) ;
#1250 = DIRECTION ( 'NONE',  ( 0.000000000000000000, 0.000000000000000000, 1.000000000000000000 ) ) ;
#1251 = CARTESIAN_POINT ( 'NONE',  ( 4.005000999999936973, 5.400000000000000355, 8.099999000000025262 ) ) ;
#1252 = ORIENTED_EDGE ( 'NONE', *, *, #946, .T. ) ;
#1253 = EDGE_CURVE ( 'NONE', #326, #761, #836, .T. ) ;
#1254 = DIRECTION ( 'NONE',  ( -0.000000000000000000, -1.000000000000000000, -0.000000000000000000 ) ) ;
#1255 = ORIENTED_EDGE ( 'NONE', *, *, #355, .F. ) ;
#1256 = CC_DESIGN_DATE_AND_TIME_ASSIGNMENT ( #1030, #1122, ( #688 ) ) ;
#1257 = DIRECTION ( 'NONE',  ( -0.000000000000000000, -1.000000000000000000, -0.000000000000000000 ) ) ;
#1258 = DIRECTION ( 'NONE',  ( 0.000000000000000000, -1.000000000000000000, 0.000000000000000000 ) ) ;
#1259 = DIRECTION ( 'NONE',  ( 0.000000000000000000, 0.000000000000000000, -1.000000000000000000 ) ) ;
#1260 = ORIENTED_EDGE ( 'NONE', *, *, #1123, .T. ) ;
#1261 = DIRECTION ( 'NONE',  ( 0.000000000000000000, -1.000000000000000000, -0.000000000000000000 ) ) ;
#1262 = LINE ( 'NONE', #978, #408 ) ;
#1263 = DIRECTION ( 'NONE',  ( -0.000000000000000000, -1.000000000000000000, -0.000000000000000000 ) ) ;
#1264 = ORIENTED_EDGE ( 'NONE', *, *, #61, .F. ) ;
#1265 = AXIS2_PLACEMENT_3D ( 'NONE', #1214, #1194, #876 ) ;
#1266 = ADVANCED_FACE ( 'NONE', ( #1245 ), #631, .T. ) ;
#1267 = AXIS2_PLACEMENT_3D ( 'NONE', #907, #1129, #1015 ) ;
#1268 = CARTESIAN_POINT ( 'NONE',  ( 5.076130911220966269, 4.099999999999998757, 3.306789778691940906 ) ) ;
#1269 = ORGANIZATION ( 'UNSPECIFIED', 'UNSPECIFIED', '' ) ;
#1270 = DIRECTION ( 'NONE',  ( -0.000000000000000000, -1.000000000000000000, -0.000000000000000000 ) ) ;
#1271 = DIRECTION ( 'NONE',  ( -0.000000000000000000, -1.000000000000000000, -0.000000000000000000 ) ) ;
#1272 = ORIENTED_EDGE ( 'NONE', *, *, #928, .F. ) ;
#1273 = MANIFOLD_SOLID_BREP ( 'Fillet4', #520 ) ;
#1274 = CARTESIAN_POINT ( 'NONE',  ( 7.453526223809390672, 4.099999999999998757, 3.599700013629828277 ) ) ;
#1275 = EDGE_CURVE ( 'NONE', #589, #106, #969, .T. ) ;
#1276 = CARTESIAN_POINT ( 'NONE',  ( 1.357690484780734508, 5.400000000000000355, 8.099999000000028815 ) ) ;
#1277 = ORIENTED_EDGE ( 'NONE', *, *, #987, .T. ) ;
#1278 = DIRECTION ( 'NONE',  ( -0.000000000000000000, -1.000000000000000000, -0.000000000000000000 ) ) ;
#1279 = EDGE_CURVE ( 'NONE', #137, #241, #1165, .T. ) ;
#1280 = LINE ( 'NONE', #965, #1160 ) ;
#1281 = DIRECTION ( 'NONE',  ( 0.000000000000000000, 0.000000000000000000, -1.000000000000000000 ) ) ;
#1282 = CARTESIAN_POINT ( 'NONE',  ( 7.500000000000000000, 0.000000000000000000, 0.000000000000000000 ) ) ;
#1283 = EDGE_CURVE ( 'NONE', #172, #1008, #356, .T. ) ;
#1284 = PERSON_AND_ORGANIZATION_ROLE ( 'creator' ) ;
#1285 = ORIENTED_EDGE ( 'NONE', *, *, #1046, .T. ) ;
#1286 = CC_DESIGN_PERSON_AND_ORGANIZATION_ASSIGNMENT ( #614, #722, ( #688 ) ) ;
#1287 = CARTESIAN_POINT ( 'NONE',  ( 0.000000000000000000, 0.000000000000000000, 0.000000000000000000 ) ) ;
#1288 = CIRCLE ( 'NONE', #296, 0.5000000000000000000 ) ;
#1289 = AXIS2_PLACEMENT_3D ( 'NONE', #585, #492, #577 ) ;
#1290 = CARTESIAN_POINT ( 'NONE',  ( 3.193548387096774022, 0.000000000000000000, 1.661700544403712065 ) ) ;
#1291 = DIRECTION ( 'NONE',  ( -0.000000000000000000, 1.000000000000000000, -0.000000000000000000 ) ) ;
#1292 = VECTOR ( 'NONE', #509, 1000.000000000000000 ) ;
#1293 = AXIS2_PLACEMENT_3D ( 'NONE', #125, #344, #855 ) ;
#1294 = AXIS2_PLACEMENT_3D ( 'NONE', #1176, #676, #374 ) ;
#1295 = EDGE_CURVE ( 'NONE', #106, #196, #15, .T. ) ;
#1296 = CALENDAR_DATE ( 2026, 23, 9 ) ;
#1297 = ORIENTED_EDGE ( 'NONE', *, *, #1101, .T. ) ;
#1298 = DIRECTION ( 'NONE',  ( 0.000000000000000000, 0.000000000000000000, -1.000000000000000000 ) ) ;
#1299 = CARTESIAN_POINT ( 'NONE',  ( 8.211282186435251873, 4.099999999999998757, 0.2378605710492756875 ) ) ;
#1300 = CARTESIAN_POINT ( 'NONE',  ( 3.250000000000000000, 4.099999999999998757, -1.430908802125417933 ) ) ;
#1301 = ORIENTED_EDGE ( 'NONE', *, *, #667, .F. ) ;
#1302 = CARTESIAN_POINT ( 'NONE',  ( 4.250000000000000000, 4.099999999999998757, -1.430908802125420376 ) ) ;
#1303 = ORIENTED_EDGE ( 'NONE', *, *, #226, .T. ) ;
#1304 = DIRECTION ( 'NONE',  ( 0.000000000000000000, 0.000000000000000000, -1.000000000000000000 ) ) ;
#1305 = CARTESIAN_POINT ( 'NONE',  ( 4.250000000000000000, 5.400000000000000355, -1.430908802125420376 ) ) ;
#1306 = CARTESIAN_POINT ( 'NONE',  ( 4.005000999999936973, 5.400000000000000355, 8.099999000000025262 ) ) ;
#1307 = ORIENTED_EDGE ( 'NONE', *, *, #928, .T. ) ;
#1308 = APPROVAL_STATUS ( 'not_yet_approved' ) ;
#1309 = DIRECTION ( 'NONE',  ( -0.000000000000000000, -1.000000000000000000, -0.000000000000000000 ) ) ;
#1310 = EDGE_CURVE ( 'NONE', #815, #459, #1207, .T. ) ;
#1311 = CARTESIAN_POINT ( 'NONE',  ( 0.000000000000000000, 0.000000000000000000, 0.000000000000000000 ) ) ;
#1312 = AXIS2_PLACEMENT_3D ( 'NONE', #1241, #1220, #926 ) ;
#1313 = DIRECTION ( 'NONE',  ( 0.000000000000000000, 1.000000000000000000, 0.000000000000000000 ) ) ;
#1314 = AXIS2_PLACEMENT_3D ( 'NONE', #288, #1209, #1103 ) ;
#1315 = VERTEX_POINT ( 'NONE', #792 ) ;
#1316 = AXIS2_PLACEMENT_3D ( 'NONE', #1064, #128, #227 ) ;
#1317 = CC_DESIGN_APPROVAL ( #397, ( #735 ) ) ;
#1318 = CIRCLE ( 'NONE', #732, 0.5000000000000000000 ) ;
#1319 = FACE_BOUND ( 'NONE', #1182, .T. ) ;
#1320 = FACE_OUTER_BOUND ( 'NONE', #764, .T. ) ;
#1321 = DIRECTION ( 'NONE',  ( 0.000000000000000000, 0.000000000000000000, -1.000000000000000000 ) ) ;
#1322 = ORIENTED_EDGE ( 'NONE', *, *, #521, .F. ) ;
#1323 = VERTEX_POINT ( 'NONE', #380 ) ;
#1324 = PLANE ( 'NONE',  #1246 ) ;
#1325 = DIRECTION ( 'NONE',  ( 0.000000000000000000, 0.000000000000000000, -1.000000000000000000 ) ) ;
#1326 = ORIENTED_EDGE ( 'NONE', *, *, #525, .F. ) ;
#1327 = EDGE_CURVE ( 'NONE', #761, #216, #1091, .T. ) ;
#1328 = VERTEX_POINT ( 'NONE', #981 ) ;
#1329 = CC_DESIGN_PERSON_AND_ORGANIZATION_ASSIGNMENT ( #823, #287, ( #904 ) ) ;
#1330 = CYLINDRICAL_SURFACE ( 'NONE', #945, 2.299999999999999822 ) ;
#1331 = FACE_OUTER_BOUND ( 'NONE', #883, .T. ) ;
#1332 = ORIENTED_EDGE ( 'NONE', *, *, #650, .T. ) ;
#1333 = TOROIDAL_SURFACE ( 'NONE', #620, 1.700000000000000178, 0.5999999999999999778 ) ;
#1334 = VECTOR ( 'NONE', #1044, 1000.000000000000000 ) ;
#1335 = EDGE_CURVE ( 'NONE', #1062, #326, #147, .T. ) ;
#1336 = CIRCLE ( 'NONE', #162, 3.600000000000000089 ) ;
#1337 = ORIENTED_EDGE ( 'NONE', *, *, #1243, .T. ) ;
#1338 = LOCAL_TIME ( 18, 24, 5.000000000000000000, #403 ) ;
#1339 = DIRECTION ( 'NONE',  ( -0.000000000000000000, -1.000000000000000000, -0.000000000000000000 ) ) ;
#1340 = DIRECTION ( 'NONE',  ( 0.000000000000000000, -1.000000000000000000, 0.000000000000000000 ) ) ;
#1341 = ORIENTED_EDGE ( 'NONE', *, *, #1046, .F. ) ;
ENDSEC;
END-ISO-10303-21;
