%TF.GenerationSoftware,KiCad,Pcbnew,9.0.1-rc2*%
%TF.CreationDate,2025-11-09T14:34:19-08:00*%
%TF.ProjectId,bsl_array_v1,62736c5f-6172-4726-9179-5f76312e6b69,2*%
%TF.SameCoordinates,Original*%
%TF.FileFunction,Drillmap*%
%TF.FilePolarity,Positive*%
%FSLAX45Y45*%
G04 Gerber Fmt 4.5, Leading zero omitted, Abs format (unit mm)*
G04 Created by KiCad (PCBNEW 9.0.1-rc2) date 2025-11-09 14:34:19*
%MOMM*%
%LPD*%
G01*
G04 APERTURE LIST*
%ADD10C,0.150000*%
%ADD11C,0.200000*%
%ADD12C,0.120000*%
%ADD13C,0.320000*%
G04 APERTURE END LIST*
D10*
X10900000Y-2800000D02*
G75*
G02*
X10800000Y-2700000I0J100000D01*
G01*
X7400000Y-1850000D02*
G75*
G02*
X7500000Y-1750000I100000J0D01*
G01*
X15200000Y-18700000D02*
X3000000Y-18700000D01*
X10900000Y-2800000D02*
X15200000Y-2800000D01*
X7400000Y-2700000D02*
X7400000Y-1850000D01*
X10700000Y-1750000D02*
G75*
G02*
X10800000Y-1850000I0J-100000D01*
G01*
X15600000Y-18300000D02*
G75*
G02*
X15200000Y-18700000I-400000J0D01*
G01*
X15600000Y-3200000D02*
X15600000Y-18300000D01*
X3000000Y-18700000D02*
G75*
G02*
X2600000Y-18300000I0J400000D01*
G01*
X15200000Y-2800000D02*
G75*
G02*
X15600000Y-3200000I0J-400000D01*
G01*
X7400000Y-2700000D02*
G75*
G02*
X7300000Y-2800000I-100000J0D01*
G01*
X7300000Y-2800000D02*
X3000000Y-2800000D01*
X7500000Y-1750000D02*
X10700000Y-1750000D01*
X2600000Y-3200000D02*
G75*
G02*
X3000000Y-2800000I400000J0D01*
G01*
X10800000Y-1850000D02*
X10800000Y-2700000D01*
X2600000Y-18300000D02*
X2600000Y-3200000D01*
D11*
D12*
X8240000Y-2190000D02*
X8360000Y-2310000D01*
X8360000Y-2190000D02*
X8240000Y-2310000D01*
X9840000Y-2190000D02*
X9960000Y-2310000D01*
X9960000Y-2190000D02*
X9840000Y-2310000D01*
D13*
X3160000Y-3200000D02*
G75*
G02*
X2840000Y-3200000I-160000J0D01*
G01*
X2840000Y-3200000D02*
G75*
G02*
X3160000Y-3200000I160000J0D01*
G01*
X3160000Y-18300000D02*
G75*
G02*
X2840000Y-18300000I-160000J0D01*
G01*
X2840000Y-18300000D02*
G75*
G02*
X3160000Y-18300000I160000J0D01*
G01*
X15360000Y-3200000D02*
G75*
G02*
X15040000Y-3200000I-160000J0D01*
G01*
X15040000Y-3200000D02*
G75*
G02*
X15360000Y-3200000I160000J0D01*
G01*
X15360000Y-18300000D02*
G75*
G02*
X15040000Y-18300000I-160000J0D01*
G01*
X15040000Y-18300000D02*
G75*
G02*
X15360000Y-18300000I160000J0D01*
G01*
D11*
X2853277Y-19018984D02*
X2853277Y-18818984D01*
X2853277Y-18818984D02*
X2900896Y-18818984D01*
X2900896Y-18818984D02*
X2929467Y-18828508D01*
X2929467Y-18828508D02*
X2948515Y-18847555D01*
X2948515Y-18847555D02*
X2958039Y-18866603D01*
X2958039Y-18866603D02*
X2967562Y-18904698D01*
X2967562Y-18904698D02*
X2967562Y-18933270D01*
X2967562Y-18933270D02*
X2958039Y-18971365D01*
X2958039Y-18971365D02*
X2948515Y-18990412D01*
X2948515Y-18990412D02*
X2929467Y-19009460D01*
X2929467Y-19009460D02*
X2900896Y-19018984D01*
X2900896Y-19018984D02*
X2853277Y-19018984D01*
X3053277Y-19018984D02*
X3053277Y-18885650D01*
X3053277Y-18923746D02*
X3062801Y-18904698D01*
X3062801Y-18904698D02*
X3072324Y-18895174D01*
X3072324Y-18895174D02*
X3091372Y-18885650D01*
X3091372Y-18885650D02*
X3110420Y-18885650D01*
X3177086Y-19018984D02*
X3177086Y-18885650D01*
X3177086Y-18818984D02*
X3167562Y-18828508D01*
X3167562Y-18828508D02*
X3177086Y-18838031D01*
X3177086Y-18838031D02*
X3186610Y-18828508D01*
X3186610Y-18828508D02*
X3177086Y-18818984D01*
X3177086Y-18818984D02*
X3177086Y-18838031D01*
X3300896Y-19018984D02*
X3281848Y-19009460D01*
X3281848Y-19009460D02*
X3272324Y-18990412D01*
X3272324Y-18990412D02*
X3272324Y-18818984D01*
X3405658Y-19018984D02*
X3386610Y-19009460D01*
X3386610Y-19009460D02*
X3377086Y-18990412D01*
X3377086Y-18990412D02*
X3377086Y-18818984D01*
X3634229Y-19018984D02*
X3634229Y-18818984D01*
X3634229Y-18818984D02*
X3700896Y-18961841D01*
X3700896Y-18961841D02*
X3767562Y-18818984D01*
X3767562Y-18818984D02*
X3767562Y-19018984D01*
X3948515Y-19018984D02*
X3948515Y-18914222D01*
X3948515Y-18914222D02*
X3938991Y-18895174D01*
X3938991Y-18895174D02*
X3919943Y-18885650D01*
X3919943Y-18885650D02*
X3881848Y-18885650D01*
X3881848Y-18885650D02*
X3862801Y-18895174D01*
X3948515Y-19009460D02*
X3929467Y-19018984D01*
X3929467Y-19018984D02*
X3881848Y-19018984D01*
X3881848Y-19018984D02*
X3862801Y-19009460D01*
X3862801Y-19009460D02*
X3853277Y-18990412D01*
X3853277Y-18990412D02*
X3853277Y-18971365D01*
X3853277Y-18971365D02*
X3862801Y-18952317D01*
X3862801Y-18952317D02*
X3881848Y-18942793D01*
X3881848Y-18942793D02*
X3929467Y-18942793D01*
X3929467Y-18942793D02*
X3948515Y-18933270D01*
X4043753Y-18885650D02*
X4043753Y-19085650D01*
X4043753Y-18895174D02*
X4062801Y-18885650D01*
X4062801Y-18885650D02*
X4100896Y-18885650D01*
X4100896Y-18885650D02*
X4119943Y-18895174D01*
X4119943Y-18895174D02*
X4129467Y-18904698D01*
X4129467Y-18904698D02*
X4138991Y-18923746D01*
X4138991Y-18923746D02*
X4138991Y-18980889D01*
X4138991Y-18980889D02*
X4129467Y-18999936D01*
X4129467Y-18999936D02*
X4119943Y-19009460D01*
X4119943Y-19009460D02*
X4100896Y-19018984D01*
X4100896Y-19018984D02*
X4062801Y-19018984D01*
X4062801Y-19018984D02*
X4043753Y-19009460D01*
X4224705Y-18999936D02*
X4234229Y-19009460D01*
X4234229Y-19009460D02*
X4224705Y-19018984D01*
X4224705Y-19018984D02*
X4215182Y-19009460D01*
X4215182Y-19009460D02*
X4224705Y-18999936D01*
X4224705Y-18999936D02*
X4224705Y-19018984D01*
X4224705Y-18895174D02*
X4234229Y-18904698D01*
X4234229Y-18904698D02*
X4224705Y-18914222D01*
X4224705Y-18914222D02*
X4215182Y-18904698D01*
X4215182Y-18904698D02*
X4224705Y-18895174D01*
X4224705Y-18895174D02*
X4224705Y-18914222D01*
D12*
X2472500Y-19287500D02*
X2592500Y-19407500D01*
X2592500Y-19287500D02*
X2472500Y-19407500D01*
D11*
X2958039Y-19438984D02*
X2843753Y-19438984D01*
X2900896Y-19438984D02*
X2900896Y-19238984D01*
X2900896Y-19238984D02*
X2881848Y-19267555D01*
X2881848Y-19267555D02*
X2862801Y-19286603D01*
X2862801Y-19286603D02*
X2843753Y-19296127D01*
X3043753Y-19419936D02*
X3053277Y-19429460D01*
X3053277Y-19429460D02*
X3043753Y-19438984D01*
X3043753Y-19438984D02*
X3034229Y-19429460D01*
X3034229Y-19429460D02*
X3043753Y-19419936D01*
X3043753Y-19419936D02*
X3043753Y-19438984D01*
X3129467Y-19258031D02*
X3138991Y-19248508D01*
X3138991Y-19248508D02*
X3158039Y-19238984D01*
X3158039Y-19238984D02*
X3205658Y-19238984D01*
X3205658Y-19238984D02*
X3224705Y-19248508D01*
X3224705Y-19248508D02*
X3234229Y-19258031D01*
X3234229Y-19258031D02*
X3243753Y-19277079D01*
X3243753Y-19277079D02*
X3243753Y-19296127D01*
X3243753Y-19296127D02*
X3234229Y-19324698D01*
X3234229Y-19324698D02*
X3119943Y-19438984D01*
X3119943Y-19438984D02*
X3243753Y-19438984D01*
X3367562Y-19238984D02*
X3386610Y-19238984D01*
X3386610Y-19238984D02*
X3405658Y-19248508D01*
X3405658Y-19248508D02*
X3415182Y-19258031D01*
X3415182Y-19258031D02*
X3424705Y-19277079D01*
X3424705Y-19277079D02*
X3434229Y-19315174D01*
X3434229Y-19315174D02*
X3434229Y-19362793D01*
X3434229Y-19362793D02*
X3424705Y-19400889D01*
X3424705Y-19400889D02*
X3415182Y-19419936D01*
X3415182Y-19419936D02*
X3405658Y-19429460D01*
X3405658Y-19429460D02*
X3386610Y-19438984D01*
X3386610Y-19438984D02*
X3367562Y-19438984D01*
X3367562Y-19438984D02*
X3348515Y-19429460D01*
X3348515Y-19429460D02*
X3338991Y-19419936D01*
X3338991Y-19419936D02*
X3329467Y-19400889D01*
X3329467Y-19400889D02*
X3319943Y-19362793D01*
X3319943Y-19362793D02*
X3319943Y-19315174D01*
X3319943Y-19315174D02*
X3329467Y-19277079D01*
X3329467Y-19277079D02*
X3338991Y-19258031D01*
X3338991Y-19258031D02*
X3348515Y-19248508D01*
X3348515Y-19248508D02*
X3367562Y-19238984D01*
X3558039Y-19238984D02*
X3577086Y-19238984D01*
X3577086Y-19238984D02*
X3596134Y-19248508D01*
X3596134Y-19248508D02*
X3605658Y-19258031D01*
X3605658Y-19258031D02*
X3615182Y-19277079D01*
X3615182Y-19277079D02*
X3624705Y-19315174D01*
X3624705Y-19315174D02*
X3624705Y-19362793D01*
X3624705Y-19362793D02*
X3615182Y-19400889D01*
X3615182Y-19400889D02*
X3605658Y-19419936D01*
X3605658Y-19419936D02*
X3596134Y-19429460D01*
X3596134Y-19429460D02*
X3577086Y-19438984D01*
X3577086Y-19438984D02*
X3558039Y-19438984D01*
X3558039Y-19438984D02*
X3538991Y-19429460D01*
X3538991Y-19429460D02*
X3529467Y-19419936D01*
X3529467Y-19419936D02*
X3519943Y-19400889D01*
X3519943Y-19400889D02*
X3510420Y-19362793D01*
X3510420Y-19362793D02*
X3510420Y-19315174D01*
X3510420Y-19315174D02*
X3519943Y-19277079D01*
X3519943Y-19277079D02*
X3529467Y-19258031D01*
X3529467Y-19258031D02*
X3538991Y-19248508D01*
X3538991Y-19248508D02*
X3558039Y-19238984D01*
X3710420Y-19438984D02*
X3710420Y-19305650D01*
X3710420Y-19324698D02*
X3719943Y-19315174D01*
X3719943Y-19315174D02*
X3738991Y-19305650D01*
X3738991Y-19305650D02*
X3767563Y-19305650D01*
X3767563Y-19305650D02*
X3786610Y-19315174D01*
X3786610Y-19315174D02*
X3796134Y-19334222D01*
X3796134Y-19334222D02*
X3796134Y-19438984D01*
X3796134Y-19334222D02*
X3805658Y-19315174D01*
X3805658Y-19315174D02*
X3824705Y-19305650D01*
X3824705Y-19305650D02*
X3853277Y-19305650D01*
X3853277Y-19305650D02*
X3872324Y-19315174D01*
X3872324Y-19315174D02*
X3881848Y-19334222D01*
X3881848Y-19334222D02*
X3881848Y-19438984D01*
X3977086Y-19438984D02*
X3977086Y-19305650D01*
X3977086Y-19324698D02*
X3986610Y-19315174D01*
X3986610Y-19315174D02*
X4005658Y-19305650D01*
X4005658Y-19305650D02*
X4034229Y-19305650D01*
X4034229Y-19305650D02*
X4053277Y-19315174D01*
X4053277Y-19315174D02*
X4062801Y-19334222D01*
X4062801Y-19334222D02*
X4062801Y-19438984D01*
X4062801Y-19334222D02*
X4072324Y-19315174D01*
X4072324Y-19315174D02*
X4091372Y-19305650D01*
X4091372Y-19305650D02*
X4119943Y-19305650D01*
X4119943Y-19305650D02*
X4138991Y-19315174D01*
X4138991Y-19315174D02*
X4148515Y-19334222D01*
X4148515Y-19334222D02*
X4148515Y-19438984D01*
X4538991Y-19229460D02*
X4367563Y-19486603D01*
X4796134Y-19238984D02*
X4815182Y-19238984D01*
X4815182Y-19238984D02*
X4834229Y-19248508D01*
X4834229Y-19248508D02*
X4843753Y-19258031D01*
X4843753Y-19258031D02*
X4853277Y-19277079D01*
X4853277Y-19277079D02*
X4862801Y-19315174D01*
X4862801Y-19315174D02*
X4862801Y-19362793D01*
X4862801Y-19362793D02*
X4853277Y-19400889D01*
X4853277Y-19400889D02*
X4843753Y-19419936D01*
X4843753Y-19419936D02*
X4834229Y-19429460D01*
X4834229Y-19429460D02*
X4815182Y-19438984D01*
X4815182Y-19438984D02*
X4796134Y-19438984D01*
X4796134Y-19438984D02*
X4777087Y-19429460D01*
X4777087Y-19429460D02*
X4767563Y-19419936D01*
X4767563Y-19419936D02*
X4758039Y-19400889D01*
X4758039Y-19400889D02*
X4748515Y-19362793D01*
X4748515Y-19362793D02*
X4748515Y-19315174D01*
X4748515Y-19315174D02*
X4758039Y-19277079D01*
X4758039Y-19277079D02*
X4767563Y-19258031D01*
X4767563Y-19258031D02*
X4777087Y-19248508D01*
X4777087Y-19248508D02*
X4796134Y-19238984D01*
X4948515Y-19419936D02*
X4958039Y-19429460D01*
X4958039Y-19429460D02*
X4948515Y-19438984D01*
X4948515Y-19438984D02*
X4938991Y-19429460D01*
X4938991Y-19429460D02*
X4948515Y-19419936D01*
X4948515Y-19419936D02*
X4948515Y-19438984D01*
X5081848Y-19238984D02*
X5100896Y-19238984D01*
X5100896Y-19238984D02*
X5119944Y-19248508D01*
X5119944Y-19248508D02*
X5129468Y-19258031D01*
X5129468Y-19258031D02*
X5138991Y-19277079D01*
X5138991Y-19277079D02*
X5148515Y-19315174D01*
X5148515Y-19315174D02*
X5148515Y-19362793D01*
X5148515Y-19362793D02*
X5138991Y-19400889D01*
X5138991Y-19400889D02*
X5129468Y-19419936D01*
X5129468Y-19419936D02*
X5119944Y-19429460D01*
X5119944Y-19429460D02*
X5100896Y-19438984D01*
X5100896Y-19438984D02*
X5081848Y-19438984D01*
X5081848Y-19438984D02*
X5062801Y-19429460D01*
X5062801Y-19429460D02*
X5053277Y-19419936D01*
X5053277Y-19419936D02*
X5043753Y-19400889D01*
X5043753Y-19400889D02*
X5034229Y-19362793D01*
X5034229Y-19362793D02*
X5034229Y-19315174D01*
X5034229Y-19315174D02*
X5043753Y-19277079D01*
X5043753Y-19277079D02*
X5053277Y-19258031D01*
X5053277Y-19258031D02*
X5062801Y-19248508D01*
X5062801Y-19248508D02*
X5081848Y-19238984D01*
X5319944Y-19305650D02*
X5319944Y-19438984D01*
X5272325Y-19229460D02*
X5224706Y-19372317D01*
X5224706Y-19372317D02*
X5348515Y-19372317D01*
X5405658Y-19238984D02*
X5538991Y-19238984D01*
X5538991Y-19238984D02*
X5453277Y-19438984D01*
X5605658Y-19258031D02*
X5615182Y-19248508D01*
X5615182Y-19248508D02*
X5634229Y-19238984D01*
X5634229Y-19238984D02*
X5681848Y-19238984D01*
X5681848Y-19238984D02*
X5700896Y-19248508D01*
X5700896Y-19248508D02*
X5710420Y-19258031D01*
X5710420Y-19258031D02*
X5719944Y-19277079D01*
X5719944Y-19277079D02*
X5719944Y-19296127D01*
X5719944Y-19296127D02*
X5710420Y-19324698D01*
X5710420Y-19324698D02*
X5596134Y-19438984D01*
X5596134Y-19438984D02*
X5719944Y-19438984D01*
X5796134Y-19238984D02*
X5796134Y-19277079D01*
X5872325Y-19238984D02*
X5872325Y-19277079D01*
X6167563Y-19515174D02*
X6158039Y-19505650D01*
X6158039Y-19505650D02*
X6138991Y-19477079D01*
X6138991Y-19477079D02*
X6129468Y-19458031D01*
X6129468Y-19458031D02*
X6119944Y-19429460D01*
X6119944Y-19429460D02*
X6110420Y-19381841D01*
X6110420Y-19381841D02*
X6110420Y-19343746D01*
X6110420Y-19343746D02*
X6119944Y-19296127D01*
X6119944Y-19296127D02*
X6129468Y-19267555D01*
X6129468Y-19267555D02*
X6138991Y-19248508D01*
X6138991Y-19248508D02*
X6158039Y-19219936D01*
X6158039Y-19219936D02*
X6167563Y-19210412D01*
X6234229Y-19258031D02*
X6243753Y-19248508D01*
X6243753Y-19248508D02*
X6262801Y-19238984D01*
X6262801Y-19238984D02*
X6310420Y-19238984D01*
X6310420Y-19238984D02*
X6329468Y-19248508D01*
X6329468Y-19248508D02*
X6338991Y-19258031D01*
X6338991Y-19258031D02*
X6348515Y-19277079D01*
X6348515Y-19277079D02*
X6348515Y-19296127D01*
X6348515Y-19296127D02*
X6338991Y-19324698D01*
X6338991Y-19324698D02*
X6224706Y-19438984D01*
X6224706Y-19438984D02*
X6348515Y-19438984D01*
X6586610Y-19438984D02*
X6586610Y-19238984D01*
X6672325Y-19438984D02*
X6672325Y-19334222D01*
X6672325Y-19334222D02*
X6662801Y-19315174D01*
X6662801Y-19315174D02*
X6643753Y-19305650D01*
X6643753Y-19305650D02*
X6615182Y-19305650D01*
X6615182Y-19305650D02*
X6596134Y-19315174D01*
X6596134Y-19315174D02*
X6586610Y-19324698D01*
X6796134Y-19438984D02*
X6777087Y-19429460D01*
X6777087Y-19429460D02*
X6767563Y-19419936D01*
X6767563Y-19419936D02*
X6758039Y-19400889D01*
X6758039Y-19400889D02*
X6758039Y-19343746D01*
X6758039Y-19343746D02*
X6767563Y-19324698D01*
X6767563Y-19324698D02*
X6777087Y-19315174D01*
X6777087Y-19315174D02*
X6796134Y-19305650D01*
X6796134Y-19305650D02*
X6824706Y-19305650D01*
X6824706Y-19305650D02*
X6843753Y-19315174D01*
X6843753Y-19315174D02*
X6853277Y-19324698D01*
X6853277Y-19324698D02*
X6862801Y-19343746D01*
X6862801Y-19343746D02*
X6862801Y-19400889D01*
X6862801Y-19400889D02*
X6853277Y-19419936D01*
X6853277Y-19419936D02*
X6843753Y-19429460D01*
X6843753Y-19429460D02*
X6824706Y-19438984D01*
X6824706Y-19438984D02*
X6796134Y-19438984D01*
X6977087Y-19438984D02*
X6958039Y-19429460D01*
X6958039Y-19429460D02*
X6948515Y-19410412D01*
X6948515Y-19410412D02*
X6948515Y-19238984D01*
X7129468Y-19429460D02*
X7110420Y-19438984D01*
X7110420Y-19438984D02*
X7072325Y-19438984D01*
X7072325Y-19438984D02*
X7053277Y-19429460D01*
X7053277Y-19429460D02*
X7043753Y-19410412D01*
X7043753Y-19410412D02*
X7043753Y-19334222D01*
X7043753Y-19334222D02*
X7053277Y-19315174D01*
X7053277Y-19315174D02*
X7072325Y-19305650D01*
X7072325Y-19305650D02*
X7110420Y-19305650D01*
X7110420Y-19305650D02*
X7129468Y-19315174D01*
X7129468Y-19315174D02*
X7138991Y-19334222D01*
X7138991Y-19334222D02*
X7138991Y-19353270D01*
X7138991Y-19353270D02*
X7043753Y-19372317D01*
X7215182Y-19429460D02*
X7234230Y-19438984D01*
X7234230Y-19438984D02*
X7272325Y-19438984D01*
X7272325Y-19438984D02*
X7291372Y-19429460D01*
X7291372Y-19429460D02*
X7300896Y-19410412D01*
X7300896Y-19410412D02*
X7300896Y-19400889D01*
X7300896Y-19400889D02*
X7291372Y-19381841D01*
X7291372Y-19381841D02*
X7272325Y-19372317D01*
X7272325Y-19372317D02*
X7243753Y-19372317D01*
X7243753Y-19372317D02*
X7224706Y-19362793D01*
X7224706Y-19362793D02*
X7215182Y-19343746D01*
X7215182Y-19343746D02*
X7215182Y-19334222D01*
X7215182Y-19334222D02*
X7224706Y-19315174D01*
X7224706Y-19315174D02*
X7243753Y-19305650D01*
X7243753Y-19305650D02*
X7272325Y-19305650D01*
X7272325Y-19305650D02*
X7291372Y-19315174D01*
X7367563Y-19515174D02*
X7377087Y-19505650D01*
X7377087Y-19505650D02*
X7396134Y-19477079D01*
X7396134Y-19477079D02*
X7405658Y-19458031D01*
X7405658Y-19458031D02*
X7415182Y-19429460D01*
X7415182Y-19429460D02*
X7424706Y-19381841D01*
X7424706Y-19381841D02*
X7424706Y-19343746D01*
X7424706Y-19343746D02*
X7415182Y-19296127D01*
X7415182Y-19296127D02*
X7405658Y-19267555D01*
X7405658Y-19267555D02*
X7396134Y-19248508D01*
X7396134Y-19248508D02*
X7377087Y-19219936D01*
X7377087Y-19219936D02*
X7367563Y-19210412D01*
X7729468Y-19515174D02*
X7719944Y-19505650D01*
X7719944Y-19505650D02*
X7700896Y-19477079D01*
X7700896Y-19477079D02*
X7691372Y-19458031D01*
X7691372Y-19458031D02*
X7681849Y-19429460D01*
X7681849Y-19429460D02*
X7672325Y-19381841D01*
X7672325Y-19381841D02*
X7672325Y-19343746D01*
X7672325Y-19343746D02*
X7681849Y-19296127D01*
X7681849Y-19296127D02*
X7691372Y-19267555D01*
X7691372Y-19267555D02*
X7700896Y-19248508D01*
X7700896Y-19248508D02*
X7719944Y-19219936D01*
X7719944Y-19219936D02*
X7729468Y-19210412D01*
X7805658Y-19305650D02*
X7805658Y-19438984D01*
X7805658Y-19324698D02*
X7815182Y-19315174D01*
X7815182Y-19315174D02*
X7834230Y-19305650D01*
X7834230Y-19305650D02*
X7862801Y-19305650D01*
X7862801Y-19305650D02*
X7881849Y-19315174D01*
X7881849Y-19315174D02*
X7891372Y-19334222D01*
X7891372Y-19334222D02*
X7891372Y-19438984D01*
X8015182Y-19438984D02*
X7996134Y-19429460D01*
X7996134Y-19429460D02*
X7986611Y-19419936D01*
X7986611Y-19419936D02*
X7977087Y-19400889D01*
X7977087Y-19400889D02*
X7977087Y-19343746D01*
X7977087Y-19343746D02*
X7986611Y-19324698D01*
X7986611Y-19324698D02*
X7996134Y-19315174D01*
X7996134Y-19315174D02*
X8015182Y-19305650D01*
X8015182Y-19305650D02*
X8043753Y-19305650D01*
X8043753Y-19305650D02*
X8062801Y-19315174D01*
X8062801Y-19315174D02*
X8072325Y-19324698D01*
X8072325Y-19324698D02*
X8081849Y-19343746D01*
X8081849Y-19343746D02*
X8081849Y-19400889D01*
X8081849Y-19400889D02*
X8072325Y-19419936D01*
X8072325Y-19419936D02*
X8062801Y-19429460D01*
X8062801Y-19429460D02*
X8043753Y-19438984D01*
X8043753Y-19438984D02*
X8015182Y-19438984D01*
X8138992Y-19305650D02*
X8215182Y-19305650D01*
X8167563Y-19238984D02*
X8167563Y-19410412D01*
X8167563Y-19410412D02*
X8177087Y-19429460D01*
X8177087Y-19429460D02*
X8196134Y-19438984D01*
X8196134Y-19438984D02*
X8215182Y-19438984D01*
X8434230Y-19305650D02*
X8434230Y-19505650D01*
X8434230Y-19315174D02*
X8453277Y-19305650D01*
X8453277Y-19305650D02*
X8491373Y-19305650D01*
X8491373Y-19305650D02*
X8510420Y-19315174D01*
X8510420Y-19315174D02*
X8519944Y-19324698D01*
X8519944Y-19324698D02*
X8529468Y-19343746D01*
X8529468Y-19343746D02*
X8529468Y-19400889D01*
X8529468Y-19400889D02*
X8519944Y-19419936D01*
X8519944Y-19419936D02*
X8510420Y-19429460D01*
X8510420Y-19429460D02*
X8491373Y-19438984D01*
X8491373Y-19438984D02*
X8453277Y-19438984D01*
X8453277Y-19438984D02*
X8434230Y-19429460D01*
X8643754Y-19438984D02*
X8624706Y-19429460D01*
X8624706Y-19429460D02*
X8615182Y-19410412D01*
X8615182Y-19410412D02*
X8615182Y-19238984D01*
X8805658Y-19438984D02*
X8805658Y-19334222D01*
X8805658Y-19334222D02*
X8796135Y-19315174D01*
X8796135Y-19315174D02*
X8777087Y-19305650D01*
X8777087Y-19305650D02*
X8738992Y-19305650D01*
X8738992Y-19305650D02*
X8719944Y-19315174D01*
X8805658Y-19429460D02*
X8786611Y-19438984D01*
X8786611Y-19438984D02*
X8738992Y-19438984D01*
X8738992Y-19438984D02*
X8719944Y-19429460D01*
X8719944Y-19429460D02*
X8710420Y-19410412D01*
X8710420Y-19410412D02*
X8710420Y-19391365D01*
X8710420Y-19391365D02*
X8719944Y-19372317D01*
X8719944Y-19372317D02*
X8738992Y-19362793D01*
X8738992Y-19362793D02*
X8786611Y-19362793D01*
X8786611Y-19362793D02*
X8805658Y-19353270D01*
X8872325Y-19305650D02*
X8948515Y-19305650D01*
X8900896Y-19238984D02*
X8900896Y-19410412D01*
X8900896Y-19410412D02*
X8910420Y-19429460D01*
X8910420Y-19429460D02*
X8929468Y-19438984D01*
X8929468Y-19438984D02*
X8948515Y-19438984D01*
X9091373Y-19429460D02*
X9072325Y-19438984D01*
X9072325Y-19438984D02*
X9034230Y-19438984D01*
X9034230Y-19438984D02*
X9015182Y-19429460D01*
X9015182Y-19429460D02*
X9005658Y-19410412D01*
X9005658Y-19410412D02*
X9005658Y-19334222D01*
X9005658Y-19334222D02*
X9015182Y-19315174D01*
X9015182Y-19315174D02*
X9034230Y-19305650D01*
X9034230Y-19305650D02*
X9072325Y-19305650D01*
X9072325Y-19305650D02*
X9091373Y-19315174D01*
X9091373Y-19315174D02*
X9100896Y-19334222D01*
X9100896Y-19334222D02*
X9100896Y-19353270D01*
X9100896Y-19353270D02*
X9005658Y-19372317D01*
X9272325Y-19438984D02*
X9272325Y-19238984D01*
X9272325Y-19429460D02*
X9253277Y-19438984D01*
X9253277Y-19438984D02*
X9215182Y-19438984D01*
X9215182Y-19438984D02*
X9196135Y-19429460D01*
X9196135Y-19429460D02*
X9186611Y-19419936D01*
X9186611Y-19419936D02*
X9177087Y-19400889D01*
X9177087Y-19400889D02*
X9177087Y-19343746D01*
X9177087Y-19343746D02*
X9186611Y-19324698D01*
X9186611Y-19324698D02*
X9196135Y-19315174D01*
X9196135Y-19315174D02*
X9215182Y-19305650D01*
X9215182Y-19305650D02*
X9253277Y-19305650D01*
X9253277Y-19305650D02*
X9272325Y-19315174D01*
X9348516Y-19515174D02*
X9358039Y-19505650D01*
X9358039Y-19505650D02*
X9377087Y-19477079D01*
X9377087Y-19477079D02*
X9386611Y-19458031D01*
X9386611Y-19458031D02*
X9396135Y-19429460D01*
X9396135Y-19429460D02*
X9405658Y-19381841D01*
X9405658Y-19381841D02*
X9405658Y-19343746D01*
X9405658Y-19343746D02*
X9396135Y-19296127D01*
X9396135Y-19296127D02*
X9386611Y-19267555D01*
X9386611Y-19267555D02*
X9377087Y-19248508D01*
X9377087Y-19248508D02*
X9358039Y-19219936D01*
X9358039Y-19219936D02*
X9348516Y-19210412D01*
X2592500Y-19611500D02*
G75*
G02*
X2392500Y-19611500I-100000J0D01*
G01*
X2392500Y-19611500D02*
G75*
G02*
X2592500Y-19611500I100000J0D01*
G01*
X2834229Y-19502984D02*
X2958039Y-19502984D01*
X2958039Y-19502984D02*
X2891372Y-19579174D01*
X2891372Y-19579174D02*
X2919943Y-19579174D01*
X2919943Y-19579174D02*
X2938991Y-19588698D01*
X2938991Y-19588698D02*
X2948515Y-19598222D01*
X2948515Y-19598222D02*
X2958039Y-19617270D01*
X2958039Y-19617270D02*
X2958039Y-19664889D01*
X2958039Y-19664889D02*
X2948515Y-19683936D01*
X2948515Y-19683936D02*
X2938991Y-19693460D01*
X2938991Y-19693460D02*
X2919943Y-19702984D01*
X2919943Y-19702984D02*
X2862801Y-19702984D01*
X2862801Y-19702984D02*
X2843753Y-19693460D01*
X2843753Y-19693460D02*
X2834229Y-19683936D01*
X3043753Y-19683936D02*
X3053277Y-19693460D01*
X3053277Y-19693460D02*
X3043753Y-19702984D01*
X3043753Y-19702984D02*
X3034229Y-19693460D01*
X3034229Y-19693460D02*
X3043753Y-19683936D01*
X3043753Y-19683936D02*
X3043753Y-19702984D01*
X3129467Y-19522031D02*
X3138991Y-19512508D01*
X3138991Y-19512508D02*
X3158039Y-19502984D01*
X3158039Y-19502984D02*
X3205658Y-19502984D01*
X3205658Y-19502984D02*
X3224705Y-19512508D01*
X3224705Y-19512508D02*
X3234229Y-19522031D01*
X3234229Y-19522031D02*
X3243753Y-19541079D01*
X3243753Y-19541079D02*
X3243753Y-19560127D01*
X3243753Y-19560127D02*
X3234229Y-19588698D01*
X3234229Y-19588698D02*
X3119943Y-19702984D01*
X3119943Y-19702984D02*
X3243753Y-19702984D01*
X3367562Y-19502984D02*
X3386610Y-19502984D01*
X3386610Y-19502984D02*
X3405658Y-19512508D01*
X3405658Y-19512508D02*
X3415182Y-19522031D01*
X3415182Y-19522031D02*
X3424705Y-19541079D01*
X3424705Y-19541079D02*
X3434229Y-19579174D01*
X3434229Y-19579174D02*
X3434229Y-19626793D01*
X3434229Y-19626793D02*
X3424705Y-19664889D01*
X3424705Y-19664889D02*
X3415182Y-19683936D01*
X3415182Y-19683936D02*
X3405658Y-19693460D01*
X3405658Y-19693460D02*
X3386610Y-19702984D01*
X3386610Y-19702984D02*
X3367562Y-19702984D01*
X3367562Y-19702984D02*
X3348515Y-19693460D01*
X3348515Y-19693460D02*
X3338991Y-19683936D01*
X3338991Y-19683936D02*
X3329467Y-19664889D01*
X3329467Y-19664889D02*
X3319943Y-19626793D01*
X3319943Y-19626793D02*
X3319943Y-19579174D01*
X3319943Y-19579174D02*
X3329467Y-19541079D01*
X3329467Y-19541079D02*
X3338991Y-19522031D01*
X3338991Y-19522031D02*
X3348515Y-19512508D01*
X3348515Y-19512508D02*
X3367562Y-19502984D01*
X3558039Y-19502984D02*
X3577086Y-19502984D01*
X3577086Y-19502984D02*
X3596134Y-19512508D01*
X3596134Y-19512508D02*
X3605658Y-19522031D01*
X3605658Y-19522031D02*
X3615182Y-19541079D01*
X3615182Y-19541079D02*
X3624705Y-19579174D01*
X3624705Y-19579174D02*
X3624705Y-19626793D01*
X3624705Y-19626793D02*
X3615182Y-19664889D01*
X3615182Y-19664889D02*
X3605658Y-19683936D01*
X3605658Y-19683936D02*
X3596134Y-19693460D01*
X3596134Y-19693460D02*
X3577086Y-19702984D01*
X3577086Y-19702984D02*
X3558039Y-19702984D01*
X3558039Y-19702984D02*
X3538991Y-19693460D01*
X3538991Y-19693460D02*
X3529467Y-19683936D01*
X3529467Y-19683936D02*
X3519943Y-19664889D01*
X3519943Y-19664889D02*
X3510420Y-19626793D01*
X3510420Y-19626793D02*
X3510420Y-19579174D01*
X3510420Y-19579174D02*
X3519943Y-19541079D01*
X3519943Y-19541079D02*
X3529467Y-19522031D01*
X3529467Y-19522031D02*
X3538991Y-19512508D01*
X3538991Y-19512508D02*
X3558039Y-19502984D01*
X3710420Y-19702984D02*
X3710420Y-19569650D01*
X3710420Y-19588698D02*
X3719943Y-19579174D01*
X3719943Y-19579174D02*
X3738991Y-19569650D01*
X3738991Y-19569650D02*
X3767563Y-19569650D01*
X3767563Y-19569650D02*
X3786610Y-19579174D01*
X3786610Y-19579174D02*
X3796134Y-19598222D01*
X3796134Y-19598222D02*
X3796134Y-19702984D01*
X3796134Y-19598222D02*
X3805658Y-19579174D01*
X3805658Y-19579174D02*
X3824705Y-19569650D01*
X3824705Y-19569650D02*
X3853277Y-19569650D01*
X3853277Y-19569650D02*
X3872324Y-19579174D01*
X3872324Y-19579174D02*
X3881848Y-19598222D01*
X3881848Y-19598222D02*
X3881848Y-19702984D01*
X3977086Y-19702984D02*
X3977086Y-19569650D01*
X3977086Y-19588698D02*
X3986610Y-19579174D01*
X3986610Y-19579174D02*
X4005658Y-19569650D01*
X4005658Y-19569650D02*
X4034229Y-19569650D01*
X4034229Y-19569650D02*
X4053277Y-19579174D01*
X4053277Y-19579174D02*
X4062801Y-19598222D01*
X4062801Y-19598222D02*
X4062801Y-19702984D01*
X4062801Y-19598222D02*
X4072324Y-19579174D01*
X4072324Y-19579174D02*
X4091372Y-19569650D01*
X4091372Y-19569650D02*
X4119943Y-19569650D01*
X4119943Y-19569650D02*
X4138991Y-19579174D01*
X4138991Y-19579174D02*
X4148515Y-19598222D01*
X4148515Y-19598222D02*
X4148515Y-19702984D01*
X4538991Y-19493460D02*
X4367563Y-19750603D01*
X4796134Y-19502984D02*
X4815182Y-19502984D01*
X4815182Y-19502984D02*
X4834229Y-19512508D01*
X4834229Y-19512508D02*
X4843753Y-19522031D01*
X4843753Y-19522031D02*
X4853277Y-19541079D01*
X4853277Y-19541079D02*
X4862801Y-19579174D01*
X4862801Y-19579174D02*
X4862801Y-19626793D01*
X4862801Y-19626793D02*
X4853277Y-19664889D01*
X4853277Y-19664889D02*
X4843753Y-19683936D01*
X4843753Y-19683936D02*
X4834229Y-19693460D01*
X4834229Y-19693460D02*
X4815182Y-19702984D01*
X4815182Y-19702984D02*
X4796134Y-19702984D01*
X4796134Y-19702984D02*
X4777087Y-19693460D01*
X4777087Y-19693460D02*
X4767563Y-19683936D01*
X4767563Y-19683936D02*
X4758039Y-19664889D01*
X4758039Y-19664889D02*
X4748515Y-19626793D01*
X4748515Y-19626793D02*
X4748515Y-19579174D01*
X4748515Y-19579174D02*
X4758039Y-19541079D01*
X4758039Y-19541079D02*
X4767563Y-19522031D01*
X4767563Y-19522031D02*
X4777087Y-19512508D01*
X4777087Y-19512508D02*
X4796134Y-19502984D01*
X4948515Y-19683936D02*
X4958039Y-19693460D01*
X4958039Y-19693460D02*
X4948515Y-19702984D01*
X4948515Y-19702984D02*
X4938991Y-19693460D01*
X4938991Y-19693460D02*
X4948515Y-19683936D01*
X4948515Y-19683936D02*
X4948515Y-19702984D01*
X5148515Y-19702984D02*
X5034229Y-19702984D01*
X5091372Y-19702984D02*
X5091372Y-19502984D01*
X5091372Y-19502984D02*
X5072325Y-19531555D01*
X5072325Y-19531555D02*
X5053277Y-19550603D01*
X5053277Y-19550603D02*
X5034229Y-19560127D01*
X5224706Y-19522031D02*
X5234229Y-19512508D01*
X5234229Y-19512508D02*
X5253277Y-19502984D01*
X5253277Y-19502984D02*
X5300896Y-19502984D01*
X5300896Y-19502984D02*
X5319944Y-19512508D01*
X5319944Y-19512508D02*
X5329468Y-19522031D01*
X5329468Y-19522031D02*
X5338991Y-19541079D01*
X5338991Y-19541079D02*
X5338991Y-19560127D01*
X5338991Y-19560127D02*
X5329468Y-19588698D01*
X5329468Y-19588698D02*
X5215182Y-19702984D01*
X5215182Y-19702984D02*
X5338991Y-19702984D01*
X5510420Y-19502984D02*
X5472325Y-19502984D01*
X5472325Y-19502984D02*
X5453277Y-19512508D01*
X5453277Y-19512508D02*
X5443753Y-19522031D01*
X5443753Y-19522031D02*
X5424706Y-19550603D01*
X5424706Y-19550603D02*
X5415182Y-19588698D01*
X5415182Y-19588698D02*
X5415182Y-19664889D01*
X5415182Y-19664889D02*
X5424706Y-19683936D01*
X5424706Y-19683936D02*
X5434229Y-19693460D01*
X5434229Y-19693460D02*
X5453277Y-19702984D01*
X5453277Y-19702984D02*
X5491372Y-19702984D01*
X5491372Y-19702984D02*
X5510420Y-19693460D01*
X5510420Y-19693460D02*
X5519944Y-19683936D01*
X5519944Y-19683936D02*
X5529468Y-19664889D01*
X5529468Y-19664889D02*
X5529468Y-19617270D01*
X5529468Y-19617270D02*
X5519944Y-19598222D01*
X5519944Y-19598222D02*
X5510420Y-19588698D01*
X5510420Y-19588698D02*
X5491372Y-19579174D01*
X5491372Y-19579174D02*
X5453277Y-19579174D01*
X5453277Y-19579174D02*
X5434229Y-19588698D01*
X5434229Y-19588698D02*
X5424706Y-19598222D01*
X5424706Y-19598222D02*
X5415182Y-19617270D01*
X5653277Y-19502984D02*
X5672325Y-19502984D01*
X5672325Y-19502984D02*
X5691372Y-19512508D01*
X5691372Y-19512508D02*
X5700896Y-19522031D01*
X5700896Y-19522031D02*
X5710420Y-19541079D01*
X5710420Y-19541079D02*
X5719944Y-19579174D01*
X5719944Y-19579174D02*
X5719944Y-19626793D01*
X5719944Y-19626793D02*
X5710420Y-19664889D01*
X5710420Y-19664889D02*
X5700896Y-19683936D01*
X5700896Y-19683936D02*
X5691372Y-19693460D01*
X5691372Y-19693460D02*
X5672325Y-19702984D01*
X5672325Y-19702984D02*
X5653277Y-19702984D01*
X5653277Y-19702984D02*
X5634229Y-19693460D01*
X5634229Y-19693460D02*
X5624706Y-19683936D01*
X5624706Y-19683936D02*
X5615182Y-19664889D01*
X5615182Y-19664889D02*
X5605658Y-19626793D01*
X5605658Y-19626793D02*
X5605658Y-19579174D01*
X5605658Y-19579174D02*
X5615182Y-19541079D01*
X5615182Y-19541079D02*
X5624706Y-19522031D01*
X5624706Y-19522031D02*
X5634229Y-19512508D01*
X5634229Y-19512508D02*
X5653277Y-19502984D01*
X5796134Y-19502984D02*
X5796134Y-19541079D01*
X5872325Y-19502984D02*
X5872325Y-19541079D01*
X6167563Y-19779174D02*
X6158039Y-19769650D01*
X6158039Y-19769650D02*
X6138991Y-19741079D01*
X6138991Y-19741079D02*
X6129468Y-19722031D01*
X6129468Y-19722031D02*
X6119944Y-19693460D01*
X6119944Y-19693460D02*
X6110420Y-19645841D01*
X6110420Y-19645841D02*
X6110420Y-19607746D01*
X6110420Y-19607746D02*
X6119944Y-19560127D01*
X6119944Y-19560127D02*
X6129468Y-19531555D01*
X6129468Y-19531555D02*
X6138991Y-19512508D01*
X6138991Y-19512508D02*
X6158039Y-19483936D01*
X6158039Y-19483936D02*
X6167563Y-19474412D01*
X6329468Y-19569650D02*
X6329468Y-19702984D01*
X6281848Y-19493460D02*
X6234229Y-19636317D01*
X6234229Y-19636317D02*
X6358039Y-19636317D01*
X6586610Y-19702984D02*
X6586610Y-19502984D01*
X6672325Y-19702984D02*
X6672325Y-19598222D01*
X6672325Y-19598222D02*
X6662801Y-19579174D01*
X6662801Y-19579174D02*
X6643753Y-19569650D01*
X6643753Y-19569650D02*
X6615182Y-19569650D01*
X6615182Y-19569650D02*
X6596134Y-19579174D01*
X6596134Y-19579174D02*
X6586610Y-19588698D01*
X6796134Y-19702984D02*
X6777087Y-19693460D01*
X6777087Y-19693460D02*
X6767563Y-19683936D01*
X6767563Y-19683936D02*
X6758039Y-19664889D01*
X6758039Y-19664889D02*
X6758039Y-19607746D01*
X6758039Y-19607746D02*
X6767563Y-19588698D01*
X6767563Y-19588698D02*
X6777087Y-19579174D01*
X6777087Y-19579174D02*
X6796134Y-19569650D01*
X6796134Y-19569650D02*
X6824706Y-19569650D01*
X6824706Y-19569650D02*
X6843753Y-19579174D01*
X6843753Y-19579174D02*
X6853277Y-19588698D01*
X6853277Y-19588698D02*
X6862801Y-19607746D01*
X6862801Y-19607746D02*
X6862801Y-19664889D01*
X6862801Y-19664889D02*
X6853277Y-19683936D01*
X6853277Y-19683936D02*
X6843753Y-19693460D01*
X6843753Y-19693460D02*
X6824706Y-19702984D01*
X6824706Y-19702984D02*
X6796134Y-19702984D01*
X6977087Y-19702984D02*
X6958039Y-19693460D01*
X6958039Y-19693460D02*
X6948515Y-19674412D01*
X6948515Y-19674412D02*
X6948515Y-19502984D01*
X7129468Y-19693460D02*
X7110420Y-19702984D01*
X7110420Y-19702984D02*
X7072325Y-19702984D01*
X7072325Y-19702984D02*
X7053277Y-19693460D01*
X7053277Y-19693460D02*
X7043753Y-19674412D01*
X7043753Y-19674412D02*
X7043753Y-19598222D01*
X7043753Y-19598222D02*
X7053277Y-19579174D01*
X7053277Y-19579174D02*
X7072325Y-19569650D01*
X7072325Y-19569650D02*
X7110420Y-19569650D01*
X7110420Y-19569650D02*
X7129468Y-19579174D01*
X7129468Y-19579174D02*
X7138991Y-19598222D01*
X7138991Y-19598222D02*
X7138991Y-19617270D01*
X7138991Y-19617270D02*
X7043753Y-19636317D01*
X7215182Y-19693460D02*
X7234230Y-19702984D01*
X7234230Y-19702984D02*
X7272325Y-19702984D01*
X7272325Y-19702984D02*
X7291372Y-19693460D01*
X7291372Y-19693460D02*
X7300896Y-19674412D01*
X7300896Y-19674412D02*
X7300896Y-19664889D01*
X7300896Y-19664889D02*
X7291372Y-19645841D01*
X7291372Y-19645841D02*
X7272325Y-19636317D01*
X7272325Y-19636317D02*
X7243753Y-19636317D01*
X7243753Y-19636317D02*
X7224706Y-19626793D01*
X7224706Y-19626793D02*
X7215182Y-19607746D01*
X7215182Y-19607746D02*
X7215182Y-19598222D01*
X7215182Y-19598222D02*
X7224706Y-19579174D01*
X7224706Y-19579174D02*
X7243753Y-19569650D01*
X7243753Y-19569650D02*
X7272325Y-19569650D01*
X7272325Y-19569650D02*
X7291372Y-19579174D01*
X7367563Y-19779174D02*
X7377087Y-19769650D01*
X7377087Y-19769650D02*
X7396134Y-19741079D01*
X7396134Y-19741079D02*
X7405658Y-19722031D01*
X7405658Y-19722031D02*
X7415182Y-19693460D01*
X7415182Y-19693460D02*
X7424706Y-19645841D01*
X7424706Y-19645841D02*
X7424706Y-19607746D01*
X7424706Y-19607746D02*
X7415182Y-19560127D01*
X7415182Y-19560127D02*
X7405658Y-19531555D01*
X7405658Y-19531555D02*
X7396134Y-19512508D01*
X7396134Y-19512508D02*
X7377087Y-19483936D01*
X7377087Y-19483936D02*
X7367563Y-19474412D01*
X7729468Y-19779174D02*
X7719944Y-19769650D01*
X7719944Y-19769650D02*
X7700896Y-19741079D01*
X7700896Y-19741079D02*
X7691372Y-19722031D01*
X7691372Y-19722031D02*
X7681849Y-19693460D01*
X7681849Y-19693460D02*
X7672325Y-19645841D01*
X7672325Y-19645841D02*
X7672325Y-19607746D01*
X7672325Y-19607746D02*
X7681849Y-19560127D01*
X7681849Y-19560127D02*
X7691372Y-19531555D01*
X7691372Y-19531555D02*
X7700896Y-19512508D01*
X7700896Y-19512508D02*
X7719944Y-19483936D01*
X7719944Y-19483936D02*
X7729468Y-19474412D01*
X7805658Y-19569650D02*
X7805658Y-19702984D01*
X7805658Y-19588698D02*
X7815182Y-19579174D01*
X7815182Y-19579174D02*
X7834230Y-19569650D01*
X7834230Y-19569650D02*
X7862801Y-19569650D01*
X7862801Y-19569650D02*
X7881849Y-19579174D01*
X7881849Y-19579174D02*
X7891372Y-19598222D01*
X7891372Y-19598222D02*
X7891372Y-19702984D01*
X8015182Y-19702984D02*
X7996134Y-19693460D01*
X7996134Y-19693460D02*
X7986611Y-19683936D01*
X7986611Y-19683936D02*
X7977087Y-19664889D01*
X7977087Y-19664889D02*
X7977087Y-19607746D01*
X7977087Y-19607746D02*
X7986611Y-19588698D01*
X7986611Y-19588698D02*
X7996134Y-19579174D01*
X7996134Y-19579174D02*
X8015182Y-19569650D01*
X8015182Y-19569650D02*
X8043753Y-19569650D01*
X8043753Y-19569650D02*
X8062801Y-19579174D01*
X8062801Y-19579174D02*
X8072325Y-19588698D01*
X8072325Y-19588698D02*
X8081849Y-19607746D01*
X8081849Y-19607746D02*
X8081849Y-19664889D01*
X8081849Y-19664889D02*
X8072325Y-19683936D01*
X8072325Y-19683936D02*
X8062801Y-19693460D01*
X8062801Y-19693460D02*
X8043753Y-19702984D01*
X8043753Y-19702984D02*
X8015182Y-19702984D01*
X8138992Y-19569650D02*
X8215182Y-19569650D01*
X8167563Y-19502984D02*
X8167563Y-19674412D01*
X8167563Y-19674412D02*
X8177087Y-19693460D01*
X8177087Y-19693460D02*
X8196134Y-19702984D01*
X8196134Y-19702984D02*
X8215182Y-19702984D01*
X8434230Y-19569650D02*
X8434230Y-19769650D01*
X8434230Y-19579174D02*
X8453277Y-19569650D01*
X8453277Y-19569650D02*
X8491373Y-19569650D01*
X8491373Y-19569650D02*
X8510420Y-19579174D01*
X8510420Y-19579174D02*
X8519944Y-19588698D01*
X8519944Y-19588698D02*
X8529468Y-19607746D01*
X8529468Y-19607746D02*
X8529468Y-19664889D01*
X8529468Y-19664889D02*
X8519944Y-19683936D01*
X8519944Y-19683936D02*
X8510420Y-19693460D01*
X8510420Y-19693460D02*
X8491373Y-19702984D01*
X8491373Y-19702984D02*
X8453277Y-19702984D01*
X8453277Y-19702984D02*
X8434230Y-19693460D01*
X8643754Y-19702984D02*
X8624706Y-19693460D01*
X8624706Y-19693460D02*
X8615182Y-19674412D01*
X8615182Y-19674412D02*
X8615182Y-19502984D01*
X8805658Y-19702984D02*
X8805658Y-19598222D01*
X8805658Y-19598222D02*
X8796135Y-19579174D01*
X8796135Y-19579174D02*
X8777087Y-19569650D01*
X8777087Y-19569650D02*
X8738992Y-19569650D01*
X8738992Y-19569650D02*
X8719944Y-19579174D01*
X8805658Y-19693460D02*
X8786611Y-19702984D01*
X8786611Y-19702984D02*
X8738992Y-19702984D01*
X8738992Y-19702984D02*
X8719944Y-19693460D01*
X8719944Y-19693460D02*
X8710420Y-19674412D01*
X8710420Y-19674412D02*
X8710420Y-19655365D01*
X8710420Y-19655365D02*
X8719944Y-19636317D01*
X8719944Y-19636317D02*
X8738992Y-19626793D01*
X8738992Y-19626793D02*
X8786611Y-19626793D01*
X8786611Y-19626793D02*
X8805658Y-19617270D01*
X8872325Y-19569650D02*
X8948515Y-19569650D01*
X8900896Y-19502984D02*
X8900896Y-19674412D01*
X8900896Y-19674412D02*
X8910420Y-19693460D01*
X8910420Y-19693460D02*
X8929468Y-19702984D01*
X8929468Y-19702984D02*
X8948515Y-19702984D01*
X9091373Y-19693460D02*
X9072325Y-19702984D01*
X9072325Y-19702984D02*
X9034230Y-19702984D01*
X9034230Y-19702984D02*
X9015182Y-19693460D01*
X9015182Y-19693460D02*
X9005658Y-19674412D01*
X9005658Y-19674412D02*
X9005658Y-19598222D01*
X9005658Y-19598222D02*
X9015182Y-19579174D01*
X9015182Y-19579174D02*
X9034230Y-19569650D01*
X9034230Y-19569650D02*
X9072325Y-19569650D01*
X9072325Y-19569650D02*
X9091373Y-19579174D01*
X9091373Y-19579174D02*
X9100896Y-19598222D01*
X9100896Y-19598222D02*
X9100896Y-19617270D01*
X9100896Y-19617270D02*
X9005658Y-19636317D01*
X9272325Y-19702984D02*
X9272325Y-19502984D01*
X9272325Y-19693460D02*
X9253277Y-19702984D01*
X9253277Y-19702984D02*
X9215182Y-19702984D01*
X9215182Y-19702984D02*
X9196135Y-19693460D01*
X9196135Y-19693460D02*
X9186611Y-19683936D01*
X9186611Y-19683936D02*
X9177087Y-19664889D01*
X9177087Y-19664889D02*
X9177087Y-19607746D01*
X9177087Y-19607746D02*
X9186611Y-19588698D01*
X9186611Y-19588698D02*
X9196135Y-19579174D01*
X9196135Y-19579174D02*
X9215182Y-19569650D01*
X9215182Y-19569650D02*
X9253277Y-19569650D01*
X9253277Y-19569650D02*
X9272325Y-19579174D01*
X9348516Y-19779174D02*
X9358039Y-19769650D01*
X9358039Y-19769650D02*
X9377087Y-19741079D01*
X9377087Y-19741079D02*
X9386611Y-19722031D01*
X9386611Y-19722031D02*
X9396135Y-19693460D01*
X9396135Y-19693460D02*
X9405658Y-19645841D01*
X9405658Y-19645841D02*
X9405658Y-19607746D01*
X9405658Y-19607746D02*
X9396135Y-19560127D01*
X9396135Y-19560127D02*
X9386611Y-19531555D01*
X9386611Y-19531555D02*
X9377087Y-19512508D01*
X9377087Y-19512508D02*
X9358039Y-19483936D01*
X9358039Y-19483936D02*
X9348516Y-19474412D01*
M02*
