%TF.GenerationSoftware,KiCad,Pcbnew,9.0.1-rc2*%
%TF.CreationDate,2025-11-09T14:34:19-08:00*%
%TF.ProjectId,bsl_array_v1,62736c5f-6172-4726-9179-5f76312e6b69,2*%
%TF.SameCoordinates,Original*%
%TF.FileFunction,Drillmap*%
%TF.FilePolarity,Positive*%
%FSLAX45Y45*%
G04 Gerber Fmt 4.5, Leading zero omitted, Abs format (unit mm)*
G04 Created by KiCad (PCBNEW 9.0.1-rc2) date 2025-11-09 14:34:19*
%MOMM*%
%LPD*%
G01*
G04 APERTURE LIST*
%ADD10C,0.150000*%
%ADD11C,0.200000*%
G04 APERTURE END LIST*
D10*
X10900000Y-2800000D02*
G75*
G02*
X10800000Y-2700000I0J100000D01*
G01*
X7400000Y-1850000D02*
G75*
G02*
X7500000Y-1750000I100000J0D01*
G01*
X15200000Y-18700000D02*
X3000000Y-18700000D01*
X10900000Y-2800000D02*
X15200000Y-2800000D01*
X7400000Y-2700000D02*
X7400000Y-1850000D01*
X10700000Y-1750000D02*
G75*
G02*
X10800000Y-1850000I0J-100000D01*
G01*
X15600000Y-18300000D02*
G75*
G02*
X15200000Y-18700000I-400000J0D01*
G01*
X15600000Y-3200000D02*
X15600000Y-18300000D01*
X3000000Y-18700000D02*
G75*
G02*
X2600000Y-18300000I0J400000D01*
G01*
X15200000Y-2800000D02*
G75*
G02*
X15600000Y-3200000I0J-400000D01*
G01*
X7400000Y-2700000D02*
G75*
G02*
X7300000Y-2800000I-100000J0D01*
G01*
X7300000Y-2800000D02*
X3000000Y-2800000D01*
X7500000Y-1750000D02*
X10700000Y-1750000D01*
X2600000Y-3200000D02*
G75*
G02*
X3000000Y-2800000I400000J0D01*
G01*
X10800000Y-1850000D02*
X10800000Y-2700000D01*
X2600000Y-18300000D02*
X2600000Y-3200000D01*
D11*
X2853277Y-19018984D02*
X2853277Y-18818984D01*
X2853277Y-18818984D02*
X2900896Y-18818984D01*
X2900896Y-18818984D02*
X2929467Y-18828508D01*
X2929467Y-18828508D02*
X2948515Y-18847555D01*
X2948515Y-18847555D02*
X2958039Y-18866603D01*
X2958039Y-18866603D02*
X2967562Y-18904698D01*
X2967562Y-18904698D02*
X2967562Y-18933270D01*
X2967562Y-18933270D02*
X2958039Y-18971365D01*
X2958039Y-18971365D02*
X2948515Y-18990412D01*
X2948515Y-18990412D02*
X2929467Y-19009460D01*
X2929467Y-19009460D02*
X2900896Y-19018984D01*
X2900896Y-19018984D02*
X2853277Y-19018984D01*
X3053277Y-19018984D02*
X3053277Y-18885650D01*
X3053277Y-18923746D02*
X3062801Y-18904698D01*
X3062801Y-18904698D02*
X3072324Y-18895174D01*
X3072324Y-18895174D02*
X3091372Y-18885650D01*
X3091372Y-18885650D02*
X3110420Y-18885650D01*
X3177086Y-19018984D02*
X3177086Y-18885650D01*
X3177086Y-18818984D02*
X3167562Y-18828508D01*
X3167562Y-18828508D02*
X3177086Y-18838031D01*
X3177086Y-18838031D02*
X3186610Y-18828508D01*
X3186610Y-18828508D02*
X3177086Y-18818984D01*
X3177086Y-18818984D02*
X3177086Y-18838031D01*
X3300896Y-19018984D02*
X3281848Y-19009460D01*
X3281848Y-19009460D02*
X3272324Y-18990412D01*
X3272324Y-18990412D02*
X3272324Y-18818984D01*
X3405658Y-19018984D02*
X3386610Y-19009460D01*
X3386610Y-19009460D02*
X3377086Y-18990412D01*
X3377086Y-18990412D02*
X3377086Y-18818984D01*
X3634229Y-19018984D02*
X3634229Y-18818984D01*
X3634229Y-18818984D02*
X3700896Y-18961841D01*
X3700896Y-18961841D02*
X3767562Y-18818984D01*
X3767562Y-18818984D02*
X3767562Y-19018984D01*
X3948515Y-19018984D02*
X3948515Y-18914222D01*
X3948515Y-18914222D02*
X3938991Y-18895174D01*
X3938991Y-18895174D02*
X3919943Y-18885650D01*
X3919943Y-18885650D02*
X3881848Y-18885650D01*
X3881848Y-18885650D02*
X3862801Y-18895174D01*
X3948515Y-19009460D02*
X3929467Y-19018984D01*
X3929467Y-19018984D02*
X3881848Y-19018984D01*
X3881848Y-19018984D02*
X3862801Y-19009460D01*
X3862801Y-19009460D02*
X3853277Y-18990412D01*
X3853277Y-18990412D02*
X3853277Y-18971365D01*
X3853277Y-18971365D02*
X3862801Y-18952317D01*
X3862801Y-18952317D02*
X3881848Y-18942793D01*
X3881848Y-18942793D02*
X3929467Y-18942793D01*
X3929467Y-18942793D02*
X3948515Y-18933270D01*
X4043753Y-18885650D02*
X4043753Y-19085650D01*
X4043753Y-18895174D02*
X4062801Y-18885650D01*
X4062801Y-18885650D02*
X4100896Y-18885650D01*
X4100896Y-18885650D02*
X4119943Y-18895174D01*
X4119943Y-18895174D02*
X4129467Y-18904698D01*
X4129467Y-18904698D02*
X4138991Y-18923746D01*
X4138991Y-18923746D02*
X4138991Y-18980889D01*
X4138991Y-18980889D02*
X4129467Y-18999936D01*
X4129467Y-18999936D02*
X4119943Y-19009460D01*
X4119943Y-19009460D02*
X4100896Y-19018984D01*
X4100896Y-19018984D02*
X4062801Y-19018984D01*
X4062801Y-19018984D02*
X4043753Y-19009460D01*
X4224705Y-18999936D02*
X4234229Y-19009460D01*
X4234229Y-19009460D02*
X4224705Y-19018984D01*
X4224705Y-19018984D02*
X4215182Y-19009460D01*
X4215182Y-19009460D02*
X4224705Y-18999936D01*
X4224705Y-18999936D02*
X4224705Y-19018984D01*
X4224705Y-18895174D02*
X4234229Y-18904698D01*
X4234229Y-18904698D02*
X4224705Y-18914222D01*
X4224705Y-18914222D02*
X4215182Y-18904698D01*
X4215182Y-18904698D02*
X4224705Y-18895174D01*
X4224705Y-18895174D02*
X4224705Y-18914222D01*
M02*
