<?xml version="1.0" encoding="UTF-8" standalone="no"?>
<!DOCTYPE svg PUBLIC "-//W3C//DTD SVG 1.1//EN" "http://www.w3.org/Graphics/SVG/1.1/DTD/svg11.dtd">
<svg width="100%" height="100%" viewBox="0 0 1780 600" version="1.1" xmlns="http://www.w3.org/2000/svg" xmlns:xlink="http://www.w3.org/1999/xlink" xml:space="preserve" xmlns:serif="http://www.serif.com/" style="fill-rule:evenodd;clip-rule:evenodd;stroke-linecap:round;stroke-linejoin:round;stroke-miterlimit:10;">
    <g transform="matrix(2.606287,0,0,2.606287,-86.065649,-692.797026)">
        <path d="M391.9,472.5L627.2,472.5M627.2,473.4L627.2,472.5M627.2,473.4L391.9,473.4M391.9,472.5L391.9,473.4M391.9,301.3L389.7,301.3L388.6,301.4L387.6,301.6L386.5,301.9L385.5,302.3L383.7,303.5L383,304.4L382.4,305.3L382,306.4L381.7,307.4L381.6,308.5L381.5,309.6L381.4,310.7L381.4,311.8M381.4,311.8L380.6,311.8M380.6,311.8L380.6,309.4L381,307L381.8,304.8L383.1,302.9L384.9,301.6L387.1,300.8L389.5,300.5L391.9,300.5M391.9,301.3L391.9,300.5M627.2,300.5L629.6,300.5L632,300.8L634.2,301.6L636,302.9L637.3,304.8L638.1,307L638.5,309.4L638.5,311.8M638.5,311.8L637.7,311.8M637.7,311.8L637.7,310.7L637.6,309.6L637.4,307.4L637.1,306.4L636.7,305.4L635.4,303.5L634.6,302.8L633.6,302.3L632.6,301.9L631.5,301.6L630.5,301.4L629.4,301.3L627.2,301.3M627.2,300.5L627.2,301.3M381.4,311.8L381.4,462M381.4,462L380.6,462M380.6,462L380.6,311.8M630,461.5L630.9,461.6L631.7,461.9L632.3,462.4L632.9,463L633.3,463.8L633.4,464.6L633.4,465.5L633.1,466.3L632.6,467L632,467.6L631.3,468L630.4,468.2L629.6,468.2L628.8,468L628,467.6L627.4,467L626.9,466.3L626.7,465.5L626.6,464.6L626.8,463.8L627.1,463L627.7,462.4L628.4,461.9L629.2,461.6L630,461.5M630,305.6L630.9,305.7L631.7,306L632.3,306.5L632.9,307.1L633.3,307.9L633.4,308.7L633.4,309.6L633.1,310.4L632.6,311.1L632,311.7L631.3,312.1L630.4,312.3L629.6,312.3L628.8,312.1L628,311.7L627.4,311.1L626.9,310.4L626.7,309.6L626.6,308.7L626.8,307.9L627.1,307.1L627.7,306.5L628.4,306L629.2,305.7L630,305.6M409.3,458.8L409.3,315M419.2,468.7L417.6,468.6L416.1,468.2L414.7,467.6L413.4,466.8L412.2,465.8L411.2,464.6L410.4,463.3L409.8,461.9L409.5,460.4L409.3,458.8M599.9,468.7L419.2,468.7M609.8,458.8L609.6,460.4L609.3,461.9L608.7,463.3L607.9,464.6L606.9,465.8L605.7,466.8L604.4,467.6L602.9,468.2L601.4,468.6L599.9,468.7M609.8,315L609.8,458.8M599.9,305.1L601.4,305.2L602.9,305.6L604.4,306.2L605.7,307L606.9,308L607.9,309.2L608.7,310.5L609.3,311.9L609.6,313.4L609.8,315M419.2,305.1L599.9,305.1M409.3,315L409.5,313.4L409.8,311.9L410.4,310.5L411.2,309.2L412.2,308L413.4,307L414.7,306.2L416.1,305.6L417.6,305.2L419.2,305.1M389.1,461.5L389.9,461.6L390.7,461.9L391.4,462.4L391.9,463L392.3,463.8L392.5,464.6L392.4,465.5L392.2,466.3L391.7,467L391.1,467.6L390.3,468L389.5,468.2L388.6,468.2L387.8,468L387.1,467.6L386.5,467L386,466.3L385.7,465.5L385.7,464.6L385.8,463.8L386.2,463L386.7,462.4L387.4,461.9L388.2,461.6L389.1,461.5M389.1,305.6L389.9,305.7L390.7,306L391.4,306.5L391.9,307.1L392.3,307.9L392.5,308.7L392.4,309.6L392.2,310.4L391.7,311.1L391.1,311.7L390.3,312.1L389.5,312.3L388.6,312.3L387.8,312.1L387.1,311.7L386.5,311.1L386,310.4L385.7,309.6L385.7,308.7L385.8,307.9L386.2,307.1L386.7,306.5L387.4,306L388.2,305.7L389.1,305.6M627.2,301.3L391.9,301.3M637.7,462L637.7,311.8M627.2,472.5L629.4,472.5L630.5,472.4L631.5,472.2L632.6,471.9L633.6,471.5L635.4,470.3L636.1,469.4L636.7,468.5L637.1,467.4L637.4,466.4L637.6,464.2L637.7,463.1L637.7,462M381.4,462L381.4,463.1L381.5,464.2L381.6,465.3L381.7,466.4L382,467.4L382.4,468.5L383.7,470.3L384.5,471L385.5,471.5L386.5,471.9L387.6,472.2L388.6,472.4L389.7,472.5L391.9,472.5M391.9,300.5L627.2,300.5M638.5,462L638.5,464.4L638.1,466.8L637.3,469.1L636,470.9L634.2,472.2L632,473L629.6,473.3L627.2,473.4M638.5,462L637.7,462M638.5,311.8L638.5,462M391.9,473.4L389.5,473.3L387.1,473L384.9,472.2L383.1,470.9L381.8,469.1L381,466.8L380.6,464.4L380.6,462M601.3,458.8L609.8,458.8M599.9,468.7L599.9,460.3M599.9,460.3L600.2,460.2L600.4,460.1L600.7,460L600.9,459.8L601.1,459.6L601.2,459.4L601.3,459.1L601.3,458.8M609.8,315L601.3,315M601.3,315L601.3,314.7L601.2,314.4L601.1,314.2L600.9,314L600.7,313.8L600.4,313.7L600.2,313.6L599.9,313.6M599.9,313.6L599.9,305.1M409.3,458.8L417.8,458.8M417.8,458.8L417.8,459.1L417.9,459.4L418,459.6L418.2,459.8L418.4,460L418.6,460.1L418.9,460.2L419.2,460.3M419.2,460.3L419.2,468.7M601.3,315L601.3,458.8M419.2,313.6L599.9,313.6M419.2,305.1L419.2,313.6M419.2,313.6L418.9,313.6L418.6,313.7L418.4,313.8L418.2,314L418,314.2L417.9,314.4L417.8,314.7L417.8,315M417.8,315L409.3,315M599.9,460.3L419.2,460.3M417.8,458.8L417.8,315" style="fill:none;fill-rule:nonzero;stroke:black;stroke-width:0.69px;"/>
    </g>
    <g transform="matrix(2.606287,0,0,2.606287,-86.065649,-692.797026)">
        <path d="M680.5,454.9L680.6,456.3L680.9,457.1L681.3,457.7L681.4,457.8M680.5,454.9L681.4,454.9M681.4,454.9L686.2,454.9M686.2,458.5L686.2,454.9M686.2,458.5L681.4,458.5M680.5,462L680.5,454.9M681.4,457.8L681.4,462M680.5,462L681.4,462M681.4,318.9L680.5,318.9M681.4,316L681,316.6L680.7,317.3L680.5,318.5L680.5,318.9M681.4,315.3L686.2,315.3M686.2,318.9L686.2,315.3M686.2,318.9L681.4,318.9M680.5,318.9L680.5,311.8M680.5,311.8L681.4,311.8M681.4,311.8L681.4,316M678,311.8L678,462M680.5,311.8L678,311.8M686.2,454.9L686.2,318.9M678,462L680.5,462M680.5,473.4L680.5,462M681.4,462L681.4,472.5M680.5,473.4L681.4,472.5M680.5,311.8L680.5,300.5M680.5,300.5L681.4,301.3M681.4,301.3L681.4,311.8M678,462L678,473.4M680.5,473.4L678,473.4M678,300.5L678,311.8M678,300.5L680.5,300.5M678,473.4L677.1,472.5M677.1,472.5L677.1,462M678,462L677.1,462M677.1,462L677.1,311.8M678,311.8L677.1,311.8M677.1,311.8L677.1,301.3M678,300.5L677.1,301.3M687.1,318.9L687.1,454.9M687.1,454.9L686.2,454.9M687.1,318.9L686.2,318.9M687.1,454.9L687.1,457.6M687.1,457.6L686.2,458.5M687.1,316.2L687.1,318.9M687.1,316.2L686.2,315.3M687.1,464.9L686.2,464.9M686.2,464.9L686.2,458.5M687.1,457.6L687.1,464.9M686.2,315.3L686.2,309M687.1,309L686.2,309M687.1,309L687.1,316.2M681.4,309L686.2,309M681.4,464.9L686.2,464.9M687.1,304L686.2,304M686.2,304L686.2,300.5M687.1,301.3L686.2,300.5M687.1,301.3L687.1,304M686.2,309L686.2,304M687.1,304L687.1,309M686.2,304L681.4,304M681.4,300.5L686.2,300.5M680.5,300.5L681.4,300.5M687.1,472.5L686.2,473.4M686.2,473.4L686.2,469.8M687.1,469.8L686.2,469.8M687.1,469.8L687.1,472.5M686.2,469.8L686.2,464.9M687.1,464.9L687.1,469.8M681.4,469.8L686.2,469.8M681.4,473.4L680.5,473.4M686.2,473.4L681.4,473.4M687.1,312.7L687.2,312.6L687.7,312.6M687.7,312.6L687.8,315M687,315L687.8,315M687,458.8L687.8,458.8M687.8,458.8L687.7,461.2M687.1,461.1L687.2,461.2L687.7,461.2M687.8,315L687.8,458.8M687.7,461.2L687.2,462.5L687.1,462.7M687.1,311.1L687.2,311.4L687.7,312.6M687.7,461.2L689.2,460.5M689.2,460.5L689.2,463.1M689.2,463.1L687.7,463.8M687.7,310L689.2,310.7M689.2,310.7L689.2,313.3M689.2,313.3L687.7,312.6M689.2,460.5L689.2,313.3M687.1,464.7L687.1,464.5L687.3,464.1L687.5,463.9L687.8,463.7M687.8,310.1L687.5,309.9L687.3,309.7L687.1,309.3L687.1,309.1M687.1,463.8L687.7,463.8M687.7,310L687.1,310M687.7,310L687.5,309.9L687.2,309.7L687.1,309.4M687.1,464.4L687.2,464.1L687.5,463.9L687.7,463.8" style="fill:none;fill-rule:nonzero;stroke:black;stroke-width:0.69px;"/>
    </g>
    <g transform="matrix(2.606287,0,0,2.606287,-86.065649,-684.978192)">
        <path d="M331.9,414.6L331.9,410.6M340,403.9L340,401.8M50.5,375.9L50.5,379.9M42.4,367.1L42.4,369.2M229.3,467.8L227.6,468.7L225.6,469.6L223.5,470.1L221.3,470.3L219.1,470.1L216.9,469.6L215,468.7L213.3,467.8M213.3,467.8L213.9,466.7M213.9,466.7L214.6,467.2L215.4,467.6L216.3,468L217.2,468.4L218.1,468.7L219.1,468.9L221.3,469.2L222.4,469.1L224.4,468.7L225.4,468.4L226.3,468L227.1,467.6L227.9,467.2L228.7,466.7M229.3,467.8L228.7,466.7M229.3,467.8L229.3,469.8M213.3,469.8L215,470.8L216.9,471.6L219.1,472.2L221.3,472.4L223.5,472.2L225.6,471.6L227.6,470.8L229.3,469.8M213.3,469.8L213.3,467.8M223.7,463.4L224.2,463.7L224.5,464.2L224.7,464.7L224.6,465.2L224.3,465.6L223.8,466L223.2,466.4L222.4,466.6L221.6,466.7L220.7,466.7L219.9,466.5L219.2,466.3L218.6,465.9L218.2,465.5L217.9,465.1L217.9,464.6L218.1,464.1L218.5,463.6L219,463.3L219.7,463L220.5,462.8L221.4,462.8L222.2,462.9L223,463.1L223.7,463.4M333.9,399.7L334.4,400.1L334.8,400.6L334.9,401L334.8,401.5L334.5,402L334.1,402.4L333.4,402.7L332.7,403L331.8,403.1L331,403L330.2,402.9L329.4,402.7L328.8,402.3L328.4,401.9L328.2,401.4L328.1,400.9L328.3,400.4L328.7,400L329.3,399.6L330,399.4L330.8,399.2L331.6,399.1L332.5,399.2L333.2,399.4L333.9,399.7M69.5,372.2L171.2,313.5M69.5,380.2L68.5,379.6L67.7,378.8L67.1,378L66.7,377.1L66.6,376.2L66.7,375.3L67.1,374.5L67.7,373.6L68.5,372.9L69.5,372.2M197.3,454L69.5,380.2M211.2,454L210,454.6L208.7,455.1L207.3,455.4L205.8,455.6L204.2,455.7L202.7,455.6L201.2,455.4L199.8,455.1L198.4,454.6L197.3,454M312.9,395.3L211.2,454M312.9,387.2L313.9,387.9L314.7,388.7L315.3,389.5L315.7,390.4L315.8,391.3L315.7,392.2L315.3,393L314.7,393.9L313.9,394.6L312.9,395.3M185.1,313.5L312.9,387.2M171.2,313.5L172.4,312.9L173.7,312.4L175.1,312.1L176.6,311.9L178.2,311.8L179.7,311.9L181.2,312.1L182.7,312.4L184,312.9L185.1,313.5M53.3,365L53.8,365.4L54.2,365.8L54.3,366.3L54.2,366.8L53.9,367.3L53.5,367.7L52.8,368L52.1,368.2L51.2,368.3L50.4,368.3L49.5,368.2L48.8,367.9L48.2,367.6L47.8,367.2L47.5,366.7L47.5,366.2L47.7,365.7L48.1,365.3L48.7,364.9L49.4,364.6L50.2,364.5L51,364.4L51.8,364.5L52.6,364.7L53.3,365M163.5,301.4L164.1,301.7L164.4,302.2L164.5,302.7L164.5,303.2L164.2,303.6L163.7,304L163.1,304.4L162.3,304.6L161.5,304.7L160.6,304.7L159.8,304.6L159.1,304.3L158.5,304L158,303.5L157.8,303.1L157.8,302.6L157.9,302.1L158.3,301.6L158.9,301.3L159.6,301L160.4,300.8L161.2,300.8L162.1,300.9L162.9,301.1L163.5,301.4M153.7,300.8L47.5,362.1M168.6,300.8L167.8,300.3L167,299.9L166.1,299.5L165.3,299.1L164.3,298.8L163.3,298.6L161.1,298.3L160.1,298.4L159,298.6L158,298.8L157,299.1L156.1,299.5L155.3,299.9L154.5,300.3L153.7,300.8M334.9,396.8L168.6,300.8M334.9,405.4L335.7,404.9L336.4,404.5L337.1,404L337.8,403.5L338.3,402.9L338.8,402.4L339.2,401.1L339.1,400.5L338.8,399.9L338.3,399.3L337.8,398.7L337.1,398.2L336.4,397.7L335.7,397.3L334.9,396.8M228.7,466.7L334.9,405.4M47.5,370.7L213.9,466.7M47.5,362.1L46.7,362.6L46,363L45.3,363.5L44.6,364L44.1,364.6L43.6,365.1L43.2,366.4L43.3,367L43.6,367.6L44.1,368.2L44.6,368.8L45.3,369.3L46,369.8L46.7,370.2L47.5,370.7M229.3,469.8L228.7,470.2M228.7,470.2L227.9,470.6L227.1,471.1L226.3,471.5L225.4,471.8L224.4,472.2L223.4,472.4L221.3,472.6L220.2,472.6L219.1,472.4L218.1,472.2L217.2,471.8L216.3,471.5L215.4,471.1L214.6,470.6L213.9,470.2M213.3,469.8L213.9,470.2M219.7,466.5L220.5,466.3L222.2,466.3L222.9,466.5M213.3,467.8L46.9,371.7M47.5,370.7L46.9,371.7M335.5,406.4L229.3,467.8M335.5,406.4L334.9,405.4M335.5,408.5L335.5,406.4M330.5,411.4L335.5,408.5M330.5,412.1L330.5,411.4M330.5,416L330.5,412.1M234.3,471.6L330.5,416M234.3,467.6L234.3,471.6M234.3,466.9L234.3,467.6M229.3,469.8L234.3,466.9M208.2,466.9L213.3,469.8M208.2,467.6L208.2,466.9M208.2,471.6L208.2,467.6M51.9,381.3L208.2,471.6M51.9,377.4L51.9,381.3M51.9,376.7L51.9,377.4M46.9,373.8L51.9,376.7M46.9,371.7L46.9,373.8M234.3,466.9L233.3,467.5L232.6,467.9L231.8,468.4L231.7,468.4M231.7,468.4L228.7,470.2M210.9,468.4L210.2,468L209.4,467.6L208.5,467.1L208.2,466.9M213.9,470.2L210.9,468.4M229.3,471.6L230.4,472.1L231.1,472.3L231.8,472.4L232.5,472.3L233.2,472.1L234.3,471.6M208.2,471.6L209.4,472.1L210.1,472.3L210.8,472.4L211.4,472.3L212.1,472.1L213.3,471.6M227.8,470.7L229.3,471.6M213.3,471.6L214.8,470.7M229.9,471.9L229.3,471.6M233.7,471.9L234.3,471.6M233.7,471.9L232.8,472.4L232.4,472.5L231.8,472.6L231.2,472.5L230.7,472.4L229.9,471.9M208.8,471.9L208.2,471.6M212.7,471.9L213.3,471.6M212.7,471.9L211.8,472.4L211.3,472.5L210.7,472.6L210.2,472.5L209.7,472.4L208.8,471.9M51.9,381.3L52.5,381.7M208.8,471.9L52.5,381.7M329.9,416.4L330.5,416M329.9,416.4L233.7,471.9M229.9,471.9L227.8,470.7M214.8,470.7L212.7,471.9M335.5,408.5L334.9,408.9M334.9,408.9L331.9,410.6M331.9,410.6L331.8,410.6L331.5,410.8L330.8,411.2L330.5,411.4M330.5,416L331.5,415.4L331.8,415L331.9,414.6M335.5,397.2L337.2,398.2L338.6,399.3L339.7,400.5L340,401.8L339.7,403.1L338.6,404.3L337.2,405.4L335.5,406.4M335.5,397.2L334.9,396.8M335.5,408.5L337.2,407.5L338.6,406.4L339.7,405.2L340,403.9M329.9,402.8L330,402.8L330.8,402.7L331.6,402.6L332.5,402.7L333.1,402.8M331.6,403L331.8,402.8L331.9,402.6M185.1,313.5L179.2,326.8M179.2,326.8L305.4,399.6M177.2,326.8L171.2,313.5M77,384.6L177.2,326.8M51.9,376.7L51,376.2L50.6,376L50.5,375.9M50.5,379.9L50.6,380.3L50.9,380.7L51.9,381.3M50.5,375.9L47.5,374.1M46.9,373.8L47.5,374.1M46.9,371.7L45.2,370.7L43.8,369.6L42.8,368.4L42.4,367.1L42.8,365.8L43.8,364.6L45.2,363.5L46.9,362.5M47.5,362.1L46.9,362.5M42.4,369.2L42.8,370.4L43.8,371.7L45.2,372.8L46.9,373.8M49.3,368.1L49.4,368.1L50.2,367.9L51,367.9L51.8,368L52.5,368.1M50.6,367.9L50.6,368.1L50.8,368.3M179.2,326.8L179,326.7L178.7,326.6L178.5,326.5L177.9,326.5L177.6,326.6L177.4,326.7L177.2,326.8M159.6,304.5L160.4,304.3L162.1,304.3L162.7,304.5M229.3,471.6L229.3,469.8M213.3,469.8L213.3,471.6M330.5,402.9L330.5,402.7M308,398.1L312.9,387.2M69.5,372.2L74.4,383.1M51.9,368L51.9,368.2" style="fill:none;fill-rule:nonzero;stroke:black;stroke-width:0.69px;"/>
    </g>
    <g transform="matrix(2.606287,0,0,2.606287,-86.065649,-270.839208)">
        <g transform="matrix(9.925927,0,0,9.92126,498.162855,126.17145)">
            <path d="M0.172,-0.696C0.177,-0.699 0.182,-0.7 0.189,-0.7L0.238,-0.7C0.247,-0.7 0.251,-0.696 0.251,-0.687L0.251,-0.013C0.251,-0.004 0.247,-0 0.238,-0L0.193,-0C0.184,-0 0.18,-0.004 0.18,-0.013L0.18,-0.622C0.18,-0.624 0.179,-0.625 0.178,-0.626C0.177,-0.627 0.176,-0.627 0.174,-0.626L0.069,-0.582C0.068,-0.581 0.066,-0.581 0.063,-0.581C0.057,-0.581 0.054,-0.585 0.054,-0.592L0.054,-0.623C0.054,-0.63 0.057,-0.635 0.063,-0.638L0.172,-0.696Z" style="fill:rgb(128,128,128);fill-rule:nonzero;"/>
        </g>
        <g transform="matrix(9.925927,0,0,9.92126,501.577374,126.17145)">
            <path d="M0.155,-0C0.15,-0 0.147,-0.001 0.145,-0.004C0.144,-0.007 0.144,-0.01 0.145,-0.015L0.374,-0.632C0.375,-0.636 0.374,-0.638 0.37,-0.638L0.102,-0.638C0.099,-0.638 0.097,-0.636 0.097,-0.633L0.097,-0.591C0.097,-0.582 0.093,-0.578 0.084,-0.578L0.049,-0.578C0.04,-0.578 0.036,-0.582 0.036,-0.591L0.037,-0.687C0.037,-0.696 0.041,-0.7 0.05,-0.7L0.438,-0.7C0.447,-0.7 0.451,-0.696 0.451,-0.687L0.451,-0.646C0.451,-0.641 0.45,-0.635 0.448,-0.63L0.22,-0.01C0.218,-0.003 0.213,-0 0.205,-0L0.155,-0Z" style="fill:rgb(128,128,128);fill-rule:nonzero;"/>
        </g>
        <g transform="matrix(9.925927,0,0,9.92126,506.272338,126.17145)">
            <path d="M0.281,0.01C0.217,0.01 0.166,-0.008 0.128,-0.045C0.09,-0.082 0.071,-0.131 0.071,-0.192L0.071,-0.508C0.071,-0.569 0.09,-0.618 0.128,-0.654C0.166,-0.691 0.217,-0.709 0.281,-0.709C0.346,-0.709 0.397,-0.691 0.436,-0.654C0.475,-0.617 0.494,-0.569 0.494,-0.508L0.494,-0.192C0.494,-0.131 0.475,-0.082 0.436,-0.045C0.397,-0.008 0.346,0.01 0.281,0.01ZM0.281,-0.052C0.324,-0.052 0.358,-0.064 0.384,-0.089C0.41,-0.114 0.423,-0.147 0.423,-0.188L0.423,-0.511C0.423,-0.552 0.41,-0.584 0.385,-0.609C0.359,-0.634 0.324,-0.646 0.281,-0.646C0.239,-0.646 0.205,-0.634 0.18,-0.609C0.155,-0.584 0.142,-0.552 0.142,-0.511L0.142,-0.188C0.142,-0.147 0.155,-0.114 0.18,-0.089C0.205,-0.064 0.239,-0.052 0.281,-0.052Z" style="fill:rgb(128,128,128);fill-rule:nonzero;"/>
        </g>
        <g transform="matrix(9.925927,0,0,9.92126,511.880486,126.17145)">
            <path d="M0.135,-0.003C0.117,-0.003 0.102,-0.009 0.09,-0.02C0.079,-0.031 0.073,-0.045 0.073,-0.062C0.073,-0.078 0.079,-0.092 0.091,-0.104C0.104,-0.115 0.118,-0.121 0.135,-0.121C0.151,-0.121 0.165,-0.115 0.178,-0.104C0.191,-0.092 0.197,-0.078 0.197,-0.062C0.197,-0.045 0.191,-0.031 0.179,-0.02C0.167,-0.009 0.152,-0.003 0.135,-0.003Z" style="fill:rgb(128,128,128);fill-rule:nonzero;"/>
        </g>
        <g transform="matrix(9.925927,0,0,9.92126,514.60019,126.17145)">
            <path d="M0.281,0.01C0.217,0.01 0.166,-0.008 0.128,-0.045C0.09,-0.082 0.071,-0.131 0.071,-0.192L0.071,-0.508C0.071,-0.569 0.09,-0.618 0.128,-0.654C0.166,-0.691 0.217,-0.709 0.281,-0.709C0.346,-0.709 0.397,-0.691 0.436,-0.654C0.475,-0.617 0.494,-0.569 0.494,-0.508L0.494,-0.192C0.494,-0.131 0.475,-0.082 0.436,-0.045C0.397,-0.008 0.346,0.01 0.281,0.01ZM0.281,-0.052C0.324,-0.052 0.358,-0.064 0.384,-0.089C0.41,-0.114 0.423,-0.147 0.423,-0.188L0.423,-0.511C0.423,-0.552 0.41,-0.584 0.385,-0.609C0.359,-0.634 0.324,-0.646 0.281,-0.646C0.239,-0.646 0.205,-0.634 0.18,-0.609C0.155,-0.584 0.142,-0.552 0.142,-0.511L0.142,-0.188C0.142,-0.147 0.155,-0.114 0.18,-0.089C0.205,-0.064 0.239,-0.052 0.281,-0.052Z" style="fill:rgb(128,128,128);fill-rule:nonzero;"/>
        </g>
        <g transform="matrix(9.925927,0,0,9.92126,520.208339,126.17145)">
            <path d="M0.281,0.01C0.217,0.01 0.166,-0.008 0.128,-0.045C0.09,-0.082 0.071,-0.131 0.071,-0.192L0.071,-0.508C0.071,-0.569 0.09,-0.618 0.128,-0.654C0.166,-0.691 0.217,-0.709 0.281,-0.709C0.346,-0.709 0.397,-0.691 0.436,-0.654C0.475,-0.617 0.494,-0.569 0.494,-0.508L0.494,-0.192C0.494,-0.131 0.475,-0.082 0.436,-0.045C0.397,-0.008 0.346,0.01 0.281,0.01ZM0.281,-0.052C0.324,-0.052 0.358,-0.064 0.384,-0.089C0.41,-0.114 0.423,-0.147 0.423,-0.188L0.423,-0.511C0.423,-0.552 0.41,-0.584 0.385,-0.609C0.359,-0.634 0.324,-0.646 0.281,-0.646C0.239,-0.646 0.205,-0.634 0.18,-0.609C0.155,-0.584 0.142,-0.552 0.142,-0.511L0.142,-0.188C0.142,-0.147 0.155,-0.114 0.18,-0.089C0.205,-0.064 0.239,-0.052 0.281,-0.052Z" style="fill:rgb(128,128,128);fill-rule:nonzero;"/>
        </g>
    </g>
    <g transform="matrix(0,-2.606287,2.606287,0,-86.065649,-270.839208)">
        <g transform="matrix(9.925584,0,0,9.92126,-242.325183,368.32861)">
            <path d="M0.172,-0.696C0.177,-0.699 0.182,-0.7 0.189,-0.7L0.238,-0.7C0.247,-0.7 0.251,-0.696 0.251,-0.687L0.251,-0.013C0.251,-0.004 0.247,-0 0.238,-0L0.193,-0C0.184,-0 0.18,-0.004 0.18,-0.013L0.18,-0.622C0.18,-0.624 0.179,-0.625 0.178,-0.626C0.177,-0.627 0.176,-0.627 0.174,-0.626L0.069,-0.582C0.068,-0.581 0.066,-0.581 0.063,-0.581C0.057,-0.581 0.054,-0.585 0.054,-0.592L0.054,-0.623C0.054,-0.63 0.057,-0.635 0.063,-0.638L0.172,-0.696Z" style="fill:rgb(128,128,128);fill-rule:nonzero;"/>
        </g>
        <g transform="matrix(9.925584,0,0,9.92126,-238.910782,368.32861)">
            <path d="M0.172,-0.696C0.177,-0.699 0.182,-0.7 0.189,-0.7L0.238,-0.7C0.247,-0.7 0.251,-0.696 0.251,-0.687L0.251,-0.013C0.251,-0.004 0.247,-0 0.238,-0L0.193,-0C0.184,-0 0.18,-0.004 0.18,-0.013L0.18,-0.622C0.18,-0.624 0.179,-0.625 0.178,-0.626C0.177,-0.627 0.176,-0.627 0.174,-0.626L0.069,-0.582C0.068,-0.581 0.066,-0.581 0.063,-0.581C0.057,-0.581 0.054,-0.585 0.054,-0.592L0.054,-0.623C0.054,-0.63 0.057,-0.635 0.063,-0.638L0.172,-0.696Z" style="fill:rgb(128,128,128);fill-rule:nonzero;"/>
        </g>
        <g transform="matrix(9.925584,0,0,9.92126,-235.496382,368.32861)">
            <path d="M0.281,0.01C0.217,0.01 0.166,-0.008 0.128,-0.045C0.09,-0.082 0.071,-0.131 0.071,-0.192L0.071,-0.508C0.071,-0.569 0.09,-0.618 0.128,-0.654C0.166,-0.691 0.217,-0.709 0.281,-0.709C0.346,-0.709 0.397,-0.691 0.436,-0.654C0.475,-0.617 0.494,-0.569 0.494,-0.508L0.494,-0.192C0.494,-0.131 0.475,-0.082 0.436,-0.045C0.397,-0.008 0.346,0.01 0.281,0.01ZM0.281,-0.052C0.324,-0.052 0.358,-0.064 0.384,-0.089C0.41,-0.114 0.423,-0.147 0.423,-0.188L0.423,-0.511C0.423,-0.552 0.41,-0.584 0.385,-0.609C0.359,-0.634 0.324,-0.646 0.281,-0.646C0.239,-0.646 0.205,-0.634 0.18,-0.609C0.155,-0.584 0.142,-0.552 0.142,-0.511L0.142,-0.188C0.142,-0.147 0.155,-0.114 0.18,-0.089C0.205,-0.064 0.239,-0.052 0.281,-0.052Z" style="fill:rgb(128,128,128);fill-rule:nonzero;"/>
        </g>
        <g transform="matrix(9.925584,0,0,9.92126,-229.888427,368.32861)">
            <path d="M0.135,-0.003C0.117,-0.003 0.102,-0.009 0.09,-0.02C0.079,-0.031 0.073,-0.045 0.073,-0.062C0.073,-0.078 0.079,-0.092 0.091,-0.104C0.104,-0.115 0.118,-0.121 0.135,-0.121C0.151,-0.121 0.165,-0.115 0.178,-0.104C0.191,-0.092 0.197,-0.078 0.197,-0.062C0.197,-0.045 0.191,-0.031 0.179,-0.02C0.167,-0.009 0.152,-0.003 0.135,-0.003Z" style="fill:rgb(128,128,128);fill-rule:nonzero;"/>
        </g>
        <g transform="matrix(9.925584,0,0,9.92126,-227.168817,368.32861)">
            <path d="M0.281,0.01C0.217,0.01 0.166,-0.008 0.128,-0.045C0.09,-0.082 0.071,-0.131 0.071,-0.192L0.071,-0.508C0.071,-0.569 0.09,-0.618 0.128,-0.654C0.166,-0.691 0.217,-0.709 0.281,-0.709C0.346,-0.709 0.397,-0.691 0.436,-0.654C0.475,-0.617 0.494,-0.569 0.494,-0.508L0.494,-0.192C0.494,-0.131 0.475,-0.082 0.436,-0.045C0.397,-0.008 0.346,0.01 0.281,0.01ZM0.281,-0.052C0.324,-0.052 0.358,-0.064 0.384,-0.089C0.41,-0.114 0.423,-0.147 0.423,-0.188L0.423,-0.511C0.423,-0.552 0.41,-0.584 0.385,-0.609C0.359,-0.634 0.324,-0.646 0.281,-0.646C0.239,-0.646 0.205,-0.634 0.18,-0.609C0.155,-0.584 0.142,-0.552 0.142,-0.511L0.142,-0.188C0.142,-0.147 0.155,-0.114 0.18,-0.089C0.205,-0.064 0.239,-0.052 0.281,-0.052Z" style="fill:rgb(128,128,128);fill-rule:nonzero;"/>
        </g>
        <g transform="matrix(9.925584,0,0,9.92126,-221.560862,368.32861)">
            <path d="M0.281,0.01C0.217,0.01 0.166,-0.008 0.128,-0.045C0.09,-0.082 0.071,-0.131 0.071,-0.192L0.071,-0.508C0.071,-0.569 0.09,-0.618 0.128,-0.654C0.166,-0.691 0.217,-0.709 0.281,-0.709C0.346,-0.709 0.397,-0.691 0.436,-0.654C0.475,-0.617 0.494,-0.569 0.494,-0.508L0.494,-0.192C0.494,-0.131 0.475,-0.082 0.436,-0.045C0.397,-0.008 0.346,0.01 0.281,0.01ZM0.281,-0.052C0.324,-0.052 0.358,-0.064 0.384,-0.089C0.41,-0.114 0.423,-0.147 0.423,-0.188L0.423,-0.511C0.423,-0.552 0.41,-0.584 0.385,-0.609C0.359,-0.634 0.324,-0.646 0.281,-0.646C0.239,-0.646 0.205,-0.634 0.18,-0.609C0.155,-0.584 0.142,-0.552 0.142,-0.511L0.142,-0.188C0.142,-0.147 0.155,-0.114 0.18,-0.089C0.205,-0.064 0.239,-0.052 0.281,-0.052Z" style="fill:rgb(128,128,128);fill-rule:nonzero;"/>
        </g>
    </g>
    <g transform="matrix(0,-2.606287,2.606287,0,-86.065649,-270.839208)">
        <g transform="matrix(9.924896,0,0,9.92126,-242.924763,576.829941)">
            <path d="M0.172,-0.696C0.177,-0.699 0.182,-0.7 0.189,-0.7L0.238,-0.7C0.247,-0.7 0.251,-0.696 0.251,-0.687L0.251,-0.013C0.251,-0.004 0.247,-0 0.238,-0L0.193,-0C0.184,-0 0.18,-0.004 0.18,-0.013L0.18,-0.622C0.18,-0.624 0.179,-0.625 0.178,-0.626C0.177,-0.627 0.176,-0.627 0.174,-0.626L0.069,-0.582C0.068,-0.581 0.066,-0.581 0.063,-0.581C0.057,-0.581 0.054,-0.585 0.054,-0.592L0.054,-0.623C0.054,-0.63 0.057,-0.635 0.063,-0.638L0.172,-0.696Z" style="fill:rgb(128,128,128);fill-rule:nonzero;"/>
        </g>
        <g transform="matrix(9.924896,0,0,9.92126,-239.510599,576.829941)">
            <path d="M0.281,0.01C0.217,0.01 0.166,-0.008 0.128,-0.045C0.09,-0.082 0.071,-0.131 0.071,-0.192L0.071,-0.508C0.071,-0.569 0.09,-0.618 0.128,-0.654C0.166,-0.691 0.217,-0.709 0.281,-0.709C0.346,-0.709 0.397,-0.691 0.436,-0.654C0.475,-0.617 0.494,-0.569 0.494,-0.508L0.494,-0.192C0.494,-0.131 0.475,-0.082 0.436,-0.045C0.397,-0.008 0.346,0.01 0.281,0.01ZM0.281,-0.052C0.324,-0.052 0.358,-0.064 0.384,-0.089C0.41,-0.114 0.423,-0.147 0.423,-0.188L0.423,-0.511C0.423,-0.552 0.41,-0.584 0.385,-0.609C0.359,-0.634 0.324,-0.646 0.281,-0.646C0.239,-0.646 0.205,-0.634 0.18,-0.609C0.155,-0.584 0.142,-0.552 0.142,-0.511L0.142,-0.188C0.142,-0.147 0.155,-0.114 0.18,-0.089C0.205,-0.064 0.239,-0.052 0.281,-0.052Z" style="fill:rgb(128,128,128);fill-rule:nonzero;"/>
        </g>
        <g transform="matrix(9.924896,0,0,9.92126,-233.903033,576.829941)">
            <path d="M0.43,-0.331C0.443,-0.298 0.45,-0.259 0.45,-0.214C0.45,-0.18 0.445,-0.148 0.435,-0.118C0.422,-0.077 0.399,-0.046 0.367,-0.025C0.336,-0.003 0.297,0.008 0.25,0.008C0.203,0.008 0.162,-0.004 0.129,-0.029C0.096,-0.054 0.073,-0.086 0.061,-0.127C0.055,-0.148 0.051,-0.172 0.05,-0.2C0.05,-0.209 0.054,-0.213 0.063,-0.213L0.109,-0.213C0.118,-0.213 0.122,-0.209 0.122,-0.2C0.123,-0.177 0.125,-0.16 0.128,-0.149C0.135,-0.12 0.15,-0.097 0.171,-0.08C0.192,-0.063 0.219,-0.054 0.25,-0.054C0.279,-0.054 0.303,-0.061 0.323,-0.074C0.342,-0.088 0.356,-0.108 0.365,-0.133C0.374,-0.158 0.379,-0.185 0.379,-0.216C0.379,-0.255 0.373,-0.288 0.361,-0.314C0.342,-0.362 0.305,-0.386 0.249,-0.386C0.238,-0.386 0.228,-0.384 0.217,-0.38C0.213,-0.379 0.211,-0.378 0.21,-0.378C0.206,-0.378 0.203,-0.38 0.2,-0.384L0.178,-0.41C0.175,-0.414 0.174,-0.417 0.174,-0.419C0.174,-0.421 0.175,-0.424 0.178,-0.428L0.352,-0.632C0.355,-0.636 0.354,-0.638 0.349,-0.638L0.069,-0.638C0.06,-0.638 0.056,-0.642 0.056,-0.651L0.056,-0.687C0.056,-0.696 0.06,-0.7 0.069,-0.7L0.433,-0.7C0.442,-0.7 0.446,-0.696 0.446,-0.687L0.446,-0.647C0.446,-0.642 0.444,-0.636 0.44,-0.631L0.279,-0.438C0.278,-0.437 0.277,-0.435 0.278,-0.434C0.279,-0.433 0.28,-0.432 0.283,-0.432C0.356,-0.427 0.405,-0.394 0.43,-0.331Z" style="fill:rgb(128,128,128);fill-rule:nonzero;"/>
        </g>
        <g transform="matrix(9.924896,0,0,9.92126,-228.781786,576.829941)">
            <path d="M0.135,-0.003C0.117,-0.003 0.102,-0.009 0.09,-0.02C0.079,-0.031 0.073,-0.045 0.073,-0.062C0.073,-0.078 0.079,-0.092 0.091,-0.104C0.104,-0.115 0.118,-0.121 0.135,-0.121C0.151,-0.121 0.165,-0.115 0.178,-0.104C0.191,-0.092 0.197,-0.078 0.197,-0.062C0.197,-0.045 0.191,-0.031 0.179,-0.02C0.167,-0.009 0.152,-0.003 0.135,-0.003Z" style="fill:rgb(128,128,128);fill-rule:nonzero;"/>
        </g>
        <g transform="matrix(9.924896,0,0,9.92126,-226.062365,576.829941)">
            <path d="M0.455,-0.306C0.461,-0.277 0.464,-0.247 0.464,-0.216C0.464,-0.183 0.461,-0.155 0.455,-0.132C0.444,-0.089 0.421,-0.056 0.387,-0.03C0.353,-0.006 0.312,0.007 0.264,0.007C0.217,0.007 0.176,-0.005 0.143,-0.029C0.11,-0.053 0.087,-0.085 0.075,-0.125C0.071,-0.138 0.068,-0.152 0.066,-0.165L0.066,-0.167C0.066,-0.171 0.067,-0.174 0.07,-0.176C0.072,-0.178 0.075,-0.179 0.079,-0.179L0.125,-0.179C0.134,-0.179 0.138,-0.175 0.139,-0.166C0.139,-0.163 0.14,-0.157 0.143,-0.149C0.15,-0.12 0.164,-0.097 0.185,-0.081C0.206,-0.064 0.233,-0.055 0.264,-0.055C0.296,-0.055 0.323,-0.064 0.344,-0.082C0.365,-0.1 0.379,-0.125 0.386,-0.156C0.39,-0.171 0.392,-0.191 0.392,-0.215C0.392,-0.238 0.39,-0.26 0.387,-0.281C0.382,-0.312 0.369,-0.335 0.347,-0.351C0.325,-0.367 0.297,-0.375 0.264,-0.375C0.235,-0.375 0.21,-0.369 0.188,-0.357C0.166,-0.345 0.151,-0.328 0.143,-0.307C0.14,-0.3 0.135,-0.296 0.128,-0.296L0.079,-0.296C0.07,-0.296 0.066,-0.3 0.066,-0.309L0.066,-0.687C0.066,-0.696 0.07,-0.7 0.079,-0.7L0.423,-0.7C0.432,-0.7 0.436,-0.696 0.436,-0.687L0.436,-0.651C0.436,-0.642 0.432,-0.638 0.423,-0.638L0.142,-0.638C0.139,-0.638 0.137,-0.636 0.137,-0.633L0.136,-0.394C0.136,-0.391 0.137,-0.39 0.138,-0.39C0.139,-0.389 0.141,-0.39 0.142,-0.391C0.159,-0.406 0.178,-0.418 0.201,-0.426C0.224,-0.434 0.247,-0.438 0.272,-0.438C0.319,-0.438 0.359,-0.427 0.392,-0.404C0.425,-0.381 0.446,-0.348 0.455,-0.306Z" style="fill:rgb(128,128,128);fill-rule:nonzero;"/>
        </g>
        <g transform="matrix(9.924896,0,0,9.92126,-220.960968,576.829941)">
            <path d="M0.281,0.01C0.217,0.01 0.166,-0.008 0.128,-0.045C0.09,-0.082 0.071,-0.131 0.071,-0.192L0.071,-0.508C0.071,-0.569 0.09,-0.618 0.128,-0.654C0.166,-0.691 0.217,-0.709 0.281,-0.709C0.346,-0.709 0.397,-0.691 0.436,-0.654C0.475,-0.617 0.494,-0.569 0.494,-0.508L0.494,-0.192C0.494,-0.131 0.475,-0.082 0.436,-0.045C0.397,-0.008 0.346,0.01 0.281,0.01ZM0.281,-0.052C0.324,-0.052 0.358,-0.064 0.384,-0.089C0.41,-0.114 0.423,-0.147 0.423,-0.188L0.423,-0.511C0.423,-0.552 0.41,-0.584 0.385,-0.609C0.359,-0.634 0.324,-0.646 0.281,-0.646C0.239,-0.646 0.205,-0.634 0.18,-0.609C0.155,-0.584 0.142,-0.552 0.142,-0.511L0.142,-0.188C0.142,-0.147 0.155,-0.114 0.18,-0.089C0.205,-0.064 0.239,-0.052 0.281,-0.052Z" style="fill:rgb(128,128,128);fill-rule:nonzero;"/>
        </g>
    </g>
    <g transform="matrix(2.606287,0,0,2.606287,-86.065649,-270.839208)">
        <g transform="matrix(9.921778,0,0,9.92126,529.371866,194.97272)">
            <path d="M0.172,-0.696C0.177,-0.699 0.182,-0.7 0.189,-0.7L0.238,-0.7C0.247,-0.7 0.251,-0.696 0.251,-0.687L0.251,-0.013C0.251,-0.004 0.247,-0 0.238,-0L0.193,-0C0.184,-0 0.18,-0.004 0.18,-0.013L0.18,-0.622C0.18,-0.624 0.179,-0.625 0.178,-0.626C0.177,-0.627 0.176,-0.627 0.174,-0.626L0.069,-0.582C0.068,-0.581 0.066,-0.581 0.063,-0.581C0.057,-0.581 0.054,-0.585 0.054,-0.592L0.054,-0.623C0.054,-0.63 0.057,-0.635 0.063,-0.638L0.172,-0.696Z" style="fill:rgb(128,128,128);fill-rule:nonzero;"/>
        </g>
        <g transform="matrix(9.921778,0,0,9.92126,532.784957,194.97272)">
            <path d="M0.072,-0C0.063,-0 0.059,-0.004 0.059,-0.013L0.059,-0.05C0.059,-0.056 0.061,-0.061 0.065,-0.066C0.115,-0.125 0.19,-0.218 0.291,-0.344C0.354,-0.423 0.385,-0.485 0.385,-0.529C0.385,-0.564 0.373,-0.593 0.349,-0.614C0.325,-0.635 0.294,-0.646 0.255,-0.646C0.217,-0.646 0.186,-0.635 0.163,-0.614C0.14,-0.592 0.128,-0.563 0.129,-0.528L0.129,-0.5C0.129,-0.491 0.125,-0.487 0.116,-0.487L0.07,-0.487C0.061,-0.487 0.057,-0.491 0.057,-0.5L0.057,-0.537C0.058,-0.588 0.077,-0.63 0.115,-0.661C0.151,-0.692 0.198,-0.708 0.255,-0.708C0.295,-0.708 0.33,-0.7 0.361,-0.685C0.392,-0.67 0.415,-0.648 0.432,-0.622C0.449,-0.595 0.457,-0.564 0.457,-0.53C0.457,-0.473 0.426,-0.405 0.363,-0.325C0.333,-0.286 0.278,-0.217 0.197,-0.118L0.156,-0.068C0.155,-0.067 0.154,-0.065 0.155,-0.064C0.156,-0.063 0.157,-0.062 0.159,-0.062L0.465,-0.062C0.474,-0.062 0.478,-0.058 0.478,-0.049L0.478,-0.013C0.478,-0.004 0.474,-0 0.465,-0L0.072,-0Z" style="fill:rgb(128,128,128);fill-rule:nonzero;"/>
        </g>
        <g transform="matrix(9.921778,0,0,9.92126,538.10303,194.97272)">
            <path d="M0.444,-0.577C0.452,-0.55 0.456,-0.519 0.456,-0.483L0.456,-0.171C0.456,-0.116 0.438,-0.073 0.402,-0.041C0.366,-0.008 0.319,0.008 0.261,0.008C0.204,0.008 0.159,-0.008 0.124,-0.039C0.089,-0.07 0.072,-0.112 0.072,-0.163L0.072,-0.174C0.072,-0.183 0.076,-0.187 0.085,-0.187L0.13,-0.187C0.134,-0.187 0.137,-0.186 0.14,-0.184C0.142,-0.183 0.143,-0.181 0.143,-0.178L0.143,-0.169C0.143,-0.135 0.154,-0.107 0.176,-0.086C0.198,-0.065 0.226,-0.054 0.261,-0.054C0.297,-0.054 0.327,-0.065 0.35,-0.088C0.373,-0.11 0.385,-0.139 0.385,-0.176L0.385,-0.321C0.385,-0.323 0.384,-0.324 0.383,-0.325C0.382,-0.325 0.38,-0.324 0.379,-0.322C0.35,-0.283 0.306,-0.264 0.247,-0.264C0.205,-0.264 0.17,-0.273 0.142,-0.292C0.113,-0.311 0.092,-0.337 0.077,-0.371C0.063,-0.401 0.056,-0.439 0.056,-0.485C0.056,-0.526 0.061,-0.56 0.072,-0.585C0.086,-0.624 0.108,-0.654 0.139,-0.675C0.17,-0.696 0.208,-0.707 0.254,-0.707C0.302,-0.707 0.342,-0.696 0.375,-0.673C0.408,-0.65 0.431,-0.618 0.444,-0.577ZM0.257,-0.326C0.286,-0.326 0.311,-0.333 0.331,-0.348C0.351,-0.362 0.365,-0.382 0.373,-0.407C0.381,-0.428 0.385,-0.455 0.385,-0.488C0.385,-0.517 0.382,-0.542 0.375,-0.561C0.367,-0.586 0.353,-0.607 0.333,-0.622C0.312,-0.637 0.287,-0.645 0.256,-0.645C0.227,-0.645 0.203,-0.638 0.182,-0.624C0.161,-0.609 0.147,-0.588 0.139,-0.561C0.131,-0.54 0.127,-0.515 0.127,-0.485C0.127,-0.45 0.132,-0.424 0.141,-0.405C0.149,-0.38 0.163,-0.361 0.183,-0.347C0.203,-0.333 0.228,-0.326 0.257,-0.326Z" style="fill:rgb(128,128,128);fill-rule:nonzero;"/>
        </g>
        <g transform="matrix(9.921778,0,0,9.92126,543.272276,194.97272)">
            <path d="M0.135,-0.003C0.117,-0.003 0.102,-0.009 0.09,-0.02C0.079,-0.031 0.073,-0.045 0.073,-0.062C0.073,-0.078 0.079,-0.092 0.091,-0.104C0.104,-0.115 0.118,-0.121 0.135,-0.121C0.151,-0.121 0.165,-0.115 0.178,-0.104C0.191,-0.092 0.197,-0.078 0.197,-0.062C0.197,-0.045 0.191,-0.031 0.179,-0.02C0.167,-0.009 0.152,-0.003 0.135,-0.003Z" style="fill:rgb(128,128,128);fill-rule:nonzero;"/>
        </g>
        <g transform="matrix(9.921778,0,0,9.92126,545.990844,194.97272)">
            <path d="M0.455,-0.306C0.461,-0.277 0.464,-0.247 0.464,-0.216C0.464,-0.183 0.461,-0.155 0.455,-0.132C0.444,-0.089 0.421,-0.056 0.387,-0.03C0.353,-0.006 0.312,0.007 0.264,0.007C0.217,0.007 0.176,-0.005 0.143,-0.029C0.11,-0.053 0.087,-0.085 0.075,-0.125C0.071,-0.138 0.068,-0.152 0.066,-0.165L0.066,-0.167C0.066,-0.171 0.067,-0.174 0.07,-0.176C0.072,-0.178 0.075,-0.179 0.079,-0.179L0.125,-0.179C0.134,-0.179 0.138,-0.175 0.139,-0.166C0.139,-0.163 0.14,-0.157 0.143,-0.149C0.15,-0.12 0.164,-0.097 0.185,-0.081C0.206,-0.064 0.233,-0.055 0.264,-0.055C0.296,-0.055 0.323,-0.064 0.344,-0.082C0.365,-0.1 0.379,-0.125 0.386,-0.156C0.39,-0.171 0.392,-0.191 0.392,-0.215C0.392,-0.238 0.39,-0.26 0.387,-0.281C0.382,-0.312 0.369,-0.335 0.347,-0.351C0.325,-0.367 0.297,-0.375 0.264,-0.375C0.235,-0.375 0.21,-0.369 0.188,-0.357C0.166,-0.345 0.151,-0.328 0.143,-0.307C0.14,-0.3 0.135,-0.296 0.128,-0.296L0.079,-0.296C0.07,-0.296 0.066,-0.3 0.066,-0.309L0.066,-0.687C0.066,-0.696 0.07,-0.7 0.079,-0.7L0.423,-0.7C0.432,-0.7 0.436,-0.696 0.436,-0.687L0.436,-0.651C0.436,-0.642 0.432,-0.638 0.423,-0.638L0.142,-0.638C0.139,-0.638 0.137,-0.636 0.137,-0.633L0.136,-0.394C0.136,-0.391 0.137,-0.39 0.138,-0.39C0.139,-0.389 0.141,-0.39 0.142,-0.391C0.159,-0.406 0.178,-0.418 0.201,-0.426C0.224,-0.434 0.247,-0.438 0.272,-0.438C0.319,-0.438 0.359,-0.427 0.392,-0.404C0.425,-0.381 0.446,-0.348 0.455,-0.306Z" style="fill:rgb(128,128,128);fill-rule:nonzero;"/>
        </g>
        <g transform="matrix(9.921778,0,0,9.92126,551.090637,194.97272)">
            <path d="M0.281,0.01C0.217,0.01 0.166,-0.008 0.128,-0.045C0.09,-0.082 0.071,-0.131 0.071,-0.192L0.071,-0.508C0.071,-0.569 0.09,-0.618 0.128,-0.654C0.166,-0.691 0.217,-0.709 0.281,-0.709C0.346,-0.709 0.397,-0.691 0.436,-0.654C0.475,-0.617 0.494,-0.569 0.494,-0.508L0.494,-0.192C0.494,-0.131 0.475,-0.082 0.436,-0.045C0.397,-0.008 0.346,0.01 0.281,0.01ZM0.281,-0.052C0.324,-0.052 0.358,-0.064 0.384,-0.089C0.41,-0.114 0.423,-0.147 0.423,-0.188L0.423,-0.511C0.423,-0.552 0.41,-0.584 0.385,-0.609C0.359,-0.634 0.324,-0.646 0.281,-0.646C0.239,-0.646 0.205,-0.634 0.18,-0.609C0.155,-0.584 0.142,-0.552 0.142,-0.511L0.142,-0.188C0.142,-0.147 0.155,-0.114 0.18,-0.089C0.205,-0.064 0.239,-0.052 0.281,-0.052Z" style="fill:rgb(128,128,128);fill-rule:nonzero;"/>
        </g>
    </g>
    <g transform="matrix(2.606287,0,0,2.606287,-86.065649,-270.839208)">
        <g transform="matrix(9.922309,0,0,9.92126,653.319761,319.614998)">
            <path d="M0.172,-0.696C0.177,-0.699 0.182,-0.7 0.189,-0.7L0.238,-0.7C0.247,-0.7 0.251,-0.696 0.251,-0.687L0.251,-0.013C0.251,-0.004 0.247,-0 0.238,-0L0.193,-0C0.184,-0 0.18,-0.004 0.18,-0.013L0.18,-0.622C0.18,-0.624 0.179,-0.625 0.178,-0.626C0.177,-0.627 0.176,-0.627 0.174,-0.626L0.069,-0.582C0.068,-0.581 0.066,-0.581 0.063,-0.581C0.057,-0.581 0.054,-0.585 0.054,-0.592L0.054,-0.623C0.054,-0.63 0.057,-0.635 0.063,-0.638L0.172,-0.696Z" style="fill:rgb(128,128,128);fill-rule:nonzero;"/>
        </g>
        <g transform="matrix(9.922309,0,0,9.92126,656.733035,319.614998)">
            <path d="M0.135,-0.003C0.117,-0.003 0.102,-0.009 0.09,-0.02C0.079,-0.031 0.073,-0.045 0.073,-0.062C0.073,-0.078 0.079,-0.092 0.091,-0.104C0.104,-0.115 0.118,-0.121 0.135,-0.121C0.151,-0.121 0.165,-0.115 0.178,-0.104C0.191,-0.092 0.197,-0.078 0.197,-0.062C0.197,-0.045 0.191,-0.031 0.179,-0.02C0.167,-0.009 0.152,-0.003 0.135,-0.003Z" style="fill:rgb(128,128,128);fill-rule:nonzero;"/>
        </g>
        <g transform="matrix(9.922309,0,0,9.92126,659.451748,319.614998)">
            <path d="M0.455,-0.306C0.461,-0.277 0.464,-0.247 0.464,-0.216C0.464,-0.183 0.461,-0.155 0.455,-0.132C0.444,-0.089 0.421,-0.056 0.387,-0.03C0.353,-0.006 0.312,0.007 0.264,0.007C0.217,0.007 0.176,-0.005 0.143,-0.029C0.11,-0.053 0.087,-0.085 0.075,-0.125C0.071,-0.138 0.068,-0.152 0.066,-0.165L0.066,-0.167C0.066,-0.171 0.067,-0.174 0.07,-0.176C0.072,-0.178 0.075,-0.179 0.079,-0.179L0.125,-0.179C0.134,-0.179 0.138,-0.175 0.139,-0.166C0.139,-0.163 0.14,-0.157 0.143,-0.149C0.15,-0.12 0.164,-0.097 0.185,-0.081C0.206,-0.064 0.233,-0.055 0.264,-0.055C0.296,-0.055 0.323,-0.064 0.344,-0.082C0.365,-0.1 0.379,-0.125 0.386,-0.156C0.39,-0.171 0.392,-0.191 0.392,-0.215C0.392,-0.238 0.39,-0.26 0.387,-0.281C0.382,-0.312 0.369,-0.335 0.347,-0.351C0.325,-0.367 0.297,-0.375 0.264,-0.375C0.235,-0.375 0.21,-0.369 0.188,-0.357C0.166,-0.345 0.151,-0.328 0.143,-0.307C0.14,-0.3 0.135,-0.296 0.128,-0.296L0.079,-0.296C0.07,-0.296 0.066,-0.3 0.066,-0.309L0.066,-0.687C0.066,-0.696 0.07,-0.7 0.079,-0.7L0.423,-0.7C0.432,-0.7 0.436,-0.696 0.436,-0.687L0.436,-0.651C0.436,-0.642 0.432,-0.638 0.423,-0.638L0.142,-0.638C0.139,-0.638 0.137,-0.636 0.137,-0.633L0.136,-0.394C0.136,-0.391 0.137,-0.39 0.138,-0.39C0.139,-0.389 0.141,-0.39 0.142,-0.391C0.159,-0.406 0.178,-0.418 0.201,-0.426C0.224,-0.434 0.247,-0.438 0.272,-0.438C0.319,-0.438 0.359,-0.427 0.392,-0.404C0.425,-0.381 0.446,-0.348 0.455,-0.306Z" style="fill:rgb(128,128,128);fill-rule:nonzero;"/>
        </g>
        <g transform="matrix(9.922309,0,0,9.92126,664.551815,319.614998)">
            <path d="M0.281,0.01C0.217,0.01 0.166,-0.008 0.128,-0.045C0.09,-0.082 0.071,-0.131 0.071,-0.192L0.071,-0.508C0.071,-0.569 0.09,-0.618 0.128,-0.654C0.166,-0.691 0.217,-0.709 0.281,-0.709C0.346,-0.709 0.397,-0.691 0.436,-0.654C0.475,-0.617 0.494,-0.569 0.494,-0.508L0.494,-0.192C0.494,-0.131 0.475,-0.082 0.436,-0.045C0.397,-0.008 0.346,0.01 0.281,0.01ZM0.281,-0.052C0.324,-0.052 0.358,-0.064 0.384,-0.089C0.41,-0.114 0.423,-0.147 0.423,-0.188L0.423,-0.511C0.423,-0.552 0.41,-0.584 0.385,-0.609C0.359,-0.634 0.324,-0.646 0.281,-0.646C0.239,-0.646 0.205,-0.634 0.18,-0.609C0.155,-0.584 0.142,-0.552 0.142,-0.511L0.142,-0.188C0.142,-0.147 0.155,-0.114 0.18,-0.089C0.205,-0.064 0.239,-0.052 0.281,-0.052Z" style="fill:rgb(128,128,128);fill-rule:nonzero;"/>
        </g>
    </g>
    <g transform="matrix(2.606287,0,0,2.606287,-86.065649,-270.839208)">
        <g transform="matrix(9.924819,0,0,9.92126,652.211066,133.420132)">
            <path d="M0.43,-0.331C0.443,-0.298 0.45,-0.259 0.45,-0.214C0.45,-0.18 0.445,-0.148 0.435,-0.118C0.422,-0.077 0.399,-0.046 0.367,-0.025C0.336,-0.003 0.297,0.008 0.25,0.008C0.203,0.008 0.162,-0.004 0.129,-0.029C0.096,-0.054 0.073,-0.086 0.061,-0.127C0.055,-0.148 0.051,-0.172 0.05,-0.2C0.05,-0.209 0.054,-0.213 0.063,-0.213L0.109,-0.213C0.118,-0.213 0.122,-0.209 0.122,-0.2C0.123,-0.177 0.125,-0.16 0.128,-0.149C0.135,-0.12 0.15,-0.097 0.171,-0.08C0.192,-0.063 0.219,-0.054 0.25,-0.054C0.279,-0.054 0.303,-0.061 0.323,-0.074C0.342,-0.088 0.356,-0.108 0.365,-0.133C0.374,-0.158 0.379,-0.185 0.379,-0.216C0.379,-0.255 0.373,-0.288 0.361,-0.314C0.342,-0.362 0.305,-0.386 0.249,-0.386C0.238,-0.386 0.228,-0.384 0.217,-0.38C0.213,-0.379 0.211,-0.378 0.21,-0.378C0.206,-0.378 0.203,-0.38 0.2,-0.384L0.178,-0.41C0.175,-0.414 0.174,-0.417 0.174,-0.419C0.174,-0.421 0.175,-0.424 0.178,-0.428L0.352,-0.632C0.355,-0.636 0.354,-0.638 0.349,-0.638L0.069,-0.638C0.06,-0.638 0.056,-0.642 0.056,-0.651L0.056,-0.687C0.056,-0.696 0.06,-0.7 0.069,-0.7L0.433,-0.7C0.442,-0.7 0.446,-0.696 0.446,-0.687L0.446,-0.647C0.446,-0.642 0.444,-0.636 0.44,-0.631L0.279,-0.438C0.278,-0.437 0.277,-0.435 0.278,-0.434C0.279,-0.433 0.28,-0.432 0.283,-0.432C0.356,-0.427 0.405,-0.394 0.43,-0.331Z" style="fill:rgb(128,128,128);fill-rule:nonzero;"/>
        </g>
        <g transform="matrix(9.924819,0,0,9.92126,657.332273,133.420132)">
            <path d="M0.135,-0.003C0.117,-0.003 0.102,-0.009 0.09,-0.02C0.079,-0.031 0.073,-0.045 0.073,-0.062C0.073,-0.078 0.079,-0.092 0.091,-0.104C0.104,-0.115 0.118,-0.121 0.135,-0.121C0.151,-0.121 0.165,-0.115 0.178,-0.104C0.191,-0.092 0.197,-0.078 0.197,-0.062C0.197,-0.045 0.191,-0.031 0.179,-0.02C0.167,-0.009 0.152,-0.003 0.135,-0.003Z" style="fill:rgb(128,128,128);fill-rule:nonzero;"/>
        </g>
        <g transform="matrix(9.924819,0,0,9.92126,660.051673,133.420132)">
            <path d="M0.281,0.01C0.217,0.01 0.166,-0.008 0.128,-0.045C0.09,-0.082 0.071,-0.131 0.071,-0.192L0.071,-0.508C0.071,-0.569 0.09,-0.618 0.128,-0.654C0.166,-0.691 0.217,-0.709 0.281,-0.709C0.346,-0.709 0.397,-0.691 0.436,-0.654C0.475,-0.617 0.494,-0.569 0.494,-0.508L0.494,-0.192C0.494,-0.131 0.475,-0.082 0.436,-0.045C0.397,-0.008 0.346,0.01 0.281,0.01ZM0.281,-0.052C0.324,-0.052 0.358,-0.064 0.384,-0.089C0.41,-0.114 0.423,-0.147 0.423,-0.188L0.423,-0.511C0.423,-0.552 0.41,-0.584 0.385,-0.609C0.359,-0.634 0.324,-0.646 0.281,-0.646C0.239,-0.646 0.205,-0.634 0.18,-0.609C0.155,-0.584 0.142,-0.552 0.142,-0.511L0.142,-0.188C0.142,-0.147 0.155,-0.114 0.18,-0.089C0.205,-0.064 0.239,-0.052 0.281,-0.052Z" style="fill:rgb(128,128,128);fill-rule:nonzero;"/>
        </g>
        <g transform="matrix(9.924819,0,0,9.92126,665.659196,133.420132)">
            <path d="M0.281,0.01C0.217,0.01 0.166,-0.008 0.128,-0.045C0.09,-0.082 0.071,-0.131 0.071,-0.192L0.071,-0.508C0.071,-0.569 0.09,-0.618 0.128,-0.654C0.166,-0.691 0.217,-0.709 0.281,-0.709C0.346,-0.709 0.397,-0.691 0.436,-0.654C0.475,-0.617 0.494,-0.569 0.494,-0.508L0.494,-0.192C0.494,-0.131 0.475,-0.082 0.436,-0.045C0.397,-0.008 0.346,0.01 0.281,0.01ZM0.281,-0.052C0.324,-0.052 0.358,-0.064 0.384,-0.089C0.41,-0.114 0.423,-0.147 0.423,-0.188L0.423,-0.511C0.423,-0.552 0.41,-0.584 0.385,-0.609C0.359,-0.634 0.324,-0.646 0.281,-0.646C0.239,-0.646 0.205,-0.634 0.18,-0.609C0.155,-0.584 0.142,-0.552 0.142,-0.511L0.142,-0.188C0.142,-0.147 0.155,-0.114 0.18,-0.089C0.205,-0.064 0.239,-0.052 0.281,-0.052Z" style="fill:rgb(128,128,128);fill-rule:nonzero;"/>
        </g>
    </g>
    <g transform="matrix(2.606287,0,0,2.606287,-86.065649,-270.839208)">
        <g transform="matrix(9.924646,0,0,9.92126,652.424537,119.765998)">
            <path d="M0.155,-0C0.15,-0 0.147,-0.001 0.145,-0.004C0.144,-0.007 0.144,-0.01 0.145,-0.015L0.374,-0.632C0.375,-0.636 0.374,-0.638 0.37,-0.638L0.102,-0.638C0.099,-0.638 0.097,-0.636 0.097,-0.633L0.097,-0.591C0.097,-0.582 0.093,-0.578 0.084,-0.578L0.049,-0.578C0.04,-0.578 0.036,-0.582 0.036,-0.591L0.037,-0.687C0.037,-0.696 0.041,-0.7 0.05,-0.7L0.438,-0.7C0.447,-0.7 0.451,-0.696 0.451,-0.687L0.451,-0.646C0.451,-0.641 0.45,-0.635 0.448,-0.63L0.22,-0.01C0.218,-0.003 0.213,-0 0.205,-0L0.155,-0Z" style="fill:rgb(128,128,128);fill-rule:nonzero;"/>
        </g>
        <g transform="matrix(9.924646,0,0,9.92126,657.118895,119.765998)">
            <path d="M0.135,-0.003C0.117,-0.003 0.102,-0.009 0.09,-0.02C0.079,-0.031 0.073,-0.045 0.073,-0.062C0.073,-0.078 0.079,-0.092 0.091,-0.104C0.104,-0.115 0.118,-0.121 0.135,-0.121C0.151,-0.121 0.165,-0.115 0.178,-0.104C0.191,-0.092 0.197,-0.078 0.197,-0.062C0.197,-0.045 0.191,-0.031 0.179,-0.02C0.167,-0.009 0.152,-0.003 0.135,-0.003Z" style="fill:rgb(128,128,128);fill-rule:nonzero;"/>
        </g>
        <g transform="matrix(9.924646,0,0,9.92126,659.838248,119.765998)">
            <path d="M0.281,0.01C0.217,0.01 0.166,-0.008 0.128,-0.045C0.09,-0.082 0.071,-0.131 0.071,-0.192L0.071,-0.508C0.071,-0.569 0.09,-0.618 0.128,-0.654C0.166,-0.691 0.217,-0.709 0.281,-0.709C0.346,-0.709 0.397,-0.691 0.436,-0.654C0.475,-0.617 0.494,-0.569 0.494,-0.508L0.494,-0.192C0.494,-0.131 0.475,-0.082 0.436,-0.045C0.397,-0.008 0.346,0.01 0.281,0.01ZM0.281,-0.052C0.324,-0.052 0.358,-0.064 0.384,-0.089C0.41,-0.114 0.423,-0.147 0.423,-0.188L0.423,-0.511C0.423,-0.552 0.41,-0.584 0.385,-0.609C0.359,-0.634 0.324,-0.646 0.281,-0.646C0.239,-0.646 0.205,-0.634 0.18,-0.609C0.155,-0.584 0.142,-0.552 0.142,-0.511L0.142,-0.188C0.142,-0.147 0.155,-0.114 0.18,-0.089C0.205,-0.064 0.239,-0.052 0.281,-0.052Z" style="fill:rgb(128,128,128);fill-rule:nonzero;"/>
        </g>
        <g transform="matrix(9.924646,0,0,9.92126,665.445673,119.765998)">
            <path d="M0.281,0.01C0.217,0.01 0.166,-0.008 0.128,-0.045C0.09,-0.082 0.071,-0.131 0.071,-0.192L0.071,-0.508C0.071,-0.569 0.09,-0.618 0.128,-0.654C0.166,-0.691 0.217,-0.709 0.281,-0.709C0.346,-0.709 0.397,-0.691 0.436,-0.654C0.475,-0.617 0.494,-0.569 0.494,-0.508L0.494,-0.192C0.494,-0.131 0.475,-0.082 0.436,-0.045C0.397,-0.008 0.346,0.01 0.281,0.01ZM0.281,-0.052C0.324,-0.052 0.358,-0.064 0.384,-0.089C0.41,-0.114 0.423,-0.147 0.423,-0.188L0.423,-0.511C0.423,-0.552 0.41,-0.584 0.385,-0.609C0.359,-0.634 0.324,-0.646 0.281,-0.646C0.239,-0.646 0.205,-0.634 0.18,-0.609C0.155,-0.584 0.142,-0.552 0.142,-0.511L0.142,-0.188C0.142,-0.147 0.155,-0.114 0.18,-0.089C0.205,-0.064 0.239,-0.052 0.281,-0.052Z" style="fill:rgb(128,128,128);fill-rule:nonzero;"/>
        </g>
    </g>
    <g transform="matrix(2.606287,0,0,2.606287,-86.065649,-1161.40738)">
        <path d="M681.4,476.8L690.7,475.4L690.7,478.3L681.4,476.8M677.1,476.8L667.8,478.3L667.8,475.4L677.1,476.8" style="fill:none;fill-rule:nonzero;stroke:rgb(128,128,128);stroke-width:0.82px;stroke-linecap:butt;stroke-linejoin:miter;"/>
    </g>
    <g transform="matrix(2.606287,0,0,2.606287,-86.065649,-1020.146684)">
        <path d="M389.1,415.4L398.4,413.9L398.4,416.8L389.1,415.4M630,415.4L620.7,416.8L620.7,413.9L630,415.4M417.8,484.2L427.1,482.7L427.1,485.6L417.8,484.2M601.3,484.2L592,485.6L592,482.7L601.3,484.2" style="fill:none;fill-rule:nonzero;stroke:rgb(128,128,128);stroke-width:0.82px;stroke-linecap:butt;stroke-linejoin:miter;"/>
    </g>
    <g transform="matrix(2.606287,0,0,2.606287,-86.065649,-1232.819719)">
        <path d="M677.1,490.6L667.8,492L667.8,489.1L677.1,490.6M687.1,490.6L696.4,489.1L696.4,492L687.1,490.6" style="fill:none;fill-rule:nonzero;stroke:rgb(128,128,128);stroke-width:0.82px;stroke-linecap:butt;stroke-linejoin:miter;"/>
    </g>
    <g transform="matrix(2.606287,0,0,2.606287,-86.065649,-190.826253)">
        <path d="M689.2,290.6L698.5,289.2L698.5,292.1L689.2,290.6M687.1,290.6L677.7,292.1L677.7,289.2L687.1,290.6" style="fill:none;fill-rule:nonzero;stroke:rgb(128,128,128);stroke-width:0.82px;stroke-linecap:butt;stroke-linejoin:miter;"/>
    </g>
    <g transform="matrix(2.606287,0,0,2.606287,-86.065649,-692.797026)">
        <path d="M369.9,309L371.4,318.3L368.5,318.3L369.9,309M369.9,464.9L368.5,455.5L371.4,455.5L369.9,464.9M578.4,313.6L579.9,322.9L577,322.9L578.4,313.6M578.4,460.3L577,450.9L579.9,450.9L578.4,460.3" style="fill:none;fill-rule:nonzero;stroke:rgb(128,128,128);stroke-width:0.82px;stroke-linecap:butt;stroke-linejoin:miter;"/>
    </g>
    <g transform="matrix(2.606287,0,0,2.606287,-86.065649,-1165.056234)">
        <path d="M681.4,479.7L681.4,475.4M677.1,479.7L677.1,475.4M681.4,478.2L699.4,478.2M681.4,478.2L677.1,478.2M677.1,478.2L650.2,478.2" style="fill:none;fill-rule:nonzero;stroke:rgb(128,128,128);stroke-width:0.82px;"/>
    </g>
    <g transform="matrix(2.606287,0,0,2.606287,-86.065649,-757.954198)">
        <path d="M389.1,487L389.1,311.9M630,487L630,311.9M389.1,314.8L630,314.8M417.8,383.6L601.3,383.6" style="fill:none;fill-rule:nonzero;stroke:rgb(128,128,128);stroke-width:0.82px;"/>
    </g>
    <g transform="matrix(2.606287,0,0,2.606287,-86.065649,-1193.72539)">
        <path d="M677.1,490.7L677.1,472.7M687.1,493.4L687.1,472.7M677.1,475.6L650.4,475.6M677.1,475.6L687.1,475.6M687.1,475.6L705.1,475.6" style="fill:none;fill-rule:nonzero;stroke:rgb(128,128,128);stroke-width:0.82px;"/>
    </g>
    <g transform="matrix(2.606287,0,0,2.606287,-86.065649,-235.133051)">
        <path d="M689.2,287.8L689.2,310.5M687.1,297.8L687.1,310.5M689.2,307.6L707.2,307.6M689.2,307.6L687.1,307.6M687.1,307.6L651.3,307.6" style="fill:none;fill-rule:nonzero;stroke:rgb(128,128,128);stroke-width:0.82px;"/>
    </g>
    <g transform="matrix(2.606287,0,0,2.606287,-86.065649,-692.797026)">
        <path d="M627.2,309L367.1,309M627.2,464.9L367.1,464.9M369.9,309L369.9,464.9M578.4,313.6L578.4,460.3" style="fill:none;fill-rule:nonzero;stroke:rgb(128,128,128);stroke-width:0.82px;"/>
    </g>
    <g transform="matrix(2.606287,0,0,2.606287,-86.065649,-1161.40738)">
        <path d="M681.4,476.8L690.7,475.4L690.7,478.3M677.1,476.8L667.8,478.3L667.8,475.4" style="fill:rgb(128,128,128);fill-rule:nonzero;"/>
    </g>
    <g transform="matrix(2.606287,0,0,2.606287,-86.065649,-1020.146684)">
        <path d="M389.1,415.4L398.4,413.9L398.4,416.8M630,415.4L620.7,416.8L620.7,413.9M417.8,484.2L427.1,482.7L427.1,485.6M601.3,484.2L592,485.6L592,482.7" style="fill:rgb(128,128,128);fill-rule:nonzero;"/>
    </g>
    <g transform="matrix(2.606287,0,0,2.606287,-86.065649,-1232.819719)">
        <path d="M677.1,490.6L667.8,492L667.8,489.1M687.1,490.6L696.4,489.1L696.4,492" style="fill:rgb(128,128,128);fill-rule:nonzero;"/>
    </g>
    <g transform="matrix(2.606287,0,0,2.606287,-86.065649,-190.826253)">
        <path d="M689.2,290.6L698.5,289.2L698.5,292.1M687.1,290.6L677.7,292.1L677.7,289.2" style="fill:rgb(128,128,128);fill-rule:nonzero;"/>
    </g>
    <g transform="matrix(2.606287,0,0,2.606287,-86.065649,-692.797026)">
        <path d="M369.9,309L371.4,318.3L368.5,318.3M369.9,464.9L368.5,455.5L371.4,455.5M578.4,313.6L579.9,322.9L577,322.9M578.4,460.3L577,450.9L579.9,450.9" style="fill:rgb(128,128,128);fill-rule:nonzero;"/>
    </g>
</svg>
