<?xml version="1.0" encoding="UTF-8" standalone="no"?>
<!DOCTYPE svg PUBLIC "-//W3C//DTD SVG 1.1//EN" "http://www.w3.org/Graphics/SVG/1.1/DTD/svg11.dtd">
<svg width="100%" height="100%" viewBox="0 0 1800 1000" version="1.1" xmlns="http://www.w3.org/2000/svg" xmlns:xlink="http://www.w3.org/1999/xlink" xml:space="preserve" xmlns:serif="http://www.serif.com/" style="fill-rule:evenodd;clip-rule:evenodd;stroke-linecap:round;stroke-linejoin:round;stroke-miterlimit:10;">
    <g transform="matrix(2.742674,0,0,2.742674,-129.689756,-517.257936)">
        <path d="M182.1,344.5L177.6,346.8M138.8,331.3L136.8,333.2L134.8,335.1M133.6,337.1L133.6,345.3M133.6,345.3L133.6,346.8M134.3,348L135,348.6L135.7,349.3M669.1,276.2L667.1,274.3L665,272.4M669.8,285.7L669.8,277.6M669.8,287.3L669.8,285.7M667.3,290.3L668,289.7L668.7,289.1M414.3,498.5L413.8,498M332.4,494.4L332.4,484.6M324.3,504.7L324.6,504.6L325,504.5M231.8,474.5L230.9,477.3L230.6,479.4L230.6,481.3M230.6,481.9L230.9,485.1L231.8,487.2L233.1,488.9M233.1,488.9L235.3,491.6M233.4,470.5L231.8,474.5M230.6,481.3L230.6,481.9M235.3,491.6L235.6,491.6L235.6,491.7L235.8,491.7L236.2,492M171.3,470.1L169.9,471.3M169.5,472L169.5,479.1M169.8,479.6L170.8,480.6M404.5,418.1L404.8,418.1M404.2,450.6L404.5,450.7L404.8,450.6M404,450.6L404.2,450.6M486.1,391.5L486.4,389.4M413.9,498.3L413.9,506.1M486.1,465.3L486.1,391.6M411.1,498.6L411.1,498.4M538.9,363.9L539.2,361.7M539,437.6L539,363.9M156.6,356L156.6,409.9M153,418.5L144.1,426.6L140.5,430M132.8,439.5L131.4,441.8L130.6,444L130.4,446.3M156.6,409.9L156.5,412.4L155.9,414.8L154.6,416.9L152.9,418.6M130.4,445.9L130.4,462.3M130.9,463.3L131.5,463.9L132.2,464.5M140.5,430L135.6,435.4L132.9,439.5M591.8,336.2L592.1,334.1M591.8,410L591.8,336.3M644.7,308.6L645,306.4M644.7,382.3L644.7,308.6M646.8,352.5L646.8,302.3M668.4,377.7L659.5,369.5L650.4,361.1M650.5,361.2L648.6,359.3L647.3,356.9L646.9,354.6L646.8,352.5M673.1,385.3L672.9,383.2L672.6,382.2L672,381.2L670.1,379.3L668,377.3M673.1,401.3L673.1,385M670.9,403.9L671.6,403.3L672.3,402.7M189.9,381.5L190.9,380.9M186,371.5L184.9,372.1M185.9,375.5L186.6,375.1M188.2,378.4L187.5,378.8M390.5,410.6L391.5,410.1M386.6,400.7L385.5,401.2M386.5,404.7L387.2,404.3M388.8,407.6L388.1,407.9M404.6,390.5L405.8,389.9M404.6,417.8L404.6,390.2M402.6,424.4L402.6,423.5L402.9,421.9L403.3,420.4L403.9,419.3L404.2,418.8M402.6,440.7L402.6,424.4M395.6,456.3L396.8,455.6L400,454.1L400.7,453.8M404.2,418.8L404.3,418.7L404.4,418.6L404.4,418.5L404.5,418.3L404.5,418.1L404.6,418L404.6,417.8M400.5,453.9L401.1,453L402.2,451.8L403.3,451L403.6,450.9M403.3,443.7L403.2,443.6L402.9,443L402.7,442L402.6,440.7M395.9,472L395.9,471.9L395.6,471.8L395.2,471.1L394.8,470L394.5,468.5L394.4,466.6L394.6,464.6L395,462.6L395.6,460.7L396.3,459.2L397,458.1L397.7,457.5L398,457.4M404.6,445.2L404.5,444.9L404.5,444.7L404.4,444.4L404.2,444.2L404,444.1L403.8,443.9L403.6,443.8L403.4,443.8M404.6,449.4L404.6,445.2M403.5,450.9L404.1,450.6L404.4,450.1L404.6,449.5L404.5,449.4M400.3,480.1L400,480.1M399.1,457.3L401.2,456.2M404.6,481.2L404.6,481.1L404.4,480.6L404.1,480L403.6,479.7L403.1,479.5M404.6,499.1L404.6,481.2M403.1,479.5L399.1,478.9M403.9,502.6L404.1,502.2L404.4,501.2L404.6,499.8L404.6,499.1M182.8,351.6L176.3,354.9M157.7,469.5L157.7,470M160.5,472.8L161.7,473.4L163.9,474L166.3,474.4L166.6,474.4M436,509.9L436,510.4M468.6,510.4L468.6,509.9M645.8,417.8L645.8,417.4M450,512.6L451,512.8M451,512.8L452.1,512.9L454.2,513.1L456.3,513L458.4,512.8L460.1,512.5M458.4,515.3L459,515L459.6,514.5L460.1,514L460.5,513.5L460.9,512.9L461.3,512.3L461.4,512M448.3,511.9L448.5,512.3L448.8,512.9L449.2,513.5L449.6,514L450.1,514.5L450.7,515L451.3,515.3M152.5,470.9L153.1,470.5L153.7,470.1L154.2,469.6L154.6,469M142.5,467.7L142.5,467.8L142.9,468.4L143.3,469L143.7,469.6L144.2,470.1L144.8,470.5L145.4,470.9M658.1,411L658.2,410.9M305.7,387.5L305.6,387.5L304.3,388.6L303.3,390.1L302.9,391.8L302.9,393.6L303.4,395.4L304.4,397L305.4,398M305.4,398L306.2,398.7L308,399.4L309.8,399.5L311.5,399.1L311.8,398.9M311.8,399L313.1,398.3M307.1,386.7L305.8,387.4M305.7,407.9L305.6,408L304.3,409L303.3,410.5L302.9,412.2L302.9,414L303.4,415.8L304.4,417.5L305.4,418.5M305.4,418.5L306.2,419.1L308,419.8L309.8,420L311.5,419.6L311.8,419.4M311.8,419.4L313.1,418.7M307.1,407.2L305.8,407.8M334.2,449.3L334.2,450.4M401.7,463.2L401.7,462.2L401.4,460.5L400.9,459.1L400.1,458.2L399.2,457.7L399,457.8M399.1,457.7L397.7,457.5M396,466.1L396.1,465.3L396.3,463.6L396.8,462L397.4,460.8L398.1,460L398.6,459.7L398.9,459.7M397.2,471.7L398.1,471.7L399,471.1L399.9,470L400.7,468.5L401.3,466.7L401.6,464.8L401.7,463.2M395.5,471.5L397.1,471.8M397.4,469.8L397.2,469.7L396.7,469.3L396.3,468.3L396.1,467L396,466.1M351.7,237.8L352.3,237.5L353.2,237.3L354.1,237.1L355.2,237L357.5,237L358.6,237.2M351.7,237.8L177.5,328.8M179.6,330.8L178.6,330.6L177.8,330.3L177.2,330.1L176.9,329.8L176.8,329.5L177,329.1L177.5,328.8M179.6,330.8L444.8,369.3M451.8,368.7L451.1,369L450.3,369.2L449.3,369.4L448.2,369.5L447.1,369.5L445.9,369.4L444.8,369.3M451.8,368.7L626,277.6M623.8,275.7L624.8,275.9L625.6,276.1L626.2,276.4L626.5,276.7L626.6,277L626.4,277.3L626,277.6M623.8,275.7L358.6,237.2M184.5,342.3L187.5,342.9L190.1,343.5M153,337.8L184.5,342.3M142.9,328.8L141.8,329.4L140.7,330L139.7,330.7L138.8,331.3L138.2,332L137.9,332.7L138.5,334.1L139.5,334.7L140.9,335.3L142.6,335.8L144.5,336.3L146.5,336.7L148.6,337.1L150.8,337.4L153,337.8M332,229.9L142.9,328.8M364.6,227.2L362.3,226.8L360,226.5L357.7,226.3L355.3,226L352.8,225.9L350.3,225.8L345.3,225.9L342.9,226.2L340.8,226.6L338.9,227.1L337.2,227.6L335.8,228.2L334.4,228.7L333.2,229.3L332,229.9M650.4,268.7L364.6,227.2M660.5,277.7L661.7,277.1L662.8,276.4L663.8,275.8L664.6,275.1L665.2,274.4L665.5,273.8L665,272.4L664,271.7L662.5,271.1L660.8,270.6L658.9,270.2L656.9,269.8L654.8,269.4L652.6,269L650.4,268.7M471.4,376.5L660.5,277.7M438.9,379.3L441.1,379.6L443.4,379.9L445.7,380.2L448.1,380.4L450.6,380.6L453.1,380.7L458.2,380.5L460.5,380.3L462.6,379.9L464.5,379.4L466.2,378.9L467.7,378.3L469,377.7L470.2,377.1L471.4,376.5M412.4,375.4L438.9,379.3M405.7,374.8L409.2,375.1L412.4,375.4M400.3,377.7L405.7,374.8M184.7,346.3L400.3,377.7M190.1,343.5L184.7,346.3M475.2,381.2L472.3,382.6L468.7,384L464.4,385.1L459.4,385.7L453.8,386L448,385.7L442.3,385.2L436.9,384.4M436.9,384.4L438.9,379.3M475.2,381.2L471.4,376.5M475.2,389.3L473.6,390.1L472.3,390.7L470.7,391.4L468.9,392.1L464.4,393.2L459.4,393.9L453.9,394.1L451.9,394.1L449.8,394L447.7,393.9L444.1,393.5L440.7,393.1L436.9,392.6M436.9,392.6L436.9,384.4M475.2,381.2L475.2,389.3M475.2,390.7L475.2,389.3M436.9,394L439.9,394.4L442.2,394.7L445,395L447.7,395.2L453.9,395.5L459.4,395.3L464.4,394.6L465.9,394.3L467.4,393.9L468.9,393.4L471.2,392.6L473.1,391.7L475.2,390.7M436.9,394L436.9,392.6M475.2,390.7L473.9,391.9M437.6,395L436.9,394M473.9,391.9L472.4,392.6L471.2,393.2L469.7,393.9L468,394.5L466.1,395.1L463.9,395.6L459,396.3L456.2,396.4L453.4,396.5L447.9,396.2L444.3,395.9L441.2,395.5L437.6,395M436.9,384.4L416.4,381.4M415.5,381.4L416.4,381.4M415.5,381.3L415.5,381.4M412.4,375.4L414.5,377.9L415.5,381.3M416.4,381.4L417,383.9L417.3,386.2L417.3,388.9M417.3,391.1L436.9,394M417.3,388.9L417.3,391.1M408.9,390.8L408.7,386.5L408.1,384.4L407,382.5L405.4,381.1L403.5,380.2L399.7,379.4M399.7,379.4L400.3,377.7M400.3,377.7L404.8,378.7L406.9,379.8L408.5,381.4L409.8,383.4L410.5,385.7L410.9,390.6M408.9,390.8L410.9,390.6M184,348L180.1,347.8L178.3,348.1L176.7,349.1L175.6,350.7L175,352.6L174.7,356.8M399.7,379.4L184,348M408.9,393L408.9,390.8M406.4,392.6L408.9,393M406.4,390.4L406.4,392.6M399.7,382.1L402.4,382.8L403.7,383.5L404.9,384.6L405.7,385.9L406.2,387.4L406.4,390.4M184,350.8L399.7,382.1M177.5,354.3L177.5,354.2L178,352.8L178.8,351.7L180,351L181.3,350.6L184,350.8M412.3,381.9L412.3,379.2L411.9,378.1L411.3,377.1L410.3,376.2L409,375.6L405.7,374.8M413.5,389.3L413.3,385.5L412.3,381.9M413.5,389.3L410.9,390.6M418,392.1L417.3,391.1M437.6,395L418,392.1M405.8,389.9L405.7,387.3L405.3,386.1L404.6,385.1L403.7,384.2L402.7,383.7L400.3,383.1M400.3,383.1L399.7,382.1M405.8,389.9L406.4,390.4M410.9,390.6L410.9,392.8M408.9,393L410.9,392.8M409.6,394L410.9,392.8M409.6,394L408.9,393M413.5,391.4L413.5,389.3M410.9,392.8L413.5,391.4M405.8,393.5L406.4,392.6M409.6,394L405.8,393.5M405.8,393.5L405.8,389.9M412.3,392.6L413.5,391.4M412.3,392.6L409.6,394M184,348L184.7,346.3M415.5,381.4L415.1,381.4L414.5,381.5L413.9,381.6L413.6,381.7L413.3,381.7L412.9,381.8L412.3,381.9M417.3,388.9L416.2,388.8L415.1,388.8L414.6,388.9L414.2,389L413.5,389.3M400.3,383.1L184.7,351.8M184.7,351.8L184,350.8M413.5,391.4L414.2,391.2L414.6,391.1L415.1,391L416.2,391L417.3,391.1M660.5,277.7L664.2,282.3M664.2,282.3L475.2,381.2M418,392.1L416.4,392L415.5,391.9L414.7,392L413.9,392.1L413.2,392.2L412.3,392.6M664.2,290.5L664.2,282.3M664.2,291.9L664.2,290.5M475.2,390.7L664.2,291.9M664.2,291.9L663,293M663,293L473.9,391.9M174.7,356.8L174.2,356.2M174.2,356.2L174.5,351.5L175.3,349.3L176.5,347.7L178.2,346.6L180.2,346.1L184.7,346.3M184.7,351.8L182.4,351.7L181.3,351.9L180.4,352.5L180,353M177.4,346.8L177.5,346.7M177.5,346.7L180.8,343.9L184.5,342.3M174.7,359L174.2,358.4M174.2,358.4L174.2,356.2M174.2,358.4L174.7,359.1M176.6,346.6L151,342.9M151,342.9L153,337.8M176.6,346.6L177.4,346.8M151,342.9L151,351.1M151,352.4L174.2,355.8M151,352.4L151,351.1M151,352.4L151.7,353.4M174.2,356.7L151.7,353.4M151,342.9L145.8,342.1L140.9,341.1L136.9,339.9L134.4,338.5L133.6,337L134.5,335.4L134.8,335.1M133.7,346.6L134.4,348.1L136.9,349.4L138.1,349.9L139.5,350.3L141.1,350.7L144.2,351.3L147.3,351.8L151,352.4M151.7,353.4L148.9,353L146.8,352.7L144.4,352.3L142.2,351.8L140.1,351.3L138.3,350.7L135.7,349.3M352.5,242.6L351.7,237.8M182.9,331.2L352.5,242.6M669.1,276.2L669.8,277.7L669,279.3L666.9,280.8L664.2,282.3M621.1,280L623.8,275.7M664.2,291.9L665.8,291L666.9,290.4L668,289.6L668.9,288.9L669.8,287.2L669.8,287.1M667.3,290.3L666.2,291.2L664.9,292L663,293M358.6,237.2L359.4,242M359.4,242L621.1,280M359.4,242L358.3,241.9L357.2,241.8L356,241.8L355,241.9L354,242.1L353.2,242.3L352.5,242.6M393.2,503.9L396.4,504.3L399.9,504.3L401.5,504.1L402.8,503.7L404.6,502.9M404.6,502.9L405.9,504.4M405.9,504.4L403.6,505.4L402.1,505.8L400.4,506L398.4,506.1L396.4,506L392.5,505.6M393.2,503.9L392.5,505.6M405.9,504.4L405.9,511.5M392.5,512.6L396.4,513.1L398.4,513.2L400.4,513.1L402.1,512.9L403.6,512.5L405.9,511.5M392.5,512.6L392.5,505.6M404.6,502.9L413.2,498.4M333.5,495.2L393.2,503.9M331.5,495L332.5,495.1L333.5,495.2M332.3,494.7L331.5,495M332.4,494.4L332.4,494.6L332.3,494.7M397,503.5L332.4,494.2M402.7,503L397,503.5M411.7,498.4L402.7,503M393,513.5L392.5,512.6M404.9,512.5L405.9,511.5M404.9,512.5L402.9,513.3L401.6,513.7L400,513.9L398.2,514L396.3,513.9L393,513.5M392.5,505.6L332.8,496.9M333.5,495.2L332.8,496.9M332.8,496.9L332.6,498.5L332.2,500L331.1,501.8L329.7,503.3M329.5,503.5L392.5,512.6M329.7,503.3L329.5,503.5M329.5,503.5L330.1,504.3M393,513.5L330.1,504.3M413.9,500.2L405.9,504.4M405.9,511.5L414.8,506.8M414.4,507.5L404.9,512.5M416.1,507L415.6,507.1L415.1,507.2L414.4,507.5M327.3,495.6L327.4,493.8L327.6,491.8L328.1,489.9L328.7,488.2M328.7,488.2L329.4,488.3L329.8,488.5L330.2,488.6L330.5,488.8L330.7,489L331.1,489.5M331.1,489.5L330.2,492.3L330,495.4M327.3,495.6L328.1,495.7L328.5,495.8L328.9,495.7L329.2,495.7L329.6,495.6L330,495.4M233.1,474.3L232.5,476L232.1,477.9L231.8,479.9L231.8,481.8M233.1,474.3L328.7,488.2M327.3,495.6L231.8,481.8M330.4,497L330.7,496.7L331,496.2L331.5,495M330.4,497L330.4,496.7L330.2,496.2L330.2,495.9L330.1,495.9M330,496L330.1,495.9M330,495.4L330,496M332.3,486.5L331.1,489.5M332.3,494.7L332.3,486.5M328.7,488.2L330,484.9M330,484.9L330.5,484.9L330.9,485L331.4,484.9L331.9,484.9L332.4,484.7M332.3,486.5L332.3,486L332.4,484.7M327.3,496.2L327.3,495.6M327.3,496.2L328.1,496.3L328.9,496.3L329.2,496.2L329.6,496.2L330,496M325.3,501.3L327,499.1L327.3,496.2M330,496L329.9,497.8L329.5,499.6L328.6,501.1L327.4,502.3M325.3,501.3L325.8,501.9L326.1,502.2L326.4,502.4L326.7,502.5L327,502.5L327.4,502.3M234.4,471L233.1,474.3M234.4,471L330,484.9M231.8,482.3L232.2,485.4L233.8,488M231.8,481.8L231.8,482.3M322.6,503.8L325.3,501.3M236.5,491.3L322.6,503.8M233.8,488L236.5,491.3M327.6,502.3L328,502.1L328.3,502.1L328.6,502.2L328.9,502.4L329.2,502.7L329.7,503.3M327.6,502.3L328.7,501.1L329.6,499.5L330.1,497.7L330.1,495.9M332.8,496.9L332,496.8L331.4,496.8L331.1,496.9L330.9,496.9L330.4,497M327.6,502.3L327.4,502.3M233.5,470.3L233.3,470.6L233.4,470.7L233.6,470.8L233.9,470.9L234.4,471M235.5,470.3L235.3,470.2L233.9,470.2L233.7,470.3L233.5,470.3M332.4,484.7L332.4,484.5L332.3,484.4L332.1,484.4L332,484.3L331.8,484.3L331.5,484.2M235.5,470.3L331.5,484.2M327.4,502.3L325.3,504.4M322.6,503.8L323,503.9L323.7,504.2L323.8,504.2L324,504.4L324.4,504.5L324.5,504.6L324.7,504.6L325,504.5L325.3,504.4M325.4,504.3L325.7,504.1L325.9,504.1L326.2,504L326.6,503.9L327.2,503.7L328.3,503.5L329.5,503.5M325.4,504.3L327.6,502.3M322.6,503.8L323.1,504.6M324.3,504.7L324,504.7L323.1,504.6M325.3,504.4L325.4,504.3M330.1,504.3L328.7,504.1L326.4,504.1L325.7,504.2L325.6,504.2M236.5,491.3L237.1,492.1M323.1,504.6L237.1,492.1M235.3,491.6L235.3,491.5L235.4,491.5L235.4,491.4L235.6,491.4L236.1,491.3L236.5,491.3M237.1,492.1L236.3,492L236.2,492M233.3,489.3L231.9,487.4L230.9,485.3L230.4,483.6L230.3,482M233.5,489.6L234.1,490.4M230.3,482L175.6,474M175.6,481.1L233.5,489.6M175.6,474L175.6,481.1M176.3,472.3L230.6,480.2M172.7,469.2L171.3,470.1L170.9,470.6L171.1,471L172,471.5L173.3,471.8L176.3,472.3M174.6,468.2L172.7,469.2M173.3,469.7L174.7,469M175.1,471.3L173.3,469.7M230.6,479.4L175.1,471.3M175.6,474L176.3,472.3M175.6,481.1L176.1,481.9M234.1,490.4L176.1,481.9M175.6,474L172,473.4L170.6,473L169.8,472.5L169.5,472L169.8,471.4L169.9,471.3M169.5,479.1L169.8,479.6L170.6,480.1L172,480.5L175.6,481.1M176.1,481.9L173,481.4L171.7,481L170.8,480.6M404.6,391.2L405.2,391.2L405.5,391.1L405.6,391.1L405.8,391M468.9,395.2L467.4,396L466.1,396.6L464.5,397.1L461.3,398L457.8,398.4L453.9,398.6L451.8,398.5L449.6,398.4L447.1,398.2L444.8,397.9L442,397.5M412.1,392.7L412.1,393.2M412.1,393.2L442,397.5M405.8,391L405.8,416.8M411.8,461.9L415,453.7M405.8,449.4L407,449.6L408.2,450.2L409.3,451.2L410.2,452.7L410.9,454.6L411.4,456.8L411.7,459.2L411.8,461.9M405.8,445L405.8,449.4M408.2,437.8L408.1,438.9L408,440L407.8,441L407.2,443L406.7,443.8L406.3,444.5L405.8,445M408.2,421.5L408.2,437.8M405.8,416.8L406.3,416.9L406.7,417.1L407.2,417.5L407.5,418L407.8,418.7L408,419.5L408.1,420.5L408.2,421.5M640.3,305.6L641.4,305.2L642,305.3L642.5,305.7L642.8,306.3L643.1,307.3L643.5,309.4M594.9,329.3L640.3,305.6M591.7,336.5L592,334L592.3,332.7L592.7,331.7L593.2,330.8L593.7,330.1L594.9,329.3M591.7,410.4L591.7,336.5M590.6,410.9L591.7,410.4M590.6,337L590.6,410.9M587.4,333.3L588.5,332.9L589.1,333L589.6,333.3L589.9,334L590.3,334.9L590.6,337M542,357L587.4,333.3M538.8,364.1L539.1,361.6L539.5,360.4L539.8,359.4L540.3,358.5L540.9,357.8L542,357M538.8,438L538.8,364.1M537.7,438.6L538.8,438M537.7,364.7L537.7,438.6M534.5,360.9L535.7,360.5L536.2,360.6L536.7,361L537.1,361.6L537.4,362.6L537.7,364.7M489.1,384.6L534.5,360.9M485.9,391.8L486.3,389.3L486.6,388L486.9,387L487.4,386.1L488,385.4L489.1,384.6M485.9,465.7L485.9,391.8M484.8,466.2L485.9,465.7M484.8,392.3L484.8,466.2M481.6,388.6L482.8,388.1L483.3,388.2L483.8,388.6L484.2,389.3L484.5,390.2L484.8,392.3M647.8,301.7L660.5,295M644.5,308.8L644.9,306.4L645.2,305.1L645.6,304.1L646.1,303.2L646.6,302.5L647.8,301.7M644.5,382.7L644.5,308.8M643.5,383.3L644.5,382.7M643.5,309.4L643.5,383.3M468.9,395.2L481.6,388.6M457.6,486.6L458.4,486.9L459.1,487L459.8,486.8L460.4,486.4M460.4,486.4L464.4,487.3L467.8,488.5L470.1,490.1L471.5,491.7M471.5,491.7L469.5,492.7L467,493.7L463.9,494.4L460.4,494.9L456.6,495.1L452.5,494.9L448.5,494.5L444.7,494M457.6,486.6L453.9,488.2L450.3,490L447.2,492.1L444.7,494M435.5,479L441.5,463.5M462.4,461.7L461.2,462.3L460.2,462.7L459.2,463.1L458.1,463.4L455.9,463.9L453.6,464.1L451.2,464.3L448.4,464.2L447.3,464.2L446,464.1L444.7,463.9L443.3,463.8L441.5,463.5M462.4,461.7L473.7,475.7M460.4,486.4L463.8,483L467.4,479.9L469.8,478.1L472,476.7L473.7,475.7M435.5,479L438.8,479.5L442.7,480.4L446.7,481.6L452.5,483.9L457.6,486.6M408.2,421.5L408,421.6L407.8,421.6L407.6,421.7L406.3,421.7M471.5,491.7L471.5,508M444.7,510.2L448.5,510.8L452.5,511.2L456.6,511.3L460.4,511.2L463.9,510.7L467,509.9L469.5,509L471.5,508M444.7,510.2L444.7,494M435.5,479L434.6,481.4L433.9,484.1L433.6,486.9L433.6,489.6M444.7,494L439.3,491L433.6,489.6M406.3,421.7L403,421.2M443.4,452.9L447.8,453.4L450.2,453.5L452.4,453.4L454.4,453.1L456.1,452.7L458.7,451.6M473.7,475.7L475.4,477.9L476.7,480.4L477.3,483.2L477.4,485.9M477.4,485.9L474.4,488L471.5,491.7M471.5,508L470.3,509.1M470.3,509.1L466.2,510.9L463.4,511.7L460,512.2L456.2,512.3L452.4,512.1L445.4,511.3M444.7,510.2L445.4,511.3M408.2,437.8L408,437.9L407.8,438L407.3,438L407.1,438.1L406.8,438.1L406.5,438L406.3,438M406.3,438L406.3,421.7M406.3,438L403,437.5M403,421.2L403,437.5M405.8,445L405.7,444.5L405.3,444L404.9,443.7L404.4,443.5M404.4,443.5L404.8,443.1L405.2,442.6L405.5,442L405.7,441.2L406,440.5L406.1,439.7L406.2,438.8L406.3,438M426.5,450.4L443.4,452.9M402.6,440.4L402.7,440L402.9,439.2L403,438.4L403,437.5M426.5,450.4L423.2,450.6L421.4,450.8L419.7,451.1L418.2,451.6L416.9,452.2L415,453.7M404.4,450.6L404.9,450.6L405.3,450.4L405.7,449.9L405.8,449.4M433.6,489.6L416.6,487.2M416.6,506.2L444.7,510.2M416.6,487.2L416.6,506.2M405.1,450.7L404.4,450.6M409.9,462L411.5,462L411.8,461.9M404.5,472.8L404.1,473.7L403.7,474.5L403.3,475.2L402.9,475.9L402.5,476.5L402.1,477.1L401.6,477.7L401.1,478.2M404.4,471L404.5,471L404.6,471.3L404.7,471.6L404.7,472.1L404.5,472.8M404.4,470.9L405.1,471M405.1,453.1L405.8,454.8L406.2,456.8L406.5,458.9L406.6,461.3L406.5,463.7L406.2,466.2L405.8,468.7L405.1,471M405.1,453.1L404.4,453M404.5,452L404.7,452.4L404.7,452.7L404.6,452.9L404.5,453L404.4,453M408.5,472.6L408.8,471.6L409.6,466.9L409.9,462M404.4,478.6L406.5,476.2L408.5,472.6M401.1,478.2L404.4,478.6M403.6,451L403.7,451.2L404.1,451.6L404.5,452M458.7,451.6L470.9,445.2M418.6,476.5L435.5,479M424.5,461.1L418.6,476.5M441.5,463.5L424.5,461.1M418.6,476.5L417.7,478.9L417,481.6L416.7,484.5L416.6,487.2M418.6,476.5L415.3,475.9L413.6,475.4L412.1,474.7L410.8,473.9L410,473.3M416.6,487.2L413.3,486.8L411.6,486.7L409.9,486.8L408.4,487L407.1,487.3L405.8,487.8M405.8,480.1L405.8,487.8M410,473.3L408,477.4L405.8,480.1M462.4,461.7L460.7,459.5L459.4,457L458.8,454.2L458.7,451.6M441.5,463.5L442.3,461.1L443,458.4L443.3,455.6L443.4,452.9M424.5,461.1L421.5,459.9L419.9,459.2L418.4,458.3L417.2,457.2L416.2,456L415,453.7M411.8,461.9L411.4,467.1L410.4,472.1L410,473.3M414,506.4L414,506.2L413.9,506.1L413.9,506L414,505.9L414.1,505.8L414.5,505.8M414.5,505.8L416.6,506.2M414.3,506.7L414,506.4M445.4,511.3L414.3,506.7M408.5,472.6L408.9,472.7L409.3,472.9L409.7,473.1L410,473.3M404.4,478.6L404.9,478.8L405.3,479.1L405.7,479.6L405.8,480.1M405.8,499.5L407.2,498.9L408.7,498.6L410.6,498.4L413.5,498.4L414.5,498.5M405.8,487.8L405.8,499.5M414.5,498.5L414.5,505.8M663.3,388.7L477.4,485.9M669.2,388.4L666.3,387.7L663.3,388.7M669.2,404.6L669.2,388.4M471.5,508L669.2,404.6M403.9,480.2L404.4,480.3L405,480.3L405.5,480.2L405.8,480.1M403.9,480.2L403.9,479.5L404,479.3L404.1,479L404.2,478.9L404.4,478.6M405.8,499.5L405.7,499.5M405.7,499.5L405.7,501.5M400.7,479.1L400.7,478.8L400.8,478.6L400.9,478.5L401.1,478.2M484.8,392.3L484.5,392.4L484,392.5L482.9,392.5M426.5,450.4L426.4,453.1L426.1,455.9L425.4,458.7L424.5,461.1M405.1,471L405.1,453.1M669.2,404.6L667.9,405.8M667.9,405.8L470.3,509.1M648.3,364.6L659.6,378.5M473.7,475.7L659.6,378.5M474.6,455.4L462.4,461.7M482.3,464.9L474.6,455.4M485,466.6L484.8,466.7L484.6,466.6L484.3,466.6L484,466.4L483.7,466.2L483.3,466L483,465.6L482.6,465.3L482.3,464.9M486.1,466.1L485,466.6M535.2,437.3L527.4,427.7M537.9,439L537.5,439L537.2,438.9L536.9,438.8L536.5,438.6L535.9,438L535.5,437.7L535.2,437.3M538.9,438.4L537.9,439M588.1,409.6L580.3,400.1M590.8,411.3L590.6,411.4L590.3,411.4L590.1,411.3L589.8,411.1L589.4,410.9L589.1,410.7L588.7,410.4L588.4,410L588.1,409.6M591.8,410.8L590.8,411.3M641,382L633.2,372.4M643.6,383.7L643.2,383.7L642.9,383.6L642.6,383.5L642.3,383.3L642,383L641.6,382.7L641.3,382.4L641,382M644.7,383.1L643.6,383.7M659.6,378.5L661.3,380.7L662.6,383.3L663.2,386L663.3,388.7M474.6,455.4L472,451.6L471.1,448.9L470.9,447.4L470.9,445.2M482.9,464.5L483.2,464.9L483.5,465.2L483.7,465.6L484.3,466L484.5,466.2L484.8,466.2M482.9,464.5L482.9,392.5M475.2,454.9L482.9,464.5M471.6,445.1L471.9,448.7L472.7,451.2L473.7,453L475.2,454.9M485.9,465.7L486,465.5L486.1,465.4L486.1,465.3M471.6,445.1L471.2,445.1L471,445.2L470.9,445.2M482.9,464.5L482.8,464.6L482.7,464.7L482.6,464.7L482.4,464.9L482.3,464.9M475.2,454.9L475,455L474.8,455.2L474.7,455.3L474.6,455.4M484.8,466.2L484.8,466.3L484.9,466.3L484.9,466.5L485,466.6M485.9,465.7L485.9,465.9L486,465.9L486,466L486.1,466.1M527.4,427.7L524.9,423.9L524,421.2L523.8,419.8L523.8,417.6M537.7,364.7L537.4,364.8L536.9,364.9L536.3,364.9L535.8,364.8M151.2,355.2L174.3,358.6M535.8,436.8L536.1,437.2L536.3,437.6L536.6,437.9L536.9,438.2L537.2,438.4L537.6,438.6L537.7,438.6M535.8,436.8L535.8,364.8M528.1,427.3L535.8,436.8M524.5,417.5L524.8,421.1L525.6,423.6L526.6,425.4L528.1,427.3M538.8,438L538.9,437.9L538.9,437.7L539,437.6M524.5,417.5L523.9,417.5L523.8,417.6M151.2,355.2L148.5,354.8L146.4,354.5L144.2,354L141.3,353.2L139.5,352.2L139,351.2M155.7,438.3L161.6,422.9M153.7,448.9L153.8,446.3L154.1,443.4L154.8,440.7L155.7,438.3M535.8,436.8L535.7,436.9L535.7,437L535.6,437L535.4,437.2L535.3,437.2L535.3,437.3L535.2,437.3M528.1,427.3L527.9,427.4L527.7,427.5L527.6,427.7L527.4,427.7M537.7,438.6L537.7,438.7L537.8,438.7L537.8,438.9L537.9,439M153.7,448.9L148,448.7L142.6,450.1M142.6,466.3L170.8,470.4M142.6,450.1L142.6,466.3M538.8,438L538.8,438.3L538.9,438.3L538.9,438.4M142.6,466.3L143.2,467.4M170,471.2L143.2,467.4M580.3,400.1L577.7,396.3L576.9,393.6L576.7,392.1L576.6,389.9M161.6,422.9L162.5,420.4L163.2,417.7L163.5,414.9L163.6,412.2M152.9,418.6L153.1,418.4M135.9,439.9L140.1,438.5L145,437.8L148.6,437.7L152.4,437.9L155.7,438.3M135.1,439.1L135,439.6L135.1,439.9L135.4,440L135.9,439.9M135.9,439.9L136.7,442.1L138.1,444.6L140.2,447.4L142.6,450.1M130.4,462.3L130.9,463.3L132.7,464.3L135.5,465.1L138.9,465.8L142.6,466.3M143.2,467.4L136.7,466.2L134,465.5L132.3,464.5L132.2,464.5M590.6,337L590.3,337.1L589.8,337.2L588.7,337.2M588.7,409.2L589,409.6L589.2,409.9L589.5,410.3L589.8,410.5L590,410.8L590.3,410.9L590.6,410.9M588.7,409.2L588.7,337.2M580.9,399.6L588.7,409.2M577.4,389.9L577.6,393.4L578.5,395.9L579.5,397.7L580.9,399.6M591.7,410.4L591.8,410.3L591.8,410M577.4,389.9L577.2,389.8L577,389.8L576.8,389.9L576.6,389.9M588.7,409.2L588.6,409.2L588.5,409.3L588.5,409.4L588.4,409.4L588.3,409.5L588.2,409.6L588.1,409.6M580.9,399.6L580.8,399.8L580.6,399.9L580.4,400L580.3,400.1M590.6,410.9L590.6,411.1L590.7,411.2L590.7,411.3L590.8,411.3M591.7,410.4L591.7,410.6L591.8,410.7L591.8,410.8M633.2,372.4L630.6,368.6L629.8,366L629.6,364.5L629.5,362.3M643.5,309.4L643.1,309.5L642.7,309.6L642.1,309.6L641.6,309.5M641.6,381.5L641.8,381.9L642.1,382.3L642.4,382.6L642.7,382.9L642.9,383.1L643.1,383.2L643.3,383.3L643.5,383.3M641.6,381.5L641.6,309.5M633.8,372L641.6,381.5M630.3,362.2L630.5,365.8L631.3,368.3L632.4,370.1L633.8,372M644.5,382.7L644.7,382.6L644.7,382.3M630.3,362.2L629.7,362.2L629.5,362.3M641.6,381.5L641.4,381.7L641.3,381.7L641.2,381.8L641.2,381.9L641.1,381.9L641,382M633.8,372L633.7,372.1L633.5,372.2L633.3,372.4L633.2,372.4M643.5,383.3L643.5,383.5L643.6,383.5L643.6,383.7M644.5,382.7L644.6,382.8L644.6,383L644.7,383.1M664.4,291.7L664.3,292.3L663.8,292.9L663,293.6L661.9,294.3L660.5,295M659.6,378.5L661.3,377.7L663.2,377L664.8,376.7L666.8,376.8L668.3,377.7M668.3,377.7L670,379.8L670.7,382.4L670.3,385.4L669.2,388.4M669.2,404.6L671,403.6L672.5,402.5L673.1,401.4L673,401.3M670.9,403.9L667.9,405.8M189,377.6L188.8,376.5L188.3,375.6L187.5,374.9L186.5,374.5L185.6,374.6L184.8,375.1L184.2,375.9L184.1,376.9L184.2,377.9L184.8,378.9L185.6,379.6L186.5,379.9L187.5,379.8L188.3,379.4L188.8,378.6L189,377.6M186,371.9L185,372.2L183.7,373.1L182.9,374.5L182.7,376.2L182.9,377.9L183.7,379.5L185,380.8L186.5,381.6L188.1,381.9L189.6,381.5L190.8,380.6L191,380.2M192.1,377.5L191.8,375.7L191,374L189.7,372.7L188.2,371.9L186.6,371.6L185,372L183.8,373L183,374.4L182.8,374.8M186.4,381.6L186.6,381.7L188.2,381.9L189.7,381.5L191,380.6L191.8,379.2L192.1,377.5M187.6,371.1L186.1,371.5L186,371.5M190.9,380.9L192,380L192.2,379.8M188.9,377.6L188.7,376.6L188.2,375.7L187.4,375L186.5,374.7L185.6,374.7L184.9,375.2L184.4,375.9L184.2,376.9L184.4,377.9L184.9,378.8L185.6,379.4L186.5,379.8L187.4,379.7L188.2,379.3L188.7,378.5L188.9,377.6M186.7,374.9L186.3,374.9M186.3,374.9L185.9,374.9L185.7,375L185.5,375.1L185.1,375.3L184.9,375.5L184.8,375.6M184.8,375.6L184.7,375.7L184.7,375.8L184.6,375.8L184.6,376M184.6,376L184.5,376.2L184.4,376.4L184.4,377.4L184.5,377.7L184.6,377.9M184.6,377.9L184.6,378.1L184.7,378.1L184.7,378.3L184.8,378.3M184.8,378.3L184.9,378.5L185.1,378.7L185.5,379.1L185.7,379.2L185.9,379.3L186.3,379.5M186.3,379.5L186.6,379.5L186.6,379.6L186.7,379.6M186.7,379.6L186.9,379.6L187.2,379.5L187.4,379.5L187.6,379.4L187.8,379.3L188,379.1L188.1,379L188.3,378.8M188.3,378.8L188.3,378.7L188.4,378.7L188.4,378.5M188.4,378.5L188.5,378.3L188.6,378L188.6,377L188.5,376.8L188.4,376.5M188.4,376.5L188.4,376.3L188.3,376.3L188.3,376.2M188.3,376.2L188.1,375.9L188,375.7L187.8,375.5L187.6,375.4L187.4,375.2L187.2,375.1L186.9,375L186.7,374.9M187,375.2L186.9,375.1L186.9,375L186.8,375L186.7,374.9M188.3,376.2L188.1,376L188,376M188,376L187.8,375.9L187.6,375.9L187.4,375.7L187.3,375.6L187.1,375.4L187,375.2M188.4,376.8L188.5,376.8L188.5,376.6L188.4,376.5M188.4,378.5L188.5,378.4L188.5,378.2L188.4,378.1M188.4,378.1L188.3,377.8L188.3,377.1L188.4,377L188.4,376.8M185.1,375.6L185,375.5L184.9,375.6L184.8,375.6M186.3,374.9L186.2,374.9L186.2,375L186.1,375L186.1,375.1M186.1,375.1L186.1,375.3L186,375.4L185.8,375.5L185.6,375.6L185.1,375.6M188,378.8L188.1,378.9L188.2,378.9L188.2,378.8L188.3,378.8M186.7,379.6L186.8,379.5L186.9,379.5L186.9,379.4L187,379.4L187,379.3M187,379.3L187.1,379.1L187.3,378.9L187.5,378.7L187.9,378.7L188,378.8M186.8,375L186.7,375.1L186.6,375.1M188.2,378.4L188.3,378.3L188.5,378.3M187,378.8L187,379L187.1,379L187.2,379.1M185.9,378L186.3,378L186.4,378.1L186.6,378.2L186.8,378.4L186.9,378.6L187,378.8M185.6,377.9L185.7,377.9L185.7,378L185.9,378M185.4,377.5L185.5,377.5L185.5,377.7L185.6,377.7L185.6,377.9M185.5,377.1L185.5,377.2L185.4,377.2L185.4,377.5M185.5,375.9L185.6,376L185.7,376.2L185.8,376.4L185.8,376.7L185.7,376.9L185.6,377L185.5,377.1M185.4,375.6L185.4,375.7L185.5,375.8L185.5,375.9M186.1,379.2L186.2,379.3L186.2,379.4L186.3,379.5M184.8,378.3L184.8,378.4L185.1,378.4M185.1,378.4L185.7,378.4L185.9,378.6L186.1,378.7L186.1,379.2M184.7,377.6L184.6,377.6L184.6,377.9M184.6,376L184.6,376.2L184.7,376.3M184.7,376.3L184.9,376.5L185.1,376.7L185.1,377L185,377.2L184.9,377.4L184.7,377.6M185.5,375.9L184.7,376.3M187,378.8L186.1,379.2M185.9,378L185.1,378.4M185.5,377.1L184.7,377.6M185.6,377.9L184.8,378.3M185.4,377.5L184.6,377.9M389.6,406.7L389.4,405.7L388.9,404.7L388.1,404L387.1,403.7L386.2,403.7L385.4,404.2L384.8,405L384.6,406L384.8,407.1L385.4,408L386.2,408.7L387.1,409.1L388.1,409L388.9,408.5L389.4,407.7L389.6,406.7M386.6,401L385.6,401.3L384.3,402.3L383.5,403.7L383.3,405.3L383.5,407.1L384.3,408.7L385.6,410L387.1,410.8L388.7,411L390.2,410.6L391.4,409.7L391.6,409.4M392.7,406.6L392.4,404.8L391.6,403.2L390.3,401.8L388.8,401L387.2,400.8L385.6,401.2L384.4,402.1L383.6,403.5L383.4,404M387,410.8L387.2,410.8L388.8,411.1L390.3,410.7L391.6,409.7L392.4,408.3L392.7,406.6M388.2,400.2L386.7,400.6L386.6,400.7M391.5,410.1L392.6,409.2L392.8,409M389.5,406.7L389.3,405.7L388.8,404.8L388,404.2L387.1,403.8L386.2,403.9L385.5,404.3L384.9,405.1L384.8,406L384.9,407L385.5,407.9L386.2,408.6L387.1,408.9L388,408.9L388.8,408.4L389.3,407.7L389.5,406.7M387.3,404.1L387,404.1L387,404L386.9,404M386.9,404L386.7,404L386.5,404.1L386.3,404.1L386,404.2L385.9,404.3L385.7,404.5L385.5,404.6L385.4,404.8M385.4,404.8L385.3,404.8L385.3,405L385.2,405L385.2,405.1M385.2,405.1L385.1,405.3L385,405.6L385,406.6L385.1,406.8L385.2,407.1M385.2,407.1L385.2,407.2L385.3,407.3L385.3,407.4L385.4,407.5M385.4,407.5L385.5,407.7L385.9,408.1L386,408.2L386.3,408.4L386.5,408.5L386.7,408.6L386.9,408.7M386.9,408.7L387.3,408.7M387.3,408.7L387.8,408.7L388,408.6L388.2,408.5L388.4,408.4L388.6,408.3L388.7,408.1L388.9,408M388.9,408L388.9,407.8L389,407.8L389,407.6M389,407.6L389.1,407.4L389.2,407.2L389.2,406.2L389.1,405.9L389,405.7M389,405.7L389,405.5L388.9,405.4L388.9,405.3M388.9,405.3L388.7,405.1L388.6,404.9L388.2,404.5L388,404.4L387.8,404.3L387.5,404.2L387.3,404.1M387.6,404.3L387.4,404.1L387.3,404.1M388.9,405.3L388.8,405.2L388.7,405.2L388.7,405.1L388.6,405.1M388.6,405.1L388.4,405.1L388,404.9L387.9,404.7L387.7,404.5L387.6,404.3M389,406L389.1,405.9L389.1,405.7L389,405.7M389,407.6L389.1,407.6L389.1,407.4L389,407.3M389,407.3L388.9,407L388.9,406.1L389,406M386.9,404L386.9,404.1L386.8,404.1L386.7,404.2M385.7,404.7L385.5,404.7L385.4,404.8M386.7,404.2L386.7,404.4L386.6,404.6L386.4,404.7L386.2,404.7L386,404.8L385.7,404.7M388.6,408L388.9,408M387.3,408.7L387.5,408.7L387.5,408.6L387.6,408.5M387.6,408.5L387.7,408.2L387.9,408L388.1,407.9L388.5,407.9L388.6,408M387.4,404.1L387.3,404.2L387.2,404.3M388.8,407.6L388.8,407.5L389.1,407.5M387.6,407.9L387.6,408.1L387.7,408.1L387.7,408.2L387.8,408.2M386.5,407.2L386.7,407.1L386.9,407.2L387,407.2L387.2,407.3L387.3,407.4L387.5,407.8L387.6,407.9M386.2,407L386.3,407L386.3,407.1L386.4,407.1L386.4,407.2L386.5,407.2M386,406.6L386.1,406.7L386.1,406.8L386.2,406.9L386.2,407M386.1,406.3L386.1,406.4L386,406.4L386,406.6M386.1,405L386.2,405.2L386.3,405.3L386.4,405.5L386.4,405.9L386.3,406L386.2,406.2L386.1,406.3M386,404.7L386,404.9L386.1,404.9L386.1,405M386.7,408.4L386.8,408.5L386.8,408.6L386.9,408.6L386.9,408.7M385.4,407.5L385.5,407.6L385.7,407.6M385.7,407.6L386,407.5L386.3,407.6L386.5,407.7L386.7,407.9L386.7,408.4M385.3,406.7L385.2,406.8L385.2,407.1M385.2,405.1L385.2,405.4L385.3,405.4M385.3,405.4L385.5,405.6L385.6,405.9L385.7,406.1L385.6,406.3L385.5,406.5L385.3,406.7M386.1,405L385.3,405.4M387.6,407.9L386.7,408.4M386.5,407.2L385.7,407.6M386.1,406.3L385.3,406.7M386.2,407L385.4,407.5M386,406.6L385.2,407.1M396.7,392.6L396.7,391.4L396.6,390.8L396.5,390.5L396.4,390.2L396.1,390L395.3,389.7L394.2,389.5M394.2,389.5L395.6,386.1M395.6,386.1L397.7,386.6L398.7,387.1L399.5,387.9L400,388.8L400.4,389.9L400.6,392.3M396.7,392.6L400.6,392.3M400.6,392.3L400.6,452.7M396.7,454.4L399.3,453.2L400.6,452.7M396.7,454.4L396.7,392.6M335.7,451.8L335.5,450.9L335,450L334.3,449.4L333.4,449.1L332.6,449.1L331.8,449.6L331.3,450.3L331.2,451.2L331.3,452.2L331.8,453L332.6,453.7L333.4,454L334.3,453.9L335,453.5L335.5,452.8L335.7,451.8M299.6,413.1L299.9,410.9L300.7,408.9L301.9,407.3L303.6,406.1L305.5,405.5L307.6,405.5L309.7,406.1L311.6,407.3L313.3,408.9L314.6,410.9L315.4,413.1L315.6,415.4L315.4,417.6L314.6,419.6L313.3,421.2L311.6,422.4L309.7,423L307.6,423L305.5,422.4L303.6,421.2L301.9,419.6L300.7,417.6L299.9,415.4L299.6,413.1M299.6,392.6L299.9,390.4L300.7,388.4L301.9,386.8L303.6,385.7L305.5,385.1L307.6,385.1L309.7,385.7L311.6,386.8L313.3,388.5L314.6,390.5L315.4,392.7L315.6,395L315.4,397.2L314.6,399.2L313.3,400.8L311.6,401.9L309.7,402.5L307.6,402.5L305.5,401.9L303.6,400.8L301.9,399.2L300.7,397.2L299.9,394.9L299.6,392.6M178.5,376.4L178.7,374.2L179.6,372.3L180.9,370.8L182.5,369.7L184.5,369.3L186.5,369.4L188.5,370.2L190.3,371.5L191.8,373.2L192.9,375.2L193.4,377.5L193.4,379.7L192.9,381.8L191.8,383.5L190.3,384.8L188.5,385.6L186.5,385.7L184.5,385.3L182.5,384.3L180.9,382.7L179.6,380.8L178.7,378.7L178.5,376.4M379.1,405.6L379.3,403.4L380.2,401.5L381.5,399.9L383.1,398.9L385.1,398.4L387.1,398.6L389.1,399.3L390.9,400.6L392.4,402.3L393.5,404.4L394,406.6L394,408.9L393.5,410.9L392.4,412.7L390.9,414L389.1,414.7L387.1,414.9L385.1,414.4L383.1,413.4L381.5,411.9L380.2,410L379.3,407.8L379.1,405.6M175.8,469.5L175.9,470.7L176,471.3L176,471.4M175.8,360.5L175.8,469.5M178.3,358.1L177.2,358L176.7,358L176.4,358.1L176.2,358.2L176.1,358.5L175.9,359.3L175.8,360.5M394.2,389.5L178.3,358.1M395.7,456.2L396.4,455.4L396.7,454.8L396.7,454.4M392.5,455.8L395.7,456.2M392.5,478.6L392.5,455.8M395.7,479L392.5,478.6M396.7,481.2L396.6,480.6L396.2,479.7L395.7,479M396.7,501.6L396.7,481.2M396.6,503.5L396.7,502.8L396.7,501.6M404.4,390.3L404.4,389.7M404.4,390.3L400.6,392.3M178.3,358.1L179.7,354.7M179.7,354.7L395.6,386.1M400.6,452.7L400.6,453.1M404.4,418L404.4,390.3M402.4,424.5L402.5,423.6L402.6,422.7L402.7,421.7L403,420.8L403.3,420L403.6,419.2L404,418.6L404.4,418M402.4,440.9L402.4,424.5M404.4,445.3L404,445.2L403.6,445L403.3,444.6L403,444L402.7,443.4L402.6,442.6L402.5,441.8L402.4,440.9M404.4,449.6L404.4,445.3M400.6,453.1L401.1,452.5L401.5,451.9L402,451.3L402.5,450.9L402.9,450.4L403.4,450.1L403.9,449.8L404.4,449.6M382.1,405.3L382.4,407.3L383.3,409.2L384.6,410.7L386.3,411.7L388.1,412.1L389.9,411.9L391.4,411.1L392.5,409.7L393.1,407.9L393.1,405.9L392.5,404L391.4,402.2L389.9,400.9L388.1,400.2L386.3,400.1L384.6,400.6L383.3,401.8L382.4,403.4L382.1,405.3M385.6,400.2L385.5,400.3L384.4,401.7L384,402.7M388.4,411.1L388.8,411.2L390.6,411.3L391.3,411.1M404.6,390.1L404.4,390.3M404.4,389.7L404.6,390.1M404.6,390.1L404.6,390.2M400.6,453.1L400.7,453.5L400.6,453.8L400.4,453.9M403.5,450.9L403.8,450.8L404.2,450.4L404.4,449.9L404.4,449.6M403.3,443.8L403.6,443.8L403.8,443.9L404,444.1L404.2,444.3L404.3,444.5L404.4,444.8L404.4,445.3M401.9,454.9L401.9,452.1M400,455.9L401.9,454.9M394.4,464.8L394.7,462.9L395.2,461.1L395.8,459.5L396.5,458.1L397.4,457.1L398.2,456.3L399.1,455.9L400,455.9M394.4,456.1L394.4,464.8M394,478.4L392.5,478.6M394.4,469.3L394.4,464.8M394.4,469.3L394.4,478.5M398.3,457.4L398.8,457.4L399.3,457.2L399.6,456.8L399.9,456.3L400,456L400,455.9M399.2,470.9L399.3,471L399.6,471.4L399.9,471.9L400,472.3M400,472.3L399.1,473.2L398.2,473.7L397.4,473.9L396.5,473.7L395.8,473L395.2,472.1L394.7,470.8L394.4,469.3M395.7,479L395.9,478.8L395.8,478.7L395.6,478.7L395.2,478.6M395.8,478.8L396.7,479.2L398.2,479.6L399.7,480M400.6,481.8L400.7,481.3L400.6,480.8L400.4,480.4L400.1,480.1L399.7,480M400.6,481.8L400.6,482.3M400.6,482.3L399.3,482L398,481.6L396.7,481.2M403.4,443.8L403.3,443.8M404.6,449.4L404.5,449.5L404.4,449.6M400.6,501.3L396.7,501.6M400.6,482.3L400.6,501.3M398.3,457.4L398,457.4M401.9,471.2L400,472.3M401.9,477.3L401.9,471.2M398.9,479L399,478.9L399.1,478.9M397.7,479.5L398.3,479.3L398.9,479M394,478.4L395.2,478.6M402.9,479.6L398.9,479M404.4,481.4L404.4,481L404.2,480.5L403.8,480L403.4,479.7L402.9,479.6M404.4,481.4L403.9,481.7L403.4,481.9L402.9,482L402.5,482.1L401.5,482.1L401.1,482L400.6,481.8M404.4,499.3L404.4,481.4M400.6,501.3L404.4,499.3M400.6,501.3L400.4,503.2M401.9,454.9L401.9,455.2L401.8,455.5L401.7,455.8L401.5,456L401.3,456.2L401.2,456.2M400.4,469.4L400.7,469.5L401,469.6L401.3,469.8L401.5,470L401.7,470.3L401.8,470.6L401.9,470.9L401.9,471.2M302.6,392.4L302.9,394.4L303.8,396.4L305.1,398L306.8,399.2L308.7,399.8L310.5,399.8L312.2,399.1L313.5,397.8L314.4,396.1L314.7,394.1L314.4,392.1L313.5,390.1L312.2,388.5L310.5,387.3L308.7,386.7L306.8,386.8L305.1,387.5L303.8,388.7L302.9,390.4L302.6,392.4M302.6,412.8L302.9,414.9L303.8,416.8L305.1,418.5L306.8,419.6L308.7,420.2L310.5,420.2L312.2,419.5L313.5,418.2L314.4,416.5L314.7,414.6L314.4,412.5L313.5,410.6L312.2,408.9L310.5,407.7L308.7,407.2L306.8,407.2L305.1,407.9L303.8,409.1L302.9,410.8L302.6,412.8M333.2,450.2L333.3,449.2L333.4,449.1M335.4,452.9L334.5,452.6L333.8,452L333.3,451.1L333.2,450.2M181.5,376.1L181.8,378.1L182.7,380L184,381.5L185.7,382.6L187.5,383L189.3,382.8L190.8,381.9L191.9,380.5L192.5,378.7L192.5,376.8L191.9,374.8L190.8,373.1L189.3,371.8L187.5,371L185.7,370.9L184,371.5L182.7,372.6L181.8,374.2L181.5,376.1M185,371.1L184.9,371.2L183.8,372.6L183.4,373.5M187.8,381.9L188.2,382L190,382.1L190.7,382M175.8,360.5L174.6,359.4M174.6,359.4L174.8,357.2L175.2,356.1L175.7,355.3L176.6,354.8L177.5,354.6L179.7,354.7M175.8,469.5L174.6,468.4M174.6,468.4L174.6,359.4M174.9,471L174.8,470.8L174.6,468.4M157.7,470L157.7,470.4L158.4,471.3L159.6,472.1L160.1,472.3M169.4,474.7L166.7,474.4M436,510.4L436.1,510.9L436.7,511.7L438,512.5L439.8,513.3L442,513.9L444.7,514.4L447.7,514.7L450.6,514.9M459.7,514.4L460.1,514.4L462.7,513.9L465,513.2L466.7,512.5L467.9,511.7L468.5,510.8L468.6,510.4M467.6,512L467.1,512.5L465.7,513.3L463.9,514L461.5,514.5L458.8,515M451.2,515.4L449.5,515.3L446.4,515.1L443.6,514.6L441.2,514.1L439.2,513.4L437.8,512.6L437.1,512M637.5,421.7L639.9,421.2L642.1,420.6L643.9,419.9L645.1,419.1L645.7,418.2L645.8,417.8M644.7,419.4L644.2,419.8L642.9,420.6L641,421.3L638.7,421.9L636.4,422.3M449.8,512.3L449,512.1L447.6,511.6L446.9,511.2M463.2,510.8L462.6,511.3L461.4,511.9L460.4,512.2M458.4,515.3L458.4,515.4L457.4,515.7L456,515.9L454.5,516L453,515.8L451.8,515.6L451.3,515.3M458.7,515.2L458.4,515.4L457.4,515.8L456,516L454.5,516L453,515.9L451.8,515.6L451.1,515.2L451,515.2M149.5,468.3L148.3,468.3L146,468.1L144,467.8L142.3,467.4L141.1,466.8L140.6,466.4M151.1,468.5L149.6,468.6L147.4,468.5L145.2,468.3L143.3,468L142,467.5L141.1,466.9L141.1,466.8M152.5,470.9L151.5,471.3L150.1,471.5L148.6,471.5L147.1,471.4L145.9,471.1L145.4,470.9M152.8,470.7L152.5,471L151.5,471.3L150.1,471.5L148.6,471.6L147.1,471.4L145.9,471.2L145.2,470.8L145.1,470.7M658.1,411L658,411L657.8,411.1M658.3,410.8L658,411.1L657.4,411.3M305.7,397.1L307.1,398L308.7,398.3L310.2,397.9L311.3,397L312.1,395.6L312.3,393.9L311.9,392.2L311,390.7L309.6,389.6L308.1,389L306.6,389L305.2,389.7L304.2,390.9L303.8,392.4L303.9,394.2L304.5,395.8L305.7,397.1M305.7,417.6L307.1,418.4L308.7,418.7L310.2,418.3L311.3,417.4L312.1,416L312.3,414.3L311.9,412.6L311,411.1L309.6,410L308.1,409.4L306.6,409.5L305.2,410.1L304.2,411.3L303.8,412.9L303.9,414.6L304.5,416.2L305.7,417.6M401.7,470.3L402.3,470.4M402.3,470.4L402.3,470.1M402.3,470.1L401.4,470M401.4,456L402.3,456.1M402.3,456.1L402.3,455.9M402.3,455.9L402.3,455.8M402.3,455.8L401.8,455.8M402.4,451.6L402.4,474.2M402.4,474.2L402.3,475.3L402,476.3L401.9,476.5M404.4,452L404.4,471.2M404.4,471.9L404.4,472.9M335.7,452.1L335.1,451.5M335.1,450.6L335.1,451.5M334.4,450.5L335.1,450.6M335.1,451.2L334.7,450.7M334.7,450.7L334.7,450.5M334.2,450.4L334.3,450.4L334.3,450.5L334.4,450.5M401.7,463.2L401.5,461.4L401.1,459.8L400.4,458.8L399.6,458.4L398.6,458.5L397.7,459.3L396.8,460.7L396.2,462.4L395.7,464.4L395.6,466.4M394.8,466.5L395.4,466.5L395.5,466.4L395.6,466.4M399,457.7L399.1,457.7M401.3,463.4L401.1,465.4L400.6,467.3L399.9,468.8L399.1,469.9L398.2,470.4L397.3,470.2L396.6,469.4L396.1,468L396,466.2M396,466.2L396.1,464.2L396.6,462.4L397.3,460.8L398.2,459.7L399.1,459.2L399.9,459.4L400.6,460.3L401.1,461.7L401.3,463.4M395.6,466.4L395.7,468.3L396.2,469.8L396.8,470.8L397.7,471.3L398.6,471.1L399.6,470.3L400.4,468.9L401.1,467.2L401.5,465.2L401.7,463.2M401.3,463.4L401.2,463.5L400.5,463.5M397.2,471.8L397.1,471.8M190.1,343.5L186.7,343.3L185,343.5L183.3,343.9L182.1,344.5M176.2,348L176.6,346.6M151,351.1L148.1,350.6L145.9,350.3L143.4,349.8L141.1,349.3L136.9,348.1L134.4,346.7L133.7,345.3M177.5,328.8L178.7,330.6M669.8,285.7L669.8,285.8L669.7,286.4L669.4,286.9L668.9,287.5L667.7,288.5L666.2,289.4L664.2,290.5M413.8,498.1L413.9,498.3M414.4,507.5L415.1,506.9M231.8,474.5L231.9,474.3L232.1,474.3L232.4,474.2L233.1,474.3M230.6,481.3L230.6,481.5L230.8,481.6L231.1,481.6L231.8,481.8M230.6,481.9L230.6,482L230.8,482.1L231.1,482.2L231.8,482.3M233.1,488.9L233.1,488.8L233.4,488.5L233.8,488M230.3,482L230.6,481.3M442,397.5L442,395.6M468.9,394.2L468.9,395.2M405.8,416.8L405.5,417L404.6,417M415,453.7L415,393.6M660.5,295L660.5,294.3M405.8,416.8L405.7,417.4L405.3,417.8L404.9,418L404.7,418M406.3,421.7L406.2,420.9L406.1,420.2L406,419.5L405.7,419L405.5,418.5L405.2,418.2L404.8,418.1L404.7,418.1M443.4,452.9L443.4,397.7M458.7,398.3L458.7,451.6M426.5,395.3L426.5,450.4M404.6,445.2L405,445.2L405.5,445.1L405.8,445M404,444.3L404,444.2L404.1,443.9L404.2,443.8L404.4,443.5M403.4,443.4L404.4,443.5M404.5,449.6L405,449.6L405.5,449.5L405.8,449.4M404.4,450.6L404.2,450.6M409.9,462L409.8,459.6L409.5,457.3L409.1,455.3L408.4,453.6L407.6,452.3L406.6,451.3L405.5,450.8L405.1,450.7M470.9,445.2L470.9,394.2M411,498.7L411,498.4M482.2,388.4L482.4,388.5L482.7,389.2L482.8,390.2L482.9,392.5M482.9,392.5L476,391.5M486.1,464.8L486.2,465.1L486.3,465.4L486.3,465.7L486.2,465.9L486.1,466.1M527.4,427.7L486.1,449.4M539,437.1L539.1,437.4L539.2,437.8L539.2,438.1L539.1,438.3L538.9,438.4M580.3,400.1L539,421.7M591.8,409.5L591.9,409.6L592,410L592,410.5L591.9,410.7L591.8,410.8M633.2,372.4L591.8,394.1M644.7,381.8L644.8,382.1L644.9,382.5L644.9,382.8L644.8,383L644.7,383.1M648.3,364.6L644.7,366.4M486,391.5L486.1,391.6L485.9,391.8M471.6,393.8L471.6,445.1M523.8,417.6L523.8,366.5M486.1,437.3L523.8,417.6M535.1,360.7L535.2,360.9L535.5,361.6L535.7,362.6L535.8,364.8M535.8,364.8L528.9,363.8M151.2,353.4L151.2,355.2M538.9,363.9L538.9,364L538.8,364.1M524.5,366.1L524.5,417.5M576.6,389.9L576.6,338.9M539,409.6L576.6,389.9M163.6,412.2L174.6,413.8M163.6,357L163.6,412.2M174.6,424.7L161.6,422.9M155.7,438.3L174.6,441.1M174.6,452L153.7,448.9M156.6,409.9L156.9,410.5L157.9,411L159.5,411.5L163.6,412.2M161.6,422.9L159.5,422.5L158,422.2L156.7,422L155.6,421.7L154,421.1L152.9,420.4L152.5,419.8L152.6,419L152.8,418.7L152.9,418.6M140.5,430L140.3,430.2L138.6,432.1L136.6,435.4L135.1,439.1M142.6,450.1L138.9,449.5L135.5,448.8L132.7,448L130.9,447L130.4,446M135.1,439.1L133.4,439.2L132.9,439.6M587.9,333.1L588.1,333.2L588.4,334L588.6,334.9L588.7,337.2M588.7,337.2L581.8,336.2M591.8,336.2L591.8,336.3L591.7,336.5M577.4,338.5L577.4,389.9M629.5,362.3L629.5,311.2M591.8,382L629.5,362.3M640.8,305.4L641,305.6L641.3,306.3L641.5,307.3L641.6,309.5M641.6,309.5L634.7,308.5M644.7,308.6L644.7,308.7L644.5,308.8M630.3,310.8L630.3,362.2M648.3,364.6L646.6,362.4L645.3,359.8L644.7,357.1M644.6,354.4L646.5,353.2L646.8,352.5M650.5,361.2L650.9,361.9L650.8,362.6L650.6,363L650.3,363.3L649.8,363.7L649.2,364.1L648.3,364.6M668.3,377.7L668.5,377.8L668.4,377.7M673,385L673.1,385.1L672.5,386.3L671,387.4L669.2,388.4M191.8,377.5L191.6,375.8L190.8,374.1L189.6,372.9L188.1,372L186.5,371.8L186,371.9M191,380.2L191.6,379.2L191.8,377.5M186.5,374.9L186.1,375.1M188.4,378.7L188,378.8M185,375.5L184.8,375.6M186.9,379.4L186.7,379.6M185.3,375.6L184.6,376M187.1,379.1L186.3,379.5M392.4,406.7L392.2,404.9L391.4,403.3L390.2,402L388.7,401.2L387.1,401L386.6,401M391.6,409.4L392.2,408.3L392.4,406.7M387.1,404.1L386.7,404.2M389,407.8L388.6,408M385.6,404.7L385.4,404.8M387.5,408.6L387.3,408.7M385.9,404.7L385.2,405.1M387.7,408.2L386.9,408.7M395.6,386.1L401,383.3M404.4,389.7L405.8,389M185.2,351.8L179.7,354.7M404.6,417.8L404.6,417.9L404.5,418L404.4,418M402.6,424.4L402.5,424.5L402.4,424.5M404.2,418.8L404.3,418.7L404.4,418.5L404.4,418M402.6,440.7L402.6,440.8L402.5,440.8L402.4,440.9M398.3,457.4L398.1,457.4M395.9,472L396.3,472L397,471.7M404.6,445.2L404.5,445.3L404.4,445.3M396,471.6L395.5,471.8M400.4,480.2L401.3,480.2L401.7,480.1L402.1,480L402.9,479.6M403.9,502.4L404.3,501.2L404.4,499.3M404.6,481.2L404.4,481.4M403.1,479.5L403,479.5L402.9,479.6M404.5,499.1L404.6,499.1L404.4,499.3M166.4,473.9L169.3,474.3L169.4,474.3M160.1,472.3L161.4,472.8L163.7,473.4L166.4,473.9M450.9,512.5L449.8,512.3M460.4,512.2L459.7,512.3L457.6,512.6L455.4,512.7L453.1,512.7L450.9,512.5M305.7,387.5L306.7,387L308.5,386.9L310.3,387.4L312,388.4L313.3,389.9L314.2,391.7L314.6,393.7L314.4,395.6L313.6,397.3L312.4,398.6L311.8,399M305.7,407.9L306.7,407.5L308.5,407.3L310.3,407.8L312,408.8L313.3,410.3L314.2,412.2L314.6,414.2L314.4,416.1L313.6,417.8L312.4,419L311.8,419.4M404.3,473.3L402.4,474.2M334.4,449.4L334.4,450.5M394.8,466.5L395,464.3L395.4,462.1L396.2,460.2L397.1,458.8L398.1,457.9L399,457.7M394.8,466.5L394.5,466.4M400.5,463.5L400.3,461.7L399.8,460.4L399,459.7L398.9,459.7M397.1,471.8L396.2,471.3L395.4,470.1L395,468.5L394.8,466.5M400.5,463.5L396.5,462.9M397.4,469.8L398.1,469.6L399,468.8L399.8,467.3L400.3,465.5L400.5,463.5" style="fill:none;fill-rule:nonzero;stroke:black;stroke-opacity:0.32;stroke-width:0.58px;"/>
    </g>
    <g transform="matrix(1,0,0,1,-307.820386,-220)">
        <g transform="matrix(0.620689,0,0,0.620689,469.353651,364.571318)">
            <circle cx="1287.73" cy="991.582" r="62.782" style="fill:rgb(6,162,171);fill-opacity:0.46;"/>
        </g>
        <g transform="matrix(0.801724,0,0,0.801724,256.801896,89.197298)">
            <circle cx="1287.73" cy="991.582" r="62.782" style="fill:rgb(6,162,171);fill-opacity:0.46;"/>
        </g>
        <g transform="matrix(0.801724,0,0,0.801724,-374.080122,10.683428)">
            <circle cx="1287.73" cy="991.582" r="62.782" style="fill:rgb(6,162,171);fill-opacity:0.46;"/>
        </g>
        <g transform="matrix(0.305172,0,0,0.305172,699.787023,638.464096)">
            <circle cx="1287.73" cy="991.582" r="62.782" style="fill:rgb(6,162,171);fill-opacity:0.46;"/>
        </g>
        <g transform="matrix(0.400862,0,0,0.400862,505.058351,385.003861)">
            <circle cx="1287.73" cy="991.582" r="62.782" style="fill:rgb(6,162,171);fill-opacity:0.46;"/>
        </g>
        <g transform="matrix(0.400862,0,0,0.400862,505.353915,441.459911)">
            <circle cx="1287.73" cy="991.582" r="62.782" style="fill:rgb(6,162,171);fill-opacity:0.46;"/>
        </g>
    </g>
    <g transform="matrix(1,0,0,1,-262.522302,-194.650454)">
        <g transform="matrix(36,0,0,36,550.556902,792.159229)">
        </g>
        <text x="337.725px" y="792.159px" style="font-family:'Barlow-Regular', 'Barlow';font-size:36px;">Le<tspan x="377.145px " y="792.159px ">f</tspan>t USB por<tspan x="537.453px " y="792.159px ">t</tspan></text>
    </g>
    <g transform="matrix(1,0,0,1,127.438801,-220)">
        <g transform="matrix(36,0,0,36,550.556902,792.159229)">
        </g>
        <text x="344.709px" y="792.159px" style="font-family:'Barlow-Regular', 'Barlow';font-size:36px;">Upper butt<tspan x="511.497px " y="792.159px ">o</tspan>n</text>
    </g>
    <g transform="matrix(1,0,0,1,127.438801,-161.951362)">
        <g transform="matrix(36,0,0,36,550.556902,792.159229)">
        </g>
        <text x="342.765px" y="792.159px" style="font-family:'Barlow-Regular', 'Barlow';font-size:36px;">Lo<tspan x="382.149px 407.493px " y="792.159px 792.159px ">we</tspan>r butt<tspan x="511.497px " y="792.159px ">o</tspan>n</text>
    </g>
    <g transform="matrix(1,0,0,1,142.59313,-59.809016)">
        <g transform="matrix(36,0,0,36,611.17422,792.159229)">
        </g>
        <text x="339.05px" y="792.159px" style="font-family:'Barlow-Regular', 'Barlow';font-size:36px;">DFU mode butt<tspan x="572.114px " y="792.159px ">o</tspan>n</text>
    </g>
    <g transform="matrix(1,0,0,1,730.776886,-114.252271)">
        <g transform="matrix(36,0,0,36,542.529479,792.159229)">
        </g>
        <text x="312.417px" y="792.159px" style="font-family:'Barlow-Regular', 'Barlow';font-size:36px;">Right USB por<tspan x="529.425px " y="792.159px ">t</tspan></text>
    </g>
    <g transform="matrix(1,0,0,1,699.138286,-18.109924)">
        <g transform="matrix(36,0,0,36,489.645479,792.159229)">
        </g>
        <text x="312.417px" y="792.159px" style="font-family:'Barlow-Regular', 'Barlow';font-size:36px;">3.5mm jack</text>
    </g>
</svg>
