<?xml version="1.0" encoding="UTF-8" standalone="no"?><!DOCTYPE svg PUBLIC "-//W3C//DTD SVG 1.1//EN" "http://www.w3.org/Graphics/SVG/1.1/DTD/svg11.dtd"><svg width="100%" height="100%" viewBox="0 0 1100 600" version="1.1" xmlns="http://www.w3.org/2000/svg" xmlns:xlink="http://www.w3.org/1999/xlink" xml:space="preserve" xmlns:serif="http://www.serif.com/" style="fill-rule:evenodd;clip-rule:evenodd;stroke-linecap:round;stroke-linejoin:round;stroke-miterlimit:10;"><path d="M192.122,488.909l-51.174,0m0,0.914l50.946,0m0,0.228l-50.718,0m736.773,-1.142l-51.403,0m0.228,0.914l50.946,0m0,0.228l-50.946,0m73.106,-306.361l51.86,0m-51.86,0l0,3.198m51.86,-7.768l-51.86,0m0,4.569l0,-4.569m-741.571,4.569l51.86,0m0,3.198l0,-3.198m0,-4.569l-51.86,0m51.86,4.569l0,-4.569m741.571,-21.246l-51.86,0m0,-4.569l0,4.569m0,-4.569l49.804,0m-49.804,25.816l0,-21.246m-689.711,0l-51.86,0m51.86,0l0,21.246m-50.032,-25.816l50.032,0m0,0l0,4.569m689.711,-4.569l0,-2.742m47.291,0l-47.291,0m-689.711,0l-47.291,0m47.291,2.742l0,-2.742m689.711,7.311l-689.711,0m591.018,25.816l98.693,0m-98.693,-4.569l0,4.569m-26.044,-0.457l0,-4.112m0,6.397l0,-2.285m-2.513,4.798l2.513,-2.513m-437.723,2.513l435.21,0m-437.723,-2.513l2.513,2.513m-2.513,-4.798l0,2.285m0,-6.397l0,4.112m-26.044,0.457l0,-4.569m-98.693,4.569l98.693,0m-98.693,-30.385l689.711,0m-124.737,29.928l3.884,0m-448.004,0l3.884,0m437.723,4.798l0.457,0.457l0.457,0.457l0.457,0.457l0.228,0.228l0.229,0.457l0.228,0.229l0.228,0m2.285,-3.427l-0.457,-0.229l-0.457,-0.457l-0.457,-0.228l-0.685,-0.457m2.056,2.513l0,-1.142m-439.779,1.142l-0.457,0.457l-0.457,0.457l-0.457,0.457l-0.228,0.228l-0.457,0.457l0,0.229l-0.228,0m-2.285,-3.427l0,0.457l-0.228,0.457l0,0.229m2.285,-2.513l-0.685,0.457l-0.457,0.228l-0.457,0.457l-0.457,0.229m446.176,-2.513l-0.229,0.457l-0.457,0.228l-0.457,0.229l-0.685,0l-0.685,0.228l-1.371,0m3.884,-0.685l0,0.685l-0.457,0.457l-0.685,0.685l-0.685,0.229m-442.292,-1.371l-1.599,0l-0.685,-0.228l-0.457,0l-0.685,-0.229l-0.228,-0.228l-0.229,-0.457m1.828,2.513l-0.914,-0.229l-0.457,-0.685l-0.457,-0.457l0,-0.685m470.164,-1.142l0,3.198m-28.557,1.142l0,2.056m0,0l-435.21,0m0,-2.056l0,2.056m459.884,-7.082l0,0.228l0.228,0l0.228,0.229l1.142,0l0.685,0.228l1.599,0m-28.557,6.397l0.457,0.229l0.229,0.228l0.228,0l0.457,0.228l0.228,0l0.229,-0.228l0.228,0l0.228,-0.228m-439.779,0l0.228,0.228l0.228,0l0.229,0.228l0.228,0l0.228,-0.228l0.457,0l0.229,-0.228l0.457,-0.229m-28.557,-3.198l0,-3.198m0,0l1.599,0l0.685,-0.228l0.914,0l0.457,-0.229l0.228,0l0,-0.228m-102.577,-32.441l0,-1.828m689.711,1.828l0,-1.828m-137.759,51.86l10.509,-10.509m-10.509,10.509l0.457,0.228l0.228,0.228l1.371,0l0.228,-0.228m-426.986,-10.737l10.281,10.509m-2.285,0.228l0.228,0.228l1.371,0l0.457,-0.228l0.228,-0.228m0,0l414.421,0m15.535,-12.794l0,-0.228l-0.228,0l0,-0.229l-0.228,-0.228l0,-0.228m-444.349,0l-0.228,0.228l-0.228,0.457l0,0.228m567.487,-37.238l-689.711,0m551.952,50.032l0,1.142m-414.421,-1.142l0,1.142m444.577,87.499l0,-23.531m0,0l3.884,0m0,23.531l-3.884,0m-456,-42.721l3.427,-2.97l2.741,-3.427l2.285,-3.655l1.599,-4.341l0.685,-4.341l0,-4.341l-0.685,-4.341l-1.599,-4.341l-2.285,-3.655l-2.741,-3.427l-3.427,-2.97m-10.281,60.998l0.228,-2.97l0.457,-2.741l0.914,-2.742l1.142,-2.513l1.371,-2.285l1.827,-2.285l2.056,-2.056l2.285,-1.599m-10.281,42.721l0,-23.531m10.281,42.721l-2.285,-1.828l-2.056,-1.828l-1.827,-2.285l-1.371,-2.513l-1.142,-2.513l-0.914,-2.742l-0.457,-2.741l-0.228,-2.742m-18.505,19.19l-3.427,2.742l-2.742,3.427l-2.285,3.884l-1.599,4.112l-0.685,4.341l0,4.341l0.685,4.341l1.599,4.112l2.056,3.884l2.97,3.427l3.198,2.97l3.884,2.056l4.112,1.599l4.34,0.685l4.569,0l4.341,-0.685l4.112,-1.599l3.884,-2.056l3.198,-2.97l2.97,-3.427l2.056,-3.884l1.599,-4.112l0.685,-4.341l0,-4.341l-0.685,-4.341l-1.599,-4.112l-2.285,-3.884l-2.97,-3.427l-3.198,-2.742m-18.733,-19.19l0,2.742l-0.457,2.741l-0.914,2.742l-1.142,2.513l-1.599,2.513l-1.599,2.285l-2.056,1.828l-2.285,1.828m10.052,-42.721l0,23.531m-10.052,-42.721l2.285,1.599l2.056,2.056l3.198,4.569l1.142,2.513l0.914,2.742l0.457,2.741l0,2.97m-10.052,-60.998l-3.427,2.97l-2.742,3.427l-2.285,3.655l-1.599,4.341l-0.685,4.341l0,4.341l0.685,4.341l1.599,4.341l2.285,3.655l2.742,3.427l3.427,2.97m6.625,-48.433l-0.685,0.914l-0.685,0.914l-0.914,0.914l-0.685,0.914l-0.914,0.914l-0.914,0.685l-0.914,0.685l-0.914,0.685m22.16,-6.625l-15.535,0m22.16,6.625l-1.142,-0.685l-0.914,-0.685l-0.685,-0.685l-0.914,-0.914l-0.914,-0.914l-0.685,-0.914l-0.685,-0.914l-0.685,-0.914m6.625,6.625l0.228,-0.457l0.457,-0.685l0.457,-0.457l0.228,-0.457l0.457,-0.457l0,-0.228l0.228,-0.228l0,-0.229m-2.056,45.006l0.228,0.457l0.457,0.685l0.457,0.457l0.228,0.685l0.457,0.228l0,0.457l0.228,0l0,0.229m-8.681,-51.631l0.685,-0.457l0.685,-0.228l0.457,-0.457l0.457,-0.228l0.457,-0.457l0.228,0l0.228,-0.228l0.228,0m469.25,50.489l3.427,-2.97l2.97,-3.427l2.285,-3.655l1.599,-4.341l0.685,-4.341l0,-4.341l-0.685,-4.341l-1.599,-4.341l-2.285,-3.655l-2.97,-3.427l-3.427,-2.97m0,0l0.457,-0.457l0.457,-0.685l0.457,-0.457l0.228,-0.457l0.457,-0.457l0,-0.228l0.228,-0.228l0,-0.229m-2.285,45.006l0.457,0.457l0.457,0.685l0.457,0.457l0.228,0.685l0.457,0.228l0,0.457l0.228,0l0,0.229m-32.898,55.515l0,0.228l0.228,0.229l0.229,0.457l0.457,0.457l0.457,0.685l0.229,0.457l0.457,0.685m0,0l-3.427,2.742l-2.741,3.427l-2.285,3.884l-1.599,4.112l-0.685,4.341l0,4.341l0.685,4.341l1.371,4.112l2.285,3.884l2.742,3.427l3.427,2.97l3.884,2.056l4.112,1.599l4.341,0.685l4.569,0l4.34,-0.685l4.112,-1.599l3.655,-2.056l3.427,-2.97l2.97,-3.427l2.056,-3.884l1.599,-4.112l0.685,-4.341l0,-4.341l-0.914,-4.341l-1.371,-4.112l-2.285,-3.884l-2.97,-3.427l-3.427,-2.742m2.285,-3.198l-0.228,0.228l0,0.229l-0.457,0.457l-0.228,0.457l-0.457,0.685l-0.457,0.457l-0.457,0.685m-10.052,-42.721l0.228,-2.97l0.457,-2.741l0.914,-2.742l1.142,-2.513l1.371,-2.285l1.827,-2.285l2.056,-2.056l2.056,-1.599m0,61.912l-2.056,-1.828l-2.056,-1.828l-1.827,-2.285l-1.371,-2.513l-1.142,-2.513l-0.914,-2.742l-0.457,-2.741l-0.228,-2.742m-8.453,0l0,2.742l-0.685,2.741l-0.685,2.742l-1.142,2.513l-1.599,2.513l-1.599,2.285l-2.056,1.828l-2.285,1.828m10.052,-42.721l0,23.531m-10.052,-42.721l2.285,1.599l2.056,2.056l1.599,2.285l1.599,2.285l1.142,2.513l0.685,2.742l0.685,2.741l0,2.97m-10.052,-60.998l-3.427,2.97l-2.741,3.427l-2.285,3.655l-1.599,4.341l-0.685,4.341l0,4.341l0.685,4.341l1.599,4.341l2.285,3.655l2.741,3.427l3.427,2.97m6.625,-48.433l-0.685,0.914l-0.685,0.914l-0.914,0.914l-0.685,0.914l-0.914,0.914l-0.914,0.685l-0.914,0.685l-0.914,0.685m22.16,-6.625l-15.535,0m21.932,6.625l-0.914,-0.685l-0.914,-0.685l-0.914,-0.685l-0.685,-0.914l-0.914,-0.914l-0.685,-0.914l-0.685,-0.914l-0.685,-0.914m-15.992,91.154l3.884,0m-478.389,-39.523l0,-0.229l0.228,-0.457l0.228,-0.228l0.457,-0.685l0.457,-0.457l0.228,-0.685l0.457,-0.457m6.168,19.19l3.884,0m478.388,-67.623l0,-2.742m3.427,0.685l-0.457,-0.229l-0.228,-0.228l-0.228,-0.229l-0.457,-0.228l-1.599,0l-0.457,0.228m0,2.742l0.685,-0.457l0.685,-0.228l0.457,-0.457l0.457,-0.228l0.457,-0.457l0.228,0l0.228,-0.228l0.228,0m-19.419,69.679l3.884,0m-478.389,-64.196l0,0.457l0.228,0.228l0.228,0.457l0.457,0.457l0.457,0.457l0.228,0.685l0.457,0.457m6.625,-6.625l-0.685,-0.457l-0.685,-0.228l-0.457,-0.457l-0.685,-0.228l-0.228,-0.457l-0.457,0l0,-0.228l-0.228,0m469.707,2.056l0,-2.742m0,0l15.535,0m-24.216,54.373l0,-0.229l0.228,-0.457l0.229,-0.228l0.457,-0.685l0.457,-0.457l0.229,-0.685l0.457,-0.457m-2.056,-45.006l0,0.457l0.228,0.228l0.229,0.457l0.914,0.914l0.229,0.685l0.457,0.457m6.625,-6.625l-0.685,-0.457l-0.685,-0.228l-0.457,-0.457l-0.685,-0.228l-0.229,-0.457l-0.457,0l-0.228,-0.228m-450.974,69.679l3.884,0m0,23.531l-3.884,0m-11.88,-93.896l-0.685,-0.228l-1.371,0l-0.457,0.228l-0.228,0.229l-0.457,0.228l-0.228,0.229m3.427,2.056l0,-2.742m-0.457,93.896l3.884,0m-3.427,-93.896l15.535,0m0,2.742l0,-2.742m-24.216,109.888l0,0.228l0.228,0.229l0.228,0.457l0.457,0.457l0.457,0.685l0.228,0.457l0.457,0.685m25.587,-112.401l-0.228,-0.229l-0.457,-0.228l-0.229,-0.229l-0.457,-0.228l-1.599,0l-0.457,0.228m450.745,0l-0.685,-0.228l-1.371,0l-0.457,0.228l-0.229,0.229l-0.457,0.228l-0.228,0.229m-438.637,109.202l-0.228,0.228l0,0.229l-0.457,0.457l-0.228,0.457l-0.457,0.685l-0.457,0.457l-0.228,0.685m447.547,-125.651l-0.228,4.341l-1.371,4.341l-1.827,3.884m3.427,-12.565l-0.685,0.229l-0.685,0l-0.685,0.228l-0.685,0.457l-0.457,0.457l-0.228,0.457l-0.228,0.457l-0.229,0.457m-450.288,9.824l-2.056,-3.884l-1.142,-4.341l-0.457,-4.341m3.884,2.742l0,-0.457l-0.228,-0.457l-0.457,-0.457l-0.457,-0.457l-0.457,-0.457l-0.685,-0.228l-0.685,0l-0.914,-0.229m469.936,12.565l-2.056,-3.884l-1.142,-4.341l-0.457,-4.341m3.884,2.742l0,-0.457l-0.229,-0.457l-0.914,-0.914l-0.457,-0.457l-0.685,-0.228l-0.685,0l-0.914,-0.229m-474.733,0l-0.229,4.341l-1.371,4.341l-1.827,3.884m3.427,-12.565l-0.685,0.229l-0.685,0l-0.685,0.228l-0.685,0.457l-0.457,0.457l-0.228,0.457l-0.229,0.457l-0.228,0.457m3.884,-4.112l0,1.371m8.453,-1.371l-8.453,0m8.453,1.371l0,-1.371m457.828,0l0,1.371m8.453,-1.371l-8.453,0m8.453,1.371l0,-1.371m24.902,287.17l77.904,0m-77.904,0l0,-42.265m0,0l0,-81.559m2.056,-26.501l1.371,5.026l0.457,5.711l-0.228,5.483l-1.371,5.254l-2.285,5.026m77.904,-33.355l-0.228,-0.229l0,0.229l-0.457,0.228l-0.914,0.457l-1.371,0.685l-0.685,0.457l-0.685,0.228l-0.914,0.457l-1.142,0.457l-1.599,0.228l-2.285,0.457l-0.914,0.228l-1.371,0l-2.056,0.229l-3.884,0l-3.655,0.228l-21.932,0l-7.311,0.457l-6.625,0.228l-9.823,0.914l-7.996,0.914m-2.056,153.523l0,-3.198m-476.561,-164.946l4.341,3.198l3.884,4.112l2.513,3.655l1.828,3.884l0.685,2.513m0,0l-1.371,0.457l-1.371,0.229l-0.685,0.228l-0.457,0m-9.367,-18.277l-0.457,0.457l-0.228,0.457l-0.457,0.228l-0.228,0.228l-0.229,0.229l-0.685,0m-47.519,13.022l1.599,-3.884l2.513,-3.655l1.142,-1.599l3.198,-2.97l3.655,-2.513m0,0l0.457,0.457l0.228,0.228l0.457,0.457l0.228,0.228l0.457,0.229l0.685,0m-14.621,13.022l1.371,0.457l1.142,0.457l0.685,0.229l0.457,0.228m512.657,-15.992l3.427,2.285l3.427,3.198l1.142,1.371l1.142,1.599m0,0l-1.371,0.685l-0.914,0.685l-0.914,0.229l-0.228,0.228m-5.711,-10.281l-0.457,0.457l-0.457,0.228l-0.228,0.457l-0.457,0.228l-0.228,0.229l-0.685,0m12.565,39.523l-2.285,-1.371l-0.685,-0.229l-0.457,-0.228m5.483,-24.673l-1.371,0.457l-1.142,0.457l-0.914,0.229l-0.228,0.228m-59.399,1.371l1.599,-4.569l2.513,-4.341l2.97,-3.655l3.655,-3.198l2.513,-1.599m0,0l0.228,0.457l0.457,0.457l0.228,0.228l0.457,0.228l0.229,0.229l0.685,0m-15.535,15.763l1.371,0.457l1.142,0.229l0.914,0.228l0.228,0m56.429,-9.824l2.97,6.168m-665.723,127.479l0,22.846m-32.441,0l32.441,0m0,-22.846l-6.854,-0.685l-6.854,-0.457l-6.397,-0.685l-5.254,-0.685l-3.655,-0.685l-2.285,-0.457l-0.914,-0.914m32.212,30.613l0,-3.198m663.667,-123.824l-2.513,4.341l-3.427,3.655l-3.884,3.427l-4.34,2.513l-4.569,1.828l-5.026,1.371l-4.798,0.457l-5.255,-0.457l-4.798,-1.142l-4.798,-1.828l-4.341,-2.513l-3.884,-2.97l-3.427,-3.884l-2.742,-4.112l-2.056,-4.569l-1.599,-4.798l-0.457,-5.026l0,-5.026l0.914,-5.026m-402.313,0l0.914,5.026l0,5.254l-0.685,5.026l-1.371,5.026l-2.285,4.569l-2.97,4.112l-3.427,3.884l-4.112,2.97l-4.569,2.513l-4.798,1.828l-5.026,0.914l-5.255,0.229l-5.026,-0.685l-4.798,-1.371l-4.798,-2.285l-4.112,-2.742l-3.884,-3.427l-3.198,-4.112l-2.513,-4.569l-1.827,-4.798l-1.142,-5.026l-0.229,-5.026l0.685,-5.026l1.371,-5.026m509.459,-26.273l0.457,2.513l0.685,2.97l2.513,3.655l3.198,2.513m-6.854,-11.651l-0.685,0l-0.685,-0.229l-0.914,-0.228l-0.457,-0.229l-0.685,-0.457l-0.228,-0.457l-0.228,-0.685l-0.228,-0.457m-493.238,14.393l3.427,-2.97l2.285,-3.427l0.685,-2.742l0.229,-2.513m0,0l0.914,-0.229l0.685,0l0.685,-0.228l0.685,-0.457l0.457,-0.228l0.457,-0.457l0.228,-0.685l0,-0.457m20.104,2.97l0.457,2.742l0.914,2.742l2.513,3.655l2.97,2.285m-6.854,-11.423l-1.371,-0.228l-1.371,-0.457l-0.685,-0.914l-0.457,-0.914m439.551,13.936l3.427,-2.97l2.285,-3.427l0.914,-5.026m0,0l1.599,-0.228l1.142,-0.457l0.914,-0.914l0.228,-0.914m-626.429,178.882l663.667,0m-659.326,-28.329l-2.742,3.198l-1.142,1.371l-0.457,0.457l0,0.457m137.303,-127.479l-1.599,-0.229l-1.142,-0.228l-1.142,-0.229l-5.026,-0.457l-8.681,0l-6.854,1.599l-2.056,0.685l-2.056,1.142l-1.827,1.142l-4.341,2.97l-5.026,4.569l-4.112,4.112l-4.341,4.569l-3.884,4.341l-2.056,2.285l-2.056,2.285l-2.056,2.513l-2.285,2.742l-2.513,2.742l-2.513,2.97l-2.513,3.198l-7.539,8.91l-8.91,10.737l-10.052,12.337l-11.423,14.164l-12.794,15.764l-14.164,17.363m598.329,-119.255l-402.313,0m-196.016,119.255l-10.966,-11.423l-5.026,-5.483l-4.341,-4.798l-2.97,-3.884l-2.056,-2.97l-1.142,-2.285l-0.457,-1.828m0,0l-4.341,6.168l-3.427,7.082l-1.827,9.138m691.31,-139.587l9.595,-0.685l11.423,-0.457l23.074,0l5.254,0.228l5.483,-0.228l4.798,-0.685l3.884,-0.685l2.97,-0.685l2.056,-0.457l2.513,-0.685l1.371,-0.457l0.685,-0.457l0.228,0m-69.679,26.958l-0.228,-1.142l-1.371,-7.768l-0.914,-6.854l-1.142,-5.94m-681.715,117.198l15.992,-19.647l16.22,-19.876l16.677,-19.647l17.134,-19.419l6.168,-6.397l6.397,-6.397l6.854,-6.397l5.94,-4.569l7.311,-4.341l5.94,-2.97l7.311,-2.513l8.453,-2.056l12.794,-2.285l11.194,-1.142l9.367,-0.228l8.224,0.457l9.595,0.914l7.082,0.914m24.216,0.228l442.292,0m24.216,-0.228l2.513,-0.457l9.824,-1.142m98.465,-100.293l0,-3.198m-712.328,3.198l0,-3.198m135.018,105.09l0,0.228m0,-0.228l-0.685,-0.229l-0.685,0l-0.685,-0.228l-0.685,-0.457l-0.457,-0.457l-0.228,-0.457l-0.228,-0.457l-0.229,-0.457m446.176,2.97l0,-0.228m0,0l0.914,-0.229l0.685,0l0.685,-0.228l0.457,-0.457l0.685,-0.457l0.228,-0.457l0.228,-0.457l0,-0.457m20.561,0.914l-0.228,1.828m0.228,-1.828l-1.599,0l-0.914,-0.228l-0.457,-0.457l-0.685,-0.457l-0.228,-0.457l-0.228,-0.457l-0.228,-0.457m-486.613,4.341l0,-1.828m0,0l1.599,0l0.685,-0.228l0.685,-0.457l0.457,-0.457l0.457,-0.457l0.228,-0.457l0,-0.457m486.613,-21.703l0,15.535l0.228,4.569l0,4.112m-0.228,-24.216l-2.97,0l-0.457,-0.228l-0.685,0m-486.613,24.445l0,-8.91l0.228,-4.798l0,-10.509m0,0l2.741,0l0.685,-0.228l0.457,0m462.397,24.673l0,-24.445m0,0l2.285,0l0.457,-0.228l1.142,0m-3.884,24.673l1.599,-0.229l1.142,-0.457l0.914,-0.914l0.228,-0.914m-446.176,-21.932l0,24.445m0,0l-1.371,-0.229l-1.371,-0.457l-0.685,-0.914l-0.457,-0.914m3.884,-21.932l-2.056,0l-0.685,-0.228l-1.142,0m3.884,24.673l0,1.599m442.292,0l0,-1.599m-645.847,113.086l0,0.685l0.228,1.371l0.457,2.056m173.856,-118.112l-7.539,-1.599l-6.168,-1.599l-5.94,-1.828l-5.254,-1.828l-5.026,-1.828l-4.798,-1.828l-6.168,-2.513l-5.255,-2.056l-4.341,-1.599l-3.655,-1.371l-6.168,-1.599l-2.513,-0.457l-2.056,-0.228l-2.513,0l-0.457,0.228l-0.228,0.228m72.878,20.561l-1.599,-0.228l-3.198,-0.457m568.172,-20.104l-0.228,-0.228l-2.513,0l-2.056,0.228l-2.513,0.457l-6.168,1.599l-3.655,1.371l-4.569,1.599l-5.255,2.056l-6.168,2.513l-4.569,1.828l-5.026,1.828l-5.254,1.828l-5.94,1.828l-6.168,1.599l-7.539,1.599m0,0l-3.198,0.457l-1.599,0.228m-24.445,0.229l-442.292,0m2.741,-33.812l436.81,0m2.741,9.367l-0.457,-4.569l-2.285,-4.798m-436.81,0l-1.827,3.884l-0.914,5.483m556.064,-75.848l0,12.337m0,0l2.97,3.198m-672.577,-3.198l0,-12.337m0,12.337l-2.97,3.198m588.048,83.844l-0.914,-6.854l-0.685,-3.884l-0.685,-4.341l-1.371,-9.138l-0.685,-4.798m0,0l-0.685,5.483m-495.523,23.531l0.914,-6.854l0.685,-3.884l0.457,-4.341l0.685,-4.569l0.685,-4.569l0.685,-4.798m0.914,5.483l-0.914,-5.483m-62.14,-18.962l-0.229,-0.914m-1.599,-9.138l0,-0.229l0.228,-0.228l0.685,-0.457l2.285,0l2.056,0.457l2.741,0.685l2.97,1.371l3.655,1.599l3.884,2.056l4.798,2.513l5.255,2.97l5.94,2.97l5.711,2.741l6.397,2.742l6.854,2.742l7.996,2.056m2.513,5.026l-2.513,-5.026m497.35,0l-2.741,5.026m2.741,-5.026l7.768,-2.056l7.082,-2.742l6.168,-2.742l5.94,-2.741l5.94,-2.97l5.255,-2.97l4.569,-2.513l4.112,-2.056l3.655,-1.828l2.97,-1.142l2.741,-0.685l2.056,-0.457l2.285,0l0.457,0.457l0.457,0.228l0,0.229m-562.004,21.246l-4.112,-3.655l-3.655,-4.112l-2.741,-4.798l-2.056,-5.254l-1.142,-5.255l-0.228,-5.711l0.457,-5.483l1.599,-5.254l2.513,-5.255l3.655,-4.798m0,0l0.457,0.685l0.685,0.457l0.457,0.457l0.457,0.457l0.228,0.457l0.457,0.229l0,0.228m2.97,46.605l0.457,-0.685l0.457,-0.457l0.228,-0.685l0.457,-0.457l0.229,-0.229l0.228,-0.228l0,-0.228l0.228,0m507.174,-46.605l3.198,4.341l2.741,5.026l1.599,5.255l0.685,5.483l-0.228,5.483l-0.914,5.711l-2.056,5.026l-2.741,5.026l-3.655,4.341l-4.341,3.884m0,0l-0.457,-0.685l-0.457,-0.457l-0.457,-0.685l-0.228,-0.457l-0.229,-0.229l-0.457,-0.457m7.996,-46.605l-0.685,0.685l-0.914,0.914l-0.457,0.457l-0.457,0.457l-0.228,0.229l0,0.228l-0.229,0m-506.489,-7.996l2.513,-2.056l2.056,-2.97l1.371,-2.97m-5.94,7.996l0.457,0.685l0.457,0.685l0.228,0.685l0.457,0.457l0.229,0.457l0.228,0.229l0.228,0.228m463.996,-3.427l2.513,-2.056l2.056,-2.97l1.371,-2.97m-5.94,7.996l0.457,0.685l0.457,0.685l0.228,0.685l0.457,0.457l0.228,0.457l0.228,0.229l0,0.228l0.228,0m29.014,-11.423l1.371,2.97l2.056,2.97l2.741,2.056m0,0l-0.457,0.685l-0.457,0.685l-0.457,0.685l-0.228,0.457l-0.229,0.457l-0.228,0.229l-0.228,0.228m-470.164,-11.423l1.599,2.97l1.827,2.97l2.742,2.056m0,0l-0.457,0.685l-0.457,0.685l-0.457,0.685l-0.229,0.457l-0.228,0.457l-0.228,0.229l-0.228,0.228m-40.894,1.599l1.828,-1.828l1.827,-1.599l2.056,-1.599m503.747,0l2.056,1.599l1.827,1.599l1.828,1.828m-471.992,-5.026l4.112,3.427l3.427,4.112l2.97,4.341l2.056,5.026l1.371,5.026l0.228,5.483l-0.228,5.254l-1.371,5.026l-2.056,5.026l-2.97,4.569l-3.427,3.884l-4.112,3.427m0,0l-0.457,-0.685l-0.457,-0.457l-0.228,-0.685l-0.457,-0.457l-0.228,-0.229l-0.457,-0.457m431.098,2.97l-4.112,-3.427l-3.656,-3.884l-2.741,-4.569l-2.056,-5.026l-1.371,-5.026l-0.457,-5.254l0.457,-5.483l1.371,-5.026l2.056,-5.026l2.741,-4.341l3.656,-4.112l4.112,-3.427m0,54.601l0.457,-0.685l0.457,-0.457l0.228,-0.685l0.457,-0.457l0.228,-0.229l0.228,-0.228l0,-0.228l0.228,0m-465.367,5.711l1.142,-0.914l0.914,-0.685l0.685,-0.457l0.228,-0.228m-0.457,7.311l1.599,-0.685l1.142,-0.228l0.685,-0.229l0.457,-0.228m488.212,1.371l-1.371,-0.685l-1.142,-0.228l-0.914,-0.229l-0.228,-0.228m6.397,-3.655l-1.142,-0.914l-0.914,-0.685l-0.685,-0.457l-0.228,-0.228m6.168,-0.457l-3.198,2.742m-467.194,1.142l-1.142,-0.685l-0.914,-0.685l-0.914,-0.457l-0.229,0m440.008,1.828l1.371,-0.685l0.914,-0.685l0.685,-0.457l0.228,0m-470.164,0.685l-3.198,-2.742m-47.748,-62.597l2.285,7.311l1.828,5.483m34.725,-12.794l3.198,13.022m515.17,0l2.97,-13.022m35.182,11.651l1.371,-4.341l2.513,-7.311m-81.331,66.481l-1.142,-1.371l-1.371,-1.371l-1.371,-1.142m-428.813,0l-1.599,1.142l-1.371,1.371l-1.142,1.371m-215.206,172.028l0,1.371m764.873,-227.543l0,-12.337m0,12.337l0,3.198m-662.296,-15.535l0,12.337m0,0l0,3.198m632.825,-15.535l-2.742,7.996l-1.371,4.341m-595.13,0l-1.599,-4.341l-2.742,-7.996m-131.82,238.737l-0.228,-0.914m0.228,2.285l-0.228,-0.685m-2.513,-2.741l2.513,0m-2.513,0l0.457,-2.285l1.827,-5.711l1.142,-2.285l0.457,-0.914l0.228,-0.457l0.228,0m-4.112,36.553l0.914,3.655l0.229,1.828l0.457,1.371l0.228,0.457l0,0.457m-2.056,-32.441l0,-0.228m128.165,-185.279l-1.828,-10.052m618.433,9.138l0,0.914l-0.228,5.254l0.685,5.255l1.599,5.026l2.513,4.569l5.483,7.996m-57.799,206.982l77.675,0m-77.675,0l0,-4.798m76.304,8.91l-76.304,0m0,0l0,-4.112m-660.469,-4.798l0,4.798m-32.441,0l32.441,0m660.469,7.767l73.335,0m-73.335,0l0,-3.655m-660.469,-4.112l0,4.112m0,0l-30.842,0m691.311,3.655l0,2.285m-660.469,-10.052l660.469,0m0,4.112l-660.469,0m0,0l0,3.655m-27.872,0l27.872,0m0,0l660.469,0m-660.469,0l0,2.285m-34.04,-54.373l-3.884,0m0,-5.254l0,5.254m0,14.164l-5.254,0m5.254,0l0,5.254m0,-5.254l3.884,0m-3.884,-14.164l0,14.164m0,-14.164l-5.254,0" style="fill:none;fill-rule:nonzero;stroke:#808080;stroke-width:1.8px;"/><path d="M140.719,486.625l0,2.056m51.403,0l0,-2.056m-51.403,2.056l0,0.228l0.228,0m51.174,0l0,-0.228m-51.174,0.228l0,0.914m50.946,0l0.228,-0.914m-51.174,0.914l0,0.228l0.228,0m50.718,0l0,-0.228m-50.718,0.228l4.112,3.655l4.798,2.97l5.255,2.285l5.483,1.142l5.711,0.457l5.483,-0.457l5.483,-1.142l5.255,-2.285l4.798,-2.97l4.341,-3.655m634.653,-1.371l0,0.228m51.403,0l0,-0.228m-51.403,-2.056l0,2.056m51.403,0l0,-2.056m-51.403,2.285l0.228,0.914m50.946,0l0.228,-0.914m-51.174,0.914l0,0.228m50.946,0l0,-0.228m-50.946,0.228l4.341,3.655l4.798,2.97l5.255,2.285l5.483,1.142l5.483,0.457l5.711,-0.457l5.483,-1.142l5.255,-2.285l4.798,-2.97l4.341,-3.655m17.363,-178.653l-0.457,-7.082l-1.371,-7.082l-3.198,-6.625l-4.112,-5.483m-748.653,109.202l-7.082,8.91m106.461,-133.647l-10.281,12.565l-22.389,28.329l-9.367,11.88m687.198,-42.265l-0.457,-0.457l-0.457,-0.457l-0.457,-0.685l-0.914,-1.142l-2.742,-3.655l-3.427,-4.112m12.337,15.535l-1.599,-2.056l-1.828,-2.285l-0.457,-0.457l0,-0.228m52.088,-77.675l0,-12.337m-3.427,15.535l3.427,-3.198m-757.791,-12.337l0,12.337m0,0l3.198,3.198m65.567,26.044l1.142,4.798l0.685,4.112m626.2,28.786l-3.427,-4.569l-2.742,-4.569l-2.285,-4.569l-1.142,-4.798l-0.457,-4.798l0.228,-4.341l0.685,-4.112l0.685,-3.655m-734.26,169.286l-3.884,5.255l-3.198,6.168l-1.599,6.625l-0.457,5.94m0.228,0.457l0,2.513m-0.457,29.699l0,-0.229l-0.228,-0.228m16.677,-64.882l-7.082,8.681m114.685,-171.799l1.828,10.052m626.429,27.872l-2.741,-3.655l-2.742,-4.112l-2.285,-4.569l-0.914,-2.513l-0.685,-2.513l-0.685,-5.255l0.228,-5.254l0,-0.914m-722.609,248.104l51.403,0m634.425,0l51.403,0m73.792,-304.99l-0.228,0.685l0,0.457l-0.457,0.685l-0.457,0.457l-0.457,0.457l-0.457,0.228l-0.685,0.229l-0.685,0m0,0l-48.433,0m51.86,-3.198l0,-4.569m-741.571,7.768l-48.661,0m0,0l-0.457,0l-0.685,-0.229l-0.685,-0.228l-0.457,-0.457l-0.228,-0.457l-0.457,-0.685l-0.228,-0.457l0,-0.685m0,0l0,-4.569m793.431,-21.246l-0.228,-1.371l-0.457,-1.142l-0.457,-1.142l-0.914,-0.914m2.056,4.569l0,21.246m-793.431,0l0,-21.246m1.828,-4.569l-0.685,0.914l-0.685,1.142l-0.229,1.142l-0.228,1.371m791.375,-4.569l-2.513,-2.742m-787.034,2.742l2.741,-2.742m638.309,28.557l-26.044,0m-466.28,0l26.044,0m444.12,0l0,4.112m-448.004,0l0,-4.112m446.176,8.91l-2.285,2.285m-439.779,0l-2.513,-2.285m446.405,-4.798l0,1.142m0,0l0,0.457m-448.004,-0.457l0,-1.142m0,1.599l0,-0.457m568.858,2.513l-98.693,0m-3.884,-3.884l0,0.685l0.228,0.914l0.228,0.457l0.685,0.685l0.457,0.457l0.685,0.457l0.685,0.229l0.914,0m-3.884,-3.884l0,-3.884m-488.441,7.768l-98.693,0m102.577,-7.768l0,3.884m-3.884,3.884l0.914,0l0.685,-0.229l0.685,-0.457l0.457,-0.457l0.457,-0.685l0.457,-0.457l0.228,-0.914l0,-0.685m-145.298,-34.269l42.722,0m-42.722,0l-1.142,0l-1.371,0.457l-1.142,0.685l-0.914,0.685m737.002,-1.828l42.722,0m4.569,1.828l-2.285,-1.371l-1.142,-0.457l-1.142,0m-167.687,41.579l-10.509,10.509m-418.99,0l-10.281,-10.509m442.064,-2.285l0.228,0l0,-0.229l0.228,0m-445.034,0.229l0,-0.229l-0.228,0m446.633,-2.97l0,0.228l0,-0.228m0,0l0,0.914l-0.229,0.685l-0.457,0.685l-0.685,0.685m-445.262,0l-0.685,-0.685l-0.457,-0.685l-0.229,-0.685l0,-0.914m0,0l0,0.228l0,-0.228m-120.853,-36.096l689.711,0m-137.759,53.002l0.914,0l0.457,-0.229l0.228,0l0.228,-0.228l0.229,-0.229l0.228,-0.228m-2.285,0.914l-414.421,0m-2.285,-0.914l0.457,0.228l0.229,0.229l0.228,0.228l0.228,0l0.228,0.229l0.914,0m-25.816,8.91l-3.427,0.457l-3.198,1.142l-2.97,2.056l-2.285,2.513l-1.828,2.97l-0.914,3.198l-0.229,3.427l0.457,3.427l1.371,3.198l2.056,2.742l2.741,2.285l3.198,1.599l3.198,0.685l3.427,0l3.427,-0.685l3.198,-1.599l2.513,-2.285l2.056,-2.742l1.371,-3.198l0.685,-3.427l-0.228,-3.427l-0.914,-3.198l-1.827,-2.97l-2.285,-2.513l-2.97,-2.056l-3.198,-1.142l-3.427,-0.457m-2.285,0l-3.198,0.914l-3.198,1.599l-2.513,2.285l-2.056,2.97l-1.371,3.198l-0.457,3.427l0.228,3.427l1.142,3.198l1.599,2.97l2.513,2.513l2.97,2.056l3.198,1.142l3.427,0.229l3.427,-0.229l3.198,-1.142l2.97,-2.056l2.285,-2.513l1.827,-2.97l1.142,-3.198l0.229,-3.427l-0.685,-3.427l-1.142,-3.198l-2.056,-2.97l-2.513,-2.285l-3.198,-1.599l-3.198,-0.914m-4.569,0l2.285,0m2.285,0l-2.285,0m474.277,55.058l0,23.531m-459.198,39.98l-0.457,-3.427l-1.142,-2.97l-1.827,-2.97l-2.285,-2.285l-2.742,-1.828l-3.198,-1.142l-3.427,-0.457l-3.427,0.457l-3.198,1.142l-2.742,1.828l-2.513,2.285l-1.599,2.97l-1.142,2.97l-0.457,3.427l0.457,3.427l1.142,3.198l1.599,2.742l2.513,2.513l2.742,1.599l3.198,1.142l3.427,0.457l3.427,-0.457l3.198,-1.142l2.742,-1.599l2.285,-2.513l1.827,-2.742l1.142,-3.198l0.457,-3.427m-12.794,-118.569l-4.569,0m18.734,-9.138l3.655,2.97l3.198,3.655l2.513,3.884l1.828,4.341l1.142,4.569l0.228,4.798l-0.228,4.569l-1.142,4.569l-1.828,4.341l-2.513,3.884l-3.198,3.655l-3.655,2.97m-5.255,-53.687l0.457,0.685l0.685,0.914l0.457,0.685l0.685,0.685l0.685,0.685l0.685,0.685l0.914,0.685l0.685,0.457m466.28,0l3.655,2.97l3.198,3.655l2.513,3.884l1.828,4.341l1.142,4.569l0.228,4.798l-0.228,4.569l-1.142,4.569l-1.828,4.341l-2.513,3.884l-3.198,3.655l-3.655,2.97m0,55.515l3.655,2.97l3.198,3.655l2.513,4.112l1.828,4.341l1.142,4.569l0.228,4.798l-0.457,4.798l-1.142,4.569l-2.056,4.341l-2.513,3.884l-3.198,3.655l-3.884,2.742l-4.112,2.285l-4.569,1.599l-4.798,0.685l-4.798,0l-4.569,-0.685l-4.569,-1.599l-4.112,-2.285l-3.884,-2.742l-3.198,-3.655l-2.742,-3.884l-1.827,-4.341l-1.371,-4.569l-0.457,-4.798l0.457,-4.798l0.914,-4.569l2.056,-4.341l2.513,-4.112l2.97,-3.655l3.884,-2.97m31.527,23.988l-0.457,-3.427l-1.142,-2.97l-1.827,-2.97l-2.285,-2.285l-2.97,-1.828l-2.97,-1.142l-3.427,-0.457l-3.427,0.457l-3.198,1.142l-2.742,1.828l-2.513,2.285l-1.827,2.97l-0.914,2.97l-0.457,3.427l0.457,3.427l0.914,3.198l1.827,2.742l2.513,2.513l2.742,1.599l3.198,1.142l3.427,0.457l3.427,-0.457l2.97,-1.142l2.97,-1.599l2.285,-2.513l1.827,-2.742l1.142,-3.198l0.457,-3.427m0,-103.491l-0.457,-3.427l-1.142,-3.198l-1.827,-2.97l-2.285,-2.285l-2.97,-1.828l-2.97,-1.142l-3.427,-0.229l-3.427,0.229l-3.198,1.142l-2.742,1.828l-2.513,2.285l-1.827,2.97l-0.914,3.198l-0.457,3.427l0.457,3.198l0.914,3.198l1.827,2.97l2.513,2.285l2.742,1.828l3.198,1.142l3.427,0.229l3.427,-0.229l2.97,-1.142l2.97,-1.828l2.285,-2.285l1.827,-2.97l1.142,-3.198l0.457,-3.198m1.371,23.988l-1.828,1.371l-1.599,1.599l-1.599,1.828l-1.142,2.056l-0.914,2.285l-0.685,2.056l-0.457,2.285l-0.228,2.513m0,23.531l0.228,2.285l0.457,2.285l0.685,2.285l0.914,2.285l1.142,1.828l3.198,3.655l1.828,1.371m-32.898,0l1.828,-1.371l1.599,-1.828l1.371,-1.828l1.371,-1.828l0.914,-2.285l0.685,-2.285l0.457,-2.285l0,-2.285m-466.28,-23.531l0,-2.513l-0.457,-2.285l-0.685,-2.056l-0.914,-2.285l-1.371,-2.056l-1.371,-1.828l-1.599,-1.599l-1.828,-1.371m474.505,39.523l0,-23.531m-474.505,-64.196l0.685,-0.457l0.685,-0.685l0.914,-0.685l0.685,-0.685l0.685,-0.685l0.457,-0.685l0.685,-0.914l0.457,-0.685m469.25,69.679l0,-2.513l-0.457,-2.285l-0.685,-2.056l-0.914,-2.285l-1.371,-2.056l-1.371,-1.828l-1.599,-1.599l-1.828,-1.371m-434.982,79.503l-0.457,-3.427l-1.142,-3.198l-1.828,-2.97l-2.513,-2.285l-2.97,-1.828l-3.427,-0.914l-3.427,-0.228l-3.427,0.685l-3.198,1.371l-2.742,2.056l-2.285,2.513l-1.371,3.198l-0.914,3.427l0,3.427l0.914,3.198l1.371,3.198l2.285,2.742l2.742,2.056l3.198,1.371l3.427,0.457l3.427,-0.229l3.427,-0.914l2.97,-1.828l2.513,-2.285l1.828,-2.97l1.142,-3.198l0.457,-3.427m434.982,-79.503l-3.655,-2.97l-3.198,-3.655l-2.513,-3.884l-1.828,-4.341l-1.142,-4.569l-0.457,-4.569l0.457,-4.798l1.142,-4.569l1.828,-4.341l2.513,-3.884l3.198,-3.655l3.655,-2.97m0,0l0.685,-0.457l0.685,-0.685l0.914,-0.685l0.685,-0.685l0.685,-0.685l0.457,-0.685l0.685,-0.914l0.457,-0.685m-447.09,69.679l0,23.531m8.453,-39.523l-1.828,1.371l-1.599,1.599l-1.599,1.828l-1.142,2.056l-0.914,2.285l-0.685,2.056l-0.457,2.285l-0.229,2.513m473.134,-39.98l-0.457,-3.427l-1.142,-3.427l-1.827,-2.742l-2.513,-2.513l-2.97,-1.599l-3.427,-1.142l-3.427,-0.229l-3.427,0.685l-3.198,1.371l-2.741,2.056l-2.285,2.742l-1.371,2.97l-0.914,3.427l0,3.427l0.914,3.427l1.371,2.97l2.285,2.741l2.741,2.056l3.198,1.371l3.427,0.685l3.427,-0.229l3.427,-1.142l2.97,-1.599l2.513,-2.513l1.827,-2.742l1.142,-3.198l0.457,-3.427m-3.656,-29.699l0.457,0.685l0.457,0.914l0.685,0.685l0.685,0.685l1.371,1.371l0.914,0.685l0.685,0.457m-1.599,127.707l-0.457,-3.427l-1.142,-3.198l-1.827,-2.97l-2.513,-2.285l-2.97,-1.828l-3.427,-0.914l-3.427,-0.228l-3.427,0.685l-3.198,1.371l-2.741,2.056l-2.285,2.513l-1.371,3.198l-0.914,3.427l0,3.427l0.914,3.198l1.371,3.198l2.285,2.742l2.741,2.056l3.198,1.371l3.427,0.457l3.427,-0.229l3.427,-0.914l2.97,-1.828l2.513,-2.285l1.827,-2.97l1.142,-3.198l0.457,-3.427m-489.355,-39.98l0,-23.531m-8.224,39.523l1.828,-1.371l1.599,-1.828l1.371,-1.828l1.371,-1.828l0.914,-2.285l0.685,-2.285l0.457,-2.285l0,-2.285m16.22,0l0.229,2.285l0.457,2.285l0.685,2.285l0.914,2.285l1.142,1.828l1.599,1.828l1.599,1.828l1.828,1.371m-32.898,-55.515l-3.655,-2.97l-3.198,-3.655l-2.513,-3.884l-1.828,-4.341l-1.142,-4.569l-0.457,-4.569l0.457,-4.798l1.142,-4.569l1.828,-4.341l2.513,-3.884l3.198,-3.655l3.655,-2.97m32.898,103.719l3.655,2.97l3.198,3.655l2.513,4.112l1.828,4.341l1.142,4.569l0.228,4.798l-0.457,4.798l-1.142,4.569l-2.056,4.341l-2.513,3.884l-3.198,3.655l-3.884,2.742l-4.112,2.285l-4.569,1.599l-4.798,0.685l-4.798,0l-4.569,-0.685l-4.569,-1.599l-4.112,-2.285l-3.884,-2.742l-3.198,-3.655l-2.741,-3.884l-1.828,-4.341l-1.371,-4.569l-0.457,-4.798l0.457,-4.798l1.142,-4.569l1.828,-4.341l2.513,-4.112l2.97,-3.655l3.884,-2.97m471.535,-109.202l1.599,-3.198l1.142,-3.655l0.228,-3.655m-450.06,0l0.457,3.655l0.914,3.655l1.827,3.198m463.082,-10.509l0.457,3.655l0.914,3.655l1.827,3.198m-488.669,0l1.827,-3.198l0.914,-3.655l0.228,-3.655m581.423,240.794l0,-114.914m0,114.914l0,42.265m-3.427,3.198l-74.477,0m74.477,0l1.371,-0.228l0.914,-0.685l0.685,-1.142l0.457,-1.142m-774.012,0l0,-16.906m0.228,-10.509l-0.228,4.569l0,5.94m0,16.906l0.228,1.142l0.685,1.142l1.142,0.685l1.142,0.228m692.91,0l-663.667,0m-32.212,-41.808l-0.228,3.427l0,7.768m675.09,-257.699l0,0.685m0,0l0,1.371m-3.884,-4.112l0.914,-0.457l0.685,-0.457l0.685,-0.228l0.457,0m0,0l1.142,0m0,0l0,3.198m-15.992,0l0,-3.198m0,0l0.914,0m2.742,1.142l-0.685,-0.457l-0.685,-0.457l-0.685,-0.228l-0.685,0m-1.142,5.254l0,-1.371m0,0l0,-0.457l0.229,-0.228m-466.281,0l0,-3.198m0,0l0.914,0m2.742,1.142l-1.371,-0.914l-0.685,-0.228l-0.685,0m-1.142,5.254l0,-1.371m0,0l0,-0.229l0.228,-0.228l0,-0.228m15.992,0l0,0.685m0,0l0,1.371m-3.884,-4.112l0.914,-0.457l0.685,-0.457l0.685,-0.228l0.457,0m0,0l1.142,0m0,0l0,3.198m451.202,-3.198l13.936,0m-480.216,0l13.936,0m468.565,3.198l-1.142,0m0,-3.198l1.142,0m-0.685,9.824l114.457,0m26.044,0l0,-3.198m-26.044,3.198l26.044,0m-764.188,0l0,-3.198m25.816,3.198l-25.816,0m140.958,-6.625l-1.142,0m0,-3.198l1.142,0m16.677,9.824l4.112,0m440.693,0l4.112,0m0.685,-6.625l-1.142,0m-448.004,0l-1.142,0m0,-3.198l1.142,0m448.004,0l1.142,0m-581.423,9.824l114.457,0m-182.994,213.15l0,0.229m7.082,-9.138l57.343,-71.964m679.202,-52.545l-0.229,0l0,-0.229m-0.228,0l-0.228,-0.228l-0.228,0m16.906,-66.938l44.092,0m-3.427,3.198l-37.695,0m-716.669,-3.198l44.092,0m-2.97,3.198l-37.924,0m685.827,25.816l-0.685,2.741m-619.575,-2.513l-5.94,-26.044m18.505,-2.513l-2.741,2.513m4.798,-2.741l-1.142,-0.229l-0.914,0.457m597.871,2.513l-4.569,-3.884m20.333,3.884l-5.94,25.816m-744.084,196.473l0,-0.685m765.102,-224.801l3.656,0m2.97,3.198l-6.625,0m-665.952,-3.198l3.656,0m0,3.198l-6.625,0m633.511,-3.884l0.914,0.457l0.914,0.229m-595.13,0l1.142,0.228l0.914,0.229m593.074,-0.457l33.583,0m0,3.198l-30.842,0m-597.871,-3.198l0,0.685m-33.583,-0.685l33.583,0m-2.741,3.198l-30.842,0m-102.806,221.603l0,0.685l0.228,0.457m-0.228,22.846l0,-21.703m0,0l0,-1.599m0.228,-4.569l0,-0.685l0.228,-1.371l0,-0.457m-0.457,6.168l0,-1.142l0.228,-2.513m2.056,-9.138l0,0.228l-0.229,0l0,0.457l-0.228,0l0,0.228m-2.285,44.321l-2.741,-4.569l-1.599,-3.427m-0.685,-24.216l1.371,-3.198l2.513,-4.798l3.427,-4.112m-1.827,12.108l0,-0.914m115.599,-156.721l0.228,-0.228m628.256,-37.924l-1.828,9.138m29.928,231.198l-77.675,0m77.675,0l0,4.798m-1.371,4.112l1.142,-1.828l0.229,-2.285m-770.585,0l0,-4.798m32.441,0l-32.441,0m766.244,12.565l2.97,-3.655m-769.214,-4.112l0.457,2.285l1.142,1.828m764.645,3.655l-2.285,1.828l-1.371,0.457l-1.371,0m0,0l-68.308,0m-660.469,-14.85l660.469,0m-691.311,8.91l2.97,3.655m27.872,2.285l-22.846,0m-5.026,-2.285l2.285,1.828l1.371,0.457l1.371,0m683.315,0l-660.469,0m-37.924,-59.627l3.884,0m-9.138,19.419l0.228,1.142l0.228,0.914l0.457,0.914l0.685,0.685l0.914,0.685l0.685,0.457l1.142,0.229l0.914,0.228m3.884,0l-3.884,0m-5.254,-5.254l0,-14.164m5.254,-5.254l-0.914,0.228l-1.142,0.229l-0.685,0.457l-0.914,0.685l-0.685,0.685l-0.457,0.914l-0.228,0.914l-0.228,1.142" style="fill:none;fill-rule:nonzero;stroke:#000;stroke-width:1.8px;"/><path d="M467.641,373.31l0,-0.914l-0.228,-1.142l-0.457,-0.914l-0.457,-0.914l-0.457,-0.914l-0.685,-0.685l-0.685,-0.685l-0.914,-0.457l-0.914,-0.685l-0.914,-0.228l-0.914,-0.229l-3.198,0l-0.914,0.457l-0.914,0.229l-0.914,0.685l-0.685,0.685l-0.685,0.685l-0.685,0.685l-0.457,0.914l-0.457,0.914l-0.228,1.142l-0.228,0.914l0,1.142l0.457,1.828l0.457,0.914l0.457,0.914l0.685,0.914l0.685,0.685l0.685,0.685l0.914,0.457l0.914,0.457l0.914,0.229l1.142,0.228l2.056,0l0.914,-0.228l0.914,-0.457l0.914,-0.457l0.914,-0.685l0.685,-0.685l0.685,-0.685l0.457,-0.914l0.457,-0.914l0.457,-0.914l0.228,-0.914l0,-1.142m-12.565,11.423l9.138,-22.617" style="fill:none;fill-rule:nonzero;stroke:#808080;stroke-width:2.13px;stroke-linecap:butt;stroke-linejoin:miter;"/><path d="M564.964,364.857l18.048,0m-8.91,0l0,18.048m-6.854,-10.737l6.854,10.737m6.854,-10.737l-6.854,10.737" style="fill:none;fill-rule:nonzero;stroke:#808080;stroke-width:2.13px;stroke-linecap:butt;stroke-linejoin:miter;"/><path d="M962.164,318.864c-0.06,-0.106 -0.091,-0.234 -0.091,-0.385l0,-1.111c0,-0.196 0.098,-0.295 0.295,-0.295l15.277,0c0.196,0 0.295,0.098 0.295,0.295l0,1.02c0,0.196 -0.098,0.295 -0.295,0.295l-13.803,0c-0.045,0 -0.076,0.011 -0.091,0.034c-0.015,0.023 -0.015,0.057 0,0.102l0.997,2.38c0.015,0.03 0.023,0.076 0.023,0.136c0,0.136 -0.083,0.204 -0.249,0.204l-0.703,0c-0.151,0 -0.264,-0.068 -0.34,-0.204l-1.315,-2.47Z" style="fill:#808080;fill-rule:nonzero;"/><path d="M970.482,304.903c0.68,-0.317 1.541,-0.476 2.584,-0.476c0.937,0 1.692,0.121 2.267,0.363c0.876,0.317 1.556,0.823 2.04,1.518c0.484,0.695 0.725,1.564 0.725,2.606c0,1.088 -0.257,2.002 -0.771,2.742c-0.514,0.74 -1.239,1.262 -2.176,1.564c-0.604,0.181 -1.315,0.272 -2.131,0.272l-7.072,0c-1.239,0 -2.225,-0.408 -2.958,-1.224c-0.733,-0.816 -1.099,-1.881 -1.099,-3.196c0,-1.284 0.355,-2.319 1.065,-3.105c0.71,-0.786 1.647,-1.179 2.811,-1.179l0.249,0c0.196,0 0.295,0.098 0.295,0.295l0,1.02c0,0.091 -0.019,0.162 -0.057,0.215c-0.038,0.053 -0.087,0.079 -0.147,0.079l-0.204,0c-0.771,0 -1.398,0.249 -1.881,0.748c-0.484,0.499 -0.725,1.141 -0.725,1.926c0,0.816 0.253,1.488 0.759,2.017c0.506,0.529 1.175,0.793 2.006,0.793l3.287,0c0.045,0 0.072,-0.015 0.079,-0.045c0.008,-0.03 -0.011,-0.06 -0.057,-0.091c-0.876,-0.665 -1.315,-1.662 -1.315,-2.992c0,-0.952 0.212,-1.749 0.635,-2.391c0.423,-0.642 1.02,-1.129 1.791,-1.462Zm4.307,1.405c-0.468,-0.181 -1.043,-0.272 -1.723,-0.272c-0.786,0 -1.39,0.106 -1.813,0.317c-0.559,0.181 -0.997,0.499 -1.315,0.952c-0.317,0.453 -0.476,1.012 -0.476,1.677c0,0.665 0.162,1.224 0.487,1.677c0.325,0.453 0.774,0.771 1.349,0.952c0.468,0.181 1.08,0.272 1.836,0.272c0.665,0 1.216,-0.076 1.655,-0.227c0.574,-0.181 1.035,-0.502 1.383,-0.963c0.348,-0.461 0.521,-1.039 0.521,-1.734c0,-0.65 -0.162,-1.209 -0.487,-1.677c-0.325,-0.468 -0.797,-0.793 -1.417,-0.975Z" style="fill:#808080;fill-rule:nonzero;"/><path d="M977.871,300.234c0,0.408 -0.128,0.744 -0.385,1.009c-0.257,0.264 -0.574,0.397 -0.952,0.397c-0.363,0 -0.676,-0.14 -0.941,-0.419c-0.264,-0.28 -0.397,-0.608 -0.397,-0.986c0,-0.363 0.132,-0.687 0.397,-0.975c0.264,-0.287 0.578,-0.431 0.941,-0.431c0.378,0 0.695,0.136 0.952,0.408c0.257,0.272 0.385,0.604 0.385,0.997Z" style="fill:#808080;fill-rule:nonzero;"/><path d="M978.166,290.715c0,1.45 -0.416,2.606 -1.247,3.468c-0.831,0.861 -1.942,1.292 -3.332,1.292l-7.162,0c-1.39,0 -2.497,-0.431 -3.321,-1.292c-0.824,-0.861 -1.235,-2.017 -1.235,-3.468c0,-1.466 0.416,-2.637 1.247,-3.513c0.831,-0.876 1.934,-1.315 3.309,-1.315l7.162,0c1.39,0 2.501,0.438 3.332,1.315c0.831,0.876 1.247,2.047 1.247,3.513Zm-1.405,0c0,-0.967 -0.28,-1.745 -0.839,-2.334c-0.559,-0.589 -1.307,-0.884 -2.244,-0.884l-7.321,0c-0.922,0 -1.662,0.291 -2.221,0.873c-0.559,0.582 -0.839,1.364 -0.839,2.346c0,0.952 0.28,1.715 0.839,2.289c0.559,0.574 1.3,0.861 2.221,0.861l7.321,0c0.937,0 1.685,-0.287 2.244,-0.861c0.559,-0.574 0.839,-1.337 0.839,-2.289Z" style="fill:#808080;fill-rule:nonzero;"/><path d="M978.166,277.91c0,1.45 -0.416,2.606 -1.247,3.468c-0.831,0.861 -1.942,1.292 -3.332,1.292l-7.162,0c-1.39,0 -2.497,-0.431 -3.321,-1.292c-0.824,-0.861 -1.235,-2.017 -1.235,-3.468c0,-1.466 0.416,-2.637 1.247,-3.513c0.831,-0.876 1.934,-1.315 3.309,-1.315l7.162,0c1.39,0 2.501,0.438 3.332,1.315c0.831,0.876 1.247,2.047 1.247,3.513Zm-1.405,0c0,-0.967 -0.28,-1.745 -0.839,-2.334c-0.559,-0.589 -1.307,-0.884 -2.244,-0.884l-7.321,0c-0.922,0 -1.662,0.291 -2.221,0.873c-0.559,0.582 -0.839,1.364 -0.839,2.346c0,0.952 0.28,1.715 0.839,2.289c0.559,0.574 1.3,0.861 2.221,0.861l7.321,0c0.937,0 1.685,-0.287 2.244,-0.861c0.559,-0.574 0.839,-1.337 0.839,-2.289Z" style="fill:#808080;fill-rule:nonzero;"/><path d="M966.312,258.056c0,-1.133 0.34,-2.028 1.02,-2.686c0.68,-0.657 1.609,-0.986 2.788,-0.986l7.525,0c0.196,0 0.295,0.098 0.295,0.295l0,0.997c0,0.196 -0.098,0.295 -0.295,0.295l-7.208,0c-0.831,0 -1.492,0.238 -1.983,0.714c-0.491,0.476 -0.737,1.099 -0.737,1.87c0,0.801 0.242,1.447 0.725,1.938c0.484,0.491 1.133,0.737 1.949,0.737l7.253,0c0.196,0 0.295,0.098 0.295,0.295l0,1.02c0,0.196 -0.098,0.295 -0.295,0.295l-7.208,0c-0.831,0 -1.492,0.234 -1.983,0.703c-0.491,0.468 -0.737,1.095 -0.737,1.881c0,0.801 0.242,1.439 0.725,1.915c0.484,0.476 1.133,0.714 1.949,0.714l7.253,0c0.196,0 0.295,0.098 0.295,0.295l0,1.02c0,0.196 -0.098,0.295 -0.295,0.295l-10.88,0c-0.196,0 -0.295,-0.098 -0.295,-0.295l0,-1.02c0,-0.196 0.098,-0.295 0.295,-0.295l0.793,0c0.045,0 0.076,-0.015 0.091,-0.045c0.015,-0.03 0,-0.06 -0.045,-0.091c-0.438,-0.332 -0.763,-0.755 -0.975,-1.269c-0.212,-0.514 -0.317,-1.088 -0.317,-1.722c0,-0.771 0.159,-1.435 0.476,-1.994c0.317,-0.559 0.763,-0.982 1.337,-1.269c0.091,-0.045 0.098,-0.091 0.023,-0.136c-0.62,-0.332 -1.08,-0.801 -1.383,-1.405c-0.302,-0.604 -0.453,-1.292 -0.453,-2.062Z" style="fill:#808080;fill-rule:nonzero;"/><path d="M966.312,239.313c0,-1.133 0.34,-2.028 1.02,-2.686c0.68,-0.657 1.609,-0.986 2.788,-0.986l7.525,0c0.196,0 0.295,0.098 0.295,0.295l0,0.997c0,0.196 -0.098,0.295 -0.295,0.295l-7.208,0c-0.831,0 -1.492,0.238 -1.983,0.714c-0.491,0.476 -0.737,1.099 -0.737,1.87c0,0.801 0.242,1.447 0.725,1.938c0.484,0.491 1.133,0.737 1.949,0.737l7.253,0c0.196,0 0.295,0.098 0.295,0.295l0,1.02c0,0.196 -0.098,0.295 -0.295,0.295l-7.208,0c-0.831,0 -1.492,0.234 -1.983,0.703c-0.491,0.468 -0.737,1.095 -0.737,1.881c0,0.801 0.242,1.439 0.725,1.915c0.484,0.476 1.133,0.714 1.949,0.714l7.253,0c0.196,0 0.295,0.098 0.295,0.295l0,1.02c0,0.196 -0.098,0.295 -0.295,0.295l-10.88,0c-0.196,0 -0.295,-0.098 -0.295,-0.295l0,-1.02c0,-0.196 0.098,-0.295 0.295,-0.295l0.793,0c0.045,0 0.076,-0.015 0.091,-0.045c0.015,-0.03 0,-0.06 -0.045,-0.091c-0.438,-0.332 -0.763,-0.755 -0.975,-1.269c-0.212,-0.514 -0.317,-1.088 -0.317,-1.722c0,-0.771 0.159,-1.435 0.476,-1.994c0.317,-0.559 0.763,-0.982 1.337,-1.269c0.091,-0.045 0.098,-0.091 0.023,-0.136c-0.62,-0.332 -1.08,-0.801 -1.383,-1.405c-0.302,-0.604 -0.453,-1.292 -0.453,-2.062Z" style="fill:#808080;fill-rule:nonzero;"/><path d="M512.571,115.509c-0.106,0 -0.178,-0.03 -0.215,-0.091c-0.038,-0.06 -0.042,-0.144 -0.011,-0.249l5.19,-13.985c0.03,-0.091 0,-0.136 -0.091,-0.136l-6.074,0c-0.076,0 -0.113,0.038 -0.113,0.113l0,0.952c0,0.196 -0.098,0.295 -0.295,0.295l-0.793,0c-0.196,0 -0.295,-0.098 -0.295,-0.295l0.023,-2.176c0,-0.196 0.098,-0.295 0.295,-0.295l8.794,0c0.196,0 0.295,0.098 0.295,0.295l0,0.929c0,0.121 -0.023,0.242 -0.068,0.363l-5.167,14.053c-0.045,0.151 -0.159,0.227 -0.34,0.227l-1.133,0Z" style="fill:#808080;fill-rule:nonzero;"/><path d="M521.41,115.509c-0.196,0 -0.295,-0.098 -0.295,-0.295l0,-0.839c0,-0.136 0.045,-0.257 0.136,-0.363c1.133,-1.345 2.841,-3.445 5.122,-6.301c1.42,-1.798 2.13,-3.196 2.13,-4.193c0,-0.801 -0.272,-1.443 -0.816,-1.927c-0.544,-0.484 -1.254,-0.725 -2.13,-0.725c-0.861,0 -1.556,0.246 -2.085,0.737c-0.529,0.491 -0.786,1.137 -0.771,1.938l0,0.635c0,0.196 -0.098,0.295 -0.295,0.295l-1.043,0c-0.196,0 -0.295,-0.098 -0.295,-0.295l0,-0.839c0.03,-1.164 0.465,-2.1 1.303,-2.811c0.839,-0.71 1.9,-1.065 3.184,-1.065c0.907,0 1.707,0.174 2.402,0.521c0.695,0.348 1.231,0.827 1.609,1.439c0.378,0.612 0.567,1.303 0.567,2.074c0,1.284 -0.71,2.833 -2.13,4.646c-0.68,0.892 -1.934,2.455 -3.762,4.692l-0.929,1.133c-0.03,0.03 -0.038,0.06 -0.023,0.091c0.015,0.03 0.045,0.045 0.091,0.045l6.935,0c0.196,0 0.295,0.098 0.295,0.295l0,0.816c0,0.196 -0.098,0.295 -0.295,0.295l-8.907,0Z" style="fill:#808080;fill-rule:nonzero;"/><path d="M534.986,115.441c-0.408,0 -0.744,-0.128 -1.009,-0.385c-0.264,-0.257 -0.397,-0.574 -0.397,-0.952c0,-0.363 0.14,-0.676 0.419,-0.941c0.28,-0.264 0.608,-0.397 0.986,-0.397c0.363,0 0.687,0.132 0.975,0.397c0.287,0.264 0.431,0.578 0.431,0.941c0,0.378 -0.136,0.695 -0.408,0.952c-0.272,0.257 -0.604,0.385 -0.997,0.385Z" style="fill:#808080;fill-rule:nonzero;"/><path d="M544.505,115.736c-1.451,0 -2.606,-0.416 -3.468,-1.247c-0.861,-0.831 -1.292,-1.942 -1.292,-3.332l0,-7.162c0,-1.39 0.431,-2.497 1.292,-3.321c0.861,-0.824 2.017,-1.235 3.468,-1.235c1.466,0 2.637,0.416 3.513,1.247c0.876,0.831 1.315,1.934 1.315,3.309l0,7.162c0,1.39 -0.438,2.501 -1.315,3.332c-0.876,0.831 -2.047,1.247 -3.513,1.247Zm0,-1.405c0.967,0 1.745,-0.28 2.334,-0.839c0.589,-0.559 0.884,-1.307 0.884,-2.244l0,-7.321c0,-0.922 -0.291,-1.662 -0.873,-2.221c-0.582,-0.559 -1.364,-0.839 -2.346,-0.839c-0.952,0 -1.715,0.28 -2.289,0.839c-0.574,0.559 -0.861,1.3 -0.861,2.221l0,7.321c0,0.937 0.287,1.685 0.861,2.244c0.574,0.559 1.337,0.839 2.289,0.839Z" style="fill:#808080;fill-rule:nonzero;"/><path d="M557.31,115.736c-1.451,0 -2.606,-0.416 -3.468,-1.247c-0.861,-0.831 -1.292,-1.942 -1.292,-3.332l0,-7.162c0,-1.39 0.431,-2.497 1.292,-3.321c0.861,-0.824 2.017,-1.235 3.468,-1.235c1.466,0 2.637,0.416 3.513,1.247c0.876,0.831 1.315,1.934 1.315,3.309l0,7.162c0,1.39 -0.438,2.501 -1.315,3.332c-0.876,0.831 -2.047,1.247 -3.513,1.247Zm0,-1.405c0.967,0 1.745,-0.28 2.334,-0.839c0.589,-0.559 0.884,-1.307 0.884,-2.244l0,-7.321c0,-0.922 -0.291,-1.662 -0.873,-2.221c-0.582,-0.559 -1.364,-0.839 -2.346,-0.839c-0.952,0 -1.715,0.28 -2.289,0.839c-0.574,0.559 -0.861,1.3 -0.861,2.221l0,7.321c0,0.937 0.287,1.685 0.861,2.244c0.574,0.559 1.337,0.839 2.289,0.839Z" style="fill:#808080;fill-rule:nonzero;"/><path d="M577.163,103.882c1.133,0 2.028,0.34 2.686,1.02c0.657,0.68 0.986,1.609 0.986,2.788l0,7.525c0,0.196 -0.098,0.295 -0.295,0.295l-0.997,0c-0.196,0 -0.295,-0.098 -0.295,-0.295l0,-7.208c0,-0.831 -0.238,-1.492 -0.714,-1.983c-0.476,-0.491 -1.099,-0.737 -1.87,-0.737c-0.801,0 -1.447,0.242 -1.938,0.725c-0.491,0.484 -0.737,1.133 -0.737,1.949l0,7.253c0,0.196 -0.098,0.295 -0.295,0.295l-1.02,0c-0.196,0 -0.295,-0.098 -0.295,-0.295l0,-7.208c0,-0.831 -0.234,-1.492 -0.703,-1.983c-0.468,-0.491 -1.095,-0.737 -1.881,-0.737c-0.801,0 -1.439,0.242 -1.915,0.725c-0.476,0.484 -0.714,1.133 -0.714,1.949l0,7.253c0,0.196 -0.098,0.295 -0.295,0.295l-1.02,0c-0.196,0 -0.295,-0.098 -0.295,-0.295l0,-10.88c0,-0.196 0.098,-0.295 0.295,-0.295l1.02,0c0.196,0 0.295,0.098 0.295,0.295l0,0.793c0,0.045 0.015,0.076 0.045,0.091c0.03,0.015 0.06,0 0.091,-0.045c0.332,-0.438 0.755,-0.763 1.269,-0.975c0.514,-0.212 1.088,-0.317 1.722,-0.317c0.771,0 1.435,0.159 1.994,0.476c0.559,0.317 0.982,0.763 1.269,1.337c0.045,0.091 0.091,0.098 0.136,0.023c0.332,-0.62 0.801,-1.08 1.405,-1.383c0.604,-0.302 1.292,-0.453 2.062,-0.453Z" style="fill:#808080;fill-rule:nonzero;"/><path d="M595.907,103.882c1.133,0 2.028,0.34 2.686,1.02c0.657,0.68 0.986,1.609 0.986,2.788l0,7.525c0,0.196 -0.098,0.295 -0.295,0.295l-0.997,0c-0.196,0 -0.295,-0.098 -0.295,-0.295l0,-7.208c0,-0.831 -0.238,-1.492 -0.714,-1.983c-0.476,-0.491 -1.099,-0.737 -1.87,-0.737c-0.801,0 -1.447,0.242 -1.938,0.725c-0.491,0.484 -0.737,1.133 -0.737,1.949l0,7.253c0,0.196 -0.098,0.295 -0.295,0.295l-1.02,0c-0.196,0 -0.295,-0.098 -0.295,-0.295l0,-7.208c0,-0.831 -0.234,-1.492 -0.703,-1.983c-0.468,-0.491 -1.095,-0.737 -1.881,-0.737c-0.801,0 -1.439,0.242 -1.915,0.725c-0.476,0.484 -0.714,1.133 -0.714,1.949l0,7.253c0,0.196 -0.098,0.295 -0.295,0.295l-1.02,0c-0.196,0 -0.295,-0.098 -0.295,-0.295l0,-10.88c0,-0.196 0.098,-0.295 0.295,-0.295l1.02,0c0.196,0 0.295,0.098 0.295,0.295l0,0.793c0,0.045 0.015,0.076 0.045,0.091c0.03,0.015 0.06,0 0.091,-0.045c0.332,-0.438 0.755,-0.763 1.269,-0.975c0.514,-0.212 1.088,-0.317 1.722,-0.317c0.771,0 1.435,0.159 1.994,0.476c0.559,0.317 0.982,0.763 1.269,1.337c0.045,0.091 0.091,0.098 0.136,0.023c0.332,-0.62 0.801,-1.08 1.405,-1.383c0.604,-0.302 1.292,-0.453 2.062,-0.453Z" style="fill:#808080;fill-rule:nonzero;"/><g transform="matrix(2.284569,0,0,2.284569,-3659.431964,-3529.738237)"><g transform="matrix(9.919708,0,0,9.92126,1782.82997,1712.269261)"><path d="M0.478,-0.257c0.009,0 0.013,0.004 0.013,0.013l0,0.038c-0,0.009 -0.004,0.013 -0.013,0.013l-0.039,0c-0.003,0 -0.005,0.002 -0.005,0.005l0,0.175c0,0.009 -0.004,0.013 -0.013,0.013l-0.045,-0c-0.009,-0 -0.013,-0.004 -0.013,-0.013l0,-0.175c0,-0.003 -0.002,-0.005 -0.005,-0.005l-0.296,0c-0.009,0 -0.013,-0.004 -0.013,-0.013l0,-0.032c0,-0.004 0.001,-0.009 0.004,-0.016l0.202,-0.436c0.003,-0.007 0.009,-0.01 0.016,-0.01l0.046,0c0.005,0 0.009,0.001 0.011,0.004c0.002,0.003 0.002,0.006 -0.001,0.011l-0.196,0.422c-0.001,0.001 -0.001,0.003 0,0.004c0.001,0.001 0.002,0.002 0.003,0.002l0.224,0c0.003,0 0.005,-0.002 0.005,-0.005l0,-0.157c0,-0.009 0.004,-0.013 0.013,-0.013l0.045,0c0.009,0 0.013,0.004 0.013,0.013l0,0.157c0,0.003 0.002,0.005 0.005,0.005l0.039,0Z" style="fill:#808080;fill-rule:nonzero;"/></g><g transform="matrix(9.919708,0,0,9.92126,1790.279671,1712.269261)"><path d="M0.041,-0c-0.005,-0 -0.008,-0.002 -0.01,-0.005c-0.002,-0.003 -0.001,-0.007 0.002,-0.011l0.164,-0.234c0.001,-0.002 0.001,-0.004 0,-0.006l-0.164,-0.234c-0.002,-0.003 -0.003,-0.006 -0.003,-0.007c0,-0.003 0.001,-0.005 0.003,-0.007c0.002,-0.002 0.005,-0.002 0.008,-0.002l0.048,0c0.007,0 0.012,0.003 0.016,0.008l0.128,0.186c0.001,0.001 0.003,0.002 0.004,0.002c0.001,0 0.002,-0.001 0.003,-0.002l0.128,-0.186c0.004,-0.005 0.009,-0.008 0.016,-0.008l0.053,0c0.005,0 0.009,0.002 0.011,0.005c0.002,0.003 0.001,0.007 -0.003,0.011l-0.165,0.234c-0.001,0.002 -0.001,0.004 0,0.006l0.165,0.234c0.002,0.003 0.003,0.005 0.003,0.007c0,0.003 -0.001,0.005 -0.003,0.007c-0.002,0.002 -0.005,0.003 -0.008,0.003l-0.049,-0c-0.007,-0 -0.012,-0.003 -0.016,-0.008l-0.128,-0.186c-0.001,-0.001 -0.002,-0.002 -0.003,-0.002c-0.001,-0 -0.003,0.001 -0.004,0.002l-0.129,0.186c-0.004,0.005 -0.009,0.008 -0.016,0.008l-0.051,-0Z" style="fill:#808080;fill-rule:nonzero;"/></g><g transform="matrix(9.919584,0,0,9.92126,1810.77497,1712.269261)"><path d="M0.478,-0.257c0.009,0 0.013,0.004 0.013,0.013l0,0.038c-0,0.009 -0.004,0.013 -0.013,0.013l-0.039,0c-0.003,0 -0.005,0.002 -0.005,0.005l0,0.175c0,0.009 -0.004,0.013 -0.013,0.013l-0.045,-0c-0.009,-0 -0.013,-0.004 -0.013,-0.013l0,-0.175c0,-0.003 -0.002,-0.005 -0.005,-0.005l-0.296,0c-0.009,0 -0.013,-0.004 -0.013,-0.013l0,-0.032c0,-0.004 0.001,-0.009 0.004,-0.016l0.202,-0.436c0.003,-0.007 0.009,-0.01 0.016,-0.01l0.046,0c0.005,0 0.009,0.001 0.011,0.004c0.002,0.003 0.002,0.006 -0.001,0.011l-0.196,0.422c-0.001,0.001 -0.001,0.003 0,0.004c0.001,0.001 0.002,0.002 0.003,0.002l0.224,0c0.003,0 0.005,-0.002 0.005,-0.005l0,-0.157c0,-0.009 0.004,-0.013 0.013,-0.013l0.045,0c0.009,0 0.013,0.004 0.013,0.013l0,0.157c0,0.003 0.002,0.005 0.005,0.005l0.039,0Z" style="fill:#808080;fill-rule:nonzero;"/></g><g transform="matrix(9.919584,0,0,9.92126,1816.240661,1712.269261)"><path d="M0.135,-0.003c-0.018,-0 -0.033,-0.006 -0.045,-0.017c-0.012,-0.011 -0.018,-0.025 -0.018,-0.042c0,-0.016 0.006,-0.03 0.019,-0.042c0.012,-0.012 0.027,-0.017 0.044,-0.017c0.016,0 0.03,0.006 0.043,0.017c0.013,0.012 0.019,0.026 0.019,0.042c-0,0.017 -0.006,0.031 -0.018,0.042c-0.012,0.011 -0.027,0.017 -0.044,0.017Z" style="fill:#808080;fill-rule:nonzero;"/></g><g transform="matrix(9.919584,0,0,9.92126,1818.958627,1712.269261)"><path d="M0.444,-0.329c0.014,0.03 0.021,0.068 0.021,0.114c0,0.041 -0.005,0.075 -0.016,0.1c-0.014,0.039 -0.036,0.069 -0.067,0.09c-0.031,0.021 -0.069,0.032 -0.115,0.032c-0.048,0 -0.088,-0.011 -0.121,-0.034c-0.033,-0.023 -0.056,-0.055 -0.069,-0.096c-0.008,-0.027 -0.012,-0.058 -0.012,-0.094l0,-0.312c0,-0.055 0.018,-0.098 0.054,-0.13c0.036,-0.032 0.083,-0.048 0.141,-0.048c0.057,0 0.102,0.016 0.137,0.047c0.035,0.031 0.052,0.073 0.052,0.124l0,0.011c0,0.009 -0.004,0.013 -0.013,0.013l-0.045,0c-0.004,0 -0.007,-0.001 -0.01,-0.002c-0.002,-0.002 -0.004,-0.004 -0.004,-0.007l0,-0.009c-0,-0.034 -0.011,-0.062 -0.033,-0.083c-0.022,-0.021 -0.05,-0.032 -0.085,-0.032c-0.036,0 -0.066,0.011 -0.089,0.033c-0.023,0.022 -0.035,0.052 -0.035,0.089l0,0.145c0,0.002 0.001,0.003 0.002,0.004c0.001,0 0.003,-0.001 0.004,-0.003c0.029,-0.039 0.073,-0.058 0.132,-0.058c0.042,0 0.077,0.009 0.105,0.028c0.028,0.019 0.05,0.045 0.065,0.079Zm-0.062,0.19c0.008,-0.021 0.012,-0.046 0.012,-0.076c-0,-0.035 -0.005,-0.061 -0.014,-0.08c-0.008,-0.025 -0.022,-0.044 -0.042,-0.058c-0.02,-0.014 -0.045,-0.021 -0.074,-0.021c-0.029,0 -0.054,0.007 -0.074,0.022c-0.02,0.014 -0.034,0.034 -0.042,0.059c-0.008,0.021 -0.012,0.048 -0.012,0.081c0,0.029 0.003,0.054 0.01,0.073c0.008,0.025 0.022,0.046 0.043,0.061c0.02,0.015 0.046,0.023 0.077,0.023c0.029,0 0.053,-0.007 0.074,-0.021c0.021,-0.014 0.035,-0.035 0.043,-0.063Z" style="fill:#808080;fill-rule:nonzero;"/></g><g transform="matrix(9.919584,0,0,9.92126,1824.067213,1712.269261)"><path d="M0.281,0.01c-0.064,0 -0.115,-0.018 -0.153,-0.055c-0.038,-0.037 -0.057,-0.086 -0.057,-0.147l0,-0.316c0,-0.061 0.019,-0.11 0.057,-0.146c0.038,-0.036 0.089,-0.054 0.153,-0.054c0.065,0 0.116,0.018 0.155,0.055c0.039,0.037 0.058,0.085 0.058,0.146l0,0.316c0,0.061 -0.019,0.11 -0.058,0.147c-0.039,0.037 -0.09,0.055 -0.155,0.055Zm0,-0.062c0.043,-0 0.077,-0.012 0.103,-0.037c0.026,-0.025 0.039,-0.058 0.039,-0.099l0,-0.323c0,-0.041 -0.013,-0.073 -0.038,-0.098c-0.026,-0.025 -0.06,-0.037 -0.103,-0.037c-0.042,0 -0.076,0.012 -0.101,0.037c-0.025,0.025 -0.038,0.057 -0.038,0.098l0,0.323c0,0.041 0.013,0.074 0.038,0.099c0.025,0.025 0.059,0.037 0.101,0.037Z" style="fill:#808080;fill-rule:nonzero;"/></g><g transform="matrix(9.919584,0,0,9.92126,1829.671778,1712.269261)"><path d="M0.592,-0.513c0.05,0 0.09,0.015 0.119,0.045c0.029,0.03 0.043,0.071 0.043,0.123l0,0.332c0,0.009 -0.004,0.013 -0.013,0.013l-0.044,-0c-0.009,-0 -0.013,-0.004 -0.013,-0.013l0,-0.318c0,-0.037 -0.01,-0.066 -0.032,-0.087c-0.021,-0.022 -0.048,-0.033 -0.082,-0.033c-0.035,0 -0.064,0.011 -0.086,0.032c-0.022,0.021 -0.032,0.05 -0.032,0.086l0,0.32c0,0.009 -0.004,0.013 -0.013,0.013l-0.045,-0c-0.009,-0 -0.013,-0.004 -0.013,-0.013l0,-0.318c0,-0.037 -0.01,-0.066 -0.031,-0.087c-0.021,-0.022 -0.048,-0.033 -0.083,-0.033c-0.035,0 -0.064,0.011 -0.085,0.032c-0.021,0.021 -0.032,0.05 -0.032,0.086l0,0.32c0,0.009 -0.004,0.013 -0.013,0.013l-0.045,-0c-0.009,-0 -0.013,-0.004 -0.013,-0.013l0,-0.48c0,-0.009 0.004,-0.013 0.013,-0.013l0.045,0c0.009,0 0.013,0.004 0.013,0.013l0,0.035c0,0.002 0.001,0.003 0.002,0.004c0.001,0.001 0.003,0 0.004,-0.002c0.015,-0.019 0.033,-0.034 0.056,-0.043c0.023,-0.009 0.048,-0.014 0.076,-0.014c0.034,0 0.063,0.007 0.088,0.021c0.025,0.014 0.043,0.034 0.056,0.059c0.002,0.004 0.004,0.004 0.006,0.001c0.015,-0.027 0.035,-0.048 0.062,-0.061c0.027,-0.013 0.057,-0.02 0.091,-0.02Z" style="fill:#808080;fill-rule:nonzero;"/></g><g transform="matrix(9.919584,0,0,9.92126,1837.875274,1712.269261)"><path d="M0.592,-0.513c0.05,0 0.09,0.015 0.119,0.045c0.029,0.03 0.043,0.071 0.043,0.123l0,0.332c0,0.009 -0.004,0.013 -0.013,0.013l-0.044,-0c-0.009,-0 -0.013,-0.004 -0.013,-0.013l0,-0.318c0,-0.037 -0.01,-0.066 -0.032,-0.087c-0.021,-0.022 -0.048,-0.033 -0.082,-0.033c-0.035,0 -0.064,0.011 -0.086,0.032c-0.022,0.021 -0.032,0.05 -0.032,0.086l0,0.32c0,0.009 -0.004,0.013 -0.013,0.013l-0.045,-0c-0.009,-0 -0.013,-0.004 -0.013,-0.013l0,-0.318c0,-0.037 -0.01,-0.066 -0.031,-0.087c-0.021,-0.022 -0.048,-0.033 -0.083,-0.033c-0.035,0 -0.064,0.011 -0.085,0.032c-0.021,0.021 -0.032,0.05 -0.032,0.086l0,0.32c0,0.009 -0.004,0.013 -0.013,0.013l-0.045,-0c-0.009,-0 -0.013,-0.004 -0.013,-0.013l0,-0.48c0,-0.009 0.004,-0.013 0.013,-0.013l0.045,0c0.009,0 0.013,0.004 0.013,0.013l0,0.035c0,0.002 0.001,0.003 0.002,0.004c0.001,0.001 0.003,0 0.004,-0.002c0.015,-0.019 0.033,-0.034 0.056,-0.043c0.023,-0.009 0.048,-0.014 0.076,-0.014c0.034,0 0.063,0.007 0.088,0.021c0.025,0.014 0.043,0.034 0.056,0.059c0.002,0.004 0.004,0.004 0.006,0.001c0.015,-0.027 0.035,-0.048 0.062,-0.061c0.027,-0.013 0.057,-0.02 0.091,-0.02Z" style="fill:#808080;fill-rule:nonzero;"/></g><g transform="matrix(9.918188,0,0,9.92126,1861.21997,1712.269261)"><path d="M0.455,-0.306c0.006,0.029 0.009,0.059 0.009,0.09c0,0.033 -0.003,0.061 -0.009,0.084c-0.011,0.043 -0.034,0.077 -0.068,0.102c-0.034,0.025 -0.075,0.037 -0.123,0.037c-0.047,0 -0.088,-0.012 -0.121,-0.036c-0.033,-0.024 -0.056,-0.056 -0.068,-0.096c-0.004,-0.013 -0.007,-0.027 -0.009,-0.04l0,-0.002c0,-0.004 0.001,-0.007 0.004,-0.009c0.002,-0.002 0.005,-0.003 0.009,-0.003l0.046,0c0.009,0 0.013,0.004 0.014,0.013c0,0.003 0.001,0.009 0.004,0.017c0.007,0.029 0.021,0.052 0.042,0.068c0.021,0.017 0.048,0.026 0.079,0.026c0.032,0 0.059,-0.009 0.08,-0.027c0.021,-0.018 0.035,-0.043 0.042,-0.074c0.004,-0.015 0.006,-0.035 0.006,-0.059c0,-0.023 -0.002,-0.045 -0.005,-0.066c-0.005,-0.031 -0.018,-0.054 -0.04,-0.07c-0.022,-0.016 -0.05,-0.024 -0.083,-0.024c-0.029,0 -0.054,0.006 -0.076,0.018c-0.022,0.012 -0.037,0.029 -0.045,0.05c-0.003,0.007 -0.008,0.011 -0.015,0.011l-0.049,0c-0.009,0 -0.013,-0.004 -0.013,-0.013l0,-0.378c0,-0.009 0.004,-0.013 0.013,-0.013l0.344,0c0.009,0 0.013,0.004 0.013,0.013l0,0.036c0,0.009 -0.004,0.013 -0.013,0.013l-0.281,0c-0.003,0 -0.005,0.002 -0.005,0.005l-0.001,0.239c0,0.003 0.001,0.004 0.002,0.005c0.001,0 0.003,-0 0.004,-0.002c0.017,-0.015 0.036,-0.027 0.059,-0.035c0.023,-0.008 0.046,-0.012 0.071,-0.012c0.047,0 0.087,0.011 0.12,0.034c0.033,0.023 0.054,0.055 0.063,0.098Z" style="fill:#808080;fill-rule:nonzero;"/></g><g transform="matrix(9.918188,0,0,9.92126,1866.317919,1712.269261)"><path d="M0.135,-0.003c-0.018,-0 -0.033,-0.006 -0.045,-0.017c-0.012,-0.011 -0.018,-0.025 -0.018,-0.042c0,-0.016 0.006,-0.03 0.019,-0.042c0.012,-0.012 0.027,-0.017 0.044,-0.017c0.016,0 0.03,0.006 0.043,0.017c0.013,0.012 0.019,0.026 0.019,0.042c-0,0.017 -0.006,0.031 -0.018,0.042c-0.012,0.011 -0.027,0.017 -0.044,0.017Z" style="fill:#808080;fill-rule:nonzero;"/></g><g transform="matrix(9.918188,0,0,9.92126,1869.035502,1712.269261)"><path d="M0.281,0.01c-0.064,0 -0.115,-0.018 -0.153,-0.055c-0.038,-0.037 -0.057,-0.086 -0.057,-0.147l0,-0.316c0,-0.061 0.019,-0.11 0.057,-0.146c0.038,-0.036 0.089,-0.054 0.153,-0.054c0.065,0 0.116,0.018 0.155,0.055c0.039,0.037 0.058,0.085 0.058,0.146l0,0.316c0,0.061 -0.019,0.11 -0.058,0.147c-0.039,0.037 -0.09,0.055 -0.155,0.055Zm0,-0.062c0.043,-0 0.077,-0.012 0.103,-0.037c0.026,-0.025 0.039,-0.058 0.039,-0.099l0,-0.323c0,-0.041 -0.013,-0.073 -0.038,-0.098c-0.026,-0.025 -0.06,-0.037 -0.103,-0.037c-0.042,0 -0.076,0.012 -0.101,0.037c-0.025,0.025 -0.038,0.057 -0.038,0.098l0,0.323c0,0.041 0.013,0.074 0.038,0.099c0.025,0.025 0.059,0.037 0.101,0.037Z" style="fill:#808080;fill-rule:nonzero;"/></g><g transform="matrix(9.918188,0,0,9.92126,1874.639279,1712.269261)"><path d="M0.281,0.01c-0.064,0 -0.115,-0.018 -0.153,-0.055c-0.038,-0.037 -0.057,-0.086 -0.057,-0.147l0,-0.316c0,-0.061 0.019,-0.11 0.057,-0.146c0.038,-0.036 0.089,-0.054 0.153,-0.054c0.065,0 0.116,0.018 0.155,0.055c0.039,0.037 0.058,0.085 0.058,0.146l0,0.316c0,0.061 -0.019,0.11 -0.058,0.147c-0.039,0.037 -0.09,0.055 -0.155,0.055Zm0,-0.062c0.043,-0 0.077,-0.012 0.103,-0.037c0.026,-0.025 0.039,-0.058 0.039,-0.099l0,-0.323c0,-0.041 -0.013,-0.073 -0.038,-0.098c-0.026,-0.025 -0.06,-0.037 -0.103,-0.037c-0.042,0 -0.076,0.012 -0.101,0.037c-0.025,0.025 -0.038,0.057 -0.038,0.098l0,0.323c0,0.041 0.013,0.074 0.038,0.099c0.025,0.025 0.059,0.037 0.101,0.037Z" style="fill:#808080;fill-rule:nonzero;"/></g><g transform="matrix(9.918188,0,0,9.92126,1880.243055,1712.269261)"><path d="M0.592,-0.513c0.05,0 0.09,0.015 0.119,0.045c0.029,0.03 0.043,0.071 0.043,0.123l0,0.332c0,0.009 -0.004,0.013 -0.013,0.013l-0.044,-0c-0.009,-0 -0.013,-0.004 -0.013,-0.013l0,-0.318c0,-0.037 -0.01,-0.066 -0.032,-0.087c-0.021,-0.022 -0.048,-0.033 -0.082,-0.033c-0.035,0 -0.064,0.011 -0.086,0.032c-0.022,0.021 -0.032,0.05 -0.032,0.086l0,0.32c0,0.009 -0.004,0.013 -0.013,0.013l-0.045,-0c-0.009,-0 -0.013,-0.004 -0.013,-0.013l0,-0.318c0,-0.037 -0.01,-0.066 -0.031,-0.087c-0.021,-0.022 -0.048,-0.033 -0.083,-0.033c-0.035,0 -0.064,0.011 -0.085,0.032c-0.021,0.021 -0.032,0.05 -0.032,0.086l0,0.32c0,0.009 -0.004,0.013 -0.013,0.013l-0.045,-0c-0.009,-0 -0.013,-0.004 -0.013,-0.013l0,-0.48c0,-0.009 0.004,-0.013 0.013,-0.013l0.045,0c0.009,0 0.013,0.004 0.013,0.013l0,0.035c0,0.002 0.001,0.003 0.002,0.004c0.001,0.001 0.003,0 0.004,-0.002c0.015,-0.019 0.033,-0.034 0.056,-0.043c0.023,-0.009 0.048,-0.014 0.076,-0.014c0.034,0 0.063,0.007 0.088,0.021c0.025,0.014 0.043,0.034 0.056,0.059c0.002,0.004 0.004,0.004 0.006,0.001c0.015,-0.027 0.035,-0.048 0.062,-0.061c0.027,-0.013 0.057,-0.02 0.091,-0.02Z" style="fill:#808080;fill-rule:nonzero;"/></g><g transform="matrix(9.918188,0,0,9.92126,1888.445397,1712.269261)"><path d="M0.592,-0.513c0.05,0 0.09,0.015 0.119,0.045c0.029,0.03 0.043,0.071 0.043,0.123l0,0.332c0,0.009 -0.004,0.013 -0.013,0.013l-0.044,-0c-0.009,-0 -0.013,-0.004 -0.013,-0.013l0,-0.318c0,-0.037 -0.01,-0.066 -0.032,-0.087c-0.021,-0.022 -0.048,-0.033 -0.082,-0.033c-0.035,0 -0.064,0.011 -0.086,0.032c-0.022,0.021 -0.032,0.05 -0.032,0.086l0,0.32c0,0.009 -0.004,0.013 -0.013,0.013l-0.045,-0c-0.009,-0 -0.013,-0.004 -0.013,-0.013l0,-0.318c0,-0.037 -0.01,-0.066 -0.031,-0.087c-0.021,-0.022 -0.048,-0.033 -0.083,-0.033c-0.035,0 -0.064,0.011 -0.085,0.032c-0.021,0.021 -0.032,0.05 -0.032,0.086l0,0.32c0,0.009 -0.004,0.013 -0.013,0.013l-0.045,-0c-0.009,-0 -0.013,-0.004 -0.013,-0.013l0,-0.48c0,-0.009 0.004,-0.013 0.013,-0.013l0.045,0c0.009,0 0.013,0.004 0.013,0.013l0,0.035c0,0.002 0.001,0.003 0.002,0.004c0.001,0.001 0.003,0 0.004,-0.002c0.015,-0.019 0.033,-0.034 0.056,-0.043c0.023,-0.009 0.048,-0.014 0.076,-0.014c0.034,0 0.063,0.007 0.088,0.021c0.025,0.014 0.043,0.034 0.056,0.059c0.002,0.004 0.004,0.004 0.006,0.001c0.015,-0.027 0.035,-0.048 0.062,-0.061c0.027,-0.013 0.057,-0.02 0.091,-0.02Z" style="fill:#808080;fill-rule:nonzero;"/></g></g><path d="M384.727,412.028c-0.196,0 -0.295,-0.098 -0.295,-0.295l0,-15.277c0,-0.196 0.098,-0.295 0.295,-0.295l1.065,0c0.136,0 0.249,0.068 0.34,0.204l4.146,6.55c0.045,0.091 0.091,0.091 0.136,0l4.169,-6.55c0.091,-0.136 0.204,-0.204 0.34,-0.204l1.065,0c0.196,0 0.295,0.098 0.295,0.295l0,15.277c0,0.196 -0.098,0.295 -0.295,0.295l-1.019,0c-0.196,0 -0.295,-0.098 -0.295,-0.295l0,-12.512c0,-0.06 -0.015,-0.091 -0.045,-0.091c-0.03,0 -0.06,0.023 -0.091,0.068l-3.58,5.666c-0.091,0.136 -0.204,0.204 -0.34,0.204l-0.521,0c-0.136,0 -0.249,-0.068 -0.34,-0.204l-3.58,-5.666c-0.03,-0.045 -0.06,-0.068 -0.091,-0.068c-0.03,0 -0.045,0.03 -0.045,0.091l0,12.512c0,0.196 -0.098,0.295 -0.295,0.295l-1.019,0Z" style="fill:#808080;fill-rule:nonzero;"/><path d="M408.153,404.525c0.302,0.74 0.453,1.624 0.453,2.652c0,0.771 -0.113,1.496 -0.34,2.176c-0.302,0.922 -0.812,1.628 -1.529,2.119c-0.717,0.491 -1.605,0.737 -2.662,0.737c-1.072,0 -1.986,-0.28 -2.741,-0.839c-0.755,-0.559 -1.269,-1.3 -1.541,-2.221c-0.136,-0.468 -0.219,-1.02 -0.249,-1.655c0,-0.196 0.098,-0.295 0.295,-0.295l1.042,0c0.196,0 0.295,0.098 0.295,0.295c0.03,0.514 0.076,0.899 0.136,1.156c0.166,0.65 0.491,1.171 0.974,1.564c0.483,0.393 1.08,0.589 1.79,0.589c0.649,0 1.197,-0.155 1.643,-0.465c0.446,-0.31 0.767,-0.752 0.963,-1.326c0.211,-0.559 0.317,-1.186 0.317,-1.881c0,-0.892 -0.136,-1.632 -0.408,-2.221c-0.423,-1.088 -1.269,-1.632 -2.537,-1.632c-0.242,0 -0.483,0.045 -0.725,0.136c-0.091,0.03 -0.143,0.045 -0.159,0.045c-0.091,0 -0.166,-0.045 -0.227,-0.136l-0.498,-0.589c-0.06,-0.091 -0.091,-0.159 -0.091,-0.204c0,-0.045 0.03,-0.113 0.091,-0.204l3.942,-4.624c0.076,-0.091 0.053,-0.136 -0.068,-0.136l-6.344,0c-0.196,0 -0.295,-0.098 -0.295,-0.295l0,-0.816c0,-0.196 0.098,-0.295 0.295,-0.295l8.247,0c0.196,0 0.295,0.098 0.295,0.295l0,0.907c0,0.121 -0.045,0.242 -0.136,0.363l-3.648,4.374c-0.03,0.03 -0.038,0.06 -0.023,0.091c0.015,0.03 0.053,0.045 0.113,0.045c1.646,0.106 2.756,0.869 3.33,2.289Z" style="fill:#808080;fill-rule:nonzero;"/><path d="M411.03,412.028c-0.106,0 -0.177,-0.038 -0.215,-0.113c-0.038,-0.076 -0.026,-0.159 0.034,-0.249l3.716,-5.304c0.03,-0.045 0.03,-0.091 0,-0.136l-3.716,-5.304c-0.045,-0.076 -0.068,-0.128 -0.068,-0.159c0,-0.06 0.023,-0.11 0.068,-0.147c0.045,-0.038 0.106,-0.057 0.181,-0.057l1.087,0c0.151,0 0.272,0.06 0.362,0.181l2.9,4.216c0.03,0.03 0.06,0.045 0.091,0.045c0.03,0 0.053,-0.015 0.068,-0.045l2.9,-4.216c0.091,-0.121 0.211,-0.181 0.362,-0.181l1.201,0c0.121,0 0.2,0.038 0.238,0.113c0.038,0.076 0.019,0.159 -0.057,0.249l-3.738,5.304c-0.015,0.045 -0.015,0.091 0,0.136l3.738,5.304c0.045,0.06 0.068,0.113 0.068,0.159c0,0.06 -0.023,0.11 -0.068,0.147c-0.045,0.038 -0.106,0.057 -0.181,0.057l-1.11,0c-0.151,0 -0.272,-0.06 -0.362,-0.181l-2.9,-4.216c-0.015,-0.03 -0.038,-0.045 -0.068,-0.045c-0.03,0 -0.06,0.015 -0.091,0.045l-2.923,4.216c-0.091,0.121 -0.211,0.181 -0.362,0.181l-1.155,0Z" style="fill:#808080;fill-rule:nonzero;"/><path d="M427.275,412.254c-1.45,0 -2.605,-0.416 -3.466,-1.247c-0.861,-0.831 -1.291,-1.942 -1.291,-3.332l0,-7.162c0,-1.39 0.43,-2.497 1.291,-3.321c0.861,-0.824 2.016,-1.235 3.466,-1.235c1.465,0 2.636,0.416 3.512,1.247c0.876,0.831 1.314,1.934 1.314,3.309l0,7.162c0,1.39 -0.438,2.501 -1.314,3.332c-0.876,0.831 -2.047,1.247 -3.512,1.247Zm0,-1.405c0.967,0 1.744,-0.28 2.334,-0.839c0.589,-0.559 0.884,-1.307 0.884,-2.244l0,-7.321c0,-0.922 -0.291,-1.662 -0.872,-2.221c-0.581,-0.559 -1.363,-0.839 -2.345,-0.839c-0.952,0 -1.714,0.28 -2.288,0.839c-0.574,0.559 -0.861,1.3 -0.861,2.221l0,7.321c0,0.937 0.287,1.685 0.861,2.244c0.574,0.559 1.337,0.839 2.288,0.839Z" style="fill:#808080;fill-rule:nonzero;"/><path d="M436.767,411.96c-0.408,0 -0.744,-0.128 -1.008,-0.385c-0.264,-0.257 -0.396,-0.574 -0.396,-0.952c0,-0.363 0.14,-0.676 0.419,-0.941c0.279,-0.264 0.608,-0.397 0.986,-0.397c0.362,0 0.687,0.132 0.974,0.397c0.287,0.264 0.43,0.578 0.43,0.941c0,0.378 -0.136,0.695 -0.408,0.952c-0.272,0.257 -0.604,0.385 -0.997,0.385Z" style="fill:#808080;fill-rule:nonzero;"/><path d="M450.225,405.092c0.136,0.665 0.204,1.345 0.204,2.04c0,0.74 -0.068,1.375 -0.204,1.904c-0.257,0.967 -0.77,1.734 -1.541,2.301c-0.77,0.567 -1.699,0.85 -2.787,0.85c-1.072,0 -1.986,-0.272 -2.741,-0.816c-0.755,-0.544 -1.269,-1.269 -1.541,-2.176c-0.091,-0.302 -0.159,-0.604 -0.204,-0.907l0,-0.045c0,-0.091 0.026,-0.159 0.079,-0.204c0.053,-0.045 0.125,-0.068 0.215,-0.068l1.042,0c0.196,0 0.302,0.098 0.317,0.295c0,0.076 0.03,0.204 0.091,0.385c0.151,0.65 0.468,1.167 0.952,1.553c0.483,0.385 1.08,0.578 1.79,0.578c0.725,0 1.329,-0.204 1.812,-0.612c0.483,-0.408 0.8,-0.967 0.952,-1.677c0.091,-0.348 0.136,-0.793 0.136,-1.337c0,-0.514 -0.038,-1.012 -0.113,-1.496c-0.106,-0.695 -0.408,-1.224 -0.906,-1.587c-0.498,-0.363 -1.125,-0.544 -1.88,-0.544c-0.649,0 -1.223,0.136 -1.722,0.408c-0.498,0.272 -0.838,0.65 -1.019,1.133c-0.06,0.166 -0.174,0.249 -0.34,0.249l-1.11,0c-0.196,0 -0.295,-0.098 -0.295,-0.295l0,-8.568c0,-0.196 0.098,-0.295 0.295,-0.295l7.794,0c0.196,0 0.295,0.098 0.295,0.295l0,0.816c0,0.196 -0.098,0.295 -0.295,0.295l-6.366,0c-0.076,0 -0.113,0.038 -0.113,0.113l-0.023,5.417c0,0.06 0.015,0.094 0.045,0.102c0.03,0.008 0.06,-0.004 0.091,-0.034c0.378,-0.348 0.823,-0.612 1.337,-0.793c0.514,-0.181 1.05,-0.272 1.609,-0.272c1.072,0 1.979,0.261 2.719,0.782c0.74,0.521 1.216,1.258 1.427,2.21Z" style="fill:#808080;fill-rule:nonzero;"/><path d="M464.973,400.4c1.133,0 2.028,0.34 2.685,1.02c0.657,0.68 0.986,1.609 0.986,2.788l0,7.525c0,0.196 -0.098,0.295 -0.295,0.295l-0.997,0c-0.196,0 -0.295,-0.098 -0.295,-0.295l0,-7.208c0,-0.831 -0.238,-1.492 -0.714,-1.983c-0.476,-0.491 -1.099,-0.737 -1.869,-0.737c-0.8,0 -1.446,0.242 -1.937,0.725c-0.491,0.484 -0.736,1.133 -0.736,1.949l0,7.253c0,0.196 -0.098,0.295 -0.295,0.295l-1.019,0c-0.196,0 -0.295,-0.098 -0.295,-0.295l0,-7.208c0,-0.831 -0.234,-1.492 -0.702,-1.983c-0.468,-0.491 -1.095,-0.737 -1.88,-0.737c-0.8,0 -1.439,0.242 -1.914,0.725c-0.476,0.484 -0.714,1.133 -0.714,1.949l0,7.253c0,0.196 -0.098,0.295 -0.295,0.295l-1.019,0c-0.196,0 -0.295,-0.098 -0.295,-0.295l0,-10.88c0,-0.196 0.098,-0.295 0.295,-0.295l1.019,0c0.196,0 0.295,0.098 0.295,0.295l0,0.793c0,0.045 0.015,0.076 0.045,0.091c0.03,0.015 0.06,0 0.091,-0.045c0.332,-0.438 0.755,-0.763 1.269,-0.975c0.514,-0.212 1.087,-0.317 1.722,-0.317c0.77,0 1.435,0.159 1.994,0.476c0.559,0.317 0.982,0.763 1.269,1.337c0.045,0.091 0.091,0.098 0.136,0.023c0.332,-0.62 0.8,-1.08 1.405,-1.383c0.604,-0.302 1.291,-0.453 2.062,-0.453Z" style="fill:#808080;fill-rule:nonzero;"/><path d="M483.709,400.4c1.133,0 2.028,0.34 2.685,1.02c0.657,0.68 0.986,1.609 0.986,2.788l0,7.525c0,0.196 -0.098,0.295 -0.295,0.295l-0.997,0c-0.196,0 -0.295,-0.098 -0.295,-0.295l0,-7.208c0,-0.831 -0.238,-1.492 -0.714,-1.983c-0.476,-0.491 -1.099,-0.737 -1.869,-0.737c-0.8,0 -1.446,0.242 -1.937,0.725c-0.491,0.484 -0.736,1.133 -0.736,1.949l0,7.253c0,0.196 -0.098,0.295 -0.295,0.295l-1.019,0c-0.196,0 -0.295,-0.098 -0.295,-0.295l0,-7.208c0,-0.831 -0.234,-1.492 -0.702,-1.983c-0.468,-0.491 -1.095,-0.737 -1.88,-0.737c-0.8,0 -1.439,0.242 -1.914,0.725c-0.476,0.484 -0.714,1.133 -0.714,1.949l0,7.253c0,0.196 -0.098,0.295 -0.295,0.295l-1.019,0c-0.196,0 -0.295,-0.098 -0.295,-0.295l0,-10.88c0,-0.196 0.098,-0.295 0.295,-0.295l1.019,0c0.196,0 0.295,0.098 0.295,0.295l0,0.793c0,0.045 0.015,0.076 0.045,0.091c0.03,0.015 0.06,0 0.091,-0.045c0.332,-0.438 0.755,-0.763 1.269,-0.975c0.514,-0.212 1.087,-0.317 1.722,-0.317c0.77,0 1.435,0.159 1.994,0.476c0.559,0.317 0.982,0.763 1.269,1.337c0.045,0.091 0.091,0.098 0.136,0.023c0.332,-0.62 0.8,-1.08 1.405,-1.383c0.604,-0.302 1.291,-0.453 2.062,-0.453Z" style="fill:#808080;fill-rule:nonzero;"/><path d="M506.977,400.4c1.133,0 2.028,0.34 2.685,1.02c0.657,0.68 0.986,1.609 0.986,2.788l0,7.525c0,0.196 -0.098,0.295 -0.295,0.295l-0.997,0c-0.196,0 -0.295,-0.098 -0.295,-0.295l0,-7.208c0,-0.831 -0.238,-1.492 -0.714,-1.983c-0.476,-0.491 -1.099,-0.737 -1.869,-0.737c-0.8,0 -1.446,0.242 -1.937,0.725c-0.491,0.484 -0.736,1.133 -0.736,1.949l0,7.253c0,0.196 -0.098,0.295 -0.295,0.295l-1.019,0c-0.196,0 -0.295,-0.098 -0.295,-0.295l0,-7.208c0,-0.831 -0.234,-1.492 -0.702,-1.983c-0.468,-0.491 -1.095,-0.737 -1.88,-0.737c-0.8,0 -1.439,0.242 -1.914,0.725c-0.476,0.484 -0.714,1.133 -0.714,1.949l0,7.253c0,0.196 -0.098,0.295 -0.295,0.295l-1.019,0c-0.196,0 -0.295,-0.098 -0.295,-0.295l0,-10.88c0,-0.196 0.098,-0.295 0.295,-0.295l1.019,0c0.196,0 0.295,0.098 0.295,0.295l0,0.793c0,0.045 0.015,0.076 0.045,0.091c0.03,0.015 0.06,0 0.091,-0.045c0.332,-0.438 0.755,-0.763 1.269,-0.975c0.514,-0.212 1.087,-0.317 1.722,-0.317c0.77,0 1.435,0.159 1.994,0.476c0.559,0.317 0.982,0.763 1.269,1.337c0.045,0.091 0.091,0.098 0.136,0.023c0.332,-0.62 0.8,-1.08 1.405,-1.383c0.604,-0.302 1.291,-0.453 2.062,-0.453Z" style="fill:#808080;fill-rule:nonzero;"/><path d="M518.576,410.826c0.68,-0.015 1.265,-0.17 1.756,-0.465c0.491,-0.295 0.872,-0.706 1.144,-1.235c0.03,-0.076 0.083,-0.128 0.159,-0.159c0.076,-0.03 0.151,-0.023 0.227,0.023l0.657,0.363c0.181,0.106 0.227,0.234 0.136,0.385c-0.362,0.756 -0.906,1.356 -1.631,1.802c-0.725,0.446 -1.586,0.669 -2.583,0.669c-1.057,0 -1.948,-0.249 -2.673,-0.748c-0.725,-0.499 -1.246,-1.194 -1.563,-2.085c-0.287,-0.756 -0.43,-1.798 -0.43,-3.128c0,-0.65 0.011,-1.167 0.034,-1.553c0.023,-0.385 0.079,-0.744 0.17,-1.077c0.257,-0.982 0.774,-1.768 1.552,-2.357c0.778,-0.589 1.718,-0.884 2.821,-0.884c1.314,0 2.345,0.34 3.092,1.02c0.748,0.68 1.227,1.639 1.439,2.879c0.091,0.484 0.136,1.239 0.136,2.267c0,0.196 -0.098,0.295 -0.295,0.295l-7.25,0c-0.076,0 -0.113,0.038 -0.113,0.113c0,0.756 0.045,1.307 0.136,1.655c0.166,0.68 0.517,1.22 1.053,1.621c0.536,0.4 1.212,0.601 2.028,0.601Zm-0.227,-9.044c-0.755,0 -1.374,0.193 -1.858,0.578c-0.483,0.385 -0.8,0.903 -0.952,1.553c-0.091,0.302 -0.151,0.816 -0.181,1.541c0,0.076 0.038,0.113 0.113,0.113l5.822,0c0.076,0 0.113,-0.038 0.113,-0.113c-0.03,-0.665 -0.076,-1.148 -0.136,-1.451c-0.166,-0.68 -0.502,-1.22 -1.008,-1.621c-0.506,-0.4 -1.144,-0.601 -1.914,-0.601Z" style="fill:#808080;fill-rule:nonzero;"/><path d="M531.354,401.601c0,0.196 -0.098,0.295 -0.295,0.295l-2.469,0c-0.076,0 -0.113,0.038 -0.113,0.113l0,6.618c0,0.725 0.162,1.235 0.487,1.53c0.325,0.295 0.834,0.442 1.529,0.442l0.498,0c0.196,0 0.295,0.098 0.295,0.295l0,0.793c0,0.196 -0.098,0.302 -0.295,0.317l-0.77,0c-1.087,0 -1.911,-0.204 -2.469,-0.612c-0.559,-0.408 -0.838,-1.164 -0.838,-2.267l0,-7.117c0,-0.076 -0.038,-0.113 -0.113,-0.113l-1.291,0c-0.196,0 -0.295,-0.098 -0.295,-0.295l0,-0.748c0,-0.196 0.098,-0.295 0.295,-0.295l1.291,0c0.076,0 0.113,-0.038 0.113,-0.113l0,-2.539c0,-0.196 0.098,-0.295 0.295,-0.295l0.974,0c0.196,0 0.295,0.098 0.295,0.295l0,2.539c0,0.076 0.038,0.113 0.113,0.113l2.469,0c0.196,0 0.295,0.098 0.295,0.295l0,0.748Z" style="fill:#808080;fill-rule:nonzero;"/><path d="M538.423,400.377c1.359,0 2.413,0.348 3.16,1.043c0.748,0.695 1.121,1.617 1.121,2.765l0,7.548c0,0.196 -0.098,0.295 -0.295,0.295l-1.019,0c-0.196,0 -0.295,-0.098 -0.295,-0.295l0,-0.816c0,-0.045 -0.015,-0.076 -0.045,-0.091c-0.03,-0.015 -0.06,0 -0.091,0.045c-0.408,0.438 -0.918,0.771 -1.529,0.997c-0.612,0.227 -1.28,0.34 -2.005,0.34c-1.057,0 -1.945,-0.272 -2.662,-0.816c-0.717,-0.544 -1.076,-1.375 -1.076,-2.493c0,-1.133 0.412,-2.029 1.235,-2.686c0.823,-0.657 1.967,-0.986 3.432,-0.986l2.628,0c0.076,0 0.113,-0.038 0.113,-0.113l0,-0.839c0,-0.771 -0.215,-1.379 -0.646,-1.825c-0.43,-0.446 -1.099,-0.669 -2.005,-0.669c-0.71,0 -1.291,0.136 -1.744,0.408c-0.453,0.272 -0.74,0.65 -0.861,1.133c-0.045,0.181 -0.159,0.257 -0.34,0.227l-1.11,-0.136c-0.196,-0.03 -0.287,-0.113 -0.272,-0.249c0.151,-0.831 0.615,-1.503 1.393,-2.017c0.778,-0.514 1.748,-0.771 2.911,-0.771Zm-0.634,10.449c0.891,0 1.665,-0.223 2.322,-0.669c0.657,-0.446 0.986,-1.046 0.986,-1.802l0,-1.745c0,-0.076 -0.038,-0.113 -0.113,-0.113l-2.379,0c-0.997,0 -1.797,0.204 -2.401,0.612c-0.604,0.408 -0.906,0.975 -0.906,1.7c0,0.665 0.234,1.167 0.702,1.507c0.468,0.34 1.065,0.51 1.79,0.51Z" style="fill:#808080;fill-rule:nonzero;"/><path d="M546.329,412.028c-0.196,0 -0.295,-0.098 -0.295,-0.295l0,-15.277c0,-0.196 0.098,-0.295 0.295,-0.295l1.019,0c0.196,0 0.295,0.098 0.295,0.295l0,15.277c0,0.196 -0.098,0.295 -0.295,0.295l-1.019,0Z" style="fill:#808080;fill-rule:nonzero;"/><path d="M560.965,401.601c0,0.196 -0.098,0.295 -0.295,0.295l-2.469,0c-0.076,0 -0.113,0.038 -0.113,0.113l0,6.618c0,0.725 0.162,1.235 0.487,1.53c0.325,0.295 0.834,0.442 1.529,0.442l0.498,0c0.196,0 0.295,0.098 0.295,0.295l0,0.793c0,0.196 -0.098,0.302 -0.295,0.317l-0.77,0c-1.087,0 -1.911,-0.204 -2.469,-0.612c-0.559,-0.408 -0.838,-1.164 -0.838,-2.267l0,-7.117c0,-0.076 -0.038,-0.113 -0.113,-0.113l-1.291,0c-0.196,0 -0.295,-0.098 -0.295,-0.295l0,-0.748c0,-0.196 0.098,-0.295 0.295,-0.295l1.291,0c0.076,0 0.113,-0.038 0.113,-0.113l0,-2.539c0,-0.196 0.098,-0.295 0.295,-0.295l0.974,0c0.196,0 0.295,0.098 0.295,0.295l0,2.539c0,0.076 0.038,0.113 0.113,0.113l2.469,0c0.196,0 0.295,0.098 0.295,0.295l0,0.748Z" style="fill:#808080;fill-rule:nonzero;"/><path d="M568.826,400.4c1.193,0 2.148,0.355 2.866,1.065c0.717,0.71 1.076,1.662 1.076,2.856l0,7.412c0,0.196 -0.098,0.295 -0.295,0.295l-1.019,0c-0.196,0 -0.295,-0.098 -0.295,-0.295l0,-7.094c0,-0.846 -0.249,-1.53 -0.748,-2.051c-0.498,-0.521 -1.148,-0.782 -1.948,-0.782c-0.77,0 -1.408,0.219 -1.914,0.657c-0.506,0.438 -0.797,1.012 -0.872,1.723l0,7.548c0,0.196 -0.098,0.295 -0.295,0.295l-1.019,0c-0.196,0 -0.295,-0.098 -0.295,-0.295l0,-15.277c0,-0.196 0.098,-0.295 0.295,-0.295l1.019,0c0.196,0 0.295,0.098 0.295,0.295l0,5.236c0,0.045 0.015,0.079 0.045,0.102c0.03,0.023 0.053,0.011 0.068,-0.034c0.665,-0.907 1.677,-1.36 3.036,-1.36Z" style="fill:#808080;fill-rule:nonzero;"/><path d="M580.902,400.445c0.498,0 0.914,0.091 1.246,0.272c0.151,0.06 0.204,0.181 0.159,0.363l-0.227,0.997c-0.045,0.181 -0.166,0.242 -0.362,0.181c-0.287,-0.091 -0.657,-0.128 -1.11,-0.113c-0.785,0.03 -1.435,0.321 -1.948,0.873c-0.514,0.552 -0.77,1.25 -0.77,2.097l0,6.618c0,0.196 -0.098,0.295 -0.295,0.295l-1.019,0c-0.196,0 -0.295,-0.098 -0.295,-0.295l0,-10.88c0,-0.196 0.098,-0.295 0.295,-0.295l1.019,0c0.196,0 0.295,0.098 0.295,0.295l0,1.269c0,0.06 0.011,0.094 0.034,0.102c0.023,0.008 0.049,-0.011 0.079,-0.057c0.317,-0.544 0.721,-0.967 1.212,-1.269c0.491,-0.302 1.053,-0.453 1.688,-0.453Z" style="fill:#808080;fill-rule:nonzero;"/><path d="M588.99,410.826c0.68,-0.015 1.265,-0.17 1.756,-0.465c0.491,-0.295 0.872,-0.706 1.144,-1.235c0.03,-0.076 0.083,-0.128 0.159,-0.159c0.076,-0.03 0.151,-0.023 0.227,0.023l0.657,0.363c0.181,0.106 0.227,0.234 0.136,0.385c-0.362,0.756 -0.906,1.356 -1.631,1.802c-0.725,0.446 -1.586,0.669 -2.583,0.669c-1.057,0 -1.948,-0.249 -2.673,-0.748c-0.725,-0.499 -1.246,-1.194 -1.563,-2.085c-0.287,-0.756 -0.43,-1.798 -0.43,-3.128c0,-0.65 0.011,-1.167 0.034,-1.553c0.023,-0.385 0.079,-0.744 0.17,-1.077c0.257,-0.982 0.774,-1.768 1.552,-2.357c0.778,-0.589 1.718,-0.884 2.821,-0.884c1.314,0 2.345,0.34 3.092,1.02c0.748,0.68 1.227,1.639 1.439,2.879c0.091,0.484 0.136,1.239 0.136,2.267c0,0.196 -0.098,0.295 -0.295,0.295l-7.25,0c-0.076,0 -0.113,0.038 -0.113,0.113c0,0.756 0.045,1.307 0.136,1.655c0.166,0.68 0.517,1.22 1.053,1.621c0.536,0.4 1.212,0.601 2.028,0.601Zm-0.227,-9.044c-0.755,0 -1.374,0.193 -1.858,0.578c-0.483,0.385 -0.8,0.903 -0.952,1.553c-0.091,0.302 -0.151,0.816 -0.181,1.541c0,0.076 0.038,0.113 0.113,0.113l5.822,0c0.076,0 0.113,-0.038 0.113,-0.113c-0.03,-0.665 -0.076,-1.148 -0.136,-1.451c-0.166,-0.68 -0.502,-1.22 -1.008,-1.621c-0.506,-0.4 -1.144,-0.601 -1.914,-0.601Z" style="fill:#808080;fill-rule:nonzero;"/><path d="M600.589,400.377c1.359,0 2.413,0.348 3.16,1.043c0.748,0.695 1.121,1.617 1.121,2.765l0,7.548c0,0.196 -0.098,0.295 -0.295,0.295l-1.019,0c-0.196,0 -0.295,-0.098 -0.295,-0.295l0,-0.816c0,-0.045 -0.015,-0.076 -0.045,-0.091c-0.03,-0.015 -0.06,0 -0.091,0.045c-0.408,0.438 -0.918,0.771 -1.529,0.997c-0.612,0.227 -1.28,0.34 -2.005,0.34c-1.057,0 -1.945,-0.272 -2.662,-0.816c-0.717,-0.544 -1.076,-1.375 -1.076,-2.493c0,-1.133 0.412,-2.029 1.235,-2.686c0.823,-0.657 1.967,-0.986 3.432,-0.986l2.628,0c0.076,0 0.113,-0.038 0.113,-0.113l0,-0.839c0,-0.771 -0.215,-1.379 -0.646,-1.825c-0.43,-0.446 -1.099,-0.669 -2.005,-0.669c-0.71,0 -1.291,0.136 -1.744,0.408c-0.453,0.272 -0.74,0.65 -0.861,1.133c-0.045,0.181 -0.159,0.257 -0.34,0.227l-1.11,-0.136c-0.196,-0.03 -0.287,-0.113 -0.272,-0.249c0.151,-0.831 0.615,-1.503 1.393,-2.017c0.778,-0.514 1.748,-0.771 2.911,-0.771Zm-0.634,10.449c0.891,0 1.665,-0.223 2.322,-0.669c0.657,-0.446 0.986,-1.046 0.986,-1.802l0,-1.745c0,-0.076 -0.038,-0.113 -0.113,-0.113l-2.379,0c-0.997,0 -1.797,0.204 -2.401,0.612c-0.604,0.408 -0.906,0.975 -0.906,1.7c0,0.665 0.234,1.167 0.702,1.507c0.468,0.34 1.065,0.51 1.79,0.51Z" style="fill:#808080;fill-rule:nonzero;"/><path d="M615.247,396.456c0,-0.196 0.098,-0.295 0.295,-0.295l1.019,0c0.196,0 0.295,0.098 0.295,0.295l0,15.277c0,0.196 -0.098,0.295 -0.295,0.295l-1.019,0c-0.196,0 -0.295,-0.098 -0.295,-0.295l0,-0.861c0,-0.045 -0.015,-0.072 -0.045,-0.079c-0.03,-0.008 -0.06,0.004 -0.091,0.034c-0.332,0.438 -0.744,0.778 -1.235,1.02c-0.491,0.242 -1.038,0.363 -1.643,0.363c-1.057,0 -1.945,-0.272 -2.662,-0.816c-0.717,-0.544 -1.212,-1.284 -1.484,-2.221c-0.211,-0.68 -0.317,-1.639 -0.317,-2.879c0,-1.254 0.091,-2.191 0.272,-2.811c0.272,-0.967 0.77,-1.726 1.495,-2.278c0.725,-0.552 1.624,-0.827 2.696,-0.827c0.589,0 1.133,0.117 1.631,0.351c0.498,0.234 0.914,0.57 1.246,1.009c0.03,0.045 0.06,0.06 0.091,0.045c0.03,-0.015 0.045,-0.045 0.045,-0.091l0,-5.236Zm-0.43,12.602c0.136,-0.302 0.234,-0.657 0.295,-1.065c0.06,-0.408 0.091,-0.975 0.091,-1.7c0,-0.725 -0.03,-1.296 -0.091,-1.711c-0.06,-0.416 -0.166,-0.782 -0.317,-1.099c-0.181,-0.514 -0.48,-0.926 -0.895,-1.235c-0.415,-0.31 -0.91,-0.465 -1.484,-0.465c-0.604,0 -1.125,0.151 -1.563,0.453c-0.438,0.302 -0.755,0.703 -0.952,1.201c-0.181,0.332 -0.313,0.706 -0.396,1.122c-0.083,0.416 -0.125,0.994 -0.125,1.734c0,0.71 0.03,1.266 0.091,1.666c0.06,0.4 0.166,0.759 0.317,1.077c0.181,0.544 0.502,0.975 0.963,1.292c0.461,0.317 1.008,0.476 1.643,0.476c0.604,0 1.11,-0.159 1.518,-0.476c0.408,-0.317 0.71,-0.74 0.906,-1.269Z" style="fill:#808080;fill-rule:nonzero;"/><path d="M624.944,410.826c0.68,-0.015 1.265,-0.17 1.756,-0.465c0.491,-0.295 0.872,-0.706 1.144,-1.235c0.03,-0.076 0.083,-0.128 0.159,-0.159c0.076,-0.03 0.151,-0.023 0.227,0.023l0.657,0.363c0.181,0.106 0.227,0.234 0.136,0.385c-0.362,0.756 -0.906,1.356 -1.631,1.802c-0.725,0.446 -1.586,0.669 -2.583,0.669c-1.057,0 -1.948,-0.249 -2.673,-0.748c-0.725,-0.499 -1.246,-1.194 -1.563,-2.085c-0.287,-0.756 -0.43,-1.798 -0.43,-3.128c0,-0.65 0.011,-1.167 0.034,-1.553c0.023,-0.385 0.079,-0.744 0.17,-1.077c0.257,-0.982 0.774,-1.768 1.552,-2.357c0.778,-0.589 1.718,-0.884 2.821,-0.884c1.314,0 2.345,0.34 3.092,1.02c0.748,0.68 1.227,1.639 1.439,2.879c0.091,0.484 0.136,1.239 0.136,2.267c0,0.196 -0.098,0.295 -0.295,0.295l-7.25,0c-0.076,0 -0.113,0.038 -0.113,0.113c0,0.756 0.045,1.307 0.136,1.655c0.166,0.68 0.517,1.22 1.053,1.621c0.536,0.4 1.212,0.601 2.028,0.601Zm-0.227,-9.044c-0.755,0 -1.374,0.193 -1.858,0.578c-0.483,0.385 -0.8,0.903 -0.952,1.553c-0.091,0.302 -0.151,0.816 -0.181,1.541c0,0.076 0.038,0.113 0.113,0.113l5.822,0c0.076,0 0.113,-0.038 0.113,-0.113c-0.03,-0.665 -0.076,-1.148 -0.136,-1.451c-0.166,-0.68 -0.502,-1.22 -1.008,-1.621c-0.506,-0.4 -1.144,-0.601 -1.914,-0.601Z" style="fill:#808080;fill-rule:nonzero;"/><path d="M639.625,396.456c0,-0.196 0.098,-0.295 0.295,-0.295l1.019,0c0.196,0 0.295,0.098 0.295,0.295l0,15.277c0,0.196 -0.098,0.295 -0.295,0.295l-1.019,0c-0.196,0 -0.295,-0.098 -0.295,-0.295l0,-0.861c0,-0.045 -0.015,-0.072 -0.045,-0.079c-0.03,-0.008 -0.06,0.004 -0.091,0.034c-0.332,0.438 -0.744,0.778 -1.235,1.02c-0.491,0.242 -1.038,0.363 -1.643,0.363c-1.057,0 -1.945,-0.272 -2.662,-0.816c-0.717,-0.544 -1.212,-1.284 -1.484,-2.221c-0.211,-0.68 -0.317,-1.639 -0.317,-2.879c0,-1.254 0.091,-2.191 0.272,-2.811c0.272,-0.967 0.77,-1.726 1.495,-2.278c0.725,-0.552 1.624,-0.827 2.696,-0.827c0.589,0 1.133,0.117 1.631,0.351c0.498,0.234 0.914,0.57 1.246,1.009c0.03,0.045 0.06,0.06 0.091,0.045c0.03,-0.015 0.045,-0.045 0.045,-0.091l0,-5.236Zm-0.43,12.602c0.136,-0.302 0.234,-0.657 0.295,-1.065c0.06,-0.408 0.091,-0.975 0.091,-1.7c0,-0.725 -0.03,-1.296 -0.091,-1.711c-0.06,-0.416 -0.166,-0.782 -0.317,-1.099c-0.181,-0.514 -0.48,-0.926 -0.895,-1.235c-0.415,-0.31 -0.91,-0.465 -1.484,-0.465c-0.604,0 -1.125,0.151 -1.563,0.453c-0.438,0.302 -0.755,0.703 -0.952,1.201c-0.181,0.332 -0.313,0.706 -0.396,1.122c-0.083,0.416 -0.125,0.994 -0.125,1.734c0,0.71 0.03,1.266 0.091,1.666c0.06,0.4 0.166,0.759 0.317,1.077c0.181,0.544 0.502,0.975 0.963,1.292c0.461,0.317 1.008,0.476 1.643,0.476c0.604,0 1.11,-0.159 1.518,-0.476c0.408,-0.317 0.71,-0.74 0.906,-1.269Z" style="fill:#808080;fill-rule:nonzero;"/><path d="M650.363,398.496c-0.362,0 -0.657,-0.11 -0.884,-0.329c-0.227,-0.219 -0.34,-0.502 -0.34,-0.85c0,-0.348 0.113,-0.627 0.34,-0.839c0.227,-0.212 0.521,-0.317 0.884,-0.317c0.362,0 0.657,0.106 0.884,0.317c0.227,0.212 0.34,0.491 0.34,0.839c0,0.348 -0.113,0.631 -0.34,0.85c-0.227,0.219 -0.521,0.329 -0.884,0.329Zm-0.498,13.531c-0.196,0 -0.295,-0.098 -0.295,-0.295l0,-10.88c0,-0.196 0.098,-0.295 0.295,-0.295l1.019,0c0.196,0 0.295,0.098 0.295,0.295l0,10.88c0,0.196 -0.098,0.295 -0.295,0.295l-1.019,0Z" style="fill:#808080;fill-rule:nonzero;"/><path d="M659.698,400.4c1.193,0 2.148,0.355 2.866,1.065c0.717,0.71 1.076,1.662 1.076,2.856l0,7.412c0,0.196 -0.098,0.295 -0.295,0.295l-1.019,0c-0.196,0 -0.295,-0.098 -0.295,-0.295l0,-7.094c0,-0.846 -0.249,-1.53 -0.748,-2.051c-0.498,-0.521 -1.148,-0.782 -1.948,-0.782c-0.77,0 -1.408,0.219 -1.914,0.657c-0.506,0.438 -0.797,1.012 -0.872,1.723l0,7.548c0,0.196 -0.098,0.295 -0.295,0.295l-1.019,0c-0.196,0 -0.295,-0.098 -0.295,-0.295l0,-10.88c0,-0.196 0.098,-0.295 0.295,-0.295l1.019,0c0.196,0 0.295,0.098 0.295,0.295l0,0.839c0,0.045 0.015,0.079 0.045,0.102c0.03,0.023 0.053,0.011 0.068,-0.034c0.665,-0.907 1.677,-1.36 3.036,-1.36Z" style="fill:#808080;fill-rule:nonzero;"/><path d="M670.912,412.141c-0.846,0 -1.597,-0.136 -2.254,-0.408c-0.657,-0.272 -1.163,-0.635 -1.518,-1.088c-0.355,-0.453 -0.532,-0.96 -0.532,-1.519l0,-0.204c0,-0.196 0.098,-0.295 0.295,-0.295l0.974,0c0.091,0 0.162,0.019 0.215,0.057c0.053,0.038 0.079,0.087 0.079,0.147l0,0.204c0,0.499 0.257,0.933 0.77,1.303c0.514,0.37 1.163,0.555 1.948,0.555c0.785,0 1.42,-0.178 1.903,-0.533c0.483,-0.355 0.725,-0.805 0.725,-1.349c0,-0.378 -0.121,-0.688 -0.362,-0.929c-0.242,-0.242 -0.536,-0.431 -0.884,-0.567c-0.347,-0.136 -0.868,-0.31 -1.563,-0.521c-0.846,-0.242 -1.541,-0.484 -2.084,-0.725c-0.544,-0.242 -1.004,-0.578 -1.382,-1.009c-0.378,-0.431 -0.566,-0.978 -0.566,-1.643c0,-0.967 0.381,-1.738 1.144,-2.312c0.763,-0.574 1.763,-0.861 3.002,-0.861c0.831,0 1.567,0.136 2.209,0.408c0.642,0.272 1.137,0.646 1.484,1.122c0.347,0.476 0.521,1.009 0.521,1.598c0,0.196 -0.098,0.295 -0.295,0.295l-0.929,0c-0.196,0 -0.295,-0.053 -0.295,-0.159l0,-0.136c0,-0.514 -0.245,-0.944 -0.736,-1.292c-0.491,-0.348 -1.152,-0.521 -1.982,-0.521c-0.77,0 -1.39,0.155 -1.858,0.465c-0.468,0.31 -0.702,0.737 -0.702,1.281c0,0.514 0.223,0.907 0.668,1.179c0.446,0.272 1.144,0.544 2.096,0.816c0.876,0.242 1.586,0.476 2.13,0.703c0.544,0.227 1.012,0.559 1.405,0.997c0.393,0.438 0.589,1.005 0.589,1.7c0,0.982 -0.381,1.768 -1.144,2.357c-0.763,0.589 -1.786,0.884 -3.07,0.884Z" style="fill:#808080;fill-rule:nonzero;"/><path d="M682.534,410.826c0.68,-0.015 1.265,-0.17 1.756,-0.465c0.491,-0.295 0.872,-0.706 1.144,-1.235c0.03,-0.076 0.083,-0.128 0.159,-0.159c0.076,-0.03 0.151,-0.023 0.227,0.023l0.657,0.363c0.181,0.106 0.227,0.234 0.136,0.385c-0.362,0.756 -0.906,1.356 -1.631,1.802c-0.725,0.446 -1.586,0.669 -2.583,0.669c-1.057,0 -1.948,-0.249 -2.673,-0.748c-0.725,-0.499 -1.246,-1.194 -1.563,-2.085c-0.287,-0.756 -0.43,-1.798 -0.43,-3.128c0,-0.65 0.011,-1.167 0.034,-1.553c0.023,-0.385 0.079,-0.744 0.17,-1.077c0.257,-0.982 0.774,-1.768 1.552,-2.357c0.778,-0.589 1.718,-0.884 2.821,-0.884c1.314,0 2.345,0.34 3.092,1.02c0.748,0.68 1.227,1.639 1.439,2.879c0.091,0.484 0.136,1.239 0.136,2.267c0,0.196 -0.098,0.295 -0.295,0.295l-7.25,0c-0.076,0 -0.113,0.038 -0.113,0.113c0,0.756 0.045,1.307 0.136,1.655c0.166,0.68 0.517,1.22 1.053,1.621c0.536,0.4 1.212,0.601 2.028,0.601Zm-0.227,-9.044c-0.755,0 -1.374,0.193 -1.858,0.578c-0.483,0.385 -0.8,0.903 -0.952,1.553c-0.091,0.302 -0.151,0.816 -0.181,1.541c0,0.076 0.038,0.113 0.113,0.113l5.822,0c0.076,0 0.113,-0.038 0.113,-0.113c-0.03,-0.665 -0.076,-1.148 -0.136,-1.451c-0.166,-0.68 -0.502,-1.22 -1.008,-1.621c-0.506,-0.4 -1.144,-0.601 -1.914,-0.601Z" style="fill:#808080;fill-rule:nonzero;"/><path d="M694.791,400.445c0.498,0 0.914,0.091 1.246,0.272c0.151,0.06 0.204,0.181 0.159,0.363l-0.227,0.997c-0.045,0.181 -0.166,0.242 -0.362,0.181c-0.287,-0.091 -0.657,-0.128 -1.11,-0.113c-0.785,0.03 -1.435,0.321 -1.948,0.873c-0.514,0.552 -0.77,1.25 -0.77,2.097l0,6.618c0,0.196 -0.098,0.295 -0.295,0.295l-1.019,0c-0.196,0 -0.295,-0.098 -0.295,-0.295l0,-10.88c0,-0.196 0.098,-0.295 0.295,-0.295l1.019,0c0.196,0 0.295,0.098 0.295,0.295l0,1.269c0,0.06 0.011,0.094 0.034,0.102c0.023,0.008 0.049,-0.011 0.079,-0.057c0.317,-0.544 0.721,-0.967 1.212,-1.269c0.491,-0.302 1.053,-0.453 1.688,-0.453Z" style="fill:#808080;fill-rule:nonzero;"/><path d="M703.559,401.601c0,0.196 -0.098,0.295 -0.295,0.295l-2.469,0c-0.076,0 -0.113,0.038 -0.113,0.113l0,6.618c0,0.725 0.162,1.235 0.487,1.53c0.325,0.295 0.834,0.442 1.529,0.442l0.498,0c0.196,0 0.295,0.098 0.295,0.295l0,0.793c0,0.196 -0.098,0.302 -0.295,0.317l-0.77,0c-1.087,0 -1.911,-0.204 -2.469,-0.612c-0.559,-0.408 -0.838,-1.164 -0.838,-2.267l0,-7.117c0,-0.076 -0.038,-0.113 -0.113,-0.113l-1.291,0c-0.196,0 -0.295,-0.098 -0.295,-0.295l0,-0.748c0,-0.196 0.098,-0.295 0.295,-0.295l1.291,0c0.076,0 0.113,-0.038 0.113,-0.113l0,-2.539c0,-0.196 0.098,-0.295 0.295,-0.295l0.974,0c0.196,0 0.295,0.098 0.295,0.295l0,2.539c0,0.076 0.038,0.113 0.113,0.113l2.469,0c0.196,0 0.295,0.098 0.295,0.295l0,0.748Z" style="fill:#808080;fill-rule:nonzero;"/><path d="M120.595,315.888c-0.06,-0.106 -0.091,-0.234 -0.091,-0.385l0,-1.111c0,-0.196 0.098,-0.295 0.295,-0.295l15.277,0c0.196,0 0.295,0.098 0.295,0.295l0,1.02c0,0.196 -0.098,0.295 -0.295,0.295l-13.803,0c-0.045,0 -0.076,0.011 -0.091,0.034c-0.015,0.023 -0.015,0.057 0,0.102l0.997,2.38c0.015,0.03 0.023,0.076 0.023,0.136c0,0.136 -0.083,0.204 -0.249,0.204l-0.703,0c-0.151,0 -0.264,-0.068 -0.34,-0.204l-1.315,-2.471Z" style="fill:#808080;fill-rule:nonzero;"/><path d="M120.595,308.091c-0.06,-0.106 -0.091,-0.234 -0.091,-0.385l0,-1.111c0,-0.196 0.098,-0.295 0.295,-0.295l15.277,0c0.196,0 0.295,0.098 0.295,0.295l0,1.02c0,0.196 -0.098,0.295 -0.295,0.295l-13.803,0c-0.045,0 -0.076,0.011 -0.091,0.034c-0.015,0.023 -0.015,0.057 0,0.102l0.997,2.38c0.015,0.03 0.023,0.076 0.023,0.136c0,0.136 -0.083,0.204 -0.249,0.204l-0.703,0c-0.151,0 -0.264,-0.068 -0.34,-0.204l-1.315,-2.471Z" style="fill:#808080;fill-rule:nonzero;"/><path d="M136.302,301.132c0,0.408 -0.128,0.744 -0.385,1.009c-0.257,0.264 -0.574,0.397 -0.952,0.397c-0.363,0 -0.676,-0.14 -0.941,-0.419c-0.264,-0.28 -0.397,-0.608 -0.397,-0.986c0,-0.363 0.132,-0.688 0.397,-0.975c0.264,-0.287 0.578,-0.431 0.941,-0.431c0.378,0 0.695,0.136 0.952,0.408c0.257,0.272 0.385,0.604 0.385,0.997Z" style="fill:#808080;fill-rule:nonzero;"/><path d="M129.707,288.031c0.589,-0.287 1.33,-0.431 2.221,-0.431c1.028,0 1.911,0.212 2.652,0.635c0.62,0.363 1.103,0.88 1.451,1.553c0.348,0.672 0.521,1.454 0.521,2.346c0,0.892 -0.181,1.677 -0.544,2.357c-0.363,0.68 -0.876,1.201 -1.541,1.564c-0.725,0.408 -1.579,0.612 -2.561,0.612c-0.831,0 -1.587,-0.151 -2.267,-0.453c-0.756,-0.363 -1.322,-0.869 -1.7,-1.519c-0.045,-0.076 -0.091,-0.076 -0.136,0c-0.332,0.529 -0.725,0.952 -1.179,1.269c-0.65,0.453 -1.39,0.68 -2.221,0.68c-0.846,0 -1.587,-0.212 -2.221,-0.635c-0.604,-0.378 -1.073,-0.903 -1.405,-1.575c-0.332,-0.672 -0.499,-1.439 -0.499,-2.301c0,-0.952 0.178,-1.768 0.533,-2.448c0.355,-0.68 0.88,-1.201 1.575,-1.564c0.589,-0.332 1.262,-0.499 2.017,-0.499c0.831,0 1.549,0.219 2.153,0.657c0.514,0.348 0.929,0.778 1.247,1.292c0.06,0.091 0.113,0.091 0.159,0c0.393,-0.695 0.975,-1.209 1.745,-1.541Zm-5.168,7.027c0.635,0 1.186,-0.166 1.655,-0.499c0.363,-0.242 0.646,-0.559 0.85,-0.952c0.204,-0.393 0.314,-0.846 0.329,-1.36l0,-0.136c0,-0.544 -0.113,-1.024 -0.34,-1.439c-0.227,-0.416 -0.536,-0.759 -0.929,-1.031c-0.438,-0.287 -0.967,-0.431 -1.587,-0.431c-0.559,0 -1.043,0.113 -1.451,0.34c-0.438,0.242 -0.782,0.586 -1.031,1.031c-0.249,0.446 -0.374,0.971 -0.374,1.575c0,0.574 0.125,1.08 0.374,1.519c0.249,0.438 0.593,0.778 1.031,1.02c0.453,0.242 0.944,0.363 1.473,0.363Zm9.474,-5.304c-0.604,-0.363 -1.345,-0.544 -2.221,-0.544c-0.529,0 -1.05,0.091 -1.564,0.272c-0.544,0.212 -0.963,0.544 -1.258,0.997c-0.295,0.453 -0.442,1.005 -0.442,1.655c0,1.254 0.544,2.116 1.632,2.584c0.438,0.212 0.997,0.317 1.677,0.317c0.801,0 1.496,-0.159 2.085,-0.476c0.831,-0.514 1.247,-1.322 1.247,-2.425c0,-1.073 -0.385,-1.866 -1.156,-2.38Z" style="fill:#808080;fill-rule:nonzero;"/><path d="M129.707,276.267c0.589,-0.287 1.33,-0.431 2.221,-0.431c1.028,0 1.911,0.212 2.652,0.635c0.62,0.363 1.103,0.88 1.451,1.553c0.348,0.672 0.521,1.454 0.521,2.346c0,0.892 -0.181,1.677 -0.544,2.357c-0.363,0.68 -0.876,1.201 -1.541,1.564c-0.725,0.408 -1.579,0.612 -2.561,0.612c-0.831,0 -1.587,-0.151 -2.267,-0.453c-0.756,-0.363 -1.322,-0.869 -1.7,-1.519c-0.045,-0.076 -0.091,-0.076 -0.136,0c-0.332,0.529 -0.725,0.952 -1.179,1.269c-0.65,0.453 -1.39,0.68 -2.221,0.68c-0.846,0 -1.587,-0.212 -2.221,-0.635c-0.604,-0.378 -1.073,-0.903 -1.405,-1.575c-0.332,-0.672 -0.499,-1.439 -0.499,-2.301c0,-0.952 0.178,-1.768 0.533,-2.448c0.355,-0.68 0.88,-1.201 1.575,-1.564c0.589,-0.332 1.262,-0.499 2.017,-0.499c0.831,0 1.549,0.219 2.153,0.657c0.514,0.348 0.929,0.778 1.247,1.292c0.06,0.091 0.113,0.091 0.159,0c0.393,-0.695 0.975,-1.209 1.745,-1.541Zm-5.168,7.027c0.635,0 1.186,-0.166 1.655,-0.499c0.363,-0.242 0.646,-0.559 0.85,-0.952c0.204,-0.393 0.314,-0.846 0.329,-1.36l0,-0.136c0,-0.544 -0.113,-1.024 -0.34,-1.439c-0.227,-0.416 -0.536,-0.759 -0.929,-1.031c-0.438,-0.287 -0.967,-0.431 -1.587,-0.431c-0.559,0 -1.043,0.113 -1.451,0.34c-0.438,0.242 -0.782,0.586 -1.031,1.031c-0.249,0.446 -0.374,0.971 -0.374,1.575c0,0.574 0.125,1.08 0.374,1.519c0.249,0.438 0.593,0.778 1.031,1.02c0.453,0.242 0.944,0.363 1.473,0.363Zm9.474,-5.304c-0.604,-0.363 -1.345,-0.544 -2.221,-0.544c-0.529,0 -1.05,0.091 -1.564,0.272c-0.544,0.212 -0.963,0.544 -1.258,0.997c-0.295,0.453 -0.442,1.005 -0.442,1.655c0,1.254 0.544,2.116 1.632,2.584c0.438,0.212 0.997,0.317 1.677,0.317c0.801,0 1.496,-0.159 2.085,-0.476c0.831,-0.514 1.247,-1.322 1.247,-2.425c0,-1.073 -0.385,-1.866 -1.156,-2.38Z" style="fill:#808080;fill-rule:nonzero;"/><path d="M124.743,261.035c0,-1.133 0.34,-2.029 1.02,-2.686c0.68,-0.657 1.609,-0.986 2.788,-0.986l7.525,0c0.196,0 0.295,0.098 0.295,0.295l0,0.997c0,0.196 -0.098,0.295 -0.295,0.295l-7.208,0c-0.831,0 -1.492,0.238 -1.983,0.714c-0.491,0.476 -0.737,1.099 -0.737,1.87c0,0.801 0.242,1.447 0.725,1.938c0.484,0.491 1.133,0.737 1.949,0.737l7.253,0c0.196,0 0.295,0.098 0.295,0.295l0,1.02c0,0.196 -0.098,0.295 -0.295,0.295l-7.208,0c-0.831,0 -1.492,0.234 -1.983,0.703c-0.491,0.468 -0.737,1.096 -0.737,1.881c0,0.801 0.242,1.439 0.725,1.915c0.484,0.476 1.133,0.714 1.949,0.714l7.253,0c0.196,0 0.295,0.098 0.295,0.295l0,1.02c0,0.196 -0.098,0.295 -0.295,0.295l-10.88,0c-0.196,0 -0.295,-0.098 -0.295,-0.295l0,-1.02c0,-0.196 0.098,-0.295 0.295,-0.295l0.793,0c0.045,0 0.076,-0.015 0.091,-0.045c0.015,-0.03 0,-0.06 -0.045,-0.091c-0.438,-0.332 -0.763,-0.756 -0.975,-1.269c-0.212,-0.514 -0.317,-1.088 -0.317,-1.723c0,-0.771 0.159,-1.436 0.476,-1.995c0.317,-0.559 0.763,-0.982 1.337,-1.269c0.091,-0.045 0.098,-0.091 0.023,-0.136c-0.62,-0.332 -1.08,-0.801 -1.383,-1.405c-0.302,-0.604 -0.453,-1.292 -0.453,-2.063Z" style="fill:#808080;fill-rule:nonzero;"/><path d="M124.743,242.29c0,-1.133 0.34,-2.029 1.02,-2.686c0.68,-0.657 1.609,-0.986 2.788,-0.986l7.525,0c0.196,0 0.295,0.098 0.295,0.295l0,0.997c0,0.196 -0.098,0.295 -0.295,0.295l-7.208,0c-0.831,0 -1.492,0.238 -1.983,0.714c-0.491,0.476 -0.737,1.099 -0.737,1.87c0,0.801 0.242,1.447 0.725,1.938c0.484,0.491 1.133,0.737 1.949,0.737l7.253,0c0.196,0 0.295,0.098 0.295,0.295l0,1.02c0,0.196 -0.098,0.295 -0.295,0.295l-7.208,0c-0.831,0 -1.492,0.234 -1.983,0.703c-0.491,0.468 -0.737,1.096 -0.737,1.881c0,0.801 0.242,1.439 0.725,1.915c0.484,0.476 1.133,0.714 1.949,0.714l7.253,0c0.196,0 0.295,0.098 0.295,0.295l0,1.02c0,0.196 -0.098,0.295 -0.295,0.295l-10.88,0c-0.196,0 -0.295,-0.098 -0.295,-0.295l0,-1.02c0,-0.196 0.098,-0.295 0.295,-0.295l0.793,0c0.045,0 0.076,-0.015 0.091,-0.045c0.015,-0.03 0,-0.06 -0.045,-0.091c-0.438,-0.332 -0.763,-0.756 -0.975,-1.269c-0.212,-0.514 -0.317,-1.088 -0.317,-1.723c0,-0.771 0.159,-1.436 0.476,-1.995c0.317,-0.559 0.763,-0.982 1.337,-1.269c0.091,-0.045 0.098,-0.091 0.023,-0.136c-0.62,-0.332 -1.08,-0.801 -1.383,-1.405c-0.302,-0.604 -0.453,-1.292 -0.453,-2.063Z" style="fill:#808080;fill-rule:nonzero;"/><path d="M788.166,119.495l-21.475,3.198l0,-6.625l21.475,3.427m-466.281,0l21.475,-3.427l0,6.625l-21.475,-3.198" style="fill:none;fill-rule:nonzero;stroke:#808080;stroke-width:2.13px;stroke-linecap:butt;stroke-linejoin:miter;"/><path d="M329.425,342.24l7.768,20.104l5.711,-3.198l-13.479,-16.906" style="fill:none;fill-rule:nonzero;stroke:#808080;stroke-width:2.13px;stroke-linecap:butt;stroke-linejoin:miter;"/><path d="M981.669,225.727l-3.427,-21.475l6.625,0l-3.198,21.475m0,103.491l3.198,21.475l-6.625,0l3.427,-21.475" style="fill:none;fill-rule:nonzero;stroke:#808080;stroke-width:2.13px;stroke-linecap:butt;stroke-linejoin:miter;"/><path d="M140.034,148.737l3.198,21.246l-6.397,0l3.198,-21.246m0,76.99l-3.198,-21.475l6.397,0l-3.198,21.475" style="fill:none;fill-rule:nonzero;stroke:#808080;stroke-width:2.13px;stroke-linecap:butt;stroke-linejoin:miter;"/><path d="M788.166,322.821l0,-209.952m-466.281,209.952l0,-209.952m466.281,6.625l-466.281,0" style="fill:none;fill-rule:nonzero;stroke:#808080;stroke-width:2.13px;"/><path d="M329.425,342.24l42.493,73.792m-57.571,-99.836l15.078,26.044m42.493,73.792l332.862,0" style="fill:none;fill-rule:nonzero;stroke:#808080;stroke-width:2.13px;"/><path d="M328.283,225.727l659.784,0m-659.784,103.491l659.784,0m-6.397,-103.491l0,-41.122m0,41.122l0,103.491m0,0l0,41.122" style="fill:none;fill-rule:nonzero;stroke:#808080;stroke-width:2.13px;"/><path d="M203.774,148.737l-70.136,0m181.852,76.99l-181.852,0m6.397,-76.99l0,76.99m0,0l0,98.693" style="fill:none;fill-rule:nonzero;stroke:#808080;stroke-width:2.13px;"/><path d="M788.166,119.495l-21.475,3.198l0,-6.625m-444.806,3.427l21.475,-3.427l0,6.625" style="fill:#808080;fill-rule:nonzero;"/><path d="M329.425,342.24l7.768,20.104l5.711,-3.198" style="fill:#808080;fill-rule:nonzero;"/><path d="M981.669,225.727l-3.427,-21.475l6.625,0m-3.198,124.966l3.198,21.475l-6.625,0" style="fill:#808080;fill-rule:nonzero;"/><path d="M140.034,148.737l3.198,21.246l-6.397,0m3.198,55.744l-3.198,-21.475l6.397,0" style="fill:#808080;fill-rule:nonzero;"/></svg>