<?xml version="1.0" encoding="UTF-8" standalone="no"?>
<!DOCTYPE svg PUBLIC "-//W3C//DTD SVG 1.1//EN" "http://www.w3.org/Graphics/SVG/1.1/DTD/svg11.dtd">
<svg width="100%" height="100%" viewBox="0 0 300 120" version="1.1" xmlns="http://www.w3.org/2000/svg" xmlns:xlink="http://www.w3.org/1999/xlink" xml:space="preserve" xmlns:serif="http://www.serif.com/" style="fill-rule:evenodd;clip-rule:evenodd;stroke-linecap:round;stroke-linejoin:round;">
    <g transform="matrix(1,0,0,1,0,-152.58)">
        <g transform="matrix(1,0,0,1,-58.7363,16.707)">
            <path d="M151.2,228.6L156.6,246.6" style="fill:none;fill-rule:nonzero;stroke:black;stroke-width:0.43px;"/>
        </g>
        <g transform="matrix(1,0,0,1,-58.7363,16.707)">
            <path d="M277.2,210.6L277.2,192.6" style="fill:none;fill-rule:nonzero;stroke:black;stroke-width:0.43px;"/>
        </g>
        <g transform="matrix(1,0,0,1,-58.7363,16.707)">
            <path d="M133.2,210.6L156.6,210.6" style="fill:none;fill-rule:nonzero;stroke:black;stroke-width:0.43px;"/>
        </g>
        <g transform="matrix(1,0,0,1,-58.7363,16.707)">
            <path d="M264.6,210.6L264.6,192.6" style="fill:none;fill-rule:nonzero;stroke:black;stroke-width:0.43px;"/>
        </g>
        <g transform="matrix(1,0,0,1,-58.7363,16.707)">
            <path d="M151.2,246.6L156.6,228.6" style="fill:none;fill-rule:nonzero;stroke:black;stroke-width:0.43px;"/>
        </g>
        <g transform="matrix(1,0,0,1,-58.7363,16.707)">
            <path d="M133.2,246.6L151.2,246.6" style="fill:none;fill-rule:nonzero;stroke:black;stroke-width:0.43px;"/>
        </g>
        <g transform="matrix(1,0,0,1,-58.7363,16.707)">
            <path d="M133.2,228.6L151.2,228.6" style="fill:none;fill-rule:nonzero;stroke:black;stroke-width:0.43px;"/>
        </g>
        <g transform="matrix(1,0,0,1,-58.7363,16.707)">
            <path d="M156.6,210.6L156.6,192.6" style="fill:none;fill-rule:nonzero;stroke:black;stroke-width:0.43px;"/>
        </g>
        <g transform="matrix(1,0,0,1,-58.7363,16.707)">
            <path d="M205.2,246.6L210.6,228.6" style="fill:none;fill-rule:nonzero;stroke:black;stroke-width:0.43px;"/>
        </g>
        <g transform="matrix(1,0,0,1,-58.7363,16.707)">
            <path d="M156.6,228.6L205.2,228.6" style="fill:none;fill-rule:nonzero;stroke:black;stroke-width:0.43px;"/>
        </g>
        <g transform="matrix(1,0,0,1,-58.7363,16.707)">
            <path d="M156.6,246.6L205.2,246.6" style="fill:none;fill-rule:nonzero;stroke:black;stroke-width:0.43px;"/>
        </g>
        <g transform="matrix(1,0,0,1,-58.7363,16.707)">
            <path d="M261,178.2L264.6,174.6" style="fill:none;fill-rule:nonzero;stroke:black;stroke-width:0.43px;"/>
        </g>
    </g>
    <g transform="matrix(1,0,0,1,-58.7363,-135.873)">
        <path d="M156.6,228.6L156.6,210.6" style="fill:none;fill-rule:nonzero;stroke:black;stroke-width:0.43px;stroke-dasharray:0.03,0.61;"/>
    </g>
    <g transform="matrix(1,0,0,1,0,-152.58)">
        <g transform="matrix(1,0,0,1,-58.7363,16.707)">
            <path d="M205.2,228.6L210.6,246.6" style="fill:none;fill-rule:nonzero;stroke:black;stroke-width:0.43px;"/>
        </g>
        <g transform="matrix(1,0,0,1,-58.7363,16.707)">
            <path d="M169.2,210.6L210.6,210.6" style="fill:none;fill-rule:nonzero;stroke:black;stroke-width:0.43px;"/>
        </g>
        <g transform="matrix(1,0,0,1,-58.7363,16.707)">
            <path d="M264.6,192.6L277.2,192.6" style="fill:none;fill-rule:nonzero;stroke:black;stroke-width:0.43px;"/>
        </g>
        <g transform="matrix(1,0,0,1,-58.7363,16.707)">
            <path d="M149.4,160.2L156.6,160.2" style="fill:none;fill-rule:nonzero;stroke:black;stroke-width:0.43px;"/>
        </g>
        <g transform="matrix(1,0,0,1,-58.7363,16.707)">
            <path d="M172.8,156.6L169.2,160.2" style="fill:none;fill-rule:nonzero;stroke:black;stroke-width:0.43px;"/>
        </g>
        <g transform="matrix(1,0,0,1,-58.7363,16.707)">
            <path d="M169.2,154.8L169.2,189" style="fill:none;fill-rule:nonzero;stroke:black;stroke-width:0.43px;"/>
        </g>
        <g transform="matrix(1,0,0,1,-58.7363,16.707)">
            <path d="M156.6,154.8L156.6,189" style="fill:none;fill-rule:nonzero;stroke:black;stroke-width:0.43px;"/>
        </g>
        <g transform="matrix(1,0,0,1,-58.7363,16.707)">
            <path d="M153,156.6L156.6,160.2" style="fill:none;fill-rule:nonzero;stroke:black;stroke-width:0.43px;"/>
        </g>
        <g transform="matrix(1,0,0,1,-58.7363,16.707)">
            <path d="M153,163.8L156.6,160.2" style="fill:none;fill-rule:nonzero;stroke:black;stroke-width:0.43px;"/>
        </g>
        <g transform="matrix(1,0,0,1,-58.7363,16.707)">
            <path d="M156.6,192.6L169.2,192.6" style="fill:none;fill-rule:nonzero;stroke:black;stroke-width:0.43px;"/>
        </g>
        <g transform="matrix(1,0,0,1,-58.7363,16.707)">
            <path d="M210.6,210.6L210.6,192.6" style="fill:none;fill-rule:nonzero;stroke:black;stroke-width:0.43px;"/>
        </g>
        <g transform="matrix(1,0,0,1,-58.7363,16.707)">
            <path d="M169.2,160.2L176.4,160.2" style="fill:none;fill-rule:nonzero;stroke:black;stroke-width:0.43px;"/>
        </g>
        <g transform="matrix(1,0,0,1,-58.7363,16.707)">
            <path d="M172.8,163.8L169.2,160.2" style="fill:none;fill-rule:nonzero;stroke:black;stroke-width:0.43px;"/>
        </g>
        <g transform="matrix(1,0,0,1,-58.7363,16.707)">
            <path d="M210.6,192.6L223.2,192.6" style="fill:none;fill-rule:nonzero;stroke:black;stroke-width:0.43px;"/>
        </g>
        <g transform="matrix(1,0,0,1,-58.7363,16.707)">
            <path d="M169.2,210.6L169.2,192.6" style="fill:none;fill-rule:nonzero;stroke:black;stroke-width:0.43px;"/>
        </g>
        <g transform="matrix(1,0,0,1,-58.7363,16.707)">
            <path d="M223.2,210.6L223.2,192.6" style="fill:none;fill-rule:nonzero;stroke:black;stroke-width:0.43px;"/>
        </g>
        <g transform="matrix(1,0,0,1,-58.7363,16.707)">
            <path d="M210.6,246.6L259.2,246.6" style="fill:none;fill-rule:nonzero;stroke:black;stroke-width:0.43px;"/>
        </g>
    </g>
    <g transform="matrix(1,0,0,1,-58.7363,-135.873)">
        <path d="M210.6,228.6L210.6,210.6" style="fill:none;fill-rule:nonzero;stroke:black;stroke-width:0.43px;stroke-dasharray:0.03,0.61;"/>
    </g>
    <g transform="matrix(1,0,0,1,0,-152.58)">
        <g transform="matrix(1,0,0,1,-58.7363,16.707)">
            <path d="M210.6,228.6L259.2,228.6" style="fill:none;fill-rule:nonzero;stroke:black;stroke-width:0.43px;"/>
        </g>
        <g transform="matrix(1,0,0,1,-58.7363,16.707)">
            <path d="M259.2,246.6L264.6,228.6" style="fill:none;fill-rule:nonzero;stroke:black;stroke-width:0.43px;"/>
        </g>
        <g transform="matrix(1,0,0,1,-58.7363,16.707)">
            <path d="M259.2,228.6L264.6,246.6" style="fill:none;fill-rule:nonzero;stroke:black;stroke-width:0.43px;"/>
        </g>
    </g>
    <g transform="matrix(1,0,0,1,-58.7363,-135.873)">
        <path d="M264.6,228.6L264.6,210.6" style="fill:none;fill-rule:nonzero;stroke:black;stroke-width:0.43px;stroke-dasharray:0.03,0.61;"/>
    </g>
    <g transform="matrix(1,0,0,1,0,-152.58)">
        <g transform="matrix(1,0,0,1,-58.7363,16.707)">
            <path d="M223.2,210.6L264.6,210.6" style="fill:none;fill-rule:nonzero;stroke:black;stroke-width:0.43px;"/>
        </g>
        <g transform="matrix(1,0,0,1,-58.7363,16.707)">
            <path d="M223.2,174.6L230.4,174.6" style="fill:none;fill-rule:nonzero;stroke:black;stroke-width:0.43px;"/>
        </g>
        <g transform="matrix(1,0,0,1,-58.7363,16.707)">
            <path d="M226.8,178.2L223.2,174.6" style="fill:none;fill-rule:nonzero;stroke:black;stroke-width:0.43px;"/>
        </g>
        <g transform="matrix(1,0,0,1,-58.7363,16.707)">
            <path d="M223.2,169.2L223.2,189" style="fill:none;fill-rule:nonzero;stroke:black;stroke-width:0.43px;"/>
        </g>
        <g transform="matrix(1,0,0,1,-58.7363,16.707)">
            <path d="M226.8,171L223.2,174.6" style="fill:none;fill-rule:nonzero;stroke:black;stroke-width:0.43px;"/>
        </g>
        <g transform="matrix(1,0,0,1,-58.7363,16.707)">
            <path d="M313.2,246.6L318.6,228.6" style="fill:none;fill-rule:nonzero;stroke:black;stroke-width:0.43px;"/>
        </g>
        <g transform="matrix(1,0,0,1,-58.7363,16.707)">
            <path d="M318.6,246.6L336.6,246.6" style="fill:none;fill-rule:nonzero;stroke:black;stroke-width:0.43px;"/>
        </g>
        <g transform="matrix(1,0,0,1,-58.7363,16.707)">
            <path d="M264.6,246.6L313.2,246.6" style="fill:none;fill-rule:nonzero;stroke:black;stroke-width:0.43px;"/>
        </g>
        <g transform="matrix(1,0,0,1,-58.7363,16.707)">
            <path d="M264.6,228.6L313.2,228.6" style="fill:none;fill-rule:nonzero;stroke:black;stroke-width:0.43px;"/>
        </g>
        <g transform="matrix(1,0,0,1,-58.7363,16.707)">
            <path d="M318.6,228.6L336.6,228.6" style="fill:none;fill-rule:nonzero;stroke:black;stroke-width:0.43px;"/>
        </g>
        <g transform="matrix(1,0,0,1,-58.7363,16.707)">
            <path d="M313.2,228.6L318.6,246.6" style="fill:none;fill-rule:nonzero;stroke:black;stroke-width:0.43px;"/>
        </g>
        <g transform="matrix(1,0,0,1,-58.7363,16.707)">
            <path d="M277.2,210.6L336.6,210.6" style="fill:none;fill-rule:nonzero;stroke:black;stroke-width:0.43px;"/>
        </g>
        <g transform="matrix(1,0,0,1,-58.7363,16.707)">
            <path d="M264.6,169.2L264.6,189" style="fill:none;fill-rule:nonzero;stroke:black;stroke-width:0.43px;"/>
        </g>
        <g transform="matrix(1,0,0,1,-58.7363,16.707)">
            <path d="M230.4,174.6L264.6,174.6" style="fill:none;fill-rule:nonzero;stroke:black;stroke-width:0.43px;"/>
        </g>
        <g transform="matrix(1,0,0,1,-58.7363,16.707)">
            <path d="M261,171L264.6,174.6" style="fill:none;fill-rule:nonzero;stroke:black;stroke-width:0.43px;"/>
        </g>
    </g>
    <g transform="matrix(1,0,0,1,0,-152.58)">
        <g transform="matrix(1,0,0,1,67.2637,222.481)">
            <text x="-46.221px" y="0px" style="font-family:'ArialMT', 'Arial', sans-serif;font-size:7.559px;fill:none;stroke:black;stroke-opacity:0;stroke-width:0.43px;">Shutter signal</text>
        </g>
        <g transform="matrix(1,0,0,1,-58.7363,16.707)">
            <path d="M80.649,205.356L80.266,205.334L79.931,205.272L79.637,205.173L79.364,205.03L79.144,204.858L78.97,204.653L78.841,204.419L78.763,204.161L78.736,203.872L78.736,203.649L78.762,203.572L78.839,203.546L79.181,203.546L79.258,203.572L79.284,203.649L79.284,203.84L79.308,204.056L79.378,204.248L79.495,204.421L79.665,204.578L79.933,204.731L80.269,204.828L80.688,204.864L81.089,204.831L81.391,204.741L81.617,204.606L81.794,204.415L81.898,204.19L81.935,203.919L81.897,203.658L81.788,203.443L81.613,203.259L81.339,203.07L81.002,202.895L80.474,202.665L79.915,202.428L79.55,202.248L79.25,202.042L79.018,201.788L78.908,201.591L78.84,201.357L78.815,201.078L78.847,200.752L78.935,200.477L79.078,200.243L79.28,200.042L79.519,199.888L79.806,199.773L80.15,199.699L80.561,199.673L81,199.702L81.369,199.784L81.68,199.913L81.943,200.085L82.166,200.31L82.322,200.563L82.417,200.85L82.45,201.181L82.45,201.332L82.425,201.409L82.347,201.435L81.998,201.435L81.921,201.409L81.895,201.332L81.895,201.213L81.855,200.923L81.738,200.675L81.538,200.459L81.284,200.303L80.955,200.202L80.53,200.165L80.16,200.195L79.88,200.274L79.669,200.395L79.506,200.568L79.406,200.785L79.371,201.062L79.409,201.328L79.518,201.534L79.689,201.703L79.938,201.86L80.776,202.221L81.324,202.463L81.713,202.665L82.038,202.898L82.284,203.169L82.401,203.377L82.473,203.617L82.498,203.895L82.467,204.215L82.375,204.493L82.225,204.738L82.01,204.955L81.758,205.122L81.454,205.247L81.089,205.327L80.649,205.356Z"/>
            <path d="M85.232,201.221L85.542,201.246L85.808,201.318L86.037,201.434L86.236,201.594L86.398,201.791L86.515,202.019L86.588,202.284L86.614,202.594L86.614,205.189L86.588,205.267L86.511,205.292L86.153,205.292L86.076,205.267L86.05,205.189L86.05,202.705L86.019,202.419L85.931,202.183L85.788,201.987L85.598,201.836L85.374,201.745L85.105,201.713L84.844,201.739L84.624,201.817L84.435,201.943L84.283,202.111L84.182,202.31L84.129,202.546L84.129,205.189L84.103,205.267L84.026,205.292L83.669,205.292L83.591,205.267L83.566,205.189L83.566,199.839L83.591,199.762L83.669,199.736L84.026,199.736L84.103,199.762L84.129,199.839L84.129,201.673L84.145,201.709L84.169,201.697L84.361,201.493L84.596,201.346L84.882,201.254L85.232,201.221Z"/>
            <path d="M90.27,201.379L90.296,201.302L90.373,201.276L90.73,201.276L90.808,201.302L90.834,201.379L90.834,205.189L90.808,205.267L90.73,205.292L90.373,205.292L90.296,205.267L90.27,205.189L90.27,204.888L90.254,204.856L90.223,204.872L90.034,205.076L89.803,205.223L89.521,205.315L89.175,205.348L88.806,205.308L88.472,205.193L88.272,205.073L88.104,204.925L87.964,204.745L87.863,204.542L87.8,204.308L87.778,204.038L87.778,201.379L87.804,201.302L87.881,201.276L88.239,201.276L88.316,201.302L88.342,201.379L88.342,203.872L88.372,204.163L88.458,204.399L88.595,204.59L88.78,204.735L89.006,204.824L89.286,204.856L89.577,204.824L89.812,204.733L90.004,204.586L90.149,204.392L90.239,204.157L90.27,203.872L90.27,201.379Z"/>
            <path d="M93.897,201.641L93.871,201.718L93.794,201.744L92.929,201.744L92.899,201.754L92.889,201.784L92.889,204.102L92.912,204.35L92.971,204.522L93.06,204.638L93.183,204.718L93.357,204.772L93.595,204.792L93.77,204.792L93.847,204.818L93.873,204.896L93.873,205.173L93.847,205.252L93.77,205.284L93.5,205.284L93.123,205.256L92.842,205.182L92.635,205.07L92.515,204.952L92.424,204.79L92.364,204.57L92.341,204.276L92.341,201.784L92.331,201.754L92.301,201.744L91.849,201.744L91.772,201.718L91.746,201.641L91.746,201.379L91.772,201.302L91.849,201.276L92.301,201.276L92.331,201.266L92.341,201.237L92.341,200.348L92.367,200.27L92.445,200.244L92.786,200.244L92.863,200.27L92.889,200.348L92.889,201.237L92.899,201.266L92.929,201.276L93.794,201.276L93.871,201.302L93.897,201.379L93.897,201.641Z"/>
            <path d="M96.783,201.641L96.757,201.718L96.68,201.744L95.814,201.744L95.785,201.754L95.775,201.784L95.775,204.102L95.797,204.35L95.857,204.522L95.945,204.638L96.069,204.718L96.242,204.772L96.481,204.792L96.656,204.792L96.733,204.818L96.759,204.896L96.759,205.173L96.733,205.252L96.656,205.284L96.386,205.284L96.009,205.256L95.728,205.182L95.52,205.07L95.401,204.952L95.31,204.79L95.25,204.57L95.227,204.276L95.227,201.784L95.217,201.754L95.187,201.744L94.735,201.744L94.657,201.718L94.632,201.641L94.632,201.379L94.657,201.302L94.735,201.276L95.187,201.276L95.217,201.266L95.227,201.237L95.227,200.348L95.253,200.27L95.33,200.244L95.672,200.244L95.749,200.27L95.775,200.348L95.775,201.237L95.785,201.266L95.814,201.276L96.68,201.276L96.757,201.302L96.783,201.379L96.783,201.641Z"/>
            <path d="M99.58,201.238L99.869,201.308L100.113,201.419L100.318,201.57L100.542,201.831L100.711,202.162L100.822,202.578L100.855,202.867L100.87,203.371L100.844,203.449L100.767,203.475L98.227,203.475L98.197,203.484L98.187,203.514L98.201,203.885L98.235,204.094L98.315,204.318L98.438,204.506L98.604,204.661L98.801,204.775L99.035,204.847L99.314,204.872L99.653,204.825L99.929,204.709L100.157,204.525L100.33,204.276L100.385,204.221L100.465,204.229L100.695,204.356L100.755,204.419L100.742,204.49L100.594,204.737L100.405,204.946L100.171,205.121L99.908,205.249L99.609,205.328L99.266,205.356L98.904,205.324L98.595,205.236L98.33,205.094L98.101,204.898L97.919,204.657L97.782,204.363L97.704,204.094L97.651,203.736L97.631,203.268L97.637,202.991L98.187,202.991L98.197,203.02L98.227,203.03L100.266,203.03L100.296,203.02L100.306,202.991L100.258,202.482L100.179,202.257L100.061,202.07L99.905,201.915L99.718,201.801L99.497,201.73L99.235,201.705L98.977,201.729L98.763,201.798L98.584,201.907L98.435,202.056L98.324,202.236L98.251,202.451L98.214,202.637L98.187,202.991L97.637,202.991L97.643,202.725L97.703,202.348L97.825,202.023L98.005,201.751L98.246,201.522L98.533,201.353L98.859,201.249L99.235,201.213L99.58,201.238Z"/>
            <path d="M103.607,201.237L103.854,201.262L104.043,201.332L104.096,201.378L104.099,201.459L104.019,201.808L103.977,201.871L103.892,201.871L103.73,201.839L103.503,201.832L103.241,201.874L103.016,201.975L102.821,202.137L102.673,202.344L102.582,202.586L102.551,202.872L102.551,205.189L102.525,205.267L102.448,205.292L102.091,205.292L102.013,205.267L101.987,205.189L101.987,201.379L102.013,201.302L102.091,201.276L102.448,201.276L102.525,201.302L102.551,201.379L102.551,201.824L102.563,201.86L102.591,201.84L102.783,201.583L103.015,201.395L103.289,201.277L103.607,201.237Z"/>
            <path d="M107.775,205.332L107.346,205.295L106.985,205.189L106.673,205.017L106.453,204.808L106.349,204.642L106.288,204.466L106.267,204.276L106.267,204.205L106.293,204.128L106.37,204.102L106.711,204.102L106.787,204.121L106.815,204.173L106.815,204.245L106.842,204.406L106.928,204.556L107.084,204.701L107.273,204.806L107.498,204.872L107.767,204.896L108.036,204.873L108.255,204.809L108.433,204.709L108.577,204.57L108.66,204.415L108.688,204.237L108.655,204.054L108.56,203.911L108.421,203.799L108.251,203.713L107.703,203.53L107.28,203.397L106.973,203.276L106.708,203.124L106.489,202.923L106.381,202.762L106.314,202.573L106.291,202.348L106.317,202.103L106.391,201.891L106.514,201.704L106.691,201.538L106.973,201.376L107.319,201.273L107.743,201.237L108.163,201.274L108.517,201.379L108.73,201.49L108.902,201.621L109.037,201.772L109.138,201.946L109.199,202.131L109.219,202.332L109.193,202.409L109.116,202.435L108.791,202.435L108.708,202.418L108.688,202.379L108.688,202.332L108.66,202.165L108.577,202.016L108.43,201.879L108.249,201.782L108.021,201.72L107.735,201.697L107.469,201.717L107.256,201.773L107.084,201.86L106.946,201.984L106.866,202.131L106.838,202.308L106.865,202.475L106.941,202.61L107.072,202.721L107.343,202.852L107.807,203.007L108.243,203.138L108.552,203.253L108.819,203.399L109.045,203.602L109.157,203.766L109.227,203.961L109.251,204.197L109.225,204.446L109.15,204.662L109.027,204.853L108.85,205.023L108.567,205.188L108.215,205.294L107.775,205.332Z"/>
            <path d="M110.62,200.554L110.445,200.524L110.311,200.439L110.222,200.309L110.192,200.141L110.222,199.974L110.311,199.847L110.445,199.765L110.62,199.736L110.796,199.765L110.93,199.847L111.018,199.974L111.049,200.141L111.018,200.309L110.93,200.439L110.796,200.524L110.62,200.554Z"/>
            <path d="M110.446,205.292L110.368,205.267L110.343,205.189L110.343,201.379L110.368,201.302L110.446,201.276L110.803,201.276L110.88,201.302L110.906,201.379L110.906,205.189L110.88,205.266L110.803,205.292L110.446,205.292Z"/>
            <path d="M113.927,201.243L114.211,201.331L114.45,201.47L114.652,201.665L114.684,201.681L114.699,201.649L114.699,201.379L114.725,201.302L114.803,201.276L115.16,201.276L115.237,201.302L115.263,201.379L115.263,205.157L115.226,205.6L115.123,205.953L114.964,206.235L114.747,206.459L114.481,206.632L114.165,206.76L113.789,206.843L113.342,206.872L113.088,206.864L113.011,206.832L112.985,206.753L113.001,206.435L113.027,206.355L113.104,206.34L113.54,206.336L113.876,206.288L114.131,206.205L114.322,206.094L114.48,205.938L114.596,205.735L114.672,205.474L114.699,205.141L114.699,204.864L114.684,204.832L114.652,204.848L114.453,205.051L114.219,205.195L113.945,205.285L113.62,205.316L113.285,205.284L112.981,205.192L112.703,205.038L112.467,204.83L112.29,204.57L112.167,204.252L112.1,203.887L112.073,203.284L112.073,203.268L112.635,203.268L112.66,203.803L112.715,204.07L112.789,204.28L112.903,204.462L113.06,204.622L113.248,204.742L113.461,204.814L113.707,204.84L113.959,204.814L114.169,204.742L114.346,204.625L114.492,204.47L114.596,204.289L114.66,204.078L114.691,203.784L114.699,203.276L114.691,202.733L114.652,202.475L114.588,202.264L114.484,202.082L114.338,201.923L114.161,201.804L113.953,201.731L113.707,201.705L113.466,201.73L113.258,201.802L113.076,201.919L112.923,202.075L112.802,202.259L112.715,202.475L112.659,202.764L112.635,203.268L112.073,203.268L112.092,202.697L112.124,202.466L112.175,202.268L112.298,201.968L112.469,201.715L112.691,201.502L112.953,201.343L113.249,201.246L113.588,201.213L113.927,201.243Z"/>
            <path d="M118.132,201.221L118.442,201.246L118.708,201.318L118.937,201.434L119.136,201.594L119.298,201.791L119.415,202.019L119.488,202.284L119.514,202.594L119.514,205.189L119.488,205.267L119.411,205.292L119.053,205.292L118.976,205.267L118.95,205.189L118.95,202.705L118.919,202.419L118.831,202.183L118.688,201.987L118.498,201.836L118.274,201.745L118.005,201.713L117.744,201.739L117.524,201.817L117.335,201.943L117.183,202.111L117.082,202.31L117.029,202.546L117.029,205.189L117.003,205.267L116.926,205.292L116.569,205.292L116.491,205.267L116.466,205.189L116.466,201.379L116.491,201.302L116.569,201.276L116.926,201.276L117.003,201.302L117.029,201.379L117.029,201.673L117.045,201.709L117.069,201.697L117.261,201.493L117.496,201.346L117.782,201.254L118.132,201.221Z"/>
            <path d="M122.488,201.239L122.785,201.311L123.032,201.425L123.238,201.578L123.408,201.773L123.529,201.995L123.604,202.25L123.631,202.546L123.631,205.189L123.605,205.267L123.528,205.292L123.17,205.292L123.093,205.267L123.067,205.189L123.067,204.903L123.051,204.872L123.02,204.888L122.782,205.088L122.484,205.237L122.152,205.325L121.781,205.356L121.421,205.322L121.113,205.226L120.849,205.07L120.688,204.914L120.572,204.722L120.498,204.486L120.472,204.197L120.475,204.165L121.035,204.165L121.065,204.386L121.147,204.558L121.281,204.693L121.454,204.79L121.66,204.85L121.908,204.872L122.213,204.845L122.482,204.766L122.722,204.638L122.916,204.46L123.029,204.253L123.067,204.007L123.067,203.395L123.057,203.366L123.028,203.356L122.194,203.356L121.851,203.382L121.575,203.456L121.353,203.57L121.175,203.733L121.071,203.928L121.035,204.165L120.475,204.165L120.501,203.908L120.582,203.66L120.715,203.444L120.904,203.257L121.127,203.113L121.395,203.005L121.719,202.936L122.107,202.911L123.028,202.911L123.057,202.901L123.067,202.872L123.067,202.578L123.04,202.317L122.963,202.108L122.841,201.939L122.675,201.815L122.447,201.735L122.139,201.705L121.788,201.743L121.527,201.848L121.386,201.957L121.287,202.088L121.226,202.245L121.184,202.312L121.107,202.324L120.718,202.276L120.64,202.244L120.622,202.189L120.711,201.919L120.87,201.686L121.111,201.483L121.395,201.337L121.731,201.245L122.131,201.213L122.488,201.239Z"/>
            <path d="M124.899,205.292L124.822,205.267L124.796,205.189L124.796,199.839L124.822,199.762L124.899,199.736L125.256,199.736L125.334,199.762L125.359,199.839L125.359,205.189L125.334,205.267L125.256,205.292L124.899,205.292Z"/>
        </g>
    </g>
    <g transform="matrix(1,0,0,1,0,-152.58)">
        <g transform="matrix(1,0,0,1,67.2637,256.681)">
            <text x="-18.063px" y="0px" style="font-family:'ArialMT', 'Arial', sans-serif;font-size:7.559px;fill:none;stroke:black;stroke-opacity:0;stroke-width:0.43px;">Color</text>
        </g>
        <g transform="matrix(1,0,0,1,-58.7363,16.707)">
            <path d="M110.242,239.564L109.877,239.538L109.553,239.464L109.266,239.346L109.004,239.178L108.787,238.973L108.611,238.726L108.482,238.451L108.404,238.145L108.377,237.802L108.377,235.619L108.404,235.282L108.482,234.979L108.611,234.706L108.787,234.462L109.004,234.258L109.266,234.091L109.553,233.972L109.877,233.899L110.242,233.873L110.607,233.898L110.93,233.971L111.218,234.087L111.48,234.251L111.697,234.451L111.873,234.691L112.001,234.958L112.08,235.255L112.107,235.587L112.084,235.642L112.004,235.675L111.646,235.698L111.623,235.698L111.567,235.683L111.543,235.651L111.543,235.603L111.519,235.326L111.451,235.088L111.34,234.882L111.186,234.702L110.93,234.519L110.62,234.405L110.242,234.365L109.864,234.406L109.554,234.52L109.297,234.706L109.143,234.888L109.032,235.094L108.964,235.33L108.94,235.603L108.94,237.825L108.964,238.098L109.032,238.334L109.143,238.541L109.297,238.723L109.554,238.908L109.864,239.023L110.242,239.064L110.62,239.024L110.93,238.91L111.186,238.726L111.34,238.547L111.451,238.34L111.519,238.103L111.543,237.825L111.569,237.757L111.646,237.738L112.004,237.754L112.088,237.767L112.107,237.794L112.107,237.833L112.08,238.171L112.001,238.471L111.873,238.742L111.696,238.984L111.48,239.185L111.218,239.349L110.93,239.466L110.607,239.538L110.242,239.564Z"/>
            <path d="M115.159,235.447L115.483,235.545L115.768,235.706L116.011,235.925L116.196,236.187L116.327,236.5L116.408,236.909L116.438,237.476L116.407,238.056L116.327,238.452L116.191,238.776L116.003,239.044L115.76,239.262L115.475,239.423L115.154,239.522L114.787,239.556L114.411,239.521L114.085,239.422L113.799,239.262L113.556,239.044L113.368,238.776L113.232,238.452L113.152,238.056L113.121,237.484L113.692,237.484L113.712,238.013L113.756,238.286L113.836,238.511L113.956,238.698L114.117,238.853L114.309,238.969L114.53,239.039L114.787,239.064L115.034,239.039L115.249,238.969L115.438,238.853L115.597,238.698L115.719,238.511L115.803,238.286L115.848,237.995L115.867,237.484L115.847,236.955L115.803,236.682L115.723,236.458L115.603,236.271L115.442,236.115L115.25,236L115.029,235.93L114.771,235.905L114.525,235.929L114.31,236L114.121,236.115L113.962,236.27L113.841,236.457L113.756,236.682L113.712,236.955L113.692,237.484L113.121,237.484L113.121,237.476L113.15,236.903L113.224,236.508L113.359,236.189L113.548,235.925L113.791,235.706L114.077,235.546L114.405,235.447L114.787,235.413L115.159,235.447Z"/>
            <path d="M117.682,239.492L117.605,239.467L117.579,239.389L117.579,234.039L117.605,233.962L117.682,233.936L118.039,233.936L118.117,233.962L118.142,234.039L118.142,239.389L118.117,239.467L118.039,239.492L117.682,239.492Z"/>
            <path d="M121.329,235.447L121.653,235.545L121.938,235.706L122.181,235.925L122.367,236.187L122.497,236.5L122.577,236.909L122.608,237.476L122.577,238.056L122.497,238.452L122.361,238.776L122.173,239.044L121.93,239.262L121.645,239.423L121.324,239.522L120.957,239.556L120.581,239.521L120.255,239.422L119.97,239.262L119.727,239.044L119.538,238.776L119.402,238.452L119.322,238.056L119.291,237.484L119.862,237.484L119.882,238.013L119.926,238.286L120.006,238.511L120.126,238.698L120.287,238.853L120.479,238.969L120.7,239.039L120.957,239.064L121.204,239.039L121.419,238.969L121.608,238.853L121.768,238.698L121.889,238.511L121.974,238.286L122.018,237.995L122.037,237.484L122.017,236.955L121.974,236.682L121.893,236.458L121.774,236.271L121.613,236.115L121.42,236L121.199,235.93L120.942,235.905L120.695,235.929L120.48,236L120.291,236.115L120.132,236.27L120.01,236.457L119.926,236.682L119.882,236.955L119.862,237.484L119.291,237.484L119.291,237.476L119.32,236.903L119.394,236.508L119.53,236.189L119.718,235.925L119.962,235.706L120.247,235.546L120.576,235.447L120.957,235.413L121.329,235.447Z"/>
            <path d="M125.368,235.437L125.616,235.462L125.805,235.532L125.858,235.578L125.86,235.659L125.781,236.008L125.738,236.071L125.654,236.071L125.492,236.039L125.265,236.032L125.002,236.074L124.778,236.175L124.582,236.337L124.434,236.544L124.344,236.786L124.313,237.072L124.313,239.389L124.287,239.467L124.209,239.492L123.852,239.492L123.775,239.467L123.749,239.389L123.749,235.579L123.775,235.502L123.852,235.476L124.209,235.476L124.287,235.502L124.313,235.579L124.313,236.024L124.324,236.06L124.353,236.04L124.544,235.783L124.777,235.595L125.05,235.477L125.368,235.437Z"/>
        </g>
    </g>
    <g transform="matrix(1,0,0,1,0,-152.58)">
        <g transform="matrix(1,0,0,1,121.264,256.681)">
            <text x="-5.462px" y="0px" style="font-family:'ArialMT', 'Arial', sans-serif;font-size:7.559px;fill:none;stroke:black;stroke-opacity:0;stroke-width:0.43px;">red</text>
        </g>
        <g transform="matrix(1,0,0,1,-58.7363,16.707)">
            <path d="M176.563,235.437L176.811,235.462L177,235.532L177.053,235.578L177.055,235.659L176.976,236.008L176.933,236.071L176.849,236.071L176.687,236.039L176.46,236.032L176.197,236.074L175.973,236.175L175.777,236.337L175.629,236.544L175.539,236.786L175.507,237.072L175.507,239.389L175.482,239.467L175.404,239.492L175.047,239.492L174.97,239.467L174.944,239.389L174.944,235.579L174.97,235.502L175.047,235.476L175.404,235.476L175.482,235.502L175.507,235.579L175.507,236.024L175.519,236.06L175.547,236.04L175.739,235.783L175.972,235.595L176.245,235.477L176.563,235.437Z"/>
            <path d="M179.62,235.438L179.91,235.508L180.153,235.619L180.358,235.77L180.583,236.031L180.751,236.362L180.862,236.778L180.896,237.067L180.91,237.571L180.884,237.649L180.807,237.675L178.267,237.675L178.237,237.684L178.227,237.714L178.242,238.085L178.275,238.294L178.356,238.518L178.478,238.706L178.644,238.861L178.842,238.975L179.076,239.047L179.355,239.072L179.694,239.025L179.97,238.909L180.198,238.725L180.37,238.476L180.426,238.421L180.505,238.429L180.736,238.556L180.796,238.619L180.783,238.69L180.635,238.937L180.446,239.146L180.211,239.321L179.949,239.449L179.65,239.528L179.307,239.556L178.945,239.524L178.636,239.436L178.37,239.294L178.142,239.098L177.96,238.857L177.823,238.563L177.745,238.294L177.692,237.936L177.672,237.468L177.678,237.191L178.227,237.191L178.237,237.22L178.267,237.23L180.307,237.23L180.337,237.22L180.347,237.191L180.299,236.682L180.219,236.457L180.102,236.27L179.946,236.115L179.758,236.001L179.538,235.93L179.275,235.905L179.018,235.929L178.803,235.998L178.624,236.107L178.476,236.256L178.365,236.436L178.291,236.651L178.255,236.837L178.227,237.191L177.678,237.191L177.684,236.925L177.743,236.548L177.865,236.223L178.045,235.951L178.287,235.722L178.573,235.553L178.899,235.449L179.275,235.413L179.62,235.438Z"/>
            <path d="M185.034,233.962L185.06,234.039L185.06,239.389L185.034,239.467L184.957,239.492L184.6,239.492L184.522,239.467L184.497,239.389L184.497,239.088L184.48,239.06L184.449,239.072L184.253,239.276L184.016,239.429L183.747,239.523L183.441,239.556L183.08,239.522L182.773,239.426L182.508,239.27L182.285,239.059L182.112,238.802L181.989,238.492L181.909,238.098L181.877,237.484L182.441,237.484L182.472,238.068L182.517,238.27L182.583,238.445L182.664,238.623L182.776,238.773L182.921,238.897L183.089,238.988L183.279,239.044L183.497,239.064L183.702,239.044L183.878,238.988L184.028,238.897L184.213,238.705L184.346,238.452L184.406,238.285L184.449,238.08L184.48,237.484L184.449,236.885L184.404,236.675L184.338,236.5L184.211,236.256L184.024,236.068L183.872,235.978L183.7,235.924L183.504,235.905L183.204,235.946L182.957,236.064L182.758,236.248L182.623,236.484L182.542,236.667L182.484,236.877L182.453,237.117L182.441,237.484L181.877,237.484L181.905,236.867L181.973,236.5L182.097,236.18L182.271,235.917L182.496,235.702L182.764,235.545L183.075,235.447L183.441,235.413L183.741,235.444L184.012,235.536L184.253,235.686L184.449,235.889L184.48,235.905L184.497,235.873L184.497,234.039L184.522,233.962L184.6,233.936L184.957,233.936L185.034,233.962Z"/>
        </g>
    </g>
    <g transform="matrix(1,0,0,1,0,-152.58)">
        <g transform="matrix(1,0,0,1,105.064,166.681)">
            <text x="-33.618px" y="0px" style="font-family:'ArialMT', 'Arial', sans-serif;font-size:7.559px;fill:none;stroke:black;stroke-opacity:0;stroke-width:0.43px;">Shutter pulse length</text>
        </g>
        <g transform="matrix(1,0,0,1,-58.7363,16.707)">
            <path d="M131.476,149.556L131.093,149.534L130.758,149.472L130.464,149.373L130.192,149.23L129.972,149.058L129.797,148.853L129.668,148.619L129.59,148.361L129.563,148.072L129.563,147.849L129.589,147.772L129.667,147.746L130.008,147.746L130.085,147.772L130.111,147.849L130.111,148.04L130.135,148.256L130.205,148.448L130.322,148.621L130.492,148.778L130.76,148.931L131.096,149.028L131.516,149.064L131.916,149.031L132.218,148.941L132.445,148.806L132.621,148.615L132.725,148.39L132.762,148.119L132.724,147.858L132.615,147.643L132.44,147.459L132.166,147.27L131.829,147.095L131.301,146.865L130.742,146.628L130.377,146.448L130.077,146.242L129.845,145.988L129.735,145.791L129.667,145.557L129.643,145.278L129.674,144.952L129.762,144.677L129.906,144.443L130.107,144.242L130.346,144.088L130.633,143.973L130.977,143.899L131.389,143.873L131.827,143.902L132.196,143.984L132.507,144.113L132.77,144.285L132.993,144.51L133.149,144.763L133.245,145.05L133.278,145.381L133.278,145.532L133.252,145.609L133.174,145.635L132.825,145.635L132.748,145.609L132.722,145.532L132.722,145.413L132.682,145.123L132.565,144.875L132.365,144.659L132.111,144.503L131.782,144.402L131.357,144.365L130.987,144.395L130.707,144.474L130.496,144.595L130.333,144.768L130.234,144.985L130.198,145.262L130.237,145.528L130.345,145.734L130.516,145.903L130.766,146.06L131.603,146.421L132.151,146.663L132.54,146.865L132.865,147.098L133.111,147.369L133.228,147.577L133.3,147.817L133.326,148.095L133.294,148.415L133.202,148.693L133.052,148.938L132.837,149.155L132.585,149.322L132.282,149.447L131.916,149.527L131.476,149.556Z"/>
            <path d="M136.06,145.421L136.369,145.446L136.635,145.518L136.864,145.634L137.063,145.794L137.225,145.991L137.342,146.219L137.415,146.484L137.441,146.794L137.441,149.389L137.415,149.467L137.338,149.492L136.98,149.492L136.903,149.467L136.877,149.389L136.877,146.905L136.846,146.619L136.758,146.383L136.615,146.187L136.425,146.036L136.201,145.945L135.933,145.913L135.671,145.939L135.451,146.017L135.262,146.143L135.111,146.311L135.009,146.51L134.956,146.746L134.956,149.389L134.931,149.467L134.853,149.492L134.496,149.492L134.419,149.467L134.393,149.389L134.393,144.039L134.419,143.962L134.496,143.936L134.853,143.936L134.931,143.962L134.956,144.039L134.956,145.873L134.972,145.909L134.996,145.897L135.189,145.693L135.423,145.546L135.709,145.454L136.06,145.421Z"/>
            <path d="M141.097,145.579L141.123,145.502L141.201,145.476L141.558,145.476L141.635,145.502L141.661,145.579L141.661,149.389L141.635,149.467L141.558,149.492L141.201,149.492L141.123,149.467L141.097,149.389L141.097,149.088L141.081,149.056L141.05,149.072L140.861,149.276L140.63,149.423L140.348,149.515L140.002,149.548L139.633,149.508L139.3,149.393L139.099,149.273L138.931,149.125L138.792,148.945L138.69,148.742L138.627,148.508L138.605,148.238L138.605,145.579L138.631,145.502L138.709,145.476L139.066,145.476L139.143,145.502L139.169,145.579L139.169,148.072L139.2,148.363L139.285,148.599L139.423,148.79L139.607,148.935L139.834,149.024L140.113,149.056L140.404,149.024L140.639,148.933L140.831,148.786L140.977,148.592L141.066,148.357L141.097,148.072L141.097,145.579Z"/>
            <path d="M144.724,145.841L144.698,145.918L144.621,145.944L143.756,145.944L143.726,145.954L143.716,145.984L143.716,148.302L143.739,148.55L143.798,148.722L143.887,148.838L144.01,148.918L144.184,148.972L144.423,148.992L144.597,148.992L144.675,149.018L144.7,149.096L144.7,149.373L144.675,149.452L144.597,149.484L144.327,149.484L143.951,149.456L143.669,149.382L143.462,149.27L143.343,149.152L143.252,148.99L143.191,148.77L143.169,148.476L143.169,145.984L143.159,145.954L143.129,145.944L142.676,145.944L142.599,145.918L142.573,145.841L142.573,145.579L142.599,145.502L142.676,145.476L143.129,145.476L143.159,145.466L143.169,145.437L143.169,144.548L143.194,144.47L143.272,144.444L143.613,144.444L143.69,144.47L143.716,144.548L143.716,145.437L143.726,145.466L143.756,145.476L144.621,145.476L144.698,145.502L144.724,145.579L144.724,145.841Z"/>
            <path d="M147.61,145.841L147.584,145.918L147.507,145.944L146.642,145.944L146.612,145.954L146.602,145.984L146.602,148.302L146.625,148.55L146.684,148.722L146.773,148.838L146.896,148.918L147.069,148.972L147.308,148.992L147.483,148.992L147.56,149.018L147.586,149.096L147.586,149.373L147.56,149.452L147.483,149.484L147.213,149.484L146.836,149.456L146.555,149.382L146.348,149.27L146.228,149.152L146.137,148.99L146.077,148.77L146.054,148.476L146.054,145.984L146.044,145.954L146.014,145.944L145.562,145.944L145.485,145.918L145.459,145.841L145.459,145.579L145.485,145.502L145.562,145.476L146.014,145.476L146.044,145.466L146.054,145.437L146.054,144.548L146.08,144.47L146.157,144.444L146.499,144.444L146.576,144.47L146.602,144.548L146.602,145.437L146.612,145.466L146.642,145.476L147.507,145.476L147.584,145.502L147.61,145.579L147.61,145.841Z"/>
            <path d="M150.407,145.438L150.696,145.508L150.94,145.619L151.145,145.77L151.369,146.031L151.538,146.362L151.649,146.778L151.682,147.067L151.697,147.571L151.671,147.649L151.594,147.675L149.054,147.675L149.024,147.684L149.014,147.714L149.028,148.085L149.062,148.294L149.143,148.518L149.265,148.706L149.431,148.861L149.628,148.975L149.862,149.047L150.141,149.072L150.48,149.025L150.756,148.909L150.985,148.725L151.157,148.476L151.212,148.421L151.292,148.429L151.522,148.556L151.582,148.619L151.57,148.69L151.422,148.937L151.232,149.146L150.998,149.321L150.735,149.449L150.436,149.528L150.093,149.556L149.731,149.524L149.422,149.436L149.157,149.294L148.928,149.098L148.747,148.857L148.609,148.563L148.531,148.294L148.478,147.936L148.458,147.468L148.464,147.191L149.014,147.191L149.024,147.22L149.054,147.23L151.093,147.23L151.123,147.22L151.133,147.191L151.085,146.682L151.006,146.457L150.888,146.27L150.732,146.115L150.545,146.001L150.324,145.93L150.062,145.905L149.804,145.929L149.59,145.998L149.411,146.107L149.262,146.256L149.151,146.436L149.078,146.651L149.041,146.837L149.014,147.191L148.464,147.191L148.47,146.925L148.53,146.548L148.652,146.223L148.832,145.951L149.073,145.722L149.36,145.553L149.686,145.449L150.062,145.413L150.407,145.438Z"/>
            <path d="M154.434,145.437L154.682,145.462L154.871,145.532L154.923,145.578L154.926,145.659L154.846,146.008L154.804,146.071L154.719,146.071L154.557,146.039L154.331,146.032L154.068,146.074L153.843,146.175L153.648,146.337L153.5,146.544L153.41,146.786L153.378,147.072L153.378,149.389L153.352,149.467L153.275,149.492L152.918,149.492L152.84,149.467L152.815,149.389L152.815,145.579L152.84,145.502L152.918,145.476L153.275,145.476L153.352,145.502L153.378,145.579L153.378,146.024L153.39,146.06L153.418,146.04L153.61,145.783L153.842,145.595L154.116,145.477L154.434,145.437Z"/>
            <path d="M159.312,145.447L159.619,145.543L159.884,145.699L160.107,145.91L160.28,146.166L160.404,146.476L160.483,146.87L160.515,147.484L160.487,148.101L160.42,148.468L160.295,148.789L160.121,149.052L159.896,149.266L159.628,149.424L159.317,149.521L158.951,149.556L158.651,149.524L158.38,149.433L158.14,149.283L157.943,149.08L157.911,149.064L157.896,149.096L157.896,150.929L157.87,151.006L157.793,151.032L157.435,151.032L157.358,151.006L157.332,150.929L157.332,147.484L157.912,147.484L157.943,148.084L157.988,148.293L158.054,148.468L158.181,148.713L158.367,148.901L158.52,148.99L158.692,149.045L158.888,149.064L159.188,149.023L159.435,148.905L159.634,148.721L159.769,148.484L159.85,148.302L159.908,148.092L159.939,147.852L159.951,147.484L159.919,146.901L159.875,146.698L159.808,146.524L159.728,146.345L159.616,146.196L159.471,146.072L159.303,145.98L159.113,145.924L158.896,145.905L158.69,145.924L158.515,145.981L158.364,146.072L158.179,146.264L158.046,146.516L157.986,146.683L157.943,146.889L157.912,147.484L157.332,147.484L157.332,145.579L157.358,145.502L157.435,145.476L157.793,145.476L157.87,145.502L157.896,145.579L157.896,145.881L157.911,145.909L157.943,145.897L158.139,145.692L158.376,145.54L158.645,145.445L158.951,145.413L159.312,145.447Z"/>
            <path d="M164.061,145.579L164.087,145.502L164.164,145.476L164.521,145.476L164.599,145.502L164.625,145.579L164.625,149.389L164.599,149.467L164.521,149.492L164.164,149.492L164.087,149.467L164.061,149.389L164.061,149.088L164.045,149.056L164.013,149.072L163.825,149.276L163.594,149.423L163.312,149.515L162.966,149.548L162.597,149.508L162.263,149.393L162.063,149.273L161.894,149.125L161.755,148.945L161.654,148.742L161.591,148.508L161.569,148.238L161.569,145.579L161.595,145.502L161.672,145.476L162.029,145.476L162.107,145.502L162.132,145.579L162.132,148.072L162.163,148.363L162.249,148.599L162.386,148.79L162.571,148.935L162.797,149.024L163.077,149.056L163.367,149.024L163.603,148.933L163.795,148.786L163.94,148.592L164.029,148.357L164.061,148.072L164.061,145.579Z"/>
            <path d="M165.989,149.492L165.912,149.467L165.886,149.389L165.886,144.039L165.912,143.962L165.989,143.936L166.346,143.936L166.424,143.962L166.45,144.039L166.45,149.389L166.424,149.467L166.346,149.492L165.989,149.492Z"/>
            <path d="M169.042,149.532L168.614,149.495L168.253,149.389L167.94,149.217L167.721,149.008L167.617,148.842L167.555,148.666L167.534,148.476L167.534,148.405L167.56,148.328L167.638,148.302L167.979,148.302L168.055,148.321L168.082,148.373L168.082,148.445L168.11,148.606L168.196,148.756L168.352,148.901L168.541,149.006L168.765,149.072L169.034,149.096L169.304,149.073L169.523,149.009L169.701,148.909L169.845,148.77L169.928,148.615L169.955,148.437L169.923,148.254L169.828,148.111L169.689,147.999L169.519,147.913L168.971,147.73L168.548,147.597L168.241,147.476L167.976,147.324L167.757,147.123L167.648,146.962L167.582,146.773L167.558,146.548L167.584,146.303L167.659,146.091L167.782,145.904L167.959,145.738L168.241,145.576L168.586,145.473L169.011,145.437L169.431,145.474L169.785,145.579L169.998,145.69L170.169,145.821L170.304,145.972L170.406,146.146L170.467,146.331L170.487,146.532L170.461,146.609L170.384,146.635L170.058,146.635L169.976,146.618L169.955,146.579L169.955,146.532L169.928,146.365L169.845,146.216L169.697,146.079L169.517,145.982L169.289,145.92L169.003,145.897L168.737,145.917L168.523,145.973L168.352,146.06L168.214,146.184L168.134,146.331L168.106,146.508L168.132,146.675L168.209,146.81L168.34,146.921L168.611,147.052L169.074,147.207L169.511,147.338L169.82,147.453L170.086,147.599L170.313,147.802L170.425,147.966L170.494,148.161L170.519,148.397L170.493,148.646L170.418,148.862L170.295,149.053L170.118,149.223L169.835,149.388L169.483,149.494L169.042,149.532Z"/>
            <path d="M173.376,145.438L173.666,145.508L173.909,145.619L174.114,145.77L174.338,146.031L174.507,146.362L174.618,146.778L174.652,147.067L174.666,147.571L174.64,147.649L174.563,147.675L172.023,147.675L171.993,147.684L171.983,147.714L171.998,148.085L172.031,148.294L172.112,148.518L172.234,148.706L172.4,148.861L172.598,148.975L172.831,149.047L173.11,149.072L173.449,149.025L173.726,148.909L173.954,148.725L174.126,148.476L174.182,148.421L174.261,148.429L174.491,148.556L174.552,148.619L174.539,148.69L174.391,148.937L174.201,149.146L173.967,149.321L173.704,149.449L173.405,149.528L173.062,149.556L172.7,149.524L172.392,149.436L172.126,149.294L171.897,149.098L171.716,148.857L171.579,148.563L171.501,148.294L171.447,147.936L171.427,147.468L171.433,147.191L171.983,147.191L171.993,147.22L172.023,147.23L174.063,147.23L174.092,147.22L174.102,147.191L174.055,146.682L173.975,146.457L173.858,146.27L173.701,146.115L173.514,146.001L173.294,145.93L173.031,145.905L172.773,145.929L172.559,145.998L172.38,146.107L172.231,146.256L172.121,146.436L172.047,146.651L172.011,146.837L171.983,147.191L171.433,147.191L171.439,146.925L171.499,146.548L171.621,146.223L171.801,145.951L172.043,145.722L172.329,145.553L172.655,145.449L173.031,145.413L173.376,145.438Z"/>
            <path d="M177.471,149.492L177.394,149.467L177.368,149.389L177.368,144.039L177.394,143.962L177.471,143.936L177.828,143.936L177.905,143.962L177.931,144.039L177.931,149.389L177.905,149.467L177.828,149.492L177.471,149.492Z"/>
            <path d="M181.036,145.438L181.326,145.508L181.569,145.619L181.774,145.77L181.998,146.031L182.167,146.362L182.278,146.778L182.312,147.067L182.326,147.571L182.3,147.649L182.223,147.675L179.683,147.675L179.653,147.684L179.643,147.714L179.658,148.085L179.691,148.294L179.772,148.518L179.894,148.706L180.06,148.861L180.258,148.975L180.492,149.047L180.77,149.072L181.109,149.025L181.386,148.909L181.614,148.725L181.786,148.476L181.842,148.421L181.921,148.429L182.151,148.556L182.212,148.619L182.199,148.69L182.051,148.937L181.862,149.146L181.627,149.321L181.364,149.449L181.065,149.528L180.723,149.556L180.36,149.524L180.052,149.436L179.786,149.294L179.558,149.098L179.376,148.857L179.239,148.563L179.161,148.294L179.107,147.936L179.088,147.468L179.093,147.191L179.643,147.191L179.653,147.22L179.683,147.23L181.723,147.23L181.752,147.22L181.763,147.191L181.715,146.682L181.635,146.457L181.518,146.27L181.361,146.115L181.174,146.001L180.954,145.93L180.691,145.905L180.433,145.929L180.219,145.998L180.04,146.107L179.891,146.256L179.781,146.436L179.707,146.651L179.671,146.837L179.643,147.191L179.093,147.191L179.099,146.925L179.159,146.548L179.281,146.223L179.461,145.951L179.703,145.722L179.989,145.553L180.315,145.449L180.691,145.413L181.036,145.438Z"/>
            <path d="M185.111,145.421L185.42,145.446L185.686,145.518L185.915,145.634L186.115,145.794L186.276,145.991L186.393,146.219L186.466,146.484L186.492,146.794L186.492,149.389L186.466,149.467L186.389,149.492L186.032,149.492L185.954,149.467L185.928,149.389L185.928,146.905L185.897,146.619L185.809,146.383L185.666,146.187L185.476,146.036L185.252,145.945L184.984,145.913L184.722,145.939L184.502,146.017L184.313,146.143L184.162,146.311L184.06,146.51L184.007,146.746L184.007,149.389L183.982,149.467L183.904,149.492L183.547,149.492L183.47,149.467L183.444,149.389L183.444,145.579L183.47,145.502L183.547,145.476L183.904,145.476L183.982,145.502L184.007,145.579L184.007,145.873L184.023,145.909L184.047,145.897L184.239,145.693L184.474,145.546L184.76,145.454L185.111,145.421Z"/>
            <path d="M189.424,145.443L189.708,145.531L189.947,145.67L190.148,145.865L190.18,145.881L190.196,145.849L190.196,145.579L190.222,145.502L190.299,145.476L190.657,145.476L190.734,145.502L190.76,145.579L190.76,149.357L190.723,149.8L190.62,150.153L190.46,150.435L190.244,150.659L189.978,150.832L189.662,150.96L189.286,151.043L188.839,151.072L188.585,151.064L188.507,151.032L188.482,150.953L188.497,150.635L188.524,150.555L188.601,150.54L189.037,150.536L189.373,150.488L189.628,150.405L189.819,150.294L189.976,150.138L190.093,149.935L190.168,149.674L190.196,149.341L190.196,149.064L190.18,149.032L190.148,149.048L189.949,149.251L189.716,149.395L189.442,149.485L189.117,149.516L188.781,149.484L188.478,149.392L188.2,149.238L187.964,149.03L187.786,148.77L187.664,148.452L187.597,148.087L187.569,147.484L187.57,147.468L188.132,147.468L188.157,148.003L188.212,148.27L188.286,148.48L188.4,148.662L188.557,148.822L188.745,148.942L188.958,149.014L189.204,149.04L189.455,149.014L189.665,148.942L189.843,148.825L189.989,148.67L190.093,148.489L190.157,148.278L190.188,147.984L190.196,147.476L190.188,146.933L190.148,146.675L190.085,146.464L189.981,146.282L189.835,146.123L189.657,146.004L189.45,145.931L189.204,145.905L188.963,145.93L188.755,146.002L188.573,146.119L188.419,146.275L188.299,146.459L188.212,146.675L188.156,146.964L188.132,147.468L187.57,147.468L187.589,146.897L187.62,146.666L187.672,146.468L187.795,146.168L187.966,145.915L188.188,145.702L188.45,145.543L188.746,145.446L189.085,145.413L189.424,145.443Z"/>
            <path d="M193.764,145.841L193.738,145.918L193.661,145.944L192.796,145.944L192.766,145.954L192.756,145.984L192.756,148.302L192.779,148.55L192.838,148.722L192.927,148.838L193.05,148.918L193.224,148.972L193.463,148.992L193.637,148.992L193.715,149.018L193.74,149.096L193.74,149.373L193.715,149.452L193.637,149.484L193.367,149.484L192.991,149.456L192.709,149.382L192.502,149.27L192.383,149.152L192.292,148.99L192.231,148.77L192.209,148.476L192.209,145.984L192.199,145.954L192.169,145.944L191.716,145.944L191.639,145.918L191.613,145.841L191.613,145.579L191.639,145.502L191.716,145.476L192.169,145.476L192.199,145.466L192.209,145.437L192.209,144.548L192.234,144.47L192.312,144.444L192.653,144.444L192.73,144.47L192.756,144.548L192.756,145.437L192.766,145.466L192.796,145.476L193.661,145.476L193.738,145.502L193.764,145.579L193.764,145.841Z"/>
            <path d="M196.515,145.421L196.824,145.446L197.09,145.518L197.32,145.634L197.519,145.794L197.681,145.991L197.798,146.219L197.87,146.484L197.896,146.794L197.896,149.389L197.87,149.467L197.793,149.492L197.436,149.492L197.358,149.467L197.332,149.389L197.332,146.905L197.302,146.619L197.213,146.383L197.071,146.187L196.881,146.036L196.656,145.945L196.388,145.913L196.127,145.939L195.906,146.017L195.717,146.143L195.566,146.311L195.464,146.51L195.412,146.746L195.412,149.389L195.386,149.467L195.309,149.492L194.951,149.492L194.874,149.467L194.848,149.389L194.848,144.039L194.874,143.962L194.951,143.936L195.309,143.936L195.386,143.962L195.412,144.039L195.412,145.873L195.428,145.909L195.451,145.897L195.644,145.693L195.879,145.546L196.164,145.454L196.515,145.421Z"/>
        </g>
    </g>
    <g transform="matrix(1,0,0,1,0,-152.58)">
        <g transform="matrix(1,0,0,1,177.064,256.681)">
            <text x="-9.666px" y="0px" style="font-family:'ArialMT', 'Arial', sans-serif;font-size:7.559px;fill:none;stroke:black;stroke-opacity:0;stroke-width:0.43px;">green</text>
        </g>
        <g transform="matrix(1,0,0,1,-58.7363,16.707)">
            <path d="M228.219,235.443L228.503,235.531L228.742,235.67L228.944,235.865L228.976,235.881L228.991,235.849L228.991,235.579L229.017,235.502L229.095,235.476L229.452,235.476L229.529,235.502L229.555,235.579L229.555,239.357L229.518,239.8L229.416,240.153L229.256,240.435L229.039,240.659L228.773,240.832L228.457,240.96L228.081,241.043L227.634,241.072L227.38,241.064L227.303,241.032L227.277,240.953L227.293,240.635L227.319,240.555L227.396,240.54L227.832,240.536L228.168,240.488L228.423,240.405L228.614,240.294L228.771,240.138L228.888,239.935L228.964,239.674L228.991,239.341L228.991,239.064L228.976,239.032L228.944,239.048L228.745,239.251L228.511,239.395L228.237,239.485L227.912,239.516L227.577,239.484L227.273,239.392L226.995,239.238L226.759,239.03L226.582,238.77L226.46,238.452L226.392,238.087L226.364,237.484L226.365,237.468L226.928,237.468L226.952,238.003L227.007,238.27L227.081,238.48L227.195,238.662L227.352,238.822L227.54,238.942L227.753,239.014L227.999,239.04L228.25,239.014L228.461,238.942L228.638,238.825L228.784,238.67L228.888,238.489L228.951,238.278L228.984,237.984L228.991,237.476L228.984,236.933L228.944,236.675L228.88,236.464L228.776,236.282L228.63,236.123L228.453,236.004L228.245,235.931L227.999,235.905L227.758,235.93L227.55,236.002L227.368,236.119L227.214,236.275L227.095,236.459L227.007,236.675L226.951,236.964L226.928,237.468L226.365,237.468L226.384,236.897L226.416,236.666L226.467,236.468L226.59,236.168L226.761,235.915L226.983,235.702L227.245,235.543L227.541,235.446L227.88,235.413L228.219,235.443Z"/>
            <path d="M232.377,235.437L232.625,235.462L232.813,235.532L232.866,235.578L232.869,235.659L232.79,236.008L232.747,236.071L232.663,236.071L232.5,236.039L232.273,236.032L232.011,236.074L231.786,236.175L231.591,236.337L231.443,236.544L231.353,236.786L231.321,237.072L231.321,239.389L231.295,239.467L231.218,239.492L230.861,239.492L230.783,239.467L230.757,239.389L230.757,235.579L230.783,235.502L230.861,235.476L231.218,235.476L231.295,235.502L231.321,235.579L231.321,236.024L231.333,236.06L231.361,236.04L231.553,235.783L231.785,235.595L232.059,235.477L232.377,235.437Z"/>
            <path d="M235.434,235.438L235.723,235.508L235.967,235.619L236.172,235.77L236.396,236.031L236.565,236.362L236.676,236.778L236.71,237.067L236.724,237.571L236.698,237.649L236.621,237.675L234.081,237.675L234.051,237.684L234.041,237.714L234.055,238.085L234.089,238.294L234.17,238.518L234.292,238.706L234.458,238.861L234.655,238.975L234.889,239.047L235.168,239.072L235.507,239.025L235.783,238.909L236.011,238.725L236.184,238.476L236.24,238.421L236.319,238.429L236.549,238.556L236.61,238.619L236.597,238.69L236.449,238.937L236.259,239.146L236.025,239.321L235.762,239.449L235.463,239.528L235.12,239.556L234.758,239.524L234.449,239.436L234.184,239.294L233.955,239.098L233.774,238.857L233.636,238.563L233.558,238.294L233.505,237.936L233.486,237.468L233.491,237.191L234.041,237.191L234.051,237.22L234.081,237.23L236.12,237.23L236.15,237.22L236.16,237.191L236.112,236.682L236.033,236.457L235.915,236.27L235.759,236.115L235.572,236.001L235.351,235.93L235.089,235.905L234.831,235.929L234.617,235.998L234.438,236.107L234.289,236.256L234.179,236.436L234.105,236.651L234.068,236.837L234.041,237.191L233.491,237.191L233.497,236.925L233.557,236.548L233.679,236.223L233.859,235.951L234.101,235.722L234.387,235.553L234.713,235.449L235.089,235.413L235.434,235.438Z"/>
            <path d="M239.671,235.438L239.961,235.508L240.204,235.619L240.409,235.77L240.633,236.031L240.802,236.362L240.913,236.778L240.947,237.067L240.961,237.571L240.935,237.649L240.858,237.675L238.318,237.675L238.288,237.684L238.278,237.714L238.293,238.085L238.326,238.294L238.407,238.518L238.529,238.706L238.695,238.861L238.893,238.975L239.126,239.047L239.405,239.072L239.744,239.025L240.021,238.909L240.249,238.725L240.421,238.476L240.477,238.421L240.556,238.429L240.786,238.556L240.847,238.619L240.834,238.69L240.686,238.937L240.496,239.146L240.262,239.321L239.999,239.449L239.7,239.528L239.357,239.556L238.995,239.524L238.687,239.436L238.421,239.294L238.193,239.098L238.011,238.857L237.874,238.563L237.796,238.294L237.742,237.936L237.722,237.468L237.728,237.191L238.278,237.191L238.288,237.22L238.318,237.23L240.358,237.23L240.387,237.22L240.398,237.191L240.35,236.682L240.27,236.457L240.153,236.27L239.996,236.115L239.809,236.001L239.589,235.93L239.326,235.905L239.068,235.929L238.854,235.998L238.675,236.107L238.526,236.256L238.416,236.436L238.342,236.651L238.306,236.837L238.278,237.191L237.728,237.191L237.734,236.925L237.794,236.548L237.916,236.223L238.096,235.951L238.338,235.722L238.624,235.553L238.95,235.449L239.326,235.413L239.671,235.438Z"/>
            <path d="M243.746,235.421L244.055,235.446L244.321,235.518L244.55,235.634L244.75,235.794L244.911,235.991L245.028,236.219L245.101,236.484L245.127,236.794L245.127,239.389L245.101,239.467L245.024,239.492L244.666,239.492L244.589,239.467L244.563,239.389L244.563,236.905L244.532,236.619L244.444,236.383L244.301,236.187L244.111,236.036L243.887,235.945L243.619,235.913L243.357,235.939L243.137,236.017L242.948,236.143L242.796,236.311L242.695,236.51L242.642,236.746L242.642,239.389L242.616,239.467L242.539,239.492L242.182,239.492L242.105,239.467L242.079,239.389L242.079,235.579L242.105,235.502L242.182,235.476L242.539,235.476L242.616,235.502L242.642,235.579L242.642,235.873L242.658,235.909L242.682,235.897L242.874,235.693L243.109,235.546L243.395,235.454L243.746,235.421Z"/>
        </g>
    </g>
    <g transform="matrix(1,0,0,1,0,-152.58)">
        <g transform="matrix(1,0,0,1,184.264,184.681)">
            <text x="-9.663px" y="0px" style="font-family:'ArialMT', 'Arial', sans-serif;font-size:7.559px;fill:none;stroke:black;stroke-opacity:0;stroke-width:0.43px;">Delay</text>
        </g>
        <g transform="matrix(1,0,0,1,-58.7363,16.707)">
            <path d="M236.771,161.965L237.104,162.046L237.387,162.174L237.629,162.349L237.83,162.571L237.974,162.826L238.063,163.122L238.094,163.468L238.094,165.961L238.063,166.307L237.974,166.603L237.83,166.858L237.629,167.08L237.387,167.254L237.104,167.383L236.771,167.463L236.38,167.492L234.53,167.492L234.453,167.467L234.427,167.389L234.427,162.468L234.99,162.468L234.99,166.961L235,166.99L235.03,167L236.403,167L236.735,166.964L237.004,166.863L237.225,166.698L237.391,166.48L237.494,166.215L237.53,165.889L237.53,163.548L237.494,163.216L237.393,162.948L237.229,162.73L237.011,162.567L236.74,162.465L236.403,162.429L235.03,162.429L235,162.439L234.99,162.468L234.427,162.468L234.427,162.039L234.453,161.962L234.53,161.936L236.38,161.936L236.771,161.965Z"/>
            <path d="M241.047,163.438L241.337,163.508L241.58,163.619L241.785,163.77L242.009,164.031L242.178,164.362L242.289,164.778L242.323,165.067L242.337,165.571L242.311,165.649L242.234,165.675L239.694,165.675L239.664,165.684L239.654,165.714L239.668,166.085L239.702,166.294L239.783,166.518L239.905,166.706L240.071,166.861L240.269,166.975L240.502,167.047L240.781,167.072L241.12,167.025L241.396,166.909L241.625,166.725L241.797,166.476L241.853,166.421L241.932,166.429L242.162,166.556L242.223,166.619L242.21,166.69L242.062,166.937L241.872,167.146L241.639,167.321L241.375,167.449L241.076,167.528L240.733,167.556L240.371,167.524L240.062,167.436L239.797,167.294L239.569,167.098L239.387,166.857L239.249,166.563L239.172,166.294L239.119,165.936L239.099,165.468L239.105,165.191L239.654,165.191L239.664,165.22L239.694,165.23L241.733,165.23L241.764,165.22L241.773,165.191L241.726,164.682L241.646,164.457L241.529,164.27L241.373,164.115L241.185,164.001L240.964,163.93L240.702,163.905L240.444,163.929L240.23,163.998L240.051,164.107L239.902,164.256L239.792,164.436L239.718,164.651L239.681,164.837L239.654,165.191L239.105,165.191L239.11,164.925L239.17,164.548L239.292,164.223L239.472,163.951L239.714,163.722L240,163.553L240.326,163.449L240.702,163.413L241.047,163.438Z"/>
            <path d="M243.558,167.492L243.48,167.467L243.455,167.389L243.455,162.039L243.48,161.962L243.558,161.936L243.915,161.936L243.992,161.962L244.018,162.039L244.018,167.389L243.992,167.467L243.915,167.492L243.558,167.492Z"/>
            <path d="M247.04,163.439L247.337,163.511L247.584,163.625L247.79,163.778L247.96,163.973L248.081,164.195L248.157,164.45L248.183,164.746L248.183,167.389L248.157,167.467L248.08,167.492L247.722,167.492L247.645,167.467L247.619,167.389L247.619,167.103L247.603,167.072L247.572,167.088L247.334,167.288L247.036,167.437L246.704,167.525L246.334,167.556L245.973,167.522L245.665,167.426L245.401,167.27L245.24,167.114L245.124,166.922L245.05,166.686L245.024,166.397L245.027,166.365L245.587,166.365L245.617,166.586L245.699,166.758L245.833,166.893L246.006,166.99L246.212,167.05L246.461,167.072L246.765,167.045L247.034,166.966L247.274,166.838L247.469,166.66L247.581,166.453L247.619,166.207L247.619,165.595L247.609,165.566L247.58,165.556L246.746,165.556L246.403,165.582L246.127,165.656L245.905,165.77L245.727,165.933L245.623,166.128L245.587,166.365L245.027,166.365L245.053,166.108L245.134,165.86L245.267,165.644L245.456,165.457L245.679,165.313L245.947,165.205L246.271,165.136L246.659,165.111L247.58,165.111L247.609,165.101L247.619,165.072L247.619,164.778L247.592,164.517L247.515,164.308L247.393,164.139L247.227,164.015L246.999,163.935L246.691,163.905L246.34,163.943L246.08,164.048L245.938,164.157L245.839,164.288L245.778,164.445L245.736,164.512L245.659,164.524L245.27,164.476L245.192,164.444L245.174,164.389L245.263,164.119L245.422,163.886L245.663,163.683L245.947,163.537L246.283,163.445L246.683,163.413L247.04,163.439Z"/>
            <path d="M249.116,169.08L249.077,169.059L249.06,168.977L249.06,168.699L249.077,168.616L249.116,168.596L249.171,168.596L249.461,168.571L249.651,168.508L249.805,168.393L249.945,168.199L250.062,167.944L250.211,167.516L250.211,167.468L248.878,163.595L248.869,163.556L248.897,163.5L248.965,163.476L249.338,163.476L249.416,163.498L249.457,163.564L250.481,166.675L250.504,166.706L250.529,166.675L251.529,163.564L251.569,163.498L251.64,163.476L252.021,163.476L252.1,163.508L252.108,163.595L250.648,167.842L250.449,168.335L250.29,168.627L250.1,168.845L249.873,168.981L249.597,169.051L249.171,169.08L249.116,169.08Z"/>
        </g>
    </g>
    <g transform="matrix(1,0,0,1,0,-152.58)">
        <g transform="matrix(1,0,0,1,229.264,256.681)">
            <text x="-7.145px" y="0px" style="font-family:'ArialMT', 'Arial', sans-serif;font-size:7.559px;fill:none;stroke:black;stroke-opacity:0;stroke-width:0.43px;">blue</text>
        </g>
        <g transform="matrix(1,0,0,1,-58.7363,16.707)">
            <path d="M281.859,233.962L281.885,234.039L281.885,235.873L281.901,235.905L281.932,235.889L282.129,235.685L282.369,235.536L282.64,235.444L282.94,235.413L283.306,235.447L283.617,235.545L283.885,235.702L284.11,235.917L284.284,236.18L284.409,236.5L284.476,236.867L284.504,237.484L284.472,238.098L284.393,238.492L284.269,238.802L284.096,239.059L283.873,239.27L283.609,239.426L283.301,239.522L282.94,239.556L282.634,239.523L282.365,239.429L282.128,239.276L281.932,239.072L281.901,239.06L281.885,239.088L281.885,239.389L281.859,239.467L281.781,239.492L281.424,239.492L281.347,239.467L281.321,239.389L281.321,237.484L281.901,237.484L281.932,238.08L281.975,238.285L282.036,238.452L282.168,238.705L282.353,238.897L282.504,238.988L282.679,239.044L282.885,239.064L283.102,239.044L283.292,238.988L283.46,238.897L283.605,238.773L283.717,238.623L283.798,238.445L283.864,238.27L283.908,238.068L283.94,237.484L283.928,237.117L283.897,236.877L283.839,236.667L283.758,236.484L283.623,236.248L283.424,236.064L283.177,235.946L282.877,235.905L282.681,235.924L282.51,235.978L282.357,236.068L282.171,236.256L282.044,236.5L281.977,236.675L281.932,236.885L281.901,237.484L281.321,237.484L281.321,234.039L281.347,233.962L281.424,233.936L281.781,233.936L281.859,233.962Z"/>
            <path d="M285.722,239.492L285.645,239.467L285.619,239.389L285.619,234.039L285.645,233.962L285.722,233.936L286.08,233.936L286.157,233.962L286.183,234.039L286.183,239.389L286.157,239.467L286.08,239.492L285.722,239.492Z"/>
            <path d="M289.887,235.579L289.913,235.502L289.99,235.476L290.347,235.476L290.424,235.502L290.45,235.579L290.45,239.389L290.424,239.467L290.347,239.492L289.99,239.492L289.913,239.467L289.887,239.389L289.887,239.088L289.871,239.056L289.839,239.072L289.651,239.276L289.42,239.423L289.138,239.515L288.791,239.548L288.423,239.508L288.089,239.393L287.888,239.273L287.72,239.125L287.581,238.945L287.48,238.742L287.417,238.508L287.395,238.238L287.395,235.579L287.42,235.502L287.498,235.476L287.855,235.476L287.933,235.502L287.958,235.579L287.958,238.072L287.989,238.363L288.075,238.599L288.212,238.79L288.397,238.935L288.623,239.024L288.903,239.056L289.193,239.024L289.428,238.933L289.621,238.786L289.766,238.592L289.855,238.357L289.887,238.072L289.887,235.579Z"/>
            <path d="M293.541,235.438L293.831,235.508L294.074,235.619L294.279,235.77L294.503,236.031L294.672,236.362L294.783,236.778L294.817,237.067L294.831,237.571L294.805,237.649L294.728,237.675L292.188,237.675L292.158,237.684L292.148,237.714L292.163,238.085L292.196,238.294L292.277,238.518L292.399,238.706L292.565,238.861L292.763,238.975L292.997,239.047L293.275,239.072L293.615,239.025L293.89,238.909L294.119,238.725L294.291,238.476L294.347,238.421L294.426,238.429L294.657,238.556L294.717,238.619L294.704,238.69L294.556,238.937L294.367,239.146L294.132,239.321L293.869,239.449L293.57,239.528L293.228,239.556L292.865,239.524L292.557,239.436L292.291,239.294L292.063,239.098L291.881,238.857L291.744,238.563L291.666,238.294L291.612,237.936L291.593,237.468L291.599,237.191L292.148,237.191L292.158,237.22L292.188,237.23L294.228,237.23L294.257,237.22L294.267,237.191L294.22,236.682L294.14,236.457L294.023,236.27L293.867,236.115L293.679,236.001L293.459,235.93L293.196,235.905L292.938,235.929L292.724,235.998L292.545,236.107L292.396,236.256L292.286,236.436L292.212,236.651L292.175,236.837L292.148,237.191L291.599,237.191L291.605,236.925L291.664,236.548L291.786,236.223L291.966,235.951L292.208,235.722L292.494,235.553L292.82,235.449L293.196,235.413L293.541,235.438Z"/>
        </g>
    </g>
</svg>
