<?xml version="1.0" encoding="UTF-8" standalone="no"?>
<!DOCTYPE svg PUBLIC "-//W3C//DTD SVG 1.1//EN" "http://www.w3.org/Graphics/SVG/1.1/DTD/svg11.dtd">
<svg width="100%" height="100%" viewBox="0 0 1400 280" version="1.1" xmlns="http://www.w3.org/2000/svg" xmlns:xlink="http://www.w3.org/1999/xlink" xml:space="preserve" xmlns:serif="http://www.serif.com/" style="fill-rule:evenodd;clip-rule:evenodd;stroke-linecap:round;stroke-linejoin:round;">
    <g transform="matrix(6.568409,0,0,6.568409,218.793752,-312.399833)">
        <path d="M112.395,59.69L112.395,73.025" style="fill:none;fill-rule:nonzero;stroke:black;stroke-width:0.15px;"/>
    </g>
    <g transform="matrix(6.568409,0,0,6.568409,218.793752,-312.399833)">
        <path d="M102.235,59.69L102.235,66.675" style="fill:none;fill-rule:nonzero;stroke:black;stroke-width:0.15px;"/>
    </g>
    <g transform="matrix(6.568409,0,0,6.568409,218.793752,-312.399833)">
        <path d="M111.125,62.865L112.395,61.595" style="fill:none;fill-rule:nonzero;stroke:black;stroke-width:0.15px;"/>
    </g>
    <g transform="matrix(6.568409,0,0,6.568409,218.793752,-312.399833)">
        <path d="M111.125,60.325L112.395,61.595" style="fill:none;fill-rule:nonzero;stroke:black;stroke-width:0.15px;"/>
    </g>
    <g transform="matrix(6.568409,0,0,6.568409,218.793752,-312.399833)">
        <path d="M104.775,61.595L112.395,61.595" style="fill:none;fill-rule:nonzero;stroke:black;stroke-width:0.15px;"/>
    </g>
    <g transform="matrix(6.568409,0,0,6.568409,218.793752,-312.399833)">
        <path d="M112.395,80.645L118.745,80.645" style="fill:none;fill-rule:nonzero;stroke:black;stroke-width:0.15px;"/>
    </g>
    <g transform="matrix(6.568409,0,0,6.568409,218.793752,-312.399833)">
        <path d="M110.49,80.645L112.395,86.995" style="fill:none;fill-rule:nonzero;stroke:black;stroke-width:0.15px;"/>
    </g>
    <g transform="matrix(6.568409,0,0,6.568409,218.793752,-312.399833)">
        <path d="M110.49,86.995L112.395,80.645" style="fill:none;fill-rule:nonzero;stroke:black;stroke-width:0.15px;"/>
    </g>
    <g transform="matrix(6.568409,0,0,6.568409,218.793752,-312.399833)">
        <path d="M112.395,86.995L118.745,86.995" style="fill:none;fill-rule:nonzero;stroke:black;stroke-width:0.15px;"/>
    </g>
    <g transform="matrix(6.568409,0,0,6.568409,218.793752,-312.399833)">
        <path d="M102.235,74.295L118.745,74.295" style="fill:none;fill-rule:nonzero;stroke:black;stroke-width:0.15px;"/>
    </g>
    <g transform="matrix(6.568409,0,0,6.568409,218.793752,-312.399833)">
        <path d="M93.345,86.995L110.49,86.995" style="fill:none;fill-rule:nonzero;stroke:black;stroke-width:0.15px;"/>
    </g>
    <g transform="matrix(6.568409,0,0,6.568409,218.793752,-312.399833)">
        <path d="M57.785,61.595L59.69,61.595" style="fill:none;fill-rule:nonzero;stroke:black;stroke-width:0.15px;"/>
    </g>
    <g transform="matrix(6.568409,0,0,6.568409,218.793752,-312.399833)">
        <path d="M93.345,80.645L110.49,80.645" style="fill:none;fill-rule:nonzero;stroke:black;stroke-width:0.15px;"/>
    </g>
    <g transform="matrix(6.568409,0,0,6.568409,218.793752,-312.399833)">
        <path d="M91.44,86.995L93.345,80.645" style="fill:none;fill-rule:nonzero;stroke:black;stroke-width:0.15px;"/>
    </g>
    <g transform="matrix(6.568409,0,0,6.568409,218.793752,-312.399833)">
        <path d="M93.345,80.645L93.345,74.295" style="fill:none;fill-rule:nonzero;stroke:black;stroke-width:0.15px;stroke-dasharray:0.03,0.61;"/>
    </g>
    <g transform="matrix(6.568409,0,0,6.568409,218.793752,-312.399833)">
        <path d="M83.185,74.295L97.79,74.295" style="fill:none;fill-rule:nonzero;stroke:black;stroke-width:0.15px;"/>
    </g>
    <g transform="matrix(6.568409,0,0,6.568409,218.793752,-312.399833)">
        <path d="M83.185,74.295L83.185,67.945" style="fill:none;fill-rule:nonzero;stroke:black;stroke-width:0.15px;"/>
    </g>
    <g transform="matrix(6.568409,0,0,6.568409,218.793752,-312.399833)">
        <path d="M97.79,80.645L97.79,74.295" style="fill:none;fill-rule:nonzero;stroke:black;stroke-width:0.15px;stroke-dasharray:0.03,0.61;"/>
    </g>
    <g transform="matrix(6.568409,0,0,6.568409,218.793752,-312.399833)">
        <path d="M97.79,67.945L102.235,67.945" style="fill:none;fill-rule:nonzero;stroke:black;stroke-width:0.15px;"/>
    </g>
    <g transform="matrix(6.568409,0,0,6.568409,218.793752,-312.399833)">
        <path d="M102.235,74.295L102.235,67.945" style="fill:none;fill-rule:nonzero;stroke:black;stroke-width:0.15px;"/>
    </g>
    <g transform="matrix(6.568409,0,0,6.568409,218.793752,-312.399833)">
        <path d="M97.79,74.295L97.79,67.945" style="fill:none;fill-rule:nonzero;stroke:black;stroke-width:0.15px;"/>
    </g>
    <g transform="matrix(6.568409,0,0,6.568409,218.793752,-312.399833)">
        <path d="M84.455,55.245L83.185,56.515" style="fill:none;fill-rule:nonzero;stroke:black;stroke-width:0.15px;"/>
    </g>
    <g transform="matrix(6.568409,0,0,6.568409,218.793752,-312.399833)">
        <path d="M83.185,54.61L83.185,66.675" style="fill:none;fill-rule:nonzero;stroke:black;stroke-width:0.15px;"/>
    </g>
    <g transform="matrix(6.568409,0,0,6.568409,218.793752,-312.399833)">
        <path d="M84.455,57.785L83.185,56.515" style="fill:none;fill-rule:nonzero;stroke:black;stroke-width:0.15px;"/>
    </g>
    <g transform="matrix(6.568409,0,0,6.568409,218.793752,-312.399833)">
        <path d="M83.185,56.515L85.725,56.515" style="fill:none;fill-rule:nonzero;stroke:black;stroke-width:0.15px;"/>
    </g>
    <g transform="matrix(6.568409,0,0,6.568409,218.793752,-312.399833)">
        <path d="M103.505,62.865L102.235,61.595" style="fill:none;fill-rule:nonzero;stroke:black;stroke-width:0.15px;"/>
    </g>
    <g transform="matrix(6.568409,0,0,6.568409,218.793752,-312.399833)">
        <path d="M103.505,60.325L102.235,61.595" style="fill:none;fill-rule:nonzero;stroke:black;stroke-width:0.15px;"/>
    </g>
    <g transform="matrix(6.568409,0,0,6.568409,218.793752,-312.399833)">
        <path d="M102.235,61.595L104.775,61.595" style="fill:none;fill-rule:nonzero;stroke:black;stroke-width:0.15px;"/>
    </g>
    <g transform="matrix(6.568409,0,0,6.568409,218.793752,-312.399833)">
        <path d="M58.42,60.325L59.69,61.595" style="fill:none;fill-rule:nonzero;stroke:black;stroke-width:0.15px;"/>
    </g>
    <g transform="matrix(6.568409,0,0,6.568409,218.793752,-312.399833)">
        <path d="M58.42,62.865L59.69,61.595" style="fill:none;fill-rule:nonzero;stroke:black;stroke-width:0.15px;"/>
    </g>
    <g transform="matrix(6.568409,0,0,6.568409,218.793752,-312.399833)">
        <path d="M76.2,56.515L78.74,56.515" style="fill:none;fill-rule:nonzero;stroke:black;stroke-width:0.15px;"/>
    </g>
    <g transform="matrix(6.568409,0,0,6.568409,218.793752,-312.399833)">
        <path d="M77.47,57.785L78.74,56.515" style="fill:none;fill-rule:nonzero;stroke:black;stroke-width:0.15px;"/>
    </g>
    <g transform="matrix(6.568409,0,0,6.568409,218.793752,-312.399833)">
        <path d="M78.74,54.61L78.74,66.675" style="fill:none;fill-rule:nonzero;stroke:black;stroke-width:0.15px;"/>
    </g>
    <g transform="matrix(6.568409,0,0,6.568409,218.793752,-312.399833)">
        <path d="M77.47,55.245L78.74,56.515" style="fill:none;fill-rule:nonzero;stroke:black;stroke-width:0.15px;"/>
    </g>
    <g transform="matrix(6.568409,0,0,6.568409,218.793752,-312.399833)">
        <path d="M91.44,80.645L93.345,86.995" style="fill:none;fill-rule:nonzero;stroke:black;stroke-width:0.15px;"/>
    </g>
    <g transform="matrix(6.568409,0,0,6.568409,218.793752,-312.399833)">
        <path d="M74.295,80.645L91.44,80.645" style="fill:none;fill-rule:nonzero;stroke:black;stroke-width:0.15px;"/>
    </g>
    <g transform="matrix(6.568409,0,0,6.568409,218.793752,-312.399833)">
        <path d="M74.295,86.995L91.44,86.995" style="fill:none;fill-rule:nonzero;stroke:black;stroke-width:0.15px;"/>
    </g>
    <g transform="matrix(6.568409,0,0,6.568409,218.793752,-312.399833)">
        <path d="M72.39,80.645L74.295,86.995" style="fill:none;fill-rule:nonzero;stroke:black;stroke-width:0.15px;"/>
    </g>
    <g transform="matrix(6.568409,0,0,6.568409,218.793752,-312.399833)">
        <path d="M72.39,86.995L74.295,80.645" style="fill:none;fill-rule:nonzero;stroke:black;stroke-width:0.15px;"/>
    </g>
    <g transform="matrix(6.568409,0,0,6.568409,218.793752,-312.399833)">
        <path d="M55.245,80.645L72.39,80.645" style="fill:none;fill-rule:nonzero;stroke:black;stroke-width:0.15px;"/>
    </g>
    <g transform="matrix(6.568409,0,0,6.568409,218.793752,-312.399833)">
        <path d="M53.34,80.645L55.245,86.995" style="fill:none;fill-rule:nonzero;stroke:black;stroke-width:0.15px;"/>
    </g>
    <g transform="matrix(6.568409,0,0,6.568409,218.793752,-312.399833)">
        <path d="M53.34,86.995L55.245,80.645" style="fill:none;fill-rule:nonzero;stroke:black;stroke-width:0.15px;"/>
    </g>
    <g transform="matrix(6.568409,0,0,6.568409,218.793752,-312.399833)">
        <path d="M55.245,86.995L72.39,86.995" style="fill:none;fill-rule:nonzero;stroke:black;stroke-width:0.15px;"/>
    </g>
    <g transform="matrix(6.568409,0,0,6.568409,218.793752,-312.399833)">
        <path d="M59.69,80.645L59.69,74.295" style="fill:none;fill-rule:nonzero;stroke:black;stroke-width:0.15px;stroke-dasharray:0.03,0.61;"/>
    </g>
    <g transform="matrix(6.568409,0,0,6.568409,218.793752,-312.399833)">
        <path d="M55.245,74.295L59.69,74.295" style="fill:none;fill-rule:nonzero;stroke:black;stroke-width:0.15px;"/>
    </g>
    <g transform="matrix(6.568409,0,0,6.568409,218.793752,-312.399833)">
        <path d="M55.245,80.645L55.245,74.295" style="fill:none;fill-rule:nonzero;stroke:black;stroke-width:0.15px;stroke-dasharray:0.03,0.61;"/>
    </g>
    <g transform="matrix(6.568409,0,0,6.568409,218.793752,-312.399833)">
        <path d="M46.99,80.645L53.34,80.645" style="fill:none;fill-rule:nonzero;stroke:black;stroke-width:0.15px;"/>
    </g>
    <g transform="matrix(6.568409,0,0,6.568409,218.793752,-312.399833)">
        <path d="M46.99,86.995L53.34,86.995" style="fill:none;fill-rule:nonzero;stroke:black;stroke-width:0.15px;"/>
    </g>
    <g transform="matrix(6.568409,0,0,6.568409,218.793752,-312.399833)">
        <path d="M46.99,74.295L55.245,74.295" style="fill:none;fill-rule:nonzero;stroke:black;stroke-width:0.15px;"/>
    </g>
    <g transform="matrix(6.568409,0,0,6.568409,218.793752,-312.399833)">
        <path d="M59.69,74.295L59.69,67.945" style="fill:none;fill-rule:nonzero;stroke:black;stroke-width:0.15px;"/>
    </g>
    <g transform="matrix(6.568409,0,0,6.568409,218.793752,-312.399833)">
        <path d="M55.245,59.69L55.245,73.025" style="fill:none;fill-rule:nonzero;stroke:black;stroke-width:0.15px;"/>
    </g>
    <g transform="matrix(6.568409,0,0,6.568409,218.793752,-312.399833)">
        <path d="M56.515,62.865L55.245,61.595" style="fill:none;fill-rule:nonzero;stroke:black;stroke-width:0.15px;"/>
    </g>
    <g transform="matrix(6.568409,0,0,6.568409,218.793752,-312.399833)">
        <path d="M59.69,59.69L59.69,66.675" style="fill:none;fill-rule:nonzero;stroke:black;stroke-width:0.15px;"/>
    </g>
    <g transform="matrix(6.568409,0,0,6.568409,218.793752,-312.399833)">
        <path d="M78.74,67.945L83.185,67.945" style="fill:none;fill-rule:nonzero;stroke:black;stroke-width:0.15px;"/>
    </g>
    <g transform="matrix(6.568409,0,0,6.568409,218.793752,-312.399833)">
        <path d="M64.135,74.295L78.74,74.295" style="fill:none;fill-rule:nonzero;stroke:black;stroke-width:0.15px;"/>
    </g>
    <g transform="matrix(6.568409,0,0,6.568409,218.793752,-312.399833)">
        <path d="M78.74,80.645L78.74,74.295" style="fill:none;fill-rule:nonzero;stroke:black;stroke-width:0.15px;stroke-dasharray:0.03,0.61;"/>
    </g>
    <g transform="matrix(6.568409,0,0,6.568409,218.793752,-312.399833)">
        <path d="M78.74,74.295L78.74,67.945" style="fill:none;fill-rule:nonzero;stroke:black;stroke-width:0.15px;"/>
    </g>
    <g transform="matrix(6.568409,0,0,6.568409,218.793752,-312.399833)">
        <path d="M74.295,80.645L74.295,74.295" style="fill:none;fill-rule:nonzero;stroke:black;stroke-width:0.15px;stroke-dasharray:0.03,0.61;"/>
    </g>
    <g transform="matrix(6.568409,0,0,6.568409,218.793752,-312.399833)">
        <path d="M64.135,74.295L64.135,67.945" style="fill:none;fill-rule:nonzero;stroke:black;stroke-width:0.15px;"/>
    </g>
    <g transform="matrix(6.568409,0,0,6.568409,218.793752,-312.399833)">
        <path d="M59.69,67.945L64.135,67.945" style="fill:none;fill-rule:nonzero;stroke:black;stroke-width:0.15px;"/>
    </g>
    <g transform="matrix(6.568409,0,0,6.568409,218.793752,-312.399833)">
        <path d="M55.245,61.595L57.785,61.595" style="fill:none;fill-rule:nonzero;stroke:black;stroke-width:0.15px;"/>
    </g>
    <g transform="matrix(6.568409,0,0,6.568409,218.793752,-312.399833)">
        <path d="M56.515,60.325L55.245,61.595" style="fill:none;fill-rule:nonzero;stroke:black;stroke-width:0.15px;"/>
    </g>
    <g transform="matrix(6.568409,0,0,6.568409,218.793752,-312.399833)">
        <path d="M99.433,82.537L99.443,82.564L99.443,83.211L99.448,83.222L99.46,83.216L99.529,83.145L99.613,83.092L99.709,83.059L99.815,83.048L99.944,83.06L100.054,83.095L100.148,83.151L100.228,83.226L100.289,83.319L100.333,83.432L100.357,83.561L100.367,83.779L100.355,83.996L100.327,84.135L100.284,84.244L100.223,84.335L100.144,84.409L100.051,84.464L99.942,84.498L99.815,84.51L99.707,84.498L99.612,84.465L99.528,84.411L99.46,84.339L99.448,84.335L99.443,84.345L99.443,84.451L99.433,84.478L99.406,84.488L99.28,84.488L99.253,84.478L99.244,84.451L99.244,83.779L99.448,83.779L99.459,83.989L99.475,84.062L99.496,84.121L99.543,84.21L99.608,84.278L99.661,84.31L99.723,84.329L99.795,84.336L99.872,84.329L99.939,84.31L99.998,84.278L100.05,84.234L100.089,84.181L100.118,84.118L100.141,84.056L100.157,83.985L100.168,83.779L100.163,83.65L100.152,83.565L100.132,83.491L100.103,83.426L100.056,83.343L99.986,83.278L99.898,83.237L99.793,83.222L99.724,83.229L99.663,83.248L99.609,83.279L99.543,83.346L99.499,83.432L99.475,83.494L99.459,83.568L99.448,83.779L99.244,83.779L99.244,82.564L99.253,82.537L99.28,82.528L99.406,82.528L99.433,82.537Z"/>
        <path d="M100.796,84.488L100.769,84.478L100.76,84.451L100.76,82.564L100.769,82.537L100.796,82.528L100.922,82.528L100.95,82.537L100.959,82.564L100.959,84.451L100.95,84.478L100.922,84.488L100.796,84.488Z"/>
        <path d="M102.266,83.107L102.275,83.08L102.302,83.071L102.428,83.071L102.455,83.08L102.464,83.107L102.464,84.451L102.455,84.478L102.428,84.488L102.302,84.488L102.275,84.478L102.266,84.451L102.266,84.345L102.26,84.334L102.249,84.339L102.182,84.411L102.101,84.463L102.001,84.496L101.879,84.507L101.749,84.493L101.631,84.453L101.561,84.41L101.501,84.358L101.452,84.294L101.416,84.223L101.394,84.14L101.386,84.045L101.386,83.107L101.395,83.08L101.423,83.071L101.549,83.071L101.576,83.08L101.585,83.107L101.585,83.986L101.596,84.089L101.626,84.172L101.675,84.24L101.74,84.291L101.82,84.322L101.918,84.334L102.021,84.322L102.104,84.29L102.172,84.238L102.223,84.17L102.254,84.087L102.266,83.986L102.266,83.107Z"/>
        <path d="M103.555,83.057L103.657,83.082L103.743,83.121L103.815,83.174L103.894,83.266L103.954,83.383L103.993,83.53L104.005,83.632L104.01,83.81L104.001,83.837L103.974,83.846L103.078,83.846L103.067,83.85L103.063,83.86L103.069,83.991L103.08,84.065L103.109,84.144L103.152,84.21L103.21,84.265L103.28,84.305L103.363,84.33L103.461,84.339L103.581,84.323L103.678,84.282L103.759,84.217L103.82,84.129L103.839,84.11L103.867,84.112L103.948,84.157L103.969,84.18L103.965,84.205L103.913,84.292L103.846,84.365L103.763,84.427L103.671,84.472L103.565,84.5L103.444,84.51L103.316,84.499L103.207,84.468L103.114,84.418L103.033,84.349L102.969,84.263L102.921,84.16L102.893,84.065L102.874,83.939L102.867,83.773L102.87,83.676L103.063,83.676L103.067,83.686L103.078,83.69L103.797,83.69L103.808,83.686L103.811,83.676L103.794,83.496L103.766,83.417L103.725,83.351L103.67,83.296L103.603,83.256L103.526,83.231L103.433,83.222L103.342,83.231L103.267,83.255L103.203,83.293L103.151,83.346L103.112,83.409L103.086,83.485L103.073,83.551L103.063,83.676L102.87,83.676L102.872,83.582L102.893,83.449L102.936,83.334L102.999,83.238L103.084,83.157L103.185,83.098L103.3,83.061L103.433,83.048L103.555,83.057Z"/>
    </g>
    <g transform="matrix(6.568409,0,0,6.568409,218.793752,-312.399833)">
        <path d="M97.272,55.865L97.376,55.894L97.467,55.941L97.546,56.006L97.611,56.086L97.657,56.177L97.686,56.282L97.696,56.404L97.686,56.523L97.657,56.627L97.61,56.717L97.544,56.795L97.463,56.859L97.371,56.905L97.265,56.934L97.142,56.944L96.599,56.944L96.588,56.947L96.585,56.958L96.585,57.781L96.576,57.809L96.548,57.818L96.422,57.818L96.395,57.809L96.386,57.781L96.386,56.042L96.585,56.042L96.585,56.765L96.588,56.775L96.599,56.779L97.128,56.779L97.234,56.767L97.322,56.733L97.397,56.677L97.453,56.603L97.488,56.514L97.5,56.406L97.488,56.297L97.453,56.207L97.397,56.132L97.322,56.075L97.234,56.041L97.128,56.028L96.599,56.028L96.588,56.032L96.585,56.042L96.386,56.042L96.386,55.891L96.395,55.864L96.422,55.855L97.15,55.855L97.272,55.865Z"/>
        <path d="M98.647,56.39L98.761,56.425L98.862,56.482L98.947,56.559L99.013,56.651L99.059,56.762L99.087,56.906L99.098,57.106L99.087,57.311L99.059,57.451L99.011,57.565L98.944,57.659L98.859,57.736L98.758,57.793L98.645,57.828L98.516,57.84L98.383,57.828L98.268,57.793L98.167,57.736L98.081,57.659L98.015,57.565L97.967,57.451L97.939,57.311L97.928,57.109L98.129,57.109L98.136,57.296L98.152,57.392L98.18,57.471L98.222,57.537L98.279,57.592L98.347,57.633L98.425,57.658L98.516,57.666L98.603,57.658L98.678,57.633L98.745,57.592L98.801,57.538L98.844,57.471L98.874,57.392L98.89,57.289L98.896,57.109L98.89,56.922L98.874,56.826L98.846,56.747L98.803,56.681L98.747,56.626L98.679,56.586L98.601,56.561L98.51,56.552L98.423,56.561L98.347,56.586L98.281,56.626L98.224,56.681L98.182,56.747L98.152,56.826L98.136,56.922L98.129,57.109L97.928,57.109L97.928,57.106L97.938,56.904L97.964,56.765L98.012,56.652L98.078,56.559L98.164,56.482L98.265,56.425L98.381,56.391L98.516,56.378L98.647,56.39Z"/>
        <path d="M99.965,57.832L99.814,57.818L99.687,57.781L99.576,57.721L99.499,57.647L99.462,57.588L99.441,57.526L99.433,57.459L99.433,57.434L99.442,57.407L99.47,57.398L99.59,57.398L99.617,57.404L99.626,57.423L99.626,57.448L99.636,57.505L99.667,57.558L99.722,57.609L99.788,57.646L99.868,57.669L99.962,57.678L100.058,57.669L100.135,57.647L100.198,57.612L100.249,57.563L100.278,57.508L100.287,57.445L100.276,57.381L100.243,57.33L100.193,57.291L100.133,57.26L99.94,57.196L99.791,57.149L99.682,57.106L99.589,57.053L99.512,56.982L99.474,56.925L99.45,56.858L99.442,56.779L99.451,56.692L99.477,56.617L99.521,56.552L99.583,56.493L99.683,56.436L99.804,56.4L99.954,56.387L100.102,56.4L100.227,56.437L100.302,56.476L100.363,56.523L100.41,56.576L100.446,56.637L100.468,56.703L100.475,56.773L100.466,56.8L100.439,56.81L100.324,56.81L100.295,56.804L100.287,56.79L100.287,56.773L100.278,56.714L100.248,56.662L100.196,56.614L100.132,56.579L100.052,56.557L99.951,56.549L99.858,56.556L99.782,56.576L99.722,56.607L99.673,56.65L99.645,56.702L99.635,56.765L99.644,56.824L99.671,56.871L99.718,56.91L99.813,56.957L99.977,57.011L100.131,57.058L100.24,57.098L100.334,57.15L100.413,57.221L100.453,57.279L100.477,57.348L100.486,57.431L100.477,57.519L100.451,57.595L100.407,57.663L100.345,57.722L100.245,57.781L100.121,57.818L99.965,57.832Z"/>
        <path d="M101.482,56.529L101.473,56.557L101.446,56.566L101.141,56.566L101.13,56.569L101.127,56.58L101.127,57.398L101.135,57.485L101.156,57.546L101.187,57.587L101.231,57.615L101.292,57.634L101.376,57.641L101.438,57.641L101.465,57.65L101.474,57.678L101.474,57.776L101.465,57.803L101.438,57.815L101.342,57.815L101.21,57.805L101.11,57.779L101.037,57.739L100.995,57.698L100.963,57.64L100.942,57.563L100.933,57.459L100.933,56.58L100.93,56.569L100.919,56.566L100.76,56.566L100.733,56.557L100.724,56.529L100.724,56.437L100.733,56.41L100.76,56.401L100.919,56.401L100.93,56.397L100.933,56.387L100.933,56.073L100.943,56.046L100.97,56.037L101.09,56.037L101.118,56.046L101.127,56.073L101.127,56.387L101.13,56.397L101.141,56.401L101.446,56.401L101.473,56.41L101.482,56.437L101.482,56.529Z"/>
        <path d="M101.745,57.033L101.718,57.024L101.709,56.997L101.709,56.896L101.718,56.869L101.745,56.86L102.557,56.86L102.585,56.869L102.594,56.896L102.594,56.997L102.585,57.024L102.557,57.033L101.745,57.033Z"/>
        <path d="M103.391,57.832L103.239,57.818L103.112,57.781L103.002,57.721L102.924,57.647L102.888,57.588L102.866,57.526L102.859,57.459L102.859,57.434L102.868,57.407L102.895,57.398L103.015,57.398L103.042,57.404L103.052,57.423L103.052,57.448L103.062,57.505L103.092,57.558L103.147,57.609L103.213,57.646L103.293,57.669L103.388,57.678L103.483,57.669L103.56,57.647L103.623,57.612L103.674,57.563L103.703,57.508L103.713,57.445L103.701,57.381L103.668,57.33L103.619,57.291L103.558,57.26L103.365,57.196L103.216,57.149L103.108,57.106L103.014,57.053L102.937,56.982L102.899,56.925L102.875,56.858L102.867,56.779L102.876,56.692L102.902,56.617L102.946,56.552L103.008,56.493L103.108,56.436L103.23,56.4L103.379,56.387L103.528,56.4L103.652,56.437L103.728,56.476L103.788,56.523L103.836,56.576L103.872,56.637L103.893,56.703L103.9,56.773L103.891,56.8L103.864,56.81L103.749,56.81L103.72,56.804L103.713,56.79L103.713,56.773L103.703,56.714L103.674,56.662L103.622,56.614L103.558,56.579L103.478,56.557L103.377,56.549L103.283,56.556L103.207,56.576L103.147,56.607L103.098,56.65L103.07,56.702L103.06,56.765L103.07,56.824L103.096,56.871L103.143,56.91L103.238,56.957L103.402,57.011L103.556,57.058L103.665,57.098L103.759,57.15L103.839,57.221L103.878,57.279L103.903,57.348L103.911,57.431L103.902,57.519L103.876,57.595L103.832,57.663L103.77,57.722L103.67,57.781L103.546,57.818L103.391,57.832Z"/>
        <path d="M104.862,56.381L104.971,56.39L105.065,56.416L105.146,56.456L105.216,56.513L105.273,56.582L105.314,56.663L105.34,56.756L105.349,56.865L105.349,57.781L105.34,57.809L105.313,57.818L105.187,57.818L105.159,57.809L105.15,57.781L105.15,56.905L105.139,56.804L105.108,56.721L105.058,56.651L104.991,56.598L104.912,56.566L104.817,56.555L104.725,56.564L104.647,56.592L104.581,56.636L104.527,56.695L104.491,56.765L104.473,56.849L104.473,57.781L104.464,57.809L104.436,57.818L104.31,57.818L104.283,57.809L104.274,57.781L104.274,55.894L104.283,55.867L104.31,55.858L104.436,55.858L104.464,55.867L104.473,55.894L104.473,56.541L104.478,56.553L104.487,56.549L104.555,56.477L104.637,56.425L104.738,56.393L104.862,56.381Z"/>
        <path d="M106.639,56.437L106.648,56.41L106.676,56.401L106.802,56.401L106.829,56.41L106.838,56.437L106.838,57.781L106.829,57.809L106.802,57.818L106.676,57.818L106.648,57.809L106.639,57.781L106.639,57.675L106.634,57.664L106.622,57.669L106.556,57.741L106.475,57.793L106.375,57.825L106.253,57.837L106.123,57.823L106.005,57.782L105.934,57.74L105.875,57.688L105.826,57.624L105.79,57.553L105.768,57.47L105.76,57.375L105.76,56.437L105.769,56.41L105.796,56.401L105.922,56.401L105.95,56.41L105.959,56.437L105.959,57.316L105.97,57.419L106,57.502L106.048,57.57L106.114,57.621L106.193,57.652L106.292,57.664L106.394,57.652L106.478,57.62L106.545,57.568L106.597,57.5L106.628,57.417L106.639,57.316L106.639,56.437Z"/>
        <path d="M107.919,56.529L107.909,56.557L107.882,56.566L107.577,56.566L107.567,56.569L107.563,56.58L107.563,57.398L107.571,57.485L107.592,57.546L107.623,57.587L107.667,57.615L107.728,57.634L107.812,57.641L107.874,57.641L107.901,57.65L107.91,57.678L107.91,57.776L107.901,57.803L107.874,57.815L107.779,57.815L107.646,57.805L107.547,57.779L107.473,57.739L107.431,57.698L107.399,57.64L107.378,57.563L107.37,57.459L107.37,56.58L107.366,56.569L107.356,56.566L107.196,56.566L107.169,56.557L107.16,56.529L107.16,56.437L107.169,56.41L107.196,56.401L107.356,56.401L107.366,56.397L107.37,56.387L107.37,56.073L107.379,56.046L107.406,56.037L107.527,56.037L107.554,56.046L107.563,56.073L107.563,56.387L107.567,56.397L107.577,56.401L107.882,56.401L107.909,56.41L107.919,56.437L107.919,56.529Z"/>
        <path d="M108.937,56.529L108.927,56.557L108.9,56.566L108.595,56.566L108.585,56.569L108.581,56.58L108.581,57.398L108.589,57.485L108.61,57.546L108.641,57.587L108.685,57.615L108.746,57.634L108.83,57.641L108.892,57.641L108.919,57.65L108.928,57.678L108.928,57.776L108.919,57.803L108.892,57.815L108.797,57.815L108.664,57.805L108.565,57.779L108.491,57.739L108.449,57.698L108.417,57.64L108.396,57.563L108.388,57.459L108.388,56.58L108.384,56.569L108.374,56.566L108.214,56.566L108.187,56.557L108.178,56.529L108.178,56.437L108.187,56.41L108.214,56.401L108.374,56.401L108.384,56.397L108.388,56.387L108.388,56.073L108.397,56.046L108.424,56.037L108.545,56.037L108.572,56.046L108.581,56.073L108.581,56.387L108.585,56.397L108.595,56.401L108.9,56.401L108.927,56.41L108.937,56.437L108.937,56.529Z"/>
        <path d="M109.923,56.387L110.025,56.412L110.111,56.451L110.184,56.504L110.263,56.596L110.322,56.713L110.362,56.86L110.373,56.962L110.378,57.14L110.369,57.167L110.342,57.176L109.446,57.176L109.436,57.18L109.432,57.19L109.437,57.321L109.449,57.395L109.477,57.474L109.52,57.54L109.579,57.595L109.649,57.635L109.731,57.66L109.83,57.669L109.949,57.653L110.047,57.612L110.127,57.547L110.188,57.459L110.208,57.44L110.236,57.442L110.317,57.487L110.338,57.51L110.334,57.535L110.281,57.622L110.215,57.696L110.132,57.757L110.039,57.802L109.934,57.83L109.813,57.84L109.685,57.829L109.576,57.798L109.482,57.748L109.402,57.678L109.338,57.593L109.289,57.49L109.262,57.395L109.243,57.269L109.236,57.103L109.238,57.006L109.432,57.006L109.436,57.016L109.446,57.02L110.166,57.02L110.176,57.016L110.18,57.006L110.163,56.826L110.135,56.747L110.093,56.681L110.038,56.626L109.972,56.586L109.894,56.561L109.802,56.552L109.711,56.561L109.635,56.585L109.572,56.623L109.519,56.676L109.481,56.739L109.454,56.815L109.442,56.881L109.432,57.006L109.238,57.006L109.24,56.912L109.261,56.779L109.304,56.664L109.368,56.568L109.453,56.487L109.554,56.428L109.669,56.391L109.802,56.378L109.923,56.387Z"/>
        <path d="M111.344,56.387L111.431,56.396L111.498,56.42L111.517,56.437L111.518,56.465L111.49,56.588L111.475,56.611L111.445,56.611L111.388,56.599L111.308,56.597L111.215,56.611L111.136,56.647L111.067,56.705L111.014,56.778L110.983,56.863L110.972,56.964L110.972,57.781L110.963,57.809L110.935,57.818L110.809,57.818L110.782,57.809L110.773,57.781L110.773,56.437L110.782,56.41L110.809,56.401L110.935,56.401L110.963,56.41L110.972,56.437L110.972,56.594L110.976,56.607L110.986,56.599L111.053,56.509L111.135,56.443L111.232,56.401L111.344,56.387Z"/>
        <path d="M113.41,55.867L113.419,55.894L113.419,57.781L113.41,57.809L113.383,57.818L113.257,57.818L113.23,57.809L113.22,57.781L113.22,57.675L113.215,57.665L113.204,57.669L113.135,57.741L113.051,57.795L112.956,57.828L112.848,57.84L112.721,57.828L112.612,57.794L112.519,57.739L112.44,57.665L112.379,57.574L112.336,57.465L112.308,57.326L112.296,57.109L112.495,57.109L112.506,57.315L112.522,57.386L112.546,57.448L112.574,57.511L112.613,57.564L112.665,57.608L112.724,57.64L112.791,57.66L112.868,57.666L112.94,57.659L113.002,57.64L113.055,57.608L113.12,57.54L113.167,57.451L113.188,57.392L113.204,57.319L113.215,57.109L113.204,56.898L113.188,56.824L113.164,56.762L113.12,56.676L113.054,56.609L113,56.578L112.939,56.559L112.87,56.552L112.765,56.566L112.677,56.608L112.607,56.673L112.56,56.756L112.531,56.821L112.51,56.895L112.5,56.98L112.495,57.109L112.296,57.109L112.306,56.892L112.33,56.762L112.374,56.649L112.435,56.556L112.515,56.481L112.609,56.425L112.719,56.39L112.848,56.378L112.954,56.389L113.05,56.422L113.134,56.475L113.204,56.546L113.215,56.552L113.22,56.541L113.22,55.894L113.23,55.867L113.257,55.858L113.383,55.858L113.41,55.867Z"/>
        <path d="M114.511,56.387L114.613,56.412L114.699,56.451L114.772,56.504L114.851,56.596L114.91,56.713L114.949,56.86L114.961,56.962L114.966,57.14L114.957,57.167L114.93,57.176L114.034,57.176L114.023,57.18L114.02,57.19L114.025,57.321L114.037,57.395L114.065,57.474L114.108,57.54L114.167,57.595L114.237,57.635L114.319,57.66L114.418,57.669L114.537,57.653L114.635,57.612L114.715,57.547L114.776,57.459L114.795,57.44L114.823,57.442L114.905,57.487L114.926,57.51L114.921,57.535L114.869,57.622L114.802,57.696L114.72,57.757L114.627,57.802L114.522,57.83L114.401,57.84L114.273,57.829L114.164,57.798L114.07,57.748L113.99,57.678L113.925,57.593L113.877,57.49L113.85,57.395L113.831,57.269L113.824,57.103L113.826,57.006L114.02,57.006L114.023,57.016L114.034,57.02L114.753,57.02L114.764,57.016L114.767,57.006L114.751,56.826L114.722,56.747L114.681,56.681L114.626,56.626L114.56,56.586L114.482,56.561L114.389,56.552L114.299,56.561L114.223,56.585L114.16,56.623L114.107,56.676L114.068,56.739L114.042,56.815L114.029,56.881L114.02,57.006L113.826,57.006L113.828,56.912L113.849,56.779L113.892,56.664L113.956,56.568L114.041,56.487L114.142,56.428L114.257,56.391L114.389,56.378L114.511,56.387Z"/>
        <path d="M115.397,57.818L115.37,57.809L115.361,57.781L115.361,55.894L115.37,55.867L115.397,55.858L115.523,55.858L115.55,55.867L115.559,55.894L115.559,57.781L115.55,57.809L115.523,57.818L115.397,57.818Z"/>
        <path d="M116.626,56.388L116.73,56.413L116.817,56.453L116.89,56.507L116.95,56.576L116.993,56.654L117.019,56.744L117.028,56.849L117.028,57.781L117.019,57.809L116.992,57.818L116.866,57.818L116.839,57.809L116.83,57.781L116.83,57.68L116.824,57.669L116.813,57.675L116.729,57.745L116.624,57.798L116.507,57.829L116.376,57.84L116.249,57.828L116.14,57.794L116.047,57.739L115.99,57.684L115.949,57.616L115.924,57.533L115.914,57.431L115.915,57.42L116.113,57.42L116.123,57.498L116.152,57.558L116.2,57.606L116.26,57.64L116.333,57.662L116.421,57.669L116.528,57.66L116.623,57.632L116.708,57.587L116.776,57.524L116.816,57.451L116.83,57.364L116.83,57.148L116.826,57.138L116.816,57.134L116.522,57.134L116.4,57.144L116.303,57.17L116.225,57.21L116.162,57.268L116.126,57.336L116.113,57.42L115.915,57.42L115.924,57.329L115.953,57.242L116,57.166L116.067,57.099L116.145,57.049L116.24,57.011L116.354,56.986L116.491,56.978L116.816,56.978L116.826,56.974L116.83,56.964L116.83,56.86L116.82,56.768L116.793,56.694L116.75,56.635L116.691,56.591L116.611,56.563L116.502,56.552L116.378,56.566L116.287,56.602L116.237,56.641L116.202,56.687L116.18,56.742L116.165,56.766L116.138,56.77L116.001,56.754L115.973,56.742L115.967,56.723L115.998,56.628L116.055,56.545L116.139,56.474L116.24,56.422L116.358,56.39L116.499,56.378L116.626,56.388Z"/>
        <path d="M117.358,58.378L117.344,58.37L117.338,58.341L117.338,58.243L117.344,58.214L117.358,58.207L117.377,58.207L117.48,58.198L117.547,58.176L117.601,58.135L117.65,58.067L117.692,57.977L117.744,57.826L117.744,57.809L117.274,56.443L117.271,56.429L117.281,56.409L117.304,56.401L117.436,56.401L117.463,56.408L117.478,56.432L117.839,57.529L117.848,57.54L117.856,57.529L118.209,56.432L118.223,56.408L118.248,56.401L118.382,56.401L118.41,56.412L118.413,56.443L117.898,57.941L117.828,58.115L117.772,58.218L117.705,58.295L117.625,58.343L117.527,58.368L117.377,58.378L117.358,58.378Z"/>
    </g>
    <g transform="matrix(6.568409,0,0,6.568409,218.793752,-312.399833)">
        <path d="M69.877,52.76L69.742,52.752L69.624,52.73L69.52,52.696L69.424,52.645L69.346,52.584L69.285,52.512L69.239,52.429L69.212,52.338L69.202,52.236L69.202,52.158L69.211,52.131L69.239,52.122L69.359,52.122L69.386,52.131L69.395,52.158L69.395,52.225L69.404,52.301L69.428,52.369L69.47,52.43L69.53,52.486L69.624,52.539L69.743,52.574L69.891,52.586L70.032,52.575L70.139,52.543L70.219,52.495L70.281,52.428L70.318,52.349L70.331,52.253L70.317,52.161L70.279,52.085L70.217,52.02L70.12,51.954L70.001,51.892L69.815,51.811L69.618,51.727L69.489,51.664L69.383,51.591L69.302,51.501L69.263,51.432L69.239,51.349L69.23,51.251L69.241,51.136L69.272,51.039L69.323,50.956L69.394,50.885L69.478,50.831L69.579,50.791L69.701,50.764L69.846,50.755L70.001,50.765L70.131,50.794L70.241,50.84L70.333,50.901L70.412,50.98L70.467,51.069L70.501,51.17L70.512,51.287L70.512,51.34L70.503,51.368L70.476,51.377L70.353,51.377L70.326,51.368L70.316,51.34L70.316,51.298L70.302,51.196L70.261,51.109L70.19,51.032L70.101,50.977L69.985,50.942L69.835,50.929L69.704,50.939L69.606,50.967L69.531,51.01L69.474,51.071L69.439,51.148L69.426,51.245L69.44,51.339L69.478,51.412L69.538,51.471L69.626,51.527L69.922,51.654L70.115,51.739L70.252,51.811L70.367,51.893L70.454,51.989L70.495,52.062L70.52,52.146L70.529,52.245L70.518,52.358L70.486,52.456L70.433,52.542L70.357,52.619L70.268,52.678L70.161,52.721L70.032,52.75L69.877,52.76Z"/>
        <path d="M71.494,51.301L71.603,51.31L71.697,51.336L71.778,51.376L71.848,51.433L71.905,51.502L71.946,51.583L71.972,51.676L71.981,51.785L71.981,52.701L71.972,52.728L71.945,52.738L71.819,52.738L71.791,52.728L71.782,52.701L71.782,51.825L71.771,51.724L71.74,51.641L71.69,51.571L71.623,51.518L71.544,51.486L71.449,51.475L71.357,51.484L71.279,51.511L71.212,51.556L71.159,51.615L71.123,51.685L71.105,51.769L71.105,52.701L71.096,52.728L71.068,52.738L70.942,52.738L70.915,52.728L70.906,52.701L70.906,50.814L70.915,50.787L70.942,50.778L71.068,50.778L71.096,50.787L71.105,50.814L71.105,51.461L71.11,51.473L71.119,51.469L71.186,51.397L71.269,51.345L71.37,51.313L71.494,51.301Z"/>
        <path d="M73.271,51.357L73.28,51.33L73.307,51.321L73.433,51.321L73.461,51.33L73.47,51.357L73.47,52.701L73.461,52.728L73.433,52.738L73.307,52.738L73.28,52.728L73.271,52.701L73.271,52.595L73.265,52.584L73.254,52.589L73.188,52.661L73.106,52.713L73.007,52.745L72.885,52.757L72.754,52.743L72.637,52.703L72.566,52.66L72.507,52.608L72.458,52.544L72.422,52.473L72.4,52.39L72.392,52.295L72.392,51.357L72.401,51.33L72.428,51.321L72.554,51.321L72.582,51.33L72.591,51.357L72.591,52.236L72.602,52.339L72.632,52.422L72.68,52.49L72.745,52.541L72.825,52.572L72.924,52.584L73.026,52.572L73.109,52.54L73.177,52.488L73.228,52.42L73.26,52.337L73.271,52.236L73.271,51.357Z"/>
        <path d="M74.55,51.45L74.541,51.477L74.514,51.486L74.209,51.486L74.198,51.489L74.195,51.5L74.195,52.318L74.203,52.405L74.224,52.466L74.255,52.507L74.299,52.535L74.36,52.554L74.444,52.561L74.506,52.561L74.533,52.57L74.542,52.598L74.542,52.696L74.533,52.724L74.506,52.735L74.41,52.735L74.278,52.725L74.178,52.699L74.105,52.659L74.063,52.618L74.031,52.56L74.01,52.483L74.002,52.379L74.002,51.5L73.998,51.489L73.988,51.486L73.828,51.486L73.801,51.477L73.792,51.45L73.792,51.357L73.801,51.33L73.828,51.321L73.988,51.321L73.998,51.317L74.002,51.307L74.002,50.993L74.011,50.966L74.038,50.957L74.159,50.957L74.186,50.966L74.195,50.993L74.195,51.307L74.198,51.317L74.209,51.321L74.514,51.321L74.541,51.33L74.55,51.357L74.55,51.45Z"/>
        <path d="M75.569,51.45L75.559,51.477L75.532,51.486L75.227,51.486L75.216,51.489L75.213,51.5L75.213,52.318L75.221,52.405L75.242,52.466L75.273,52.507L75.317,52.535L75.378,52.554L75.462,52.561L75.524,52.561L75.551,52.57L75.56,52.598L75.56,52.696L75.551,52.724L75.524,52.735L75.428,52.735L75.296,52.725L75.196,52.699L75.123,52.659L75.081,52.618L75.049,52.56L75.028,52.483L75.02,52.379L75.02,51.5L75.016,51.489L75.006,51.486L74.846,51.486L74.819,51.477L74.81,51.45L74.81,51.357L74.819,51.33L74.846,51.321L75.006,51.321L75.016,51.317L75.02,51.307L75.02,50.993L75.029,50.966L75.056,50.957L75.177,50.957L75.204,50.966L75.213,50.993L75.213,51.307L75.216,51.317L75.227,51.321L75.532,51.321L75.559,51.33L75.569,51.357L75.569,51.45Z"/>
        <path d="M76.555,51.307L76.657,51.332L76.743,51.371L76.816,51.424L76.895,51.516L76.954,51.633L76.993,51.78L77.005,51.882L77.01,52.06L77.001,52.087L76.974,52.096L76.078,52.096L76.067,52.1L76.064,52.11L76.069,52.241L76.081,52.315L76.109,52.394L76.152,52.46L76.211,52.515L76.281,52.555L76.363,52.58L76.461,52.589L76.581,52.573L76.678,52.532L76.759,52.467L76.82,52.379L76.839,52.36L76.868,52.362L76.949,52.407L76.97,52.429L76.965,52.455L76.913,52.542L76.846,52.615L76.764,52.677L76.671,52.722L76.566,52.75L76.445,52.76L76.317,52.749L76.208,52.718L76.114,52.668L76.034,52.599L75.969,52.513L75.921,52.41L75.894,52.315L75.875,52.188L75.868,52.023L75.87,51.926L76.064,51.926L76.067,51.936L76.078,51.94L76.797,51.94L76.808,51.936L76.811,51.926L76.795,51.746L76.766,51.667L76.725,51.601L76.67,51.546L76.604,51.506L76.526,51.481L76.433,51.472L76.343,51.481L76.267,51.505L76.204,51.543L76.151,51.596L76.112,51.659L76.086,51.735L76.073,51.801L76.064,51.926L75.87,51.926L75.872,51.832L75.893,51.699L75.936,51.584L76,51.488L76.085,51.407L76.186,51.348L76.301,51.311L76.433,51.298L76.555,51.307Z"/>
        <path d="M77.976,51.307L78.063,51.316L78.13,51.34L78.148,51.357L78.149,51.385L78.121,51.508L78.106,51.531L78.077,51.531L78.019,51.519L77.939,51.517L77.847,51.532L77.767,51.567L77.698,51.624L77.646,51.698L77.615,51.783L77.603,51.884L77.603,52.701L77.594,52.728L77.567,52.738L77.441,52.738L77.414,52.728L77.405,52.701L77.405,51.357L77.414,51.33L77.441,51.321L77.567,51.321L77.594,51.33L77.603,51.357L77.603,51.514L77.608,51.527L77.618,51.52L77.685,51.429L77.767,51.363L77.864,51.321L77.976,51.307Z"/>
        <path d="M79.697,51.31L79.805,51.344L79.898,51.399L79.977,51.474L80.038,51.564L80.082,51.673L80.11,51.813L80.121,52.029L80.111,52.247L80.088,52.376L80.043,52.489L79.982,52.582L79.903,52.658L79.808,52.713L79.699,52.748L79.569,52.76L79.464,52.749L79.368,52.717L79.283,52.664L79.214,52.592L79.203,52.586L79.197,52.598L79.197,53.244L79.188,53.272L79.161,53.281L79.035,53.281L79.007,53.272L78.998,53.244L78.998,52.029L79.203,52.029L79.214,52.241L79.23,52.315L79.253,52.376L79.298,52.463L79.364,52.529L79.417,52.56L79.478,52.58L79.547,52.586L79.653,52.572L79.74,52.53L79.81,52.465L79.858,52.382L79.887,52.318L79.907,52.243L79.918,52.159L79.922,52.029L79.911,51.823L79.895,51.752L79.872,51.69L79.843,51.627L79.804,51.575L79.753,51.531L79.694,51.499L79.626,51.479L79.55,51.472L79.477,51.479L79.415,51.499L79.362,51.531L79.297,51.599L79.25,51.688L79.229,51.747L79.214,51.819L79.203,52.029L78.998,52.029L78.998,51.357L79.007,51.33L79.035,51.321L79.161,51.321L79.188,51.33L79.197,51.357L79.197,51.464L79.203,51.473L79.214,51.469L79.283,51.397L79.367,51.343L79.462,51.31L79.569,51.298L79.697,51.31Z"/>
        <path d="M81.372,51.357L81.381,51.33L81.409,51.321L81.534,51.321L81.562,51.33L81.571,51.357L81.571,52.701L81.562,52.728L81.534,52.738L81.409,52.738L81.381,52.728L81.372,52.701L81.372,52.595L81.367,52.584L81.355,52.589L81.289,52.661L81.207,52.713L81.108,52.745L80.986,52.757L80.856,52.743L80.738,52.703L80.667,52.66L80.608,52.608L80.559,52.544L80.523,52.473L80.501,52.39L80.493,52.295L80.493,51.357L80.502,51.33L80.529,51.321L80.655,51.321L80.683,51.33L80.692,51.357L80.692,52.236L80.703,52.339L80.733,52.422L80.781,52.49L80.846,52.541L80.926,52.572L81.025,52.584L81.127,52.572L81.21,52.54L81.278,52.488L81.329,52.42L81.361,52.337L81.372,52.236L81.372,51.357Z"/>
        <path d="M82.052,52.738L82.025,52.728L82.016,52.701L82.016,50.814L82.025,50.787L82.052,50.778L82.178,50.778L82.206,50.787L82.215,50.814L82.215,52.701L82.206,52.728L82.178,52.738L82.052,52.738Z"/>
        <path d="M83.129,52.752L82.978,52.738L82.851,52.701L82.741,52.641L82.663,52.567L82.626,52.508L82.605,52.446L82.597,52.379L82.597,52.354L82.606,52.327L82.634,52.318L82.754,52.318L82.781,52.325L82.791,52.343L82.791,52.368L82.8,52.425L82.831,52.478L82.886,52.529L82.952,52.566L83.032,52.589L83.127,52.598L83.222,52.59L83.299,52.567L83.362,52.532L83.413,52.483L83.442,52.428L83.451,52.365L83.44,52.301L83.407,52.25L83.358,52.211L83.297,52.18L83.104,52.116L82.955,52.069L82.847,52.026L82.753,51.972L82.676,51.902L82.638,51.845L82.614,51.778L82.606,51.699L82.615,51.612L82.641,51.538L82.685,51.472L82.747,51.413L82.847,51.356L82.969,51.32L83.118,51.307L83.266,51.32L83.391,51.357L83.466,51.396L83.527,51.443L83.575,51.496L83.611,51.557L83.632,51.623L83.639,51.693L83.63,51.721L83.603,51.73L83.488,51.73L83.459,51.724L83.451,51.71L83.451,51.693L83.442,51.634L83.412,51.582L83.361,51.534L83.297,51.499L83.216,51.477L83.115,51.469L83.022,51.476L82.946,51.496L82.886,51.527L82.837,51.57L82.809,51.622L82.799,51.685L82.808,51.744L82.835,51.791L82.882,51.83L82.977,51.877L83.141,51.931L83.295,51.978L83.404,52.018L83.498,52.07L83.578,52.141L83.617,52.199L83.642,52.268L83.65,52.351L83.641,52.439L83.615,52.515L83.571,52.583L83.509,52.642L83.409,52.701L83.285,52.738L83.129,52.752Z"/>
        <path d="M84.658,51.307L84.76,51.332L84.846,51.371L84.919,51.424L84.998,51.516L85.057,51.633L85.096,51.78L85.108,51.882L85.113,52.06L85.104,52.087L85.077,52.096L84.181,52.096L84.17,52.1L84.167,52.11L84.172,52.241L84.184,52.315L84.212,52.394L84.255,52.46L84.314,52.515L84.384,52.555L84.466,52.58L84.564,52.589L84.684,52.573L84.781,52.532L84.862,52.467L84.923,52.379L84.942,52.36L84.971,52.362L85.052,52.407L85.073,52.429L85.068,52.455L85.016,52.542L84.949,52.615L84.867,52.677L84.774,52.722L84.668,52.75L84.548,52.76L84.42,52.749L84.311,52.718L84.217,52.668L84.137,52.599L84.073,52.513L84.024,52.41L83.997,52.315L83.978,52.188L83.971,52.023L83.973,51.926L84.167,51.926L84.17,51.936L84.181,51.94L84.9,51.94L84.911,51.936L84.914,51.926L84.898,51.746L84.87,51.667L84.828,51.601L84.773,51.546L84.707,51.506L84.629,51.481L84.537,51.472L84.446,51.481L84.37,51.505L84.307,51.543L84.254,51.596L84.215,51.659L84.189,51.735L84.177,51.801L84.167,51.926L83.973,51.926L83.975,51.832L83.996,51.699L84.039,51.584L84.103,51.488L84.188,51.407L84.289,51.348L84.404,51.311L84.537,51.298L84.658,51.307Z"/>
        <path d="M86.103,52.738L86.076,52.728L86.066,52.701L86.066,50.814L86.076,50.787L86.103,50.778L86.229,50.778L86.256,50.787L86.265,50.814L86.265,52.701L86.256,52.728L86.229,52.738L86.103,52.738Z"/>
        <path d="M87.361,51.307L87.463,51.332L87.549,51.371L87.621,51.424L87.7,51.516L87.76,51.633L87.799,51.78L87.811,51.882L87.816,52.06L87.806,52.087L87.779,52.096L86.883,52.096L86.873,52.1L86.869,52.11L86.874,52.241L86.886,52.315L86.915,52.394L86.958,52.46L87.016,52.515L87.086,52.555L87.168,52.58L87.267,52.589L87.386,52.573L87.484,52.532L87.564,52.467L87.625,52.379L87.645,52.36L87.673,52.362L87.754,52.407L87.775,52.429L87.771,52.455L87.719,52.542L87.652,52.615L87.569,52.677L87.476,52.722L87.371,52.75L87.25,52.76L87.122,52.749L87.013,52.718L86.92,52.668L86.839,52.599L86.775,52.513L86.726,52.41L86.699,52.315L86.68,52.188L86.673,52.023L86.675,51.926L86.869,51.926L86.873,51.936L86.883,51.94L87.603,51.94L87.613,51.936L87.617,51.926L87.6,51.746L87.572,51.667L87.53,51.601L87.475,51.546L87.409,51.506L87.331,51.481L87.239,51.472L87.148,51.481L87.072,51.505L87.009,51.543L86.957,51.596L86.918,51.659L86.892,51.735L86.879,51.801L86.869,51.926L86.675,51.926L86.677,51.832L86.698,51.699L86.741,51.584L86.805,51.488L86.89,51.407L86.991,51.348L87.106,51.311L87.239,51.298L87.361,51.307Z"/>
        <path d="M88.798,51.301L88.907,51.31L89.001,51.336L89.082,51.376L89.152,51.433L89.209,51.502L89.25,51.583L89.276,51.676L89.285,51.785L89.285,52.701L89.276,52.728L89.249,52.738L89.123,52.738L89.096,52.728L89.086,52.701L89.086,51.825L89.075,51.724L89.044,51.641L88.994,51.571L88.927,51.518L88.848,51.486L88.753,51.475L88.661,51.484L88.583,51.511L88.516,51.556L88.463,51.615L88.427,51.685L88.409,51.769L88.409,52.701L88.4,52.728L88.372,52.738L88.246,52.738L88.219,52.728L88.21,52.701L88.21,51.357L88.219,51.33L88.246,51.321L88.372,51.321L88.4,51.33L88.409,51.357L88.409,51.461L88.414,51.473L88.423,51.469L88.491,51.397L88.573,51.345L88.674,51.313L88.798,51.301Z"/>
        <path d="M90.32,51.309L90.42,51.34L90.504,51.389L90.575,51.458L90.586,51.464L90.592,51.452L90.592,51.357L90.601,51.33L90.628,51.321L90.754,51.321L90.782,51.33L90.791,51.357L90.791,52.69L90.778,52.846L90.742,52.971L90.685,53.07L90.609,53.149L90.515,53.21L90.403,53.255L90.271,53.285L90.113,53.295L90.023,53.292L89.996,53.281L89.987,53.253L89.993,53.141L90.002,53.113L90.029,53.107L90.183,53.106L90.302,53.089L90.391,53.06L90.459,53.02L90.514,52.965L90.556,52.894L90.582,52.802L90.592,52.684L90.592,52.586L90.586,52.575L90.575,52.581L90.505,52.652L90.423,52.703L90.326,52.735L90.211,52.746L90.093,52.735L89.986,52.702L89.888,52.648L89.805,52.574L89.742,52.483L89.699,52.371L89.675,52.242L89.665,52.029L89.665,52.023L89.864,52.023L89.873,52.212L89.892,52.306L89.918,52.38L89.958,52.445L90.014,52.501L90.08,52.543L90.155,52.569L90.242,52.578L90.331,52.569L90.405,52.544L90.467,52.502L90.519,52.447L90.555,52.383L90.578,52.309L90.589,52.206L90.592,52.026L90.589,51.835L90.575,51.744L90.553,51.669L90.516,51.605L90.465,51.549L90.402,51.507L90.329,51.481L90.242,51.472L90.157,51.481L90.084,51.506L90.019,51.548L89.965,51.602L89.923,51.667L89.892,51.744L89.872,51.846L89.864,52.023L89.665,52.023L89.672,51.822L89.683,51.74L89.702,51.671L89.745,51.565L89.805,51.476L89.884,51.401L89.976,51.344L90.08,51.31L90.2,51.298L90.32,51.309Z"/>
        <path d="M91.851,51.45L91.842,51.477L91.814,51.486L91.509,51.486L91.499,51.489L91.495,51.5L91.495,52.318L91.503,52.405L91.524,52.466L91.555,52.507L91.599,52.535L91.66,52.554L91.744,52.561L91.806,52.561L91.833,52.57L91.842,52.598L91.842,52.696L91.833,52.724L91.806,52.735L91.711,52.735L91.578,52.725L91.479,52.699L91.405,52.659L91.363,52.618L91.331,52.56L91.31,52.483L91.302,52.379L91.302,51.5L91.298,51.489L91.288,51.486L91.128,51.486L91.101,51.477L91.092,51.45L91.092,51.357L91.101,51.33L91.128,51.321L91.288,51.321L91.298,51.317L91.302,51.307L91.302,50.993L91.311,50.966L91.338,50.957L91.459,50.957L91.486,50.966L91.495,50.993L91.495,51.307L91.499,51.317L91.509,51.321L91.814,51.321L91.842,51.33L91.851,51.357L91.851,51.45Z"/>
        <path d="M92.821,51.301L92.93,51.31L93.024,51.336L93.105,51.376L93.175,51.433L93.232,51.502L93.274,51.583L93.299,51.676L93.308,51.785L93.308,52.701L93.299,52.728L93.272,52.738L93.146,52.738L93.119,52.728L93.109,52.701L93.109,51.825L93.099,51.724L93.067,51.641L93.017,51.571L92.95,51.518L92.871,51.486L92.776,51.475L92.684,51.484L92.606,51.511L92.54,51.556L92.486,51.615L92.451,51.685L92.432,51.769L92.432,52.701L92.423,52.728L92.395,52.738L92.269,52.738L92.242,52.728L92.233,52.701L92.233,50.814L92.242,50.787L92.269,50.778L92.395,50.778L92.423,50.787L92.432,50.814L92.432,51.461L92.438,51.473L92.446,51.469L92.514,51.397L92.597,51.345L92.697,51.313L92.821,51.301Z"/>
    </g>
    <g transform="matrix(6.568409,0,0,6.568409,218.793752,-312.399833)">
        <path d="M80.511,83.059L80.611,83.09L80.695,83.139L80.766,83.208L80.778,83.214L80.783,83.202L80.783,83.107L80.792,83.08L80.82,83.071L80.945,83.071L80.973,83.08L80.982,83.107L80.982,84.44L80.969,84.596L80.933,84.721L80.876,84.82L80.8,84.899L80.706,84.96L80.594,85.005L80.462,85.034L80.304,85.045L80.215,85.042L80.187,85.031L80.178,85.003L80.184,84.891L80.193,84.863L80.22,84.857L80.374,84.856L80.493,84.839L80.583,84.81L80.65,84.77L80.706,84.715L80.747,84.644L80.773,84.552L80.783,84.434L80.783,84.336L80.778,84.325L80.766,84.331L80.696,84.402L80.614,84.453L80.517,84.485L80.402,84.496L80.284,84.485L80.177,84.452L80.079,84.398L79.996,84.324L79.933,84.233L79.89,84.121L79.866,83.992L79.856,83.779L79.856,83.773L80.055,83.773L80.064,83.962L80.083,84.056L80.109,84.13L80.149,84.195L80.205,84.251L80.271,84.293L80.346,84.319L80.433,84.328L80.522,84.319L80.596,84.293L80.658,84.252L80.71,84.197L80.746,84.133L80.769,84.059L80.78,83.956L80.783,83.776L80.78,83.585L80.766,83.494L80.744,83.419L80.707,83.355L80.656,83.299L80.593,83.257L80.52,83.231L80.433,83.222L80.348,83.231L80.275,83.256L80.21,83.298L80.156,83.353L80.114,83.417L80.083,83.494L80.063,83.596L80.055,83.773L79.856,83.773L79.863,83.572L79.874,83.49L79.893,83.421L79.936,83.315L79.996,83.226L80.075,83.151L80.167,83.094L80.271,83.06L80.391,83.048L80.511,83.059Z"/>
        <path d="M81.977,83.057L82.065,83.066L82.131,83.09L82.15,83.107L82.151,83.135L82.123,83.258L82.108,83.281L82.078,83.281L82.021,83.269L81.941,83.267L81.848,83.281L81.769,83.317L81.7,83.374L81.648,83.448L81.616,83.533L81.605,83.634L81.605,84.451L81.596,84.478L81.569,84.488L81.442,84.488L81.415,84.478L81.406,84.451L81.406,83.107L81.415,83.08L81.442,83.071L81.569,83.071L81.596,83.08L81.605,83.107L81.605,83.264L81.609,83.277L81.619,83.269L81.687,83.179L81.769,83.113L81.865,83.071L81.977,83.057Z"/>
        <path d="M83.056,83.057L83.158,83.082L83.244,83.121L83.316,83.174L83.395,83.266L83.455,83.383L83.494,83.53L83.506,83.632L83.511,83.81L83.502,83.837L83.475,83.846L82.579,83.846L82.568,83.85L82.564,83.86L82.57,83.991L82.581,84.065L82.61,84.144L82.653,84.21L82.712,84.265L82.781,84.305L82.864,84.33L82.962,84.339L83.082,84.323L83.179,84.282L83.26,84.217L83.32,84.129L83.34,84.11L83.368,84.112L83.449,84.157L83.471,84.18L83.466,84.205L83.414,84.292L83.347,84.365L83.264,84.427L83.172,84.472L83.066,84.5L82.945,84.51L82.817,84.499L82.709,84.468L82.615,84.418L82.534,84.349L82.47,84.263L82.422,84.16L82.394,84.065L82.376,83.939L82.368,83.773L82.371,83.676L82.564,83.676L82.568,83.686L82.579,83.69L83.298,83.69L83.309,83.686L83.312,83.676L83.295,83.496L83.267,83.417L83.226,83.351L83.171,83.296L83.105,83.256L83.027,83.231L82.934,83.222L82.843,83.231L82.768,83.255L82.704,83.293L82.652,83.346L82.613,83.409L82.587,83.485L82.574,83.551L82.564,83.676L82.371,83.676L82.373,83.582L82.394,83.449L82.437,83.334L82.5,83.238L82.585,83.157L82.686,83.098L82.802,83.061L82.934,83.048L83.056,83.057Z"/>
        <path d="M84.551,83.057L84.653,83.082L84.739,83.121L84.811,83.174L84.89,83.266L84.95,83.383L84.989,83.53L85.001,83.632L85.006,83.81L84.997,83.837L84.969,83.846L84.073,83.846L84.063,83.85L84.059,83.86L84.064,83.991L84.076,84.065L84.105,84.144L84.148,84.21L84.206,84.265L84.276,84.305L84.359,84.33L84.457,84.339L84.576,84.323L84.674,84.282L84.754,84.217L84.815,84.129L84.835,84.11L84.863,84.112L84.944,84.157L84.965,84.18L84.961,84.205L84.909,84.292L84.842,84.365L84.759,84.427L84.666,84.472L84.561,84.5L84.44,84.51L84.312,84.499L84.203,84.468L84.11,84.418L84.029,84.349L83.965,84.263L83.916,84.16L83.889,84.065L83.87,83.939L83.863,83.773L83.865,83.676L84.059,83.676L84.063,83.686L84.073,83.69L84.793,83.69L84.803,83.686L84.807,83.676L84.79,83.496L84.762,83.417L84.721,83.351L84.665,83.296L84.599,83.256L84.522,83.231L84.429,83.222L84.338,83.231L84.262,83.255L84.199,83.293L84.147,83.346L84.108,83.409L84.082,83.485L84.069,83.551L84.059,83.676L83.865,83.676L83.867,83.582L83.888,83.449L83.931,83.334L83.995,83.238L84.08,83.157L84.181,83.098L84.296,83.061L84.429,83.048L84.551,83.057Z"/>
        <path d="M85.988,83.051L86.097,83.06L86.191,83.085L86.272,83.126L86.342,83.183L86.399,83.252L86.441,83.333L86.466,83.426L86.475,83.535L86.475,84.451L86.466,84.478L86.439,84.488L86.313,84.488L86.286,84.478L86.276,84.451L86.276,83.575L86.266,83.474L86.234,83.391L86.184,83.321L86.117,83.268L86.038,83.236L85.943,83.225L85.851,83.234L85.773,83.261L85.707,83.306L85.653,83.365L85.618,83.435L85.599,83.519L85.599,84.451L85.59,84.478L85.562,84.488L85.436,84.488L85.409,84.478L85.4,84.451L85.4,83.107L85.409,83.08L85.436,83.071L85.562,83.071L85.59,83.08L85.599,83.107L85.599,83.211L85.604,83.223L85.613,83.219L85.681,83.147L85.763,83.095L85.864,83.063L85.988,83.051Z"/>
    </g>
    <g transform="matrix(6.568409,0,0,6.568409,218.793752,-312.399833)">
        <path d="M62.288,83.057L62.375,83.066L62.442,83.09L62.46,83.107L62.461,83.135L62.433,83.258L62.418,83.281L62.388,83.281L62.331,83.269L62.251,83.267L62.158,83.281L62.079,83.317L62.01,83.374L61.958,83.448L61.926,83.533L61.915,83.634L61.915,84.451L61.906,84.478L61.879,84.488L61.753,84.488L61.725,84.478L61.716,84.451L61.716,83.107L61.725,83.08L61.753,83.071L61.879,83.071L61.906,83.08L61.915,83.107L61.915,83.264L61.919,83.277L61.929,83.269L61.997,83.179L62.079,83.113L62.175,83.071L62.288,83.057Z"/>
        <path d="M63.366,83.057L63.468,83.082L63.554,83.121L63.626,83.174L63.706,83.266L63.765,83.383L63.804,83.53L63.816,83.632L63.821,83.81L63.812,83.837L63.785,83.846L62.889,83.846L62.878,83.85L62.875,83.86L62.88,83.991L62.892,84.065L62.92,84.144L62.963,84.21L63.022,84.265L63.091,84.305L63.174,84.33L63.272,84.339L63.392,84.323L63.489,84.282L63.57,84.217L63.631,84.129L63.65,84.11L63.678,84.112L63.76,84.157L63.781,84.18L63.776,84.205L63.724,84.292L63.657,84.365L63.575,84.427L63.482,84.472L63.376,84.5L63.255,84.51L63.128,84.499L63.019,84.468L62.925,84.418L62.844,84.349L62.78,84.263L62.732,84.16L62.704,84.065L62.686,83.939L62.679,83.773L62.681,83.676L62.875,83.676L62.878,83.686L62.889,83.69L63.608,83.69L63.619,83.686L63.622,83.676L63.605,83.496L63.577,83.417L63.536,83.351L63.481,83.296L63.415,83.256L63.337,83.231L63.244,83.222L63.153,83.231L63.078,83.255L63.015,83.293L62.962,83.346L62.923,83.409L62.897,83.485L62.884,83.551L62.875,83.676L62.681,83.676L62.683,83.582L62.704,83.449L62.747,83.334L62.81,83.238L62.896,83.157L62.997,83.098L63.112,83.061L63.244,83.048L63.366,83.057Z"/>
        <path d="M65.276,82.537L65.285,82.564L65.285,84.451L65.276,84.478L65.249,84.488L65.123,84.488L65.095,84.478L65.086,84.451L65.086,84.345L65.081,84.335L65.069,84.339L65.001,84.411L64.917,84.465L64.822,84.498L64.714,84.51L64.587,84.498L64.478,84.464L64.385,84.409L64.306,84.335L64.245,84.244L64.201,84.135L64.174,83.996L64.162,83.779L64.361,83.779L64.372,83.985L64.388,84.056L64.411,84.118L64.44,84.181L64.479,84.234L64.53,84.278L64.59,84.31L64.657,84.329L64.734,84.336L64.806,84.329L64.868,84.31L64.921,84.278L64.986,84.21L65.033,84.121L65.054,84.062L65.069,83.989L65.081,83.779L65.069,83.568L65.054,83.494L65.03,83.432L64.985,83.346L64.92,83.279L64.866,83.248L64.805,83.229L64.736,83.222L64.63,83.237L64.543,83.278L64.473,83.343L64.425,83.426L64.397,83.491L64.376,83.565L64.365,83.65L64.361,83.779L64.162,83.779L64.172,83.561L64.196,83.432L64.24,83.319L64.301,83.226L64.381,83.151L64.475,83.095L64.585,83.06L64.714,83.048L64.82,83.059L64.915,83.092L65,83.145L65.069,83.216L65.081,83.222L65.086,83.211L65.086,82.564L65.095,82.537L65.123,82.528L65.249,82.528L65.276,82.537Z"/>
    </g>
    <g transform="matrix(6.568409,0,0,6.568409,218.793752,-312.399833)">
        <path d="M48.392,55.865L48.497,55.894L48.588,55.941L48.667,56.006L48.732,56.086L48.778,56.177L48.807,56.282L48.817,56.404L48.807,56.523L48.778,56.627L48.73,56.717L48.664,56.795L48.584,56.859L48.492,56.905L48.386,56.934L48.263,56.944L47.719,56.944L47.709,56.947L47.706,56.958L47.706,57.781L47.696,57.809L47.669,57.818L47.543,57.818L47.516,57.809L47.507,57.781L47.507,56.042L47.706,56.042L47.706,56.765L47.709,56.775L47.719,56.779L48.249,56.779L48.355,56.767L48.443,56.733L48.517,56.677L48.574,56.603L48.609,56.514L48.621,56.406L48.609,56.297L48.574,56.207L48.517,56.132L48.443,56.075L48.355,56.041L48.249,56.028L47.719,56.028L47.709,56.032L47.706,56.042L47.507,56.042L47.507,55.891L47.516,55.864L47.543,55.855L48.271,55.855L48.392,55.865Z"/>
        <path d="M49.715,56.387L49.803,56.396L49.869,56.42L49.888,56.437L49.889,56.465L49.861,56.588L49.846,56.611L49.816,56.611L49.759,56.599L49.679,56.597L49.586,56.611L49.507,56.647L49.438,56.705L49.386,56.778L49.354,56.863L49.343,56.964L49.343,57.781L49.334,57.809L49.306,57.818L49.18,57.818L49.153,57.809L49.144,57.781L49.144,56.437L49.153,56.41L49.18,56.401L49.306,56.401L49.334,56.41L49.343,56.437L49.343,56.594L49.347,56.607L49.357,56.599L49.424,56.509L49.507,56.443L49.603,56.401L49.715,56.387Z"/>
        <path d="M50.794,56.387L50.896,56.412L50.982,56.451L51.054,56.504L51.133,56.596L51.193,56.713L51.232,56.86L51.244,56.962L51.249,57.14L51.24,57.167L51.212,57.176L50.316,57.176L50.306,57.18L50.302,57.19L50.307,57.321L50.319,57.395L50.348,57.474L50.391,57.54L50.449,57.595L50.519,57.635L50.602,57.66L50.7,57.669L50.819,57.653L50.917,57.612L50.997,57.547L51.058,57.459L51.078,57.44L51.106,57.442L51.187,57.487L51.208,57.51L51.204,57.535L51.152,57.622L51.085,57.696L51.002,57.757L50.91,57.802L50.804,57.83L50.683,57.84L50.555,57.829L50.446,57.798L50.353,57.748L50.272,57.678L50.208,57.593L50.16,57.49L50.132,57.395L50.113,57.269L50.106,57.103L50.108,57.006L50.302,57.006L50.306,57.016L50.316,57.02L51.036,57.02L51.046,57.016L51.05,57.006L51.033,56.826L51.005,56.747L50.964,56.681L50.908,56.626L50.842,56.586L50.765,56.561L50.672,56.552L50.581,56.561L50.505,56.585L50.442,56.623L50.39,56.676L50.351,56.739L50.325,56.815L50.312,56.881L50.302,57.006L50.108,57.006L50.11,56.912L50.132,56.779L50.175,56.664L50.238,56.568L50.323,56.487L50.424,56.428L50.539,56.391L50.672,56.378L50.794,56.387Z"/>
        <path d="M51.565,57.033L51.537,57.024L51.528,56.997L51.528,56.896L51.537,56.869L51.565,56.86L52.377,56.86L52.404,56.869L52.413,56.896L52.413,56.997L52.404,57.024L52.377,57.033L51.565,57.033Z"/>
        <path d="M53.21,57.832L53.059,57.818L52.931,57.781L52.821,57.721L52.744,57.647L52.707,57.588L52.685,57.526L52.678,57.459L52.678,57.434L52.687,57.407L52.714,57.398L52.835,57.398L52.861,57.404L52.871,57.423L52.871,57.448L52.881,57.505L52.911,57.558L52.966,57.609L53.033,57.646L53.112,57.669L53.207,57.678L53.302,57.669L53.379,57.647L53.442,57.612L53.493,57.563L53.522,57.508L53.532,57.445L53.52,57.381L53.487,57.33L53.438,57.291L53.378,57.26L53.185,57.196L53.035,57.149L52.927,57.106L52.834,57.053L52.756,56.982L52.718,56.925L52.695,56.858L52.686,56.779L52.696,56.692L52.722,56.617L52.765,56.552L52.828,56.493L52.927,56.436L53.049,56.4L53.199,56.387L53.347,56.4L53.472,56.437L53.547,56.476L53.607,56.523L53.655,56.576L53.691,56.637L53.712,56.703L53.719,56.773L53.71,56.8L53.683,56.81L53.568,56.81L53.539,56.804L53.532,56.79L53.532,56.773L53.522,56.714L53.493,56.662L53.441,56.614L53.377,56.579L53.297,56.557L53.196,56.549L53.102,56.556L53.027,56.576L52.966,56.607L52.917,56.65L52.889,56.702L52.88,56.765L52.889,56.824L52.916,56.871L52.962,56.91L53.058,56.957L53.221,57.011L53.375,57.058L53.484,57.098L53.578,57.15L53.658,57.221L53.698,57.279L53.722,57.348L53.731,57.431L53.722,57.519L53.695,57.595L53.652,57.663L53.589,57.722L53.489,57.781L53.365,57.818L53.21,57.832Z"/>
        <path d="M54.681,56.381L54.791,56.39L54.884,56.416L54.965,56.456L55.035,56.513L55.093,56.582L55.134,56.663L55.16,56.756L55.169,56.865L55.169,57.781L55.16,57.809L55.132,57.818L55.006,57.818L54.979,57.809L54.97,57.781L54.97,56.905L54.959,56.804L54.928,56.721L54.877,56.651L54.81,56.598L54.731,56.566L54.636,56.555L54.544,56.564L54.467,56.592L54.4,56.636L54.346,56.695L54.311,56.765L54.292,56.849L54.292,57.781L54.283,57.809L54.256,57.818L54.13,57.818L54.102,57.809L54.093,57.781L54.093,55.894L54.102,55.867L54.13,55.858L54.256,55.858L54.283,55.867L54.292,55.894L54.292,56.541L54.298,56.553L54.306,56.549L54.374,56.477L54.457,56.425L54.558,56.393L54.681,56.381Z"/>
        <path d="M56.459,56.437L56.468,56.41L56.495,56.401L56.621,56.401L56.648,56.41L56.657,56.437L56.657,57.781L56.648,57.809L56.621,57.818L56.495,57.818L56.468,57.809L56.459,57.781L56.459,57.675L56.453,57.664L56.442,57.669L56.375,57.741L56.294,57.793L56.194,57.825L56.072,57.837L55.942,57.823L55.824,57.782L55.754,57.74L55.694,57.688L55.645,57.624L55.609,57.553L55.587,57.47L55.579,57.375L55.579,56.437L55.589,56.41L55.616,56.401L55.742,56.401L55.769,56.41L55.778,56.437L55.778,57.316L55.789,57.419L55.819,57.502L55.868,57.57L55.933,57.621L56.013,57.652L56.111,57.664L56.214,57.652L56.297,57.62L56.365,57.568L56.416,57.5L56.447,57.417L56.459,57.316L56.459,56.437Z"/>
        <path d="M57.738,56.529L57.729,56.557L57.702,56.566L57.396,56.566L57.386,56.569L57.382,56.58L57.382,57.398L57.39,57.485L57.411,57.546L57.443,57.587L57.486,57.615L57.547,57.634L57.632,57.641L57.693,57.641L57.721,57.65L57.73,57.678L57.73,57.776L57.721,57.803L57.693,57.815L57.598,57.815L57.465,57.805L57.366,57.779L57.293,57.739L57.251,57.698L57.218,57.64L57.197,57.563L57.189,57.459L57.189,56.58L57.186,56.569L57.175,56.566L57.016,56.566L56.988,56.557L56.979,56.529L56.979,56.437L56.988,56.41L57.016,56.401L57.175,56.401L57.186,56.397L57.189,56.387L57.189,56.073L57.198,56.046L57.226,56.037L57.346,56.037L57.373,56.046L57.382,56.073L57.382,56.387L57.386,56.397L57.396,56.401L57.702,56.401L57.729,56.41L57.738,56.437L57.738,56.529Z"/>
        <path d="M58.756,56.529L58.747,56.557L58.72,56.566L58.414,56.566L58.404,56.569L58.4,56.58L58.4,57.398L58.408,57.485L58.429,57.546L58.461,57.587L58.504,57.615L58.565,57.634L58.65,57.641L58.711,57.641L58.739,57.65L58.748,57.678L58.748,57.776L58.739,57.803L58.711,57.815L58.616,57.815L58.483,57.805L58.384,57.779L58.311,57.739L58.269,57.698L58.236,57.64L58.215,57.563L58.207,57.459L58.207,56.58L58.204,56.569L58.193,56.566L58.033,56.566L58.006,56.557L57.997,56.529L57.997,56.437L58.006,56.41L58.033,56.401L58.193,56.401L58.204,56.397L58.207,56.387L58.207,56.073L58.216,56.046L58.244,56.037L58.364,56.037L58.391,56.046L58.4,56.073L58.4,56.387L58.404,56.397L58.414,56.401L58.72,56.401L58.747,56.41L58.756,56.437L58.756,56.529Z"/>
        <path d="M59.743,56.387L59.845,56.412L59.931,56.451L60.003,56.504L60.082,56.596L60.142,56.713L60.181,56.86L60.193,56.962L60.198,57.14L60.189,57.167L60.161,57.176L59.265,57.176L59.255,57.18L59.251,57.19L59.256,57.321L59.268,57.395L59.297,57.474L59.34,57.54L59.398,57.595L59.468,57.635L59.551,57.66L59.649,57.669L59.769,57.653L59.866,57.612L59.947,57.547L60.007,57.459L60.027,57.44L60.055,57.442L60.136,57.487L60.157,57.51L60.153,57.535L60.101,57.622L60.034,57.696L59.951,57.757L59.859,57.802L59.753,57.83L59.632,57.84L59.504,57.829L59.395,57.798L59.302,57.748L59.221,57.678L59.157,57.593L59.109,57.49L59.081,57.395L59.062,57.269L59.055,57.103L59.057,57.006L59.251,57.006L59.255,57.016L59.265,57.02L59.985,57.02L59.995,57.016L59.999,57.006L59.982,56.826L59.954,56.747L59.913,56.681L59.858,56.626L59.791,56.586L59.714,56.561L59.621,56.552L59.53,56.561L59.455,56.585L59.391,56.623L59.339,56.676L59.3,56.739L59.274,56.815L59.261,56.881L59.251,57.006L59.057,57.006L59.059,56.912L59.081,56.779L59.124,56.664L59.187,56.568L59.272,56.487L59.373,56.428L59.488,56.391L59.621,56.378L59.743,56.387Z"/>
        <path d="M61.163,56.387L61.251,56.396L61.317,56.42L61.336,56.437L61.337,56.465L61.309,56.588L61.294,56.611L61.264,56.611L61.207,56.599L61.127,56.597L61.034,56.611L60.955,56.647L60.886,56.705L60.834,56.778L60.802,56.863L60.791,56.964L60.791,57.781L60.782,57.809L60.755,57.818L60.629,57.818L60.601,57.809L60.592,57.781L60.592,56.437L60.601,56.41L60.629,56.401L60.755,56.401L60.782,56.41L60.791,56.437L60.791,56.594L60.795,56.607L60.805,56.599L60.873,56.509L60.955,56.443L61.051,56.401L61.163,56.387Z"/>
        <path d="M63.23,55.867L63.239,55.894L63.239,57.781L63.23,57.809L63.202,57.818L63.076,57.818L63.049,57.809L63.04,57.781L63.04,57.675L63.034,57.665L63.023,57.669L62.954,57.741L62.87,57.795L62.775,57.828L62.667,57.84L62.54,57.828L62.432,57.794L62.338,57.739L62.26,57.665L62.199,57.574L62.155,57.465L62.127,57.326L62.116,57.109L62.315,57.109L62.326,57.315L62.342,57.386L62.365,57.448L62.393,57.511L62.433,57.564L62.484,57.608L62.543,57.64L62.61,57.66L62.687,57.666L62.76,57.659L62.821,57.64L62.875,57.608L62.94,57.54L62.986,57.451L63.008,57.392L63.023,57.319L63.034,57.109L63.023,56.898L63.007,56.824L62.984,56.762L62.939,56.676L62.873,56.609L62.819,56.578L62.759,56.559L62.69,56.552L62.584,56.566L62.497,56.608L62.427,56.673L62.379,56.756L62.35,56.821L62.33,56.895L62.319,56.98L62.315,57.109L62.116,57.109L62.126,56.892L62.149,56.762L62.193,56.649L62.255,56.556L62.334,56.481L62.428,56.425L62.538,56.39L62.667,56.378L62.773,56.389L62.869,56.422L62.954,56.475L63.023,56.546L63.034,56.552L63.04,56.541L63.04,55.894L63.049,55.867L63.076,55.858L63.202,55.858L63.23,55.867Z"/>
        <path d="M64.331,56.387L64.433,56.412L64.519,56.451L64.591,56.504L64.67,56.596L64.73,56.713L64.769,56.86L64.781,56.962L64.786,57.14L64.776,57.167L64.749,57.176L63.853,57.176L63.843,57.18L63.839,57.19L63.844,57.321L63.856,57.395L63.885,57.474L63.928,57.54L63.986,57.595L64.056,57.635L64.138,57.66L64.237,57.669L64.356,57.653L64.454,57.612L64.534,57.547L64.595,57.459L64.615,57.44L64.643,57.442L64.724,57.487L64.745,57.51L64.741,57.535L64.689,57.622L64.622,57.696L64.539,57.757L64.446,57.802L64.341,57.83L64.22,57.84L64.092,57.829L63.983,57.798L63.89,57.748L63.809,57.678L63.745,57.593L63.696,57.49L63.669,57.395L63.65,57.269L63.643,57.103L63.645,57.006L63.839,57.006L63.843,57.016L63.853,57.02L64.573,57.02L64.583,57.016L64.587,57.006L64.57,56.826L64.542,56.747L64.501,56.681L64.445,56.626L64.379,56.586L64.302,56.561L64.209,56.552L64.118,56.561L64.042,56.585L63.979,56.623L63.927,56.676L63.888,56.739L63.862,56.815L63.849,56.881L63.839,57.006L63.645,57.006L63.647,56.912L63.669,56.779L63.712,56.664L63.775,56.568L63.86,56.487L63.961,56.428L64.076,56.391L64.209,56.378L64.331,56.387Z"/>
        <path d="M65.216,57.818L65.189,57.809L65.18,57.781L65.18,55.894L65.189,55.867L65.216,55.858L65.342,55.858L65.37,55.867L65.379,55.894L65.379,57.781L65.37,57.809L65.342,57.818L65.216,57.818Z"/>
        <path d="M66.445,56.388L66.55,56.413L66.637,56.453L66.709,56.507L66.769,56.576L66.812,56.654L66.839,56.744L66.848,56.849L66.848,57.781L66.839,57.809L66.811,57.818L66.686,57.818L66.658,57.809L66.649,57.781L66.649,57.68L66.644,57.669L66.632,57.675L66.548,57.745L66.443,57.798L66.326,57.829L66.195,57.84L66.068,57.828L65.96,57.794L65.867,57.739L65.81,57.684L65.769,57.616L65.743,57.533L65.734,57.431L65.735,57.42L65.932,57.42L65.943,57.498L65.972,57.558L66.019,57.606L66.08,57.64L66.153,57.662L66.24,57.669L66.348,57.66L66.443,57.632L66.527,57.587L66.596,57.524L66.636,57.451L66.649,57.364L66.649,57.148L66.646,57.138L66.635,57.134L66.341,57.134L66.22,57.144L66.123,57.17L66.044,57.21L65.982,57.268L65.945,57.336L65.932,57.42L65.735,57.42L65.744,57.329L65.772,57.242L65.819,57.166L65.886,57.099L65.965,57.049L66.059,57.011L66.173,56.986L66.31,56.978L66.635,56.978L66.646,56.974L66.649,56.964L66.649,56.86L66.639,56.768L66.612,56.694L66.569,56.635L66.511,56.591L66.43,56.563L66.322,56.552L66.198,56.566L66.106,56.602L66.056,56.641L66.021,56.687L65.999,56.742L65.985,56.766L65.957,56.77L65.82,56.754L65.793,56.742L65.787,56.723L65.818,56.628L65.874,56.545L65.959,56.474L66.059,56.422L66.178,56.39L66.319,56.378L66.445,56.388Z"/>
        <path d="M67.177,58.378L67.163,58.37L67.157,58.341L67.157,58.243L67.163,58.214L67.177,58.207L67.197,58.207L67.299,58.198L67.366,58.176L67.42,58.135L67.469,58.067L67.511,57.977L67.563,57.826L67.563,57.809L67.093,56.443L67.09,56.429L67.1,56.409L67.124,56.401L67.255,56.401L67.283,56.408L67.297,56.432L67.659,57.529L67.667,57.54L67.675,57.529L68.028,56.432L68.042,56.408L68.067,56.401L68.202,56.401L68.23,56.412L68.233,56.443L67.717,57.941L67.647,58.115L67.591,58.218L67.524,58.295L67.444,58.343L67.347,58.368L67.197,58.378L67.177,58.378Z"/>
    </g>
    <g transform="matrix(6.568409,0,0,6.568409,218.793752,-312.399833)">
        <path d="M28.451,72.445L28.316,72.437L28.198,72.415L28.094,72.38L27.998,72.33L27.92,72.269L27.859,72.197L27.813,72.115L27.786,72.023L27.776,71.921L27.776,71.843L27.785,71.816L27.813,71.807L27.933,71.807L27.96,71.816L27.97,71.843L27.97,71.91L27.978,71.987L28.003,72.054L28.044,72.115L28.104,72.171L28.199,72.224L28.317,72.259L28.465,72.271L28.606,72.26L28.713,72.228L28.793,72.18L28.855,72.113L28.892,72.034L28.905,71.938L28.891,71.846L28.853,71.77L28.791,71.705L28.695,71.639L28.576,71.577L28.39,71.496L28.192,71.412L28.063,71.349L27.957,71.276L27.876,71.186L27.837,71.117L27.813,71.034L27.804,70.936L27.815,70.821L27.847,70.724L27.897,70.641L27.968,70.57L28.052,70.516L28.154,70.475L28.275,70.45L28.42,70.44L28.575,70.45L28.705,70.479L28.815,70.525L28.907,70.586L28.986,70.665L29.041,70.754L29.075,70.855L29.087,70.972L29.087,71.025L29.078,71.053L29.05,71.062L28.927,71.062L28.9,71.053L28.891,71.025L28.891,70.983L28.877,70.881L28.835,70.794L28.765,70.717L28.675,70.662L28.559,70.627L28.409,70.614L28.279,70.624L28.18,70.652L28.105,70.695L28.048,70.756L28.013,70.833L28,70.93L28.014,71.024L28.052,71.097L28.113,71.156L28.201,71.212L28.496,71.339L28.689,71.424L28.826,71.496L28.941,71.578L29.028,71.674L29.069,71.747L29.095,71.831L29.104,71.93L29.092,72.043L29.06,72.141L29.007,72.227L28.931,72.304L28.843,72.362L28.735,72.406L28.606,72.435L28.451,72.445Z"/>
        <path d="M30.068,70.986L30.177,70.995L30.271,71.02L30.352,71.061L30.422,71.118L30.479,71.187L30.521,71.268L30.546,71.361L30.555,71.471L30.555,72.386L30.546,72.413L30.519,72.423L30.393,72.423L30.366,72.413L30.357,72.386L30.357,71.51L30.346,71.409L30.315,71.326L30.264,71.256L30.197,71.203L30.118,71.171L30.023,71.16L29.931,71.169L29.853,71.197L29.787,71.241L29.733,71.3L29.698,71.37L29.679,71.454L29.679,72.386L29.67,72.413L29.642,72.423L29.517,72.423L29.489,72.413L29.48,72.386L29.48,70.499L29.489,70.472L29.517,70.463L29.642,70.463L29.67,70.472L29.679,70.499L29.679,71.146L29.684,71.158L29.693,71.154L29.761,71.082L29.844,71.03L29.945,70.998L30.068,70.986Z"/>
        <path d="M31.845,71.042L31.854,71.015L31.882,71.006L32.008,71.006L32.035,71.015L32.044,71.042L32.044,72.386L32.035,72.413L32.008,72.423L31.882,72.423L31.854,72.413L31.845,72.386L31.845,72.28L31.84,72.269L31.829,72.274L31.762,72.346L31.681,72.398L31.581,72.43L31.459,72.442L31.329,72.428L31.211,72.388L31.14,72.345L31.081,72.293L31.032,72.229L30.996,72.158L30.974,72.075L30.966,71.98L30.966,71.042L30.975,71.015L31.003,71.006L31.129,71.006L31.156,71.015L31.165,71.042L31.165,71.921L31.176,72.024L31.206,72.107L31.255,72.175L31.32,72.226L31.399,72.257L31.498,72.269L31.601,72.257L31.684,72.225L31.752,72.173L31.803,72.105L31.834,72.022L31.845,71.921L31.845,71.042Z"/>
        <path d="M33.125,71.135L33.116,71.162L33.088,71.171L32.783,71.171L32.773,71.174L32.769,71.185L32.769,72.003L32.777,72.09L32.798,72.151L32.829,72.192L32.873,72.22L32.934,72.239L33.018,72.246L33.08,72.246L33.107,72.255L33.116,72.283L33.116,72.38L33.107,72.409L33.08,72.42L32.985,72.42L32.852,72.41L32.753,72.384L32.679,72.344L32.637,72.303L32.605,72.245L32.584,72.168L32.576,72.064L32.576,71.185L32.572,71.174L32.562,71.171L32.402,71.171L32.375,71.162L32.366,71.135L32.366,71.042L32.375,71.015L32.402,71.006L32.562,71.006L32.572,71.002L32.576,70.992L32.576,70.678L32.585,70.651L32.612,70.642L32.733,70.642L32.76,70.651L32.769,70.678L32.769,70.992L32.773,71.002L32.783,71.006L33.088,71.006L33.116,71.015L33.125,71.042L33.125,71.135Z"/>
        <path d="M34.143,71.135L34.134,71.162L34.106,71.171L33.801,71.171L33.791,71.174L33.787,71.185L33.787,72.003L33.795,72.09L33.816,72.151L33.847,72.192L33.891,72.22L33.952,72.239L34.036,72.246L34.098,72.246L34.125,72.255L34.134,72.283L34.134,72.38L34.125,72.409L34.098,72.42L34.003,72.42L33.87,72.41L33.771,72.384L33.697,72.344L33.655,72.303L33.623,72.245L33.602,72.168L33.594,72.064L33.594,71.185L33.59,71.174L33.58,71.171L33.42,71.171L33.393,71.162L33.384,71.135L33.384,71.042L33.393,71.015L33.42,71.006L33.58,71.006L33.59,71.002L33.594,70.992L33.594,70.678L33.603,70.651L33.63,70.642L33.751,70.642L33.778,70.651L33.787,70.678L33.787,70.992L33.791,71.002L33.801,71.006L34.106,71.006L34.134,71.015L34.143,71.042L34.143,71.135Z"/>
        <path d="M35.13,70.992L35.232,71.017L35.318,71.056L35.39,71.109L35.469,71.201L35.529,71.318L35.568,71.465L35.58,71.567L35.585,71.745L35.575,71.772L35.548,71.781L34.652,71.781L34.642,71.785L34.638,71.795L34.643,71.926L34.655,72L34.684,72.079L34.727,72.145L34.785,72.2L34.855,72.24L34.937,72.265L35.036,72.274L35.155,72.258L35.253,72.217L35.333,72.152L35.394,72.064L35.414,72.045L35.442,72.047L35.523,72.092L35.544,72.115L35.54,72.14L35.487,72.227L35.421,72.3L35.338,72.362L35.245,72.407L35.14,72.435L35.019,72.445L34.891,72.434L34.782,72.403L34.689,72.353L34.608,72.284L34.544,72.198L34.495,72.095L34.468,72L34.449,71.874L34.442,71.709L34.444,71.611L34.638,71.611L34.642,71.621L34.652,71.625L35.372,71.625L35.382,71.621L35.386,71.611L35.369,71.431L35.341,71.352L35.299,71.286L35.244,71.231L35.178,71.191L35.1,71.166L35.008,71.157L34.917,71.166L34.841,71.19L34.778,71.228L34.726,71.281L34.687,71.344L34.661,71.42L34.648,71.486L34.638,71.611L34.444,71.611L34.446,71.517L34.467,71.384L34.51,71.269L34.574,71.173L34.659,71.093L34.76,71.033L34.875,70.996L35.008,70.983L35.13,70.992Z"/>
        <path d="M36.55,70.992L36.638,71.001L36.704,71.025L36.723,71.042L36.724,71.07L36.696,71.193L36.681,71.216L36.651,71.216L36.594,71.204L36.514,71.202L36.421,71.216L36.342,71.252L36.273,71.309L36.221,71.383L36.189,71.468L36.178,71.569L36.178,72.386L36.169,72.413L36.141,72.423L36.015,72.423L35.988,72.413L35.979,72.386L35.979,71.042L35.988,71.015L36.015,71.006L36.141,71.006L36.169,71.015L36.178,71.042L36.178,71.199L36.182,71.212L36.192,71.204L36.259,71.114L36.342,71.048L36.438,71.006L36.55,70.992Z"/>
        <path d="M38.02,72.437L37.869,72.423L37.742,72.386L37.632,72.326L37.554,72.252L37.518,72.193L37.496,72.131L37.489,72.064L37.489,72.039L37.498,72.012L37.525,72.003L37.645,72.003L37.672,72.01L37.682,72.028L37.682,72.053L37.692,72.11L37.722,72.163L37.777,72.214L37.843,72.251L37.923,72.274L38.018,72.283L38.113,72.275L38.19,72.252L38.253,72.217L38.304,72.168L38.333,72.113L38.343,72.05L38.331,71.986L38.298,71.935L38.249,71.896L38.189,71.865L37.995,71.801L37.846,71.754L37.738,71.711L37.644,71.657L37.567,71.587L37.529,71.53L37.505,71.463L37.497,71.384L37.506,71.297L37.532,71.222L37.576,71.157L37.638,71.098L37.738,71.041L37.86,71.005L38.009,70.992L38.158,71.005L38.282,71.042L38.358,71.081L38.418,71.127L38.466,71.181L38.502,71.242L38.523,71.308L38.53,71.378L38.521,71.406L38.494,71.415L38.379,71.415L38.35,71.409L38.343,71.395L38.343,71.378L38.333,71.319L38.304,71.267L38.252,71.219L38.188,71.184L38.108,71.162L38.007,71.154L37.913,71.161L37.837,71.181L37.777,71.212L37.728,71.255L37.7,71.307L37.69,71.37L37.7,71.429L37.726,71.476L37.773,71.515L37.868,71.562L38.032,71.616L38.186,71.663L38.295,71.703L38.389,71.755L38.469,71.826L38.508,71.884L38.533,71.953L38.541,72.036L38.532,72.124L38.506,72.2L38.462,72.268L38.4,72.327L38.3,72.386L38.176,72.423L38.02,72.437Z"/>
        <path d="M39.024,70.751L38.962,70.74L38.915,70.71L38.884,70.665L38.873,70.605L38.884,70.546L38.915,70.502L38.962,70.473L39.024,70.463L39.086,70.473L39.133,70.502L39.165,70.546L39.175,70.605L39.165,70.665L39.133,70.71L39.086,70.74L39.024,70.751Z"/>
        <path d="M38.963,72.423L38.935,72.413L38.926,72.386L38.926,71.042L38.935,71.015L38.963,71.006L39.089,71.006L39.116,71.015L39.125,71.042L39.125,72.386L39.116,72.413L39.089,72.423L38.963,72.423Z"/>
        <path d="M40.191,70.994L40.291,71.025L40.375,71.074L40.447,71.143L40.458,71.149L40.463,71.137L40.463,71.042L40.472,71.015L40.5,71.006L40.626,71.006L40.653,71.015L40.662,71.042L40.662,72.375L40.649,72.531L40.613,72.656L40.557,72.755L40.48,72.834L40.386,72.895L40.275,72.941L40.142,72.969L39.985,72.98L39.895,72.977L39.868,72.966L39.859,72.938L39.864,72.826L39.873,72.798L39.901,72.792L40.054,72.791L40.173,72.774L40.263,72.745L40.33,72.705L40.386,72.65L40.427,72.579L40.454,72.487L40.463,72.369L40.463,72.271L40.458,72.26L40.447,72.266L40.376,72.337L40.294,72.388L40.197,72.42L40.083,72.431L39.964,72.42L39.857,72.387L39.759,72.333L39.676,72.259L39.613,72.168L39.57,72.056L39.547,71.927L39.537,71.714L39.537,71.709L39.735,71.709L39.744,71.897L39.763,71.991L39.789,72.066L39.83,72.13L39.885,72.186L39.951,72.228L40.027,72.254L40.113,72.263L40.202,72.254L40.276,72.228L40.339,72.187L40.39,72.132L40.427,72.069L40.449,71.994L40.461,71.891L40.463,71.711L40.461,71.52L40.447,71.429L40.424,71.354L40.388,71.29L40.336,71.234L40.273,71.192L40.2,71.166L40.113,71.157L40.028,71.166L39.955,71.191L39.891,71.233L39.837,71.287L39.794,71.352L39.763,71.429L39.744,71.531L39.735,71.709L39.537,71.709L39.544,71.507L39.555,71.425L39.573,71.356L39.616,71.25L39.677,71.161L39.755,71.086L39.847,71.029L39.952,70.995L40.071,70.983L40.191,70.994Z"/>
        <path d="M41.675,70.986L41.784,70.995L41.877,71.02L41.958,71.061L42.029,71.118L42.086,71.187L42.127,71.268L42.153,71.361L42.162,71.471L42.162,72.386L42.153,72.413L42.125,72.423L41.999,72.423L41.972,72.413L41.963,72.386L41.963,71.51L41.952,71.409L41.921,71.326L41.87,71.256L41.803,71.203L41.724,71.171L41.63,71.16L41.538,71.169L41.46,71.197L41.393,71.241L41.34,71.3L41.304,71.37L41.285,71.454L41.285,72.386L41.276,72.413L41.249,72.423L41.123,72.423L41.096,72.413L41.087,72.386L41.087,71.042L41.096,71.015L41.123,71.006L41.249,71.006L41.276,71.015L41.285,71.042L41.285,71.146L41.291,71.158L41.299,71.154L41.367,71.082L41.45,71.03L41.551,70.998L41.675,70.986Z"/>
        <path d="M43.211,70.993L43.316,71.018L43.403,71.058L43.476,71.112L43.536,71.181L43.578,71.259L43.605,71.349L43.614,71.454L43.614,72.386L43.605,72.413L43.578,72.423L43.452,72.423L43.425,72.413L43.415,72.386L43.415,72.285L43.41,72.274L43.399,72.28L43.315,72.35L43.21,72.403L43.093,72.434L42.962,72.445L42.834,72.433L42.726,72.399L42.633,72.344L42.576,72.289L42.535,72.221L42.509,72.138L42.5,72.036L42.501,72.025L42.699,72.025L42.709,72.103L42.738,72.163L42.785,72.211L42.846,72.245L42.919,72.267L43.007,72.274L43.114,72.265L43.209,72.237L43.294,72.192L43.362,72.129L43.402,72.056L43.415,71.969L43.415,71.753L43.412,71.743L43.401,71.739L43.107,71.739L42.986,71.749L42.889,71.775L42.811,71.815L42.748,71.873L42.711,71.941L42.699,72.025L42.501,72.025L42.51,71.934L42.539,71.847L42.586,71.771L42.652,71.704L42.731,71.654L42.826,71.616L42.94,71.591L43.077,71.583L43.401,71.583L43.412,71.579L43.415,71.569L43.415,71.465L43.406,71.373L43.379,71.299L43.336,71.24L43.277,71.196L43.197,71.168L43.088,71.157L42.964,71.171L42.872,71.207L42.822,71.246L42.787,71.292L42.766,71.347L42.751,71.371L42.724,71.375L42.587,71.359L42.559,71.347L42.553,71.328L42.584,71.233L42.64,71.15L42.725,71.079L42.825,71.027L42.944,70.995L43.085,70.983L43.211,70.993Z"/>
        <path d="M44.062,72.423L44.034,72.413L44.025,72.386L44.025,70.499L44.034,70.472L44.062,70.463L44.188,70.463L44.215,70.472L44.224,70.499L44.224,72.386L44.215,72.413L44.188,72.423L44.062,72.423Z"/>
    </g>
    <g transform="matrix(6.568409,0,0,6.568409,218.793752,-312.399833)">
        <path d="M38.891,84.513L38.762,84.504L38.648,84.478L38.547,84.436L38.454,84.377L38.378,84.304L38.315,84.217L38.27,84.12L38.242,84.012L38.233,83.891L38.233,83.121L38.242,83.002L38.27,82.895L38.315,82.799L38.378,82.713L38.454,82.641L38.547,82.582L38.648,82.54L38.762,82.514L38.891,82.505L39.02,82.514L39.134,82.54L39.235,82.581L39.328,82.639L39.404,82.709L39.466,82.794L39.511,82.888L39.539,82.993L39.549,83.11L39.541,83.129L39.513,83.141L39.386,83.149L39.378,83.149L39.358,83.144L39.35,83.132L39.35,83.115L39.342,83.018L39.317,82.934L39.278,82.861L39.224,82.798L39.134,82.733L39.024,82.693L38.891,82.679L38.758,82.693L38.648,82.734L38.558,82.799L38.503,82.863L38.464,82.936L38.44,83.019L38.432,83.115L38.432,83.9L38.44,83.996L38.464,84.079L38.503,84.152L38.558,84.216L38.648,84.281L38.758,84.322L38.891,84.336L39.024,84.322L39.134,84.282L39.224,84.217L39.278,84.154L39.317,84.081L39.342,83.997L39.35,83.9L39.359,83.875L39.386,83.869L39.513,83.874L39.542,83.879L39.549,83.888L39.549,83.902L39.539,84.021L39.511,84.127L39.466,84.223L39.404,84.308L39.328,84.379L39.235,84.437L39.134,84.478L39.02,84.504L38.891,84.513Z"/>
        <path d="M40.626,83.06L40.74,83.095L40.84,83.152L40.926,83.229L40.992,83.321L41.038,83.432L41.066,83.576L41.077,83.776L41.066,83.981L41.038,84.121L40.99,84.235L40.923,84.329L40.837,84.406L40.737,84.463L40.624,84.498L40.494,84.51L40.362,84.498L40.246,84.463L40.146,84.406L40.06,84.329L39.994,84.235L39.946,84.121L39.917,83.981L39.907,83.779L40.108,83.779L40.115,83.966L40.13,84.062L40.159,84.141L40.201,84.207L40.258,84.262L40.326,84.303L40.404,84.328L40.494,84.336L40.581,84.328L40.657,84.303L40.724,84.262L40.78,84.207L40.823,84.141L40.853,84.062L40.868,83.959L40.875,83.779L40.868,83.593L40.853,83.496L40.825,83.417L40.782,83.351L40.725,83.296L40.658,83.256L40.58,83.231L40.489,83.222L40.402,83.231L40.326,83.255L40.259,83.296L40.203,83.351L40.16,83.417L40.13,83.496L40.115,83.593L40.108,83.779L39.907,83.779L39.906,83.776L39.917,83.574L39.943,83.435L39.991,83.322L40.057,83.229L40.143,83.152L40.244,83.096L40.36,83.061L40.494,83.048L40.626,83.06Z"/>
        <path d="M41.516,84.488L41.488,84.478L41.479,84.451L41.479,82.564L41.488,82.537L41.516,82.528L41.642,82.528L41.669,82.537L41.678,82.564L41.678,84.451L41.669,84.478L41.642,84.488L41.516,84.488Z"/>
        <path d="M42.802,83.06L42.916,83.095L43.017,83.152L43.103,83.229L43.168,83.321L43.214,83.432L43.243,83.576L43.254,83.776L43.242,83.981L43.214,84.121L43.166,84.235L43.1,84.329L43.014,84.406L42.914,84.463L42.8,84.498L42.671,84.51L42.538,84.498L42.423,84.463L42.323,84.406L42.237,84.329L42.17,84.235L42.122,84.121L42.094,83.981L42.083,83.779L42.285,83.779L42.292,83.966L42.307,84.062L42.336,84.141L42.378,84.207L42.435,84.262L42.502,84.303L42.58,84.328L42.671,84.336L42.758,84.328L42.834,84.303L42.901,84.262L42.957,84.207L43,84.141L43.03,84.062L43.045,83.959L43.052,83.779L43.045,83.593L43.03,83.496L43.001,83.417L42.959,83.351L42.902,83.296L42.834,83.256L42.756,83.231L42.666,83.222L42.578,83.231L42.503,83.255L42.436,83.296L42.38,83.351L42.337,83.417L42.307,83.496L42.292,83.593L42.285,83.779L42.083,83.779L42.083,83.776L42.093,83.574L42.12,83.435L42.167,83.322L42.234,83.229L42.32,83.152L42.42,83.096L42.536,83.061L42.671,83.048L42.802,83.06Z"/>
        <path d="M44.227,83.057L44.315,83.066L44.381,83.09L44.4,83.107L44.401,83.135L44.373,83.258L44.358,83.281L44.328,83.281L44.271,83.269L44.191,83.267L44.098,83.281L44.019,83.317L43.95,83.374L43.898,83.448L43.866,83.533L43.855,83.634L43.855,84.451L43.846,84.478L43.818,84.488L43.692,84.488L43.665,84.478L43.656,84.451L43.656,83.107L43.665,83.08L43.692,83.071L43.818,83.071L43.846,83.08L43.855,83.107L43.855,83.264L43.859,83.277L43.869,83.269L43.936,83.179L44.019,83.113L44.115,83.071L44.227,83.057Z"/>
    </g>
</svg>
