<?xml version="1.0" standalone="no"?>
 <!DOCTYPE svg PUBLIC "-//W3C//DTD SVG 1.1//EN" 
 "http://www.w3.org/Graphics/SVG/1.1/DTD/svg11.dtd"> 
<svg
  xmlns:svg="http://www.w3.org/2000/svg"
  xmlns="http://www.w3.org/2000/svg"
  xmlns:xlink="http://www.w3.org/1999/xlink"
  xmlns:inkscape="http://www.inkscape.org/namespaces/inkscape"
  version="1.1"
  width="149.9870mm" height="149.9870mm" viewBox="0.0000 0.0000 149.9870 149.9870">
<title>SVG Image created as timing diagram.svg date 2026-06-28T14:36:25 </title>
  <desc>Image generated by Eeschema-SVG </desc>
<g style="fill:#000000; fill-opacity:1.0000;stroke:#000000; stroke-opacity:1.0000;
stroke-linecap:round; stroke-linejoin:round;"
 transform="translate(0 0) scale(1 1)">
</g>
<g style="fill:none; 
stroke:#A4907E; stroke-width:0.1524; stroke-opacity:1; 
stroke-linecap:round; stroke-linejoin:round;">
<path d="M112.3950 59.6900
L112.3950 73.0250
" />
<path d="M102.2350 59.6900
L102.2350 66.6750
" />
<path d="M111.1250 62.8650
L112.3950 61.5950
" />
<path d="M111.1250 60.3250
L112.3950 61.5950
" />
<path d="M104.7750 61.5950
L112.3950 61.5950
" />
<path d="M112.3950 80.6450
L118.7450 80.6450
" />
<path d="M110.4900 80.6450
L112.3950 86.9950
" />
<path d="M110.4900 86.9950
L112.3950 80.6450
" />
<path d="M112.3950 86.9950
L118.7450 86.9950
" />
<path d="M102.2350 74.2950
L118.7450 74.2950
" />
<path d="M93.3450 86.9950
L110.4900 86.9950
" />
<path d="M57.7850 61.5950
L59.6900 61.5950
" />
<path d="M93.3450 80.6450
L110.4900 80.6450
" />
<path d="M91.4400 86.9950
L93.3450 80.6450
" />
</g>
<g style="fill:none; 
stroke:#A4907E; stroke-width:0.1524; stroke-opacity:1; 
stroke-linecap:round; stroke-linejoin:round;stroke-dasharray:0.030480,0.609600;">
<path d="M93.3450 80.6450
L93.3450 74.2950
" />
</g>
<g style="fill:none; 
stroke:#A4907E; stroke-width:0.1524; stroke-opacity:1; 
stroke-linecap:round; stroke-linejoin:round;">
<path d="M83.1850 74.2950
L97.7900 74.2950
" />
<path d="M83.1850 74.2950
L83.1850 67.9450
" />
</g>
<g style="fill:none; 
stroke:#A4907E; stroke-width:0.1524; stroke-opacity:1; 
stroke-linecap:round; stroke-linejoin:round;stroke-dasharray:0.030480,0.609600;">
<path d="M97.7900 80.6450
L97.7900 74.2950
" />
</g>
<g style="fill:none; 
stroke:#A4907E; stroke-width:0.1524; stroke-opacity:1; 
stroke-linecap:round; stroke-linejoin:round;">
<path d="M97.7900 67.9450
L102.2350 67.9450
" />
<path d="M102.2350 74.2950
L102.2350 67.9450
" />
<path d="M97.7900 74.2950
L97.7900 67.9450
" />
<path d="M84.4550 55.2450
L83.1850 56.5150
" />
<path d="M83.1850 54.6100
L83.1850 66.6750
" />
<path d="M84.4550 57.7850
L83.1850 56.5150
" />
<path d="M83.1850 56.5150
L85.7250 56.5150
" />
<path d="M103.5050 62.8650
L102.2350 61.5950
" />
<path d="M103.5050 60.3250
L102.2350 61.5950
" />
<path d="M102.2350 61.5950
L104.7750 61.5950
" />
<path d="M58.4200 60.3250
L59.6900 61.5950
" />
<path d="M58.4200 62.8650
L59.6900 61.5950
" />
<path d="M76.2000 56.5150
L78.7400 56.5150
" />
<path d="M77.4700 57.7850
L78.7400 56.5150
" />
<path d="M78.7400 54.6100
L78.7400 66.6750
" />
<path d="M77.4700 55.2450
L78.7400 56.5150
" />
<path d="M91.4400 80.6450
L93.3450 86.9950
" />
<path d="M74.2950 80.6450
L91.4400 80.6450
" />
<path d="M74.2950 86.9950
L91.4400 86.9950
" />
<path d="M72.3900 80.6450
L74.2950 86.9950
" />
<path d="M72.3900 86.9950
L74.2950 80.6450
" />
<path d="M55.2450 80.6450
L72.3900 80.6450
" />
<path d="M53.3400 80.6450
L55.2450 86.9950
" />
<path d="M53.3400 86.9950
L55.2450 80.6450
" />
<path d="M55.2450 86.9950
L72.3900 86.9950
" />
</g>
<g style="fill:none; 
stroke:#A4907E; stroke-width:0.1524; stroke-opacity:1; 
stroke-linecap:round; stroke-linejoin:round;stroke-dasharray:0.030480,0.609600;">
<path d="M59.6900 80.6450
L59.6900 74.2950
" />
</g>
<g style="fill:none; 
stroke:#A4907E; stroke-width:0.1524; stroke-opacity:1; 
stroke-linecap:round; stroke-linejoin:round;">
<path d="M55.2450 74.2950
L59.6900 74.2950
" />
</g>
<g style="fill:none; 
stroke:#A4907E; stroke-width:0.1524; stroke-opacity:1; 
stroke-linecap:round; stroke-linejoin:round;stroke-dasharray:0.030480,0.609600;">
<path d="M55.2450 80.6450
L55.2450 74.2950
" />
</g>
<g style="fill:none; 
stroke:#A4907E; stroke-width:0.1524; stroke-opacity:1; 
stroke-linecap:round; stroke-linejoin:round;">
<path d="M46.9900 80.6450
L53.3400 80.6450
" />
<path d="M46.9900 86.9950
L53.3400 86.9950
" />
<path d="M46.9900 74.2950
L55.2450 74.2950
" />
<path d="M59.6900 74.2950
L59.6900 67.9450
" />
<path d="M55.2450 59.6900
L55.2450 73.0250
" />
<path d="M56.5150 62.8650
L55.2450 61.5950
" />
<path d="M59.6900 59.6900
L59.6900 66.6750
" />
<path d="M78.7400 67.9450
L83.1850 67.9450
" />
<path d="M64.1350 74.2950
L78.7400 74.2950
" />
</g>
<g style="fill:none; 
stroke:#A4907E; stroke-width:0.1524; stroke-opacity:1; 
stroke-linecap:round; stroke-linejoin:round;stroke-dasharray:0.030480,0.609600;">
<path d="M78.7400 80.6450
L78.7400 74.2950
" />
</g>
<g style="fill:none; 
stroke:#A4907E; stroke-width:0.1524; stroke-opacity:1; 
stroke-linecap:round; stroke-linejoin:round;">
<path d="M78.7400 74.2950
L78.7400 67.9450
" />
</g>
<g style="fill:none; 
stroke:#A4907E; stroke-width:0.1524; stroke-opacity:1; 
stroke-linecap:round; stroke-linejoin:round;stroke-dasharray:0.030480,0.609600;">
<path d="M74.2950 80.6450
L74.2950 74.2950
" />
</g>
<g style="fill:none; 
stroke:#A4907E; stroke-width:0.1524; stroke-opacity:1; 
stroke-linecap:round; stroke-linejoin:round;">
<path d="M64.1350 74.2950
L64.1350 67.9450
" />
<path d="M59.6900 67.9450
L64.1350 67.9450
" />
<path d="M55.2450 61.5950
L57.7850 61.5950
" />
<path d="M56.5150 60.3250
L55.2450 61.5950
" />
</g>
<g style="fill:none; 
stroke:#A4907E; stroke-width:0.1524; stroke-opacity:1; 
stroke-linecap:round; stroke-linejoin:round;">
<text x="101.6000" y="84.6576"
textLength="5.1603" font-size="2.6666" lengthAdjust="spacingAndGlyphs"
text-anchor="middle" opacity="0" stroke-opacity="0">blue</text>
<g class="stroked-text"><desc>blue</desc>
<path style="fill:#A4907E; fill-opacity:1.0000; stroke:none;fill-rule:evenodd;"
d="M 99.4335,82.5366
99.4426,82.5639
99.4426,83.2108
99.4483,83.2220
99.4595,83.2164
99.5287,83.1446
99.6134,83.0918
99.7092,83.0594
99.8151,83.0483
99.9441,83.0604
100.0539,83.0949
100.1483,83.1506
100.2277,83.2262
100.2891,83.3190
100.3330,83.4319
100.3567,83.5615
100.3666,83.7791
100.3553,83.9956
100.3274,84.1347
100.2838,84.2441
100.2229,84.3347
100.1441,84.4091
100.0508,84.4641
99.9424,84.4980
99.8151,84.5099
99.7070,84.4984
99.6120,84.4652
99.5284,84.4113
99.4595,84.3392
99.4483,84.3350
99.4426,84.3448
99.4426,84.4512
99.4335,84.4785
99.4062,84.4876
99.2802,84.4876
99.2529,84.4785
99.2438,84.4512
99.2438,83.7791
99.4483,83.7791
99.4594,83.9892
99.4746,84.0617
99.4959,84.1207
99.5427,84.2098
99.6079,84.2776
99.6610,84.3097
99.7228,84.3294
99.7954,84.3364
99.8720,84.3295
99.9391,84.3098
99.9984,84.2776
100.0496,84.2337
100.0891,84.1810
100.1175,84.1180
100.1409,84.0565
100.1566,83.9850
100.1678,83.7791
100.1634,83.6495
100.1524,83.5650
100.1321,83.4909
100.1034,83.4263
100.0558,83.3430
99.9858,83.2781
99.8985,83.2365
99.7926,83.2220
99.7236,83.2287
99.6631,83.2479
99.6092,83.2794
99.5435,83.3458
99.4987,83.4319
99.4753,83.4938
99.4594,83.5679
99.4483,83.7791
99.2438,83.7791
99.2438,82.5639
99.2529,82.5366
99.2802,82.5275
99.4062,82.5275
Z" /> 
<path style="fill:#A4907E; fill-opacity:1.0000; stroke:none;fill-rule:evenodd;"
d="M 100.7965,84.4876
100.7692,84.4785
100.7601,84.4512
100.7601,82.5639
100.7692,82.5366
100.7965,82.5275
100.9225,82.5275
100.9498,82.5366
100.9589,82.5639
100.9589,84.4512
100.9498,84.4785
100.9225,84.4876
Z" /> 
<path style="fill:#A4907E; fill-opacity:1.0000; stroke:none;fill-rule:evenodd;"
d="M 102.2656,83.1071
102.2747,83.0798
102.3020,83.0707
102.4280,83.0707
102.4553,83.0798
102.4644,83.1071
102.4644,84.4512
102.4553,84.4785
102.4280,84.4876
102.3020,84.4876
102.2747,84.4785
102.2656,84.4512
102.2656,84.3448
102.2600,84.3336
102.2489,84.3392
102.1823,84.4112
102.1009,84.4630
102.0014,84.4955
101.8792,84.5071
101.7491,84.4932
101.6314,84.4525
101.5606,84.4103
101.5012,84.3579
101.4521,84.2944
101.4164,84.2227
101.3942,84.1403
101.3864,84.0451
101.3864,83.1071
101.3955,83.0798
101.4228,83.0707
101.5489,83.0707
101.5762,83.0798
101.5853,83.1071
101.5853,83.9864
101.5960,84.0892
101.6263,84.1723
101.6748,84.2398
101.7399,84.2909
101.8197,84.3224
101.9184,84.3336
102.0209,84.3222
102.1039,84.2902
102.1718,84.2384
102.2230,84.1698
102.2545,84.0871
102.2656,83.9864
Z" /> 
<path style="fill:#A4907E; fill-opacity:1.0000; stroke:none;fill-rule:evenodd;"
d="M 103.5548,83.0572
103.6569,83.0821
103.7429,83.1213
103.8152,83.1744
103.8942,83.2664
103.9538,83.3831
103.9930,83.5300
104.0048,83.6321
104.0099,83.8099
104.0008,83.8372
103.9735,83.8463
103.0775,83.8463
103.0669,83.8498
103.0634,83.8603
103.0685,83.9910
103.0803,84.0648
103.1088,84.1439
103.1520,84.2100
103.2104,84.2650
103.2802,84.3052
103.3627,84.3303
103.4610,84.3392
103.5807,84.3228
103.6780,84.2818
103.7586,84.2167
103.8195,84.1291
103.8390,84.1096
103.8671,84.1124
103.9483,84.1571
103.9695,84.1795
103.9650,84.2047
103.9128,84.2917
103.8460,84.3655
103.7634,84.4273
103.6706,84.4723
103.5651,84.5002
103.4442,84.5099
103.3164,84.4989
103.2075,84.4677
103.1138,84.4176
103.0332,84.3485
102.9691,84.2634
102.9207,84.1599
102.8932,84.0648
102.8744,83.9385
102.8674,83.7735
102.8695,83.6756
103.0634,83.6756
103.0669,83.6861
103.0775,83.6896
103.7970,83.6896
103.8075,83.6861
103.8110,83.6756
103.7942,83.4963
103.7661,83.4168
103.7247,83.3508
103.6696,83.2963
103.6035,83.2559
103.5257,83.2308
103.4331,83.2220
103.3421,83.2306
103.2666,83.2547
103.2034,83.2934
103.1509,83.3459
103.1119,83.4092
103.0859,83.4852
103.0730,83.5510
103.0634,83.6756
102.8695,83.6756
102.8716,83.5818
102.8927,83.4488
102.9357,83.3344
102.9992,83.2382
103.0844,83.1575
103.1854,83.0977
103.3005,83.0611
103.4331,83.0483
Z" /> 
</g></g>
<g style="fill:none; 
stroke:#A4907E; stroke-width:0.1524; stroke-opacity:1; 
stroke-linecap:round; stroke-linejoin:round;">
<text x="107.3150" y="57.9876"
textLength="22.3452" font-size="2.6666" lengthAdjust="spacingAndGlyphs"
text-anchor="middle" opacity="0" stroke-opacity="0">Post-shutter delay</text>
<g class="stroked-text"><desc>Post-shutter delay</desc>
<path style="fill:#A4907E; fill-opacity:1.0000; stroke:none;fill-rule:evenodd;"
d="M 97.2718,55.8649
97.3764,55.8940
97.4672,55.9409
97.5465,56.0060
97.6110,56.0859
97.6575,56.1772
97.6863,56.2821
97.6963,56.4035
97.6861,56.5233
97.6568,56.6268
97.6096,56.7167
97.5437,56.7955
97.4632,56.8593
97.3711,56.9053
97.2650,56.9339
97.1419,56.9439
96.5987,56.9439
96.5883,56.9474
96.5848,56.9579
96.5848,57.7812
96.5757,57.8085
96.5484,57.8176
96.4224,57.8176
96.3951,57.8085
96.3860,57.7812
96.3860,56.0424
96.5848,56.0424
96.5848,56.7647
96.5883,56.7753
96.5987,56.7788
97.1280,56.7788
97.2339,56.7668
97.3221,56.7326
97.3967,56.6766
97.4534,56.6027
97.4881,56.5140
97.5003,56.4063
97.4881,56.2968
97.4533,56.2068
97.3967,56.1320
97.3220,56.0751
97.2338,56.0405
97.1280,56.0283
96.5987,56.0283
96.5883,56.0318
96.5848,56.0424
96.3860,56.0424
96.3860,55.8912
96.3951,55.8638
96.4224,55.8547
97.1503,55.8547
Z" /> 
<path style="fill:#A4907E; fill-opacity:1.0000; stroke:none;fill-rule:evenodd;"
d="M 98.6467,56.3904
98.7609,56.4252
98.8615,56.4820
98.9474,56.5590
99.0128,56.6514
99.0589,56.7619
99.0872,56.9061
99.0981,57.1063
99.0870,57.3109
99.0589,57.4507
99.0109,57.5650
98.9444,57.6593
98.8587,57.7363
98.7581,57.7932
98.6448,57.8279
98.5157,57.8399
98.3828,57.8278
98.2678,57.7929
98.1671,57.7363
98.0814,57.6593
98.0149,57.5650
97.9668,57.4507
97.9387,57.3109
97.9278,57.1091
98.1293,57.1091
98.1362,57.2957
98.1517,57.3920
98.1801,57.4713
98.2223,57.5374
98.2791,57.5922
98.3469,57.6328
98.4249,57.6577
98.5157,57.6664
98.6027,57.6578
98.6785,57.6329
98.7452,57.5922
98.8014,57.5375
98.8442,57.4714
98.8741,57.3920
98.8898,57.2894
98.8964,57.1091
98.8896,56.9225
98.8741,56.8263
98.8457,56.7470
98.8035,56.6810
98.7467,56.6263
98.6789,56.5857
98.6009,56.5607
98.5100,56.5520
98.4231,56.5606
98.3473,56.5855
98.2805,56.6263
98.2243,56.6809
98.1816,56.7469
98.1517,56.8263
98.1362,56.9225
98.1293,57.1091
97.9278,57.1091
97.9276,57.1063
97.9379,56.9042
97.9640,56.7647
98.0120,56.6524
98.0784,56.5590
98.1643,56.4820
98.2650,56.4255
98.3809,56.3906
98.5157,56.3783
Z" /> 
<path style="fill:#A4907E; fill-opacity:1.0000; stroke:none;fill-rule:evenodd;"
d="M 99.9652,57.8316
99.8142,57.8184
99.6867,57.7812
99.5764,57.7206
99.4991,57.6468
99.4623,57.5881
99.4406,57.5260
99.4333,57.4591
99.4333,57.4340
99.4424,57.4067
99.4697,57.3976
99.5901,57.3976
99.6167,57.4045
99.6265,57.4227
99.6265,57.4480
99.6363,57.5050
99.6666,57.5579
99.7216,57.6090
99.7883,57.6461
99.8675,57.6693
99.9624,57.6776
100.0576,57.6695
100.1348,57.6471
100.1976,57.6118
100.2485,57.5627
100.2775,57.5079
100.2873,57.4452
100.2758,57.3807
100.2425,57.3304
100.1933,57.2909
100.1333,57.2604
99.9401,57.1960
99.7909,57.1489
99.6824,57.1063
99.5889,57.0525
99.5117,56.9818
99.4735,56.9251
99.4500,56.8583
99.4417,56.7788
99.4508,56.6924
99.4772,56.6175
99.5206,56.5516
99.5830,56.4931
99.6825,56.4360
99.8043,56.3998
99.9541,56.3868
100.1024,56.3999
100.2271,56.4372
100.3024,56.4763
100.3628,56.5225
100.4104,56.5758
100.4463,56.6372
100.4676,56.7025
100.4749,56.7732
100.4658,56.8005
100.4385,56.8096
100.3237,56.8096
100.2946,56.8036
100.2873,56.7899
100.2873,56.7732
100.2776,56.7142
100.2483,56.6617
100.1963,56.6136
100.1325,56.5793
100.0522,56.5572
99.9513,56.5492
99.8575,56.5563
99.7821,56.5760
99.7216,56.6066
99.6729,56.6504
99.6446,56.7022
99.6349,56.7647
99.6442,56.8237
99.6711,56.8713
99.7175,56.9104
99.8130,56.9566
99.9765,57.0112
100.1306,57.0577
100.2396,57.0980
100.3335,57.1497
100.4133,57.2211
100.4530,57.2790
100.4774,57.3480
100.4861,57.4312
100.4769,57.5190
100.4506,57.5953
100.4071,57.6626
100.3447,57.7224
100.2449,57.7808
100.1205,57.8181
Z" /> 
<path style="fill:#A4907E; fill-opacity:1.0000; stroke:none;fill-rule:evenodd;"
d="M 101.4824,56.5295
101.4733,56.5568
101.4460,56.5659
101.1408,56.5659
101.1302,56.5694
101.1267,56.5800
101.1267,57.3976
101.1348,57.4852
101.1558,57.5457
101.1869,57.5866
101.2305,57.6151
101.2916,57.6340
101.3760,57.6412
101.4375,57.6412
101.4648,57.6503
101.4739,57.6776
101.4739,57.7755
101.4648,57.8035
101.4375,57.8147
101.3423,57.8147
101.2095,57.8049
101.1103,57.7786
101.0371,57.7391
100.9949,57.6976
100.9628,57.6402
100.9415,57.5626
100.9335,57.4591
100.9335,56.5800
100.9300,56.5694
100.9195,56.5659
100.7599,56.5659
100.7326,56.5568
100.7235,56.5295
100.7235,56.4371
100.7326,56.4098
100.7599,56.4007
100.9195,56.4007
100.9300,56.3972
100.9335,56.3868
100.9335,56.0732
100.9426,56.0459
100.9699,56.0368
101.0903,56.0368
101.1176,56.0459
101.1267,56.0732
101.1267,56.3868
101.1302,56.3972
101.1408,56.4007
101.4460,56.4007
101.4733,56.4098
101.4824,56.4371
Z" /> 
<path style="fill:#A4907E; fill-opacity:1.0000; stroke:none;fill-rule:evenodd;"
d="M 101.7453,57.0335
101.7180,57.0244
101.7089,56.9971
101.7089,56.8964
101.7180,56.8691
101.7453,56.8600
102.5573,56.8600
102.5846,56.8691
102.5937,56.8964
102.5937,56.9971
102.5846,57.0244
102.5573,57.0335
Z" /> 
<path style="fill:#A4907E; fill-opacity:1.0000; stroke:none;fill-rule:evenodd;"
d="M 103.3905,57.8316
103.2394,57.8184
103.1119,57.7812
103.0017,57.7206
102.9244,57.6468
102.8875,57.5881
102.8658,57.5260
102.8585,57.4591
102.8585,57.4340
102.8676,57.4067
102.8949,57.3976
103.0153,57.3976
103.0420,57.4045
103.0517,57.4227
103.0517,57.4480
103.0616,57.5050
103.0919,57.5579
103.1469,57.6090
103.2135,57.6461
103.2928,57.6693
103.3877,57.6776
103.4828,57.6695
103.5600,57.6471
103.6229,57.6118
103.6737,57.5627
103.7028,57.5079
103.7125,57.4452
103.7010,57.3807
103.6677,57.3304
103.6186,57.2909
103.5585,57.2604
103.3653,57.1960
103.2161,57.1489
103.1077,57.1063
103.0142,57.0525
102.9369,56.9818
102.8987,56.9251
102.8752,56.8583
102.8670,56.7788
102.8761,56.6924
102.9024,56.6175
102.9459,56.5516
103.0083,56.4931
103.1077,56.4360
103.2296,56.3998
103.3794,56.3868
103.5276,56.3999
103.6523,56.4372
103.7276,56.4763
103.7880,56.5225
103.8356,56.5758
103.8716,56.6372
103.8929,56.7025
103.9001,56.7732
103.8910,56.8005
103.8637,56.8096
103.7489,56.8096
103.7199,56.8036
103.7125,56.7899
103.7125,56.7732
103.7028,56.7142
103.6736,56.6617
103.6216,56.6136
103.5578,56.5793
103.4775,56.5572
103.3766,56.5492
103.2828,56.5563
103.2074,56.5760
103.1469,56.6066
103.0981,56.6504
103.0699,56.7022
103.0602,56.7647
103.0695,56.8237
103.0964,56.8713
103.1427,56.9104
103.2383,56.9566
103.4017,57.0112
103.5559,57.0577
103.6649,57.0980
103.7588,57.1497
103.8386,57.2211
103.8782,57.2790
103.9027,57.3480
103.9113,57.4312
103.9022,57.5190
103.8758,57.5953
103.8323,57.6626
103.7699,57.7224
103.6701,57.7808
103.5458,57.8181
Z" /> 
<path style="fill:#A4907E; fill-opacity:1.0000; stroke:none;fill-rule:evenodd;"
d="M 104.8619,56.3812
104.9712,56.3901
105.0649,56.4155
105.1458,56.4563
105.2161,56.5128
105.2732,56.5824
105.3145,56.6629
105.3402,56.7563
105.3492,56.8655
105.3492,57.7812
105.3401,57.8085
105.3128,57.8176
105.1868,57.8176
105.1595,57.8085
105.1504,57.7812
105.1504,56.9047
105.1394,56.8039
105.1084,56.7208
105.0579,56.6514
104.9910,56.5982
104.9119,56.5660
104.8171,56.5547
104.7250,56.5642
104.6471,56.5915
104.5806,56.6359
104.5272,56.6953
104.4914,56.7654
104.4727,56.8488
104.4727,57.7812
104.4636,57.8085
104.4363,57.8176
104.3103,57.8176
104.2830,57.8085
104.2739,57.7812
104.2739,55.8939
104.2830,55.8666
104.3103,55.8575
104.4363,55.8575
104.4636,55.8666
104.4727,55.8939
104.4727,56.5408
104.4784,56.5533
104.4868,56.5492
104.5546,56.4772
104.6374,56.4253
104.7383,56.3928
Z" /> 
<path style="fill:#A4907E; fill-opacity:1.0000; stroke:none;fill-rule:evenodd;"
d="M 106.6392,56.4371
106.6483,56.4098
106.6756,56.4007
106.8016,56.4007
106.8289,56.4098
106.8380,56.4371
106.8380,57.7812
106.8289,57.8085
106.8016,57.8176
106.6756,57.8176
106.6483,57.8085
106.6392,57.7812
106.6392,57.6748
106.6336,57.6636
106.6224,57.6692
106.5559,57.7412
106.4745,57.7930
106.3750,57.8255
106.2528,57.8371
106.1227,57.8232
106.0050,57.7825
105.9342,57.7403
105.8748,57.6879
105.8257,57.6244
105.7900,57.5527
105.7678,57.4703
105.7600,57.3751
105.7600,56.4371
105.7691,56.4098
105.7964,56.4007
105.9224,56.4007
105.9497,56.4098
105.9588,56.4371
105.9588,57.3164
105.9696,57.4192
105.9998,57.5023
106.0484,57.5698
106.1135,57.6209
106.1933,57.6524
106.2920,57.6636
106.3944,57.6522
106.4775,57.6202
106.5454,57.5684
106.5966,57.4998
106.6281,57.4171
106.6392,57.3164
Z" /> 
<path style="fill:#A4907E; fill-opacity:1.0000; stroke:none;fill-rule:evenodd;"
d="M 107.9186,56.5295
107.9095,56.5568
107.8822,56.5659
107.5771,56.5659
107.5665,56.5694
107.5630,56.5800
107.5630,57.3976
107.5711,57.4852
107.5921,57.5457
107.6232,57.5866
107.6668,57.6151
107.7279,57.6340
107.8123,57.6412
107.8738,57.6412
107.9011,57.6503
107.9102,57.6776
107.9102,57.7755
107.9011,57.8035
107.8738,57.8147
107.7786,57.8147
107.6458,57.8049
107.5466,57.7786
107.4734,57.7391
107.4312,57.6976
107.3991,57.6402
107.3778,57.5626
107.3698,57.4591
107.3698,56.5800
107.3663,56.5694
107.3558,56.5659
107.1962,56.5659
107.1689,56.5568
107.1598,56.5295
107.1598,56.4371
107.1689,56.4098
107.1962,56.4007
107.3558,56.4007
107.3663,56.3972
107.3698,56.3868
107.3698,56.0732
107.3789,56.0459
107.4062,56.0368
107.5266,56.0368
107.5539,56.0459
107.5630,56.0732
107.5630,56.3868
107.5665,56.3972
107.5771,56.4007
107.8822,56.4007
107.9095,56.4098
107.9186,56.4371
Z" /> 
<path style="fill:#A4907E; fill-opacity:1.0000; stroke:none;fill-rule:evenodd;"
d="M 108.9366,56.5295
108.9275,56.5568
108.9003,56.5659
108.5951,56.5659
108.5845,56.5694
108.5810,56.5800
108.5810,57.3976
108.5891,57.4852
108.6101,57.5457
108.6412,57.5866
108.6848,57.6151
108.7459,57.6340
108.8303,57.6412
108.8918,57.6412
108.9191,57.6503
108.9282,57.6776
108.9282,57.7755
108.9191,57.8035
108.8918,57.8147
108.7966,57.8147
108.6638,57.8049
108.5646,57.7786
108.4914,57.7391
108.4492,57.6976
108.4171,57.6402
108.3958,57.5626
108.3878,57.4591
108.3878,56.5800
108.3843,56.5694
108.3738,56.5659
108.2142,56.5659
108.1869,56.5568
108.1778,56.5295
108.1778,56.4371
108.1869,56.4098
108.2142,56.4007
108.3738,56.4007
108.3843,56.3972
108.3878,56.3868
108.3878,56.0732
108.3969,56.0459
108.4242,56.0368
108.5446,56.0368
108.5719,56.0459
108.5810,56.0732
108.5810,56.3868
108.5845,56.3972
108.5951,56.4007
108.9003,56.4007
108.9275,56.4098
108.9366,56.4371
Z" /> 
<path style="fill:#A4907E; fill-opacity:1.0000; stroke:none;fill-rule:evenodd;"
d="M 109.9234,56.3872
110.0255,56.4121
110.1114,56.4513
110.1837,56.5044
110.2628,56.5964
110.3224,56.7131
110.3616,56.8600
110.3734,56.9621
110.3784,57.1399
110.3693,57.1672
110.3420,57.1763
109.4460,57.1763
109.4355,57.1798
109.4320,57.1903
109.4370,57.3210
109.4488,57.3948
109.4774,57.4739
109.5205,57.5400
109.5790,57.5950
109.6487,57.6352
109.7312,57.6603
109.8296,57.6692
109.9492,57.6528
110.0466,57.6118
110.1271,57.5467
110.1880,57.4591
110.2076,57.4396
110.2357,57.4424
110.3169,57.4871
110.3381,57.5095
110.3336,57.5347
110.2813,57.6217
110.2145,57.6955
110.1320,57.7573
110.0392,57.8023
109.9337,57.8302
109.8127,57.8399
109.6850,57.8289
109.5760,57.7977
109.4824,57.7476
109.4018,57.6785
109.3377,57.5934
109.2892,57.4899
109.2617,57.3948
109.2430,57.2685
109.2360,57.1035
109.2381,57.0056
109.4320,57.0056
109.4355,57.0161
109.4460,57.0196
110.1656,57.0196
110.1761,57.0161
110.1796,57.0056
110.1627,56.8263
110.1346,56.7468
110.0932,56.6808
110.0382,56.6263
109.9721,56.5859
109.8942,56.5608
109.8016,56.5520
109.7107,56.5606
109.6352,56.5847
109.5719,56.6234
109.5195,56.6759
109.4805,56.7392
109.4544,56.8152
109.4416,56.8810
109.4320,57.0056
109.2381,57.0056
109.2401,56.9118
109.2612,56.7788
109.3042,56.6644
109.3678,56.5682
109.4530,56.4875
109.5540,56.4277
109.6690,56.3911
109.8016,56.3783
Z" /> 
<path style="fill:#A4907E; fill-opacity:1.0000; stroke:none;fill-rule:evenodd;"
d="M 111.3440,56.3868
111.4314,56.3958
111.4980,56.4204
111.5167,56.4367
111.5176,56.4652
111.4896,56.5884
111.4745,56.6106
111.4448,56.6107
111.3875,56.5992
111.3075,56.5967
111.2150,56.6115
111.1357,56.6472
111.0667,56.7045
111.0145,56.7776
110.9827,56.8628
110.9716,56.9636
110.9716,57.7812
110.9625,57.8085
110.9352,57.8176
110.8091,57.8176
110.7818,57.8085
110.7727,57.7812
110.7727,56.4371
110.7818,56.4098
110.8091,56.4007
110.9352,56.4007
110.9625,56.4098
110.9716,56.4371
110.9716,56.5939
110.9757,56.6066
110.9856,56.5995
111.0532,56.5091
111.1353,56.4428
111.2318,56.4011
Z" /> 
<path style="fill:#A4907E; fill-opacity:1.0000; stroke:none;fill-rule:evenodd;"
d="M 113.4101,55.8666
113.4192,55.8939
113.4192,57.7812
113.4101,57.8085
113.3828,57.8176
113.2568,57.8176
113.2295,57.8085
113.2204,57.7812
113.2204,57.6748
113.2148,57.6650
113.2036,57.6692
113.1346,57.7413
113.0510,57.7952
112.9560,57.8284
112.8480,57.8399
112.7207,57.8280
112.6122,57.7941
112.5190,57.7391
112.4402,57.6647
112.3793,57.5741
112.3357,57.4647
112.3077,57.3256
112.2964,57.1091
112.4951,57.1091
112.5064,57.3150
112.5221,57.3865
112.5456,57.4480
112.5740,57.5110
112.6134,57.5637
112.6645,57.6076
112.7240,57.6398
112.7910,57.6595
112.8676,57.6664
112.9403,57.6594
113.0021,57.6397
113.0552,57.6076
113.1204,57.5398
113.1672,57.4507
113.1884,57.3917
113.2036,57.3192
113.2148,57.1091
113.2036,56.8979
113.1878,56.8238
113.1644,56.7619
113.1196,56.6758
113.0537,56.6094
112.9999,56.5779
112.9394,56.5587
112.8704,56.5520
112.7646,56.5665
112.6772,56.6081
112.6073,56.6730
112.5596,56.7563
112.5309,56.8209
112.5105,56.8950
112.4996,56.9795
112.4951,57.1091
112.2964,57.1091
112.3063,56.8915
112.3300,56.7619
112.3740,56.6490
112.4354,56.5562
112.5148,56.4806
112.6091,56.4249
112.7189,56.3904
112.8480,56.3783
112.9539,56.3894
113.0496,56.4218
113.1343,56.4747
113.2036,56.5464
113.2148,56.5520
113.2204,56.5408
113.2204,55.8939
113.2295,55.8666
113.2568,55.8575
113.3828,55.8575
Z" /> 
<path style="fill:#A4907E; fill-opacity:1.0000; stroke:none;fill-rule:evenodd;"
d="M 114.5112,56.3872
114.6134,56.4121
114.6993,56.4513
114.7716,56.5044
114.8506,56.5964
114.9102,56.7131
114.9494,56.8600
114.9612,56.9621
114.9663,57.1399
114.9572,57.1672
114.9299,57.1763
114.0339,57.1763
114.0233,57.1798
114.0198,57.1903
114.0249,57.3210
114.0367,57.3948
114.0652,57.4739
114.1084,57.5400
114.1669,57.5950
114.2366,57.6352
114.3191,57.6603
114.4175,57.6692
114.5371,57.6528
114.6345,57.6118
114.7150,57.5467
114.7759,57.4591
114.7954,57.4396
114.8235,57.4424
114.9047,57.4871
114.9259,57.5095
114.9214,57.5347
114.8692,57.6217
114.8024,57.6955
114.7198,57.7573
114.6270,57.8023
114.5215,57.8302
114.4006,57.8399
114.2728,57.8289
114.1639,57.7977
114.0703,57.7476
113.9897,57.6785
113.9255,57.5934
113.8771,57.4899
113.8496,57.3948
113.8308,57.2685
113.8238,57.1035
113.8259,57.0056
114.0198,57.0056
114.0233,57.0161
114.0339,57.0196
114.7534,57.0196
114.7639,57.0161
114.7675,57.0056
114.7506,56.8263
114.7225,56.7468
114.6811,56.6808
114.6260,56.6263
114.5600,56.5859
114.4821,56.5608
114.3895,56.5520
114.2986,56.5606
114.2230,56.5847
114.1598,56.6234
114.1073,56.6759
114.0683,56.7392
114.0423,56.8152
114.0295,56.8810
114.0198,57.0056
113.8259,57.0056
113.8280,56.9118
113.8491,56.7788
113.8921,56.6644
113.9556,56.5682
114.0408,56.4875
114.1418,56.4277
114.2569,56.3911
114.3895,56.3783
Z" /> 
<path style="fill:#A4907E; fill-opacity:1.0000; stroke:none;fill-rule:evenodd;"
d="M 115.3970,57.8176
115.3697,57.8085
115.3606,57.7812
115.3606,55.8939
115.3697,55.8666
115.3970,55.8575
115.5230,55.8575
115.5503,55.8666
115.5594,55.8939
115.5594,57.7812
115.5503,57.8085
115.5230,57.8176
Z" /> 
<path style="fill:#A4907E; fill-opacity:1.0000; stroke:none;fill-rule:evenodd;"
d="M 116.6255,56.3875
116.7303,56.4130
116.8174,56.4531
116.8899,56.5072
116.9499,56.5759
116.9928,56.6543
117.0193,56.7444
117.0285,56.8488
117.0285,57.7812
117.0194,57.8085
116.9921,57.8176
116.8661,57.8176
116.8388,57.8085
116.8297,57.7812
116.8297,57.6804
116.8241,57.6692
116.8130,57.6748
116.7289,57.7455
116.6239,57.7980
116.5069,57.8292
116.3762,57.8399
116.2489,57.8280
116.1404,57.7941
116.0472,57.7391
115.9905,57.6840
115.9494,57.6162
115.9235,57.5332
115.9142,57.4312
115.9153,57.4199
116.1130,57.4199
116.1233,57.4977
116.1522,57.5584
116.1997,57.6062
116.2605,57.6402
116.3333,57.6616
116.4210,57.6692
116.5285,57.6596
116.6233,57.6319
116.7078,57.5866
116.7765,57.5239
116.8162,57.4509
116.8297,57.3640
116.8297,57.1483
116.8262,57.1379
116.8158,57.1344
116.5217,57.1344
116.4005,57.1438
116.3031,57.1697
116.2250,57.2100
116.1623,57.2676
116.1256,57.3363
116.1130,57.4199
115.9153,57.4199
115.9242,57.3291
115.9531,57.2416
116.0001,57.1656
116.0667,57.0994
116.1453,57.0487
116.2400,57.0107
116.3540,56.9863
116.4910,56.9776
116.8158,56.9776
116.8262,56.9741
116.8297,56.9636
116.8297,56.8600
116.8201,56.7679
116.7931,56.6941
116.7499,56.6346
116.6913,56.5910
116.6111,56.5626
116.5022,56.5520
116.3784,56.5656
116.2865,56.6024
116.2367,56.6410
116.2018,56.6872
116.1802,56.7424
116.1654,56.7662
116.1381,56.7704
116.0009,56.7535
115.9733,56.7421
115.9673,56.7227
115.9984,56.6276
116.0547,56.5453
116.1395,56.4736
116.2397,56.4221
116.3583,56.3898
116.4994,56.3783
Z" /> 
<path style="fill:#A4907E; fill-opacity:1.0000; stroke:none;fill-rule:evenodd;"
d="M 117.3577,58.3776
117.3439,58.3702
117.3380,58.3412
117.3380,58.2431
117.3439,58.2141
117.3577,58.2068
117.3772,58.2068
117.4796,58.1980
117.5466,58.1760
117.6007,58.1353
117.6501,58.0668
117.6916,57.9770
117.7440,57.8260
117.7440,57.8091
117.2736,56.4427
117.2708,56.4288
117.2806,56.4091
117.3044,56.4007
117.4361,56.4007
117.4635,56.4085
117.4781,56.4316
117.8393,57.5291
117.8476,57.5403
117.8560,57.5291
118.2088,56.4316
118.2230,56.4083
118.2480,56.4007
118.3825,56.4007
118.4105,56.4119
118.4133,56.4427
117.8980,57.9408
117.8280,58.1147
117.7720,58.2179
117.7048,58.2948
117.6250,58.3426
117.5274,58.3676
117.3772,58.3776
Z" /> 
</g></g>
<g style="fill:none; 
stroke:#A4907E; stroke-width:0.1524; stroke-opacity:1; 
stroke-linecap:round; stroke-linejoin:round;">
<text x="81.2800" y="52.9076"
textLength="24.4750" font-size="2.6666" lengthAdjust="spacingAndGlyphs"
text-anchor="middle" opacity="0" stroke-opacity="0">Shutter pulse length</text>
<g class="stroked-text"><desc>Shutter pulse length</desc>
<path style="fill:#A4907E; fill-opacity:1.0000; stroke:none;fill-rule:evenodd;"
d="M 69.8769,52.7599
69.7418,52.7522
69.6235,52.7303
69.5198,52.6955
69.4237,52.6452
69.3461,52.5842
69.2846,52.5122
69.2391,52.4295
69.2115,52.3383
69.2021,52.2364
69.2021,52.1580
69.2112,52.1307
69.2385,52.1216
69.3589,52.1216
69.3862,52.1307
69.3953,52.1580
69.3953,52.2251
69.4037,52.3015
69.4284,52.3692
69.4696,52.4301
69.5296,52.4856
69.6243,52.5394
69.7427,52.5739
69.8908,52.5864
70.0321,52.5747
70.1387,52.5432
70.2185,52.4954
70.2807,52.4281
70.3176,52.3486
70.3305,52.2531
70.3171,52.1609
70.2787,52.0852
70.2168,52.0203
70.1204,51.9537
70.0014,51.8920
69.8152,51.8108
69.6180,51.7272
69.4890,51.6637
69.3832,51.5909
69.3015,51.5013
69.2628,51.4318
69.2386,51.3493
69.2300,51.2507
69.2410,51.1359
69.2723,51.0389
69.3228,50.9562
69.3938,50.8853
69.4782,50.8311
69.5794,50.7905
69.7007,50.7645
69.8460,50.7552
70.0007,50.7654
70.1309,50.7943
70.2406,50.8397
70.3332,50.9007
70.4119,50.9798
70.4671,51.0690
70.5007,51.1704
70.5124,51.2871
70.5124,51.3404
70.5033,51.3677
70.4760,51.3768
70.3528,51.3768
70.3255,51.3677
70.3164,51.3404
70.3164,51.2983
70.3022,51.1960
70.2609,51.1086
70.1904,51.0324
70.1008,50.9774
69.9847,50.9418
69.8349,50.9288
69.7044,50.9392
69.6055,50.9673
69.5311,51.0100
69.4736,51.0709
69.4385,51.1476
69.4260,51.2451
69.4396,51.3392
69.4778,51.4118
69.5383,51.4714
69.6262,51.5266
69.9216,51.6540
70.1151,51.7393
70.2521,51.8108
70.3669,51.8929
70.4537,51.9886
70.4949,52.0619
70.5204,52.1464
70.5293,52.2448
70.5181,52.3575
70.4858,52.4555
70.4327,52.5419
70.3571,52.6186
70.2682,52.6775
70.1610,52.7215
70.0321,52.7498
Z" /> 
<path style="fill:#A4907E; fill-opacity:1.0000; stroke:none;fill-rule:evenodd;"
d="M 71.4938,51.3012
71.6030,51.3101
71.6967,51.3355
71.7777,51.3763
71.8479,51.4328
71.9051,51.5024
71.9463,51.5829
71.9720,51.6763
71.9811,51.7855
71.9811,52.7012
71.9720,52.7285
71.9447,52.7376
71.8186,52.7376
71.7913,52.7285
71.7822,52.7012
71.7822,51.8247
71.7713,51.7239
71.7403,51.6408
71.6898,51.5714
71.6228,51.5182
71.5438,51.4860
71.4490,51.4747
71.3568,51.4842
71.2790,51.5115
71.2124,51.5559
71.1590,51.6153
71.1233,51.6854
71.1046,51.7688
71.1046,52.7012
71.0955,52.7285
71.0682,52.7376
70.9422,52.7376
70.9149,52.7285
70.9058,52.7012
70.9058,50.8139
70.9149,50.7866
70.9422,50.7775
71.0682,50.7775
71.0955,50.7866
71.1046,50.8139
71.1046,51.4608
71.1102,51.4733
71.1186,51.4692
71.1865,51.3972
71.2693,51.3453
71.3702,51.3128
Z" /> 
<path style="fill:#A4907E; fill-opacity:1.0000; stroke:none;fill-rule:evenodd;"
d="M 73.2710,51.3571
73.2801,51.3298
73.3074,51.3207
73.4334,51.3207
73.4607,51.3298
73.4698,51.3571
73.4698,52.7012
73.4607,52.7285
73.4334,52.7376
73.3074,52.7376
73.2801,52.7285
73.2710,52.7012
73.2710,52.5948
73.2654,52.5836
73.2543,52.5892
73.1878,52.6612
73.1063,52.7130
73.0068,52.7455
72.8846,52.7571
72.7545,52.7432
72.6368,52.7025
72.5661,52.6603
72.5067,52.6079
72.4576,52.5444
72.4218,52.4727
72.3996,52.3903
72.3919,52.2951
72.3919,51.3571
72.4010,51.3298
72.4283,51.3207
72.5543,51.3207
72.5816,51.3298
72.5907,51.3571
72.5907,52.2364
72.6015,52.3392
72.6317,52.4223
72.6802,52.4898
72.7454,52.5409
72.8252,52.5724
72.9238,52.5836
73.0263,52.5722
73.1093,52.5402
73.1772,52.4884
73.2284,52.4198
73.2599,52.3371
73.2710,52.2364
Z" /> 
<path style="fill:#A4907E; fill-opacity:1.0000; stroke:none;fill-rule:evenodd;"
d="M 74.5505,51.4495
74.5414,51.4768
74.5141,51.4859
74.2089,51.4859
74.1984,51.4894
74.1949,51.5000
74.1949,52.3176
74.2029,52.4052
74.2239,52.4657
74.2551,52.5066
74.2987,52.5351
74.3598,52.5540
74.4441,52.5612
74.5057,52.5612
74.5330,52.5703
74.5421,52.5976
74.5421,52.6955
74.5330,52.7235
74.5057,52.7347
74.4104,52.7347
74.2776,52.7249
74.1784,52.6986
74.1052,52.6591
74.0631,52.6176
74.0310,52.5602
74.0096,52.4826
74.0017,52.3791
74.0017,51.5000
73.9982,51.4894
73.9876,51.4859
73.8280,51.4859
73.8007,51.4768
73.7916,51.4495
73.7916,51.3571
73.8007,51.3298
73.8280,51.3207
73.9876,51.3207
73.9982,51.3172
74.0017,51.3068
74.0017,50.9932
74.0108,50.9659
74.0381,50.9568
74.1585,50.9568
74.1858,50.9659
74.1949,50.9932
74.1949,51.3068
74.1984,51.3172
74.2089,51.3207
74.5141,51.3207
74.5414,51.3298
74.5505,51.3571
Z" /> 
<path style="fill:#A4907E; fill-opacity:1.0000; stroke:none;fill-rule:evenodd;"
d="M 75.5685,51.4495
75.5594,51.4768
75.5321,51.4859
75.2269,51.4859
75.2164,51.4894
75.2129,51.5000
75.2129,52.3176
75.2209,52.4052
75.2419,52.4657
75.2731,52.5066
75.3167,52.5351
75.3778,52.5540
75.4621,52.5612
75.5237,52.5612
75.5510,52.5703
75.5601,52.5976
75.5601,52.6955
75.5510,52.7235
75.5237,52.7347
75.4284,52.7347
75.2956,52.7249
75.1964,52.6986
75.1232,52.6591
75.0811,52.6176
75.0490,52.5602
75.0277,52.4826
75.0197,52.3791
75.0197,51.5000
75.0162,51.4894
75.0056,51.4859
74.8460,51.4859
74.8187,51.4768
74.8096,51.4495
74.8096,51.3571
74.8187,51.3298
74.8460,51.3207
75.0056,51.3207
75.0162,51.3172
75.0197,51.3068
75.0197,50.9932
75.0288,50.9659
75.0561,50.9568
75.1765,50.9568
75.2038,50.9659
75.2129,50.9932
75.2129,51.3068
75.2164,51.3172
75.2269,51.3207
75.5321,51.3207
75.5594,51.3298
75.5685,51.3571
Z" /> 
<path style="fill:#A4907E; fill-opacity:1.0000; stroke:none;fill-rule:evenodd;"
d="M 76.5552,51.3072
76.6573,51.3321
76.7433,51.3713
76.8156,51.4244
76.8946,51.5164
76.9542,51.6331
76.9934,51.7800
77.0052,51.8821
77.0103,52.0599
77.0012,52.0872
76.9739,52.0963
76.0779,52.0963
76.0673,52.0998
76.0638,52.1103
76.0689,52.2410
76.0807,52.3148
76.1092,52.3939
76.1524,52.4600
76.2109,52.5150
76.2806,52.5552
76.3631,52.5803
76.4614,52.5892
76.5811,52.5728
76.6785,52.5318
76.7590,52.4667
76.8199,52.3791
76.8394,52.3596
76.8675,52.3624
76.9487,52.4071
76.9699,52.4295
76.9654,52.4547
76.9132,52.5417
76.8464,52.6155
76.7638,52.6773
76.6710,52.7223
76.5655,52.7502
76.4446,52.7599
76.3168,52.7489
76.2079,52.7177
76.1143,52.6676
76.0336,52.5985
75.9695,52.5134
75.9211,52.4099
75.8936,52.3148
75.8748,52.1885
75.8678,52.0235
75.8699,51.9256
76.0638,51.9256
76.0673,51.9361
76.0779,51.9396
76.7974,51.9396
76.8079,51.9361
76.8114,51.9256
76.7946,51.7463
76.7665,51.6668
76.7251,51.6008
76.6700,51.5463
76.6040,51.5059
76.5261,51.4808
76.4335,51.4720
76.3426,51.4806
76.2670,51.5047
76.2038,51.5434
76.1513,51.5959
76.1123,51.6592
76.0863,51.7352
76.0735,51.8010
76.0638,51.9256
75.8699,51.9256
75.8720,51.8318
75.8931,51.6988
75.9361,51.5844
75.9996,51.4882
76.0848,51.4075
76.1858,51.3477
76.3009,51.3111
76.4335,51.2983
Z" /> 
<path style="fill:#A4907E; fill-opacity:1.0000; stroke:none;fill-rule:evenodd;"
d="M 77.9759,51.3068
78.0632,51.3158
78.1299,51.3404
78.1485,51.3567
78.1494,51.3852
78.1214,51.5084
78.1064,51.5306
78.0766,51.5307
78.0194,51.5192
77.9394,51.5167
77.8468,51.5315
77.7675,51.5672
77.6985,51.6245
77.6463,51.6976
77.6145,51.7828
77.6034,51.8836
77.6034,52.7012
77.5943,52.7285
77.5670,52.7376
77.4410,52.7376
77.4137,52.7285
77.4046,52.7012
77.4046,51.3571
77.4137,51.3298
77.4410,51.3207
77.5670,51.3207
77.5943,51.3298
77.6034,51.3571
77.6034,51.5139
77.6076,51.5266
77.6175,51.5195
77.6851,51.4291
77.7672,51.3628
77.8637,51.3211
Z" /> 
<path style="fill:#A4907E; fill-opacity:1.0000; stroke:none;fill-rule:evenodd;"
d="M 79.6967,51.3103
79.8052,51.3442
79.8984,51.3992
79.9772,51.4737
80.0382,51.5642
80.0819,51.6735
80.1098,51.8126
80.1211,52.0291
80.1112,52.2468
80.0875,52.3763
80.0435,52.4893
79.9820,52.5822
79.9026,52.6578
79.8083,52.7134
79.6986,52.7478
79.5694,52.7599
79.4636,52.7489
79.3678,52.7165
79.2832,52.6637
79.2138,52.5920
79.2026,52.5864
79.1971,52.5976
79.1971,53.2444
79.1880,53.2716
79.1607,53.2807
79.0347,53.2807
79.0074,53.2716
78.9983,53.2444
78.9983,52.0291
79.2027,52.0291
79.2138,52.2406
79.2297,52.3146
79.2530,52.3763
79.2978,52.4626
79.3635,52.5290
79.4174,52.5605
79.4780,52.5797
79.5471,52.5864
79.6529,52.5719
79.7403,52.5304
79.8102,52.4653
79.8579,52.3819
79.8866,52.3175
79.9069,52.2434
79.9178,52.1589
79.9222,52.0291
79.9110,51.8233
79.8953,51.7518
79.8718,51.6904
79.8434,51.6274
79.8040,51.5747
79.7529,51.5309
79.6935,51.4986
79.6265,51.4789
79.5499,51.4720
79.4773,51.4789
79.4154,51.4987
79.3622,51.5309
79.2970,51.5986
79.2502,51.6876
79.2291,51.7466
79.2138,51.8192
79.2027,52.0291
78.9983,52.0291
78.9983,51.3571
79.0074,51.3298
79.0347,51.3207
79.1607,51.3207
79.1880,51.3298
79.1971,51.3571
79.1971,51.4636
79.2026,51.4733
79.2138,51.4692
79.2829,51.3970
79.3665,51.3432
79.4615,51.3098
79.5694,51.2983
Z" /> 
<path style="fill:#A4907E; fill-opacity:1.0000; stroke:none;fill-rule:evenodd;"
d="M 81.3721,51.3571
81.3812,51.3298
81.4085,51.3207
81.5345,51.3207
81.5618,51.3298
81.5709,51.3571
81.5709,52.7012
81.5618,52.7285
81.5345,52.7376
81.4085,52.7376
81.3812,52.7285
81.3721,52.7012
81.3721,52.5948
81.3665,52.5836
81.3553,52.5892
81.2888,52.6612
81.2074,52.7130
81.1079,52.7455
80.9857,52.7571
80.8556,52.7432
80.7379,52.7025
80.6671,52.6603
80.6077,52.6079
80.5586,52.5444
80.5229,52.4727
80.5007,52.3903
80.4929,52.2951
80.4929,51.3571
80.5020,51.3298
80.5293,51.3207
80.6553,51.3207
80.6826,51.3298
80.6917,51.3571
80.6917,52.2364
80.7025,52.3392
80.7327,52.4223
80.7812,52.4898
80.8464,52.5409
80.9262,52.5724
81.0249,52.5836
81.1273,52.5722
81.2104,52.5402
81.2783,52.4884
81.3295,52.4198
81.3609,52.3371
81.3721,52.2364
Z" /> 
<path style="fill:#A4907E; fill-opacity:1.0000; stroke:none;fill-rule:evenodd;"
d="M 82.0523,52.7376
82.0250,52.7285
82.0159,52.7012
82.0159,50.8139
82.0250,50.7866
82.0523,50.7775
82.1783,50.7775
82.2056,50.7866
82.2147,50.8139
82.2147,52.7012
82.2056,52.7285
82.1783,52.7376
Z" /> 
<path style="fill:#A4907E; fill-opacity:1.0000; stroke:none;fill-rule:evenodd;"
d="M 83.1294,52.7516
82.9783,52.7384
82.8508,52.7012
82.7406,52.6406
82.6633,52.5668
82.6264,52.5081
82.6047,52.4460
82.5974,52.3791
82.5974,52.3540
82.6065,52.3267
82.6338,52.3176
82.7542,52.3176
82.7809,52.3245
82.7906,52.3427
82.7906,52.3680
82.8005,52.4250
82.8308,52.4779
82.8858,52.5290
82.9524,52.5661
83.0317,52.5893
83.1266,52.5976
83.2217,52.5895
83.2989,52.5671
83.3618,52.5318
83.4126,52.4827
83.4417,52.4279
83.4514,52.3652
83.4399,52.3007
83.4066,52.2504
83.3575,52.2109
83.2974,52.1804
83.1042,52.1160
82.9550,52.0689
82.8466,52.0263
82.7531,51.9725
82.6758,51.9018
82.6376,51.8451
82.6141,51.7783
82.6059,51.6988
82.6150,51.6124
82.6413,51.5375
82.6848,51.4716
82.7472,51.4131
82.8466,51.3560
82.9685,51.3198
83.1183,51.3068
83.2665,51.3199
83.3912,51.3572
83.4665,51.3963
83.5269,51.4425
83.5745,51.4958
83.6105,51.5572
83.6318,51.6225
83.6390,51.6932
83.6299,51.7205
83.6026,51.7296
83.4878,51.7296
83.4588,51.7236
83.4514,51.7099
83.4514,51.6932
83.4417,51.6342
83.4125,51.5817
83.3605,51.5336
83.2967,51.4993
83.2164,51.4772
83.1155,51.4692
83.0217,51.4763
82.9463,51.4960
82.8858,51.5266
82.8370,51.5704
82.8088,51.6222
82.7991,51.6847
82.8084,51.7437
82.8353,51.7913
82.8816,51.8304
82.9772,51.8766
83.1406,51.9312
83.2948,51.9777
83.4038,52.0180
83.4977,52.0697
83.5775,52.1411
83.6171,52.1990
83.6416,52.2680
83.6502,52.3512
83.6411,52.4390
83.6147,52.5153
83.5712,52.5826
83.5088,52.6424
83.4090,52.7008
83.2847,52.7381
Z" /> 
<path style="fill:#A4907E; fill-opacity:1.0000; stroke:none;fill-rule:evenodd;"
d="M 84.6582,51.3072
84.7604,51.3321
84.8463,51.3713
84.9186,51.4244
84.9976,51.5164
85.0572,51.6331
85.0964,51.7800
85.1082,51.8821
85.1133,52.0599
85.1042,52.0872
85.0769,52.0963
84.1809,52.0963
84.1703,52.0998
84.1668,52.1103
84.1719,52.2410
84.1837,52.3148
84.2122,52.3939
84.2554,52.4600
84.3139,52.5150
84.3836,52.5552
84.4661,52.5803
84.5644,52.5892
84.6841,52.5728
84.7815,52.5318
84.8620,52.4667
84.9229,52.3791
84.9424,52.3596
84.9705,52.3624
85.0517,52.4071
85.0729,52.4295
85.0684,52.4547
85.0162,52.5417
84.9494,52.6155
84.8668,52.6773
84.7740,52.7223
84.6685,52.7502
84.5476,52.7599
84.4198,52.7489
84.3109,52.7177
84.2173,52.6676
84.1366,52.5985
84.0725,52.5134
84.0241,52.4099
83.9966,52.3148
83.9778,52.1885
83.9708,52.0235
83.9729,51.9256
84.1668,51.9256
84.1703,51.9361
84.1809,51.9396
84.9004,51.9396
84.9109,51.9361
84.9144,51.9256
84.8976,51.7463
84.8695,51.6668
84.8281,51.6008
84.7730,51.5463
84.7070,51.5059
84.6291,51.4808
84.5365,51.4720
84.4456,51.4806
84.3700,51.5047
84.3068,51.5434
84.2543,51.5959
84.2153,51.6592
84.1893,51.7352
84.1765,51.8010
84.1668,51.9256
83.9729,51.9256
83.9750,51.8318
83.9961,51.6988
84.0391,51.5844
84.1026,51.4882
84.1878,51.4075
84.2888,51.3477
84.4039,51.3111
84.5365,51.2983
Z" /> 
<path style="fill:#A4907E; fill-opacity:1.0000; stroke:none;fill-rule:evenodd;"
d="M 86.1028,52.7376
86.0755,52.7285
86.0664,52.7012
86.0664,50.8139
86.0755,50.7866
86.1028,50.7775
86.2288,50.7775
86.2561,50.7866
86.2652,50.8139
86.2652,52.7012
86.2561,52.7285
86.2288,52.7376
Z" /> 
<path style="fill:#A4907E; fill-opacity:1.0000; stroke:none;fill-rule:evenodd;"
d="M 87.3605,51.3072
87.4627,51.3321
87.5486,51.3713
87.6209,51.4244
87.6999,51.5164
87.7595,51.6331
87.7987,51.7800
87.8105,51.8821
87.8156,52.0599
87.8065,52.0872
87.7792,52.0963
86.8832,52.0963
86.8726,52.0998
86.8691,52.1103
86.8742,52.2410
86.8860,52.3148
86.9145,52.3939
86.9577,52.4600
87.0162,52.5150
87.0859,52.5552
87.1684,52.5803
87.2668,52.5892
87.3864,52.5728
87.4838,52.5318
87.5643,52.4667
87.6252,52.3791
87.6447,52.3596
87.6728,52.3624
87.7540,52.4071
87.7752,52.4295
87.7707,52.4547
87.7185,52.5417
87.6517,52.6155
87.5691,52.6773
87.4763,52.7223
87.3708,52.7502
87.2499,52.7599
87.1221,52.7489
87.0132,52.7177
86.9196,52.6676
86.8390,52.5985
86.7748,52.5134
86.7264,52.4099
86.6989,52.3148
86.6801,52.1885
86.6731,52.0235
86.6752,51.9256
86.8691,51.9256
86.8726,51.9361
86.8832,51.9396
87.6027,51.9396
87.6132,51.9361
87.6168,51.9256
87.5999,51.7463
87.5718,51.6668
87.5304,51.6008
87.4753,51.5463
87.4093,51.5059
87.3314,51.4808
87.2388,51.4720
87.1479,51.4806
87.0723,51.5047
87.0091,51.5434
86.9566,51.5959
86.9176,51.6592
86.8916,51.7352
86.8788,51.8010
86.8691,51.9256
86.6752,51.9256
86.6773,51.8318
86.6984,51.6988
86.7414,51.5844
86.8049,51.4882
86.8901,51.4075
86.9911,51.3477
87.1062,51.3111
87.2388,51.2983
Z" /> 
<path style="fill:#A4907E; fill-opacity:1.0000; stroke:none;fill-rule:evenodd;"
d="M 88.7979,51.3012
88.9072,51.3101
89.0009,51.3355
89.0818,51.3763
89.1521,51.4328
89.2092,51.5024
89.2504,51.5829
89.2761,51.6763
89.2852,51.7855
89.2852,52.7012
89.2761,52.7285
89.2488,52.7376
89.1228,52.7376
89.0955,52.7285
89.0864,52.7012
89.0864,51.8247
89.0754,51.7239
89.0444,51.6408
88.9939,51.5714
88.9269,51.5182
88.8479,51.4860
88.7531,51.4747
88.6609,51.4842
88.5831,51.5115
88.5165,51.5559
88.4631,51.6153
88.4274,51.6854
88.4087,51.7688
88.4087,52.7012
88.3996,52.7285
88.3723,52.7376
88.2463,52.7376
88.2190,52.7285
88.2099,52.7012
88.2099,51.3571
88.2190,51.3298
88.2463,51.3207
88.3723,51.3207
88.3996,51.3298
88.4087,51.3571
88.4087,51.4608
88.4143,51.4733
88.4228,51.4692
88.4906,51.3972
88.5734,51.3453
88.6743,51.3128
Z" /> 
<path style="fill:#A4907E; fill-opacity:1.0000; stroke:none;fill-rule:evenodd;"
d="M 90.3196,51.3092
90.4197,51.3400
90.5040,51.3893
90.5751,51.4580
90.5864,51.4636
90.5920,51.4523
90.5920,51.3571
90.6011,51.3298
90.6284,51.3207
90.7544,51.3207
90.7817,51.3298
90.7908,51.3571
90.7908,52.6899
90.7777,52.8460
90.7416,52.9706
90.6852,53.0701
90.6087,53.1491
90.5149,53.2101
90.4034,53.2555
90.2708,53.2845
90.1132,53.2948
90.0235,53.2920
89.9962,53.2808
89.9871,53.2528
89.9927,53.1408
90.0020,53.1126
90.0291,53.1071
90.1830,53.1059
90.3015,53.0889
90.3915,53.0596
90.4590,53.0203
90.5144,52.9652
90.5556,52.8936
90.5822,52.8018
90.5920,52.6843
90.5920,52.5864
90.5864,52.5751
90.5751,52.5807
90.5049,52.6524
90.4226,52.7034
90.3259,52.7349
90.2112,52.7460
90.0929,52.7348
89.9859,52.7022
89.8877,52.6480
89.8045,52.5743
89.7419,52.4829
89.6988,52.3707
89.6751,52.2419
89.6652,52.0291
89.6654,52.0235
89.8639,52.0235
89.8726,52.2122
89.8920,52.3063
89.9181,52.3805
89.9583,52.4448
90.0138,52.5010
90.0799,52.5433
90.1551,52.5690
90.2420,52.5779
90.3306,52.5690
90.4047,52.5435
90.4673,52.5023
90.5188,52.4473
90.5555,52.3835
90.5780,52.3091
90.5892,52.2056
90.5920,52.0263
90.5892,51.8346
90.5751,51.7436
90.5527,51.6692
90.5161,51.6049
90.4645,51.5491
90.4019,51.5069
90.3287,51.4811
90.2420,51.4720
90.1570,51.4808
90.0836,51.5061
90.0194,51.5476
89.9651,51.6025
89.9228,51.6674
89.8920,51.7436
89.8723,51.8458
89.8639,52.0235
89.6654,52.0235
89.6722,51.8220
89.6833,51.7405
89.7016,51.6707
89.7448,51.5649
89.8052,51.4756
89.8836,51.4006
89.9759,51.3444
90.0803,51.3102
90.2000,51.2983
Z" /> 
<path style="fill:#A4907E; fill-opacity:1.0000; stroke:none;fill-rule:evenodd;"
d="M 91.8507,51.4495
91.8416,51.4768
91.8143,51.4859
91.5091,51.4859
91.4986,51.4894
91.4951,51.5000
91.4951,52.3176
91.5031,52.4052
91.5241,52.4657
91.5553,52.5066
91.5989,52.5351
91.6600,52.5540
91.7443,52.5612
91.8059,52.5612
91.8332,52.5703
91.8423,52.5976
91.8423,52.6955
91.8332,52.7235
91.8059,52.7347
91.7106,52.7347
91.5778,52.7249
91.4786,52.6986
91.4054,52.6591
91.3633,52.6176
91.3312,52.5602
91.3099,52.4826
91.3019,52.3791
91.3019,51.5000
91.2984,51.4894
91.2878,51.4859
91.1282,51.4859
91.1009,51.4768
91.0918,51.4495
91.0918,51.3571
91.1009,51.3298
91.1282,51.3207
91.2878,51.3207
91.2984,51.3172
91.3019,51.3068
91.3019,50.9932
91.3110,50.9659
91.3383,50.9568
91.4587,50.9568
91.4860,50.9659
91.4951,50.9932
91.4951,51.3068
91.4986,51.3172
91.5091,51.3207
91.8143,51.3207
91.8416,51.3298
91.8507,51.3571
Z" /> 
<path style="fill:#A4907E; fill-opacity:1.0000; stroke:none;fill-rule:evenodd;"
d="M 92.8211,51.3012
92.9303,51.3101
93.0240,51.3355
93.1050,51.3763
93.1752,51.4328
93.2323,51.5024
93.2736,51.5829
93.2993,51.6763
93.3083,51.7855
93.3083,52.7012
93.2992,52.7285
93.2720,52.7376
93.1459,52.7376
93.1186,52.7285
93.1095,52.7012
93.1095,51.8247
93.0986,51.7239
93.0675,51.6408
93.0171,51.5714
92.9501,51.5182
92.8710,51.4860
92.7763,51.4747
92.6841,51.4842
92.6063,51.5115
92.5397,51.5559
92.4863,51.6153
92.4505,51.6854
92.4319,51.7688
92.4319,52.7012
92.4228,52.7285
92.3955,52.7376
92.2695,52.7376
92.2422,52.7285
92.2331,52.7012
92.2331,50.8139
92.2422,50.7866
92.2695,50.7775
92.3955,50.7775
92.4228,50.7866
92.4319,50.8139
92.4319,51.4608
92.4375,51.4733
92.4459,51.4692
92.5137,51.3972
92.5966,51.3453
92.6974,51.3128
Z" /> 
</g></g>
<g style="fill:none; 
stroke:#A4907E; stroke-width:0.1524; stroke-opacity:1; 
stroke-linecap:round; stroke-linejoin:round;">
<text x="83.1850" y="84.6576"
textLength="6.9990" font-size="2.6666" lengthAdjust="spacingAndGlyphs"
text-anchor="middle" opacity="0" stroke-opacity="0">green</text>
<g class="stroked-text"><desc>green</desc>
<path style="fill:#A4907E; fill-opacity:1.0000; stroke:none;fill-rule:evenodd;"
d="M 80.5107,83.0592
80.6107,83.0900
80.6950,83.1393
80.7662,83.2080
80.7775,83.2136
80.7831,83.2023
80.7831,83.1071
80.7922,83.0798
80.8195,83.0707
80.9455,83.0707
80.9728,83.0798
80.9819,83.1071
80.9819,84.4399
80.9688,84.5960
80.9327,84.7206
80.8763,84.8201
80.7998,84.8991
80.7060,84.9601
80.5944,85.0055
80.4619,85.0345
80.3042,85.0448
80.2146,85.0420
80.1873,85.0308
80.1782,85.0028
80.1838,84.8908
80.1931,84.8626
80.2202,84.8571
80.3741,84.8559
80.4925,84.8389
80.5826,84.8096
80.6501,84.7703
80.7055,84.7152
80.7467,84.6436
80.7733,84.5518
80.7831,84.4343
80.7831,84.3364
80.7775,84.3251
80.7662,84.3307
80.6960,84.4024
80.6137,84.4534
80.5170,84.4849
80.4023,84.4960
80.2840,84.4848
80.1770,84.4522
80.0788,84.3980
79.9956,84.3243
79.9330,84.2329
79.8899,84.1207
79.8661,83.9919
79.8563,83.7791
79.8565,83.7735
80.0550,83.7735
80.0637,83.9622
80.0831,84.0563
80.1091,84.1305
80.1494,84.1948
80.2048,84.2510
80.2709,84.2933
80.3462,84.3190
80.4331,84.3279
80.5217,84.3190
80.5958,84.2935
80.6584,84.2523
80.7099,84.1973
80.7465,84.1335
80.7690,84.0591
80.7803,83.9556
80.7831,83.7763
80.7803,83.5846
80.7662,83.4936
80.7438,83.4192
80.7071,83.3549
80.6556,83.2991
80.5930,83.2569
80.5197,83.2311
80.4331,83.2220
80.3481,83.2308
80.2747,83.2561
80.2105,83.2976
80.1562,83.3525
80.1139,83.4174
80.0831,83.4936
80.0634,83.5958
80.0550,83.7735
79.8565,83.7735
79.8633,83.5720
79.8744,83.4905
79.8927,83.4207
79.9359,83.3149
79.9963,83.2256
80.0747,83.1506
80.1670,83.0944
80.2714,83.0602
80.3911,83.0483
Z" /> 
<path style="fill:#A4907E; fill-opacity:1.0000; stroke:none;fill-rule:evenodd;"
d="M 81.9774,83.0568
82.0648,83.0658
82.1314,83.0904
82.1501,83.1067
82.1510,83.1352
82.1230,83.2584
82.1079,83.2806
82.0782,83.2807
82.0209,83.2692
81.9409,83.2667
81.8484,83.2815
81.7691,83.3172
81.7001,83.3745
81.6479,83.4476
81.6161,83.5328
81.6050,83.6336
81.6050,84.4512
81.5959,84.4785
81.5686,84.4876
81.4425,84.4876
81.4152,84.4785
81.4061,84.4512
81.4061,83.1071
81.4152,83.0798
81.4425,83.0707
81.5686,83.0707
81.5959,83.0798
81.6050,83.1071
81.6050,83.2639
81.6091,83.2766
81.6190,83.2695
81.6866,83.1791
81.7687,83.1128
81.8652,83.0711
Z" /> 
<path style="fill:#A4907E; fill-opacity:1.0000; stroke:none;fill-rule:evenodd;"
d="M 83.0559,83.0572
83.1580,83.0821
83.2439,83.1213
83.3162,83.1744
83.3953,83.2664
83.4549,83.3831
83.4941,83.5300
83.5059,83.6321
83.5109,83.8099
83.5018,83.8372
83.4745,83.8463
82.5785,83.8463
82.5680,83.8498
82.5645,83.8603
82.5695,83.9910
82.5813,84.0648
82.6099,84.1439
82.6530,84.2100
82.7115,84.2650
82.7812,84.3052
82.8637,84.3303
82.9621,84.3392
83.0817,84.3228
83.1791,84.2818
83.2596,84.2167
83.3205,84.1291
83.3401,84.1096
83.3681,84.1124
83.4494,84.1571
83.4706,84.1795
83.4661,84.2047
83.4138,84.2917
83.3470,84.3655
83.2645,84.4273
83.1717,84.4723
83.0662,84.5002
82.9452,84.5099
82.8175,84.4989
82.7085,84.4677
82.6149,84.4176
82.5343,84.3485
82.4702,84.2634
82.4217,84.1599
82.3942,84.0648
82.3755,83.9385
82.3685,83.7735
82.3706,83.6756
82.5645,83.6756
82.5680,83.6861
82.5785,83.6896
83.2980,83.6896
83.3086,83.6861
83.3121,83.6756
83.2952,83.4963
83.2671,83.4168
83.2257,83.3508
83.1707,83.2963
83.1046,83.2559
83.0267,83.2308
82.9341,83.2220
82.8432,83.2306
82.7677,83.2547
82.7044,83.2934
82.6520,83.3459
82.6130,83.4092
82.5869,83.4852
82.5741,83.5510
82.5645,83.6756
82.3706,83.6756
82.3726,83.5818
82.3937,83.4488
82.4367,83.3344
82.5003,83.2382
82.5855,83.1575
82.6865,83.0977
82.8015,83.0611
82.9341,83.0483
Z" /> 
<path style="fill:#A4907E; fill-opacity:1.0000; stroke:none;fill-rule:evenodd;"
d="M 84.5506,83.0572
84.6528,83.0821
84.7387,83.1213
84.8110,83.1744
84.8900,83.2664
84.9496,83.3831
84.9888,83.5300
85.0007,83.6321
85.0057,83.8099
84.9966,83.8372
84.9693,83.8463
84.0733,83.8463
84.0627,83.8498
84.0592,83.8603
84.0643,83.9910
84.0761,84.0648
84.1046,84.1439
84.1478,84.2100
84.2063,84.2650
84.2760,84.3052
84.3585,84.3303
84.4569,84.3392
84.5765,84.3228
84.6739,84.2818
84.7544,84.2167
84.8153,84.1291
84.8348,84.1096
84.8629,84.1124
84.9441,84.1571
84.9653,84.1795
84.9609,84.2047
84.9086,84.2917
84.8418,84.3655
84.7592,84.4273
84.6664,84.4723
84.5609,84.5002
84.4400,84.5099
84.3122,84.4989
84.2033,84.4677
84.1097,84.4176
84.0291,84.3485
83.9649,84.2634
83.9165,84.1599
83.8890,84.0648
83.8702,83.9385
83.8632,83.7735
83.8653,83.6756
84.0592,83.6756
84.0627,83.6861
84.0733,83.6896
84.7928,83.6896
84.8033,83.6861
84.8069,83.6756
84.7900,83.4963
84.7619,83.4168
84.7205,83.3508
84.6654,83.2963
84.5994,83.2559
84.5215,83.2308
84.4289,83.2220
84.3380,83.2306
84.2624,83.2547
84.1992,83.2934
84.1467,83.3459
84.1077,83.4092
84.0817,83.4852
84.0689,83.5510
84.0592,83.6756
83.8653,83.6756
83.8674,83.5818
83.8885,83.4488
83.9315,83.3344
83.9950,83.2382
84.0802,83.1575
84.1812,83.0977
84.2963,83.0611
84.4289,83.0483
Z" /> 
<path style="fill:#A4907E; fill-opacity:1.0000; stroke:none;fill-rule:evenodd;"
d="M 85.9880,83.0512
86.0973,83.0601
86.1910,83.0855
86.2719,83.1263
86.3422,83.1828
86.3993,83.2524
86.4405,83.3329
86.4662,83.4263
86.4753,83.5355
86.4753,84.4512
86.4662,84.4785
86.4389,84.4876
86.3129,84.4876
86.2856,84.4785
86.2765,84.4512
86.2765,83.5747
86.2655,83.4739
86.2345,83.3908
86.1840,83.3214
86.1170,83.2682
86.0380,83.2360
85.9432,83.2247
85.8511,83.2342
85.7732,83.2615
85.7066,83.3059
85.6532,83.3653
85.6175,83.4354
85.5988,83.5188
85.5988,84.4512
85.5897,84.4785
85.5624,84.4876
85.4364,84.4876
85.4091,84.4785
85.4000,84.4512
85.4000,83.1071
85.4091,83.0798
85.4364,83.0707
85.5624,83.0707
85.5897,83.0798
85.5988,83.1071
85.5988,83.2108
85.6044,83.2233
85.6129,83.2192
85.6807,83.1472
85.7635,83.0953
85.8644,83.0628
Z" /> 
</g></g>
<g style="fill:none; 
stroke:#A4907E; stroke-width:0.1524; stroke-opacity:1; 
stroke-linecap:round; stroke-linejoin:round;">
<text x="63.5000" y="84.6576"
textLength="4.0153" font-size="2.6666" lengthAdjust="spacingAndGlyphs"
text-anchor="middle" opacity="0" stroke-opacity="0">red</text>
<g class="stroked-text"><desc>red</desc>
<path style="fill:#A4907E; fill-opacity:1.0000; stroke:none;fill-rule:evenodd;"
d="M 62.2876,83.0568
62.3750,83.0658
62.4416,83.0904
62.4603,83.1067
62.4611,83.1352
62.4332,83.2584
62.4181,83.2806
62.3884,83.2807
62.3311,83.2692
62.2511,83.2667
62.1585,83.2815
62.0793,83.3172
62.0103,83.3745
61.9580,83.4476
61.9262,83.5328
61.9151,83.6336
61.9151,84.4512
61.9060,84.4785
61.8787,84.4876
61.7527,84.4876
61.7254,84.4785
61.7163,84.4512
61.7163,83.1071
61.7254,83.0798
61.7527,83.0707
61.8787,83.0707
61.9060,83.0798
61.9151,83.1071
61.9151,83.2639
61.9193,83.2766
61.9292,83.2695
61.9968,83.1791
62.0789,83.1128
62.1754,83.0711
Z" /> 
<path style="fill:#A4907E; fill-opacity:1.0000; stroke:none;fill-rule:evenodd;"
d="M 63.3660,83.0572
63.4682,83.0821
63.5541,83.1213
63.6264,83.1744
63.7055,83.2664
63.7650,83.3831
63.8042,83.5300
63.8161,83.6321
63.8211,83.8099
63.8120,83.8372
63.7847,83.8463
62.8887,83.8463
62.8782,83.8498
62.8746,83.8603
62.8797,83.9910
62.8915,84.0648
62.9201,84.1439
62.9632,84.2100
63.0217,84.2650
63.0914,84.3052
63.1739,84.3303
63.2723,84.3392
63.3919,84.3228
63.4893,84.2818
63.5698,84.2167
63.6307,84.1291
63.6502,84.1096
63.6783,84.1124
63.7595,84.1571
63.7807,84.1795
63.7763,84.2047
63.7240,84.2917
63.6572,84.3655
63.5746,84.4273
63.4819,84.4723
63.3764,84.5002
63.2554,84.5099
63.1277,84.4989
63.0187,84.4677
62.9251,84.4176
62.8445,84.3485
62.7803,84.2634
62.7319,84.1599
62.7044,84.0648
62.6857,83.9385
62.6786,83.7735
62.6807,83.6756
62.8746,83.6756
62.8782,83.6861
62.8887,83.6896
63.6082,83.6896
63.6188,83.6861
63.6223,83.6756
63.6054,83.4963
63.5773,83.4168
63.5359,83.3508
63.4809,83.2963
63.4148,83.2559
63.3369,83.2308
63.2443,83.2220
63.1534,83.2306
63.0778,83.2547
63.0146,83.2934
62.9622,83.3459
62.9231,83.4092
62.8971,83.4852
62.8843,83.5510
62.8746,83.6756
62.6807,83.6756
62.6828,83.5818
62.7039,83.4488
62.7469,83.3344
62.8104,83.2382
62.8956,83.1575
62.9967,83.0977
63.1117,83.0611
63.2443,83.0483
Z" /> 
<path style="fill:#A4907E; fill-opacity:1.0000; stroke:none;fill-rule:evenodd;"
d="M 65.2760,82.5366
65.2851,82.5639
65.2851,84.4512
65.2760,84.4785
65.2487,84.4876
65.1227,84.4876
65.0954,84.4785
65.0863,84.4512
65.0863,84.3448
65.0806,84.3350
65.0694,84.3392
65.0005,84.4113
64.9169,84.4652
64.8219,84.4984
64.7138,84.5099
64.5865,84.4980
64.4781,84.4641
64.3848,84.4091
64.3060,84.3347
64.2451,84.2441
64.2015,84.1347
64.1736,83.9956
64.1623,83.7791
64.3610,83.7791
64.3722,83.9850
64.3880,84.0565
64.4114,84.1180
64.4398,84.1810
64.4792,84.2337
64.5304,84.2776
64.5898,84.3098
64.6569,84.3295
64.7335,84.3364
64.8061,84.3294
64.8679,84.3097
64.9210,84.2776
64.9862,84.2098
65.0330,84.1207
65.0542,84.0617
65.0694,83.9892
65.0806,83.7791
65.0694,83.5679
65.0536,83.4938
65.0302,83.4319
64.9854,83.3458
64.9196,83.2794
64.8658,83.2479
64.8053,83.2287
64.7363,83.2220
64.6304,83.2365
64.5431,83.2781
64.4731,83.3430
64.4255,83.4263
64.3967,83.4909
64.3764,83.5650
64.3654,83.6495
64.3610,83.7791
64.1623,83.7791
64.1722,83.5615
64.1959,83.4319
64.2398,83.3190
64.3012,83.2262
64.3806,83.1506
64.4750,83.0949
64.5848,83.0604
64.7138,83.0483
64.8197,83.0594
64.9154,83.0918
65.0002,83.1447
65.0694,83.2164
65.0806,83.2220
65.0863,83.2108
65.0863,82.5639
65.0954,82.5366
65.1227,82.5275
65.2487,82.5275
Z" /> 
</g></g>
<g style="fill:none; 
stroke:#A4907E; stroke-width:0.1524; stroke-opacity:1; 
stroke-linecap:round; stroke-linejoin:round;">
<text x="57.7850" y="57.9876"
textLength="21.0439" font-size="2.6666" lengthAdjust="spacingAndGlyphs"
text-anchor="middle" opacity="0" stroke-opacity="0">Pre-shutter delay</text>
<g class="stroked-text"><desc>Pre-shutter delay</desc>
<path style="fill:#A4907E; fill-opacity:1.0000; stroke:none;fill-rule:evenodd;"
d="M 48.3925,55.8649
48.4971,55.8940
48.5879,55.9409
48.6672,56.0060
48.7317,56.0859
48.7782,56.1772
48.8070,56.2821
48.8170,56.4035
48.8068,56.5233
48.7775,56.6268
48.7303,56.7167
48.6644,56.7955
48.5839,56.8593
48.4918,56.9053
48.3857,56.9339
48.2626,56.9439
47.7194,56.9439
47.7090,56.9474
47.7055,56.9579
47.7055,57.7812
47.6964,57.8085
47.6691,57.8176
47.5431,57.8176
47.5158,57.8085
47.5067,57.7812
47.5067,56.0424
47.7055,56.0424
47.7055,56.7647
47.7090,56.7753
47.7194,56.7788
48.2487,56.7788
48.3546,56.7668
48.4428,56.7326
48.5174,56.6766
48.5741,56.6027
48.6088,56.5140
48.6210,56.4063
48.6088,56.2968
48.5740,56.2068
48.5174,56.1320
48.4427,56.0751
48.3545,56.0405
48.2487,56.0283
47.7194,56.0283
47.7090,56.0318
47.7055,56.0424
47.5067,56.0424
47.5067,55.8912
47.5158,55.8638
47.5431,55.8547
48.2710,55.8547
Z" /> 
<path style="fill:#A4907E; fill-opacity:1.0000; stroke:none;fill-rule:evenodd;"
d="M 49.7152,56.3868
49.8026,56.3958
49.8692,56.4204
49.8879,56.4367
49.8888,56.4652
49.8608,56.5884
49.8458,56.6106
49.8160,56.6107
49.7588,56.5992
49.6787,56.5967
49.5862,56.6115
49.5069,56.6472
49.4379,56.7045
49.3857,56.7776
49.3539,56.8628
49.3428,56.9636
49.3428,57.7812
49.3337,57.8085
49.3064,57.8176
49.1804,57.8176
49.1531,57.8085
49.1440,57.7812
49.1440,56.4371
49.1531,56.4098
49.1804,56.4007
49.3064,56.4007
49.3337,56.4098
49.3428,56.4371
49.3428,56.5939
49.3469,56.6066
49.3568,56.5995
49.4244,56.5091
49.5065,56.4428
49.6030,56.4011
Z" /> 
<path style="fill:#A4907E; fill-opacity:1.0000; stroke:none;fill-rule:evenodd;"
d="M 50.7937,56.3872
50.8958,56.4121
50.9817,56.4513
51.0541,56.5044
51.1331,56.5964
51.1927,56.7131
51.2319,56.8600
51.2437,56.9621
51.2487,57.1399
51.2396,57.1672
51.2123,57.1763
50.3163,57.1763
50.3058,57.1798
50.3023,57.1903
50.3073,57.3210
50.3191,57.3948
50.3477,57.4739
50.3908,57.5400
50.4493,57.5950
50.5190,57.6352
50.6015,57.6603
50.6999,57.6692
50.8195,57.6528
50.9169,57.6118
50.9974,57.5467
51.0583,57.4591
51.0779,57.4396
51.1060,57.4424
51.1872,57.4871
51.2084,57.5095
51.2039,57.5347
51.1516,57.6217
51.0849,57.6955
51.0023,57.7573
50.9095,57.8023
50.8040,57.8302
50.6831,57.8399
50.5553,57.8289
50.4464,57.7977
50.3527,57.7476
50.2721,57.6785
50.2080,57.5934
50.1595,57.4899
50.1320,57.3948
50.1133,57.2685
50.1063,57.1035
50.1084,57.0056
50.3023,57.0056
50.3058,57.0161
50.3163,57.0196
51.0359,57.0196
51.0464,57.0161
51.0499,57.0056
51.0331,56.8263
51.0049,56.7468
50.9636,56.6808
50.9085,56.6263
50.8424,56.5859
50.7646,56.5608
50.6719,56.5520
50.5810,56.5606
50.5055,56.5847
50.4422,56.6234
50.3898,56.6759
50.3508,56.7392
50.3248,56.8152
50.3119,56.8810
50.3023,57.0056
50.1084,57.0056
50.1104,56.9118
50.1316,56.7788
50.1745,56.6644
50.2381,56.5682
50.3233,56.4875
50.4243,56.4277
50.5393,56.3911
50.6719,56.3783
Z" /> 
<path style="fill:#A4907E; fill-opacity:1.0000; stroke:none;fill-rule:evenodd;"
d="M 51.5647,57.0335
51.5374,57.0244
51.5283,56.9971
51.5283,56.8964
51.5374,56.8691
51.5647,56.8600
52.3766,56.8600
52.4039,56.8691
52.4130,56.8964
52.4130,56.9971
52.4039,57.0244
52.3766,57.0335
Z" /> 
<path style="fill:#A4907E; fill-opacity:1.0000; stroke:none;fill-rule:evenodd;"
d="M 53.2099,57.8316
53.0588,57.8184
52.9313,57.7812
52.8210,57.7206
52.7437,57.6468
52.7069,57.5881
52.6852,57.5260
52.6779,57.4591
52.6779,57.4340
52.6870,57.4067
52.7143,57.3976
52.8347,57.3976
52.8613,57.4045
52.8711,57.4227
52.8711,57.4480
52.8810,57.5050
52.9112,57.5579
52.9662,57.6090
53.0329,57.6461
53.1122,57.6693
53.2071,57.6776
53.3022,57.6695
53.3794,57.6471
53.4423,57.6118
53.4931,57.5627
53.5221,57.5079
53.5319,57.4452
53.5204,57.3807
53.4871,57.3304
53.4380,57.2909
53.3779,57.2604
53.1847,57.1960
53.0355,57.1489
52.9270,57.1063
52.8336,57.0525
52.7563,56.9818
52.7181,56.9251
52.6946,56.8583
52.6863,56.7788
52.6955,56.6924
52.7218,56.6175
52.7652,56.5516
52.8276,56.4931
52.9271,56.4360
53.0490,56.3998
53.1988,56.3868
53.3470,56.3999
53.4717,56.4372
53.5470,56.4763
53.6074,56.5225
53.6550,56.5758
53.6909,56.6372
53.7123,56.7025
53.7195,56.7732
53.7104,56.8005
53.6831,56.8096
53.5683,56.8096
53.5393,56.8036
53.5319,56.7899
53.5319,56.7732
53.5222,56.7142
53.4929,56.6617
53.4409,56.6136
53.3772,56.5793
53.2969,56.5572
53.1960,56.5492
53.1021,56.5563
53.0268,56.5760
52.9662,56.6066
52.9175,56.6504
52.8892,56.7022
52.8795,56.7647
52.8888,56.8237
52.9158,56.8713
52.9621,56.9104
53.0577,56.9566
53.2211,57.0112
53.3753,57.0577
53.4843,57.0980
53.5781,57.1497
53.6579,57.2211
53.6976,57.2790
53.7221,57.3480
53.7307,57.4312
53.7216,57.5190
53.6952,57.5953
53.6517,57.6626
53.5893,57.7224
53.4895,57.7808
53.3651,57.8181
Z" /> 
<path style="fill:#A4907E; fill-opacity:1.0000; stroke:none;fill-rule:evenodd;"
d="M 54.6813,56.3812
54.7906,56.3901
54.8843,56.4155
54.9652,56.4563
55.0355,56.5128
55.0926,56.5824
55.1338,56.6629
55.1595,56.7563
55.1686,56.8655
55.1686,57.7812
55.1595,57.8085
55.1322,57.8176
55.0062,57.8176
54.9789,57.8085
54.9698,57.7812
54.9698,56.9047
54.9588,56.8039
54.9278,56.7208
54.8773,56.6514
54.8103,56.5982
54.7313,56.5660
54.6365,56.5547
54.5444,56.5642
54.4665,56.5915
54.3999,56.6359
54.3465,56.6953
54.3108,56.7654
54.2921,56.8488
54.2921,57.7812
54.2830,57.8085
54.2557,57.8176
54.1297,57.8176
54.1024,57.8085
54.0933,57.7812
54.0933,55.8939
54.1024,55.8666
54.1297,55.8575
54.2557,55.8575
54.2830,55.8666
54.2921,55.8939
54.2921,56.5408
54.2977,56.5533
54.3062,56.5492
54.3740,56.4772
54.4568,56.4253
54.5577,56.3928
Z" /> 
<path style="fill:#A4907E; fill-opacity:1.0000; stroke:none;fill-rule:evenodd;"
d="M 56.4585,56.4371
56.4676,56.4098
56.4949,56.4007
56.6210,56.4007
56.6483,56.4098
56.6574,56.4371
56.6574,57.7812
56.6483,57.8085
56.6210,57.8176
56.4949,57.8176
56.4676,57.8085
56.4585,57.7812
56.4585,57.6748
56.4529,57.6636
56.4418,57.6692
56.3753,57.7412
56.2938,57.7930
56.1944,57.8255
56.0722,57.8371
55.9421,57.8232
55.8244,57.7825
55.7536,57.7403
55.6942,57.6879
55.6451,57.6244
55.6094,57.5527
55.5872,57.4703
55.5794,57.3751
55.5794,56.4371
55.5885,56.4098
55.6158,56.4007
55.7418,56.4007
55.7691,56.4098
55.7782,56.4371
55.7782,57.3164
55.7890,57.4192
55.8192,57.5023
55.8677,57.5698
55.9329,57.6209
56.0127,57.6524
56.1114,57.6636
56.2138,57.6522
56.2968,57.6202
56.3648,57.5684
56.4160,57.4998
56.4474,57.4171
56.4585,57.3164
Z" /> 
<path style="fill:#A4907E; fill-opacity:1.0000; stroke:none;fill-rule:evenodd;"
d="M 57.7380,56.5295
57.7289,56.5568
57.7016,56.5659
57.3964,56.5659
57.3859,56.5694
57.3824,56.5800
57.3824,57.3976
57.3904,57.4852
57.4114,57.5457
57.4426,57.5866
57.4862,57.6151
57.5473,57.6340
57.6316,57.6412
57.6932,57.6412
57.7205,57.6503
57.7296,57.6776
57.7296,57.7755
57.7205,57.8035
57.6932,57.8147
57.5979,57.8147
57.4652,57.8049
57.3659,57.7786
57.2928,57.7391
57.2506,57.6976
57.2185,57.6402
57.1972,57.5626
57.1892,57.4591
57.1892,56.5800
57.1857,56.5694
57.1752,56.5659
57.0155,56.5659
56.9883,56.5568
56.9792,56.5295
56.9792,56.4371
56.9883,56.4098
57.0155,56.4007
57.1752,56.4007
57.1857,56.3972
57.1892,56.3868
57.1892,56.0732
57.1983,56.0459
57.2256,56.0368
57.3460,56.0368
57.3733,56.0459
57.3824,56.0732
57.3824,56.3868
57.3859,56.3972
57.3964,56.4007
57.7016,56.4007
57.7289,56.4098
57.7380,56.4371
Z" /> 
<path style="fill:#A4907E; fill-opacity:1.0000; stroke:none;fill-rule:evenodd;"
d="M 58.7560,56.5295
58.7469,56.5568
58.7196,56.5659
58.4144,56.5659
58.4039,56.5694
58.4004,56.5800
58.4004,57.3976
58.4085,57.4852
58.4294,57.5457
58.4606,57.5866
58.5042,57.6151
58.5653,57.6340
58.6497,57.6412
58.7112,57.6412
58.7385,57.6503
58.7476,57.6776
58.7476,57.7755
58.7385,57.8035
58.7112,57.8147
58.6159,57.8147
58.4832,57.8049
58.3840,57.7786
58.3108,57.7391
58.2686,57.6976
58.2365,57.6402
58.2152,57.5626
58.2072,57.4591
58.2072,56.5800
58.2037,56.5694
58.1932,56.5659
58.0335,56.5659
58.0063,56.5568
57.9972,56.5295
57.9972,56.4371
58.0063,56.4098
58.0335,56.4007
58.1932,56.4007
58.2037,56.3972
58.2072,56.3868
58.2072,56.0732
58.2163,56.0459
58.2436,56.0368
58.3640,56.0368
58.3913,56.0459
58.4004,56.0732
58.4004,56.3868
58.4039,56.3972
58.4144,56.4007
58.7196,56.4007
58.7469,56.4098
58.7560,56.4371
Z" /> 
<path style="fill:#A4907E; fill-opacity:1.0000; stroke:none;fill-rule:evenodd;"
d="M 59.7427,56.3872
59.8449,56.4121
59.9308,56.4513
60.0031,56.5044
60.0822,56.5964
60.1417,56.7131
60.1809,56.8600
60.1928,56.9621
60.1978,57.1399
60.1887,57.1672
60.1614,57.1763
59.2654,57.1763
59.2549,57.1798
59.2513,57.1903
59.2564,57.3210
59.2682,57.3948
59.2968,57.4739
59.3399,57.5400
59.3984,57.5950
59.4681,57.6352
59.5506,57.6603
59.6490,57.6692
59.7686,57.6528
59.8660,57.6118
59.9465,57.5467
60.0074,57.4591
60.0269,57.4396
60.0550,57.4424
60.1362,57.4871
60.1574,57.5095
60.1530,57.5347
60.1007,57.6217
60.0339,57.6955
59.9513,57.7573
59.8586,57.8023
59.7531,57.8302
59.6321,57.8399
59.5044,57.8289
59.3954,57.7977
59.3018,57.7476
59.2212,57.6785
59.1570,57.5934
59.1086,57.4899
59.0811,57.3948
59.0624,57.2685
59.0553,57.1035
59.0574,57.0056
59.2513,57.0056
59.2549,57.0161
59.2654,57.0196
59.9849,57.0196
59.9955,57.0161
59.9990,57.0056
59.9821,56.8263
59.9540,56.7468
59.9126,56.6808
59.8576,56.6263
59.7915,56.5859
59.7136,56.5608
59.6210,56.5520
59.5301,56.5606
59.4545,56.5847
59.3913,56.6234
59.3389,56.6759
59.2999,56.7392
59.2738,56.8152
59.2610,56.8810
59.2513,57.0056
59.0574,57.0056
59.0595,56.9118
59.0806,56.7788
59.1236,56.6644
59.1871,56.5682
59.2723,56.4875
59.3734,56.4277
59.4884,56.3911
59.6210,56.3783
Z" /> 
<path style="fill:#A4907E; fill-opacity:1.0000; stroke:none;fill-rule:evenodd;"
d="M 61.1634,56.3868
61.2508,56.3958
61.3174,56.4204
61.3360,56.4367
61.3369,56.4652
61.3090,56.5884
61.2939,56.6106
61.2641,56.6107
61.2069,56.5992
61.1269,56.5967
61.0343,56.6115
60.9550,56.6472
60.8861,56.7045
60.8338,56.7776
60.8020,56.8628
60.7909,56.9636
60.7909,57.7812
60.7818,57.8085
60.7545,57.8176
60.6285,57.8176
60.6012,57.8085
60.5921,57.7812
60.5921,56.4371
60.6012,56.4098
60.6285,56.4007
60.7545,56.4007
60.7818,56.4098
60.7909,56.4371
60.7909,56.5939
60.7951,56.6066
60.8050,56.5995
60.8726,56.5091
60.9547,56.4428
61.0512,56.4011
Z" /> 
<path style="fill:#A4907E; fill-opacity:1.0000; stroke:none;fill-rule:evenodd;"
d="M 63.2295,55.8666
63.2386,55.8939
63.2386,57.7812
63.2295,57.8085
63.2022,57.8176
63.0762,57.8176
63.0489,57.8085
63.0398,57.7812
63.0398,57.6748
63.0342,57.6650
63.0229,57.6692
62.9540,57.7413
62.8704,57.7952
62.7754,57.8284
62.6673,57.8399
62.5400,57.8280
62.4316,57.7941
62.3383,57.7391
62.2595,57.6647
62.1986,57.5741
62.1550,57.4647
62.1271,57.3256
62.1158,57.1091
62.3145,57.1091
62.3258,57.3150
62.3415,57.3865
62.3650,57.4480
62.3934,57.5110
62.4328,57.5637
62.4839,57.6076
62.5433,57.6398
62.6104,57.6595
62.6870,57.6664
62.7596,57.6594
62.8214,57.6397
62.8746,57.6076
62.9397,57.5398
62.9865,57.4507
63.0078,57.3917
63.0229,57.3192
63.0342,57.1091
63.0229,56.8979
63.0071,56.8238
62.9837,56.7619
62.9390,56.6758
62.8731,56.6094
62.8193,56.5779
62.7588,56.5587
62.6898,56.5520
62.5840,56.5665
62.4966,56.6081
62.4266,56.6730
62.3790,56.7563
62.3503,56.8209
62.3299,56.8950
62.3189,56.9795
62.3145,57.1091
62.1158,57.1091
62.1257,56.8915
62.1494,56.7619
62.1934,56.6490
62.2548,56.5562
62.3342,56.4806
62.4285,56.4249
62.5383,56.3904
62.6673,56.3783
62.7732,56.3894
62.8689,56.4218
62.9537,56.4747
63.0229,56.5464
63.0342,56.5520
63.0398,56.5408
63.0398,55.8939
63.0489,55.8666
63.0762,55.8575
63.2022,55.8575
Z" /> 
<path style="fill:#A4907E; fill-opacity:1.0000; stroke:none;fill-rule:evenodd;"
d="M 64.3306,56.3872
64.4327,56.4121
64.5186,56.4513
64.5910,56.5044
64.6700,56.5964
64.7296,56.7131
64.7688,56.8600
64.7806,56.9621
64.7856,57.1399
64.7765,57.1672
64.7493,57.1763
63.8532,57.1763
63.8427,57.1798
63.8392,57.1903
63.8442,57.3210
63.8561,57.3948
63.8846,57.4739
63.9278,57.5400
63.9862,57.5950
64.0559,57.6352
64.1385,57.6603
64.2368,57.6692
64.3564,57.6528
64.4538,57.6118
64.5343,57.5467
64.5953,57.4591
64.6148,57.4396
64.6429,57.4424
64.7241,57.4871
64.7453,57.5095
64.7408,57.5347
64.6885,57.6217
64.6218,57.6955
64.5392,57.7573
64.4464,57.8023
64.3409,57.8302
64.2200,57.8399
64.0922,57.8289
63.9833,57.7977
63.8896,57.7476
63.8090,57.6785
63.7449,57.5934
63.6964,57.4899
63.6690,57.3948
63.6502,57.2685
63.6432,57.1035
63.6453,57.0056
63.8392,57.0056
63.8427,57.0161
63.8532,57.0196
64.5728,57.0196
64.5833,57.0161
64.5868,57.0056
64.5700,56.8263
64.5418,56.7468
64.5005,56.6808
64.4454,56.6263
64.3793,56.5859
64.3015,56.5608
64.2089,56.5520
64.1179,56.5606
64.0424,56.5847
63.9792,56.6234
63.9267,56.6759
63.8877,56.7392
63.8617,56.8152
63.8488,56.8810
63.8392,57.0056
63.6453,57.0056
63.6473,56.9118
63.6685,56.7788
63.7115,56.6644
63.7750,56.5682
63.8602,56.4875
63.9612,56.4277
64.0763,56.3911
64.2089,56.3783
Z" /> 
<path style="fill:#A4907E; fill-opacity:1.0000; stroke:none;fill-rule:evenodd;"
d="M 65.2164,57.8176
65.1891,57.8085
65.1800,57.7812
65.1800,55.8939
65.1891,55.8666
65.2164,55.8575
65.3424,55.8575
65.3697,55.8666
65.3788,55.8939
65.3788,57.7812
65.3697,57.8085
65.3424,57.8176
Z" /> 
<path style="fill:#A4907E; fill-opacity:1.0000; stroke:none;fill-rule:evenodd;"
d="M 66.4449,56.3875
66.5496,56.4130
66.6368,56.4531
66.7093,56.5072
66.7693,56.5759
66.8122,56.6543
66.8387,56.7444
66.8479,56.8488
66.8479,57.7812
66.8388,57.8085
66.8115,57.8176
66.6855,57.8176
66.6582,57.8085
66.6491,57.7812
66.6491,57.6804
66.6435,57.6692
66.6324,57.6748
66.5483,57.7455
66.4433,57.7980
66.3262,57.8292
66.1955,57.8399
66.0682,57.8280
65.9598,57.7941
65.8665,57.7391
65.8098,57.6840
65.7688,57.6162
65.7428,57.5332
65.7335,57.4312
65.7346,57.4199
65.9324,57.4199
65.9427,57.4977
65.9715,57.5584
66.0191,57.6062
66.0799,57.6402
66.1527,57.6616
66.2404,57.6692
66.3479,57.6596
66.4427,57.6319
66.5272,57.5866
66.5959,57.5239
66.6356,57.4509
66.6491,57.3640
66.6491,57.1483
66.6456,57.1379
66.6352,57.1344
66.3411,57.1344
66.2199,57.1438
66.1225,57.1697
66.0443,57.2100
65.9816,57.2676
65.9450,57.3363
65.9324,57.4199
65.7346,57.4199
65.7436,57.3291
65.7724,57.2416
65.8194,57.1656
65.8861,57.0994
65.9647,57.0487
66.0594,57.0107
66.1733,56.9863
66.3103,56.9776
66.6352,56.9776
66.6456,56.9741
66.6491,56.9636
66.6491,56.8600
66.6394,56.7679
66.6124,56.6941
66.5692,56.6346
66.5107,56.5910
66.4305,56.5626
66.3216,56.5520
66.1977,56.5656
66.1059,56.6024
66.0561,56.6410
66.0212,56.6872
65.9995,56.7424
65.9848,56.7662
65.9575,56.7704
65.8203,56.7535
65.7927,56.7421
65.7867,56.7227
65.8178,56.6276
65.8741,56.5453
65.9589,56.4736
66.0591,56.4221
66.1777,56.3898
66.3188,56.3783
Z" /> 
<path style="fill:#A4907E; fill-opacity:1.0000; stroke:none;fill-rule:evenodd;"
d="M 67.1770,58.3776
67.1633,58.3702
67.1574,58.3412
67.1574,58.2431
67.1633,58.2141
67.1770,58.2068
67.1966,58.2068
67.2989,58.1980
67.3659,58.1760
67.4201,58.1353
67.4695,58.0668
67.5109,57.9770
67.5634,57.8260
67.5634,57.8091
67.0930,56.4427
67.0902,56.4288
67.1000,56.4091
67.1238,56.4007
67.2554,56.4007
67.2829,56.4085
67.2974,56.4316
67.6587,57.5291
67.6670,57.5403
67.6754,57.5291
68.0282,56.4316
68.0423,56.4083
68.0674,56.4007
68.2019,56.4007
68.2298,56.4119
68.2326,56.4427
67.7174,57.9408
67.6473,58.1147
67.5914,58.2179
67.5241,58.2948
67.4443,58.3426
67.3468,58.3676
67.1966,58.3776
Z" /> 
</g></g>
<g style="fill:none; 
stroke:#A4907E; stroke-width:0.1524; stroke-opacity:1; 
stroke-linecap:round; stroke-linejoin:round;">
<text x="44.4500" y="72.5926"
textLength="16.8332" font-size="2.6666" lengthAdjust="spacingAndGlyphs"
text-anchor="end" opacity="0" stroke-opacity="0">Shutter signal</text>
<g class="stroked-text"><desc>Shutter signal</desc>
<path style="fill:#A4907E; fill-opacity:1.0000; stroke:none;fill-rule:evenodd;"
d="M 28.4512,72.4449
28.3161,72.4372
28.1978,72.4153
28.0941,72.3805
27.9980,72.3302
27.9204,72.2692
27.8589,72.1972
27.8134,72.1145
27.7858,72.0233
27.7764,71.9214
27.7764,71.8430
27.7855,71.8157
27.8128,71.8066
27.9332,71.8066
27.9605,71.8157
27.9696,71.8430
27.9696,71.9101
27.9780,71.9865
28.0027,72.0542
28.0439,72.1151
28.1039,72.1706
28.1986,72.2244
28.3170,72.2589
28.4651,72.2714
28.6064,72.2597
28.7130,72.2282
28.7928,72.1804
28.8550,72.1131
28.8919,72.0336
28.9048,71.9381
28.8914,71.8459
28.8530,71.7702
28.7911,71.7053
28.6947,71.6387
28.5757,71.5770
28.3895,71.4958
28.1923,71.4122
28.0633,71.3487
27.9575,71.2759
27.8758,71.1863
27.8371,71.1168
27.8129,71.0343
27.8043,70.9357
27.8153,70.8209
27.8466,70.7239
27.8971,70.6412
27.9681,70.5703
28.0525,70.5161
28.1537,70.4755
28.2750,70.4495
28.4203,70.4402
28.5750,70.4504
28.7052,70.4793
28.8149,70.5247
28.9075,70.5857
28.9862,70.6648
29.0414,70.7540
29.0750,70.8554
29.0867,70.9721
29.0867,71.0254
29.0776,71.0527
29.0503,71.0618
28.9271,71.0618
28.8998,71.0527
28.8907,71.0254
28.8907,70.9833
28.8765,70.8810
28.8352,70.7936
28.7647,70.7174
28.6751,70.6624
28.5590,70.6268
28.4092,70.6138
28.2787,70.6242
28.1798,70.6523
28.1054,70.6950
28.0479,70.7559
28.0128,70.8326
28.0003,70.9301
28.0139,71.0242
28.0521,71.0968
28.1126,71.1564
28.2005,71.2116
28.4959,71.3390
28.6894,71.4243
28.8264,71.4958
28.9412,71.5779
29.0280,71.6736
29.0692,71.7469
29.0947,71.8314
29.1036,71.9298
29.0924,72.0425
29.0601,72.1405
29.0070,72.2269
28.9314,72.3036
28.8425,72.3625
28.7353,72.4065
28.6064,72.4348
Z" /> 
<path style="fill:#A4907E; fill-opacity:1.0000; stroke:none;fill-rule:evenodd;"
d="M 30.0681,70.9862
30.1773,70.9951
30.2710,71.0205
30.3520,71.0613
30.4222,71.1178
30.4794,71.1874
30.5206,71.2679
30.5463,71.3613
30.5554,71.4705
30.5554,72.3862
30.5463,72.4135
30.5190,72.4226
30.3929,72.4226
30.3656,72.4135
30.3565,72.3862
30.3565,71.5097
30.3456,71.4089
30.3146,71.3258
30.2641,71.2564
30.1971,71.2032
30.1181,71.1710
30.0233,71.1597
29.9311,71.1692
29.8533,71.1965
29.7867,71.2409
29.7333,71.3003
29.6976,71.3704
29.6789,71.4538
29.6789,72.3862
29.6698,72.4135
29.6425,72.4226
29.5165,72.4226
29.4892,72.4135
29.4801,72.3862
29.4801,70.4989
29.4892,70.4716
29.5165,70.4625
29.6425,70.4625
29.6698,70.4716
29.6789,70.4989
29.6789,71.1458
29.6845,71.1583
29.6929,71.1542
29.7608,71.0822
29.8436,71.0303
29.9445,70.9978
Z" /> 
<path style="fill:#A4907E; fill-opacity:1.0000; stroke:none;fill-rule:evenodd;"
d="M 31.8453,71.0421
31.8544,71.0148
31.8817,71.0057
32.0077,71.0057
32.0350,71.0148
32.0441,71.0421
32.0441,72.3862
32.0350,72.4135
32.0077,72.4226
31.8817,72.4226
31.8544,72.4135
31.8453,72.3862
31.8453,72.2798
31.8397,72.2686
31.8286,72.2742
31.7621,72.3462
31.6806,72.3980
31.5811,72.4305
31.4589,72.4421
31.3288,72.4282
31.2111,72.3875
31.1404,72.3453
31.0810,72.2929
31.0319,72.2294
30.9961,72.1577
30.9739,72.0753
30.9662,71.9801
30.9662,71.0421
30.9753,71.0148
31.0026,71.0057
31.1286,71.0057
31.1559,71.0148
31.1650,71.0421
31.1650,71.9214
31.1758,72.0242
31.2060,72.1073
31.2545,72.1748
31.3197,72.2259
31.3995,72.2574
31.4981,72.2686
31.6006,72.2572
31.6836,72.2252
31.7515,72.1734
31.8027,72.1048
31.8342,72.0221
31.8453,71.9214
Z" /> 
<path style="fill:#A4907E; fill-opacity:1.0000; stroke:none;fill-rule:evenodd;"
d="M 33.1248,71.1345
33.1157,71.1618
33.0884,71.1709
32.7832,71.1709
32.7727,71.1744
32.7692,71.1850
32.7692,72.0026
32.7772,72.0902
32.7982,72.1507
32.8294,72.1916
32.8730,72.2201
32.9341,72.2390
33.0184,72.2462
33.0800,72.2462
33.1073,72.2553
33.1164,72.2826
33.1164,72.3805
33.1073,72.4085
33.0800,72.4197
32.9847,72.4197
32.8519,72.4099
32.7527,72.3836
32.6795,72.3441
32.6374,72.3026
32.6053,72.2452
32.5839,72.1676
32.5760,72.0641
32.5760,71.1850
32.5725,71.1744
32.5619,71.1709
32.4023,71.1709
32.3750,71.1618
32.3659,71.1345
32.3659,71.0421
32.3750,71.0148
32.4023,71.0057
32.5619,71.0057
32.5725,71.0022
32.5760,70.9918
32.5760,70.6782
32.5851,70.6509
32.6124,70.6418
32.7328,70.6418
32.7601,70.6509
32.7692,70.6782
32.7692,70.9918
32.7727,71.0022
32.7832,71.0057
33.0884,71.0057
33.1157,71.0148
33.1248,71.0421
Z" /> 
<path style="fill:#A4907E; fill-opacity:1.0000; stroke:none;fill-rule:evenodd;"
d="M 34.1428,71.1345
34.1337,71.1618
34.1064,71.1709
33.8012,71.1709
33.7907,71.1744
33.7872,71.1850
33.7872,72.0026
33.7952,72.0902
33.8162,72.1507
33.8474,72.1916
33.8910,72.2201
33.9521,72.2390
34.0364,72.2462
34.0980,72.2462
34.1253,72.2553
34.1344,72.2826
34.1344,72.3805
34.1253,72.4085
34.0980,72.4197
34.0027,72.4197
33.8699,72.4099
33.7707,72.3836
33.6975,72.3441
33.6554,72.3026
33.6233,72.2452
33.6020,72.1676
33.5940,72.0641
33.5940,71.1850
33.5905,71.1744
33.5799,71.1709
33.4203,71.1709
33.3930,71.1618
33.3839,71.1345
33.3839,71.0421
33.3930,71.0148
33.4203,71.0057
33.5799,71.0057
33.5905,71.0022
33.5940,70.9918
33.5940,70.6782
33.6031,70.6509
33.6304,70.6418
33.7508,70.6418
33.7781,70.6509
33.7872,70.6782
33.7872,70.9918
33.7907,71.0022
33.8012,71.0057
34.1064,71.0057
34.1337,71.0148
34.1428,71.0421
Z" /> 
<path style="fill:#A4907E; fill-opacity:1.0000; stroke:none;fill-rule:evenodd;"
d="M 35.1295,70.9922
35.2316,71.0171
35.3176,71.0563
35.3899,71.1094
35.4689,71.2014
35.5285,71.3181
35.5677,71.4650
35.5795,71.5671
35.5846,71.7449
35.5755,71.7722
35.5482,71.7813
34.6522,71.7813
34.6416,71.7848
34.6381,71.7953
34.6432,71.9260
34.6550,71.9998
34.6835,72.0789
34.7267,72.1450
34.7852,72.2000
34.8549,72.2402
34.9374,72.2653
35.0357,72.2742
35.1554,72.2578
35.2528,72.2168
35.3333,72.1517
35.3942,72.0641
35.4137,72.0446
35.4418,72.0474
35.5230,72.0921
35.5442,72.1145
35.5397,72.1397
35.4875,72.2267
35.4207,72.3005
35.3381,72.3623
35.2453,72.4073
35.1398,72.4352
35.0189,72.4449
34.8911,72.4339
34.7822,72.4027
34.6886,72.3526
34.6079,72.2835
34.5438,72.1984
34.4954,72.0949
34.4679,71.9998
34.4491,71.8735
34.4421,71.7085
34.4442,71.6106
34.6381,71.6106
34.6416,71.6211
34.6522,71.6246
35.3717,71.6246
35.3822,71.6211
35.3857,71.6106
35.3689,71.4313
35.3408,71.3518
35.2994,71.2858
35.2443,71.2313
35.1783,71.1909
35.1004,71.1658
35.0078,71.1570
34.9169,71.1656
34.8413,71.1897
34.7781,71.2284
34.7256,71.2809
34.6866,71.3442
34.6606,71.4202
34.6478,71.4860
34.6381,71.6106
34.4442,71.6106
34.4463,71.5168
34.4674,71.3838
34.5104,71.2694
34.5739,71.1732
34.6591,71.0925
34.7601,71.0327
34.8752,70.9961
35.0078,70.9833
Z" /> 
<path style="fill:#A4907E; fill-opacity:1.0000; stroke:none;fill-rule:evenodd;"
d="M 36.5502,70.9918
36.6375,71.0008
36.7042,71.0254
36.7228,71.0417
36.7237,71.0702
36.6957,71.1934
36.6807,71.2156
36.6509,71.2157
36.5937,71.2042
36.5137,71.2017
36.4211,71.2165
36.3418,71.2522
36.2728,71.3095
36.2206,71.3826
36.1888,71.4678
36.1777,71.5686
36.1777,72.3862
36.1686,72.4135
36.1413,72.4226
36.0153,72.4226
35.9880,72.4135
35.9789,72.3862
35.9789,71.0421
35.9880,71.0148
36.0153,71.0057
36.1413,71.0057
36.1686,71.0148
36.1777,71.0421
36.1777,71.1989
36.1819,71.2116
36.1918,71.2045
36.2594,71.1141
36.3415,71.0478
36.4380,71.0061
Z" /> 
<path style="fill:#A4907E; fill-opacity:1.0000; stroke:none;fill-rule:evenodd;"
d="M 38.0205,72.4366
37.8694,72.4234
37.7420,72.3862
37.6317,72.3256
37.5544,72.2518
37.5176,72.1931
37.4959,72.1310
37.4886,72.0641
37.4886,72.0390
37.4977,72.0117
37.5249,72.0026
37.6454,72.0026
37.6720,72.0095
37.6818,72.0277
37.6818,72.0530
37.6916,72.1100
37.7219,72.1629
37.7769,72.2140
37.8435,72.2511
37.9228,72.2743
38.0177,72.2826
38.1128,72.2745
38.1901,72.2521
38.2529,72.2168
38.3037,72.1677
38.3328,72.1129
38.3426,72.0502
38.3311,71.9857
38.2977,71.9354
38.2486,71.8959
38.1886,71.8654
37.9954,71.8010
37.8461,71.7539
37.7377,71.7113
37.6442,71.6575
37.5670,71.5868
37.5287,71.5301
37.5052,71.4633
37.4970,71.3838
37.5061,71.2974
37.5324,71.2225
37.5759,71.1566
37.6383,71.0981
37.7377,71.0410
37.8596,71.0048
38.0094,70.9918
38.1576,71.0049
38.2823,71.0422
38.3576,71.0813
38.4181,71.1275
38.4657,71.1808
38.5016,71.2422
38.5229,71.3075
38.5301,71.3782
38.5210,71.4055
38.4937,71.4146
38.3789,71.4146
38.3499,71.4086
38.3426,71.3949
38.3426,71.3782
38.3328,71.3192
38.3036,71.2667
38.2516,71.2186
38.1878,71.1843
38.1075,71.1622
38.0066,71.1542
37.9128,71.1613
37.8374,71.1810
37.7769,71.2116
37.7281,71.2554
37.6999,71.3072
37.6902,71.3697
37.6995,71.4287
37.7264,71.4763
37.7727,71.5154
37.8683,71.5616
38.0318,71.6162
38.1859,71.6627
38.2949,71.7030
38.3888,71.7547
38.4686,71.8261
38.5083,71.8840
38.5327,71.9530
38.5414,72.0362
38.5322,72.1240
38.5058,72.2003
38.4623,72.2676
38.3999,72.3274
38.3002,72.3858
38.1758,72.4231
Z" /> 
<path style="fill:#A4907E; fill-opacity:1.0000; stroke:none;fill-rule:evenodd;"
d="M 39.0244,70.7510
38.9625,70.7404
38.9152,70.7104
38.8839,70.6645
38.8732,70.6054
38.8840,70.5464
38.9152,70.5017
38.9624,70.4727
39.0244,70.4625
39.0863,70.4727
39.1335,70.5017
39.1647,70.5464
39.1755,70.6054
39.1648,70.6645
39.1335,70.7104
39.0862,70.7404
Z" /> 
<path style="fill:#A4907E; fill-opacity:1.0000; stroke:none;fill-rule:evenodd;"
d="M 38.9628,72.4226
38.9355,72.4135
38.9264,72.3862
38.9264,71.0421
38.9355,71.0148
38.9628,71.0057
39.0887,71.0057
39.1161,71.0148
39.1252,71.0421
39.1252,72.3862
39.1161,72.4134
39.0887,72.4226
Z" /> 
<path style="fill:#A4907E; fill-opacity:1.0000; stroke:none;fill-rule:evenodd;"
d="M 40.1910,70.9942
40.2911,71.0250
40.3754,71.0743
40.4466,71.1430
40.4578,71.1486
40.4634,71.1373
40.4634,71.0421
40.4725,71.0148
40.4998,71.0057
40.6259,71.0057
40.6532,71.0148
40.6622,71.0421
40.6622,72.3749
40.6492,72.5310
40.6130,72.6556
40.5567,72.7551
40.4802,72.8341
40.3863,72.8951
40.2748,72.9405
40.1422,72.9695
39.9846,72.9798
39.8950,72.9770
39.8677,72.9658
39.8586,72.9378
39.8642,72.8258
39.8735,72.7976
39.9006,72.7921
40.0544,72.7909
40.1729,72.7739
40.2629,72.7446
40.3304,72.7053
40.3859,72.6502
40.4270,72.5786
40.4537,72.4868
40.4634,72.3693
40.4634,72.2714
40.4578,72.2601
40.4466,72.2657
40.3763,72.3374
40.2940,72.3884
40.1974,72.4199
40.0827,72.4310
39.9644,72.4198
39.8573,72.3872
39.7592,72.3330
39.6760,72.2593
39.6133,72.1679
39.5702,72.0557
39.5465,71.9269
39.5367,71.7141
39.5369,71.7085
39.7353,71.7085
39.7441,71.8972
39.7634,71.9913
39.7895,72.0655
39.8298,72.1298
39.8852,72.1860
39.9513,72.2283
40.0266,72.2540
40.1134,72.2629
40.2021,72.2540
40.2762,72.2285
40.3387,72.1873
40.3903,72.1323
40.4269,72.0685
40.4494,71.9941
40.4606,71.8906
40.4634,71.7113
40.4606,71.5196
40.4466,71.4286
40.4241,71.3542
40.3875,71.2899
40.3359,71.2341
40.2733,71.1919
40.2001,71.1661
40.1134,71.1570
40.0284,71.1658
39.9550,71.1911
39.8908,71.2326
39.8366,71.2875
39.7942,71.3524
39.7634,71.4286
39.7437,71.5308
39.7353,71.7085
39.5369,71.7085
39.5436,71.5070
39.5548,71.4255
39.5730,71.3557
39.6162,71.2499
39.6766,71.1606
39.7550,71.0856
39.8474,71.0294
39.9518,70.9952
40.0714,70.9833
Z" /> 
<path style="fill:#A4907E; fill-opacity:1.0000; stroke:none;fill-rule:evenodd;"
d="M 41.6745,70.9862
41.7838,70.9951
41.8775,71.0205
41.9584,71.0613
42.0287,71.1178
42.0858,71.1874
42.1270,71.2679
42.1527,71.3613
42.1618,71.4705
42.1618,72.3862
42.1527,72.4135
42.1254,72.4226
41.9994,72.4226
41.9721,72.4135
41.9630,72.3862
41.9630,71.5097
41.9520,71.4089
41.9210,71.3258
41.8705,71.2564
41.8035,71.2032
41.7245,71.1710
41.6297,71.1597
41.5376,71.1692
41.4597,71.1965
41.3931,71.2409
41.3397,71.3003
41.3040,71.3704
41.2853,71.4538
41.2853,72.3862
41.2762,72.4135
41.2489,72.4226
41.1229,72.4226
41.0956,72.4135
41.0865,72.3862
41.0865,71.0421
41.0956,71.0148
41.1229,71.0057
41.2489,71.0057
41.2762,71.0148
41.2853,71.0421
41.2853,71.1458
41.2909,71.1583
41.2994,71.1542
41.3672,71.0822
41.4500,71.0303
41.5509,70.9978
Z" /> 
<path style="fill:#A4907E; fill-opacity:1.0000; stroke:none;fill-rule:evenodd;"
d="M 43.2111,70.9925
43.3159,71.0180
43.4031,71.0581
43.4756,71.1122
43.5356,71.1809
43.5784,71.2593
43.6049,71.3494
43.6142,71.4538
43.6142,72.3862
43.6051,72.4135
43.5778,72.4226
43.4517,72.4226
43.4245,72.4135
43.4154,72.3862
43.4154,72.2854
43.4097,72.2742
43.3986,72.2798
43.3146,72.3505
43.2096,72.4030
43.0925,72.4342
42.9618,72.4449
42.8345,72.4330
42.7261,72.3991
42.6328,72.3441
42.5761,72.2890
42.5350,72.2212
42.5091,72.1382
42.4998,72.0362
42.5009,72.0249
42.6986,72.0249
42.7089,72.1027
42.7378,72.1634
42.7853,72.2112
42.8461,72.2452
42.9189,72.2666
43.0066,72.2742
43.1141,72.2646
43.2089,72.2369
43.2935,72.1916
43.3622,72.1289
43.4018,72.0559
43.4154,71.9690
43.4154,71.7533
43.4119,71.7429
43.4014,71.7394
43.1074,71.7394
42.9862,71.7488
42.8888,71.7747
42.8106,71.8150
42.7479,71.8726
42.7113,71.9413
42.6986,72.0249
42.5009,72.0249
42.5099,71.9341
42.5387,71.8466
42.5857,71.7706
42.6523,71.7044
42.7309,71.6537
42.8256,71.6157
42.9396,71.5913
43.0766,71.5826
43.4014,71.5826
43.4119,71.5791
43.4154,71.5686
43.4154,71.4650
43.4057,71.3729
43.3787,71.2991
43.3355,71.2396
43.2769,71.1960
43.1967,71.1676
43.0878,71.1570
42.9640,71.1706
42.8722,71.2074
42.8223,71.2460
42.7874,71.2922
42.7658,71.3474
42.7510,71.3712
42.7238,71.3754
42.5865,71.3585
42.5590,71.3471
42.5529,71.3277
42.5841,71.2326
42.6403,71.1503
42.7251,71.0786
42.8254,71.0271
42.9440,70.9948
43.0850,70.9833
Z" /> 
<path style="fill:#A4907E; fill-opacity:1.0000; stroke:none;fill-rule:evenodd;"
d="M 44.0616,72.4226
44.0343,72.4135
44.0252,72.3862
44.0252,70.4989
44.0343,70.4716
44.0616,70.4625
44.1877,70.4625
44.2149,70.4716
44.2240,70.4989
44.2240,72.3862
44.2149,72.4135
44.1877,72.4226
Z" /> 
</g></g>
<g style="fill:none; 
stroke:#A4907E; stroke-width:0.1524; stroke-opacity:1; 
stroke-linecap:round; stroke-linejoin:round;">
<text x="44.4500" y="84.6576"
textLength="6.4187" font-size="2.6666" lengthAdjust="spacingAndGlyphs"
text-anchor="end" opacity="0" stroke-opacity="0">Color</text>
<g class="stroked-text"><desc>Color</desc>
<path style="fill:#A4907E; fill-opacity:1.0000; stroke:none;fill-rule:evenodd;"
d="M 38.8909,84.5127
38.7621,84.5037
38.6480,84.4777
38.5465,84.4358
38.4543,84.3768
38.3778,84.3044
38.3154,84.2174
38.2702,84.1201
38.2425,84.0121
38.2329,83.8911
38.2329,83.1211
38.2424,83.0021
38.2702,82.8955
38.3154,82.7992
38.3777,82.7130
38.4542,82.6410
38.5465,82.5822
38.6480,82.5402
38.7621,82.5142
38.8909,82.5052
39.0197,82.5140
39.1338,82.5396
39.2352,82.5807
39.3276,82.6386
39.4041,82.7092
39.4662,82.7936
39.5115,82.8881
39.5393,82.9928
39.5489,83.1099
39.5408,83.1293
39.5125,83.1408
39.3864,83.1491
39.3780,83.1491
39.3585,83.1436
39.3500,83.1324
39.3500,83.1155
39.3416,83.0178
39.3174,82.9338
39.2784,82.8611
39.2240,82.7978
39.1336,82.7330
39.0243,82.6930
38.8909,82.6788
38.7575,82.6931
38.6482,82.7336
38.5576,82.7992
38.5031,82.8632
38.4641,82.9360
38.4401,83.0193
38.4317,83.1155
38.4317,83.8995
38.4401,83.9957
38.4641,84.0791
38.5031,84.1519
38.5576,84.2160
38.6482,84.2815
38.7575,84.3220
38.8909,84.3364
39.0243,84.3222
39.1336,84.2821
39.2240,84.2174
39.2784,84.1540
39.3174,84.0812
39.3416,83.9973
39.3500,83.8995
39.3589,83.8753
39.3864,83.8688
39.5125,83.8744
39.5423,83.8790
39.5489,83.8883
39.5489,83.9023
39.5392,84.0214
39.5115,84.1274
39.4662,84.2229
39.4040,84.3081
39.3275,84.3792
39.2352,84.4371
39.1338,84.4783
39.0197,84.5038
Z" /> 
<path style="fill:#A4907E; fill-opacity:1.0000; stroke:none;fill-rule:evenodd;"
d="M 40.6255,83.0604
40.7397,83.0952
40.8403,83.1520
40.9261,83.2290
40.9915,83.3214
41.0376,83.4319
41.0660,83.5761
41.0768,83.7763
41.0658,83.9809
41.0376,84.1207
40.9896,84.2350
40.9232,84.3293
40.8375,84.4063
40.7369,84.4632
40.6236,84.4979
40.4944,84.5099
40.3616,84.4978
40.2465,84.4629
40.1459,84.4063
40.0602,84.3293
39.9937,84.2350
39.9456,84.1207
39.9175,83.9809
39.9066,83.7791
40.1080,83.7791
40.1150,83.9657
40.1305,84.0620
40.1589,84.1413
40.2011,84.2074
40.2579,84.2622
40.3257,84.3028
40.4037,84.3277
40.4944,84.3364
40.5815,84.3278
40.6573,84.3029
40.7240,84.2622
40.7802,84.2075
40.8230,84.1414
40.8529,84.0620
40.8685,83.9594
40.8752,83.7791
40.8683,83.5925
40.8529,83.4963
40.8245,83.4170
40.7823,83.3510
40.7255,83.2963
40.6577,83.2557
40.5797,83.2307
40.4888,83.2220
40.4018,83.2306
40.3261,83.2555
40.2592,83.2963
40.2031,83.3509
40.1604,83.4169
40.1305,83.4963
40.1150,83.5925
40.1080,83.7791
39.9066,83.7791
39.9064,83.7763
39.9167,83.5742
39.9428,83.4347
39.9907,83.3224
40.0572,83.2290
40.1431,83.1520
40.2438,83.0955
40.3597,83.0606
40.4944,83.0483
Z" /> 
<path style="fill:#A4907E; fill-opacity:1.0000; stroke:none;fill-rule:evenodd;"
d="M 41.5156,84.4876
41.4883,84.4785
41.4792,84.4512
41.4792,82.5639
41.4883,82.5366
41.5156,82.5275
41.6416,82.5275
41.6689,82.5366
41.6780,82.5639
41.6780,84.4512
41.6689,84.4785
41.6416,84.4876
Z" /> 
<path style="fill:#A4907E; fill-opacity:1.0000; stroke:none;fill-rule:evenodd;"
d="M 42.8022,83.0604
42.9164,83.0952
43.0170,83.1520
43.1028,83.2290
43.1682,83.3214
43.2143,83.4319
43.2426,83.5761
43.2535,83.7763
43.2425,83.9809
43.2143,84.1207
43.1663,84.2350
43.0999,84.3293
43.0142,84.4063
42.9136,84.4632
42.8003,84.4979
42.6711,84.5099
42.5383,84.4978
42.4232,84.4629
42.3226,84.4063
42.2369,84.3293
42.1704,84.2350
42.1223,84.1207
42.0942,83.9809
42.0833,83.7791
42.2847,83.7791
42.2917,83.9657
42.3072,84.0620
42.3356,84.1413
42.3778,84.2074
42.4346,84.2622
42.5024,84.3028
42.5804,84.3277
42.6711,84.3364
42.7582,84.3278
42.8340,84.3029
42.9007,84.2622
42.9569,84.2075
42.9997,84.1414
43.0296,84.0620
43.0452,83.9594
43.0519,83.7791
43.0450,83.5925
43.0296,83.4963
43.0012,83.4170
42.9590,83.3510
42.9022,83.2963
42.8344,83.2557
42.7564,83.2307
42.6655,83.2220
42.5785,83.2306
42.5028,83.2555
42.4359,83.2963
42.3798,83.3509
42.3370,83.4169
42.3072,83.4963
42.2917,83.5925
42.2847,83.7791
42.0833,83.7791
42.0831,83.7763
42.0934,83.5742
42.1195,83.4347
42.1674,83.3224
42.2339,83.2290
42.3198,83.1520
42.4205,83.0955
42.5364,83.0606
42.6711,83.0483
Z" /> 
<path style="fill:#A4907E; fill-opacity:1.0000; stroke:none;fill-rule:evenodd;"
d="M 44.2272,83.0568
44.3146,83.0658
44.3812,83.0904
44.3998,83.1067
44.4007,83.1352
44.3728,83.2584
44.3577,83.2806
44.3280,83.2807
44.2707,83.2692
44.1907,83.2667
44.0981,83.2815
44.0188,83.3172
43.9499,83.3745
43.8976,83.4476
43.8658,83.5328
43.8547,83.6336
43.8547,84.4512
43.8456,84.4785
43.8183,84.4876
43.6923,84.4876
43.6650,84.4785
43.6559,84.4512
43.6559,83.1071
43.6650,83.0798
43.6923,83.0707
43.8183,83.0707
43.8456,83.0798
43.8547,83.1071
43.8547,83.2639
43.8589,83.2766
43.8688,83.2695
43.9364,83.1791
44.0185,83.1128
44.1150,83.0711
Z" /> 
</g></g> 
</svg>
