G04 #@! TF.GenerationSoftware,KiCad,Pcbnew,9.0.1-rc2*
G04 #@! TF.CreationDate,2025-03-29T14:30:59-07:00*
G04 #@! TF.ProjectId,backlight,6261636b-6c69-4676-9874-2e6b69636164,rev?*
G04 #@! TF.SameCoordinates,Original*
G04 #@! TF.FileFunction,Legend,Bot*
G04 #@! TF.FilePolarity,Positive*
%FSLAX46Y46*%
G04 Gerber Fmt 4.6, Leading zero omitted, Abs format (unit mm)*
G04 Created by KiCad (PCBNEW 9.0.1-rc2) date 2025-03-29 14:30:59*
%MOMM*%
%LPD*%
G01*
G04 APERTURE LIST*
%ADD10C,0.150000*%
%ADD11C,0.400000*%
%ADD12C,0.250000*%
%ADD13C,2.575000*%
%ADD14O,4.200000X2.000000*%
%ADD15O,2.000000X4.200000*%
%ADD16R,2.000000X4.600000*%
%ADD17C,1.300000*%
%ADD18O,1.700000X1.000000*%
%ADD19C,2.200000*%
G04 APERTURE END LIST*
D10*
X87500000Y-87500000D02*
X176500000Y-87500000D01*
X176500000Y-146500000D01*
X87500000Y-146500000D01*
X87500000Y-87500000D01*
D11*
G36*
X137171911Y-117960000D02*
G01*
X136813485Y-117960000D01*
X136813485Y-117127498D01*
X136169416Y-117127498D01*
X136169416Y-117960000D01*
X135811112Y-117960000D01*
X135811112Y-116052951D01*
X136169416Y-116052951D01*
X136169416Y-116811081D01*
X136813485Y-116811081D01*
X136813485Y-116052951D01*
X137171911Y-116052951D01*
X137171911Y-117960000D01*
G37*
G36*
X134936728Y-116033550D02*
G01*
X135047008Y-116046241D01*
X135128428Y-116063837D01*
X135201458Y-116088367D01*
X135259616Y-116116371D01*
X135311669Y-116150553D01*
X135355539Y-116188895D01*
X135394373Y-116233343D01*
X135458129Y-116342484D01*
X135506315Y-116489205D01*
X135538659Y-116691804D01*
X135552108Y-116980915D01*
X135552214Y-117013558D01*
X135548146Y-117199264D01*
X135535299Y-117361686D01*
X135518059Y-117475682D01*
X135494093Y-117576227D01*
X135467665Y-117652585D01*
X135435561Y-117719839D01*
X135401203Y-117773398D01*
X135361662Y-117820090D01*
X135270218Y-117891691D01*
X135154518Y-117942036D01*
X135002538Y-117973253D01*
X134813014Y-117983447D01*
X134688527Y-117979400D01*
X134577650Y-117966707D01*
X134495931Y-117949127D01*
X134422691Y-117924622D01*
X134364458Y-117896672D01*
X134312380Y-117862564D01*
X134268558Y-117824338D01*
X134229806Y-117780033D01*
X134166323Y-117671320D01*
X134118518Y-117525226D01*
X134086666Y-117323457D01*
X134073813Y-117013558D01*
X134429430Y-117013558D01*
X134433564Y-117185526D01*
X134446871Y-117327374D01*
X134463348Y-117414006D01*
X134486090Y-117486450D01*
X134510260Y-117536715D01*
X134539488Y-117578281D01*
X134570845Y-117609077D01*
X134606918Y-117633485D01*
X134695338Y-117665009D01*
X134813014Y-117675457D01*
X134890506Y-117671381D01*
X134957821Y-117658480D01*
X135004970Y-117641013D01*
X135046195Y-117616657D01*
X135079024Y-117587840D01*
X135107354Y-117552393D01*
X135152246Y-117457526D01*
X135183468Y-117313801D01*
X135198715Y-117087801D01*
X135199406Y-117013558D01*
X135195291Y-116840253D01*
X135182119Y-116696874D01*
X135165652Y-116608039D01*
X135142936Y-116533662D01*
X135118765Y-116481876D01*
X135089561Y-116438994D01*
X135058342Y-116407232D01*
X135022474Y-116381980D01*
X134935257Y-116349201D01*
X134813014Y-116337616D01*
X134736280Y-116341692D01*
X134669650Y-116354591D01*
X134622976Y-116372062D01*
X134582171Y-116396424D01*
X134549620Y-116425307D01*
X134521529Y-116460846D01*
X134476886Y-116556282D01*
X134445700Y-116701457D01*
X134430235Y-116930880D01*
X134429430Y-117013558D01*
X134073813Y-117013558D01*
X134077881Y-116825075D01*
X134090728Y-116660239D01*
X134107965Y-116544578D01*
X134131924Y-116442571D01*
X134158331Y-116365144D01*
X134190406Y-116296947D01*
X134224689Y-116242693D01*
X134264136Y-116195385D01*
X134307058Y-116156236D01*
X134355159Y-116122920D01*
X134469996Y-116071960D01*
X134620399Y-116040219D01*
X134813014Y-116029504D01*
X134936728Y-116033550D01*
G37*
G36*
X133313851Y-117960000D02*
G01*
X132955425Y-117960000D01*
X132955425Y-116372177D01*
X132445812Y-116372177D01*
X132445812Y-116052951D01*
X133823341Y-116052951D01*
X133823341Y-116372177D01*
X133313851Y-116372177D01*
X133313851Y-117960000D01*
G37*
G36*
X129772085Y-117983447D02*
G01*
X129613911Y-117979359D01*
X129478817Y-117966380D01*
X129388842Y-117949462D01*
X129311258Y-117926018D01*
X129254261Y-117900426D01*
X129205397Y-117869383D01*
X129167286Y-117835761D01*
X129135363Y-117797019D01*
X129088906Y-117703600D01*
X129061928Y-117577194D01*
X129055355Y-117449288D01*
X129059437Y-117357335D01*
X129072378Y-117275474D01*
X129090300Y-117215183D01*
X129115434Y-117160290D01*
X129145614Y-117113770D01*
X129182914Y-117070859D01*
X129282505Y-116992777D01*
X129431890Y-116917241D01*
X129640561Y-116843077D01*
X129846715Y-116774081D01*
X129992779Y-116711976D01*
X130051967Y-116677154D01*
X130094232Y-116641750D01*
X130116341Y-116612761D01*
X130129188Y-116582244D01*
X130133321Y-116549863D01*
X130129191Y-116490865D01*
X130115915Y-116442921D01*
X130098950Y-116413382D01*
X130075392Y-116389244D01*
X130009056Y-116356396D01*
X129895232Y-116337916D01*
X129794556Y-116334808D01*
X129687452Y-116338996D01*
X129604067Y-116352683D01*
X129558598Y-116368702D01*
X129522380Y-116390703D01*
X129497659Y-116415178D01*
X129478655Y-116444995D01*
X129454711Y-116526376D01*
X129450173Y-116566594D01*
X129094556Y-116566594D01*
X129097893Y-116463084D01*
X129109840Y-116372814D01*
X129126625Y-116307924D01*
X129150105Y-116251055D01*
X129177113Y-116206620D01*
X129210076Y-116167962D01*
X129292223Y-116108209D01*
X129406251Y-116065218D01*
X129570416Y-116038055D01*
X129783321Y-116029504D01*
X129940835Y-116033594D01*
X130074904Y-116046593D01*
X130163509Y-116063462D01*
X130239655Y-116086828D01*
X130295279Y-116112274D01*
X130342766Y-116143132D01*
X130379620Y-116176551D01*
X130410289Y-116215056D01*
X130454371Y-116308198D01*
X130478804Y-116434990D01*
X130483321Y-116538628D01*
X130479241Y-116620525D01*
X130466319Y-116693715D01*
X130448259Y-116748288D01*
X130422896Y-116798184D01*
X130353525Y-116881213D01*
X130248469Y-116955850D01*
X130086455Y-117030555D01*
X129886880Y-117097334D01*
X129720781Y-117151099D01*
X129594448Y-117203312D01*
X129529724Y-117239273D01*
X129479957Y-117277046D01*
X129449112Y-117310511D01*
X129427011Y-117346503D01*
X129406536Y-117424283D01*
X129405355Y-117452096D01*
X129409458Y-117512903D01*
X129422548Y-117562573D01*
X129439438Y-117593739D01*
X129462852Y-117619298D01*
X129527826Y-117654110D01*
X129636747Y-117674204D01*
X129772085Y-117678265D01*
X129879527Y-117673086D01*
X129965413Y-117658795D01*
X130015139Y-117642013D01*
X130055677Y-117619153D01*
X130084178Y-117593813D01*
X130106873Y-117563042D01*
X130137499Y-117481690D01*
X130150173Y-117385052D01*
X130500173Y-117385052D01*
X130499510Y-117498024D01*
X130489751Y-117596998D01*
X130474577Y-117667523D01*
X130452424Y-117729735D01*
X130426659Y-117778151D01*
X130394779Y-117820660D01*
X130315619Y-117886544D01*
X130206919Y-117935024D01*
X130053208Y-117967911D01*
X129827566Y-117982997D01*
X129772085Y-117983447D01*
G37*
G36*
X128085344Y-117983447D02*
G01*
X127947638Y-117979373D01*
X127828219Y-117966487D01*
X127745747Y-117949321D01*
X127673628Y-117925474D01*
X127618988Y-117898954D01*
X127571428Y-117866691D01*
X127533079Y-117831058D01*
X127500340Y-117789858D01*
X127450260Y-117688782D01*
X127417931Y-117550732D01*
X127404884Y-117336448D01*
X127404884Y-116052951D01*
X127763310Y-116052951D01*
X127763310Y-117328021D01*
X127767466Y-117424068D01*
X127780928Y-117501789D01*
X127797402Y-117547652D01*
X127820151Y-117585226D01*
X127845763Y-117611858D01*
X127877044Y-117632945D01*
X127960767Y-117660562D01*
X128085344Y-117669961D01*
X128180095Y-117665820D01*
X128257539Y-117652463D01*
X128304379Y-117635883D01*
X128343088Y-117612962D01*
X128370881Y-117587079D01*
X128393166Y-117555458D01*
X128423149Y-117471390D01*
X128435344Y-117325212D01*
X128435344Y-116052951D01*
X128793649Y-116052951D01*
X128793649Y-117339256D01*
X128789582Y-117464247D01*
X128776747Y-117573377D01*
X128759459Y-117650070D01*
X128735418Y-117717542D01*
X128708380Y-117769484D01*
X128675434Y-117814973D01*
X128595796Y-117884419D01*
X128489381Y-117934627D01*
X128342303Y-117968127D01*
X128130650Y-117983088D01*
X128085344Y-117983447D01*
G37*
G36*
X126731628Y-116045136D02*
G01*
X127064898Y-116052951D01*
X127064898Y-117960000D01*
X126709280Y-117960000D01*
X126709280Y-117178422D01*
X126530006Y-117178422D01*
X126427067Y-117182632D01*
X126346255Y-117196470D01*
X126301372Y-117212791D01*
X126264766Y-117235297D01*
X126216820Y-117292711D01*
X126182815Y-117389326D01*
X126051290Y-117960000D01*
X125667706Y-117960000D01*
X125827197Y-117364047D01*
X125860925Y-117255370D01*
X125898610Y-117173252D01*
X125927188Y-117132288D01*
X125960238Y-117100024D01*
X126035259Y-117060377D01*
X126104413Y-117044089D01*
X126104413Y-117018932D01*
X126018485Y-117002488D01*
X125947647Y-116978977D01*
X125903009Y-116955336D01*
X125866023Y-116926043D01*
X125816866Y-116856381D01*
X125787552Y-116758078D01*
X125776883Y-116590896D01*
X126129692Y-116590896D01*
X126133881Y-116681357D01*
X126147570Y-116751563D01*
X126163582Y-116789440D01*
X126185570Y-116819068D01*
X126240801Y-116853204D01*
X126326690Y-116867355D01*
X126348045Y-116867745D01*
X126709280Y-116867745D01*
X126709280Y-116355935D01*
X126562933Y-116352515D01*
X126353662Y-116361552D01*
X126278751Y-116370591D01*
X126221356Y-116387987D01*
X126190365Y-116406275D01*
X126166532Y-116430244D01*
X126138962Y-116492260D01*
X126129692Y-116590896D01*
X125776883Y-116590896D01*
X125781546Y-116493270D01*
X125794785Y-116406633D01*
X125812792Y-116342995D01*
X125837696Y-116286281D01*
X125866415Y-116240916D01*
X125901452Y-116200760D01*
X125989089Y-116136800D01*
X126110156Y-116088815D01*
X126281371Y-116056271D01*
X126530373Y-116042255D01*
X126731628Y-116045136D01*
G37*
G36*
X125344451Y-117960000D02*
G01*
X124986025Y-117960000D01*
X124986025Y-117162791D01*
X124162804Y-117162791D01*
X124162804Y-116849305D01*
X124986025Y-116849305D01*
X124986025Y-116369368D01*
X124050819Y-116369368D01*
X124050819Y-116052951D01*
X125344451Y-116052951D01*
X125344451Y-117960000D01*
G37*
G36*
X123853593Y-117960000D02*
G01*
X123503593Y-117960000D01*
X123383181Y-117537948D01*
X122739235Y-117537948D01*
X122616014Y-117960000D01*
X122263205Y-117960000D01*
X122475150Y-117227271D01*
X122820323Y-117227271D01*
X123299161Y-117227271D01*
X123066764Y-116377794D01*
X123063956Y-116377794D01*
X122820323Y-117227271D01*
X122475150Y-117227271D01*
X122814828Y-116052951D01*
X123313205Y-116052951D01*
X123853593Y-117960000D01*
G37*
G36*
X121315543Y-117983447D02*
G01*
X121175473Y-117979354D01*
X121055106Y-117966334D01*
X120973996Y-117949253D01*
X120903450Y-117925529D01*
X120850438Y-117899229D01*
X120804458Y-117867214D01*
X120767355Y-117831686D01*
X120735741Y-117790547D01*
X120686944Y-117688285D01*
X120654658Y-117545650D01*
X120643509Y-117429748D01*
X120993509Y-117429748D01*
X121009739Y-117504611D01*
X121033011Y-117563945D01*
X121055715Y-117598535D01*
X121083971Y-117626072D01*
X121154118Y-117660593D01*
X121262827Y-117676999D01*
X121315543Y-117678265D01*
X121393757Y-117674196D01*
X121461725Y-117661343D01*
X121509519Y-117643896D01*
X121551313Y-117619582D01*
X121584593Y-117590849D01*
X121613326Y-117555534D01*
X121658848Y-117461355D01*
X121690655Y-117319278D01*
X121706620Y-117096764D01*
X121707553Y-117010750D01*
X121703429Y-116837518D01*
X121690196Y-116694190D01*
X121673703Y-116605736D01*
X121650938Y-116531605D01*
X121626709Y-116479954D01*
X121597417Y-116437122D01*
X121566060Y-116405319D01*
X121530009Y-116379977D01*
X121442186Y-116346876D01*
X121315543Y-116334808D01*
X121236590Y-116338966D01*
X121172265Y-116352439D01*
X121133015Y-116369306D01*
X121100103Y-116392714D01*
X121053378Y-116455568D01*
X121018982Y-116557327D01*
X121010362Y-116600055D01*
X120660362Y-116600055D01*
X120668919Y-116482773D01*
X120685749Y-116381327D01*
X120705689Y-116311557D01*
X120732055Y-116250712D01*
X120760974Y-116204230D01*
X120795648Y-116163986D01*
X120879475Y-116103193D01*
X120993032Y-116060770D01*
X121153820Y-116035472D01*
X121315543Y-116029504D01*
X121441088Y-116033549D01*
X121553010Y-116046231D01*
X121635697Y-116063821D01*
X121709863Y-116088339D01*
X121768894Y-116116307D01*
X121821733Y-116150436D01*
X121866200Y-116188640D01*
X121905574Y-116232911D01*
X121970125Y-116341280D01*
X122018917Y-116486438D01*
X122051798Y-116686154D01*
X122065809Y-116970027D01*
X122065979Y-117010750D01*
X122061913Y-117195080D01*
X122049081Y-117356605D01*
X122031813Y-117470485D01*
X122007804Y-117571089D01*
X121981288Y-117647718D01*
X121949071Y-117715318D01*
X121914563Y-117769283D01*
X121874844Y-117816412D01*
X121782987Y-117888907D01*
X121666895Y-117940148D01*
X121514769Y-117972288D01*
X121315543Y-117983447D01*
G37*
G36*
X120278244Y-117960000D02*
G01*
X119040665Y-117960000D01*
X119040665Y-117652009D01*
X119919940Y-117652009D01*
X119919940Y-117123712D01*
X119208704Y-117123712D01*
X119208704Y-116815722D01*
X119919940Y-116815722D01*
X119919940Y-116361064D01*
X119096719Y-116361064D01*
X119096719Y-116052951D01*
X120278244Y-116052951D01*
X120278244Y-117960000D01*
G37*
D12*
X142181749Y-117298143D02*
G75*
G02*
X142179151Y-118096798I-779179J-396797D01*
G01*
X142179152Y-117296798D02*
G75*
G02*
X142181749Y-116498143I779157J396798D01*
G01*
X141602597Y-117294941D02*
G75*
G02*
X141600001Y-118093596I-779147J-396799D01*
G01*
X141600000Y-117293596D02*
G75*
G02*
X141602597Y-116494941I779157J396798D01*
G01*
X140981749Y-117298143D02*
G75*
G02*
X140979151Y-118096798I-779179J-396797D01*
G01*
X140979152Y-117296798D02*
G75*
G02*
X140981749Y-116498143I779157J396798D01*
G01*
X144800000Y-119200000D02*
X141600000Y-114000000D01*
X144800000Y-119200000D02*
X138400000Y-119200000D01*
X141600000Y-114000000D02*
X138400000Y-119200000D01*
X140400000Y-118612588D02*
X142800000Y-118612588D01*
%LPC*%
D13*
X180787500Y-88500000D02*
G75*
G02*
X178212500Y-88500000I-1287500J0D01*
G01*
X178212500Y-88500000D02*
G75*
G02*
X180787500Y-88500000I1287500J0D01*
G01*
X85787500Y-88500000D02*
G75*
G02*
X83212500Y-88500000I-1287500J0D01*
G01*
X83212500Y-88500000D02*
G75*
G02*
X85787500Y-88500000I1287500J0D01*
G01*
X85787500Y-54500000D02*
G75*
G02*
X83212500Y-54500000I-1287500J0D01*
G01*
X83212500Y-54500000D02*
G75*
G02*
X85787500Y-54500000I1287500J0D01*
G01*
X85787500Y-145500000D02*
G75*
G02*
X83212500Y-145500000I-1287500J0D01*
G01*
X83212500Y-145500000D02*
G75*
G02*
X85787500Y-145500000I1287500J0D01*
G01*
X180787500Y-145500000D02*
G75*
G02*
X178212500Y-145500000I-1287500J0D01*
G01*
X178212500Y-145500000D02*
G75*
G02*
X180787500Y-145500000I1287500J0D01*
G01*
X180787500Y-54500000D02*
G75*
G02*
X178212500Y-54500000I-1287500J0D01*
G01*
X178212500Y-54500000D02*
G75*
G02*
X180787500Y-54500000I1287500J0D01*
G01*
D14*
X93300000Y-68225001D03*
D15*
X89900000Y-63425001D03*
D16*
X96200000Y-63425001D03*
D17*
X178500000Y-142000000D03*
X88000000Y-53500000D03*
D18*
X84600000Y-80220000D03*
X88400000Y-80220000D03*
X84600000Y-71580000D03*
X88400000Y-71580000D03*
D19*
X179500000Y-88500000D03*
X84500000Y-88500000D03*
X84500000Y-54500000D03*
X84500000Y-145500000D03*
X179500000Y-145500000D03*
X179500000Y-54500000D03*
%LPD*%
M02*
