%TF.GenerationSoftware,KiCad,Pcbnew,9.0.1-rc2*%
%TF.CreationDate,2025-03-29T14:31:01-07:00*%
%TF.ProjectId,backlight,6261636b-6c69-4676-9874-2e6b69636164,rev?*%
%TF.SameCoordinates,Original*%
%TF.FileFunction,Drillmap*%
%TF.FilePolarity,Positive*%
%FSLAX45Y45*%
G04 Gerber Fmt 4.5, Leading zero omitted, Abs format (unit mm)*
G04 Created by KiCad (PCBNEW 9.0.1-rc2) date 2025-03-29 14:31:01*
%MOMM*%
%LPD*%
G01*
G04 APERTURE LIST*
%ADD10C,0.050000*%
%ADD11C,0.200000*%
%ADD12C,0.115200*%
%ADD13C,0.220000*%
G04 APERTURE END LIST*
D10*
X8450000Y-5200000D02*
X17950000Y-5200000D01*
X17950000Y-5200000D02*
G75*
G02*
X18200000Y-5450000I0J-250000D01*
G01*
X8200000Y-5450000D02*
G75*
G02*
X8450000Y-5200000I250000J0D01*
G01*
X8450000Y-14800000D02*
G75*
G02*
X8200000Y-14550000I0J250000D01*
G01*
X8200000Y-14550000D02*
X8200000Y-5450000D01*
X17950000Y-14800000D02*
X8450000Y-14800000D01*
X18200000Y-5450000D02*
X18200000Y-14550000D01*
X18200000Y-14550000D02*
G75*
G02*
X17950000Y-14800000I-250000J0D01*
G01*
D11*
D12*
X8742400Y-5292400D02*
X8857600Y-5407600D01*
X8857600Y-5292400D02*
X8742400Y-5407600D01*
X17792400Y-14142400D02*
X17907600Y-14257600D01*
X17907600Y-14142400D02*
X17792400Y-14257600D01*
D13*
X8560000Y-5450000D02*
G75*
G02*
X8340000Y-5450000I-110000J0D01*
G01*
X8340000Y-5450000D02*
G75*
G02*
X8560000Y-5450000I110000J0D01*
G01*
X8560000Y-8850000D02*
G75*
G02*
X8340000Y-8850000I-110000J0D01*
G01*
X8340000Y-8850000D02*
G75*
G02*
X8560000Y-8850000I110000J0D01*
G01*
X8560000Y-14550000D02*
G75*
G02*
X8340000Y-14550000I-110000J0D01*
G01*
X8340000Y-14550000D02*
G75*
G02*
X8560000Y-14550000I110000J0D01*
G01*
X18060000Y-5450000D02*
G75*
G02*
X17840000Y-5450000I-110000J0D01*
G01*
X17840000Y-5450000D02*
G75*
G02*
X18060000Y-5450000I110000J0D01*
G01*
X18060000Y-8850000D02*
G75*
G02*
X17840000Y-8850000I-110000J0D01*
G01*
X17840000Y-8850000D02*
G75*
G02*
X18060000Y-8850000I110000J0D01*
G01*
X18060000Y-14550000D02*
G75*
G02*
X17840000Y-14550000I-110000J0D01*
G01*
X17840000Y-14550000D02*
G75*
G02*
X18060000Y-14550000I110000J0D01*
G01*
D11*
X8458277Y-15113984D02*
X8458277Y-14913984D01*
X8458277Y-14913984D02*
X8505896Y-14913984D01*
X8505896Y-14913984D02*
X8534467Y-14923508D01*
X8534467Y-14923508D02*
X8553515Y-14942555D01*
X8553515Y-14942555D02*
X8563039Y-14961603D01*
X8563039Y-14961603D02*
X8572563Y-14999698D01*
X8572563Y-14999698D02*
X8572563Y-15028269D01*
X8572563Y-15028269D02*
X8563039Y-15066365D01*
X8563039Y-15066365D02*
X8553515Y-15085412D01*
X8553515Y-15085412D02*
X8534467Y-15104460D01*
X8534467Y-15104460D02*
X8505896Y-15113984D01*
X8505896Y-15113984D02*
X8458277Y-15113984D01*
X8658277Y-15113984D02*
X8658277Y-14980650D01*
X8658277Y-15018746D02*
X8667801Y-14999698D01*
X8667801Y-14999698D02*
X8677324Y-14990174D01*
X8677324Y-14990174D02*
X8696372Y-14980650D01*
X8696372Y-14980650D02*
X8715420Y-14980650D01*
X8782086Y-15113984D02*
X8782086Y-14980650D01*
X8782086Y-14913984D02*
X8772563Y-14923508D01*
X8772563Y-14923508D02*
X8782086Y-14933031D01*
X8782086Y-14933031D02*
X8791610Y-14923508D01*
X8791610Y-14923508D02*
X8782086Y-14913984D01*
X8782086Y-14913984D02*
X8782086Y-14933031D01*
X8905896Y-15113984D02*
X8886848Y-15104460D01*
X8886848Y-15104460D02*
X8877324Y-15085412D01*
X8877324Y-15085412D02*
X8877324Y-14913984D01*
X9010658Y-15113984D02*
X8991610Y-15104460D01*
X8991610Y-15104460D02*
X8982086Y-15085412D01*
X8982086Y-15085412D02*
X8982086Y-14913984D01*
X9239229Y-15113984D02*
X9239229Y-14913984D01*
X9239229Y-14913984D02*
X9305896Y-15056841D01*
X9305896Y-15056841D02*
X9372563Y-14913984D01*
X9372563Y-14913984D02*
X9372563Y-15113984D01*
X9553515Y-15113984D02*
X9553515Y-15009222D01*
X9553515Y-15009222D02*
X9543991Y-14990174D01*
X9543991Y-14990174D02*
X9524944Y-14980650D01*
X9524944Y-14980650D02*
X9486848Y-14980650D01*
X9486848Y-14980650D02*
X9467801Y-14990174D01*
X9553515Y-15104460D02*
X9534467Y-15113984D01*
X9534467Y-15113984D02*
X9486848Y-15113984D01*
X9486848Y-15113984D02*
X9467801Y-15104460D01*
X9467801Y-15104460D02*
X9458277Y-15085412D01*
X9458277Y-15085412D02*
X9458277Y-15066365D01*
X9458277Y-15066365D02*
X9467801Y-15047317D01*
X9467801Y-15047317D02*
X9486848Y-15037793D01*
X9486848Y-15037793D02*
X9534467Y-15037793D01*
X9534467Y-15037793D02*
X9553515Y-15028269D01*
X9648753Y-14980650D02*
X9648753Y-15180650D01*
X9648753Y-14990174D02*
X9667801Y-14980650D01*
X9667801Y-14980650D02*
X9705896Y-14980650D01*
X9705896Y-14980650D02*
X9724944Y-14990174D01*
X9724944Y-14990174D02*
X9734467Y-14999698D01*
X9734467Y-14999698D02*
X9743991Y-15018746D01*
X9743991Y-15018746D02*
X9743991Y-15075888D01*
X9743991Y-15075888D02*
X9734467Y-15094936D01*
X9734467Y-15094936D02*
X9724944Y-15104460D01*
X9724944Y-15104460D02*
X9705896Y-15113984D01*
X9705896Y-15113984D02*
X9667801Y-15113984D01*
X9667801Y-15113984D02*
X9648753Y-15104460D01*
X9829705Y-15094936D02*
X9839229Y-15104460D01*
X9839229Y-15104460D02*
X9829705Y-15113984D01*
X9829705Y-15113984D02*
X9820182Y-15104460D01*
X9820182Y-15104460D02*
X9829705Y-15094936D01*
X9829705Y-15094936D02*
X9829705Y-15113984D01*
X9829705Y-14990174D02*
X9839229Y-14999698D01*
X9839229Y-14999698D02*
X9829705Y-15009222D01*
X9829705Y-15009222D02*
X9820182Y-14999698D01*
X9820182Y-14999698D02*
X9829705Y-14990174D01*
X9829705Y-14990174D02*
X9829705Y-15009222D01*
D12*
X8082300Y-15384900D02*
X8197500Y-15500100D01*
X8197500Y-15384900D02*
X8082300Y-15500100D01*
D11*
X8563039Y-15533984D02*
X8448753Y-15533984D01*
X8505896Y-15533984D02*
X8505896Y-15333984D01*
X8505896Y-15333984D02*
X8486848Y-15362555D01*
X8486848Y-15362555D02*
X8467801Y-15381603D01*
X8467801Y-15381603D02*
X8448753Y-15391127D01*
X8648753Y-15514936D02*
X8658277Y-15524460D01*
X8658277Y-15524460D02*
X8648753Y-15533984D01*
X8648753Y-15533984D02*
X8639229Y-15524460D01*
X8639229Y-15524460D02*
X8648753Y-15514936D01*
X8648753Y-15514936D02*
X8648753Y-15533984D01*
X8848753Y-15533984D02*
X8734467Y-15533984D01*
X8791610Y-15533984D02*
X8791610Y-15333984D01*
X8791610Y-15333984D02*
X8772563Y-15362555D01*
X8772563Y-15362555D02*
X8753515Y-15381603D01*
X8753515Y-15381603D02*
X8734467Y-15391127D01*
X9029705Y-15333984D02*
X8934467Y-15333984D01*
X8934467Y-15333984D02*
X8924944Y-15429222D01*
X8924944Y-15429222D02*
X8934467Y-15419698D01*
X8934467Y-15419698D02*
X8953515Y-15410174D01*
X8953515Y-15410174D02*
X9001134Y-15410174D01*
X9001134Y-15410174D02*
X9020182Y-15419698D01*
X9020182Y-15419698D02*
X9029705Y-15429222D01*
X9029705Y-15429222D02*
X9039229Y-15448269D01*
X9039229Y-15448269D02*
X9039229Y-15495888D01*
X9039229Y-15495888D02*
X9029705Y-15514936D01*
X9029705Y-15514936D02*
X9020182Y-15524460D01*
X9020182Y-15524460D02*
X9001134Y-15533984D01*
X9001134Y-15533984D02*
X8953515Y-15533984D01*
X8953515Y-15533984D02*
X8934467Y-15524460D01*
X8934467Y-15524460D02*
X8924944Y-15514936D01*
X9115420Y-15353031D02*
X9124944Y-15343508D01*
X9124944Y-15343508D02*
X9143991Y-15333984D01*
X9143991Y-15333984D02*
X9191610Y-15333984D01*
X9191610Y-15333984D02*
X9210658Y-15343508D01*
X9210658Y-15343508D02*
X9220182Y-15353031D01*
X9220182Y-15353031D02*
X9229705Y-15372079D01*
X9229705Y-15372079D02*
X9229705Y-15391127D01*
X9229705Y-15391127D02*
X9220182Y-15419698D01*
X9220182Y-15419698D02*
X9105896Y-15533984D01*
X9105896Y-15533984D02*
X9229705Y-15533984D01*
X9315420Y-15533984D02*
X9315420Y-15400650D01*
X9315420Y-15419698D02*
X9324944Y-15410174D01*
X9324944Y-15410174D02*
X9343991Y-15400650D01*
X9343991Y-15400650D02*
X9372563Y-15400650D01*
X9372563Y-15400650D02*
X9391610Y-15410174D01*
X9391610Y-15410174D02*
X9401134Y-15429222D01*
X9401134Y-15429222D02*
X9401134Y-15533984D01*
X9401134Y-15429222D02*
X9410658Y-15410174D01*
X9410658Y-15410174D02*
X9429705Y-15400650D01*
X9429705Y-15400650D02*
X9458277Y-15400650D01*
X9458277Y-15400650D02*
X9477325Y-15410174D01*
X9477325Y-15410174D02*
X9486848Y-15429222D01*
X9486848Y-15429222D02*
X9486848Y-15533984D01*
X9582086Y-15533984D02*
X9582086Y-15400650D01*
X9582086Y-15419698D02*
X9591610Y-15410174D01*
X9591610Y-15410174D02*
X9610658Y-15400650D01*
X9610658Y-15400650D02*
X9639229Y-15400650D01*
X9639229Y-15400650D02*
X9658277Y-15410174D01*
X9658277Y-15410174D02*
X9667801Y-15429222D01*
X9667801Y-15429222D02*
X9667801Y-15533984D01*
X9667801Y-15429222D02*
X9677325Y-15410174D01*
X9677325Y-15410174D02*
X9696372Y-15400650D01*
X9696372Y-15400650D02*
X9724944Y-15400650D01*
X9724944Y-15400650D02*
X9743991Y-15410174D01*
X9743991Y-15410174D02*
X9753515Y-15429222D01*
X9753515Y-15429222D02*
X9753515Y-15533984D01*
X10143991Y-15324460D02*
X9972563Y-15581603D01*
X10401134Y-15333984D02*
X10420182Y-15333984D01*
X10420182Y-15333984D02*
X10439229Y-15343508D01*
X10439229Y-15343508D02*
X10448753Y-15353031D01*
X10448753Y-15353031D02*
X10458277Y-15372079D01*
X10458277Y-15372079D02*
X10467801Y-15410174D01*
X10467801Y-15410174D02*
X10467801Y-15457793D01*
X10467801Y-15457793D02*
X10458277Y-15495888D01*
X10458277Y-15495888D02*
X10448753Y-15514936D01*
X10448753Y-15514936D02*
X10439229Y-15524460D01*
X10439229Y-15524460D02*
X10420182Y-15533984D01*
X10420182Y-15533984D02*
X10401134Y-15533984D01*
X10401134Y-15533984D02*
X10382087Y-15524460D01*
X10382087Y-15524460D02*
X10372563Y-15514936D01*
X10372563Y-15514936D02*
X10363039Y-15495888D01*
X10363039Y-15495888D02*
X10353515Y-15457793D01*
X10353515Y-15457793D02*
X10353515Y-15410174D01*
X10353515Y-15410174D02*
X10363039Y-15372079D01*
X10363039Y-15372079D02*
X10372563Y-15353031D01*
X10372563Y-15353031D02*
X10382087Y-15343508D01*
X10382087Y-15343508D02*
X10401134Y-15333984D01*
X10553515Y-15514936D02*
X10563039Y-15524460D01*
X10563039Y-15524460D02*
X10553515Y-15533984D01*
X10553515Y-15533984D02*
X10543991Y-15524460D01*
X10543991Y-15524460D02*
X10553515Y-15514936D01*
X10553515Y-15514936D02*
X10553515Y-15533984D01*
X10686848Y-15333984D02*
X10705896Y-15333984D01*
X10705896Y-15333984D02*
X10724944Y-15343508D01*
X10724944Y-15343508D02*
X10734468Y-15353031D01*
X10734468Y-15353031D02*
X10743991Y-15372079D01*
X10743991Y-15372079D02*
X10753515Y-15410174D01*
X10753515Y-15410174D02*
X10753515Y-15457793D01*
X10753515Y-15457793D02*
X10743991Y-15495888D01*
X10743991Y-15495888D02*
X10734468Y-15514936D01*
X10734468Y-15514936D02*
X10724944Y-15524460D01*
X10724944Y-15524460D02*
X10705896Y-15533984D01*
X10705896Y-15533984D02*
X10686848Y-15533984D01*
X10686848Y-15533984D02*
X10667801Y-15524460D01*
X10667801Y-15524460D02*
X10658277Y-15514936D01*
X10658277Y-15514936D02*
X10648753Y-15495888D01*
X10648753Y-15495888D02*
X10639229Y-15457793D01*
X10639229Y-15457793D02*
X10639229Y-15410174D01*
X10639229Y-15410174D02*
X10648753Y-15372079D01*
X10648753Y-15372079D02*
X10658277Y-15353031D01*
X10658277Y-15353031D02*
X10667801Y-15343508D01*
X10667801Y-15343508D02*
X10686848Y-15333984D01*
X10924944Y-15400650D02*
X10924944Y-15533984D01*
X10877325Y-15324460D02*
X10829706Y-15467317D01*
X10829706Y-15467317D02*
X10953515Y-15467317D01*
X11124944Y-15333984D02*
X11029706Y-15333984D01*
X11029706Y-15333984D02*
X11020182Y-15429222D01*
X11020182Y-15429222D02*
X11029706Y-15419698D01*
X11029706Y-15419698D02*
X11048753Y-15410174D01*
X11048753Y-15410174D02*
X11096372Y-15410174D01*
X11096372Y-15410174D02*
X11115420Y-15419698D01*
X11115420Y-15419698D02*
X11124944Y-15429222D01*
X11124944Y-15429222D02*
X11134468Y-15448269D01*
X11134468Y-15448269D02*
X11134468Y-15495888D01*
X11134468Y-15495888D02*
X11124944Y-15514936D01*
X11124944Y-15514936D02*
X11115420Y-15524460D01*
X11115420Y-15524460D02*
X11096372Y-15533984D01*
X11096372Y-15533984D02*
X11048753Y-15533984D01*
X11048753Y-15533984D02*
X11029706Y-15524460D01*
X11029706Y-15524460D02*
X11020182Y-15514936D01*
X11305896Y-15400650D02*
X11305896Y-15533984D01*
X11258277Y-15324460D02*
X11210658Y-15467317D01*
X11210658Y-15467317D02*
X11334467Y-15467317D01*
X11401134Y-15333984D02*
X11401134Y-15372079D01*
X11477325Y-15333984D02*
X11477325Y-15372079D01*
X11772563Y-15610174D02*
X11763039Y-15600650D01*
X11763039Y-15600650D02*
X11743991Y-15572079D01*
X11743991Y-15572079D02*
X11734468Y-15553031D01*
X11734468Y-15553031D02*
X11724944Y-15524460D01*
X11724944Y-15524460D02*
X11715420Y-15476841D01*
X11715420Y-15476841D02*
X11715420Y-15438746D01*
X11715420Y-15438746D02*
X11724944Y-15391127D01*
X11724944Y-15391127D02*
X11734468Y-15362555D01*
X11734468Y-15362555D02*
X11743991Y-15343508D01*
X11743991Y-15343508D02*
X11763039Y-15314936D01*
X11763039Y-15314936D02*
X11772563Y-15305412D01*
X11839229Y-15353031D02*
X11848753Y-15343508D01*
X11848753Y-15343508D02*
X11867801Y-15333984D01*
X11867801Y-15333984D02*
X11915420Y-15333984D01*
X11915420Y-15333984D02*
X11934468Y-15343508D01*
X11934468Y-15343508D02*
X11943991Y-15353031D01*
X11943991Y-15353031D02*
X11953515Y-15372079D01*
X11953515Y-15372079D02*
X11953515Y-15391127D01*
X11953515Y-15391127D02*
X11943991Y-15419698D01*
X11943991Y-15419698D02*
X11829706Y-15533984D01*
X11829706Y-15533984D02*
X11953515Y-15533984D01*
X12191610Y-15533984D02*
X12191610Y-15333984D01*
X12277325Y-15533984D02*
X12277325Y-15429222D01*
X12277325Y-15429222D02*
X12267801Y-15410174D01*
X12267801Y-15410174D02*
X12248753Y-15400650D01*
X12248753Y-15400650D02*
X12220182Y-15400650D01*
X12220182Y-15400650D02*
X12201134Y-15410174D01*
X12201134Y-15410174D02*
X12191610Y-15419698D01*
X12401134Y-15533984D02*
X12382087Y-15524460D01*
X12382087Y-15524460D02*
X12372563Y-15514936D01*
X12372563Y-15514936D02*
X12363039Y-15495888D01*
X12363039Y-15495888D02*
X12363039Y-15438746D01*
X12363039Y-15438746D02*
X12372563Y-15419698D01*
X12372563Y-15419698D02*
X12382087Y-15410174D01*
X12382087Y-15410174D02*
X12401134Y-15400650D01*
X12401134Y-15400650D02*
X12429706Y-15400650D01*
X12429706Y-15400650D02*
X12448753Y-15410174D01*
X12448753Y-15410174D02*
X12458277Y-15419698D01*
X12458277Y-15419698D02*
X12467801Y-15438746D01*
X12467801Y-15438746D02*
X12467801Y-15495888D01*
X12467801Y-15495888D02*
X12458277Y-15514936D01*
X12458277Y-15514936D02*
X12448753Y-15524460D01*
X12448753Y-15524460D02*
X12429706Y-15533984D01*
X12429706Y-15533984D02*
X12401134Y-15533984D01*
X12582087Y-15533984D02*
X12563039Y-15524460D01*
X12563039Y-15524460D02*
X12553515Y-15505412D01*
X12553515Y-15505412D02*
X12553515Y-15333984D01*
X12734468Y-15524460D02*
X12715420Y-15533984D01*
X12715420Y-15533984D02*
X12677325Y-15533984D01*
X12677325Y-15533984D02*
X12658277Y-15524460D01*
X12658277Y-15524460D02*
X12648753Y-15505412D01*
X12648753Y-15505412D02*
X12648753Y-15429222D01*
X12648753Y-15429222D02*
X12658277Y-15410174D01*
X12658277Y-15410174D02*
X12677325Y-15400650D01*
X12677325Y-15400650D02*
X12715420Y-15400650D01*
X12715420Y-15400650D02*
X12734468Y-15410174D01*
X12734468Y-15410174D02*
X12743991Y-15429222D01*
X12743991Y-15429222D02*
X12743991Y-15448269D01*
X12743991Y-15448269D02*
X12648753Y-15467317D01*
X12820182Y-15524460D02*
X12839230Y-15533984D01*
X12839230Y-15533984D02*
X12877325Y-15533984D01*
X12877325Y-15533984D02*
X12896372Y-15524460D01*
X12896372Y-15524460D02*
X12905896Y-15505412D01*
X12905896Y-15505412D02*
X12905896Y-15495888D01*
X12905896Y-15495888D02*
X12896372Y-15476841D01*
X12896372Y-15476841D02*
X12877325Y-15467317D01*
X12877325Y-15467317D02*
X12848753Y-15467317D01*
X12848753Y-15467317D02*
X12829706Y-15457793D01*
X12829706Y-15457793D02*
X12820182Y-15438746D01*
X12820182Y-15438746D02*
X12820182Y-15429222D01*
X12820182Y-15429222D02*
X12829706Y-15410174D01*
X12829706Y-15410174D02*
X12848753Y-15400650D01*
X12848753Y-15400650D02*
X12877325Y-15400650D01*
X12877325Y-15400650D02*
X12896372Y-15410174D01*
X12972563Y-15610174D02*
X12982087Y-15600650D01*
X12982087Y-15600650D02*
X13001134Y-15572079D01*
X13001134Y-15572079D02*
X13010658Y-15553031D01*
X13010658Y-15553031D02*
X13020182Y-15524460D01*
X13020182Y-15524460D02*
X13029706Y-15476841D01*
X13029706Y-15476841D02*
X13029706Y-15438746D01*
X13029706Y-15438746D02*
X13020182Y-15391127D01*
X13020182Y-15391127D02*
X13010658Y-15362555D01*
X13010658Y-15362555D02*
X13001134Y-15343508D01*
X13001134Y-15343508D02*
X12982087Y-15314936D01*
X12982087Y-15314936D02*
X12972563Y-15305412D01*
X13334468Y-15610174D02*
X13324944Y-15600650D01*
X13324944Y-15600650D02*
X13305896Y-15572079D01*
X13305896Y-15572079D02*
X13296372Y-15553031D01*
X13296372Y-15553031D02*
X13286849Y-15524460D01*
X13286849Y-15524460D02*
X13277325Y-15476841D01*
X13277325Y-15476841D02*
X13277325Y-15438746D01*
X13277325Y-15438746D02*
X13286849Y-15391127D01*
X13286849Y-15391127D02*
X13296372Y-15362555D01*
X13296372Y-15362555D02*
X13305896Y-15343508D01*
X13305896Y-15343508D02*
X13324944Y-15314936D01*
X13324944Y-15314936D02*
X13334468Y-15305412D01*
X13410658Y-15400650D02*
X13410658Y-15533984D01*
X13410658Y-15419698D02*
X13420182Y-15410174D01*
X13420182Y-15410174D02*
X13439230Y-15400650D01*
X13439230Y-15400650D02*
X13467801Y-15400650D01*
X13467801Y-15400650D02*
X13486849Y-15410174D01*
X13486849Y-15410174D02*
X13496372Y-15429222D01*
X13496372Y-15429222D02*
X13496372Y-15533984D01*
X13620182Y-15533984D02*
X13601134Y-15524460D01*
X13601134Y-15524460D02*
X13591611Y-15514936D01*
X13591611Y-15514936D02*
X13582087Y-15495888D01*
X13582087Y-15495888D02*
X13582087Y-15438746D01*
X13582087Y-15438746D02*
X13591611Y-15419698D01*
X13591611Y-15419698D02*
X13601134Y-15410174D01*
X13601134Y-15410174D02*
X13620182Y-15400650D01*
X13620182Y-15400650D02*
X13648753Y-15400650D01*
X13648753Y-15400650D02*
X13667801Y-15410174D01*
X13667801Y-15410174D02*
X13677325Y-15419698D01*
X13677325Y-15419698D02*
X13686849Y-15438746D01*
X13686849Y-15438746D02*
X13686849Y-15495888D01*
X13686849Y-15495888D02*
X13677325Y-15514936D01*
X13677325Y-15514936D02*
X13667801Y-15524460D01*
X13667801Y-15524460D02*
X13648753Y-15533984D01*
X13648753Y-15533984D02*
X13620182Y-15533984D01*
X13743992Y-15400650D02*
X13820182Y-15400650D01*
X13772563Y-15333984D02*
X13772563Y-15505412D01*
X13772563Y-15505412D02*
X13782087Y-15524460D01*
X13782087Y-15524460D02*
X13801134Y-15533984D01*
X13801134Y-15533984D02*
X13820182Y-15533984D01*
X14039230Y-15400650D02*
X14039230Y-15600650D01*
X14039230Y-15410174D02*
X14058277Y-15400650D01*
X14058277Y-15400650D02*
X14096373Y-15400650D01*
X14096373Y-15400650D02*
X14115420Y-15410174D01*
X14115420Y-15410174D02*
X14124944Y-15419698D01*
X14124944Y-15419698D02*
X14134468Y-15438746D01*
X14134468Y-15438746D02*
X14134468Y-15495888D01*
X14134468Y-15495888D02*
X14124944Y-15514936D01*
X14124944Y-15514936D02*
X14115420Y-15524460D01*
X14115420Y-15524460D02*
X14096373Y-15533984D01*
X14096373Y-15533984D02*
X14058277Y-15533984D01*
X14058277Y-15533984D02*
X14039230Y-15524460D01*
X14248753Y-15533984D02*
X14229706Y-15524460D01*
X14229706Y-15524460D02*
X14220182Y-15505412D01*
X14220182Y-15505412D02*
X14220182Y-15333984D01*
X14410658Y-15533984D02*
X14410658Y-15429222D01*
X14410658Y-15429222D02*
X14401134Y-15410174D01*
X14401134Y-15410174D02*
X14382087Y-15400650D01*
X14382087Y-15400650D02*
X14343992Y-15400650D01*
X14343992Y-15400650D02*
X14324944Y-15410174D01*
X14410658Y-15524460D02*
X14391611Y-15533984D01*
X14391611Y-15533984D02*
X14343992Y-15533984D01*
X14343992Y-15533984D02*
X14324944Y-15524460D01*
X14324944Y-15524460D02*
X14315420Y-15505412D01*
X14315420Y-15505412D02*
X14315420Y-15486365D01*
X14315420Y-15486365D02*
X14324944Y-15467317D01*
X14324944Y-15467317D02*
X14343992Y-15457793D01*
X14343992Y-15457793D02*
X14391611Y-15457793D01*
X14391611Y-15457793D02*
X14410658Y-15448269D01*
X14477325Y-15400650D02*
X14553515Y-15400650D01*
X14505896Y-15333984D02*
X14505896Y-15505412D01*
X14505896Y-15505412D02*
X14515420Y-15524460D01*
X14515420Y-15524460D02*
X14534468Y-15533984D01*
X14534468Y-15533984D02*
X14553515Y-15533984D01*
X14696373Y-15524460D02*
X14677325Y-15533984D01*
X14677325Y-15533984D02*
X14639230Y-15533984D01*
X14639230Y-15533984D02*
X14620182Y-15524460D01*
X14620182Y-15524460D02*
X14610658Y-15505412D01*
X14610658Y-15505412D02*
X14610658Y-15429222D01*
X14610658Y-15429222D02*
X14620182Y-15410174D01*
X14620182Y-15410174D02*
X14639230Y-15400650D01*
X14639230Y-15400650D02*
X14677325Y-15400650D01*
X14677325Y-15400650D02*
X14696373Y-15410174D01*
X14696373Y-15410174D02*
X14705896Y-15429222D01*
X14705896Y-15429222D02*
X14705896Y-15448269D01*
X14705896Y-15448269D02*
X14610658Y-15467317D01*
X14877325Y-15533984D02*
X14877325Y-15333984D01*
X14877325Y-15524460D02*
X14858277Y-15533984D01*
X14858277Y-15533984D02*
X14820182Y-15533984D01*
X14820182Y-15533984D02*
X14801134Y-15524460D01*
X14801134Y-15524460D02*
X14791611Y-15514936D01*
X14791611Y-15514936D02*
X14782087Y-15495888D01*
X14782087Y-15495888D02*
X14782087Y-15438746D01*
X14782087Y-15438746D02*
X14791611Y-15419698D01*
X14791611Y-15419698D02*
X14801134Y-15410174D01*
X14801134Y-15410174D02*
X14820182Y-15400650D01*
X14820182Y-15400650D02*
X14858277Y-15400650D01*
X14858277Y-15400650D02*
X14877325Y-15410174D01*
X14953515Y-15610174D02*
X14963039Y-15600650D01*
X14963039Y-15600650D02*
X14982087Y-15572079D01*
X14982087Y-15572079D02*
X14991611Y-15553031D01*
X14991611Y-15553031D02*
X15001134Y-15524460D01*
X15001134Y-15524460D02*
X15010658Y-15476841D01*
X15010658Y-15476841D02*
X15010658Y-15438746D01*
X15010658Y-15438746D02*
X15001134Y-15391127D01*
X15001134Y-15391127D02*
X14991611Y-15362555D01*
X14991611Y-15362555D02*
X14982087Y-15343508D01*
X14982087Y-15343508D02*
X14963039Y-15314936D01*
X14963039Y-15314936D02*
X14953515Y-15305412D01*
X8197500Y-15706500D02*
G75*
G02*
X7997500Y-15706500I-100000J0D01*
G01*
X7997500Y-15706500D02*
G75*
G02*
X8197500Y-15706500I100000J0D01*
G01*
X8448753Y-15617031D02*
X8458277Y-15607508D01*
X8458277Y-15607508D02*
X8477324Y-15597984D01*
X8477324Y-15597984D02*
X8524944Y-15597984D01*
X8524944Y-15597984D02*
X8543991Y-15607508D01*
X8543991Y-15607508D02*
X8553515Y-15617031D01*
X8553515Y-15617031D02*
X8563039Y-15636079D01*
X8563039Y-15636079D02*
X8563039Y-15655127D01*
X8563039Y-15655127D02*
X8553515Y-15683698D01*
X8553515Y-15683698D02*
X8439229Y-15797984D01*
X8439229Y-15797984D02*
X8563039Y-15797984D01*
X8648753Y-15778936D02*
X8658277Y-15788460D01*
X8658277Y-15788460D02*
X8648753Y-15797984D01*
X8648753Y-15797984D02*
X8639229Y-15788460D01*
X8639229Y-15788460D02*
X8648753Y-15778936D01*
X8648753Y-15778936D02*
X8648753Y-15797984D01*
X8734467Y-15617031D02*
X8743991Y-15607508D01*
X8743991Y-15607508D02*
X8763039Y-15597984D01*
X8763039Y-15597984D02*
X8810658Y-15597984D01*
X8810658Y-15597984D02*
X8829705Y-15607508D01*
X8829705Y-15607508D02*
X8839229Y-15617031D01*
X8839229Y-15617031D02*
X8848753Y-15636079D01*
X8848753Y-15636079D02*
X8848753Y-15655127D01*
X8848753Y-15655127D02*
X8839229Y-15683698D01*
X8839229Y-15683698D02*
X8724944Y-15797984D01*
X8724944Y-15797984D02*
X8848753Y-15797984D01*
X8972563Y-15597984D02*
X8991610Y-15597984D01*
X8991610Y-15597984D02*
X9010658Y-15607508D01*
X9010658Y-15607508D02*
X9020182Y-15617031D01*
X9020182Y-15617031D02*
X9029705Y-15636079D01*
X9029705Y-15636079D02*
X9039229Y-15674174D01*
X9039229Y-15674174D02*
X9039229Y-15721793D01*
X9039229Y-15721793D02*
X9029705Y-15759888D01*
X9029705Y-15759888D02*
X9020182Y-15778936D01*
X9020182Y-15778936D02*
X9010658Y-15788460D01*
X9010658Y-15788460D02*
X8991610Y-15797984D01*
X8991610Y-15797984D02*
X8972563Y-15797984D01*
X8972563Y-15797984D02*
X8953515Y-15788460D01*
X8953515Y-15788460D02*
X8943991Y-15778936D01*
X8943991Y-15778936D02*
X8934467Y-15759888D01*
X8934467Y-15759888D02*
X8924944Y-15721793D01*
X8924944Y-15721793D02*
X8924944Y-15674174D01*
X8924944Y-15674174D02*
X8934467Y-15636079D01*
X8934467Y-15636079D02*
X8943991Y-15617031D01*
X8943991Y-15617031D02*
X8953515Y-15607508D01*
X8953515Y-15607508D02*
X8972563Y-15597984D01*
X9163039Y-15597984D02*
X9182086Y-15597984D01*
X9182086Y-15597984D02*
X9201134Y-15607508D01*
X9201134Y-15607508D02*
X9210658Y-15617031D01*
X9210658Y-15617031D02*
X9220182Y-15636079D01*
X9220182Y-15636079D02*
X9229705Y-15674174D01*
X9229705Y-15674174D02*
X9229705Y-15721793D01*
X9229705Y-15721793D02*
X9220182Y-15759888D01*
X9220182Y-15759888D02*
X9210658Y-15778936D01*
X9210658Y-15778936D02*
X9201134Y-15788460D01*
X9201134Y-15788460D02*
X9182086Y-15797984D01*
X9182086Y-15797984D02*
X9163039Y-15797984D01*
X9163039Y-15797984D02*
X9143991Y-15788460D01*
X9143991Y-15788460D02*
X9134467Y-15778936D01*
X9134467Y-15778936D02*
X9124944Y-15759888D01*
X9124944Y-15759888D02*
X9115420Y-15721793D01*
X9115420Y-15721793D02*
X9115420Y-15674174D01*
X9115420Y-15674174D02*
X9124944Y-15636079D01*
X9124944Y-15636079D02*
X9134467Y-15617031D01*
X9134467Y-15617031D02*
X9143991Y-15607508D01*
X9143991Y-15607508D02*
X9163039Y-15597984D01*
X9315420Y-15797984D02*
X9315420Y-15664650D01*
X9315420Y-15683698D02*
X9324944Y-15674174D01*
X9324944Y-15674174D02*
X9343991Y-15664650D01*
X9343991Y-15664650D02*
X9372563Y-15664650D01*
X9372563Y-15664650D02*
X9391610Y-15674174D01*
X9391610Y-15674174D02*
X9401134Y-15693222D01*
X9401134Y-15693222D02*
X9401134Y-15797984D01*
X9401134Y-15693222D02*
X9410658Y-15674174D01*
X9410658Y-15674174D02*
X9429705Y-15664650D01*
X9429705Y-15664650D02*
X9458277Y-15664650D01*
X9458277Y-15664650D02*
X9477325Y-15674174D01*
X9477325Y-15674174D02*
X9486848Y-15693222D01*
X9486848Y-15693222D02*
X9486848Y-15797984D01*
X9582086Y-15797984D02*
X9582086Y-15664650D01*
X9582086Y-15683698D02*
X9591610Y-15674174D01*
X9591610Y-15674174D02*
X9610658Y-15664650D01*
X9610658Y-15664650D02*
X9639229Y-15664650D01*
X9639229Y-15664650D02*
X9658277Y-15674174D01*
X9658277Y-15674174D02*
X9667801Y-15693222D01*
X9667801Y-15693222D02*
X9667801Y-15797984D01*
X9667801Y-15693222D02*
X9677325Y-15674174D01*
X9677325Y-15674174D02*
X9696372Y-15664650D01*
X9696372Y-15664650D02*
X9724944Y-15664650D01*
X9724944Y-15664650D02*
X9743991Y-15674174D01*
X9743991Y-15674174D02*
X9753515Y-15693222D01*
X9753515Y-15693222D02*
X9753515Y-15797984D01*
X10143991Y-15588460D02*
X9972563Y-15845603D01*
X10401134Y-15597984D02*
X10420182Y-15597984D01*
X10420182Y-15597984D02*
X10439229Y-15607508D01*
X10439229Y-15607508D02*
X10448753Y-15617031D01*
X10448753Y-15617031D02*
X10458277Y-15636079D01*
X10458277Y-15636079D02*
X10467801Y-15674174D01*
X10467801Y-15674174D02*
X10467801Y-15721793D01*
X10467801Y-15721793D02*
X10458277Y-15759888D01*
X10458277Y-15759888D02*
X10448753Y-15778936D01*
X10448753Y-15778936D02*
X10439229Y-15788460D01*
X10439229Y-15788460D02*
X10420182Y-15797984D01*
X10420182Y-15797984D02*
X10401134Y-15797984D01*
X10401134Y-15797984D02*
X10382087Y-15788460D01*
X10382087Y-15788460D02*
X10372563Y-15778936D01*
X10372563Y-15778936D02*
X10363039Y-15759888D01*
X10363039Y-15759888D02*
X10353515Y-15721793D01*
X10353515Y-15721793D02*
X10353515Y-15674174D01*
X10353515Y-15674174D02*
X10363039Y-15636079D01*
X10363039Y-15636079D02*
X10372563Y-15617031D01*
X10372563Y-15617031D02*
X10382087Y-15607508D01*
X10382087Y-15607508D02*
X10401134Y-15597984D01*
X10553515Y-15778936D02*
X10563039Y-15788460D01*
X10563039Y-15788460D02*
X10553515Y-15797984D01*
X10553515Y-15797984D02*
X10543991Y-15788460D01*
X10543991Y-15788460D02*
X10553515Y-15778936D01*
X10553515Y-15778936D02*
X10553515Y-15797984D01*
X10686848Y-15597984D02*
X10705896Y-15597984D01*
X10705896Y-15597984D02*
X10724944Y-15607508D01*
X10724944Y-15607508D02*
X10734468Y-15617031D01*
X10734468Y-15617031D02*
X10743991Y-15636079D01*
X10743991Y-15636079D02*
X10753515Y-15674174D01*
X10753515Y-15674174D02*
X10753515Y-15721793D01*
X10753515Y-15721793D02*
X10743991Y-15759888D01*
X10743991Y-15759888D02*
X10734468Y-15778936D01*
X10734468Y-15778936D02*
X10724944Y-15788460D01*
X10724944Y-15788460D02*
X10705896Y-15797984D01*
X10705896Y-15797984D02*
X10686848Y-15797984D01*
X10686848Y-15797984D02*
X10667801Y-15788460D01*
X10667801Y-15788460D02*
X10658277Y-15778936D01*
X10658277Y-15778936D02*
X10648753Y-15759888D01*
X10648753Y-15759888D02*
X10639229Y-15721793D01*
X10639229Y-15721793D02*
X10639229Y-15674174D01*
X10639229Y-15674174D02*
X10648753Y-15636079D01*
X10648753Y-15636079D02*
X10658277Y-15617031D01*
X10658277Y-15617031D02*
X10667801Y-15607508D01*
X10667801Y-15607508D02*
X10686848Y-15597984D01*
X10867801Y-15683698D02*
X10848753Y-15674174D01*
X10848753Y-15674174D02*
X10839229Y-15664650D01*
X10839229Y-15664650D02*
X10829706Y-15645603D01*
X10829706Y-15645603D02*
X10829706Y-15636079D01*
X10829706Y-15636079D02*
X10839229Y-15617031D01*
X10839229Y-15617031D02*
X10848753Y-15607508D01*
X10848753Y-15607508D02*
X10867801Y-15597984D01*
X10867801Y-15597984D02*
X10905896Y-15597984D01*
X10905896Y-15597984D02*
X10924944Y-15607508D01*
X10924944Y-15607508D02*
X10934468Y-15617031D01*
X10934468Y-15617031D02*
X10943991Y-15636079D01*
X10943991Y-15636079D02*
X10943991Y-15645603D01*
X10943991Y-15645603D02*
X10934468Y-15664650D01*
X10934468Y-15664650D02*
X10924944Y-15674174D01*
X10924944Y-15674174D02*
X10905896Y-15683698D01*
X10905896Y-15683698D02*
X10867801Y-15683698D01*
X10867801Y-15683698D02*
X10848753Y-15693222D01*
X10848753Y-15693222D02*
X10839229Y-15702746D01*
X10839229Y-15702746D02*
X10829706Y-15721793D01*
X10829706Y-15721793D02*
X10829706Y-15759888D01*
X10829706Y-15759888D02*
X10839229Y-15778936D01*
X10839229Y-15778936D02*
X10848753Y-15788460D01*
X10848753Y-15788460D02*
X10867801Y-15797984D01*
X10867801Y-15797984D02*
X10905896Y-15797984D01*
X10905896Y-15797984D02*
X10924944Y-15788460D01*
X10924944Y-15788460D02*
X10934468Y-15778936D01*
X10934468Y-15778936D02*
X10943991Y-15759888D01*
X10943991Y-15759888D02*
X10943991Y-15721793D01*
X10943991Y-15721793D02*
X10934468Y-15702746D01*
X10934468Y-15702746D02*
X10924944Y-15693222D01*
X10924944Y-15693222D02*
X10905896Y-15683698D01*
X11115420Y-15597984D02*
X11077325Y-15597984D01*
X11077325Y-15597984D02*
X11058277Y-15607508D01*
X11058277Y-15607508D02*
X11048753Y-15617031D01*
X11048753Y-15617031D02*
X11029706Y-15645603D01*
X11029706Y-15645603D02*
X11020182Y-15683698D01*
X11020182Y-15683698D02*
X11020182Y-15759888D01*
X11020182Y-15759888D02*
X11029706Y-15778936D01*
X11029706Y-15778936D02*
X11039229Y-15788460D01*
X11039229Y-15788460D02*
X11058277Y-15797984D01*
X11058277Y-15797984D02*
X11096372Y-15797984D01*
X11096372Y-15797984D02*
X11115420Y-15788460D01*
X11115420Y-15788460D02*
X11124944Y-15778936D01*
X11124944Y-15778936D02*
X11134468Y-15759888D01*
X11134468Y-15759888D02*
X11134468Y-15712269D01*
X11134468Y-15712269D02*
X11124944Y-15693222D01*
X11124944Y-15693222D02*
X11115420Y-15683698D01*
X11115420Y-15683698D02*
X11096372Y-15674174D01*
X11096372Y-15674174D02*
X11058277Y-15674174D01*
X11058277Y-15674174D02*
X11039229Y-15683698D01*
X11039229Y-15683698D02*
X11029706Y-15693222D01*
X11029706Y-15693222D02*
X11020182Y-15712269D01*
X11305896Y-15597984D02*
X11267801Y-15597984D01*
X11267801Y-15597984D02*
X11248753Y-15607508D01*
X11248753Y-15607508D02*
X11239229Y-15617031D01*
X11239229Y-15617031D02*
X11220182Y-15645603D01*
X11220182Y-15645603D02*
X11210658Y-15683698D01*
X11210658Y-15683698D02*
X11210658Y-15759888D01*
X11210658Y-15759888D02*
X11220182Y-15778936D01*
X11220182Y-15778936D02*
X11229706Y-15788460D01*
X11229706Y-15788460D02*
X11248753Y-15797984D01*
X11248753Y-15797984D02*
X11286848Y-15797984D01*
X11286848Y-15797984D02*
X11305896Y-15788460D01*
X11305896Y-15788460D02*
X11315420Y-15778936D01*
X11315420Y-15778936D02*
X11324944Y-15759888D01*
X11324944Y-15759888D02*
X11324944Y-15712269D01*
X11324944Y-15712269D02*
X11315420Y-15693222D01*
X11315420Y-15693222D02*
X11305896Y-15683698D01*
X11305896Y-15683698D02*
X11286848Y-15674174D01*
X11286848Y-15674174D02*
X11248753Y-15674174D01*
X11248753Y-15674174D02*
X11229706Y-15683698D01*
X11229706Y-15683698D02*
X11220182Y-15693222D01*
X11220182Y-15693222D02*
X11210658Y-15712269D01*
X11401134Y-15597984D02*
X11401134Y-15636079D01*
X11477325Y-15597984D02*
X11477325Y-15636079D01*
X11772563Y-15874174D02*
X11763039Y-15864650D01*
X11763039Y-15864650D02*
X11743991Y-15836079D01*
X11743991Y-15836079D02*
X11734468Y-15817031D01*
X11734468Y-15817031D02*
X11724944Y-15788460D01*
X11724944Y-15788460D02*
X11715420Y-15740841D01*
X11715420Y-15740841D02*
X11715420Y-15702746D01*
X11715420Y-15702746D02*
X11724944Y-15655127D01*
X11724944Y-15655127D02*
X11734468Y-15626555D01*
X11734468Y-15626555D02*
X11743991Y-15607508D01*
X11743991Y-15607508D02*
X11763039Y-15578936D01*
X11763039Y-15578936D02*
X11772563Y-15569412D01*
X11934468Y-15597984D02*
X11896372Y-15597984D01*
X11896372Y-15597984D02*
X11877325Y-15607508D01*
X11877325Y-15607508D02*
X11867801Y-15617031D01*
X11867801Y-15617031D02*
X11848753Y-15645603D01*
X11848753Y-15645603D02*
X11839229Y-15683698D01*
X11839229Y-15683698D02*
X11839229Y-15759888D01*
X11839229Y-15759888D02*
X11848753Y-15778936D01*
X11848753Y-15778936D02*
X11858277Y-15788460D01*
X11858277Y-15788460D02*
X11877325Y-15797984D01*
X11877325Y-15797984D02*
X11915420Y-15797984D01*
X11915420Y-15797984D02*
X11934468Y-15788460D01*
X11934468Y-15788460D02*
X11943991Y-15778936D01*
X11943991Y-15778936D02*
X11953515Y-15759888D01*
X11953515Y-15759888D02*
X11953515Y-15712269D01*
X11953515Y-15712269D02*
X11943991Y-15693222D01*
X11943991Y-15693222D02*
X11934468Y-15683698D01*
X11934468Y-15683698D02*
X11915420Y-15674174D01*
X11915420Y-15674174D02*
X11877325Y-15674174D01*
X11877325Y-15674174D02*
X11858277Y-15683698D01*
X11858277Y-15683698D02*
X11848753Y-15693222D01*
X11848753Y-15693222D02*
X11839229Y-15712269D01*
X12191610Y-15797984D02*
X12191610Y-15597984D01*
X12277325Y-15797984D02*
X12277325Y-15693222D01*
X12277325Y-15693222D02*
X12267801Y-15674174D01*
X12267801Y-15674174D02*
X12248753Y-15664650D01*
X12248753Y-15664650D02*
X12220182Y-15664650D01*
X12220182Y-15664650D02*
X12201134Y-15674174D01*
X12201134Y-15674174D02*
X12191610Y-15683698D01*
X12401134Y-15797984D02*
X12382087Y-15788460D01*
X12382087Y-15788460D02*
X12372563Y-15778936D01*
X12372563Y-15778936D02*
X12363039Y-15759888D01*
X12363039Y-15759888D02*
X12363039Y-15702746D01*
X12363039Y-15702746D02*
X12372563Y-15683698D01*
X12372563Y-15683698D02*
X12382087Y-15674174D01*
X12382087Y-15674174D02*
X12401134Y-15664650D01*
X12401134Y-15664650D02*
X12429706Y-15664650D01*
X12429706Y-15664650D02*
X12448753Y-15674174D01*
X12448753Y-15674174D02*
X12458277Y-15683698D01*
X12458277Y-15683698D02*
X12467801Y-15702746D01*
X12467801Y-15702746D02*
X12467801Y-15759888D01*
X12467801Y-15759888D02*
X12458277Y-15778936D01*
X12458277Y-15778936D02*
X12448753Y-15788460D01*
X12448753Y-15788460D02*
X12429706Y-15797984D01*
X12429706Y-15797984D02*
X12401134Y-15797984D01*
X12582087Y-15797984D02*
X12563039Y-15788460D01*
X12563039Y-15788460D02*
X12553515Y-15769412D01*
X12553515Y-15769412D02*
X12553515Y-15597984D01*
X12734468Y-15788460D02*
X12715420Y-15797984D01*
X12715420Y-15797984D02*
X12677325Y-15797984D01*
X12677325Y-15797984D02*
X12658277Y-15788460D01*
X12658277Y-15788460D02*
X12648753Y-15769412D01*
X12648753Y-15769412D02*
X12648753Y-15693222D01*
X12648753Y-15693222D02*
X12658277Y-15674174D01*
X12658277Y-15674174D02*
X12677325Y-15664650D01*
X12677325Y-15664650D02*
X12715420Y-15664650D01*
X12715420Y-15664650D02*
X12734468Y-15674174D01*
X12734468Y-15674174D02*
X12743991Y-15693222D01*
X12743991Y-15693222D02*
X12743991Y-15712269D01*
X12743991Y-15712269D02*
X12648753Y-15731317D01*
X12820182Y-15788460D02*
X12839230Y-15797984D01*
X12839230Y-15797984D02*
X12877325Y-15797984D01*
X12877325Y-15797984D02*
X12896372Y-15788460D01*
X12896372Y-15788460D02*
X12905896Y-15769412D01*
X12905896Y-15769412D02*
X12905896Y-15759888D01*
X12905896Y-15759888D02*
X12896372Y-15740841D01*
X12896372Y-15740841D02*
X12877325Y-15731317D01*
X12877325Y-15731317D02*
X12848753Y-15731317D01*
X12848753Y-15731317D02*
X12829706Y-15721793D01*
X12829706Y-15721793D02*
X12820182Y-15702746D01*
X12820182Y-15702746D02*
X12820182Y-15693222D01*
X12820182Y-15693222D02*
X12829706Y-15674174D01*
X12829706Y-15674174D02*
X12848753Y-15664650D01*
X12848753Y-15664650D02*
X12877325Y-15664650D01*
X12877325Y-15664650D02*
X12896372Y-15674174D01*
X12972563Y-15874174D02*
X12982087Y-15864650D01*
X12982087Y-15864650D02*
X13001134Y-15836079D01*
X13001134Y-15836079D02*
X13010658Y-15817031D01*
X13010658Y-15817031D02*
X13020182Y-15788460D01*
X13020182Y-15788460D02*
X13029706Y-15740841D01*
X13029706Y-15740841D02*
X13029706Y-15702746D01*
X13029706Y-15702746D02*
X13020182Y-15655127D01*
X13020182Y-15655127D02*
X13010658Y-15626555D01*
X13010658Y-15626555D02*
X13001134Y-15607508D01*
X13001134Y-15607508D02*
X12982087Y-15578936D01*
X12982087Y-15578936D02*
X12972563Y-15569412D01*
X13334468Y-15874174D02*
X13324944Y-15864650D01*
X13324944Y-15864650D02*
X13305896Y-15836079D01*
X13305896Y-15836079D02*
X13296372Y-15817031D01*
X13296372Y-15817031D02*
X13286849Y-15788460D01*
X13286849Y-15788460D02*
X13277325Y-15740841D01*
X13277325Y-15740841D02*
X13277325Y-15702746D01*
X13277325Y-15702746D02*
X13286849Y-15655127D01*
X13286849Y-15655127D02*
X13296372Y-15626555D01*
X13296372Y-15626555D02*
X13305896Y-15607508D01*
X13305896Y-15607508D02*
X13324944Y-15578936D01*
X13324944Y-15578936D02*
X13334468Y-15569412D01*
X13410658Y-15664650D02*
X13410658Y-15797984D01*
X13410658Y-15683698D02*
X13420182Y-15674174D01*
X13420182Y-15674174D02*
X13439230Y-15664650D01*
X13439230Y-15664650D02*
X13467801Y-15664650D01*
X13467801Y-15664650D02*
X13486849Y-15674174D01*
X13486849Y-15674174D02*
X13496372Y-15693222D01*
X13496372Y-15693222D02*
X13496372Y-15797984D01*
X13620182Y-15797984D02*
X13601134Y-15788460D01*
X13601134Y-15788460D02*
X13591611Y-15778936D01*
X13591611Y-15778936D02*
X13582087Y-15759888D01*
X13582087Y-15759888D02*
X13582087Y-15702746D01*
X13582087Y-15702746D02*
X13591611Y-15683698D01*
X13591611Y-15683698D02*
X13601134Y-15674174D01*
X13601134Y-15674174D02*
X13620182Y-15664650D01*
X13620182Y-15664650D02*
X13648753Y-15664650D01*
X13648753Y-15664650D02*
X13667801Y-15674174D01*
X13667801Y-15674174D02*
X13677325Y-15683698D01*
X13677325Y-15683698D02*
X13686849Y-15702746D01*
X13686849Y-15702746D02*
X13686849Y-15759888D01*
X13686849Y-15759888D02*
X13677325Y-15778936D01*
X13677325Y-15778936D02*
X13667801Y-15788460D01*
X13667801Y-15788460D02*
X13648753Y-15797984D01*
X13648753Y-15797984D02*
X13620182Y-15797984D01*
X13743992Y-15664650D02*
X13820182Y-15664650D01*
X13772563Y-15597984D02*
X13772563Y-15769412D01*
X13772563Y-15769412D02*
X13782087Y-15788460D01*
X13782087Y-15788460D02*
X13801134Y-15797984D01*
X13801134Y-15797984D02*
X13820182Y-15797984D01*
X14039230Y-15664650D02*
X14039230Y-15864650D01*
X14039230Y-15674174D02*
X14058277Y-15664650D01*
X14058277Y-15664650D02*
X14096373Y-15664650D01*
X14096373Y-15664650D02*
X14115420Y-15674174D01*
X14115420Y-15674174D02*
X14124944Y-15683698D01*
X14124944Y-15683698D02*
X14134468Y-15702746D01*
X14134468Y-15702746D02*
X14134468Y-15759888D01*
X14134468Y-15759888D02*
X14124944Y-15778936D01*
X14124944Y-15778936D02*
X14115420Y-15788460D01*
X14115420Y-15788460D02*
X14096373Y-15797984D01*
X14096373Y-15797984D02*
X14058277Y-15797984D01*
X14058277Y-15797984D02*
X14039230Y-15788460D01*
X14248753Y-15797984D02*
X14229706Y-15788460D01*
X14229706Y-15788460D02*
X14220182Y-15769412D01*
X14220182Y-15769412D02*
X14220182Y-15597984D01*
X14410658Y-15797984D02*
X14410658Y-15693222D01*
X14410658Y-15693222D02*
X14401134Y-15674174D01*
X14401134Y-15674174D02*
X14382087Y-15664650D01*
X14382087Y-15664650D02*
X14343992Y-15664650D01*
X14343992Y-15664650D02*
X14324944Y-15674174D01*
X14410658Y-15788460D02*
X14391611Y-15797984D01*
X14391611Y-15797984D02*
X14343992Y-15797984D01*
X14343992Y-15797984D02*
X14324944Y-15788460D01*
X14324944Y-15788460D02*
X14315420Y-15769412D01*
X14315420Y-15769412D02*
X14315420Y-15750365D01*
X14315420Y-15750365D02*
X14324944Y-15731317D01*
X14324944Y-15731317D02*
X14343992Y-15721793D01*
X14343992Y-15721793D02*
X14391611Y-15721793D01*
X14391611Y-15721793D02*
X14410658Y-15712269D01*
X14477325Y-15664650D02*
X14553515Y-15664650D01*
X14505896Y-15597984D02*
X14505896Y-15769412D01*
X14505896Y-15769412D02*
X14515420Y-15788460D01*
X14515420Y-15788460D02*
X14534468Y-15797984D01*
X14534468Y-15797984D02*
X14553515Y-15797984D01*
X14696373Y-15788460D02*
X14677325Y-15797984D01*
X14677325Y-15797984D02*
X14639230Y-15797984D01*
X14639230Y-15797984D02*
X14620182Y-15788460D01*
X14620182Y-15788460D02*
X14610658Y-15769412D01*
X14610658Y-15769412D02*
X14610658Y-15693222D01*
X14610658Y-15693222D02*
X14620182Y-15674174D01*
X14620182Y-15674174D02*
X14639230Y-15664650D01*
X14639230Y-15664650D02*
X14677325Y-15664650D01*
X14677325Y-15664650D02*
X14696373Y-15674174D01*
X14696373Y-15674174D02*
X14705896Y-15693222D01*
X14705896Y-15693222D02*
X14705896Y-15712269D01*
X14705896Y-15712269D02*
X14610658Y-15731317D01*
X14877325Y-15797984D02*
X14877325Y-15597984D01*
X14877325Y-15788460D02*
X14858277Y-15797984D01*
X14858277Y-15797984D02*
X14820182Y-15797984D01*
X14820182Y-15797984D02*
X14801134Y-15788460D01*
X14801134Y-15788460D02*
X14791611Y-15778936D01*
X14791611Y-15778936D02*
X14782087Y-15759888D01*
X14782087Y-15759888D02*
X14782087Y-15702746D01*
X14782087Y-15702746D02*
X14791611Y-15683698D01*
X14791611Y-15683698D02*
X14801134Y-15674174D01*
X14801134Y-15674174D02*
X14820182Y-15664650D01*
X14820182Y-15664650D02*
X14858277Y-15664650D01*
X14858277Y-15664650D02*
X14877325Y-15674174D01*
X14953515Y-15874174D02*
X14963039Y-15864650D01*
X14963039Y-15864650D02*
X14982087Y-15836079D01*
X14982087Y-15836079D02*
X14991611Y-15817031D01*
X14991611Y-15817031D02*
X15001134Y-15788460D01*
X15001134Y-15788460D02*
X15010658Y-15740841D01*
X15010658Y-15740841D02*
X15010658Y-15702746D01*
X15010658Y-15702746D02*
X15001134Y-15655127D01*
X15001134Y-15655127D02*
X14991611Y-15626555D01*
X14991611Y-15626555D02*
X14982087Y-15607508D01*
X14982087Y-15607508D02*
X14963039Y-15578936D01*
X14963039Y-15578936D02*
X14953515Y-15569412D01*
M02*
