%TF.GenerationSoftware,KiCad,Pcbnew,8.0.4*%
%TF.CreationDate,2024-08-02T19:36:39-07:00*%
%TF.ProjectId,backlight,6261636b-6c69-4676-9874-2e6b69636164,rev?*%
%TF.SameCoordinates,Original*%
%TF.FileFunction,Drillmap*%
%TF.FilePolarity,Positive*%
%FSLAX45Y45*%
G04 Gerber Fmt 4.5, Leading zero omitted, Abs format (unit mm)*
G04 Created by KiCad (PCBNEW 8.0.4) date 2024-08-02 19:36:39*
%MOMM*%
%LPD*%
G01*
G04 APERTURE LIST*
%ADD10C,0.050000*%
%ADD11C,0.200000*%
%ADD12C,0.100000*%
G04 APERTURE END LIST*
D10*
X8450000Y-5200000D02*
X17950000Y-5200000D01*
X17950000Y-5200000D02*
G75*
G02*
X18200000Y-5450000I0J-250000D01*
G01*
X8200000Y-5450000D02*
G75*
G02*
X8450000Y-5200000I250000J0D01*
G01*
X8450000Y-14800000D02*
G75*
G02*
X8200000Y-14550000I0J250000D01*
G01*
X8200000Y-14550000D02*
X8200000Y-5450000D01*
X17950000Y-14800000D02*
X8450000Y-14800000D01*
X18200000Y-5450000D02*
X18200000Y-14550000D01*
X18200000Y-14550000D02*
G75*
G02*
X17950000Y-14800000I-250000J0D01*
G01*
D11*
D12*
X8700000Y-6285000D02*
X8730000Y-6315000D01*
X8730000Y-6285000D02*
X8700000Y-6315000D01*
X8700000Y-6385000D02*
X8730000Y-6415000D01*
X8730000Y-6385000D02*
X8700000Y-6415000D01*
X8700000Y-6485000D02*
X8730000Y-6515000D01*
X8730000Y-6485000D02*
X8700000Y-6515000D01*
X8895000Y-6595000D02*
X8925000Y-6625000D01*
X8925000Y-6595000D02*
X8895000Y-6625000D01*
X8985000Y-6945000D02*
X9015000Y-6975000D01*
X9015000Y-6945000D02*
X8985000Y-6975000D01*
X8985000Y-7185000D02*
X9015000Y-7215000D01*
X9015000Y-7185000D02*
X8985000Y-7215000D01*
X9080000Y-7175000D02*
X9110000Y-7205000D01*
X9110000Y-7175000D02*
X9080000Y-7205000D01*
X9760000Y-6280000D02*
X9790000Y-6310000D01*
X9790000Y-6280000D02*
X9760000Y-6310000D01*
X9760000Y-6380000D02*
X9790000Y-6410000D01*
X9790000Y-6380000D02*
X9760000Y-6410000D01*
X9760000Y-6480000D02*
X9790000Y-6510000D01*
X9790000Y-6480000D02*
X9760000Y-6510000D01*
X9955000Y-6590000D02*
X9985000Y-6620000D01*
X9985000Y-6590000D02*
X9955000Y-6620000D01*
X10045000Y-6940000D02*
X10075000Y-6970000D01*
X10075000Y-6940000D02*
X10045000Y-6970000D01*
X10045000Y-7180000D02*
X10075000Y-7210000D01*
X10075000Y-7180000D02*
X10045000Y-7210000D01*
X10140000Y-7175000D02*
X10170000Y-7205000D01*
X10170000Y-7175000D02*
X10140000Y-7205000D01*
X10820000Y-6285000D02*
X10850000Y-6315000D01*
X10850000Y-6285000D02*
X10820000Y-6315000D01*
X10820000Y-6385000D02*
X10850000Y-6415000D01*
X10850000Y-6385000D02*
X10820000Y-6415000D01*
X10820000Y-6485000D02*
X10850000Y-6515000D01*
X10850000Y-6485000D02*
X10820000Y-6515000D01*
X11015000Y-6595000D02*
X11045000Y-6625000D01*
X11045000Y-6595000D02*
X11015000Y-6625000D01*
X11105000Y-6945000D02*
X11135000Y-6975000D01*
X11135000Y-6945000D02*
X11105000Y-6975000D01*
X11105000Y-7185000D02*
X11135000Y-7215000D01*
X11135000Y-7185000D02*
X11105000Y-7215000D01*
X11200000Y-7175000D02*
X11230000Y-7205000D01*
X11230000Y-7175000D02*
X11200000Y-7205000D01*
X16425000Y-7505000D02*
X16455000Y-7535000D01*
X16455000Y-7505000D02*
X16425000Y-7535000D01*
X16745000Y-8217500D02*
X16775000Y-8247500D01*
X16775000Y-8217500D02*
X16745000Y-8247500D01*
X16805000Y-8057500D02*
X16835000Y-8087500D01*
X16835000Y-8057500D02*
X16805000Y-8087500D01*
X17245000Y-7895000D02*
X17275000Y-7925000D01*
X17275000Y-7895000D02*
X17245000Y-7925000D01*
X17245000Y-8055000D02*
X17275000Y-8085000D01*
X17275000Y-8055000D02*
X17245000Y-8085000D01*
X17245000Y-8215000D02*
X17275000Y-8245000D01*
X17275000Y-8215000D02*
X17245000Y-8245000D01*
X17575000Y-7395000D02*
X17605000Y-7425000D01*
X17605000Y-7395000D02*
X17575000Y-7425000D01*
X17575000Y-7660000D02*
X17605000Y-7690000D01*
X17605000Y-7660000D02*
X17575000Y-7690000D01*
X17675000Y-7165000D02*
X17705000Y-7195000D01*
X17705000Y-7165000D02*
X17675000Y-7195000D01*
X17675000Y-7905000D02*
X17705000Y-7935000D01*
X17705000Y-7905000D02*
X17675000Y-7935000D01*
X17805000Y-7165000D02*
X17835000Y-7195000D01*
X17835000Y-7165000D02*
X17805000Y-7195000D01*
X17805000Y-7905000D02*
X17835000Y-7935000D01*
X17835000Y-7905000D02*
X17805000Y-7935000D01*
X9300000Y-7320000D02*
G75*
G02*
X9260000Y-7320000I-20000J0D01*
G01*
X9260000Y-7320000D02*
G75*
G02*
X9300000Y-7320000I20000J0D01*
G01*
X10360000Y-7320000D02*
G75*
G02*
X10320000Y-7320000I-20000J0D01*
G01*
X10320000Y-7320000D02*
G75*
G02*
X10360000Y-7320000I20000J0D01*
G01*
X11420000Y-7320000D02*
G75*
G02*
X11380000Y-7320000I-20000J0D01*
G01*
X11380000Y-7320000D02*
G75*
G02*
X11420000Y-7320000I20000J0D01*
G01*
X11700000Y-8200000D02*
G75*
G02*
X11660000Y-8200000I-20000J0D01*
G01*
X11660000Y-8200000D02*
G75*
G02*
X11700000Y-8200000I20000J0D01*
G01*
X11860000Y-8300000D02*
G75*
G02*
X11820000Y-8300000I-20000J0D01*
G01*
X11820000Y-8300000D02*
G75*
G02*
X11860000Y-8300000I20000J0D01*
G01*
X12020000Y-8400000D02*
G75*
G02*
X11980000Y-8400000I-20000J0D01*
G01*
X11980000Y-8400000D02*
G75*
G02*
X12020000Y-8400000I20000J0D01*
G01*
X8880000Y-11850000D02*
X8880000Y-11910000D01*
X8850000Y-11880000D02*
X8910000Y-11880000D01*
X8880000Y-13650000D02*
X8880000Y-13710000D01*
X8850000Y-13680000D02*
X8910000Y-13680000D01*
X9300000Y-9170000D02*
X9300000Y-9230000D01*
X9270000Y-9200000D02*
X9330000Y-9200000D01*
X9300000Y-9570000D02*
X9300000Y-9630000D01*
X9270000Y-9600000D02*
X9330000Y-9600000D01*
X9300000Y-10020000D02*
X9300000Y-10080000D01*
X9270000Y-10050000D02*
X9330000Y-10050000D01*
X9300000Y-10420000D02*
X9300000Y-10480000D01*
X9270000Y-10450000D02*
X9330000Y-10450000D01*
X9300000Y-10870000D02*
X9300000Y-10930000D01*
X9270000Y-10900000D02*
X9330000Y-10900000D01*
X9300000Y-12170000D02*
X9300000Y-12230000D01*
X9270000Y-12200000D02*
X9330000Y-12200000D01*
X9300000Y-12570000D02*
X9300000Y-12630000D01*
X9270000Y-12600000D02*
X9330000Y-12600000D01*
X9300000Y-13020000D02*
X9300000Y-13080000D01*
X9270000Y-13050000D02*
X9330000Y-13050000D01*
X9300000Y-13420000D02*
X9300000Y-13480000D01*
X9270000Y-13450000D02*
X9330000Y-13450000D01*
X9300000Y-13870000D02*
X9300000Y-13930000D01*
X9270000Y-13900000D02*
X9330000Y-13900000D01*
X9500000Y-9370000D02*
X9500000Y-9430000D01*
X9470000Y-9400000D02*
X9530000Y-9400000D01*
X9500000Y-9820000D02*
X9500000Y-9880000D01*
X9470000Y-9850000D02*
X9530000Y-9850000D01*
X9500000Y-10220000D02*
X9500000Y-10280000D01*
X9470000Y-10250000D02*
X9530000Y-10250000D01*
X9500000Y-10620000D02*
X9500000Y-10680000D01*
X9470000Y-10650000D02*
X9530000Y-10650000D01*
X9500000Y-11070000D02*
X9500000Y-11130000D01*
X9470000Y-11100000D02*
X9530000Y-11100000D01*
X9500000Y-12370000D02*
X9500000Y-12430000D01*
X9470000Y-12400000D02*
X9530000Y-12400000D01*
X9500000Y-12820000D02*
X9500000Y-12880000D01*
X9470000Y-12850000D02*
X9530000Y-12850000D01*
X9500000Y-13220000D02*
X9500000Y-13280000D01*
X9470000Y-13250000D02*
X9530000Y-13250000D01*
X9500000Y-13620000D02*
X9500000Y-13680000D01*
X9470000Y-13650000D02*
X9530000Y-13650000D01*
X9500000Y-14070000D02*
X9500000Y-14130000D01*
X9470000Y-14100000D02*
X9530000Y-14100000D01*
X9700000Y-9170000D02*
X9700000Y-9230000D01*
X9670000Y-9200000D02*
X9730000Y-9200000D01*
X9700000Y-9570000D02*
X9700000Y-9630000D01*
X9670000Y-9600000D02*
X9730000Y-9600000D01*
X9700000Y-9820000D02*
X9700000Y-9880000D01*
X9670000Y-9850000D02*
X9730000Y-9850000D01*
X9700000Y-10020000D02*
X9700000Y-10080000D01*
X9670000Y-10050000D02*
X9730000Y-10050000D01*
X9700000Y-10220000D02*
X9700000Y-10280000D01*
X9670000Y-10250000D02*
X9730000Y-10250000D01*
X9700000Y-10420000D02*
X9700000Y-10480000D01*
X9670000Y-10450000D02*
X9730000Y-10450000D01*
X9700000Y-10620000D02*
X9700000Y-10680000D01*
X9670000Y-10650000D02*
X9730000Y-10650000D01*
X9700000Y-10870000D02*
X9700000Y-10930000D01*
X9670000Y-10900000D02*
X9730000Y-10900000D01*
X9700000Y-11270000D02*
X9700000Y-11330000D01*
X9670000Y-11300000D02*
X9730000Y-11300000D01*
X9700000Y-12170000D02*
X9700000Y-12230000D01*
X9670000Y-12200000D02*
X9730000Y-12200000D01*
X9700000Y-12570000D02*
X9700000Y-12630000D01*
X9670000Y-12600000D02*
X9730000Y-12600000D01*
X9700000Y-12820000D02*
X9700000Y-12880000D01*
X9670000Y-12850000D02*
X9730000Y-12850000D01*
X9700000Y-13020000D02*
X9700000Y-13080000D01*
X9670000Y-13050000D02*
X9730000Y-13050000D01*
X9700000Y-13220000D02*
X9700000Y-13280000D01*
X9670000Y-13250000D02*
X9730000Y-13250000D01*
X9700000Y-13420000D02*
X9700000Y-13480000D01*
X9670000Y-13450000D02*
X9730000Y-13450000D01*
X9700000Y-13620000D02*
X9700000Y-13680000D01*
X9670000Y-13650000D02*
X9730000Y-13650000D01*
X9700000Y-13870000D02*
X9700000Y-13930000D01*
X9670000Y-13900000D02*
X9730000Y-13900000D01*
X9700000Y-14270000D02*
X9700000Y-14330000D01*
X9670000Y-14300000D02*
X9730000Y-14300000D01*
X9900000Y-8970000D02*
X9900000Y-9030000D01*
X9870000Y-9000000D02*
X9930000Y-9000000D01*
X9900000Y-9370000D02*
X9900000Y-9430000D01*
X9870000Y-9400000D02*
X9930000Y-9400000D01*
X9900000Y-9570000D02*
X9900000Y-9630000D01*
X9870000Y-9600000D02*
X9930000Y-9600000D01*
X9900000Y-10870000D02*
X9900000Y-10930000D01*
X9870000Y-10900000D02*
X9930000Y-10900000D01*
X9900000Y-11070000D02*
X9900000Y-11130000D01*
X9870000Y-11100000D02*
X9930000Y-11100000D01*
X9900000Y-11970000D02*
X9900000Y-12030000D01*
X9870000Y-12000000D02*
X9930000Y-12000000D01*
X9900000Y-12370000D02*
X9900000Y-12430000D01*
X9870000Y-12400000D02*
X9930000Y-12400000D01*
X9900000Y-12570000D02*
X9900000Y-12630000D01*
X9870000Y-12600000D02*
X9930000Y-12600000D01*
X9900000Y-13870000D02*
X9900000Y-13930000D01*
X9870000Y-13900000D02*
X9930000Y-13900000D01*
X9900000Y-14070000D02*
X9900000Y-14130000D01*
X9870000Y-14100000D02*
X9930000Y-14100000D01*
X10100000Y-9170000D02*
X10100000Y-9230000D01*
X10070000Y-9200000D02*
X10130000Y-9200000D01*
X10100000Y-9370000D02*
X10100000Y-9430000D01*
X10070000Y-9400000D02*
X10130000Y-9400000D01*
X10100000Y-9570000D02*
X10100000Y-9630000D01*
X10070000Y-9600000D02*
X10130000Y-9600000D01*
X10100000Y-10720000D02*
X10100000Y-10780000D01*
X10070000Y-10750000D02*
X10130000Y-10750000D01*
X10100000Y-10870000D02*
X10100000Y-10930000D01*
X10070000Y-10900000D02*
X10130000Y-10900000D01*
X10100000Y-11070000D02*
X10100000Y-11130000D01*
X10070000Y-11100000D02*
X10130000Y-11100000D01*
X10100000Y-11270000D02*
X10100000Y-11330000D01*
X10070000Y-11300000D02*
X10130000Y-11300000D01*
X10100000Y-12170000D02*
X10100000Y-12230000D01*
X10070000Y-12200000D02*
X10130000Y-12200000D01*
X10100000Y-12370000D02*
X10100000Y-12430000D01*
X10070000Y-12400000D02*
X10130000Y-12400000D01*
X10100000Y-12570000D02*
X10100000Y-12630000D01*
X10070000Y-12600000D02*
X10130000Y-12600000D01*
X10100000Y-13720000D02*
X10100000Y-13780000D01*
X10070000Y-13750000D02*
X10130000Y-13750000D01*
X10100000Y-13870000D02*
X10100000Y-13930000D01*
X10070000Y-13900000D02*
X10130000Y-13900000D01*
X10100000Y-14070000D02*
X10100000Y-14130000D01*
X10070000Y-14100000D02*
X10130000Y-14100000D01*
X10100000Y-14270000D02*
X10100000Y-14330000D01*
X10070000Y-14300000D02*
X10130000Y-14300000D01*
X10300000Y-9170000D02*
X10300000Y-9230000D01*
X10270000Y-9200000D02*
X10330000Y-9200000D01*
X10300000Y-9370000D02*
X10300000Y-9430000D01*
X10270000Y-9400000D02*
X10330000Y-9400000D01*
X10300000Y-9570000D02*
X10300000Y-9630000D01*
X10270000Y-9600000D02*
X10330000Y-9600000D01*
X10300000Y-10720000D02*
X10300000Y-10780000D01*
X10270000Y-10750000D02*
X10330000Y-10750000D01*
X10300000Y-10870000D02*
X10300000Y-10930000D01*
X10270000Y-10900000D02*
X10330000Y-10900000D01*
X10300000Y-11070000D02*
X10300000Y-11130000D01*
X10270000Y-11100000D02*
X10330000Y-11100000D01*
X10300000Y-11270000D02*
X10300000Y-11330000D01*
X10270000Y-11300000D02*
X10330000Y-11300000D01*
X10300000Y-12170000D02*
X10300000Y-12230000D01*
X10270000Y-12200000D02*
X10330000Y-12200000D01*
X10300000Y-12370000D02*
X10300000Y-12430000D01*
X10270000Y-12400000D02*
X10330000Y-12400000D01*
X10300000Y-12570000D02*
X10300000Y-12630000D01*
X10270000Y-12600000D02*
X10330000Y-12600000D01*
X10300000Y-13720000D02*
X10300000Y-13780000D01*
X10270000Y-13750000D02*
X10330000Y-13750000D01*
X10300000Y-13870000D02*
X10300000Y-13930000D01*
X10270000Y-13900000D02*
X10330000Y-13900000D01*
X10300000Y-14070000D02*
X10300000Y-14130000D01*
X10270000Y-14100000D02*
X10330000Y-14100000D01*
X10300000Y-14270000D02*
X10300000Y-14330000D01*
X10270000Y-14300000D02*
X10330000Y-14300000D01*
X10500000Y-8970000D02*
X10500000Y-9030000D01*
X10470000Y-9000000D02*
X10530000Y-9000000D01*
X10500000Y-9370000D02*
X10500000Y-9430000D01*
X10470000Y-9400000D02*
X10530000Y-9400000D01*
X10500000Y-9570000D02*
X10500000Y-9630000D01*
X10470000Y-9600000D02*
X10530000Y-9600000D01*
X10500000Y-10870000D02*
X10500000Y-10930000D01*
X10470000Y-10900000D02*
X10530000Y-10900000D01*
X10500000Y-11070000D02*
X10500000Y-11130000D01*
X10470000Y-11100000D02*
X10530000Y-11100000D01*
X10500000Y-11970000D02*
X10500000Y-12030000D01*
X10470000Y-12000000D02*
X10530000Y-12000000D01*
X10500000Y-12370000D02*
X10500000Y-12430000D01*
X10470000Y-12400000D02*
X10530000Y-12400000D01*
X10500000Y-12570000D02*
X10500000Y-12630000D01*
X10470000Y-12600000D02*
X10530000Y-12600000D01*
X10500000Y-13870000D02*
X10500000Y-13930000D01*
X10470000Y-13900000D02*
X10530000Y-13900000D01*
X10500000Y-14070000D02*
X10500000Y-14130000D01*
X10470000Y-14100000D02*
X10530000Y-14100000D01*
X10700000Y-9170000D02*
X10700000Y-9230000D01*
X10670000Y-9200000D02*
X10730000Y-9200000D01*
X10700000Y-9570000D02*
X10700000Y-9630000D01*
X10670000Y-9600000D02*
X10730000Y-9600000D01*
X10700000Y-9820000D02*
X10700000Y-9880000D01*
X10670000Y-9850000D02*
X10730000Y-9850000D01*
X10700000Y-10020000D02*
X10700000Y-10080000D01*
X10670000Y-10050000D02*
X10730000Y-10050000D01*
X10700000Y-10220000D02*
X10700000Y-10280000D01*
X10670000Y-10250000D02*
X10730000Y-10250000D01*
X10700000Y-10420000D02*
X10700000Y-10480000D01*
X10670000Y-10450000D02*
X10730000Y-10450000D01*
X10700000Y-10620000D02*
X10700000Y-10680000D01*
X10670000Y-10650000D02*
X10730000Y-10650000D01*
X10700000Y-10870000D02*
X10700000Y-10930000D01*
X10670000Y-10900000D02*
X10730000Y-10900000D01*
X10700000Y-11270000D02*
X10700000Y-11330000D01*
X10670000Y-11300000D02*
X10730000Y-11300000D01*
X10700000Y-12170000D02*
X10700000Y-12230000D01*
X10670000Y-12200000D02*
X10730000Y-12200000D01*
X10700000Y-12570000D02*
X10700000Y-12630000D01*
X10670000Y-12600000D02*
X10730000Y-12600000D01*
X10700000Y-12820000D02*
X10700000Y-12880000D01*
X10670000Y-12850000D02*
X10730000Y-12850000D01*
X10700000Y-13020000D02*
X10700000Y-13080000D01*
X10670000Y-13050000D02*
X10730000Y-13050000D01*
X10700000Y-13220000D02*
X10700000Y-13280000D01*
X10670000Y-13250000D02*
X10730000Y-13250000D01*
X10700000Y-13420000D02*
X10700000Y-13480000D01*
X10670000Y-13450000D02*
X10730000Y-13450000D01*
X10700000Y-13620000D02*
X10700000Y-13680000D01*
X10670000Y-13650000D02*
X10730000Y-13650000D01*
X10700000Y-13870000D02*
X10700000Y-13930000D01*
X10670000Y-13900000D02*
X10730000Y-13900000D01*
X10700000Y-14270000D02*
X10700000Y-14330000D01*
X10670000Y-14300000D02*
X10730000Y-14300000D01*
X10900000Y-9370000D02*
X10900000Y-9430000D01*
X10870000Y-9400000D02*
X10930000Y-9400000D01*
X10900000Y-9820000D02*
X10900000Y-9880000D01*
X10870000Y-9850000D02*
X10930000Y-9850000D01*
X10900000Y-10220000D02*
X10900000Y-10280000D01*
X10870000Y-10250000D02*
X10930000Y-10250000D01*
X10900000Y-10620000D02*
X10900000Y-10680000D01*
X10870000Y-10650000D02*
X10930000Y-10650000D01*
X10900000Y-11070000D02*
X10900000Y-11130000D01*
X10870000Y-11100000D02*
X10930000Y-11100000D01*
X10900000Y-12370000D02*
X10900000Y-12430000D01*
X10870000Y-12400000D02*
X10930000Y-12400000D01*
X10900000Y-12820000D02*
X10900000Y-12880000D01*
X10870000Y-12850000D02*
X10930000Y-12850000D01*
X10900000Y-13220000D02*
X10900000Y-13280000D01*
X10870000Y-13250000D02*
X10930000Y-13250000D01*
X10900000Y-13620000D02*
X10900000Y-13680000D01*
X10870000Y-13650000D02*
X10930000Y-13650000D01*
X10900000Y-14070000D02*
X10900000Y-14130000D01*
X10870000Y-14100000D02*
X10930000Y-14100000D01*
X11100000Y-9170000D02*
X11100000Y-9230000D01*
X11070000Y-9200000D02*
X11130000Y-9200000D01*
X11100000Y-9570000D02*
X11100000Y-9630000D01*
X11070000Y-9600000D02*
X11130000Y-9600000D01*
X11100000Y-10020000D02*
X11100000Y-10080000D01*
X11070000Y-10050000D02*
X11130000Y-10050000D01*
X11100000Y-10420000D02*
X11100000Y-10480000D01*
X11070000Y-10450000D02*
X11130000Y-10450000D01*
X11100000Y-10870000D02*
X11100000Y-10930000D01*
X11070000Y-10900000D02*
X11130000Y-10900000D01*
X11100000Y-12170000D02*
X11100000Y-12230000D01*
X11070000Y-12200000D02*
X11130000Y-12200000D01*
X11100000Y-12570000D02*
X11100000Y-12630000D01*
X11070000Y-12600000D02*
X11130000Y-12600000D01*
X11100000Y-13020000D02*
X11100000Y-13080000D01*
X11070000Y-13050000D02*
X11130000Y-13050000D01*
X11100000Y-13420000D02*
X11100000Y-13480000D01*
X11070000Y-13450000D02*
X11130000Y-13450000D01*
X11100000Y-13870000D02*
X11100000Y-13930000D01*
X11070000Y-13900000D02*
X11130000Y-13900000D01*
X11520000Y-8850000D02*
X11520000Y-8910000D01*
X11490000Y-8880000D02*
X11550000Y-8880000D01*
X11520000Y-10870000D02*
X11520000Y-10930000D01*
X11490000Y-10900000D02*
X11550000Y-10900000D01*
X11520000Y-13650000D02*
X11520000Y-13710000D01*
X11490000Y-13680000D02*
X11550000Y-13680000D01*
X11520000Y-14430000D02*
X11520000Y-14490000D01*
X11490000Y-14460000D02*
X11550000Y-14460000D01*
X11880000Y-9470000D02*
X11880000Y-9530000D01*
X11850000Y-9500000D02*
X11910000Y-9500000D01*
X11880000Y-11490000D02*
X11880000Y-11550000D01*
X11850000Y-11520000D02*
X11910000Y-11520000D01*
X11880000Y-12470000D02*
X11880000Y-12530000D01*
X11850000Y-12500000D02*
X11910000Y-12500000D01*
X12300000Y-9470000D02*
X12300000Y-9530000D01*
X12270000Y-9500000D02*
X12330000Y-9500000D01*
X12300000Y-9920000D02*
X12300000Y-9980000D01*
X12270000Y-9950000D02*
X12330000Y-9950000D01*
X12300000Y-10320000D02*
X12300000Y-10380000D01*
X12270000Y-10350000D02*
X12330000Y-10350000D01*
X12300000Y-10770000D02*
X12300000Y-10830000D01*
X12270000Y-10800000D02*
X12330000Y-10800000D01*
X12300000Y-11170000D02*
X12300000Y-11230000D01*
X12270000Y-11200000D02*
X12330000Y-11200000D01*
X12300000Y-12470000D02*
X12300000Y-12530000D01*
X12270000Y-12500000D02*
X12330000Y-12500000D01*
X12300000Y-12920000D02*
X12300000Y-12980000D01*
X12270000Y-12950000D02*
X12330000Y-12950000D01*
X12300000Y-13320000D02*
X12300000Y-13380000D01*
X12270000Y-13350000D02*
X12330000Y-13350000D01*
X12300000Y-13770000D02*
X12300000Y-13830000D01*
X12270000Y-13800000D02*
X12330000Y-13800000D01*
X12300000Y-14170000D02*
X12300000Y-14230000D01*
X12270000Y-14200000D02*
X12330000Y-14200000D01*
X12500000Y-9270000D02*
X12500000Y-9330000D01*
X12470000Y-9300000D02*
X12530000Y-9300000D01*
X12500000Y-9720000D02*
X12500000Y-9780000D01*
X12470000Y-9750000D02*
X12530000Y-9750000D01*
X12500000Y-10120000D02*
X12500000Y-10180000D01*
X12470000Y-10150000D02*
X12530000Y-10150000D01*
X12500000Y-10520000D02*
X12500000Y-10580000D01*
X12470000Y-10550000D02*
X12530000Y-10550000D01*
X12500000Y-10970000D02*
X12500000Y-11030000D01*
X12470000Y-11000000D02*
X12530000Y-11000000D01*
X12500000Y-12270000D02*
X12500000Y-12330000D01*
X12470000Y-12300000D02*
X12530000Y-12300000D01*
X12500000Y-12720000D02*
X12500000Y-12780000D01*
X12470000Y-12750000D02*
X12530000Y-12750000D01*
X12500000Y-13120000D02*
X12500000Y-13180000D01*
X12470000Y-13150000D02*
X12530000Y-13150000D01*
X12500000Y-13520000D02*
X12500000Y-13580000D01*
X12470000Y-13550000D02*
X12530000Y-13550000D01*
X12500000Y-13970000D02*
X12500000Y-14030000D01*
X12470000Y-14000000D02*
X12530000Y-14000000D01*
X12700000Y-10120000D02*
X12700000Y-10180000D01*
X12670000Y-10150000D02*
X12730000Y-10150000D01*
X12700000Y-10520000D02*
X12700000Y-10580000D01*
X12670000Y-10550000D02*
X12730000Y-10550000D01*
X12700000Y-9070000D02*
X12700000Y-9130000D01*
X12670000Y-9100000D02*
X12730000Y-9100000D01*
X12700000Y-9470000D02*
X12700000Y-9530000D01*
X12670000Y-9500000D02*
X12730000Y-9500000D01*
X12700000Y-9720000D02*
X12700000Y-9780000D01*
X12670000Y-9750000D02*
X12730000Y-9750000D01*
X12700000Y-9920000D02*
X12700000Y-9980000D01*
X12670000Y-9950000D02*
X12730000Y-9950000D01*
X12700000Y-10320000D02*
X12700000Y-10380000D01*
X12670000Y-10350000D02*
X12730000Y-10350000D01*
X12700000Y-10770000D02*
X12700000Y-10830000D01*
X12670000Y-10800000D02*
X12730000Y-10800000D01*
X12700000Y-11170000D02*
X12700000Y-11230000D01*
X12670000Y-11200000D02*
X12730000Y-11200000D01*
X12700000Y-13120000D02*
X12700000Y-13180000D01*
X12670000Y-13150000D02*
X12730000Y-13150000D01*
X12700000Y-13520000D02*
X12700000Y-13580000D01*
X12670000Y-13550000D02*
X12730000Y-13550000D01*
X12700000Y-12070000D02*
X12700000Y-12130000D01*
X12670000Y-12100000D02*
X12730000Y-12100000D01*
X12700000Y-12470000D02*
X12700000Y-12530000D01*
X12670000Y-12500000D02*
X12730000Y-12500000D01*
X12700000Y-12720000D02*
X12700000Y-12780000D01*
X12670000Y-12750000D02*
X12730000Y-12750000D01*
X12700000Y-12920000D02*
X12700000Y-12980000D01*
X12670000Y-12950000D02*
X12730000Y-12950000D01*
X12700000Y-13320000D02*
X12700000Y-13380000D01*
X12670000Y-13350000D02*
X12730000Y-13350000D01*
X12700000Y-13770000D02*
X12700000Y-13830000D01*
X12670000Y-13800000D02*
X12730000Y-13800000D01*
X12700000Y-14170000D02*
X12700000Y-14230000D01*
X12670000Y-14200000D02*
X12730000Y-14200000D01*
X12900000Y-9470000D02*
X12900000Y-9530000D01*
X12870000Y-9500000D02*
X12930000Y-9500000D01*
X12900000Y-10770000D02*
X12900000Y-10830000D01*
X12870000Y-10800000D02*
X12930000Y-10800000D01*
X12900000Y-9270000D02*
X12900000Y-9330000D01*
X12870000Y-9300000D02*
X12930000Y-9300000D01*
X12900000Y-10970000D02*
X12900000Y-11030000D01*
X12870000Y-11000000D02*
X12930000Y-11000000D01*
X12900000Y-11370000D02*
X12900000Y-11430000D01*
X12870000Y-11400000D02*
X12930000Y-11400000D01*
X12900000Y-12470000D02*
X12900000Y-12530000D01*
X12870000Y-12500000D02*
X12930000Y-12500000D01*
X12900000Y-13770000D02*
X12900000Y-13830000D01*
X12870000Y-13800000D02*
X12930000Y-13800000D01*
X12900000Y-12270000D02*
X12900000Y-12330000D01*
X12870000Y-12300000D02*
X12930000Y-12300000D01*
X12900000Y-13970000D02*
X12900000Y-14030000D01*
X12870000Y-14000000D02*
X12930000Y-14000000D01*
X12900000Y-14370000D02*
X12900000Y-14430000D01*
X12870000Y-14400000D02*
X12930000Y-14400000D01*
X13100000Y-9270000D02*
X13100000Y-9330000D01*
X13070000Y-9300000D02*
X13130000Y-9300000D01*
X13100000Y-9670000D02*
X13100000Y-9730000D01*
X13070000Y-9700000D02*
X13130000Y-9700000D01*
X13100000Y-9070000D02*
X13100000Y-9130000D01*
X13070000Y-9100000D02*
X13130000Y-9100000D01*
X13100000Y-10770000D02*
X13100000Y-10830000D01*
X13070000Y-10800000D02*
X13130000Y-10800000D01*
X13100000Y-10970000D02*
X13100000Y-11030000D01*
X13070000Y-11000000D02*
X13130000Y-11000000D01*
X13100000Y-11170000D02*
X13100000Y-11230000D01*
X13070000Y-11200000D02*
X13130000Y-11200000D01*
X13100000Y-12270000D02*
X13100000Y-12330000D01*
X13070000Y-12300000D02*
X13130000Y-12300000D01*
X13100000Y-12670000D02*
X13100000Y-12730000D01*
X13070000Y-12700000D02*
X13130000Y-12700000D01*
X13100000Y-9470000D02*
X13100000Y-9530000D01*
X13070000Y-9500000D02*
X13130000Y-9500000D01*
X13100000Y-12070000D02*
X13100000Y-12130000D01*
X13070000Y-12100000D02*
X13130000Y-12100000D01*
X13100000Y-13770000D02*
X13100000Y-13830000D01*
X13070000Y-13800000D02*
X13130000Y-13800000D01*
X13100000Y-13970000D02*
X13100000Y-14030000D01*
X13070000Y-14000000D02*
X13130000Y-14000000D01*
X13100000Y-14170000D02*
X13100000Y-14230000D01*
X13070000Y-14200000D02*
X13130000Y-14200000D01*
X13100000Y-12470000D02*
X13100000Y-12530000D01*
X13070000Y-12500000D02*
X13130000Y-12500000D01*
X13300000Y-9470000D02*
X13300000Y-9530000D01*
X13270000Y-9500000D02*
X13330000Y-9500000D01*
X13300000Y-9070000D02*
X13300000Y-9130000D01*
X13270000Y-9100000D02*
X13330000Y-9100000D01*
X13300000Y-10770000D02*
X13300000Y-10830000D01*
X13270000Y-10800000D02*
X13330000Y-10800000D01*
X13300000Y-10970000D02*
X13300000Y-11030000D01*
X13270000Y-11000000D02*
X13330000Y-11000000D01*
X13300000Y-11170000D02*
X13300000Y-11230000D01*
X13270000Y-11200000D02*
X13330000Y-11200000D01*
X13300000Y-12470000D02*
X13300000Y-12530000D01*
X13270000Y-12500000D02*
X13330000Y-12500000D01*
X13300000Y-9270000D02*
X13300000Y-9330000D01*
X13270000Y-9300000D02*
X13330000Y-9300000D01*
X13300000Y-9670000D02*
X13300000Y-9730000D01*
X13270000Y-9700000D02*
X13330000Y-9700000D01*
X13300000Y-12070000D02*
X13300000Y-12130000D01*
X13270000Y-12100000D02*
X13330000Y-12100000D01*
X13300000Y-13770000D02*
X13300000Y-13830000D01*
X13270000Y-13800000D02*
X13330000Y-13800000D01*
X13300000Y-13970000D02*
X13300000Y-14030000D01*
X13270000Y-14000000D02*
X13330000Y-14000000D01*
X13300000Y-14170000D02*
X13300000Y-14230000D01*
X13270000Y-14200000D02*
X13330000Y-14200000D01*
X13300000Y-12270000D02*
X13300000Y-12330000D01*
X13270000Y-12300000D02*
X13330000Y-12300000D01*
X13300000Y-12670000D02*
X13300000Y-12730000D01*
X13270000Y-12700000D02*
X13330000Y-12700000D01*
X13500000Y-9270000D02*
X13500000Y-9330000D01*
X13470000Y-9300000D02*
X13530000Y-9300000D01*
X13500000Y-10970000D02*
X13500000Y-11030000D01*
X13470000Y-11000000D02*
X13530000Y-11000000D01*
X13500000Y-11370000D02*
X13500000Y-11430000D01*
X13470000Y-11400000D02*
X13530000Y-11400000D01*
X13500000Y-9470000D02*
X13500000Y-9530000D01*
X13470000Y-9500000D02*
X13530000Y-9500000D01*
X13500000Y-10770000D02*
X13500000Y-10830000D01*
X13470000Y-10800000D02*
X13530000Y-10800000D01*
X13500000Y-12270000D02*
X13500000Y-12330000D01*
X13470000Y-12300000D02*
X13530000Y-12300000D01*
X13500000Y-13970000D02*
X13500000Y-14030000D01*
X13470000Y-14000000D02*
X13530000Y-14000000D01*
X13500000Y-14370000D02*
X13500000Y-14430000D01*
X13470000Y-14400000D02*
X13530000Y-14400000D01*
X13500000Y-12470000D02*
X13500000Y-12530000D01*
X13470000Y-12500000D02*
X13530000Y-12500000D01*
X13500000Y-13770000D02*
X13500000Y-13830000D01*
X13470000Y-13800000D02*
X13530000Y-13800000D01*
X13700000Y-9070000D02*
X13700000Y-9130000D01*
X13670000Y-9100000D02*
X13730000Y-9100000D01*
X13700000Y-9470000D02*
X13700000Y-9530000D01*
X13670000Y-9500000D02*
X13730000Y-9500000D01*
X13700000Y-9720000D02*
X13700000Y-9780000D01*
X13670000Y-9750000D02*
X13730000Y-9750000D01*
X13700000Y-9920000D02*
X13700000Y-9980000D01*
X13670000Y-9950000D02*
X13730000Y-9950000D01*
X13700000Y-10320000D02*
X13700000Y-10380000D01*
X13670000Y-10350000D02*
X13730000Y-10350000D01*
X13700000Y-10770000D02*
X13700000Y-10830000D01*
X13670000Y-10800000D02*
X13730000Y-10800000D01*
X13700000Y-11170000D02*
X13700000Y-11230000D01*
X13670000Y-11200000D02*
X13730000Y-11200000D01*
X13700000Y-10120000D02*
X13700000Y-10180000D01*
X13670000Y-10150000D02*
X13730000Y-10150000D01*
X13700000Y-10520000D02*
X13700000Y-10580000D01*
X13670000Y-10550000D02*
X13730000Y-10550000D01*
X13700000Y-12070000D02*
X13700000Y-12130000D01*
X13670000Y-12100000D02*
X13730000Y-12100000D01*
X13700000Y-12470000D02*
X13700000Y-12530000D01*
X13670000Y-12500000D02*
X13730000Y-12500000D01*
X13700000Y-12720000D02*
X13700000Y-12780000D01*
X13670000Y-12750000D02*
X13730000Y-12750000D01*
X13700000Y-12920000D02*
X13700000Y-12980000D01*
X13670000Y-12950000D02*
X13730000Y-12950000D01*
X13700000Y-13320000D02*
X13700000Y-13380000D01*
X13670000Y-13350000D02*
X13730000Y-13350000D01*
X13700000Y-13770000D02*
X13700000Y-13830000D01*
X13670000Y-13800000D02*
X13730000Y-13800000D01*
X13700000Y-14170000D02*
X13700000Y-14230000D01*
X13670000Y-14200000D02*
X13730000Y-14200000D01*
X13700000Y-13120000D02*
X13700000Y-13180000D01*
X13670000Y-13150000D02*
X13730000Y-13150000D01*
X13700000Y-13520000D02*
X13700000Y-13580000D01*
X13670000Y-13550000D02*
X13730000Y-13550000D01*
X13900000Y-9270000D02*
X13900000Y-9330000D01*
X13870000Y-9300000D02*
X13930000Y-9300000D01*
X13900000Y-9720000D02*
X13900000Y-9780000D01*
X13870000Y-9750000D02*
X13930000Y-9750000D01*
X13900000Y-10120000D02*
X13900000Y-10180000D01*
X13870000Y-10150000D02*
X13930000Y-10150000D01*
X13900000Y-10520000D02*
X13900000Y-10580000D01*
X13870000Y-10550000D02*
X13930000Y-10550000D01*
X13900000Y-10970000D02*
X13900000Y-11030000D01*
X13870000Y-11000000D02*
X13930000Y-11000000D01*
X13900000Y-12270000D02*
X13900000Y-12330000D01*
X13870000Y-12300000D02*
X13930000Y-12300000D01*
X13900000Y-12720000D02*
X13900000Y-12780000D01*
X13870000Y-12750000D02*
X13930000Y-12750000D01*
X13900000Y-13120000D02*
X13900000Y-13180000D01*
X13870000Y-13150000D02*
X13930000Y-13150000D01*
X13900000Y-13520000D02*
X13900000Y-13580000D01*
X13870000Y-13550000D02*
X13930000Y-13550000D01*
X13900000Y-13970000D02*
X13900000Y-14030000D01*
X13870000Y-14000000D02*
X13930000Y-14000000D01*
X14100000Y-9470000D02*
X14100000Y-9530000D01*
X14070000Y-9500000D02*
X14130000Y-9500000D01*
X14100000Y-9920000D02*
X14100000Y-9980000D01*
X14070000Y-9950000D02*
X14130000Y-9950000D01*
X14100000Y-10320000D02*
X14100000Y-10380000D01*
X14070000Y-10350000D02*
X14130000Y-10350000D01*
X14100000Y-10770000D02*
X14100000Y-10830000D01*
X14070000Y-10800000D02*
X14130000Y-10800000D01*
X14100000Y-11170000D02*
X14100000Y-11230000D01*
X14070000Y-11200000D02*
X14130000Y-11200000D01*
X14100000Y-12470000D02*
X14100000Y-12530000D01*
X14070000Y-12500000D02*
X14130000Y-12500000D01*
X14100000Y-12920000D02*
X14100000Y-12980000D01*
X14070000Y-12950000D02*
X14130000Y-12950000D01*
X14100000Y-13320000D02*
X14100000Y-13380000D01*
X14070000Y-13350000D02*
X14130000Y-13350000D01*
X14100000Y-13770000D02*
X14100000Y-13830000D01*
X14070000Y-13800000D02*
X14130000Y-13800000D01*
X14100000Y-14170000D02*
X14100000Y-14230000D01*
X14070000Y-14200000D02*
X14130000Y-14200000D01*
X14520000Y-9690000D02*
X14520000Y-9750000D01*
X14490000Y-9720000D02*
X14550000Y-9720000D01*
X14880000Y-11850000D02*
X14880000Y-11910000D01*
X14850000Y-11880000D02*
X14910000Y-11880000D01*
X15300000Y-9170000D02*
X15300000Y-9230000D01*
X15270000Y-9200000D02*
X15330000Y-9200000D01*
X15300000Y-9570000D02*
X15300000Y-9630000D01*
X15270000Y-9600000D02*
X15330000Y-9600000D01*
X15300000Y-10020000D02*
X15300000Y-10080000D01*
X15270000Y-10050000D02*
X15330000Y-10050000D01*
X15300000Y-10420000D02*
X15300000Y-10480000D01*
X15270000Y-10450000D02*
X15330000Y-10450000D01*
X15300000Y-10870000D02*
X15300000Y-10930000D01*
X15270000Y-10900000D02*
X15330000Y-10900000D01*
X15300000Y-12170000D02*
X15300000Y-12230000D01*
X15270000Y-12200000D02*
X15330000Y-12200000D01*
X15300000Y-12570000D02*
X15300000Y-12630000D01*
X15270000Y-12600000D02*
X15330000Y-12600000D01*
X15300000Y-13020000D02*
X15300000Y-13080000D01*
X15270000Y-13050000D02*
X15330000Y-13050000D01*
X15300000Y-13420000D02*
X15300000Y-13480000D01*
X15270000Y-13450000D02*
X15330000Y-13450000D01*
X15300000Y-13870000D02*
X15300000Y-13930000D01*
X15270000Y-13900000D02*
X15330000Y-13900000D01*
X15500000Y-9370000D02*
X15500000Y-9430000D01*
X15470000Y-9400000D02*
X15530000Y-9400000D01*
X15500000Y-9820000D02*
X15500000Y-9880000D01*
X15470000Y-9850000D02*
X15530000Y-9850000D01*
X15500000Y-10220000D02*
X15500000Y-10280000D01*
X15470000Y-10250000D02*
X15530000Y-10250000D01*
X15500000Y-10620000D02*
X15500000Y-10680000D01*
X15470000Y-10650000D02*
X15530000Y-10650000D01*
X15500000Y-11070000D02*
X15500000Y-11130000D01*
X15470000Y-11100000D02*
X15530000Y-11100000D01*
X15500000Y-12370000D02*
X15500000Y-12430000D01*
X15470000Y-12400000D02*
X15530000Y-12400000D01*
X15500000Y-12820000D02*
X15500000Y-12880000D01*
X15470000Y-12850000D02*
X15530000Y-12850000D01*
X15500000Y-13220000D02*
X15500000Y-13280000D01*
X15470000Y-13250000D02*
X15530000Y-13250000D01*
X15500000Y-13620000D02*
X15500000Y-13680000D01*
X15470000Y-13650000D02*
X15530000Y-13650000D01*
X15500000Y-14070000D02*
X15500000Y-14130000D01*
X15470000Y-14100000D02*
X15530000Y-14100000D01*
X15700000Y-9170000D02*
X15700000Y-9230000D01*
X15670000Y-9200000D02*
X15730000Y-9200000D01*
X15700000Y-9570000D02*
X15700000Y-9630000D01*
X15670000Y-9600000D02*
X15730000Y-9600000D01*
X15700000Y-9820000D02*
X15700000Y-9880000D01*
X15670000Y-9850000D02*
X15730000Y-9850000D01*
X15700000Y-10020000D02*
X15700000Y-10080000D01*
X15670000Y-10050000D02*
X15730000Y-10050000D01*
X15700000Y-10220000D02*
X15700000Y-10280000D01*
X15670000Y-10250000D02*
X15730000Y-10250000D01*
X15700000Y-10420000D02*
X15700000Y-10480000D01*
X15670000Y-10450000D02*
X15730000Y-10450000D01*
X15700000Y-10620000D02*
X15700000Y-10680000D01*
X15670000Y-10650000D02*
X15730000Y-10650000D01*
X15700000Y-10870000D02*
X15700000Y-10930000D01*
X15670000Y-10900000D02*
X15730000Y-10900000D01*
X15700000Y-11270000D02*
X15700000Y-11330000D01*
X15670000Y-11300000D02*
X15730000Y-11300000D01*
X15700000Y-12170000D02*
X15700000Y-12230000D01*
X15670000Y-12200000D02*
X15730000Y-12200000D01*
X15700000Y-12570000D02*
X15700000Y-12630000D01*
X15670000Y-12600000D02*
X15730000Y-12600000D01*
X15700000Y-12820000D02*
X15700000Y-12880000D01*
X15670000Y-12850000D02*
X15730000Y-12850000D01*
X15700000Y-13020000D02*
X15700000Y-13080000D01*
X15670000Y-13050000D02*
X15730000Y-13050000D01*
X15700000Y-13220000D02*
X15700000Y-13280000D01*
X15670000Y-13250000D02*
X15730000Y-13250000D01*
X15700000Y-13420000D02*
X15700000Y-13480000D01*
X15670000Y-13450000D02*
X15730000Y-13450000D01*
X15700000Y-13620000D02*
X15700000Y-13680000D01*
X15670000Y-13650000D02*
X15730000Y-13650000D01*
X15700000Y-13870000D02*
X15700000Y-13930000D01*
X15670000Y-13900000D02*
X15730000Y-13900000D01*
X15700000Y-14270000D02*
X15700000Y-14330000D01*
X15670000Y-14300000D02*
X15730000Y-14300000D01*
X15900000Y-8970000D02*
X15900000Y-9030000D01*
X15870000Y-9000000D02*
X15930000Y-9000000D01*
X15900000Y-9370000D02*
X15900000Y-9430000D01*
X15870000Y-9400000D02*
X15930000Y-9400000D01*
X15900000Y-9570000D02*
X15900000Y-9630000D01*
X15870000Y-9600000D02*
X15930000Y-9600000D01*
X15900000Y-10870000D02*
X15900000Y-10930000D01*
X15870000Y-10900000D02*
X15930000Y-10900000D01*
X15900000Y-11070000D02*
X15900000Y-11130000D01*
X15870000Y-11100000D02*
X15930000Y-11100000D01*
X15900000Y-11970000D02*
X15900000Y-12030000D01*
X15870000Y-12000000D02*
X15930000Y-12000000D01*
X15900000Y-12370000D02*
X15900000Y-12430000D01*
X15870000Y-12400000D02*
X15930000Y-12400000D01*
X15900000Y-12570000D02*
X15900000Y-12630000D01*
X15870000Y-12600000D02*
X15930000Y-12600000D01*
X15900000Y-13870000D02*
X15900000Y-13930000D01*
X15870000Y-13900000D02*
X15930000Y-13900000D01*
X15900000Y-14070000D02*
X15900000Y-14130000D01*
X15870000Y-14100000D02*
X15930000Y-14100000D01*
X16100000Y-9170000D02*
X16100000Y-9230000D01*
X16070000Y-9200000D02*
X16130000Y-9200000D01*
X16100000Y-9370000D02*
X16100000Y-9430000D01*
X16070000Y-9400000D02*
X16130000Y-9400000D01*
X16100000Y-9570000D02*
X16100000Y-9630000D01*
X16070000Y-9600000D02*
X16130000Y-9600000D01*
X16100000Y-10720000D02*
X16100000Y-10780000D01*
X16070000Y-10750000D02*
X16130000Y-10750000D01*
X16100000Y-10870000D02*
X16100000Y-10930000D01*
X16070000Y-10900000D02*
X16130000Y-10900000D01*
X16100000Y-11070000D02*
X16100000Y-11130000D01*
X16070000Y-11100000D02*
X16130000Y-11100000D01*
X16100000Y-11270000D02*
X16100000Y-11330000D01*
X16070000Y-11300000D02*
X16130000Y-11300000D01*
X16100000Y-12170000D02*
X16100000Y-12230000D01*
X16070000Y-12200000D02*
X16130000Y-12200000D01*
X16100000Y-12370000D02*
X16100000Y-12430000D01*
X16070000Y-12400000D02*
X16130000Y-12400000D01*
X16100000Y-12570000D02*
X16100000Y-12630000D01*
X16070000Y-12600000D02*
X16130000Y-12600000D01*
X16100000Y-13670000D02*
X16100000Y-13730000D01*
X16070000Y-13700000D02*
X16130000Y-13700000D01*
X16100000Y-13870000D02*
X16100000Y-13930000D01*
X16070000Y-13900000D02*
X16130000Y-13900000D01*
X16100000Y-14070000D02*
X16100000Y-14130000D01*
X16070000Y-14100000D02*
X16130000Y-14100000D01*
X16100000Y-14270000D02*
X16100000Y-14330000D01*
X16070000Y-14300000D02*
X16130000Y-14300000D01*
X16300000Y-9170000D02*
X16300000Y-9230000D01*
X16270000Y-9200000D02*
X16330000Y-9200000D01*
X16300000Y-9370000D02*
X16300000Y-9430000D01*
X16270000Y-9400000D02*
X16330000Y-9400000D01*
X16300000Y-9570000D02*
X16300000Y-9630000D01*
X16270000Y-9600000D02*
X16330000Y-9600000D01*
X16300000Y-10720000D02*
X16300000Y-10780000D01*
X16270000Y-10750000D02*
X16330000Y-10750000D01*
X16300000Y-10870000D02*
X16300000Y-10930000D01*
X16270000Y-10900000D02*
X16330000Y-10900000D01*
X16300000Y-11070000D02*
X16300000Y-11130000D01*
X16270000Y-11100000D02*
X16330000Y-11100000D01*
X16300000Y-11270000D02*
X16300000Y-11330000D01*
X16270000Y-11300000D02*
X16330000Y-11300000D01*
X16300000Y-11510000D02*
X16300000Y-11570000D01*
X16270000Y-11540000D02*
X16330000Y-11540000D01*
X16300000Y-12170000D02*
X16300000Y-12230000D01*
X16270000Y-12200000D02*
X16330000Y-12200000D01*
X16300000Y-12370000D02*
X16300000Y-12430000D01*
X16270000Y-12400000D02*
X16330000Y-12400000D01*
X16300000Y-12570000D02*
X16300000Y-12630000D01*
X16270000Y-12600000D02*
X16330000Y-12600000D01*
X16300000Y-13670000D02*
X16300000Y-13730000D01*
X16270000Y-13700000D02*
X16330000Y-13700000D01*
X16300000Y-13870000D02*
X16300000Y-13930000D01*
X16270000Y-13900000D02*
X16330000Y-13900000D01*
X16300000Y-14070000D02*
X16300000Y-14130000D01*
X16270000Y-14100000D02*
X16330000Y-14100000D01*
X16300000Y-14270000D02*
X16300000Y-14330000D01*
X16270000Y-14300000D02*
X16330000Y-14300000D01*
X16500000Y-8970000D02*
X16500000Y-9030000D01*
X16470000Y-9000000D02*
X16530000Y-9000000D01*
X16500000Y-9370000D02*
X16500000Y-9430000D01*
X16470000Y-9400000D02*
X16530000Y-9400000D01*
X16500000Y-9570000D02*
X16500000Y-9630000D01*
X16470000Y-9600000D02*
X16530000Y-9600000D01*
X16500000Y-10870000D02*
X16500000Y-10930000D01*
X16470000Y-10900000D02*
X16530000Y-10900000D01*
X16500000Y-11070000D02*
X16500000Y-11130000D01*
X16470000Y-11100000D02*
X16530000Y-11100000D01*
X16500000Y-11970000D02*
X16500000Y-12030000D01*
X16470000Y-12000000D02*
X16530000Y-12000000D01*
X16500000Y-12370000D02*
X16500000Y-12430000D01*
X16470000Y-12400000D02*
X16530000Y-12400000D01*
X16500000Y-12570000D02*
X16500000Y-12630000D01*
X16470000Y-12600000D02*
X16530000Y-12600000D01*
X16500000Y-13870000D02*
X16500000Y-13930000D01*
X16470000Y-13900000D02*
X16530000Y-13900000D01*
X16500000Y-14070000D02*
X16500000Y-14130000D01*
X16470000Y-14100000D02*
X16530000Y-14100000D01*
X16700000Y-9170000D02*
X16700000Y-9230000D01*
X16670000Y-9200000D02*
X16730000Y-9200000D01*
X16700000Y-9570000D02*
X16700000Y-9630000D01*
X16670000Y-9600000D02*
X16730000Y-9600000D01*
X16700000Y-9820000D02*
X16700000Y-9880000D01*
X16670000Y-9850000D02*
X16730000Y-9850000D01*
X16700000Y-10020000D02*
X16700000Y-10080000D01*
X16670000Y-10050000D02*
X16730000Y-10050000D01*
X16700000Y-10220000D02*
X16700000Y-10280000D01*
X16670000Y-10250000D02*
X16730000Y-10250000D01*
X16700000Y-10420000D02*
X16700000Y-10480000D01*
X16670000Y-10450000D02*
X16730000Y-10450000D01*
X16700000Y-10620000D02*
X16700000Y-10680000D01*
X16670000Y-10650000D02*
X16730000Y-10650000D01*
X16700000Y-10870000D02*
X16700000Y-10930000D01*
X16670000Y-10900000D02*
X16730000Y-10900000D01*
X16700000Y-11270000D02*
X16700000Y-11330000D01*
X16670000Y-11300000D02*
X16730000Y-11300000D01*
X16700000Y-12170000D02*
X16700000Y-12230000D01*
X16670000Y-12200000D02*
X16730000Y-12200000D01*
X16700000Y-12570000D02*
X16700000Y-12630000D01*
X16670000Y-12600000D02*
X16730000Y-12600000D01*
X16700000Y-12820000D02*
X16700000Y-12880000D01*
X16670000Y-12850000D02*
X16730000Y-12850000D01*
X16700000Y-13020000D02*
X16700000Y-13080000D01*
X16670000Y-13050000D02*
X16730000Y-13050000D01*
X16700000Y-13220000D02*
X16700000Y-13280000D01*
X16670000Y-13250000D02*
X16730000Y-13250000D01*
X16700000Y-13420000D02*
X16700000Y-13480000D01*
X16670000Y-13450000D02*
X16730000Y-13450000D01*
X16700000Y-13620000D02*
X16700000Y-13680000D01*
X16670000Y-13650000D02*
X16730000Y-13650000D01*
X16700000Y-13870000D02*
X16700000Y-13930000D01*
X16670000Y-13900000D02*
X16730000Y-13900000D01*
X16700000Y-14270000D02*
X16700000Y-14330000D01*
X16670000Y-14300000D02*
X16730000Y-14300000D01*
X16900000Y-9370000D02*
X16900000Y-9430000D01*
X16870000Y-9400000D02*
X16930000Y-9400000D01*
X16900000Y-9820000D02*
X16900000Y-9880000D01*
X16870000Y-9850000D02*
X16930000Y-9850000D01*
X16900000Y-10220000D02*
X16900000Y-10280000D01*
X16870000Y-10250000D02*
X16930000Y-10250000D01*
X16900000Y-10620000D02*
X16900000Y-10680000D01*
X16870000Y-10650000D02*
X16930000Y-10650000D01*
X16900000Y-11070000D02*
X16900000Y-11130000D01*
X16870000Y-11100000D02*
X16930000Y-11100000D01*
X16900000Y-12370000D02*
X16900000Y-12430000D01*
X16870000Y-12400000D02*
X16930000Y-12400000D01*
X16900000Y-12820000D02*
X16900000Y-12880000D01*
X16870000Y-12850000D02*
X16930000Y-12850000D01*
X16900000Y-13220000D02*
X16900000Y-13280000D01*
X16870000Y-13250000D02*
X16930000Y-13250000D01*
X16900000Y-13620000D02*
X16900000Y-13680000D01*
X16870000Y-13650000D02*
X16930000Y-13650000D01*
X16900000Y-14070000D02*
X16900000Y-14130000D01*
X16870000Y-14100000D02*
X16930000Y-14100000D01*
X17100000Y-9170000D02*
X17100000Y-9230000D01*
X17070000Y-9200000D02*
X17130000Y-9200000D01*
X17100000Y-9570000D02*
X17100000Y-9630000D01*
X17070000Y-9600000D02*
X17130000Y-9600000D01*
X17100000Y-10020000D02*
X17100000Y-10080000D01*
X17070000Y-10050000D02*
X17130000Y-10050000D01*
X17100000Y-10420000D02*
X17100000Y-10480000D01*
X17070000Y-10450000D02*
X17130000Y-10450000D01*
X17100000Y-10870000D02*
X17100000Y-10930000D01*
X17070000Y-10900000D02*
X17130000Y-10900000D01*
X17100000Y-12170000D02*
X17100000Y-12230000D01*
X17070000Y-12200000D02*
X17130000Y-12200000D01*
X17100000Y-12570000D02*
X17100000Y-12630000D01*
X17070000Y-12600000D02*
X17130000Y-12600000D01*
X17100000Y-13020000D02*
X17100000Y-13080000D01*
X17070000Y-13050000D02*
X17130000Y-13050000D01*
X17100000Y-13420000D02*
X17100000Y-13480000D01*
X17070000Y-13450000D02*
X17130000Y-13450000D01*
X17100000Y-13870000D02*
X17100000Y-13930000D01*
X17070000Y-13900000D02*
X17130000Y-13900000D01*
X17240000Y-10650000D02*
X17240000Y-10710000D01*
X17210000Y-10680000D02*
X17270000Y-10680000D01*
X17240000Y-11850000D02*
X17240000Y-11910000D01*
X17210000Y-11880000D02*
X17270000Y-11880000D01*
X17340000Y-12770000D02*
X17340000Y-12830000D01*
X17310000Y-12800000D02*
X17370000Y-12800000D01*
X17560713Y-7139213D02*
X17560713Y-7096787D01*
X17518287Y-7096787D01*
X17518287Y-7139213D01*
X17560713Y-7139213D01*
X17484500Y-7148000D02*
X17594500Y-7148000D01*
X17594500Y-7088000D02*
G75*
G02*
X17594500Y-7148000I0J-30000D01*
G01*
X17594500Y-7088000D02*
X17484500Y-7088000D01*
X17484500Y-7088000D02*
G75*
G03*
X17484500Y-7148000I0J-30000D01*
G01*
X17560713Y-8003213D02*
X17560713Y-7960787D01*
X17518287Y-7960787D01*
X17518287Y-8003213D01*
X17560713Y-8003213D01*
X17484500Y-8012000D02*
X17594500Y-8012000D01*
X17594500Y-7952000D02*
G75*
G02*
X17594500Y-8012000I0J-30000D01*
G01*
X17594500Y-7952000D02*
X17484500Y-7952000D01*
X17484500Y-7952000D02*
G75*
G03*
X17484500Y-8012000I0J-30000D01*
G01*
X17978713Y-7139213D02*
X17978713Y-7096787D01*
X17936287Y-7096787D01*
X17936287Y-7139213D01*
X17978713Y-7139213D01*
X17917500Y-7148000D02*
X17997500Y-7148000D01*
X17997500Y-7088000D02*
G75*
G02*
X17997500Y-7148000I0J-30000D01*
G01*
X17997500Y-7088000D02*
X17917500Y-7088000D01*
X17917500Y-7088000D02*
G75*
G03*
X17917500Y-7148000I0J-30000D01*
G01*
X17978713Y-8003213D02*
X17978713Y-7960787D01*
X17936287Y-7960787D01*
X17936287Y-8003213D01*
X17978713Y-8003213D01*
X17917500Y-8012000D02*
X17997500Y-8012000D01*
X17997500Y-7952000D02*
G75*
G02*
X17997500Y-8012000I0J-30000D01*
G01*
X17997500Y-7952000D02*
X17917500Y-7952000D01*
X17917500Y-7952000D02*
G75*
G03*
X17917500Y-8012000I0J-30000D01*
G01*
X12186784Y-6837000D02*
X12236784Y-6787000D01*
X12186784Y-6737000D01*
X12136784Y-6787000D01*
X12186784Y-6837000D01*
X12436784Y-6837000D02*
X12486784Y-6787000D01*
X12436784Y-6737000D01*
X12386784Y-6787000D01*
X12436784Y-6837000D01*
X12686784Y-6837000D02*
X12736784Y-6787000D01*
X12686784Y-6737000D01*
X12636784Y-6787000D01*
X12686784Y-6837000D01*
X13621784Y-6837000D02*
X13671784Y-6787000D01*
X13621784Y-6737000D01*
X13571784Y-6787000D01*
X13621784Y-6837000D01*
X13871784Y-6837000D02*
X13921784Y-6787000D01*
X13871784Y-6737000D01*
X13821784Y-6787000D01*
X13871784Y-6837000D01*
X14121784Y-6837000D02*
X14171784Y-6787000D01*
X14121784Y-6737000D01*
X14071784Y-6787000D01*
X14121784Y-6837000D01*
X15056784Y-6837000D02*
X15106784Y-6787000D01*
X15056784Y-6737000D01*
X15006784Y-6787000D01*
X15056784Y-6837000D01*
X15306784Y-6837000D02*
X15356784Y-6787000D01*
X15306784Y-6737000D01*
X15256784Y-6787000D01*
X15306784Y-6837000D01*
X15556784Y-6837000D02*
X15606784Y-6787000D01*
X15556784Y-6737000D01*
X15506784Y-6787000D01*
X15556784Y-6837000D01*
X16865000Y-6565000D02*
X16915000Y-6515000D01*
X16865000Y-6465000D01*
X16815000Y-6515000D01*
X16865000Y-6565000D01*
X16915000Y-6645000D02*
X16915000Y-6385000D01*
X16815000Y-6385000D02*
G75*
G02*
X16915000Y-6385000I50000J0D01*
G01*
X16815000Y-6385000D02*
X16815000Y-6645000D01*
X16815000Y-6645000D02*
G75*
G03*
X16915000Y-6645000I50000J0D01*
G01*
X17155000Y-6085000D02*
X17205000Y-6035000D01*
X17155000Y-5985000D01*
X17105000Y-6035000D01*
X17155000Y-6085000D01*
X17045000Y-6085000D02*
X17265000Y-6085000D01*
X17265000Y-5985000D02*
G75*
G02*
X17265000Y-6085000I0J-50000D01*
G01*
X17265000Y-5985000D02*
X17045000Y-5985000D01*
X17045000Y-5985000D02*
G75*
G03*
X17045000Y-6085000I0J-50000D01*
G01*
X17495000Y-6565000D02*
X17545000Y-6515000D01*
X17495000Y-6465000D01*
X17445000Y-6515000D01*
X17495000Y-6565000D01*
X17545000Y-6625000D02*
X17545000Y-6405000D01*
X17445000Y-6405000D02*
G75*
G02*
X17545000Y-6405000I50000J0D01*
G01*
X17445000Y-6405000D02*
X17445000Y-6625000D01*
X17445000Y-6625000D02*
G75*
G03*
X17545000Y-6625000I50000J0D01*
G01*
D11*
X8458277Y-15113984D02*
X8458277Y-14913984D01*
X8458277Y-14913984D02*
X8505896Y-14913984D01*
X8505896Y-14913984D02*
X8534467Y-14923508D01*
X8534467Y-14923508D02*
X8553515Y-14942555D01*
X8553515Y-14942555D02*
X8563039Y-14961603D01*
X8563039Y-14961603D02*
X8572563Y-14999698D01*
X8572563Y-14999698D02*
X8572563Y-15028269D01*
X8572563Y-15028269D02*
X8563039Y-15066365D01*
X8563039Y-15066365D02*
X8553515Y-15085412D01*
X8553515Y-15085412D02*
X8534467Y-15104460D01*
X8534467Y-15104460D02*
X8505896Y-15113984D01*
X8505896Y-15113984D02*
X8458277Y-15113984D01*
X8658277Y-15113984D02*
X8658277Y-14980650D01*
X8658277Y-15018746D02*
X8667801Y-14999698D01*
X8667801Y-14999698D02*
X8677324Y-14990174D01*
X8677324Y-14990174D02*
X8696372Y-14980650D01*
X8696372Y-14980650D02*
X8715420Y-14980650D01*
X8782086Y-15113984D02*
X8782086Y-14980650D01*
X8782086Y-14913984D02*
X8772563Y-14923508D01*
X8772563Y-14923508D02*
X8782086Y-14933031D01*
X8782086Y-14933031D02*
X8791610Y-14923508D01*
X8791610Y-14923508D02*
X8782086Y-14913984D01*
X8782086Y-14913984D02*
X8782086Y-14933031D01*
X8905896Y-15113984D02*
X8886848Y-15104460D01*
X8886848Y-15104460D02*
X8877324Y-15085412D01*
X8877324Y-15085412D02*
X8877324Y-14913984D01*
X9010658Y-15113984D02*
X8991610Y-15104460D01*
X8991610Y-15104460D02*
X8982086Y-15085412D01*
X8982086Y-15085412D02*
X8982086Y-14913984D01*
X9239229Y-15113984D02*
X9239229Y-14913984D01*
X9239229Y-14913984D02*
X9305896Y-15056841D01*
X9305896Y-15056841D02*
X9372563Y-14913984D01*
X9372563Y-14913984D02*
X9372563Y-15113984D01*
X9553515Y-15113984D02*
X9553515Y-15009222D01*
X9553515Y-15009222D02*
X9543991Y-14990174D01*
X9543991Y-14990174D02*
X9524944Y-14980650D01*
X9524944Y-14980650D02*
X9486848Y-14980650D01*
X9486848Y-14980650D02*
X9467801Y-14990174D01*
X9553515Y-15104460D02*
X9534467Y-15113984D01*
X9534467Y-15113984D02*
X9486848Y-15113984D01*
X9486848Y-15113984D02*
X9467801Y-15104460D01*
X9467801Y-15104460D02*
X9458277Y-15085412D01*
X9458277Y-15085412D02*
X9458277Y-15066365D01*
X9458277Y-15066365D02*
X9467801Y-15047317D01*
X9467801Y-15047317D02*
X9486848Y-15037793D01*
X9486848Y-15037793D02*
X9534467Y-15037793D01*
X9534467Y-15037793D02*
X9553515Y-15028269D01*
X9648753Y-14980650D02*
X9648753Y-15180650D01*
X9648753Y-14990174D02*
X9667801Y-14980650D01*
X9667801Y-14980650D02*
X9705896Y-14980650D01*
X9705896Y-14980650D02*
X9724944Y-14990174D01*
X9724944Y-14990174D02*
X9734467Y-14999698D01*
X9734467Y-14999698D02*
X9743991Y-15018746D01*
X9743991Y-15018746D02*
X9743991Y-15075888D01*
X9743991Y-15075888D02*
X9734467Y-15094936D01*
X9734467Y-15094936D02*
X9724944Y-15104460D01*
X9724944Y-15104460D02*
X9705896Y-15113984D01*
X9705896Y-15113984D02*
X9667801Y-15113984D01*
X9667801Y-15113984D02*
X9648753Y-15104460D01*
X9829705Y-15094936D02*
X9839229Y-15104460D01*
X9839229Y-15104460D02*
X9829705Y-15113984D01*
X9829705Y-15113984D02*
X9820182Y-15104460D01*
X9820182Y-15104460D02*
X9829705Y-15094936D01*
X9829705Y-15094936D02*
X9829705Y-15113984D01*
X9829705Y-14990174D02*
X9839229Y-14999698D01*
X9839229Y-14999698D02*
X9829705Y-15009222D01*
X9829705Y-15009222D02*
X9820182Y-14999698D01*
X9820182Y-14999698D02*
X9829705Y-14990174D01*
X9829705Y-14990174D02*
X9829705Y-15009222D01*
D12*
X8167500Y-15427500D02*
X8197500Y-15457500D01*
X8197500Y-15427500D02*
X8167500Y-15457500D01*
D11*
X8496372Y-15333984D02*
X8515420Y-15333984D01*
X8515420Y-15333984D02*
X8534467Y-15343508D01*
X8534467Y-15343508D02*
X8543991Y-15353031D01*
X8543991Y-15353031D02*
X8553515Y-15372079D01*
X8553515Y-15372079D02*
X8563039Y-15410174D01*
X8563039Y-15410174D02*
X8563039Y-15457793D01*
X8563039Y-15457793D02*
X8553515Y-15495888D01*
X8553515Y-15495888D02*
X8543991Y-15514936D01*
X8543991Y-15514936D02*
X8534467Y-15524460D01*
X8534467Y-15524460D02*
X8515420Y-15533984D01*
X8515420Y-15533984D02*
X8496372Y-15533984D01*
X8496372Y-15533984D02*
X8477324Y-15524460D01*
X8477324Y-15524460D02*
X8467801Y-15514936D01*
X8467801Y-15514936D02*
X8458277Y-15495888D01*
X8458277Y-15495888D02*
X8448753Y-15457793D01*
X8448753Y-15457793D02*
X8448753Y-15410174D01*
X8448753Y-15410174D02*
X8458277Y-15372079D01*
X8458277Y-15372079D02*
X8467801Y-15353031D01*
X8467801Y-15353031D02*
X8477324Y-15343508D01*
X8477324Y-15343508D02*
X8496372Y-15333984D01*
X8648753Y-15514936D02*
X8658277Y-15524460D01*
X8658277Y-15524460D02*
X8648753Y-15533984D01*
X8648753Y-15533984D02*
X8639229Y-15524460D01*
X8639229Y-15524460D02*
X8648753Y-15514936D01*
X8648753Y-15514936D02*
X8648753Y-15533984D01*
X8724944Y-15333984D02*
X8848753Y-15333984D01*
X8848753Y-15333984D02*
X8782086Y-15410174D01*
X8782086Y-15410174D02*
X8810658Y-15410174D01*
X8810658Y-15410174D02*
X8829705Y-15419698D01*
X8829705Y-15419698D02*
X8839229Y-15429222D01*
X8839229Y-15429222D02*
X8848753Y-15448269D01*
X8848753Y-15448269D02*
X8848753Y-15495888D01*
X8848753Y-15495888D02*
X8839229Y-15514936D01*
X8839229Y-15514936D02*
X8829705Y-15524460D01*
X8829705Y-15524460D02*
X8810658Y-15533984D01*
X8810658Y-15533984D02*
X8753515Y-15533984D01*
X8753515Y-15533984D02*
X8734467Y-15524460D01*
X8734467Y-15524460D02*
X8724944Y-15514936D01*
X8972563Y-15333984D02*
X8991610Y-15333984D01*
X8991610Y-15333984D02*
X9010658Y-15343508D01*
X9010658Y-15343508D02*
X9020182Y-15353031D01*
X9020182Y-15353031D02*
X9029705Y-15372079D01*
X9029705Y-15372079D02*
X9039229Y-15410174D01*
X9039229Y-15410174D02*
X9039229Y-15457793D01*
X9039229Y-15457793D02*
X9029705Y-15495888D01*
X9029705Y-15495888D02*
X9020182Y-15514936D01*
X9020182Y-15514936D02*
X9010658Y-15524460D01*
X9010658Y-15524460D02*
X8991610Y-15533984D01*
X8991610Y-15533984D02*
X8972563Y-15533984D01*
X8972563Y-15533984D02*
X8953515Y-15524460D01*
X8953515Y-15524460D02*
X8943991Y-15514936D01*
X8943991Y-15514936D02*
X8934467Y-15495888D01*
X8934467Y-15495888D02*
X8924944Y-15457793D01*
X8924944Y-15457793D02*
X8924944Y-15410174D01*
X8924944Y-15410174D02*
X8934467Y-15372079D01*
X8934467Y-15372079D02*
X8943991Y-15353031D01*
X8943991Y-15353031D02*
X8953515Y-15343508D01*
X8953515Y-15343508D02*
X8972563Y-15333984D01*
X9163039Y-15333984D02*
X9182086Y-15333984D01*
X9182086Y-15333984D02*
X9201134Y-15343508D01*
X9201134Y-15343508D02*
X9210658Y-15353031D01*
X9210658Y-15353031D02*
X9220182Y-15372079D01*
X9220182Y-15372079D02*
X9229705Y-15410174D01*
X9229705Y-15410174D02*
X9229705Y-15457793D01*
X9229705Y-15457793D02*
X9220182Y-15495888D01*
X9220182Y-15495888D02*
X9210658Y-15514936D01*
X9210658Y-15514936D02*
X9201134Y-15524460D01*
X9201134Y-15524460D02*
X9182086Y-15533984D01*
X9182086Y-15533984D02*
X9163039Y-15533984D01*
X9163039Y-15533984D02*
X9143991Y-15524460D01*
X9143991Y-15524460D02*
X9134467Y-15514936D01*
X9134467Y-15514936D02*
X9124944Y-15495888D01*
X9124944Y-15495888D02*
X9115420Y-15457793D01*
X9115420Y-15457793D02*
X9115420Y-15410174D01*
X9115420Y-15410174D02*
X9124944Y-15372079D01*
X9124944Y-15372079D02*
X9134467Y-15353031D01*
X9134467Y-15353031D02*
X9143991Y-15343508D01*
X9143991Y-15343508D02*
X9163039Y-15333984D01*
X9315420Y-15533984D02*
X9315420Y-15400650D01*
X9315420Y-15419698D02*
X9324944Y-15410174D01*
X9324944Y-15410174D02*
X9343991Y-15400650D01*
X9343991Y-15400650D02*
X9372563Y-15400650D01*
X9372563Y-15400650D02*
X9391610Y-15410174D01*
X9391610Y-15410174D02*
X9401134Y-15429222D01*
X9401134Y-15429222D02*
X9401134Y-15533984D01*
X9401134Y-15429222D02*
X9410658Y-15410174D01*
X9410658Y-15410174D02*
X9429705Y-15400650D01*
X9429705Y-15400650D02*
X9458277Y-15400650D01*
X9458277Y-15400650D02*
X9477325Y-15410174D01*
X9477325Y-15410174D02*
X9486848Y-15429222D01*
X9486848Y-15429222D02*
X9486848Y-15533984D01*
X9582086Y-15533984D02*
X9582086Y-15400650D01*
X9582086Y-15419698D02*
X9591610Y-15410174D01*
X9591610Y-15410174D02*
X9610658Y-15400650D01*
X9610658Y-15400650D02*
X9639229Y-15400650D01*
X9639229Y-15400650D02*
X9658277Y-15410174D01*
X9658277Y-15410174D02*
X9667801Y-15429222D01*
X9667801Y-15429222D02*
X9667801Y-15533984D01*
X9667801Y-15429222D02*
X9677325Y-15410174D01*
X9677325Y-15410174D02*
X9696372Y-15400650D01*
X9696372Y-15400650D02*
X9724944Y-15400650D01*
X9724944Y-15400650D02*
X9743991Y-15410174D01*
X9743991Y-15410174D02*
X9753515Y-15429222D01*
X9753515Y-15429222D02*
X9753515Y-15533984D01*
X10143991Y-15324460D02*
X9972563Y-15581603D01*
X10401134Y-15333984D02*
X10420182Y-15333984D01*
X10420182Y-15333984D02*
X10439229Y-15343508D01*
X10439229Y-15343508D02*
X10448753Y-15353031D01*
X10448753Y-15353031D02*
X10458277Y-15372079D01*
X10458277Y-15372079D02*
X10467801Y-15410174D01*
X10467801Y-15410174D02*
X10467801Y-15457793D01*
X10467801Y-15457793D02*
X10458277Y-15495888D01*
X10458277Y-15495888D02*
X10448753Y-15514936D01*
X10448753Y-15514936D02*
X10439229Y-15524460D01*
X10439229Y-15524460D02*
X10420182Y-15533984D01*
X10420182Y-15533984D02*
X10401134Y-15533984D01*
X10401134Y-15533984D02*
X10382087Y-15524460D01*
X10382087Y-15524460D02*
X10372563Y-15514936D01*
X10372563Y-15514936D02*
X10363039Y-15495888D01*
X10363039Y-15495888D02*
X10353515Y-15457793D01*
X10353515Y-15457793D02*
X10353515Y-15410174D01*
X10353515Y-15410174D02*
X10363039Y-15372079D01*
X10363039Y-15372079D02*
X10372563Y-15353031D01*
X10372563Y-15353031D02*
X10382087Y-15343508D01*
X10382087Y-15343508D02*
X10401134Y-15333984D01*
X10553515Y-15514936D02*
X10563039Y-15524460D01*
X10563039Y-15524460D02*
X10553515Y-15533984D01*
X10553515Y-15533984D02*
X10543991Y-15524460D01*
X10543991Y-15524460D02*
X10553515Y-15514936D01*
X10553515Y-15514936D02*
X10553515Y-15533984D01*
X10686848Y-15333984D02*
X10705896Y-15333984D01*
X10705896Y-15333984D02*
X10724944Y-15343508D01*
X10724944Y-15343508D02*
X10734468Y-15353031D01*
X10734468Y-15353031D02*
X10743991Y-15372079D01*
X10743991Y-15372079D02*
X10753515Y-15410174D01*
X10753515Y-15410174D02*
X10753515Y-15457793D01*
X10753515Y-15457793D02*
X10743991Y-15495888D01*
X10743991Y-15495888D02*
X10734468Y-15514936D01*
X10734468Y-15514936D02*
X10724944Y-15524460D01*
X10724944Y-15524460D02*
X10705896Y-15533984D01*
X10705896Y-15533984D02*
X10686848Y-15533984D01*
X10686848Y-15533984D02*
X10667801Y-15524460D01*
X10667801Y-15524460D02*
X10658277Y-15514936D01*
X10658277Y-15514936D02*
X10648753Y-15495888D01*
X10648753Y-15495888D02*
X10639229Y-15457793D01*
X10639229Y-15457793D02*
X10639229Y-15410174D01*
X10639229Y-15410174D02*
X10648753Y-15372079D01*
X10648753Y-15372079D02*
X10658277Y-15353031D01*
X10658277Y-15353031D02*
X10667801Y-15343508D01*
X10667801Y-15343508D02*
X10686848Y-15333984D01*
X10943991Y-15533984D02*
X10829706Y-15533984D01*
X10886848Y-15533984D02*
X10886848Y-15333984D01*
X10886848Y-15333984D02*
X10867801Y-15362555D01*
X10867801Y-15362555D02*
X10848753Y-15381603D01*
X10848753Y-15381603D02*
X10829706Y-15391127D01*
X11134468Y-15533984D02*
X11020182Y-15533984D01*
X11077325Y-15533984D02*
X11077325Y-15333984D01*
X11077325Y-15333984D02*
X11058277Y-15362555D01*
X11058277Y-15362555D02*
X11039229Y-15381603D01*
X11039229Y-15381603D02*
X11020182Y-15391127D01*
X11248753Y-15419698D02*
X11229706Y-15410174D01*
X11229706Y-15410174D02*
X11220182Y-15400650D01*
X11220182Y-15400650D02*
X11210658Y-15381603D01*
X11210658Y-15381603D02*
X11210658Y-15372079D01*
X11210658Y-15372079D02*
X11220182Y-15353031D01*
X11220182Y-15353031D02*
X11229706Y-15343508D01*
X11229706Y-15343508D02*
X11248753Y-15333984D01*
X11248753Y-15333984D02*
X11286848Y-15333984D01*
X11286848Y-15333984D02*
X11305896Y-15343508D01*
X11305896Y-15343508D02*
X11315420Y-15353031D01*
X11315420Y-15353031D02*
X11324944Y-15372079D01*
X11324944Y-15372079D02*
X11324944Y-15381603D01*
X11324944Y-15381603D02*
X11315420Y-15400650D01*
X11315420Y-15400650D02*
X11305896Y-15410174D01*
X11305896Y-15410174D02*
X11286848Y-15419698D01*
X11286848Y-15419698D02*
X11248753Y-15419698D01*
X11248753Y-15419698D02*
X11229706Y-15429222D01*
X11229706Y-15429222D02*
X11220182Y-15438746D01*
X11220182Y-15438746D02*
X11210658Y-15457793D01*
X11210658Y-15457793D02*
X11210658Y-15495888D01*
X11210658Y-15495888D02*
X11220182Y-15514936D01*
X11220182Y-15514936D02*
X11229706Y-15524460D01*
X11229706Y-15524460D02*
X11248753Y-15533984D01*
X11248753Y-15533984D02*
X11286848Y-15533984D01*
X11286848Y-15533984D02*
X11305896Y-15524460D01*
X11305896Y-15524460D02*
X11315420Y-15514936D01*
X11315420Y-15514936D02*
X11324944Y-15495888D01*
X11324944Y-15495888D02*
X11324944Y-15457793D01*
X11324944Y-15457793D02*
X11315420Y-15438746D01*
X11315420Y-15438746D02*
X11305896Y-15429222D01*
X11305896Y-15429222D02*
X11286848Y-15419698D01*
X11401134Y-15333984D02*
X11401134Y-15372079D01*
X11477325Y-15333984D02*
X11477325Y-15372079D01*
X11772563Y-15610174D02*
X11763039Y-15600650D01*
X11763039Y-15600650D02*
X11743991Y-15572079D01*
X11743991Y-15572079D02*
X11734468Y-15553031D01*
X11734468Y-15553031D02*
X11724944Y-15524460D01*
X11724944Y-15524460D02*
X11715420Y-15476841D01*
X11715420Y-15476841D02*
X11715420Y-15438746D01*
X11715420Y-15438746D02*
X11724944Y-15391127D01*
X11724944Y-15391127D02*
X11734468Y-15362555D01*
X11734468Y-15362555D02*
X11743991Y-15343508D01*
X11743991Y-15343508D02*
X11763039Y-15314936D01*
X11763039Y-15314936D02*
X11772563Y-15305412D01*
X11829706Y-15333984D02*
X11953515Y-15333984D01*
X11953515Y-15333984D02*
X11886848Y-15410174D01*
X11886848Y-15410174D02*
X11915420Y-15410174D01*
X11915420Y-15410174D02*
X11934468Y-15419698D01*
X11934468Y-15419698D02*
X11943991Y-15429222D01*
X11943991Y-15429222D02*
X11953515Y-15448269D01*
X11953515Y-15448269D02*
X11953515Y-15495888D01*
X11953515Y-15495888D02*
X11943991Y-15514936D01*
X11943991Y-15514936D02*
X11934468Y-15524460D01*
X11934468Y-15524460D02*
X11915420Y-15533984D01*
X11915420Y-15533984D02*
X11858277Y-15533984D01*
X11858277Y-15533984D02*
X11839229Y-15524460D01*
X11839229Y-15524460D02*
X11829706Y-15514936D01*
X12020182Y-15333984D02*
X12143991Y-15333984D01*
X12143991Y-15333984D02*
X12077325Y-15410174D01*
X12077325Y-15410174D02*
X12105896Y-15410174D01*
X12105896Y-15410174D02*
X12124944Y-15419698D01*
X12124944Y-15419698D02*
X12134468Y-15429222D01*
X12134468Y-15429222D02*
X12143991Y-15448269D01*
X12143991Y-15448269D02*
X12143991Y-15495888D01*
X12143991Y-15495888D02*
X12134468Y-15514936D01*
X12134468Y-15514936D02*
X12124944Y-15524460D01*
X12124944Y-15524460D02*
X12105896Y-15533984D01*
X12105896Y-15533984D02*
X12048753Y-15533984D01*
X12048753Y-15533984D02*
X12029706Y-15524460D01*
X12029706Y-15524460D02*
X12020182Y-15514936D01*
X12382087Y-15533984D02*
X12382087Y-15333984D01*
X12467801Y-15533984D02*
X12467801Y-15429222D01*
X12467801Y-15429222D02*
X12458277Y-15410174D01*
X12458277Y-15410174D02*
X12439230Y-15400650D01*
X12439230Y-15400650D02*
X12410658Y-15400650D01*
X12410658Y-15400650D02*
X12391610Y-15410174D01*
X12391610Y-15410174D02*
X12382087Y-15419698D01*
X12591610Y-15533984D02*
X12572563Y-15524460D01*
X12572563Y-15524460D02*
X12563039Y-15514936D01*
X12563039Y-15514936D02*
X12553515Y-15495888D01*
X12553515Y-15495888D02*
X12553515Y-15438746D01*
X12553515Y-15438746D02*
X12563039Y-15419698D01*
X12563039Y-15419698D02*
X12572563Y-15410174D01*
X12572563Y-15410174D02*
X12591610Y-15400650D01*
X12591610Y-15400650D02*
X12620182Y-15400650D01*
X12620182Y-15400650D02*
X12639230Y-15410174D01*
X12639230Y-15410174D02*
X12648753Y-15419698D01*
X12648753Y-15419698D02*
X12658277Y-15438746D01*
X12658277Y-15438746D02*
X12658277Y-15495888D01*
X12658277Y-15495888D02*
X12648753Y-15514936D01*
X12648753Y-15514936D02*
X12639230Y-15524460D01*
X12639230Y-15524460D02*
X12620182Y-15533984D01*
X12620182Y-15533984D02*
X12591610Y-15533984D01*
X12772563Y-15533984D02*
X12753515Y-15524460D01*
X12753515Y-15524460D02*
X12743991Y-15505412D01*
X12743991Y-15505412D02*
X12743991Y-15333984D01*
X12924944Y-15524460D02*
X12905896Y-15533984D01*
X12905896Y-15533984D02*
X12867801Y-15533984D01*
X12867801Y-15533984D02*
X12848753Y-15524460D01*
X12848753Y-15524460D02*
X12839230Y-15505412D01*
X12839230Y-15505412D02*
X12839230Y-15429222D01*
X12839230Y-15429222D02*
X12848753Y-15410174D01*
X12848753Y-15410174D02*
X12867801Y-15400650D01*
X12867801Y-15400650D02*
X12905896Y-15400650D01*
X12905896Y-15400650D02*
X12924944Y-15410174D01*
X12924944Y-15410174D02*
X12934468Y-15429222D01*
X12934468Y-15429222D02*
X12934468Y-15448269D01*
X12934468Y-15448269D02*
X12839230Y-15467317D01*
X13010658Y-15524460D02*
X13029706Y-15533984D01*
X13029706Y-15533984D02*
X13067801Y-15533984D01*
X13067801Y-15533984D02*
X13086849Y-15524460D01*
X13086849Y-15524460D02*
X13096372Y-15505412D01*
X13096372Y-15505412D02*
X13096372Y-15495888D01*
X13096372Y-15495888D02*
X13086849Y-15476841D01*
X13086849Y-15476841D02*
X13067801Y-15467317D01*
X13067801Y-15467317D02*
X13039230Y-15467317D01*
X13039230Y-15467317D02*
X13020182Y-15457793D01*
X13020182Y-15457793D02*
X13010658Y-15438746D01*
X13010658Y-15438746D02*
X13010658Y-15429222D01*
X13010658Y-15429222D02*
X13020182Y-15410174D01*
X13020182Y-15410174D02*
X13039230Y-15400650D01*
X13039230Y-15400650D02*
X13067801Y-15400650D01*
X13067801Y-15400650D02*
X13086849Y-15410174D01*
X13163039Y-15610174D02*
X13172563Y-15600650D01*
X13172563Y-15600650D02*
X13191611Y-15572079D01*
X13191611Y-15572079D02*
X13201134Y-15553031D01*
X13201134Y-15553031D02*
X13210658Y-15524460D01*
X13210658Y-15524460D02*
X13220182Y-15476841D01*
X13220182Y-15476841D02*
X13220182Y-15438746D01*
X13220182Y-15438746D02*
X13210658Y-15391127D01*
X13210658Y-15391127D02*
X13201134Y-15362555D01*
X13201134Y-15362555D02*
X13191611Y-15343508D01*
X13191611Y-15343508D02*
X13172563Y-15314936D01*
X13172563Y-15314936D02*
X13163039Y-15305412D01*
D12*
X8197500Y-15706500D02*
G75*
G02*
X8157500Y-15706500I-20000J0D01*
G01*
X8157500Y-15706500D02*
G75*
G02*
X8197500Y-15706500I20000J0D01*
G01*
D11*
X8496372Y-15597984D02*
X8515420Y-15597984D01*
X8515420Y-15597984D02*
X8534467Y-15607508D01*
X8534467Y-15607508D02*
X8543991Y-15617031D01*
X8543991Y-15617031D02*
X8553515Y-15636079D01*
X8553515Y-15636079D02*
X8563039Y-15674174D01*
X8563039Y-15674174D02*
X8563039Y-15721793D01*
X8563039Y-15721793D02*
X8553515Y-15759888D01*
X8553515Y-15759888D02*
X8543991Y-15778936D01*
X8543991Y-15778936D02*
X8534467Y-15788460D01*
X8534467Y-15788460D02*
X8515420Y-15797984D01*
X8515420Y-15797984D02*
X8496372Y-15797984D01*
X8496372Y-15797984D02*
X8477324Y-15788460D01*
X8477324Y-15788460D02*
X8467801Y-15778936D01*
X8467801Y-15778936D02*
X8458277Y-15759888D01*
X8458277Y-15759888D02*
X8448753Y-15721793D01*
X8448753Y-15721793D02*
X8448753Y-15674174D01*
X8448753Y-15674174D02*
X8458277Y-15636079D01*
X8458277Y-15636079D02*
X8467801Y-15617031D01*
X8467801Y-15617031D02*
X8477324Y-15607508D01*
X8477324Y-15607508D02*
X8496372Y-15597984D01*
X8648753Y-15778936D02*
X8658277Y-15788460D01*
X8658277Y-15788460D02*
X8648753Y-15797984D01*
X8648753Y-15797984D02*
X8639229Y-15788460D01*
X8639229Y-15788460D02*
X8648753Y-15778936D01*
X8648753Y-15778936D02*
X8648753Y-15797984D01*
X8829705Y-15664650D02*
X8829705Y-15797984D01*
X8782086Y-15588460D02*
X8734467Y-15731317D01*
X8734467Y-15731317D02*
X8858277Y-15731317D01*
X8972563Y-15597984D02*
X8991610Y-15597984D01*
X8991610Y-15597984D02*
X9010658Y-15607508D01*
X9010658Y-15607508D02*
X9020182Y-15617031D01*
X9020182Y-15617031D02*
X9029705Y-15636079D01*
X9029705Y-15636079D02*
X9039229Y-15674174D01*
X9039229Y-15674174D02*
X9039229Y-15721793D01*
X9039229Y-15721793D02*
X9029705Y-15759888D01*
X9029705Y-15759888D02*
X9020182Y-15778936D01*
X9020182Y-15778936D02*
X9010658Y-15788460D01*
X9010658Y-15788460D02*
X8991610Y-15797984D01*
X8991610Y-15797984D02*
X8972563Y-15797984D01*
X8972563Y-15797984D02*
X8953515Y-15788460D01*
X8953515Y-15788460D02*
X8943991Y-15778936D01*
X8943991Y-15778936D02*
X8934467Y-15759888D01*
X8934467Y-15759888D02*
X8924944Y-15721793D01*
X8924944Y-15721793D02*
X8924944Y-15674174D01*
X8924944Y-15674174D02*
X8934467Y-15636079D01*
X8934467Y-15636079D02*
X8943991Y-15617031D01*
X8943991Y-15617031D02*
X8953515Y-15607508D01*
X8953515Y-15607508D02*
X8972563Y-15597984D01*
X9163039Y-15597984D02*
X9182086Y-15597984D01*
X9182086Y-15597984D02*
X9201134Y-15607508D01*
X9201134Y-15607508D02*
X9210658Y-15617031D01*
X9210658Y-15617031D02*
X9220182Y-15636079D01*
X9220182Y-15636079D02*
X9229705Y-15674174D01*
X9229705Y-15674174D02*
X9229705Y-15721793D01*
X9229705Y-15721793D02*
X9220182Y-15759888D01*
X9220182Y-15759888D02*
X9210658Y-15778936D01*
X9210658Y-15778936D02*
X9201134Y-15788460D01*
X9201134Y-15788460D02*
X9182086Y-15797984D01*
X9182086Y-15797984D02*
X9163039Y-15797984D01*
X9163039Y-15797984D02*
X9143991Y-15788460D01*
X9143991Y-15788460D02*
X9134467Y-15778936D01*
X9134467Y-15778936D02*
X9124944Y-15759888D01*
X9124944Y-15759888D02*
X9115420Y-15721793D01*
X9115420Y-15721793D02*
X9115420Y-15674174D01*
X9115420Y-15674174D02*
X9124944Y-15636079D01*
X9124944Y-15636079D02*
X9134467Y-15617031D01*
X9134467Y-15617031D02*
X9143991Y-15607508D01*
X9143991Y-15607508D02*
X9163039Y-15597984D01*
X9315420Y-15797984D02*
X9315420Y-15664650D01*
X9315420Y-15683698D02*
X9324944Y-15674174D01*
X9324944Y-15674174D02*
X9343991Y-15664650D01*
X9343991Y-15664650D02*
X9372563Y-15664650D01*
X9372563Y-15664650D02*
X9391610Y-15674174D01*
X9391610Y-15674174D02*
X9401134Y-15693222D01*
X9401134Y-15693222D02*
X9401134Y-15797984D01*
X9401134Y-15693222D02*
X9410658Y-15674174D01*
X9410658Y-15674174D02*
X9429705Y-15664650D01*
X9429705Y-15664650D02*
X9458277Y-15664650D01*
X9458277Y-15664650D02*
X9477325Y-15674174D01*
X9477325Y-15674174D02*
X9486848Y-15693222D01*
X9486848Y-15693222D02*
X9486848Y-15797984D01*
X9582086Y-15797984D02*
X9582086Y-15664650D01*
X9582086Y-15683698D02*
X9591610Y-15674174D01*
X9591610Y-15674174D02*
X9610658Y-15664650D01*
X9610658Y-15664650D02*
X9639229Y-15664650D01*
X9639229Y-15664650D02*
X9658277Y-15674174D01*
X9658277Y-15674174D02*
X9667801Y-15693222D01*
X9667801Y-15693222D02*
X9667801Y-15797984D01*
X9667801Y-15693222D02*
X9677325Y-15674174D01*
X9677325Y-15674174D02*
X9696372Y-15664650D01*
X9696372Y-15664650D02*
X9724944Y-15664650D01*
X9724944Y-15664650D02*
X9743991Y-15674174D01*
X9743991Y-15674174D02*
X9753515Y-15693222D01*
X9753515Y-15693222D02*
X9753515Y-15797984D01*
X10143991Y-15588460D02*
X9972563Y-15845603D01*
X10401134Y-15597984D02*
X10420182Y-15597984D01*
X10420182Y-15597984D02*
X10439229Y-15607508D01*
X10439229Y-15607508D02*
X10448753Y-15617031D01*
X10448753Y-15617031D02*
X10458277Y-15636079D01*
X10458277Y-15636079D02*
X10467801Y-15674174D01*
X10467801Y-15674174D02*
X10467801Y-15721793D01*
X10467801Y-15721793D02*
X10458277Y-15759888D01*
X10458277Y-15759888D02*
X10448753Y-15778936D01*
X10448753Y-15778936D02*
X10439229Y-15788460D01*
X10439229Y-15788460D02*
X10420182Y-15797984D01*
X10420182Y-15797984D02*
X10401134Y-15797984D01*
X10401134Y-15797984D02*
X10382087Y-15788460D01*
X10382087Y-15788460D02*
X10372563Y-15778936D01*
X10372563Y-15778936D02*
X10363039Y-15759888D01*
X10363039Y-15759888D02*
X10353515Y-15721793D01*
X10353515Y-15721793D02*
X10353515Y-15674174D01*
X10353515Y-15674174D02*
X10363039Y-15636079D01*
X10363039Y-15636079D02*
X10372563Y-15617031D01*
X10372563Y-15617031D02*
X10382087Y-15607508D01*
X10382087Y-15607508D02*
X10401134Y-15597984D01*
X10553515Y-15778936D02*
X10563039Y-15788460D01*
X10563039Y-15788460D02*
X10553515Y-15797984D01*
X10553515Y-15797984D02*
X10543991Y-15788460D01*
X10543991Y-15788460D02*
X10553515Y-15778936D01*
X10553515Y-15778936D02*
X10553515Y-15797984D01*
X10686848Y-15597984D02*
X10705896Y-15597984D01*
X10705896Y-15597984D02*
X10724944Y-15607508D01*
X10724944Y-15607508D02*
X10734468Y-15617031D01*
X10734468Y-15617031D02*
X10743991Y-15636079D01*
X10743991Y-15636079D02*
X10753515Y-15674174D01*
X10753515Y-15674174D02*
X10753515Y-15721793D01*
X10753515Y-15721793D02*
X10743991Y-15759888D01*
X10743991Y-15759888D02*
X10734468Y-15778936D01*
X10734468Y-15778936D02*
X10724944Y-15788460D01*
X10724944Y-15788460D02*
X10705896Y-15797984D01*
X10705896Y-15797984D02*
X10686848Y-15797984D01*
X10686848Y-15797984D02*
X10667801Y-15788460D01*
X10667801Y-15788460D02*
X10658277Y-15778936D01*
X10658277Y-15778936D02*
X10648753Y-15759888D01*
X10648753Y-15759888D02*
X10639229Y-15721793D01*
X10639229Y-15721793D02*
X10639229Y-15674174D01*
X10639229Y-15674174D02*
X10648753Y-15636079D01*
X10648753Y-15636079D02*
X10658277Y-15617031D01*
X10658277Y-15617031D02*
X10667801Y-15607508D01*
X10667801Y-15607508D02*
X10686848Y-15597984D01*
X10943991Y-15797984D02*
X10829706Y-15797984D01*
X10886848Y-15797984D02*
X10886848Y-15597984D01*
X10886848Y-15597984D02*
X10867801Y-15626555D01*
X10867801Y-15626555D02*
X10848753Y-15645603D01*
X10848753Y-15645603D02*
X10829706Y-15655127D01*
X11124944Y-15597984D02*
X11029706Y-15597984D01*
X11029706Y-15597984D02*
X11020182Y-15693222D01*
X11020182Y-15693222D02*
X11029706Y-15683698D01*
X11029706Y-15683698D02*
X11048753Y-15674174D01*
X11048753Y-15674174D02*
X11096372Y-15674174D01*
X11096372Y-15674174D02*
X11115420Y-15683698D01*
X11115420Y-15683698D02*
X11124944Y-15693222D01*
X11124944Y-15693222D02*
X11134468Y-15712269D01*
X11134468Y-15712269D02*
X11134468Y-15759888D01*
X11134468Y-15759888D02*
X11124944Y-15778936D01*
X11124944Y-15778936D02*
X11115420Y-15788460D01*
X11115420Y-15788460D02*
X11096372Y-15797984D01*
X11096372Y-15797984D02*
X11048753Y-15797984D01*
X11048753Y-15797984D02*
X11029706Y-15788460D01*
X11029706Y-15788460D02*
X11020182Y-15778936D01*
X11201134Y-15597984D02*
X11334467Y-15597984D01*
X11334467Y-15597984D02*
X11248753Y-15797984D01*
X11401134Y-15597984D02*
X11401134Y-15636079D01*
X11477325Y-15597984D02*
X11477325Y-15636079D01*
X11772563Y-15874174D02*
X11763039Y-15864650D01*
X11763039Y-15864650D02*
X11743991Y-15836079D01*
X11743991Y-15836079D02*
X11734468Y-15817031D01*
X11734468Y-15817031D02*
X11724944Y-15788460D01*
X11724944Y-15788460D02*
X11715420Y-15740841D01*
X11715420Y-15740841D02*
X11715420Y-15702746D01*
X11715420Y-15702746D02*
X11724944Y-15655127D01*
X11724944Y-15655127D02*
X11734468Y-15626555D01*
X11734468Y-15626555D02*
X11743991Y-15607508D01*
X11743991Y-15607508D02*
X11763039Y-15578936D01*
X11763039Y-15578936D02*
X11772563Y-15569412D01*
X11934468Y-15597984D02*
X11896372Y-15597984D01*
X11896372Y-15597984D02*
X11877325Y-15607508D01*
X11877325Y-15607508D02*
X11867801Y-15617031D01*
X11867801Y-15617031D02*
X11848753Y-15645603D01*
X11848753Y-15645603D02*
X11839229Y-15683698D01*
X11839229Y-15683698D02*
X11839229Y-15759888D01*
X11839229Y-15759888D02*
X11848753Y-15778936D01*
X11848753Y-15778936D02*
X11858277Y-15788460D01*
X11858277Y-15788460D02*
X11877325Y-15797984D01*
X11877325Y-15797984D02*
X11915420Y-15797984D01*
X11915420Y-15797984D02*
X11934468Y-15788460D01*
X11934468Y-15788460D02*
X11943991Y-15778936D01*
X11943991Y-15778936D02*
X11953515Y-15759888D01*
X11953515Y-15759888D02*
X11953515Y-15712269D01*
X11953515Y-15712269D02*
X11943991Y-15693222D01*
X11943991Y-15693222D02*
X11934468Y-15683698D01*
X11934468Y-15683698D02*
X11915420Y-15674174D01*
X11915420Y-15674174D02*
X11877325Y-15674174D01*
X11877325Y-15674174D02*
X11858277Y-15683698D01*
X11858277Y-15683698D02*
X11848753Y-15693222D01*
X11848753Y-15693222D02*
X11839229Y-15712269D01*
X12191610Y-15797984D02*
X12191610Y-15597984D01*
X12277325Y-15797984D02*
X12277325Y-15693222D01*
X12277325Y-15693222D02*
X12267801Y-15674174D01*
X12267801Y-15674174D02*
X12248753Y-15664650D01*
X12248753Y-15664650D02*
X12220182Y-15664650D01*
X12220182Y-15664650D02*
X12201134Y-15674174D01*
X12201134Y-15674174D02*
X12191610Y-15683698D01*
X12401134Y-15797984D02*
X12382087Y-15788460D01*
X12382087Y-15788460D02*
X12372563Y-15778936D01*
X12372563Y-15778936D02*
X12363039Y-15759888D01*
X12363039Y-15759888D02*
X12363039Y-15702746D01*
X12363039Y-15702746D02*
X12372563Y-15683698D01*
X12372563Y-15683698D02*
X12382087Y-15674174D01*
X12382087Y-15674174D02*
X12401134Y-15664650D01*
X12401134Y-15664650D02*
X12429706Y-15664650D01*
X12429706Y-15664650D02*
X12448753Y-15674174D01*
X12448753Y-15674174D02*
X12458277Y-15683698D01*
X12458277Y-15683698D02*
X12467801Y-15702746D01*
X12467801Y-15702746D02*
X12467801Y-15759888D01*
X12467801Y-15759888D02*
X12458277Y-15778936D01*
X12458277Y-15778936D02*
X12448753Y-15788460D01*
X12448753Y-15788460D02*
X12429706Y-15797984D01*
X12429706Y-15797984D02*
X12401134Y-15797984D01*
X12582087Y-15797984D02*
X12563039Y-15788460D01*
X12563039Y-15788460D02*
X12553515Y-15769412D01*
X12553515Y-15769412D02*
X12553515Y-15597984D01*
X12734468Y-15788460D02*
X12715420Y-15797984D01*
X12715420Y-15797984D02*
X12677325Y-15797984D01*
X12677325Y-15797984D02*
X12658277Y-15788460D01*
X12658277Y-15788460D02*
X12648753Y-15769412D01*
X12648753Y-15769412D02*
X12648753Y-15693222D01*
X12648753Y-15693222D02*
X12658277Y-15674174D01*
X12658277Y-15674174D02*
X12677325Y-15664650D01*
X12677325Y-15664650D02*
X12715420Y-15664650D01*
X12715420Y-15664650D02*
X12734468Y-15674174D01*
X12734468Y-15674174D02*
X12743991Y-15693222D01*
X12743991Y-15693222D02*
X12743991Y-15712269D01*
X12743991Y-15712269D02*
X12648753Y-15731317D01*
X12820182Y-15788460D02*
X12839230Y-15797984D01*
X12839230Y-15797984D02*
X12877325Y-15797984D01*
X12877325Y-15797984D02*
X12896372Y-15788460D01*
X12896372Y-15788460D02*
X12905896Y-15769412D01*
X12905896Y-15769412D02*
X12905896Y-15759888D01*
X12905896Y-15759888D02*
X12896372Y-15740841D01*
X12896372Y-15740841D02*
X12877325Y-15731317D01*
X12877325Y-15731317D02*
X12848753Y-15731317D01*
X12848753Y-15731317D02*
X12829706Y-15721793D01*
X12829706Y-15721793D02*
X12820182Y-15702746D01*
X12820182Y-15702746D02*
X12820182Y-15693222D01*
X12820182Y-15693222D02*
X12829706Y-15674174D01*
X12829706Y-15674174D02*
X12848753Y-15664650D01*
X12848753Y-15664650D02*
X12877325Y-15664650D01*
X12877325Y-15664650D02*
X12896372Y-15674174D01*
X12972563Y-15874174D02*
X12982087Y-15864650D01*
X12982087Y-15864650D02*
X13001134Y-15836079D01*
X13001134Y-15836079D02*
X13010658Y-15817031D01*
X13010658Y-15817031D02*
X13020182Y-15788460D01*
X13020182Y-15788460D02*
X13029706Y-15740841D01*
X13029706Y-15740841D02*
X13029706Y-15702746D01*
X13029706Y-15702746D02*
X13020182Y-15655127D01*
X13020182Y-15655127D02*
X13010658Y-15626555D01*
X13010658Y-15626555D02*
X13001134Y-15607508D01*
X13001134Y-15607508D02*
X12982087Y-15578936D01*
X12982087Y-15578936D02*
X12972563Y-15569412D01*
D12*
X8167500Y-15940500D02*
X8167500Y-16000500D01*
X8137500Y-15970500D02*
X8197500Y-15970500D01*
D11*
X8496372Y-15861984D02*
X8515420Y-15861984D01*
X8515420Y-15861984D02*
X8534467Y-15871508D01*
X8534467Y-15871508D02*
X8543991Y-15881031D01*
X8543991Y-15881031D02*
X8553515Y-15900079D01*
X8553515Y-15900079D02*
X8563039Y-15938174D01*
X8563039Y-15938174D02*
X8563039Y-15985793D01*
X8563039Y-15985793D02*
X8553515Y-16023888D01*
X8553515Y-16023888D02*
X8543991Y-16042936D01*
X8543991Y-16042936D02*
X8534467Y-16052460D01*
X8534467Y-16052460D02*
X8515420Y-16061984D01*
X8515420Y-16061984D02*
X8496372Y-16061984D01*
X8496372Y-16061984D02*
X8477324Y-16052460D01*
X8477324Y-16052460D02*
X8467801Y-16042936D01*
X8467801Y-16042936D02*
X8458277Y-16023888D01*
X8458277Y-16023888D02*
X8448753Y-15985793D01*
X8448753Y-15985793D02*
X8448753Y-15938174D01*
X8448753Y-15938174D02*
X8458277Y-15900079D01*
X8458277Y-15900079D02*
X8467801Y-15881031D01*
X8467801Y-15881031D02*
X8477324Y-15871508D01*
X8477324Y-15871508D02*
X8496372Y-15861984D01*
X8648753Y-16042936D02*
X8658277Y-16052460D01*
X8658277Y-16052460D02*
X8648753Y-16061984D01*
X8648753Y-16061984D02*
X8639229Y-16052460D01*
X8639229Y-16052460D02*
X8648753Y-16042936D01*
X8648753Y-16042936D02*
X8648753Y-16061984D01*
X8829705Y-15861984D02*
X8791610Y-15861984D01*
X8791610Y-15861984D02*
X8772563Y-15871508D01*
X8772563Y-15871508D02*
X8763039Y-15881031D01*
X8763039Y-15881031D02*
X8743991Y-15909603D01*
X8743991Y-15909603D02*
X8734467Y-15947698D01*
X8734467Y-15947698D02*
X8734467Y-16023888D01*
X8734467Y-16023888D02*
X8743991Y-16042936D01*
X8743991Y-16042936D02*
X8753515Y-16052460D01*
X8753515Y-16052460D02*
X8772563Y-16061984D01*
X8772563Y-16061984D02*
X8810658Y-16061984D01*
X8810658Y-16061984D02*
X8829705Y-16052460D01*
X8829705Y-16052460D02*
X8839229Y-16042936D01*
X8839229Y-16042936D02*
X8848753Y-16023888D01*
X8848753Y-16023888D02*
X8848753Y-15976269D01*
X8848753Y-15976269D02*
X8839229Y-15957222D01*
X8839229Y-15957222D02*
X8829705Y-15947698D01*
X8829705Y-15947698D02*
X8810658Y-15938174D01*
X8810658Y-15938174D02*
X8772563Y-15938174D01*
X8772563Y-15938174D02*
X8753515Y-15947698D01*
X8753515Y-15947698D02*
X8743991Y-15957222D01*
X8743991Y-15957222D02*
X8734467Y-15976269D01*
X8972563Y-15861984D02*
X8991610Y-15861984D01*
X8991610Y-15861984D02*
X9010658Y-15871508D01*
X9010658Y-15871508D02*
X9020182Y-15881031D01*
X9020182Y-15881031D02*
X9029705Y-15900079D01*
X9029705Y-15900079D02*
X9039229Y-15938174D01*
X9039229Y-15938174D02*
X9039229Y-15985793D01*
X9039229Y-15985793D02*
X9029705Y-16023888D01*
X9029705Y-16023888D02*
X9020182Y-16042936D01*
X9020182Y-16042936D02*
X9010658Y-16052460D01*
X9010658Y-16052460D02*
X8991610Y-16061984D01*
X8991610Y-16061984D02*
X8972563Y-16061984D01*
X8972563Y-16061984D02*
X8953515Y-16052460D01*
X8953515Y-16052460D02*
X8943991Y-16042936D01*
X8943991Y-16042936D02*
X8934467Y-16023888D01*
X8934467Y-16023888D02*
X8924944Y-15985793D01*
X8924944Y-15985793D02*
X8924944Y-15938174D01*
X8924944Y-15938174D02*
X8934467Y-15900079D01*
X8934467Y-15900079D02*
X8943991Y-15881031D01*
X8943991Y-15881031D02*
X8953515Y-15871508D01*
X8953515Y-15871508D02*
X8972563Y-15861984D01*
X9163039Y-15861984D02*
X9182086Y-15861984D01*
X9182086Y-15861984D02*
X9201134Y-15871508D01*
X9201134Y-15871508D02*
X9210658Y-15881031D01*
X9210658Y-15881031D02*
X9220182Y-15900079D01*
X9220182Y-15900079D02*
X9229705Y-15938174D01*
X9229705Y-15938174D02*
X9229705Y-15985793D01*
X9229705Y-15985793D02*
X9220182Y-16023888D01*
X9220182Y-16023888D02*
X9210658Y-16042936D01*
X9210658Y-16042936D02*
X9201134Y-16052460D01*
X9201134Y-16052460D02*
X9182086Y-16061984D01*
X9182086Y-16061984D02*
X9163039Y-16061984D01*
X9163039Y-16061984D02*
X9143991Y-16052460D01*
X9143991Y-16052460D02*
X9134467Y-16042936D01*
X9134467Y-16042936D02*
X9124944Y-16023888D01*
X9124944Y-16023888D02*
X9115420Y-15985793D01*
X9115420Y-15985793D02*
X9115420Y-15938174D01*
X9115420Y-15938174D02*
X9124944Y-15900079D01*
X9124944Y-15900079D02*
X9134467Y-15881031D01*
X9134467Y-15881031D02*
X9143991Y-15871508D01*
X9143991Y-15871508D02*
X9163039Y-15861984D01*
X9315420Y-16061984D02*
X9315420Y-15928650D01*
X9315420Y-15947698D02*
X9324944Y-15938174D01*
X9324944Y-15938174D02*
X9343991Y-15928650D01*
X9343991Y-15928650D02*
X9372563Y-15928650D01*
X9372563Y-15928650D02*
X9391610Y-15938174D01*
X9391610Y-15938174D02*
X9401134Y-15957222D01*
X9401134Y-15957222D02*
X9401134Y-16061984D01*
X9401134Y-15957222D02*
X9410658Y-15938174D01*
X9410658Y-15938174D02*
X9429705Y-15928650D01*
X9429705Y-15928650D02*
X9458277Y-15928650D01*
X9458277Y-15928650D02*
X9477325Y-15938174D01*
X9477325Y-15938174D02*
X9486848Y-15957222D01*
X9486848Y-15957222D02*
X9486848Y-16061984D01*
X9582086Y-16061984D02*
X9582086Y-15928650D01*
X9582086Y-15947698D02*
X9591610Y-15938174D01*
X9591610Y-15938174D02*
X9610658Y-15928650D01*
X9610658Y-15928650D02*
X9639229Y-15928650D01*
X9639229Y-15928650D02*
X9658277Y-15938174D01*
X9658277Y-15938174D02*
X9667801Y-15957222D01*
X9667801Y-15957222D02*
X9667801Y-16061984D01*
X9667801Y-15957222D02*
X9677325Y-15938174D01*
X9677325Y-15938174D02*
X9696372Y-15928650D01*
X9696372Y-15928650D02*
X9724944Y-15928650D01*
X9724944Y-15928650D02*
X9743991Y-15938174D01*
X9743991Y-15938174D02*
X9753515Y-15957222D01*
X9753515Y-15957222D02*
X9753515Y-16061984D01*
X10143991Y-15852460D02*
X9972563Y-16109603D01*
X10401134Y-15861984D02*
X10420182Y-15861984D01*
X10420182Y-15861984D02*
X10439229Y-15871508D01*
X10439229Y-15871508D02*
X10448753Y-15881031D01*
X10448753Y-15881031D02*
X10458277Y-15900079D01*
X10458277Y-15900079D02*
X10467801Y-15938174D01*
X10467801Y-15938174D02*
X10467801Y-15985793D01*
X10467801Y-15985793D02*
X10458277Y-16023888D01*
X10458277Y-16023888D02*
X10448753Y-16042936D01*
X10448753Y-16042936D02*
X10439229Y-16052460D01*
X10439229Y-16052460D02*
X10420182Y-16061984D01*
X10420182Y-16061984D02*
X10401134Y-16061984D01*
X10401134Y-16061984D02*
X10382087Y-16052460D01*
X10382087Y-16052460D02*
X10372563Y-16042936D01*
X10372563Y-16042936D02*
X10363039Y-16023888D01*
X10363039Y-16023888D02*
X10353515Y-15985793D01*
X10353515Y-15985793D02*
X10353515Y-15938174D01*
X10353515Y-15938174D02*
X10363039Y-15900079D01*
X10363039Y-15900079D02*
X10372563Y-15881031D01*
X10372563Y-15881031D02*
X10382087Y-15871508D01*
X10382087Y-15871508D02*
X10401134Y-15861984D01*
X10553515Y-16042936D02*
X10563039Y-16052460D01*
X10563039Y-16052460D02*
X10553515Y-16061984D01*
X10553515Y-16061984D02*
X10543991Y-16052460D01*
X10543991Y-16052460D02*
X10553515Y-16042936D01*
X10553515Y-16042936D02*
X10553515Y-16061984D01*
X10686848Y-15861984D02*
X10705896Y-15861984D01*
X10705896Y-15861984D02*
X10724944Y-15871508D01*
X10724944Y-15871508D02*
X10734468Y-15881031D01*
X10734468Y-15881031D02*
X10743991Y-15900079D01*
X10743991Y-15900079D02*
X10753515Y-15938174D01*
X10753515Y-15938174D02*
X10753515Y-15985793D01*
X10753515Y-15985793D02*
X10743991Y-16023888D01*
X10743991Y-16023888D02*
X10734468Y-16042936D01*
X10734468Y-16042936D02*
X10724944Y-16052460D01*
X10724944Y-16052460D02*
X10705896Y-16061984D01*
X10705896Y-16061984D02*
X10686848Y-16061984D01*
X10686848Y-16061984D02*
X10667801Y-16052460D01*
X10667801Y-16052460D02*
X10658277Y-16042936D01*
X10658277Y-16042936D02*
X10648753Y-16023888D01*
X10648753Y-16023888D02*
X10639229Y-15985793D01*
X10639229Y-15985793D02*
X10639229Y-15938174D01*
X10639229Y-15938174D02*
X10648753Y-15900079D01*
X10648753Y-15900079D02*
X10658277Y-15881031D01*
X10658277Y-15881031D02*
X10667801Y-15871508D01*
X10667801Y-15871508D02*
X10686848Y-15861984D01*
X10829706Y-15881031D02*
X10839229Y-15871508D01*
X10839229Y-15871508D02*
X10858277Y-15861984D01*
X10858277Y-15861984D02*
X10905896Y-15861984D01*
X10905896Y-15861984D02*
X10924944Y-15871508D01*
X10924944Y-15871508D02*
X10934468Y-15881031D01*
X10934468Y-15881031D02*
X10943991Y-15900079D01*
X10943991Y-15900079D02*
X10943991Y-15919127D01*
X10943991Y-15919127D02*
X10934468Y-15947698D01*
X10934468Y-15947698D02*
X10820182Y-16061984D01*
X10820182Y-16061984D02*
X10943991Y-16061984D01*
X11010658Y-15861984D02*
X11134468Y-15861984D01*
X11134468Y-15861984D02*
X11067801Y-15938174D01*
X11067801Y-15938174D02*
X11096372Y-15938174D01*
X11096372Y-15938174D02*
X11115420Y-15947698D01*
X11115420Y-15947698D02*
X11124944Y-15957222D01*
X11124944Y-15957222D02*
X11134468Y-15976269D01*
X11134468Y-15976269D02*
X11134468Y-16023888D01*
X11134468Y-16023888D02*
X11124944Y-16042936D01*
X11124944Y-16042936D02*
X11115420Y-16052460D01*
X11115420Y-16052460D02*
X11096372Y-16061984D01*
X11096372Y-16061984D02*
X11039229Y-16061984D01*
X11039229Y-16061984D02*
X11020182Y-16052460D01*
X11020182Y-16052460D02*
X11010658Y-16042936D01*
X11305896Y-15861984D02*
X11267801Y-15861984D01*
X11267801Y-15861984D02*
X11248753Y-15871508D01*
X11248753Y-15871508D02*
X11239229Y-15881031D01*
X11239229Y-15881031D02*
X11220182Y-15909603D01*
X11220182Y-15909603D02*
X11210658Y-15947698D01*
X11210658Y-15947698D02*
X11210658Y-16023888D01*
X11210658Y-16023888D02*
X11220182Y-16042936D01*
X11220182Y-16042936D02*
X11229706Y-16052460D01*
X11229706Y-16052460D02*
X11248753Y-16061984D01*
X11248753Y-16061984D02*
X11286848Y-16061984D01*
X11286848Y-16061984D02*
X11305896Y-16052460D01*
X11305896Y-16052460D02*
X11315420Y-16042936D01*
X11315420Y-16042936D02*
X11324944Y-16023888D01*
X11324944Y-16023888D02*
X11324944Y-15976269D01*
X11324944Y-15976269D02*
X11315420Y-15957222D01*
X11315420Y-15957222D02*
X11305896Y-15947698D01*
X11305896Y-15947698D02*
X11286848Y-15938174D01*
X11286848Y-15938174D02*
X11248753Y-15938174D01*
X11248753Y-15938174D02*
X11229706Y-15947698D01*
X11229706Y-15947698D02*
X11220182Y-15957222D01*
X11220182Y-15957222D02*
X11210658Y-15976269D01*
X11401134Y-15861984D02*
X11401134Y-15900079D01*
X11477325Y-15861984D02*
X11477325Y-15900079D01*
X11772563Y-16138174D02*
X11763039Y-16128650D01*
X11763039Y-16128650D02*
X11743991Y-16100079D01*
X11743991Y-16100079D02*
X11734468Y-16081031D01*
X11734468Y-16081031D02*
X11724944Y-16052460D01*
X11724944Y-16052460D02*
X11715420Y-16004841D01*
X11715420Y-16004841D02*
X11715420Y-15966746D01*
X11715420Y-15966746D02*
X11724944Y-15919127D01*
X11724944Y-15919127D02*
X11734468Y-15890555D01*
X11734468Y-15890555D02*
X11743991Y-15871508D01*
X11743991Y-15871508D02*
X11763039Y-15842936D01*
X11763039Y-15842936D02*
X11772563Y-15833412D01*
X11829706Y-15861984D02*
X11953515Y-15861984D01*
X11953515Y-15861984D02*
X11886848Y-15938174D01*
X11886848Y-15938174D02*
X11915420Y-15938174D01*
X11915420Y-15938174D02*
X11934468Y-15947698D01*
X11934468Y-15947698D02*
X11943991Y-15957222D01*
X11943991Y-15957222D02*
X11953515Y-15976269D01*
X11953515Y-15976269D02*
X11953515Y-16023888D01*
X11953515Y-16023888D02*
X11943991Y-16042936D01*
X11943991Y-16042936D02*
X11934468Y-16052460D01*
X11934468Y-16052460D02*
X11915420Y-16061984D01*
X11915420Y-16061984D02*
X11858277Y-16061984D01*
X11858277Y-16061984D02*
X11839229Y-16052460D01*
X11839229Y-16052460D02*
X11829706Y-16042936D01*
X12067801Y-15947698D02*
X12048753Y-15938174D01*
X12048753Y-15938174D02*
X12039229Y-15928650D01*
X12039229Y-15928650D02*
X12029706Y-15909603D01*
X12029706Y-15909603D02*
X12029706Y-15900079D01*
X12029706Y-15900079D02*
X12039229Y-15881031D01*
X12039229Y-15881031D02*
X12048753Y-15871508D01*
X12048753Y-15871508D02*
X12067801Y-15861984D01*
X12067801Y-15861984D02*
X12105896Y-15861984D01*
X12105896Y-15861984D02*
X12124944Y-15871508D01*
X12124944Y-15871508D02*
X12134468Y-15881031D01*
X12134468Y-15881031D02*
X12143991Y-15900079D01*
X12143991Y-15900079D02*
X12143991Y-15909603D01*
X12143991Y-15909603D02*
X12134468Y-15928650D01*
X12134468Y-15928650D02*
X12124944Y-15938174D01*
X12124944Y-15938174D02*
X12105896Y-15947698D01*
X12105896Y-15947698D02*
X12067801Y-15947698D01*
X12067801Y-15947698D02*
X12048753Y-15957222D01*
X12048753Y-15957222D02*
X12039229Y-15966746D01*
X12039229Y-15966746D02*
X12029706Y-15985793D01*
X12029706Y-15985793D02*
X12029706Y-16023888D01*
X12029706Y-16023888D02*
X12039229Y-16042936D01*
X12039229Y-16042936D02*
X12048753Y-16052460D01*
X12048753Y-16052460D02*
X12067801Y-16061984D01*
X12067801Y-16061984D02*
X12105896Y-16061984D01*
X12105896Y-16061984D02*
X12124944Y-16052460D01*
X12124944Y-16052460D02*
X12134468Y-16042936D01*
X12134468Y-16042936D02*
X12143991Y-16023888D01*
X12143991Y-16023888D02*
X12143991Y-15985793D01*
X12143991Y-15985793D02*
X12134468Y-15966746D01*
X12134468Y-15966746D02*
X12124944Y-15957222D01*
X12124944Y-15957222D02*
X12105896Y-15947698D01*
X12210658Y-15861984D02*
X12343991Y-15861984D01*
X12343991Y-15861984D02*
X12258277Y-16061984D01*
X12572563Y-16061984D02*
X12572563Y-15861984D01*
X12658277Y-16061984D02*
X12658277Y-15957222D01*
X12658277Y-15957222D02*
X12648753Y-15938174D01*
X12648753Y-15938174D02*
X12629706Y-15928650D01*
X12629706Y-15928650D02*
X12601134Y-15928650D01*
X12601134Y-15928650D02*
X12582087Y-15938174D01*
X12582087Y-15938174D02*
X12572563Y-15947698D01*
X12782087Y-16061984D02*
X12763039Y-16052460D01*
X12763039Y-16052460D02*
X12753515Y-16042936D01*
X12753515Y-16042936D02*
X12743991Y-16023888D01*
X12743991Y-16023888D02*
X12743991Y-15966746D01*
X12743991Y-15966746D02*
X12753515Y-15947698D01*
X12753515Y-15947698D02*
X12763039Y-15938174D01*
X12763039Y-15938174D02*
X12782087Y-15928650D01*
X12782087Y-15928650D02*
X12810658Y-15928650D01*
X12810658Y-15928650D02*
X12829706Y-15938174D01*
X12829706Y-15938174D02*
X12839230Y-15947698D01*
X12839230Y-15947698D02*
X12848753Y-15966746D01*
X12848753Y-15966746D02*
X12848753Y-16023888D01*
X12848753Y-16023888D02*
X12839230Y-16042936D01*
X12839230Y-16042936D02*
X12829706Y-16052460D01*
X12829706Y-16052460D02*
X12810658Y-16061984D01*
X12810658Y-16061984D02*
X12782087Y-16061984D01*
X12963039Y-16061984D02*
X12943991Y-16052460D01*
X12943991Y-16052460D02*
X12934468Y-16033412D01*
X12934468Y-16033412D02*
X12934468Y-15861984D01*
X13115420Y-16052460D02*
X13096372Y-16061984D01*
X13096372Y-16061984D02*
X13058277Y-16061984D01*
X13058277Y-16061984D02*
X13039230Y-16052460D01*
X13039230Y-16052460D02*
X13029706Y-16033412D01*
X13029706Y-16033412D02*
X13029706Y-15957222D01*
X13029706Y-15957222D02*
X13039230Y-15938174D01*
X13039230Y-15938174D02*
X13058277Y-15928650D01*
X13058277Y-15928650D02*
X13096372Y-15928650D01*
X13096372Y-15928650D02*
X13115420Y-15938174D01*
X13115420Y-15938174D02*
X13124944Y-15957222D01*
X13124944Y-15957222D02*
X13124944Y-15976269D01*
X13124944Y-15976269D02*
X13029706Y-15995317D01*
X13201134Y-16052460D02*
X13220182Y-16061984D01*
X13220182Y-16061984D02*
X13258277Y-16061984D01*
X13258277Y-16061984D02*
X13277325Y-16052460D01*
X13277325Y-16052460D02*
X13286849Y-16033412D01*
X13286849Y-16033412D02*
X13286849Y-16023888D01*
X13286849Y-16023888D02*
X13277325Y-16004841D01*
X13277325Y-16004841D02*
X13258277Y-15995317D01*
X13258277Y-15995317D02*
X13229706Y-15995317D01*
X13229706Y-15995317D02*
X13210658Y-15985793D01*
X13210658Y-15985793D02*
X13201134Y-15966746D01*
X13201134Y-15966746D02*
X13201134Y-15957222D01*
X13201134Y-15957222D02*
X13210658Y-15938174D01*
X13210658Y-15938174D02*
X13229706Y-15928650D01*
X13229706Y-15928650D02*
X13258277Y-15928650D01*
X13258277Y-15928650D02*
X13277325Y-15938174D01*
X13353515Y-16138174D02*
X13363039Y-16128650D01*
X13363039Y-16128650D02*
X13382087Y-16100079D01*
X13382087Y-16100079D02*
X13391611Y-16081031D01*
X13391611Y-16081031D02*
X13401134Y-16052460D01*
X13401134Y-16052460D02*
X13410658Y-16004841D01*
X13410658Y-16004841D02*
X13410658Y-15966746D01*
X13410658Y-15966746D02*
X13401134Y-15919127D01*
X13401134Y-15919127D02*
X13391611Y-15890555D01*
X13391611Y-15890555D02*
X13382087Y-15871508D01*
X13382087Y-15871508D02*
X13363039Y-15842936D01*
X13363039Y-15842936D02*
X13353515Y-15833412D01*
D12*
X8188713Y-16255713D02*
X8188713Y-16213287D01*
X8146287Y-16213287D01*
X8146287Y-16255713D01*
X8188713Y-16255713D01*
D11*
X8496372Y-16125984D02*
X8515420Y-16125984D01*
X8515420Y-16125984D02*
X8534467Y-16135508D01*
X8534467Y-16135508D02*
X8543991Y-16145031D01*
X8543991Y-16145031D02*
X8553515Y-16164079D01*
X8553515Y-16164079D02*
X8563039Y-16202174D01*
X8563039Y-16202174D02*
X8563039Y-16249793D01*
X8563039Y-16249793D02*
X8553515Y-16287888D01*
X8553515Y-16287888D02*
X8543991Y-16306936D01*
X8543991Y-16306936D02*
X8534467Y-16316460D01*
X8534467Y-16316460D02*
X8515420Y-16325984D01*
X8515420Y-16325984D02*
X8496372Y-16325984D01*
X8496372Y-16325984D02*
X8477324Y-16316460D01*
X8477324Y-16316460D02*
X8467801Y-16306936D01*
X8467801Y-16306936D02*
X8458277Y-16287888D01*
X8458277Y-16287888D02*
X8448753Y-16249793D01*
X8448753Y-16249793D02*
X8448753Y-16202174D01*
X8448753Y-16202174D02*
X8458277Y-16164079D01*
X8458277Y-16164079D02*
X8467801Y-16145031D01*
X8467801Y-16145031D02*
X8477324Y-16135508D01*
X8477324Y-16135508D02*
X8496372Y-16125984D01*
X8648753Y-16306936D02*
X8658277Y-16316460D01*
X8658277Y-16316460D02*
X8648753Y-16325984D01*
X8648753Y-16325984D02*
X8639229Y-16316460D01*
X8639229Y-16316460D02*
X8648753Y-16306936D01*
X8648753Y-16306936D02*
X8648753Y-16325984D01*
X8829705Y-16125984D02*
X8791610Y-16125984D01*
X8791610Y-16125984D02*
X8772563Y-16135508D01*
X8772563Y-16135508D02*
X8763039Y-16145031D01*
X8763039Y-16145031D02*
X8743991Y-16173603D01*
X8743991Y-16173603D02*
X8734467Y-16211698D01*
X8734467Y-16211698D02*
X8734467Y-16287888D01*
X8734467Y-16287888D02*
X8743991Y-16306936D01*
X8743991Y-16306936D02*
X8753515Y-16316460D01*
X8753515Y-16316460D02*
X8772563Y-16325984D01*
X8772563Y-16325984D02*
X8810658Y-16325984D01*
X8810658Y-16325984D02*
X8829705Y-16316460D01*
X8829705Y-16316460D02*
X8839229Y-16306936D01*
X8839229Y-16306936D02*
X8848753Y-16287888D01*
X8848753Y-16287888D02*
X8848753Y-16240269D01*
X8848753Y-16240269D02*
X8839229Y-16221222D01*
X8839229Y-16221222D02*
X8829705Y-16211698D01*
X8829705Y-16211698D02*
X8810658Y-16202174D01*
X8810658Y-16202174D02*
X8772563Y-16202174D01*
X8772563Y-16202174D02*
X8753515Y-16211698D01*
X8753515Y-16211698D02*
X8743991Y-16221222D01*
X8743991Y-16221222D02*
X8734467Y-16240269D01*
X8972563Y-16125984D02*
X8991610Y-16125984D01*
X8991610Y-16125984D02*
X9010658Y-16135508D01*
X9010658Y-16135508D02*
X9020182Y-16145031D01*
X9020182Y-16145031D02*
X9029705Y-16164079D01*
X9029705Y-16164079D02*
X9039229Y-16202174D01*
X9039229Y-16202174D02*
X9039229Y-16249793D01*
X9039229Y-16249793D02*
X9029705Y-16287888D01*
X9029705Y-16287888D02*
X9020182Y-16306936D01*
X9020182Y-16306936D02*
X9010658Y-16316460D01*
X9010658Y-16316460D02*
X8991610Y-16325984D01*
X8991610Y-16325984D02*
X8972563Y-16325984D01*
X8972563Y-16325984D02*
X8953515Y-16316460D01*
X8953515Y-16316460D02*
X8943991Y-16306936D01*
X8943991Y-16306936D02*
X8934467Y-16287888D01*
X8934467Y-16287888D02*
X8924944Y-16249793D01*
X8924944Y-16249793D02*
X8924944Y-16202174D01*
X8924944Y-16202174D02*
X8934467Y-16164079D01*
X8934467Y-16164079D02*
X8943991Y-16145031D01*
X8943991Y-16145031D02*
X8953515Y-16135508D01*
X8953515Y-16135508D02*
X8972563Y-16125984D01*
X9163039Y-16125984D02*
X9182086Y-16125984D01*
X9182086Y-16125984D02*
X9201134Y-16135508D01*
X9201134Y-16135508D02*
X9210658Y-16145031D01*
X9210658Y-16145031D02*
X9220182Y-16164079D01*
X9220182Y-16164079D02*
X9229705Y-16202174D01*
X9229705Y-16202174D02*
X9229705Y-16249793D01*
X9229705Y-16249793D02*
X9220182Y-16287888D01*
X9220182Y-16287888D02*
X9210658Y-16306936D01*
X9210658Y-16306936D02*
X9201134Y-16316460D01*
X9201134Y-16316460D02*
X9182086Y-16325984D01*
X9182086Y-16325984D02*
X9163039Y-16325984D01*
X9163039Y-16325984D02*
X9143991Y-16316460D01*
X9143991Y-16316460D02*
X9134467Y-16306936D01*
X9134467Y-16306936D02*
X9124944Y-16287888D01*
X9124944Y-16287888D02*
X9115420Y-16249793D01*
X9115420Y-16249793D02*
X9115420Y-16202174D01*
X9115420Y-16202174D02*
X9124944Y-16164079D01*
X9124944Y-16164079D02*
X9134467Y-16145031D01*
X9134467Y-16145031D02*
X9143991Y-16135508D01*
X9143991Y-16135508D02*
X9163039Y-16125984D01*
X9315420Y-16325984D02*
X9315420Y-16192650D01*
X9315420Y-16211698D02*
X9324944Y-16202174D01*
X9324944Y-16202174D02*
X9343991Y-16192650D01*
X9343991Y-16192650D02*
X9372563Y-16192650D01*
X9372563Y-16192650D02*
X9391610Y-16202174D01*
X9391610Y-16202174D02*
X9401134Y-16221222D01*
X9401134Y-16221222D02*
X9401134Y-16325984D01*
X9401134Y-16221222D02*
X9410658Y-16202174D01*
X9410658Y-16202174D02*
X9429705Y-16192650D01*
X9429705Y-16192650D02*
X9458277Y-16192650D01*
X9458277Y-16192650D02*
X9477325Y-16202174D01*
X9477325Y-16202174D02*
X9486848Y-16221222D01*
X9486848Y-16221222D02*
X9486848Y-16325984D01*
X9582086Y-16325984D02*
X9582086Y-16192650D01*
X9582086Y-16211698D02*
X9591610Y-16202174D01*
X9591610Y-16202174D02*
X9610658Y-16192650D01*
X9610658Y-16192650D02*
X9639229Y-16192650D01*
X9639229Y-16192650D02*
X9658277Y-16202174D01*
X9658277Y-16202174D02*
X9667801Y-16221222D01*
X9667801Y-16221222D02*
X9667801Y-16325984D01*
X9667801Y-16221222D02*
X9677325Y-16202174D01*
X9677325Y-16202174D02*
X9696372Y-16192650D01*
X9696372Y-16192650D02*
X9724944Y-16192650D01*
X9724944Y-16192650D02*
X9743991Y-16202174D01*
X9743991Y-16202174D02*
X9753515Y-16221222D01*
X9753515Y-16221222D02*
X9753515Y-16325984D01*
X10143991Y-16116460D02*
X9972563Y-16373603D01*
X10401134Y-16125984D02*
X10420182Y-16125984D01*
X10420182Y-16125984D02*
X10439229Y-16135508D01*
X10439229Y-16135508D02*
X10448753Y-16145031D01*
X10448753Y-16145031D02*
X10458277Y-16164079D01*
X10458277Y-16164079D02*
X10467801Y-16202174D01*
X10467801Y-16202174D02*
X10467801Y-16249793D01*
X10467801Y-16249793D02*
X10458277Y-16287888D01*
X10458277Y-16287888D02*
X10448753Y-16306936D01*
X10448753Y-16306936D02*
X10439229Y-16316460D01*
X10439229Y-16316460D02*
X10420182Y-16325984D01*
X10420182Y-16325984D02*
X10401134Y-16325984D01*
X10401134Y-16325984D02*
X10382087Y-16316460D01*
X10382087Y-16316460D02*
X10372563Y-16306936D01*
X10372563Y-16306936D02*
X10363039Y-16287888D01*
X10363039Y-16287888D02*
X10353515Y-16249793D01*
X10353515Y-16249793D02*
X10353515Y-16202174D01*
X10353515Y-16202174D02*
X10363039Y-16164079D01*
X10363039Y-16164079D02*
X10372563Y-16145031D01*
X10372563Y-16145031D02*
X10382087Y-16135508D01*
X10382087Y-16135508D02*
X10401134Y-16125984D01*
X10553515Y-16306936D02*
X10563039Y-16316460D01*
X10563039Y-16316460D02*
X10553515Y-16325984D01*
X10553515Y-16325984D02*
X10543991Y-16316460D01*
X10543991Y-16316460D02*
X10553515Y-16306936D01*
X10553515Y-16306936D02*
X10553515Y-16325984D01*
X10686848Y-16125984D02*
X10705896Y-16125984D01*
X10705896Y-16125984D02*
X10724944Y-16135508D01*
X10724944Y-16135508D02*
X10734468Y-16145031D01*
X10734468Y-16145031D02*
X10743991Y-16164079D01*
X10743991Y-16164079D02*
X10753515Y-16202174D01*
X10753515Y-16202174D02*
X10753515Y-16249793D01*
X10753515Y-16249793D02*
X10743991Y-16287888D01*
X10743991Y-16287888D02*
X10734468Y-16306936D01*
X10734468Y-16306936D02*
X10724944Y-16316460D01*
X10724944Y-16316460D02*
X10705896Y-16325984D01*
X10705896Y-16325984D02*
X10686848Y-16325984D01*
X10686848Y-16325984D02*
X10667801Y-16316460D01*
X10667801Y-16316460D02*
X10658277Y-16306936D01*
X10658277Y-16306936D02*
X10648753Y-16287888D01*
X10648753Y-16287888D02*
X10639229Y-16249793D01*
X10639229Y-16249793D02*
X10639229Y-16202174D01*
X10639229Y-16202174D02*
X10648753Y-16164079D01*
X10648753Y-16164079D02*
X10658277Y-16145031D01*
X10658277Y-16145031D02*
X10667801Y-16135508D01*
X10667801Y-16135508D02*
X10686848Y-16125984D01*
X10829706Y-16145031D02*
X10839229Y-16135508D01*
X10839229Y-16135508D02*
X10858277Y-16125984D01*
X10858277Y-16125984D02*
X10905896Y-16125984D01*
X10905896Y-16125984D02*
X10924944Y-16135508D01*
X10924944Y-16135508D02*
X10934468Y-16145031D01*
X10934468Y-16145031D02*
X10943991Y-16164079D01*
X10943991Y-16164079D02*
X10943991Y-16183127D01*
X10943991Y-16183127D02*
X10934468Y-16211698D01*
X10934468Y-16211698D02*
X10820182Y-16325984D01*
X10820182Y-16325984D02*
X10943991Y-16325984D01*
X11010658Y-16125984D02*
X11134468Y-16125984D01*
X11134468Y-16125984D02*
X11067801Y-16202174D01*
X11067801Y-16202174D02*
X11096372Y-16202174D01*
X11096372Y-16202174D02*
X11115420Y-16211698D01*
X11115420Y-16211698D02*
X11124944Y-16221222D01*
X11124944Y-16221222D02*
X11134468Y-16240269D01*
X11134468Y-16240269D02*
X11134468Y-16287888D01*
X11134468Y-16287888D02*
X11124944Y-16306936D01*
X11124944Y-16306936D02*
X11115420Y-16316460D01*
X11115420Y-16316460D02*
X11096372Y-16325984D01*
X11096372Y-16325984D02*
X11039229Y-16325984D01*
X11039229Y-16325984D02*
X11020182Y-16316460D01*
X11020182Y-16316460D02*
X11010658Y-16306936D01*
X11305896Y-16125984D02*
X11267801Y-16125984D01*
X11267801Y-16125984D02*
X11248753Y-16135508D01*
X11248753Y-16135508D02*
X11239229Y-16145031D01*
X11239229Y-16145031D02*
X11220182Y-16173603D01*
X11220182Y-16173603D02*
X11210658Y-16211698D01*
X11210658Y-16211698D02*
X11210658Y-16287888D01*
X11210658Y-16287888D02*
X11220182Y-16306936D01*
X11220182Y-16306936D02*
X11229706Y-16316460D01*
X11229706Y-16316460D02*
X11248753Y-16325984D01*
X11248753Y-16325984D02*
X11286848Y-16325984D01*
X11286848Y-16325984D02*
X11305896Y-16316460D01*
X11305896Y-16316460D02*
X11315420Y-16306936D01*
X11315420Y-16306936D02*
X11324944Y-16287888D01*
X11324944Y-16287888D02*
X11324944Y-16240269D01*
X11324944Y-16240269D02*
X11315420Y-16221222D01*
X11315420Y-16221222D02*
X11305896Y-16211698D01*
X11305896Y-16211698D02*
X11286848Y-16202174D01*
X11286848Y-16202174D02*
X11248753Y-16202174D01*
X11248753Y-16202174D02*
X11229706Y-16211698D01*
X11229706Y-16211698D02*
X11220182Y-16221222D01*
X11220182Y-16221222D02*
X11210658Y-16240269D01*
X11401134Y-16125984D02*
X11401134Y-16164079D01*
X11477325Y-16125984D02*
X11477325Y-16164079D01*
X11772563Y-16402174D02*
X11763039Y-16392650D01*
X11763039Y-16392650D02*
X11743991Y-16364079D01*
X11743991Y-16364079D02*
X11734468Y-16345031D01*
X11734468Y-16345031D02*
X11724944Y-16316460D01*
X11724944Y-16316460D02*
X11715420Y-16268841D01*
X11715420Y-16268841D02*
X11715420Y-16230746D01*
X11715420Y-16230746D02*
X11724944Y-16183127D01*
X11724944Y-16183127D02*
X11734468Y-16154555D01*
X11734468Y-16154555D02*
X11743991Y-16135508D01*
X11743991Y-16135508D02*
X11763039Y-16106936D01*
X11763039Y-16106936D02*
X11772563Y-16097412D01*
X11886848Y-16125984D02*
X11905896Y-16125984D01*
X11905896Y-16125984D02*
X11924944Y-16135508D01*
X11924944Y-16135508D02*
X11934468Y-16145031D01*
X11934468Y-16145031D02*
X11943991Y-16164079D01*
X11943991Y-16164079D02*
X11953515Y-16202174D01*
X11953515Y-16202174D02*
X11953515Y-16249793D01*
X11953515Y-16249793D02*
X11943991Y-16287888D01*
X11943991Y-16287888D02*
X11934468Y-16306936D01*
X11934468Y-16306936D02*
X11924944Y-16316460D01*
X11924944Y-16316460D02*
X11905896Y-16325984D01*
X11905896Y-16325984D02*
X11886848Y-16325984D01*
X11886848Y-16325984D02*
X11867801Y-16316460D01*
X11867801Y-16316460D02*
X11858277Y-16306936D01*
X11858277Y-16306936D02*
X11848753Y-16287888D01*
X11848753Y-16287888D02*
X11839229Y-16249793D01*
X11839229Y-16249793D02*
X11839229Y-16202174D01*
X11839229Y-16202174D02*
X11848753Y-16164079D01*
X11848753Y-16164079D02*
X11858277Y-16145031D01*
X11858277Y-16145031D02*
X11867801Y-16135508D01*
X11867801Y-16135508D02*
X11886848Y-16125984D01*
X12191610Y-16325984D02*
X12191610Y-16125984D01*
X12277325Y-16325984D02*
X12277325Y-16221222D01*
X12277325Y-16221222D02*
X12267801Y-16202174D01*
X12267801Y-16202174D02*
X12248753Y-16192650D01*
X12248753Y-16192650D02*
X12220182Y-16192650D01*
X12220182Y-16192650D02*
X12201134Y-16202174D01*
X12201134Y-16202174D02*
X12191610Y-16211698D01*
X12401134Y-16325984D02*
X12382087Y-16316460D01*
X12382087Y-16316460D02*
X12372563Y-16306936D01*
X12372563Y-16306936D02*
X12363039Y-16287888D01*
X12363039Y-16287888D02*
X12363039Y-16230746D01*
X12363039Y-16230746D02*
X12372563Y-16211698D01*
X12372563Y-16211698D02*
X12382087Y-16202174D01*
X12382087Y-16202174D02*
X12401134Y-16192650D01*
X12401134Y-16192650D02*
X12429706Y-16192650D01*
X12429706Y-16192650D02*
X12448753Y-16202174D01*
X12448753Y-16202174D02*
X12458277Y-16211698D01*
X12458277Y-16211698D02*
X12467801Y-16230746D01*
X12467801Y-16230746D02*
X12467801Y-16287888D01*
X12467801Y-16287888D02*
X12458277Y-16306936D01*
X12458277Y-16306936D02*
X12448753Y-16316460D01*
X12448753Y-16316460D02*
X12429706Y-16325984D01*
X12429706Y-16325984D02*
X12401134Y-16325984D01*
X12582087Y-16325984D02*
X12563039Y-16316460D01*
X12563039Y-16316460D02*
X12553515Y-16297412D01*
X12553515Y-16297412D02*
X12553515Y-16125984D01*
X12734468Y-16316460D02*
X12715420Y-16325984D01*
X12715420Y-16325984D02*
X12677325Y-16325984D01*
X12677325Y-16325984D02*
X12658277Y-16316460D01*
X12658277Y-16316460D02*
X12648753Y-16297412D01*
X12648753Y-16297412D02*
X12648753Y-16221222D01*
X12648753Y-16221222D02*
X12658277Y-16202174D01*
X12658277Y-16202174D02*
X12677325Y-16192650D01*
X12677325Y-16192650D02*
X12715420Y-16192650D01*
X12715420Y-16192650D02*
X12734468Y-16202174D01*
X12734468Y-16202174D02*
X12743991Y-16221222D01*
X12743991Y-16221222D02*
X12743991Y-16240269D01*
X12743991Y-16240269D02*
X12648753Y-16259317D01*
X12820182Y-16316460D02*
X12839230Y-16325984D01*
X12839230Y-16325984D02*
X12877325Y-16325984D01*
X12877325Y-16325984D02*
X12896372Y-16316460D01*
X12896372Y-16316460D02*
X12905896Y-16297412D01*
X12905896Y-16297412D02*
X12905896Y-16287888D01*
X12905896Y-16287888D02*
X12896372Y-16268841D01*
X12896372Y-16268841D02*
X12877325Y-16259317D01*
X12877325Y-16259317D02*
X12848753Y-16259317D01*
X12848753Y-16259317D02*
X12829706Y-16249793D01*
X12829706Y-16249793D02*
X12820182Y-16230746D01*
X12820182Y-16230746D02*
X12820182Y-16221222D01*
X12820182Y-16221222D02*
X12829706Y-16202174D01*
X12829706Y-16202174D02*
X12848753Y-16192650D01*
X12848753Y-16192650D02*
X12877325Y-16192650D01*
X12877325Y-16192650D02*
X12896372Y-16202174D01*
X13143992Y-16249793D02*
X13296373Y-16249793D01*
X13220182Y-16325984D02*
X13220182Y-16173603D01*
X13629706Y-16192650D02*
X13629706Y-16325984D01*
X13582087Y-16116460D02*
X13534468Y-16259317D01*
X13534468Y-16259317D02*
X13658277Y-16259317D01*
X13877325Y-16316460D02*
X13896373Y-16325984D01*
X13896373Y-16325984D02*
X13934468Y-16325984D01*
X13934468Y-16325984D02*
X13953515Y-16316460D01*
X13953515Y-16316460D02*
X13963039Y-16297412D01*
X13963039Y-16297412D02*
X13963039Y-16287888D01*
X13963039Y-16287888D02*
X13953515Y-16268841D01*
X13953515Y-16268841D02*
X13934468Y-16259317D01*
X13934468Y-16259317D02*
X13905896Y-16259317D01*
X13905896Y-16259317D02*
X13886849Y-16249793D01*
X13886849Y-16249793D02*
X13877325Y-16230746D01*
X13877325Y-16230746D02*
X13877325Y-16221222D01*
X13877325Y-16221222D02*
X13886849Y-16202174D01*
X13886849Y-16202174D02*
X13905896Y-16192650D01*
X13905896Y-16192650D02*
X13934468Y-16192650D01*
X13934468Y-16192650D02*
X13953515Y-16202174D01*
X14077325Y-16325984D02*
X14058277Y-16316460D01*
X14058277Y-16316460D02*
X14048754Y-16297412D01*
X14048754Y-16297412D02*
X14048754Y-16125984D01*
X14182087Y-16325984D02*
X14163039Y-16316460D01*
X14163039Y-16316460D02*
X14153515Y-16306936D01*
X14153515Y-16306936D02*
X14143992Y-16287888D01*
X14143992Y-16287888D02*
X14143992Y-16230746D01*
X14143992Y-16230746D02*
X14153515Y-16211698D01*
X14153515Y-16211698D02*
X14163039Y-16202174D01*
X14163039Y-16202174D02*
X14182087Y-16192650D01*
X14182087Y-16192650D02*
X14210658Y-16192650D01*
X14210658Y-16192650D02*
X14229706Y-16202174D01*
X14229706Y-16202174D02*
X14239230Y-16211698D01*
X14239230Y-16211698D02*
X14248754Y-16230746D01*
X14248754Y-16230746D02*
X14248754Y-16287888D01*
X14248754Y-16287888D02*
X14239230Y-16306936D01*
X14239230Y-16306936D02*
X14229706Y-16316460D01*
X14229706Y-16316460D02*
X14210658Y-16325984D01*
X14210658Y-16325984D02*
X14182087Y-16325984D01*
X14305896Y-16192650D02*
X14382087Y-16192650D01*
X14334468Y-16125984D02*
X14334468Y-16297412D01*
X14334468Y-16297412D02*
X14343992Y-16316460D01*
X14343992Y-16316460D02*
X14363039Y-16325984D01*
X14363039Y-16325984D02*
X14382087Y-16325984D01*
X14439230Y-16316460D02*
X14458277Y-16325984D01*
X14458277Y-16325984D02*
X14496373Y-16325984D01*
X14496373Y-16325984D02*
X14515420Y-16316460D01*
X14515420Y-16316460D02*
X14524944Y-16297412D01*
X14524944Y-16297412D02*
X14524944Y-16287888D01*
X14524944Y-16287888D02*
X14515420Y-16268841D01*
X14515420Y-16268841D02*
X14496373Y-16259317D01*
X14496373Y-16259317D02*
X14467801Y-16259317D01*
X14467801Y-16259317D02*
X14448754Y-16249793D01*
X14448754Y-16249793D02*
X14439230Y-16230746D01*
X14439230Y-16230746D02*
X14439230Y-16221222D01*
X14439230Y-16221222D02*
X14448754Y-16202174D01*
X14448754Y-16202174D02*
X14467801Y-16192650D01*
X14467801Y-16192650D02*
X14496373Y-16192650D01*
X14496373Y-16192650D02*
X14515420Y-16202174D01*
X14591611Y-16402174D02*
X14601135Y-16392650D01*
X14601135Y-16392650D02*
X14620182Y-16364079D01*
X14620182Y-16364079D02*
X14629706Y-16345031D01*
X14629706Y-16345031D02*
X14639230Y-16316460D01*
X14639230Y-16316460D02*
X14648754Y-16268841D01*
X14648754Y-16268841D02*
X14648754Y-16230746D01*
X14648754Y-16230746D02*
X14639230Y-16183127D01*
X14639230Y-16183127D02*
X14629706Y-16154555D01*
X14629706Y-16154555D02*
X14620182Y-16135508D01*
X14620182Y-16135508D02*
X14601135Y-16106936D01*
X14601135Y-16106936D02*
X14591611Y-16097412D01*
D12*
X8147500Y-16548500D02*
X8197500Y-16498500D01*
X8147500Y-16448500D01*
X8097500Y-16498500D01*
X8147500Y-16548500D01*
D11*
X8563039Y-16589984D02*
X8448753Y-16589984D01*
X8505896Y-16589984D02*
X8505896Y-16389984D01*
X8505896Y-16389984D02*
X8486848Y-16418555D01*
X8486848Y-16418555D02*
X8467801Y-16437603D01*
X8467801Y-16437603D02*
X8448753Y-16447127D01*
X8648753Y-16570936D02*
X8658277Y-16580460D01*
X8658277Y-16580460D02*
X8648753Y-16589984D01*
X8648753Y-16589984D02*
X8639229Y-16580460D01*
X8639229Y-16580460D02*
X8648753Y-16570936D01*
X8648753Y-16570936D02*
X8648753Y-16589984D01*
X8782086Y-16389984D02*
X8801134Y-16389984D01*
X8801134Y-16389984D02*
X8820182Y-16399508D01*
X8820182Y-16399508D02*
X8829705Y-16409031D01*
X8829705Y-16409031D02*
X8839229Y-16428079D01*
X8839229Y-16428079D02*
X8848753Y-16466174D01*
X8848753Y-16466174D02*
X8848753Y-16513793D01*
X8848753Y-16513793D02*
X8839229Y-16551888D01*
X8839229Y-16551888D02*
X8829705Y-16570936D01*
X8829705Y-16570936D02*
X8820182Y-16580460D01*
X8820182Y-16580460D02*
X8801134Y-16589984D01*
X8801134Y-16589984D02*
X8782086Y-16589984D01*
X8782086Y-16589984D02*
X8763039Y-16580460D01*
X8763039Y-16580460D02*
X8753515Y-16570936D01*
X8753515Y-16570936D02*
X8743991Y-16551888D01*
X8743991Y-16551888D02*
X8734467Y-16513793D01*
X8734467Y-16513793D02*
X8734467Y-16466174D01*
X8734467Y-16466174D02*
X8743991Y-16428079D01*
X8743991Y-16428079D02*
X8753515Y-16409031D01*
X8753515Y-16409031D02*
X8763039Y-16399508D01*
X8763039Y-16399508D02*
X8782086Y-16389984D01*
X8972563Y-16389984D02*
X8991610Y-16389984D01*
X8991610Y-16389984D02*
X9010658Y-16399508D01*
X9010658Y-16399508D02*
X9020182Y-16409031D01*
X9020182Y-16409031D02*
X9029705Y-16428079D01*
X9029705Y-16428079D02*
X9039229Y-16466174D01*
X9039229Y-16466174D02*
X9039229Y-16513793D01*
X9039229Y-16513793D02*
X9029705Y-16551888D01*
X9029705Y-16551888D02*
X9020182Y-16570936D01*
X9020182Y-16570936D02*
X9010658Y-16580460D01*
X9010658Y-16580460D02*
X8991610Y-16589984D01*
X8991610Y-16589984D02*
X8972563Y-16589984D01*
X8972563Y-16589984D02*
X8953515Y-16580460D01*
X8953515Y-16580460D02*
X8943991Y-16570936D01*
X8943991Y-16570936D02*
X8934467Y-16551888D01*
X8934467Y-16551888D02*
X8924944Y-16513793D01*
X8924944Y-16513793D02*
X8924944Y-16466174D01*
X8924944Y-16466174D02*
X8934467Y-16428079D01*
X8934467Y-16428079D02*
X8943991Y-16409031D01*
X8943991Y-16409031D02*
X8953515Y-16399508D01*
X8953515Y-16399508D02*
X8972563Y-16389984D01*
X9163039Y-16389984D02*
X9182086Y-16389984D01*
X9182086Y-16389984D02*
X9201134Y-16399508D01*
X9201134Y-16399508D02*
X9210658Y-16409031D01*
X9210658Y-16409031D02*
X9220182Y-16428079D01*
X9220182Y-16428079D02*
X9229705Y-16466174D01*
X9229705Y-16466174D02*
X9229705Y-16513793D01*
X9229705Y-16513793D02*
X9220182Y-16551888D01*
X9220182Y-16551888D02*
X9210658Y-16570936D01*
X9210658Y-16570936D02*
X9201134Y-16580460D01*
X9201134Y-16580460D02*
X9182086Y-16589984D01*
X9182086Y-16589984D02*
X9163039Y-16589984D01*
X9163039Y-16589984D02*
X9143991Y-16580460D01*
X9143991Y-16580460D02*
X9134467Y-16570936D01*
X9134467Y-16570936D02*
X9124944Y-16551888D01*
X9124944Y-16551888D02*
X9115420Y-16513793D01*
X9115420Y-16513793D02*
X9115420Y-16466174D01*
X9115420Y-16466174D02*
X9124944Y-16428079D01*
X9124944Y-16428079D02*
X9134467Y-16409031D01*
X9134467Y-16409031D02*
X9143991Y-16399508D01*
X9143991Y-16399508D02*
X9163039Y-16389984D01*
X9315420Y-16589984D02*
X9315420Y-16456650D01*
X9315420Y-16475698D02*
X9324944Y-16466174D01*
X9324944Y-16466174D02*
X9343991Y-16456650D01*
X9343991Y-16456650D02*
X9372563Y-16456650D01*
X9372563Y-16456650D02*
X9391610Y-16466174D01*
X9391610Y-16466174D02*
X9401134Y-16485222D01*
X9401134Y-16485222D02*
X9401134Y-16589984D01*
X9401134Y-16485222D02*
X9410658Y-16466174D01*
X9410658Y-16466174D02*
X9429705Y-16456650D01*
X9429705Y-16456650D02*
X9458277Y-16456650D01*
X9458277Y-16456650D02*
X9477325Y-16466174D01*
X9477325Y-16466174D02*
X9486848Y-16485222D01*
X9486848Y-16485222D02*
X9486848Y-16589984D01*
X9582086Y-16589984D02*
X9582086Y-16456650D01*
X9582086Y-16475698D02*
X9591610Y-16466174D01*
X9591610Y-16466174D02*
X9610658Y-16456650D01*
X9610658Y-16456650D02*
X9639229Y-16456650D01*
X9639229Y-16456650D02*
X9658277Y-16466174D01*
X9658277Y-16466174D02*
X9667801Y-16485222D01*
X9667801Y-16485222D02*
X9667801Y-16589984D01*
X9667801Y-16485222D02*
X9677325Y-16466174D01*
X9677325Y-16466174D02*
X9696372Y-16456650D01*
X9696372Y-16456650D02*
X9724944Y-16456650D01*
X9724944Y-16456650D02*
X9743991Y-16466174D01*
X9743991Y-16466174D02*
X9753515Y-16485222D01*
X9753515Y-16485222D02*
X9753515Y-16589984D01*
X10143991Y-16380460D02*
X9972563Y-16637603D01*
X10401134Y-16389984D02*
X10420182Y-16389984D01*
X10420182Y-16389984D02*
X10439229Y-16399508D01*
X10439229Y-16399508D02*
X10448753Y-16409031D01*
X10448753Y-16409031D02*
X10458277Y-16428079D01*
X10458277Y-16428079D02*
X10467801Y-16466174D01*
X10467801Y-16466174D02*
X10467801Y-16513793D01*
X10467801Y-16513793D02*
X10458277Y-16551888D01*
X10458277Y-16551888D02*
X10448753Y-16570936D01*
X10448753Y-16570936D02*
X10439229Y-16580460D01*
X10439229Y-16580460D02*
X10420182Y-16589984D01*
X10420182Y-16589984D02*
X10401134Y-16589984D01*
X10401134Y-16589984D02*
X10382087Y-16580460D01*
X10382087Y-16580460D02*
X10372563Y-16570936D01*
X10372563Y-16570936D02*
X10363039Y-16551888D01*
X10363039Y-16551888D02*
X10353515Y-16513793D01*
X10353515Y-16513793D02*
X10353515Y-16466174D01*
X10353515Y-16466174D02*
X10363039Y-16428079D01*
X10363039Y-16428079D02*
X10372563Y-16409031D01*
X10372563Y-16409031D02*
X10382087Y-16399508D01*
X10382087Y-16399508D02*
X10401134Y-16389984D01*
X10553515Y-16570936D02*
X10563039Y-16580460D01*
X10563039Y-16580460D02*
X10553515Y-16589984D01*
X10553515Y-16589984D02*
X10543991Y-16580460D01*
X10543991Y-16580460D02*
X10553515Y-16570936D01*
X10553515Y-16570936D02*
X10553515Y-16589984D01*
X10686848Y-16389984D02*
X10705896Y-16389984D01*
X10705896Y-16389984D02*
X10724944Y-16399508D01*
X10724944Y-16399508D02*
X10734468Y-16409031D01*
X10734468Y-16409031D02*
X10743991Y-16428079D01*
X10743991Y-16428079D02*
X10753515Y-16466174D01*
X10753515Y-16466174D02*
X10753515Y-16513793D01*
X10753515Y-16513793D02*
X10743991Y-16551888D01*
X10743991Y-16551888D02*
X10734468Y-16570936D01*
X10734468Y-16570936D02*
X10724944Y-16580460D01*
X10724944Y-16580460D02*
X10705896Y-16589984D01*
X10705896Y-16589984D02*
X10686848Y-16589984D01*
X10686848Y-16589984D02*
X10667801Y-16580460D01*
X10667801Y-16580460D02*
X10658277Y-16570936D01*
X10658277Y-16570936D02*
X10648753Y-16551888D01*
X10648753Y-16551888D02*
X10639229Y-16513793D01*
X10639229Y-16513793D02*
X10639229Y-16466174D01*
X10639229Y-16466174D02*
X10648753Y-16428079D01*
X10648753Y-16428079D02*
X10658277Y-16409031D01*
X10658277Y-16409031D02*
X10667801Y-16399508D01*
X10667801Y-16399508D02*
X10686848Y-16389984D01*
X10820182Y-16389984D02*
X10943991Y-16389984D01*
X10943991Y-16389984D02*
X10877325Y-16466174D01*
X10877325Y-16466174D02*
X10905896Y-16466174D01*
X10905896Y-16466174D02*
X10924944Y-16475698D01*
X10924944Y-16475698D02*
X10934468Y-16485222D01*
X10934468Y-16485222D02*
X10943991Y-16504269D01*
X10943991Y-16504269D02*
X10943991Y-16551888D01*
X10943991Y-16551888D02*
X10934468Y-16570936D01*
X10934468Y-16570936D02*
X10924944Y-16580460D01*
X10924944Y-16580460D02*
X10905896Y-16589984D01*
X10905896Y-16589984D02*
X10848753Y-16589984D01*
X10848753Y-16589984D02*
X10829706Y-16580460D01*
X10829706Y-16580460D02*
X10820182Y-16570936D01*
X11039229Y-16589984D02*
X11077325Y-16589984D01*
X11077325Y-16589984D02*
X11096372Y-16580460D01*
X11096372Y-16580460D02*
X11105896Y-16570936D01*
X11105896Y-16570936D02*
X11124944Y-16542365D01*
X11124944Y-16542365D02*
X11134468Y-16504269D01*
X11134468Y-16504269D02*
X11134468Y-16428079D01*
X11134468Y-16428079D02*
X11124944Y-16409031D01*
X11124944Y-16409031D02*
X11115420Y-16399508D01*
X11115420Y-16399508D02*
X11096372Y-16389984D01*
X11096372Y-16389984D02*
X11058277Y-16389984D01*
X11058277Y-16389984D02*
X11039229Y-16399508D01*
X11039229Y-16399508D02*
X11029706Y-16409031D01*
X11029706Y-16409031D02*
X11020182Y-16428079D01*
X11020182Y-16428079D02*
X11020182Y-16475698D01*
X11020182Y-16475698D02*
X11029706Y-16494746D01*
X11029706Y-16494746D02*
X11039229Y-16504269D01*
X11039229Y-16504269D02*
X11058277Y-16513793D01*
X11058277Y-16513793D02*
X11096372Y-16513793D01*
X11096372Y-16513793D02*
X11115420Y-16504269D01*
X11115420Y-16504269D02*
X11124944Y-16494746D01*
X11124944Y-16494746D02*
X11134468Y-16475698D01*
X11305896Y-16456650D02*
X11305896Y-16589984D01*
X11258277Y-16380460D02*
X11210658Y-16523317D01*
X11210658Y-16523317D02*
X11334467Y-16523317D01*
X11401134Y-16389984D02*
X11401134Y-16428079D01*
X11477325Y-16389984D02*
X11477325Y-16428079D01*
X11772563Y-16666174D02*
X11763039Y-16656650D01*
X11763039Y-16656650D02*
X11743991Y-16628079D01*
X11743991Y-16628079D02*
X11734468Y-16609031D01*
X11734468Y-16609031D02*
X11724944Y-16580460D01*
X11724944Y-16580460D02*
X11715420Y-16532841D01*
X11715420Y-16532841D02*
X11715420Y-16494746D01*
X11715420Y-16494746D02*
X11724944Y-16447127D01*
X11724944Y-16447127D02*
X11734468Y-16418555D01*
X11734468Y-16418555D02*
X11743991Y-16399508D01*
X11743991Y-16399508D02*
X11763039Y-16370936D01*
X11763039Y-16370936D02*
X11772563Y-16361412D01*
X11858277Y-16589984D02*
X11896372Y-16589984D01*
X11896372Y-16589984D02*
X11915420Y-16580460D01*
X11915420Y-16580460D02*
X11924944Y-16570936D01*
X11924944Y-16570936D02*
X11943991Y-16542365D01*
X11943991Y-16542365D02*
X11953515Y-16504269D01*
X11953515Y-16504269D02*
X11953515Y-16428079D01*
X11953515Y-16428079D02*
X11943991Y-16409031D01*
X11943991Y-16409031D02*
X11934468Y-16399508D01*
X11934468Y-16399508D02*
X11915420Y-16389984D01*
X11915420Y-16389984D02*
X11877325Y-16389984D01*
X11877325Y-16389984D02*
X11858277Y-16399508D01*
X11858277Y-16399508D02*
X11848753Y-16409031D01*
X11848753Y-16409031D02*
X11839229Y-16428079D01*
X11839229Y-16428079D02*
X11839229Y-16475698D01*
X11839229Y-16475698D02*
X11848753Y-16494746D01*
X11848753Y-16494746D02*
X11858277Y-16504269D01*
X11858277Y-16504269D02*
X11877325Y-16513793D01*
X11877325Y-16513793D02*
X11915420Y-16513793D01*
X11915420Y-16513793D02*
X11934468Y-16504269D01*
X11934468Y-16504269D02*
X11943991Y-16494746D01*
X11943991Y-16494746D02*
X11953515Y-16475698D01*
X12191610Y-16589984D02*
X12191610Y-16389984D01*
X12277325Y-16589984D02*
X12277325Y-16485222D01*
X12277325Y-16485222D02*
X12267801Y-16466174D01*
X12267801Y-16466174D02*
X12248753Y-16456650D01*
X12248753Y-16456650D02*
X12220182Y-16456650D01*
X12220182Y-16456650D02*
X12201134Y-16466174D01*
X12201134Y-16466174D02*
X12191610Y-16475698D01*
X12401134Y-16589984D02*
X12382087Y-16580460D01*
X12382087Y-16580460D02*
X12372563Y-16570936D01*
X12372563Y-16570936D02*
X12363039Y-16551888D01*
X12363039Y-16551888D02*
X12363039Y-16494746D01*
X12363039Y-16494746D02*
X12372563Y-16475698D01*
X12372563Y-16475698D02*
X12382087Y-16466174D01*
X12382087Y-16466174D02*
X12401134Y-16456650D01*
X12401134Y-16456650D02*
X12429706Y-16456650D01*
X12429706Y-16456650D02*
X12448753Y-16466174D01*
X12448753Y-16466174D02*
X12458277Y-16475698D01*
X12458277Y-16475698D02*
X12467801Y-16494746D01*
X12467801Y-16494746D02*
X12467801Y-16551888D01*
X12467801Y-16551888D02*
X12458277Y-16570936D01*
X12458277Y-16570936D02*
X12448753Y-16580460D01*
X12448753Y-16580460D02*
X12429706Y-16589984D01*
X12429706Y-16589984D02*
X12401134Y-16589984D01*
X12582087Y-16589984D02*
X12563039Y-16580460D01*
X12563039Y-16580460D02*
X12553515Y-16561412D01*
X12553515Y-16561412D02*
X12553515Y-16389984D01*
X12734468Y-16580460D02*
X12715420Y-16589984D01*
X12715420Y-16589984D02*
X12677325Y-16589984D01*
X12677325Y-16589984D02*
X12658277Y-16580460D01*
X12658277Y-16580460D02*
X12648753Y-16561412D01*
X12648753Y-16561412D02*
X12648753Y-16485222D01*
X12648753Y-16485222D02*
X12658277Y-16466174D01*
X12658277Y-16466174D02*
X12677325Y-16456650D01*
X12677325Y-16456650D02*
X12715420Y-16456650D01*
X12715420Y-16456650D02*
X12734468Y-16466174D01*
X12734468Y-16466174D02*
X12743991Y-16485222D01*
X12743991Y-16485222D02*
X12743991Y-16504269D01*
X12743991Y-16504269D02*
X12648753Y-16523317D01*
X12820182Y-16580460D02*
X12839230Y-16589984D01*
X12839230Y-16589984D02*
X12877325Y-16589984D01*
X12877325Y-16589984D02*
X12896372Y-16580460D01*
X12896372Y-16580460D02*
X12905896Y-16561412D01*
X12905896Y-16561412D02*
X12905896Y-16551888D01*
X12905896Y-16551888D02*
X12896372Y-16532841D01*
X12896372Y-16532841D02*
X12877325Y-16523317D01*
X12877325Y-16523317D02*
X12848753Y-16523317D01*
X12848753Y-16523317D02*
X12829706Y-16513793D01*
X12829706Y-16513793D02*
X12820182Y-16494746D01*
X12820182Y-16494746D02*
X12820182Y-16485222D01*
X12820182Y-16485222D02*
X12829706Y-16466174D01*
X12829706Y-16466174D02*
X12848753Y-16456650D01*
X12848753Y-16456650D02*
X12877325Y-16456650D01*
X12877325Y-16456650D02*
X12896372Y-16466174D01*
X13143992Y-16513793D02*
X13296373Y-16513793D01*
X13220182Y-16589984D02*
X13220182Y-16437603D01*
X13524944Y-16389984D02*
X13648753Y-16389984D01*
X13648753Y-16389984D02*
X13582087Y-16466174D01*
X13582087Y-16466174D02*
X13610658Y-16466174D01*
X13610658Y-16466174D02*
X13629706Y-16475698D01*
X13629706Y-16475698D02*
X13639230Y-16485222D01*
X13639230Y-16485222D02*
X13648753Y-16504269D01*
X13648753Y-16504269D02*
X13648753Y-16551888D01*
X13648753Y-16551888D02*
X13639230Y-16570936D01*
X13639230Y-16570936D02*
X13629706Y-16580460D01*
X13629706Y-16580460D02*
X13610658Y-16589984D01*
X13610658Y-16589984D02*
X13553515Y-16589984D01*
X13553515Y-16589984D02*
X13534468Y-16580460D01*
X13534468Y-16580460D02*
X13524944Y-16570936D01*
X13877325Y-16580460D02*
X13896373Y-16589984D01*
X13896373Y-16589984D02*
X13934468Y-16589984D01*
X13934468Y-16589984D02*
X13953515Y-16580460D01*
X13953515Y-16580460D02*
X13963039Y-16561412D01*
X13963039Y-16561412D02*
X13963039Y-16551888D01*
X13963039Y-16551888D02*
X13953515Y-16532841D01*
X13953515Y-16532841D02*
X13934468Y-16523317D01*
X13934468Y-16523317D02*
X13905896Y-16523317D01*
X13905896Y-16523317D02*
X13886849Y-16513793D01*
X13886849Y-16513793D02*
X13877325Y-16494746D01*
X13877325Y-16494746D02*
X13877325Y-16485222D01*
X13877325Y-16485222D02*
X13886849Y-16466174D01*
X13886849Y-16466174D02*
X13905896Y-16456650D01*
X13905896Y-16456650D02*
X13934468Y-16456650D01*
X13934468Y-16456650D02*
X13953515Y-16466174D01*
X14077325Y-16589984D02*
X14058277Y-16580460D01*
X14058277Y-16580460D02*
X14048754Y-16561412D01*
X14048754Y-16561412D02*
X14048754Y-16389984D01*
X14182087Y-16589984D02*
X14163039Y-16580460D01*
X14163039Y-16580460D02*
X14153515Y-16570936D01*
X14153515Y-16570936D02*
X14143992Y-16551888D01*
X14143992Y-16551888D02*
X14143992Y-16494746D01*
X14143992Y-16494746D02*
X14153515Y-16475698D01*
X14153515Y-16475698D02*
X14163039Y-16466174D01*
X14163039Y-16466174D02*
X14182087Y-16456650D01*
X14182087Y-16456650D02*
X14210658Y-16456650D01*
X14210658Y-16456650D02*
X14229706Y-16466174D01*
X14229706Y-16466174D02*
X14239230Y-16475698D01*
X14239230Y-16475698D02*
X14248754Y-16494746D01*
X14248754Y-16494746D02*
X14248754Y-16551888D01*
X14248754Y-16551888D02*
X14239230Y-16570936D01*
X14239230Y-16570936D02*
X14229706Y-16580460D01*
X14229706Y-16580460D02*
X14210658Y-16589984D01*
X14210658Y-16589984D02*
X14182087Y-16589984D01*
X14305896Y-16456650D02*
X14382087Y-16456650D01*
X14334468Y-16389984D02*
X14334468Y-16561412D01*
X14334468Y-16561412D02*
X14343992Y-16580460D01*
X14343992Y-16580460D02*
X14363039Y-16589984D01*
X14363039Y-16589984D02*
X14382087Y-16589984D01*
X14439230Y-16580460D02*
X14458277Y-16589984D01*
X14458277Y-16589984D02*
X14496373Y-16589984D01*
X14496373Y-16589984D02*
X14515420Y-16580460D01*
X14515420Y-16580460D02*
X14524944Y-16561412D01*
X14524944Y-16561412D02*
X14524944Y-16551888D01*
X14524944Y-16551888D02*
X14515420Y-16532841D01*
X14515420Y-16532841D02*
X14496373Y-16523317D01*
X14496373Y-16523317D02*
X14467801Y-16523317D01*
X14467801Y-16523317D02*
X14448754Y-16513793D01*
X14448754Y-16513793D02*
X14439230Y-16494746D01*
X14439230Y-16494746D02*
X14439230Y-16485222D01*
X14439230Y-16485222D02*
X14448754Y-16466174D01*
X14448754Y-16466174D02*
X14467801Y-16456650D01*
X14467801Y-16456650D02*
X14496373Y-16456650D01*
X14496373Y-16456650D02*
X14515420Y-16466174D01*
X14591611Y-16666174D02*
X14601135Y-16656650D01*
X14601135Y-16656650D02*
X14620182Y-16628079D01*
X14620182Y-16628079D02*
X14629706Y-16609031D01*
X14629706Y-16609031D02*
X14639230Y-16580460D01*
X14639230Y-16580460D02*
X14648754Y-16532841D01*
X14648754Y-16532841D02*
X14648754Y-16494746D01*
X14648754Y-16494746D02*
X14639230Y-16447127D01*
X14639230Y-16447127D02*
X14629706Y-16418555D01*
X14629706Y-16418555D02*
X14620182Y-16399508D01*
X14620182Y-16399508D02*
X14601135Y-16370936D01*
X14601135Y-16370936D02*
X14591611Y-16361412D01*
M02*
