M48
; DRILL file {KiCad 8.0.4} date 2024-08-02T19:36:38-0700
; FORMAT={-:-/ absolute / metric / decimal}
; #@! TF.CreationDate,2024-08-02T19:36:38-07:00
; #@! TF.GenerationSoftware,Kicad,Pcbnew,8.0.4
; #@! TF.FileFunction,Plated,1,2,PTH
FMAT,2
METRIC
; #@! TA.AperFunction,Plated,PTH,ViaDrill
T1C0.300
; #@! TA.AperFunction,Plated,PTH,ViaDrill
T2C0.400
; #@! TA.AperFunction,Plated,PTH,ViaDrill
T3C0.600
; #@! TA.AperFunction,Plated,PTH,ComponentDrill
T4C0.600
; #@! TA.AperFunction,Plated,PTH,ComponentDrill
T5C1.000
%
G90
G05
T1
X87.15Y-63.0
X87.15Y-64.0
X87.15Y-65.0
X89.1Y-66.1
X90.0Y-69.6
X90.0Y-72.0
X90.95Y-71.9
X97.75Y-62.95
X97.75Y-63.95
X97.75Y-64.95
X99.7Y-66.05
X100.6Y-69.55
X100.6Y-71.95
X101.55Y-71.9
X108.35Y-63.0
X108.35Y-64.0
X108.35Y-65.0
X110.3Y-66.1
X111.2Y-69.6
X111.2Y-72.0
X112.15Y-71.9
X164.4Y-75.2
X167.6Y-82.325
X168.2Y-80.725
X172.6Y-79.1
X172.6Y-80.7
X172.6Y-82.3
X175.9Y-74.1
X175.9Y-76.75
X176.9Y-71.8
X176.9Y-79.2
X178.2Y-71.8
X178.2Y-79.2
T2
X92.8Y-73.2
X103.4Y-73.2
X114.0Y-73.2
X116.8Y-82.0
X118.4Y-83.0
X120.0Y-84.0
T3
X88.8Y-118.8
X88.8Y-136.8
X93.0Y-92.0
X93.0Y-96.0
X93.0Y-100.5
X93.0Y-104.5
X93.0Y-109.0
X93.0Y-122.0
X93.0Y-126.0
X93.0Y-130.5
X93.0Y-134.5
X93.0Y-139.0
X95.0Y-94.0
X95.0Y-98.5
X95.0Y-102.5
X95.0Y-106.5
X95.0Y-111.0
X95.0Y-124.0
X95.0Y-128.5
X95.0Y-132.5
X95.0Y-136.5
X95.0Y-141.0
X97.0Y-92.0
X97.0Y-96.0
X97.0Y-98.5
X97.0Y-100.5
X97.0Y-102.5
X97.0Y-104.5
X97.0Y-106.5
X97.0Y-109.0
X97.0Y-113.0
X97.0Y-122.0
X97.0Y-126.0
X97.0Y-128.5
X97.0Y-130.5
X97.0Y-132.5
X97.0Y-134.5
X97.0Y-136.5
X97.0Y-139.0
X97.0Y-143.0
X99.0Y-90.0
X99.0Y-94.0
X99.0Y-96.0
X99.0Y-109.0
X99.0Y-111.0
X99.0Y-120.0
X99.0Y-124.0
X99.0Y-126.0
X99.0Y-139.0
X99.0Y-141.0
X101.0Y-92.0
X101.0Y-94.0
X101.0Y-96.0
X101.0Y-107.5
X101.0Y-109.0
X101.0Y-111.0
X101.0Y-113.0
X101.0Y-122.0
X101.0Y-124.0
X101.0Y-126.0
X101.0Y-137.5
X101.0Y-139.0
X101.0Y-141.0
X101.0Y-143.0
X103.0Y-92.0
X103.0Y-94.0
X103.0Y-96.0
X103.0Y-107.5
X103.0Y-109.0
X103.0Y-111.0
X103.0Y-113.0
X103.0Y-122.0
X103.0Y-124.0
X103.0Y-126.0
X103.0Y-137.5
X103.0Y-139.0
X103.0Y-141.0
X103.0Y-143.0
X105.0Y-90.0
X105.0Y-94.0
X105.0Y-96.0
X105.0Y-109.0
X105.0Y-111.0
X105.0Y-120.0
X105.0Y-124.0
X105.0Y-126.0
X105.0Y-139.0
X105.0Y-141.0
X107.0Y-92.0
X107.0Y-96.0
X107.0Y-98.5
X107.0Y-100.5
X107.0Y-102.5
X107.0Y-104.5
X107.0Y-106.5
X107.0Y-109.0
X107.0Y-113.0
X107.0Y-122.0
X107.0Y-126.0
X107.0Y-128.5
X107.0Y-130.5
X107.0Y-132.5
X107.0Y-134.5
X107.0Y-136.5
X107.0Y-139.0
X107.0Y-143.0
X109.0Y-94.0
X109.0Y-98.5
X109.0Y-102.5
X109.0Y-106.5
X109.0Y-111.0
X109.0Y-124.0
X109.0Y-128.5
X109.0Y-132.5
X109.0Y-136.5
X109.0Y-141.0
X111.0Y-92.0
X111.0Y-96.0
X111.0Y-100.5
X111.0Y-104.5
X111.0Y-109.0
X111.0Y-122.0
X111.0Y-126.0
X111.0Y-130.5
X111.0Y-134.5
X111.0Y-139.0
X115.2Y-88.8
X115.2Y-109.0
X115.2Y-136.8
X115.2Y-144.6
X118.8Y-95.0
X118.8Y-115.2
X118.8Y-125.0
X123.0Y-95.0
X123.0Y-99.5
X123.0Y-103.5
X123.0Y-108.0
X123.0Y-112.0
X123.0Y-125.0
X123.0Y-129.5
X123.0Y-133.5
X123.0Y-138.0
X123.0Y-142.0
X125.0Y-93.0
X125.0Y-97.5
X125.0Y-101.5
X125.0Y-105.5
X125.0Y-110.0
X125.0Y-123.0
X125.0Y-127.5
X125.0Y-131.5
X125.0Y-135.5
X125.0Y-140.0
X127.0Y-101.5
X127.0Y-105.5
X127.0Y-91.0
X127.0Y-95.0
X127.0Y-97.5
X127.0Y-99.5
X127.0Y-103.5
X127.0Y-108.0
X127.0Y-112.0
X127.0Y-131.5
X127.0Y-135.5
X127.0Y-121.0
X127.0Y-125.0
X127.0Y-127.5
X127.0Y-129.5
X127.0Y-133.5
X127.0Y-138.0
X127.0Y-142.0
X129.0Y-95.0
X129.0Y-108.0
X129.0Y-93.0
X129.0Y-110.0
X129.0Y-114.0
X129.0Y-125.0
X129.0Y-138.0
X129.0Y-123.0
X129.0Y-140.0
X129.0Y-144.0
X131.0Y-93.0
X131.0Y-97.0
X131.0Y-91.0
X131.0Y-108.0
X131.0Y-110.0
X131.0Y-112.0
X131.0Y-123.0
X131.0Y-127.0
X131.0Y-95.0
X131.0Y-121.0
X131.0Y-138.0
X131.0Y-140.0
X131.0Y-142.0
X131.0Y-125.0
X133.0Y-95.0
X133.0Y-91.0
X133.0Y-108.0
X133.0Y-110.0
X133.0Y-112.0
X133.0Y-125.0
X133.0Y-93.0
X133.0Y-97.0
X133.0Y-121.0
X133.0Y-138.0
X133.0Y-140.0
X133.0Y-142.0
X133.0Y-123.0
X133.0Y-127.0
X135.0Y-93.0
X135.0Y-110.0
X135.0Y-114.0
X135.0Y-95.0
X135.0Y-108.0
X135.0Y-123.0
X135.0Y-140.0
X135.0Y-144.0
X135.0Y-125.0
X135.0Y-138.0
X137.0Y-91.0
X137.0Y-95.0
X137.0Y-97.5
X137.0Y-99.5
X137.0Y-103.5
X137.0Y-108.0
X137.0Y-112.0
X137.0Y-101.5
X137.0Y-105.5
X137.0Y-121.0
X137.0Y-125.0
X137.0Y-127.5
X137.0Y-129.5
X137.0Y-133.5
X137.0Y-138.0
X137.0Y-142.0
X137.0Y-131.5
X137.0Y-135.5
X139.0Y-93.0
X139.0Y-97.5
X139.0Y-101.5
X139.0Y-105.5
X139.0Y-110.0
X139.0Y-123.0
X139.0Y-127.5
X139.0Y-131.5
X139.0Y-135.5
X139.0Y-140.0
X141.0Y-95.0
X141.0Y-99.5
X141.0Y-103.5
X141.0Y-108.0
X141.0Y-112.0
X141.0Y-125.0
X141.0Y-129.5
X141.0Y-133.5
X141.0Y-138.0
X141.0Y-142.0
X145.2Y-97.2
X148.8Y-118.8
X153.0Y-92.0
X153.0Y-96.0
X153.0Y-100.5
X153.0Y-104.5
X153.0Y-109.0
X153.0Y-122.0
X153.0Y-126.0
X153.0Y-130.5
X153.0Y-134.5
X153.0Y-139.0
X155.0Y-94.0
X155.0Y-98.5
X155.0Y-102.5
X155.0Y-106.5
X155.0Y-111.0
X155.0Y-124.0
X155.0Y-128.5
X155.0Y-132.5
X155.0Y-136.5
X155.0Y-141.0
X157.0Y-92.0
X157.0Y-96.0
X157.0Y-98.5
X157.0Y-100.5
X157.0Y-102.5
X157.0Y-104.5
X157.0Y-106.5
X157.0Y-109.0
X157.0Y-113.0
X157.0Y-122.0
X157.0Y-126.0
X157.0Y-128.5
X157.0Y-130.5
X157.0Y-132.5
X157.0Y-134.5
X157.0Y-136.5
X157.0Y-139.0
X157.0Y-143.0
X159.0Y-90.0
X159.0Y-94.0
X159.0Y-96.0
X159.0Y-109.0
X159.0Y-111.0
X159.0Y-120.0
X159.0Y-124.0
X159.0Y-126.0
X159.0Y-139.0
X159.0Y-141.0
X161.0Y-92.0
X161.0Y-94.0
X161.0Y-96.0
X161.0Y-107.5
X161.0Y-109.0
X161.0Y-111.0
X161.0Y-113.0
X161.0Y-122.0
X161.0Y-124.0
X161.0Y-126.0
X161.0Y-137.0
X161.0Y-139.0
X161.0Y-141.0
X161.0Y-143.0
X163.0Y-92.0
X163.0Y-94.0
X163.0Y-96.0
X163.0Y-107.5
X163.0Y-109.0
X163.0Y-111.0
X163.0Y-113.0
X163.0Y-115.4
X163.0Y-122.0
X163.0Y-124.0
X163.0Y-126.0
X163.0Y-137.0
X163.0Y-139.0
X163.0Y-141.0
X163.0Y-143.0
X165.0Y-90.0
X165.0Y-94.0
X165.0Y-96.0
X165.0Y-109.0
X165.0Y-111.0
X165.0Y-120.0
X165.0Y-124.0
X165.0Y-126.0
X165.0Y-139.0
X165.0Y-141.0
X167.0Y-92.0
X167.0Y-96.0
X167.0Y-98.5
X167.0Y-100.5
X167.0Y-102.5
X167.0Y-104.5
X167.0Y-106.5
X167.0Y-109.0
X167.0Y-113.0
X167.0Y-122.0
X167.0Y-126.0
X167.0Y-128.5
X167.0Y-130.5
X167.0Y-132.5
X167.0Y-134.5
X167.0Y-136.5
X167.0Y-139.0
X167.0Y-143.0
X169.0Y-94.0
X169.0Y-98.5
X169.0Y-102.5
X169.0Y-106.5
X169.0Y-111.0
X169.0Y-124.0
X169.0Y-128.5
X169.0Y-132.5
X169.0Y-136.5
X169.0Y-141.0
X171.0Y-92.0
X171.0Y-96.0
X171.0Y-100.5
X171.0Y-104.5
X171.0Y-109.0
X171.0Y-122.0
X171.0Y-126.0
X171.0Y-130.5
X171.0Y-134.5
X171.0Y-139.0
X172.4Y-106.8
X172.4Y-118.8
X173.4Y-128.0
T5
X121.868Y-67.87
X124.368Y-67.87
X126.868Y-67.87
X136.218Y-67.87
X138.718Y-67.87
X141.218Y-67.87
X150.568Y-67.87
X153.068Y-67.87
X155.568Y-67.87
T4
X174.845Y-71.18G85X175.945Y-71.18
G05
X174.845Y-79.82G85X175.945Y-79.82
G05
X179.175Y-71.18G85X179.975Y-71.18
G05
X179.175Y-79.82G85X179.975Y-79.82
G05
T5
X168.65Y-66.45G85X168.65Y-63.85
G05
X170.45Y-60.35G85X172.65Y-60.35
G05
X174.95Y-66.25G85X174.95Y-64.05
G05
M30
