%TF.GenerationSoftware,KiCad,Pcbnew,9.0.1-rc2*%
%TF.CreationDate,2025-11-09T15:09:06-08:00*%
%TF.ProjectId,bsl_drv_v1,62736c5f-6472-4765-9f76-312e6b696361,rev?*%
%TF.SameCoordinates,Original*%
%TF.FileFunction,Drillmap*%
%TF.FilePolarity,Positive*%
%FSLAX45Y45*%
G04 Gerber Fmt 4.5, Leading zero omitted, Abs format (unit mm)*
G04 Created by KiCad (PCBNEW 9.0.1-rc2) date 2025-11-09 15:09:06*
%MOMM*%
%LPD*%
G01*
G04 APERTURE LIST*
%ADD10C,0.050000*%
%ADD11C,0.200000*%
%ADD12C,0.100000*%
%ADD13C,0.115200*%
%ADD14C,0.160000*%
%ADD15C,0.220000*%
G04 APERTURE END LIST*
D10*
X12400000Y-8550000D02*
G75*
G02*
X12600000Y-8750000I0J-200000D01*
G01*
X6900000Y-11750000D02*
X4200000Y-11750000D01*
X12600000Y-8750000D02*
X12600000Y-11550000D01*
X9400000Y-11850000D02*
G75*
G02*
X9300000Y-11950000I-100000J0D01*
G01*
X6900000Y-11750000D02*
G75*
G02*
X7000000Y-11850000I0J-100000D01*
G01*
X4000000Y-11550000D02*
X4000000Y-8750000D01*
X9300000Y-11950000D02*
X7100000Y-11950000D01*
X7100000Y-11950000D02*
G75*
G02*
X7000000Y-11850000I0J100000D01*
G01*
X4200000Y-8550000D02*
X12400000Y-8550000D01*
X4200000Y-11750000D02*
G75*
G02*
X4000000Y-11550000I0J200000D01*
G01*
X12400000Y-11750000D02*
X9500000Y-11750000D01*
X4000000Y-8750000D02*
G75*
G02*
X4200000Y-8550000I200000J0D01*
G01*
X12600000Y-11550000D02*
G75*
G02*
X12400000Y-11750000I-200000J0D01*
G01*
X9400000Y-11850000D02*
G75*
G02*
X9500000Y-11750000I100000J0D01*
G01*
D11*
D12*
X4587500Y-9578500D02*
X4652500Y-9643500D01*
X4652500Y-9578500D02*
X4587500Y-9643500D01*
X4587500Y-10156500D02*
X4652500Y-10221500D01*
X4652500Y-10156500D02*
X4587500Y-10221500D01*
X11944900Y-9574748D02*
X12009900Y-9639748D01*
X12009900Y-9574748D02*
X11944900Y-9639748D01*
X11944900Y-10152748D02*
X12009900Y-10217748D01*
X12009900Y-10152748D02*
X11944900Y-10217748D01*
D13*
X4257600Y-11410000D02*
G75*
G02*
X4142400Y-11410000I-57600J0D01*
G01*
X4142400Y-11410000D02*
G75*
G02*
X4257600Y-11410000I57600J0D01*
G01*
X12192600Y-8685000D02*
G75*
G02*
X12077400Y-8685000I-57600J0D01*
G01*
X12077400Y-8685000D02*
G75*
G02*
X12192600Y-8685000I57600J0D01*
G01*
D14*
X11525000Y-11060000D02*
X11525000Y-11220000D01*
X11445000Y-11140000D02*
X11605000Y-11140000D01*
X12225000Y-11060000D02*
X12225000Y-11220000D01*
X12145000Y-11140000D02*
X12305000Y-11140000D01*
D15*
X4377783Y-9027783D02*
X4377783Y-8872218D01*
X4222218Y-8872218D01*
X4222218Y-9027783D01*
X4377783Y-9027783D01*
X12377782Y-9027783D02*
X12377782Y-8872218D01*
X12222217Y-8872218D01*
X12222217Y-9027783D01*
X12377782Y-9027783D01*
D11*
X4258277Y-12263984D02*
X4258277Y-12063984D01*
X4258277Y-12063984D02*
X4305896Y-12063984D01*
X4305896Y-12063984D02*
X4334467Y-12073508D01*
X4334467Y-12073508D02*
X4353515Y-12092555D01*
X4353515Y-12092555D02*
X4363039Y-12111603D01*
X4363039Y-12111603D02*
X4372562Y-12149698D01*
X4372562Y-12149698D02*
X4372562Y-12178270D01*
X4372562Y-12178270D02*
X4363039Y-12216365D01*
X4363039Y-12216365D02*
X4353515Y-12235412D01*
X4353515Y-12235412D02*
X4334467Y-12254460D01*
X4334467Y-12254460D02*
X4305896Y-12263984D01*
X4305896Y-12263984D02*
X4258277Y-12263984D01*
X4458277Y-12263984D02*
X4458277Y-12130650D01*
X4458277Y-12168746D02*
X4467801Y-12149698D01*
X4467801Y-12149698D02*
X4477324Y-12140174D01*
X4477324Y-12140174D02*
X4496372Y-12130650D01*
X4496372Y-12130650D02*
X4515420Y-12130650D01*
X4582086Y-12263984D02*
X4582086Y-12130650D01*
X4582086Y-12063984D02*
X4572562Y-12073508D01*
X4572562Y-12073508D02*
X4582086Y-12083031D01*
X4582086Y-12083031D02*
X4591610Y-12073508D01*
X4591610Y-12073508D02*
X4582086Y-12063984D01*
X4582086Y-12063984D02*
X4582086Y-12083031D01*
X4705896Y-12263984D02*
X4686848Y-12254460D01*
X4686848Y-12254460D02*
X4677324Y-12235412D01*
X4677324Y-12235412D02*
X4677324Y-12063984D01*
X4810658Y-12263984D02*
X4791610Y-12254460D01*
X4791610Y-12254460D02*
X4782086Y-12235412D01*
X4782086Y-12235412D02*
X4782086Y-12063984D01*
X5039229Y-12263984D02*
X5039229Y-12063984D01*
X5039229Y-12063984D02*
X5105896Y-12206841D01*
X5105896Y-12206841D02*
X5172562Y-12063984D01*
X5172562Y-12063984D02*
X5172562Y-12263984D01*
X5353515Y-12263984D02*
X5353515Y-12159222D01*
X5353515Y-12159222D02*
X5343991Y-12140174D01*
X5343991Y-12140174D02*
X5324943Y-12130650D01*
X5324943Y-12130650D02*
X5286848Y-12130650D01*
X5286848Y-12130650D02*
X5267801Y-12140174D01*
X5353515Y-12254460D02*
X5334467Y-12263984D01*
X5334467Y-12263984D02*
X5286848Y-12263984D01*
X5286848Y-12263984D02*
X5267801Y-12254460D01*
X5267801Y-12254460D02*
X5258277Y-12235412D01*
X5258277Y-12235412D02*
X5258277Y-12216365D01*
X5258277Y-12216365D02*
X5267801Y-12197317D01*
X5267801Y-12197317D02*
X5286848Y-12187793D01*
X5286848Y-12187793D02*
X5334467Y-12187793D01*
X5334467Y-12187793D02*
X5353515Y-12178270D01*
X5448753Y-12130650D02*
X5448753Y-12330650D01*
X5448753Y-12140174D02*
X5467801Y-12130650D01*
X5467801Y-12130650D02*
X5505896Y-12130650D01*
X5505896Y-12130650D02*
X5524943Y-12140174D01*
X5524943Y-12140174D02*
X5534467Y-12149698D01*
X5534467Y-12149698D02*
X5543991Y-12168746D01*
X5543991Y-12168746D02*
X5543991Y-12225889D01*
X5543991Y-12225889D02*
X5534467Y-12244936D01*
X5534467Y-12244936D02*
X5524943Y-12254460D01*
X5524943Y-12254460D02*
X5505896Y-12263984D01*
X5505896Y-12263984D02*
X5467801Y-12263984D01*
X5467801Y-12263984D02*
X5448753Y-12254460D01*
X5629705Y-12244936D02*
X5639229Y-12254460D01*
X5639229Y-12254460D02*
X5629705Y-12263984D01*
X5629705Y-12263984D02*
X5620181Y-12254460D01*
X5620181Y-12254460D02*
X5629705Y-12244936D01*
X5629705Y-12244936D02*
X5629705Y-12263984D01*
X5629705Y-12140174D02*
X5639229Y-12149698D01*
X5639229Y-12149698D02*
X5629705Y-12159222D01*
X5629705Y-12159222D02*
X5620181Y-12149698D01*
X5620181Y-12149698D02*
X5629705Y-12140174D01*
X5629705Y-12140174D02*
X5629705Y-12159222D01*
D12*
X3932500Y-12560000D02*
X3997500Y-12625000D01*
X3997500Y-12560000D02*
X3932500Y-12625000D01*
D11*
X4296372Y-12483984D02*
X4315420Y-12483984D01*
X4315420Y-12483984D02*
X4334467Y-12493508D01*
X4334467Y-12493508D02*
X4343991Y-12503031D01*
X4343991Y-12503031D02*
X4353515Y-12522079D01*
X4353515Y-12522079D02*
X4363039Y-12560174D01*
X4363039Y-12560174D02*
X4363039Y-12607793D01*
X4363039Y-12607793D02*
X4353515Y-12645889D01*
X4353515Y-12645889D02*
X4343991Y-12664936D01*
X4343991Y-12664936D02*
X4334467Y-12674460D01*
X4334467Y-12674460D02*
X4315420Y-12683984D01*
X4315420Y-12683984D02*
X4296372Y-12683984D01*
X4296372Y-12683984D02*
X4277324Y-12674460D01*
X4277324Y-12674460D02*
X4267801Y-12664936D01*
X4267801Y-12664936D02*
X4258277Y-12645889D01*
X4258277Y-12645889D02*
X4248753Y-12607793D01*
X4248753Y-12607793D02*
X4248753Y-12560174D01*
X4248753Y-12560174D02*
X4258277Y-12522079D01*
X4258277Y-12522079D02*
X4267801Y-12503031D01*
X4267801Y-12503031D02*
X4277324Y-12493508D01*
X4277324Y-12493508D02*
X4296372Y-12483984D01*
X4448753Y-12664936D02*
X4458277Y-12674460D01*
X4458277Y-12674460D02*
X4448753Y-12683984D01*
X4448753Y-12683984D02*
X4439229Y-12674460D01*
X4439229Y-12674460D02*
X4448753Y-12664936D01*
X4448753Y-12664936D02*
X4448753Y-12683984D01*
X4629705Y-12483984D02*
X4591610Y-12483984D01*
X4591610Y-12483984D02*
X4572562Y-12493508D01*
X4572562Y-12493508D02*
X4563039Y-12503031D01*
X4563039Y-12503031D02*
X4543991Y-12531603D01*
X4543991Y-12531603D02*
X4534467Y-12569698D01*
X4534467Y-12569698D02*
X4534467Y-12645889D01*
X4534467Y-12645889D02*
X4543991Y-12664936D01*
X4543991Y-12664936D02*
X4553515Y-12674460D01*
X4553515Y-12674460D02*
X4572562Y-12683984D01*
X4572562Y-12683984D02*
X4610658Y-12683984D01*
X4610658Y-12683984D02*
X4629705Y-12674460D01*
X4629705Y-12674460D02*
X4639229Y-12664936D01*
X4639229Y-12664936D02*
X4648753Y-12645889D01*
X4648753Y-12645889D02*
X4648753Y-12598270D01*
X4648753Y-12598270D02*
X4639229Y-12579222D01*
X4639229Y-12579222D02*
X4629705Y-12569698D01*
X4629705Y-12569698D02*
X4610658Y-12560174D01*
X4610658Y-12560174D02*
X4572562Y-12560174D01*
X4572562Y-12560174D02*
X4553515Y-12569698D01*
X4553515Y-12569698D02*
X4543991Y-12579222D01*
X4543991Y-12579222D02*
X4534467Y-12598270D01*
X4829705Y-12483984D02*
X4734467Y-12483984D01*
X4734467Y-12483984D02*
X4724943Y-12579222D01*
X4724943Y-12579222D02*
X4734467Y-12569698D01*
X4734467Y-12569698D02*
X4753515Y-12560174D01*
X4753515Y-12560174D02*
X4801134Y-12560174D01*
X4801134Y-12560174D02*
X4820182Y-12569698D01*
X4820182Y-12569698D02*
X4829705Y-12579222D01*
X4829705Y-12579222D02*
X4839229Y-12598270D01*
X4839229Y-12598270D02*
X4839229Y-12645889D01*
X4839229Y-12645889D02*
X4829705Y-12664936D01*
X4829705Y-12664936D02*
X4820182Y-12674460D01*
X4820182Y-12674460D02*
X4801134Y-12683984D01*
X4801134Y-12683984D02*
X4753515Y-12683984D01*
X4753515Y-12683984D02*
X4734467Y-12674460D01*
X4734467Y-12674460D02*
X4724943Y-12664936D01*
X4963039Y-12483984D02*
X4982086Y-12483984D01*
X4982086Y-12483984D02*
X5001134Y-12493508D01*
X5001134Y-12493508D02*
X5010658Y-12503031D01*
X5010658Y-12503031D02*
X5020182Y-12522079D01*
X5020182Y-12522079D02*
X5029705Y-12560174D01*
X5029705Y-12560174D02*
X5029705Y-12607793D01*
X5029705Y-12607793D02*
X5020182Y-12645889D01*
X5020182Y-12645889D02*
X5010658Y-12664936D01*
X5010658Y-12664936D02*
X5001134Y-12674460D01*
X5001134Y-12674460D02*
X4982086Y-12683984D01*
X4982086Y-12683984D02*
X4963039Y-12683984D01*
X4963039Y-12683984D02*
X4943991Y-12674460D01*
X4943991Y-12674460D02*
X4934467Y-12664936D01*
X4934467Y-12664936D02*
X4924943Y-12645889D01*
X4924943Y-12645889D02*
X4915420Y-12607793D01*
X4915420Y-12607793D02*
X4915420Y-12560174D01*
X4915420Y-12560174D02*
X4924943Y-12522079D01*
X4924943Y-12522079D02*
X4934467Y-12503031D01*
X4934467Y-12503031D02*
X4943991Y-12493508D01*
X4943991Y-12493508D02*
X4963039Y-12483984D01*
X5115420Y-12683984D02*
X5115420Y-12550650D01*
X5115420Y-12569698D02*
X5124943Y-12560174D01*
X5124943Y-12560174D02*
X5143991Y-12550650D01*
X5143991Y-12550650D02*
X5172563Y-12550650D01*
X5172563Y-12550650D02*
X5191610Y-12560174D01*
X5191610Y-12560174D02*
X5201134Y-12579222D01*
X5201134Y-12579222D02*
X5201134Y-12683984D01*
X5201134Y-12579222D02*
X5210658Y-12560174D01*
X5210658Y-12560174D02*
X5229705Y-12550650D01*
X5229705Y-12550650D02*
X5258277Y-12550650D01*
X5258277Y-12550650D02*
X5277324Y-12560174D01*
X5277324Y-12560174D02*
X5286848Y-12579222D01*
X5286848Y-12579222D02*
X5286848Y-12683984D01*
X5382086Y-12683984D02*
X5382086Y-12550650D01*
X5382086Y-12569698D02*
X5391610Y-12560174D01*
X5391610Y-12560174D02*
X5410658Y-12550650D01*
X5410658Y-12550650D02*
X5439229Y-12550650D01*
X5439229Y-12550650D02*
X5458277Y-12560174D01*
X5458277Y-12560174D02*
X5467801Y-12579222D01*
X5467801Y-12579222D02*
X5467801Y-12683984D01*
X5467801Y-12579222D02*
X5477324Y-12560174D01*
X5477324Y-12560174D02*
X5496372Y-12550650D01*
X5496372Y-12550650D02*
X5524943Y-12550650D01*
X5524943Y-12550650D02*
X5543991Y-12560174D01*
X5543991Y-12560174D02*
X5553515Y-12579222D01*
X5553515Y-12579222D02*
X5553515Y-12683984D01*
X5943991Y-12474460D02*
X5772563Y-12731603D01*
X6201134Y-12483984D02*
X6220182Y-12483984D01*
X6220182Y-12483984D02*
X6239229Y-12493508D01*
X6239229Y-12493508D02*
X6248753Y-12503031D01*
X6248753Y-12503031D02*
X6258277Y-12522079D01*
X6258277Y-12522079D02*
X6267801Y-12560174D01*
X6267801Y-12560174D02*
X6267801Y-12607793D01*
X6267801Y-12607793D02*
X6258277Y-12645889D01*
X6258277Y-12645889D02*
X6248753Y-12664936D01*
X6248753Y-12664936D02*
X6239229Y-12674460D01*
X6239229Y-12674460D02*
X6220182Y-12683984D01*
X6220182Y-12683984D02*
X6201134Y-12683984D01*
X6201134Y-12683984D02*
X6182086Y-12674460D01*
X6182086Y-12674460D02*
X6172563Y-12664936D01*
X6172563Y-12664936D02*
X6163039Y-12645889D01*
X6163039Y-12645889D02*
X6153515Y-12607793D01*
X6153515Y-12607793D02*
X6153515Y-12560174D01*
X6153515Y-12560174D02*
X6163039Y-12522079D01*
X6163039Y-12522079D02*
X6172563Y-12503031D01*
X6172563Y-12503031D02*
X6182086Y-12493508D01*
X6182086Y-12493508D02*
X6201134Y-12483984D01*
X6353515Y-12664936D02*
X6363039Y-12674460D01*
X6363039Y-12674460D02*
X6353515Y-12683984D01*
X6353515Y-12683984D02*
X6343991Y-12674460D01*
X6343991Y-12674460D02*
X6353515Y-12664936D01*
X6353515Y-12664936D02*
X6353515Y-12683984D01*
X6486848Y-12483984D02*
X6505896Y-12483984D01*
X6505896Y-12483984D02*
X6524944Y-12493508D01*
X6524944Y-12493508D02*
X6534467Y-12503031D01*
X6534467Y-12503031D02*
X6543991Y-12522079D01*
X6543991Y-12522079D02*
X6553515Y-12560174D01*
X6553515Y-12560174D02*
X6553515Y-12607793D01*
X6553515Y-12607793D02*
X6543991Y-12645889D01*
X6543991Y-12645889D02*
X6534467Y-12664936D01*
X6534467Y-12664936D02*
X6524944Y-12674460D01*
X6524944Y-12674460D02*
X6505896Y-12683984D01*
X6505896Y-12683984D02*
X6486848Y-12683984D01*
X6486848Y-12683984D02*
X6467801Y-12674460D01*
X6467801Y-12674460D02*
X6458277Y-12664936D01*
X6458277Y-12664936D02*
X6448753Y-12645889D01*
X6448753Y-12645889D02*
X6439229Y-12607793D01*
X6439229Y-12607793D02*
X6439229Y-12560174D01*
X6439229Y-12560174D02*
X6448753Y-12522079D01*
X6448753Y-12522079D02*
X6458277Y-12503031D01*
X6458277Y-12503031D02*
X6467801Y-12493508D01*
X6467801Y-12493508D02*
X6486848Y-12483984D01*
X6629705Y-12503031D02*
X6639229Y-12493508D01*
X6639229Y-12493508D02*
X6658277Y-12483984D01*
X6658277Y-12483984D02*
X6705896Y-12483984D01*
X6705896Y-12483984D02*
X6724944Y-12493508D01*
X6724944Y-12493508D02*
X6734467Y-12503031D01*
X6734467Y-12503031D02*
X6743991Y-12522079D01*
X6743991Y-12522079D02*
X6743991Y-12541127D01*
X6743991Y-12541127D02*
X6734467Y-12569698D01*
X6734467Y-12569698D02*
X6620182Y-12683984D01*
X6620182Y-12683984D02*
X6743991Y-12683984D01*
X6924944Y-12483984D02*
X6829705Y-12483984D01*
X6829705Y-12483984D02*
X6820182Y-12579222D01*
X6820182Y-12579222D02*
X6829705Y-12569698D01*
X6829705Y-12569698D02*
X6848753Y-12560174D01*
X6848753Y-12560174D02*
X6896372Y-12560174D01*
X6896372Y-12560174D02*
X6915420Y-12569698D01*
X6915420Y-12569698D02*
X6924944Y-12579222D01*
X6924944Y-12579222D02*
X6934467Y-12598270D01*
X6934467Y-12598270D02*
X6934467Y-12645889D01*
X6934467Y-12645889D02*
X6924944Y-12664936D01*
X6924944Y-12664936D02*
X6915420Y-12674460D01*
X6915420Y-12674460D02*
X6896372Y-12683984D01*
X6896372Y-12683984D02*
X6848753Y-12683984D01*
X6848753Y-12683984D02*
X6829705Y-12674460D01*
X6829705Y-12674460D02*
X6820182Y-12664936D01*
X7105896Y-12483984D02*
X7067801Y-12483984D01*
X7067801Y-12483984D02*
X7048753Y-12493508D01*
X7048753Y-12493508D02*
X7039229Y-12503031D01*
X7039229Y-12503031D02*
X7020182Y-12531603D01*
X7020182Y-12531603D02*
X7010658Y-12569698D01*
X7010658Y-12569698D02*
X7010658Y-12645889D01*
X7010658Y-12645889D02*
X7020182Y-12664936D01*
X7020182Y-12664936D02*
X7029705Y-12674460D01*
X7029705Y-12674460D02*
X7048753Y-12683984D01*
X7048753Y-12683984D02*
X7086848Y-12683984D01*
X7086848Y-12683984D02*
X7105896Y-12674460D01*
X7105896Y-12674460D02*
X7115420Y-12664936D01*
X7115420Y-12664936D02*
X7124944Y-12645889D01*
X7124944Y-12645889D02*
X7124944Y-12598270D01*
X7124944Y-12598270D02*
X7115420Y-12579222D01*
X7115420Y-12579222D02*
X7105896Y-12569698D01*
X7105896Y-12569698D02*
X7086848Y-12560174D01*
X7086848Y-12560174D02*
X7048753Y-12560174D01*
X7048753Y-12560174D02*
X7029705Y-12569698D01*
X7029705Y-12569698D02*
X7020182Y-12579222D01*
X7020182Y-12579222D02*
X7010658Y-12598270D01*
X7201134Y-12483984D02*
X7201134Y-12522079D01*
X7277325Y-12483984D02*
X7277325Y-12522079D01*
X7572563Y-12760174D02*
X7563039Y-12750650D01*
X7563039Y-12750650D02*
X7543991Y-12722079D01*
X7543991Y-12722079D02*
X7534467Y-12703031D01*
X7534467Y-12703031D02*
X7524944Y-12674460D01*
X7524944Y-12674460D02*
X7515420Y-12626841D01*
X7515420Y-12626841D02*
X7515420Y-12588746D01*
X7515420Y-12588746D02*
X7524944Y-12541127D01*
X7524944Y-12541127D02*
X7534467Y-12512555D01*
X7534467Y-12512555D02*
X7543991Y-12493508D01*
X7543991Y-12493508D02*
X7563039Y-12464936D01*
X7563039Y-12464936D02*
X7572563Y-12455412D01*
X7734467Y-12550650D02*
X7734467Y-12683984D01*
X7686848Y-12474460D02*
X7639229Y-12617317D01*
X7639229Y-12617317D02*
X7763039Y-12617317D01*
X7991610Y-12683984D02*
X7991610Y-12483984D01*
X8077325Y-12683984D02*
X8077325Y-12579222D01*
X8077325Y-12579222D02*
X8067801Y-12560174D01*
X8067801Y-12560174D02*
X8048753Y-12550650D01*
X8048753Y-12550650D02*
X8020182Y-12550650D01*
X8020182Y-12550650D02*
X8001134Y-12560174D01*
X8001134Y-12560174D02*
X7991610Y-12569698D01*
X8201134Y-12683984D02*
X8182087Y-12674460D01*
X8182087Y-12674460D02*
X8172563Y-12664936D01*
X8172563Y-12664936D02*
X8163039Y-12645889D01*
X8163039Y-12645889D02*
X8163039Y-12588746D01*
X8163039Y-12588746D02*
X8172563Y-12569698D01*
X8172563Y-12569698D02*
X8182087Y-12560174D01*
X8182087Y-12560174D02*
X8201134Y-12550650D01*
X8201134Y-12550650D02*
X8229706Y-12550650D01*
X8229706Y-12550650D02*
X8248753Y-12560174D01*
X8248753Y-12560174D02*
X8258277Y-12569698D01*
X8258277Y-12569698D02*
X8267801Y-12588746D01*
X8267801Y-12588746D02*
X8267801Y-12645889D01*
X8267801Y-12645889D02*
X8258277Y-12664936D01*
X8258277Y-12664936D02*
X8248753Y-12674460D01*
X8248753Y-12674460D02*
X8229706Y-12683984D01*
X8229706Y-12683984D02*
X8201134Y-12683984D01*
X8382087Y-12683984D02*
X8363039Y-12674460D01*
X8363039Y-12674460D02*
X8353515Y-12655412D01*
X8353515Y-12655412D02*
X8353515Y-12483984D01*
X8534468Y-12674460D02*
X8515420Y-12683984D01*
X8515420Y-12683984D02*
X8477325Y-12683984D01*
X8477325Y-12683984D02*
X8458277Y-12674460D01*
X8458277Y-12674460D02*
X8448753Y-12655412D01*
X8448753Y-12655412D02*
X8448753Y-12579222D01*
X8448753Y-12579222D02*
X8458277Y-12560174D01*
X8458277Y-12560174D02*
X8477325Y-12550650D01*
X8477325Y-12550650D02*
X8515420Y-12550650D01*
X8515420Y-12550650D02*
X8534468Y-12560174D01*
X8534468Y-12560174D02*
X8543991Y-12579222D01*
X8543991Y-12579222D02*
X8543991Y-12598270D01*
X8543991Y-12598270D02*
X8448753Y-12617317D01*
X8620182Y-12674460D02*
X8639230Y-12683984D01*
X8639230Y-12683984D02*
X8677325Y-12683984D01*
X8677325Y-12683984D02*
X8696372Y-12674460D01*
X8696372Y-12674460D02*
X8705896Y-12655412D01*
X8705896Y-12655412D02*
X8705896Y-12645889D01*
X8705896Y-12645889D02*
X8696372Y-12626841D01*
X8696372Y-12626841D02*
X8677325Y-12617317D01*
X8677325Y-12617317D02*
X8648753Y-12617317D01*
X8648753Y-12617317D02*
X8629706Y-12607793D01*
X8629706Y-12607793D02*
X8620182Y-12588746D01*
X8620182Y-12588746D02*
X8620182Y-12579222D01*
X8620182Y-12579222D02*
X8629706Y-12560174D01*
X8629706Y-12560174D02*
X8648753Y-12550650D01*
X8648753Y-12550650D02*
X8677325Y-12550650D01*
X8677325Y-12550650D02*
X8696372Y-12560174D01*
X8772563Y-12760174D02*
X8782087Y-12750650D01*
X8782087Y-12750650D02*
X8801134Y-12722079D01*
X8801134Y-12722079D02*
X8810658Y-12703031D01*
X8810658Y-12703031D02*
X8820182Y-12674460D01*
X8820182Y-12674460D02*
X8829706Y-12626841D01*
X8829706Y-12626841D02*
X8829706Y-12588746D01*
X8829706Y-12588746D02*
X8820182Y-12541127D01*
X8820182Y-12541127D02*
X8810658Y-12512555D01*
X8810658Y-12512555D02*
X8801134Y-12493508D01*
X8801134Y-12493508D02*
X8782087Y-12464936D01*
X8782087Y-12464936D02*
X8772563Y-12455412D01*
X9134468Y-12760174D02*
X9124944Y-12750650D01*
X9124944Y-12750650D02*
X9105896Y-12722079D01*
X9105896Y-12722079D02*
X9096372Y-12703031D01*
X9096372Y-12703031D02*
X9086849Y-12674460D01*
X9086849Y-12674460D02*
X9077325Y-12626841D01*
X9077325Y-12626841D02*
X9077325Y-12588746D01*
X9077325Y-12588746D02*
X9086849Y-12541127D01*
X9086849Y-12541127D02*
X9096372Y-12512555D01*
X9096372Y-12512555D02*
X9105896Y-12493508D01*
X9105896Y-12493508D02*
X9124944Y-12464936D01*
X9124944Y-12464936D02*
X9134468Y-12455412D01*
X9210658Y-12550650D02*
X9210658Y-12683984D01*
X9210658Y-12569698D02*
X9220182Y-12560174D01*
X9220182Y-12560174D02*
X9239230Y-12550650D01*
X9239230Y-12550650D02*
X9267801Y-12550650D01*
X9267801Y-12550650D02*
X9286849Y-12560174D01*
X9286849Y-12560174D02*
X9296372Y-12579222D01*
X9296372Y-12579222D02*
X9296372Y-12683984D01*
X9420182Y-12683984D02*
X9401134Y-12674460D01*
X9401134Y-12674460D02*
X9391611Y-12664936D01*
X9391611Y-12664936D02*
X9382087Y-12645889D01*
X9382087Y-12645889D02*
X9382087Y-12588746D01*
X9382087Y-12588746D02*
X9391611Y-12569698D01*
X9391611Y-12569698D02*
X9401134Y-12560174D01*
X9401134Y-12560174D02*
X9420182Y-12550650D01*
X9420182Y-12550650D02*
X9448753Y-12550650D01*
X9448753Y-12550650D02*
X9467801Y-12560174D01*
X9467801Y-12560174D02*
X9477325Y-12569698D01*
X9477325Y-12569698D02*
X9486849Y-12588746D01*
X9486849Y-12588746D02*
X9486849Y-12645889D01*
X9486849Y-12645889D02*
X9477325Y-12664936D01*
X9477325Y-12664936D02*
X9467801Y-12674460D01*
X9467801Y-12674460D02*
X9448753Y-12683984D01*
X9448753Y-12683984D02*
X9420182Y-12683984D01*
X9543992Y-12550650D02*
X9620182Y-12550650D01*
X9572563Y-12483984D02*
X9572563Y-12655412D01*
X9572563Y-12655412D02*
X9582087Y-12674460D01*
X9582087Y-12674460D02*
X9601134Y-12683984D01*
X9601134Y-12683984D02*
X9620182Y-12683984D01*
X9839230Y-12550650D02*
X9839230Y-12750650D01*
X9839230Y-12560174D02*
X9858277Y-12550650D01*
X9858277Y-12550650D02*
X9896373Y-12550650D01*
X9896373Y-12550650D02*
X9915420Y-12560174D01*
X9915420Y-12560174D02*
X9924944Y-12569698D01*
X9924944Y-12569698D02*
X9934468Y-12588746D01*
X9934468Y-12588746D02*
X9934468Y-12645889D01*
X9934468Y-12645889D02*
X9924944Y-12664936D01*
X9924944Y-12664936D02*
X9915420Y-12674460D01*
X9915420Y-12674460D02*
X9896373Y-12683984D01*
X9896373Y-12683984D02*
X9858277Y-12683984D01*
X9858277Y-12683984D02*
X9839230Y-12674460D01*
X10048753Y-12683984D02*
X10029706Y-12674460D01*
X10029706Y-12674460D02*
X10020182Y-12655412D01*
X10020182Y-12655412D02*
X10020182Y-12483984D01*
X10210658Y-12683984D02*
X10210658Y-12579222D01*
X10210658Y-12579222D02*
X10201134Y-12560174D01*
X10201134Y-12560174D02*
X10182087Y-12550650D01*
X10182087Y-12550650D02*
X10143992Y-12550650D01*
X10143992Y-12550650D02*
X10124944Y-12560174D01*
X10210658Y-12674460D02*
X10191611Y-12683984D01*
X10191611Y-12683984D02*
X10143992Y-12683984D01*
X10143992Y-12683984D02*
X10124944Y-12674460D01*
X10124944Y-12674460D02*
X10115420Y-12655412D01*
X10115420Y-12655412D02*
X10115420Y-12636365D01*
X10115420Y-12636365D02*
X10124944Y-12617317D01*
X10124944Y-12617317D02*
X10143992Y-12607793D01*
X10143992Y-12607793D02*
X10191611Y-12607793D01*
X10191611Y-12607793D02*
X10210658Y-12598270D01*
X10277325Y-12550650D02*
X10353515Y-12550650D01*
X10305896Y-12483984D02*
X10305896Y-12655412D01*
X10305896Y-12655412D02*
X10315420Y-12674460D01*
X10315420Y-12674460D02*
X10334468Y-12683984D01*
X10334468Y-12683984D02*
X10353515Y-12683984D01*
X10496373Y-12674460D02*
X10477325Y-12683984D01*
X10477325Y-12683984D02*
X10439230Y-12683984D01*
X10439230Y-12683984D02*
X10420182Y-12674460D01*
X10420182Y-12674460D02*
X10410658Y-12655412D01*
X10410658Y-12655412D02*
X10410658Y-12579222D01*
X10410658Y-12579222D02*
X10420182Y-12560174D01*
X10420182Y-12560174D02*
X10439230Y-12550650D01*
X10439230Y-12550650D02*
X10477325Y-12550650D01*
X10477325Y-12550650D02*
X10496373Y-12560174D01*
X10496373Y-12560174D02*
X10505896Y-12579222D01*
X10505896Y-12579222D02*
X10505896Y-12598270D01*
X10505896Y-12598270D02*
X10410658Y-12617317D01*
X10677325Y-12683984D02*
X10677325Y-12483984D01*
X10677325Y-12674460D02*
X10658277Y-12683984D01*
X10658277Y-12683984D02*
X10620182Y-12683984D01*
X10620182Y-12683984D02*
X10601134Y-12674460D01*
X10601134Y-12674460D02*
X10591611Y-12664936D01*
X10591611Y-12664936D02*
X10582087Y-12645889D01*
X10582087Y-12645889D02*
X10582087Y-12588746D01*
X10582087Y-12588746D02*
X10591611Y-12569698D01*
X10591611Y-12569698D02*
X10601134Y-12560174D01*
X10601134Y-12560174D02*
X10620182Y-12550650D01*
X10620182Y-12550650D02*
X10658277Y-12550650D01*
X10658277Y-12550650D02*
X10677325Y-12560174D01*
X10753515Y-12760174D02*
X10763039Y-12750650D01*
X10763039Y-12750650D02*
X10782087Y-12722079D01*
X10782087Y-12722079D02*
X10791611Y-12703031D01*
X10791611Y-12703031D02*
X10801134Y-12674460D01*
X10801134Y-12674460D02*
X10810658Y-12626841D01*
X10810658Y-12626841D02*
X10810658Y-12588746D01*
X10810658Y-12588746D02*
X10801134Y-12541127D01*
X10801134Y-12541127D02*
X10791611Y-12512555D01*
X10791611Y-12512555D02*
X10782087Y-12493508D01*
X10782087Y-12493508D02*
X10763039Y-12464936D01*
X10763039Y-12464936D02*
X10753515Y-12455412D01*
D13*
X3997500Y-12856500D02*
G75*
G02*
X3882300Y-12856500I-57600J0D01*
G01*
X3882300Y-12856500D02*
G75*
G02*
X3997500Y-12856500I57600J0D01*
G01*
D11*
X4363039Y-12947984D02*
X4248753Y-12947984D01*
X4305896Y-12947984D02*
X4305896Y-12747984D01*
X4305896Y-12747984D02*
X4286848Y-12776555D01*
X4286848Y-12776555D02*
X4267801Y-12795603D01*
X4267801Y-12795603D02*
X4248753Y-12805127D01*
X4448753Y-12928936D02*
X4458277Y-12938460D01*
X4458277Y-12938460D02*
X4448753Y-12947984D01*
X4448753Y-12947984D02*
X4439229Y-12938460D01*
X4439229Y-12938460D02*
X4448753Y-12928936D01*
X4448753Y-12928936D02*
X4448753Y-12947984D01*
X4648753Y-12947984D02*
X4534467Y-12947984D01*
X4591610Y-12947984D02*
X4591610Y-12747984D01*
X4591610Y-12747984D02*
X4572562Y-12776555D01*
X4572562Y-12776555D02*
X4553515Y-12795603D01*
X4553515Y-12795603D02*
X4534467Y-12805127D01*
X4829705Y-12747984D02*
X4734467Y-12747984D01*
X4734467Y-12747984D02*
X4724943Y-12843222D01*
X4724943Y-12843222D02*
X4734467Y-12833698D01*
X4734467Y-12833698D02*
X4753515Y-12824174D01*
X4753515Y-12824174D02*
X4801134Y-12824174D01*
X4801134Y-12824174D02*
X4820182Y-12833698D01*
X4820182Y-12833698D02*
X4829705Y-12843222D01*
X4829705Y-12843222D02*
X4839229Y-12862270D01*
X4839229Y-12862270D02*
X4839229Y-12909889D01*
X4839229Y-12909889D02*
X4829705Y-12928936D01*
X4829705Y-12928936D02*
X4820182Y-12938460D01*
X4820182Y-12938460D02*
X4801134Y-12947984D01*
X4801134Y-12947984D02*
X4753515Y-12947984D01*
X4753515Y-12947984D02*
X4734467Y-12938460D01*
X4734467Y-12938460D02*
X4724943Y-12928936D01*
X4915420Y-12767031D02*
X4924943Y-12757508D01*
X4924943Y-12757508D02*
X4943991Y-12747984D01*
X4943991Y-12747984D02*
X4991610Y-12747984D01*
X4991610Y-12747984D02*
X5010658Y-12757508D01*
X5010658Y-12757508D02*
X5020182Y-12767031D01*
X5020182Y-12767031D02*
X5029705Y-12786079D01*
X5029705Y-12786079D02*
X5029705Y-12805127D01*
X5029705Y-12805127D02*
X5020182Y-12833698D01*
X5020182Y-12833698D02*
X4905896Y-12947984D01*
X4905896Y-12947984D02*
X5029705Y-12947984D01*
X5115420Y-12947984D02*
X5115420Y-12814650D01*
X5115420Y-12833698D02*
X5124943Y-12824174D01*
X5124943Y-12824174D02*
X5143991Y-12814650D01*
X5143991Y-12814650D02*
X5172563Y-12814650D01*
X5172563Y-12814650D02*
X5191610Y-12824174D01*
X5191610Y-12824174D02*
X5201134Y-12843222D01*
X5201134Y-12843222D02*
X5201134Y-12947984D01*
X5201134Y-12843222D02*
X5210658Y-12824174D01*
X5210658Y-12824174D02*
X5229705Y-12814650D01*
X5229705Y-12814650D02*
X5258277Y-12814650D01*
X5258277Y-12814650D02*
X5277324Y-12824174D01*
X5277324Y-12824174D02*
X5286848Y-12843222D01*
X5286848Y-12843222D02*
X5286848Y-12947984D01*
X5382086Y-12947984D02*
X5382086Y-12814650D01*
X5382086Y-12833698D02*
X5391610Y-12824174D01*
X5391610Y-12824174D02*
X5410658Y-12814650D01*
X5410658Y-12814650D02*
X5439229Y-12814650D01*
X5439229Y-12814650D02*
X5458277Y-12824174D01*
X5458277Y-12824174D02*
X5467801Y-12843222D01*
X5467801Y-12843222D02*
X5467801Y-12947984D01*
X5467801Y-12843222D02*
X5477324Y-12824174D01*
X5477324Y-12824174D02*
X5496372Y-12814650D01*
X5496372Y-12814650D02*
X5524943Y-12814650D01*
X5524943Y-12814650D02*
X5543991Y-12824174D01*
X5543991Y-12824174D02*
X5553515Y-12843222D01*
X5553515Y-12843222D02*
X5553515Y-12947984D01*
X5943991Y-12738460D02*
X5772563Y-12995603D01*
X6201134Y-12747984D02*
X6220182Y-12747984D01*
X6220182Y-12747984D02*
X6239229Y-12757508D01*
X6239229Y-12757508D02*
X6248753Y-12767031D01*
X6248753Y-12767031D02*
X6258277Y-12786079D01*
X6258277Y-12786079D02*
X6267801Y-12824174D01*
X6267801Y-12824174D02*
X6267801Y-12871793D01*
X6267801Y-12871793D02*
X6258277Y-12909889D01*
X6258277Y-12909889D02*
X6248753Y-12928936D01*
X6248753Y-12928936D02*
X6239229Y-12938460D01*
X6239229Y-12938460D02*
X6220182Y-12947984D01*
X6220182Y-12947984D02*
X6201134Y-12947984D01*
X6201134Y-12947984D02*
X6182086Y-12938460D01*
X6182086Y-12938460D02*
X6172563Y-12928936D01*
X6172563Y-12928936D02*
X6163039Y-12909889D01*
X6163039Y-12909889D02*
X6153515Y-12871793D01*
X6153515Y-12871793D02*
X6153515Y-12824174D01*
X6153515Y-12824174D02*
X6163039Y-12786079D01*
X6163039Y-12786079D02*
X6172563Y-12767031D01*
X6172563Y-12767031D02*
X6182086Y-12757508D01*
X6182086Y-12757508D02*
X6201134Y-12747984D01*
X6353515Y-12928936D02*
X6363039Y-12938460D01*
X6363039Y-12938460D02*
X6353515Y-12947984D01*
X6353515Y-12947984D02*
X6343991Y-12938460D01*
X6343991Y-12938460D02*
X6353515Y-12928936D01*
X6353515Y-12928936D02*
X6353515Y-12947984D01*
X6486848Y-12747984D02*
X6505896Y-12747984D01*
X6505896Y-12747984D02*
X6524944Y-12757508D01*
X6524944Y-12757508D02*
X6534467Y-12767031D01*
X6534467Y-12767031D02*
X6543991Y-12786079D01*
X6543991Y-12786079D02*
X6553515Y-12824174D01*
X6553515Y-12824174D02*
X6553515Y-12871793D01*
X6553515Y-12871793D02*
X6543991Y-12909889D01*
X6543991Y-12909889D02*
X6534467Y-12928936D01*
X6534467Y-12928936D02*
X6524944Y-12938460D01*
X6524944Y-12938460D02*
X6505896Y-12947984D01*
X6505896Y-12947984D02*
X6486848Y-12947984D01*
X6486848Y-12947984D02*
X6467801Y-12938460D01*
X6467801Y-12938460D02*
X6458277Y-12928936D01*
X6458277Y-12928936D02*
X6448753Y-12909889D01*
X6448753Y-12909889D02*
X6439229Y-12871793D01*
X6439229Y-12871793D02*
X6439229Y-12824174D01*
X6439229Y-12824174D02*
X6448753Y-12786079D01*
X6448753Y-12786079D02*
X6458277Y-12767031D01*
X6458277Y-12767031D02*
X6467801Y-12757508D01*
X6467801Y-12757508D02*
X6486848Y-12747984D01*
X6724944Y-12814650D02*
X6724944Y-12947984D01*
X6677324Y-12738460D02*
X6629705Y-12881317D01*
X6629705Y-12881317D02*
X6753515Y-12881317D01*
X6924944Y-12747984D02*
X6829705Y-12747984D01*
X6829705Y-12747984D02*
X6820182Y-12843222D01*
X6820182Y-12843222D02*
X6829705Y-12833698D01*
X6829705Y-12833698D02*
X6848753Y-12824174D01*
X6848753Y-12824174D02*
X6896372Y-12824174D01*
X6896372Y-12824174D02*
X6915420Y-12833698D01*
X6915420Y-12833698D02*
X6924944Y-12843222D01*
X6924944Y-12843222D02*
X6934467Y-12862270D01*
X6934467Y-12862270D02*
X6934467Y-12909889D01*
X6934467Y-12909889D02*
X6924944Y-12928936D01*
X6924944Y-12928936D02*
X6915420Y-12938460D01*
X6915420Y-12938460D02*
X6896372Y-12947984D01*
X6896372Y-12947984D02*
X6848753Y-12947984D01*
X6848753Y-12947984D02*
X6829705Y-12938460D01*
X6829705Y-12938460D02*
X6820182Y-12928936D01*
X7105896Y-12814650D02*
X7105896Y-12947984D01*
X7058277Y-12738460D02*
X7010658Y-12881317D01*
X7010658Y-12881317D02*
X7134467Y-12881317D01*
X7201134Y-12747984D02*
X7201134Y-12786079D01*
X7277325Y-12747984D02*
X7277325Y-12786079D01*
X7572563Y-13024174D02*
X7563039Y-13014650D01*
X7563039Y-13014650D02*
X7543991Y-12986079D01*
X7543991Y-12986079D02*
X7534467Y-12967031D01*
X7534467Y-12967031D02*
X7524944Y-12938460D01*
X7524944Y-12938460D02*
X7515420Y-12890841D01*
X7515420Y-12890841D02*
X7515420Y-12852746D01*
X7515420Y-12852746D02*
X7524944Y-12805127D01*
X7524944Y-12805127D02*
X7534467Y-12776555D01*
X7534467Y-12776555D02*
X7543991Y-12757508D01*
X7543991Y-12757508D02*
X7563039Y-12728936D01*
X7563039Y-12728936D02*
X7572563Y-12719412D01*
X7639229Y-12767031D02*
X7648753Y-12757508D01*
X7648753Y-12757508D02*
X7667801Y-12747984D01*
X7667801Y-12747984D02*
X7715420Y-12747984D01*
X7715420Y-12747984D02*
X7734467Y-12757508D01*
X7734467Y-12757508D02*
X7743991Y-12767031D01*
X7743991Y-12767031D02*
X7753515Y-12786079D01*
X7753515Y-12786079D02*
X7753515Y-12805127D01*
X7753515Y-12805127D02*
X7743991Y-12833698D01*
X7743991Y-12833698D02*
X7629706Y-12947984D01*
X7629706Y-12947984D02*
X7753515Y-12947984D01*
X7991610Y-12947984D02*
X7991610Y-12747984D01*
X8077325Y-12947984D02*
X8077325Y-12843222D01*
X8077325Y-12843222D02*
X8067801Y-12824174D01*
X8067801Y-12824174D02*
X8048753Y-12814650D01*
X8048753Y-12814650D02*
X8020182Y-12814650D01*
X8020182Y-12814650D02*
X8001134Y-12824174D01*
X8001134Y-12824174D02*
X7991610Y-12833698D01*
X8201134Y-12947984D02*
X8182087Y-12938460D01*
X8182087Y-12938460D02*
X8172563Y-12928936D01*
X8172563Y-12928936D02*
X8163039Y-12909889D01*
X8163039Y-12909889D02*
X8163039Y-12852746D01*
X8163039Y-12852746D02*
X8172563Y-12833698D01*
X8172563Y-12833698D02*
X8182087Y-12824174D01*
X8182087Y-12824174D02*
X8201134Y-12814650D01*
X8201134Y-12814650D02*
X8229706Y-12814650D01*
X8229706Y-12814650D02*
X8248753Y-12824174D01*
X8248753Y-12824174D02*
X8258277Y-12833698D01*
X8258277Y-12833698D02*
X8267801Y-12852746D01*
X8267801Y-12852746D02*
X8267801Y-12909889D01*
X8267801Y-12909889D02*
X8258277Y-12928936D01*
X8258277Y-12928936D02*
X8248753Y-12938460D01*
X8248753Y-12938460D02*
X8229706Y-12947984D01*
X8229706Y-12947984D02*
X8201134Y-12947984D01*
X8382087Y-12947984D02*
X8363039Y-12938460D01*
X8363039Y-12938460D02*
X8353515Y-12919412D01*
X8353515Y-12919412D02*
X8353515Y-12747984D01*
X8534468Y-12938460D02*
X8515420Y-12947984D01*
X8515420Y-12947984D02*
X8477325Y-12947984D01*
X8477325Y-12947984D02*
X8458277Y-12938460D01*
X8458277Y-12938460D02*
X8448753Y-12919412D01*
X8448753Y-12919412D02*
X8448753Y-12843222D01*
X8448753Y-12843222D02*
X8458277Y-12824174D01*
X8458277Y-12824174D02*
X8477325Y-12814650D01*
X8477325Y-12814650D02*
X8515420Y-12814650D01*
X8515420Y-12814650D02*
X8534468Y-12824174D01*
X8534468Y-12824174D02*
X8543991Y-12843222D01*
X8543991Y-12843222D02*
X8543991Y-12862270D01*
X8543991Y-12862270D02*
X8448753Y-12881317D01*
X8620182Y-12938460D02*
X8639230Y-12947984D01*
X8639230Y-12947984D02*
X8677325Y-12947984D01*
X8677325Y-12947984D02*
X8696372Y-12938460D01*
X8696372Y-12938460D02*
X8705896Y-12919412D01*
X8705896Y-12919412D02*
X8705896Y-12909889D01*
X8705896Y-12909889D02*
X8696372Y-12890841D01*
X8696372Y-12890841D02*
X8677325Y-12881317D01*
X8677325Y-12881317D02*
X8648753Y-12881317D01*
X8648753Y-12881317D02*
X8629706Y-12871793D01*
X8629706Y-12871793D02*
X8620182Y-12852746D01*
X8620182Y-12852746D02*
X8620182Y-12843222D01*
X8620182Y-12843222D02*
X8629706Y-12824174D01*
X8629706Y-12824174D02*
X8648753Y-12814650D01*
X8648753Y-12814650D02*
X8677325Y-12814650D01*
X8677325Y-12814650D02*
X8696372Y-12824174D01*
X8772563Y-13024174D02*
X8782087Y-13014650D01*
X8782087Y-13014650D02*
X8801134Y-12986079D01*
X8801134Y-12986079D02*
X8810658Y-12967031D01*
X8810658Y-12967031D02*
X8820182Y-12938460D01*
X8820182Y-12938460D02*
X8829706Y-12890841D01*
X8829706Y-12890841D02*
X8829706Y-12852746D01*
X8829706Y-12852746D02*
X8820182Y-12805127D01*
X8820182Y-12805127D02*
X8810658Y-12776555D01*
X8810658Y-12776555D02*
X8801134Y-12757508D01*
X8801134Y-12757508D02*
X8782087Y-12728936D01*
X8782087Y-12728936D02*
X8772563Y-12719412D01*
X9134468Y-13024174D02*
X9124944Y-13014650D01*
X9124944Y-13014650D02*
X9105896Y-12986079D01*
X9105896Y-12986079D02*
X9096372Y-12967031D01*
X9096372Y-12967031D02*
X9086849Y-12938460D01*
X9086849Y-12938460D02*
X9077325Y-12890841D01*
X9077325Y-12890841D02*
X9077325Y-12852746D01*
X9077325Y-12852746D02*
X9086849Y-12805127D01*
X9086849Y-12805127D02*
X9096372Y-12776555D01*
X9096372Y-12776555D02*
X9105896Y-12757508D01*
X9105896Y-12757508D02*
X9124944Y-12728936D01*
X9124944Y-12728936D02*
X9134468Y-12719412D01*
X9210658Y-12814650D02*
X9210658Y-12947984D01*
X9210658Y-12833698D02*
X9220182Y-12824174D01*
X9220182Y-12824174D02*
X9239230Y-12814650D01*
X9239230Y-12814650D02*
X9267801Y-12814650D01*
X9267801Y-12814650D02*
X9286849Y-12824174D01*
X9286849Y-12824174D02*
X9296372Y-12843222D01*
X9296372Y-12843222D02*
X9296372Y-12947984D01*
X9420182Y-12947984D02*
X9401134Y-12938460D01*
X9401134Y-12938460D02*
X9391611Y-12928936D01*
X9391611Y-12928936D02*
X9382087Y-12909889D01*
X9382087Y-12909889D02*
X9382087Y-12852746D01*
X9382087Y-12852746D02*
X9391611Y-12833698D01*
X9391611Y-12833698D02*
X9401134Y-12824174D01*
X9401134Y-12824174D02*
X9420182Y-12814650D01*
X9420182Y-12814650D02*
X9448753Y-12814650D01*
X9448753Y-12814650D02*
X9467801Y-12824174D01*
X9467801Y-12824174D02*
X9477325Y-12833698D01*
X9477325Y-12833698D02*
X9486849Y-12852746D01*
X9486849Y-12852746D02*
X9486849Y-12909889D01*
X9486849Y-12909889D02*
X9477325Y-12928936D01*
X9477325Y-12928936D02*
X9467801Y-12938460D01*
X9467801Y-12938460D02*
X9448753Y-12947984D01*
X9448753Y-12947984D02*
X9420182Y-12947984D01*
X9543992Y-12814650D02*
X9620182Y-12814650D01*
X9572563Y-12747984D02*
X9572563Y-12919412D01*
X9572563Y-12919412D02*
X9582087Y-12938460D01*
X9582087Y-12938460D02*
X9601134Y-12947984D01*
X9601134Y-12947984D02*
X9620182Y-12947984D01*
X9839230Y-12814650D02*
X9839230Y-13014650D01*
X9839230Y-12824174D02*
X9858277Y-12814650D01*
X9858277Y-12814650D02*
X9896373Y-12814650D01*
X9896373Y-12814650D02*
X9915420Y-12824174D01*
X9915420Y-12824174D02*
X9924944Y-12833698D01*
X9924944Y-12833698D02*
X9934468Y-12852746D01*
X9934468Y-12852746D02*
X9934468Y-12909889D01*
X9934468Y-12909889D02*
X9924944Y-12928936D01*
X9924944Y-12928936D02*
X9915420Y-12938460D01*
X9915420Y-12938460D02*
X9896373Y-12947984D01*
X9896373Y-12947984D02*
X9858277Y-12947984D01*
X9858277Y-12947984D02*
X9839230Y-12938460D01*
X10048753Y-12947984D02*
X10029706Y-12938460D01*
X10029706Y-12938460D02*
X10020182Y-12919412D01*
X10020182Y-12919412D02*
X10020182Y-12747984D01*
X10210658Y-12947984D02*
X10210658Y-12843222D01*
X10210658Y-12843222D02*
X10201134Y-12824174D01*
X10201134Y-12824174D02*
X10182087Y-12814650D01*
X10182087Y-12814650D02*
X10143992Y-12814650D01*
X10143992Y-12814650D02*
X10124944Y-12824174D01*
X10210658Y-12938460D02*
X10191611Y-12947984D01*
X10191611Y-12947984D02*
X10143992Y-12947984D01*
X10143992Y-12947984D02*
X10124944Y-12938460D01*
X10124944Y-12938460D02*
X10115420Y-12919412D01*
X10115420Y-12919412D02*
X10115420Y-12900365D01*
X10115420Y-12900365D02*
X10124944Y-12881317D01*
X10124944Y-12881317D02*
X10143992Y-12871793D01*
X10143992Y-12871793D02*
X10191611Y-12871793D01*
X10191611Y-12871793D02*
X10210658Y-12862270D01*
X10277325Y-12814650D02*
X10353515Y-12814650D01*
X10305896Y-12747984D02*
X10305896Y-12919412D01*
X10305896Y-12919412D02*
X10315420Y-12938460D01*
X10315420Y-12938460D02*
X10334468Y-12947984D01*
X10334468Y-12947984D02*
X10353515Y-12947984D01*
X10496373Y-12938460D02*
X10477325Y-12947984D01*
X10477325Y-12947984D02*
X10439230Y-12947984D01*
X10439230Y-12947984D02*
X10420182Y-12938460D01*
X10420182Y-12938460D02*
X10410658Y-12919412D01*
X10410658Y-12919412D02*
X10410658Y-12843222D01*
X10410658Y-12843222D02*
X10420182Y-12824174D01*
X10420182Y-12824174D02*
X10439230Y-12814650D01*
X10439230Y-12814650D02*
X10477325Y-12814650D01*
X10477325Y-12814650D02*
X10496373Y-12824174D01*
X10496373Y-12824174D02*
X10505896Y-12843222D01*
X10505896Y-12843222D02*
X10505896Y-12862270D01*
X10505896Y-12862270D02*
X10410658Y-12881317D01*
X10677325Y-12947984D02*
X10677325Y-12747984D01*
X10677325Y-12938460D02*
X10658277Y-12947984D01*
X10658277Y-12947984D02*
X10620182Y-12947984D01*
X10620182Y-12947984D02*
X10601134Y-12938460D01*
X10601134Y-12938460D02*
X10591611Y-12928936D01*
X10591611Y-12928936D02*
X10582087Y-12909889D01*
X10582087Y-12909889D02*
X10582087Y-12852746D01*
X10582087Y-12852746D02*
X10591611Y-12833698D01*
X10591611Y-12833698D02*
X10601134Y-12824174D01*
X10601134Y-12824174D02*
X10620182Y-12814650D01*
X10620182Y-12814650D02*
X10658277Y-12814650D01*
X10658277Y-12814650D02*
X10677325Y-12824174D01*
X10753515Y-13024174D02*
X10763039Y-13014650D01*
X10763039Y-13014650D02*
X10782087Y-12986079D01*
X10782087Y-12986079D02*
X10791611Y-12967031D01*
X10791611Y-12967031D02*
X10801134Y-12938460D01*
X10801134Y-12938460D02*
X10810658Y-12890841D01*
X10810658Y-12890841D02*
X10810658Y-12852746D01*
X10810658Y-12852746D02*
X10801134Y-12805127D01*
X10801134Y-12805127D02*
X10791611Y-12776555D01*
X10791611Y-12776555D02*
X10782087Y-12757508D01*
X10782087Y-12757508D02*
X10763039Y-12728936D01*
X10763039Y-12728936D02*
X10753515Y-12719412D01*
D14*
X3917500Y-13040500D02*
X3917500Y-13200500D01*
X3837500Y-13120500D02*
X3997500Y-13120500D01*
D11*
X4363039Y-13211984D02*
X4248753Y-13211984D01*
X4305896Y-13211984D02*
X4305896Y-13011984D01*
X4305896Y-13011984D02*
X4286848Y-13040555D01*
X4286848Y-13040555D02*
X4267801Y-13059603D01*
X4267801Y-13059603D02*
X4248753Y-13069127D01*
X4448753Y-13192936D02*
X4458277Y-13202460D01*
X4458277Y-13202460D02*
X4448753Y-13211984D01*
X4448753Y-13211984D02*
X4439229Y-13202460D01*
X4439229Y-13202460D02*
X4448753Y-13192936D01*
X4448753Y-13192936D02*
X4448753Y-13211984D01*
X4629705Y-13011984D02*
X4591610Y-13011984D01*
X4591610Y-13011984D02*
X4572562Y-13021508D01*
X4572562Y-13021508D02*
X4563039Y-13031031D01*
X4563039Y-13031031D02*
X4543991Y-13059603D01*
X4543991Y-13059603D02*
X4534467Y-13097698D01*
X4534467Y-13097698D02*
X4534467Y-13173889D01*
X4534467Y-13173889D02*
X4543991Y-13192936D01*
X4543991Y-13192936D02*
X4553515Y-13202460D01*
X4553515Y-13202460D02*
X4572562Y-13211984D01*
X4572562Y-13211984D02*
X4610658Y-13211984D01*
X4610658Y-13211984D02*
X4629705Y-13202460D01*
X4629705Y-13202460D02*
X4639229Y-13192936D01*
X4639229Y-13192936D02*
X4648753Y-13173889D01*
X4648753Y-13173889D02*
X4648753Y-13126270D01*
X4648753Y-13126270D02*
X4639229Y-13107222D01*
X4639229Y-13107222D02*
X4629705Y-13097698D01*
X4629705Y-13097698D02*
X4610658Y-13088174D01*
X4610658Y-13088174D02*
X4572562Y-13088174D01*
X4572562Y-13088174D02*
X4553515Y-13097698D01*
X4553515Y-13097698D02*
X4543991Y-13107222D01*
X4543991Y-13107222D02*
X4534467Y-13126270D01*
X4772562Y-13011984D02*
X4791610Y-13011984D01*
X4791610Y-13011984D02*
X4810658Y-13021508D01*
X4810658Y-13021508D02*
X4820182Y-13031031D01*
X4820182Y-13031031D02*
X4829705Y-13050079D01*
X4829705Y-13050079D02*
X4839229Y-13088174D01*
X4839229Y-13088174D02*
X4839229Y-13135793D01*
X4839229Y-13135793D02*
X4829705Y-13173889D01*
X4829705Y-13173889D02*
X4820182Y-13192936D01*
X4820182Y-13192936D02*
X4810658Y-13202460D01*
X4810658Y-13202460D02*
X4791610Y-13211984D01*
X4791610Y-13211984D02*
X4772562Y-13211984D01*
X4772562Y-13211984D02*
X4753515Y-13202460D01*
X4753515Y-13202460D02*
X4743991Y-13192936D01*
X4743991Y-13192936D02*
X4734467Y-13173889D01*
X4734467Y-13173889D02*
X4724943Y-13135793D01*
X4724943Y-13135793D02*
X4724943Y-13088174D01*
X4724943Y-13088174D02*
X4734467Y-13050079D01*
X4734467Y-13050079D02*
X4743991Y-13031031D01*
X4743991Y-13031031D02*
X4753515Y-13021508D01*
X4753515Y-13021508D02*
X4772562Y-13011984D01*
X4963039Y-13011984D02*
X4982086Y-13011984D01*
X4982086Y-13011984D02*
X5001134Y-13021508D01*
X5001134Y-13021508D02*
X5010658Y-13031031D01*
X5010658Y-13031031D02*
X5020182Y-13050079D01*
X5020182Y-13050079D02*
X5029705Y-13088174D01*
X5029705Y-13088174D02*
X5029705Y-13135793D01*
X5029705Y-13135793D02*
X5020182Y-13173889D01*
X5020182Y-13173889D02*
X5010658Y-13192936D01*
X5010658Y-13192936D02*
X5001134Y-13202460D01*
X5001134Y-13202460D02*
X4982086Y-13211984D01*
X4982086Y-13211984D02*
X4963039Y-13211984D01*
X4963039Y-13211984D02*
X4943991Y-13202460D01*
X4943991Y-13202460D02*
X4934467Y-13192936D01*
X4934467Y-13192936D02*
X4924943Y-13173889D01*
X4924943Y-13173889D02*
X4915420Y-13135793D01*
X4915420Y-13135793D02*
X4915420Y-13088174D01*
X4915420Y-13088174D02*
X4924943Y-13050079D01*
X4924943Y-13050079D02*
X4934467Y-13031031D01*
X4934467Y-13031031D02*
X4943991Y-13021508D01*
X4943991Y-13021508D02*
X4963039Y-13011984D01*
X5115420Y-13211984D02*
X5115420Y-13078650D01*
X5115420Y-13097698D02*
X5124943Y-13088174D01*
X5124943Y-13088174D02*
X5143991Y-13078650D01*
X5143991Y-13078650D02*
X5172563Y-13078650D01*
X5172563Y-13078650D02*
X5191610Y-13088174D01*
X5191610Y-13088174D02*
X5201134Y-13107222D01*
X5201134Y-13107222D02*
X5201134Y-13211984D01*
X5201134Y-13107222D02*
X5210658Y-13088174D01*
X5210658Y-13088174D02*
X5229705Y-13078650D01*
X5229705Y-13078650D02*
X5258277Y-13078650D01*
X5258277Y-13078650D02*
X5277324Y-13088174D01*
X5277324Y-13088174D02*
X5286848Y-13107222D01*
X5286848Y-13107222D02*
X5286848Y-13211984D01*
X5382086Y-13211984D02*
X5382086Y-13078650D01*
X5382086Y-13097698D02*
X5391610Y-13088174D01*
X5391610Y-13088174D02*
X5410658Y-13078650D01*
X5410658Y-13078650D02*
X5439229Y-13078650D01*
X5439229Y-13078650D02*
X5458277Y-13088174D01*
X5458277Y-13088174D02*
X5467801Y-13107222D01*
X5467801Y-13107222D02*
X5467801Y-13211984D01*
X5467801Y-13107222D02*
X5477324Y-13088174D01*
X5477324Y-13088174D02*
X5496372Y-13078650D01*
X5496372Y-13078650D02*
X5524943Y-13078650D01*
X5524943Y-13078650D02*
X5543991Y-13088174D01*
X5543991Y-13088174D02*
X5553515Y-13107222D01*
X5553515Y-13107222D02*
X5553515Y-13211984D01*
X5943991Y-13002460D02*
X5772563Y-13259603D01*
X6201134Y-13011984D02*
X6220182Y-13011984D01*
X6220182Y-13011984D02*
X6239229Y-13021508D01*
X6239229Y-13021508D02*
X6248753Y-13031031D01*
X6248753Y-13031031D02*
X6258277Y-13050079D01*
X6258277Y-13050079D02*
X6267801Y-13088174D01*
X6267801Y-13088174D02*
X6267801Y-13135793D01*
X6267801Y-13135793D02*
X6258277Y-13173889D01*
X6258277Y-13173889D02*
X6248753Y-13192936D01*
X6248753Y-13192936D02*
X6239229Y-13202460D01*
X6239229Y-13202460D02*
X6220182Y-13211984D01*
X6220182Y-13211984D02*
X6201134Y-13211984D01*
X6201134Y-13211984D02*
X6182086Y-13202460D01*
X6182086Y-13202460D02*
X6172563Y-13192936D01*
X6172563Y-13192936D02*
X6163039Y-13173889D01*
X6163039Y-13173889D02*
X6153515Y-13135793D01*
X6153515Y-13135793D02*
X6153515Y-13088174D01*
X6153515Y-13088174D02*
X6163039Y-13050079D01*
X6163039Y-13050079D02*
X6172563Y-13031031D01*
X6172563Y-13031031D02*
X6182086Y-13021508D01*
X6182086Y-13021508D02*
X6201134Y-13011984D01*
X6353515Y-13192936D02*
X6363039Y-13202460D01*
X6363039Y-13202460D02*
X6353515Y-13211984D01*
X6353515Y-13211984D02*
X6343991Y-13202460D01*
X6343991Y-13202460D02*
X6353515Y-13192936D01*
X6353515Y-13192936D02*
X6353515Y-13211984D01*
X6486848Y-13011984D02*
X6505896Y-13011984D01*
X6505896Y-13011984D02*
X6524944Y-13021508D01*
X6524944Y-13021508D02*
X6534467Y-13031031D01*
X6534467Y-13031031D02*
X6543991Y-13050079D01*
X6543991Y-13050079D02*
X6553515Y-13088174D01*
X6553515Y-13088174D02*
X6553515Y-13135793D01*
X6553515Y-13135793D02*
X6543991Y-13173889D01*
X6543991Y-13173889D02*
X6534467Y-13192936D01*
X6534467Y-13192936D02*
X6524944Y-13202460D01*
X6524944Y-13202460D02*
X6505896Y-13211984D01*
X6505896Y-13211984D02*
X6486848Y-13211984D01*
X6486848Y-13211984D02*
X6467801Y-13202460D01*
X6467801Y-13202460D02*
X6458277Y-13192936D01*
X6458277Y-13192936D02*
X6448753Y-13173889D01*
X6448753Y-13173889D02*
X6439229Y-13135793D01*
X6439229Y-13135793D02*
X6439229Y-13088174D01*
X6439229Y-13088174D02*
X6448753Y-13050079D01*
X6448753Y-13050079D02*
X6458277Y-13031031D01*
X6458277Y-13031031D02*
X6467801Y-13021508D01*
X6467801Y-13021508D02*
X6486848Y-13011984D01*
X6724944Y-13011984D02*
X6686848Y-13011984D01*
X6686848Y-13011984D02*
X6667801Y-13021508D01*
X6667801Y-13021508D02*
X6658277Y-13031031D01*
X6658277Y-13031031D02*
X6639229Y-13059603D01*
X6639229Y-13059603D02*
X6629705Y-13097698D01*
X6629705Y-13097698D02*
X6629705Y-13173889D01*
X6629705Y-13173889D02*
X6639229Y-13192936D01*
X6639229Y-13192936D02*
X6648753Y-13202460D01*
X6648753Y-13202460D02*
X6667801Y-13211984D01*
X6667801Y-13211984D02*
X6705896Y-13211984D01*
X6705896Y-13211984D02*
X6724944Y-13202460D01*
X6724944Y-13202460D02*
X6734467Y-13192936D01*
X6734467Y-13192936D02*
X6743991Y-13173889D01*
X6743991Y-13173889D02*
X6743991Y-13126270D01*
X6743991Y-13126270D02*
X6734467Y-13107222D01*
X6734467Y-13107222D02*
X6724944Y-13097698D01*
X6724944Y-13097698D02*
X6705896Y-13088174D01*
X6705896Y-13088174D02*
X6667801Y-13088174D01*
X6667801Y-13088174D02*
X6648753Y-13097698D01*
X6648753Y-13097698D02*
X6639229Y-13107222D01*
X6639229Y-13107222D02*
X6629705Y-13126270D01*
X6810658Y-13011984D02*
X6934467Y-13011984D01*
X6934467Y-13011984D02*
X6867801Y-13088174D01*
X6867801Y-13088174D02*
X6896372Y-13088174D01*
X6896372Y-13088174D02*
X6915420Y-13097698D01*
X6915420Y-13097698D02*
X6924944Y-13107222D01*
X6924944Y-13107222D02*
X6934467Y-13126270D01*
X6934467Y-13126270D02*
X6934467Y-13173889D01*
X6934467Y-13173889D02*
X6924944Y-13192936D01*
X6924944Y-13192936D02*
X6915420Y-13202460D01*
X6915420Y-13202460D02*
X6896372Y-13211984D01*
X6896372Y-13211984D02*
X6839229Y-13211984D01*
X6839229Y-13211984D02*
X6820182Y-13202460D01*
X6820182Y-13202460D02*
X6810658Y-13192936D01*
X7058277Y-13011984D02*
X7077325Y-13011984D01*
X7077325Y-13011984D02*
X7096372Y-13021508D01*
X7096372Y-13021508D02*
X7105896Y-13031031D01*
X7105896Y-13031031D02*
X7115420Y-13050079D01*
X7115420Y-13050079D02*
X7124944Y-13088174D01*
X7124944Y-13088174D02*
X7124944Y-13135793D01*
X7124944Y-13135793D02*
X7115420Y-13173889D01*
X7115420Y-13173889D02*
X7105896Y-13192936D01*
X7105896Y-13192936D02*
X7096372Y-13202460D01*
X7096372Y-13202460D02*
X7077325Y-13211984D01*
X7077325Y-13211984D02*
X7058277Y-13211984D01*
X7058277Y-13211984D02*
X7039229Y-13202460D01*
X7039229Y-13202460D02*
X7029705Y-13192936D01*
X7029705Y-13192936D02*
X7020182Y-13173889D01*
X7020182Y-13173889D02*
X7010658Y-13135793D01*
X7010658Y-13135793D02*
X7010658Y-13088174D01*
X7010658Y-13088174D02*
X7020182Y-13050079D01*
X7020182Y-13050079D02*
X7029705Y-13031031D01*
X7029705Y-13031031D02*
X7039229Y-13021508D01*
X7039229Y-13021508D02*
X7058277Y-13011984D01*
X7201134Y-13011984D02*
X7201134Y-13050079D01*
X7277325Y-13011984D02*
X7277325Y-13050079D01*
X7572563Y-13288174D02*
X7563039Y-13278650D01*
X7563039Y-13278650D02*
X7543991Y-13250079D01*
X7543991Y-13250079D02*
X7534467Y-13231031D01*
X7534467Y-13231031D02*
X7524944Y-13202460D01*
X7524944Y-13202460D02*
X7515420Y-13154841D01*
X7515420Y-13154841D02*
X7515420Y-13116746D01*
X7515420Y-13116746D02*
X7524944Y-13069127D01*
X7524944Y-13069127D02*
X7534467Y-13040555D01*
X7534467Y-13040555D02*
X7543991Y-13021508D01*
X7543991Y-13021508D02*
X7563039Y-12992936D01*
X7563039Y-12992936D02*
X7572563Y-12983412D01*
X7639229Y-13031031D02*
X7648753Y-13021508D01*
X7648753Y-13021508D02*
X7667801Y-13011984D01*
X7667801Y-13011984D02*
X7715420Y-13011984D01*
X7715420Y-13011984D02*
X7734467Y-13021508D01*
X7734467Y-13021508D02*
X7743991Y-13031031D01*
X7743991Y-13031031D02*
X7753515Y-13050079D01*
X7753515Y-13050079D02*
X7753515Y-13069127D01*
X7753515Y-13069127D02*
X7743991Y-13097698D01*
X7743991Y-13097698D02*
X7629706Y-13211984D01*
X7629706Y-13211984D02*
X7753515Y-13211984D01*
X7991610Y-13211984D02*
X7991610Y-13011984D01*
X8077325Y-13211984D02*
X8077325Y-13107222D01*
X8077325Y-13107222D02*
X8067801Y-13088174D01*
X8067801Y-13088174D02*
X8048753Y-13078650D01*
X8048753Y-13078650D02*
X8020182Y-13078650D01*
X8020182Y-13078650D02*
X8001134Y-13088174D01*
X8001134Y-13088174D02*
X7991610Y-13097698D01*
X8201134Y-13211984D02*
X8182087Y-13202460D01*
X8182087Y-13202460D02*
X8172563Y-13192936D01*
X8172563Y-13192936D02*
X8163039Y-13173889D01*
X8163039Y-13173889D02*
X8163039Y-13116746D01*
X8163039Y-13116746D02*
X8172563Y-13097698D01*
X8172563Y-13097698D02*
X8182087Y-13088174D01*
X8182087Y-13088174D02*
X8201134Y-13078650D01*
X8201134Y-13078650D02*
X8229706Y-13078650D01*
X8229706Y-13078650D02*
X8248753Y-13088174D01*
X8248753Y-13088174D02*
X8258277Y-13097698D01*
X8258277Y-13097698D02*
X8267801Y-13116746D01*
X8267801Y-13116746D02*
X8267801Y-13173889D01*
X8267801Y-13173889D02*
X8258277Y-13192936D01*
X8258277Y-13192936D02*
X8248753Y-13202460D01*
X8248753Y-13202460D02*
X8229706Y-13211984D01*
X8229706Y-13211984D02*
X8201134Y-13211984D01*
X8382087Y-13211984D02*
X8363039Y-13202460D01*
X8363039Y-13202460D02*
X8353515Y-13183412D01*
X8353515Y-13183412D02*
X8353515Y-13011984D01*
X8534468Y-13202460D02*
X8515420Y-13211984D01*
X8515420Y-13211984D02*
X8477325Y-13211984D01*
X8477325Y-13211984D02*
X8458277Y-13202460D01*
X8458277Y-13202460D02*
X8448753Y-13183412D01*
X8448753Y-13183412D02*
X8448753Y-13107222D01*
X8448753Y-13107222D02*
X8458277Y-13088174D01*
X8458277Y-13088174D02*
X8477325Y-13078650D01*
X8477325Y-13078650D02*
X8515420Y-13078650D01*
X8515420Y-13078650D02*
X8534468Y-13088174D01*
X8534468Y-13088174D02*
X8543991Y-13107222D01*
X8543991Y-13107222D02*
X8543991Y-13126270D01*
X8543991Y-13126270D02*
X8448753Y-13145317D01*
X8620182Y-13202460D02*
X8639230Y-13211984D01*
X8639230Y-13211984D02*
X8677325Y-13211984D01*
X8677325Y-13211984D02*
X8696372Y-13202460D01*
X8696372Y-13202460D02*
X8705896Y-13183412D01*
X8705896Y-13183412D02*
X8705896Y-13173889D01*
X8705896Y-13173889D02*
X8696372Y-13154841D01*
X8696372Y-13154841D02*
X8677325Y-13145317D01*
X8677325Y-13145317D02*
X8648753Y-13145317D01*
X8648753Y-13145317D02*
X8629706Y-13135793D01*
X8629706Y-13135793D02*
X8620182Y-13116746D01*
X8620182Y-13116746D02*
X8620182Y-13107222D01*
X8620182Y-13107222D02*
X8629706Y-13088174D01*
X8629706Y-13088174D02*
X8648753Y-13078650D01*
X8648753Y-13078650D02*
X8677325Y-13078650D01*
X8677325Y-13078650D02*
X8696372Y-13088174D01*
X8772563Y-13288174D02*
X8782087Y-13278650D01*
X8782087Y-13278650D02*
X8801134Y-13250079D01*
X8801134Y-13250079D02*
X8810658Y-13231031D01*
X8810658Y-13231031D02*
X8820182Y-13202460D01*
X8820182Y-13202460D02*
X8829706Y-13154841D01*
X8829706Y-13154841D02*
X8829706Y-13116746D01*
X8829706Y-13116746D02*
X8820182Y-13069127D01*
X8820182Y-13069127D02*
X8810658Y-13040555D01*
X8810658Y-13040555D02*
X8801134Y-13021508D01*
X8801134Y-13021508D02*
X8782087Y-12992936D01*
X8782087Y-12992936D02*
X8772563Y-12983412D01*
X9134468Y-13288174D02*
X9124944Y-13278650D01*
X9124944Y-13278650D02*
X9105896Y-13250079D01*
X9105896Y-13250079D02*
X9096372Y-13231031D01*
X9096372Y-13231031D02*
X9086849Y-13202460D01*
X9086849Y-13202460D02*
X9077325Y-13154841D01*
X9077325Y-13154841D02*
X9077325Y-13116746D01*
X9077325Y-13116746D02*
X9086849Y-13069127D01*
X9086849Y-13069127D02*
X9096372Y-13040555D01*
X9096372Y-13040555D02*
X9105896Y-13021508D01*
X9105896Y-13021508D02*
X9124944Y-12992936D01*
X9124944Y-12992936D02*
X9134468Y-12983412D01*
X9210658Y-13078650D02*
X9210658Y-13211984D01*
X9210658Y-13097698D02*
X9220182Y-13088174D01*
X9220182Y-13088174D02*
X9239230Y-13078650D01*
X9239230Y-13078650D02*
X9267801Y-13078650D01*
X9267801Y-13078650D02*
X9286849Y-13088174D01*
X9286849Y-13088174D02*
X9296372Y-13107222D01*
X9296372Y-13107222D02*
X9296372Y-13211984D01*
X9420182Y-13211984D02*
X9401134Y-13202460D01*
X9401134Y-13202460D02*
X9391611Y-13192936D01*
X9391611Y-13192936D02*
X9382087Y-13173889D01*
X9382087Y-13173889D02*
X9382087Y-13116746D01*
X9382087Y-13116746D02*
X9391611Y-13097698D01*
X9391611Y-13097698D02*
X9401134Y-13088174D01*
X9401134Y-13088174D02*
X9420182Y-13078650D01*
X9420182Y-13078650D02*
X9448753Y-13078650D01*
X9448753Y-13078650D02*
X9467801Y-13088174D01*
X9467801Y-13088174D02*
X9477325Y-13097698D01*
X9477325Y-13097698D02*
X9486849Y-13116746D01*
X9486849Y-13116746D02*
X9486849Y-13173889D01*
X9486849Y-13173889D02*
X9477325Y-13192936D01*
X9477325Y-13192936D02*
X9467801Y-13202460D01*
X9467801Y-13202460D02*
X9448753Y-13211984D01*
X9448753Y-13211984D02*
X9420182Y-13211984D01*
X9543992Y-13078650D02*
X9620182Y-13078650D01*
X9572563Y-13011984D02*
X9572563Y-13183412D01*
X9572563Y-13183412D02*
X9582087Y-13202460D01*
X9582087Y-13202460D02*
X9601134Y-13211984D01*
X9601134Y-13211984D02*
X9620182Y-13211984D01*
X9839230Y-13078650D02*
X9839230Y-13278650D01*
X9839230Y-13088174D02*
X9858277Y-13078650D01*
X9858277Y-13078650D02*
X9896373Y-13078650D01*
X9896373Y-13078650D02*
X9915420Y-13088174D01*
X9915420Y-13088174D02*
X9924944Y-13097698D01*
X9924944Y-13097698D02*
X9934468Y-13116746D01*
X9934468Y-13116746D02*
X9934468Y-13173889D01*
X9934468Y-13173889D02*
X9924944Y-13192936D01*
X9924944Y-13192936D02*
X9915420Y-13202460D01*
X9915420Y-13202460D02*
X9896373Y-13211984D01*
X9896373Y-13211984D02*
X9858277Y-13211984D01*
X9858277Y-13211984D02*
X9839230Y-13202460D01*
X10048753Y-13211984D02*
X10029706Y-13202460D01*
X10029706Y-13202460D02*
X10020182Y-13183412D01*
X10020182Y-13183412D02*
X10020182Y-13011984D01*
X10210658Y-13211984D02*
X10210658Y-13107222D01*
X10210658Y-13107222D02*
X10201134Y-13088174D01*
X10201134Y-13088174D02*
X10182087Y-13078650D01*
X10182087Y-13078650D02*
X10143992Y-13078650D01*
X10143992Y-13078650D02*
X10124944Y-13088174D01*
X10210658Y-13202460D02*
X10191611Y-13211984D01*
X10191611Y-13211984D02*
X10143992Y-13211984D01*
X10143992Y-13211984D02*
X10124944Y-13202460D01*
X10124944Y-13202460D02*
X10115420Y-13183412D01*
X10115420Y-13183412D02*
X10115420Y-13164365D01*
X10115420Y-13164365D02*
X10124944Y-13145317D01*
X10124944Y-13145317D02*
X10143992Y-13135793D01*
X10143992Y-13135793D02*
X10191611Y-13135793D01*
X10191611Y-13135793D02*
X10210658Y-13126270D01*
X10277325Y-13078650D02*
X10353515Y-13078650D01*
X10305896Y-13011984D02*
X10305896Y-13183412D01*
X10305896Y-13183412D02*
X10315420Y-13202460D01*
X10315420Y-13202460D02*
X10334468Y-13211984D01*
X10334468Y-13211984D02*
X10353515Y-13211984D01*
X10496373Y-13202460D02*
X10477325Y-13211984D01*
X10477325Y-13211984D02*
X10439230Y-13211984D01*
X10439230Y-13211984D02*
X10420182Y-13202460D01*
X10420182Y-13202460D02*
X10410658Y-13183412D01*
X10410658Y-13183412D02*
X10410658Y-13107222D01*
X10410658Y-13107222D02*
X10420182Y-13088174D01*
X10420182Y-13088174D02*
X10439230Y-13078650D01*
X10439230Y-13078650D02*
X10477325Y-13078650D01*
X10477325Y-13078650D02*
X10496373Y-13088174D01*
X10496373Y-13088174D02*
X10505896Y-13107222D01*
X10505896Y-13107222D02*
X10505896Y-13126270D01*
X10505896Y-13126270D02*
X10410658Y-13145317D01*
X10677325Y-13211984D02*
X10677325Y-13011984D01*
X10677325Y-13202460D02*
X10658277Y-13211984D01*
X10658277Y-13211984D02*
X10620182Y-13211984D01*
X10620182Y-13211984D02*
X10601134Y-13202460D01*
X10601134Y-13202460D02*
X10591611Y-13192936D01*
X10591611Y-13192936D02*
X10582087Y-13173889D01*
X10582087Y-13173889D02*
X10582087Y-13116746D01*
X10582087Y-13116746D02*
X10591611Y-13097698D01*
X10591611Y-13097698D02*
X10601134Y-13088174D01*
X10601134Y-13088174D02*
X10620182Y-13078650D01*
X10620182Y-13078650D02*
X10658277Y-13078650D01*
X10658277Y-13078650D02*
X10677325Y-13088174D01*
X10753515Y-13288174D02*
X10763039Y-13278650D01*
X10763039Y-13278650D02*
X10782087Y-13250079D01*
X10782087Y-13250079D02*
X10791611Y-13231031D01*
X10791611Y-13231031D02*
X10801134Y-13202460D01*
X10801134Y-13202460D02*
X10810658Y-13154841D01*
X10810658Y-13154841D02*
X10810658Y-13116746D01*
X10810658Y-13116746D02*
X10801134Y-13069127D01*
X10801134Y-13069127D02*
X10791611Y-13040555D01*
X10791611Y-13040555D02*
X10782087Y-13021508D01*
X10782087Y-13021508D02*
X10763039Y-12992936D01*
X10763039Y-12992936D02*
X10753515Y-12983412D01*
X3968211Y-13471211D02*
X3968211Y-13329789D01*
X3826788Y-13329789D01*
X3826788Y-13471211D01*
X3968211Y-13471211D01*
X4248753Y-13311031D02*
X4258277Y-13301508D01*
X4258277Y-13301508D02*
X4277324Y-13291984D01*
X4277324Y-13291984D02*
X4324943Y-13291984D01*
X4324943Y-13291984D02*
X4343991Y-13301508D01*
X4343991Y-13301508D02*
X4353515Y-13311031D01*
X4353515Y-13311031D02*
X4363039Y-13330079D01*
X4363039Y-13330079D02*
X4363039Y-13349127D01*
X4363039Y-13349127D02*
X4353515Y-13377698D01*
X4353515Y-13377698D02*
X4239229Y-13491984D01*
X4239229Y-13491984D02*
X4363039Y-13491984D01*
X4448753Y-13472936D02*
X4458277Y-13482460D01*
X4458277Y-13482460D02*
X4448753Y-13491984D01*
X4448753Y-13491984D02*
X4439229Y-13482460D01*
X4439229Y-13482460D02*
X4448753Y-13472936D01*
X4448753Y-13472936D02*
X4448753Y-13491984D01*
X4534467Y-13311031D02*
X4543991Y-13301508D01*
X4543991Y-13301508D02*
X4563039Y-13291984D01*
X4563039Y-13291984D02*
X4610658Y-13291984D01*
X4610658Y-13291984D02*
X4629705Y-13301508D01*
X4629705Y-13301508D02*
X4639229Y-13311031D01*
X4639229Y-13311031D02*
X4648753Y-13330079D01*
X4648753Y-13330079D02*
X4648753Y-13349127D01*
X4648753Y-13349127D02*
X4639229Y-13377698D01*
X4639229Y-13377698D02*
X4524943Y-13491984D01*
X4524943Y-13491984D02*
X4648753Y-13491984D01*
X4772562Y-13291984D02*
X4791610Y-13291984D01*
X4791610Y-13291984D02*
X4810658Y-13301508D01*
X4810658Y-13301508D02*
X4820182Y-13311031D01*
X4820182Y-13311031D02*
X4829705Y-13330079D01*
X4829705Y-13330079D02*
X4839229Y-13368174D01*
X4839229Y-13368174D02*
X4839229Y-13415793D01*
X4839229Y-13415793D02*
X4829705Y-13453889D01*
X4829705Y-13453889D02*
X4820182Y-13472936D01*
X4820182Y-13472936D02*
X4810658Y-13482460D01*
X4810658Y-13482460D02*
X4791610Y-13491984D01*
X4791610Y-13491984D02*
X4772562Y-13491984D01*
X4772562Y-13491984D02*
X4753515Y-13482460D01*
X4753515Y-13482460D02*
X4743991Y-13472936D01*
X4743991Y-13472936D02*
X4734467Y-13453889D01*
X4734467Y-13453889D02*
X4724943Y-13415793D01*
X4724943Y-13415793D02*
X4724943Y-13368174D01*
X4724943Y-13368174D02*
X4734467Y-13330079D01*
X4734467Y-13330079D02*
X4743991Y-13311031D01*
X4743991Y-13311031D02*
X4753515Y-13301508D01*
X4753515Y-13301508D02*
X4772562Y-13291984D01*
X4963039Y-13291984D02*
X4982086Y-13291984D01*
X4982086Y-13291984D02*
X5001134Y-13301508D01*
X5001134Y-13301508D02*
X5010658Y-13311031D01*
X5010658Y-13311031D02*
X5020182Y-13330079D01*
X5020182Y-13330079D02*
X5029705Y-13368174D01*
X5029705Y-13368174D02*
X5029705Y-13415793D01*
X5029705Y-13415793D02*
X5020182Y-13453889D01*
X5020182Y-13453889D02*
X5010658Y-13472936D01*
X5010658Y-13472936D02*
X5001134Y-13482460D01*
X5001134Y-13482460D02*
X4982086Y-13491984D01*
X4982086Y-13491984D02*
X4963039Y-13491984D01*
X4963039Y-13491984D02*
X4943991Y-13482460D01*
X4943991Y-13482460D02*
X4934467Y-13472936D01*
X4934467Y-13472936D02*
X4924943Y-13453889D01*
X4924943Y-13453889D02*
X4915420Y-13415793D01*
X4915420Y-13415793D02*
X4915420Y-13368174D01*
X4915420Y-13368174D02*
X4924943Y-13330079D01*
X4924943Y-13330079D02*
X4934467Y-13311031D01*
X4934467Y-13311031D02*
X4943991Y-13301508D01*
X4943991Y-13301508D02*
X4963039Y-13291984D01*
X5115420Y-13491984D02*
X5115420Y-13358650D01*
X5115420Y-13377698D02*
X5124943Y-13368174D01*
X5124943Y-13368174D02*
X5143991Y-13358650D01*
X5143991Y-13358650D02*
X5172563Y-13358650D01*
X5172563Y-13358650D02*
X5191610Y-13368174D01*
X5191610Y-13368174D02*
X5201134Y-13387222D01*
X5201134Y-13387222D02*
X5201134Y-13491984D01*
X5201134Y-13387222D02*
X5210658Y-13368174D01*
X5210658Y-13368174D02*
X5229705Y-13358650D01*
X5229705Y-13358650D02*
X5258277Y-13358650D01*
X5258277Y-13358650D02*
X5277324Y-13368174D01*
X5277324Y-13368174D02*
X5286848Y-13387222D01*
X5286848Y-13387222D02*
X5286848Y-13491984D01*
X5382086Y-13491984D02*
X5382086Y-13358650D01*
X5382086Y-13377698D02*
X5391610Y-13368174D01*
X5391610Y-13368174D02*
X5410658Y-13358650D01*
X5410658Y-13358650D02*
X5439229Y-13358650D01*
X5439229Y-13358650D02*
X5458277Y-13368174D01*
X5458277Y-13368174D02*
X5467801Y-13387222D01*
X5467801Y-13387222D02*
X5467801Y-13491984D01*
X5467801Y-13387222D02*
X5477324Y-13368174D01*
X5477324Y-13368174D02*
X5496372Y-13358650D01*
X5496372Y-13358650D02*
X5524943Y-13358650D01*
X5524943Y-13358650D02*
X5543991Y-13368174D01*
X5543991Y-13368174D02*
X5553515Y-13387222D01*
X5553515Y-13387222D02*
X5553515Y-13491984D01*
X5943991Y-13282460D02*
X5772563Y-13539603D01*
X6201134Y-13291984D02*
X6220182Y-13291984D01*
X6220182Y-13291984D02*
X6239229Y-13301508D01*
X6239229Y-13301508D02*
X6248753Y-13311031D01*
X6248753Y-13311031D02*
X6258277Y-13330079D01*
X6258277Y-13330079D02*
X6267801Y-13368174D01*
X6267801Y-13368174D02*
X6267801Y-13415793D01*
X6267801Y-13415793D02*
X6258277Y-13453889D01*
X6258277Y-13453889D02*
X6248753Y-13472936D01*
X6248753Y-13472936D02*
X6239229Y-13482460D01*
X6239229Y-13482460D02*
X6220182Y-13491984D01*
X6220182Y-13491984D02*
X6201134Y-13491984D01*
X6201134Y-13491984D02*
X6182086Y-13482460D01*
X6182086Y-13482460D02*
X6172563Y-13472936D01*
X6172563Y-13472936D02*
X6163039Y-13453889D01*
X6163039Y-13453889D02*
X6153515Y-13415793D01*
X6153515Y-13415793D02*
X6153515Y-13368174D01*
X6153515Y-13368174D02*
X6163039Y-13330079D01*
X6163039Y-13330079D02*
X6172563Y-13311031D01*
X6172563Y-13311031D02*
X6182086Y-13301508D01*
X6182086Y-13301508D02*
X6201134Y-13291984D01*
X6353515Y-13472936D02*
X6363039Y-13482460D01*
X6363039Y-13482460D02*
X6353515Y-13491984D01*
X6353515Y-13491984D02*
X6343991Y-13482460D01*
X6343991Y-13482460D02*
X6353515Y-13472936D01*
X6353515Y-13472936D02*
X6353515Y-13491984D01*
X6486848Y-13291984D02*
X6505896Y-13291984D01*
X6505896Y-13291984D02*
X6524944Y-13301508D01*
X6524944Y-13301508D02*
X6534467Y-13311031D01*
X6534467Y-13311031D02*
X6543991Y-13330079D01*
X6543991Y-13330079D02*
X6553515Y-13368174D01*
X6553515Y-13368174D02*
X6553515Y-13415793D01*
X6553515Y-13415793D02*
X6543991Y-13453889D01*
X6543991Y-13453889D02*
X6534467Y-13472936D01*
X6534467Y-13472936D02*
X6524944Y-13482460D01*
X6524944Y-13482460D02*
X6505896Y-13491984D01*
X6505896Y-13491984D02*
X6486848Y-13491984D01*
X6486848Y-13491984D02*
X6467801Y-13482460D01*
X6467801Y-13482460D02*
X6458277Y-13472936D01*
X6458277Y-13472936D02*
X6448753Y-13453889D01*
X6448753Y-13453889D02*
X6439229Y-13415793D01*
X6439229Y-13415793D02*
X6439229Y-13368174D01*
X6439229Y-13368174D02*
X6448753Y-13330079D01*
X6448753Y-13330079D02*
X6458277Y-13311031D01*
X6458277Y-13311031D02*
X6467801Y-13301508D01*
X6467801Y-13301508D02*
X6486848Y-13291984D01*
X6667801Y-13377698D02*
X6648753Y-13368174D01*
X6648753Y-13368174D02*
X6639229Y-13358650D01*
X6639229Y-13358650D02*
X6629705Y-13339603D01*
X6629705Y-13339603D02*
X6629705Y-13330079D01*
X6629705Y-13330079D02*
X6639229Y-13311031D01*
X6639229Y-13311031D02*
X6648753Y-13301508D01*
X6648753Y-13301508D02*
X6667801Y-13291984D01*
X6667801Y-13291984D02*
X6705896Y-13291984D01*
X6705896Y-13291984D02*
X6724944Y-13301508D01*
X6724944Y-13301508D02*
X6734467Y-13311031D01*
X6734467Y-13311031D02*
X6743991Y-13330079D01*
X6743991Y-13330079D02*
X6743991Y-13339603D01*
X6743991Y-13339603D02*
X6734467Y-13358650D01*
X6734467Y-13358650D02*
X6724944Y-13368174D01*
X6724944Y-13368174D02*
X6705896Y-13377698D01*
X6705896Y-13377698D02*
X6667801Y-13377698D01*
X6667801Y-13377698D02*
X6648753Y-13387222D01*
X6648753Y-13387222D02*
X6639229Y-13396746D01*
X6639229Y-13396746D02*
X6629705Y-13415793D01*
X6629705Y-13415793D02*
X6629705Y-13453889D01*
X6629705Y-13453889D02*
X6639229Y-13472936D01*
X6639229Y-13472936D02*
X6648753Y-13482460D01*
X6648753Y-13482460D02*
X6667801Y-13491984D01*
X6667801Y-13491984D02*
X6705896Y-13491984D01*
X6705896Y-13491984D02*
X6724944Y-13482460D01*
X6724944Y-13482460D02*
X6734467Y-13472936D01*
X6734467Y-13472936D02*
X6743991Y-13453889D01*
X6743991Y-13453889D02*
X6743991Y-13415793D01*
X6743991Y-13415793D02*
X6734467Y-13396746D01*
X6734467Y-13396746D02*
X6724944Y-13387222D01*
X6724944Y-13387222D02*
X6705896Y-13377698D01*
X6915420Y-13291984D02*
X6877324Y-13291984D01*
X6877324Y-13291984D02*
X6858277Y-13301508D01*
X6858277Y-13301508D02*
X6848753Y-13311031D01*
X6848753Y-13311031D02*
X6829705Y-13339603D01*
X6829705Y-13339603D02*
X6820182Y-13377698D01*
X6820182Y-13377698D02*
X6820182Y-13453889D01*
X6820182Y-13453889D02*
X6829705Y-13472936D01*
X6829705Y-13472936D02*
X6839229Y-13482460D01*
X6839229Y-13482460D02*
X6858277Y-13491984D01*
X6858277Y-13491984D02*
X6896372Y-13491984D01*
X6896372Y-13491984D02*
X6915420Y-13482460D01*
X6915420Y-13482460D02*
X6924944Y-13472936D01*
X6924944Y-13472936D02*
X6934467Y-13453889D01*
X6934467Y-13453889D02*
X6934467Y-13406270D01*
X6934467Y-13406270D02*
X6924944Y-13387222D01*
X6924944Y-13387222D02*
X6915420Y-13377698D01*
X6915420Y-13377698D02*
X6896372Y-13368174D01*
X6896372Y-13368174D02*
X6858277Y-13368174D01*
X6858277Y-13368174D02*
X6839229Y-13377698D01*
X6839229Y-13377698D02*
X6829705Y-13387222D01*
X6829705Y-13387222D02*
X6820182Y-13406270D01*
X7105896Y-13291984D02*
X7067801Y-13291984D01*
X7067801Y-13291984D02*
X7048753Y-13301508D01*
X7048753Y-13301508D02*
X7039229Y-13311031D01*
X7039229Y-13311031D02*
X7020182Y-13339603D01*
X7020182Y-13339603D02*
X7010658Y-13377698D01*
X7010658Y-13377698D02*
X7010658Y-13453889D01*
X7010658Y-13453889D02*
X7020182Y-13472936D01*
X7020182Y-13472936D02*
X7029705Y-13482460D01*
X7029705Y-13482460D02*
X7048753Y-13491984D01*
X7048753Y-13491984D02*
X7086848Y-13491984D01*
X7086848Y-13491984D02*
X7105896Y-13482460D01*
X7105896Y-13482460D02*
X7115420Y-13472936D01*
X7115420Y-13472936D02*
X7124944Y-13453889D01*
X7124944Y-13453889D02*
X7124944Y-13406270D01*
X7124944Y-13406270D02*
X7115420Y-13387222D01*
X7115420Y-13387222D02*
X7105896Y-13377698D01*
X7105896Y-13377698D02*
X7086848Y-13368174D01*
X7086848Y-13368174D02*
X7048753Y-13368174D01*
X7048753Y-13368174D02*
X7029705Y-13377698D01*
X7029705Y-13377698D02*
X7020182Y-13387222D01*
X7020182Y-13387222D02*
X7010658Y-13406270D01*
X7201134Y-13291984D02*
X7201134Y-13330079D01*
X7277325Y-13291984D02*
X7277325Y-13330079D01*
X7572563Y-13568174D02*
X7563039Y-13558650D01*
X7563039Y-13558650D02*
X7543991Y-13530079D01*
X7543991Y-13530079D02*
X7534467Y-13511031D01*
X7534467Y-13511031D02*
X7524944Y-13482460D01*
X7524944Y-13482460D02*
X7515420Y-13434841D01*
X7515420Y-13434841D02*
X7515420Y-13396746D01*
X7515420Y-13396746D02*
X7524944Y-13349127D01*
X7524944Y-13349127D02*
X7534467Y-13320555D01*
X7534467Y-13320555D02*
X7543991Y-13301508D01*
X7543991Y-13301508D02*
X7563039Y-13272936D01*
X7563039Y-13272936D02*
X7572563Y-13263412D01*
X7639229Y-13311031D02*
X7648753Y-13301508D01*
X7648753Y-13301508D02*
X7667801Y-13291984D01*
X7667801Y-13291984D02*
X7715420Y-13291984D01*
X7715420Y-13291984D02*
X7734467Y-13301508D01*
X7734467Y-13301508D02*
X7743991Y-13311031D01*
X7743991Y-13311031D02*
X7753515Y-13330079D01*
X7753515Y-13330079D02*
X7753515Y-13349127D01*
X7753515Y-13349127D02*
X7743991Y-13377698D01*
X7743991Y-13377698D02*
X7629706Y-13491984D01*
X7629706Y-13491984D02*
X7753515Y-13491984D01*
X7991610Y-13491984D02*
X7991610Y-13291984D01*
X8077325Y-13491984D02*
X8077325Y-13387222D01*
X8077325Y-13387222D02*
X8067801Y-13368174D01*
X8067801Y-13368174D02*
X8048753Y-13358650D01*
X8048753Y-13358650D02*
X8020182Y-13358650D01*
X8020182Y-13358650D02*
X8001134Y-13368174D01*
X8001134Y-13368174D02*
X7991610Y-13377698D01*
X8201134Y-13491984D02*
X8182087Y-13482460D01*
X8182087Y-13482460D02*
X8172563Y-13472936D01*
X8172563Y-13472936D02*
X8163039Y-13453889D01*
X8163039Y-13453889D02*
X8163039Y-13396746D01*
X8163039Y-13396746D02*
X8172563Y-13377698D01*
X8172563Y-13377698D02*
X8182087Y-13368174D01*
X8182087Y-13368174D02*
X8201134Y-13358650D01*
X8201134Y-13358650D02*
X8229706Y-13358650D01*
X8229706Y-13358650D02*
X8248753Y-13368174D01*
X8248753Y-13368174D02*
X8258277Y-13377698D01*
X8258277Y-13377698D02*
X8267801Y-13396746D01*
X8267801Y-13396746D02*
X8267801Y-13453889D01*
X8267801Y-13453889D02*
X8258277Y-13472936D01*
X8258277Y-13472936D02*
X8248753Y-13482460D01*
X8248753Y-13482460D02*
X8229706Y-13491984D01*
X8229706Y-13491984D02*
X8201134Y-13491984D01*
X8382087Y-13491984D02*
X8363039Y-13482460D01*
X8363039Y-13482460D02*
X8353515Y-13463412D01*
X8353515Y-13463412D02*
X8353515Y-13291984D01*
X8534468Y-13482460D02*
X8515420Y-13491984D01*
X8515420Y-13491984D02*
X8477325Y-13491984D01*
X8477325Y-13491984D02*
X8458277Y-13482460D01*
X8458277Y-13482460D02*
X8448753Y-13463412D01*
X8448753Y-13463412D02*
X8448753Y-13387222D01*
X8448753Y-13387222D02*
X8458277Y-13368174D01*
X8458277Y-13368174D02*
X8477325Y-13358650D01*
X8477325Y-13358650D02*
X8515420Y-13358650D01*
X8515420Y-13358650D02*
X8534468Y-13368174D01*
X8534468Y-13368174D02*
X8543991Y-13387222D01*
X8543991Y-13387222D02*
X8543991Y-13406270D01*
X8543991Y-13406270D02*
X8448753Y-13425317D01*
X8620182Y-13482460D02*
X8639230Y-13491984D01*
X8639230Y-13491984D02*
X8677325Y-13491984D01*
X8677325Y-13491984D02*
X8696372Y-13482460D01*
X8696372Y-13482460D02*
X8705896Y-13463412D01*
X8705896Y-13463412D02*
X8705896Y-13453889D01*
X8705896Y-13453889D02*
X8696372Y-13434841D01*
X8696372Y-13434841D02*
X8677325Y-13425317D01*
X8677325Y-13425317D02*
X8648753Y-13425317D01*
X8648753Y-13425317D02*
X8629706Y-13415793D01*
X8629706Y-13415793D02*
X8620182Y-13396746D01*
X8620182Y-13396746D02*
X8620182Y-13387222D01*
X8620182Y-13387222D02*
X8629706Y-13368174D01*
X8629706Y-13368174D02*
X8648753Y-13358650D01*
X8648753Y-13358650D02*
X8677325Y-13358650D01*
X8677325Y-13358650D02*
X8696372Y-13368174D01*
X8772563Y-13568174D02*
X8782087Y-13558650D01*
X8782087Y-13558650D02*
X8801134Y-13530079D01*
X8801134Y-13530079D02*
X8810658Y-13511031D01*
X8810658Y-13511031D02*
X8820182Y-13482460D01*
X8820182Y-13482460D02*
X8829706Y-13434841D01*
X8829706Y-13434841D02*
X8829706Y-13396746D01*
X8829706Y-13396746D02*
X8820182Y-13349127D01*
X8820182Y-13349127D02*
X8810658Y-13320555D01*
X8810658Y-13320555D02*
X8801134Y-13301508D01*
X8801134Y-13301508D02*
X8782087Y-13272936D01*
X8782087Y-13272936D02*
X8772563Y-13263412D01*
X9134468Y-13568174D02*
X9124944Y-13558650D01*
X9124944Y-13558650D02*
X9105896Y-13530079D01*
X9105896Y-13530079D02*
X9096372Y-13511031D01*
X9096372Y-13511031D02*
X9086849Y-13482460D01*
X9086849Y-13482460D02*
X9077325Y-13434841D01*
X9077325Y-13434841D02*
X9077325Y-13396746D01*
X9077325Y-13396746D02*
X9086849Y-13349127D01*
X9086849Y-13349127D02*
X9096372Y-13320555D01*
X9096372Y-13320555D02*
X9105896Y-13301508D01*
X9105896Y-13301508D02*
X9124944Y-13272936D01*
X9124944Y-13272936D02*
X9134468Y-13263412D01*
X9210658Y-13358650D02*
X9210658Y-13491984D01*
X9210658Y-13377698D02*
X9220182Y-13368174D01*
X9220182Y-13368174D02*
X9239230Y-13358650D01*
X9239230Y-13358650D02*
X9267801Y-13358650D01*
X9267801Y-13358650D02*
X9286849Y-13368174D01*
X9286849Y-13368174D02*
X9296372Y-13387222D01*
X9296372Y-13387222D02*
X9296372Y-13491984D01*
X9420182Y-13491984D02*
X9401134Y-13482460D01*
X9401134Y-13482460D02*
X9391611Y-13472936D01*
X9391611Y-13472936D02*
X9382087Y-13453889D01*
X9382087Y-13453889D02*
X9382087Y-13396746D01*
X9382087Y-13396746D02*
X9391611Y-13377698D01*
X9391611Y-13377698D02*
X9401134Y-13368174D01*
X9401134Y-13368174D02*
X9420182Y-13358650D01*
X9420182Y-13358650D02*
X9448753Y-13358650D01*
X9448753Y-13358650D02*
X9467801Y-13368174D01*
X9467801Y-13368174D02*
X9477325Y-13377698D01*
X9477325Y-13377698D02*
X9486849Y-13396746D01*
X9486849Y-13396746D02*
X9486849Y-13453889D01*
X9486849Y-13453889D02*
X9477325Y-13472936D01*
X9477325Y-13472936D02*
X9467801Y-13482460D01*
X9467801Y-13482460D02*
X9448753Y-13491984D01*
X9448753Y-13491984D02*
X9420182Y-13491984D01*
X9543992Y-13358650D02*
X9620182Y-13358650D01*
X9572563Y-13291984D02*
X9572563Y-13463412D01*
X9572563Y-13463412D02*
X9582087Y-13482460D01*
X9582087Y-13482460D02*
X9601134Y-13491984D01*
X9601134Y-13491984D02*
X9620182Y-13491984D01*
X9839230Y-13358650D02*
X9839230Y-13558650D01*
X9839230Y-13368174D02*
X9858277Y-13358650D01*
X9858277Y-13358650D02*
X9896373Y-13358650D01*
X9896373Y-13358650D02*
X9915420Y-13368174D01*
X9915420Y-13368174D02*
X9924944Y-13377698D01*
X9924944Y-13377698D02*
X9934468Y-13396746D01*
X9934468Y-13396746D02*
X9934468Y-13453889D01*
X9934468Y-13453889D02*
X9924944Y-13472936D01*
X9924944Y-13472936D02*
X9915420Y-13482460D01*
X9915420Y-13482460D02*
X9896373Y-13491984D01*
X9896373Y-13491984D02*
X9858277Y-13491984D01*
X9858277Y-13491984D02*
X9839230Y-13482460D01*
X10048753Y-13491984D02*
X10029706Y-13482460D01*
X10029706Y-13482460D02*
X10020182Y-13463412D01*
X10020182Y-13463412D02*
X10020182Y-13291984D01*
X10210658Y-13491984D02*
X10210658Y-13387222D01*
X10210658Y-13387222D02*
X10201134Y-13368174D01*
X10201134Y-13368174D02*
X10182087Y-13358650D01*
X10182087Y-13358650D02*
X10143992Y-13358650D01*
X10143992Y-13358650D02*
X10124944Y-13368174D01*
X10210658Y-13482460D02*
X10191611Y-13491984D01*
X10191611Y-13491984D02*
X10143992Y-13491984D01*
X10143992Y-13491984D02*
X10124944Y-13482460D01*
X10124944Y-13482460D02*
X10115420Y-13463412D01*
X10115420Y-13463412D02*
X10115420Y-13444365D01*
X10115420Y-13444365D02*
X10124944Y-13425317D01*
X10124944Y-13425317D02*
X10143992Y-13415793D01*
X10143992Y-13415793D02*
X10191611Y-13415793D01*
X10191611Y-13415793D02*
X10210658Y-13406270D01*
X10277325Y-13358650D02*
X10353515Y-13358650D01*
X10305896Y-13291984D02*
X10305896Y-13463412D01*
X10305896Y-13463412D02*
X10315420Y-13482460D01*
X10315420Y-13482460D02*
X10334468Y-13491984D01*
X10334468Y-13491984D02*
X10353515Y-13491984D01*
X10496373Y-13482460D02*
X10477325Y-13491984D01*
X10477325Y-13491984D02*
X10439230Y-13491984D01*
X10439230Y-13491984D02*
X10420182Y-13482460D01*
X10420182Y-13482460D02*
X10410658Y-13463412D01*
X10410658Y-13463412D02*
X10410658Y-13387222D01*
X10410658Y-13387222D02*
X10420182Y-13368174D01*
X10420182Y-13368174D02*
X10439230Y-13358650D01*
X10439230Y-13358650D02*
X10477325Y-13358650D01*
X10477325Y-13358650D02*
X10496373Y-13368174D01*
X10496373Y-13368174D02*
X10505896Y-13387222D01*
X10505896Y-13387222D02*
X10505896Y-13406270D01*
X10505896Y-13406270D02*
X10410658Y-13425317D01*
X10677325Y-13491984D02*
X10677325Y-13291984D01*
X10677325Y-13482460D02*
X10658277Y-13491984D01*
X10658277Y-13491984D02*
X10620182Y-13491984D01*
X10620182Y-13491984D02*
X10601134Y-13482460D01*
X10601134Y-13482460D02*
X10591611Y-13472936D01*
X10591611Y-13472936D02*
X10582087Y-13453889D01*
X10582087Y-13453889D02*
X10582087Y-13396746D01*
X10582087Y-13396746D02*
X10591611Y-13377698D01*
X10591611Y-13377698D02*
X10601134Y-13368174D01*
X10601134Y-13368174D02*
X10620182Y-13358650D01*
X10620182Y-13358650D02*
X10658277Y-13358650D01*
X10658277Y-13358650D02*
X10677325Y-13368174D01*
X10753515Y-13568174D02*
X10763039Y-13558650D01*
X10763039Y-13558650D02*
X10782087Y-13530079D01*
X10782087Y-13530079D02*
X10791611Y-13511031D01*
X10791611Y-13511031D02*
X10801134Y-13482460D01*
X10801134Y-13482460D02*
X10810658Y-13434841D01*
X10810658Y-13434841D02*
X10810658Y-13396746D01*
X10810658Y-13396746D02*
X10801134Y-13349127D01*
X10801134Y-13349127D02*
X10791611Y-13320555D01*
X10791611Y-13320555D02*
X10782087Y-13301508D01*
X10782087Y-13301508D02*
X10763039Y-13272936D01*
X10763039Y-13272936D02*
X10753515Y-13263412D01*
M02*
