M48
; DRILL file KiCad 10.0.0 date 2026-03-29T18:10:08
; FORMAT={-:-/ absolute / metric / decimal}
; #@! TF.CreationDate,2026-03-29T18:10:08-07:00
; #@! TF.GenerationSoftware,Kicad,Pcbnew,10.0.0
; #@! TF.FileFunction,Plated,1,4,PTH
FMAT,2
METRIC
; #@! TA.AperFunction,Plated,PTH,ViaDrill
T1C0.300
; #@! TA.AperFunction,Plated,PTH,ViaDrill
T2C0.500
; #@! TA.AperFunction,Plated,PTH,ComponentDrill
T3C0.600
%
G90
G05
T1
X36.5Y-57.5
X36.5Y-68.0
X36.5Y-75.0
X37.325Y-60.652
X37.325Y-62.052
X37.325Y-62.752
X37.325Y-61.352
X37.9Y-61.702
X37.9Y-62.402
X38.307Y-65.581
X38.5Y-61.352
X40.375Y-65.578
X40.75Y-59.402
X41.6Y-59.402
X41.9Y-62.762
X42.45Y-59.402
X42.453Y-65.578
X42.5Y-54.0
X42.75Y-66.513
X43.3Y-65.3
X43.5Y-75.0
X43.9Y-64.95
X44.5Y-64.6
X44.5Y-65.3
X45.1Y-64.95
X45.7Y-64.6
X45.7Y-65.3
X46.5Y-61.352
X46.5Y-62.052
X46.5Y-62.752
X46.5Y-63.453
X46.74Y-66.192
X47.1Y-61.703
X47.1Y-62.402
X47.1Y-63.102
X48.0Y-54.0
X48.6Y-59.45
X48.6Y-60.65
X48.95Y-58.85
X48.95Y-60.05
X49.3Y-59.45
X49.3Y-60.65
X49.65Y-58.85
X49.65Y-60.05
X50.0Y-59.45
X50.0Y-60.65
X50.05Y-70.7
X50.375Y-64.0
X50.375Y-63.2
X50.7Y-70.7
X51.8Y-71.35
X52.38Y-68.339
X53.0Y-56.5
X53.4Y-72.575
X53.875Y-70.15
X54.6Y-68.685
X54.825Y-70.15
X55.3Y-72.575
X55.85Y-68.685
X56.1Y-71.825
X57.5Y-73.5
X58.275Y-58.85
X58.275Y-60.05
X58.625Y-59.45
X58.625Y-60.65
X59.0Y-56.5
X59.3Y-70.7
X59.63Y-63.99
X59.63Y-63.19
X59.955Y-70.69
X61.055Y-71.34
X61.635Y-68.329
X62.5Y-54.0
X62.655Y-72.565
X62.9Y-57.7
X63.13Y-70.14
X63.855Y-68.675
X64.08Y-70.14
X64.555Y-72.565
X65.0Y-56.0
X65.105Y-68.675
X65.355Y-71.815
X66.45Y-60.6
X66.45Y-61.85
X67.1Y-57.7
X67.6Y-60.6
X68.55Y-70.7
X68.85Y-60.6
X68.88Y-64.0
X68.88Y-63.2
X68.9Y-61.85
X69.0Y-54.0
X69.205Y-70.7
X70.305Y-71.35
X70.885Y-68.339
X70.9Y-57.7
X71.905Y-72.575
X72.38Y-70.15
X73.0Y-56.0
X73.105Y-68.685
X73.33Y-70.15
X73.805Y-72.575
X74.355Y-68.685
X74.605Y-71.825
X75.1Y-57.7
X75.5Y-54.0
X76.0Y-73.0
X76.775Y-58.85
X76.775Y-60.05
X77.125Y-59.45
X77.8Y-70.7
X78.13Y-64.0
X78.13Y-63.2
X78.455Y-70.7
X79.555Y-71.35
X80.135Y-68.339
X80.5Y-56.5
X81.155Y-72.575
X81.63Y-70.15
X82.0Y-54.0
X82.355Y-68.685
X82.58Y-70.15
X82.9Y-57.7
X83.055Y-72.575
X83.605Y-68.685
X83.855Y-71.825
X85.0Y-56.0
X85.4Y-70.91
X85.74Y-60.5
X85.74Y-61.65
X85.74Y-62.9
X86.14Y-59.2
X86.84Y-64.2
X86.9Y-69.15
X87.1Y-57.7
X88.5Y-54.0
X88.64Y-59.2
X88.79Y-65.325
X88.79Y-66.25
X88.898Y-72.063
X89.49Y-64.3
X89.539Y-71.726
X89.74Y-60.7
X90.025Y-68.713
X90.175Y-72.025
X90.24Y-64.3
X90.475Y-68.177
X90.54Y-61.1
X90.759Y-74.855
X91.09Y-61.75
X91.237Y-74.33
X91.5Y-73.0
X91.877Y-74.679
X92.43Y-74.25
X92.5Y-56.5
X93.349Y-75.001
X93.46Y-65.32
X93.65Y-71.45
X94.115Y-70.255
X94.263Y-59.793
X94.94Y-58.5
X95.34Y-64.65
X95.34Y-65.85
X95.695Y-71.195
X95.935Y-65.27
X96.007Y-72.391
X96.352Y-62.821
X96.5Y-56.5
X96.54Y-64.65
X96.54Y-65.85
X96.94Y-63.2
X97.244Y-73.455
X97.542Y-70.635
X97.633Y-63.1
X97.715Y-58.25
X97.715Y-59.35
X97.72Y-60.31
X98.1Y-71.058
X98.13Y-70.247
X98.138Y-63.585
X98.8Y-74.65
X98.89Y-71.95
X99.84Y-71.95
X100.5Y-56.5
X100.86Y-65.72
X101.585Y-69.55
X102.179Y-74.95
X102.979Y-74.95
X103.365Y-64.8
X103.365Y-68.85
X103.365Y-68.1
X103.374Y-65.53
X103.865Y-61.7
X103.865Y-62.4
X104.5Y-56.5
X105.5Y-60.0
X107.46Y-71.13
X108.11Y-71.13
X108.76Y-71.13
X109.14Y-57.55
X109.375Y-74.0
X109.74Y-59.83
X109.91Y-62.95
X110.0Y-54.0
X110.0Y-66.75
X110.025Y-74.0
X110.5Y-75.0
X110.938Y-61.776
X111.488Y-61.351
X112.15Y-66.75
X113.138Y-62.566
X115.25Y-59.578
X115.5Y-54.0
X115.938Y-63.377
X116.27Y-59.578
X116.738Y-65.651
X119.513Y-61.451
X119.513Y-62.151
X120.113Y-61.801
X120.113Y-62.502
X121.5Y-57.5
X121.5Y-67.5
X121.5Y-75.0
T2
X44.0Y-82.0
X44.0Y-84.0
X44.0Y-86.0
X44.0Y-88.0
X44.0Y-92.0
X44.0Y-94.0
X44.0Y-96.0
X44.0Y-98.0
X44.0Y-110.0
X44.0Y-112.0
X44.0Y-114.0
X44.0Y-116.0
X44.0Y-120.0
X44.0Y-122.0
X44.0Y-124.0
X44.0Y-126.0
X44.0Y-138.0
X44.0Y-140.0
X44.0Y-142.0
X44.0Y-144.0
X44.0Y-148.0
X44.0Y-150.0
X44.0Y-152.0
X44.0Y-154.0
X45.0Y-85.0
X45.0Y-87.0
X45.0Y-89.0
X45.0Y-91.0
X45.0Y-93.0
X45.0Y-95.0
X45.0Y-113.0
X45.0Y-115.0
X45.0Y-117.0
X45.0Y-119.0
X45.0Y-121.0
X45.0Y-123.0
X45.0Y-141.0
X45.0Y-143.0
X45.0Y-145.0
X45.0Y-147.0
X45.0Y-149.0
X45.0Y-151.0
X46.0Y-82.0
X46.0Y-84.0
X46.0Y-86.0
X46.0Y-87.0
X46.0Y-88.0
X46.0Y-89.0
X46.0Y-91.0
X46.0Y-92.0
X46.0Y-93.0
X46.0Y-94.0
X46.0Y-96.0
X46.0Y-98.0
X46.0Y-110.0
X46.0Y-112.0
X46.0Y-114.0
X46.0Y-115.0
X46.0Y-116.0
X46.0Y-117.0
X46.0Y-119.0
X46.0Y-120.0
X46.0Y-121.0
X46.0Y-122.0
X46.0Y-124.0
X46.0Y-126.0
X46.0Y-138.0
X46.0Y-140.0
X46.0Y-142.0
X46.0Y-143.0
X46.0Y-144.0
X46.0Y-145.0
X46.0Y-147.0
X46.0Y-148.0
X46.0Y-149.0
X46.0Y-150.0
X46.0Y-152.0
X46.0Y-154.0
X47.0Y-83.0
X47.0Y-85.0
X47.0Y-87.0
X47.0Y-88.0
X47.0Y-89.0
X47.0Y-91.0
X47.0Y-92.0
X47.0Y-93.0
X47.0Y-95.0
X47.0Y-97.0
X47.0Y-111.0
X47.0Y-113.0
X47.0Y-115.0
X47.0Y-116.0
X47.0Y-117.0
X47.0Y-119.0
X47.0Y-120.0
X47.0Y-121.0
X47.0Y-123.0
X47.0Y-125.0
X47.0Y-139.0
X47.0Y-141.0
X47.0Y-143.0
X47.0Y-144.0
X47.0Y-145.0
X47.0Y-147.0
X47.0Y-148.0
X47.0Y-149.0
X47.0Y-151.0
X47.0Y-153.0
X48.0Y-82.0
X48.0Y-84.0
X48.0Y-85.0
X48.0Y-86.0
X48.0Y-94.0
X48.0Y-95.0
X48.0Y-96.0
X48.0Y-98.0
X48.0Y-110.0
X48.0Y-112.0
X48.0Y-113.0
X48.0Y-114.0
X48.0Y-122.0
X48.0Y-123.0
X48.0Y-124.0
X48.0Y-126.0
X48.0Y-138.0
X48.0Y-140.0
X48.0Y-141.0
X48.0Y-142.0
X48.0Y-150.0
X48.0Y-151.0
X48.0Y-152.0
X48.0Y-154.0
X49.0Y-83.0
X49.0Y-84.0
X49.0Y-96.0
X49.0Y-97.0
X49.0Y-111.0
X49.0Y-112.0
X49.0Y-124.0
X49.0Y-125.0
X49.0Y-139.0
X49.0Y-140.0
X49.0Y-152.0
X49.0Y-153.0
X50.0Y-82.0
X50.0Y-84.0
X50.0Y-96.0
X50.0Y-98.0
X50.0Y-110.0
X50.0Y-112.0
X50.0Y-124.0
X50.0Y-126.0
X50.0Y-138.0
X50.0Y-140.0
X50.0Y-152.0
X50.0Y-154.0
X52.0Y-82.0
X52.0Y-84.0
X52.0Y-96.0
X52.0Y-98.0
X52.0Y-110.0
X52.0Y-112.0
X52.0Y-124.0
X52.0Y-126.0
X52.0Y-138.0
X52.0Y-140.0
X52.0Y-152.0
X52.0Y-154.0
X53.0Y-83.0
X53.0Y-84.0
X53.0Y-96.0
X53.0Y-97.0
X53.0Y-111.0
X53.0Y-112.0
X53.0Y-124.0
X53.0Y-125.0
X53.0Y-139.0
X53.0Y-140.0
X53.0Y-152.0
X53.0Y-153.0
X54.0Y-82.0
X54.0Y-84.0
X54.0Y-85.0
X54.0Y-86.0
X54.0Y-94.0
X54.0Y-95.0
X54.0Y-96.0
X54.0Y-98.0
X54.0Y-110.0
X54.0Y-112.0
X54.0Y-113.0
X54.0Y-114.0
X54.0Y-122.0
X54.0Y-123.0
X54.0Y-124.0
X54.0Y-126.0
X54.0Y-138.0
X54.0Y-140.0
X54.0Y-141.0
X54.0Y-142.0
X54.0Y-150.0
X54.0Y-151.0
X54.0Y-152.0
X54.0Y-154.0
X55.0Y-83.0
X55.0Y-85.0
X55.0Y-87.0
X55.0Y-88.0
X55.0Y-89.0
X55.0Y-91.0
X55.0Y-92.0
X55.0Y-93.0
X55.0Y-95.0
X55.0Y-97.0
X55.0Y-111.0
X55.0Y-113.0
X55.0Y-115.0
X55.0Y-116.0
X55.0Y-117.0
X55.0Y-119.0
X55.0Y-120.0
X55.0Y-121.0
X55.0Y-123.0
X55.0Y-125.0
X55.0Y-139.0
X55.0Y-141.0
X55.0Y-143.0
X55.0Y-144.0
X55.0Y-145.0
X55.0Y-147.0
X55.0Y-148.0
X55.0Y-149.0
X55.0Y-151.0
X55.0Y-153.0
X56.0Y-82.0
X56.0Y-84.0
X56.0Y-86.0
X56.0Y-87.0
X56.0Y-88.0
X56.0Y-89.0
X56.0Y-91.0
X56.0Y-92.0
X56.0Y-93.0
X56.0Y-94.0
X56.0Y-96.0
X56.0Y-98.0
X56.0Y-110.0
X56.0Y-112.0
X56.0Y-114.0
X56.0Y-115.0
X56.0Y-116.0
X56.0Y-117.0
X56.0Y-119.0
X56.0Y-120.0
X56.0Y-121.0
X56.0Y-122.0
X56.0Y-124.0
X56.0Y-126.0
X56.0Y-138.0
X56.0Y-140.0
X56.0Y-142.0
X56.0Y-143.0
X56.0Y-144.0
X56.0Y-145.0
X56.0Y-147.0
X56.0Y-148.0
X56.0Y-149.0
X56.0Y-150.0
X56.0Y-152.0
X56.0Y-154.0
X57.0Y-85.0
X57.0Y-87.0
X57.0Y-89.0
X57.0Y-91.0
X57.0Y-93.0
X57.0Y-95.0
X57.0Y-113.0
X57.0Y-115.0
X57.0Y-117.0
X57.0Y-119.0
X57.0Y-121.0
X57.0Y-123.0
X57.0Y-141.0
X57.0Y-143.0
X57.0Y-145.0
X57.0Y-147.0
X57.0Y-149.0
X57.0Y-151.0
X58.0Y-82.0
X58.0Y-84.0
X58.0Y-86.0
X58.0Y-88.0
X58.0Y-92.0
X58.0Y-94.0
X58.0Y-96.0
X58.0Y-98.0
X58.0Y-110.0
X58.0Y-112.0
X58.0Y-114.0
X58.0Y-116.0
X58.0Y-120.0
X58.0Y-122.0
X58.0Y-124.0
X58.0Y-126.0
X58.0Y-138.0
X58.0Y-140.0
X58.0Y-142.0
X58.0Y-144.0
X58.0Y-148.0
X58.0Y-150.0
X58.0Y-152.0
X58.0Y-154.0
X72.0Y-82.0
X72.0Y-84.0
X72.0Y-86.0
X72.0Y-88.0
X72.0Y-92.0
X72.0Y-94.0
X72.0Y-96.0
X72.0Y-98.0
X72.0Y-110.0
X72.0Y-112.0
X72.0Y-114.0
X72.0Y-116.0
X72.0Y-120.0
X72.0Y-122.0
X72.0Y-124.0
X72.0Y-126.0
X72.0Y-138.0
X72.0Y-140.0
X72.0Y-142.0
X72.0Y-144.0
X72.0Y-148.0
X72.0Y-150.0
X72.0Y-152.0
X72.0Y-154.0
X73.0Y-85.0
X73.0Y-87.0
X73.0Y-89.0
X73.0Y-91.0
X73.0Y-93.0
X73.0Y-95.0
X73.0Y-113.0
X73.0Y-115.0
X73.0Y-117.0
X73.0Y-119.0
X73.0Y-121.0
X73.0Y-123.0
X73.0Y-141.0
X73.0Y-143.0
X73.0Y-145.0
X73.0Y-147.0
X73.0Y-149.0
X73.0Y-151.0
X74.0Y-82.0
X74.0Y-84.0
X74.0Y-86.0
X74.0Y-87.0
X74.0Y-88.0
X74.0Y-89.0
X74.0Y-91.0
X74.0Y-92.0
X74.0Y-93.0
X74.0Y-94.0
X74.0Y-96.0
X74.0Y-98.0
X74.0Y-110.0
X74.0Y-112.0
X74.0Y-114.0
X74.0Y-115.0
X74.0Y-116.0
X74.0Y-117.0
X74.0Y-119.0
X74.0Y-120.0
X74.0Y-121.0
X74.0Y-122.0
X74.0Y-124.0
X74.0Y-126.0
X74.0Y-138.0
X74.0Y-140.0
X74.0Y-142.0
X74.0Y-143.0
X74.0Y-144.0
X74.0Y-145.0
X74.0Y-147.0
X74.0Y-148.0
X74.0Y-149.0
X74.0Y-150.0
X74.0Y-152.0
X74.0Y-154.0
X75.0Y-83.0
X75.0Y-85.0
X75.0Y-87.0
X75.0Y-88.0
X75.0Y-89.0
X75.0Y-91.0
X75.0Y-92.0
X75.0Y-93.0
X75.0Y-95.0
X75.0Y-97.0
X75.0Y-111.0
X75.0Y-113.0
X75.0Y-115.0
X75.0Y-116.0
X75.0Y-117.0
X75.0Y-119.0
X75.0Y-120.0
X75.0Y-121.0
X75.0Y-123.0
X75.0Y-125.0
X75.0Y-139.0
X75.0Y-141.0
X75.0Y-143.0
X75.0Y-144.0
X75.0Y-145.0
X75.0Y-147.0
X75.0Y-148.0
X75.0Y-149.0
X75.0Y-151.0
X75.0Y-153.0
X76.0Y-82.0
X76.0Y-84.0
X76.0Y-85.0
X76.0Y-86.0
X76.0Y-94.0
X76.0Y-95.0
X76.0Y-96.0
X76.0Y-98.0
X76.0Y-110.0
X76.0Y-112.0
X76.0Y-113.0
X76.0Y-114.0
X76.0Y-122.0
X76.0Y-123.0
X76.0Y-124.0
X76.0Y-126.0
X76.0Y-138.0
X76.0Y-140.0
X76.0Y-141.0
X76.0Y-142.0
X76.0Y-150.0
X76.0Y-151.0
X76.0Y-152.0
X76.0Y-154.0
X77.0Y-83.0
X77.0Y-84.0
X77.0Y-96.0
X77.0Y-97.0
X77.0Y-111.0
X77.0Y-112.0
X77.0Y-124.0
X77.0Y-125.0
X77.0Y-139.0
X77.0Y-140.0
X77.0Y-152.0
X77.0Y-153.0
X78.0Y-82.0
X78.0Y-84.0
X78.0Y-96.0
X78.0Y-98.0
X78.0Y-110.0
X78.0Y-112.0
X78.0Y-124.0
X78.0Y-126.0
X78.0Y-138.0
X78.0Y-140.0
X78.0Y-152.0
X78.0Y-154.0
X80.0Y-82.0
X80.0Y-84.0
X80.0Y-96.0
X80.0Y-98.0
X80.0Y-110.0
X80.0Y-112.0
X80.0Y-124.0
X80.0Y-126.0
X80.0Y-138.0
X80.0Y-140.0
X80.0Y-152.0
X80.0Y-154.0
X81.0Y-83.0
X81.0Y-84.0
X81.0Y-96.0
X81.0Y-97.0
X81.0Y-111.0
X81.0Y-112.0
X81.0Y-124.0
X81.0Y-125.0
X81.0Y-139.0
X81.0Y-140.0
X81.0Y-152.0
X81.0Y-153.0
X82.0Y-82.0
X82.0Y-84.0
X82.0Y-85.0
X82.0Y-86.0
X82.0Y-94.0
X82.0Y-95.0
X82.0Y-96.0
X82.0Y-98.0
X82.0Y-110.0
X82.0Y-112.0
X82.0Y-113.0
X82.0Y-114.0
X82.0Y-122.0
X82.0Y-123.0
X82.0Y-124.0
X82.0Y-126.0
X82.0Y-138.0
X82.0Y-140.0
X82.0Y-141.0
X82.0Y-142.0
X82.0Y-150.0
X82.0Y-151.0
X82.0Y-152.0
X82.0Y-154.0
X83.0Y-83.0
X83.0Y-85.0
X83.0Y-87.0
X83.0Y-88.0
X83.0Y-89.0
X83.0Y-91.0
X83.0Y-92.0
X83.0Y-93.0
X83.0Y-95.0
X83.0Y-97.0
X83.0Y-111.0
X83.0Y-113.0
X83.0Y-115.0
X83.0Y-116.0
X83.0Y-117.0
X83.0Y-119.0
X83.0Y-120.0
X83.0Y-121.0
X83.0Y-123.0
X83.0Y-125.0
X83.0Y-139.0
X83.0Y-141.0
X83.0Y-143.0
X83.0Y-144.0
X83.0Y-145.0
X83.0Y-147.0
X83.0Y-148.0
X83.0Y-149.0
X83.0Y-151.0
X83.0Y-153.0
X84.0Y-82.0
X84.0Y-84.0
X84.0Y-86.0
X84.0Y-87.0
X84.0Y-88.0
X84.0Y-89.0
X84.0Y-91.0
X84.0Y-92.0
X84.0Y-93.0
X84.0Y-94.0
X84.0Y-96.0
X84.0Y-98.0
X84.0Y-110.0
X84.0Y-112.0
X84.0Y-114.0
X84.0Y-115.0
X84.0Y-116.0
X84.0Y-117.0
X84.0Y-119.0
X84.0Y-120.0
X84.0Y-121.0
X84.0Y-122.0
X84.0Y-124.0
X84.0Y-126.0
X84.0Y-138.0
X84.0Y-140.0
X84.0Y-142.0
X84.0Y-143.0
X84.0Y-144.0
X84.0Y-145.0
X84.0Y-147.0
X84.0Y-148.0
X84.0Y-149.0
X84.0Y-150.0
X84.0Y-152.0
X84.0Y-154.0
X85.0Y-85.0
X85.0Y-87.0
X85.0Y-89.0
X85.0Y-91.0
X85.0Y-93.0
X85.0Y-95.0
X85.0Y-113.0
X85.0Y-115.0
X85.0Y-117.0
X85.0Y-119.0
X85.0Y-121.0
X85.0Y-123.0
X85.0Y-141.0
X85.0Y-143.0
X85.0Y-145.0
X85.0Y-147.0
X85.0Y-149.0
X85.0Y-151.0
X86.0Y-82.0
X86.0Y-84.0
X86.0Y-86.0
X86.0Y-88.0
X86.0Y-92.0
X86.0Y-94.0
X86.0Y-96.0
X86.0Y-98.0
X86.0Y-110.0
X86.0Y-112.0
X86.0Y-114.0
X86.0Y-116.0
X86.0Y-120.0
X86.0Y-122.0
X86.0Y-124.0
X86.0Y-126.0
X86.0Y-138.0
X86.0Y-140.0
X86.0Y-142.0
X86.0Y-144.0
X86.0Y-148.0
X86.0Y-150.0
X86.0Y-152.0
X86.0Y-154.0
X100.0Y-82.0
X100.0Y-84.0
X100.0Y-86.0
X100.0Y-88.0
X100.0Y-92.0
X100.0Y-94.0
X100.0Y-96.0
X100.0Y-98.0
X100.0Y-110.0
X100.0Y-112.0
X100.0Y-114.0
X100.0Y-116.0
X100.0Y-120.0
X100.0Y-122.0
X100.0Y-124.0
X100.0Y-126.0
X100.0Y-138.0
X100.0Y-140.0
X100.0Y-142.0
X100.0Y-144.0
X100.0Y-148.0
X100.0Y-150.0
X100.0Y-152.0
X100.0Y-154.0
X101.0Y-85.0
X101.0Y-87.0
X101.0Y-89.0
X101.0Y-91.0
X101.0Y-93.0
X101.0Y-95.0
X101.0Y-113.0
X101.0Y-115.0
X101.0Y-117.0
X101.0Y-119.0
X101.0Y-121.0
X101.0Y-123.0
X101.0Y-141.0
X101.0Y-143.0
X101.0Y-145.0
X101.0Y-147.0
X101.0Y-149.0
X101.0Y-151.0
X102.0Y-82.0
X102.0Y-84.0
X102.0Y-86.0
X102.0Y-87.0
X102.0Y-88.0
X102.0Y-89.0
X102.0Y-91.0
X102.0Y-92.0
X102.0Y-93.0
X102.0Y-94.0
X102.0Y-96.0
X102.0Y-98.0
X102.0Y-110.0
X102.0Y-112.0
X102.0Y-114.0
X102.0Y-115.0
X102.0Y-116.0
X102.0Y-117.0
X102.0Y-119.0
X102.0Y-120.0
X102.0Y-121.0
X102.0Y-122.0
X102.0Y-124.0
X102.0Y-126.0
X102.0Y-138.0
X102.0Y-140.0
X102.0Y-142.0
X102.0Y-143.0
X102.0Y-144.0
X102.0Y-145.0
X102.0Y-147.0
X102.0Y-148.0
X102.0Y-149.0
X102.0Y-150.0
X102.0Y-152.0
X102.0Y-154.0
X103.0Y-83.0
X103.0Y-85.0
X103.0Y-87.0
X103.0Y-88.0
X103.0Y-89.0
X103.0Y-91.0
X103.0Y-92.0
X103.0Y-93.0
X103.0Y-95.0
X103.0Y-97.0
X103.0Y-111.0
X103.0Y-113.0
X103.0Y-115.0
X103.0Y-116.0
X103.0Y-117.0
X103.0Y-119.0
X103.0Y-120.0
X103.0Y-121.0
X103.0Y-123.0
X103.0Y-125.0
X103.0Y-139.0
X103.0Y-141.0
X103.0Y-143.0
X103.0Y-144.0
X103.0Y-145.0
X103.0Y-147.0
X103.0Y-148.0
X103.0Y-149.0
X103.0Y-151.0
X103.0Y-153.0
X104.0Y-82.0
X104.0Y-84.0
X104.0Y-85.0
X104.0Y-86.0
X104.0Y-94.0
X104.0Y-95.0
X104.0Y-96.0
X104.0Y-98.0
X104.0Y-110.0
X104.0Y-112.0
X104.0Y-113.0
X104.0Y-114.0
X104.0Y-122.0
X104.0Y-123.0
X104.0Y-124.0
X104.0Y-126.0
X104.0Y-138.0
X104.0Y-140.0
X104.0Y-141.0
X104.0Y-142.0
X104.0Y-150.0
X104.0Y-151.0
X104.0Y-152.0
X104.0Y-154.0
X105.0Y-83.0
X105.0Y-84.0
X105.0Y-96.0
X105.0Y-97.0
X105.0Y-111.0
X105.0Y-112.0
X105.0Y-124.0
X105.0Y-125.0
X105.0Y-139.0
X105.0Y-140.0
X105.0Y-152.0
X105.0Y-153.0
X106.0Y-82.0
X106.0Y-84.0
X106.0Y-96.0
X106.0Y-98.0
X106.0Y-110.0
X106.0Y-112.0
X106.0Y-124.0
X106.0Y-126.0
X106.0Y-138.0
X106.0Y-140.0
X106.0Y-152.0
X106.0Y-154.0
X108.0Y-82.0
X108.0Y-84.0
X108.0Y-96.0
X108.0Y-98.0
X108.0Y-110.0
X108.0Y-112.0
X108.0Y-124.0
X108.0Y-126.0
X108.0Y-138.0
X108.0Y-140.0
X108.0Y-152.0
X108.0Y-154.0
X109.0Y-83.0
X109.0Y-84.0
X109.0Y-96.0
X109.0Y-97.0
X109.0Y-111.0
X109.0Y-112.0
X109.0Y-124.0
X109.0Y-125.0
X109.0Y-139.0
X109.0Y-140.0
X109.0Y-152.0
X109.0Y-153.0
X110.0Y-82.0
X110.0Y-84.0
X110.0Y-85.0
X110.0Y-86.0
X110.0Y-94.0
X110.0Y-95.0
X110.0Y-96.0
X110.0Y-98.0
X110.0Y-110.0
X110.0Y-112.0
X110.0Y-113.0
X110.0Y-114.0
X110.0Y-122.0
X110.0Y-123.0
X110.0Y-124.0
X110.0Y-126.0
X110.0Y-138.0
X110.0Y-140.0
X110.0Y-141.0
X110.0Y-142.0
X110.0Y-150.0
X110.0Y-151.0
X110.0Y-152.0
X110.0Y-154.0
X111.0Y-83.0
X111.0Y-85.0
X111.0Y-87.0
X111.0Y-88.0
X111.0Y-89.0
X111.0Y-91.0
X111.0Y-92.0
X111.0Y-93.0
X111.0Y-95.0
X111.0Y-97.0
X111.0Y-111.0
X111.0Y-113.0
X111.0Y-115.0
X111.0Y-116.0
X111.0Y-117.0
X111.0Y-119.0
X111.0Y-120.0
X111.0Y-121.0
X111.0Y-123.0
X111.0Y-125.0
X111.0Y-139.0
X111.0Y-141.0
X111.0Y-143.0
X111.0Y-144.0
X111.0Y-145.0
X111.0Y-147.0
X111.0Y-148.0
X111.0Y-149.0
X111.0Y-151.0
X111.0Y-153.0
X112.0Y-82.0
X112.0Y-84.0
X112.0Y-86.0
X112.0Y-87.0
X112.0Y-88.0
X112.0Y-89.0
X112.0Y-91.0
X112.0Y-92.0
X112.0Y-93.0
X112.0Y-94.0
X112.0Y-96.0
X112.0Y-98.0
X112.0Y-110.0
X112.0Y-112.0
X112.0Y-114.0
X112.0Y-115.0
X112.0Y-116.0
X112.0Y-117.0
X112.0Y-119.0
X112.0Y-120.0
X112.0Y-121.0
X112.0Y-122.0
X112.0Y-124.0
X112.0Y-126.0
X112.0Y-138.0
X112.0Y-140.0
X112.0Y-142.0
X112.0Y-143.0
X112.0Y-144.0
X112.0Y-145.0
X112.0Y-147.0
X112.0Y-148.0
X112.0Y-149.0
X112.0Y-150.0
X112.0Y-152.0
X112.0Y-154.0
X113.0Y-85.0
X113.0Y-87.0
X113.0Y-89.0
X113.0Y-91.0
X113.0Y-93.0
X113.0Y-95.0
X113.0Y-113.0
X113.0Y-115.0
X113.0Y-117.0
X113.0Y-119.0
X113.0Y-121.0
X113.0Y-123.0
X113.0Y-141.0
X113.0Y-143.0
X113.0Y-145.0
X113.0Y-147.0
X113.0Y-149.0
X113.0Y-151.0
X114.0Y-82.0
X114.0Y-84.0
X114.0Y-86.0
X114.0Y-88.0
X114.0Y-92.0
X114.0Y-94.0
X114.0Y-96.0
X114.0Y-98.0
X114.0Y-110.0
X114.0Y-112.0
X114.0Y-114.0
X114.0Y-116.0
X114.0Y-120.0
X114.0Y-122.0
X114.0Y-124.0
X114.0Y-126.0
X114.0Y-138.0
X114.0Y-140.0
X114.0Y-142.0
X114.0Y-144.0
X114.0Y-148.0
X114.0Y-150.0
X114.0Y-152.0
X114.0Y-154.0
T3
X38.18Y-55.953G85X38.18Y-55.352
G05
X38.18Y-60.383G85X38.18Y-59.282
G05
X46.82Y-55.953G85X46.82Y-55.352
G05
X46.82Y-60.383G85X46.82Y-59.282
G05
X111.18Y-55.953G85X111.18Y-55.352
G05
X111.18Y-60.383G85X111.18Y-59.282
G05
X119.82Y-55.953G85X119.82Y-55.352
G05
X119.82Y-60.383G85X119.82Y-59.282
G05
M30
