G04 #@! TF.GenerationSoftware,KiCad,Pcbnew,10.0.0*
G04 #@! TF.CreationDate,2026-03-29T18:10:08-07:00*
G04 #@! TF.ProjectId,sl_v4,736c5f76-342e-46b6-9963-61645f706362,rev?*
G04 #@! TF.SameCoordinates,Original*
G04 #@! TF.FileFunction,Soldermask,Top*
G04 #@! TF.FilePolarity,Negative*
%FSLAX46Y46*%
G04 Gerber Fmt 4.6, Leading zero omitted, Abs format (unit mm)*
G04 Created by KiCad (PCBNEW 10.0.0) date 2026-03-29 18:10:08*
%MOMM*%
%LPD*%
G01*
G04 APERTURE LIST*
G04 Aperture macros list*
%AMRoundRect*
0 Rectangle with rounded corners*
0 $1 Rounding radius*
0 $2 $3 $4 $5 $6 $7 $8 $9 X,Y pos of 4 corners*
0 Add a 4 corners polygon primitive as box body*
4,1,4,$2,$3,$4,$5,$6,$7,$8,$9,$2,$3,0*
0 Add four circle primitives for the rounded corners*
1,1,$1+$1,$2,$3*
1,1,$1+$1,$4,$5*
1,1,$1+$1,$6,$7*
1,1,$1+$1,$8,$9*
0 Add four rect primitives between the rounded corners*
20,1,$1+$1,$2,$3,$4,$5,0*
20,1,$1+$1,$4,$5,$6,$7,0*
20,1,$1+$1,$6,$7,$8,$9,0*
20,1,$1+$1,$8,$9,$2,$3,0*%
%AMFreePoly0*
4,1,13,-1.150000,0.945000,-1.132492,1.033017,-1.082635,1.107635,-1.008017,1.157492,-0.920000,1.175000,1.150000,1.175000,1.150000,-1.175000,-0.920000,-1.175000,-1.008017,-1.157492,-1.082635,-1.107635,-1.132492,-1.033017,-1.150000,-0.945000,-1.150000,0.945000,-1.150000,0.945000,$1*%
%AMFreePoly1*
4,1,13,-0.600000,1.175000,0.420000,1.175000,0.488883,1.161298,0.547279,1.122279,0.586298,1.063883,0.600000,0.995000,0.600000,-0.995000,0.586298,-1.063883,0.547279,-1.122279,0.488883,-1.161298,0.420000,-1.175000,-0.600000,-1.175000,-0.600000,1.175000,-0.600000,1.175000,$1*%
G04 Aperture macros list end*
%ADD10C,0.900000*%
%ADD11RoundRect,0.187500X0.187500X0.712500X-0.187500X0.712500X-0.187500X-0.712500X0.187500X-0.712500X0*%
%ADD12RoundRect,0.150000X0.150000X0.750000X-0.150000X0.750000X-0.150000X-0.750000X0.150000X-0.750000X0*%
%ADD13RoundRect,0.225000X0.425000X0.225000X-0.425000X0.225000X-0.425000X-0.225000X0.425000X-0.225000X0*%
%ADD14C,1.000000*%
%ADD15RoundRect,0.218750X-0.218750X-0.381250X0.218750X-0.381250X0.218750X0.381250X-0.218750X0.381250X0*%
%ADD16RoundRect,0.200000X-0.200000X-0.275000X0.200000X-0.275000X0.200000X0.275000X-0.200000X0.275000X0*%
%ADD17FreePoly0,90.000000*%
%ADD18FreePoly1,90.000000*%
%ADD19FreePoly0,0.000000*%
%ADD20FreePoly1,0.000000*%
%ADD21RoundRect,0.135000X-0.185000X0.135000X-0.185000X-0.135000X0.185000X-0.135000X0.185000X0.135000X0*%
%ADD22RoundRect,0.135000X0.135000X0.185000X-0.135000X0.185000X-0.135000X-0.185000X0.135000X-0.185000X0*%
%ADD23FreePoly0,270.000000*%
%ADD24FreePoly1,270.000000*%
%ADD25RoundRect,0.150000X-0.825000X-0.150000X0.825000X-0.150000X0.825000X0.150000X-0.825000X0.150000X0*%
%ADD26RoundRect,0.250000X0.300000X-0.300000X0.300000X0.300000X-0.300000X0.300000X-0.300000X-0.300000X0*%
%ADD27C,4.000000*%
%ADD28RoundRect,0.250000X-0.475000X0.250000X-0.475000X-0.250000X0.475000X-0.250000X0.475000X0.250000X0*%
%ADD29RoundRect,0.140000X0.140000X0.170000X-0.140000X0.170000X-0.140000X-0.170000X0.140000X-0.170000X0*%
%ADD30RoundRect,0.140000X-0.140000X-0.170000X0.140000X-0.170000X0.140000X0.170000X-0.140000X0.170000X0*%
%ADD31O,1.000000X1.600000*%
%ADD32O,1.000000X2.100000*%
%ADD33R,0.600000X1.450000*%
%ADD34R,0.300000X1.450000*%
%ADD35C,0.650000*%
%ADD36RoundRect,0.140000X0.170000X-0.140000X0.170000X0.140000X-0.170000X0.140000X-0.170000X-0.140000X0*%
%ADD37RoundRect,0.135000X0.185000X-0.135000X0.185000X0.135000X-0.185000X0.135000X-0.185000X-0.135000X0*%
%ADD38RoundRect,0.140000X-0.170000X0.140000X-0.170000X-0.140000X0.170000X-0.140000X0.170000X0.140000X0*%
%ADD39RoundRect,0.135000X-0.135000X-0.185000X0.135000X-0.185000X0.135000X0.185000X-0.135000X0.185000X0*%
%ADD40RoundRect,0.250000X-0.350000X0.450000X-0.350000X-0.450000X0.350000X-0.450000X0.350000X0.450000X0*%
%ADD41RoundRect,0.250000X-0.325000X-0.650000X0.325000X-0.650000X0.325000X0.650000X-0.325000X0.650000X0*%
%ADD42RoundRect,0.087500X-0.425000X-0.087500X0.425000X-0.087500X0.425000X0.087500X-0.425000X0.087500X0*%
%ADD43RoundRect,0.250000X-2.600000X0.600000X-2.600000X-0.600000X2.600000X-0.600000X2.600000X0.600000X0*%
%ADD44RoundRect,0.150000X-0.150000X-0.200000X0.150000X-0.200000X0.150000X0.200000X-0.150000X0.200000X0*%
%ADD45RoundRect,0.250000X0.250000X0.475000X-0.250000X0.475000X-0.250000X-0.475000X0.250000X-0.475000X0*%
%ADD46RoundRect,0.218750X0.218750X0.256250X-0.218750X0.256250X-0.218750X-0.256250X0.218750X-0.256250X0*%
%ADD47RoundRect,0.112500X-0.112500X0.350000X-0.112500X-0.350000X0.112500X-0.350000X0.112500X0.350000X0*%
%ADD48RoundRect,0.050000X-0.050000X0.387500X-0.050000X-0.387500X0.050000X-0.387500X0.050000X0.387500X0*%
%ADD49RoundRect,0.050000X-0.387500X0.050000X-0.387500X-0.050000X0.387500X-0.050000X0.387500X0.050000X0*%
%ADD50R,3.200000X3.200000*%
%ADD51RoundRect,0.150000X-0.150000X0.512500X-0.150000X-0.512500X0.150000X-0.512500X0.150000X0.512500X0*%
%ADD52RoundRect,0.050000X0.150000X0.300000X-0.150000X0.300000X-0.150000X-0.300000X0.150000X-0.300000X0*%
%ADD53RoundRect,0.050000X-0.150000X-0.300000X0.150000X-0.300000X0.150000X0.300000X-0.150000X0.300000X0*%
%ADD54RoundRect,0.250000X0.350000X1.000000X-0.350000X1.000000X-0.350000X-1.000000X0.350000X-1.000000X0*%
%ADD55C,1.600000*%
%ADD56RoundRect,0.250000X0.475000X-0.250000X0.475000X0.250000X-0.475000X0.250000X-0.475000X-0.250000X0*%
%ADD57RoundRect,0.150000X-0.200000X0.150000X-0.200000X-0.150000X0.200000X-0.150000X0.200000X0.150000X0*%
G04 APERTURE END LIST*
D10*
X67125000Y-56500000D03*
X62875000Y-56500000D03*
D11*
X66225000Y-57400000D03*
X63775000Y-57400000D03*
D12*
X65000000Y-57400000D03*
D13*
X66850000Y-55450000D03*
X63150000Y-55450000D03*
D10*
X75125000Y-56500000D03*
X70875000Y-56500000D03*
D11*
X74225000Y-57400000D03*
X71775000Y-57400000D03*
D12*
X73000000Y-57400000D03*
D13*
X74850000Y-55450000D03*
X71150000Y-55450000D03*
D10*
X87125000Y-56500001D03*
X82875000Y-56500001D03*
D11*
X86225000Y-57400001D03*
X83775000Y-57400001D03*
D12*
X85000000Y-57400001D03*
D13*
X86850000Y-55450001D03*
X83150000Y-55450001D03*
D14*
X89450000Y-69700000D03*
D15*
X41467500Y-63892500D03*
X43592500Y-63892500D03*
D16*
X92175000Y-104000000D03*
X93825000Y-104000000D03*
D17*
X52500000Y-146850000D03*
D18*
X52500000Y-144600001D03*
D19*
X50150000Y-142250000D03*
D20*
X52399999Y-142250000D03*
D21*
X71904999Y-70815000D03*
X71904999Y-71835000D03*
D22*
X39935000Y-66819999D03*
X38915000Y-66819999D03*
D23*
X105500000Y-145150000D03*
D24*
X105500000Y-147400000D03*
D21*
X64544997Y-70805000D03*
X64544997Y-71825000D03*
D14*
X86890002Y-66650000D03*
X91725000Y-57725000D03*
D25*
X102265001Y-58245000D03*
X102265001Y-59515000D03*
X102265001Y-60785000D03*
X102265001Y-62055000D03*
X107215001Y-62055000D03*
X107215001Y-60785000D03*
X107215001Y-59515000D03*
X107215001Y-58245000D03*
D26*
X76929999Y-67950001D03*
X76929999Y-65150001D03*
D27*
X120000000Y-158000000D03*
D28*
X102591840Y-72099999D03*
X102591840Y-73999999D03*
D29*
X39555000Y-62452500D03*
X38595000Y-62452500D03*
D30*
X60024997Y-68320000D03*
X60984997Y-68320000D03*
D14*
X104325000Y-70125000D03*
D31*
X111180000Y-55652500D03*
D32*
X111180000Y-59832500D03*
D31*
X119820000Y-55652500D03*
D32*
X119820000Y-59832500D03*
D33*
X118750000Y-60747500D03*
X117950001Y-60747500D03*
D34*
X117250000Y-60747500D03*
X116250000Y-60747500D03*
X114750000Y-60747500D03*
X113750000Y-60747500D03*
D33*
X113049999Y-60747500D03*
X112250000Y-60747500D03*
X112250000Y-60747500D03*
X113049999Y-60747500D03*
D34*
X114250000Y-60747499D03*
X115250000Y-60747500D03*
X115750000Y-60747500D03*
X116750000Y-60747499D03*
D33*
X117950001Y-60747500D03*
X118750000Y-60747500D03*
D35*
X112610000Y-59302500D03*
X118390000Y-59302500D03*
D19*
X106150000Y-121750000D03*
D20*
X108399999Y-121750000D03*
D36*
X98540001Y-60310000D03*
X98540001Y-59350000D03*
D37*
X45860000Y-67212500D03*
X45860000Y-66192500D03*
D38*
X109140001Y-58270000D03*
X109140001Y-59230000D03*
D39*
X111760000Y-62950000D03*
X110740000Y-62950000D03*
D17*
X52500000Y-90850000D03*
D18*
X52500000Y-88600001D03*
D29*
X90595001Y-65325000D03*
X89635001Y-65325000D03*
D40*
X86890001Y-60690001D03*
X86890001Y-62890001D03*
X88590001Y-62890001D03*
X88590001Y-60690001D03*
D19*
X50150000Y-93750000D03*
D20*
X52399999Y-93750000D03*
D22*
X41835000Y-66819999D03*
X40815000Y-66819999D03*
D41*
X76704997Y-69965000D03*
X79654997Y-69965000D03*
D38*
X96660000Y-71910000D03*
X96660000Y-72870000D03*
D39*
X98490000Y-58250000D03*
X99510000Y-58250000D03*
D37*
X99470000Y-60340000D03*
X99470000Y-59320000D03*
D21*
X62654999Y-70805000D03*
X62654999Y-71825000D03*
D29*
X87870000Y-59230002D03*
X86910000Y-59230002D03*
D14*
X41375000Y-68319999D03*
D19*
X78150000Y-86249998D03*
D20*
X80399999Y-86249998D03*
D30*
X101585000Y-65750000D03*
X102545000Y-65750000D03*
D42*
X53512501Y-68050000D03*
X53512501Y-68700000D03*
X53512501Y-69350000D03*
X55187501Y-69350000D03*
X55187501Y-68050000D03*
D19*
X106150000Y-149750000D03*
D20*
X108399999Y-149750000D03*
D43*
X81504998Y-61535000D03*
X81504998Y-66035000D03*
D19*
X50150000Y-121750000D03*
D20*
X52399999Y-121750000D03*
D14*
X86900000Y-69150000D03*
D44*
X117940000Y-64121499D03*
X119340000Y-64121499D03*
D30*
X78524997Y-68330000D03*
X79484997Y-68330000D03*
D38*
X98890001Y-70250000D03*
X98890001Y-71210000D03*
D37*
X44920000Y-67212500D03*
X44920000Y-66192500D03*
D21*
X81154999Y-70815000D03*
X81154999Y-71835000D03*
D14*
X96675000Y-59500000D03*
D38*
X94940001Y-70250000D03*
X94940001Y-71210000D03*
D37*
X65754999Y-70900000D03*
X65754999Y-69880000D03*
X89990001Y-63450001D03*
X89990001Y-62430001D03*
D26*
X58429999Y-67940001D03*
X58429999Y-65140001D03*
D19*
X78150000Y-121750000D03*
D20*
X80399999Y-121750000D03*
D26*
X49175001Y-67950001D03*
X49175001Y-65150001D03*
D17*
X80500000Y-90849998D03*
D18*
X80500000Y-88599999D03*
D19*
X78150000Y-142250000D03*
D20*
X80399999Y-142250000D03*
D30*
X101585001Y-64800000D03*
X102545001Y-64800000D03*
D45*
X40025000Y-63902500D03*
X38125000Y-63902500D03*
D21*
X72849997Y-70815000D03*
X72849997Y-71835000D03*
D38*
X98800000Y-72920000D03*
X98800000Y-73880000D03*
D23*
X49500000Y-117150000D03*
D24*
X49500000Y-119400000D03*
D46*
X102577501Y-70550000D03*
X101002501Y-70550000D03*
D36*
X94940001Y-60310000D03*
X94940001Y-59350000D03*
D30*
X101585000Y-67905000D03*
X102545000Y-67905000D03*
X87610001Y-64380002D03*
X88570001Y-64380002D03*
D17*
X108500000Y-118850000D03*
D18*
X108500000Y-116600001D03*
D28*
X76929998Y-61700000D03*
X76929998Y-63600000D03*
D35*
X45390000Y-59302500D03*
X39610000Y-59302500D03*
D33*
X45750000Y-60747500D03*
X44950001Y-60747500D03*
D34*
X43750000Y-60747499D03*
X42750000Y-60747500D03*
X42250000Y-60747500D03*
X41250000Y-60747499D03*
D33*
X40049999Y-60747500D03*
X39250000Y-60747500D03*
X39250000Y-60747500D03*
X40049999Y-60747500D03*
D34*
X40750000Y-60747500D03*
X41750000Y-60747500D03*
X43250000Y-60747500D03*
X44250000Y-60747500D03*
D33*
X44950001Y-60747500D03*
X45750000Y-60747500D03*
D32*
X46820000Y-59832500D03*
D31*
X46820000Y-55652500D03*
D32*
X38180000Y-59832500D03*
D31*
X38180000Y-55652500D03*
D47*
X94300000Y-74187500D03*
X93650000Y-72412500D03*
X94950000Y-72412500D03*
D21*
X83044997Y-70815000D03*
X83044997Y-71835000D03*
D19*
X106150000Y-142250000D03*
D20*
X108399999Y-142250000D03*
D19*
X78150000Y-149750000D03*
D20*
X80399999Y-149750000D03*
D48*
X98535001Y-61832500D03*
X98135001Y-61832500D03*
X97735001Y-61832500D03*
X97335001Y-61832500D03*
X96935001Y-61832500D03*
X96535001Y-61832500D03*
X96135001Y-61832500D03*
X95735001Y-61832500D03*
X95335001Y-61832500D03*
X94935001Y-61832500D03*
X94535001Y-61832500D03*
X94135001Y-61832500D03*
X93735001Y-61832500D03*
X93335001Y-61832500D03*
D49*
X92497501Y-62670000D03*
X92497501Y-63070000D03*
X92497501Y-63470000D03*
X92497501Y-63870000D03*
X92497501Y-64270000D03*
X92497501Y-64670000D03*
X92497501Y-65070000D03*
X92497501Y-65470000D03*
X92497501Y-65870000D03*
X92497501Y-66270000D03*
X92497501Y-66670000D03*
X92497501Y-67070000D03*
X92497501Y-67470000D03*
X92497501Y-67870000D03*
D48*
X93335001Y-68707500D03*
X93735001Y-68707500D03*
X94135001Y-68707500D03*
X94535001Y-68707500D03*
X94935001Y-68707500D03*
X95335001Y-68707500D03*
X95735001Y-68707500D03*
X96135001Y-68707500D03*
X96535001Y-68707500D03*
X96935001Y-68707500D03*
X97335001Y-68707500D03*
X97735001Y-68707500D03*
X98135001Y-68707500D03*
X98535001Y-68707500D03*
D49*
X99372501Y-67870000D03*
X99372501Y-67470000D03*
X99372501Y-67070000D03*
X99372501Y-66670000D03*
X99372501Y-66270000D03*
X99372501Y-65870000D03*
X99372501Y-65470000D03*
X99372501Y-65070000D03*
X99372501Y-64670000D03*
X99372501Y-64270000D03*
X99372501Y-63870000D03*
X99372501Y-63470000D03*
X99372501Y-63070000D03*
X99372501Y-62670000D03*
D50*
X95935001Y-65270000D03*
D21*
X116737521Y-64761499D03*
X116737521Y-63741499D03*
D41*
X48949999Y-69965000D03*
X51899999Y-69965000D03*
D14*
X92725000Y-59500000D03*
D30*
X69274997Y-68330000D03*
X70234997Y-68330000D03*
D42*
X62767499Y-68040000D03*
X62767499Y-68690000D03*
X62767499Y-69340000D03*
X64442499Y-69340000D03*
X64442499Y-68040000D03*
D41*
X67454997Y-69965000D03*
X70404997Y-69965000D03*
D27*
X38000000Y-158000000D03*
D19*
X106150000Y-93750000D03*
D20*
X108399999Y-93750000D03*
D19*
X106150000Y-86250000D03*
D20*
X108399999Y-86250000D03*
D28*
X49175000Y-61700000D03*
X49175000Y-63600000D03*
D42*
X72017499Y-68050000D03*
X72017499Y-68700000D03*
X72017499Y-69350000D03*
X73692499Y-69350000D03*
X73692499Y-68050000D03*
D38*
X75004999Y-68070000D03*
X75004999Y-69030000D03*
D21*
X54344999Y-70815000D03*
X54344999Y-71835000D03*
D28*
X58429998Y-61690000D03*
X58429998Y-63590000D03*
D17*
X108500000Y-90850000D03*
D18*
X108500000Y-88600001D03*
D17*
X80500000Y-118850000D03*
D18*
X80500000Y-116600001D03*
D37*
X75004999Y-70910000D03*
X75004999Y-69890000D03*
D38*
X84254999Y-68070000D03*
X84254999Y-69030000D03*
D51*
X106224999Y-72100000D03*
X104324999Y-72100000D03*
X105274999Y-74375000D03*
D43*
X53750000Y-61535000D03*
X53750000Y-66035000D03*
D23*
X77500000Y-145150000D03*
D24*
X77500000Y-147400000D03*
D52*
X45700000Y-62577500D03*
X45000000Y-62577500D03*
D39*
X92080000Y-70260000D03*
X93100000Y-70260000D03*
D23*
X77500000Y-89149998D03*
D24*
X77500000Y-91399998D03*
D42*
X81267499Y-68050000D03*
X81267499Y-68700000D03*
X81267499Y-69350000D03*
X82942499Y-69350000D03*
X82942499Y-68050000D03*
D27*
X120000000Y-78000000D03*
D53*
X40974999Y-65577500D03*
X41674999Y-65577500D03*
D19*
X106150000Y-114250000D03*
D20*
X108399999Y-114250000D03*
D21*
X55289999Y-70815000D03*
X55289999Y-71835000D03*
D52*
X117937522Y-62566499D03*
X118637522Y-62566499D03*
D26*
X67679999Y-67950001D03*
X67679999Y-65150001D03*
D41*
X58204997Y-69955000D03*
X61154997Y-69955000D03*
D19*
X50150000Y-86250000D03*
D20*
X52399999Y-86250000D03*
D23*
X49500000Y-145150000D03*
D24*
X49500000Y-147400000D03*
D30*
X50769999Y-68330000D03*
X51729999Y-68330000D03*
D52*
X39774999Y-65577500D03*
X39074999Y-65577500D03*
X115462521Y-62566499D03*
X116162521Y-62566499D03*
D43*
X63004998Y-61525000D03*
X63004998Y-66025000D03*
D37*
X84254999Y-70910000D03*
X84254999Y-69890000D03*
D14*
X93725000Y-57725000D03*
D17*
X108500000Y-146850000D03*
D18*
X108500000Y-144600001D03*
D19*
X50150000Y-149750000D03*
D20*
X52399999Y-149750000D03*
D22*
X104450001Y-66300000D03*
X103430001Y-66300000D03*
D19*
X78150000Y-93749998D03*
D20*
X80399999Y-93749998D03*
D54*
X112200000Y-73250000D03*
X111099999Y-66750000D03*
X119199999Y-73250000D03*
X116200000Y-73250000D03*
D55*
X113800000Y-70000000D03*
X120800000Y-70000000D03*
D21*
X97850000Y-71890000D03*
X97850000Y-72910000D03*
D30*
X44740000Y-63642500D03*
X45700000Y-63642500D03*
D39*
X103430001Y-67250000D03*
X104450001Y-67250000D03*
D21*
X82099997Y-70815000D03*
X82099997Y-71835000D03*
D37*
X56500001Y-70910000D03*
X56500001Y-69890000D03*
D38*
X65754999Y-68060000D03*
X65754999Y-69020000D03*
D43*
X72254998Y-61535000D03*
X72254998Y-66035000D03*
D28*
X67679998Y-61700000D03*
X67679998Y-63600000D03*
D21*
X53400001Y-70815000D03*
X53400001Y-71835000D03*
D23*
X105500000Y-89150000D03*
D24*
X105500000Y-91399999D03*
D14*
X39350000Y-68319999D03*
D38*
X99840001Y-70250000D03*
X99840001Y-71210000D03*
D56*
X108110000Y-74000000D03*
X108110000Y-72100000D03*
D30*
X101585001Y-68855000D03*
X102545001Y-68855000D03*
D21*
X73794997Y-70815000D03*
X73794997Y-71835000D03*
D17*
X52500000Y-118850000D03*
D18*
X52500000Y-116600001D03*
D23*
X77500000Y-117150000D03*
D24*
X77500000Y-119400000D03*
D27*
X38000000Y-78000000D03*
D21*
X63599997Y-70805000D03*
X63599997Y-71825000D03*
D23*
X49500000Y-89150000D03*
D24*
X49500000Y-91400000D03*
D29*
X90595002Y-66250000D03*
X89635002Y-66250000D03*
D53*
X114537522Y-62566499D03*
X113837522Y-62566499D03*
D19*
X50150000Y-114250000D03*
D20*
X52399999Y-114250000D03*
D38*
X56500001Y-68070000D03*
X56500001Y-69030000D03*
D14*
X88515002Y-67900000D03*
X95725000Y-57725000D03*
D57*
X43650000Y-67912500D03*
X43650000Y-66512500D03*
D19*
X78150000Y-114250000D03*
D20*
X80399999Y-114250000D03*
D17*
X80500000Y-146850000D03*
D18*
X80500000Y-144600001D03*
D23*
X105500000Y-117150000D03*
D24*
X105500000Y-119400000D03*
M02*
