%TF.GenerationSoftware,KiCad,Pcbnew,10.0.0*%
%TF.CreationDate,2026-03-29T18:10:08-07:00*%
%TF.ProjectId,sl_v4,736c5f76-342e-46b6-9963-61645f706362,rev?*%
%TF.SameCoordinates,Original*%
%TF.FileFunction,Drillmap*%
%TF.FilePolarity,Positive*%
%FSLAX45Y45*%
G04 Gerber Fmt 4.5, Leading zero omitted, Abs format (unit mm)*
G04 Created by KiCad (PCBNEW 10.0.0) date 2026-03-29 18:10:08*
%MOMM*%
%LPD*%
G01*
G04 APERTURE LIST*
%ADD10C,0.050000*%
%ADD11C,0.200000*%
%ADD12C,0.100000*%
%ADD13C,0.160000*%
%ADD14C,0.220000*%
G04 APERTURE END LIST*
D10*
X6250000Y-5310000D02*
X8850000Y-5310000D01*
X5000000Y-5550000D02*
X6050000Y-5550000D01*
X10800000Y-5550000D02*
X9050000Y-5550000D01*
X6150000Y-5410000D02*
X6150000Y-5450000D01*
X6150000Y-5410000D02*
G75*
G02*
X6250000Y-5310000I100000J0D01*
G01*
X6150000Y-5450000D02*
G75*
G02*
X6050000Y-5550000I-100000J0D01*
G01*
X8950000Y-5410000D02*
X8950000Y-5450000D01*
X8850000Y-5310000D02*
G75*
G02*
X8950000Y-5410000I0J-100000D01*
G01*
X9050000Y-5550000D02*
G75*
G02*
X8950000Y-5450000I0J100000D01*
G01*
X3550000Y-15050000D02*
X3550000Y-15800000D01*
X3650000Y-8280000D02*
G75*
G02*
X3550000Y-8180000I0J100000D01*
G01*
X3700000Y-8280000D02*
G75*
G02*
X3800000Y-8380000I0J-100000D01*
G01*
X3650000Y-8280000D02*
X3700000Y-8280000D01*
X3550000Y-15050000D02*
G75*
G02*
X3650000Y-14950000I100000J0D01*
G01*
X3700000Y-14950000D02*
X3650000Y-14950000D01*
X3800000Y-14850000D02*
G75*
G02*
X3700000Y-14950000I-100000J0D01*
G01*
X3800000Y-14850000D02*
X3800000Y-8380000D01*
X3550000Y-8180000D02*
X3550000Y-5510000D01*
X12000000Y-14850000D02*
X12000000Y-8380000D01*
X12250000Y-15050000D02*
X12250000Y-15800000D01*
X12100000Y-14950000D02*
G75*
G02*
X12000000Y-14850000I0J100000D01*
G01*
X12150000Y-14950000D02*
G75*
G02*
X12250000Y-15050000I0J-100000D01*
G01*
X12100000Y-14950000D02*
X12150000Y-14950000D01*
X12150000Y-8280000D02*
X12100000Y-8280000D01*
X12000000Y-8380000D02*
G75*
G02*
X12100000Y-8280000I100000J0D01*
G01*
X12250000Y-8180000D02*
G75*
G02*
X12150000Y-8280000I-100000J0D01*
G01*
X11000000Y-5310000D02*
X12050000Y-5310000D01*
X10900000Y-5410000D02*
X10900000Y-5450000D01*
X10900000Y-5410000D02*
G75*
G02*
X11000000Y-5310000I100000J0D01*
G01*
X10900000Y-5450000D02*
G75*
G02*
X10800000Y-5550000I-100000J0D01*
G01*
X4900000Y-5410000D02*
X4900000Y-5450000D01*
X5000000Y-5550000D02*
G75*
G02*
X4900000Y-5450000I0J100000D01*
G01*
X4800000Y-5310000D02*
G75*
G02*
X4900000Y-5410000I0J-100000D01*
G01*
X3550000Y-5510000D02*
G75*
G02*
X3750000Y-5310000I200000J0D01*
G01*
X3800000Y-16050000D02*
G75*
G02*
X3550000Y-15800000I0J250000D01*
G01*
X3800000Y-16050000D02*
X12000000Y-16050000D01*
X4800000Y-5310000D02*
X3750000Y-5310000D01*
X12050000Y-5310000D02*
G75*
G02*
X12250000Y-5510000I0J-200000D01*
G01*
X12250000Y-15800000D02*
G75*
G02*
X12000000Y-16050000I-250000J0D01*
G01*
X12250000Y-8180000D02*
X12250000Y-5510000D01*
D11*
D12*
X3928500Y-5897750D02*
X3993500Y-5962750D01*
X3993500Y-5897750D02*
X3928500Y-5962750D01*
X4506500Y-5897750D02*
X4571500Y-5962750D01*
X4571500Y-5897750D02*
X4506500Y-5962750D01*
X11228500Y-5897750D02*
X11293500Y-5962750D01*
X11293500Y-5897750D02*
X11228500Y-5962750D01*
X11806500Y-5897750D02*
X11871500Y-5962750D01*
X11871500Y-5897750D02*
X11806500Y-5962750D01*
X6332500Y-5650000D02*
G75*
G02*
X6242500Y-5650000I-45000J0D01*
G01*
X6242500Y-5650000D02*
G75*
G02*
X6332500Y-5650000I45000J0D01*
G01*
X6757500Y-5650000D02*
G75*
G02*
X6667500Y-5650000I-45000J0D01*
G01*
X6667500Y-5650000D02*
G75*
G02*
X6757500Y-5650000I45000J0D01*
G01*
X7132500Y-5650000D02*
G75*
G02*
X7042500Y-5650000I-45000J0D01*
G01*
X7042500Y-5650000D02*
G75*
G02*
X7132500Y-5650000I45000J0D01*
G01*
X7557500Y-5650000D02*
G75*
G02*
X7467500Y-5650000I-45000J0D01*
G01*
X7467500Y-5650000D02*
G75*
G02*
X7557500Y-5650000I45000J0D01*
G01*
X8332500Y-5650000D02*
G75*
G02*
X8242500Y-5650000I-45000J0D01*
G01*
X8242500Y-5650000D02*
G75*
G02*
X8332500Y-5650000I45000J0D01*
G01*
X8757500Y-5650000D02*
G75*
G02*
X8667500Y-5650000I-45000J0D01*
G01*
X8667500Y-5650000D02*
G75*
G02*
X8757500Y-5650000I45000J0D01*
G01*
D13*
X11380000Y-6920000D02*
X11380000Y-7080000D01*
X11300000Y-7000000D02*
X11460000Y-7000000D01*
X12080000Y-6920000D02*
X12080000Y-7080000D01*
X12000000Y-7000000D02*
X12160000Y-7000000D01*
D14*
X3877782Y-7877782D02*
X3877782Y-7722217D01*
X3722217Y-7722217D01*
X3722217Y-7877782D01*
X3877782Y-7877782D01*
X3877782Y-15877782D02*
X3877782Y-15722217D01*
X3722217Y-15722217D01*
X3722217Y-15877782D01*
X3877782Y-15877782D01*
X12077782Y-7877782D02*
X12077782Y-7722217D01*
X11922217Y-7722217D01*
X11922217Y-7877782D01*
X12077782Y-7877782D01*
X12077782Y-15877782D02*
X12077782Y-15722217D01*
X11922217Y-15722217D01*
X11922217Y-15877782D01*
X12077782Y-15877782D01*
D11*
X3808277Y-16363984D02*
X3808277Y-16163984D01*
X3808277Y-16163984D02*
X3855896Y-16163984D01*
X3855896Y-16163984D02*
X3884467Y-16173508D01*
X3884467Y-16173508D02*
X3903515Y-16192555D01*
X3903515Y-16192555D02*
X3913039Y-16211603D01*
X3913039Y-16211603D02*
X3922562Y-16249698D01*
X3922562Y-16249698D02*
X3922562Y-16278269D01*
X3922562Y-16278269D02*
X3913039Y-16316365D01*
X3913039Y-16316365D02*
X3903515Y-16335412D01*
X3903515Y-16335412D02*
X3884467Y-16354460D01*
X3884467Y-16354460D02*
X3855896Y-16363984D01*
X3855896Y-16363984D02*
X3808277Y-16363984D01*
X4008277Y-16363984D02*
X4008277Y-16230650D01*
X4008277Y-16268746D02*
X4017801Y-16249698D01*
X4017801Y-16249698D02*
X4027324Y-16240174D01*
X4027324Y-16240174D02*
X4046372Y-16230650D01*
X4046372Y-16230650D02*
X4065420Y-16230650D01*
X4132086Y-16363984D02*
X4132086Y-16230650D01*
X4132086Y-16163984D02*
X4122562Y-16173508D01*
X4122562Y-16173508D02*
X4132086Y-16183031D01*
X4132086Y-16183031D02*
X4141610Y-16173508D01*
X4141610Y-16173508D02*
X4132086Y-16163984D01*
X4132086Y-16163984D02*
X4132086Y-16183031D01*
X4255896Y-16363984D02*
X4236848Y-16354460D01*
X4236848Y-16354460D02*
X4227324Y-16335412D01*
X4227324Y-16335412D02*
X4227324Y-16163984D01*
X4360658Y-16363984D02*
X4341610Y-16354460D01*
X4341610Y-16354460D02*
X4332086Y-16335412D01*
X4332086Y-16335412D02*
X4332086Y-16163984D01*
X4589229Y-16363984D02*
X4589229Y-16163984D01*
X4589229Y-16163984D02*
X4655896Y-16306841D01*
X4655896Y-16306841D02*
X4722563Y-16163984D01*
X4722563Y-16163984D02*
X4722563Y-16363984D01*
X4903515Y-16363984D02*
X4903515Y-16259222D01*
X4903515Y-16259222D02*
X4893991Y-16240174D01*
X4893991Y-16240174D02*
X4874944Y-16230650D01*
X4874944Y-16230650D02*
X4836848Y-16230650D01*
X4836848Y-16230650D02*
X4817801Y-16240174D01*
X4903515Y-16354460D02*
X4884467Y-16363984D01*
X4884467Y-16363984D02*
X4836848Y-16363984D01*
X4836848Y-16363984D02*
X4817801Y-16354460D01*
X4817801Y-16354460D02*
X4808277Y-16335412D01*
X4808277Y-16335412D02*
X4808277Y-16316365D01*
X4808277Y-16316365D02*
X4817801Y-16297317D01*
X4817801Y-16297317D02*
X4836848Y-16287793D01*
X4836848Y-16287793D02*
X4884467Y-16287793D01*
X4884467Y-16287793D02*
X4903515Y-16278269D01*
X4998753Y-16230650D02*
X4998753Y-16430650D01*
X4998753Y-16240174D02*
X5017801Y-16230650D01*
X5017801Y-16230650D02*
X5055896Y-16230650D01*
X5055896Y-16230650D02*
X5074944Y-16240174D01*
X5074944Y-16240174D02*
X5084467Y-16249698D01*
X5084467Y-16249698D02*
X5093991Y-16268746D01*
X5093991Y-16268746D02*
X5093991Y-16325888D01*
X5093991Y-16325888D02*
X5084467Y-16344936D01*
X5084467Y-16344936D02*
X5074944Y-16354460D01*
X5074944Y-16354460D02*
X5055896Y-16363984D01*
X5055896Y-16363984D02*
X5017801Y-16363984D01*
X5017801Y-16363984D02*
X4998753Y-16354460D01*
X5179705Y-16344936D02*
X5189229Y-16354460D01*
X5189229Y-16354460D02*
X5179705Y-16363984D01*
X5179705Y-16363984D02*
X5170182Y-16354460D01*
X5170182Y-16354460D02*
X5179705Y-16344936D01*
X5179705Y-16344936D02*
X5179705Y-16363984D01*
X5179705Y-16240174D02*
X5189229Y-16249698D01*
X5189229Y-16249698D02*
X5179705Y-16259222D01*
X5179705Y-16259222D02*
X5170182Y-16249698D01*
X5170182Y-16249698D02*
X5179705Y-16240174D01*
X5179705Y-16240174D02*
X5179705Y-16259222D01*
D12*
X3482500Y-16660000D02*
X3547500Y-16725000D01*
X3547500Y-16660000D02*
X3482500Y-16725000D01*
D11*
X3846372Y-16583984D02*
X3865420Y-16583984D01*
X3865420Y-16583984D02*
X3884467Y-16593508D01*
X3884467Y-16593508D02*
X3893991Y-16603031D01*
X3893991Y-16603031D02*
X3903515Y-16622079D01*
X3903515Y-16622079D02*
X3913039Y-16660174D01*
X3913039Y-16660174D02*
X3913039Y-16707793D01*
X3913039Y-16707793D02*
X3903515Y-16745888D01*
X3903515Y-16745888D02*
X3893991Y-16764936D01*
X3893991Y-16764936D02*
X3884467Y-16774460D01*
X3884467Y-16774460D02*
X3865420Y-16783984D01*
X3865420Y-16783984D02*
X3846372Y-16783984D01*
X3846372Y-16783984D02*
X3827324Y-16774460D01*
X3827324Y-16774460D02*
X3817801Y-16764936D01*
X3817801Y-16764936D02*
X3808277Y-16745888D01*
X3808277Y-16745888D02*
X3798753Y-16707793D01*
X3798753Y-16707793D02*
X3798753Y-16660174D01*
X3798753Y-16660174D02*
X3808277Y-16622079D01*
X3808277Y-16622079D02*
X3817801Y-16603031D01*
X3817801Y-16603031D02*
X3827324Y-16593508D01*
X3827324Y-16593508D02*
X3846372Y-16583984D01*
X3998753Y-16764936D02*
X4008277Y-16774460D01*
X4008277Y-16774460D02*
X3998753Y-16783984D01*
X3998753Y-16783984D02*
X3989229Y-16774460D01*
X3989229Y-16774460D02*
X3998753Y-16764936D01*
X3998753Y-16764936D02*
X3998753Y-16783984D01*
X4179705Y-16583984D02*
X4141610Y-16583984D01*
X4141610Y-16583984D02*
X4122562Y-16593508D01*
X4122562Y-16593508D02*
X4113039Y-16603031D01*
X4113039Y-16603031D02*
X4093991Y-16631603D01*
X4093991Y-16631603D02*
X4084467Y-16669698D01*
X4084467Y-16669698D02*
X4084467Y-16745888D01*
X4084467Y-16745888D02*
X4093991Y-16764936D01*
X4093991Y-16764936D02*
X4103515Y-16774460D01*
X4103515Y-16774460D02*
X4122562Y-16783984D01*
X4122562Y-16783984D02*
X4160658Y-16783984D01*
X4160658Y-16783984D02*
X4179705Y-16774460D01*
X4179705Y-16774460D02*
X4189229Y-16764936D01*
X4189229Y-16764936D02*
X4198753Y-16745888D01*
X4198753Y-16745888D02*
X4198753Y-16698269D01*
X4198753Y-16698269D02*
X4189229Y-16679222D01*
X4189229Y-16679222D02*
X4179705Y-16669698D01*
X4179705Y-16669698D02*
X4160658Y-16660174D01*
X4160658Y-16660174D02*
X4122562Y-16660174D01*
X4122562Y-16660174D02*
X4103515Y-16669698D01*
X4103515Y-16669698D02*
X4093991Y-16679222D01*
X4093991Y-16679222D02*
X4084467Y-16698269D01*
X4379705Y-16583984D02*
X4284467Y-16583984D01*
X4284467Y-16583984D02*
X4274944Y-16679222D01*
X4274944Y-16679222D02*
X4284467Y-16669698D01*
X4284467Y-16669698D02*
X4303515Y-16660174D01*
X4303515Y-16660174D02*
X4351134Y-16660174D01*
X4351134Y-16660174D02*
X4370182Y-16669698D01*
X4370182Y-16669698D02*
X4379705Y-16679222D01*
X4379705Y-16679222D02*
X4389229Y-16698269D01*
X4389229Y-16698269D02*
X4389229Y-16745888D01*
X4389229Y-16745888D02*
X4379705Y-16764936D01*
X4379705Y-16764936D02*
X4370182Y-16774460D01*
X4370182Y-16774460D02*
X4351134Y-16783984D01*
X4351134Y-16783984D02*
X4303515Y-16783984D01*
X4303515Y-16783984D02*
X4284467Y-16774460D01*
X4284467Y-16774460D02*
X4274944Y-16764936D01*
X4513039Y-16583984D02*
X4532086Y-16583984D01*
X4532086Y-16583984D02*
X4551134Y-16593508D01*
X4551134Y-16593508D02*
X4560658Y-16603031D01*
X4560658Y-16603031D02*
X4570182Y-16622079D01*
X4570182Y-16622079D02*
X4579705Y-16660174D01*
X4579705Y-16660174D02*
X4579705Y-16707793D01*
X4579705Y-16707793D02*
X4570182Y-16745888D01*
X4570182Y-16745888D02*
X4560658Y-16764936D01*
X4560658Y-16764936D02*
X4551134Y-16774460D01*
X4551134Y-16774460D02*
X4532086Y-16783984D01*
X4532086Y-16783984D02*
X4513039Y-16783984D01*
X4513039Y-16783984D02*
X4493991Y-16774460D01*
X4493991Y-16774460D02*
X4484467Y-16764936D01*
X4484467Y-16764936D02*
X4474944Y-16745888D01*
X4474944Y-16745888D02*
X4465420Y-16707793D01*
X4465420Y-16707793D02*
X4465420Y-16660174D01*
X4465420Y-16660174D02*
X4474944Y-16622079D01*
X4474944Y-16622079D02*
X4484467Y-16603031D01*
X4484467Y-16603031D02*
X4493991Y-16593508D01*
X4493991Y-16593508D02*
X4513039Y-16583984D01*
X4665420Y-16783984D02*
X4665420Y-16650650D01*
X4665420Y-16669698D02*
X4674944Y-16660174D01*
X4674944Y-16660174D02*
X4693991Y-16650650D01*
X4693991Y-16650650D02*
X4722563Y-16650650D01*
X4722563Y-16650650D02*
X4741610Y-16660174D01*
X4741610Y-16660174D02*
X4751134Y-16679222D01*
X4751134Y-16679222D02*
X4751134Y-16783984D01*
X4751134Y-16679222D02*
X4760658Y-16660174D01*
X4760658Y-16660174D02*
X4779705Y-16650650D01*
X4779705Y-16650650D02*
X4808277Y-16650650D01*
X4808277Y-16650650D02*
X4827325Y-16660174D01*
X4827325Y-16660174D02*
X4836848Y-16679222D01*
X4836848Y-16679222D02*
X4836848Y-16783984D01*
X4932086Y-16783984D02*
X4932086Y-16650650D01*
X4932086Y-16669698D02*
X4941610Y-16660174D01*
X4941610Y-16660174D02*
X4960658Y-16650650D01*
X4960658Y-16650650D02*
X4989229Y-16650650D01*
X4989229Y-16650650D02*
X5008277Y-16660174D01*
X5008277Y-16660174D02*
X5017801Y-16679222D01*
X5017801Y-16679222D02*
X5017801Y-16783984D01*
X5017801Y-16679222D02*
X5027325Y-16660174D01*
X5027325Y-16660174D02*
X5046372Y-16650650D01*
X5046372Y-16650650D02*
X5074944Y-16650650D01*
X5074944Y-16650650D02*
X5093991Y-16660174D01*
X5093991Y-16660174D02*
X5103515Y-16679222D01*
X5103515Y-16679222D02*
X5103515Y-16783984D01*
X5493991Y-16574460D02*
X5322563Y-16831603D01*
X5751134Y-16583984D02*
X5770182Y-16583984D01*
X5770182Y-16583984D02*
X5789229Y-16593508D01*
X5789229Y-16593508D02*
X5798753Y-16603031D01*
X5798753Y-16603031D02*
X5808277Y-16622079D01*
X5808277Y-16622079D02*
X5817801Y-16660174D01*
X5817801Y-16660174D02*
X5817801Y-16707793D01*
X5817801Y-16707793D02*
X5808277Y-16745888D01*
X5808277Y-16745888D02*
X5798753Y-16764936D01*
X5798753Y-16764936D02*
X5789229Y-16774460D01*
X5789229Y-16774460D02*
X5770182Y-16783984D01*
X5770182Y-16783984D02*
X5751134Y-16783984D01*
X5751134Y-16783984D02*
X5732086Y-16774460D01*
X5732086Y-16774460D02*
X5722563Y-16764936D01*
X5722563Y-16764936D02*
X5713039Y-16745888D01*
X5713039Y-16745888D02*
X5703515Y-16707793D01*
X5703515Y-16707793D02*
X5703515Y-16660174D01*
X5703515Y-16660174D02*
X5713039Y-16622079D01*
X5713039Y-16622079D02*
X5722563Y-16603031D01*
X5722563Y-16603031D02*
X5732086Y-16593508D01*
X5732086Y-16593508D02*
X5751134Y-16583984D01*
X5903515Y-16764936D02*
X5913039Y-16774460D01*
X5913039Y-16774460D02*
X5903515Y-16783984D01*
X5903515Y-16783984D02*
X5893991Y-16774460D01*
X5893991Y-16774460D02*
X5903515Y-16764936D01*
X5903515Y-16764936D02*
X5903515Y-16783984D01*
X6036848Y-16583984D02*
X6055896Y-16583984D01*
X6055896Y-16583984D02*
X6074944Y-16593508D01*
X6074944Y-16593508D02*
X6084467Y-16603031D01*
X6084467Y-16603031D02*
X6093991Y-16622079D01*
X6093991Y-16622079D02*
X6103515Y-16660174D01*
X6103515Y-16660174D02*
X6103515Y-16707793D01*
X6103515Y-16707793D02*
X6093991Y-16745888D01*
X6093991Y-16745888D02*
X6084467Y-16764936D01*
X6084467Y-16764936D02*
X6074944Y-16774460D01*
X6074944Y-16774460D02*
X6055896Y-16783984D01*
X6055896Y-16783984D02*
X6036848Y-16783984D01*
X6036848Y-16783984D02*
X6017801Y-16774460D01*
X6017801Y-16774460D02*
X6008277Y-16764936D01*
X6008277Y-16764936D02*
X5998753Y-16745888D01*
X5998753Y-16745888D02*
X5989229Y-16707793D01*
X5989229Y-16707793D02*
X5989229Y-16660174D01*
X5989229Y-16660174D02*
X5998753Y-16622079D01*
X5998753Y-16622079D02*
X6008277Y-16603031D01*
X6008277Y-16603031D02*
X6017801Y-16593508D01*
X6017801Y-16593508D02*
X6036848Y-16583984D01*
X6179706Y-16603031D02*
X6189229Y-16593508D01*
X6189229Y-16593508D02*
X6208277Y-16583984D01*
X6208277Y-16583984D02*
X6255896Y-16583984D01*
X6255896Y-16583984D02*
X6274944Y-16593508D01*
X6274944Y-16593508D02*
X6284467Y-16603031D01*
X6284467Y-16603031D02*
X6293991Y-16622079D01*
X6293991Y-16622079D02*
X6293991Y-16641127D01*
X6293991Y-16641127D02*
X6284467Y-16669698D01*
X6284467Y-16669698D02*
X6170182Y-16783984D01*
X6170182Y-16783984D02*
X6293991Y-16783984D01*
X6474944Y-16583984D02*
X6379706Y-16583984D01*
X6379706Y-16583984D02*
X6370182Y-16679222D01*
X6370182Y-16679222D02*
X6379706Y-16669698D01*
X6379706Y-16669698D02*
X6398753Y-16660174D01*
X6398753Y-16660174D02*
X6446372Y-16660174D01*
X6446372Y-16660174D02*
X6465420Y-16669698D01*
X6465420Y-16669698D02*
X6474944Y-16679222D01*
X6474944Y-16679222D02*
X6484467Y-16698269D01*
X6484467Y-16698269D02*
X6484467Y-16745888D01*
X6484467Y-16745888D02*
X6474944Y-16764936D01*
X6474944Y-16764936D02*
X6465420Y-16774460D01*
X6465420Y-16774460D02*
X6446372Y-16783984D01*
X6446372Y-16783984D02*
X6398753Y-16783984D01*
X6398753Y-16783984D02*
X6379706Y-16774460D01*
X6379706Y-16774460D02*
X6370182Y-16764936D01*
X6655896Y-16583984D02*
X6617801Y-16583984D01*
X6617801Y-16583984D02*
X6598753Y-16593508D01*
X6598753Y-16593508D02*
X6589229Y-16603031D01*
X6589229Y-16603031D02*
X6570182Y-16631603D01*
X6570182Y-16631603D02*
X6560658Y-16669698D01*
X6560658Y-16669698D02*
X6560658Y-16745888D01*
X6560658Y-16745888D02*
X6570182Y-16764936D01*
X6570182Y-16764936D02*
X6579706Y-16774460D01*
X6579706Y-16774460D02*
X6598753Y-16783984D01*
X6598753Y-16783984D02*
X6636848Y-16783984D01*
X6636848Y-16783984D02*
X6655896Y-16774460D01*
X6655896Y-16774460D02*
X6665420Y-16764936D01*
X6665420Y-16764936D02*
X6674944Y-16745888D01*
X6674944Y-16745888D02*
X6674944Y-16698269D01*
X6674944Y-16698269D02*
X6665420Y-16679222D01*
X6665420Y-16679222D02*
X6655896Y-16669698D01*
X6655896Y-16669698D02*
X6636848Y-16660174D01*
X6636848Y-16660174D02*
X6598753Y-16660174D01*
X6598753Y-16660174D02*
X6579706Y-16669698D01*
X6579706Y-16669698D02*
X6570182Y-16679222D01*
X6570182Y-16679222D02*
X6560658Y-16698269D01*
X6751134Y-16583984D02*
X6751134Y-16622079D01*
X6827325Y-16583984D02*
X6827325Y-16622079D01*
X7122563Y-16860174D02*
X7113039Y-16850650D01*
X7113039Y-16850650D02*
X7093991Y-16822079D01*
X7093991Y-16822079D02*
X7084468Y-16803031D01*
X7084468Y-16803031D02*
X7074944Y-16774460D01*
X7074944Y-16774460D02*
X7065420Y-16726841D01*
X7065420Y-16726841D02*
X7065420Y-16688746D01*
X7065420Y-16688746D02*
X7074944Y-16641127D01*
X7074944Y-16641127D02*
X7084468Y-16612555D01*
X7084468Y-16612555D02*
X7093991Y-16593508D01*
X7093991Y-16593508D02*
X7113039Y-16564936D01*
X7113039Y-16564936D02*
X7122563Y-16555412D01*
X7284468Y-16650650D02*
X7284468Y-16783984D01*
X7236848Y-16574460D02*
X7189229Y-16717317D01*
X7189229Y-16717317D02*
X7313039Y-16717317D01*
X7541610Y-16783984D02*
X7541610Y-16583984D01*
X7627325Y-16783984D02*
X7627325Y-16679222D01*
X7627325Y-16679222D02*
X7617801Y-16660174D01*
X7617801Y-16660174D02*
X7598753Y-16650650D01*
X7598753Y-16650650D02*
X7570182Y-16650650D01*
X7570182Y-16650650D02*
X7551134Y-16660174D01*
X7551134Y-16660174D02*
X7541610Y-16669698D01*
X7751134Y-16783984D02*
X7732087Y-16774460D01*
X7732087Y-16774460D02*
X7722563Y-16764936D01*
X7722563Y-16764936D02*
X7713039Y-16745888D01*
X7713039Y-16745888D02*
X7713039Y-16688746D01*
X7713039Y-16688746D02*
X7722563Y-16669698D01*
X7722563Y-16669698D02*
X7732087Y-16660174D01*
X7732087Y-16660174D02*
X7751134Y-16650650D01*
X7751134Y-16650650D02*
X7779706Y-16650650D01*
X7779706Y-16650650D02*
X7798753Y-16660174D01*
X7798753Y-16660174D02*
X7808277Y-16669698D01*
X7808277Y-16669698D02*
X7817801Y-16688746D01*
X7817801Y-16688746D02*
X7817801Y-16745888D01*
X7817801Y-16745888D02*
X7808277Y-16764936D01*
X7808277Y-16764936D02*
X7798753Y-16774460D01*
X7798753Y-16774460D02*
X7779706Y-16783984D01*
X7779706Y-16783984D02*
X7751134Y-16783984D01*
X7932087Y-16783984D02*
X7913039Y-16774460D01*
X7913039Y-16774460D02*
X7903515Y-16755412D01*
X7903515Y-16755412D02*
X7903515Y-16583984D01*
X8084468Y-16774460D02*
X8065420Y-16783984D01*
X8065420Y-16783984D02*
X8027325Y-16783984D01*
X8027325Y-16783984D02*
X8008277Y-16774460D01*
X8008277Y-16774460D02*
X7998753Y-16755412D01*
X7998753Y-16755412D02*
X7998753Y-16679222D01*
X7998753Y-16679222D02*
X8008277Y-16660174D01*
X8008277Y-16660174D02*
X8027325Y-16650650D01*
X8027325Y-16650650D02*
X8065420Y-16650650D01*
X8065420Y-16650650D02*
X8084468Y-16660174D01*
X8084468Y-16660174D02*
X8093991Y-16679222D01*
X8093991Y-16679222D02*
X8093991Y-16698269D01*
X8093991Y-16698269D02*
X7998753Y-16717317D01*
X8170182Y-16774460D02*
X8189230Y-16783984D01*
X8189230Y-16783984D02*
X8227325Y-16783984D01*
X8227325Y-16783984D02*
X8246372Y-16774460D01*
X8246372Y-16774460D02*
X8255896Y-16755412D01*
X8255896Y-16755412D02*
X8255896Y-16745888D01*
X8255896Y-16745888D02*
X8246372Y-16726841D01*
X8246372Y-16726841D02*
X8227325Y-16717317D01*
X8227325Y-16717317D02*
X8198753Y-16717317D01*
X8198753Y-16717317D02*
X8179706Y-16707793D01*
X8179706Y-16707793D02*
X8170182Y-16688746D01*
X8170182Y-16688746D02*
X8170182Y-16679222D01*
X8170182Y-16679222D02*
X8179706Y-16660174D01*
X8179706Y-16660174D02*
X8198753Y-16650650D01*
X8198753Y-16650650D02*
X8227325Y-16650650D01*
X8227325Y-16650650D02*
X8246372Y-16660174D01*
X8322563Y-16860174D02*
X8332087Y-16850650D01*
X8332087Y-16850650D02*
X8351134Y-16822079D01*
X8351134Y-16822079D02*
X8360658Y-16803031D01*
X8360658Y-16803031D02*
X8370182Y-16774460D01*
X8370182Y-16774460D02*
X8379706Y-16726841D01*
X8379706Y-16726841D02*
X8379706Y-16688746D01*
X8379706Y-16688746D02*
X8370182Y-16641127D01*
X8370182Y-16641127D02*
X8360658Y-16612555D01*
X8360658Y-16612555D02*
X8351134Y-16593508D01*
X8351134Y-16593508D02*
X8332087Y-16564936D01*
X8332087Y-16564936D02*
X8322563Y-16555412D01*
X8684468Y-16860174D02*
X8674944Y-16850650D01*
X8674944Y-16850650D02*
X8655896Y-16822079D01*
X8655896Y-16822079D02*
X8646373Y-16803031D01*
X8646373Y-16803031D02*
X8636849Y-16774460D01*
X8636849Y-16774460D02*
X8627325Y-16726841D01*
X8627325Y-16726841D02*
X8627325Y-16688746D01*
X8627325Y-16688746D02*
X8636849Y-16641127D01*
X8636849Y-16641127D02*
X8646373Y-16612555D01*
X8646373Y-16612555D02*
X8655896Y-16593508D01*
X8655896Y-16593508D02*
X8674944Y-16564936D01*
X8674944Y-16564936D02*
X8684468Y-16555412D01*
X8760658Y-16650650D02*
X8760658Y-16783984D01*
X8760658Y-16669698D02*
X8770182Y-16660174D01*
X8770182Y-16660174D02*
X8789230Y-16650650D01*
X8789230Y-16650650D02*
X8817801Y-16650650D01*
X8817801Y-16650650D02*
X8836849Y-16660174D01*
X8836849Y-16660174D02*
X8846373Y-16679222D01*
X8846373Y-16679222D02*
X8846373Y-16783984D01*
X8970182Y-16783984D02*
X8951134Y-16774460D01*
X8951134Y-16774460D02*
X8941611Y-16764936D01*
X8941611Y-16764936D02*
X8932087Y-16745888D01*
X8932087Y-16745888D02*
X8932087Y-16688746D01*
X8932087Y-16688746D02*
X8941611Y-16669698D01*
X8941611Y-16669698D02*
X8951134Y-16660174D01*
X8951134Y-16660174D02*
X8970182Y-16650650D01*
X8970182Y-16650650D02*
X8998754Y-16650650D01*
X8998754Y-16650650D02*
X9017801Y-16660174D01*
X9017801Y-16660174D02*
X9027325Y-16669698D01*
X9027325Y-16669698D02*
X9036849Y-16688746D01*
X9036849Y-16688746D02*
X9036849Y-16745888D01*
X9036849Y-16745888D02*
X9027325Y-16764936D01*
X9027325Y-16764936D02*
X9017801Y-16774460D01*
X9017801Y-16774460D02*
X8998754Y-16783984D01*
X8998754Y-16783984D02*
X8970182Y-16783984D01*
X9093992Y-16650650D02*
X9170182Y-16650650D01*
X9122563Y-16583984D02*
X9122563Y-16755412D01*
X9122563Y-16755412D02*
X9132087Y-16774460D01*
X9132087Y-16774460D02*
X9151134Y-16783984D01*
X9151134Y-16783984D02*
X9170182Y-16783984D01*
X9389230Y-16650650D02*
X9389230Y-16850650D01*
X9389230Y-16660174D02*
X9408277Y-16650650D01*
X9408277Y-16650650D02*
X9446373Y-16650650D01*
X9446373Y-16650650D02*
X9465420Y-16660174D01*
X9465420Y-16660174D02*
X9474944Y-16669698D01*
X9474944Y-16669698D02*
X9484468Y-16688746D01*
X9484468Y-16688746D02*
X9484468Y-16745888D01*
X9484468Y-16745888D02*
X9474944Y-16764936D01*
X9474944Y-16764936D02*
X9465420Y-16774460D01*
X9465420Y-16774460D02*
X9446373Y-16783984D01*
X9446373Y-16783984D02*
X9408277Y-16783984D01*
X9408277Y-16783984D02*
X9389230Y-16774460D01*
X9598754Y-16783984D02*
X9579706Y-16774460D01*
X9579706Y-16774460D02*
X9570182Y-16755412D01*
X9570182Y-16755412D02*
X9570182Y-16583984D01*
X9760658Y-16783984D02*
X9760658Y-16679222D01*
X9760658Y-16679222D02*
X9751135Y-16660174D01*
X9751135Y-16660174D02*
X9732087Y-16650650D01*
X9732087Y-16650650D02*
X9693992Y-16650650D01*
X9693992Y-16650650D02*
X9674944Y-16660174D01*
X9760658Y-16774460D02*
X9741611Y-16783984D01*
X9741611Y-16783984D02*
X9693992Y-16783984D01*
X9693992Y-16783984D02*
X9674944Y-16774460D01*
X9674944Y-16774460D02*
X9665420Y-16755412D01*
X9665420Y-16755412D02*
X9665420Y-16736365D01*
X9665420Y-16736365D02*
X9674944Y-16717317D01*
X9674944Y-16717317D02*
X9693992Y-16707793D01*
X9693992Y-16707793D02*
X9741611Y-16707793D01*
X9741611Y-16707793D02*
X9760658Y-16698269D01*
X9827325Y-16650650D02*
X9903515Y-16650650D01*
X9855896Y-16583984D02*
X9855896Y-16755412D01*
X9855896Y-16755412D02*
X9865420Y-16774460D01*
X9865420Y-16774460D02*
X9884468Y-16783984D01*
X9884468Y-16783984D02*
X9903515Y-16783984D01*
X10046373Y-16774460D02*
X10027325Y-16783984D01*
X10027325Y-16783984D02*
X9989230Y-16783984D01*
X9989230Y-16783984D02*
X9970182Y-16774460D01*
X9970182Y-16774460D02*
X9960658Y-16755412D01*
X9960658Y-16755412D02*
X9960658Y-16679222D01*
X9960658Y-16679222D02*
X9970182Y-16660174D01*
X9970182Y-16660174D02*
X9989230Y-16650650D01*
X9989230Y-16650650D02*
X10027325Y-16650650D01*
X10027325Y-16650650D02*
X10046373Y-16660174D01*
X10046373Y-16660174D02*
X10055896Y-16679222D01*
X10055896Y-16679222D02*
X10055896Y-16698269D01*
X10055896Y-16698269D02*
X9960658Y-16717317D01*
X10227325Y-16783984D02*
X10227325Y-16583984D01*
X10227325Y-16774460D02*
X10208277Y-16783984D01*
X10208277Y-16783984D02*
X10170182Y-16783984D01*
X10170182Y-16783984D02*
X10151135Y-16774460D01*
X10151135Y-16774460D02*
X10141611Y-16764936D01*
X10141611Y-16764936D02*
X10132087Y-16745888D01*
X10132087Y-16745888D02*
X10132087Y-16688746D01*
X10132087Y-16688746D02*
X10141611Y-16669698D01*
X10141611Y-16669698D02*
X10151135Y-16660174D01*
X10151135Y-16660174D02*
X10170182Y-16650650D01*
X10170182Y-16650650D02*
X10208277Y-16650650D01*
X10208277Y-16650650D02*
X10227325Y-16660174D01*
X10303516Y-16860174D02*
X10313039Y-16850650D01*
X10313039Y-16850650D02*
X10332087Y-16822079D01*
X10332087Y-16822079D02*
X10341611Y-16803031D01*
X10341611Y-16803031D02*
X10351135Y-16774460D01*
X10351135Y-16774460D02*
X10360658Y-16726841D01*
X10360658Y-16726841D02*
X10360658Y-16688746D01*
X10360658Y-16688746D02*
X10351135Y-16641127D01*
X10351135Y-16641127D02*
X10341611Y-16612555D01*
X10341611Y-16612555D02*
X10332087Y-16593508D01*
X10332087Y-16593508D02*
X10313039Y-16564936D01*
X10313039Y-16564936D02*
X10303516Y-16555412D01*
D12*
X3547500Y-16956500D02*
G75*
G02*
X3457500Y-16956500I-45000J0D01*
G01*
X3457500Y-16956500D02*
G75*
G02*
X3547500Y-16956500I45000J0D01*
G01*
D11*
X3846372Y-16847984D02*
X3865420Y-16847984D01*
X3865420Y-16847984D02*
X3884467Y-16857508D01*
X3884467Y-16857508D02*
X3893991Y-16867031D01*
X3893991Y-16867031D02*
X3903515Y-16886079D01*
X3903515Y-16886079D02*
X3913039Y-16924174D01*
X3913039Y-16924174D02*
X3913039Y-16971793D01*
X3913039Y-16971793D02*
X3903515Y-17009889D01*
X3903515Y-17009889D02*
X3893991Y-17028936D01*
X3893991Y-17028936D02*
X3884467Y-17038460D01*
X3884467Y-17038460D02*
X3865420Y-17047984D01*
X3865420Y-17047984D02*
X3846372Y-17047984D01*
X3846372Y-17047984D02*
X3827324Y-17038460D01*
X3827324Y-17038460D02*
X3817801Y-17028936D01*
X3817801Y-17028936D02*
X3808277Y-17009889D01*
X3808277Y-17009889D02*
X3798753Y-16971793D01*
X3798753Y-16971793D02*
X3798753Y-16924174D01*
X3798753Y-16924174D02*
X3808277Y-16886079D01*
X3808277Y-16886079D02*
X3817801Y-16867031D01*
X3817801Y-16867031D02*
X3827324Y-16857508D01*
X3827324Y-16857508D02*
X3846372Y-16847984D01*
X3998753Y-17028936D02*
X4008277Y-17038460D01*
X4008277Y-17038460D02*
X3998753Y-17047984D01*
X3998753Y-17047984D02*
X3989229Y-17038460D01*
X3989229Y-17038460D02*
X3998753Y-17028936D01*
X3998753Y-17028936D02*
X3998753Y-17047984D01*
X4103515Y-17047984D02*
X4141610Y-17047984D01*
X4141610Y-17047984D02*
X4160658Y-17038460D01*
X4160658Y-17038460D02*
X4170182Y-17028936D01*
X4170182Y-17028936D02*
X4189229Y-17000365D01*
X4189229Y-17000365D02*
X4198753Y-16962270D01*
X4198753Y-16962270D02*
X4198753Y-16886079D01*
X4198753Y-16886079D02*
X4189229Y-16867031D01*
X4189229Y-16867031D02*
X4179705Y-16857508D01*
X4179705Y-16857508D02*
X4160658Y-16847984D01*
X4160658Y-16847984D02*
X4122562Y-16847984D01*
X4122562Y-16847984D02*
X4103515Y-16857508D01*
X4103515Y-16857508D02*
X4093991Y-16867031D01*
X4093991Y-16867031D02*
X4084467Y-16886079D01*
X4084467Y-16886079D02*
X4084467Y-16933698D01*
X4084467Y-16933698D02*
X4093991Y-16952746D01*
X4093991Y-16952746D02*
X4103515Y-16962270D01*
X4103515Y-16962270D02*
X4122562Y-16971793D01*
X4122562Y-16971793D02*
X4160658Y-16971793D01*
X4160658Y-16971793D02*
X4179705Y-16962270D01*
X4179705Y-16962270D02*
X4189229Y-16952746D01*
X4189229Y-16952746D02*
X4198753Y-16933698D01*
X4322563Y-16847984D02*
X4341610Y-16847984D01*
X4341610Y-16847984D02*
X4360658Y-16857508D01*
X4360658Y-16857508D02*
X4370182Y-16867031D01*
X4370182Y-16867031D02*
X4379705Y-16886079D01*
X4379705Y-16886079D02*
X4389229Y-16924174D01*
X4389229Y-16924174D02*
X4389229Y-16971793D01*
X4389229Y-16971793D02*
X4379705Y-17009889D01*
X4379705Y-17009889D02*
X4370182Y-17028936D01*
X4370182Y-17028936D02*
X4360658Y-17038460D01*
X4360658Y-17038460D02*
X4341610Y-17047984D01*
X4341610Y-17047984D02*
X4322563Y-17047984D01*
X4322563Y-17047984D02*
X4303515Y-17038460D01*
X4303515Y-17038460D02*
X4293991Y-17028936D01*
X4293991Y-17028936D02*
X4284467Y-17009889D01*
X4284467Y-17009889D02*
X4274944Y-16971793D01*
X4274944Y-16971793D02*
X4274944Y-16924174D01*
X4274944Y-16924174D02*
X4284467Y-16886079D01*
X4284467Y-16886079D02*
X4293991Y-16867031D01*
X4293991Y-16867031D02*
X4303515Y-16857508D01*
X4303515Y-16857508D02*
X4322563Y-16847984D01*
X4513039Y-16847984D02*
X4532086Y-16847984D01*
X4532086Y-16847984D02*
X4551134Y-16857508D01*
X4551134Y-16857508D02*
X4560658Y-16867031D01*
X4560658Y-16867031D02*
X4570182Y-16886079D01*
X4570182Y-16886079D02*
X4579705Y-16924174D01*
X4579705Y-16924174D02*
X4579705Y-16971793D01*
X4579705Y-16971793D02*
X4570182Y-17009889D01*
X4570182Y-17009889D02*
X4560658Y-17028936D01*
X4560658Y-17028936D02*
X4551134Y-17038460D01*
X4551134Y-17038460D02*
X4532086Y-17047984D01*
X4532086Y-17047984D02*
X4513039Y-17047984D01*
X4513039Y-17047984D02*
X4493991Y-17038460D01*
X4493991Y-17038460D02*
X4484467Y-17028936D01*
X4484467Y-17028936D02*
X4474944Y-17009889D01*
X4474944Y-17009889D02*
X4465420Y-16971793D01*
X4465420Y-16971793D02*
X4465420Y-16924174D01*
X4465420Y-16924174D02*
X4474944Y-16886079D01*
X4474944Y-16886079D02*
X4484467Y-16867031D01*
X4484467Y-16867031D02*
X4493991Y-16857508D01*
X4493991Y-16857508D02*
X4513039Y-16847984D01*
X4665420Y-17047984D02*
X4665420Y-16914650D01*
X4665420Y-16933698D02*
X4674944Y-16924174D01*
X4674944Y-16924174D02*
X4693991Y-16914650D01*
X4693991Y-16914650D02*
X4722563Y-16914650D01*
X4722563Y-16914650D02*
X4741610Y-16924174D01*
X4741610Y-16924174D02*
X4751134Y-16943222D01*
X4751134Y-16943222D02*
X4751134Y-17047984D01*
X4751134Y-16943222D02*
X4760658Y-16924174D01*
X4760658Y-16924174D02*
X4779705Y-16914650D01*
X4779705Y-16914650D02*
X4808277Y-16914650D01*
X4808277Y-16914650D02*
X4827325Y-16924174D01*
X4827325Y-16924174D02*
X4836848Y-16943222D01*
X4836848Y-16943222D02*
X4836848Y-17047984D01*
X4932086Y-17047984D02*
X4932086Y-16914650D01*
X4932086Y-16933698D02*
X4941610Y-16924174D01*
X4941610Y-16924174D02*
X4960658Y-16914650D01*
X4960658Y-16914650D02*
X4989229Y-16914650D01*
X4989229Y-16914650D02*
X5008277Y-16924174D01*
X5008277Y-16924174D02*
X5017801Y-16943222D01*
X5017801Y-16943222D02*
X5017801Y-17047984D01*
X5017801Y-16943222D02*
X5027325Y-16924174D01*
X5027325Y-16924174D02*
X5046372Y-16914650D01*
X5046372Y-16914650D02*
X5074944Y-16914650D01*
X5074944Y-16914650D02*
X5093991Y-16924174D01*
X5093991Y-16924174D02*
X5103515Y-16943222D01*
X5103515Y-16943222D02*
X5103515Y-17047984D01*
X5493991Y-16838460D02*
X5322563Y-17095603D01*
X5751134Y-16847984D02*
X5770182Y-16847984D01*
X5770182Y-16847984D02*
X5789229Y-16857508D01*
X5789229Y-16857508D02*
X5798753Y-16867031D01*
X5798753Y-16867031D02*
X5808277Y-16886079D01*
X5808277Y-16886079D02*
X5817801Y-16924174D01*
X5817801Y-16924174D02*
X5817801Y-16971793D01*
X5817801Y-16971793D02*
X5808277Y-17009889D01*
X5808277Y-17009889D02*
X5798753Y-17028936D01*
X5798753Y-17028936D02*
X5789229Y-17038460D01*
X5789229Y-17038460D02*
X5770182Y-17047984D01*
X5770182Y-17047984D02*
X5751134Y-17047984D01*
X5751134Y-17047984D02*
X5732086Y-17038460D01*
X5732086Y-17038460D02*
X5722563Y-17028936D01*
X5722563Y-17028936D02*
X5713039Y-17009889D01*
X5713039Y-17009889D02*
X5703515Y-16971793D01*
X5703515Y-16971793D02*
X5703515Y-16924174D01*
X5703515Y-16924174D02*
X5713039Y-16886079D01*
X5713039Y-16886079D02*
X5722563Y-16867031D01*
X5722563Y-16867031D02*
X5732086Y-16857508D01*
X5732086Y-16857508D02*
X5751134Y-16847984D01*
X5903515Y-17028936D02*
X5913039Y-17038460D01*
X5913039Y-17038460D02*
X5903515Y-17047984D01*
X5903515Y-17047984D02*
X5893991Y-17038460D01*
X5893991Y-17038460D02*
X5903515Y-17028936D01*
X5903515Y-17028936D02*
X5903515Y-17047984D01*
X6036848Y-16847984D02*
X6055896Y-16847984D01*
X6055896Y-16847984D02*
X6074944Y-16857508D01*
X6074944Y-16857508D02*
X6084467Y-16867031D01*
X6084467Y-16867031D02*
X6093991Y-16886079D01*
X6093991Y-16886079D02*
X6103515Y-16924174D01*
X6103515Y-16924174D02*
X6103515Y-16971793D01*
X6103515Y-16971793D02*
X6093991Y-17009889D01*
X6093991Y-17009889D02*
X6084467Y-17028936D01*
X6084467Y-17028936D02*
X6074944Y-17038460D01*
X6074944Y-17038460D02*
X6055896Y-17047984D01*
X6055896Y-17047984D02*
X6036848Y-17047984D01*
X6036848Y-17047984D02*
X6017801Y-17038460D01*
X6017801Y-17038460D02*
X6008277Y-17028936D01*
X6008277Y-17028936D02*
X5998753Y-17009889D01*
X5998753Y-17009889D02*
X5989229Y-16971793D01*
X5989229Y-16971793D02*
X5989229Y-16924174D01*
X5989229Y-16924174D02*
X5998753Y-16886079D01*
X5998753Y-16886079D02*
X6008277Y-16867031D01*
X6008277Y-16867031D02*
X6017801Y-16857508D01*
X6017801Y-16857508D02*
X6036848Y-16847984D01*
X6170182Y-16847984D02*
X6293991Y-16847984D01*
X6293991Y-16847984D02*
X6227325Y-16924174D01*
X6227325Y-16924174D02*
X6255896Y-16924174D01*
X6255896Y-16924174D02*
X6274944Y-16933698D01*
X6274944Y-16933698D02*
X6284467Y-16943222D01*
X6284467Y-16943222D02*
X6293991Y-16962270D01*
X6293991Y-16962270D02*
X6293991Y-17009889D01*
X6293991Y-17009889D02*
X6284467Y-17028936D01*
X6284467Y-17028936D02*
X6274944Y-17038460D01*
X6274944Y-17038460D02*
X6255896Y-17047984D01*
X6255896Y-17047984D02*
X6198753Y-17047984D01*
X6198753Y-17047984D02*
X6179706Y-17038460D01*
X6179706Y-17038460D02*
X6170182Y-17028936D01*
X6474944Y-16847984D02*
X6379706Y-16847984D01*
X6379706Y-16847984D02*
X6370182Y-16943222D01*
X6370182Y-16943222D02*
X6379706Y-16933698D01*
X6379706Y-16933698D02*
X6398753Y-16924174D01*
X6398753Y-16924174D02*
X6446372Y-16924174D01*
X6446372Y-16924174D02*
X6465420Y-16933698D01*
X6465420Y-16933698D02*
X6474944Y-16943222D01*
X6474944Y-16943222D02*
X6484467Y-16962270D01*
X6484467Y-16962270D02*
X6484467Y-17009889D01*
X6484467Y-17009889D02*
X6474944Y-17028936D01*
X6474944Y-17028936D02*
X6465420Y-17038460D01*
X6465420Y-17038460D02*
X6446372Y-17047984D01*
X6446372Y-17047984D02*
X6398753Y-17047984D01*
X6398753Y-17047984D02*
X6379706Y-17038460D01*
X6379706Y-17038460D02*
X6370182Y-17028936D01*
X6655896Y-16914650D02*
X6655896Y-17047984D01*
X6608277Y-16838460D02*
X6560658Y-16981317D01*
X6560658Y-16981317D02*
X6684467Y-16981317D01*
X6751134Y-16847984D02*
X6751134Y-16886079D01*
X6827325Y-16847984D02*
X6827325Y-16886079D01*
X7122563Y-17124174D02*
X7113039Y-17114650D01*
X7113039Y-17114650D02*
X7093991Y-17086079D01*
X7093991Y-17086079D02*
X7084468Y-17067031D01*
X7084468Y-17067031D02*
X7074944Y-17038460D01*
X7074944Y-17038460D02*
X7065420Y-16990841D01*
X7065420Y-16990841D02*
X7065420Y-16952746D01*
X7065420Y-16952746D02*
X7074944Y-16905127D01*
X7074944Y-16905127D02*
X7084468Y-16876555D01*
X7084468Y-16876555D02*
X7093991Y-16857508D01*
X7093991Y-16857508D02*
X7113039Y-16828936D01*
X7113039Y-16828936D02*
X7122563Y-16819412D01*
X7284468Y-16847984D02*
X7246372Y-16847984D01*
X7246372Y-16847984D02*
X7227325Y-16857508D01*
X7227325Y-16857508D02*
X7217801Y-16867031D01*
X7217801Y-16867031D02*
X7198753Y-16895603D01*
X7198753Y-16895603D02*
X7189229Y-16933698D01*
X7189229Y-16933698D02*
X7189229Y-17009889D01*
X7189229Y-17009889D02*
X7198753Y-17028936D01*
X7198753Y-17028936D02*
X7208277Y-17038460D01*
X7208277Y-17038460D02*
X7227325Y-17047984D01*
X7227325Y-17047984D02*
X7265420Y-17047984D01*
X7265420Y-17047984D02*
X7284468Y-17038460D01*
X7284468Y-17038460D02*
X7293991Y-17028936D01*
X7293991Y-17028936D02*
X7303515Y-17009889D01*
X7303515Y-17009889D02*
X7303515Y-16962270D01*
X7303515Y-16962270D02*
X7293991Y-16943222D01*
X7293991Y-16943222D02*
X7284468Y-16933698D01*
X7284468Y-16933698D02*
X7265420Y-16924174D01*
X7265420Y-16924174D02*
X7227325Y-16924174D01*
X7227325Y-16924174D02*
X7208277Y-16933698D01*
X7208277Y-16933698D02*
X7198753Y-16943222D01*
X7198753Y-16943222D02*
X7189229Y-16962270D01*
X7541610Y-17047984D02*
X7541610Y-16847984D01*
X7627325Y-17047984D02*
X7627325Y-16943222D01*
X7627325Y-16943222D02*
X7617801Y-16924174D01*
X7617801Y-16924174D02*
X7598753Y-16914650D01*
X7598753Y-16914650D02*
X7570182Y-16914650D01*
X7570182Y-16914650D02*
X7551134Y-16924174D01*
X7551134Y-16924174D02*
X7541610Y-16933698D01*
X7751134Y-17047984D02*
X7732087Y-17038460D01*
X7732087Y-17038460D02*
X7722563Y-17028936D01*
X7722563Y-17028936D02*
X7713039Y-17009889D01*
X7713039Y-17009889D02*
X7713039Y-16952746D01*
X7713039Y-16952746D02*
X7722563Y-16933698D01*
X7722563Y-16933698D02*
X7732087Y-16924174D01*
X7732087Y-16924174D02*
X7751134Y-16914650D01*
X7751134Y-16914650D02*
X7779706Y-16914650D01*
X7779706Y-16914650D02*
X7798753Y-16924174D01*
X7798753Y-16924174D02*
X7808277Y-16933698D01*
X7808277Y-16933698D02*
X7817801Y-16952746D01*
X7817801Y-16952746D02*
X7817801Y-17009889D01*
X7817801Y-17009889D02*
X7808277Y-17028936D01*
X7808277Y-17028936D02*
X7798753Y-17038460D01*
X7798753Y-17038460D02*
X7779706Y-17047984D01*
X7779706Y-17047984D02*
X7751134Y-17047984D01*
X7932087Y-17047984D02*
X7913039Y-17038460D01*
X7913039Y-17038460D02*
X7903515Y-17019412D01*
X7903515Y-17019412D02*
X7903515Y-16847984D01*
X8084468Y-17038460D02*
X8065420Y-17047984D01*
X8065420Y-17047984D02*
X8027325Y-17047984D01*
X8027325Y-17047984D02*
X8008277Y-17038460D01*
X8008277Y-17038460D02*
X7998753Y-17019412D01*
X7998753Y-17019412D02*
X7998753Y-16943222D01*
X7998753Y-16943222D02*
X8008277Y-16924174D01*
X8008277Y-16924174D02*
X8027325Y-16914650D01*
X8027325Y-16914650D02*
X8065420Y-16914650D01*
X8065420Y-16914650D02*
X8084468Y-16924174D01*
X8084468Y-16924174D02*
X8093991Y-16943222D01*
X8093991Y-16943222D02*
X8093991Y-16962270D01*
X8093991Y-16962270D02*
X7998753Y-16981317D01*
X8170182Y-17038460D02*
X8189230Y-17047984D01*
X8189230Y-17047984D02*
X8227325Y-17047984D01*
X8227325Y-17047984D02*
X8246372Y-17038460D01*
X8246372Y-17038460D02*
X8255896Y-17019412D01*
X8255896Y-17019412D02*
X8255896Y-17009889D01*
X8255896Y-17009889D02*
X8246372Y-16990841D01*
X8246372Y-16990841D02*
X8227325Y-16981317D01*
X8227325Y-16981317D02*
X8198753Y-16981317D01*
X8198753Y-16981317D02*
X8179706Y-16971793D01*
X8179706Y-16971793D02*
X8170182Y-16952746D01*
X8170182Y-16952746D02*
X8170182Y-16943222D01*
X8170182Y-16943222D02*
X8179706Y-16924174D01*
X8179706Y-16924174D02*
X8198753Y-16914650D01*
X8198753Y-16914650D02*
X8227325Y-16914650D01*
X8227325Y-16914650D02*
X8246372Y-16924174D01*
X8322563Y-17124174D02*
X8332087Y-17114650D01*
X8332087Y-17114650D02*
X8351134Y-17086079D01*
X8351134Y-17086079D02*
X8360658Y-17067031D01*
X8360658Y-17067031D02*
X8370182Y-17038460D01*
X8370182Y-17038460D02*
X8379706Y-16990841D01*
X8379706Y-16990841D02*
X8379706Y-16952746D01*
X8379706Y-16952746D02*
X8370182Y-16905127D01*
X8370182Y-16905127D02*
X8360658Y-16876555D01*
X8360658Y-16876555D02*
X8351134Y-16857508D01*
X8351134Y-16857508D02*
X8332087Y-16828936D01*
X8332087Y-16828936D02*
X8322563Y-16819412D01*
X8684468Y-17124174D02*
X8674944Y-17114650D01*
X8674944Y-17114650D02*
X8655896Y-17086079D01*
X8655896Y-17086079D02*
X8646373Y-17067031D01*
X8646373Y-17067031D02*
X8636849Y-17038460D01*
X8636849Y-17038460D02*
X8627325Y-16990841D01*
X8627325Y-16990841D02*
X8627325Y-16952746D01*
X8627325Y-16952746D02*
X8636849Y-16905127D01*
X8636849Y-16905127D02*
X8646373Y-16876555D01*
X8646373Y-16876555D02*
X8655896Y-16857508D01*
X8655896Y-16857508D02*
X8674944Y-16828936D01*
X8674944Y-16828936D02*
X8684468Y-16819412D01*
X8760658Y-16914650D02*
X8760658Y-17047984D01*
X8760658Y-16933698D02*
X8770182Y-16924174D01*
X8770182Y-16924174D02*
X8789230Y-16914650D01*
X8789230Y-16914650D02*
X8817801Y-16914650D01*
X8817801Y-16914650D02*
X8836849Y-16924174D01*
X8836849Y-16924174D02*
X8846373Y-16943222D01*
X8846373Y-16943222D02*
X8846373Y-17047984D01*
X8970182Y-17047984D02*
X8951134Y-17038460D01*
X8951134Y-17038460D02*
X8941611Y-17028936D01*
X8941611Y-17028936D02*
X8932087Y-17009889D01*
X8932087Y-17009889D02*
X8932087Y-16952746D01*
X8932087Y-16952746D02*
X8941611Y-16933698D01*
X8941611Y-16933698D02*
X8951134Y-16924174D01*
X8951134Y-16924174D02*
X8970182Y-16914650D01*
X8970182Y-16914650D02*
X8998754Y-16914650D01*
X8998754Y-16914650D02*
X9017801Y-16924174D01*
X9017801Y-16924174D02*
X9027325Y-16933698D01*
X9027325Y-16933698D02*
X9036849Y-16952746D01*
X9036849Y-16952746D02*
X9036849Y-17009889D01*
X9036849Y-17009889D02*
X9027325Y-17028936D01*
X9027325Y-17028936D02*
X9017801Y-17038460D01*
X9017801Y-17038460D02*
X8998754Y-17047984D01*
X8998754Y-17047984D02*
X8970182Y-17047984D01*
X9093992Y-16914650D02*
X9170182Y-16914650D01*
X9122563Y-16847984D02*
X9122563Y-17019412D01*
X9122563Y-17019412D02*
X9132087Y-17038460D01*
X9132087Y-17038460D02*
X9151134Y-17047984D01*
X9151134Y-17047984D02*
X9170182Y-17047984D01*
X9389230Y-16914650D02*
X9389230Y-17114650D01*
X9389230Y-16924174D02*
X9408277Y-16914650D01*
X9408277Y-16914650D02*
X9446373Y-16914650D01*
X9446373Y-16914650D02*
X9465420Y-16924174D01*
X9465420Y-16924174D02*
X9474944Y-16933698D01*
X9474944Y-16933698D02*
X9484468Y-16952746D01*
X9484468Y-16952746D02*
X9484468Y-17009889D01*
X9484468Y-17009889D02*
X9474944Y-17028936D01*
X9474944Y-17028936D02*
X9465420Y-17038460D01*
X9465420Y-17038460D02*
X9446373Y-17047984D01*
X9446373Y-17047984D02*
X9408277Y-17047984D01*
X9408277Y-17047984D02*
X9389230Y-17038460D01*
X9598754Y-17047984D02*
X9579706Y-17038460D01*
X9579706Y-17038460D02*
X9570182Y-17019412D01*
X9570182Y-17019412D02*
X9570182Y-16847984D01*
X9760658Y-17047984D02*
X9760658Y-16943222D01*
X9760658Y-16943222D02*
X9751135Y-16924174D01*
X9751135Y-16924174D02*
X9732087Y-16914650D01*
X9732087Y-16914650D02*
X9693992Y-16914650D01*
X9693992Y-16914650D02*
X9674944Y-16924174D01*
X9760658Y-17038460D02*
X9741611Y-17047984D01*
X9741611Y-17047984D02*
X9693992Y-17047984D01*
X9693992Y-17047984D02*
X9674944Y-17038460D01*
X9674944Y-17038460D02*
X9665420Y-17019412D01*
X9665420Y-17019412D02*
X9665420Y-17000365D01*
X9665420Y-17000365D02*
X9674944Y-16981317D01*
X9674944Y-16981317D02*
X9693992Y-16971793D01*
X9693992Y-16971793D02*
X9741611Y-16971793D01*
X9741611Y-16971793D02*
X9760658Y-16962270D01*
X9827325Y-16914650D02*
X9903515Y-16914650D01*
X9855896Y-16847984D02*
X9855896Y-17019412D01*
X9855896Y-17019412D02*
X9865420Y-17038460D01*
X9865420Y-17038460D02*
X9884468Y-17047984D01*
X9884468Y-17047984D02*
X9903515Y-17047984D01*
X10046373Y-17038460D02*
X10027325Y-17047984D01*
X10027325Y-17047984D02*
X9989230Y-17047984D01*
X9989230Y-17047984D02*
X9970182Y-17038460D01*
X9970182Y-17038460D02*
X9960658Y-17019412D01*
X9960658Y-17019412D02*
X9960658Y-16943222D01*
X9960658Y-16943222D02*
X9970182Y-16924174D01*
X9970182Y-16924174D02*
X9989230Y-16914650D01*
X9989230Y-16914650D02*
X10027325Y-16914650D01*
X10027325Y-16914650D02*
X10046373Y-16924174D01*
X10046373Y-16924174D02*
X10055896Y-16943222D01*
X10055896Y-16943222D02*
X10055896Y-16962270D01*
X10055896Y-16962270D02*
X9960658Y-16981317D01*
X10227325Y-17047984D02*
X10227325Y-16847984D01*
X10227325Y-17038460D02*
X10208277Y-17047984D01*
X10208277Y-17047984D02*
X10170182Y-17047984D01*
X10170182Y-17047984D02*
X10151135Y-17038460D01*
X10151135Y-17038460D02*
X10141611Y-17028936D01*
X10141611Y-17028936D02*
X10132087Y-17009889D01*
X10132087Y-17009889D02*
X10132087Y-16952746D01*
X10132087Y-16952746D02*
X10141611Y-16933698D01*
X10141611Y-16933698D02*
X10151135Y-16924174D01*
X10151135Y-16924174D02*
X10170182Y-16914650D01*
X10170182Y-16914650D02*
X10208277Y-16914650D01*
X10208277Y-16914650D02*
X10227325Y-16924174D01*
X10303516Y-17124174D02*
X10313039Y-17114650D01*
X10313039Y-17114650D02*
X10332087Y-17086079D01*
X10332087Y-17086079D02*
X10341611Y-17067031D01*
X10341611Y-17067031D02*
X10351135Y-17038460D01*
X10351135Y-17038460D02*
X10360658Y-16990841D01*
X10360658Y-16990841D02*
X10360658Y-16952746D01*
X10360658Y-16952746D02*
X10351135Y-16905127D01*
X10351135Y-16905127D02*
X10341611Y-16876555D01*
X10341611Y-16876555D02*
X10332087Y-16857508D01*
X10332087Y-16857508D02*
X10313039Y-16828936D01*
X10313039Y-16828936D02*
X10303516Y-16819412D01*
D13*
X3467500Y-17140500D02*
X3467500Y-17300500D01*
X3387500Y-17220500D02*
X3547500Y-17220500D01*
D11*
X3913039Y-17311984D02*
X3798753Y-17311984D01*
X3855896Y-17311984D02*
X3855896Y-17111984D01*
X3855896Y-17111984D02*
X3836848Y-17140555D01*
X3836848Y-17140555D02*
X3817801Y-17159603D01*
X3817801Y-17159603D02*
X3798753Y-17169127D01*
X3998753Y-17292936D02*
X4008277Y-17302460D01*
X4008277Y-17302460D02*
X3998753Y-17311984D01*
X3998753Y-17311984D02*
X3989229Y-17302460D01*
X3989229Y-17302460D02*
X3998753Y-17292936D01*
X3998753Y-17292936D02*
X3998753Y-17311984D01*
X4179705Y-17111984D02*
X4141610Y-17111984D01*
X4141610Y-17111984D02*
X4122562Y-17121508D01*
X4122562Y-17121508D02*
X4113039Y-17131031D01*
X4113039Y-17131031D02*
X4093991Y-17159603D01*
X4093991Y-17159603D02*
X4084467Y-17197698D01*
X4084467Y-17197698D02*
X4084467Y-17273889D01*
X4084467Y-17273889D02*
X4093991Y-17292936D01*
X4093991Y-17292936D02*
X4103515Y-17302460D01*
X4103515Y-17302460D02*
X4122562Y-17311984D01*
X4122562Y-17311984D02*
X4160658Y-17311984D01*
X4160658Y-17311984D02*
X4179705Y-17302460D01*
X4179705Y-17302460D02*
X4189229Y-17292936D01*
X4189229Y-17292936D02*
X4198753Y-17273889D01*
X4198753Y-17273889D02*
X4198753Y-17226270D01*
X4198753Y-17226270D02*
X4189229Y-17207222D01*
X4189229Y-17207222D02*
X4179705Y-17197698D01*
X4179705Y-17197698D02*
X4160658Y-17188174D01*
X4160658Y-17188174D02*
X4122562Y-17188174D01*
X4122562Y-17188174D02*
X4103515Y-17197698D01*
X4103515Y-17197698D02*
X4093991Y-17207222D01*
X4093991Y-17207222D02*
X4084467Y-17226270D01*
X4322563Y-17111984D02*
X4341610Y-17111984D01*
X4341610Y-17111984D02*
X4360658Y-17121508D01*
X4360658Y-17121508D02*
X4370182Y-17131031D01*
X4370182Y-17131031D02*
X4379705Y-17150079D01*
X4379705Y-17150079D02*
X4389229Y-17188174D01*
X4389229Y-17188174D02*
X4389229Y-17235793D01*
X4389229Y-17235793D02*
X4379705Y-17273889D01*
X4379705Y-17273889D02*
X4370182Y-17292936D01*
X4370182Y-17292936D02*
X4360658Y-17302460D01*
X4360658Y-17302460D02*
X4341610Y-17311984D01*
X4341610Y-17311984D02*
X4322563Y-17311984D01*
X4322563Y-17311984D02*
X4303515Y-17302460D01*
X4303515Y-17302460D02*
X4293991Y-17292936D01*
X4293991Y-17292936D02*
X4284467Y-17273889D01*
X4284467Y-17273889D02*
X4274944Y-17235793D01*
X4274944Y-17235793D02*
X4274944Y-17188174D01*
X4274944Y-17188174D02*
X4284467Y-17150079D01*
X4284467Y-17150079D02*
X4293991Y-17131031D01*
X4293991Y-17131031D02*
X4303515Y-17121508D01*
X4303515Y-17121508D02*
X4322563Y-17111984D01*
X4513039Y-17111984D02*
X4532086Y-17111984D01*
X4532086Y-17111984D02*
X4551134Y-17121508D01*
X4551134Y-17121508D02*
X4560658Y-17131031D01*
X4560658Y-17131031D02*
X4570182Y-17150079D01*
X4570182Y-17150079D02*
X4579705Y-17188174D01*
X4579705Y-17188174D02*
X4579705Y-17235793D01*
X4579705Y-17235793D02*
X4570182Y-17273889D01*
X4570182Y-17273889D02*
X4560658Y-17292936D01*
X4560658Y-17292936D02*
X4551134Y-17302460D01*
X4551134Y-17302460D02*
X4532086Y-17311984D01*
X4532086Y-17311984D02*
X4513039Y-17311984D01*
X4513039Y-17311984D02*
X4493991Y-17302460D01*
X4493991Y-17302460D02*
X4484467Y-17292936D01*
X4484467Y-17292936D02*
X4474944Y-17273889D01*
X4474944Y-17273889D02*
X4465420Y-17235793D01*
X4465420Y-17235793D02*
X4465420Y-17188174D01*
X4465420Y-17188174D02*
X4474944Y-17150079D01*
X4474944Y-17150079D02*
X4484467Y-17131031D01*
X4484467Y-17131031D02*
X4493991Y-17121508D01*
X4493991Y-17121508D02*
X4513039Y-17111984D01*
X4665420Y-17311984D02*
X4665420Y-17178650D01*
X4665420Y-17197698D02*
X4674944Y-17188174D01*
X4674944Y-17188174D02*
X4693991Y-17178650D01*
X4693991Y-17178650D02*
X4722563Y-17178650D01*
X4722563Y-17178650D02*
X4741610Y-17188174D01*
X4741610Y-17188174D02*
X4751134Y-17207222D01*
X4751134Y-17207222D02*
X4751134Y-17311984D01*
X4751134Y-17207222D02*
X4760658Y-17188174D01*
X4760658Y-17188174D02*
X4779705Y-17178650D01*
X4779705Y-17178650D02*
X4808277Y-17178650D01*
X4808277Y-17178650D02*
X4827325Y-17188174D01*
X4827325Y-17188174D02*
X4836848Y-17207222D01*
X4836848Y-17207222D02*
X4836848Y-17311984D01*
X4932086Y-17311984D02*
X4932086Y-17178650D01*
X4932086Y-17197698D02*
X4941610Y-17188174D01*
X4941610Y-17188174D02*
X4960658Y-17178650D01*
X4960658Y-17178650D02*
X4989229Y-17178650D01*
X4989229Y-17178650D02*
X5008277Y-17188174D01*
X5008277Y-17188174D02*
X5017801Y-17207222D01*
X5017801Y-17207222D02*
X5017801Y-17311984D01*
X5017801Y-17207222D02*
X5027325Y-17188174D01*
X5027325Y-17188174D02*
X5046372Y-17178650D01*
X5046372Y-17178650D02*
X5074944Y-17178650D01*
X5074944Y-17178650D02*
X5093991Y-17188174D01*
X5093991Y-17188174D02*
X5103515Y-17207222D01*
X5103515Y-17207222D02*
X5103515Y-17311984D01*
X5493991Y-17102460D02*
X5322563Y-17359603D01*
X5751134Y-17111984D02*
X5770182Y-17111984D01*
X5770182Y-17111984D02*
X5789229Y-17121508D01*
X5789229Y-17121508D02*
X5798753Y-17131031D01*
X5798753Y-17131031D02*
X5808277Y-17150079D01*
X5808277Y-17150079D02*
X5817801Y-17188174D01*
X5817801Y-17188174D02*
X5817801Y-17235793D01*
X5817801Y-17235793D02*
X5808277Y-17273889D01*
X5808277Y-17273889D02*
X5798753Y-17292936D01*
X5798753Y-17292936D02*
X5789229Y-17302460D01*
X5789229Y-17302460D02*
X5770182Y-17311984D01*
X5770182Y-17311984D02*
X5751134Y-17311984D01*
X5751134Y-17311984D02*
X5732086Y-17302460D01*
X5732086Y-17302460D02*
X5722563Y-17292936D01*
X5722563Y-17292936D02*
X5713039Y-17273889D01*
X5713039Y-17273889D02*
X5703515Y-17235793D01*
X5703515Y-17235793D02*
X5703515Y-17188174D01*
X5703515Y-17188174D02*
X5713039Y-17150079D01*
X5713039Y-17150079D02*
X5722563Y-17131031D01*
X5722563Y-17131031D02*
X5732086Y-17121508D01*
X5732086Y-17121508D02*
X5751134Y-17111984D01*
X5903515Y-17292936D02*
X5913039Y-17302460D01*
X5913039Y-17302460D02*
X5903515Y-17311984D01*
X5903515Y-17311984D02*
X5893991Y-17302460D01*
X5893991Y-17302460D02*
X5903515Y-17292936D01*
X5903515Y-17292936D02*
X5903515Y-17311984D01*
X6036848Y-17111984D02*
X6055896Y-17111984D01*
X6055896Y-17111984D02*
X6074944Y-17121508D01*
X6074944Y-17121508D02*
X6084467Y-17131031D01*
X6084467Y-17131031D02*
X6093991Y-17150079D01*
X6093991Y-17150079D02*
X6103515Y-17188174D01*
X6103515Y-17188174D02*
X6103515Y-17235793D01*
X6103515Y-17235793D02*
X6093991Y-17273889D01*
X6093991Y-17273889D02*
X6084467Y-17292936D01*
X6084467Y-17292936D02*
X6074944Y-17302460D01*
X6074944Y-17302460D02*
X6055896Y-17311984D01*
X6055896Y-17311984D02*
X6036848Y-17311984D01*
X6036848Y-17311984D02*
X6017801Y-17302460D01*
X6017801Y-17302460D02*
X6008277Y-17292936D01*
X6008277Y-17292936D02*
X5998753Y-17273889D01*
X5998753Y-17273889D02*
X5989229Y-17235793D01*
X5989229Y-17235793D02*
X5989229Y-17188174D01*
X5989229Y-17188174D02*
X5998753Y-17150079D01*
X5998753Y-17150079D02*
X6008277Y-17131031D01*
X6008277Y-17131031D02*
X6017801Y-17121508D01*
X6017801Y-17121508D02*
X6036848Y-17111984D01*
X6274944Y-17111984D02*
X6236848Y-17111984D01*
X6236848Y-17111984D02*
X6217801Y-17121508D01*
X6217801Y-17121508D02*
X6208277Y-17131031D01*
X6208277Y-17131031D02*
X6189229Y-17159603D01*
X6189229Y-17159603D02*
X6179706Y-17197698D01*
X6179706Y-17197698D02*
X6179706Y-17273889D01*
X6179706Y-17273889D02*
X6189229Y-17292936D01*
X6189229Y-17292936D02*
X6198753Y-17302460D01*
X6198753Y-17302460D02*
X6217801Y-17311984D01*
X6217801Y-17311984D02*
X6255896Y-17311984D01*
X6255896Y-17311984D02*
X6274944Y-17302460D01*
X6274944Y-17302460D02*
X6284467Y-17292936D01*
X6284467Y-17292936D02*
X6293991Y-17273889D01*
X6293991Y-17273889D02*
X6293991Y-17226270D01*
X6293991Y-17226270D02*
X6284467Y-17207222D01*
X6284467Y-17207222D02*
X6274944Y-17197698D01*
X6274944Y-17197698D02*
X6255896Y-17188174D01*
X6255896Y-17188174D02*
X6217801Y-17188174D01*
X6217801Y-17188174D02*
X6198753Y-17197698D01*
X6198753Y-17197698D02*
X6189229Y-17207222D01*
X6189229Y-17207222D02*
X6179706Y-17226270D01*
X6360658Y-17111984D02*
X6484467Y-17111984D01*
X6484467Y-17111984D02*
X6417801Y-17188174D01*
X6417801Y-17188174D02*
X6446372Y-17188174D01*
X6446372Y-17188174D02*
X6465420Y-17197698D01*
X6465420Y-17197698D02*
X6474944Y-17207222D01*
X6474944Y-17207222D02*
X6484467Y-17226270D01*
X6484467Y-17226270D02*
X6484467Y-17273889D01*
X6484467Y-17273889D02*
X6474944Y-17292936D01*
X6474944Y-17292936D02*
X6465420Y-17302460D01*
X6465420Y-17302460D02*
X6446372Y-17311984D01*
X6446372Y-17311984D02*
X6389229Y-17311984D01*
X6389229Y-17311984D02*
X6370182Y-17302460D01*
X6370182Y-17302460D02*
X6360658Y-17292936D01*
X6608277Y-17111984D02*
X6627325Y-17111984D01*
X6627325Y-17111984D02*
X6646372Y-17121508D01*
X6646372Y-17121508D02*
X6655896Y-17131031D01*
X6655896Y-17131031D02*
X6665420Y-17150079D01*
X6665420Y-17150079D02*
X6674944Y-17188174D01*
X6674944Y-17188174D02*
X6674944Y-17235793D01*
X6674944Y-17235793D02*
X6665420Y-17273889D01*
X6665420Y-17273889D02*
X6655896Y-17292936D01*
X6655896Y-17292936D02*
X6646372Y-17302460D01*
X6646372Y-17302460D02*
X6627325Y-17311984D01*
X6627325Y-17311984D02*
X6608277Y-17311984D01*
X6608277Y-17311984D02*
X6589229Y-17302460D01*
X6589229Y-17302460D02*
X6579706Y-17292936D01*
X6579706Y-17292936D02*
X6570182Y-17273889D01*
X6570182Y-17273889D02*
X6560658Y-17235793D01*
X6560658Y-17235793D02*
X6560658Y-17188174D01*
X6560658Y-17188174D02*
X6570182Y-17150079D01*
X6570182Y-17150079D02*
X6579706Y-17131031D01*
X6579706Y-17131031D02*
X6589229Y-17121508D01*
X6589229Y-17121508D02*
X6608277Y-17111984D01*
X6751134Y-17111984D02*
X6751134Y-17150079D01*
X6827325Y-17111984D02*
X6827325Y-17150079D01*
X7122563Y-17388174D02*
X7113039Y-17378650D01*
X7113039Y-17378650D02*
X7093991Y-17350079D01*
X7093991Y-17350079D02*
X7084468Y-17331031D01*
X7084468Y-17331031D02*
X7074944Y-17302460D01*
X7074944Y-17302460D02*
X7065420Y-17254841D01*
X7065420Y-17254841D02*
X7065420Y-17216746D01*
X7065420Y-17216746D02*
X7074944Y-17169127D01*
X7074944Y-17169127D02*
X7084468Y-17140555D01*
X7084468Y-17140555D02*
X7093991Y-17121508D01*
X7093991Y-17121508D02*
X7113039Y-17092936D01*
X7113039Y-17092936D02*
X7122563Y-17083412D01*
X7189229Y-17131031D02*
X7198753Y-17121508D01*
X7198753Y-17121508D02*
X7217801Y-17111984D01*
X7217801Y-17111984D02*
X7265420Y-17111984D01*
X7265420Y-17111984D02*
X7284468Y-17121508D01*
X7284468Y-17121508D02*
X7293991Y-17131031D01*
X7293991Y-17131031D02*
X7303515Y-17150079D01*
X7303515Y-17150079D02*
X7303515Y-17169127D01*
X7303515Y-17169127D02*
X7293991Y-17197698D01*
X7293991Y-17197698D02*
X7179706Y-17311984D01*
X7179706Y-17311984D02*
X7303515Y-17311984D01*
X7541610Y-17311984D02*
X7541610Y-17111984D01*
X7627325Y-17311984D02*
X7627325Y-17207222D01*
X7627325Y-17207222D02*
X7617801Y-17188174D01*
X7617801Y-17188174D02*
X7598753Y-17178650D01*
X7598753Y-17178650D02*
X7570182Y-17178650D01*
X7570182Y-17178650D02*
X7551134Y-17188174D01*
X7551134Y-17188174D02*
X7541610Y-17197698D01*
X7751134Y-17311984D02*
X7732087Y-17302460D01*
X7732087Y-17302460D02*
X7722563Y-17292936D01*
X7722563Y-17292936D02*
X7713039Y-17273889D01*
X7713039Y-17273889D02*
X7713039Y-17216746D01*
X7713039Y-17216746D02*
X7722563Y-17197698D01*
X7722563Y-17197698D02*
X7732087Y-17188174D01*
X7732087Y-17188174D02*
X7751134Y-17178650D01*
X7751134Y-17178650D02*
X7779706Y-17178650D01*
X7779706Y-17178650D02*
X7798753Y-17188174D01*
X7798753Y-17188174D02*
X7808277Y-17197698D01*
X7808277Y-17197698D02*
X7817801Y-17216746D01*
X7817801Y-17216746D02*
X7817801Y-17273889D01*
X7817801Y-17273889D02*
X7808277Y-17292936D01*
X7808277Y-17292936D02*
X7798753Y-17302460D01*
X7798753Y-17302460D02*
X7779706Y-17311984D01*
X7779706Y-17311984D02*
X7751134Y-17311984D01*
X7932087Y-17311984D02*
X7913039Y-17302460D01*
X7913039Y-17302460D02*
X7903515Y-17283412D01*
X7903515Y-17283412D02*
X7903515Y-17111984D01*
X8084468Y-17302460D02*
X8065420Y-17311984D01*
X8065420Y-17311984D02*
X8027325Y-17311984D01*
X8027325Y-17311984D02*
X8008277Y-17302460D01*
X8008277Y-17302460D02*
X7998753Y-17283412D01*
X7998753Y-17283412D02*
X7998753Y-17207222D01*
X7998753Y-17207222D02*
X8008277Y-17188174D01*
X8008277Y-17188174D02*
X8027325Y-17178650D01*
X8027325Y-17178650D02*
X8065420Y-17178650D01*
X8065420Y-17178650D02*
X8084468Y-17188174D01*
X8084468Y-17188174D02*
X8093991Y-17207222D01*
X8093991Y-17207222D02*
X8093991Y-17226270D01*
X8093991Y-17226270D02*
X7998753Y-17245317D01*
X8170182Y-17302460D02*
X8189230Y-17311984D01*
X8189230Y-17311984D02*
X8227325Y-17311984D01*
X8227325Y-17311984D02*
X8246372Y-17302460D01*
X8246372Y-17302460D02*
X8255896Y-17283412D01*
X8255896Y-17283412D02*
X8255896Y-17273889D01*
X8255896Y-17273889D02*
X8246372Y-17254841D01*
X8246372Y-17254841D02*
X8227325Y-17245317D01*
X8227325Y-17245317D02*
X8198753Y-17245317D01*
X8198753Y-17245317D02*
X8179706Y-17235793D01*
X8179706Y-17235793D02*
X8170182Y-17216746D01*
X8170182Y-17216746D02*
X8170182Y-17207222D01*
X8170182Y-17207222D02*
X8179706Y-17188174D01*
X8179706Y-17188174D02*
X8198753Y-17178650D01*
X8198753Y-17178650D02*
X8227325Y-17178650D01*
X8227325Y-17178650D02*
X8246372Y-17188174D01*
X8322563Y-17388174D02*
X8332087Y-17378650D01*
X8332087Y-17378650D02*
X8351134Y-17350079D01*
X8351134Y-17350079D02*
X8360658Y-17331031D01*
X8360658Y-17331031D02*
X8370182Y-17302460D01*
X8370182Y-17302460D02*
X8379706Y-17254841D01*
X8379706Y-17254841D02*
X8379706Y-17216746D01*
X8379706Y-17216746D02*
X8370182Y-17169127D01*
X8370182Y-17169127D02*
X8360658Y-17140555D01*
X8360658Y-17140555D02*
X8351134Y-17121508D01*
X8351134Y-17121508D02*
X8332087Y-17092936D01*
X8332087Y-17092936D02*
X8322563Y-17083412D01*
X8684468Y-17388174D02*
X8674944Y-17378650D01*
X8674944Y-17378650D02*
X8655896Y-17350079D01*
X8655896Y-17350079D02*
X8646373Y-17331031D01*
X8646373Y-17331031D02*
X8636849Y-17302460D01*
X8636849Y-17302460D02*
X8627325Y-17254841D01*
X8627325Y-17254841D02*
X8627325Y-17216746D01*
X8627325Y-17216746D02*
X8636849Y-17169127D01*
X8636849Y-17169127D02*
X8646373Y-17140555D01*
X8646373Y-17140555D02*
X8655896Y-17121508D01*
X8655896Y-17121508D02*
X8674944Y-17092936D01*
X8674944Y-17092936D02*
X8684468Y-17083412D01*
X8760658Y-17178650D02*
X8760658Y-17311984D01*
X8760658Y-17197698D02*
X8770182Y-17188174D01*
X8770182Y-17188174D02*
X8789230Y-17178650D01*
X8789230Y-17178650D02*
X8817801Y-17178650D01*
X8817801Y-17178650D02*
X8836849Y-17188174D01*
X8836849Y-17188174D02*
X8846373Y-17207222D01*
X8846373Y-17207222D02*
X8846373Y-17311984D01*
X8970182Y-17311984D02*
X8951134Y-17302460D01*
X8951134Y-17302460D02*
X8941611Y-17292936D01*
X8941611Y-17292936D02*
X8932087Y-17273889D01*
X8932087Y-17273889D02*
X8932087Y-17216746D01*
X8932087Y-17216746D02*
X8941611Y-17197698D01*
X8941611Y-17197698D02*
X8951134Y-17188174D01*
X8951134Y-17188174D02*
X8970182Y-17178650D01*
X8970182Y-17178650D02*
X8998754Y-17178650D01*
X8998754Y-17178650D02*
X9017801Y-17188174D01*
X9017801Y-17188174D02*
X9027325Y-17197698D01*
X9027325Y-17197698D02*
X9036849Y-17216746D01*
X9036849Y-17216746D02*
X9036849Y-17273889D01*
X9036849Y-17273889D02*
X9027325Y-17292936D01*
X9027325Y-17292936D02*
X9017801Y-17302460D01*
X9017801Y-17302460D02*
X8998754Y-17311984D01*
X8998754Y-17311984D02*
X8970182Y-17311984D01*
X9093992Y-17178650D02*
X9170182Y-17178650D01*
X9122563Y-17111984D02*
X9122563Y-17283412D01*
X9122563Y-17283412D02*
X9132087Y-17302460D01*
X9132087Y-17302460D02*
X9151134Y-17311984D01*
X9151134Y-17311984D02*
X9170182Y-17311984D01*
X9389230Y-17178650D02*
X9389230Y-17378650D01*
X9389230Y-17188174D02*
X9408277Y-17178650D01*
X9408277Y-17178650D02*
X9446373Y-17178650D01*
X9446373Y-17178650D02*
X9465420Y-17188174D01*
X9465420Y-17188174D02*
X9474944Y-17197698D01*
X9474944Y-17197698D02*
X9484468Y-17216746D01*
X9484468Y-17216746D02*
X9484468Y-17273889D01*
X9484468Y-17273889D02*
X9474944Y-17292936D01*
X9474944Y-17292936D02*
X9465420Y-17302460D01*
X9465420Y-17302460D02*
X9446373Y-17311984D01*
X9446373Y-17311984D02*
X9408277Y-17311984D01*
X9408277Y-17311984D02*
X9389230Y-17302460D01*
X9598754Y-17311984D02*
X9579706Y-17302460D01*
X9579706Y-17302460D02*
X9570182Y-17283412D01*
X9570182Y-17283412D02*
X9570182Y-17111984D01*
X9760658Y-17311984D02*
X9760658Y-17207222D01*
X9760658Y-17207222D02*
X9751135Y-17188174D01*
X9751135Y-17188174D02*
X9732087Y-17178650D01*
X9732087Y-17178650D02*
X9693992Y-17178650D01*
X9693992Y-17178650D02*
X9674944Y-17188174D01*
X9760658Y-17302460D02*
X9741611Y-17311984D01*
X9741611Y-17311984D02*
X9693992Y-17311984D01*
X9693992Y-17311984D02*
X9674944Y-17302460D01*
X9674944Y-17302460D02*
X9665420Y-17283412D01*
X9665420Y-17283412D02*
X9665420Y-17264365D01*
X9665420Y-17264365D02*
X9674944Y-17245317D01*
X9674944Y-17245317D02*
X9693992Y-17235793D01*
X9693992Y-17235793D02*
X9741611Y-17235793D01*
X9741611Y-17235793D02*
X9760658Y-17226270D01*
X9827325Y-17178650D02*
X9903515Y-17178650D01*
X9855896Y-17111984D02*
X9855896Y-17283412D01*
X9855896Y-17283412D02*
X9865420Y-17302460D01*
X9865420Y-17302460D02*
X9884468Y-17311984D01*
X9884468Y-17311984D02*
X9903515Y-17311984D01*
X10046373Y-17302460D02*
X10027325Y-17311984D01*
X10027325Y-17311984D02*
X9989230Y-17311984D01*
X9989230Y-17311984D02*
X9970182Y-17302460D01*
X9970182Y-17302460D02*
X9960658Y-17283412D01*
X9960658Y-17283412D02*
X9960658Y-17207222D01*
X9960658Y-17207222D02*
X9970182Y-17188174D01*
X9970182Y-17188174D02*
X9989230Y-17178650D01*
X9989230Y-17178650D02*
X10027325Y-17178650D01*
X10027325Y-17178650D02*
X10046373Y-17188174D01*
X10046373Y-17188174D02*
X10055896Y-17207222D01*
X10055896Y-17207222D02*
X10055896Y-17226270D01*
X10055896Y-17226270D02*
X9960658Y-17245317D01*
X10227325Y-17311984D02*
X10227325Y-17111984D01*
X10227325Y-17302460D02*
X10208277Y-17311984D01*
X10208277Y-17311984D02*
X10170182Y-17311984D01*
X10170182Y-17311984D02*
X10151135Y-17302460D01*
X10151135Y-17302460D02*
X10141611Y-17292936D01*
X10141611Y-17292936D02*
X10132087Y-17273889D01*
X10132087Y-17273889D02*
X10132087Y-17216746D01*
X10132087Y-17216746D02*
X10141611Y-17197698D01*
X10141611Y-17197698D02*
X10151135Y-17188174D01*
X10151135Y-17188174D02*
X10170182Y-17178650D01*
X10170182Y-17178650D02*
X10208277Y-17178650D01*
X10208277Y-17178650D02*
X10227325Y-17188174D01*
X10303516Y-17388174D02*
X10313039Y-17378650D01*
X10313039Y-17378650D02*
X10332087Y-17350079D01*
X10332087Y-17350079D02*
X10341611Y-17331031D01*
X10341611Y-17331031D02*
X10351135Y-17302460D01*
X10351135Y-17302460D02*
X10360658Y-17254841D01*
X10360658Y-17254841D02*
X10360658Y-17216746D01*
X10360658Y-17216746D02*
X10351135Y-17169127D01*
X10351135Y-17169127D02*
X10341611Y-17140555D01*
X10341611Y-17140555D02*
X10332087Y-17121508D01*
X10332087Y-17121508D02*
X10313039Y-17092936D01*
X10313039Y-17092936D02*
X10303516Y-17083412D01*
X3518211Y-17571211D02*
X3518211Y-17429789D01*
X3376789Y-17429789D01*
X3376789Y-17571211D01*
X3518211Y-17571211D01*
X3798753Y-17411031D02*
X3808277Y-17401508D01*
X3808277Y-17401508D02*
X3827324Y-17391984D01*
X3827324Y-17391984D02*
X3874943Y-17391984D01*
X3874943Y-17391984D02*
X3893991Y-17401508D01*
X3893991Y-17401508D02*
X3903515Y-17411031D01*
X3903515Y-17411031D02*
X3913039Y-17430079D01*
X3913039Y-17430079D02*
X3913039Y-17449127D01*
X3913039Y-17449127D02*
X3903515Y-17477698D01*
X3903515Y-17477698D02*
X3789229Y-17591984D01*
X3789229Y-17591984D02*
X3913039Y-17591984D01*
X3998753Y-17572936D02*
X4008277Y-17582460D01*
X4008277Y-17582460D02*
X3998753Y-17591984D01*
X3998753Y-17591984D02*
X3989229Y-17582460D01*
X3989229Y-17582460D02*
X3998753Y-17572936D01*
X3998753Y-17572936D02*
X3998753Y-17591984D01*
X4084467Y-17411031D02*
X4093991Y-17401508D01*
X4093991Y-17401508D02*
X4113039Y-17391984D01*
X4113039Y-17391984D02*
X4160658Y-17391984D01*
X4160658Y-17391984D02*
X4179705Y-17401508D01*
X4179705Y-17401508D02*
X4189229Y-17411031D01*
X4189229Y-17411031D02*
X4198753Y-17430079D01*
X4198753Y-17430079D02*
X4198753Y-17449127D01*
X4198753Y-17449127D02*
X4189229Y-17477698D01*
X4189229Y-17477698D02*
X4074943Y-17591984D01*
X4074943Y-17591984D02*
X4198753Y-17591984D01*
X4322563Y-17391984D02*
X4341610Y-17391984D01*
X4341610Y-17391984D02*
X4360658Y-17401508D01*
X4360658Y-17401508D02*
X4370182Y-17411031D01*
X4370182Y-17411031D02*
X4379705Y-17430079D01*
X4379705Y-17430079D02*
X4389229Y-17468174D01*
X4389229Y-17468174D02*
X4389229Y-17515793D01*
X4389229Y-17515793D02*
X4379705Y-17553889D01*
X4379705Y-17553889D02*
X4370182Y-17572936D01*
X4370182Y-17572936D02*
X4360658Y-17582460D01*
X4360658Y-17582460D02*
X4341610Y-17591984D01*
X4341610Y-17591984D02*
X4322563Y-17591984D01*
X4322563Y-17591984D02*
X4303515Y-17582460D01*
X4303515Y-17582460D02*
X4293991Y-17572936D01*
X4293991Y-17572936D02*
X4284467Y-17553889D01*
X4284467Y-17553889D02*
X4274944Y-17515793D01*
X4274944Y-17515793D02*
X4274944Y-17468174D01*
X4274944Y-17468174D02*
X4284467Y-17430079D01*
X4284467Y-17430079D02*
X4293991Y-17411031D01*
X4293991Y-17411031D02*
X4303515Y-17401508D01*
X4303515Y-17401508D02*
X4322563Y-17391984D01*
X4513039Y-17391984D02*
X4532086Y-17391984D01*
X4532086Y-17391984D02*
X4551134Y-17401508D01*
X4551134Y-17401508D02*
X4560658Y-17411031D01*
X4560658Y-17411031D02*
X4570182Y-17430079D01*
X4570182Y-17430079D02*
X4579705Y-17468174D01*
X4579705Y-17468174D02*
X4579705Y-17515793D01*
X4579705Y-17515793D02*
X4570182Y-17553889D01*
X4570182Y-17553889D02*
X4560658Y-17572936D01*
X4560658Y-17572936D02*
X4551134Y-17582460D01*
X4551134Y-17582460D02*
X4532086Y-17591984D01*
X4532086Y-17591984D02*
X4513039Y-17591984D01*
X4513039Y-17591984D02*
X4493991Y-17582460D01*
X4493991Y-17582460D02*
X4484467Y-17572936D01*
X4484467Y-17572936D02*
X4474944Y-17553889D01*
X4474944Y-17553889D02*
X4465420Y-17515793D01*
X4465420Y-17515793D02*
X4465420Y-17468174D01*
X4465420Y-17468174D02*
X4474944Y-17430079D01*
X4474944Y-17430079D02*
X4484467Y-17411031D01*
X4484467Y-17411031D02*
X4493991Y-17401508D01*
X4493991Y-17401508D02*
X4513039Y-17391984D01*
X4665420Y-17591984D02*
X4665420Y-17458650D01*
X4665420Y-17477698D02*
X4674944Y-17468174D01*
X4674944Y-17468174D02*
X4693991Y-17458650D01*
X4693991Y-17458650D02*
X4722563Y-17458650D01*
X4722563Y-17458650D02*
X4741610Y-17468174D01*
X4741610Y-17468174D02*
X4751134Y-17487222D01*
X4751134Y-17487222D02*
X4751134Y-17591984D01*
X4751134Y-17487222D02*
X4760658Y-17468174D01*
X4760658Y-17468174D02*
X4779705Y-17458650D01*
X4779705Y-17458650D02*
X4808277Y-17458650D01*
X4808277Y-17458650D02*
X4827325Y-17468174D01*
X4827325Y-17468174D02*
X4836848Y-17487222D01*
X4836848Y-17487222D02*
X4836848Y-17591984D01*
X4932086Y-17591984D02*
X4932086Y-17458650D01*
X4932086Y-17477698D02*
X4941610Y-17468174D01*
X4941610Y-17468174D02*
X4960658Y-17458650D01*
X4960658Y-17458650D02*
X4989229Y-17458650D01*
X4989229Y-17458650D02*
X5008277Y-17468174D01*
X5008277Y-17468174D02*
X5017801Y-17487222D01*
X5017801Y-17487222D02*
X5017801Y-17591984D01*
X5017801Y-17487222D02*
X5027325Y-17468174D01*
X5027325Y-17468174D02*
X5046372Y-17458650D01*
X5046372Y-17458650D02*
X5074944Y-17458650D01*
X5074944Y-17458650D02*
X5093991Y-17468174D01*
X5093991Y-17468174D02*
X5103515Y-17487222D01*
X5103515Y-17487222D02*
X5103515Y-17591984D01*
X5493991Y-17382460D02*
X5322563Y-17639603D01*
X5751134Y-17391984D02*
X5770182Y-17391984D01*
X5770182Y-17391984D02*
X5789229Y-17401508D01*
X5789229Y-17401508D02*
X5798753Y-17411031D01*
X5798753Y-17411031D02*
X5808277Y-17430079D01*
X5808277Y-17430079D02*
X5817801Y-17468174D01*
X5817801Y-17468174D02*
X5817801Y-17515793D01*
X5817801Y-17515793D02*
X5808277Y-17553889D01*
X5808277Y-17553889D02*
X5798753Y-17572936D01*
X5798753Y-17572936D02*
X5789229Y-17582460D01*
X5789229Y-17582460D02*
X5770182Y-17591984D01*
X5770182Y-17591984D02*
X5751134Y-17591984D01*
X5751134Y-17591984D02*
X5732086Y-17582460D01*
X5732086Y-17582460D02*
X5722563Y-17572936D01*
X5722563Y-17572936D02*
X5713039Y-17553889D01*
X5713039Y-17553889D02*
X5703515Y-17515793D01*
X5703515Y-17515793D02*
X5703515Y-17468174D01*
X5703515Y-17468174D02*
X5713039Y-17430079D01*
X5713039Y-17430079D02*
X5722563Y-17411031D01*
X5722563Y-17411031D02*
X5732086Y-17401508D01*
X5732086Y-17401508D02*
X5751134Y-17391984D01*
X5903515Y-17572936D02*
X5913039Y-17582460D01*
X5913039Y-17582460D02*
X5903515Y-17591984D01*
X5903515Y-17591984D02*
X5893991Y-17582460D01*
X5893991Y-17582460D02*
X5903515Y-17572936D01*
X5903515Y-17572936D02*
X5903515Y-17591984D01*
X6036848Y-17391984D02*
X6055896Y-17391984D01*
X6055896Y-17391984D02*
X6074944Y-17401508D01*
X6074944Y-17401508D02*
X6084467Y-17411031D01*
X6084467Y-17411031D02*
X6093991Y-17430079D01*
X6093991Y-17430079D02*
X6103515Y-17468174D01*
X6103515Y-17468174D02*
X6103515Y-17515793D01*
X6103515Y-17515793D02*
X6093991Y-17553889D01*
X6093991Y-17553889D02*
X6084467Y-17572936D01*
X6084467Y-17572936D02*
X6074944Y-17582460D01*
X6074944Y-17582460D02*
X6055896Y-17591984D01*
X6055896Y-17591984D02*
X6036848Y-17591984D01*
X6036848Y-17591984D02*
X6017801Y-17582460D01*
X6017801Y-17582460D02*
X6008277Y-17572936D01*
X6008277Y-17572936D02*
X5998753Y-17553889D01*
X5998753Y-17553889D02*
X5989229Y-17515793D01*
X5989229Y-17515793D02*
X5989229Y-17468174D01*
X5989229Y-17468174D02*
X5998753Y-17430079D01*
X5998753Y-17430079D02*
X6008277Y-17411031D01*
X6008277Y-17411031D02*
X6017801Y-17401508D01*
X6017801Y-17401508D02*
X6036848Y-17391984D01*
X6217801Y-17477698D02*
X6198753Y-17468174D01*
X6198753Y-17468174D02*
X6189229Y-17458650D01*
X6189229Y-17458650D02*
X6179706Y-17439603D01*
X6179706Y-17439603D02*
X6179706Y-17430079D01*
X6179706Y-17430079D02*
X6189229Y-17411031D01*
X6189229Y-17411031D02*
X6198753Y-17401508D01*
X6198753Y-17401508D02*
X6217801Y-17391984D01*
X6217801Y-17391984D02*
X6255896Y-17391984D01*
X6255896Y-17391984D02*
X6274944Y-17401508D01*
X6274944Y-17401508D02*
X6284467Y-17411031D01*
X6284467Y-17411031D02*
X6293991Y-17430079D01*
X6293991Y-17430079D02*
X6293991Y-17439603D01*
X6293991Y-17439603D02*
X6284467Y-17458650D01*
X6284467Y-17458650D02*
X6274944Y-17468174D01*
X6274944Y-17468174D02*
X6255896Y-17477698D01*
X6255896Y-17477698D02*
X6217801Y-17477698D01*
X6217801Y-17477698D02*
X6198753Y-17487222D01*
X6198753Y-17487222D02*
X6189229Y-17496746D01*
X6189229Y-17496746D02*
X6179706Y-17515793D01*
X6179706Y-17515793D02*
X6179706Y-17553889D01*
X6179706Y-17553889D02*
X6189229Y-17572936D01*
X6189229Y-17572936D02*
X6198753Y-17582460D01*
X6198753Y-17582460D02*
X6217801Y-17591984D01*
X6217801Y-17591984D02*
X6255896Y-17591984D01*
X6255896Y-17591984D02*
X6274944Y-17582460D01*
X6274944Y-17582460D02*
X6284467Y-17572936D01*
X6284467Y-17572936D02*
X6293991Y-17553889D01*
X6293991Y-17553889D02*
X6293991Y-17515793D01*
X6293991Y-17515793D02*
X6284467Y-17496746D01*
X6284467Y-17496746D02*
X6274944Y-17487222D01*
X6274944Y-17487222D02*
X6255896Y-17477698D01*
X6465420Y-17391984D02*
X6427325Y-17391984D01*
X6427325Y-17391984D02*
X6408277Y-17401508D01*
X6408277Y-17401508D02*
X6398753Y-17411031D01*
X6398753Y-17411031D02*
X6379706Y-17439603D01*
X6379706Y-17439603D02*
X6370182Y-17477698D01*
X6370182Y-17477698D02*
X6370182Y-17553889D01*
X6370182Y-17553889D02*
X6379706Y-17572936D01*
X6379706Y-17572936D02*
X6389229Y-17582460D01*
X6389229Y-17582460D02*
X6408277Y-17591984D01*
X6408277Y-17591984D02*
X6446372Y-17591984D01*
X6446372Y-17591984D02*
X6465420Y-17582460D01*
X6465420Y-17582460D02*
X6474944Y-17572936D01*
X6474944Y-17572936D02*
X6484467Y-17553889D01*
X6484467Y-17553889D02*
X6484467Y-17506270D01*
X6484467Y-17506270D02*
X6474944Y-17487222D01*
X6474944Y-17487222D02*
X6465420Y-17477698D01*
X6465420Y-17477698D02*
X6446372Y-17468174D01*
X6446372Y-17468174D02*
X6408277Y-17468174D01*
X6408277Y-17468174D02*
X6389229Y-17477698D01*
X6389229Y-17477698D02*
X6379706Y-17487222D01*
X6379706Y-17487222D02*
X6370182Y-17506270D01*
X6655896Y-17391984D02*
X6617801Y-17391984D01*
X6617801Y-17391984D02*
X6598753Y-17401508D01*
X6598753Y-17401508D02*
X6589229Y-17411031D01*
X6589229Y-17411031D02*
X6570182Y-17439603D01*
X6570182Y-17439603D02*
X6560658Y-17477698D01*
X6560658Y-17477698D02*
X6560658Y-17553889D01*
X6560658Y-17553889D02*
X6570182Y-17572936D01*
X6570182Y-17572936D02*
X6579706Y-17582460D01*
X6579706Y-17582460D02*
X6598753Y-17591984D01*
X6598753Y-17591984D02*
X6636848Y-17591984D01*
X6636848Y-17591984D02*
X6655896Y-17582460D01*
X6655896Y-17582460D02*
X6665420Y-17572936D01*
X6665420Y-17572936D02*
X6674944Y-17553889D01*
X6674944Y-17553889D02*
X6674944Y-17506270D01*
X6674944Y-17506270D02*
X6665420Y-17487222D01*
X6665420Y-17487222D02*
X6655896Y-17477698D01*
X6655896Y-17477698D02*
X6636848Y-17468174D01*
X6636848Y-17468174D02*
X6598753Y-17468174D01*
X6598753Y-17468174D02*
X6579706Y-17477698D01*
X6579706Y-17477698D02*
X6570182Y-17487222D01*
X6570182Y-17487222D02*
X6560658Y-17506270D01*
X6751134Y-17391984D02*
X6751134Y-17430079D01*
X6827325Y-17391984D02*
X6827325Y-17430079D01*
X7122563Y-17668174D02*
X7113039Y-17658650D01*
X7113039Y-17658650D02*
X7093991Y-17630079D01*
X7093991Y-17630079D02*
X7084468Y-17611031D01*
X7084468Y-17611031D02*
X7074944Y-17582460D01*
X7074944Y-17582460D02*
X7065420Y-17534841D01*
X7065420Y-17534841D02*
X7065420Y-17496746D01*
X7065420Y-17496746D02*
X7074944Y-17449127D01*
X7074944Y-17449127D02*
X7084468Y-17420555D01*
X7084468Y-17420555D02*
X7093991Y-17401508D01*
X7093991Y-17401508D02*
X7113039Y-17372936D01*
X7113039Y-17372936D02*
X7122563Y-17363412D01*
X7284468Y-17458650D02*
X7284468Y-17591984D01*
X7236848Y-17382460D02*
X7189229Y-17525317D01*
X7189229Y-17525317D02*
X7313039Y-17525317D01*
X7541610Y-17591984D02*
X7541610Y-17391984D01*
X7627325Y-17591984D02*
X7627325Y-17487222D01*
X7627325Y-17487222D02*
X7617801Y-17468174D01*
X7617801Y-17468174D02*
X7598753Y-17458650D01*
X7598753Y-17458650D02*
X7570182Y-17458650D01*
X7570182Y-17458650D02*
X7551134Y-17468174D01*
X7551134Y-17468174D02*
X7541610Y-17477698D01*
X7751134Y-17591984D02*
X7732087Y-17582460D01*
X7732087Y-17582460D02*
X7722563Y-17572936D01*
X7722563Y-17572936D02*
X7713039Y-17553889D01*
X7713039Y-17553889D02*
X7713039Y-17496746D01*
X7713039Y-17496746D02*
X7722563Y-17477698D01*
X7722563Y-17477698D02*
X7732087Y-17468174D01*
X7732087Y-17468174D02*
X7751134Y-17458650D01*
X7751134Y-17458650D02*
X7779706Y-17458650D01*
X7779706Y-17458650D02*
X7798753Y-17468174D01*
X7798753Y-17468174D02*
X7808277Y-17477698D01*
X7808277Y-17477698D02*
X7817801Y-17496746D01*
X7817801Y-17496746D02*
X7817801Y-17553889D01*
X7817801Y-17553889D02*
X7808277Y-17572936D01*
X7808277Y-17572936D02*
X7798753Y-17582460D01*
X7798753Y-17582460D02*
X7779706Y-17591984D01*
X7779706Y-17591984D02*
X7751134Y-17591984D01*
X7932087Y-17591984D02*
X7913039Y-17582460D01*
X7913039Y-17582460D02*
X7903515Y-17563412D01*
X7903515Y-17563412D02*
X7903515Y-17391984D01*
X8084468Y-17582460D02*
X8065420Y-17591984D01*
X8065420Y-17591984D02*
X8027325Y-17591984D01*
X8027325Y-17591984D02*
X8008277Y-17582460D01*
X8008277Y-17582460D02*
X7998753Y-17563412D01*
X7998753Y-17563412D02*
X7998753Y-17487222D01*
X7998753Y-17487222D02*
X8008277Y-17468174D01*
X8008277Y-17468174D02*
X8027325Y-17458650D01*
X8027325Y-17458650D02*
X8065420Y-17458650D01*
X8065420Y-17458650D02*
X8084468Y-17468174D01*
X8084468Y-17468174D02*
X8093991Y-17487222D01*
X8093991Y-17487222D02*
X8093991Y-17506270D01*
X8093991Y-17506270D02*
X7998753Y-17525317D01*
X8170182Y-17582460D02*
X8189230Y-17591984D01*
X8189230Y-17591984D02*
X8227325Y-17591984D01*
X8227325Y-17591984D02*
X8246372Y-17582460D01*
X8246372Y-17582460D02*
X8255896Y-17563412D01*
X8255896Y-17563412D02*
X8255896Y-17553889D01*
X8255896Y-17553889D02*
X8246372Y-17534841D01*
X8246372Y-17534841D02*
X8227325Y-17525317D01*
X8227325Y-17525317D02*
X8198753Y-17525317D01*
X8198753Y-17525317D02*
X8179706Y-17515793D01*
X8179706Y-17515793D02*
X8170182Y-17496746D01*
X8170182Y-17496746D02*
X8170182Y-17487222D01*
X8170182Y-17487222D02*
X8179706Y-17468174D01*
X8179706Y-17468174D02*
X8198753Y-17458650D01*
X8198753Y-17458650D02*
X8227325Y-17458650D01*
X8227325Y-17458650D02*
X8246372Y-17468174D01*
X8322563Y-17668174D02*
X8332087Y-17658650D01*
X8332087Y-17658650D02*
X8351134Y-17630079D01*
X8351134Y-17630079D02*
X8360658Y-17611031D01*
X8360658Y-17611031D02*
X8370182Y-17582460D01*
X8370182Y-17582460D02*
X8379706Y-17534841D01*
X8379706Y-17534841D02*
X8379706Y-17496746D01*
X8379706Y-17496746D02*
X8370182Y-17449127D01*
X8370182Y-17449127D02*
X8360658Y-17420555D01*
X8360658Y-17420555D02*
X8351134Y-17401508D01*
X8351134Y-17401508D02*
X8332087Y-17372936D01*
X8332087Y-17372936D02*
X8322563Y-17363412D01*
X8684468Y-17668174D02*
X8674944Y-17658650D01*
X8674944Y-17658650D02*
X8655896Y-17630079D01*
X8655896Y-17630079D02*
X8646373Y-17611031D01*
X8646373Y-17611031D02*
X8636849Y-17582460D01*
X8636849Y-17582460D02*
X8627325Y-17534841D01*
X8627325Y-17534841D02*
X8627325Y-17496746D01*
X8627325Y-17496746D02*
X8636849Y-17449127D01*
X8636849Y-17449127D02*
X8646373Y-17420555D01*
X8646373Y-17420555D02*
X8655896Y-17401508D01*
X8655896Y-17401508D02*
X8674944Y-17372936D01*
X8674944Y-17372936D02*
X8684468Y-17363412D01*
X8760658Y-17458650D02*
X8760658Y-17591984D01*
X8760658Y-17477698D02*
X8770182Y-17468174D01*
X8770182Y-17468174D02*
X8789230Y-17458650D01*
X8789230Y-17458650D02*
X8817801Y-17458650D01*
X8817801Y-17458650D02*
X8836849Y-17468174D01*
X8836849Y-17468174D02*
X8846373Y-17487222D01*
X8846373Y-17487222D02*
X8846373Y-17591984D01*
X8970182Y-17591984D02*
X8951134Y-17582460D01*
X8951134Y-17582460D02*
X8941611Y-17572936D01*
X8941611Y-17572936D02*
X8932087Y-17553889D01*
X8932087Y-17553889D02*
X8932087Y-17496746D01*
X8932087Y-17496746D02*
X8941611Y-17477698D01*
X8941611Y-17477698D02*
X8951134Y-17468174D01*
X8951134Y-17468174D02*
X8970182Y-17458650D01*
X8970182Y-17458650D02*
X8998754Y-17458650D01*
X8998754Y-17458650D02*
X9017801Y-17468174D01*
X9017801Y-17468174D02*
X9027325Y-17477698D01*
X9027325Y-17477698D02*
X9036849Y-17496746D01*
X9036849Y-17496746D02*
X9036849Y-17553889D01*
X9036849Y-17553889D02*
X9027325Y-17572936D01*
X9027325Y-17572936D02*
X9017801Y-17582460D01*
X9017801Y-17582460D02*
X8998754Y-17591984D01*
X8998754Y-17591984D02*
X8970182Y-17591984D01*
X9093992Y-17458650D02*
X9170182Y-17458650D01*
X9122563Y-17391984D02*
X9122563Y-17563412D01*
X9122563Y-17563412D02*
X9132087Y-17582460D01*
X9132087Y-17582460D02*
X9151134Y-17591984D01*
X9151134Y-17591984D02*
X9170182Y-17591984D01*
X9389230Y-17458650D02*
X9389230Y-17658650D01*
X9389230Y-17468174D02*
X9408277Y-17458650D01*
X9408277Y-17458650D02*
X9446373Y-17458650D01*
X9446373Y-17458650D02*
X9465420Y-17468174D01*
X9465420Y-17468174D02*
X9474944Y-17477698D01*
X9474944Y-17477698D02*
X9484468Y-17496746D01*
X9484468Y-17496746D02*
X9484468Y-17553889D01*
X9484468Y-17553889D02*
X9474944Y-17572936D01*
X9474944Y-17572936D02*
X9465420Y-17582460D01*
X9465420Y-17582460D02*
X9446373Y-17591984D01*
X9446373Y-17591984D02*
X9408277Y-17591984D01*
X9408277Y-17591984D02*
X9389230Y-17582460D01*
X9598754Y-17591984D02*
X9579706Y-17582460D01*
X9579706Y-17582460D02*
X9570182Y-17563412D01*
X9570182Y-17563412D02*
X9570182Y-17391984D01*
X9760658Y-17591984D02*
X9760658Y-17487222D01*
X9760658Y-17487222D02*
X9751135Y-17468174D01*
X9751135Y-17468174D02*
X9732087Y-17458650D01*
X9732087Y-17458650D02*
X9693992Y-17458650D01*
X9693992Y-17458650D02*
X9674944Y-17468174D01*
X9760658Y-17582460D02*
X9741611Y-17591984D01*
X9741611Y-17591984D02*
X9693992Y-17591984D01*
X9693992Y-17591984D02*
X9674944Y-17582460D01*
X9674944Y-17582460D02*
X9665420Y-17563412D01*
X9665420Y-17563412D02*
X9665420Y-17544365D01*
X9665420Y-17544365D02*
X9674944Y-17525317D01*
X9674944Y-17525317D02*
X9693992Y-17515793D01*
X9693992Y-17515793D02*
X9741611Y-17515793D01*
X9741611Y-17515793D02*
X9760658Y-17506270D01*
X9827325Y-17458650D02*
X9903515Y-17458650D01*
X9855896Y-17391984D02*
X9855896Y-17563412D01*
X9855896Y-17563412D02*
X9865420Y-17582460D01*
X9865420Y-17582460D02*
X9884468Y-17591984D01*
X9884468Y-17591984D02*
X9903515Y-17591984D01*
X10046373Y-17582460D02*
X10027325Y-17591984D01*
X10027325Y-17591984D02*
X9989230Y-17591984D01*
X9989230Y-17591984D02*
X9970182Y-17582460D01*
X9970182Y-17582460D02*
X9960658Y-17563412D01*
X9960658Y-17563412D02*
X9960658Y-17487222D01*
X9960658Y-17487222D02*
X9970182Y-17468174D01*
X9970182Y-17468174D02*
X9989230Y-17458650D01*
X9989230Y-17458650D02*
X10027325Y-17458650D01*
X10027325Y-17458650D02*
X10046373Y-17468174D01*
X10046373Y-17468174D02*
X10055896Y-17487222D01*
X10055896Y-17487222D02*
X10055896Y-17506270D01*
X10055896Y-17506270D02*
X9960658Y-17525317D01*
X10227325Y-17591984D02*
X10227325Y-17391984D01*
X10227325Y-17582460D02*
X10208277Y-17591984D01*
X10208277Y-17591984D02*
X10170182Y-17591984D01*
X10170182Y-17591984D02*
X10151135Y-17582460D01*
X10151135Y-17582460D02*
X10141611Y-17572936D01*
X10141611Y-17572936D02*
X10132087Y-17553889D01*
X10132087Y-17553889D02*
X10132087Y-17496746D01*
X10132087Y-17496746D02*
X10141611Y-17477698D01*
X10141611Y-17477698D02*
X10151135Y-17468174D01*
X10151135Y-17468174D02*
X10170182Y-17458650D01*
X10170182Y-17458650D02*
X10208277Y-17458650D01*
X10208277Y-17458650D02*
X10227325Y-17468174D01*
X10303516Y-17668174D02*
X10313039Y-17658650D01*
X10313039Y-17658650D02*
X10332087Y-17630079D01*
X10332087Y-17630079D02*
X10341611Y-17611031D01*
X10341611Y-17611031D02*
X10351135Y-17582460D01*
X10351135Y-17582460D02*
X10360658Y-17534841D01*
X10360658Y-17534841D02*
X10360658Y-17496746D01*
X10360658Y-17496746D02*
X10351135Y-17449127D01*
X10351135Y-17449127D02*
X10341611Y-17420555D01*
X10341611Y-17420555D02*
X10332087Y-17401508D01*
X10332087Y-17401508D02*
X10313039Y-17372936D01*
X10313039Y-17372936D02*
X10303516Y-17363412D01*
M02*
